<?xml version="1.0" encoding="utf-8"?>
<!-- Generator: Adobe Illustrator 17.1.0, SVG Export Plug-In . SVG Version: 6.00 Build 0)  -->
<!DOCTYPE svg PUBLIC "-//W3C//DTD SVG 1.1//EN" "http://www.w3.org/Graphics/SVG/1.1/DTD/svg11.dtd">
<svg version="1.1" id="Layer_1" xmlns="http://www.w3.org/2000/svg" xmlns:xlink="http://www.w3.org/1999/xlink" x="0px" y="0px"
	 viewBox="0 0 46.2 26.1" enable-background="new 0 0 46.2 26.1" xml:space="preserve">
<path fill="#A4A9AD" d="M28,0C15.6,0,5.7,6.8,5.7,6.8s12.2-1,12.2,1.5c0,2.2-9.7,5.8-9.7,5.8s7.6,0.2,7.6,2c0,3.1-15.8,7.3-15.8,7.3
	s5.5,2.5,14.2,2.5c15.5,0,32-8.8,32-15.7C46.2,4.1,37,0,28,0z"/>
<path fill="#111111" d="M28,0.5c-9,0-16.7,3.7-20.1,5.6c0,0,10.5-0.7,10.5,2.2c0,1.9-4.5,4.1-7.7,5.4c2.6,0.3,5.7,0.9,5.7,2.5
	c0,2.9-9.7,6-14.6,7.4c2.2,0.7,6.6,1.9,12.4,1.9c15.6,0,31.5-8.8,31.5-15.1C45.7,4.3,36.5,0.5,28,0.5z"/>
<path fill="#F95602" d="M11.3,23.5L9.5,24c0,0,1.6,0.2,4.2,0.2c18.5,0,30.8-11.3,30.8-13.1c0-0.2-0.1-0.4-0.1-0.4
	C37.9,18.5,24.9,23.9,11.3,23.5z"/>
<path fill="#FFFFFF" d="M28.2,2.1c-6.9,0-14.4,2.7-14.4,2.7s7.7-0.4,7.7,2.9c0,3-5.5,5.2-5.5,5.2s3.3,0.8,3.3,2.7
	c0,4.4-10.8,7.1-10.8,7.1c22.6,1.1,35.5-11,35.5-13.2C44.1,7.3,37.8,2.1,28.2,2.1z"/>
<path fill="#B5985A" d="M28.2,2.5c-4.3,0-9,1.1-11.7,1.9c0,0,5.5,0.2,5.5,3.2c0,2.4-3.1,4.3-4.7,5.2c1.1,0.4,2.6,1.3,2.6,2.8
	c0,3.3-5.2,5.6-8.5,6.7c20.5,0,32.3-10.9,32.3-12.8C43.7,7.6,37.6,2.5,28.2,2.5z"/>
<path fill="#FFFFFF" d="M24.5,5.8c0,0,6.1,1.4,8.8,3.2L21.4,12l11.2-0.4C30.1,13.5,21,17.8,21,17.8s11.2-1.7,18.2-8.1
	C33,4.1,24.5,5.8,24.5,5.8z"/>
<path fill="#111111" d="M27,6c0,0,4.7,1.2,7.2,3.1l-8.9,2.3l8.6-0.3c-2.4,2-9.5,5.4-9.5,5.4c3.7-1,9.6-3,14-6.9
	C34.6,6.4,29.9,5.9,27,6z"/>
</svg>
