<svg id="Layer_1" data-name="Layer 1" xmlns="http://www.w3.org/2000/svg" viewBox="0 0 76.70401 79.62892"><title>Untitled-11</title><path d="M73.835,37.86891a6.86783,6.86783,0,0,0-1.626-6.383A8.82424,8.82424,0,0,1,69.904,35.976l-1.727-.85-1.43-3.839,6.193-12.94a9.97444,9.97444,0,0,1,.677,1.745,9.178,9.178,0,0,0,.893-5.018l1.157-2.42-.646-9.421a4.64563,4.64563,0,0,0-3.085-3.006,4.19576,4.19576,0,0,0-3.976.66l-21.093,16.31c-10.728.301-18.656,4.993-23.514,13.216L0,49.198a14.74328,14.74328,0,0,0,14.269,7.218l6.43-1.153c.687,2.983,4.538,20.196,19.432,24.366-2.52-4.852-5.781-13.489-2.581-20.568,4.263,13.693,10.518,13.309,10.518,13.309-6.051-8.577-1.12-17.702-1.12-17.702,2.463,4.212,6.019,6.088,8.919,6.088a15.29434,15.29434,0,0,1-2.011-12.952l13.25.49,5.946-2.495,3.652-6.63Z" fill="#0a0602"/><polygon points="64.001 30.532 66.169 33.621 64.945 30.573 66.169 27.42 64.001 30.532" fill="#821326"/><path d="M43.34784,21.20174c.215-.66895-1.119-.527-1.119-.527a9.96134,9.96134,0,0,1,2.334-1.109c.332-.412.609-.737.745-.893-.654.054-2.35.416-5.679,2.79a15.5994,15.5994,0,0,1,3.719-.261" fill="#ead9b6"/><path d="M72.66562,38.213a8.37086,8.37086,0,0,0-.084-4.664,7.3824,7.3824,0,0,1-2.344,3.495l-2.922-1.42.008.014,5.997,3.874-3.665.86-.007-.002-.006.002-3.266-1.209.005-.004-.026-.008a8.71166,8.71166,0,0,0-.188-4.737,8.24337,8.24337,0,0,1-2.456,3.757l-3.16-1.172-2.653-6.933,9.647-15.585a8.7944,8.7944,0,0,1,1.613,2.399,8.46431,8.46431,0,0,0-.292-4.534l1.175-1.897,2.749-1.984.507,2.578-4.581,12.697,3.632-7.829c.159.121.496.387,1.238,1.93a11.1979,11.1979,0,0,0-.193-3.948l1.06-2.027-1.568-3.914-4.44,2.454-14.603,16.576c.561-.139-4.979,1.827-6.787,4.16,0,0,3.808.735,4.16,3.284-1.485.598-28.74,19.083-17.092,37.94a31.60114,31.60114,0,0,0,3.891,4.847,25.38489,25.38489,0,0,1-2.785-14.658,27.31334,27.31334,0,0,1,4.22-11.873s-.108,10.505,4.19,16.511a11.30128,11.30128,0,0,0,1.606,1.819s-2.392-4.332-.644-12.105a36.8641,36.8641,0,0,1,3.716-9.538c-1.218,5.728,3.952,9.81,5.222,10.937a16.06968,16.06968,0,0,1-.406-12.478s13.868.516,13.97.521l4.847-4.743.367,2.55505,2.682-4.867-2.344-1.081Zm-16.852-8.31006,4.451-5.4-3.21,5.4,2.625,7.148Z" fill="#ead9b6"/><path d="M5.131,49.39735c1.488,2.669,4.988,3.40405,7.034,3.60205-.596-.584-2.562-2.65-1.955-4.164a8.4647,8.4647,0,0,0,3.928,1.548s-1.878-5.212,1.328-9.234c-4.69,3.759-10.335,8.248-10.335,8.248" fill="#ead9b6"/><path d="M73.95193,3.98036a15.05587,15.05587,0,0,0-1.034,2.687c-.889-6.069-3.238-1.561-3.821-5.193l-1.955,1.511a27.22746,27.22746,0,0,0-.445,4.634,9.07373,9.07373,0,0,1-1.798-2.808,29.90126,29.90126,0,0,0-.487,5.072,9.901,9.901,0,0,1-1.994-3.135,33.466,33.466,0,0,0-.525,5.525,10.98607,10.98607,0,0,1-2.173-3.388,36.57963,36.57963,0,0,0-.576,6.065,11.73624,11.73624,0,0,1-2.44-3.89606l-9.701,7.497a19.772,19.772,0,0,0-4.778,8.471,29.57216,29.57216,0,0,1,.256-4.275,56.47946,56.47946,0,0,0-5.807,4.942,11.93061,11.93061,0,0,1,1.565-5.174,80.15224,80.15224,0,0,0-7.225,6.50995c3.607-6.24,6.499-8.097,7.953-9.304a24.27714,24.27714,0,0,0-16.397,16.062,24.25278,24.25278,0,0,1,.319-3.155l-20.672,16.352s3.181,5.861,12.148,5.634l11.707-1.85706a16.75431,16.75431,0,0,1-1.05-5.331c1.424,4.927,3.881,6.75305,3.881,6.75305s-6.574.87-6.574.874c1.194,4.311,3.801,16.45,15.686,22.16a31.54227,31.54227,0,0,1-3.891-4.847,20.91428,20.91428,0,0,1-1.149-21.699s-4.166,1.379-5.31-1.996c5.606,4.40405,18.839-12.201,16.07-17.525,5.536-4.369,9.358-5.014,9.358-5.014l15.353-15.726,4.439-2.454,1.569,3.914Zm-60.224,49.087a13.46709,13.46709,0,0,1-1.563-.068c-2.046-.198-5.546-.933-7.034-3.602,0,0,5.645-4.489,10.335-8.248,2.613-2.095,4.929-3.964,5.808-4.703-11.968,11.588,2.412,14.862,2.412,14.862Z" fill="#821326"/><polygon points="67.104 46.349 72.318 44.162 71.951 41.606 67.104 46.349" fill="#821326"/><path d="M39.44952,50.682a27.30442,27.30442,0,0,0-4.219,11.872,17.66235,17.66235,0,0,1,3.33-8.145,23.80415,23.80415,0,0,0,5.079,12.784c-4.297-6.006-4.19-16.511-4.19-16.511" fill="#821326"/><path d="M48.31714,47.36916a36.85838,36.85838,0,0,0-3.715,9.538c.158-.437,1.486-4.158,2.851-5.523a12.57862,12.57862,0,0,0,6.086,6.922c-1.27-1.127-6.439-5.209-5.222-10.937" fill="#821326"/><polygon points="60.265 24.503 55.814 29.903 59.68 37.051 57.055 29.903 60.265 24.503" fill="#0a0602"/></svg>