<svg id="Layer_1" data-name="Layer 1" xmlns="http://www.w3.org/2000/svg" viewBox="0 0 97.965 80.03798"><title>Colorado Avalanche logo</title><path d="M97.918,65.309,95.88,69.015A24.092,24.092,0,0,1,76.241,79.946c-7.226.278-9.264-2.779-11.024-4.076s-4.261-7.319-4.261-7.319l.05-1.637q-2.061.83549-4.211,1.581a81.363,81.363,0,0,1-18.718,4.156l-1.485,3.774S10.283,78,0,80.038L8.21,66.44a16.65639,16.65639,0,0,1-5.573-7.615c-4.766-13.769,10.958-31.764,35.27-40.618L49.006,0l5.002,7.781c7.133,1.297,8.339,5.519,8.339,5.519,15.427-.49,27.73,4.563,31.035,14.109,2.086,6.027.247,12.863-4.521,19.388,0,0,8.872,5.448,9.104,18.279Z" fill="#fff"/><path d="M97.918,65.309,95.88,69.015A24.092,24.092,0,0,1,76.241,79.946c-7.226.278-9.264-2.779-11.024-4.076s-4.261-7.319-4.261-7.319l.05-1.637q-2.061.83549-4.211,1.581a81.363,81.363,0,0,1-18.718,4.156l-1.485,3.774S10.283,78,0,80.038L8.21,66.44a16.65639,16.65639,0,0,1-5.573-7.615c-4.766-13.769,10.958-31.764,35.27-40.618L49.006,0l5.002,7.781c7.133,1.297,8.339,5.519,8.339,5.519,15.427-.49,27.73,4.563,31.035,14.109,2.086,6.027.247,12.863-4.521,19.388,0,0,8.872,5.448,9.104,18.279Z" fill="#276092"/><path d="M75.0985,41.22328l-12.537-20.01a8.56509,8.56509,0,0,0,.617-3.26c13.626.84,24.044,6.302,26.172,14.982,1,4.082.047,8.38-2.461,12.522a32.32748,32.32748,0,0,0-11.791-4.234" fill="#fff"/><path d="M92.51959,60.33357c-1.024,1.4-2.088,2.699-2.088,2.699-.307.387-.87,1.016-1.407,1.566l-.441,5.288-.856-.131a12.766,12.766,0,0,0-1.682-2.491,24.58877,24.58877,0,0,1-11.709,4.838,16.57157,16.57157,0,0,1-10.978-1.389,20.84018,20.84018,0,0,0,2.931,4.508c3.155,3.832,8.607,3.621,8.607,3.621,15.049-.292,20.936-11.724,20.936-11.724l-1.002-.049c-.062-2.285-2.028-6.184-2.311-6.736" fill="#231f20"/><path d="M79.6902,73.94807c-2.965.871-10.841,2.673-14.504-1.443,0,0,4.474,3.711,15.304.124Z" fill="#bbc5cc"/><path d="M82.13609,74.82259c-10.838,3.594-15.316-.12-15.316-.12,4.564,5.128,15.666,1.071,15.666,1.071a20.48511,20.48511,0,0,0,4.38-2.093l.56-1.471c-1.428,1.277-5.29,2.613-5.29,2.613" fill="#bbc5cc"/><path d="M32.23819,24.82648c-9.202,5.898-15.855,13.336-17.052,25.381a11.79177,11.79177,0,0,1,.985-.823c.041,3.326,1.986,11.2,11.435,11.571,9.449.37,13.71-2.502,16.86-3.058a51.83811,51.83811,0,0,1,14.637-.555c5.187.741,14.573,2.821,17.94,11.6a26.0282,26.0282,0,0,1-8.862,1.091c-2.408-.278-5.373-1.39-5.743-4.169-.186,3.15,2.316,4.725,5.095,5.003a30.1082,30.1082,0,0,0,10.372-1.05,7.39245,7.39245,0,0,0,.977-3.994,5.76831,5.76831,0,0,1,1.898,2.635c.834-1.297-.216-4.169-.803-5.373a10.5612,10.5612,0,0,1,3,4.084l.675-.842c-.093-1.574-2.833-5.554-3.408-6.297l-2.395,1.503a20.96285,20.96285,0,0,0-11.428-7.712,43.83373,43.83373,0,0,0-14.888-1.473c3.216-1.491,10.627-2.139,14.981-1.12a20.68951,20.68951,0,0,1,12.335,7.468l2.165-1.481c2.267,1.979,6.789,8.479,7.57,12.671l.401-.045s.194-8.238-.053-11.202a8.161,8.161,0,0,1,1.766,1.895c.766-.969.21-3.563-.037-4.613a23.05389,23.05389,0,0,1,5.159,11.164,11.375,11.375,0,0,0,.276-4.247,22.56194,22.56194,0,0,0-1.544-5.249,20.84723,20.84723,0,0,0-6.299-9.202,24.80242,24.80242,0,0,0-15.996-6.3c-6.793-.37-17.045,3.459-19.762,4.57-2.718,1.112-10.067,4.324-15.069,5.065-5.003.741-7.562,1.042-9.216-.714l-.49.762c-2.09-.666-4.499-4.124-4.807-6.409-.309-2.285-.556-4.694,1.852-9.82,2.409-5.126,6.485-9.511,7.473-10.715" fill="#fff"/><path d="M22.1057,36.51108c-1.848,3.23-4.442,10.332-2.034,15.149,2.409,4.817,9.696,5.435,14.328,4.509a75.49964,75.49964,0,0,0,12.537-4.015,53.27446,53.27446,0,0,1,12.074-3.983c5.048-.834,8.893-.695,12.923,1.204,4.029,1.899,6.445,3.186,9.823,6.712l1.369-.715,2.8,2.951.599-4.464,1.698-2.6a13.86428,13.86428,0,0,0-10.576-7.469,17.10917,17.10917,0,0,1,8.994,7.413l-1.203,2.104-.15,2.178-1.954-2.103-1.03.647a20.20629,20.20629,0,0,0-9.923-6.321,31.618,31.618,0,0,0-16.674-.247,56.89128,56.89128,0,0,0-9.017,3.211,47.056,47.056,0,0,1-6.979,2.718,23.46931,23.46931,0,0,1-10.313,1.049c-3.891-.555-7.288-2.408-8.214-6.731s-.317-6.337.922-11.197" fill="#276092"/><path d="M40.8535,65.21628l-1.112,2.964c4.354.186,14.313-1.76,20.334-3.844-2.455-1.436-8.754-2.733-19.222.88" fill="#fff"/><path d="M25.0475,41.75427l24.004-39.114,24.364,38.398a24.47161,24.47161,0,0,0-5.481.216c-1.297.216-4.2.834-5.002,1.05-.803.216-4.941,1.389-6.331,1.852-1.389.464-5.342,1.853-6.577,2.316-1.235.464-4.323,1.76-5.496,2.162a46.95316,46.95316,0,0,1-5.713,1.636,22.57675,22.57675,0,0,1-6.701.68,6.83909,6.83909,0,0,1-4.415-1.791,8.42384,8.42384,0,0,1-2.409-4.508,11.21223,11.21223,0,0,1-.243-2.897" fill="#bbc5cc"/><path d="M32.972,49.74158c5.874.745,18.934-5.339,18.934-5.339,12.081-4.663,16.082-4.212,16.082-4.212-4.438-1.685-15.723,2.93-15.723,2.93l-3.038-9.752-4.91,13.051c-8.528,3.118-11.345,3.322-11.345,3.322m16.103-44.531,22.627,35.752a27.26327,27.26327,0,0,0-3.768.292c-1.296.216-4.199.833-5.002,1.049-.803.217-4.941,1.39-6.33,1.853-1.39.463-5.342,1.853-6.577,2.316-1.236.463-4.323,1.76-5.497,2.162a46.8483,46.8483,0,0,1-5.713,1.636,22.60618,22.60618,0,0,1-6.7.68,6.85244,6.85244,0,0,1-4.416-1.791,8.43425,8.43425,0,0,1-2.409-4.509c-.029-.171-.055-.332-.079-.485Z" fill="#8b2332"/><polygon points="46.045 45.631 50.886 43.634 49.032 37.742 46.045 45.631" fill="#276092"/><path d="M11.66049,60.87648a14.99027,14.99027,0,0,1-4.867-7.701c-2.674-10.905,8.604-23.359,26.186-30.233,0,0-13.649,6.176-19.454,19.639-2.725,6.32-1.359,12.97.062,15.255Z" fill="#fff"/><path d="M33.67409,23.02008l.417-.648a49.747,49.747,0,0,0-9.079,5.65,48.58416,48.58416,0,0,0-6.16,5.837,35.584,35.584,0,0,0-4.91,7.735,22.62427,22.62427,0,0,0-2.084,9.263c-.185,4.262,2.501,8.384,2.501,8.384l-11.718,19.083s3.52-.555,4.492-.694c.973-.139,4.818-.603,6.439-.788s6.994-.695,9.078-.834c2.085-.138,8.06-.648,12.969-.833l4.308-11.348c1.899-.464,3.196-1.158,6.392-1.807a29.38955,29.38955,0,0,1,11.487-.046,26.617,26.617,0,0,1,10.931,4.724c-1.204-2.084-3.752-4.029-7.828-5.373a32.34839,32.34839,0,0,0-10.931-1.25,44.5671,44.5671,0,0,0-8.43,1.575c-2.13.602-4.215,1.575-6.809,2.13a25.3417,25.3417,0,0,1-7.642.741c-2.548-.231-6.346-.509-9.82-3.89-3.474-3.382-4.307-7.411-3.937-12.089.371-4.679,3.659-11.117,7.55-15.517a51.32807,51.32807,0,0,1,12.784-10.005" fill="#bbc5cc"/><path d="M38.4142,64.19728l-3.65,9.635c-17.094,1.015-29.296,2.648-29.296,2.648l9.814-16.033a13.81555,13.81555,0,0,0,5.932,4.398,15.95211,15.95211,0,0,0,7.041,1.066,47.11442,47.11442,0,0,0,10.159-1.714" fill="#8b2332"/><path d="M61.5519,19.23859c2.494-11.579-12.559-11.698-12.559-11.698l-.683,3.296-2.315.712-1.425,5.166-1.871,1.515-2.731,4.453s17.19-12.826,21.584-3.444" fill="#fff"/><path d="M46.79619,15.10358l.238-.95s8.847-2.91,12.588.653c0,0-3.919-3.028-12.826.297" fill="#276092"/><path d="M43.91719,18.184s12.558-8.09,17.308-.43c0,0-2.613-6.888-18.229,1.841Z" fill="#bbc5cc"/></svg>