<svg id="Layer_1" data-name="Layer 1" xmlns="http://www.w3.org/2000/svg" viewBox="0 0 9.70399 7.18645"><title>Untitled-4</title><path d="M8.929,2.41525a3.33962,3.33962,0,0,1-2.266.768l-.133-.118-.158-.024-.01-.048a1.89965,1.89965,0,0,1,.265-.032l.073-.072a1.17975,1.17975,0,0,1,.381-.047l.038-.07.149.028.069-.051a.1795.1795,0,0,0,.196-.049l.061.004.065-.009c.07-.173.256-.006.363-.04l.005-.07.239-.02.017-.075.1-.006.081-.024.234-.058.036-.028.195.01v.031m-.572.718.107.036a3.606,3.606,0,0,1-2.313.656.94449.94449,0,0,0-.324-.214v-.038a.99929.99929,0,0,1,.3-.044l.083-.072a1.095,1.095,0,0,1,.36-.077c.105.005.208.014.313.009l.048-.071c.118-.021.229.025.347.001l.039-.056c.129-.052.28-.008.416-.055l-.021-.043.09-.006.168-.026.133-.001.129-.025.125.026m-2.371,1.178a2.71039,2.71039,0,0,1-.669-.093l.069-.061c.103-.037.217-.044.321-.082l.055-.057.172-.074a1.2524,1.2524,0,0,1,.531.033l.211.04.042-.03.026-.053.172.001.212-.018.023-.034.214-.014.182.072a3.209,3.209,0,0,1-1.561.37m.641.326a3.0147,3.0147,0,0,1-1.744-.08l-.01-.031.137-.029.049-.053.113-.03.086-.072.127.003c.1-.021.172.067.266.095l.104-.017.105.052.084-.006.136.027.036-.04.209.076.024-.02.13.006.157.077-.009.042m-.907.419.032.058a2.45707,2.45707,0,0,1-1.6-.304l-.08-.067.01-.019.206-.008.06-.047.147-.015.116.009.178.112.129-.013a1.009,1.009,0,0,0,.34.168l.058-.046.152.088.065-.02.099.062.088.042m-.744.381a2.20119,2.20119,0,0,1-1.673-.87l.009-.03.201.085.23.075.022-.032a.56975.56975,0,0,1,.238.179l.172.186.088-.038.164.151.053-.045.125.077.136.107.071-.012.116.05.068.087-.02.03m-2.458,1.49a2.2588,2.2588,0,0,1-2.259-2.226l.064.066.053-.038.055.026.031-.02.013.002.082-.047.089.103c.096,0,.08-.135.134-.217l-.003.092a1.74015,1.74015,0,0,0,3.178.98.80646.80646,0,0,0,.391.034.9048.9048,0,0,1-.231-.368,3.16388,3.16388,0,0,0,.496.206,2.26027,2.26027,0,0,1-2.093,1.407m0-4.518a2.24717,2.24717,0,0,1,.91.191l-.066.14a2.10619,2.10619,0,0,0-2.831,1.235l-.048-.171-.061.02a2.25886,2.25886,0,0,1,2.096-1.415m2.668-1.156h.889c2.106,0,2.622-.541,2.968-.851l.033.009c-.274.504-.969,1.071-2.557,1.071H5.276c-1.223,0-1.697.437-1.945.885l-.207-.063c.138-.42.664-1.051,2.062-1.051m-2.114,3.697-.021-.227.124-.064.067.119.067.058.065.103.062.042.028.049.049.026.071.08.057-.005.068.059.063.075.064.069.067-.005.046.066.078.028.081.153a1.8434,1.8434,0,0,1-1.036-.626m.178-1.531a1.44743,1.44743,0,1,0,.422,2.122l.189.077a1.64463,1.64463,0,1,1-.608-2.422l-.003.223m-.37.486.36-.354.015.01.002.104a1.34888,1.34888,0,0,1-.102.448.85191.85191,0,0,0-.275-.208m-.201,1.245.125-.062-.001.155Zm-.444.314.027.009.074.512a1.30713,1.30713,0,0,1-.47-.158Zm-.424-.334a.84491.84491,0,0,0,.345.301l-.36.354a1.34184,1.34184,0,0,1-.286-.25Zm-.056-.099.012.025-.309.415a1.32139,1.32139,0,0,1-.221-.444Zm-.064-.536-.018.173a.83886.83886,0,0,0,.049.284l-.505-.005a1.34742,1.34742,0,0,1-.029-.279l.004-.1Zm.031-.109-.009.026-.513.074a1.33337,1.33337,0,0,1,.158-.47Zm.333-.425a.84253.84253,0,0,0-.3.345l-.354-.36a1.31123,1.31123,0,0,1,.25-.286Zm.099-.056-.024.013-.415-.31a1.34013,1.34013,0,0,1,.444-.221Zm-.144.773.003.049-.168.225H1.817a.764.764,0,0,1-.055-.284l.023-.186.027-.004Zm-.169-.285-.02-.02a.76524.76524,0,0,1,.31-.355l.022.016-.002.282-.032.036Zm.177.181-.108-.111.153-.022-.045.133m.018.255.062.126-.155-.002Zm.207.516-.02.019a.75512.75512,0,0,1-.355-.31l.016-.022.282.003.036.031Zm.114-1.159-.126.062.001-.155Zm.417-.323-.075-.512a1.30075,1.30075,0,0,1,.47.158l-.369.363-.026-.009m-.162.305.11-.108.023.153-.133-.045m-.188.999-.111.109-.022-.153.133.044m-.18-.499a.274.274,0,1,1,.274.274.27378.27378,0,0,1-.274-.274m-.01-.796.004-.504a1.29153,1.29153,0,0,1,.28-.03l.1.004.072.499-.172-.018a.85994.85994,0,0,0-.284.049m.284.04.186.023.004.027-.201.198-.048.003-.226-.168v-.028a.76919.76919,0,0,1,.285-.055m.283,1.552-.004.504a1.34731,1.34731,0,0,1-.279.03l-.1-.004-.073-.499.173.018a.854.854,0,0,0,.283-.049m-.283-.04-.187-.023-.004-.027.201-.198.049-.003.225.168v.027a.74893.74893,0,0,1-.284.056m.352-1.123-.037-.032-.04-.278.019-.02a.763.763,0,0,1,.305.236l-.043.096Zm.068.08.097.001-.048.091-.049-.092m-.034.937-.022-.017.002-.281.032-.037.019-.002.151.186-.182.151m.417.41a1.34991,1.34991,0,0,1-.444.221l.004-.518.025-.013Zm-.341-.353.173-.151a2.50909,2.50909,0,0,0,.411.264l-.179.188ZM9.469.95025l.012.01c-.07.183-.561,1.121-2.591,1.121-.383,0-1.156-.005-1.821-.005a1.53372,1.53372,0,0,0-1.505,1.419c0,.866-.474,1.081-.474,1.081a1.82376,1.82376,0,0,0,.279-1.103,1.67476,1.67476,0,0,1,1.878-1.67c.232,0,.559.046,1.594.046,1.611,0,2.204-.327,2.628-.899m-3.874,1.311.204.004.167.044.145-.044.135.027.033-.048.179.027.067-.06.087.004.177-.023.01.057a1.45573,1.45573,0,0,1-1.295.115l.091-.103m-.444.708-.04-.06-.083-.049-.035-.051-.096-.025-.011-.048.199-.025.228-.051.028-.053s.034-.093.37-.093c.471,0,.994.213.94.299a3.55769,3.55769,0,0,1-1.5.156m.558.518a1.548,1.548,0,0,1-.732-.017l-.12-.096-.052-.009-.07-.102.009-.04.185-.02.061-.071a3.56252,3.56252,0,0,1,.658-.076c.21,0,.727.115.673.184l-.116.066-.179.069-.247.081-.07.031m-1.231.49.031-.036-.1-.073.009-.04.186.004.041-.041.073-.005.051-.027.007-.056.079-.03.053-.054a1.66447,1.66447,0,0,1,1.022.171c-.072.098-.191.102-.29.154l-.248.07c-.496.165-.873.05-.914-.037m-.899.386.092-.007.085.028.058-.019.175.012.047-.071.265-.004.039-.073.102-.02.024-.038.532.165a1.05982,1.05982,0,0,1-.837.267c-.548,0-.666-.109-.738-.157l.055-.117.101.034m.746-.282a1.30062,1.30062,0,0,1-.78.162c.042-.15.098-.295.152-.442a1.6017,1.6017,0,0,1,.628.28m.048-1.541.118-.112.044-.03.126-.018.074-.063c.091-.066.206-.001.294-.039l.118-.007c.09.053.221.073.248.181a2.04623,2.04623,0,0,1-1.059.233l.037-.145m.583.48a2.1197,2.1197,0,0,1-1.085.211l.045-.148c.016-.067.12-.084.119-.177l.132-.086.042-.049c.293-.042.834.21.747.249m-1.174.435.061-.096a.40767.40767,0,0,1,.201-.051c.368,0,.812.231.721.269a1.95945,1.95945,0,0,1-1.032.173l-.004-.124.055-.086-.002-.085m5.75-2.454a2.78506,2.78506,0,0,1-2.694,1.629l-.179-.078-.098-.024.021-.062.124-.009.258-.054.038-.096.148-.034.04-.067a1.37486,1.37486,0,0,1,.275.008l.045-.053c.113-.002.103.012.179-.039.07-.047.241.019.239-.089.143-.023.296.019.425-.076l.088-.018.037-.044.161-.039.039-.071a1.64808,1.64808,0,0,0,.837-.794l.017.01m-.799,1.227a2.11358,2.11358,0,0,0,.894-1.591l-.02-.01c-.708.967-1.352.958-1.352.958l-.012-.055a2.28654,2.28654,0,0,0,1.058-1.44l-.02-.009a3.73488,3.73488,0,0,1-3.018,1.03c-.571,0-.869-.012-1.256-.012a2.10484,2.10484,0,0,0-2.078,1.163,2.533,2.533,0,0,0-.411-.034,2.44,2.44,0,1,0,2.271,3.334l.13.013c.249,0,.309-.056.309-.094l-.08-.2a2.27116,2.27116,0,0,0,.877-.091c-.097-.152-.449-.349-.267-.349.873,0,1.16-.168,1.16-.204l-.279-.242a2.72438,2.72438,0,0,0,1.121-.474l-.172-.181a2.30884,2.30884,0,0,0,1.112-.7l-.374-.053v-.04a2.474,2.474,0,0,0,.816-.664c0-.057-.462.039-.409-.055" fill="#fff"/><path d="M8.326,2.94745v.04l.374.053a2.31668,2.31668,0,0,1-1.112.7l.171.181a2.707,2.707,0,0,1-1.12.473l.279.243c0,.036-.287.204-1.16.204-.182,0,.17.197.267.349a2.27423,2.27423,0,0,1-.878.091l.081.2c0,.038-.06.094-.309.094l-.13-.013a2.44027,2.44027,0,1,1-2.271-3.334,2.53276,2.53276,0,0,1,.411.034,2.10483,2.10483,0,0,1,2.078-1.163c.387,0,.685.012,1.256.012A3.73123,3.73123,0,0,0,9.281.08045l.02.01a2.28185,2.28185,0,0,1-1.058,1.439l.012.056s.644.009,1.352-.958l.02.01a2.11356,2.11356,0,0,1-.894,1.591c-.053.093.409-.002.409.055a2.48654,2.48654,0,0,1-.816.664m.575-.755a2.14206,2.14206,0,0,0,.803-1.555.08875.08875,0,0,0-.159-.056,2.29766,2.29766,0,0,1-1.057.875,2.30719,2.30719,0,0,0,.889-1.352.08887.08887,0,0,0-.151-.078,3.62793,3.62793,0,0,1-2.963,1.007c-.436,0-.934-.012-1.256-.012a2.21447,2.21447,0,0,0-2.125,1.157,2.62445,2.62445,0,0,0-.364-.028,2.518,2.518,0,1,0,2.319,3.495l.082.007c.319,0,.386-.093.386-.171l-.062-.123a2.15819,2.15819,0,0,0,.808-.095l.052-.073c0-.069-.142-.183-.244-.272.655-.011,1.137-.128,1.137-.281,0-.03-.003-.068-.177-.205.369-.1,1.018-.349,1.018-.511l-.117-.146c.574-.216,1.058-.598,1.058-.735,0-.11-.163-.12-.243-.126.286-.183.685-.496.685-.631,0-.14-.219-.085-.319-.091" fill="#e21936"/><path d="M3.1167,4.20715a.7521.7521,0,0,0-.305-.235l-.019.019.04.279.037.031.204.002.043-.096" fill="#e21936"/><path d="M2.2332,3.995l.226.168.048-.003.201-.197-.004-.028-.186-.023a.75016.75016,0,0,0-.285.056Z" fill="#e21936"/><polygon points="2.722 4.06 2.612 4.168 2.744 4.213 2.722 4.06" fill="#e21936"/><polygon points="2.804 5.088 2.679 5.15 2.803 5.243 2.804 5.088" fill="#e21936"/><path d="M1.7959,5.785l.36-.354a.84242.84242,0,0,1-.345-.3l-.301.404a1.33822,1.33822,0,0,0,.286.25" fill="#e21936"/><polygon points="2.938 4.382 2.987 4.474 3.035 4.383 2.938 4.382" fill="#e21936"/><path d="M2.26151,5.47325l-.026-.009-.369.363a1.30072,1.30072,0,0,0,.47.158Z" fill="#e21936"/><polygon points="2.935 4.981 2.916 4.984 2.885 5.02 2.882 5.302 2.904 5.318 3.086 5.167 2.935 4.981" fill="#e21936"/><polygon points="2.231 4.248 2.356 4.186 2.232 4.093 2.231 4.248" fill="#e21936"/><path d="M1.7674,5.05615l-.012-.025-.518-.004a1.31952,1.31952,0,0,0,.22.444Z" fill="#e21936"/><path d="M2.8022,5.34135l-.226-.168-.048.003-.201.197.004.028.186.023a.7503.7503,0,0,0,.285-.056Z" fill="#e21936"/><polygon points="2.313 5.276 2.423 5.167 2.291 5.123 2.313 5.276" fill="#e21936"/><path d="M2.881,5.43085l-.004.518a1.33072,1.33072,0,0,0,.444-.221l-.415-.309-.025.012" fill="#e21936"/><polygon points="2.098 4.955 2.036 4.83 1.943 4.954 2.098 4.955" fill="#e21936"/><path d="M2.1658,5.03485l-.282-.002-.016.022a.76053.76053,0,0,0,.355.31l.02-.02-.041-.278-.036-.032" fill="#e21936"/><path d="M2.151,4.31635l.002-.282-.022-.016a.76042.76042,0,0,0-.31.355l.02.02.278-.041.032-.036" fill="#e21936"/><polygon points="1.91 4.464 2.019 4.575 2.063 4.442 1.91 4.464" fill="#e21936"/><path d="M1.7849,4.48185l-.023.186a.76917.76917,0,0,0,.055.285h.028l.168-.226-.003-.048-.198-.201Z" fill="#e21936"/><path d="M2.345,5.49515l.073.499.1.004a1.28924,1.28924,0,0,0,.279-.03l.004-.504a.85405.85405,0,0,1-.283.049l-.173-.018" fill="#e21936"/><path d="M3.25659,3.66525l-.002-.104-.015-.01-.36.354a.84137.84137,0,0,1,.275.208,1.32451,1.32451,0,0,0,.102-.448" fill="#e21936"/><path d="M2.12979,3.91795l.025-.012.004-.518a1.30315,1.30315,0,0,0-.444.221Z" fill="#e21936"/><path d="M2.69029,3.84125l-.073-.499-.1-.004a1.28924,1.28924,0,0,0-.279.03l-.004.504a.854.854,0,0,1,.283-.049l.173.018" fill="#e21936"/><path d="M3.5639,5.48855a2.50914,2.50914,0,0,1-.411-.264l-.173.15.405.302.179-.188" fill="#e21936"/><path d="M3.1694,3.509a1.32687,1.32687,0,0,0-.47-.158l.075.512.026.009Z" fill="#e21936"/><path d="M1.188,4.66815a1.34742,1.34742,0,0,0,.029.279l.505.005a.835.835,0,0,1-.049-.284l.018-.173-.499.073-.004.1" fill="#e21936"/><path d="M1.20039,4.48665l.512-.075.009-.026-.363-.369a1.31994,1.31994,0,0,0-.158.47" fill="#e21936"/><path d="M1.40089,3.94635l.354.36a.84981.84981,0,0,1,.3-.345l-.404-.301a1.33767,1.33767,0,0,0-.25.286" fill="#e21936"/><path d="M2.7919,4.66815a.274.274,0,1,0-.274.274.27442.27442,0,0,0,.274-.274" fill="#e21936"/><path d="M2.5177,3.02315a1.645,1.645,0,1,0,1.343,2.595l-.189-.077a1.44622,1.44622,0,1,1-.422-2.122l.003-.223a1.63361,1.63361,0,0,0-.735-.173" fill="#e21936"/><path d="M4.3459,5.682a.81705.81705,0,0,1-.391-.033,1.74059,1.74059,0,0,1-3.178-.981l.003-.092c-.054.082-.038.217-.134.217L.5569,4.69l-.082.047-.013-.002-.031.02-.055-.026-.053.038-.064-.066a2.25965,2.25965,0,0,0,4.352.819,3.163,3.163,0,0,1-.496-.206.90464.90464,0,0,0,.231.368" fill="#e21936"/><path d="M.4827,3.80445l.048.17a2.10657,2.10657,0,0,1,2.831-1.234l.066-.14a2.26114,2.26114,0,0,0-3.006,1.223l.061-.019" fill="#e21936"/><path d="M5.2764,1.48275h1.243c1.588,0,2.283-.568,2.557-1.071l-.034-.01c-.346.31-.861.852-2.967.852h-.889c-1.398,0-1.925.63-2.062,1.051l.206.062c.249-.447.722-.884,1.946-.884" fill="#e21936"/><path d="M5.24719,1.80315a1.67494,1.67494,0,0,0-1.878,1.671,1.81925,1.81925,0,0,1-.28,1.102s.475-.215.475-1.081a1.53282,1.53282,0,0,1,1.505-1.418c.665,0,1.438.004,1.82.004,2.031,0,2.522-.938,2.592-1.121l-.012-.01c-.424.572-1.018.899-2.628.899-1.035,0-1.362-.046-1.594-.046" fill="#e21936"/><path d="M5.71089,2.51395c-.336,0-.37.094-.37.094l-.028.052-.228.052-.199.024.011.049.096.024.035.052.083.049.04.06a3.57422,3.57422,0,0,0,1.5-.157c.054-.085-.469-.299-.94-.299" fill="#e21936"/><path d="M3.7291,3.62585l.004.125a1.96007,1.96007,0,0,0,1.032-.174c.09-.038-.353-.269-.721-.269a.41394.41394,0,0,0-.202.051l-.061.096.002.086-.054.085" fill="#e21936"/><path d="M4.20909,2.77155l-.042.048-.132.086c.001.093-.103.11-.119.177l-.045.149a2.11969,2.11969,0,0,0,1.085-.211c.087-.04-.454-.291-.747-.249" fill="#e21936"/><path d="M5.39459,2.45235c-.027-.108-.158-.128-.247-.181l-.118.007c-.089.038-.203-.027-.295.039l-.073.063-.127.018-.043.03-.118.112-.037.145a2.0427,2.0427,0,0,0,1.058-.233" fill="#e21936"/><path d="M3.5452,4.24355a1.3,1.3,0,0,0,.779-.163,1.58674,1.58674,0,0,0-.628-.279c-.053.146-.109.292-.151.442" fill="#e21936"/><path d="M3.47749,4.329l-.055.117c.072.048.191.157.738.157a1.0609,1.0609,0,0,0,.838-.267l-.533-.165-.024.038-.102.02-.038.073-.266.005-.047.07-.174-.012-.058.02-.085-.029-.092.007-.102-.034" fill="#e21936"/><path d="M5.6404,3.94385c.098-.051.217-.056.289-.154a1.65027,1.65027,0,0,0-1.021-.17l-.053.054-.079.03-.007.056-.051.026-.073.005-.041.041-.186-.004-.009.04.1.073-.031.037c.041.086.418.201.914.037l.248-.071" fill="#e21936"/><path d="M6.20461,3.30675l.117-.066c.053-.069-.463-.184-.673-.184a3.68393,3.68393,0,0,0-.659.075l-.061.071-.185.021-.009.039.07.103.053.008.12.097a1.54379,1.54379,0,0,0,.731.017l.07-.031.248-.082.178-.068" fill="#e21936"/><path d="M6.79871,2.249l-.009-.057-.178.023-.087-.004-.067.06-.179-.027-.033.048-.135-.027-.145.044-.167-.044-.204-.004-.091.103a1.45255,1.45255,0,0,0,1.295-.115" fill="#e21936"/><path d="M4.0274,5.42295l-.078-.028-.047-.066-.066.005-.064-.069-.064-.075-.067-.058-.057.005-.071-.081-.049-.026-.028-.049-.062-.041-.065-.104-.068-.058-.066-.119-.125.064.022.227a1.83467,1.83467,0,0,0,1.036.626l-.081-.153" fill="#e21936"/><path d="M4.92751,5.32055l-.116-.05-.071.012-.136-.107-.124-.078-.053.046-.165-.151-.087.038-.173-.186a.5732.5732,0,0,0-.237-.179l-.023.031-.23-.074-.2-.085-.009.03a2.20239,2.20239,0,0,0,1.672.87l.021-.03-.069-.087" fill="#e21936"/><path d="M5.5327,4.95215l-.065.02-.152-.087-.058.045a.99588.99588,0,0,1-.339-.168l-.13.013-.178-.112-.116-.009-.147.015-.059.047-.207.008-.01.019.081.067a2.45322,2.45322,0,0,0,1.599.304l-.032-.058-.087-.042-.1-.062" fill="#e21936"/><path d="M6.4785,4.51835l-.129-.006-.024.02-.209-.076-.036.04-.137-.027-.083.006-.106-.052-.104.016c-.093-.027-.165-.116-.266-.094l-.126-.003-.086.072-.113.03-.049.053-.137.029.01.03a3.00471,3.00471,0,0,0,1.744.081l.009-.042-.158-.077" fill="#e21936"/><path d="M7.3649,3.86935l-.214.014-.023.034-.212.018-.172-.001-.026.053-.042.03-.211-.04a1.25236,1.25236,0,0,0-.531-.033l-.172.074-.055.057c-.104.038-.218.045-.321.082l-.069.061a2.71034,2.71034,0,0,0,.669.093,3.209,3.209,0,0,0,1.561-.37l-.182-.072" fill="#e21936"/><path d="M8.10291,3.13275l-.133.001-.168.026-.09.006.021.043c-.136.046-.286.002-.416.055l-.039.056c-.118.024-.229-.023-.347-.001l-.048.07c-.105.005-.208-.004-.313-.008a1.09345,1.09345,0,0,0-.36.076l-.083.073a.968.968,0,0,0-.3.043v.039a.94228.94228,0,0,1,.324.213,3.59932,3.59932,0,0,0,2.313-.655l-.107-.037-.125-.026-.129.026" fill="#e21936"/><path d="M8.9287,2.38475l-.195-.011-.036.029-.234.057-.081.025-.1.006-.017.074-.239.02-.005.071c-.107.033-.292-.133-.362.04l-.066.009-.061-.005a.17735.17735,0,0,1-.196.049l-.069.052-.149-.029-.038.071a1.1793,1.1793,0,0,0-.381.046l-.073.073a1.76048,1.76048,0,0,0-.265.032l.011.047.157.025.133.118a3.33484,3.33484,0,0,0,2.266-.769v-.03" fill="#e21936"/><path d="M8.6783,1.78545l-.04.071-.161.039-.036.044-.088.018c-.129.095-.283.052-.426.076.002.108-.168.042-.238.089-.076.051-.066.037-.18.038l-.044.053a1.4477,1.4477,0,0,0-.275-.007l-.04.067-.149.033-.037.097-.259.054-.124.009-.02.062.098.024.178.078a2.78724,2.78724,0,0,0,2.695-1.63l-.017-.009a1.648,1.648,0,0,1-.837.794" fill="#e21936"/></svg>