<svg id="Layer_1" data-name="Layer 1" xmlns="http://www.w3.org/2000/svg" xmlns:xlink="http://www.w3.org/1999/xlink" viewBox="0 0 595.00172 712.67999"><defs><clipPath id="clip-path"><rect x="0.04176" width="595.07996" height="712.80002" fill="none"/></clipPath><clipPath id="clip-path-2"><rect x="0.04176" y="9.72003" width="585.47998" height="693.48001" fill="none"/></clipPath></defs><title>Ottawa Senators</title><g clip-path="url(#clip-path)"><path d="M434.56175,253.92l-72.24-98.64-26.28,12.12a176.273,176.273,0,0,0-20.16-5.16l5.88-6V105.36h-6.6c9.24-23.28-13.92-66.36,63-105.36h-182.04c-127.32,39.96-90.96,272.28-90.96,272.28l13.68-5.16s-5.28,16.44-1.92,32.04c0,0-13.2,31.8,2.04,63l-9.24,12.96,2.4,68.76c-24,20.88-68.16,5.04-76.92,42.6-7.08,9.48-30.36,16.8-30.36,16.8-42.12,110.28,203.16,123.24,248.88,184.44,0,0,43.8,24.96,105.72,24.96,129.84,0,235.56-105.6,235.56-235.56A234.71093,234.71093,0,0,0,434.56175,253.92Z" fill="#fff"/></g><g clip-path="url(#clip-path-2)"><path d="M428.44179,261.96l-69.24-94.56-22.44,10.44s-15-5.76-40.92-9.24l16.32-16.32v-37.2h-11.52c20.04-32.52-11.52-66.12,46.2-105.36h-149.16c-112.56,37.92-84.48,249.24-84.48,249.24l21.48-8.16s-13.44,28.2-7.68,49.44c0,0-14.88,32.16,3.12,62.88l-10.56,14.88,2.28,68.88c-15,26.16-71.88,11.88-77.16,41.28-2.16,12.48-32.16,22.8-32.16,22.8-31.56,93.84,208.32,111.48,247.8,169.32a226.82033,226.82033,0,0,0,99.12,22.8c124.8,0,225.96-101.16,225.96-225.96C585.40175,376.44,519.52181,291.12,428.44179,261.96Z"/></g><path d="M442.24175,480.72s21.48,18.48,21.48,24.84-44.88,32.88-44.88,32.88c15-20.76,27.24-30.84,27.24-39.84,0-8.88-15.96-11.4-20.28-28.32-16.2,26.16-17.04,42.96-17.04,42.96l8.04,54.84-21.84-2.64c-45.6,45.48-40.44,95.52-40.44,95.52,28.56-82.92,125.52-84.12,125.52-162.48C472.84175,492.72,442.24175,480.72,442.24175,480.72Zm-258.84,109.44c32.4,7.2,75.72,34.68005,75.72,34.68005-3.12-11.52005-12.36-22.44-12.36-22.44-54.48-17.28-87.12-51.12-87.12-51.12l-83.04-45.6s49.56.24,45.12-36.36c-21.48,15.72-62.64,9.6-62.64,26.52,0,18.72,32.64,37.68,96.96,78.47995l-99.48-45.6,6-6.48-6.84-13.32c-.72,5.04-26.04,5.16-26.04,22.2,0,60,212.4,82.32,251.28,139.08C285.64174,640.68005,227.56175,612.6,183.40175,590.16Zm24.6-485.04-11.16-71.64c-79.08,33.72-68.52,195.84-68.52,195.84l80.4-116.76h74.28c12.84-25.44-2.88-65.87994,25.56-83.28h-97.92Z" fill="#ce1126"/><path d="M353.80177,483.48l13.56-6.6-14.88-57.84,6-17.88,40.92-15.72,11.76,5.16-1.56-18.6s-11.64-11.28-25.32-11.28c-13.2,0-18.48,9.48-36.6,31.44,0,0-10.44-27.36-52.92-27.36-35.88,0-78.96,16.68-78.96,16.68-7.68,10.44-6.6,32.4,45.24,28.56l-7.44,34.08,28.8,4.08s-36.6,80.64-16.56,100.08c19.08,18.36,38.64,38.04,45.48,38.04,26.64,0,43.56-6.96,46.8-10.32,1.56-1.44,2.52-4.8,2.52-9,0-14.88-14.76-16.56-26.52-16.56-25.2,0-34.2,8.76-34.2,8.76l4.8-16.2c3.12-12,54-5.64,54-5.64l-1.2-15.84-10.08,1.56-21.36-3.36-50.4,1.44-2.4-1.92,60-10.56,13.08,2.64,11.28-2.76-6.12-5.52-6.6,2.52-1.2-13.2-35.88-6.12,28.32-9.72Z" fill="#fff"/><path d="M294.52174,617.16l32.04,21.84,8.4-29.04-27.96-4.08Zm110.76-210.36-11.4,2.16c-4.68,18.84-18,11.04-20.16,6.48l-5.4,19.68,9,29.4,7.56,16.08-12.96,10.92,10.08,11.28,3.48,8.16,14.52-48,11.76-19.2c2.04-3.24-9.6-26.28-9.6-26.28Z" fill="#fff"/><path d="M277.12172,169.92l10.92-11.52h-56.4l-47.16,38.04,41.76-48.96h68.4V127.56h-74.4l-66.6,90.24,3.12,15.48S193.48174,169.92,277.12172,169.92Zm139.2,187.43994-64.92-37.2-129.96,44.28s48.12-12.48,83.64-12.48c38.52,0,45.24,20.76,45.24,20.76s11.88-21.48,29.88-21.48a61.84146,61.84146,0,0,1,36.72,12.6Z" fill="#bf910c"/><path d="M450.16176,292.08v73.2a144.15207,144.15207,0,0,1-42.12,247.56c-23.52,38.4-17.04,60.96-14.04,67.56,97.2-16.44,171.6-101.28,171.6-203.28C565.60176,396,518.44173,325.68,450.16176,292.08Zm-55.92,236.16-8.28,22.08,12.84,2.16Zm-160.8-18.6c0-43.8,10.68-89.16,10.68-89.16s-65.04,4.56-53.52-50.4c0,0-14.16,11.64-27,6.6,0,0,24.48-6.48,24.48-33.12l6.36,19.32,168.84-67.44,66.48,57.84-1.44-26.04c-7.44,2.76-23.52-8.28-23.52-8.28l2.52-2.04s10.8,5.52,20.4,1.56l-1.44-25.56-73.2-101.76-16.56,6.24s-35.76-15.12-70.56-15.12c-53.04,0-119.04,52.44-119.04,110.4l35.52,2.64,96.96-72-97.44,95.4s-8.64-16.92-21-16.92c-8.64,0-21.72,10.2-21.72,35.28,0,19.68,9.6,29.28,9.6,29.28l-11.4,15.36c8.4,123.24-5.52,135.84-30.84,128.88l49.44,23.88c0-86.28-3.24-112.56,5.28-112.56,13.8,0,12.36,85.8,16.08,126.12,0,0,35.64,41.4,106.68,48.24C284.08174,596.16,233.44177,564.12,233.44177,509.64Z" fill="#bf910c"/><path d="M280.00175,313.08l-5.04-3.12c-34.08,6.48-28.32-5.16-36.6-5.16,3.24-3.24.24-9.6,9-18.24l-.84-1.08c-21.12,12.6-8.88,20.28-23.4,27.84l.6,1.32C241.12175,308.76,234.76175,329.88,280.00175,313.08Z"/><path d="M173.08174,318.96c10.08,25.08-7.92,42.6-15.24,42.6s-11.76-9.12-11.76-9.12,5.52,17.88,16.56,17.88S194.68175,343.92,173.08174,318.96Zm62.64,9.6a21.89132,21.89132,0,0,0-6.6-4.2c-19.32,1.92-16.44-5.64-23.16-5.4,6-4.56-.36-8.28,4.32-12.96l-.84-.96c-17.28,9.72-6.84,15.96-16.92,20.16l.48,1.2C202.72176,323.52,201.64175,339.36,235.72174,328.56Zm66.84-37.32-2.76-1.08c-24.6,11.52-24.6.36-29.52,1.8,2.52-4.2-4.8-9.36,11.88-25.32l-.24-1.56c-28.92,19.2-15.12,26.64-24.24,35.76l.96,1.2C268.48174,295.68,269.20174,313.56,302.56175,291.24Z"/><path d="M390.64174,297.6l-2.04,1.08c20.52,22.08,20.64,6.72,27.84,12.96l.96-1.56c-5.88-9,2.4-17.16-16.44-36.6v1.92c10.44,13.8,5.64,21.12,8.76,26.88C404.80174,299.88,403.84175,309.12,390.64174,297.6Zm-21.96-23.88c-35.16,9.72-38.04-41.88-28.2-52.56C301.72173,246,349.36174,304.8,368.68175,273.72Zm-149.76-69.6c-65.52,32.52-63.12,78-63.12,78l21.36.96,40.44-26.4C188.80176,264.6,142.60175,261,218.92174,204.12Zm104.64,65.28-1.8-.6c-19.2,10.2-20.4,2.4-23.28,3.24,2.04-4.2-6.6-5.28,5.76-21.12l-.48-2.88c-27,23.88-7.68,24.6-19.32,34.32l1.32.48C296.08174,274.44,294.16173,291.84,323.56175,269.4Z"/><path d="M534.40175,494.4c-2.4,12.48-12.6.84-18.24005,30,4.44.84,8.28-9,14.04-7.92,5.64,1.2,5.64,11.76,9.96,12.6C545.80171,499.92,532.00172,506.88,534.40175,494.4Zm-137.16-203.16.84-1.08c-5.88-10.2,5.76-12.36-10.32-35.4l-.6,3c7.2,15.12.96,18.36,2.64,21.84-2.64-.72-5.16,4.68-14.16-5.88l-1.44.48C388.36174,297.12,391.48174,282.96,397.24175,291.24Z"/><path d="M545.2018,477.11993a10.68,10.68,0,1,1-10.68005-10.68A10.70371,10.70371,0,0,1,545.2018,477.11993Z"/><path d="M518.68172,551.76c-6.48,10.92-12.24-3.48-27.24,22.2,3.84,2.28,10.68-5.64,15.84-2.76,5.04,3,1.32,12.96,5.16,15.24C527.56172,560.76,512.20174,562.68,518.68172,551.76Zm-68.4,61.56c2.88,3.36,12.12-1.68,15.84,2.76,3.72,4.56-3.12,12.6-.24,16.08,22.92-18.96,7.8-22.32,17.64-30.48C473.68175,609.84,473.32173,594.36,450.28175,613.32Z"/><path d="M490.48177,379.08c15.36,25.56,21,11.16,27.48,22.08-6.6-10.92,8.76-9.12-6.48-34.68-3.84,2.28-.24,12.24-5.16,15.24S494.32176,376.8,490.48177,379.08Zm24.84,48c6.12,29.16,16.08,17.4,18.84,29.88-2.76-12.48,11.28-5.76,5.04-34.92-4.44.96-4.08,11.64-9.84,12.72C523.72176,436.08,519.64174,426.24,515.32173,427.08Zm-42.84,168.36c3.48,2.88,11.76-3.72,16.08,0,4.44,3.84-.84,12.96,2.64,15.96,19.32-22.68,3.84-23.4,12.12-33.12C495.04176,588,491.92174,572.76,472.48177,595.44Z"/><path d="M422.56175,628.08c2.16,3.96,12.24.72,15.12,5.88,2.76,5.04-5.52,11.76-3.36,15.72,26.16-14.16,12-20.4,23.16-26.52C446.32173,629.16,448.84175,613.92,422.56175,628.08Zm57.24-279.24c7.08-9.36-27.6-21.24-27.6-21.24S472.60173,358.08,479.80174,348.84Zm23.52,27.12c-8.28-9.6,7.2-10.32-12.12-33-3.48,2.88,1.8,12.12-2.52,15.96-4.56,3.72-12.72-2.88-16.2,0C491.92174,381.48,495.04173,366.36,503.32173,375.96Zm25.92,147c-4.56,12-12.6-1.2-23.04,26.64,4.08,1.56,9.6-7.56,15.12-5.52,5.4,2.16,3.6,12.6,7.8,14.16C539.56172,530.28,524.68172,534.96,529.24171,522.96Zm-24.36-120.84c10.92,27.72,18.84,14.4,23.52,26.28-4.68-11.88,10.2-7.56-.72-35.28-4.2,1.68-2.16,12.12-7.56,14.28S509.08174,400.44,504.88176,402.12Z"/><path d="M219.40176,392.76l57.12,7.92c1.8,9.6,16.68,18.6,27,4.2l15.6,4.44-12.48,9.84,24,3.24,9.48-18.48-54.36-22.08Zm175.8,256.68s36.72.72,33.24-10.44C424.84175,627.84,395.20177,649.44,395.20177,649.44Z"/></svg>