<svg id="Layer_1" data-name="Layer 1" xmlns="http://www.w3.org/2000/svg" viewBox="0 0 594.95996 417.12"><title>Untitled-1</title><path d="M405.48,0H0V19.08A110.73045,110.73045,0,0,0,31.32,96.72H0v19.2a110.65663,110.65663,0,0,0,31.32,77.52H0v19.08a110.7305,110.7305,0,0,0,31.32,77.64H0v19.2c0,59.4,45.36,107.76,101.28,107.76h94.08L259.2,309.24c35.88,43.68,89.64,69.84,146.16,69.84,104.52,0,189.6-85.08,189.6-189.6S509.88,0,405.48,0Z"/><path d="M405.48,6.36H6.12v12.48c0,35.16,16.92,66.12,42.24,84.24H6.12V115.8c0,35.04,16.92,66,42.24,84.24H6.12v12.48c0,35.16,16.92,66.12,42.24,84.24H6.12v12.72c0,55.8,42.6,101.28,95.04,101.28h90.36l66.72-112.68a183.24153,183.24153,0,0,0,147.24,74.64c101.04,0,183.24-82.2,183.24-183.24S506.52,6.36,405.48,6.36Z" fill="#fff"/><path d="M405.48,18.84H22.44c0,49.08,36.96,88.8,82.32,88.8H249.12a4.12312,4.12312,0,0,1,4.08,4.08,4.20571,4.20571,0,0,1-4.08,4.08H22.44c0,48.96,36.96,88.68,82.32,88.68h87a4.02044,4.02044,0,1,1,0,8.04H22.44c0,49.08,36.96,88.68,82.32,88.68h29.76a4.14043,4.14043,0,0,1,0,8.28H22.44c0,48.96,36.96,88.68,82.32,88.68h79.56L333,146.76a84.20949,84.20949,0,1,1-11.64,44.52l-56.28,95.16a170.47724,170.47724,0,0,0,140.4,73.68c94.2,0,170.64-76.44,170.64-170.64S499.68,18.84,405.48,18.84Z"/><path d="M453.96,189.48a48.42,48.42,0,1,1-48.48-48.48A48.49892,48.49892,0,0,1,453.96,189.48Z" fill="#f74902"/></svg>