<svg id="Layer_1" data-name="Layer 1" xmlns="http://www.w3.org/2000/svg" viewBox="0 0 594.96002 566.28"><title>Untitled-2</title><path d="M554.16,84.36H515.88a35.30572,35.30572,0,0,0-8.04-12.72c-11.16-11.16-26.16-12.96-34.92-4.2a18.0594,18.0594,0,0,0-4.08,6.48,42.01233,42.01233,0,0,0-9.6-5.16c-5.4-11.28-12.96-27.24-30.12-27.24a35.048,35.048,0,0,0-15.84,3.96C400.56,35.52,373.32,16.8,345.48,16.8c-30.6,0-73.08,28.08-85.44,28.08C250.92,44.88,230.64,0,199.08,0,182.16,0,165,11.52,144.48,23.88c-19.44,11.76-24.6,25.8-30.24,40.8-2.04,4.8-10.44,13.68-16.44,19.68H0L166.68,374.28H52.56L16.2,439.68H183.6c5.76,0,12.12-1.92,17.88-4.92l75.6,131.52,73.56-128.04h61.32V402.36h-4.2c0-12.48-9.48-26.04-14.16-32.04l-.84-5.16,14.04-24.48,81.96-30.24c13.32-4.92,19.44-16.92,22.32-26.16,0,0,9.12-.12,17.28-9.6,5.76,1.56,13.2,3,18.84,3,12.36,0,25.44-6.96,28.8-20.28,0,0,13.08-8.04,18.96-32.88l-102-33.72Z" fill="#fff"/><path d="M474.72,209.88l12.84,4.32-.12,8.16c-6.84-.24-12.36-1.56-12.36,18.48,0,14.88,2.88,19.68,2.88,23.88,0,7.08-.6,8.76-23.04,8.76,0,0-3.48-4.2-15.72-9,0,0-.24-1.08-.72-3.12l94.8-164.88h-28.8c2.16-4.08.12-10.92-5.16-16.2-6.12-6.12006-14.04-8.04-17.76-4.32-1.68,1.68-2.28,4.2-1.68,7.08L468.12,95.4c.24-1.8.84-11.64-17.64-16.92-5.52-11.04-10.2-24.84-21.36-24.84-9,0-16.92,6.84-16.92,6.84s-33.84-31.56-66.72-31.56C316.8,28.92,277.44,57,260.04,57c-18.48,0-34.92-44.88-60.84-44.88-14.04,0-30.6,11.28-48.36,22.2-17.76,10.68-21.12,24-25.44,34.8-2.88,7.2-12,16.8-22.56,27.24H20.88L187.44,385.92a34.91067,34.91067,0,0,1-3.72.48H59.64L36.72,427.56h147c6.24,0,14.76-3.72,18.96-8.28l2.4-2.52,72,125.28,66.6-115.8h56.16V414.48H386.4l-2.4-7.44h2.04l9.72-4.56c0-11.16-13.56-27-13.56-27l-2.16-12.6,18.48-32.04,86.04-31.8c15.24-5.52,16.92-27.84,16.92-27.84s14.04,6.6,21.72-10.44c0,0,15.6,4.92,24,4.92,7.32,0,17.64-3.96,17.64-14.88,0,0,11.16-6.84,14.88-18.36l-101.28-33.6Z"/><path d="M222.48,328.2c-5.28-12.84-3-15.72-3-15.72s-17.04-14.04-12-31.44c0,0-43.92-63.72-43.92-101.52,0-19.56,9.36-17.64,9.36-33.72,0-13.08-8.88-22.92-15.36-22.92-7.44,0-30.48,15.24-64.08,35.16l12.72-29.28L75.48,160.2s-6-30.72,10.56-47.28c2.64-2.64,5.4-5.4,8.16-8.04H35.52L195.6,383.28a24.57131,24.57131,0,0,0,7.44-5.04l25.32-25.44C224.28,343.44,222.48,333.6,222.48,328.2ZM483.36,104.88l-2.28,2.64c9.36,11.16,5.52,22.44,5.52,22.44,0,8.64-4.56,8.52-4.56,8.52,0,20.04-10.56,16.44-10.56,16.44,0,26.4-29.04,15.72-29.04,15.72a37.59723,37.59723,0,0,1-11.88-3.48l-19.68,21.96a363.39018,363.39018,0,0,1,24.48,60.6l83.28-144.84ZM341.4,413.04l3.48-6h-5.64ZM415.2,133.2l-3-6.72c-15.48,2.64-29.4-5.28-33.36-7.32s.36-10.68.36-10.68a12.35053,12.35053,0,0,0-3.48-3.6h-16.2c-3.12,2.75995-3.84,6.96-1.32,9.48a303.45441,303.45441,0,0,1,42,55.56l18-18.84ZM372.36,359.28l12.84-22.32-14.28,6.96Zm-26.16-41.52c0-1.8-26.4-8.76-36.72-12.72-9.48,3.72,2.76,5.52,2.76,17.88,0,7.32-3.48,15.84-3.48,15.84l-5.28,1.44s-10.56,19.44-17.28,16.56c-9.6,16.92-13.56,20.76-28.8,20.76a24.151,24.151,0,0,1-13.08-3.72l-33.36,36.36L277.08,525l56.76-98.76h-40.8c0-10.56,6.6-19.2,6.6-19.2,0-16.8,10.44-20.28,18.12-21,16.2-1.44,22.92-.12,22.92-8.04,0-5.64-.48-12.36-.48-12.36h6c0-21.84-6.12-27.24-6.12-38.4C340.08,322.92,346.2,321.12,346.2,317.75995Z" fill="#fcb514"/><polygon points="316.92 414.48 322.44 414.48 324.84 407.04 312.72 407.04 316.92 414.48" fill="#fcb514"/><path d="M504.84,219.84l-4.08,6.12,29.04,9.72-.12-7.56Zm43.32,14.4-4.44,6L555,243.96l-1.56006-7.92ZM354.72,407.04l-4.32,7.44h17.64l2.16-7.44Z" fill="#fff"/><path d="M553.8,253.8c.48,2.04-2.04,4.44-5.64,5.28-3.72.84-6.96-.12-7.44-2.16-.48-1.92,2.04-4.32,5.64-5.16S553.32,251.76,553.8,253.8Z" fill="#fff"/><path d="M317.16,391.55994c1.2,1.68-.12,4.8-3,7.08-3,2.28-6.36,2.88-7.68,1.2-1.32-1.56,0-4.8,3-7.08C312.36,390.47995,315.84,389.87994,317.16,391.55994Z" fill="#fff"/><path d="M440.04,70.92l-5.4-11.52c-.48-1.08-4.2-.96-4.2,1.32C430.32,62.28,434.28,70.92,440.04,70.92ZM439.8,83.16,422.76,60a5.05907,5.05907,0,0,0-5.16,3.72L436.08,83.4C438.48,85.92,439.8,83.16,439.8,83.16Zm-5.4,8.64L414.12,68.64C411.48,65.64,406.8,71.4,406.8,71.4L429.6,93.84C431.76,95.88,435.48,92.88,434.4,91.8Zm-7.2,6.48c0-5.04-21.72-21.72-25.08-21.72-3.48,0-5.04,4.2-5.04,4.2l27.72,19.68C425.64,101.04,427.2,98.88,427.2,98.28Zm-7.44,11.52c1.56.84,4.08-4.08,2.52-5.16-9.6-6.48-19.08-12.48-29.76-17.28-2.64,3.6-1.8,6.72-1.8,6.72Zm-4.68,8.88c1.08.48,4.08-2.76,2.04-4.2-2.52-1.56-21.96-12.36-27.84-14.04-3.36,3.36-1.44,5.4-1.44,5.4Zm-6.36,3.24s-13.8-7.32-24.72-10.44l-.72,2.28S389.28,122.88,408.72,121.92Zm64.32-13.08L484.08,128.28A37.47542,37.47542,0,0,0,475.44,107.16S473.04,106.8,473.04,108.84Zm9.48,26.04c0-7.68-12.24-21.12-12.24-21.12l-2.88,5.88L479.16,137.4S482.52,139.08,482.52,134.88Zm-21.48-4.08s5.4,15.72,11.28,15.72c0,0,2.28-10.44-7.68-18.96C461.52,127.56,461.04,130.8,461.04,130.8Zm-8.52,7.32s3.36,21.24,12.84,21.24C466.32,156.12,462.48,138.12,452.52,138.12ZM456,170.4c3.24-13.68-10.8-27.84-10.8-27.84-9.84-.72-10.08,2.76-10.08,2.76S442.08,170.4,456,170.4ZM421.68,147.84a11.46208,11.46208,0,0,1,6.96-1.68c-2.76-8.64-7.68-6.6-7.68-6.6C419.04,142.44,421.68,147.84,421.68,147.84Zm50.76-45.48c9.12,0,16.2-9.36,16.2-11.4,0-1.92-1.92-3.24005-5.52-3.24005-3.48,0-12.96,10.08-12.96,12.96C470.16,101.28,470.64,102.36,472.44,102.36Zm-33.36,30.12a4.08256,4.08256,0,0,0,4.32,3c7.2,0,21.84-15.48,21.84-28.2,0-2.52-3.84-2.64-3.84-2.64C448.08,113.28,439.08,132.48,439.08,132.48Zm19.68-32.52c8.64-4.32-.36-15.48-6.48-12C426.96,104.4,424.32,129.6,424.32,129.6s2.28,3.6,8.28,2.64C432.6,132.24,446.16,106.08,458.76,99.96ZM277.2,279c-1.92,12,2.16,18.36,2.16,18.36,1.56-.84,2.64-.36,2.64-10.44S277.2,279,277.2,279Zm-13.8-7.08c-1.2,7.68005,1.2,21.48,1.2,21.48s5.04,2.04,6.72-.48c-.36-2.76-.36-8.88-.36-12.6C270.96,271.08,263.4,271.92,263.4,271.92Zm-9.6-3.24c-2.76,6-.84,14.76-.84,20.88,0,6.36,4.2,6.12,6.24,5.04C256.8,289.8,263.28,273.24,253.8,268.68Zm-7.2,15.84c0-21.72-7.44-18-7.44-10.2C239.16,283.08,244.08,287.04,246.6,284.52ZM237,291.6c0-1.8-2.64-1.68005-2.64-15.24,0-10.8-12.12-6.72-12.12-.96,0,5.64,9.84,12.72,9.84,16.92C232.08,292.32,237,294.24,237,291.6Zm-22.2-11.88c-9.24,12.84,5.88,26.16,5.88,26.16s5.64.48,8.64-2.64C229.32,303.24,224.64,285.72,214.8,279.72Zm57.48,50.76c1.44,32.76-3.84,32.16-3.84,37.2,0,8.16,13.92-2.28,13.92-22.92C282.36,320.4,272.28,330.48,272.28,330.48Zm-31.08-12c7.8,31.92,17.4,50.64,21.36,51.72,0,0,2.76-4.68,2.76-32.28C265.32,337.92,258.48,308.88,241.2,318.48Zm-12.36,12c2.64,29.76,20.52,42.48,20.52,42.48l3.48-1.92s-9-17.04-18.84-48.6Zm73.92-10.8-.72,6.96,4.68.72,1.32-3.96C306.72,322.68,305.52,318.96,302.76,319.68Zm-9-3c-5.28,0-3.36,11.64-3.36,15.48a10.09434,10.09434,0,0,1-1.44,5.76c1.08,2.04.96,7.44,4.44,7.44,2.04,0,4.92-3,4.92-10.56C298.32,323.4,298.56,316.68,293.76,316.68Zm-11.04-6.12c-3.12,0-4.8,3.72-4.8,9.96,0,2.04,2.52,3.6,4.08,3.6.96,0,3.36-2.28,3.36-9.36C285.36,312.6,284.52,310.56,282.72,310.56Zm-7.56-1.8c0-5.15994-4.56-6.12-9.48-6.12s-7.56,3.36-7.56,5.52c0,5.4,5.52,11.28,7.92,11.28C267.48,319.44,275.16,315.24,275.16,308.75995Zm-23.64.36s2.04-7.56-3.84-7.56c-12,0-23.52,9.96-23.52,15.12a12.88194,12.88194,0,0,0,1.08,4.92S240.96,306.6,251.52,309.12ZM423.6,152.52,285.72,297.48c-5.04,5.16,8.16,14.4,12.84,9l132-147.24C435.48,153.84,428.64,147.48,423.6,152.52ZM153.12,63.48c0-5.28,7.44-10.68,8.4-13.2,0,0-4.92-6.6-11.76-3.24005-.96,14.88-4.8,21.96-6.48,31.08,5.52,4.68,3.72-6.96,11.76-6.96,2.64,0,6.6,3.23993,6.6,7.08a9.4903,9.4903,0,0,1-2.52,6.84l5.64-.48s2.4-2.4,2.4-7.2C167.28,66.6,153,66.36,153,63.48Zm-67.2,56.28c-5.88,6.72-6.72,26.16-6.72,26.16l48.84-41.88-19.56,35.88s33-15,36-22.44a108.74688,108.74688,0,0,0-21.84-31.56S92.04,113.04,85.92,119.76ZM318,292.92c28.8,12.36,55.56,18.96,69.48,18.96,12.96,0,30.6-3.6,30.6-31.56,0-18.36-9.96-44.28-25.92-70.32Zm-23.88-11.4L379.8,191.4c-31.32-43.43994-77.04-82.68-118.32-82.68-36.72,0-61.56,27.12006-61.56,55.8C199.92,216.12,246.24,256.2,294.12,281.52Zm197.16-58.56,5.52,1.8,6.48-9.6,30.24,10.08.36,11.76,6,1.92,6.72-9.36,10.2,3.36,2.52,12.48,4.2,1.44a37.16513,37.16513,0,0,0,11.04-12.12l-93.72-30.96-1.2,3.6,11.88,3.96-.12,11.64Zm-117,184.08-3.24,11.4h-31.8l-4.2-11.4h-6l-3.72,11.4H314.64l-6.48-11.4h-3.48A34.71329,34.71329,0,0,0,297.24,422.28h98.64v-3.84H383.4l-3.6-11.4ZM45.48,422.52H65.4l17.28-30.96H62.64Zm161.28-40.56c-5.4,5.28-15.48,9.6-23.04,9.6H183l-14.04,30.96H183.6c4.92,0,12-3.12006,15.24-6.72l40.92-44.52-9.36-13.2Z" fill="#fff"/></svg>