<svg id="Layer_1" data-name="Layer 1" xmlns="http://www.w3.org/2000/svg" viewBox="0 0 35.749 29.888"><title>Untitled-1</title><path d="M35.432,12.008c0,.21-.036.575-.088,1.1-.053.519-.692.497-.692.497a24.18316,24.18316,0,0,1-3.947,5.946l-.181-.016-.266.184-.224-.543s1.813-2.899,3.442-6.102l-.079-.495.362-.647a3.27751,3.27751,0,0,1,1.673.076m-3.906,7.741a.66063.66063,0,0,0,.106.486l-.268.193a3.53648,3.53648,0,0,1-.799-.41l-.052-.189s.665-.306,1.013-.08m.001,5.456c0,.141-.278.244-1.119.244a5.536,5.536,0,0,1-2.591-.389,2.74228,2.74228,0,0,1-2.182.051,4.66026,4.66026,0,0,1-2.276-.05.50176.50176,0,0,1-.451.158,1.53422,1.53422,0,0,1-.029-.313c-.186-.074-.384-.167-.595-.275a3.518,3.518,0,0,1-.211.379.83851.83851,0,0,1-.325.021.50785.50785,0,0,0-.197-.376.73331.73331,0,0,1,.274-.276c-.205-.118-.42-.249-.642-.388-.216.026-.426.05-.634.073l-3.214,5.199-2.65-4.284a12.40764,12.40764,0,0,0-3.284,4.416c-1.6.045-3.494.163-3.494.163l-.171-.316a23.53938,23.53938,0,0,1,5.718-6.255l-1.128-1.823c.225.055.55.134.89.209.076.017.152.033.227.05.205.043.406.084.587.115l.779,1.235c.859.065,2.215.159,4.009.159.268,0,.511-.001.733-.004-.888-.591-1.874-1.249-2.956-1.908q.222.23254.445.478a14.55065,14.55065,0,0,1-3.641-.311C5.938,19.499.884,17.08295.884,16.768c0,0,3.97-.093,8.496-.371L3.869,7.483A95.33471,95.33471,0,0,0,15.315,9.225c-.428-3.608-3.217-7.902-3.217-8.486,2.818,1.409,7.192,5.341,10.044,10.936a35.07426,35.07426,0,0,1,3.003,2.401l.166-.229c.619-.433,3.421-1.587,5.971-2.88.06-.031.106-.001.106.098a29.47466,29.47466,0,0,1-2.764,6.707l.144.184c.87.44.934.739,1.328,2.377a17.84522,17.84522,0,0,1,1.431,4.872M30.8,7.483l-3.043,4.923c-.328.15-.657.3-.969.444-.095.045-.188.088-.28.132-.248.116-.478.226-.678.326l2.665-4.227c-1.874.353-4.438.789-6.941,1.064-.071-.122-.143-.244-.216-.363-.032-.054-.064-.108-.096-.161q-.1635-.267-.331-.529C25.623,8.614,30.8,7.483,30.8,7.483m2.75,4.173-.486.864.08.502c-1.284,2.517-2.685,4.852-3.187,5.673a1.86715,1.86715,0,0,0-.948-.967,31.0246,31.0246,0,0,0,2.897-7.417c-1.725.854-3.531,1.699-3.531,1.699l3.09-4.998s-5.941,1.3-10.641,1.768C15.758,1.316,11.151,0,11.151,0s3.191,5.224,3.784,8.877A94.22507,94.22507,0,0,1,3.204,7.012l5.626,9.1c-3.292.19495-8.83.374-8.83.374,1.412,1.412,5.953,3.201,11.958,4.685l1.072,1.734a24.13954,24.13954,0,0,0-5.661,6.328l.357.655s1.752-.105,3.903-.182a11.43144,11.43144,0,0,1,2.991-4.228l2.715,4.392,3.404-5.507.371-.043.206.124a2.20776,2.20776,0,0,0-.175.294c.282.192.29.224.304.565a1.407,1.407,0,0,0,.84-.02l.13-.233.158.072a3.16876,3.16876,0,0,0,.066.345.8202.8202,0,0,0,.799-.067,5.20619,5.20619,0,0,0,2.198.04,3.298,3.298,0,0,0,2.191-.032,6.03979,6.03979,0,0,0,2.581.359c.696,0,1.437-.043,1.437-.562a18.01132,18.01132,0,0,0-1.403-4.887,3.19574,3.19574,0,0,0,.984.459l.647-.468a.65265.65265,0,0,1-.199-.714,1.22947,1.22947,0,0,0-.553-.24,28.276,28.276,0,0,0,3.53-5.447.86967.86967,0,0,0,.808-.768,11.17879,11.17879,0,0,0,.09-1.355,3.65841,3.65841,0,0,0-2.199-.129" fill="#fff"/><path d="M17.335,26.77673l1.615-2.561c-1.423.115-2.542.15-3.13.16Z" fill="#fff"/><path d="M24.0327,24.60864a7.5231,7.5231,0,0,0,.68-.454,5.81588,5.81588,0,0,1-1.783-.101c.232-.232.522-.431.705-.614-.14.022-.283.037-.423.049-.002.063-.071.135-.268.254-.386.063-.77.119-1.144.169a3.74108,3.74108,0,0,0,.346.328c.087-.028.181-.057.281-.091a.85605.85605,0,0,1-.052.263,2.929,2.929,0,0,0,.523.28.99621.99621,0,0,1,.136-.38c.065.019.101.21.138.263.096.14105.222.163.246.27905a6.13075,6.13075,0,0,0,2.139.046l.252-.205a8.2431,8.2431,0,0,1-1.776-.08606" fill="#fff"/><path d="M21.8805,22.66095a1.18186,1.18186,0,0,1-.83.056,1.0245,1.0245,0,0,0,.187-.337c-.514.144-.673.001-.673.001a.69863.69863,0,0,0,.164-.246,3.93368,3.93368,0,0,0-1.032.11,1.96788,1.96788,0,0,1,1.226.627c.434-.031.7-.07.886-.1Z" fill="#fff"/><path d="M20.7561,22.3244a1.705,1.705,0,0,0,.608-.099.66517.66517,0,0,1-.131.414,4.3848,4.3848,0,0,0,.843-.133s-.049.113-.117.24005a1.54907,1.54907,0,0,1,.261-.028c.182,0,.204.038.364.038.301,0,.338.063.383.414a1.61993,1.61993,0,0,0,.18.202c.223-.017.48-.041.739-.078a3.22259,3.22259,0,0,1-.722.694,11.61437,11.61437,0,0,0,1.829.035,2.27477,2.27477,0,0,1-.64.518s.833.053,1.728.038a3.67111,3.67111,0,0,1-.351.335,5.12952,5.12952,0,0,0,1.892.062c-2.84-1.129-4.403-2.839-6.78-2.839a1.20749,1.20749,0,0,1-.086.187" fill="#fff"/><path d="M9.2991,27.4364l-.639.81805a12.88275,12.88275,0,0,1,3.005-.122l.312-.536a8.3332,8.3332,0,0,0-2.678-.16" fill="#fff"/><path d="M9.5911,27.07031l-.198.248a8.14645,8.14645,0,0,1,2.646.179l.46-.692a17.53135,17.53135,0,0,0-2.908.265" fill="#fff"/><path d="M9.9268,26.65955l-.226.274a15.36066,15.36066,0,0,1,2.872-.228l.041-.056a12.24239,12.24239,0,0,0-2.687.00995" fill="#fff"/><path d="M10.709,25.76074l-.677.772a10.66806,10.66806,0,0,1,2.655.022l.781-.903a15.07784,15.07784,0,0,0-2.759.10895" fill="#fff"/><path d="M11.719,24.74512l-.892.885a13.02965,13.02965,0,0,1,2.731-.08l.427-.471a6.07691,6.07691,0,0,0-2.266-.334" fill="#fff"/><path d="M11.8883,24.59064l-.047.04205a5.77813,5.77813,0,0,1,2.222.36l.093-.097a7.95242,7.95242,0,0,0-2.268-.30505" fill="#fff"/><path d="M12.7756,23.82361l-.767.658a7.27541,7.27541,0,0,1,2.228.328l.659-.65a6.29119,6.29119,0,0,0-2.12-.33606" fill="#fff"/><polygon points="11.75 28.204 11.774 28.366 12.031 27.916 12.005 27.761 11.75 28.204" fill="#fff"/><polygon points="12.092 27.619 12.118 27.774 12.549 27.145 12.521 26.967 12.092 27.619" fill="#fff"/><polygon points="12.61 26.84 12.64 27.026 12.682 26.973 12.646 26.79 12.61 26.84" fill="#fff"/><polygon points="12.735 26.674 12.771 26.863 13.505 26.038 13.474 25.813 12.735 26.674" fill="#fff"/><polygon points="13.569 25.706 13.601 25.933 14.044 25.459 13.988 25.242 13.569 25.706" fill="#fff"/><polygon points="14.076 25.146 14.133 25.365 14.219 25.275 14.188 25.024 14.076 25.146" fill="#fff"/><polygon points="14.285 24.922 14.317 25.176 14.899 24.605 14.892 24.309 14.285 24.922" fill="#fff"/><path d="M15.318,24.42023c-.043.036-.083.07306-.125.109l2.142,3.421,2.379-3.801c-.068.007-.138.013-.206.019l-2.173,3.474Z" fill="#f4901d"/><path d="M29.2893,8.53735l-2.782,4.444c.093-.043.186-.086.281-.131l2.852-4.555c-1.787.357-5.163.98395-8.399,1.326.033.053.064.107.097.16,3.045-.328,6.192-.9,7.951-1.244" fill="#f4901d"/><path d="M14.2634,22.73285l-.821-1.31c-.075-.017-.151-.033-.226-.05l.844,1.348c.06.004.127.007.203.012" fill="#f4901d"/><path d="M21.8578,24.90491a2.97952,2.97952,0,0,0,.404-.60394c-.194.084-.442.12994-.577.336a.9156.9156,0,0,1,.173.26794" fill="#f4901d"/><path d="M22.9863,25.10834a.5245.5245,0,0,0,.275-.14795,3.0539,3.0539,0,0,1-.218-.406,1.314,1.314,0,0,0-.057.554" fill="#f4901d"/><path d="M22.3096,19.92133a3.94126,3.94126,0,0,0,.341,1.328,4.61951,4.61951,0,0,0,1.021.549,7.651,7.651,0,0,0-1.362-1.877" fill="#f4901d"/><path d="M14.9868,24.08331l.269-.15094s1.106.179,7.734-.505c-.158-.11505-.236-.092-.236-.356,0-.084.014-.098-.13-.098s-.206-.038-.377-.038a17.91308,17.91308,0,0,1-3.777.213c-2.584,0-4.394-.217-4.514-.217-.118,0-.351.221-1.043.778a5.33722,5.33722,0,0,1,2.074.374" fill="#f4901d"/><path d="M11.6085,28.235a12.26694,12.26694,0,0,0-3.052.15405l-.552.794,3.219-.151Z" fill="#f4901d"/><path d="M33.7527,12.9599a46.75843,46.75843,0,0,1-3.528,6.079l.369-.231.081-.08-.066.217.156-.074-.235.415.219-.176a42.10151,42.10151,0,0,0,3.866-6.237,1.22819,1.22819,0,0,0-.862.087" fill="#f4901d"/><path d="M33.8658,12.20911l-.224.355a5.18223,5.18223,0,0,1,1.264-.043l.261-.368a2.49087,2.49087,0,0,0-1.301.056" fill="#f4901d"/><path d="M30.4485,19.07581a.77954.77954,0,0,1-.261.127l.135.287.083-.06494-.033-.103.139-.265Z" fill="#f4901d"/><path d="M31.4094,19.81873c-.225-.11694-.664.056-.664.056a4.93542,4.93542,0,0,1,.697.219.63235.63235,0,0,1-.033-.275" fill="#f4901d"/><path d="M14.2634,22.73285c.15.011.333.024.546.041l-.779-1.236c-.182-.031-.382-.072-.588-.11505Z" fill="#00788a"/><path d="M15.8203,24.37592c-.294.005-.456.004-.456.004-.017.014-.031.027-.046.04l2.017,3.222,2.173-3.474c-.191.018-.377.035-.559.048l-1.614,2.561Z" fill="#00788a"/><path d="M28.4951,9.08075l-2.666,4.22705c.201-.1.431-.21.679-.326l2.781-4.444c-1.758.344-4.905.916-7.951,1.244.073.12.145.241.216.364,2.503-.276,5.067-.712,6.941-1.065" fill="#00788a"/><path d="M15.3711,10.10651c0-.197-.009-.396-.027-.599a10.10388,10.10388,0,0,0-3.164.77905,12.54061,12.54061,0,0,1,3.191-.18005" fill="#00788a"/><path d="M28.5458,18.09955a29.87436,29.87436,0,0,0-6.164-5.946c.345.712.665,1.449.954,2.209.041.10706.035.2-.056.2-.889,0-4.024-1.725-7.105-1.416,1.6,1.524,3.191,3.662,1.648,2.882a19.663,19.663,0,0,1,3.502,2.987c1.409,0,1.689.238,1.772.435a6.94763,6.94763,0,0,0,1.316,2.144c.424,0,.501-.028.656-.409a1.28826,1.28826,0,0,1-.096.842,20.1,20.1,0,0,0,6.226,3.049c.23,0-.243-2.08905-1.325-4.601-.353-1.591-.548-2.037-1.328-2.376" fill="#00788a"/><path d="M11.0223,16.29034a17.28622,17.28622,0,0,1,1.453,1.005,4.447,4.447,0,0,0-1.447-1.19l-1.405.103.104.168q.6435-.042,1.295-.08606" fill="#00788a"/><path d="M19.2975,18.75134a5.72671,5.72671,0,0,0,.01,2.16705,10.12105,10.12105,0,0,1,.279-1.749Z" fill="#00788a"/><path d="M18.5914,18.06494a6.32584,6.32584,0,0,0,.09,2.48,11.26508,11.26508,0,0,1,.198-2Z" fill="#00788a"/><path d="M17.8928,17.44073a6.58186,6.58186,0,0,0,.128,2.652,13.83791,13.83791,0,0,1,.161-2.234Z" fill="#00788a"/><path d="M16.3035,15.00751a14.5718,14.5718,0,0,0-6.078-2.809c-.121,0-.365.512-.365.512s.357-.322.465-.322a19.67347,19.67347,0,0,1,5.978,2.619" fill="#00788a"/><path d="M29.6401,8.295l-2.852,4.55505c.312-.144.641-.295.969-.444l3.043-4.923s-5.177,1.131-9.889,1.609q.168.26248.33.529c3.236-.341,6.612-.968,8.399-1.326"/><path d="M11.022,16.28986q-.651.045-1.295.086l-.104-.167,1.405-.103a4.43376,4.43376,0,0,1,1.447,1.189,17.267,17.267,0,0,0-1.453-1.005m4.349-6.183a12.49517,12.49517,0,0,0-3.191.18,10.07735,10.07735,0,0,1,3.164-.779q.027.303.027.599m7.908,4.456c.091,0,.098-.094.057-.2-.289-.761-.61-1.497-.954-2.21a29.89056,29.89056,0,0,1,6.164,5.947c.78.338.975.784,1.328,2.376,1.081,2.512,1.555,4.601,1.325,4.601a20.11289,20.11289,0,0,1-6.227-3.049,1.29163,1.29163,0,0,0,.097-.842c-.155.381-.232.408-.656.408a6.93555,6.93555,0,0,1-1.316-2.144c-.083-.197-.363-.434-1.772-.434a19.66291,19.66291,0,0,0-3.502-2.987c1.542.77905-.048-1.35895-1.648-2.882,3.08-.309,6.216,1.416,7.104,1.416m-.969,5.358a7.646,7.646,0,0,1,1.362,1.878,4.63807,4.63807,0,0,1-1.021-.549,3.95454,3.95454,0,0,1-.341-1.329m3.42,4.994a3.629,3.629,0,0,0,.351-.336c-.895.016-1.728-.037-1.728-.037a2.29343,2.29343,0,0,0,.64-.518,11.57478,11.57478,0,0,1-1.829-.03595,3.23191,3.23191,0,0,0,.722-.693c-.258.03595-.516.06-.739.07794a1.56827,1.56827,0,0,1-.18-.20294c-.045-.351-.082-.413-.383-.413-.16,0-.182-.039-.364-.039a1.54909,1.54909,0,0,0-.261.028c.068-.126.117-.239.117-.239a4.39124,4.39124,0,0,1-.843.133.66729.66729,0,0,0,.131-.415,1.69167,1.69167,0,0,1-.608.1,1.20665,1.20665,0,0,0,.086-.187c2.377,0,3.94,1.709,6.78,2.839a5.13009,5.13009,0,0,1-1.892-.062m-.173-.01605a6.11622,6.11622,0,0,1-2.14-.045c-.023-.116-.149-.139-.246-.279-.036-.053-.072-.245-.137-.263a.99694.99694,0,0,0-.136.379,2.80936,2.80936,0,0,1-.523-.28.87747.87747,0,0,0,.051-.262c-.1.03406-.193.062-.281.091a4.00793,4.00793,0,0,1-.346-.328c.375-.05.758-.107,1.144-.16895.198-.12006.267-.191.269-.254.14-.012.283-.027.422-.049-.183.183-.472.382-.704.614a5.86161,5.86161,0,0,0,1.783.101,7.70343,7.70343,0,0,1-.68.454,8.23715,8.23715,0,0,0,1.776.086Zm-2.571.209a1.30051,1.30051,0,0,1,.058-.553,2.97487,2.97487,0,0,0,.217.406.524.524,0,0,1-.275.147m-1.128-.203a.91648.91648,0,0,0-.173-.268c.135-.206.383-.252.577-.336a3.07285,3.07285,0,0,1-.404.604m-6.602-.972-.269.15a5.3372,5.3372,0,0,0-2.074-.374c.692-.557.925-.778,1.043-.778.119,0,1.93.217,4.514.217a17.92048,17.92048,0,0,0,3.777-.213c.171,0,.232.038.377.038.144,0,.13.014.13.098,0,.264.078.24194.236.356-6.628.684-7.734.506-7.734.506m2.079,4.01794-2.142-3.421c.042-.037.082-.074.125-.11.016-.013.03-.026.046-.04,0,0,.162.001.456-.004.588-.011,1.707-.046,3.13-.16.181-.013.367-.03.558-.048.068-.006.137-.012.206-.019Zm-3.019-2.774-.031-.255.607-.612.007.295Zm-2.307-.695.767-.658a6.29385,6.29385,0,0,1,2.12.336l-.659.65a7.27924,7.27924,0,0,0-2.228-.328m2.124.883-.057-.219.112-.122.031.252Zm-2.291-.732.046-.042a7.95009,7.95009,0,0,1,2.268.305l-.093.097a5.75468,5.75468,0,0,0-2.221-.36m1.759,1.299-.032-.226.419-.464.056.217Zm-2.774-.301.892-.886a6.07564,6.07564,0,0,1,2.266.334l-.427.47095a13.07494,13.07494,0,0,0-2.731.08105m1.944,1.232-.036-.189.739-.862.03.226Zm-2.739-.33.677-.772a15.07786,15.07786,0,0,1,2.759-.10895l-.781.903a10.61922,10.61922,0,0,0-2.655-.022m2.608.493-.03-.186.036-.049.036.182Zm-2.939-.092.226-.274a12.28417,12.28417,0,0,1,2.686-.011l-.041.056a15.41809,15.41809,0,0,0-2.871.229m2.417.84-.026-.155.429-.652.028.178Zm-2.725-.456.198-.248a17.64461,17.64461,0,0,1,2.908-.265l-.46.693a8.12678,8.12678,0,0,0-2.646-.18m2.382,1.049-.025-.162.256-.443.025.155Zm-3.115-.112.639-.818a8.33261,8.33261,0,0,1,2.679.159l-.313.537a12.88635,12.88635,0,0,0-3.005.122m2.564.777-3.219.151.551-.794a12.2689,12.2689,0,0,1,3.052-.154Zm8.472-6.787a3.93371,3.93371,0,0,1,1.032-.11.68446.68446,0,0,1-.164.246s.16.14294.674-.001a1.0353,1.0353,0,0,1-.188.337,1.17546,1.17546,0,0,0,.83-.056l-.071.111c-.186.03-.452.069-.887.1a1.968,1.968,0,0,0-1.226-.627m-.388-1.326a5.74174,5.74174,0,0,1-.011-2.168l.289.418a10.13888,10.13888,0,0,0-.278,1.75m-.626-.374a6.3364,6.3364,0,0,1-.091-2.48l.289.48a11.16957,11.16957,0,0,0-.198,2m-.662-.452a6.59292,6.59292,0,0,1-.127-2.652l.289.418a13.92342,13.92342,0,0,0-.162,2.234m-7.694-7.704c-.109,0-.465.321-.465.321s.243-.511.365-.511a14.57194,14.57194,0,0,1,6.077,2.809,19.6756,19.6756,0,0,0-5.977-2.619M17.04,21.4978q-.2235-.24591-.445-.478c1.082.659,2.068,1.317,2.956,1.908-.222.003-.465.004-.733.004-1.794,0-3.15-.094-4.009-.158-.212-.017-.395-.03-.546-.041-.076-.005-.143-.008-.202-.012l-.845-1.348c-.34-.075-.665-.154-.89-.209l1.128,1.823a23.54041,23.54041,0,0,0-5.718,6.255l.171.316s1.894-.118,3.494-.163a12.40806,12.40806,0,0,1,3.284-4.416l2.65,4.285,3.214-5.2c.208-.022.418-.047.634-.073.222.139.437.27.642.388a.73287.73287,0,0,0-.274.276.50856.50856,0,0,1,.197.377.85107.85107,0,0,0,.325-.022,3.62388,3.62388,0,0,0,.212-.379c.21.108.408.201.594.275a1.534,1.534,0,0,0,.029.313.50159.50159,0,0,0,.451-.158,4.6612,4.6612,0,0,0,2.276.05,2.74122,2.74122,0,0,0,2.182-.051,5.53492,5.53492,0,0,0,2.591.389c.841,0,1.119-.103,1.119-.244a17.84462,17.84462,0,0,0-1.431-4.872c-.394-1.637-.458-1.937-1.328-2.377l-.144-.184a29.47467,29.47467,0,0,0,2.764-6.707c0-.099-.046-.129-.106-.098-2.55,1.29395-5.352,2.447-5.971,2.88l-.166.22894a35.07425,35.07425,0,0,0-3.003-2.401c-2.852-5.595-7.226-9.527-10.044-10.936,0,.584,2.789,4.878,3.217,8.486a95.42735,95.42735,0,0,1-11.446-1.741l5.511,8.913c-4.526.278-8.496.371-8.496.371,0,.315,5.054,2.731,12.515,4.419a14.54994,14.54994,0,0,0,3.641.311"/><path d="M30.7453,19.87537s.439-.174.664-.057a.6283.6283,0,0,0,.033.275,4.88,4.88,0,0,0-.697-.218m-.232-.046.051.189a3.57306,3.57306,0,0,0,.8.41l.267-.19305a.65732.65732,0,0,1-.105-.486c-.349-.226-1.013.08-1.013.08"/><path d="M35.1665,12.15332l-.261.368a5.12212,5.12212,0,0,0-1.264.043l.224-.355a2.49121,2.49121,0,0,1,1.301-.056m-4.418,6.956-.219.176.235-.415-.156.075.067-.218-.081.081-.37.231a46.89654,46.89654,0,0,0,3.528-6.079,1.22128,1.22128,0,0,1,.862-.087,41.989,41.989,0,0,1-3.866,6.236m-.343.316-.083.064-.136-.28595a.76865.76865,0,0,0,.262-.12805l.063-.018-.139.265Zm3.354-7.493-.363.647.079.495c-1.628,3.202-3.441,6.101-3.441,6.101l.224.544.265-.184.181.016a24.14743,24.14743,0,0,0,3.947-5.946s.64.021.692-.498c.052-.524.088-.889.088-1.099a3.274,3.274,0,0,0-1.672-.076"/></svg>