<?xml version="1.0" encoding="utf-8"?>
<!-- Generator: Adobe Illustrator 21.0.2, SVG Export Plug-In . SVG Version: 6.00 Build 0)  -->
<!DOCTYPE svg PUBLIC "-//W3C//DTD SVG 1.1//EN" "http://www.w3.org/Graphics/SVG/1.1/DTD/svg11.dtd">
<svg version="1.1" id="Layer_1" xmlns="http://www.w3.org/2000/svg" xmlns:xlink="http://www.w3.org/1999/xlink" x="0px" y="0px"
	 width="300px" height="288.1px" viewBox="0 0 300 288.1" style="enable-background:new 0 0 300 288.1;" xml:space="preserve">
<style type="text/css">
	.st0{fill:#99999A;}
	.st1{fill:#001F5B;}
	.st2{fill:#071C2C;}
	.st3{fill:#FFFFFF;}
</style>
<title>Vancouver Canucks light logo</title>
<g>
	<path class="st0" d="M148.5,178.5l63.6-31.7c43.6,12.3,56.4,28.8,56.4,28.8l24.9-28.2c1.4-1.4,5.5-6.6,5.5-15.8
		c0-10-10.4-17.7-17.8-22.9c-12.3-32.6-81-42-86.1-53.3c-1.6-3.9-11.7-37.8-11.7-37.8C177.3,0,159.7,0,153.1,0c-6.7,0-21,2.3-21,2.3
		c0,24.4-3.3,54.2-6.8,59.7c0,0-12.4,6.5-26.9,11.7L63.7,50.2l9.1,31.6C14.2,113.9,0,170,0,170s15,118.1,163.2,118.1
		c78.3,0,123.5-37.8,123.5-37.8l-25.3-56.4c0,0-38.5,20-87.8,20c-45.4,0-63.1-21.2-69.6-33.5C142.5,181.5,148.5,178.5,148.5,178.5
		L148.5,178.5z"/>
	<path class="st1" d="M146.2,172.3l65.2-32.7c44.2,12.5,56.9,26,56.9,26l20.2-22.7c0,0,3.7-3.5,3.7-11.4c0-7.3-10.9-14.7-16.8-18.8
		c-12-32.7-78.8-38.7-86.2-54.1c-3-6.2-6.7-21-12.3-39c-4.5-13-17.5-13-23.9-13c-6.3,0-14.4,1.3-14.4,1.3c0,13.3-2.5,52-8.7,58.7
		c-1.5,2-12.9,6.6-25.3,11.3l3.7,2.5l-3.8,3.8l-7.1,7.2l-7.8,24.4l-10.2-5.2l3.7,9l-18.2,3l10.3,3.6l-29.6,22.7l8,0.6l-10.6,19
		c15.3-6.9,19.8-8.2,19.8-8.2l-4.4-4.5l30.7-12.4c0,0-2.3,6.2-2.3,18.1c0,1.7,0.2,4.2,0.8,7.2c3.8,18.6,21.9,56.8,85.8,56.8
		c46.2,0,82-16.2,82-16.2l16.6,37.1c0,0-43.4,30.1-109,30.1c-134.3,0-151.3-105.6-151.3-105.6c18.5-49.5,49.6-71.2,69.4-80.3
		L75.2,90l-0.6-1.9C22.2,117,6.7,170.4,6.7,170.4s15.9,111.1,156.4,111.1c71.9,0,115.3-33.3,115.3-33.3l-20.3-45.4
		c0,0-38,17.8-84.5,17.8c-69.3,0-79.5-47.3-79.5-47.3S133.6,175.7,146.2,172.3L146.2,172.3z M286.3,137.4c0.4-1.3,0.5-2.6,0.3-3.9
		C286.8,134.8,286.7,136.1,286.3,137.4c0.6-1.1,1.1-2.6,1.1-4.6C287.4,134.8,286.9,136.3,286.3,137.4L286.3,137.4z"/>
	<path class="st2" d="M271.4,115.9c-11.2-32-72.4-34.2-86.2-54.4c-3.8-5.6-10.1-41.4-16.5-46.3c-7-5.4-25-2.9-25-2.9
		c0,5-1.2,48.9-10.4,58c-6.1,5.2-16.4,7.5-28.7,13.9l-7.1,7.2l-7.8,24.4l-10.2-5.2l3.7,9l-18.2,3l10.3,3.6l-29.6,22.7l8,0.6
		l-10.6,19c15.3-6.9,19.8-8.2,19.8-8.2l-4.4-4.5l30.7-12.4c0,0-2.3,6.2-2.3,18.1c0,1.7,0.2,4.2,0.8,7.2c1.3-1.3,27.7-27.6,55.5-33.3
		l-42.9,33.2c0,0,35.3,1.5,44-1c27.3-12.7,49.2-24.6,66.4-33.2c39.9,10.6,56.9,24.4,56.9,24.4l4.2-4.7c-2-1.5-16.7-11.6-45.5-21.1
		c8.6-3.4,19-7.4,21.7-7.4c6.4,0,19.4,8.3,33.5,17.4l3.1-3.6c0,0,0.7-0.7,1.4-2c0.6-1.1,1.1-2.6,1.1-4.6
		C287.4,126.2,278.7,121.8,271.4,115.9L271.4,115.9z"/>
	<path class="st0" d="M117,111.1l-16.6,9.2l33,4.5L117,111.1L117,111.1z M95.6,137.1l2.8-20.6L60,142.5
		C60,142.5,95.6,137.1,95.6,137.1z M127.9,80.3l-27.7,15.4l7.2,17.3C107.4,113,127.9,80.3,127.9,80.3z"/>
	<path class="st3" d="M300,241.8c0-1.3-1-2.3-2.3-2.3h-3.3v7.8h1.5v-3.2h1l1.5,3.2h1.6l-1.5-3.3C299.3,243.7,300,242.8,300,241.8
		L300,241.8z M297.7,242.7h-1.8V241h1.8c0.5,0,0.8,0.4,0.8,0.8C298.5,242.2,298.1,242.7,297.7,242.7L297.7,242.7z M69.4,138.9
		l23.6-3.7l2.4-13.9L69.4,138.9L69.4,138.9z M127.6,122.1l-12.7-7.4l-9,4.8L127.6,122.1z M106.7,107.4l15.2-20.6l-17.6,9.9
		L106.7,107.4L106.7,107.4z"/>
	<path class="st3" d="M173.7,231c-73.6,0-92.1-50.5-92.1-69.4c0-4.3,0.3-7.7,0.6-10.7l-16.9,5.6l2.2,4.8l-13.2,4.8l-11.4,7.5
		l23.1,4.3l-4.8,16.5l9.9-2.9l9.5,24.2l11.4-1.5l3.8,16.9c0,0,21.5,14.9,57.7,18.1c48,4.3,90.9-12.1,90.9-12.1s-51.2,20-97.8,15.1
		c-35.5-3.8-58.8-18.2-58.8-18.2l-0.3-15.3l-14,0.2l-6.6-23.5l-12.5,5.8l5.5-21l-23.9-3l4.9-14.6l5.7-11.5l-7.7,0.2l32.1-23.8
		L57.2,122l22.8-4.5l-7.9-16l14,8l5.5-17.4c-16.8,5.9-53.1,24.5-74.1,79.2C20,184,42,271.1,163.2,271.1c52.2,0,90.4-19.8,102.2-26.7
		l-12.6-28C241.3,220.8,211,231,173.7,231L173.7,231z M69.1,58.5L78.8,87L96,91.2l6.9-9.4L69.1,58.5z M164.1,60.6
		c-2.5-3.1-5.5-35-5.5-35s-0.5,32.5-2.4,35.4c-1.9,2.9-11.2,8.3-11.2,8.3s10.4-3.4,15.5-3.7c3.7-0.2,15.6,2.3,15.6,2.3
		S166.6,63.8,164.1,60.6L164.1,60.6z"/>
	<path class="st3" d="M165,118.7c-51.8,3.1-75.9,47.6-77.2,50.1c1.3-1.3,27.7-27.6,55.5-33.3L165,118.7z M271.4,115.9
		c-29.1-3.2-36.9-10.2-36.9-14.7c0-1.7,1.5-2.2,2.9-2.2c6.6,0,15.3,4.7,20.2,10c-3-7.6-20.3-16.5-31.7-16.5c-2.1,0-5.3,0.6-5.3,4.1
		c0,7.1,10.8,16.2,38.4,18.4c14.8,3.5,30.2,11.8,27.3,22.4c0.6-1.1,1.1-2.6,1.1-4.6C287.4,126.2,278.7,121.8,271.4,115.9
		L271.4,115.9z M233,132.8l10.8,3.8c2-0.8,4.1-1.9,4.3-2.2c0.1-0.3,0.1-0.5-0.4-0.9c-0.3-0.3-5.1-2.1-8.1-3.2L233,132.8L233,132.8z
		 M242,129.4c2.9,1.1,6.9,2.7,7.2,2.8c0.5,0.1,1.2,0.1,1.6,0c0.4,0,2.7-1.3,4.5-2.2c-1.7-0.8-5.1-2.3-7.3-2.3
		C245.9,127.7,242,129.4,242,129.4L242,129.4z M252.7,133.1c-0.1,0.2,0,0.4,0.4,0.7c0.4,0.3,6,3.2,6.4,3.2c0.5,0,0.8,0,1.3,0
		c0.3-0.1,2.3-1.3,3.5-2.2l-7.5-4C254.9,131.7,252.9,132.8,252.7,133.1L252.7,133.1z M258,139c0.2-0.2,0.3-0.5,0.1-0.7
		c-0.3-0.4-5.9-3.3-6.5-3.4c-0.6-0.1-1-0.1-1.5,0.2c-0.5,0.2-3.3,1.7-4.4,2.3l8.7,3.9C256.1,140.4,257.8,139.2,258,139L258,139z
		 M268.6,142.1c0.2,0,0.7-0.1,1.4-0.3c0.3-0.1,1.6-1.1,2.5-1.9l-6.7-4.3c-1.6,1-3.3,2.2-3.5,2.4c0,0.1,0,0.2,0.4,0.7L268.6,142.1
		L268.6,142.1z M271.4,142.7c-0.2,0.4-0.2,0.6-0.1,0.6c0.2,0.2,3.7,2.6,6.1,4.1l2.6-2.6l-6.1-4C272.7,141.6,271.5,142.6,271.4,142.7
		z M267.6,143.9c0.1-0.2,0-0.5-0.2-0.7c-0.3-0.3-5.7-3.2-6.1-3.3c-0.4-0.1-1.2,0-1.7,0.1c-0.2,0-1.8,1.1-3.3,2.2l8.2,3.7
		C265.9,145.1,267.4,144.1,267.6,143.9L267.6,143.9z M269,145c-0.2,0.1-1.7,1.2-2.9,2.1l7.4,4.6l2.7-3.1c-2.2-1.5-5.5-3.8-5.7-3.8
		C270.2,144.7,269.4,144.8,269,145L269,145z"/>
	<path class="st3" d="M210.9,134.4c39.9,10.6,56.9,24.4,56.9,24.4l4.2-4.7c-2-1.5-16.7-11.6-45.5-21.1c8.6-3.4,19-7.4,21.7-7.4
		c6.4,0,19.4,8.3,33.5,17.4l3.1-3.6c-12.3-8.5-26.7-18.5-37-18.5C239.4,120.9,227.3,126.2,210.9,134.4L210.9,134.4z"/>
</g>
</svg>
