<svg id="Layer_1" data-name="Layer 1" xmlns="http://www.w3.org/2000/svg" viewBox="0 0 45.159 45.15997"><title>Winnipeg Jets Logo 2011</title><path d="M45.159,22.581A22.5795,22.5795,0,1,1,22.58,0,22.57457,22.57457,0,0,1,45.159,22.581" fill="#b0b7bc"/><path d="M43.6429,22.581A21.063,21.063,0,1,1,22.5799,1.516a21.061,21.061,0,0,1,21.063,21.065" fill="#00285e"/><path d="M24.6188,7.18494l-2.037-5.133-2.161,5.133a15.562,15.562,0,1,0,4.198,0" fill="#fff"/><polygon points="13.074 19.677 14.365 22.783 20.25 19.975 20.568 16.37 21.005 14.352 18.04 12.408 19.233 19.474 16.077 16.325 15.991 18.81 11.373 17.068 13.086 21.602 13.086 21.204 13.074 19.677" fill="#820024"/><polygon points="19.954 26.565 15.767 26.286 17.46 27.763 16.465 29.002 18.625 29.353 19.954 27.442 19.954 26.565" fill="#820024"/><polygon points="22.582 34.014 21.281 31.063 21.257 31.127 22.582 37.562 23.924 31.078 23.918 31.065 22.582 34.014" fill="#820024"/><polygon points="25.246 27.442 26.575 29.355 28.761 29.003 27.765 27.763 29.461 26.283 25.246 26.565 25.246 27.442" fill="#820024"/><path d="M24.9485,19.975l5.885,2.807,1.256-3.144.024,1.566v.47l1.741-4.606-4.619,1.742-.088-2.485-3.156,3.149c.082-.49,1.194-7.067,1.194-7.067l-2.988,1.963.434,1.999Z" fill="#820024"/><polygon points="34.657 21.75 32.113 21.738 32.113 23.969 34.657 21.75" fill="#820024"/><polygon points="10.568 21.75 13.086 23.946 13.086 21.738 10.568 21.75" fill="#820024"/><polygon points="32.091 19.637 30.834 22.782 24.95 19.975 24.633 16.369 22.584 7.003 20.57 16.369 20.252 19.975 14.367 22.782 13.075 19.676 13.087 21.204 13.087 26.634 14.023 26.168 19.956 26.565 19.956 27.441 17.261 31.318 17.261 33.668 20.976 31.836 21.283 31.063 22.58 34.028 23.919 31.064 24.225 31.836 27.941 33.668 27.941 31.317 25.247 27.441 25.247 26.565 31.179 26.168 32.114 26.634 32.114 21.204 32.091 19.637" fill="#717073"/><polygon points="20.971 16.426 20.636 20.242 20.634 20.243 20.452 22.404 20.066 20.514 14.154 23.334 13.493 21.742 13.493 25.979 13.938 25.757 20.36 26.186 20.36 27.569 17.666 31.446 17.666 33.015 20.655 31.541 21.118 30.377 20.859 29.088 21.296 30.1 22.58 33.018 22.581 8.645 20.971 16.426" fill="#b0b7bc"/><path d="M19.949,26.565l-3.838-.256,1.622,1.415c-.025.072-.88,1.129-.88,1.129l1.9.309,1.196-1.72Z" fill="#c41230"/><path d="M20.9531,14.568l-2.627-1.726a.31544.31544,0,0,0,.005.032l2.09,5.107.142-1.611Z" fill="#c41230"/><path d="M19.2318,19.765l-.008-.005-2.954-2.947-.086,2.288-4.418-1.662,4.313,4.524,3.627-1.731Z" fill="#c41230"/><polygon points="21.625 31.847 22.584 36.692 22.58 34.031 21.625 31.847" fill="#c41230"/><polygon points="11.123 21.956 13.08 23.665 13.08 21.947 11.123 21.956" fill="#c41230"/><polygon points="26.88 12.858 24.243 14.598 24.539 15.96 26.88 12.858" fill="#c41230"/><polygon points="33.492 17.435 29.081 19.103 27.791 21.333 28.673 21.755 33.492 17.435" fill="#c41230"/></svg>