<?xml version="1.0" encoding="utf-8"?>
<!-- Generator: Adobe Illustrator 21.1.0, SVG Export Plug-In . SVG Version: 6.00 Build 0)  -->
<!DOCTYPE svg PUBLIC "-//W3C//DTD SVG 1.1//EN" "http://www.w3.org/Graphics/SVG/1.1/DTD/svg11.dtd">
<svg version="1.1" id="Layer_1" xmlns="http://www.w3.org/2000/svg" xmlns:xlink="http://www.w3.org/1999/xlink" x="0px" y="0px"
	 width="504.7px" height="389.1px" viewBox="0 0 504.7 389.1" style="enable-background:new 0 0 504.7 389.1;" xml:space="preserve"
	>
<style type="text/css">
	.st0{fill:#F47920;}
</style>
<g>
	<path d="M241.6,389.1c-23.2,0-44.6-7.5-60.1-21.1c-17.8-15.5-27.1-37.6-27.1-63.8c0-8.2,0.9-16.2,2.6-24.1H0l26.1-57.4h12.2
		c13.3,0,17.9-6,18.6-7l40.9-89.9H70.3l26.2-57.4h124.8c2.1,0,13.4,0.4,24.9,7.5c19.6,12.3,23.7,33.1,23.7,48.5
		c0,19.9-9.1,34.4-18.5,44.2c11.1-2.8,22.2-4.3,33.2-4.3c13.1,0,25.1,2.4,36.8,7.4h82.8l-53.7,117.7h-57.6l6.3-23.8
		c2.8-10.8,4-29.4-0.5-35.2c-0.4-0.5-1.2-1.6-5.3-1.6c-10.6,0-23.7,11.1-34.9,29.7c-10.6,17.7-18.4,41.1-18.4,55.7
		c0,8.4,2.8,11.3,10.7,11.3c17.4,0,28.9-18.1,29.4-18.9l5.4-9.5H348l-13.5,27.4C333.2,327.3,302.1,389.1,241.6,389.1z M143.7,223.3
		c14.3-0.3,16.8-2.4,21.8-13.4c3.3-7.2,3.6-11.3,3.4-12.5c-1.2-0.9-5.2-2.3-12.3-2.4L143.7,223.3z M184.2,134.5
		c0.7-0.7,1.3-2,2.5-4.5c0.8-1.7,1.2-3,1.5-4c0,0-0.1,0-0.1,0L184.2,134.5z"/>
	<path class="st0" d="M144.1,176.9l-29.5,64.8c43.4,1.9,56.6,1.8,68.3-23.8C201.6,176.9,165.1,174,144.1,176.9 M175.3,214.4
		c-8.1,17.8-14.6,20.5-47.8,19.4l22.3-48.8c11.5-1,23.6,0.5,28,6.3C181.9,196.8,178.7,206.9,175.3,214.4"/>
	<path class="st0" d="M391.9,154.8c1.3,10.2,3.7,15.2,6.1,18.6c1.5-0.3,10.4-1.9,10.4-1.9s1.8,9,2.1,10.3c3.1-0.1,11.2-0.2,11.2-0.2
		s2.6,5.7,2.9,6.3c0.8-0.5,1.7-1,2.6-1.6C417.9,176.6,411.9,159.4,391.9,154.8"/>
	<path class="st0" d="M176.1,106.8l-22,48.2c32.4,2.4,42.2,0,50-17.1C218.2,106.8,189.3,105.7,176.1,106.8 M196.4,134.4
		c-4.3,9.5-7.6,13.5-29.5,12.9l14.7-32.3c8.4-0.1,14.8,1.6,16.9,4.6C200.3,122.1,199.6,127.5,196.4,134.4"/>
	<path d="M149.6,184.9l-22.2,48.8c33.3,1.1,39.7-1.6,47.8-19.4c3.4-7.5,6.6-17.6,2.4-23.2C173.2,185.4,161.1,184,149.6,184.9
		 M168.3,211.2L168.3,211.2c-5.3,11.7-7.7,15.1-29.2,15.2c5.3-11.5,13.1-28.7,15.5-34.1c9.6-0.2,15.6,1.7,16.9,3.5
		C172.2,196.6,172.9,201.2,168.3,211.2"/>
	<path d="M426.1,40.9c0,0-12.3-8.8-40.1-0.4l2.6,4.6c0,0,10.8-4.2,31.5,1.6l0.7,6.5c0.2,1.8,1.8,3.1,3.6,2.9
		c1.8-0.2,3.1-1.8,2.9-3.6L426.1,40.9z"/>
	<path d="M181.5,114.9l-14.7,32.3c21.9,0.6,25.2-3.4,29.6-12.8c3.1-6.9,3.9-12.3,2.1-14.9C196.3,116.5,189.9,114.9,181.5,114.9
		 M189.4,131.3c-2.2,4.8-3.4,7.3-10.7,8.1c3.4-7.5,5.7-12.6,7.6-16.7c2.8,0.3,4.5,0.8,5.5,1.1C191.6,125.1,191.1,127.5,189.4,131.3"
		/>
	<path d="M303.3,182.9c-11.4-8.5-21.5-31.2-21.5-31.2l-4.9,2.2C289.2,187.1,303.3,182.9,303.3,182.9"/>
	<path class="st0" d="M483.5,62.6c-9-7.1-22.9-15.4-43.5-21.2c0,0-25.2-33.6-88.9-33.6c-18.9,0-34.7,1.5-47.6,3.6
		c6.1,2,12.4,4.2,18.9,6.6l-2.7,7.1C240.1-5.2,210.2,12.7,210.2,12.7c-4.9,33.6,43.1,61.8,43.1,61.8l-3.8,6.5
		c-1.4-0.8-22.9-13.6-36.4-32.9c-16.6,9.8-38.5,25.1-46.6,30.9h-63.2l-16.5,36.2h20.3c0,0,7.2,0,4,7.2l-44.8,98.2
		c-0.2,0.4-6.6,12.7-27.9,12.7h-5.4l-16.5,36.2h154.7c-3.3,8.8-6.2,20.6-6.2,34.7c0,51.3,38.5,74.3,76.7,74.3
		c61.2,0,89.3-70.6,89.3-70.6H292c0,0-14.3,28.3-41,28.3c-17.6,0-21.3-11.9-21.3-21.9c0-31.6,29.6-96,63.9-96
		c32.8,0,13.3,60.6,13.3,60.6h37l36.7-80.5c11.6,6.5,25.7,14.6,38.7,14.6c19.1,0,26.9-10.7,26.9-10.7l-7-3.9l8.5-17.7
		c-16.3,13.8-26.5,17.8-26.5,17.8l-4.2-9l-12.5,0.2l-1.9-9.2l-7.5,1.4c-5.8-6.7-11.8-14.3-11.8-48.7c0-7.7,1.5-11.2,7.3-11.2
		c2.8,0,10.7,1.9,15.4,3c-3.4-4.8-5.6-11.3-5.6-20.1c0-21.3,12.3-28,20.9-30.1v-7.3c0-2.1,1.7-3.8,3.8-3.8c2.1,0,3.8,1.7,3.8,3.8v14
		c0,0-20.9-1.5-20.9,23.4c0,11,5.4,26.1,28.2,26.1c6.4,0,12.4-1,18-2.8c3.5,8.4,1,18.8,1,18.8s6.6-8.5,11.5-24.5
		c3.4-2,6.5-4.3,9.3-6.8c0.8-2.3,1.6-5.7,1.6-10.2c0-10.8-5.4-19.5-5.4-24.8C472,74.8,479.3,71.1,483.5,62.6 M338.4,270.5h-20.7
		c0,0,15.9-60.6-24.2-60.6c-40.1,0-72.2,69-72.2,104.4c0,13,6.2,30.3,29.7,30.3c29.5,0,45.8-28.3,45.8-28.3h20.7
		c0,0-26.5,53.8-75.8,53.8c-36,0-68.3-21.7-68.3-65.9c0-20.8,7-36.1,10.9-43.1H29.6l8.8-19.4c27.6,0,35.6-17.6,35.6-17.6l45.4-99.7
		c0,0,8-17.6-2.4-17.6H99.9l8.8-19.4h112.6c0,0,29.6,0,29.6,37c0,29.8-30.2,43.5-30.2,43.5s15.8,6.7,18.7,24.6
		c8.3-3.4,25.1-9.2,45.3-9.2c31.6,0,43.9,17.3,55.3,17.3c9.6,0,14.1-9.9,14.1-9.9h20.7L338.4,270.5z M424.7,56.1
		c-1.8,0.2-3.4-1.1-3.6-2.9l-0.7-6.5c-20.7-5.7-31.5-1.6-31.5-1.6l-2.6-4.6c27.7-8.4,40.1,0.4,40.1,0.4l1.3,11.5
		C427.7,54.2,426.4,55.9,424.7,56.1"/>
	<path d="M444.2,34.8c-7-7.8-35-34.5-93.2-34.5c-24.4,0-47.2,3.2-64.1,6.5c-56.3-14.5-79.5-1.2-80.7-0.5c-1.9,1.2-3.3,3.2-3.6,5.4
		c-1.6,10.9,1.3,21,6.4,30c-15.6,9.3-35.4,23-45,29.7H98.4L75,122.8h27.6l-43,94.4c-0.4,0.6-5.2,8.6-21.2,8.6H28.1L4.7,277h156.2
		c-2.3,8.8-3.5,17.9-3.5,27.1c0,56.6,42.3,81.9,84.3,81.9c72.1,0,100.5-85.8,100.5-85.8h-54.9c0,0-12.3,28.3-36.4,28.3
		c-7.1,0-13.7-1.7-13.7-14.3c0-30.9,28.9-88.4,56.3-88.4c24.3,0,2.9,60.6,2.9,60.6l52.3,0l35.3-77.5c10.7,5.8,23,11.6,35.1,11.6
		c28.6,0,38.1-20.7,38.1-20.7l-8.3-4.6c12-24.3,9-34.1,9-34.1c-8.9,10.7-21.7,18.9-24.4,20.9c-2.5-2.4-4.8-5.7-7.4-9.3
		c-7.1-10.1-16-22.5-35-25.8c-0.3-4-0.4-8.6-0.4-13.9c0,0,0.3-2.2,10.7-2.2s25.1,7.6,34.5,7.6c4.2,0,8.3-0.4,12.1-1.1
		c3.2,10.8-3.7,25.4-3.7,25.4s23.8-11.1,25.1-33.4c22.4-13.1,35.3-37.3,35.3-52.6c0-1.4-0.4-2.7-1.1-3.9
		C502.9,71.8,487.9,47.7,444.2,34.8 M427.1,186.4c-0.9,0.6-1.8,1.1-2.6,1.6c-0.3-0.6-2.9-6.3-2.9-6.3s-8.1,0.1-11.2,0.2
		c-0.3-1.4-2.1-10.3-2.1-10.3s-8.9,1.6-10.4,1.9c-2.5-3.5-4.8-8.4-6.1-18.6C411.8,159.4,417.8,176.6,427.1,186.4 M475.7,115.6
		c-2.9,2.5-6,4.8-9.3,6.8c-5,16-11.5,24.5-11.5,24.5s2.5-10.4-1-18.8c-5.5,1.8-11.5,2.8-18,2.8c-22.8,0-28.2-15.2-28.2-26.2
		c0-24.9,20.9-23.4,20.9-23.4V67.3c0-2.1-1.7-3.8-3.8-3.8c-2.1,0-3.8,1.7-3.8,3.8v7.3c-8.6,2.1-20.9,8.8-20.9,30.1
		c0,8.8,2.2,15.3,5.6,20.1c-4.6-1.2-12.5-3-15.4-3c-5.8,0-7.3,3.5-7.3,11.2c0,34.4,6.1,42,11.8,48.7l7.5-1.4l1.9,9.2l12.5-0.2l4.2,9
		c0,0,10.3-4,26.6-17.8l-8.5,17.7l7,3.9c0,0-7.8,10.7-27,10.7c-13,0-27-8.1-38.7-14.6l-36.7,80.5l-37,0c0,0,19.5-60.6-13.3-60.6
		c-34.3,0-63.8,64.4-63.8,96c0,10,3.7,21.9,21.3,21.9c26.7,0,41-28.3,41-28.3h39.1c0,0-28.1,70.6-89.3,70.6
		c-38.2,0-76.7-23-76.7-74.3c0-14.1,2.9-25.9,6.2-34.7H16.5L33,233.3h5.4c21.4,0,27.7-12.3,28-12.7l44.8-98.2c3.2-7.2-4-7.2-4-7.2
		H86.8L103.3,79h63.2c8.1-5.7,30-21.1,46.6-30.9c13.5,19.3,35,32.1,36.4,32.9l3.8-6.5c0,0-48-28.2-43.1-61.8
		c0,0,29.8-17.9,109.5,12.5l2.7-7.1c-6.5-2.5-12.8-4.7-18.9-6.6c12.9-2.1,28.8-3.6,47.6-3.6c63.7,0,88.9,33.6,88.9,33.6
		c20.6,5.7,34.5,14.1,43.5,21.2c-4.2,8.5-11.5,12.2-11.5,18c0,5.3,5.4,14,5.4,24.8C477.3,109.9,476.5,113.3,475.7,115.6"/>
	<path class="st0" d="M489,67.5c-2.5,1-10,4.8-10,13.2c0,7.2,6.2,16.8,3.3,28.4c9.5-10.8,14.8-23.3,14.8-32.2
		C497.1,76.8,494.7,72.9,489,67.5"/>
	<path class="st0" d="M241.6,382.1c-21.5,0-41.2-6.9-55.5-19.3c-16.2-14.1-24.7-34.4-24.7-58.6c0-12.1,2.1-22.6,4.8-31.1H10.9
		l19.8-43.4h7.7c18.3,0,24.2-9.8,24.8-10.8l45.3-99.5c0.1-0.2,0.2-0.4,0.3-0.6H81.2l19.8-43.4h120.3c1.1,0,11.1,0.2,21.2,6.4
		c9.3,5.8,20.4,17.9,20.4,42.5c0,21.2-11.7,35.7-21.9,44.4c2.1,2.4,4.1,5.2,5.7,8.4c9.8-3,23-5.8,37.9-5.8c15.1,0,26.6,3.5,35.4,7.4
		h73.4L346,282.5h-44l4-15.1c2.5-9.5,5.3-32.2-1.8-41.3c-1.5-2-4.2-4.3-10.8-4.3c-13.3,0-28.2,12.1-40.9,33.1
		c-11.4,18.9-19.4,43.3-19.4,59.3c0,12.2,6,18.3,17.7,18.3c22,0,35.3-22.1,35.4-22.3l3.5-6h47l-8.5,17.3
		C327,324,297.8,382.1,241.6,382.1z M132.9,230.3c1.9,0,3.8,0.1,5.5,0.1c20.4,0,26.3-1.7,33.5-17.5c4-8.9,5.1-15.9,3-19.2
		c-2.2-3.5-9.6-5.6-19.1-5.6c-1.2,0-2.4,0-3.7,0.1L132.9,230.3z M172.3,143.8c15.2-0.1,17.3-3.3,20.8-10.9
		c3.3-7.2,2.9-10.6,2.4-11.3c-0.7-1.1-4.5-2.8-11.7-3.1L172.3,143.8z"/>
	<path d="M339.8,200.7c-11.4,0-23.7-17.3-55.3-17.3c-20.1,0-37,5.8-45.2,9.2c-2.9-17.9-18.7-24.6-18.7-24.6s30.2-13.8,30.2-43.5
		c0-37-29.6-37-29.6-37H108.7l-8.8,19.4H117c10.4,0,2.4,17.6,2.4,17.6l-45.4,99.7c0,0-8,17.6-35.6,17.6L29.5,261h154.7
		c-3.9,7-10.9,22.3-10.9,43.1c0,44.2,32.2,65.9,68.3,65.9c49.3,0,75.8-53.8,75.8-53.8h-20.7c0,0-16.3,28.3-45.8,28.3
		c-23.5,0-29.7-17.3-29.7-30.3c0-35.4,32.2-104.4,72.3-104.4s24.2,60.6,24.2,60.6h20.7l36.3-79.7h-20.7
		C353.9,190.7,349.4,200.7,339.8,200.7 M182.8,217.9c-11.7,25.6-24.9,25.7-68.3,23.8l29.5-64.7C165,174,201.5,176.9,182.8,217.9
		 M204,137.9c-7.8,17.1-17.6,19.5-50,17.1l22-48.2C189.2,105.7,218.1,106.8,204,137.9"/>
</g>
<path d="M281.9,151.7c0,0,10.2,22.6,21.5,31.2c0,0-14.1,4.2-26.4-29L281.9,151.7z"/>
</svg>
