<?xml version="1.0" encoding="utf-8"?>
<!-- Generator: Adobe Illustrator 21.1.0, SVG Export Plug-In . SVG Version: 6.00 Build 0)  -->
<!DOCTYPE svg PUBLIC "-//W3C//DTD SVG 1.1//EN" "http://www.w3.org/Graphics/SVG/1.1/DTD/svg11.dtd">
<svg version="1.1" id="Layer_1" xmlns="http://www.w3.org/2000/svg" xmlns:xlink="http://www.w3.org/1999/xlink" x="0px" y="0px"
	 width="499.9px" height="330.8px" viewBox="0 0 499.9 330.8" style="enable-background:new 0 0 499.9 330.8;" xml:space="preserve"
	>
<style type="text/css">
	.st0{fill:#FFFFFF;}
	.st1{fill:#CF0A2C;}
</style>
<g>
	<path class="st0" d="M280.3,330.8c-91.2,0-165.4-74.2-165.4-165.4S189.1,0,280.3,0c91.2,0,165.4,74.2,165.4,165.4
		S371.5,330.8,280.3,330.8z M280.3,13.1c-84,0-152.3,68.3-152.3,152.2c0,84,68.3,152.3,152.3,152.3c40.7,0,79-15.8,107.7-44.5
		c28.8-28.7,44.6-67,44.6-107.7C432.6,81.4,364.3,13.1,280.3,13.1z"/>
	<path class="st0" d="M280.3,3c-89.7,0-162.4,72.7-162.4,162.4s72.7,162.4,162.4,162.4s162.4-72.7,162.4-162.4S370,3,280.3,3z
		 M280.3,320.6c-85.7,0-155.3-69.5-155.3-155.3S194.6,10.1,280.3,10.1s155.3,69.5,155.3,155.3S366.1,320.6,280.3,320.6z"/>
	<path class="st0" d="M342.8,297.7c-6.1,0-8.9-4.2-9.8-7.2c-3.3-0.5-5.9-2-7.7-4.5c-1.7-2.4-2.6-5.3-3.4-8.2
		c-1.5-5.2-2.7-8.7-6.8-9.7c-1.4,6.6-6.4,9.6-11.1,12.5c-4,2.4-7.7,4.8-9.5,9.1c-0.2,0.5-0.6,0.8-1.1,1c-0.2,0-0.3,0.1-0.5,0.1
		c-0.3,0-0.7-0.1-0.9-0.3c-9.3-6.3-12.6-19.2-12.7-19.8c-0.2-0.8,0.2-1.6,0.9-1.9c1.7-0.8,3.8-1.3,5.9-1.9c3.4-0.9,7.3-1.8,8.2-3.8
		c0.4-0.9,0.3-2.3-0.5-3.9c-0.1-0.2-0.1-0.4-0.2-0.5l-0.8-7.5c-28.8-6-56.1-16.7-56.4-16.8c-0.4-0.2-0.8-0.5-1-1
		c-7.8-21.1-26.2-28.9-45.6-37c-22.3-9.3-45.3-19-49.9-50.5c-2.9-20-4.1-20.9-8-23.8c-0.4-0.3-0.8-0.6-1.2-0.9
		c-3.6-0.2-7.2-2-10.7-3.8c-3.4-1.7-6.6-3.3-9.5-3.3c-3.5,0-7.5,2.9-12.6,6.6c-9.6,6.9-22.8,16.4-44.8,16.4
		c-22.9,0-38.1-11.5-38.8-12c-0.5-0.4-0.8-1.1-0.6-1.7c0.1-0.6,0.6-1.1,1.3-1.3c52.8-11.4,81.2-25.8,96.5-33.6
		c6.6-3.3,10.2-5.1,12.6-5.1c7.1,0,10.1,5.1,12.8,9.7c2.2,3.6,4.2,7.1,8.1,8.5c18.2-16.6,34-30.9,57.4-30.9c15,0,30.1,0.4,44.7,0.8
		c12.4,0.3,24,0.7,33.8,0.7c7.1,0,12.6-0.2,16.9-0.5c0.5-0.4,0.6-0.6,0.7-0.7c-0.1-0.2-0.3-0.5-0.5-0.7c-0.9-1.1-2.5-3.2-0.4-6.2
		c0.1-0.2,0.3-0.4,0.5-0.5c3.5-2.2,7.7-2.4,13-2.6c3.6-0.2,7.7-0.4,12.5-1.2c-1.8-1.4-5.1-3-10.2-3c-1.8,0-3.7,0.2-5.6,0.6
		c-0.1,0-0.2,0-0.3,0c-0.5,0-0.9-0.2-1.2-0.5c-0.4-0.4-0.6-1-0.4-1.6c0.1-0.5,2.9-11.5,21.4-11.5c5.8,0,12.6,1.1,20.3,3.3
		c0.1-0.3,0.2-0.7,0.2-1.1c0-6,3.7-6.7,5.2-6.7c3.7,0,6.3,0.6,8.8,1.1c2.2,0.5,4.2,0.9,6.9,0.9c2.9,0,4.7-1,5.5-1.7
		c-0.2-1.3-0.3-3.6,1.1-5.4c1.2-1.6,3-2.4,5.6-2.4c1.1,0,2.8,0.5,5.2,1.2c5,1.5,13.3,3.9,23.8,3.9c4.4,0,8.8-0.4,13.1-1.2
		c0.7-2.2,0-5.1-0.7-7.9c-0.8-3.1-1.5-6-0.6-8.6c0.2-0.7,0.9-1.1,1.6-1.1c0.1,0,0.2,0,0.3,0c6.6,1.2,9.3,5.8,11.9,10.3
		c1.9,3.3,3.9,6.7,7.6,9.3l25.4,18c0.4,0.3,0.6,0.6,0.7,1.1c0.1,0.3,6.3,31.1,28.6,51.2c0.3,0.3,0.5,0.6,0.5,1.1
		c1.4,11.5-10.5,18.6-11,18.8c-0.3,0.2-0.6,0.2-0.9,0.2c-3,0-5.1,0.4-7.2,0.8c-1.7,0.3-3.3,0.6-5.2,0.6c-4.7,0-7.5-2.6-7.5-5.2
		c0-8.2-7.3-11-15.6-14.1c-7.5-2.8-15.9-6-19-14c-23.4,0.8-54,23.5-58.7,27.1c0,4.2-0.4,8.9-0.8,13.5c-0.5,6.2-1,12.5-0.7,17.3
		c4.9,10.2,11.5,21.3,17.4,31.1c8.5,14.2,13.3,22.4,13.3,26.5c0,4.7-3,9.9-7.8,13.6c-2.3,1.7-5.3,2.5-9.4,2.5c-2.9,0-6-0.4-9.1-0.8
		c-3-0.4-6-0.7-8.7-0.7c-2.4,0-4.3,0.3-5.8,0.9c-0.2,0.1-0.4,0.1-0.6,0.1h-0.1c-2.3-0.1-4.6-0.2-6.7-0.2c-11,0-17.1,1.9-19,2.6
		c-5.1,16.4,3.8,23.8,13.3,31.7c4.6,3.9,9.4,7.9,12.6,13.1c0.2,0.3,0.3,0.6,0.3,0.9c0,2.9-1.5,4.7-2.5,5.6c0.2,2.5,1.2,4.5,2.1,6.3
		c1.3,2.6,2.7,5.2,0.7,8.1c-0.3,0.5-0.8,0.7-1.4,0.7c-0.1,0-0.1,0-0.2,0c-0.9-0.1-1.8-0.1-2.7-0.1c-2.5,0-4.5,0.4-6.6,0.8
		C348.9,297.2,346.4,297.7,342.8,297.7z M246.8,171.2c-1.9,2.4-2.2,5.8-0.8,10c5.9,18.2,39.4,45.7,59.8,49c0.1,0,0.2,0,0.2,0
		c0.9,0,2.3-1,3.5-2.5s1.9-3,2.2-3.9c-0.6,0.2-1.3,0.2-1.9,0.2c-2.5,0-4.3-1.2-5.9-2.3c-1.5-1-2.8-1.9-4.5-1.9
		c-0.2,0-0.6,0.1-0.9,0.1c-0.6,0.1-1.4,0.2-2.3,0.2c-3.6,0-6.3-2.2-8.3-6.7c-0.3-0.7-0.1-1.5,0.4-2c8.4-7.1,16.3-11.7,16.7-11.9
		c0.3-0.2,0.6-0.2,0.8-0.2c0.2,0,0.3,0,0.5,0.1c0.4,0.1,0.8,0.4,1,0.9l4.5,9c0.2,0.2,1.2,0.6,3.4,0.6c3.5,0,6.6-0.9,7.6-1.6
		c-1.5-2.9-1.9-6.7-2.3-10.8c-0.7-6.6-1.4-13.4-6.5-16.1C280.9,179.9,252.5,172.7,246.8,171.2z M345.2,207.5
		c0.2,0.3,0.6,0.6,0.9,0.8c1.7-0.4,8.9-2.1,19.2-2.1c1.2,0,2.5,0,3.7,0.1l-16.6-21H351L345.2,207.5z"/>
	<g>
		<path class="st1" d="M349.1,39.2c-20.6-11.3-44.2-17.7-69.3-17.7c-49.1,0-92.3,24.5-118.3,62c11.3-7,26.4-14.1,41.3-14.1
			c22.9,0,55.2,1.4,77.6,1.4c1.2-1.1,4.1-3,10.5-5.3c0,0-2.1-0.4-2.1-2.9c0-8.9,26.2-20,38.9-20c3.1,0,6.8,0.3,10.8,1
			C343.1,41.9,346.5,40.2,349.1,39.2z"/>
		<path class="st1" d="M374.6,124.1c0,9.6-2.1,21.3-1.4,29.8c12.1,25.3,30.7,49.3,30.7,57.9c0,5.2-3,10.6-8.3,14.6
			c-3.1,2.5-21.6,7.5-27.3,7.5c-5.1,0-13.6-1.5-17.4-1.5c-3.7,0-6.5,0.9-6.5,0.9c-3.6-0.2-6.9-0.3-8.6-0.3
			c-4.9,20.1,17.3,25.7,26.6,40.8c0.3,0.5,0.5,1,0.5,1.6c0,2.7-1.1,4.7-2.3,5.9c0.2,0.9,0.4,1.9,0.7,2.7
			c37.8-25.9,62.6-69.5,62.6-118.8c0-21.8-4.8-42.4-13.5-60.9C396.7,107.2,374.6,124.1,374.6,124.1z"/>
		<path class="st1" d="M315.5,295.6c-8.4-0.9-10.7-11.1-11.3-13.5c-3.7,2.3-7.2,4.6-8.7,8.3c-0.4,1-1.2,1.6-2.1,1.8
			c-11.2,2.4-16.2,5-18.3,3.6c-10.6-7.6-13.3-21.3-13.3-21.3c0-1.1,0.7-2.2,1.8-2.8c7-3.2,16-1.7,12.7-8.7c0,0-0.4-4.1-0.7-6.5
			c-26.1-5.8-52.6-14-52.6-14c-0.8-0.3-1.4-0.9-1.7-1.8c-13.5-36.4-62.4-32.9-84.9-61.7c6.9,73.1,68.4,130.4,143.3,130.4
			c15.2,0,29.8-2.4,43.6-6.7C319.8,302,316.9,300.1,315.5,295.6z"/>
	</g>
	<path class="st1" d="M288.2,203.7l14.6-4.7c-0.8-4.9-1.9-9.4-5.2-11.1c-19.6-0.9-37.5-3.8-50-6.3c3.3,9.5,14.6,21.7,27.3,31.4
		C282.1,207.4,287.9,203.8,288.2,203.7z"/>
	<path d="M499.7,108.8c-0.1-0.6-0.4-1.3-0.9-1.8c-21.7-19.9-27.8-50.3-27.9-50.6c-0.2-0.8-0.6-1.4-1.2-1.9l-25.4-18
		c-6.8-4.4-10.6-19.7-20.2-19.7c-2.3,0-12.3,4.7-19.6,7.8c-3.8,1.6-0.8,10.7-0.8,10.7c-11.5-1-18.7-4.7-22.4-4.7c-1.9,0-8.9,3-8.9,3
		l-4.6,2.2c0,0-4.6,2-6.9,3c-2.1-0.4-4.5-0.8-7.3-0.8c-0.9,0-2.5,0.5-4.4,1.2c-2.6,0.9-6,2.5-10.5,4.5c-4.1-0.8-7.7-1-10.8-1
		c-12.6,0-38.9,11.1-38.9,20c0,2.5,2.1,2.9,2.1,2.9c-6.5,2.3-9.3,4.2-10.5,5.3c-22.3-0.1-54.8-1.4-77.6-1.4
		c-14.8,0-29.9,6.9-41.3,14.1c-11.5,7.1-19.3,14.3-19.3,14.3c-6.5-6.5-6.7-15.5-17.9-15.5c-8.4,0-34.7,22.6-109.4,38.8
		c-5.8,2.9-11.8,5.3-14.1,7.2c-1.4,1.2-1.4,3.6,0.1,4.7c0.7,0.5,16.3,12.3,39.6,12.3c27.9,0,58-22.9,58-22.9
		c5.2,0.4,12.4,6.5,19,6.9c1.9,1.3,4.3,4.5,4.3,4.5l2.6,10.6c0,0,0.9,5.3,1.4,8.8c1.6,11,5.3,19.4,10.6,26.1
		c22.5,28.9,71.5,25.2,84.9,61.7c0.3,0.8,0.9,1.4,1.7,1.8c0,0,26.5,8.2,52.6,14c0.3,2.5,0.7,6.5,0.7,6.5c3.2,7-5.7,5.5-12.7,8.7
		c-1,0.5-1.8,1.5-1.8,2.8c0,0,2.7,13.7,13.3,21.3c2.1,1.4,7.1-1.2,18.3-3.6c0.9-0.2,1.7-0.8,2.1-1.8c1.5-3.8,5-6,8.7-8.3
		c0.5,2.5,2.9,12.5,11.3,13.5c1.4,4.5,4.4,6.4,7.9,7c6.5,1.2,15.2-2.1,20.4-1.3c3,0,9.5-2.4,16.4-3.7c1,0.1,2.1-0.4,2.8-1.3
		c3.1-4.6-0.2-7.5-1.8-12.2c-0.3-0.8-0.6-1.7-0.7-2.7c1.2-1.3,2.3-3.2,2.3-5.9c0-0.6-0.2-1.1-0.5-1.6c-9.2-15.2-31.4-20.8-26.5-40.9
		c1.8,0,5.2,0.1,8.6,0.3c0,0,2.8-0.9,6.5-0.9s12.2,1.5,17.4,1.5c5.6,0,24.1-5.1,27.3-7.5c5.2-4.1,8.3-9.6,8.3-14.6
		c0-8.6-18.7-32.6-30.7-57.9c-0.7-8.5,1.4-20.1,1.4-29.8c0,0,22.2-16.9,35.7-19.6c1.1-0.3,2.3-0.4,3.3-0.4
		c3,6.3,15.1,12.1,15.1,12.1l5.3,2c0,0,13.7,5.6,13.7,12.5c0,3.1,3,6.5,8.8,6.5c3.7,0,7.5-1.4,12.4-1.4c0,0,9.1-3.9,19.3-6.9
		C488.7,128.8,501.2,121.1,499.7,108.8z M486.6,126.5c-5.7,0-8.6,1.4-12.4,1.4s-5.8-1.9-5.8-3.5c0-18-30-12.9-35.1-29.9
		c-26.3,0-61.6,28-61.6,28c0,10.2-2.2,23.4-1.4,32.1c10.7,22.9,30.7,50.1,30.7,57.1c0,4.3-2.8,9-7.1,12.3
		c-7.3,5.7-23.5-1.9-32.6,1.7c-19-1.2-27.2,2.8-27.2,2.8c-8.7,26.4,16.3,31.6,25.8,47c0,3.3-2.5,4.7-2.5,4.7c0,7,5.9,10.4,3.1,14.2
		c-7.8-0.8-10.2,1.7-17.9,1.7c-7.5,0-8.4-7-8.4-7c-15-1.1-6.5-21.4-20.7-22.9c-1.4,12.8-16.4,12.1-20.8,22.9
		c-8.7-6.1-12-18.9-12-18.9c5.9-2.8,18.9-2.3,14.5-11.9l-0.9-8.7c-29.5-5.9-57.3-16.8-57.3-16.8c-17.4-47.2-87.1-30.1-95.4-87.2
		c-3.3-22.9-4.7-21.7-10.2-26.2c-6.6,0-14.1-7.1-20.7-7.1c-11,0-23.6,22.9-57.4,22.9c-22.6,0-37.8-11.7-37.8-11.7
		c74.7-16.2,101.6-38.7,108.8-38.7c11.5,0,10.3,15.7,21.3,18.4c19-17.4,34.4-31.1,57-31.1c37,0,76.6,2.7,96.1,0.9
		c4.9-3.6-2.4-4.1,0.6-8.3c5.8-3.6,14.3-1.2,28-4.1c0,0-5-8.1-19.6-5.2c0,0,4.1-17.6,40.8-6.6c0,0,1.2-1.2,1.2-3c0-1.9,0.4-5,3.6-5
		c6.7,0,9.7,2,15.7,2c5.1,0,7.4-2.8,7.4-2.8s-1.9-6.7,4.8-6.7c3.8,0,20,8.4,43.3,3.6c2.6-5.1-2.6-12.9-0.9-17.4
		c10.2,1.9,9.7,12.8,18.8,19.3l25.4,18c0,0,6.1,31.4,28.9,52.2C498,119.8,486.6,126.5,486.6,126.5z"/>
	<path d="M314.6,179.7c-37.5-1.7-68.4-10.4-68.4-10.4c-14.9,14.9,33.2,58.5,59.3,62.6c4.5,0.9,10.7-10,6.9-10
		c-5.8,2.4-7.7-3.7-12.9-3.7c-2.1,0-6.5,2.4-10-5.3c8.4-7.1,16.4-11.8,16.4-11.8l4.6,9.1c1.4,2.9,15.7,0.9,14.2-2.3
		C320.7,201.1,324.7,184.6,314.6,179.7z M288.2,203.7c-0.3,0.2-6.3,3.6-13.4,9.2c-12.8-9.7-24-21.9-27.3-31.4
		c12.5,2.5,30.5,5.3,50,6.3c3.4,1.7,4.6,6.3,5.2,11.1L288.2,203.7z"/>
	<path d="M350.4,183.5l-0.8,0.6l-6.1,23.5c-0.1,0.5,1.4,2.4,2.7,2.4c0,0,10-2.8,24.7-1.9c0.6,0,1-0.9,0.7-1.4l-18.2-23.1
		L350.4,183.5z"/>
</g>
</svg>
