<?xml version="1.0" encoding="utf-8"?><svg xmlns="http://www.w3.org/2000/svg" viewBox="0 0 250 161.2"><path class="st0" d="M244.9 55.1c-1.6-1.5-3.2-3.2-4.5-4.9-1.3-1.7-2.6-3.6-3.7-5.6-1.1-2-2.1-4.2-3.1-6.6-.9-2.3-1.7-4.9-2.4-7.5-.1-.3-.3-.7-.6-.9l-12.3-8.8c-.3-.2-.6-.5-1-.8-.3-.3-.6-.7-.9-1-.3-.4-.6-.8-.8-1.1-.3-.4-.6-.9-.8-1.2-.4-.6-.8-1.2-1.1-1.7-.4-.6-.9-1.1-1.3-1.6-.6-.6-1.1-1.1-1.7-1.3-.7-.4-1.4-.7-2.2-.8h-.3c-.1 0-.2 0-.3.1h-.2l-8.6 3.6c-.4.2-.8.6-.9 1 0 .1-.1.3-.1.3 0 .1 0 .2-.1.3 0 .1 0 .3-.1.4v.4c0 .3 0 .7.1 1 0 .3.1.6.2.9s.1.6.2.8c0 .1.1.2.1.3h-.2c-1.2-.2-2.4-.4-3.5-.6-1.1-.2-2.3-.5-3.4-.8-1.1-.3-2.2-.6-3.2-.9-.2 0-.4-.1-.5 0-.3 0-.6.1-.8.1l-.9.3s-.1 0-.1.1l-8 3.4c-.1 0-.1.1-.2.1l-.8-.1c-.3 0-.7-.1-1.1-.1h-1.1c-.1 0-.6-.1-.7-.1h-.3c-.1 0-.4.1-.5.1 0 0-.4.2-.5.2 0 0-.1.1-.2.1l-1 .4-4.8 2c-.8-.1-1.5-.3-2.3-.4-.9-.1-1.8-.2-3.1-.2h-1.1c-.5 0-1 .1-1.4.1-.5.1-1 .1-1.3.2-.5.1-1 .2-1.4.4-.4.1-.8.3-1.1.5l-3.4 1.5-3.9 1.7c-.6.3-1.1.6-1.7.9-.6.4-1.1.8-1.5 1.1-.5.5-.9.9-1.1 1.3-.4.6-.6 1.1-.7 1.7-.1.5.1 1 .5 1.2l.6.3-4 1.7c-.1 0-.2.1-.2.1.1 0 .1-.1.2-.1-.1 0-.1.1-.2.1-.2.1-.4.3-.5.4s-.2.2-.2.4h-4.4l-11.8-.3h-.6l-3.2-.1-2.9-.1-3.2-.1-3.2-.1h-6.7s-2.2 0-3.3.1c-1 0-1.9.1-3 .2H96c-2.1.5-4.2 1.2-6.3 2.3h-.1l-6.2 2.9c-1.4.7-2.9 1.5-4.4 2.6-1.4.9-2.9 1.9-4.4 3.2-.9.7-1.9 1.5-2.9 2.4-.3-.3-.5-.7-.8-1-.3-.5-.6-1-.9-1.4-.4-.6-.7-1.1-1.1-1.7-.5-.7-.9-1.1-1.3-1.5-.6-.6-1.1-1-1.8-1.2-.7-.3-1.3-.4-2.4-.5H62c-.2 0-.3.1-.5.2l-.6.3-5.9 2.9c-.1 0-1.8 1-1.8 1l-1.1.6c-1.1.5-2.1 1-3.2 1.4-4.2 1.9-8.6 3.6-12.9 5.2s-8.7 3-13 4.2-8.6 2.3-12.7 3.1c-.2 0-.4.1-.5.2L4 65.2c-.2-.2-.5.3-.5.8s.2 1 .6 1.2c.6.5 1.2.9 1.9 1.2.6.4 1.2.7 2 1 .6.3 1.2.6 2 .9.7.3 1.4.5 2 .8h.1c.1 0 .3.1.3.1l.6.2 1 .4c.4.1.7.3 1 .4.4.2.7.3 1 .4.1 0 .2.1.4.1.5.1 1 .2 1.4.2.5.1 1 .1 1.4.2.4 0 .9.1 1.4.1H23c1.1 0 2.1-.1 3.2-.2 1.3-.1 2.7-.3 3.9-.6 1.3-.3 2.6-.7 3.9-1.1 1.2-.4 2.6-.9 3.7-1.4l1-.5 5.4-2.4s.1 0 .1-.1l2.2-1.1c.1 0 .2-.1.3-.2.7-.4 1.2-.7 1.9-1.1.2-.2.5-.3.7-.5.5-.3 1-.6 1.4-1 .4-.3.9-.6 1.2-.9.3.1.5.2.9.3.3.1.7.3 1.1.5.4.2.8.4 1.1.6.4.2.8.4 1.2.7.5.3 1 .4 1.3.6.5.2 1 .4 1.4.5.4.1.8.1 1.1.2.7.5 1.2 1 1.7 1.6.5.7.9 1.4 1.1 2.3.3.8.5 1.7.7 2.8.2 1 .3 2 .4 3 0 .1.1.5.1.5l.1 1.2c.1.5.1 1.1.2 1.6.1.6.2 1.1.3 1.5.1.6.3 1.1.5 1.5 1 2.9 2.2 5.4 3.9 7.6 1.5 2 3.3 3.7 5.5 5.4 1.8 1.3 3.9 2.5 6.6 3.7.8.4 2.4 1.1 2.4 1.1s.3.1.5.2.3.1.3.1c1.1.5 2.8 1.1 3.8 1.6 2.2.9 4.5 1.8 6.7 2.8 2.4 1.1 4.4 2.2 6.1 3.4 2 1.4 3.7 3 5.2 4.7 1.6 1.9 2.9 4.1 3.8 6.6.1.4.4.7.8.8 1.9.9 4 1.6 6.2 2.4 1.9.7 4 1.3 6.3 1.9 1.9.5 4 1.1 6.4 1.6l6.1 1.3h.2l1.4.5.3 3.2c0 .1 0 .3.1.4.1.2.2.4.2.6s.1.3.1.5v.3c0 .1 0 .1-.1.2 0 .1-.1.2-.2.2l-.1.1c-.1.1-.2.1-.2.2 0 0-.1 0-.2.1s-.2.1-.3.2l-3.3.9h.4c-.1 0-.3 0-.4.1h-.3l-.2.1h-.2c-.1 0-.1 0-.2.1h-.5l-.1.1s-.1 0-.1.1c0 0-.1.1-.2.1s-.2.1-.3.2c-.6.3-.8 1-.7 1.6.3 1.1.6 2 1.1 3 .4 1 .9 1.8 1.4 2.7.6.9 1.1 1.6 1.7 2.3.7.7 1.3 1.3 2.1 1.9.2.1.3.2.5.2h.8l7.6-1.8h.1l.2-.1s.1 0 .1-.1c.3-.2.5-.4.6-.6.2-.5.5-1 .9-1.4.3-.4.7-.8 1.1-1.1.4-.4.9-.7 1.2-1s.8-.5 1.1-.7c0 .1.1.2.1.2 0 .1.1.2.1.2.2.7.4 1.3.6 1.9.3.8.7 1.4 1.1 2 .5.7 1.1 1.2 1.9 1.6.6.3 1.1.5 1.8.6.2.4.3.8.5 1.1.4.6.8 1.1 1.2 1.4.5.4 1.1.6 1.6.8.1 0 .2 0 .4.1.4.1.9.2 1.3.2h1.1s.6-.1 1-.1c.3-.1.7-.1 1-.2l.9-.2c.1 0 1.1-.2 1.1-.2.3-.1.6-.1.9-.1s.6-.1.9-.1h2.2l8-1.8c.5 0 1-.4 1.1-.9.1-.2.1-.3.3-.8.1-.2.1-.4.1-.5v-.5c0-.3 0-.7-.1-1s-.2-.6-.3-1c-.1-.2-.2-.5-.4-.8-.1-.3-.3-.5-.4-.7l-.3-.6-.3-.6c-.1-.2-.1-.4-.1-.6v-.1c.1-.1.2-.2.2-.3l.6-.9c.2-.3.3-.7.4-1 .1-.4.1-.7 0-1.1 0-.2-.1-.5-.2-.6-.4-.6-.8-1.1-1.2-1.7-.2-.2-.4-.4-.5-.6s-.3-.3-.4-.5l-.6-.6c-.5-.5-1.1-1-1.7-1.6l-1.5-1.3c-1.1-1.1-2.4-2-3.4-3.2-1.1-1.2-2-2.3-2.6-3.3-.7-1.2-1.1-2.5-1.1-3.8v-.3c0-1 .1-1.9.4-3h4.4c.1 0 .3 0 .4-.1l.3-.1c.3-.1.5-.1.7-.2.2 0 .5-.1.8-.1.2 0 .5 0 .8-.1h1.8c.3 0 .7.1 1 .1s.7.1 1 .1.7.1 1 .1l.9.1c.5.1.8.1 1.1.1s.7.1 1 .1h1.8c.3 0 .5 0 .8-.1.2 0 .5-.1.8-.1.3-.1.5-.1.8-.2l3.7-1.1 4.2-1.1h.2l.2-.1c.3-.1.7-.2 1-.3.4-.1.7-.3 1.1-.7 0 0 .1 0 .1-.1.1 0 .1-.1.2-.1l.1-.1.7-.8c.5-.5.9-1 1.3-1.5s.9-1.2 1.2-1.8c.4-.8.6-1.5.7-2.3.1-.9-.1-1.7-.5-2.5-.1-.3-.3-.6-.4-.9l-.9-1.8c-.1-.3-.2-.6-.4-.8-.2-.4-.4-.8-.6-1.1-.2-.3-.3-.6-.5-1-.3-.5-.5-.9-.7-1.3-.7-1.1-1.2-2.2-1.9-3.2l-2-3.2c-.7-1.1-1.3-2.1-2-3.2s-1.3-2.1-1.9-3.2c-.6-1.1-1.2-2.2-1.7-3.2-.5-1.1-1.1-2.1-1.4-3.2 0-.5-.1-1.1-.1-1.5V73c0-.6.1-1.2.1-1.8.1-.6.1-1.2.2-1.8l.2-1.9c.1-.7.1-1.3.2-2 0-.7.1-1.4.1-2.1V62c2-1.4 4-2.9 6.1-4.2 2.6-1.7 4.9-3.1 7-4.1.4-.2.7-.3 1-.5.1-.1.2-.1.3-.2.2 0 .3-.1.5-.1.9-.2 1.6-.3 2.5-.5.5-.1 1.1-.1 1.5-.2.3.7.7 1.4 1.1 2 .7.8 1.4 1.5 2.3 2.1.8.5 1.6 1 2.7 1.3.9.4 1.7.7 2.7 1 1 .3 1.9.7 2.8 1.1 1 .4 1.7.9 2.3 1.2.7.5 1.2 1.1 1.6 1.7.5.8.8 1.7.9 2.8 0 .2.1.4.2.6.2.4.5.7.8 1 .3.3.6.5 1 .7.4.2.7.3 1.1.4.3.1.7.1 1.1.1h.8s.5-.1.8-.1.6-.1.8-.1l.8-.2c.2 0 .5-.1.7-.1.3 0 .5-.1.8-.1s.5-.1.8-.1h.9c.2 0 .3 0 .5-.1l8.9-2.9h.1c.1 0 .3-.1.4-.2.6-.4 1.2-.9 1.9-1.4.8-.7 1.3-1.3 1.9-2.1.7-.9 1.1-1.8 1.4-2.8.4-1.1.5-2.3.4-3.4-3.1 1.1-3.3.8-3.4.5zm-108.7 51.4c-.7-.5-1.2-1-1.9-1.4-2.6-2.1-4.8-4.3-6.7-6.8-1-1.2-1.8-2.5-2.6-3.8-.2-.3-.3-.6-.5-.8-.2-.3-.4-.6-.5-1-.2-.5-.5-.9-.7-1.3 0-.1-.1-.2-.1-.3 2.6.6 5.3 1.1 7.8 1.4 2.8.4 5.5.8 8.3 1.1 2.6.3 5.3.5 7.8.6.5.4.9.8 1.2 1.2s.6 1.1.9 1.7c.2.6.4 1.2.5 1.9 0 .2 0 .4.1.5l-6.7 2.1c-.1 0-.2.1-.3.1-.6.3-1.2.7-1.8 1.1-.7.4-1.3.9-2 1.3-.7.5-1.3 1-2.1 1.5-.2.4-.5.6-.7.9zm-4.1 27.9c0 .1 0 .1 0 0 0 0 .1 0 0 0 .1 0 .1 0 0 0z" fill="#231F20"/><path class="st1" d="M243.8 56.1c.1 1.1 0 1.9-.3 2.9-.3.9-.7 1.6-1.2 2.4-.5.7-1.1 1.3-1.7 1.8-.6.6-1.1 1-1.7 1.3h-1c-.3 0-.6 0-.9.1-.3 0-.6.1-.8.1-.3 0-.5.1-.8.1-.3.1-.5.1-.8.2-.3 0-.5.1-.7.1s-.5.1-.7.1h-.7c-.3 0-.6 0-.8-.1-.3-.1-.5-.1-.7-.3-.2-.1-.4-.3-.6-.5-.2-.2-.4-.4-.6-.7-.2-1.3-.5-2.5-1.1-3.3-.6-1-1.2-1.6-2-2.2-.8-.6-1.7-1.1-2.7-1.4-1-.4-1.9-.8-3-1.1-.9-.3-1.8-.6-2.7-1s-1.7-.8-2.5-1.2-1.4-1.1-2-1.8c-.6-.8-1.1-1.6-1.3-2.7-2.9.2-5.6.7-8.3 1.5s-5.2 1.9-7.6 3.2-4.8 2.7-7.2 4.2c-2.3 1.5-4.6 3.2-6.8 4.7v2.2c0 .7-.1 1.3-.1 2s-.1 1.3-.2 1.9c-.1.7-.1 1.2-.2 1.9-.1.6-.1 1.2-.2 1.8-.1.7-.1 1.2-.1 1.9s-.1 1.2 0 1.9c0 .7 0 1.2.1 1.9.5 1.1 1.1 2.4 1.6 3.5.6 1.1 1.1 2.3 1.8 3.3.7 1.1 1.2 2.2 1.9 3.2s1.3 2.1 2 3.2 1.3 2.1 2 3.2 1.3 2.1 1.9 3.2c.7 1.1 1.2 2.2 1.8 3.3.6 1.1 1.1 2.2 1.5 3.3.3.7.4 1.2.4 1.8 0 .6-.2 1.1-.5 1.7-.3.6-.7 1.1-1.1 1.6-.4.5-.9 1.1-1.3 1.5l-.6.6c-.4.2-.7.4-1.1.6s-.8.3-1.1.4c-.4.1-.8.2-1.1.2s-.8.1-1.1 0h-.9s-.6-.1-1-.1c-.3 0-.7-.1-1-.1-.3 0-.7-.1-1-.1s-.7-.1-1-.1-.7-.1-1-.1-.7-.1-1-.1h-1.9s-.6 0-.9.1c-.3 0-.6.1-.9.2-.3.1-.6.1-.9.2h-5.8c-.9 0-1.7.1-2.6.2-.9.1-1.7.3-2.5.5-.9.2-1.6.5-2.4.8-.8 2.1-1.1 3.9-1 5.5.1 1.6.6 3.1 1.3 4.4.8 1.3 1.7 2.5 2.9 3.6 1.1 1.1 2.3 2.2 3.5 3.2.6.5 1.1 1 1.6 1.4s1.1 1 1.5 1.4c.5.5 1 1 1.3 1.5.4.5.9 1.1 1.1 1.5v.7c0 .2-.1.4-.2.6s-.2.4-.4.6l-.6.6v1c0 .3.1.6.2.9.1.3.2.5.3.8.1.2.2.5.4.7.1.2.3.5.4.7.1.2.2.5.3.7.1.2.2.5.2.7.1.2.1.5.1.7v.3c0 .1 0 .2-.1.3 0 .1-.1.2-.1.3 0 .1-.1.2-.1.3h-2.2c-.3 0-.7.1-1 .1s-.7.1-1 .2c-.3.1-.7.1-1 .2-.4.1-.7.1-1 .2-.3.1-.7.1-1 .2-.3 0-.7.1-1 .1h-.9c-.5 0-1-.1-1.3-.2-.4-.1-.8-.3-1.1-.6-.4-.3-.7-.6-1-1.1s-.5-1-.7-1.6c-1-.1-1.6-.3-2.3-.6-.6-.3-1.1-.8-1.4-1.2s-.7-1.1-.9-1.6c-.2-.6-.4-1.2-.6-1.9-.2-.7-.4-1.2-.6-1.9s-.5-1.2-.9-1.7c-.4-.6-.8-1-1.3-1.3-.6-.4-1.2-.6-2.1-.7-.2 1-.4 1.7-.8 2.4-.3.7-.7 1.2-1.1 1.6-.5.5-1 .9-1.4 1.2-.6.4-1.1.7-1.7 1.1-.5.3-1 .6-1.4.9s-1 .7-1.4 1.1c-.5.4-.9.9-1.2 1.3-.4.5-.8 1.1-1.1 1.7-.7-.5-1.3-1.1-1.9-1.7-.6-.7-1.1-1.3-1.6-2.1s-1-1.6-1.3-2.5-.7-1.8-1-2.8l.6-.3c.2-.1.5-.2.7-.3.3-.1.5-.2.8-.2.3-.1.6-.1.8-.2.5-.1.9-.2 1.3-.3.5-.1.9-.3 1.2-.4.4-.2.8-.4 1.1-.6s.6-.5.7-.9c.1-.2.2-.4.2-.6s.1-.4 0-.7c0-.2-.1-.5-.1-.7-.1-.3-.2-.5-.3-.8l-.4-4.2-2.4-.8c-2.1-.5-4.3-1-6.4-1.4-2.1-.5-4.3-1.1-6.4-1.6-2.1-.6-4.3-1.2-6.4-1.9s-4.2-1.5-6.2-2.4c-1.1-2.8-2.5-5.1-4.1-7.1-1.6-2-3.5-3.6-5.5-5s-4.2-2.6-6.4-3.6c-2.2-1.1-4.5-2-6.8-2.9-2.4-1-4.8-1.9-7.1-3S82 93 80 91.6c-2-1.4-3.7-3.1-5.4-5.2-1.5-2-2.8-4.5-3.7-7.4-.2-.5-.3-1-.4-1.4l-.3-1.5c-.1-.5-.2-1.1-.2-1.5-.1-.5-.1-1.1-.2-1.5-.1-1.1-.2-2.1-.4-3.2s-.4-2.1-.7-3.1c-.3-1-.8-1.9-1.3-2.7-.6-.9-1.3-1.5-2.3-2.2-.5 0-1-.1-1.4-.2-.5-.1-.9-.3-1.3-.4-.4-.2-.9-.4-1.2-.6s-.8-.4-1.2-.6c-.4-.2-.8-.4-1.1-.6l-1.2-.6c-.4-.2-.9-.3-1.2-.4-.4-.1-.9-.2-1.2-.2-.3 0-.6 0-.9.1-.3 0-.6.1-.9.2s-.6.2-1 .4c-.3.2-.7.4-1 .6-1.9 1.6-3.8 3.1-5.8 4.3-2 1.2-4.1 2.3-6.2 3.1-2.1.9-4.3 1.4-6.5 1.8-2.2.4-4.5.6-6.8.6-.5 0-1 0-1.3-.1-.5 0-1-.1-1.3-.1-.5 0-1-.1-1.4-.2-.5-.1-1-.1-1.4-.2-.3-.2-.7-.3-1.1-.4-.4-.1-.7-.3-1.1-.4-.4-.1-.7-.3-1.1-.4-.4-.1-.7-.3-1.1-.4-.7-.2-1.3-.5-2-.7-.7-.3-1.3-.5-1.9-.8-.7-.3-1.2-.6-1.9-1-.6-.4-1.2-.8-1.8-1.1 4.2-.9 8.5-1.8 12.8-3.1 4.3-1.2 8.7-2.7 13.1-4.2s8.7-3.3 13-5.3 8.5-3.9 12.7-6.1h1.2c.7 0 1.3.2 1.8.4.6.2 1 .6 1.4 1 .4.4.8.9 1.1 1.3.4.5.7 1.1 1.1 1.6.3.5.6 1 1 1.4.3.5.7 1 1.1 1.3.4.4.8.8 1.3 1.1.5.3 1.1.6 1.6.8 1.9-1.7 3.7-3.3 5.5-4.9 1.8-1.5 3.6-3.1 5.5-4.4 1.8-1.3 3.7-2.5 5.7-3.4 1.9-1 3.9-1.7 6-2.2 1.1-.1 2.2-.1 3.3-.2 1.1 0 2.2-.1 3.3-.1h6.6c1.1 0 2.1 0 3.2.1 1.1 0 2.1.1 3.2.1s2.1.1 3.2.1 2.1.1 3.2.1 2 .1 3.1.1 2 .1 3.1.1 2 .1 3.1.1 2.1 0 3.1.1h6.6c1.1 0 2.2 0 3.3-.1 1.1 0 2.2-.1 3.3-.2l1-1-.1-.6c-.1-.1-.2-.1-.3-.2l-.3-.3c-.1-.1-.1-.2-.2-.4-.1-.1-.1-.2-.1-.4v-.4c0-.1 0-.2.1-.3 0-.1.1-.2.1-.3.1-.1.1-.2.2-.3.6-.3 1.1-.5 1.7-.6.6-.2 1.1-.3 1.8-.4.7-.1 1.2-.1 1.9-.2.7 0 1.3-.1 2-.1.5 0 1.1-.1 1.5-.1.5 0 1.1-.1 1.5-.1.5-.1 1.1-.1 1.5-.2.5-.1 1.1-.2 1.5-.3-.4-.5-.8-1-1.2-1.3-.5-.4-1.1-.7-1.6-.9-.6-.2-1.1-.4-1.7-.5-.6-.1-1.2-.2-1.8-.2h-.8s-.5 0-.8.1c-.3 0-.5.1-.8.1s-.5.1-.8.2c0-.4.2-.8.5-1.2.3-.4.7-.9 1.1-1.2s1-.8 1.5-1.1c.6-.3 1.1-.6 1.7-.8l1.2-.3c.4-.1.9-.2 1.2-.2.4-.1.9-.1 1.2-.1h1.2c.9 0 1.7.1 2.6.2.9.1 1.7.3 2.6.4.9.2 1.6.4 2.5.6.8.2 1.6.4 2.3.6l.6-1c0-.3.1-.5.1-.8 0-.3.1-.6.2-.8.1-.3.2-.5.3-.7.1-.2.3-.4.4-.5.1 0 .1-.1.2-.1s.1-.1.2-.1h2.3c.3 0 .7.1 1 .1s.6.1.9.1.6.1.8.2c.3.1.6.1.9.2.3.1.6.1.9.1s.6.1.9.1h.9c.4 0 .7 0 1.1-.1.3 0 .7-.1 1-.2.3-.1.7-.3 1-.4.3-.2.6-.4.9-.7 0-.3-.1-.5-.1-.8v-.6s0-.3.1-.5c0-.1.1-.3.2-.4.1-.2.3-.4.4-.5.2-.1.4-.3.6-.4.2-.1.4-.2.6-.2.2-.1.4-.1.6-.1l3.3.9c1.1.3 2.3.6 3.5.8 1.2.3 2.4.5 3.6.6 1.2.2 2.5.3 3.7.3h1.7s1.1-.1 1.7-.1c.6-.1 1.1-.1 1.7-.3.6-.1 1.1-.2 1.6-.4.2-.4.3-.9.4-1.2s.1-.8 0-1.1c0-.4-.1-.7-.2-1.1-.1-.4-.2-.7-.3-1s-.1-.5-.2-.8-.1-.5-.2-.8-.1-.5-.1-.8v-1.4c0-.1 0-.2.1-.3 0-.1 0-.2.1-.3.7.1 1.2.3 1.7.6s1 .7 1.3 1.1c.4.5.8 1 1.1 1.4.4.6.7 1.1 1.1 1.6.3.5.6.9.9 1.2.3.5.6.9.9 1.2.3.4.7.8 1 1.1.4.4.8.7 1.1 1 .1.1 1 .7 2 1.4 1.1.8 2.5 1.8 3.9 2.8 1.4 1.1 2.9 2 4 2.9 1.1.9 2 1.4 2.3 1.6.7 2.7 1.5 5.3 2.4 7.6 1 2.4 1.9 4.7 3.2 6.8 1.1 2.1 2.5 4 3.8 5.8 2.3 2.6 3.9 4.3 5.5 5.8zm-83.3 48.3l.1-.5c-.2-.4-.4-.8-.5-1.2-.1-.4-.2-.9-.3-1.2-.1-.5-.1-.9-.2-1.3-.1-.5-.1-1-.2-1.4-.1-.8-.2-1.5-.3-2.3s-.3-1.5-.5-2.2c-.3-.7-.6-1.4-1.1-2.1-.5-.7-1.1-1.2-1.7-1.8l-.2-.1c-2.8-.1-5.5-.3-8.3-.6-2.8-.3-5.5-.6-8.3-1.1-2.8-.4-5.5-1-8.3-1.5-2.8-.6-5.5-1.2-8.3-1.9l-.4.1c-.4.4-.7.8-.9 1.2-.2.5-.2 1.1-.2 1.5 0 .5.1 1.1.2 1.5.1.5.2.9.3 1.1 1.2 3.1 3 5.8 5 8.4 2 2.6 4.4 4.9 6.9 7 2.5 2.1 5.2 3.8 7.9 5.4 2.7 1.4 5.4 2.7 8 3.5.2.1.3.2.5.3.2.1.3.1.5.2.2 0 .3.1.5.1h1.2s.2-.1.3-.1.2-.1.3-.1l.9-.6c.3-.3.5-.6.8-.9.2-.4.4-.8.6-1.1.2-.5.3-1 .4-1.4l-.2-.4-.4-.1c-.1.1-.2.1-.4.1-.1 0-.2.1-.3.1h-.6c-.2 0-.4 0-.7-.1-.2-.1-.4-.1-.6-.2l-.6-.3c-.2-.1-.4-.3-.6-.4s-.4-.3-.6-.4-.4-.2-.6-.4c-.2-.1-.5-.2-.7-.3-.2-.1-.5-.1-.8-.1h-.6s-.2 0-.3.1c-.1 0-.2.1-.3.1-.2 0-.5 0-.7-.1s-.5-.1-.7-.2-.5-.2-.7-.4c-.2-.2-.4-.3-.7-.5l-.4-.4s-.2-.3-.3-.4-.1-.3-.2-.4c-.1-.1-.1-.3-.1-.4.8-.6 1.4-1.2 2.2-1.7.7-.6 1.4-1.1 2-1.5.7-.5 1.3-1 1.9-1.3.7-.4 1.2-.8 1.8-1.1.1.2.3.5.5 1l.7 1.4c.3.5.5 1 .7 1.3.2.4.3.7.4.7l.2.2c.2.1.4.1.7.2.2.1.5.1.7.2.2 0 .5.1.7.1h.7c.4 0 .8 0 1.1-.1.4-.1.8-.1 1.1-.2.4-.1.7-.3 1-.4.5-.1.7-.3 1-.6m22.6-1l-8.8-11.1-.3-.1h-1.1l-.4.3-3 11.5.1.4.8.7.4.1c.8-.2 1.5-.4 2.3-.5.8-.1 1.6-.3 2.4-.4.9-.1 1.7-.2 2.6-.2h4.8l.4-.2v-.5" fill="#FFF"/></svg>