<?xml version="1.0" encoding="utf-8"?><svg xmlns="http://www.w3.org/2000/svg" viewBox="0 0 200 200"><path class="st0" d="M166.1 57.9l-.5 12.8c-34.4 15.6-76.7 10.4-98.7-2.8-14-6.8-43-32.4-29.6-67.7.2 19 14.5 41.8 25.3 49.7-1.9-10.6 1-27.5 4.8-34.8.8 16.5 6.9 37.2 26.7 48.2-3-8.1-2.3-23.5 1.5-30.6.5 22.3 17.5 35.4 37.4 35.1 11.3 0 22.1-4.9 33.1-9.9zM40.4 85.7l1.9 7.1c.2.7 4.3 15.3 22.7 19.2l-9.9 15.7c-7.8 12.5-7.5 28.3.8 40.3 7.5 10.9 20.3 20.6 37.8 29l-3.9-9.2c-1.9-4.5-5-8.4-9-11.2-6.8-4.7-12-9.8-15.7-15-5.7-8.3-6-19.2-.5-27.9l22.8-36.3c-.2-.1-.4-.3-.6-.4-1.9-1.2-4.4-2.2-4.4-2.2 1.5-.1 2.9-.2 4.4-.3 13-.5 24.8 2.3 30.5 2.5h35.6c0 .2-.3 5.5-.8 6.9-.1.2-.2.4-.4.5-12.2 6.5-22.3 11.7-30.6 15.8-11.6 5.7-21.5 13.4-27.3 22.9-6.4 10.5-7.8 22.2-4.4 33.9 1.4 5 7 18 10 22.8l31.7-32.2c4.8-4.8 6.5-11.9 4.7-18.4l-5.9-20.4c9.7-4.6 21.3-10.9 27.8-14.6 6-3.4 6.4-10.8 6.6-15.8.2-5.5.6-12.5.6-12.5H40.4zm31.2 15.8c-5.3-.4-9.6-1.9-13-4.5h15.8l-2.8 4.5zm51.4 58l-20.3 20.6c-1.1-2.7-2-5.2-2.2-5.8-3.8-12-.8-29.2 19-40.7l5.4 18.5c.8 2.7 0 5.5-1.9 7.4z" fill="#FFB71B"/><path class="st0" d="M121 107.9h-15.2c-2.1 0-3.4-2.4-2.4-4.2l.4-.8h-4.6l3.2-2.7c.6-.5 1.5-.6 2.1-.2l16.5 7.9zm-12.6 89.4h-.9v-.3h2.1v.3h-.9v2.4h-.4v-2.4zm3.9 1.3v-1.3c-.1.4-.6 1.6-.9 2.5h-.3c-.2-.7-.7-2-.8-2.5v2.5h-.3V197h.5c.3.8.7 1.9.8 2.3.1-.3.5-1.5.8-2.3h.5v2.7h-.4v-1.1z" fill="#FFB71B"/></svg>