<?xml version="1.0" encoding="utf-8"?>
<!-- Generator: Adobe Illustrator 21.1.0, SVG Export Plug-In . SVG Version: 6.00 Build 0)  -->
<!DOCTYPE svg PUBLIC "-//W3C//DTD SVG 1.1//EN" "http://www.w3.org/Graphics/SVG/1.1/DTD/svg11.dtd">
<svg version="1.1" id="Layer_1" xmlns="http://www.w3.org/2000/svg" xmlns:xlink="http://www.w3.org/1999/xlink" x="0px" y="0px"
	 width="509.5px" height="414.3px" viewBox="0 0 509.5 414.3" style="enable-background:new 0 0 509.5 414.3;" xml:space="preserve"
	>
<style type="text/css">
	.st0{fill:#FFFFFF;}
	.st1{fill:#FFB819;}
	.st2{fill:#A93439;}
</style>
<g>
	<path class="st0" d="M138.1,414.3c-4.4,0-8.5-2.2-10.6-5.9c-0.8-1.4-1.4-2.9-1.6-4.4c-4.4-0.6-8.2-3.5-9.8-7.5
		c-1.5-3.8-1.1-7.8,0.8-11c-0.7-2.2-0.8-3.9-0.8-4.7c0-3.8,1.6-7.4,4.5-9.8c0,0,0.1-0.1,0.1-0.1c4-3.8,6.2-8.9,6.2-14.4
		c0-8.2,0.9-15.9,2.8-23.2c-0.7-0.7-1.3-1.4-2-2.1c-9.8,9.3-16.4,17.2-18.4,19.6c0,0,0,0,0,0.1c-1.2,1.6-2.7,2.8-4.6,3.7
		c-5.5,2.6-11.4,3.8-17.5,3.8c0,0,0,0,0,0c-1.5,7.9-2.5,16.7-3.6,30.3c-0.2,2.9-1.5,5.7-3.6,7.8c-3.4,3.4-8,6-13.3,7.6
		c-2.3,2.6-6,5.7-11.4,7.7c0,0-0.1,0-0.1,0c-1.5,0.5-2.9,0.8-4.3,0.8c-1.9,0-3.7-0.4-5.4-1.2c-2.3,0.8-4.9,1.4-7.6,1.5
		c-0.1,0-0.2,0-0.3,0h-0.5c-4.5,0-8.7-2.4-10.9-6.1c-1.3,0.2-2.7,0.3-4,0.3c-0.4,0-0.9,0-1.3-0.1c-0.2,0-0.3,0-0.5,0
		c-0.1,0-0.1,0-0.2,0c-4.9-0.2-9.4-3.4-11-8.1c-1.1-3-1-6.2,0.3-9c-0.5-0.2-1.1-0.4-1.7-0.6c0,0-0.1,0-0.1-0.1
		c-5-2.1-8.1-7-7.8-12.2c0.3-4.4,2.7-8.2,6.5-10.1c0-2.1,0.3-4.2,0.7-6.4c0.5-2.5,1.8-4.9,3.9-6.8c0,0,0.1-0.1,0.1-0.1
		c12.4-10.7,14.4-22.6,16.6-36.4l0-0.2c1.6-10.2,3.4-21.7,10.7-31.4c0.1-0.1,0.2-0.2,0.3-0.4c-18.2-5.4-30-21.2-30-41.9
		c0-22,12.1-39.7,35.1-51.5c11.4-5.8,23.6-9.2,33-11.1c4-47.3,25-91.6,59.4-125C173.4,19.7,222.2,0,273.7,0h0.2
		c52.8,0,102.4,20.6,139.8,58c37.4,37.4,58,87.1,57.9,139.8c0,15.9-2,32.1-5.9,47.9c5.1,4.3,10.7,8,16.9,11.4
		c1.9,0.5,6.9,2.2,12.2,5.7c9.8,6.7,15,16.5,14.7,27.7c0,12.6-6.7,20-10.4,23c-6,9.6-13.4,11.1-17.3,11.1c-0.3,0-0.6,0-1.1,0
		c-4.4,2.7-8.8,3.3-11.8,3.3c-1.6,0-3.4-0.2-5.2-0.6c-0.9-0.2-1.8-0.4-2.7-0.8c-2.4,0.8-4.8,1.2-7.3,1.2c-1.9,0-4-0.3-6.3-0.8
		c-0.1,0-0.1,0-0.2-0.1c-2.4-0.7-4.4-1.9-6-3.6c-2.6,0.9-5.3,1.3-8,1.3c-1.1,0-2.5,0-4-0.3c-0.9-0.2-1.8-0.4-2.6-0.8
		c-18,21.8-40.8,39.8-66.1,52.1c-26.8,13.1-56.8,20-86.7,20c-30.3,0-60.3-7-87.3-20.3c-0.7,6.1-1.5,10.5-1.7,11.1
		c-0.5,2.9-2,5.4-4.2,7.2c-0.1,0.1-0.3,0.3-0.5,0.4c-1.6,3.3-3.8,6.3-6.4,8.9c-2.2,2.2-5,3.4-8.1,3.5c-2.2,2.1-4.9,3.9-7.9,5.4
		c-1.8,1-3.8,1.5-5.8,1.5c-1.9,0-3.7-0.4-5.3-1.2c-2.4,1.1-4.8,1.8-7.3,2c-0.1,0-0.2,0-0.4,0H138.1z"/>
	<path class="st0" d="M492,267c-4.6-3.1-9.2-4.7-11.2-5.2c-7.8-4.1-14.6-8.8-20.7-14.3c4.3-16.4,6.5-33.1,6.5-49.7
		C466.7,91.5,380.2,5,273.9,5h-0.2c-50.3,0-97.8,19.3-133.9,54.2c-34.5,33.5-55.1,77.9-58.2,125.6c-9.4,1.7-22.9,5-35.4,11.4
		c-21.2,10.8-32.4,27.1-32.4,47c0,22.6,15.7,38.5,38.3,38.9c-0.1,0.8-0.3,1.7-0.3,2.5c-1.1,0.3-2.5,0.6-4.4,0.9s-3.7,1.3-4.8,2.9
		c-6.5,8.7-8.2,19.2-9.8,29.3c-2.3,14.2-4.4,27.6-18.3,39.6c-1.2,1.1-2.1,2.5-2.4,4.1c-0.6,2.9-0.8,5.8-0.5,8.6
		c-0.5,0.3-1,0.5-1.2,0.6c-3.1,0.8-5.2,3.4-5.4,6.6c-0.2,3.2,1.8,6.1,4.7,7.3c2.1,0.8,4.1,1.4,6.1,1.6c0.2,0.7,0.5,1.5,0.9,2.3
		c-0.4,0.5-0.7,0.9-0.8,1c-2.2,2-2.9,5-1.9,7.7c1,2.8,3.6,4.7,6.5,4.8c0.6,0,1.2,0.1,1.8,0.1c2.6,0,5.1-0.4,7.4-1.2
		c0,0.8,0.2,1.7,0.5,2.5c1.1,2.8,4,4.5,7,4.5c0.2,0,0.3,0,0.5,0c3.1-0.2,5.9-0.9,8.4-2.2c1.3,1.2,3.1,1.9,4.9,1.9
		c0.9,0,1.8-0.2,2.7-0.5c4.9-1.8,8.2-4.7,10.3-7.4c5.2-1.3,9.5-3.6,12.6-6.7c1.2-1.2,2-2.9,2.1-4.6c1.3-16.1,2.5-25.6,4.5-35.1
		c1.3,0.1,2.6,0.2,4.1,0.2c5.2,0,10.4-1.1,15.4-3.4c1.1-0.5,2-1.2,2.7-2.2c0.1-0.1,8.7-11,22.7-23.7c2.3,2.7,4.8,5.3,7.2,7.9
		c-1.7,5.9-3.3,14.1-3.3,24.6c0,11.6-7.8,17.9-8,18.2c-1.9,1.5-2.9,3.7-2.9,6.1c0,0.8,0.2,2.9,1.5,5.5c-0.1,0.1-0.2,0.2-0.2,0.3
		c-2.3,2-2.8,5.1-1.7,8c1.1,2.8,4,4.5,7,4.5c0.1,0,0.2,0,0.2,0c0.9,0,1.8-0.1,2.8-0.3c0.1,0.2,0.3,0.3,0.5,0.5
		c-0.9,2.1-0.6,4.4,0.6,6.5c1.3,2.2,3.8,3.4,6.3,3.4c0.2,0,0.5,0,0.7,0c2.8-0.2,5.4-1.2,7.9-2.9l0,0c1.4,1.4,3.2,2.1,5.1,2.1
		c1.2,0,2.4-0.3,3.5-0.9c3.8-1.9,6.4-4.1,8.2-6.1c0.5,0.1,1,0.1,1.5,0.1c1.9,0,3.7-0.7,5.1-2.1c2.5-2.4,4.5-5.3,5.9-8.6
		c0.8-0.5,1.1-0.8,1.2-0.9c1.4-1.1,2.3-2.7,2.6-4.4c0.1-0.5,1.6-8.4,2.3-18c28.1,15.2,59.5,23.1,91.6,23.1
		c59.5,0,115.2-27.4,151.7-73.8c1.2,1.3,2.8,2.2,4.6,2.5c1,0.2,2.1,0.2,3.1,0.2c3.5,0,6.9-0.9,10-2.6c0.7,2.5,2.9,4.4,5.4,5.1
		c1.7,0.4,3.5,0.7,5.2,0.7c2.7,0,5.3-0.6,7.7-1.7c0.9,0.7,2,1.2,3.2,1.4c1.4,0.3,2.9,0.5,4.3,0.5c2.9,0,6.8-0.7,10.6-3.5
		c0.2,0,0.4,0.1,0.6,0.1c0.6,0.1,1.2,0.1,1.7,0.1l0,0c3.7,0,9-1.7,13.5-9.4c4.1-3.2,9.2-9.8,9.2-19.8
		C504.8,280.9,500.4,272.7,492,267z"/>
	<path class="st0" d="M490.1,305.1c-1.6,3.2-4.7,7.6-8.6,7.1c0,0,0.6-1.1,1.2-2.7c-0.4,0.3-1,0.6-1.3,0.7c0,0-1.5,1.1-4.2,1.7
		c-1.8,2.1-5.3,4.4-10.8,3.2c0,0,2.1-1.4,3.1-4c-1-0.4-2-1-3-1.5c0,0-1.5,1-3.8,1.3c-1.5,2-5.3,5.7-12,3.9c0,0,2.5-2.4,3.2-6.4
		c-0.9-0.6-1.6-1.3-2.4-2.2c0,0-2.9,0.7-6.9,0.7c-2.2,2.3-6.9,5.9-13.2,5.1c0,0,3-2.6,3.8-6.3c-2.7-0.9-5.3-2.1-7.4-4.3
		c-33.3,49.5-89.7,81.9-153.9,81.9c-36.2,0-70.1-10.5-98.6-28.4c0.5,13.5-2.5,29.2-2.5,29.2c-0.4,0.4-2.6,1.7-2.6,1.7
		c-0.9,2.5-2.3,5.5-5.1,8.2c0,0,0.2-2.1-0.3-4.4l-2.4,3.9l-2.8,0.8c-1.1,1.9-3.3,4.5-7.5,6.5c0,0,1.1-2.8,1-5.9l-3.7,2.8
		c-1.6,0-3.6-0.2-3.6-0.2c-1.6,1.8-4.3,3.9-7.5,4.2c0,0,1.2-2.2,1.4-5.5c-2.4-1-3.6-2.6-3.6-2.6l-0.2-4.8l-0.3-0.2
		c-1.8,1.5-4.5,3-7.7,3.1c0,0,2.4-2.6,3-6.6c-2.2-2.2-2.2-4.6-2.2-4.6s10.9-8.3,10.9-24c0-12.6,2.6-21.6,4.4-26.6
		c-5.3-5.2-10.1-10.6-14.8-16.4c-18.1,15.4-29.2,29.7-29.2,29.7c-12.1,5.6-21.9,1-21.9,1c-3.3,13.3-4.7,23.7-6.4,43.4
		c-3.3,3.2-8,4.7-11.8,5.4c-1.1,2.1-3.4,5.3-8.4,7.1c0,0,1.3-1.9,1.5-4.5c-2.3,1.1-4.6,1.3-6.8,1.1c-1.5,1.6-4.2,3.5-8.7,3.8
		c0,0,2-1.9,3-5.6l-2.8-1.6l-0.9,1c-2.7-0.1-4.8-0.7-6.6-1.5c-1.9,1.1-4.8,2.2-9.1,2c0,0,2.3-2.1,4.1-6.3c-2.1-2.9-2.8-5.7-2.8-5.7
		l1.4-1.4l-2.1-3c-1.9,0.8-5.1,1.1-9.4-0.6c0,0,4.6-1.2,7.1-5.2c-0.7-2.8-0.9-5.9-0.1-9.7c26.9-23,15.8-52,29.2-70
		c8.8-1.2,11-3.8,11-3.8c-1.6-6.9,3.8-15.6,3.8-15.6s-5.4,1.3-10.2,1.3c-19.3,0-31.8-13.2-31.8-31.5c0-40.5,53.1-50.2,67.5-52.1
		c3.5-99.5,85.1-179,185.3-179c102.4,0,185.4,83,185.4,185.4c0,18.1-2.7,35.5-7.5,52c6.6,6.6,14.9,13.1,26.3,18.9
		c0,0,19.4,4.6,19.4,21.7C497.6,300.9,490.1,305.1,490.1,305.1z"/>
	<path class="st1" d="M238.9,148.6c-3.7-0.6-9.2-1.4-14.8-1.7l-4.3-0.2l2.5-3.6c1-1.4,2-2.9,3-4.3l1.7-2.4l1.5,0.2
		c4.8,0.8,10.3,1.7,15.6,3.1l4.5,1.2l-3.5,3c-1.5,1.3-2.9,2.6-4,3.8l-0.9,0.9H238.9z"/>
	<path class="st1" d="M243.5,142.1c-5.4-1.4-11.2-2.4-15.4-3.1c-1.2,1.7-2.6,3.5-3.8,5.4c5.1,0.3,10.1,1,15,1.7
		C240.7,144.7,242.1,143.4,243.5,142.1z"/>
	<path class="st1" d="M319.8,147.7c-0.5-1.4-1-2.6-1.8-3.6l-2.2-2.9l3.5-1c5.9-1.7,12.7-2.8,17.3-3.5l1.4-0.2l0.9,1.1
		c1.4,1.8,2.9,4,3.9,5.5l2.4,3.6l-4.3,0.3c-5.6,0.3-11.8,1.1-18.5,2.3l-2,0.3L319.8,147.7z"/>
	<path class="st1" d="M320,142.6c1,1.2,1.5,2.7,2.1,4.2c6-1.1,12.4-1.9,18.7-2.3c-1.2-1.8-2.6-3.7-3.8-5.4
		C332.4,139.8,325.7,141,320,142.6z"/>
	<path class="st1" d="M315.9,141.7c-0.9-0.9-2-1.7-3.1-2.5l-3.9-3l4.7-1.4c3.8-1.1,6.7-3.1,7.5-4.6l0.7-1.3l1.2,0.1
		c-3.1-3.5-8.4-6.6-10.6-7.4c-0.6-0.2-1.6-0.5-3.5-0.5c-7.7,0-16.8,3.7-19.3,6l11,7.9H265l11-7.9c-2.3-2.3-11.6-6.1-19.5-6.1
		c-1.9,0-2.9,0.3-3.4,0.5c-2,0.8-7.4,3.8-10.6,7.4h1.1l0.7,1.3c0.7,1.4,3.5,3.3,7.3,4.5l5.2,1.5l-4.5,2.9c-1.3,0.9-2.7,1.7-4.1,2.7
		l-0.9,0.6l-1-0.2c-5.7-1.2-11.5-1.9-17.2-1.9h-4.7l2.7-3.8c1.2-1.7,2.2-3.1,2.9-4.1c-5.9-8.6-12.5-12.5-12.6-12.5l1.5-4.6
		c6.6,0.6,13.6,3.6,17.2,5.3l1.1,0.5l0.2,1.3c5.9-5.1,12.3-8.3,12.6-8.5l0.2-0.1l0.2-0.1c2.3-0.7,5.1-1.1,8.1-1.1
		c9.9,0,20.8,3.9,24.1,5.1c3.2-1.2,14.1-5.1,24-5.1c3,0,5.8,0.4,8.1,1.1h0.1h0.1c0.3,0.1,7.1,3.1,13,8.5c4-2.1,14.7-7.3,21.7-7.9
		l1.4,4.6c-8.9,4.7-14,10.9-15.8,13.5c0.7,1,1.8,2.4,2.9,4.1l2.7,3.8h-4.7c-5.4,0-11.2,0.7-18.1,2.1l-1.3,0.3L315.9,141.7z"/>
	<path class="st1" d="M91.9,246.5c0-0.7-0.4-2.7-2.7-4.8l-2.4-2.2l2.8-1.7c3.8-2.2,8.1-5,13.5-8.8l1.7-1.2l1.4,1.4
		c0.9,0.9,2.1,2.4,2.2,4.8l0.1,1l-0.7,0.8c-4.7,5.5-8.7,9.5-12,12.4l-3.8,3.3L91.9,246.5z"/>
	<path class="st1" d="M76.2,258.3c-0.1-2-0.9-5.1-3.5-8.1l-2.2-2.5l3-1.3c1.6-0.7,3.2-1.4,4.8-2.3l1.5-0.8l1.3,1.2
		c2.2,1.9,4.8,5.3,5,10.4l0.1,1.4l-2.4,1.5c-1.3,0.8-2.6,1.6-3.7,2.4l-3.5,2.4L76.2,258.3z"/>
	<path class="st1" d="M67.2,215.5c-2.5-6.3-1.4-12.4-0.6-15.5l0.4-1.3l1.3-0.4c4.7-1.3,9-2.3,13.3-3.1l8.4-1.5l-3.7,3.4
		c0.2,0,0.4,0,0.6-0.1l5.2-0.5l-2.9,4.3c-1.1,1.7-3.7,6.1-2.4,10.4l0.8,2.9l-3,0.2c-5.1,0.4-10,1.3-14.4,2.7l-2.2,0.7L67.2,215.5z"
		/>
	<path class="st1" d="M44.5,235.6c-6.8-1.5-10.9-6.6-12.6-10.9l-0.5-1.2l0.7-1.1c2-2.9,4.5-5.7,7.3-8.3l2.1-2l1.6,2.4
		c0.7,1.1,1.4,1.9,2.1,2.5c-0.4-1.7-0.7-3.7-0.7-6v-1.2l1-0.7c2.7-2,6-3.9,10-5.8l4.5-2.1l-1,4.8c-0.8,3.7,0.3,7.5,3.2,11l1.9,2.3
		l-2.6,1.4c-10.9,6.1-14.4,13.4-14.4,13.5l-0.8,1.8L44.5,235.6z"/>
	<path class="st1" d="M33.1,256c-1.2,0-2.4-0.1-3.7-0.3l-1.3-0.2l-0.6-1.2c-0.2-0.4-4.3-9.4-1.4-19.7l1.4-4.9l3,4.2
		c3.5,4.8,8,5.9,11.1,5.9c0.1,0,0.3,0,0.4,0l2.7-0.1l-0.2,2.7c-0.2,2.5,0.3,4.4,1.4,5.7l1.4,1.8l-1.7,1.6
		C42.4,254.5,38.2,256,33.1,256L33.1,256z"/>
	<path class="st1" d="M51.5,269.5c-9.5,0-15.2-4.7-15.4-4.9l-3.2-2.7l3.9-1.5c6.9-2.6,10-6.4,11.2-8.4l0.9-1.5l1.7,0.4
		c1.1,0.2,2.4,0.4,3.8,0.4c3.4,0,7.3-0.7,11.7-2.1l1.5-0.5l1.1,1.2c3.5,3.9,4.9,8.8,4,13.8l-0.2,1.3l-1.3,0.5
		c-3.1,1.2-6.3,2.2-9.7,2.9l-3.1,0.6l0.2-3.2c0-0.8,0-1.5-0.2-2.1c-0.7,1.4-1.6,2.9-2.7,4.6l-0.7,1l-1.2,0.1
		C53,269.4,52.2,269.5,51.5,269.5z"/>
	<path class="st1" d="M233.8,115.8c0,0-4-1.3-8.8-2.5l-6.5-1.6l6.1-2.9c6-2.9,21.9-9.7,40.3-9.7c6.5,0,12.5,0.9,18,2.6l-1-3.3
		l4.6,1.7c0.3,0.1,8,2.9,12.1,7.7l2.8,3.2l-4.2,0.8c-3.2,0.6-6.3,1.4-8.7,2l-1.6,0.4l-0.9-0.6c-3-2.1-7.8-3.3-12.3-3.8l2.9,4.2
		l-6.5-1.8c-5.5-1.5-10-2.3-14-2.3c-7,0-12.7,2.2-20.2,5.9l-0.9,0.5L233.8,115.8z"/>
	<path class="st1" d="M58.1,378.3c-18.2,0-28.3-11.4-31-14.9l-1.2-1.6l1.4-1.5c7.8-8.5,11.9-20.1,13.7-26.3l1.1-4l2.9,2.9
		c1.8,1.8,4.1,2.8,6.9,3c-2.9-2.2-6.3-5.4-8.7-9.6l-0.5-0.8l0.2-0.9c0.3-1.2,0.5-2.4,0.7-3.6l0.2-1.1l1.2-6.2l3.3,5.4
		c0.3,0.5,0.7,1.1,1.3,1.7c-1.5-2.7-2.8-5.9-3.5-9.3l-0.1-0.6l0.2-0.6c2.5-8.3,5.3-13,5.4-13.2l1.2-2.1l2,1.1c0.1,0,0.2,0,0.3,0
		c1.8,0,5.6-1.1,8.4-2.1c-0.7-7.7,1.2-14.9,5.7-21.3l0.7-0.9l1.1-0.1c0.7-0.1,1.3-0.1,2-0.1c6,0,10.5,2.4,13.8,5.1
		c-2-4.5-5.9-7.2-8.7-8.6l-3.3-1.7l2.8-2.4c3.1-2.6,7.7-5.6,10.8-7.6c1.2-0.8,2.4-1.6,2.7-1.8l2.5-2l1.3,2.9
		c2.1,4.9,6.3,8.4,10.3,11.7c1.6,1.4,3.3,2.8,4.8,4.3c-0.9-1.9-2.1-3.8-3.3-5.8c-2.9-4.8-6.2-10.2-7.1-16.5l-0.2-1.3l0.9-0.9
		c5.6-5,11.2-11.3,17.4-19l2.6-3.3l1.6,3.9c2.6,6.4,6.1,11.9,10.6,16.2c-2.9-5.8-6.1-14-8.1-24.2l-0.2-1l0.6-0.9
		c2.2-3,4.3-6.1,6.4-9.1l3-4.3l1.4,5c0.6,2.3,1.9,5.2,4.3,7.9c-1.4-4.8-2.7-11.2-2.4-17.5v-0.6l0.3-0.5c2.3-3.6,5.2-8.3,7.6-12.4
		l4.5,1.5c0,0.1,0,0.2,0,0.3c1.1-5.4,2.6-11.3,4.7-16.8l0.1-0.3l0.2-0.3c7.1-9.8,14.5-18.9,22.1-27l1-1l1.4,0.3
		c5.9,1.4,10.5,4.5,13.5,9c-0.1-4-1.7-8.8-7.5-12.4l-2.6-1.7l2.3-2.2c1.9-1.8,3.9-3.7,5.8-5.3l1.1-0.9l1.3,0.5
		c1.3,0.4,2.5,1,3.6,1.5c-0.4-0.6-0.8-1.3-1.3-2l-1.4-1.9l1.8-1.5c2.9-2.4,5.5-4.4,8.2-6.3l3.4-2.5l0.4,4.2c0.8,8.5,3.9,16.3,7.7,20
		l1.7,1.6l1.1,0.1l-0.5,0.5l2,1.9l-4,0.1l-1.2,1.3c-1.1,1.2-3.9,4-6,7.3c1.9-0.2,4.2-0.3,6.2-0.3c0.8,0,1.5,0,2.1,0.1l4.4,0.3
		l-2.6,3.6c0,0-2.3,3.3-5,8.9l-0.6,1.3l-1.4,0.1c-2.1,0.1-5,0.6-8.8,1.8c2.2,0.1,4.3,0.5,6.1,1.1l2.5,0.8l-0.9,2.4
		c-3.8,10.3-5.8,20.9-6.1,31.6c2.6-1.6,6.3-3.6,10.7-5.4l2.8-1.2l0.5,3c0.1,0.3,1.5,8.1,1.7,13.6l0.1,2.7l-2.7-0.2
		c-1.2-0.1-2.5-0.1-3.8-0.1c-6.8,0-17.6,1.4-25.6,9c5-2.5,11.3-4.7,17.9-4.7c4.4,0,8.5,1,12.2,3l1.6,0.8l-0.3,1.8
		c-0.5,2.7-1.1,5.1-1.9,7.2c0.8,1.4,2.5,4.1,4.5,7.6l1.5,2.7l-2.9,0.9c-3.7,1.1-9.2,3.6-13.2,8.8c4.1-2.8,9.3-5.2,15.2-5.2
		c0.8,0,1.6,0,2.4,0.1l1.3,0.1l0.6,1.1c4.2,7.6,9.7,18.1,11.8,24.7l0.2,0.8c2.3-0.9,4.2-1.4,4.3-1.4l0.4-0.1h0.4c0.7,0,1.4,0,2,0
		c11.3,0,18.8-4,21-5.5l0.4-6.3l4.8,7.2l-0.3,0.9c-1.8,24.1-33.5,35.4-34.9,35.8l-0.3,0.1h-0.3c-0.1,0-0.8,0.1-2,0.1
		c-4.4,0-14.7-1-18.6-9.7l-2-1c-1.4-0.7-4.8-2.4-9.4-5.1l-1.1-0.6l-0.1-1.2c-0.5-5.2,0.4-9.4,1.8-12.6c-2.3,1.9-4,4.5-5.3,7.8
		l-1,2.6l-2.5-1.3c-8.5-4.6-15.5-14.4-15.7-14.8l-0.5-0.7v-0.8c0.3-10.5,4.4-17.7,8.5-22.1c-7.6,3.3-11.3,10.8-12.5,13.5l-1.6,3.8
		l-2.6-3.2c-2.7-3.3-4-6.9-5.4-10.4c-1.3-3.5-2.6-6.8-5.2-9.8l-0.8-1l0.3-1.3c2.4-9,6.3-15.4,10.4-19.8c-5.4,4.1-9.3,9.6-11.2,12.7
		l-4.5-1.7l0.1-0.6c0.4-2.3,0.8-5.2,1.5-8.4l0.1-0.4l0.2-0.4c9.4-15.3,21.1-23.2,29.4-27.2c-8.7,1.8-17.8,8.1-20.7,10.2l-6.1,4.5
		l2.3-7.2c2.6-8,5.8-15.3,9.6-21.5c-1.1,0.3-1.9,0.6-2.4,0.8l-5.2,2.5l1.8-5.4c0,0,0.1-0.2,0.1-0.4c-1.2,2-2.3,4.2-3.2,6.6
		c0.1,0,0.2-0.1,0.3-0.1l5.6-1.2l-3,4.9c-0.1,0.2-14.3,23.5-15.3,52.1c1.7,0.6,4.1,1.9,6.6,4.8l1.7,2l-2,1.6
		c-13.9,10.7-22.4,19-24.7,21.3l-1.9,1.9l-1.7-2.1c-2.2-2.7-4.3-5.8-6.1-9.1c0.5,4,1.7,8.6,4.1,13.1l0.8,1.5l-1.1,1.3
		c-13.3,14.9-20.4,30.5-22.9,36.6l-1.1,2.7l-2.5-1.6c-3.8-2.4-6-6.6-8.4-11.1c-2-3.8-4.1-7.8-7.2-10.7c1.4,3,2.3,6.2,3.3,9.5
		c1.7,6.2,3.5,12.7,9.1,18.4l1.4,1.5l-1.2,1.7c-0.3,0.4-0.6,0.9-0.9,1.4c-0.3,0.6-0.7,1.1-1.1,1.7l-1.1,1.6l-1.8-0.7
		c-2.7-1-5.2-2.3-7.4-3.8c1.5,1.9,3.5,3.8,6,5.4l1.9,1.2l-1,2c-0.6,1.2-1.2,2.3-1.7,3.3l-0.9,1.7l-1.9-0.5c-4.8-1.3-10.7-3.6-16-7.9
		c1.5,2.4,2.8,3.8,2.8,3.8l1.2,1.2l-0.6,1.5c-3.3,7.9-5.4,18.3-5.4,18.4l-0.3,1.6l-1.6,0.3c-1.1,0.2-2.2,0.3-3.3,0.3
		c-2.5,0-5.8-0.5-9.5-2.4c2.2,2.6,5.6,5,10.9,5.3l2.8,0.2l-0.6,2.8c-0.5,2.4-0.8,5.3-1.1,8.3c-0.2,1.6-0.3,3.2-0.5,4.7l-0.2,1.9
		l-1.9,0.3C62.3,378.1,60.2,378.3,58.1,378.3z"/>
	<path class="st1" d="M308.4,247.2c5.9-6.3,13.2-16.2,14.4-27.2l0.3-2.6l2.5,0.4c5,0.8,8.9,1.8,11.2,2.6c0.9-6.4-0.6-12.1-0.6-12.2
		l-1-4l4,1c1.7,0.4,3.4,1,4.8,1.6c-0.6-2.2-1.2-4.1-1.2-4.1l-1.5-4.8l4.7,1.9c5.5,2.2,10.7,5.1,14,7.2c0.2-28-13.5-47.5-13.6-47.7
		l-2.6-3.7l4.5-0.2c0.9,0,1.8-0.1,2.7-0.1c1.8,0,3.3,0.1,4.6,0.3l0.6,0.1l0.5,0.4c3.7,2.7,7.2,5.7,10.3,8.8l0.3,0.3l0.2,0.4
		c1.7,4.2,5,13.4,5.4,24.1c0.6-2.5,1.1-5.6,1.3-9.5l0.4-7.1l4.1,5.8c7.1,10.2,11.2,20.1,12.5,23.3l0.8,1.9l-1.7,1.1
		c-2.6,1.8-5.7,4.8-7.7,10.2c3.5-3.4,8.2-7.1,13.9-8.7l0.8-0.2l0.8,0.3c4.6,1.8,9.1,4.2,13.6,7.2l3.2,2.1l-3.3,2
		c-4.5,2.7-15.1,10.8-15.9,27.2l-0.2,4.7l-3.7-2.9c-4.1-3.2-7.6-6.6-10.2-9.8l-0.7-0.9l-0.8,1h-1.2c-7.3,0-13.4-0.8-15.7-1.1
		l-2.4-0.3l0.1-2.2c0.3-6.4,2.2-11.7,4.2-15.6c-5.6,4.5-7.8,11.1-8.6,14.5l-0.5,2.2l-2.3-0.4c-4.4-0.8-8.4-3-10.4-4.3l-1.8-1.1
		c-2.8,2.7-6.1,5.8-10,8.9l-6,4.9l2-7c-3.2,3.7-8.1,8.6-15.5,14.9L308.4,247.2z"/>
	<path class="st1" d="M474.6,284.8c-0.4,0-0.8,0-1.3,0c-14,0-35.3-8.6-44.4-17.7c-13.8-5-25.7-11.2-35.5-18.5l-1.5-1.2l0.8-1.8
		c8.3-19.4,21.6-22.7,28.8-23h1l0.7,0.7c2.3,2.2,4.2,4.1,5.9,6l2.4,2.7l-3.4,1.3c-2.5,0.9-6.2,2.9-9.1,6.7c3.8-2.4,8.6-4.5,13.6-4.7
		h1.2l0.8,0.9c1.8,2.1,3.4,4.3,5.1,6.6c4.9,6.7,9.9,13.6,22.6,21.3l6.6,4.1l-2.2,0.1c6.7,2.1,12.1,4.8,16.2,7.9l0.6,0.5l0.2,0.8
		c0.7,2.3,0.1,3.9-0.6,4.8C481.8,284,479.1,284.8,474.6,284.8L474.6,284.8z"/>
	<path class="st0" d="M88.6,194.2L88.6,194.2C88.5,194.2,88.6,194.2,88.6,194.2L88.6,194.2z"/>
	<path class="st0" d="M323.2,131.3l-7-0.3l-4.8,2.2c0,0-0.2-2.4-2.8-2.4c-2.2,0-1.7,2.7,0.4,3.4c1.6,0.8,3.3,1.6,5.1,2.8
		C318.2,135.9,321.9,133.6,323.2,131.3z"/>
	<path class="st0" d="M349.9,116.5c-12.4,6.6-17.7,15.8-17.7,15.8c8.8-6.8,11.9-6.5,11.9-6.5c0.8,3.7-0.3,11.9-0.3,11.9
		C351.8,129.8,349.9,116.5,349.9,116.5z"/>
	<path class="st0" d="M242.1,131.3c1.3,2.2,5,4.5,8.8,5.6c1.8-1.1,3.6-2,5.2-2.8c2.1-0.4,3.1-3.5,0.5-3.5c-2.1,0-2.8,1.7-2.7,2.6
		L249,131L242.1,131.3z"/>
	<path class="st0" d="M252,119.3c-2.8,1.1-12.2,6.4-14.2,12.3l13.1-8.3l16.4,7.1l11.5-2.3C278.9,122.5,258.7,116.6,252,119.3z
		 M267.2,127.6L258,121l14.9,3.8L267.2,127.6z"/>
	<path class="st0" d="M313.3,119.3c-6.6-2.6-26.9,3.2-26.9,8.8l11.5,2.3l16.5-7.1l13.1,8.3C325.5,125.6,316.1,120.3,313.3,119.3z
		 M298.1,127.6l-5.7-2.9l14.9-3.8L298.1,127.6z"/>
	<path class="st0" d="M336.4,152.3c4.9-1,8.9-1,8.9-1c-0.8-1.2-1.7-2.8-2.8-4.5c-7,0.7-14.2,1.6-19.7,3.2c0.3,3.7-0.7,8-3.6,13
		c0,0,3.2,3.3,3.5,7.1c0,0-16.1,8.8-8.9,25.3c0,0-6.3-1.1-8.1-1.1c0,0-0.2,9.5,0.5,12.6c0.7,3.2,4.8,22.7-9.8,26.7
		c-2.1,0.6-3.3-0.3-4.7-0.8c-1.2-0.3-5.4-1.5-9.1-1.5c-3.6,0-7.8,1.2-9.1,1.5c-1.2,0.4-2.5,1.3-4.7,0.8
		c-14.6-3.8-10.4-25.9-9.7-29.1c-4.3-2.2-15.5,0.8-15.5,0.8c0.8-8.5,2.7-16.1,2.7-16.1c-8.5,1.6-14,3.2-14,3.2
		c2.1-8.4,3-12.1,3-12.1c-10,2.5-13.7,5.7-13.7,5.7c4.3-15.5,14.1-24.6,14.1-24.6c-1.5-4.6-0.6-8.8,1.6-12.5c-4.6-1-9.7-1.5-14.8-2
		c-1.1,1.6-2.1,3.2-2.8,4.5c0,0,6.3-0.9,10.8,1c0,0-15.1,12.7-16.7,43.5c0,0,5.8-4.3,13.4-5.7c0,0-3.1,8.1-2.2,11
		c0,0,10-3.8,15.5-4.6c0,0-3.6,9.9-1.5,15.6c0,0,8.4-3,14.9-2.1c0,0-3.7,22.7,6,26.4c4.6,1.9,11.8,4.6,22.4,4.6s18.5-2.9,22.4-4.6
		c10.5-4.8,6.1-26.4,6.1-26.4c10.8-1,16.7,2.1,16.7,2.1c2.1-5.7-1.4-15.6-1.4-15.6c4.1,0.2,12.4,2.2,12.4,2.2
		c-0.3-2.2-1.9-6.3-1.9-6.3c9,0.1,15.7,3.8,15.7,3.8C353.5,178,336.4,152.3,336.4,152.3z M331.9,182.9c0,0,1.5,5.5,1.5,7.8
		c0,0-6.8-1.3-10.8-1.1c1,3.3,0.3,14.9,0.3,14.9c-0.5-9.7-6-19.9-6-19.9c2.2-1,8.7-0.3,8.7-0.3c0.3-2.7-1.8-8.8-1.8-8.8
		c5.2-0.7,7.8-0.3,7.8-0.3c0.3-1.8-1.1-13.1-4.5-19.6c10.7,8.6,16.2,28.2,16.2,28.2C340.4,183.1,335.6,182.8,331.9,182.9z"/>
	<path class="st0" d="M314.4,144.4c-0.3,0.1-0.5,0.2-0.8,0.3l-16.2,1.5c0,0,5.2-2.4,13.1-4.6c-2.1-1.1-4.5-2.1-6.4-3
		c0,0-14.9,6-18.3,10.8l3.1,7.1l22,4c2.4-2.5,3.9-4.6,4.9-6.5l-21.4-0.6c0,0,9.4-3.1,22.2-5.6C316.2,146.6,315.4,145.5,314.4,144.4z
		"/>
	<path class="st0" d="M254.9,160.7l22-4l3.1-7.1c-3.4-4.8-18.3-10.8-18.3-10.8c-2.1,0.9-4.5,1.8-6.6,3.1c7.6,2.2,12.7,4.6,12.7,4.6
		l-16.1-1.5c-0.1-0.1-0.3-0.1-0.4-0.2c-1,1-1.6,2.1-2,3.3c12.4,2.6,21.6,5.5,21.6,5.5l-20.9,0.6C250.9,156,252.5,158.2,254.9,160.7z
		"/>
	<path class="st0" d="M308.8,165.2c0,0-4.6-3.6-9.5-2.8c0,0,6.6,12.8,0.5,23C299.8,185.5,309.5,181.4,308.8,165.2z"/>
	<path class="st0" d="M265.5,185.5c-6.1-10.3,0.5-23,0.5-23c-4.9-1-9.6,2.8-9.6,2.8C255.8,181.4,265.5,185.5,265.5,185.5z"/>
	<path class="st0" d="M275.1,225.2c0,0,2.9,1.4,7.5,1.4c4.7,0,7.5-1.4,7.5-1.4l5.2,1.4c8.2-7.7,5.1-16.6,5.1-16.6
		c-2.8,7.9-10,12.3-10,12.3l-2.8-1.9l-2.8,1.9l-2.1-1.9l-2.1,1.9l-2.8-1.9l-2.8,1.9c0,0-7.3-4.4-10-12.3c0,0-3.2,8.8,5.1,16.6
		L275.1,225.2z"/>
	<polygon class="st0" points="282.6,140.1 295.3,136.5 269.9,136.5 	"/>
	<path class="st0" d="M271.1,161.5c0,0-3.4,3,0.9,7.1l3.7-1.5l2.3,1.4l2.4-1.4l2.3,1.4l2.3-1.4l2.4,1.4l2.3-1.4l3.7,1.5
		c4.3-4.1,0.9-7.1,0.9-7.1l-4.8,2.7h-13.6L271.1,161.5z"/>
	<path class="st0" d="M288.8,283c0,0-4.9-10.6-18.8-10.6c-1.3,23-33.3,34.1-33.3,34.1s-14.9,1.5-18.5-9.4c0.7,9,6.1,20.4,30.4,17
		c0,0,6.3,3.4,7.5,5.2c0,0,8.1,0,11.2-7c0,0-2.8-6.5-7.9-9.2c0,0,7.5,0.9,13.2,7.5c1.4-1.5,2.8-3.5,3.4-6.3c0,0,1.4-5.4-8-11.8
		c0,0,7,1.3,12,6.8c1.4-1.6,3-3.7,3.9-5.6c0,0-1.1-6.8-8.7-11.6c0,0,6.6,1.7,11.3,6.2C287.6,287.4,288.6,285.5,288.8,283z"/>
	<path class="st0" d="M131.2,269.2c2.2,2.8,4.5,5,6.6,6.7c9.9-8.2,18.6-14.2,24.1-17.7c-1.8-5.1-3.8-8.3-5.7-10.6
		C142.3,258.4,133.6,266.7,131.2,269.2z"/>
	<path class="st0" d="M102,313.2c0.1,0.1,0.2,0.1,0.3,0.2c8.8-11.9,18.5-22.2,27.7-30.6c-1.9-2.2-3.4-4.6-4.7-6.9
		C110.6,292.3,103.3,309.6,102,313.2z"/>
	<path class="st0" d="M29.4,362.2c-1.1,1.2-2.4,2.5-3.7,3.5c0,0-1.1,6.3,2.4,10.6c1.8-2.1,2.7-3.2,2.7-3.2c0.9,5.2-2.1,9-2.1,9
		c2.3,4.6,7.5,5.2,7.5,5.2c3.4-2.5,6.7-8.4,6.7-8.4c-0.1,3.2-1,6-2,8.3c4,3.7,9.3,2.4,9.3,2.4c3.1-2.1,5-7.5,5-7.5
		c0.5,1.4,0.6,3.3,0.5,5.3c3.9-0.8,6.8-2.9,6.8-2.9c1.1-2.8,1.6-5.9,2.1-9.1C43.6,378.5,32.2,365.7,29.4,362.2z"/>
	<path class="st0" d="M481.4,278c1,3.1-1.4,4.5-8.2,4.5c-14,0-35.2-9-43.1-17.4c-16.5-6-27.8-12.8-35.4-18.3
		c-1.2,2.9-1.7,4.9-1.7,4.9c-0.2-2.2-0.2-4.3-0.1-6.3c-5.5-4.4-8.6-7.8-9.8-9.4c-1.2,4.9-1.2,9.9-0.9,13.6
		c7.7,6.8,23.6,19.1,39.9,21.5c0,0-3.9,9.3,11.4,15.1c0,0,2.1,5,5.1,9.2c0,0,6.4,5,13.7,2.2c0,0,5.7-7-0.6-13.1c0,0,8.2,4,5.1,14.2
		c0,0,2.5,4.9,10.1,2.4c0,0,3.7-8.7-0.3-14.5c0,0,7.5,5.4,4.3,15.5c0,0,4.2,2.6,8.2,0.5c0,0,4.9-7.7,0.9-13.5c0,0,4.6,3.3,3.8,9.7
		C490.3,293.4,490.8,285.2,481.4,278z"/>
	<path class="st0" d="M354,232c-4.2-0.9-8-3-9.6-3.9c-1.2,2.4-2.7,4.7-4.1,7c2.8,1.8,7,4.2,12.4,6.2
		C352.8,238.4,353.2,235.2,354,232z"/>
	<path class="st0" d="M364,244.2c3.1,0.5,6.4,0.8,9.9,0.9c1-4.2,2.8-7.5,4.6-9.9c-7.2,0-13.3-0.9-15.5-1.1
		C363.1,237,363.2,240.5,364,244.2z"/>
	<path class="st2" d="M291.5,193.9c-4.6-7.6,1.2-19.4,1.2-19.4c-9.2-3.3-10,11.7-10,16c-0.1-4.3-1-19.4-10-16c0,0,5.8,11.8,1.1,19.4
		c-4.5,7.4-0.7,19.1,2.1,19.9c1.5,0.5,3.1,0.7,6.8,0.7s5.2-0.2,6.8-0.7C292.2,212.9,296,201.3,291.5,193.9z"/>
	<path d="M478.1,268.6c-11.4-5.8-19.7-12.3-26.3-18.9c4.8-16.5,7.5-33.9,7.5-52c0-102.3-83-185.4-185.4-185.4
		C173.7,12.2,92.1,91.8,88.6,191.1c-14.3,1.9-67.5,11.6-67.5,52.1c0,18.3,12.5,31.5,31.8,31.5c4.9,0,10.2-1.3,10.2-1.3
		s-5.4,8.7-3.8,15.6c0,0-2.2,2.6-11,3.8c-13.5,17.9-2.4,47-29.2,70c-0.8,3.7-0.6,7,0.1,9.7c-2.6,3.9-7.1,5.2-7.1,5.2
		c4.3,1.7,7.4,1.3,9.4,0.6l2.1,3l-1.4,1.4c0,0,0.7,2.9,2.8,5.7c-1.8,4.1-4.1,6.3-4.1,6.3c4.3,0.3,7.2-0.9,9.1-2
		c1.8,1,3.9,1.5,6.6,1.5l0.9-1l2.8,1.6c-1,3.7-3,5.6-3,5.6c4.5-0.3,7.1-2.1,8.7-3.8c2.1,0.3,4.5,0,6.8-1.1c-0.3,2.6-1.5,4.5-1.5,4.5
		c4.9-1.8,7.3-5,8.4-7.1c3.9-0.7,8.6-2.1,11.8-5.4c1.6-19.7,3.1-30.1,6.4-43.4c0,0,9.7,4.6,21.9-1c0,0,11.2-14.2,29.2-29.7
		c4.6,5.7,9.6,11.3,14.8,16.4c-1.9,5-4.4,14-4.4,26.6c0,15.6-10.9,24-10.9,24s0.1,2.3,2.2,4.6c-0.5,4.1-3,6.6-3,6.6
		c3.3-0.1,6-1.5,7.7-3.1l0.3,0.2l0.2,4.8c0,0,1.2,1.6,3.6,2.6c-0.2,3.3-1.4,5.5-1.4,5.5c3.2-0.3,5.7-2.4,7.5-4.2c0,0,2,0.2,3.6,0.2
		l3.7-2.8c0.3,3.2-1,5.9-1,5.9c4.1-2.1,6.4-4.6,7.5-6.5l2.8-0.8l2.4-3.9c0.4,2.3,0.3,4.4,0.3,4.4c2.8-2.7,4.2-5.7,5.1-8.2
		c0,0,2.1-1.3,2.6-1.7c0,0,3-15.8,2.5-29.2c28.6,18,62.4,28.4,98.6,28.4c64,0,120.5-32.5,153.9-81.9c2.1,2.1,4.7,3.4,7.4,4.3
		c-0.9,3.7-3.8,6.3-3.8,6.3c6.4,1,10.9-2.8,13.2-5.1c3.9-0.1,6.9-0.7,6.9-0.7c0.9,1,1.6,1.5,2.4,2.2c-0.7,4-3.2,6.4-3.2,6.4
		c6.8,1.7,10.6-2,12-3.9c2.3-0.3,3.8-1.3,3.8-1.3c1,0.7,2,1.1,3,1.5c-1,2.7-3.1,4-3.1,4c5.5,1.1,8.9-1.2,10.8-3.2
		c2.7-0.5,4.2-1.7,4.2-1.7c0.4-0.1,1-0.3,1.3-0.7c-0.7,1.6-1.2,2.7-1.2,2.7c3.9,0.6,7-3.9,8.6-7.1c0,0,7.5-4.2,7.5-14.8
		C497.6,273.1,478.1,268.6,478.1,268.6z M273.9,20.9c97.7,0,176.9,79.2,176.9,176.9c0,15.4-2,30.3-5.7,44.5
		c-15.1-18.1-21.9-35.9-49.6-44.5c-11.2-27.8-27.8-43.6-39.5-51.7l7.3-0.3c-3.1-0.8-6.3-1.1-9.7-1.4l-1.6-1.1
		c7.6-8.6,9.5-28.1,6.2-32.8c-3.5-5.1-27.5,2.8-27.5,2.8c-5.8-2.7-15.5-6.6-21.9-6c-5.8-5.8-18-15.9-34.4-16.7c0,0,1.4,2.2,2.3,5.1
		c-34.4-5-62.8,13.4-62.8,13.4c-7.5-0.5-7.5,2.8-7.8,4.8c-44.7,29.1-60.1,68.7-78.6,93.9c-7.2,5.5-17,13.4-27.6,20.7
		c-0.7-3.9-1.2-7.7-1.6-11.8c5.5-1.2,9.8-4.3,9.8-11.8c0-6.1-5.6-8.8-10.7-9.8C98.7,98.5,177.2,20.9,273.9,20.9z M352.7,196.3
		c0,0-6.6-3.7-15.7-3.8c0,0,1.6,4,1.9,6.3c0,0-8.3-2.1-12.4-2.2c0,0,3.6,9.9,1.4,15.6c0,0-5.8-3-16.7-2.1c0,0,4.4,21.7-6.1,26.4
		c-3.8,1.7-11.8,4.6-22.4,4.6s-17.9-2.8-22.4-4.6c-9.8-3.7-6-26.4-6-26.4c-6.4-0.9-14.9,2.1-14.9,2.1c-2.1-5.7,1.5-15.6,1.5-15.6
		c-5.4,0.8-15.5,4.6-15.5,4.6c-0.8-2.9,2.2-11,2.2-11c-7.5,1.4-13.4,5.7-13.4,5.7c1.5-30.8,16.7-43.5,16.7-43.5
		c-4.6-1.7-10.8-1-10.8-1c0.8-1.2,1.7-2.8,2.8-4.5c5.1,0.5,10.2,1.1,14.8,2c-2.2,3.7-3.2,7.9-1.6,12.5c0,0-9.9,9-14.1,24.6
		c0,0,3.5-3.2,13.7-5.7c0,0-1,3.7-3,12.1c0,0,5.4-1.5,14-3.2c0,0-1.9,7.5-2.7,16.1c0,0,11.2-3.1,15.5-0.8
		c-0.7,3.2-4.9,25.3,9.7,29.1c2.1,0.6,3.4-0.3,4.7-0.8c1.2-0.3,5.4-1.5,9.1-1.5c3.6,0,7.8,1.2,9.1,1.5c1.2,0.4,2.5,1.3,4.7,0.8
		c14.7-3.8,10.5-23.4,9.8-26.7c-0.7-3.2-0.5-12.6-0.5-12.6c1.8-0.1,8.1,1.1,8.1,1.1c-7.3-16.6,8.9-25.3,8.9-25.3
		c-0.3-3.7-3.5-7.1-3.5-7.1c3-5,3.9-9.4,3.6-13c5.4-1.5,12.8-2.5,19.7-3.2c1.1,1.6,2.1,3.2,2.8,4.5c0,0-4,0-8.9,1
		C336.4,152.3,353.5,178,352.7,196.3z M224.4,144.4c1.2-1.8,2.6-3.7,3.8-5.4c4.2,0.7,10,1.7,15.4,3.1c-1.5,1.2-2.9,2.6-4,4
		C234.6,145.4,229.5,144.8,224.4,144.4z M255.1,141.7c2.1-1.2,4.6-2.2,6.6-3.1c0,0,14.9,6,18.3,10.8l-3.1,7.1l-22,4
		c-2.4-2.5-3.9-4.6-4.9-6.5l20.9-0.6c0,0-9.3-3-21.6-5.5c0.3-1.2,1.1-2.4,2-3.3c0.1,0.1,0.3,0.1,0.4,0.2l16.1,1.5
		C267.8,146.2,262.7,143.8,255.1,141.7z M313.7,144.7c0.3-0.1,0.5-0.2,0.8-0.3c1,1,1.7,2.1,2.1,3.3c-12.7,2.7-22.2,5.6-22.2,5.6
		l21.4,0.6c-1,1.9-2.5,4.1-4.9,6.5l-22-4l-3.1-7.1c3.4-4.8,18.3-10.8,18.3-10.8c2.1,0.9,4.4,1.7,6.4,3c-7.8,2.2-13.1,4.6-13.1,4.6
		L313.7,144.7z M265.5,185.5c0,0-9.7-4-9.1-20.4c0,0,4.7-3.6,9.6-2.8C266,162.5,259.3,175.3,265.5,185.5z M264.8,210
		c2.8,7.9,10,12.3,10,12.3l2.8-1.9l2.8,1.9l2.1-1.9l2.1,1.9l2.8-1.9l2.8,1.9c0,0,7.2-4.4,10-12.3c0,0,3.2,8.8-5.1,16.6l-5.2-1.4
		c0,0-2.9,1.4-7.5,1.4c-4.7,0-7.5-1.4-7.5-1.4l-5.2,1.4C261.7,218.9,264.8,210,264.8,210z M272.6,174.5c9.2-3.3,10,11.7,10,16
		c0.1-4.3,1-19.4,10-16c0,0-5.8,11.8-1.2,19.4c4.5,7.4,0.7,19.1-2.1,19.9c-1.5,0.5-3.2,0.7-6.8,0.7c-3.7,0-5.2-0.2-6.8-0.7
		c-2.8-1-6.5-12.5-2.1-19.9C278.4,186.2,272.6,174.5,272.6,174.5z M293.4,168.7l-3.7-1.5l-2.3,1.4l-2.4-1.4l-2.3,1.4l-2.3-1.4
		l-2.4,1.4l-2.3-1.4l-3.7,1.5c-4.3-4.1-0.9-7.1-0.9-7.1l4.8,2.7h13.6l4.8-2.7C294.2,161.5,297.6,164.5,293.4,168.7z M299.8,185.5
		c6.1-10.3-0.5-23-0.5-23c4.9-1,9.5,2.8,9.5,2.8C309.5,181.4,299.8,185.5,299.8,185.5z M282.6,140.1l-12.7-3.6h25.3L282.6,140.1z
		 M320,142.6c5.7-1.5,12.4-2.8,17.1-3.5c1.2,1.7,2.5,3.5,3.8,5.4c-6.4,0.4-12.8,1.2-18.7,2.3C321.6,145.3,320.8,143.8,320,142.6z
		 M344,137.8c0,0,1-8.2,0.3-11.9c0,0-3.2-0.3-11.9,6.5c0,0,1.7,2.3,3.9,5.4c-6.6,0-13,0.9-18.5,2.1c-1.1-1-2.2-1.9-3.3-2.8
		c-1.6-1.1-3.3-2.1-5.1-2.8c-2.1-0.9-2.7-3.4-0.4-3.4c2.6,0,2.8,2.4,2.8,2.4l4.8-2.2l7,0.3l4.3,0.2l-13.1-8.4l-16.5,7.1l-11.5-2.3
		l6.4,4.6h-20.5l6.4-4.6l-11.5,2.3l-16.4-7.1l-13.1,8.3l4.2-0.2l7-0.3l4.9,2.2c-0.2-0.9,0.7-2.6,2.7-2.6c2.6,0,1.5,3.2-0.5,3.5
		c-1.5,0.8-3.3,1.6-5.2,2.8c-1.3,0.9-2.8,1.6-4.1,2.7c-5.4-1.1-11.5-1.9-17.7-1.9c2.2-3.2,3.9-5.4,3.9-5.4
		c-6.4-10-14.3-14.7-14.3-14.7c5.3,0.5,11.4,2.7,16.3,5.1l0.9,4.5c6.2-6.8,15.3-11.2,15.3-11.2c11.9-3.7,31.4,4.3,31.4,4.3
		s19.5-8,31.3-4.3c0,0,7.5,3.2,13.6,9.3c0,0,14.2-7.7,22.4-8.5C349.9,116.5,351.8,129.8,344,137.8z M285.6,102.2c0,0,7.4,2.7,11.1,7
		c-3.4,0.8-6.8,1.5-9.4,2.2c-7-4.9-19.9-4.6-19.9-4.6c1.1,0.9,2.2,1.5,3.2,2.8c-15.5-4.3-23.3-2.4-35.8,3.8c0,0-4-1.3-9-2.6
		c15.8-7.5,41.5-13.9,61-5.2L285.6,102.2z M56.2,248.6c-5,0-7.7-1.7-7.7-6c0-13.4,20.9-25.1,38.1-25.1c1,0,2,0,3,0
		c0.6,5.4,1.4,10.9,2.5,16.2C79.1,242,65.9,248.6,56.2,248.6z M83.8,254.9c-1.8,1.1-3.4,2.1-5.1,3.2c-0.2-2.7-1.1-6.1-4.1-9.6
		c1.5-0.7,3.2-1.4,5-2.3C81.4,247.9,83.6,250.8,83.8,254.9z M104.7,231.1c0.8,0.8,1.3,1.7,1.5,3.2c-4.5,5.1-8.4,9.1-11.7,12.2
		c-0.2-1.9-1.1-4.3-3.4-6.5C95.2,237.5,99.7,234.5,104.7,231.1z M88.6,194.2L88.6,194.2C88.6,194.2,88.5,194.2,88.6,194.2
		L88.6,194.2z M68.9,200.8c3.9-1.2,8.2-2.2,13.1-3.1c0,0-2.1,2.1-2.7,3.1c0,0,3.5-0.9,7.7-1.2c-1.5,2.5-4.1,7.5-2.8,12.4
		c-3.5,0.3-9,1-14.9,2.8C67.4,209.3,68.2,203.9,68.9,200.8z M41.1,215.7c4.5,6.5,8.9,5.2,8.9,5.2c-2.5-2.8-3-7-3-10
		c2.8-2,6-3.8,9.7-5.5c-1.1,5.8,1.5,10.5,3.7,13.1C48.6,225.1,45,233,45,233c-6.5-1.4-9.7-6.6-11-9.6
		C36,221.1,38.3,218.4,41.1,215.7z M29.9,253.5c0,0-3.9-8.5-1.2-18.1c4.3,6.1,10,7,13.6,6.9c-0.3,2.7,0.2,5.3,1.9,7.5
		C39.3,254,33.2,253.8,29.9,253.5z M61,266c0.3-5.3-3.8-8.5-3.8-8.5c0.8,2.7-1.7,6.9-3.5,9.5c-10,0.8-16-4.2-16-4.2
		c7.3-2.8,10.8-7,12.4-9.5c3.1,0.8,8.3,1,16.7-1.7c1.8,1.9,4.6,5.8,3.4,11.8C67.4,264.3,64.3,265.3,61,266z M156.1,320.8
		c-2,1.9-3.9,3-5.4,3.6c-5.4-5.2-10.3-10.7-14.9-16.5c7.5-5.7,15.7-11.6,24.6-16.5C154.1,305.2,156.1,320.8,156.1,320.8z
		 M163.8,241.9c6.6-24.8,25-27.8,25-27.8c-15.8-2.1-26.8,13.1-30.3,18.8c0.3-2.4,0.9-5.4,1.5-8.9c16-26,38.8-29.9,38.8-29.9
		c-11.3-5.5-28.2,5.7-33.6,9.7c3.1-9.3,7.3-18.7,13-26.3c0,0-7.2,1.7-9.2,2.7c0,0,4.4-13.3,14-22.2c0,0-16.5,9.9-23.3,31.2
		c0,0,3.4-1.1,4.8-1.3c0,0-15.3,24.8-15.7,55.4c0,0,3.3-0.2,7.3,4.4c1.9,2.2,3.9,5.5,5.7,10.6c-5.4,3.4-14.1,9.4-24.1,17.7
		c-2.1-1.8-4.4-4-6.6-6.7c-3.9-4.7-7.5-10.9-10.3-19c0,0-2.5,13.1,4.3,25.8c1.2,2.3,2.8,4.6,4.7,6.9c-9.3,8.4-19,18.6-27.7,30.6
		c-0.1-0.1-0.2-0.1-0.3-0.2c-8.8-5.6-8.8-24.8-27.1-26.9c13.9,7,7.8,23.5,20.8,36.8c-0.7,1-1.2,2.1-1.9,3.1
		c-5.3-2.1-11-5.5-15.4-11.7c0,0,1.4,11.3,11.8,17.7c-0.6,1.1-1.1,2.1-1.7,3.2c-6.6-1.7-16.7-5.9-22.6-16.5
		c0.6,10,7.1,16.5,7.1,16.5c-3.3,8.1-5.5,18.8-5.5,18.8c-3.5,0.7-10.4,0.6-18.4-7.1c0,0,2.3,14.3,16.9,15.2
		c-0.9,3.8-1.1,8.5-1.6,13.2c-0.4,3.2-1,6.3-2.1,9.1c0,0-2.8,2.1-6.8,2.9c0.1-2,0.1-3.9-0.5-5.3c0,0-1.9,5.5-5,7.5
		c0,0-5.2,1.3-9.3-2.4c1-2.3,1.9-5.2,2-8.3c0,0-3.2,5.9-6.7,8.4c0,0-5.3-0.5-7.5-5.2c0,0,2.9-3.8,2.1-9c0,0-0.9,1.1-2.7,3.2
		c-3.4-4.4-2.4-10.6-2.4-10.6c1.3-1.1,2.6-2.3,3.7-3.5c7.5-8.2,11.9-19.2,14.2-27.2c2.7,2.8,7.5,5.3,15.8,3c0,0-9.1-4.4-13.7-12.4
		c0.3-1.7,0.6-3.3,1-4.9c1.9,3,5.3,6,11.2,7.5c0,0-7-7.7-8.9-16.9c2.5-8.2,5.2-12.6,5.2-12.6c2.3,1.5,12.4-2.7,12.4-2.7
		c-1.3-8.9,1.1-16,5.1-21.5c12.7-1.1,19.1,10.5,19.1,10.5c1-10.9-6.9-16.6-11.2-18.7c4.3-3.6,12.2-8.2,13.5-9.4
		c4.9,11.2,19,15.1,21.1,25.5c3.8-10.8-10-19.9-11.7-33.2c6.2-5.7,12-12.3,17.7-19.3c3.2,8.1,9.4,18,21.3,24.6c0,0-10-12-14.1-33.9
		c2.2-3.1,4.4-6.2,6.4-9.2c1.2,4.4,4.2,10.3,11.8,14.5c0,0-5.8-12.7-5.2-24.7c2.9-4.6,5.4-8.8,7.6-12.4c-0.5,4.6-0.3,11.2,2.5,17.9
		c0,0,1.2-18.6,6.9-33.2c7.4-10.2,14.7-19.1,21.9-26.8c4.8,1.1,12.5,4.6,14.9,15c0,0,6.6-14.2-7-22.9c1.9-1.9,3.9-3.6,5.7-5.3
		c2.8,0.9,6.8,2.8,8.5,7c0,0,1.5-4.4-3.5-11.2c2.8-2.2,5.4-4.3,8-6.2c0.8,7.6,3.5,16.8,8.5,21.5c-4.4,0.2-8.5,0.7-12.3,1.5
		c0,0,4.8,0.1,11.4,0.5c-2.3,2.3-6.7,7.2-8.5,11.8c0,0,7.8-1,12.4-0.7c0,0-2.4,3.3-5.3,9.3c-4.9,0.3-12.8,2.1-24.1,8.6
		c0,0,11.8-3.7,20.8-1c-3.4,9.3-6.6,22-6.2,36.9c0,0,6-4.3,14-7.6c0,0,1.5,7.7,1.6,13.3c-9-0.7-29.5,0.2-38.4,19.9
		c0,0,20.5-17.3,37.8-8.1c-0.5,2.8-1.1,5.4-2.2,7.8c0,0,2.1,3.5,5.1,8.6c-5.6,1.7-16.5,6.7-19.4,20.7c0,0,10.8-13.7,24.2-12.2
		c4.6,8.5,9.7,18.3,11.6,24.3c-2.1,2.9-3.3,5.7-3.3,5.7c3.4-2.8,10.9-4.8,10.9-4.8c16.1,0.7,25.7-6.5,25.7-6.5
		c13.9-0.3,18.8,10.2,18.8,10.2c-0.2,2.4-1.2,4.4-2.2,5.6c-4.7-4.4-11.3-6.2-11.3-6.2c7.5,4.8,8.7,11.6,8.7,11.6
		c-1,1.9-2.5,3.9-3.9,5.6c-5-5.4-12-6.8-12-6.8c9.4,6.3,8,11.8,8,11.8c-0.7,2.8-2,4.8-3.4,6.3c-5.7-6.7-13.2-7.5-13.2-7.5
		c5.2,2.7,7.9,9.2,7.9,9.2c-3.2,7-11.2,7-11.2,7c-1.3-1.7-7.5-5.2-7.5-5.2c-24.3,3.3-29.7-8-30.4-17c-0.4-5.4,1-10.1,1-10.1
		c-1.4,3.3-2.5,6.4-3.3,9.3c-1.1-0.6-4.7-2.3-9.5-5.2c-1.1-12.4,6.4-18.2,6.4-18.2c-9.4,1.6-13.2,8.6-14.6,12.8
		c-8.2-4.4-14.9-14-14.9-14c0.5-19.1,15.2-26.1,15.2-26.1c-15.8-0.6-22.4,13.1-23.8,16.6C169.4,255.8,169.4,248.2,163.8,241.9z
		 M273.9,374.5c-33.1,0-64-9.1-90.6-24.9c2.3,0.2,5.2,0.3,8.2,0.2c0,0,16.1-10.9,27.2-29.1c9.8,9,31,3.2,31,3.2l8.9,3.7
		c3.4-0.5,6.3-1.2,8.5-2.1c3.2,3.2,3.2,7,3.2,7c3-3,3-6.9,2.3-9.8c1.9-1.5,2.8-3,3.3-4c0.8-0.4,1.4-0.9,2.1-1.2
		c3.2,2.1,4.6,6.7,4.6,6.7c2.2-5.1,1.1-9,0-11.2c1.5-2.1,2.1-3.8,2.1-3.8l-0.1-0.5c0.5-0.4,1-0.9,1.4-1.2c3.3,3.2,4.1,7,4.1,7
		c3-5.7,1.5-10.2,0.1-12.8c0.9-1.5,1.2-2.7,1.2-2.7c0-0.9-0.1-1.6-0.2-2.4c0.6-0.6,1.1-1.1,1.5-1.6c3.3,3.2,3.3,7,3.3,7
		c3.1-5.1,1.7-11,0.7-14.1c1.1-3.3,1.1-5.6,1.1-5.6c-3.9-17.7-28.7-16.5-28.7-16.5c-10.6,6-19.9,7.1-24.1,7.2l-3.5-6.4
		c16.9-1.6,20.4-8.2,35.5-8.2c16.1,0,24.3,8.8,24.3,8.8s16.8-7.4,30.9-22.2c12.9,8.9,41,7.7,41,7.7c14.1,15.9,39.8,24,39.8,24
		c-1.3,6.6,1.1,10,3.9,11.8c-0.4,3.2-0.4,7.5,1.7,10.7C386.6,344.8,333.7,374.5,273.9,374.5z M483.9,298.8c0.8-6.4-3.8-9.7-3.8-9.7
		c4,5.7-0.9,13.5-0.9,13.5c-3.9,2.1-8.2-0.5-8.2-0.5c3.2-10.1-4.3-15.5-4.3-15.5c4,5.8,0.3,14.5,0.3,14.5
		c-7.6,2.5-10.1-2.4-10.1-2.4c3.2-10.3-5.1-14.2-5.1-14.2c6.3,6.2,0.6,13.1,0.6,13.1c-7.4,2.8-13.7-2.2-13.7-2.2
		c-3-4.2-5.1-9.2-5.1-9.2c-15.4-5.7-11.4-15.1-11.4-15.1c-16.3-2.5-32.3-14.8-39.9-21.5c-0.3-3.7-0.4-8.7,0.9-13.6
		c0.7-2.5,1.5-5,3-7.2c0,0-4,1.7-7.5,6.4c-1.9,2.5-3.7,5.7-4.6,9.9c-3.5,0-6.9-0.3-9.9-0.9c-0.9-3.7-1.1-7.2-1-10.3
		c0.8-14.1,9.5-22.1,9.5-22.1c-10.6,2.5-16.4,11.2-18.6,20.3c-0.9,3.2-1.1,6.3-1.1,9.3c-5.5-2-9.7-4.4-12.4-6.2
		c1.5-2.2,2.9-4.6,4.1-7c1.7-3.3,3.2-6.9,4.2-10.6c0,0-7.3,9.2-18.8,18.5c1.5-5.4,1.1-9.1,1.1-9.1s-3.3,7.2-20.6,21.9
		c7-7.5,13.9-17.6,15-28.7c8.5,1.4,13.5,3.4,13.5,3.4c2.1-8.1-0.1-16.1-0.1-16.1c5.2,1.2,9,3.7,9,3.7c-0.6-3-2.5-9.4-2.5-9.4
		c8.9,3.4,17.2,9.4,17.2,9.4c1.8-31.5-14-53.6-14-53.6c2.2-0.3,4.8-0.1,6.9,0.2c3.7,2.7,7,5.5,10,8.6c2.6,6.3,7.1,20.2,4.4,34.4
		c0,0,6.2-3.4,7-20.6c6.4,9.4,10.3,18.2,12.2,22.8c-4,2.8-9.7,8.7-10.8,21.5c0,0,7.5-12.4,19-15.6c4.6,1.8,8.9,4.2,13.1,7
		c-5.5,3.3-16.2,12.1-17.1,29.3c-0.1,2-0.1,4,0.1,6.3c0,0,0.5-2,1.7-4.9c3.2-7.5,11.1-20.9,26.7-21.5c2.1,1.9,3.9,3.9,5.7,5.8
		c-4.2,1.5-11.8,5.7-14.3,16.8c0,0,9.9-9.7,19.8-10c7.1,8.3,10.8,17.7,28.2,28.4c-4.9,0.3-7.3,1.4-7.3,1.4
		c13.2,2.5,22.2,6.3,27.7,10.5C490.8,285.2,490.3,293.4,483.9,298.8z"/>
	<path d="M327.2,155.6c3.3,6.4,4.7,17.8,4.5,19.6c0,0-2.7-0.3-7.8,0.3c0,0,2.1,6.2,1.8,8.8c0,0-6.4-0.7-8.7,0.3c0,0,5.5,10.2,6,19.9
		c0,0,0.7-11.6-0.3-14.9c4-0.3,10.8,1.1,10.8,1.1c0-2.2-1.5-7.8-1.5-7.8c3.6,0,8.4,0.3,11.5,1C343.4,183.9,337.9,164.3,327.2,155.6z
		"/>
	<polygon points="298.1,127.6 307.3,121 292.4,124.7 	"/>
	<polygon points="267.2,127.6 273.1,124.7 258.2,121 	"/>
	<polygon points="221.2,355.1 225.6,356.5 228.9,345.3 234.7,347 235.9,343.2 230.1,341.5 232,334.9 239.8,337.2 241,333.3 
		228.7,329.8 	"/>
	<path d="M257.7,335.9c-4.7-0.6-7.3,2.2-7.6,5.9l-1.6,13.6c-0.4,3.7,1.4,7,6.1,7.5c4.7,0.6,7.3-2.2,7.6-5.9l1.5-13.6
		C264.3,339.7,262.5,336.5,257.7,335.9z M259.3,343l-1.5,13.3c-0.3,2-1,2.8-2.8,2.7c-1.8-0.3-2.3-1.2-2.1-3.2l1.5-13.3
		c0.3-2,1-2.9,2.8-2.7C259.1,340,259.5,341.1,259.3,343z"/>
	<path d="M283.5,336.5c-4.8,0.3-6.8,3.5-6.4,7.3l1,13.7c0.3,3.7,2.7,6.6,7.5,6.3c4.8-0.3,6.7-3.5,6.4-7.3l-1-13.7
		C290.6,339.1,288.3,336.2,283.5,336.5z M285.1,359.7c-1.8,0.1-2.5-0.9-2.7-2.8l-1-13.4c-0.2-2,0.4-3,2.2-3.1
		c1.8-0.2,2.5,0.8,2.7,2.8l1,13.4C287.4,358.7,286.9,359.6,285.1,359.7z"/>
	<polygon points="313.4,335.7 312.5,331.9 299.4,335 300.4,338.9 304.7,337.8 309.9,359.8 314.3,358.7 309.1,336.8 	"/>
	<path d="M335.8,336.6c1.7-1.6,1.6-4.2,0.8-6.4c-1.7-4.1-4.7-5.6-9.2-3.7l-6.2,2.6l10.2,24.5l6.6-2.8c4.8-2,5.3-5.7,3.6-9.8
		C340.3,337.8,338.4,336.6,335.8,336.6z M326.9,330.8l1.5-0.7c1.9-0.8,3.2,0,4.2,2.3c0.9,2.1,0.1,3.6-1.5,4.3l-1.5,0.7L326.9,330.8z
		 M335.9,347.6l-1.7,0.8l-3.2-7.5l1.3-0.6c2.5-1.1,3.9-0.2,5.1,2.3C338.4,345,338.2,346.6,335.9,347.6z"/>
	<path d="M346.3,317l10,24.9l3.7-2.3l-2.5-5.4l4.2-2.7l3.8,4.6l3.7-2.4L350.9,314L346.3,317z M351.5,319.9l7.5,8.7l-3.1,2
		L351.5,319.9L351.5,319.9z"/>
	<polygon points="381.1,319.2 366.1,302.3 362.8,305.3 380.4,325.1 389.2,317.4 386.5,314.4 	"/>
	<polygon points="397.1,303.1 379.9,288.4 376.9,291.9 397.1,309.1 404.7,300.2 401.7,297.6 	"/>
	<path d="M195.4,102.2c7.5-6.4,10.3-14.2,10.3-14.2l-14.2-16.8l-13,11l6.1,7.2l5.5-4.7l3.6,4.3c0,0-1.1,3.3-4.8,6.4
		c-4.2,3.5-11.6,5-17.1-1.5c-3.3-4-5.9-11.6,0.9-17.3c5.3-4.6,10.2-3.3,10.2-3.3l0.4-10.5c0,0-7.6-1-16.2,6.3
		c-11,9.4-11.8,21.5-2.9,32.1C171.8,109.9,184.7,111.3,195.4,102.2z"/>
	<polygon points="128.8,136.7 158.6,150.3 162.8,141.2 133.1,127.5 137.8,117.1 129.6,113.3 115.8,143.5 124,147.3 	"/>
	<polygon points="175.5,121.1 141.6,96.8 135.6,104.9 169.6,129.2 	"/>
	<polygon points="240.6,76.6 236.9,68 218.8,75.4 216.1,68.8 232.4,62.1 228.8,53.4 212.6,60.2 210.1,54.3 227.2,47.1 223.7,38.4 
		197.2,49.4 213.1,87.9 	"/>
	<polygon points="296.4,51.1 281.3,49.6 280.5,57.6 295.6,59.1 	"/>
	<path d="M338.9,90.7l7.8-5l12,8.8l-2.3,9l9.2,6.7l10-44.3l-6.5-4.8l-39.2,22.8L338.9,90.7z M364,74.7l-2.9,10.9l-6.6-4.9L364,74.7z
		"/>
	<polygon points="366.8,114.4 373.3,122.1 398.4,101.4 405.8,110.4 412.8,104.6 391.7,79 384.7,84.8 392,93.7 	"/>
	<path d="M405.3,116.8c-7.4,3.6-6.3,10.5-5.4,16.1c0.7,4.6,1,7.4-1.4,8.5c-2.4,1.1-4.8-1.4-5.7-3.3c-1.2-2.6-1.2-6.1,0.3-8.8
		l-10.2-3c-1.7,5.2-1.1,10.4,1.3,15.5c4.4,8.8,12,12.1,19.7,8.4c7.7-3.8,6.6-10.6,5.7-16.2c-0.8-4.2-1.1-7,1.2-8
		c2.4-1.1,4.7,1.3,5.6,3.3c1,1.7,1.4,5.1,0.2,7.1l9.9,2.9c1.3-4.3,0.8-9.4-1.5-14C421.4,118.1,413.8,112.6,405.3,116.8z"/>
	<path d="M255.8,74.3l-1.7-16.1l3.4-0.4L267.6,73l11.9-1.3l-12.2-16.2c0,0,8.2-2.5,7.2-12.2c-1-8.3-6.9-12.2-17.2-11.2l-16.2,1.7
		l4.5,41.5L255.8,74.3z M257.5,40.8c2.5-0.3,6.4-0.4,6.8,3.3c0.3,3.3-2.3,4.2-6.4,4.7l-4.7,0.5l-0.9-8L257.5,40.8z"/>
	<path d="M316.9,81.7c10.9,3.8,17.7-2.1,17.7-2.1l-5.9-8.6c0,0-4,3.5-9.1,1.7c-5.8-2.1-8.8-8.6-6.5-15.2s8.1-10.6,14.5-8.4
		c5.3,1.8,6.1,5.7,6.1,5.7l9.4-3.4c0,0-2.1-7.5-11.4-10.8c-13.2-4.6-24.3,1.5-28.6,13.7C299,66.4,305.7,77.8,316.9,81.7z"/>
</g>
</svg>
