<?xml version="1.0" encoding="utf-8"?><svg xmlns="http://www.w3.org/2000/svg" viewBox="0 0 121.4 119.3"><path class="st0" d="M60.7 119.3l-19-13.8 15.3-30L45 52c-1.4-2.8-4.9-4-7.8-2.5-1.9 1-3.2 3-3.2 5.2V100L0 75.2V19.9c0-3.6 1.1-7.1 3.3-10C8.8 2.3 19.5.6 27.1 6.1l22.3 16.2L60.7 0 72 22.3 94.3 6.1c7.6-5.5 18.3-3.8 23.8 3.8 2.1 2.9 3.3 6.4 3.3 10v55.3L87.3 99.9V54.6c0-2.2-1.2-4.2-3.2-5.2-2.8-1.4-6.3-.3-7.8 2.5L64.4 75.4l15.3 30-19 13.9zm-10.5-15.9l10.5 7.6 10.5-7.6-10.5-20.6-10.5 20.6zM6.7 71.8l20.7 15V54.7c0-4.7 2.6-9 6.8-11.1 6.1-3.1 13.7-.7 16.8 5.5l9.7 19 9.7-19c3.1-6.1 10.7-8.6 16.8-5.5C91.3 45.7 94 50 94 54.7v32.1l20.7-15V19.9c0-2.2-.7-4.3-2-6.1-3.4-4.6-9.8-5.6-14.5-2.3L69.6 32.3l-8.9-17.5-8.9 17.5-28.7-20.8c-2.2-1.6-5-2.3-7.7-1.8-2.7.4-5.1 1.9-6.8 4.1-1.3 1.8-2 3.9-2 6.1l.1 51.9z" fill="#D70F27"/></svg>