<?xml version="1.0" encoding="utf-8"?>
<!-- Generator: Adobe Illustrator 21.1.0, SVG Export Plug-In . SVG Version: 6.00 Build 0)  -->
<!DOCTYPE svg PUBLIC "-//W3C//DTD SVG 1.1//EN" "http://www.w3.org/Graphics/SVG/1.1/DTD/svg11.dtd">
<svg version="1.1" id="Layer_1" xmlns="http://www.w3.org/2000/svg" xmlns:xlink="http://www.w3.org/1999/xlink" x="0px" y="0px"
	 width="500px" height="500px" viewBox="0 0 500 500" style="enable-background:new 0 0 500 500;" xml:space="preserve">
<style type="text/css">
	.st0{fill:#FFFFFF;}
	.st1{fill:#AC162C;}
</style>
<g>
	<path class="st0" d="M264.4,500l3.8-15.9c0.2-0.8,0.4-1.6,0.5-2.3c-10.4,4.8-21.2,8.8-32.3,12.1l-15.3,4.6l6.1-14.7
		c0.3-0.8,0.6-1.5,0.9-2.3c-11.1,2.9-22.4,5-33.9,6.4l-16.3,2l9-13.7c0.4-0.7,0.9-1.4,1.3-2c-11.6,0.9-23.2,1-34.6,0.4l-15.9-0.9
		l10.8-11.8c0.5-0.6,1.1-1.2,1.7-1.8c-11.5-1.1-22.9-3-34.1-5.6l-16.3-3.8l13.7-9.7c0.6-0.4,1.2-0.9,1.8-1.3
		c-11.2-3.1-22.1-7-32.6-11.5l-14.8-6.3l14.3-7.4c0.7-0.4,1.5-0.8,2.2-1.1c-10.3-4.9-20.4-10.6-30.1-16.9l-13.5-8.8l15.4-4.8
		c0.8-0.3,1.6-0.5,2.4-0.8c-9.2-6.6-18.1-13.9-26.8-21.9L20,349l16.1-2c0.8-0.1,1.7-0.2,2.5-0.3c-8-8.2-15.6-17-22.6-26.3l-9.7-12.9
		l16.1,0.8c0.8,0,1.7,0.1,2.5,0.1C18.6,299,12.6,289,7.4,278.6L0,264.1l15.9,3.8c0.8,0.2,1.6,0.4,2.4,0.5
		c-4.8-10.4-8.8-21.2-12.1-32.2l-4.6-15.4l14.8,6.3c0.7,0.3,1.3,0.6,2,0.8c-2.9-11.1-5-22.4-6.4-33.9l-2-16.2l13.7,9
		c0.7,0.5,1.4,0.9,2.1,1.3c-0.9-11.6-1-23.2-0.4-34.6l0.9-16.1l11.8,11c0.6,0.5,1.2,1.1,1.8,1.6c1.1-11.5,3-22.9,5.6-34.1l3.8-16.1
		l9.7,13.4c0.5,0.6,0.9,1.3,1.4,1.9c3.1-11.2,7-22.1,11.5-32.6l6.3-14.7l7.4,14.2c0.4,0.7,0.8,1.5,1.2,2.2
		c4.9-10.3,10.6-20.4,16.9-30.1l8.8-13.4l4.8,15.3c0.3,0.8,0.5,1.6,0.8,2.5c6.5-9.1,13.8-18.1,21.7-26.7l11.1-12.1l2,16.3
		c0.1,0.8,0.2,1.7,0.3,2.5c8.2-8,17-15.6,26.3-22.6l12.9-9.6l-0.8,16.1c0,0.8-0.1,1.7-0.1,2.5c9.4-6.5,19.4-12.4,29.8-17.6L235.5,0
		L232,15.6c-0.2,0.8-0.4,1.7-0.5,2.5c10.5-4.8,21.3-8.8,32.3-12.1L279,1.4l-6.1,14.7c-0.3,0.8-0.6,1.5-0.9,2.3
		c11.1-2.9,22.4-5,33.9-6.4l16.3-2l-9,13.7c-0.4,0.7-0.9,1.4-1.3,2c11.6-0.9,23.2-1,34.6-0.4l15.9,0.9l-10.8,11.8
		c-0.5,0.6-1.1,1.2-1.6,1.8c11.3,1.1,22.7,3,34,5.6l15.9,3.7l-13.1,9.7c-0.6,0.5-1.3,1-1.9,1.5c11.2,3.1,22.1,6.9,32.6,11.4
		l14.8,6.3l-14.3,7.4c-0.7,0.4-1.5,0.8-2.2,1.1c10.4,4.9,20.4,10.6,30.1,16.9l13.5,8.8l-15.4,4.8c-0.8,0.3-1.6,0.5-2.4,0.8
		c9.2,6.6,18.1,13.9,26.8,21.9l11.9,11.1l-16.1,2c-0.8,0.1-1.7,0.2-2.5,0.3c8,8.2,15.6,17,22.6,26.3l9.7,12.9l-16.1-0.8
		c-0.9,0-1.7-0.1-2.6-0.1c6.5,9.5,12.4,19.4,17.6,29.8l7.2,14.3l-15.6-3.5c-0.8-0.2-1.7-0.4-2.5-0.5c4.8,10.4,8.8,21.3,12.1,32.3
		l4.6,15.3l-14.7-6.1c-0.8-0.3-1.5-0.6-2.3-0.9c2.8,10.6,5,21.9,6.7,33.7l2.4,16.7l-14.1-9.3c-0.7-0.5-1.4-0.9-2.1-1.3
		c0.9,11.6,1,23.2,0.4,34.6l-0.9,15.9l-11.8-10.7c-0.6-0.5-1.2-1.1-1.8-1.7c-1.1,11.5-3,22.9-5.6,34l-3.8,16.1l-9.7-13.4
		c-0.5-0.6-0.9-1.3-1.4-1.9c-3.1,11.2-7,22.1-11.5,32.6l-6.3,14.7l-7.4-14.2c-0.4-0.7-0.8-1.5-1.2-2.2
		c-4.9,10.3-10.6,20.4-16.9,30.1l-8.8,13.4l-4.8-15.3c-0.3-0.8-0.5-1.6-0.8-2.4c-6.6,9.2-13.9,18.1-21.9,26.8l-11,11.9l-2-16.1
		c-0.1-0.8-0.2-1.7-0.3-2.5c-8.2,8.1-17,15.6-26.2,22.5l-12.9,9.6l0.8-16.1c0-0.8,0.1-1.7,0.1-2.5c-9.4,6.5-19.4,12.4-29.8,17.6
		L264.4,500z M253,458l-5.2,14.5c-0.2,0.6-0.4,1.2-0.7,1.8c9.7-3.6,19.2-7.9,28.3-12.8l13.4-7.2l-2.4,15c-0.1,0.7-0.2,1.3-0.3,2
		c9-5.3,17.6-11.2,25.7-17.4l12-9.4l0.2,15.2c0,0.7,0,1.3,0,2c7.9-6.7,15.3-14,22.3-21.7l10.2-11.2l2.9,14.9c0.1,0.7,0.3,1.3,0.4,2
		c6.8-8.2,12.9-16.7,18.2-25.2l8.1-12.9l5.4,14.3c0.2,0.6,0.5,1.3,0.7,1.9c5.1-9.1,9.6-18.4,13.5-28l5.7-14.2l7.8,13.2
		c0.3,0.6,0.7,1.1,1,1.7c3.4-9.7,6.3-19.7,8.5-29.9l3.3-14.9l9.9,11.6c0.4,0.5,0.8,1,1.2,1.5c1.7-10.2,2.7-20.5,3.1-30.8l0.5-15.2
		l11.8,9.6c0.5,0.4,1,0.8,1.5,1.3c-0.1-10.3-0.9-20.6-2.3-30.9l-2-14.9l13.2,7.2c0.5,0.3,1,0.6,1.5,0.8c-2.1-10.5-4.7-20.5-7.7-29.8
		l-4.8-14.7l14.5,5.2c0.6,0.2,1.2,0.4,1.8,0.7c-3.6-9.7-7.9-19.2-12.8-28.2l-7.2-13.5l15.1,2.4c0.7,0.1,1.4,0.2,2.1,0.3
		c-5.3-9-11.1-17.6-17.5-25.8l-9.3-12l15.1-0.2c0.7,0,1.4,0,2,0c-6.8-8-14.1-15.4-21.7-22.3l-11.3-10.2l14.9-2.9
		c0.7-0.1,1.3-0.3,2-0.4c-8.2-6.8-16.7-12.8-25.2-18.2l-13-8.1l14.3-5.4c0.6-0.2,1.3-0.5,1.9-0.7c-9.1-5.1-18.5-9.6-28-13.5
		l-14.2-5.7l13.2-7.8c0.6-0.3,1.1-0.7,1.7-1c-9.7-3.4-19.7-6.3-29.9-8.5l-14.9-3.3l11.6-9.9c0.5-0.4,1-0.8,1.5-1.2
		c-10.4-1.7-20.7-2.8-30.9-3.1l-15.4-0.5l9.7-11.9c0.4-0.5,0.8-1,1.2-1.5c-10.3,0.1-20.7,0.9-31,2.3l-14.9,2l7.2-13.2
		c0.3-0.6,0.7-1.2,1-1.8c-10.2,1.9-20.3,4.5-30.1,7.6l-14.6,4.8l5.2-14.5c0.2-0.6,0.4-1.2,0.7-1.8c-9.7,3.6-19.2,7.9-28.3,12.8
		l-13.5,7.2l2.4-15.1c0.1-0.7,0.2-1.4,0.3-2c-9,5.3-17.7,11.2-25.8,17.5l-12,9.4L176,40c0-0.7,0-1.4,0-2c-8,6.8-15.5,14.1-22.4,21.7
		l-10.2,11.2l-2.9-14.9c-0.1-0.6-0.2-1.2-0.4-1.9c-6.7,8.2-12.7,16.6-18.1,25.1L114,92.2L108.6,78c-0.2-0.6-0.5-1.3-0.7-1.9
		c-5.1,9.1-9.6,18.4-13.5,28l-5.7,14.2l-7.8-13.2c-0.3-0.6-0.7-1.1-1-1.7c-3.4,9.7-6.3,19.7-8.5,29.9l-3.3,14.9l-9.9-11.6
		c-0.4-0.5-0.8-1-1.2-1.5c-1.7,10.2-2.7,20.5-3.1,30.8l-0.5,15.2l-11.8-9.6c-0.5-0.4-1-0.8-1.5-1.3c0.1,10.3,0.9,20.6,2.3,30.9
		l2,14.9L31.2,209c-0.6-0.3-1.2-0.7-1.8-1c1.9,10.2,4.5,20.3,7.6,30l4.7,14.4l-14.3-4.8c-0.5-0.2-1.1-0.4-1.7-0.6
		c3.6,9.7,7.9,19.1,12.7,28.2l7.2,13.5l-15.1-2.4c-0.7-0.1-1.3-0.2-2-0.3c5.3,9,11.2,17.6,17.5,25.6l9.4,12l-15.2,0.2
		c-0.7,0-1.4,0-2,0c6.8,8,14.1,15.4,21.7,22.3l11.3,10.2l-14.9,2.9c-0.7,0.1-1.3,0.3-2,0.4c8.2,6.8,16.7,12.8,25.2,18.2l13,8.1
		l-14.3,5.4c-0.6,0.2-1.3,0.5-1.9,0.7c9.1,5.1,18.5,9.6,28,13.5l14.2,5.7l-13.2,7.8c-0.6,0.3-1.1,0.7-1.7,1
		c9.7,3.4,19.7,6.3,29.9,8.5l14.9,3.3l-11.6,9.9c-0.5,0.4-1,0.8-1.4,1.2c10.2,1.7,20.5,2.7,30.9,3.1l15.3,0.5l-9.7,11.8
		c-0.4,0.5-0.8,1-1.2,1.5c10.3-0.1,20.7-0.9,31-2.3l14.9-2l-7.2,13.2c-0.3,0.6-0.7,1.2-1,1.8c10.2-1.9,20.3-4.5,30.1-7.6L253,458z"
		/>
	<path d="M470,259.5c5.6,2,11.2,4.1,16.7,6.4c-4.7-15.7-11-30.7-18.4-44.7c5.9,0.9,11.7,2.1,17.7,3.4c-7.5-14.7-16.1-28.4-25.9-40.9
		c5.9-0.1,11.9,0,17.9,0.3c-9.9-13.2-20.9-25.2-32.7-35.8c5.9-1.1,11.7-2.1,17.7-2.8c-12.1-11.2-24.8-21.1-38.4-29.6
		c5.5-2.1,11.2-4.1,17-5.8c-13.9-9.1-28.2-16.5-43-22.4c5.1-3,10.4-5.9,15.7-8.7c-15.2-6.5-30.6-11.3-46.2-14.7
		c4.5-3.9,9.2-7.6,14-11.2c-16-3.8-32.1-5.9-48.1-6.4c3.8-4.6,7.7-9.1,11.8-13.5c-16.5-0.9-32.7-0.2-48.4,2
		c2.8-5.2,5.9-10.4,9.3-15.4c-16.4,2-32.2,5.5-47.3,10.4c2-5.6,4.2-11.2,6.4-16.7c-15.8,4.7-30.8,10.9-44.7,18.4
		c0.9-5.8,2.1-11.7,3.4-17.6c-14.7,7.4-28.4,16.1-41,25.9c-0.1-5.9,0-11.9,0.3-17.9c-13.2,9.9-25.2,20.8-35.9,32.6
		c-1.1-5.8-2.1-11.7-2.8-17.7c-11,12.1-21,24.9-29.5,38.4c-2.1-5.5-4.1-11.2-5.9-17c-9.1,13.9-16.5,28.2-22.5,42.9
		c-3-5.1-5.9-10.4-8.7-15.7c-6.5,15.2-11.3,30.6-14.7,46.1c-3.9-4.5-7.7-9.1-11.2-14c-3.8,16-5.9,32.1-6.4,48
		c-4.6-3.8-9.2-7.7-13.5-11.8c-0.9,16.5-0.2,32.6,2,48.4c-5.2-2.8-10.4-5.9-15.4-9.2c2,16.4,5.5,32.2,10.4,47.2
		c-5.3-1.8-10.9-4-16.4-6.3c4.7,15.7,11,30.7,18.4,44.7c-5.9-0.9-11.7-2.1-17.7-3.5c7.5,14.7,16.1,28.4,26,40.9
		c-5.9,0.1-11.9,0-17.9-0.3C32.1,329,43,341,54.8,351.7c-5.9,1.1-11.7,2.1-17.7,2.8c12.1,11.2,24.8,21.1,38.4,29.6
		c-5.5,2.1-11.2,4.1-17,5.8c13.9,9.1,28.2,16.5,43,22.4c-5.1,3-10.4,5.9-15.7,8.7c15.2,6.5,30.6,11.3,46.2,14.7
		c-4.5,3.9-9.1,7.7-14,11.2c16,3.8,32.1,5.8,48.1,6.4c-3.8,4.6-7.7,9.1-11.8,13.5c16.5,0.9,32.7,0.2,48.4-2
		c-2.8,5.2-5.9,10.4-9.3,15.4c16.4-2,32.2-5.5,47.3-10.4c-2,5.6-4.2,11.2-6.4,16.7c15.8-4.7,30.8-10.9,44.7-18.4
		c-0.9,5.9-2.1,11.7-3.5,17.6c14.7-7.4,28.4-16.1,41-25.9c0.1,5.9,0,11.9-0.3,17.9c13.2-9.9,25.1-20.8,35.8-32.6
		c1.1,5.8,2.1,11.7,2.8,17.7c11.2-12.1,21.1-24.8,29.6-38.4c2.1,5.5,4.1,11.2,5.9,17c9.1-13.9,16.5-28.2,22.5-42.9
		c3,5.1,5.9,10.4,8.7,15.7c6.5-15.2,11.3-30.6,14.7-46.1c3.9,4.5,7.7,9.1,11.2,14c3.8-16,5.9-32.1,6.4-48c4.6,3.8,9.1,7.7,13.5,11.8
		c0.9-16.5,0.2-32.6-2-48.4c5.2,2.8,10.4,5.9,15.4,9.2C478.4,290.4,475,274.5,470,259.5"/>
	<g>
		<path class="st1" d="M250,426.1c-34.9,0-67.4-10.2-94.8-27.6h-16.6c31.2,23.3,69.7,37.2,111.5,37.2c41.7,0,80.3-13.9,111.5-37.2
			H345C317.5,415.9,284.9,426.1,250,426.1z"/>
		<path class="st1" d="M250,73.8c25.8,0,50.1,5.6,72.2,15.5c8.3,0.3,16.5,0.9,24.3,2c-28.1-17.2-61.2-27.1-96.5-27.1
			c-33.7,0-65.1,9.1-92.4,24.7h20.9C200.3,79.2,224.6,73.8,250,73.8z"/>
		<path class="st1" d="M415.9,166.3c0.2,6.6-0.1,13.7-0.9,21.3c7.4,19.4,11.4,40.4,11.4,62.3c0,28.9-7,56.1-19.3,80.2l-4.6,25.9
			c21.1-30.1,33.4-66.6,33.4-106.1C436,219.8,428.7,191.5,415.9,166.3z"/>
		<path class="st1" d="M64.1,249.9c0,31.4,7.8,60.9,21.6,86.9l2.8-15.9c-9.5-21.7-14.9-45.6-14.9-70.9c0-47.2,18.7-90.1,48.9-121.6
			l2.8-15.9C87.9,146.3,64.1,195.4,64.1,249.9z"/>
	</g>
	<g>
		<path class="st0" d="M387.1,197.5c13.6-77.1-25.7-82.4-83.7-82.4H151.5l-9.7,55.2h218.6l-45.6,14c0.8,4.2,0.7,9.8-0.7,17
			c-4.6,25.8-16,32.7-31.6,32.7h-53.2l46.3,84.6l-9.4,53.8h107.1l9.4-53.8h-23.4l-27.4-49.2C363.6,258.7,379.9,238,387.1,197.5z"/>
		<polygon class="st0" points="233,190.8 159.3,203.2 139,318.5 115.6,318.5 106.1,372.2 224.3,372.2 233.8,318.5 210.4,318.5 		"/>
	</g>
</g>
</svg>
