<?xml version="1.0" encoding="utf-8"?><svg xmlns="http://www.w3.org/2000/svg" viewBox="-205 319 200 156"><path class="st0" fill="#FFF" d="M-64.4 326v34.6h7.6l-9.9 52L-87 326h-36l-20.3 86.6-9.9-52h7.6V326h-52.9v34.6h9.7l23.9 107.5h37.1l22.8-86.4 22.8 86.4h37.1l23.9-107.5h9.7V326"/><path class="st1" d="M-70.9 319.5v47.1l-11-47.1H-128l-11.1 47.1v-47.1H-205V367h11l23.9 107.5h47.3L-105 407l17.8 67.5h47.3L-16 367h11v-47.5h-65.9zm6.3 47.5l-2.8 14.5-3.4-14.5h6.2zm-74.7 0l-3.4 14.5-2.8-14.5h6.2zm127.8-6.4h-9.7l-23.9 107.5h-37.1l-22.8-86.3-22.8 86.3h-37.1l-23.9-107.5h-9.7V326h52.9v34.6h-7.6l9.9 52 20.4-86.6H-87l20.4 86.6 9.9-52h-7.6V326h52.9v34.6h-.1zm-24.8 107.8h2v6.1h.7v-6.1h2.1v-.7h-4.8m8.7 5.5l-1.8-5.5h-1.1v6.8h.7v-5.8l1.8 5.8h.8l1.8-5.8v5.8h.7v-6.8h-1.2" fill="#BE955B"/></svg>