<?xml version="1.0" encoding="utf-8"?>
<!-- Generator: Adobe Illustrator 21.1.0, SVG Export Plug-In . SVG Version: 6.00 Build 0)  -->
<!DOCTYPE svg PUBLIC "-//W3C//DTD SVG 1.1//EN" "http://www.w3.org/Graphics/SVG/1.1/DTD/svg11.dtd">
<svg version="1.1" id="Layer_1" xmlns="http://www.w3.org/2000/svg" xmlns:xlink="http://www.w3.org/1999/xlink" x="0px" y="0px"
	 width="561.2px" height="435.1px" viewBox="0 0 561.2 435.1" style="enable-background:new 0 0 561.2 435.1;" xml:space="preserve"
	>
<style type="text/css">
	.st0{fill:#FFFFFF;}
	.st1{fill:#0D2240;}
</style>
<g>
	<polygon class="st0" points="394.7,18.1 394.7,115.4 416,115.4 388.3,261.2 331.1,18.1 230.3,18.1 173.2,261.2 145.4,115.4 
		166.7,115.4 166.7,18.1 18.2,18.1 18.2,115.4 45.4,115.4 112.5,416.9 216.7,416.9 280.7,174.5 344.7,416.9 448.9,416.9 516,115.4 
		543.2,115.4 543.2,18.1 	"/>
	<path class="st1" d="M376.5,0v132.2L345.4,0H215.9l-31.1,132.2V0H0v133.5h30.8L98,435.1h132.6l50-189.6l50,189.5h132.6l67.2-301.6
		h30.8V0H376.5z M394.1,133.5l-7.8,40.7l-9.6-40.7H394.1z M184.5,133.5l-9.6,40.7l-7.8-40.7H184.5z M543.2,115.4h-27.1L448.9,417
		H344.7l-64-242.5l-64,242.4H112.5L45.4,115.4H18.2V18.1h148.6v97.3h-21.4l27.8,145.8l57.1-243h100.8l57.2,243l27.8-145.8h-21.4
		V18.1h148.6L543.2,115.4L543.2,115.4z"/>
</g>
</svg>
