<?xml version="1.0" encoding="utf-8"?>
<!-- Generator: Adobe Illustrator 21.1.0, SVG Export Plug-In . SVG Version: 6.00 Build 0)  -->
<!DOCTYPE svg PUBLIC "-//W3C//DTD SVG 1.1//EN" "http://www.w3.org/Graphics/SVG/1.1/DTD/svg11.dtd">
<svg version="1.1"
	 id="svg2" xmlns:cc="http://creativecommons.org/ns#" xmlns:dc="http://purl.org/dc/elements/1.1/" xmlns:rdf="http://www.w3.org/1999/02/22-rdf-syntax-ns#"
	 xmlns="http://www.w3.org/2000/svg" xmlns:xlink="http://www.w3.org/1999/xlink" x="0px" y="0px" width="309.2px" height="263.6px"
	 viewBox="0 0 309.2 263.6" style="enable-background:new 0 0 309.2 263.6;" xml:space="preserve">
<style type="text/css">
	.st0{fill:#E3D4AD;}
	.st1{fill:#A71930;}
</style>
<g>
	<path class="st0" d="M179.2,263.6l25.2-34.7l-0.2-0.2c-7.6-9.2-25.6-31.1-31.5-38.2c-7.5,6.2-31.6,26-45.1,37.1l-4.4,3.7l15,31.8H0
		L166.5,0h84l58.7,263.6H179.2z M121.3,227.1l1.9-3.3c0.3-0.5,27.3-47.3,32-55.5c-0.2-1-0.6-2.4-1.1-4.3c-0.1-0.3-0.2-0.7-0.3-1
		l-35.1,58.8L121.3,227.1z M193.3,172.4c2.3,7.6,12.3,40.8,15.3,50.8l1.3-1.8l-12.1-56.1C196.1,168,194.4,170.8,193.3,172.4z
		 M194.6,149.6l-7.9-36.4h-3.4l-21.7,36.4H194.6z"/>
	<path id="path16" class="st0" d="M115.3,221.6l39.6-66.4c1.1,4.1,3,12.2,3.4,13.5c-1.9,3.4-32.6,56.6-32.6,56.6s45.2-37.3,47.4-39
		c0.8,0.9,33.4,40.5,33.4,40.5s-15.4-51.4-16.5-54.9c0.9-1.3,6-9.4,9.2-14.6l13.9,64.7L185,260.6h120.4L248,3h-79.9L5.4,260.1h128.1
		L115.3,221.6z M156.3,152.6l25.3-42.4h7.5l9.2,42.4H156.3z"/>
	<path id="path18" d="M179.8,13.1h59.6l52.7,237h-85.7l19.3-25.9l-27.6-123h-22.7L102,221.8l13.7,28.1H30.9l-8.4,5.1h102.4
		l-16.3-33.4l69.6-115.9h15l26.4,117.2L196.1,255h102.6L243.9,7.9h-67.5L179.8,13.1z"/>
	<path id="path20" d="M91.3,206.8l8.8-5.6l-15.8-37.7l50.4-31.5l-17.4-30.8L166,77.6L150.4,50l37.5-16.7l-13.7-20.1L171,8.7
		L14.6,255L91.3,206.8z"/>
	<path id="path22" class="st1" d="M163.8,169.3c-1.5,2.6-19.3,33.2-19.3,33.2s25.3-21,28.9-23.8c2.6,3,20.4,24.6,20.4,24.6
		s-8.8-29.6-9.6-32.4c1.3-2.1,8.1-13.1,8.1-13.1H161C161,157.9,163.3,167.1,163.8,169.3"/>
	<path id="path24" class="st1" d="M102,221.8l73.3-120.6H198l27.6,123l-19.2,25.9h85.7l-52.7-237h-59.6l14.8,22.5l-37.1,16.7
		l15.9,27.6l-48.7,23.4l16.3,30L90.7,165l15.6,38.1l-75.4,46.7h84.9L102,221.8z"/>
</g>
</svg>
