<?xml version="1.0" encoding="utf-8"?>
<!-- Generator: Adobe Illustrator 21.1.0, SVG Export Plug-In . SVG Version: 6.00 Build 0)  -->
<!DOCTYPE svg PUBLIC "-//W3C//DTD SVG 1.1//EN" "http://www.w3.org/Graphics/SVG/1.1/DTD/svg11.dtd">
<svg version="1.1"
	 id="svg2" xmlns:cc="http://creativecommons.org/ns#" xmlns:dc="http://purl.org/dc/elements/1.1/" xmlns:rdf="http://www.w3.org/1999/02/22-rdf-syntax-ns#" xmlns:svg="http://www.w3.org/2000/svg"
	 xmlns="http://www.w3.org/2000/svg" xmlns:xlink="http://www.w3.org/1999/xlink" x="0px" y="0px" width="300px" height="205px"
	 viewBox="0 0 300 205" style="enable-background:new 0 0 300 205;" xml:space="preserve">
<style type="text/css">
	.st0{fill:#C6011F;}
	.st1{fill:#FFFFFF;}
</style>
<g>
	<path id="path14" class="st0" d="M168.6,205c83.5,0,131.4-54.5,131.4-104C300,41.7,233.9,0,163.2,0c-56.7,0-96,33.5-117.5,58.9
		C16.2,94,0,98.4,0,98.4c22.7,20,33.5,30.1,44.1,41.5C73.8,172,98.4,205,168.6,205"/>
	<path id="path16" d="M167.1,191c-60.6,0-84.6-26-112.6-55.9C43,122.8,35.7,111.9,17.1,98.1l3.8,8.9c17.9,14.7,25.3,25.3,36.9,37.6
		c28.2,29.7,51.6,53.1,112.2,53.1c53.1,0,94.3-26.3,113.6-58.6l-2.9-6.8C261.4,164.7,220.2,191,167.1,191"/>
	<path id="path18" d="M168.6,39.1c-59.3,0-82.5,39.3-82.5,58.3c0,10.9,3.2,20.5,8.5,28.7c-3.6-6.7-4.4-16.7-4.4-23.2
		c0-19,22.4-56.9,80.5-56.9c34.9,0,61.2,16.1,70,30.1h43.9c-0.9-1.5-2.7-6.8-2.7-6.8h-42C231.2,55.2,203.5,39.1,168.6,39.1"/>
	<path id="path20" class="st1" d="M54.5,135.1c28,29.9,51.9,55.9,112.6,55.9c53.1,0,94.3-26.3,113.6-58.6h-41.5
		c-19.5,14.7-43.2,26.6-73.5,26.6c-27.9,0-57.1-11.6-71.1-33c-5.5-8.2-8.5-17.8-8.5-28.7c0-19,23.2-58.3,82.7-58.3
		c34.8,0,62.5,16.1,71.2,30.1h41.9C262.4,30.8,212.2,7.7,162,7.7c-49.4,0-87,28.5-108.7,54.2C24.6,95.7,17.1,98.1,17.1,98.1
		C35.7,111.9,43,122.8,54.5,135.1"/>
	<path id="path22" d="M193.4,93.4H184V89h-13.8v9.1h4.6v-4.4h9l4.8,4.4h9.4V85.8l-4.6-4.6V93.4z"/>
	<path id="path24" d="M154.6,122.7l4.4,4.6h39v-12.1l-4.6-4.6v12.1L154.6,122.7z"/>
	<path id="path26" d="M170.2,105.9v9.1h4.6v-4.5h11.4v-7.9l-4.6-4.6v7.9H170.2z"/>
	<path id="path28" d="M154.6,89l4.4,4.6h1.7V89H154.6z"/>
	<path id="path30" d="M101.3,89l4.6,4.6h1.5V89L101.3,89z"/>
	<path id="path32" d="M101.3,122.7l4.6,4.6h21.7v-7.7L123,115v7.7H101.3z"/>
	<path id="path34" d="M134.6,103.9l4.9,11.1h2.6l-2.9-6.5l7-5.8v-9l-4.6-4.6v9.1L134.6,103.9z"/>
	<path id="path36" d="M116.9,105.9v9.1h4.6v-4.6h6.1l-2-4.4H116.9z"/>
	<path id="path38" d="M144.7,122.7h-11.8l4.4,4.6h12v-7.7l-4.6-4.6V122.7z"/>
	<path id="path40" d="M132.2,93.6v-2.6l-2.4-2.1h-13v9.2h4.6v-4.6H132.2z"/>
	<path id="path42" class="st1" d="M170.2,89H184v4.4h9.4V81.2h-38.8V89h6.1v26h-6.1v7.7h38.8v-12.1H184v4.5h-13.8v-9.1h11.5v-7.9
		h-11.5V89z"/>
	<path id="path44" class="st1" d="M144.7,115h-5.1l-4.8-11.3l6.8-5.6V89l-9.4-7.9h-30.9V89h6.1v26h-6.1v7.7H123V115h-6.3v-9.1h8.9
		l2,4.6l5.3,12.3h11.8V115z M121.5,98.2h-4.6v-9.1h13l2.4,2.1v5.3l-2.2,1.9h-8.5L121.5,98.2z"/>
	<path id="path46" d="M203.3,89l4.4,4.6h1.7V89H203.3z"/>
	<path id="path48" d="M232.7,93.6v-2.6l-2.4-2.1h-11.6v26h4.6V93.6H232.7z"/>
	<path id="path50" d="M241.9,115l-9.2,7.7h-29.4l4.4,4.6h26.5l12.3-10.1V93.6l-4.6-4.6V115z"/>
	<path id="path52" d="M272.7,105.9h-11.8l-9.2-7.9l14.7,12.5h8.7V108L272.7,105.9z"/>
	<path id="path54" d="M288.9,110.5l-4.6-4.6v8.9l-9.2,8h-11.8l-2.4-2.2v2.2h-9.2l4.4,4.6h9.4v-2.2l2.4,2h9l12-9.9V110.5z"/>
	<path id="path56" d="M275.1,93.4v-2.4l-2.4-2.1h-9.2l-2.4,2.1v5.1l2.4,1.9h2.2v-2.4l2.4-2h6.8l4.8,4.4h9.2V85.8l-4.6-4.6v12.3
		H275.1z"/>
	<path id="path58" d="M263.1,115h2.6l-4.8-4.5v2.6L263.1,115z"/>
	<path id="path60" class="st1" d="M241.9,115V89l-9.4-7.9h-29.2V89h6.1v26h-6.1v7.7h29.4L241.9,115z M223.3,115h-4.6V89h11.6
		l2.4,2.1v22l-2.2,1.9H223.3z"/>
	<path id="path62" class="st1" d="M260.9,120.6l2.4,2.2h11.8l9.2-8v-8.9l-9.4-7.9h-11.5l-2.4-1.9v-5.1l2.4-2.1h9.2l2.4,2.1v2.4h9.2
		V81.2h-9.2v2l-2.4-2h-11.6l-9.4,7.9v9.1l9.2,7.9h11.8l2.4,2v5.1l-2.2,1.9h-9.7l-2.2-1.9v-2.6h-9.2v12.3h9.2V120.6z"/>
</g>
</svg>
