<?xml version="1.0" encoding="utf-8"?>
<!-- Generator: Adobe Illustrator 21.1.0, SVG Export Plug-In . SVG Version: 6.00 Build 0)  -->
<!DOCTYPE svg PUBLIC "-//W3C//DTD SVG 1.1//EN" "http://www.w3.org/Graphics/SVG/1.1/DTD/svg11.dtd">
<svg version="1.1" id="Layer_1" xmlns="http://www.w3.org/2000/svg" xmlns:xlink="http://www.w3.org/1999/xlink" x="0px" y="0px"
	 width="300px" height="363px" viewBox="0 0 300 363" style="enable-background:new 0 0 300 363;" xml:space="preserve">
<style type="text/css">
	.st0{fill:#C4CED4;}
	.st1{fill:#333366;}
</style>
<g>
	<path class="st0" d="M275.2,337.5c-12.3-12.2-34.7-76.3-53.4-80.6c6.9-3.4,50-13.3,50.4-59.9c0-50.4-46.6-66.9-93.3-67
		c-9.9,0-28,0.6-46.4,1.7c-23.3,1.4-35.3,2.4-53.1,3.8l-0.1,17.1c25.1,0.1,30.3,6,30.2,33.3l-0.1,32.7c-34.5-7.4-57-46-56.9-100
		c0.2-57.2,27.2-97.3,66.4-97.2c14.8,0,27.7,6,38,16.7c10.3,10.7,17.6,26.3,20.8,45.1l13.9,0.1l-2.4-77.1l-10.9,0
		c-1.2,3.7-2.7,5.2-5.3,5.1c-7.4,0-24.7-11.1-56.3-11.3c-34.3-0.1-63.5,12.3-84,34.4C12,56.9,0.1,87.4,0,124.3
		c-0.1,25.5,7.2,54.3,24,77.2c16.7,22.9,43.8,39.6,83.4,39.8c0.7,0,1.3-0.1,2-0.1l-0.2,71.9c-0.1,26.6-6,32-30.5,31.9l-0.1,17.2
		l110.5,0.4l0.1-17.1c-22.8-0.1-31.2-3.4-31.1-30.4l0.2-48.8l15.4,0.1c0,0,56.6,96.5,58.2,96.5c4,0,68,0.2,68,0.2l0.1-17
		C300,346,287.1,348,275.2,337.5L275.2,337.5z M158.3,248.4l0-12.1c1.1,0,2.2-0.1,3.3-0.1c3.5,0,6.8,0,9.4,0.8
		c2.9,0.4,5.9,1.1,8.5,2.2l0.9-2.6c8.6-25.1,15.8-52.4,18.2-73.4l-13.9,0c-7.1,18.9-16,33-26.5,42.4l0.2-58.3l14.3,0
		c28.3,0.1,43.1,19.1,43,47.9C215.8,233,200.6,249.3,158.3,248.4L158.3,248.4z"/>
	<path class="st1" d="M72.5,22.9c0,0-60,23.3-60.3,99.6c-0.3,78.2,57.4,93.2,57.4,93.2S40,178.3,40.3,118.3
		C40.6,53.6,72.5,22.9,72.5,22.9"/>
	<polyline class="st1" points="121,345.2 121.6,149.8 146.8,148.2 146.1,345.3 121,345.2 	"/>
	<path class="st1" d="M257.3,198c0,38.4-47,47.9-47,47.9s17.4-10.4,17.5-47.6c0.1-37.5-16.4-48.2-16.4-48.2S257.3,154.4,257.3,198"
		/>
	<path class="st1" d="M210.9,260.8c12.7,6.5,30.8,34.9,40.4,58.1c10.4,21,17.8,27,17.8,27l-35.9-0.2c0,0-32.3-58.1-47.1-78.9
		c0,0,10.9-1.7,16.3-3.2C207.4,262.2,210.9,260.8,210.9,260.8"/>
</g>
</svg>
