<?xml version="1.0" encoding="utf-8"?>
<!-- Generator: Adobe Illustrator 21.1.0, SVG Export Plug-In . SVG Version: 6.00 Build 0)  -->
<!DOCTYPE svg PUBLIC "-//W3C//DTD SVG 1.1//EN" "http://www.w3.org/Graphics/SVG/1.1/DTD/svg11.dtd">
<svg version="1.1"
	 id="Layer_1" xmlns:cc="http://creativecommons.org/ns#" xmlns:dc="http://purl.org/dc/elements/1.1/" xmlns:rdf="http://www.w3.org/1999/02/22-rdf-syntax-ns#"
	 xmlns="http://www.w3.org/2000/svg" xmlns:xlink="http://www.w3.org/1999/xlink" x="0px" y="0px" width="310px" height="474.2px"
	 viewBox="0 0 310 474.2" style="enable-background:new 0 0 310 474.2;" xml:space="preserve">
<style type="text/css">
	.st0{fill:#FFFFFF;}
	.st1{fill:#154281;}
	.st2{fill:#B69254;}
</style>
<g>
	<path class="st0" d="M154.8,474.2c-0.9,0-1.7-0.2-2.5-0.7L12.7,391.8c-1.5-0.9-2.5-2.5-2.5-4.3V137.6c-0.1-0.4-0.2-0.9-0.2-1.4v-85
		c-6.3-5.5-10-13.6-10-22C0,13.1,13.1,0,29.2,0c16,0,29.2,13,29.3,29.1c0,8.6-3.8,16.8-10.3,22.4v3.4c0,13,10.5,23.5,23.3,23.5
		s23.3-10.5,23.3-23.4v-3.6c-6.4-5.5-10.2-13.6-10.2-22.1C84.6,13.1,97.7,0,113.7,0c16,0,29.3,13.1,29.5,29.1c0,9-4.1,17.4-11,22.9
		v2.8c0,13,10.4,23.5,23.2,23.5c12.8,0,23.3-10.5,23.3-23.4v-3.3c-6.6-5.5-10.4-13.7-10.4-22.4c0-16.1,13.1-29.2,29.2-29.2
		s29.2,13.1,29.2,29.2c0,8.8-4,17.1-10.8,22.7v3c0,12.9,10.4,23.4,23.2,23.4c12.8,0,23.3-10.5,23.3-23.4v-3.1
		c-6.8-5.6-10.8-13.9-10.8-22.7c0-16.1,13.1-29.2,29.2-29.2S310,13.1,310,29.2c0,8.8-3.9,17-10.6,22.5v335.8c0,1.8-0.9,3.4-2.5,4.3
		l-139.6,81.7C156.5,474,155.7,474.2,154.8,474.2z"/>
	<path class="st0" d="M305,29.2C305,15.9,294.1,5,280.8,5c-13.4,0-24.2,10.9-24.2,24.2c0,8.4,4.3,15.8,10.8,20.2V55
		c0,15.7-12.7,28.4-28.3,28.4S210.9,70.6,210.9,55v-5.5c6.5-4.4,10.8-11.8,10.8-20.2c0-13.4-10.9-24.2-24.2-24.2
		c-13.4,0-24.2,10.9-24.2,24.2c0,8.2,4.1,15.5,10.4,19.9V55c0,15.7-12.7,28.4-28.3,28.4s-28.2-12.8-28.2-28.5v-5.4
		c6.6-4.3,11-11.8,11-20.3C138,15.9,127.1,5,113.7,5c-13.3,0-24.1,10.9-24.1,24.2c0,8.1,4,15.3,10.2,19.7v6
		c0,15.7-12.7,28.4-28.3,28.4S43.2,70.5,43.2,54.8V49c6.2-4.4,10.3-11.7,10.3-19.9C53.4,15.9,42.6,5,29.2,5S5,15.9,5,29.2
		c0,8.1,4,15.2,10,19.6v87.4h0.2v251.3l139.6,81.7l139.6-81.7V126l0,0V49.2C300.8,44.9,305,37.5,305,29.2z"/>
	<polygon class="st1" points="23.9,134.6 23.9,382.6 154.9,459.2 285.8,382.6 285.8,134.6 	"/>
	<path class="st2" d="M29.2,13.7c-8.6,0-15.5,7-15.5,15.5s7,15.6,15.5,15.6c8.6,0,15.5-7,15.5-15.6C44.8,20.6,37.8,13.7,29.2,13.7
		L29.2,13.7z M113.8,13.7c-8.6,0-15.5,7-15.5,15.5s6.9,15.6,15.5,15.6s15.6-7,15.6-15.6C129.3,20.6,122.4,13.7,113.8,13.7
		L113.8,13.7z M197.3,13.7c-8.6,0-15.6,7-15.6,15.5s7,15.6,15.6,15.6s15.5-7,15.5-15.6C212.9,20.6,205.9,13.7,197.3,13.7L197.3,13.7
		z M280.8,13.7c-8.6,0-15.5,7-15.5,15.5s7,15.6,15.5,15.6c8.6,0,15.5-7,15.5-15.6S289.4,13.7,280.8,13.7L280.8,13.7z M23.7,54.8
		v72.9h262.1V55h-6.6H276c0,20.5-16.6,37.1-37,37.1S202.1,75.4,202.1,55h-9.9c0,20.5-16.6,37.1-37,37.1s-36.9-16.7-36.9-37.2
		l-9.9,0.1c0,20.5-16.6,37.1-37,37.1s-37-16.7-37-37.2L23.7,54.8L23.7,54.8z"/>
	<path d="M72.3,206.6c0-14.2-9.5-18.7-18.1-18.7l-2.8-0.1v-7.3h32.2h23.6v7.5c-8,0.6-16.2,5.5-16.2,18.6v44.1l3.9-2.2
		c8-11.3,29.1-41.4,33.5-50.1c5.4-10.6-2.8-10.6-10.7-10.6v-7.4h49.4v7.4h-3.5c-5.4,0-12,0-20.9,11c-11.3,14-33.9,48-33.9,48
		c34.6,2.6,47.5,50,56.4,56.4c-5.1-33.9,20-76.1,56.7-74.5c4.1,0.2,9.2-0.3,20.9,2.9s12.8-2.6,14.4-9h8.8v55.8h-7.6
		c-0.6-9.7-5.4-41.6-36.4-42.6c-31.5-1-37.4,35.5-37.8,60.3c-1.6,91.9,62.5,89,74.2,59.3c1.7-4.3,1-5.5-1-6.5
		c-13.9-6.7,2.2-24.8,11.2-9c4.1,7.2-3.3,41.6-41.6,41.6c-59.6,0-77-83.2-99.2-110.3c-17.3-21.1-31.4-11.6-36.7-6.5l-0.2,14.5
		L91,305c0,14.2,9.6,18.7,18.1,18.7l2.8,0.1v7.4H81.7H51.4V324l2.8-0.1c8.6,0.1,18.1-4.4,18.1-18.7V206.6"/>
	<path class="st0" d="M67.1,201.3c0-14.2-9.5-18.7-18.1-18.7l-2.8-0.1v-7.4h32.2H102v7.5c-8,0.6-16.2,5.5-16.2,18.6v44.2l3.9-2.2
		c8-11.3,29.1-41.4,33.5-50c5.4-10.6-2.8-10.6-10.8-10.6v-7.4h49.4v7.4h-3.5c-5.4,0-12,0-20.9,11c-11.4,14-33.9,48-33.9,48
		c34.6,2.6,47.5,50,56.4,56.4c-5-33.9,20-76.1,56.7-74.5c4.1,0.2,9.2-0.3,20.9,2.9s12.8-2.6,14.4-9h8.8v55.8h-7.6
		c-0.6-9.7-5.4-41.6-36.4-42.6c-31.5-1-37.4,35.5-37.8,60.3c-1.6,91.9,62.4,89,74.2,59.3c1.7-4.3,0.9-5.5-0.9-6.5
		c-13.9-6.8,2.2-24.8,11.2-9c4.1,7.3-3.3,41.6-41.6,41.6c-59.6,0-77-83.2-99.2-110.3c-17.3-21.1-31.4-11.6-36.7-6.5L85.7,274
		l0.1,25.8c0,14.2,9.5,18.7,18.1,18.6l2.8,0.1v7.4H76.5H46.2v-7.4l2.8-0.1c8.6,0.1,18.1-4.5,18.1-18.6V201.3"/>
</g>
</svg>
