<?xml version="1.0" encoding="utf-8"?>
<!-- Generator: Adobe Illustrator 21.1.0, SVG Export Plug-In . SVG Version: 6.00 Build 0)  -->
<!DOCTYPE svg PUBLIC "-//W3C//DTD SVG 1.1//EN" "http://www.w3.org/Graphics/SVG/1.1/DTD/svg11.dtd">
<svg version="1.1"
	 id="Layer_1" xmlns:cc="http://creativecommons.org/ns#" xmlns:dc="http://purl.org/dc/elements/1.1/" xmlns:rdf="http://www.w3.org/1999/02/22-rdf-syntax-ns#"
	 xmlns="http://www.w3.org/2000/svg" xmlns:xlink="http://www.w3.org/1999/xlink" x="0px" y="0px" width="300px" height="464.3px"
	 viewBox="0 0 300 464.3" style="enable-background:new 0 0 300 464.3;" xml:space="preserve">
<style type="text/css">
	.st0{fill:#FFFFFF;}
	.st1{fill:#154281;}
	.st2{fill:#B69254;}
</style>
<g>
	<path class="st0" d="M300,24.2C300,10.9,289.1,0,275.8,0c-13.4,0-24.2,10.9-24.2,24.2c0,8.4,4.3,15.8,10.8,20.2V50
		c0,15.7-12.7,28.4-28.3,28.4c-15.6,0-28.2-12.8-28.2-28.4v-5.5c6.5-4.4,10.8-11.8,10.8-20.2c0-13.4-10.9-24.2-24.2-24.2
		c-13.4,0-24.2,10.9-24.2,24.2c0,8.2,4.1,15.5,10.4,19.9v5.8c0,15.7-12.7,28.4-28.3,28.4c-15.6,0-28.2-12.8-28.2-28.5v-5.4
		c6.6-4.3,11-11.8,11-20.3C133,10.9,122.1,0,108.7,0C95.4,0,84.6,10.9,84.6,24.2c0,8.1,4,15.3,10.2,19.7v6
		c0,15.7-12.7,28.4-28.3,28.4c-15.6,0-28.3-12.8-28.3-28.5v-5.8c6.2-4.4,10.3-11.7,10.3-19.9C48.4,10.9,37.6,0,24.2,0S0,10.9,0,24.2
		c0,8.1,4,15.2,10,19.6v87.4h0.2v251.3l139.6,81.7l139.6-81.7V121h0V44.2C295.8,39.9,300,32.5,300,24.2z"/>
	<polygon class="st1" points="18.9,129.6 18.9,377.6 149.9,454.2 280.8,377.6 280.8,129.6 18.9,129.6 	"/>
	<path class="st2" d="M24.2,8.7c-8.6,0-15.5,7-15.5,15.5s7,15.6,15.5,15.6c8.6,0,15.5-7,15.5-15.6C39.8,15.6,32.8,8.7,24.2,8.7
		L24.2,8.7z M108.8,8.7c-8.6,0-15.5,7-15.5,15.5s6.9,15.6,15.5,15.6c8.6,0,15.6-7,15.6-15.6C124.3,15.6,117.4,8.7,108.8,8.7
		L108.8,8.7z M192.3,8.7c-8.6,0-15.6,7-15.6,15.5s7,15.6,15.6,15.6c8.6,0,15.5-7,15.5-15.6C207.9,15.6,200.9,8.7,192.3,8.7
		L192.3,8.7z M275.8,8.7c-8.6,0-15.5,7-15.5,15.5s7,15.6,15.5,15.6c8.6,0,15.5-7,15.5-15.6C291.3,15.6,284.4,8.7,275.8,8.7
		L275.8,8.7z M18.7,49.8v72.9h262.1V50h-6.6H271c0,20.5-16.6,37.1-37,37.1c-20.4,0-36.9-16.7-36.9-37.1h-9.9
		c0,20.5-16.6,37.1-37,37.1c-20.4,0-36.9-16.7-36.9-37.2l-9.9,0.1c0,20.5-16.6,37.1-37,37.1c-20.4,0-37-16.7-37-37.2L18.7,49.8
		L18.7,49.8z"/>
	<path d="M67.3,201.6c0-14.2-9.5-18.7-18.1-18.7l-2.8-0.1v-7.3h32.2h23.6v7.5c-8,0.6-16.2,5.5-16.2,18.6l0,44.1l3.9-2.2
		c8-11.3,29.1-41.4,33.5-50.1c5.4-10.6-2.8-10.6-10.7-10.6v-7.4h49.4v7.4h-3.5c-5.4,0-12,0-20.9,11c-11.3,14-33.9,48-33.9,48
		c34.6,2.6,47.5,50,56.4,56.4c-5.1-33.9,20-76.1,56.7-74.5c4.1,0.2,9.2-0.3,20.9,2.9c11.7,3.2,12.8-2.6,14.4-9h8.8v55.8h-7.6
		c-0.6-9.7-5.4-41.6-36.4-42.6c-31.5-1-37.4,35.5-37.8,60.3c-1.6,91.9,62.5,89,74.2,59.3c1.7-4.3,1-5.5-1-6.5
		c-13.9-6.7,2.2-24.8,11.2-9c4.1,7.2-3.3,41.6-41.6,41.6c-59.6,0-77-83.2-99.2-110.3c-17.3-21.1-31.4-11.6-36.7-6.5l-0.2,14.5
		l0.1,25.8c0,14.2,9.6,18.7,18.1,18.7l2.8,0.1v7.4H76.7H46.4V319l2.8-0.1c8.6,0.1,18.1-4.4,18.1-18.7L67.3,201.6"/>
	<path class="st0" d="M62.1,196.3c0-14.2-9.5-18.7-18.1-18.7l-2.8-0.1v-7.4h32.2H97v7.5c-8,0.6-16.2,5.5-16.2,18.6l0,44.2l3.9-2.2
		c8-11.3,29.1-41.4,33.5-50c5.4-10.6-2.8-10.6-10.8-10.6v-7.4h49.4v7.4h-3.5c-5.4,0-12,0-20.9,11c-11.4,14-33.9,48-33.9,48
		c34.6,2.6,47.5,50,56.4,56.4c-5-33.9,20-76.1,56.7-74.5c4.1,0.2,9.2-0.3,20.9,2.9c11.7,3.2,12.8-2.6,14.4-9h8.8v55.8h-7.6
		c-0.6-9.7-5.4-41.6-36.4-42.6c-31.5-1-37.4,35.5-37.8,60.3c-1.6,91.9,62.4,89,74.2,59.3c1.7-4.3,0.9-5.5-0.9-6.5
		c-13.9-6.8,2.2-24.8,11.2-9c4.1,7.3-3.3,41.6-41.6,41.6c-59.6,0-77-83.2-99.2-110.3c-17.3-21.1-31.4-11.6-36.7-6.5l-0.2,14.5
		l0.1,25.8c0,14.2,9.5,18.7,18.1,18.6l2.8,0.1v7.4H71.5H41.2v-7.4l2.8-0.1c8.6,0.1,18.1-4.5,18.1-18.6L62.1,196.3"/>
</g>
</svg>
