<?xml version="1.0" encoding="utf-8"?>
<!-- Generator: Adobe Illustrator 21.1.0, SVG Export Plug-In . SVG Version: 6.00 Build 0)  -->
<!DOCTYPE svg PUBLIC "-//W3C//DTD SVG 1.1//EN" "http://www.w3.org/Graphics/SVG/1.1/DTD/svg11.dtd">
<svg version="1.1" id="Layer_1" xmlns="http://www.w3.org/2000/svg" xmlns:xlink="http://www.w3.org/1999/xlink" x="0px" y="0px"
	 width="300px" height="431.7px" viewBox="0 0 300 431.7" style="enable-background:new 0 0 300 431.7;" xml:space="preserve">
<style type="text/css">
	.st0{fill:#FFFFFF;}
	.st1{fill:#003263;}
	.st2{fill:#CD1141;}
	.st3{fill:#8F0028;}
	.st4{fill:#C4CDD3;}
</style>
<g>
	<path class="st0" d="M177,431.7h123c-11.4-7.7-21.4-21.2-25.9-36.7l-34.4-118c-3.7-12.7,2.3-25.4,12-34
		c-13.7-4.2-25.9-13.7-29.7-26.9L202.7,150c27.4-9.2,45.2-25.4,45.2-44.3c0-24.6-30.5-44.8-72.9-50.5L159,0h-18l-16.1,55.3
		C82.4,61,51.9,81.2,51.9,105.8c0,18.9,17.9,35.1,45.3,44.3L78,216.1c-3.8,13.2-16,22.7-29.7,26.9c9.6,8.6,15.7,21.3,12,34L25.8,395
		c-4.6,15.5-14.5,29-25.8,36.7h123c-10.1-7.7-15.6-21.2-11-36.7l3-10.3h70l3,10.3C192.5,410.5,187,424,177,431.7 M139.4,301.2
		l10.6-36.5l10.6,36.5H139.4z"/>
	<path class="st1" d="M279.3,423.4c-5.9-7.7-10.5-16.6-13.3-26l-34.2-117.2c-5.4-18.6,4.6-31.8,5.9-33.9
		c-11.9-6.4-20.6-16.2-23.9-27.8l-20.8-71.4c29.3-7.8,49.3-23.4,49.3-41.3c0-22.7-32.1-41.6-74.7-45.8l-15-51.6h-5.5l-15,51.6
		c-42.6,4.2-74.7,23.1-74.7,45.8c0,17.9,20,33.5,49.3,41.3l-20.8,71.4c-3.4,11.6-12,21.4-23.9,27.8c1.3,2.1,11.4,15.3,5.9,33.9
		L33.9,397.4c-2.7,9.4-7.4,18.3-13.3,26h85.2c-6.9-15.2-3.3-26.2-0.2-36.7l3-10.4h82.6l3,10.4c3,10.4,6.6,21.5-0.2,36.7
		 M128.1,309.5l21.9-75l21.8,75H128.1z"/>
	<path class="st2" d="M172.6,124.1L172.6,124.1l-10.9-37.7l0,0l2.1,7.5c-4.5-0.2-9.1-0.4-13.8-0.4V118l65.6,225l15.1,51.6l25.9,15.5
		c-1.8-3.9-3.4-8-4.7-12.1l-32.7-111.8c-5.1-17.5-2.3-25,1.4-35.6c-9.8-7.5-16.3-17.3-19.5-28.4l-24.8-85.2c0,0,0,0-0.1,0"/>
	<path class="st2" d="M157.7,72.7L150,46.4v26.2C152.6,72.6,155.2,72.6,157.7,72.7"/>
	<path class="st2" d="M68.9,395.9l21,14.2c-1.1-7.1-0.1-16.3,1.9-22.9l7-24.1L84.3,343"/>
	<polyline class="st2" points="110.4,322.8 150,187.3 150,118 84.3,343 215.6,343 189.5,322.8 	"/>
	<polyline class="st3" points="150,187.3 189.5,322.8 215.6,343 150,118 	"/>
	<path class="st3" d="M256.7,410.1l-25.9-15.5L215.6,343H84.3L150,118V93.6c4.7,0,9.3,0.2,13.8,0.4l-2.1-7.5c-0.6,0-1.2-0.1-1.8-0.1
		c-3.2-0.2-6.5-0.3-9.9-0.3c-4,0-7.9,0.1-11.7,0.3l-11,37.7l0,0l-3.7,13c0,0,0,0,0,0l-24.8,85.2c-3.2,11-9.6,20.8-19.5,28.4
		c3.7,10.5,6.5,18.1,1.4,35.6L48,398c-1.2,4.1-2.8,8.2-4.7,12.1h46.6l-21-14.2l15.5-53l14.4,20.1h102.5l7.1,24.1
		c1.9,6.6,2.9,15.9,1.9,22.9"/>
	<path class="st3" d="M150,46.4l-7.7,26.3c2.5-0.1,5.1-0.2,7.7-0.2"/>
	<path class="st4" d="M127.3,124.1L127.3,124.1c-23.8-2.8-40.7-10-40.7-18.4c0-9.6,22.2-17.6,51.6-19.3c3.8-0.2,7.7-0.3,11.7-0.3
		c3.4,0,6.7,0.1,9.9,0.3c0.6,0,1.2,0,1.8,0.1l0,0c29.4,1.7,51.6,9.7,51.6,19.3c0,8.3-16.9,15.5-40.7,18.4h0l3.7,13c0,0,0,0,0.1,0
		c30.6-4.6,52.6-16.8,52.6-31.3c0-17.2-31.3-31.4-71.3-33.1c-2.5-0.1-5.1-0.2-7.7-0.2s-5.2,0.1-7.7,0.2C102.2,74.4,71,88.6,71,105.8
		c0,14.5,21.9,26.7,52.6,31.3c0,0,0,0,0,0"/>
</g>
</svg>
