<?xml version="1.0" encoding="utf-8"?>
<!-- Generator: Adobe Illustrator 21.1.0, SVG Export Plug-In . SVG Version: 6.00 Build 0)  -->
<!DOCTYPE svg PUBLIC "-//W3C//DTD SVG 1.1//EN" "http://www.w3.org/Graphics/SVG/1.1/DTD/svg11.dtd">
<svg version="1.1"
	 id="svg2" inkscape:output_extension="org.inkscape.output.svg.inkscape" inkscape:version="0.45.1" sodipodi:docbase="C:\Wiki Uploads\To Upload" sodipodi:docname="LA_Dodgers.svg" sodipodi:version="0.32" xmlns:cc="http://web.resource.org/cc/" xmlns:dc="http://purl.org/dc/elements/1.1/" xmlns:inkscape="http://www.inkscape.org/namespaces/inkscape" xmlns:rdf="http://www.w3.org/1999/02/22-rdf-syntax-ns#" xmlns:sodipodi="http://sodipodi.sourceforge.net/DTD/sodipodi-0.dtd" xmlns:svg="http://www.w3.org/2000/svg"
	 xmlns="http://www.w3.org/2000/svg" xmlns:xlink="http://www.w3.org/1999/xlink" x="0px" y="0px" width="300px" height="415.3px"
	 viewBox="0 0 300 415.3" style="enable-background:new 0 0 300 415.3;" xml:space="preserve">
<style type="text/css">
	.st0{fill:#C6CBCE;}
	.st1{fill:#FFFFFF;}
	.st2{fill:#083884;}
</style>
<sodipodi:namedview  bordercolor="#666666" borderopacity="1.0" gridtolerance="10.0" guidetolerance="10.0" id="base" inkscape:current-layer="svg2" inkscape:cx="251" inkscape:cy="251" inkscape:pageopacity="0.0" inkscape:pageshadow="2" inkscape:window-height="573" inkscape:window-width="744" inkscape:window-x="110" inkscape:window-y="145" inkscape:zoom="0.75099602" objecttolerance="10.0" pagecolor="#ffffff">
	</sodipodi:namedview>
<g>
	<path class="st0" d="M28.4,415.3v-75.1l33-0.6l3.6-16.5L0,323.6v-74.1h27.6V73.2H1.8L0.8,0l129.9,0v73.2h-28.4v90.3l16.9-70.4
		l83.7-0.4l24.4,101.5h72l0.6,129.2h-41.5l3.7,16.3l32.1,0.5v75.1H28.4z M160.6,339.9L160.6,339.9l23.2,0l-3.7-16.2l-37.7-0.2
		l-3.8,16.4L160.6,339.9z"/>
	<path class="st1" d="M171.1,404.9v-54.5h25.9l-8.5-37L134,313l-8.6,37.3l25.5,0v54.5h-112v-54.3l31-0.5l8-37.3L10.5,313v-53.1h27.6
		V62.7H12.2l-0.7-52.3l108.8,0v52.3H91.9v188.9l35.6-148.2l67.2-0.3L232,258.1h0l0.4-53.4H289l0.5,108.3h-44.1l8.4,37.1l30,0.4v54.3
		H171.1z M146.8,258.4c3.7,0,8.2,0,13.3,0c5.8,0,11,0,15.2-0.1l-14.1-60.9L146.8,258.4z"/>
	<path id="path2161" sodipodi:nodetypes="ccccccccccccccccccccccccccccccccccccccc" class="st2" d="M49.3,360.8l29-0.5l12.5-58.2
		l-70,0.4v-32.1h27.6V52.3H22.5L22,20.9l87.8,0v31.4H81.4v216.6h17.1l37.3-155l50.8-0.3l37.2,154.9h18.6l0.4-53.4h35.8l0.4,87.4
		l-46.7,0l13.2,57.9l27.9,0.4v33.6h-91.9v-33.6h28.6l-13.3-57.9l-71-0.4l-13.4,58.3l28.1,0v33.6H49.3V360.8z M188.4,268.5
		l-27.1-116.8l-27.6,116.9C133.7,269,187.9,269,188.4,268.5z"/>
</g>
</svg>
