<?xml version="1.0" encoding="utf-8"?>
<!-- Generator: Adobe Illustrator 21.1.0, SVG Export Plug-In . SVG Version: 6.00 Build 0)  -->
<!DOCTYPE svg PUBLIC "-//W3C//DTD SVG 1.1//EN" "http://www.w3.org/Graphics/SVG/1.1/DTD/svg11.dtd">
<svg version="1.1" id="Layer_1" xmlns="http://www.w3.org/2000/svg" xmlns:xlink="http://www.w3.org/1999/xlink" x="0px" y="0px"
	 width="312px" height="322.8px" viewBox="0 0 312 322.8" style="enable-background:new 0 0 312 322.8;" xml:space="preserve">
<style type="text/css">
	.st0{fill:#FFFFFF;}
	.st1{fill:#0078C8;}
	.st2{fill:#A7A9AC;}
	.st3{fill:#FF6600;}
	.st4{fill:#FFD100;}
	.st5{fill:#F26531;}
</style>
<title>Miami Marlins primary logo</title>
<g>
	<path class="st0" d="M156,322.8c-2.2,0-4.2-1.2-5.3-3.1l-41.8-76.6l-25.5,65.3c-0.9,2.3-3.1,3.8-5.6,3.8H6c-2,0-3.9-1-5-2.6
		c-1.1-1.6-1.3-3.7-0.6-5.6l41.9-105c-13.7-5.4-32-20-32.4-48.5c-0.4-30.1,25.7-61,39.8-77.7c2.1-2.5,4-4.7,5.3-6.4
		c9.8-12.5,19.4-27.5,16.3-44c-0.4-2.2,0.5-4.5,2.3-5.9c1.1-0.8,2.3-1.2,3.6-1.2c0.9,0,1.8,0.2,2.6,0.6c0.2,0.1,20.7,10,39.7,18.3
		c5.9,2.6,12.1,3.9,18.4,3.9c6.6,0,11-1.5,11-1.5c0.1,0,0.2-0.1,0.3-0.1c1.4-0.4,8.2-2.9,16.1-5.9c15-5.5,37.6-13.9,51.5-18.5
		C244.4,2.8,253,0.3,253.4,0.2c0.5-0.2,1.1-0.2,1.6-0.2c2.4,0,4.6,1.5,5.6,3.8c1.1,2.9-0.1,6.1-2.8,7.5l-89.1,46.6l8.2,3.9
		c2.1,1,3.4,3.1,3.5,5.4c0,2.3-1.3,4.4-3.4,5.4l-7.6,3.7c-9.6,4.6-27.9,13.8-47.2,25.7l33.8,62.7l51.5-94.5c1.1-1.9,3.1-3.1,5.3-3.1
		c0.1,0,0.2,0,0.4,0c2.3,0.1,4.4,1.6,5.2,3.8L311.6,304c0.7,1.8,0.5,3.9-0.6,5.6s-3,2.6-5,2.6h-71.8c-2.5,0-4.7-1.5-5.6-3.8
		l-25.5-65.3l-41.8,76.6C160.2,321.6,158.2,322.8,156,322.8z"/>
	<path class="st0" d="M212.8,73.1L156,177.3l-41.7-77.4c20.8-13.3,41.6-23.8,52.5-29l7.6-3.7l-19.2-9L255,6c0,0-8.5,2.4-36.4,11.8
		c-21.4,7.1-63.5,23.1-67.7,24.4c0,0-15.2,5.6-33.8-2.5c-19.3-8.4-39.9-18.4-39.9-18.4c3.5,19.1-7.4,35.9-17.5,48.8
		c-9.8,12.5-44.2,47.9-43.8,80.3c0.5,37.7,34.4,44.8,34.4,44.8L6,306.2h71.8l30.2-77.3l48,87.9l48-87.9l30.2,77.3H306L212.8,73.1z
		 M59.2,173.1c-0.8-1.4-1.3-2.5-1.6-3.2c-0.4-1.3-0.7-2.8-0.9-4.5c-1.7-12.4,8.5-26.1,20.6-37.6C77.3,127.8,59.2,173.1,59.2,173.1z"
		/>
	<path class="st1" d="M107.1,95c13.9-8.9,31.1-18.6,53.5-29.8l0,0l-6.7-3.2l-3.2-1.5c-13.1,6.6-31.5,16.6-47.7,26.7L107.1,95
		 M76.7,194.4c-0.4-0.2-0.8-0.4-0.8-0.4c-8.8-3.5-19-10.5-24.2-19.2c-4.8-9.1-4.8-21,5.7-36.2c0-0.1,0.1-0.1,0.1-0.1
		c0.9-1.3,1.8-2.5,2.7-3.7c0.1-0.1,0.2-0.3,0.3-0.4c1-1.2,2-2.4,3-3.6c0.2-0.2,0.4-0.4,0.6-0.6c2.4-2.7,4.9-5.3,7.5-7.8
		c4.4-4.2,9.2-8.4,14.7-12.7c1.2-0.9,2.4-1.8,3.6-2.8L96,91.6c-2.2,1.4-4.3,2.8-6.3,4.2C28.3,138,33,166.5,50.4,181.1
		c3,2.6,6.5,5,10,6.7c4.8,2.3,9.4,4.5,14.3,6c0.6,0.2,1.1,0.3,1.7,0.5L76.7,194.4L76.7,194.4"/>
	<path class="st2" d="M212.2,82.5L156,185.7l-47-87.2c22.1-14.4,44.8-25.8,56-31.2l-4.4-2.1C138.2,76.3,121,86.1,107.1,95L100,81.8
		l-10,25.1c-1.2,0.9-2.4,1.8-3.6,2.8c-5.5,4.3-10.3,8.5-14.7,12.7c-2.6,2.5-5.1,5.1-7.5,7.8c-0.2,0.2-0.4,0.4-0.6,0.6
		c-1,1.2-2,2.4-3,3.6c-0.1,0.1-0.2,0.3-0.3,0.4c-0.9,1.2-1.9,2.5-2.7,3.7l-0.1,0.1C47,153.7,47,165.7,51.8,174.8
		C57,183.5,67.2,190.5,76,194c-0.1-0.1-0.2-0.1-0.3-0.2c-0.3-0.1-1-0.5-1-0.5c-0.2-0.1-0.3-0.2-0.5-0.3s-0.3-0.2-0.5-0.3
		c-4.8-2.6-8.5-5.8-9-6.5L100,96.1l0,0L156.1,200l56.1-103.8l78,199.2h-48.6l-36-92L156,295.1l-49.6-91.7l-0.5,1.2l0,0l-35.5,90.9
		H21.9l39.9-101.8c0.6,0.1,1.3,0.2,1.9,0.3c-2.5-0.4-4.8-0.9-6.7-1.3h-0.1c-44.1-22.8-32.6-79.2,90.7-136.4
		c46-21.8,77.3-37.9,77.3-37.9l-13.2,5.1c1.1-0.4,1.8-0.7,1.8-0.7s-25.4,11.6-29.7,13.5c-25.2,11.1-59,26-73,33.2
		c-2.8,1.4-7.3,3.9-12.4,6.8C50.6,106.4,15.5,140,33.3,178.7c-20.5-23.9-2.6-58.7,19-82.8c14.4-16.1,21.2-22.7,28.6-34.7
		c5.8-9.4,9.5-19.2,9.2-29.1c0.3,0.1,0.7,0.3,1,0.5l-8.7-4.4c1,3.2-1.1,22.5-13.6,39.5c-13.6,18.6-60.5,59.6-46.3,98.2
		c7.9,21.4,28.2,25.7,33.2,26.5l0,0L11.9,302.2h63.2l32.4-82.7l48.6,89l48.6-89l32.3,82.7h63.2L212.2,82.5 M60.1,181.6
		c-0.1-0.1-0.2-0.2-0.3-0.3c-3.7-4.6-5.5-8.7-6-10.1c-0.5-1.5-0.8-3.3-1.1-5.3c-2.3-17,13.5-35.4,34.4-51.8
		C87.1,114.1,60.1,181.6,60.1,181.6z"/>
	<path class="st2" d="M68.2,194.4c0.5,0,1,0.1,1.6,0.1C69.2,194.4,68.7,194.4,68.2,194.4 M76,194.4c0.1,0,0.2,0,0.2,0
		c-1.4,0.1-2.7,0.2-4.1,0.2C73.5,194.6,74.8,194.5,76,194.4"/>
	<path class="st3" d="M80.9,61.2c-7.3,11.9-14.2,18.6-28.6,34.7c-21.6,24.1-39.5,58.9-19,82.6c-17.9-38.7,17.2-72.4,65.1-102.4
		c5-2.9,9.6-5.4,12.4-6.8c14-7.2,47.8-22.1,73-33.2c4.4-1.9,29.7-13.5,29.7-13.5s-0.7,0.3-1.8,0.7c-8.9,3.4-50.5,19.2-59.6,22.8
		c-0.1,0.1,0,0,0,0c-4.8,1.2-11.7,2.4-16.6,2.2c-3.9-0.1-10.5-0.9-17.9-4.1c-2.2-1-15.4-6.4-26.4-11.5c-0.3-0.2-0.7-0.3-1-0.5
		C90.4,42,86.7,51.9,80.9,61.2"/>
	<path class="st4" d="M101.8,126.7l52.3,96l2,3.8l2.1-3.8l52-95.8l0,0l2-30.8L156.1,200L100,96.1l1.4,23.6L101.8,126.7L101.8,126.7z
		"/>
	<path class="st1" d="M253.2,285.2l-45.5-115.4l-51.6,95.4L104.6,170L59.2,285H39.9l-0.1,0.3l-17.9,10.1h48.6l36-92l49.6,91.7
		l49.6-91.7l36,92h48.6l-17.9-10.2L253.2,285.2L253.2,285.2z"/>
	<path class="st3" d="M101.8,126.7l-0.4-7L100,96.1l-35.3,90.2c0.5,0.7,4.2,3.9,9,6.5c0.2,0.1,0.3,0.2,0.5,0.3s0.3,0.2,0.5,0.3
		L101.8,126.7"/>
	<path class="st5" d="M21.9,295.4l17.9-10.1l0.1-0.3l0,0l34.3-90.5c0.5,0,1.3-0.1,1.9-0.1c-1.3,0.1-2.6,0.2-3.9,0.2
		c-0.8,0-1.6,0-2.4-0.1c-0.5,0-1-0.1-1.6-0.1c-1.5-0.1-3-0.3-4.5-0.5c-0.6-0.1-1.3-0.2-1.9-0.3L21.9,295.4"/>
	<path class="st3" d="M272.3,285.2l17.9,10.2l-78-199.2l-2,30.8L272.3,285.2z"/>
	<path class="st0" d="M74.2,194.6L39.9,285h19.3l45.4-114.9l51.5,95.2l51.6-95.4l45.5,115.4h19.1L210.2,127l0,0l-52,95.8l-2.1,3.8
		l-2-3.8l-52.3-96l0,0l-27.2,66.6c0,0,0.6,0.3,1,0.5s0.7,0.4,1.1,0.5l0,0c0,0-0.2,0-0.4,0c-0.1,0-0.2,0-0.2,0
		C75.5,194.5,74.7,194.5,74.2,194.6"/>
</g>
</svg>
