<?xml version="1.0" encoding="utf-8"?>
<!-- Generator: Adobe Illustrator 21.1.0, SVG Export Plug-In . SVG Version: 6.00 Build 0)  -->
<!DOCTYPE svg PUBLIC "-//W3C//DTD SVG 1.1//EN" "http://www.w3.org/Graphics/SVG/1.1/DTD/svg11.dtd">
<svg version="1.1" id="Layer_1" xmlns="http://www.w3.org/2000/svg" xmlns:xlink="http://www.w3.org/1999/xlink" x="0px" y="0px"
	 width="629.7px" height="510px" viewBox="0 0 629.7 510" style="enable-background:new 0 0 629.7 510;" xml:space="preserve">
<style type="text/css">
	.st0{fill:#FFFFFF;}
	.st1{fill:#B0B7BB;}
	.st2{fill:#002B5C;}
	.st3{fill:#D31245;}
</style>
<title>Minnesota Twins logo</title>
<path class="st0" d="M329.8,510c-67.9,0-131.7-26.5-179.6-74.8c-8.1-8.1-15.7-16.8-22.7-26.1c-18.6,7.2-27,10.7-29,11.7l-18.7,8.7
	c-1.3,0.6-2.8,0.9-4.2,0.9c-1.9,0-3.7-0.5-5.4-1.6c-2-1.3-3.4-3.2-4.1-5.3c-1.8-0.1-3.5-0.6-5.1-1.6c-2.8-1.8-4.5-4.9-4.5-8.2
	l-0.7-40.9c-0.1-3,1.2-5.8,3.5-7.8l4.7-4c2.5-2.1,3.8-4.2,4.3-5.2v-75.1c-2.1,0.3-4.2,0.5-6.4,0.5c-0.1,0-0.5,0-0.5,0h-0.9
	c-12.5,0-24.4-4.5-33.8-12.8c-5.6-3.2-10.7-7.4-14.7-12.4C3.2,245.4-1,232,0.2,218.5c0.1-23.8,11-43.9,31.4-58
	c17.4-12,42.1-20.1,73.4-24.2c11.9-22.7,27.1-43.3,45.2-61.6C198.3,26.5,262.1,0,329.8,0c67.9,0,131.7,26.5,179.6,74.8
	c11.3,11.3,21.7,23.9,30.9,37.5l0.1,0c13.1-1.1,24.5-2,39.8-2.9l22.1-1.3c0.2,0,0.4,0,0.6,0c2.5,0,4.9,0.9,6.8,2.7
	c1.8,1.6,2.9,3.8,3.1,6.2c2.3,0.2,4.5,1.1,6.1,2.7c2,1.9,3.1,4.5,3.1,7.3v88.4c0,0.2,0,0.5,0,0.7c5.6,10.4,8.2,22.1,7.6,34.2
	c-1.4,29.8-23,54.4-52,59.9c-10.2,46.7-34.2,90.9-68.2,125.2C461.5,483.5,397.7,510,329.8,510z"/>
<path class="st0" d="M329.8,500c-65.2,0-126.5-25.5-172.5-71.8c-9.3-9.3-18.2-19.8-26.2-31.1c-22.6,8.7-33.8,13.3-36.8,14.7
	l-18.7,8.7v-10.7l-9.1,3.8l-0.7-40.9l4.7-4c5.2-4.5,7.5-9.3,7.8-11.4v-89.2l-0.2,0.1c-5.1,1.8-10.7,2.9-16.5,3.1h-0.2h-0.9
	c-10.4,0-20.3-3.9-28-11c-4.9-2.6-9.3-6.2-12.8-10.5c-7.2-8.8-10.6-19.7-9.5-30.8c0-20.9,9.1-37.8,27.1-50.3
	c16.9-11.7,41.8-19.5,74.2-23.1c11.7-23.5,27.1-45,45.8-63.8C203.5,35.5,264.7,10,329.8,10c65.2,0,126.5,25.5,172.5,71.8
	c12.4,12.4,23.4,26.2,32.9,41c0.6-0.1,1.1-0.1,1.7-0.2c15-1.2,27-2.2,43.8-3.2l22.1-1.3l0.2,9.3l9-0.5v88.4l-2.3-0.2
	c7,10,10.5,22.1,9.9,34.6c-1.2,26.3-21.1,47.8-47.3,51.1l-0.8,0.2h-0.8l-1.5,0.1c-8.9,47.5-32.6,92.5-66.9,127.1
	C456.3,474.5,395,500,329.8,500L329.8,500L329.8,500z"/>
<path class="st1" d="M91.3,216.2c0-3.1,0-6.2,0-9.1C72.1,210,53,216.7,53,227.8v0.1c0.2,6.5,4.7,12,11,13.4
	c-1.6-2.2-2.4-4.9-2.3-7.6v-0.1C61.7,224,73.6,218.7,91.3,216.2"/>
<path class="st2" d="M241,459c-39.3-17.1-72.9-45.3-96.5-81.1c-2.7,1-5.8,2.2-9.1,3.5c8.6,13.1,18.4,25.4,29.5,36.5
	c0.2,0.1,0.3,0.3,0.4,0.4c1.8,1.8,3.6,3.5,5.4,5.3c0.3,0.2,0.5,0.5,0.8,0.7c1.7,1.5,3.3,3.1,5,4.6c2.8,2.5,5.7,4.9,8.6,7.2
	c41,32.9,91.9,50.7,144.4,50.7h0.1c66.5,0.1,129.8-28.6,173.7-78.6l0.2-0.3c29.5-33.5,48.6-75,55.1-119.2c-0.3,0-0.6,0.1-0.9,0.1
	l0,0c-2.7,0.2-5.6,0.5-8.6,0.8c-19.2,121.4-133,204.3-254.3,185.1C276.3,471.8,258.2,466.5,241,459"/>
<path class="st2" d="M493.1,91.1c-90.2-90.5-236.4-90.5-326.5,0s-90.2,237.3,0,327.9s236.4,90.5,326.5,0
	c43.3-43.5,67.6-102.4,67.6-163.9C560.8,193.5,536.5,134.5,493.1,91.1"/>
<path class="st2" d="M590.3,141.3c3-0.2,5.9-0.3,8.7-0.5c0,5.2,0,48.1,0,59.9c-11.7-1.2-22.3-7.2-29.3-16.6
	c6.2,4.2,13.2,6.9,20.6,7.8C590.3,182.9,590.3,156,590.3,141.3"/>
<path class="st2" d="M582.1,181.5c-12.4-4.7-20.6-16.7-20.5-30c-12.2-0.3-21,5.2-20.2,21.3c0.3,6.8,3.4,14.8,16.5,23.8
	c31.1,21.3,32,30.5,33,41.2c1.6,15.4-8.8,29.6-24,32.6c-17.6,1.3-31.8,2.7-49.1,4.6c-0.1-3.4,0.1-38.5,0-40.9
	c12.4,4.5,20.6,16.4,20.5,29.6c12.2,0.1,26.4-6,25.7-22.2c-0.3-6.8-4.4-14.2-30.1-31.4c-11.7-7.4-19-20.1-19.4-34
	c-0.6-13.8,7.5-30.7,24.5-32.4c15.7-1.3,27.2-2.1,43.2-3.1C582.2,144.7,582,179.1,582.1,181.5"/>
<path class="st2" d="M558.3,181.1c0,0.4,0.1,0.8,0.1,1.2c0.4,1.4,0.8,2.9,1.3,4.3c0.3,0.7,0.7,1.3,1.1,1.9c-9.5-7-11-12.2-11.1-16.1
	c0-0.5-1-9.9,5-11.8c0.9,4.3,2.5,8.4,4.8,12.2C558.4,175.5,558,178.3,558.3,181.1"/>
<path class="st2" d="M31.3,220.9c0-55.5,96.5-56.4,127.2-56.4c44.2-0.1,75-10.9,80.1-29.1c-6.7,54-94.6,58.3-112.7,58.5v153
	c-0.7,7.4,4.6,14,11.9,14.9c-18.6,6.7-35.1,13.3-49.3,19.4c6.3-5.8,10.2-13.8,10.9-22.4c0,0.3,0-160.9,0-160.9
	c-15.6,1.5-54.7,7.5-54.8,29.9v0.1c0,6.3,2.8,12.3,7.7,16.3c-11.7,0-21.2-9.4-21.2-21.1C31.2,222.3,31.3,221.6,31.3,220.9"/>
<path class="st0" d="M559.7,186.6L559.7,186.6c-0.4-1.4-0.8-2.9-1.3-4.3l0,0C558.8,183.7,559.2,185.2,559.7,186.6"/>
<path class="st0" d="M142.9,209.8v10.6c13.1-4.2,40.8-12.9,52.5-16.5v9.3c1.8-0.6,3.5-1.1,5.1-1.5v-9.2c11.8-3.4,42.6-12,54.6-15.3
	v9.3c1.8-0.5,3.5-0.9,5.1-1.4v-9.2c12.9-3.4,41.5-10.4,54.5-13.5v9.3c1.8-0.4,3.5-0.8,5.1-1.2v-9.3l6.4-1.5
	c12.9-2.9,26-5.7,38.8-8.3l9.9-2v9.3l5.1-1v-9.3c13.1-2.5,33.8-6.3,46.5-8.4l23.8-3.8c11-1.9,22.4,1.1,31,8.2
	c2.1,1.7,3.9,3.7,5.5,5.9c1.1,0.7,2.2,1.5,3.1,2.3c9.1,8.4,13.9,20.5,13.2,32.9v70c-0.1,1.6,0,3.2,0.4,4.7l1.3,0.7v2.2
	c1.3,1.7,2.9,3.1,4.8,4.1c0-14.2,0-44.1,0-53.1c11.5,0.8,22,6.5,29,15.7c1,0.7,2,1.5,2.9,2.3c3.5,3,6.4,6.7,8.6,10.8
	c3.9-2.1,6.1-6.4,5.7-10.8c-0.2-1.8-0.9-3.5-2.1-5c-3.5-4.3-7.6-8.1-12.2-11.4c-3.3-2.5-7.3-5.4-12.2-8.7c-1.2-0.8-2.2-1.6-3.3-2.4
	c-12-9-19.3-23.1-19.7-38.1c0-0.6,0-1.2,0-1.9c-0.1-12.5,5.4-24.3,15-32.2C459.2,36.5,323.1,1,217.3,63.1
	c-37.6,22.1-67.8,54.7-87,93.8c11.9-0.7,22-0.7,28.3-0.7c45.4-0.1,75.7-11.4,76.1-33.7l12.6,4.1c0,1.4,0,2.7-0.1,4l6.7,2.2
	C253,195.7,172.2,208.4,142.9,209.8 M471.7,87.5c0.3-0.2,0.6-0.2,0.9,0c2,1.7,3.9,3.5,5.7,5.3l0.2,0.3c0.2,0.7,0.3,1.3,0.4,2
	c0.8,0.1,1.6,0.2,2.4,0.4l0.4,0.2c7.3,5.1,12.1,13.2,13.2,22.1c0,1.6-0.2,3.3-0.7,4.9c-0.1,0.3-0.4,0.5-0.7,0.5h-0.1
	c-2.1-0.3-4.2-0.6-6.3-0.8c-0.2,0-0.4-0.1-0.5-0.3c-0.1-0.2-0.2-0.4-0.1-0.6c0.4-1.4,0.5-2.8,0.5-4.2c-0.5-7.9-4.5-15.1-10.9-19.8
	c-1-0.3-2.1-0.5-3.3-0.8c-0.2,0-0.3-0.2-0.4-0.3c-0.1-0.2-0.1-0.4-0.1-0.6c0.2-0.7,0.3-1.3,0.3-2c0-1.8-0.5-3.6-1.2-5.3
	C471.3,88.1,471.4,87.7,471.7,87.5 M453.8,78c0-0.2,0.1-0.4,0.3-0.5c0.2-0.1,0.4-0.2,0.6-0.1c2,0.4,2.5,0.3,4.6,0.9
	c0.3,0.1,0.5,0.3,0.5,0.6c0.9,4.7,1.4,9.4,1.5,14.2v0.8c0,0.1-0.1,0.1-0.1,0.2c2,0.5,3.9,1,3.9,1l0.3,0.2c4.5,4.8,7,11.2,6.9,17.8
	c0,2.4-0.3,4.8-0.8,7.1c-0.1,0.4-0.4,0.6-0.8,0.6h-0.1l-8.2-1.2c-0.2,0-0.4-0.2-0.5-0.4c-0.1-0.2-0.2-0.4-0.1-0.6
	c0.8-2.8,1.3-5.8,1.4-8.7c0-5.9-2.5-11.6-6.9-15.6l0,0c0-0.1-0.2,0-0.4-0.6l0,0c-0.9-0.2-1.8-0.4-3-0.7c-0.4-0.1-0.6-0.4-0.5-0.8
	C453.1,87.2,453.6,82.6,453.8,78 M434.4,72.8c0-0.2,0.1-0.4,0.3-0.5c0.2-0.1,0.4-0.2,0.6-0.1c1.9,0.4,3,0.3,5.1,0.8
	c0.3,0.1,0.5,0.3,0.5,0.6c0.1,0.6,0.2,1.2,0.2,1.8c0,3.8-1.6,8.7-1.6,13.2v0.1c1.7,0.2,2.5,0.3,5.6,0.6c0.3,0,0.5,0.2,0.6,0.5
	c2.6,6.4,4,13.2,4.2,20.1c0,2.4-0.2,4.8-0.8,7.2c-0.1,0.4-0.4,0.6-0.7,0.6h-0.1l-6.9-1c-0.4-0.1-0.6-0.3-0.7-0.7
	c0.5-9-1-18.1-4.5-26.4c-0.1-0.2-0.1-0.5,0.1-0.8c-1.8-0.4-3.4-0.6-5.5-1.2c-0.4-0.1-0.6-0.5-0.5-0.8
	C432.2,82.2,433.6,77.6,434.4,72.8 M424,85.4c1.9,5.9,2.9,12.1,3,18.3c0,2.7-0.2,5.3-0.7,7.9c-0.1,0.4-0.4,0.6-0.8,0.6h-0.1
	c-2.7-0.4-5-0.8-7.7-1.2c-0.4,0-0.7-0.4-0.7-0.8c0,0,0.1-1.9,0.1-4.9c0.1-7-0.7-13.9-2.4-20.6c-0.1-0.2,0-0.5,0.2-0.7
	s0.4-0.3,0.7-0.3c3.2,0.4,4.6,0.8,7.7,1.2C423.7,84.9,424,85.1,424,85.4 M405.8,81.8c2.1-5,4.9-9.7,8.2-13.9l0.7-0.2l5.6,0.9
	c0.2,0,0.4,0.2,0.5,0.4c0.1,0.2,0.2,0.4,0.1,0.6c-1.5,4.8-3.4,9.5-5.7,14c-0.1,0.3-0.4,0.5-0.7,0.5h-0.1c-3.2-0.4-4.8-0.8-8-1.1
	c-0.3,0-0.5-0.2-0.6-0.4S405.7,82.1,405.8,81.8 M391.7,63.5l0.5-0.1c2.3,0.3,4.4,0.5,6.7,0.8c0.4,0.1,0.7,0.4,0.6,0.8
	c0,0.2-0.1,0.4-0.3,0.5c-4.2,3.2-7.4,7.6-9,12.6c0,0.1-0.1,0.1-0.1,0.1c2.2,0.4,4.2,0.8,6.4,1.2c0.3,0,0.5,0.2,0.6,0.5
	c2.2,7,3.5,14.3,3.7,21.6c0,1.9-0.1,3.8-0.4,5.6c0,0.2-0.1,0.4-0.3,0.5c-0.1,0.1-0.3,0.1-0.4,0.1h-0.1c-2.4-0.4-4.8-0.8-7.1-1.2
	c-0.3-0.1-0.6-0.3-0.6-0.7c-0.7-9.1-2.1-18.2-4.2-27.1c0-0.2,0-0.4,0.1-0.5c-2.2-0.3-4.4-0.6-6.6-0.8c-0.4-0.1-0.7-0.4-0.6-0.8
	c0-0.1,0-0.1,0.1-0.2C383.2,71.3,387,66.9,391.7,63.5 M368.1,59.3l0.4-0.1c1.8,0.1,3.5,0.2,5.3,0.4c0.3,0,0.6,0.2,0.6,0.5
	c0.1,0.3,0,0.6-0.3,0.8c-4.5,3-7.8,7.5-9.3,12.7l-0.1,0.1c2.1,0.2,4.1,0.6,6.2,0.8c0.3,0,0.6,0.3,0.7,0.7l2.3,25.1
	c0,0.2-0.1,0.4-0.2,0.6c-0.1,0.1-0.3,0.2-0.5,0.2h-0.1c-1.9-0.3-3.8-0.5-5.7-0.7c-0.3,0-0.5-0.2-0.6-0.5c-2.3-8.3-3.8-16.9-4.3-25.5
	c0-0.1,0.1-0.2,0.1-0.3c-2-0.1-4.1-0.3-6.1-0.4c-0.2,0-0.4-0.1-0.5-0.3c-0.1-0.2-0.2-0.4-0.1-0.6C358,66.8,362.4,61.9,368.1,59.3
	 M343.3,57.9l0.4-0.1c1.8,0.1,3.6,0.2,5.3,0.4c0.3,0,0.6,0.2,0.6,0.5c0.1,0.3,0,0.6-0.3,0.8c-4.2,2.9-7.4,7.1-9,11.9
	c1.7,0.1,3.5,0.2,5.2,0.4c0.3,0,0.6,0.3,0.6,0.6l3.4,26.6c0,0.2,0,0.4-0.2,0.6c-0.1,0.1-0.3,0.2-0.5,0.2h-0.1
	c-1.9-0.3-3.8-0.5-5.7-0.7c-0.3,0-0.5-0.2-0.6-0.5c-2.8-8.4-4.8-17.2-5.7-26c-1.6-0.1-3.3-0.2-4.9-0.3c-0.2,0-0.4-0.1-0.5-0.3
	s-0.2-0.4-0.1-0.6C333.1,65.4,337.5,60.5,343.3,57.9 M350.8,110.9c5.7,0,11.2,2.4,15.2,6.5c7.9,3.2,13.2,10.9,13.2,19.5
	c0,11.5-9.3,20.8-20.8,20.8h-0.1c-5.7,0-11.1-2.4-15-6.4c-10.8-4.2-16.1-16.3-11.9-27.1C334.4,116.2,342.2,110.9,350.8,110.9
	 M318.7,56.9l0.3-0.1c1.6,0,3.1,0,4.7,0.1c0.3,0,0.6,0.2,0.7,0.5s0,0.6-0.2,0.8c-3.9,3.4-6.8,7.7-8.4,12.6c1.5,0,2.9,0,4.4,0.1
	c0.4,0,0.7,0.3,0.7,0.7c0.2,8.5,1.4,16.9,3.5,25.1c0.1,0.2,0,0.5-0.1,0.7s-0.3,0.3-0.5,0.3h-0.1c-1.7-0.2-3.6-0.3-5.4-0.5
	c-0.3,0-0.5-0.2-0.6-0.4c-3.7-7.8-5.8-16.2-6.2-24.8c-1.1,0-2.3,0-3.4,0c-0.4,0-0.7-0.3-0.7-0.7c0-0.1,0-0.1,0-0.2
	C309.1,64.8,313.2,59.8,318.7,56.9 M293.7,57.7l0.4-0.1c1.6-0.1,3.2-0.3,4.8-0.4c0.4,0,0.7,0.3,0.8,0.7c0,0.2-0.1,0.5-0.2,0.6
	c-3.8,3.1-6.4,7.5-7.3,12.3c1.3-0.1,2.5-0.2,3.8-0.3c0.2,0,0.5,0.1,0.6,0.3c0.1,0.2,0.2,0.4,0.2,0.6c-0.6,2.4-0.8,4.8-0.8,7.3
	c0.1,5.1,0.8,10.2,2.1,15.1c0.1,0.2,0,0.4-0.1,0.6s-0.3,0.3-0.6,0.3l0,0c-1.8,0-4.2-0.5-5.9-0.6c-0.3,0-0.5-0.4-0.6-0.6
	c-2.4-4.9-3.6-10.3-3.6-15.7c0-1.6,0.2-3.3,0.6-4.9c-1,0.1-2.1,0.2-3.1,0.3h-0.1c-0.2,0-0.4-0.1-0.5-0.2c-0.2-0.2-0.2-0.4-0.2-0.6
	C284.7,66.2,288.4,60.9,293.7,57.7 M268.2,60.6l0.3-0.2c2.1-0.5,4.3-0.9,6.5-1.3c0.4-0.1,0.8,0.2,0.8,0.6c0.1,0.3-0.1,0.5-0.3,0.7
	c-3.9,2.8-6.4,7.1-7,11.8c1.2-0.2,2.4-0.5,3.5-0.7c0.3,0,0.5,0.1,0.7,0.3s0.2,0.5,0.1,0.7c-1.4,3.1-2,6.5-2,10
	c0.1,3.2,0.7,6.4,1.8,9.4c0.1,0.2,0,0.4-0.1,0.6s-0.3,0.3-0.6,0.3c-1.2,0.1-3.4-0.1-4.7,0h-0.1c-0.3,0-0.5-0.1-0.6-0.4
	c-2.4-4.3-3.8-9.1-4-14c0-1.2,0.2-2.4,0.5-3.6c-0.9,0.1-1.7,0.2-2.3,0.4c-0.1,0-0.1,0-0.2,0c-0.2,0-0.4-0.1-0.5-0.2
	c-0.2-0.2-0.2-0.4-0.2-0.6C261,69.1,263.9,64.2,268.2,60.6 M150.7,139.6c0.1,0.2,0.1,0.5-0.1,0.7l-2.8,3.9c-0.1,0.2-0.4,0.3-0.6,0.3
	c-0.1,0-0.2,0-0.3,0c-0.2,0-2-1-2-4.3c0.1-1.9,0.5-3.8,1.2-5.7l4.3-7.5c0.2-0.3,0.6-0.5,1-0.3c0.3,0.2,0.4,0.6,0.3,0.9
	c-1.1,2.6-1.7,5.3-1.8,8.1C149.9,137,150.2,138.4,150.7,139.6 M162.9,129.1c0.1,0.3,0,0.6-0.2,0.8c-1,0.9-2,1.9-3,2.9
	c-0.1,0.1-0.3,0.2-0.5,0.2l0,0c-0.2,0-0.4-0.1-0.5-0.3c-1.6-2-2.5-4.5-2.6-7.1c0-0.2,0.2-3,0.2-3c0.2-0.6,0.4-1.1,0.6-1.6l0.1-0.1
	c0.4-0.5,0.9-0.9,1.4-1.4c1.5-3.9,3.3-7.7,5.6-11.3c0.3-0.3,0.6-0.6,0.9-1c0.2-0.3,0.6-0.3,1-0.1c0.3,0.2,0.4,0.6,0.2,0.9
	c-1.8,3-3.1,6.4-3.6,9.9l-0.2,0.5c-0.1,0.1-0.3,0.3-0.4,0.4c-0.3,1.2-0.4,2.4-0.4,3.6C161.5,124.8,162,127,162.9,129.1 M177.2,118.3
	c0.1,0.3,0,0.7-0.2,0.9c-1.1,1-2.9,1.9-4.1,2.9c-0.1,0.1-0.3,0.2-0.6,0.2h-0.1c-0.2,0-0.4-0.1-0.6-0.3c-1.8-2.1-2.8-4.7-2.9-7.5
	c0-0.2,0-0.4,0-0.7l0.3-2.6c0.2-0.6,0.4-1.2,0.7-1.8l0.1-0.2c0.6-0.6,1.2-1.2,1.8-1.8c1.7-4.2,3.7-8.2,6-11.9c0.3-0.4,0.7-0.7,1-1.1
	c0.3-0.3,0.7-0.4,1.1-0.2c0.3,0.2,0.4,0.7,0.3,1c-2,3.3-3.4,6.9-3.9,10.7l-0.3,0.5c-0.2,0.2-0.5,0.5-0.7,0.7
	c-0.3,1.2-0.4,2.5-0.4,3.8C175.2,113.6,176,116.1,177.2,118.3 M191.2,95.5c0.3-0.2,0.6-0.2,0.9,0c0.3,0.2,0.4,0.5,0.4,0.8
	c-0.2,1.2-0.2,2.3-0.2,3.5c-0.3,3.2,0.3,6.3,1.8,9.2c0.1,0.2,0.1,0.4,0.1,0.6s-0.2,0.4-0.4,0.5c-1.4,0.8-2.8,1.7-4.4,2.4
	c-0.1,0.1-0.3,0.1-0.4,0.1c-0.2,0-0.4-0.1-0.5-0.2c-2-2.5-3.2-5.5-3.4-8.6c-0.1-0.5-0.1-1.1-0.1-1.7c-0.2,0.2-0.5,0.3-0.8,0.4
	c-0.2,0-0.3,0-0.4-0.1c-0.3-0.2-0.4-0.5-0.3-0.9c2-6.4,5.4-12.3,9.8-17.3l0.1-0.1c0.5-0.4,1.1-0.9,1.7-1.3c0.3-0.2,0.8-0.2,1,0.1
	c0.3,0.3,0.3,0.7,0.1,1c-3.2,3.8-5.5,8.3-6.8,13.1C189.9,96.4,190.4,96,191.2,95.5 M214.7,75.2c-3.1,3.2-5.2,7.1-6.2,11.4
	c1.3-0.6,1.6-0.7,2.6-1.1c0.4-0.2,0.8,0,0.9,0.4c0.1,0.2,0.1,0.4,0,0.6c-0.9,2.2-1.3,4.6-1.2,7c0,2.9,0.7,5.7,2,8.3
	c0.1,0.2,0.1,0.4,0,0.6s-0.2,0.3-0.4,0.4c-1.7,0.5-3.1,1.1-4.7,1.6c-0.1,0-0.2,0-0.2,0c-0.2,0-0.4-0.1-0.6-0.3
	c-2.4-3.1-3.8-6.9-3.8-10.8c0-0.7,0.1-1.4,0.1-2.1c-0.1,0.1-0.2,0.1-0.4,0.2c-0.1,0.1-0.2,0.1-0.3,0.1c-0.4,0-0.7-0.3-0.7-0.7
	c0-0.1,0-0.1,0-0.2c1.5-5.4,4.2-10.4,8-14.6l0.2-0.2c1.3-0.6,2.5-1.3,3.8-1.9c0.4-0.2,0.8,0,1,0.3C215,74.7,214.9,75,214.7,75.2
	 M232.7,68.9c-2.9,3.1-4.6,7.1-4.9,11.4c1.2-0.3,2.3-0.5,3.2-0.8c0.3-0.1,0.5,0,0.7,0.2s0.3,0.5,0.2,0.7c-1.1,2.9-1.7,6-1.9,9.1
	c0,2.5,0.6,4.9,1.8,7c0.1,0.2,0.1,0.4,0,0.6s-0.3,0.3-0.5,0.4c-1.6,0.3-3.2,0.8-4.7,1.1h-0.1c-0.2,0-0.4-0.1-0.6-0.3
	c-2.5-3-3.9-6.8-4-10.7c0-1.4,0.3-2.9,0.7-4.2c-0.5,0.1-0.9,0.2-1.1,0.3c-0.1,0-0.1,0-0.2,0c-0.2,0-0.3,0-0.4-0.1
	c-0.2-0.2-0.3-0.4-0.3-0.6c0.5-5.1,2.8-9.8,6.4-13.4l0.3-0.2c1.7-0.6,3.4-1.2,5.1-1.7c0.4-0.1,0.8,0.1,0.9,0.5
	C233,68.4,233,68.7,232.7,68.9 M247.5,75.5c1.1-0.2,2.4-0.4,3.5-0.6c0.2,0,0.5,0.1,0.6,0.2c0.1,0.2,0.2,0.5,0.1,0.7
	c-1.2,2.9-1.9,6-1.8,9.1c0,2.9,0.5,5.8,1.4,8.6c0.1,0.2,0,0.4-0.1,0.6s-0.3,0.3-0.5,0.3c-1.1,0-3.5,0.4-4.6,0.4H246
	c-0.2,0-0.5-0.1-0.6-0.3c-2-4.1-3.1-8.7-3.2-13.3c0-1.4,0.3-2.8,0.8-4.1c-0.9,0.1-1.8,0.3-2.4,0.4h-0.2c-0.2,0-0.3-0.1-0.4-0.2
	c-0.2-0.1-0.2-0.4-0.2-0.6c0.9-5,3.6-9.6,7.5-12.8l0.3-0.1c2-0.4,3.9-0.9,5.9-1.2c0.3-0.1,0.6,0.1,0.7,0.4c0.1,0.3,0,0.6-0.2,0.8
	C250.3,66.5,247.8,70.8,247.5,75.5"/>
<path class="st0" d="M155.7,373.7c-0.9,0.3-5.1,1.9-11.2,4.2c67.8,102.4,205.7,130.4,308,62.4c51.9-34.5,87-89.1,96.7-150.7
	c-12.1,1.1-25.8,2.3-30.9,2.9c0-1.3,0-4.7,0-9.3c-1.6,0.2-3.2,0.4-4.8,0.5v9.3c-13.4,1.3-38.8,4.8-52.9,6.9v-9.4
	c-3.2,0.5-6.1,0.9-8.7,1.3v-94.3c0.2-4.9-0.6-9.7-2.4-14.3c-1.6-0.5-3.3-0.7-5-0.8c0,13-0.1,119.7-0.1,119.7l-42.4,7.2v-9.2
	l-6.6,1.2v9.3l-14.6,2.9c-9.3,2.3-19.2,0.2-26.8-5.7c-1.9-1.5-3.6-3.2-5.1-5.1c-1.2-0.7-2.4-1.5-3.6-2.4
	c-11.8-9-13.2-24.6-13.2-35.5v-68.2c0.5-6-3.3-11.5-9-13.3v112.1c-0.1,2.6,0.2,5.2,0.7,7.7c0.8,0.2,1.7,0.4,2.7,0.6v4
	c2.6,1.8,5.5,3,8.7,3.4V323c-40,9-83.4,20.5-123,32.2c-12.1,3.7-25.2,1.8-35.7-5.2c-1.6-1.1-3-2.4-4.3-3.9c-1.5-0.8-2.9-1.6-4.3-2.6
	c-10.6-8.7-16.3-22-15.3-35.7c0,0,0-63.5,0-63.8c0-3.4-0.3-7.3-10-10.6v119.7c0,1.2,0.3,2.4,0.8,3.5c1.1,0.3,2.2,0.6,3.3,0.7v3.1
	c2.6,1.7,5.6,2.8,8.7,3.2L155.7,373.7z M196.4,430c-0.1,0-0.3,0-0.4-0.1c-2.4-1.4-4.5-3.1-6.4-5.1l-0.2-0.3
	c-0.8-1.9-1.4-3.8-1.9-5.7c0.2-0.2,0.6-0.2,0.8,0l5.7,3.8l0.3,0.4c0.5,2.1,1.4,4.1,2.6,5.8c0.3,0.3,0.3,0.7,0,0.9
	C196.9,429.9,196.7,430,196.4,430 M213.5,442.4L213.5,442.4L213.5,442.4L213.5,442.4 M215,441.8c-0.1,0-0.3,0-0.4-0.1
	c-0.4-0.2-9.1-6.5-9.1-6.5c-0.9-1.8-1.6-3.7-2.1-5.7c-0.1-0.3,0.1-0.6,0.3-0.7c0.2-0.2,0.5-0.2,0.8,0c0.2,0.1,0.5,0.3,0.7,0.5l0,0
	c3,1.9,3.4,1.7,6.5,3.6l0.3,0.5c0.4,2.7,1.6,5.2,3.4,7.3c0.3,0.3,0.3,0.7,0.1,1C215.5,441.7,215.2,441.8,215,441.8 M232.9,449.8
	c-0.1,0-0.3,0-0.4-0.1c-3.2-1.3-6.2-3.3-8.5-5.9l-0.1-0.1c-1.1-2-1.9-4.1-2.6-6.3l0,0c0-0.3,0.1-0.5,0.4-0.6c0.2-0.1,0.5-0.1,0.7,0
	c0.2,0.2,0.5,0.3,0.7,0.5l0,0c3,1.9,3.4,1.7,6.5,3.6l0.3,0.5c0.4,2.7,1.6,5.2,3.4,7.3c0.3,0.3,0.3,0.7,0.1,1
	C233.3,449.7,233.1,449.8,232.9,449.8 M255,456.4c-0.1,0-0.2,0-0.2,0c-2.5-0.9-4.9-1.9-7.7-3c-2.8-2.3-5-5.4-6.3-8.9
	c-0.1-0.4,0.1-0.8,0.4-0.9c0.2-0.1,0.4-0.1,0.5,0c2.2,1,4.4,1.9,6.6,2.8c0.2,0.1,0.4,0.3,0.4,0.5c1.1,3.4,3.4,6.4,6.6,8.2
	c0.3,0.2,0.4,0.6,0.2,0.9C255.5,456.3,255.2,456.5,255,456.4 M276.3,458.9h-0.1c-1-0.2-2.5-0.3-3.8-0.4c0,0.1-0.1,0.2-0.1,0.2
	c0,0.1,0.7,0.7,0.8,0.8c0.1,0.3,0,0.5-0.2,0.7c-0.1,0.1-0.3,0.2-0.5,0.2c-0.1,0-0.1,0-0.2,0c-1.1-0.3-3-0.7-4.1-1l-0.3-0.2
	c-0.8-0.8-1.4-1.6-1.9-2.6c-0.2-0.2-0.2-0.6,0-0.8c0.2-0.2,0.5-0.4,0.7-0.3h0.1c-2.6-2.2-4.9-4.6-6.9-7.3c-0.2-0.2-0.2-0.5,0-0.8
	c0.2-0.3,0.4-0.4,0.7-0.3c2.3,0.4,4.6,0.8,6.8,1l0.5,0.3c2.3,3.6,5.4,6.7,8.9,9.1c0.3,0.2,0.4,0.6,0.3,0.9
	C276.8,458.8,276.6,458.9,276.3,458.9 M304.5,459.7c-0.4,0-0.8,0-1.2,0c-1.8,0-3.6,0-5.3,0c-0.2,0.3-0.3,0.6-0.2,0.9
	c0,0.4,1.7,1,2.1,1.6c0.2,0.2,0.2,0.6,0,0.8c-0.1,0.2-0.4,0.3-0.6,0.3h-0.1c-1.1-0.2-4.2-0.6-5.3-0.8l-0.3-0.1
	c-1.6-1-3.1-2.2-4.3-3.7c-0.2-0.2-0.3-0.5-0.1-0.8c0.1-0.3,0.4-0.4,0.7-0.4l2.2,0.2c-3.9-2-7.5-4.6-10.6-7.8
	c-0.2-0.2-0.3-0.5-0.2-0.8c0.1-0.3,0.4-0.4,0.7-0.4c0.9,0,1.8,0,2.8,0c1.6,0,3.1,0,4.7-0.1l0.6,0.2c4,4.5,9.1,7.7,14.8,9.5
	c0.3,0.1,0.6,0.4,0.5,0.8C305.1,459.4,304.8,459.7,304.5,459.7 M326.1,464.8c-0.4,0-4.7,0-6.5,0l-0.3-0.1c-2.9-1.2-5.2-3.5-6.3-6.5
	c0-0.1,0-0.2,0-0.3c0.1-0.3,0.4-0.5,0.7-0.5c1-0.1,2-0.2,3.1-0.2c-5.4-1.9-10.5-4.9-14.8-8.8c-0.2-0.2-0.3-0.5-0.2-0.8
	c0.1-0.3,0.3-0.5,0.6-0.5c2.4-0.3,4.9-0.5,7.4-0.9l0.6,0.2c4.3,4.4,9.5,7.6,15.3,9.6c0.3,0.1,0.5,0.4,0.5,0.8c0,0.3-0.3,0.6-0.6,0.6
	c-1,0.1-2,0.3-3,0.5c-0.2,0.3-0.3,0.7-0.3,1.1c0,1,0.8,2.4,4.3,4.4c0.3,0.2,0.4,0.5,0.3,0.8C326.7,464.6,326.5,464.8,326.1,464.8
	 M348.8,461.7c-0.4,0-1.3,0.2-1.7,0.2c-1.7,0-2.8,0.4-4.5,0.4l-0.3-0.1c-2.9-1.4-7-3.9-7-7.2c0-0.1,0-0.2,0-0.3
	c0.1-0.3,0.3-0.5,0.6-0.5c1.3-0.1,2.6-0.2,3.9-0.3c-6-2-11.6-5.1-16.4-9.3c-0.2-0.2-0.3-0.5-0.2-0.7c0.1-0.3,0.3-0.5,0.6-0.5
	c2.4-0.3,4.9-0.9,7.4-1.4l0.6,0.2c4.5,4.6,9.9,8.1,16,10.3c0.3,0.1,0.5,0.4,0.5,0.8c0,0.3-0.3,0.6-0.6,0.6c-0.9,0.1-1.9,0.2-2.8,0.3
	c0.1,0.2-0.4,1.3-0.4,1.7c0,1,1.2,2.3,4.7,4.4c0.3,0.2,0.4,0.5,0.3,0.8C349.4,461.5,349.1,461.7,348.8,461.7 M374.9,456.9
	c-2.2,0.2-4.9,0.8-7.1,0.9h-0.2c-4.5-1.1-8.4-4.1-10.6-8.2c-0.1-0.2-0.1-0.4,0-0.6s0.3-0.3,0.5-0.4c0.7-0.1,1.3-0.2,2-0.4
	c-6-2.2-11.6-5.5-16.5-9.6c-0.2-0.2-0.3-0.5-0.3-0.7c0.1-0.3,0.3-0.5,0.5-0.5c1.9-0.4,4.8-1.6,6.9-2.1c0.3-0.1,0.5,0,0.7,0.2
	c5.1,5.4,11.7,9.2,18.9,10.8c0.4,0.1,0.6,0.5,0.6,0.8c-0.1,0.3-0.3,0.5-0.6,0.6c-1.2,0.2-2.9,0.8-4.5,1.2c0.7,2,3.6,4.5,9.8,6.7
	c0.4,0.1,0.6,0.5,0.4,0.9C375.4,456.7,375.2,456.9,374.9,456.9 M402.7,449.3c-2,0.6-3.9,1.2-5.9,1.7h-0.4
	c-4.9-1.2-12.9-3.6-14.3-9.7c-0.1-0.4,0.1-0.7,0.5-0.8c0.4-0.1,0.8-0.3,1.2-0.4c-7.1-1.6-13.8-4.8-19.6-9.3
	c-0.2-0.2-0.3-0.4-0.3-0.6s0.2-0.5,0.4-0.6c2.2-1,5.2-1.9,7.1-2.9c0.3-0.1,0.6-0.1,0.8,0.1c6.6,5.3,14.6,8.5,23,9.2
	c0.3,0,0.6,0.3,0.6,0.6c0,0.3-0.1,0.6-0.4,0.8c-1.3,0.6-3.3,1.5-5.1,2.3c0.3,2.1,2.2,5.7,12.3,8.4c0.3,0.1,0.5,0.4,0.5,0.7
	C403.2,448.9,403,449.2,402.7,449.3 M428.7,437.7c-1.9,0.6-5.2,2.4-7.3,2.9H421c-4.9-1.2-16.1-4.1-17.5-10.2
	c-0.1-0.4,0.1-0.7,0.5-0.8c0.4-0.1,0.8-0.3,1.2-0.4c-6.6-1.7-12.7-4.8-17.9-9.1c-0.2-0.2-0.3-0.4-0.3-0.6s0.2-0.5,0.4-0.6
	c2.1-1,5.3-2.6,7.3-3.7c0.3-0.1,0.6-0.1,0.8,0.1c5.7,5.6,13.2,9.1,21.1,9.8c0.3,0,0.6,0.3,0.6,0.6c0,0.3-0.1,0.6-0.4,0.8
	c-1,0.4-2.9,1.3-4.3,2c0.8,2.2,6.3,5.5,16.1,8c0.3,0.1,0.5,0.4,0.5,0.7C429.2,437.4,429,437.6,428.7,437.7 M449,424.6h-0.4
	c-3.6-1-13.9-3.8-17.1-10c-1.1,0.6-2.1,1.1-3,1.5h-0.3c-7.3-0.9-14.1-4-19.6-9c-0.3-0.2-0.4-0.7-0.2-1l0,0c0.2-0.3,5.7-3.2,7.7-4.3
	c0.3-0.1,0.6-0.1,0.8,0.1c4.9,4.9,11.2,8,18.1,8.9c1.9-1,3.3-2.2,4.9-3c0.2-0.1,0.5-0.1,0.7,0s0.3,0.4,0.3,0.7
	c-0.1,1.8,4.3,7.2,15.8,10.1l0,0c0.4,0.1,0.6,0.5,0.5,0.9l0,0C454.6,421.5,451.9,423.2,449,424.6 M478.1,404.2
	c0,0.1-0.1,0.1-0.1,0.2l0,0l0,0l0,0l0,0l0,0l0,0c-0.1,0.1-4.4,3.1-6.2,4.4l-0.6,0.1c-5.9-1.7-11.1-5-15.2-9.5
	c-0.7,0.5-2,1.2-2.5,1.6l-0.4,0.1c-7.2-0.4-14-3.3-19.1-8.4c-0.3-0.2-0.4-0.7-0.2-1c0.1-0.1,0.1-0.1,0.2-0.2c2-1.2,4.6-3.7,6.7-5.1
	c0.2-0.1,0.5-0.1,0.7,0c5.2,4.7,11.7,7.6,18.6,8.5c0.3,0,3.6-2.7,4-2.9c0.4-0.1,0.9,0,0.9,0.4c0.3,3.4,1.1,6.8,12.8,10.7h0.1
	C478.1,403.5,478.3,403.8,478.1,404.2L478.1,404.2 M498.4,384.7c-1.3,1.4-4.5,4.4-5.7,5.6c-0.1,0.1-0.3,0.2-0.5,0.2
	c-0.1,0-0.2,0-0.3-0.1c-5.6,0-11-2-15.2-5.7c-0.8,0.6-1.5,1.2-2.3,1.8l-0.6,0.1c-6.4-1.5-12.2-4.5-17.2-8.8
	c-0.2-0.1-0.3-0.3-0.3-0.6c0-0.2,0.1-0.5,0.3-0.6c2.4-1.9,4.7-3.8,7-5.6c0.2-0.2,0.5-0.2,0.8-0.1c5.6,3.1,5.9,6.7,16.5,9
	c0.3,0,1.7-1.5,1.7-1.5c0-0.1,0-0.1,0.1-0.2s0.1-0.2,0.2-0.2l0.1-0.1c0.3-0.1,0.7,0,0.8,0.3c3.3,5.5,14.1,5.2,14.1,5.2
	c0.4,0,0.7,0.4,0.6,0.8C498.6,384.4,498.5,384.5,498.4,384.7 M515.9,367c-1.2,1.3-4,4.6-5.3,5.9c-0.1,0.1-0.3,0.2-0.5,0.2
	c-0.1,0-0.2,0-0.3-0.1c-4.1-0.3-8-2.1-11-4.9c-0.8,0.6-2.2,1.4-3,2l-0.6,0.1c-7.3-2-14.1-5.6-20-10.4c-0.2-0.1-0.3-0.3-0.3-0.6
	c0-0.2,0.1-0.4,0.3-0.6c2.4-1.9,4.7-3.8,7-5.6c0.2-0.2,0.5-0.2,0.8-0.1c5.7,4,11.9,7.3,18.3,9.8c0.8-0.6,1.5-1.2,2.3-1.8
	c0.2-0.1,0.4-0.2,0.6-0.2c0.2,0.1,0.3,0.2,0.5,0.3c3.5,2.2,7.3,3.6,11.4,4.1c0.2,0,0.3,0.3,0.3,0.5
	C516.3,366.2,516.1,366.6,515.9,367 M530,304.5c1.4-1.6,2.8-3.2,4.1-4.8c0.2-0.2,0.5-0.3,0.7-0.2c2.6,1.3,5.5,2,8.5,1.9h0.2
	c0.1,0,0.2,0.1,0.3,0.2l0,0c0.1,0.1,0.2,0.3,0.1,0.5c0,0.1,0,0.1-0.1,0.2c-0.6,1.9-1.3,3.8-2.1,5.8c-0.1,0.3-0.3,0.4-0.6,0.4H541
	c-3.8-0.3-7.5-1.3-10.9-3c-0.2-0.1-0.3-0.2-0.4-0.4C529.8,304.9,529.8,304.7,530,304.5 M518.8,323.3c1.8-1.3,2.2-3.1,4.2-4.8
	c0.2-0.2,0.5-0.2,0.8-0.1c4,2.4,8.3,4.1,12.9,5c0.2,0,0.4,0.2,0.5,0.4c0.1,0.2,0.1,0.4,0,0.6c-0.9,2.1-1.8,4.2-2.8,6.3
	c-0.1,0.3-0.4,0.4-0.6,0.4c-0.1,0-0.1,0-0.2,0c-5.2-1.4-10.1-3.7-14.6-6.7C518.7,324.2,518.5,323.8,518.8,323.3
	C518.6,323.5,518.7,323.4,518.8,323.3 M519.1,343.8c0.9-0.9,1.8-1.7,2.8-2.7c0.3-0.3,0.6-0.2,1,0c2.4,0.6,4.7,1.6,6.7,3.1
	c0.2,0.2,0.2,0.6,0.1,0.9c-0.9,1.4-2.2,3.8-3,5.1c-0.1,0.2-0.4,0.3-0.6,0.3c-0.1,0-0.2,0-0.3-0.1c-2.2-1-5-1.8-7-2.8
	c-1.2,0.9-2.5,1.9-3.7,3c-0.1,0.1-0.3,0.2-0.5,0.2c-0.1,0-1.3-0.3-1.3-0.3c-6.2-1.3-12-3.6-17.5-6.8c-0.3-0.2-0.5-0.6-0.3-1
	c0-0.1,0.1-0.2,0.2-0.2c2.3-1.7,4.4-3.4,6.5-5c0.2-0.2,0.5-0.2,0.8-0.1C508.1,340.2,513.5,342.4,519.1,343.8 M170.5,377
	c43.2-17.2,207.1-63.9,334.3-76.1v7.9c2.9-0.3,5.8-0.6,8.7-0.8v22.9c-84.2,9.3-199.3,42.4-245.4,93.2l-8-6
	c-5.3-4-10.9-7.6-16.7-10.9c-22.2-12.9-47.3-19.8-72.9-20.1V377z"/>
<path class="st3" d="M213.5,442.4L213.5,442.4L213.5,442.4z"/>
<path class="st2" d="M343.2,151.3c10.8,4.2,22.9-1.2,27-12c4.2-10.8-1.2-22.9-11.9-27.1c-10.8-4.2-22.9,1.2-27,12
	c-0.9,2.4-1.4,5-1.4,7.6C329.9,140.5,335.2,148.2,343.2,151.3 M350.8,119.1c7,0,12.7,5.7,12.7,12.7c0,7-5.7,12.7-12.7,12.7
	s-12.7-5.7-12.7-12.7l0,0C338.1,124.8,343.8,119.1,350.8,119.1L350.8,119.1"/>
<path class="st0" d="M206,317.8c2.2,0.4,4.4,0.4,6.6,0.2c0-12,0-91.7,0-92.1c0-3.2-0.8-7.9-8.6-11.1v91.5
	C203.9,310.2,204.6,314.2,206,317.8"/>
<path class="st0" d="M384.4,291.1c0.8,0.2,1.6,0.4,2.4,0.5v3.8c1.8,1.8,4.1,2.9,6.6,3.4V184.6c0-3.7-0.1-9.7-10-13.7v112.2
	C383.4,285.8,383.7,288.5,384.4,291.1"/>
<path class="st0" d="M265.7,301.4c2.1,0.4,4.3,0.4,6.4,0.2c0-11.9,0-91.2,0-91.6c0-5.3-3.4-10-8.4-11.6v91.4
	C263.6,293.7,264.3,297.7,265.7,301.4"/>
<path class="st1" d="M319.7,180.4c-1.6,0.4-3.3,0.8-5.1,1.2v106.6c0,9.8,1.8,13,9.4,15c-0.6-2.5-0.8-5.1-0.7-7.7V183.4
	c-1.2-0.5-2.4-1-3.6-1.4L319.7,180.4L319.7,180.4z"/>
<path class="st1" d="M203.8,348.5c-10.4,3.2-21.6,2.3-31.3-2.4c1.3,1.4,2.8,2.7,4.3,3.9c10.5,7,23.6,8.9,35.7,5.2
	c39.5-11.7,82.9-23.2,123-32.2v-11.8c-3.1-0.4-6.1-1.5-8.7-3.4v7.8C286.7,324.9,243.3,336.6,203.8,348.5"/>
<path class="st1" d="M260.5,299.2c1.5,1.1,3.3,1.8,5.1,2.1c-1.4-3.7-2.1-7.7-1.9-11.6v-91.4c-1.2-0.6-2.4-1.1-3.6-1.5V195
	c-1.6,0.4-3.2,0.9-5.1,1.4v86.4C254.3,288.8,256.3,294.9,260.5,299.2"/>
<path class="st1" d="M200.7,315.6c1.6,1.1,3.4,1.9,5.3,2.2c-1.5-3.7-2.1-7.6-2-11.5v-91.5c-1.2-0.5-2.4-0.9-3.6-1.3v-2
	c-1.6,0.5-3.2,1-5.1,1.5v86.6C194.6,305.5,196.6,311.4,200.7,315.6"/>
<path class="st1" d="M384.4,291.1c-0.7-2.6-1-5.3-0.9-8V171c-1.2-0.5-2.4-0.9-3.6-1.2v-2.1l-5.1,1v106.9
	C374.8,285.2,377.4,289.2,384.4,291.1"/>
<path class="st1" d="M393.4,298.9c-2.5-0.5-4.8-1.7-6.6-3.4v7.6l-14.6,3c-7.9,1.9-16.1,0.7-23.2-3.2c1.5,1.9,3.2,3.6,5.1,5.1
	c7.6,5.9,17.5,8,26.8,5.7l14.6-2.9v-9.3l-2,0.4L393.4,298.9L393.4,298.9z"/>
<path class="st1" d="M144.5,377.9c6-2.3,10.3-3.9,11.2-4.2v-9.9c-3.1-0.4-6-1.5-8.7-3.2v6.8c-15.1,5.5-41,15.3-58.3,22.7v9.9
	c4.8-2.2,22.1-9,37.8-15.1c3-1.2,6-2.3,8.8-3.4C138.7,380.1,141.8,379,144.5,377.9"/>
<path class="st1" d="M589.9,213.1c6.4,7.5,9.8,17.2,9.3,27.1c0,17.1-12.7,36.9-32.2,38.4c-13.8,1.1-31.9,2.8-48.7,4.5
	c0,4.6,0,8,0,9.3c5.1-0.5,18.8-1.8,30.9-2.9c3-0.3,5.9-0.5,8.6-0.8c3.9-0.3,7.2-0.7,9.6-0.9c2-0.2,3.2-0.3,3.4-0.3
	c19.8-2.4,35-18.7,35.9-38.7C607.4,235.1,601.1,221.6,589.9,213.1"/>
<path class="st1" d="M569.7,184.1c7,9.4,17.6,15.4,29.3,16.6c0-11.8,0-54.7,0-59.9c-2.8,0.2-5.7,0.3-8.7,0.5c0,14.7,0,41.6,0,50.6
	C582.9,191,575.9,188.3,569.7,184.1"/>
<path class="st1" d="M554.6,160.7c-6,1.9-5.1,11.3-5,11.8c0.2,3.9,1.7,9.1,11.1,16.1c-0.4-0.6-0.8-1.3-1.1-1.9l0,0
	c-0.4-1.4-0.8-2.9-1.2-4.3l0,0c0-0.4-0.1-0.8-0.1-1.2c-0.3-2.8,0.1-5.6,1.1-8.1C557.2,169.1,555.6,165,554.6,160.7"/>
<path class="st1" d="M538.6,239.7c3.2,4.5,5.5,9.5,6.7,14.9c1.7-0.4,3.3-1,4.8-1.8c-2.2-4.1-5.1-7.7-8.6-10.8
	C540.6,241.2,539.6,240.4,538.6,239.7"/>
<path class="st1" d="M142.9,233.4c-0.7-0.2-1.4-0.5-2.2-0.7V221c0.7-0.2,1.4-0.5,2.2-0.7v-10.6c29.3-1.4,110.1-14,111-76.9l-6.7-2.2
	c-2.2,60.5-84.3,69.7-113,71.2v145c0,6.1,5.7,8.7,9.4,9.8c-0.5-1.1-0.8-2.3-0.8-3.5L142.9,233.4z"/>
<path class="st1" d="M350.8,152.8c-2.6,0-5.1-0.5-7.6-1.4c3.9,4.1,9.3,6.4,15,6.4c11.5,0.1,20.8-9.2,20.9-20.7V137
	c0-8.6-5.2-16.3-13.2-19.5c8,8.4,7.6,21.6-0.7,29.6C361.4,150.7,356.2,152.8,350.8,152.8"/>
<path class="st1" d="M260.1,418l8,6c46.1-50.9,161.2-84,245.4-93.2v-22.9c-2.9,0.3-5.8,0.5-8.7,0.8v15
	C420.6,333.5,306.2,366.9,260.1,418"/>
<path class="st1" d="M504.8,273v11.7c-10.9,1.1-29.9,3.8-44.2,5.8v9.4c14-2.1,39.5-5.6,52.8-6.9v-9.3c-1.3,0.2-2.6,0.3-3.9,0.4
	c0-1.1,0-3.6,0-7C507.7,276.1,506.1,274.7,504.8,273"/>
<path class="st1" d="M494.5,257.2c-0.1,4.2-0.1,8.5,8.2,12.6l0.8,0.4c-0.3-1.6-0.5-3.1-0.4-4.7v-70c0.7-12.4-4.1-24.4-13.2-32.9
	c-1-0.8-2-1.6-3.1-2.3c5.3,7.9,8,17.3,7.7,26.9V257.2z"/>
<path class="st1" d="M436,174.7c0,13-0.1,119.7-0.1,119.7l-33.8,5.9v9.2l42.4-7.2c0,0,0.1-106.7,0.1-119.7c1.7,0,3.4,0.3,5,0.8
	c-0.9-2.2-2.3-4.2-4.2-5.7C442.7,175.6,439.3,174.6,436,174.7"/>
<path class="st2" d="M314.6,288.2v-116c-13,3.1-41.5,10.1-54.5,13.5v11.2c1.2,0.4,2.4,0.9,3.6,1.5c5,1.6,8.4,6.3,8.4,11.6
	c0,0.4,0,79.7,0,91.6c-2.2,0.2-4.3,0.1-6.4-0.2c-1.9-0.3-3.6-1-5.1-2.1c-4.2-4.4-6.2-10.4-5.5-16.4v-95.7
	c-12,3.3-42.9,11.9-54.6,15.3v11.2c1.2,0.4,2.4,0.8,3.6,1.3c7.7,3.3,8.6,7.9,8.6,11.2c0,0.4,0,80.1,0,92.1c-2.2,0.2-4.4,0.1-6.6-0.3
	c-1.9-0.3-3.7-1.1-5.3-2.2c-4.1-4.2-6.1-10.1-5.3-15.9v-95.8c-11.6,3.6-39.4,12.2-52.5,16.5c-0.8,0.2-1.5,0.5-2.2,0.7V233
	c0.8,0.2,1.5,0.4,2.2,0.7c9.7,3.3,10,7.2,10,10.6c0,0.4,0,63.8,0,63.8c-0.9,13.7,4.8,26.9,15.3,35.7c1.4,1,2.8,1.8,4.3,2.6
	c9.8,4.7,21,5.6,31.3,2.4c39.5-11.9,82.9-23.6,123-32.9v-11.8c-1-0.2-1.9-0.4-2.7-0.6C316.5,301.2,314.6,298,314.6,288.2
	 M201.4,340.6c-9.6,3.1-20,1.7-28.5-3.8c-8.4-7.2-12.8-18-11.9-29v-61.4c1.5-8.8-4-17.2-12.7-19.3c11.1-3.6,24.1-7.8,38.7-12.2v84.7
	c0,35.9,33.3,25.4,33.7,25.3v-96.6c1.5-8.8-4-17.4-12.7-19.7c12.1-3.5,25-7.2,38.7-10.9v85c0,36.4,33.1,25.8,33.5,25.8v-96.1
	c1.4-9-4.1-17.6-12.8-20.2c12.4-3.2,25.4-6.5,38.8-9.7V288c0,8.8,1.3,18.8,12.2,21C276.2,319,236.7,329.8,201.4,340.6"/>
<path class="st2" d="M372.2,306l14.6-3v-11.4c-0.8-0.1-1.6-0.3-2.4-0.5c-7-1.9-9.6-5.9-9.6-15.6V159.3l-9.8,2
	c-12.8,2.6-25.9,5.4-38.8,8.3l-6.4,1.5V182c1.2,0.4,2.4,0.9,3.6,1.4c5.7,1.8,9.5,7.3,9,13.3v68.2c0,10.9,1.4,26.5,13.2,35.5
	c1.1,0.9,2.3,1.7,3.6,2.4C356.1,306.7,364.4,307.9,372.2,306 M350.5,293.9c-7.2-5.5-10-15-10-29v-66.8c1.4-9-4-17.6-12.6-20.4
	c12.6-2.8,25.4-5.6,38.6-8.3v106.1c0,8.7,1.2,18.5,11.9,20.9c-2.6,0.5-5.1,1-7.7,1.5C363.8,299.8,356.2,298.3,350.5,293.9"/>
<path class="st2" d="M260.1,418c46.1-51.1,160.5-84.6,244.7-94.3v-22.9c-127.2,12.2-291.2,59-334.3,76.1V387
	c25.6,0.3,50.7,7.2,72.9,20.1C249.2,410.4,254.8,414,260.1,418 M185,380c33.3-12.6,188.6-57.1,311.6-70v6.5
	c-86.1,11.1-192.1,43.4-237.7,90.9C222.6,382.9,191.1,379.3,185,380"/>
<path class="st2" d="M504.8,273v-2.2l-1.3-0.7l-0.8-0.4c-8.3-4.1-8.3-8.5-8.2-12.6v-70c0.3-9.6-2.3-19-7.7-26.9
	c-1.6-2.2-3.5-4.2-5.5-5.9c-8.7-7.1-20-10.1-31-8.2l-23.8,3.8c-12.7,2.1-33.4,5.9-46.5,8.4v11.4c1.3,0.4,2.5,0.8,3.6,1.2
	c9.9,4,10,10,10,13.7v117.2l2-0.4l6.6-1.1l33.8-5.9c0,0,0.1-106.7,0.1-119.7c3.4-0.1,6.7,1,9.5,3c1.8,1.5,3.3,3.5,4.2,5.7
	c1.7,4.5,2.5,9.4,2.4,14.3V292c2.6-0.4,5.5-0.8,8.7-1.3c14.2-2.1,33.3-4.8,44.2-5.8V273H504.8z M460.2,282.4v-84.7
	c0-34.7-25.2-32.1-32.5-30.4v120.2c-8.8,1.5-17.4,3-26.1,4.5V186c1.3-9.1-4-17.9-12.7-21c12.7-2.4,25.6-4.7,38.7-6.9
	c7.7-1.3,15.4-2.5,23.2-3.7c16-3.3,31.6,7,34.9,23c0.7,3.2,0.8,6.5,0.4,9.8c0,10.1,0,68.7,0,68.7c-1.2,9.2,4.1,18.1,12.8,21.3
	C486,278.7,473,280.5,460.2,282.4"/>
<path class="st3" d="M306.4,288.2V182.7c-13.4,3.2-26.4,6.4-38.8,9.7c8.7,2.6,14.2,11.2,12.8,20.2v96.1c-0.4,0-33.5,10.7-33.5-25.8
	v-85c-13.7,3.7-26.6,7.4-38.7,10.9c8.6,2.4,14.1,10.9,12.7,19.7V325c-0.4,0-33.7,10.5-33.7-25.3V215c-14.7,4.5-27.6,8.6-38.7,12.2
	c8.6,2.1,14.2,10.5,12.7,19.3v61.4c-0.9,11,3.5,21.8,11.9,29c8.4,5.5,18.9,6.9,28.5,3.8c35.3-10.9,74.8-21.6,117.3-31.5
	C307.7,307,306.4,297,306.4,288.2"/>
<path class="st3" d="M378.5,296.4c-10.7-2.4-11.9-12.2-11.9-20.9V169.4c-13.2,2.7-26.1,5.5-38.6,8.3c8.6,2.8,13.9,11.4,12.6,20.4
	v66.8c0,13.9,2.7,23.4,10,29c5.8,4.4,13.3,5.9,20.4,4C373.4,297.4,375.9,296.9,378.5,296.4"/>
<path class="st2" d="M510,284.1l-0.3-8.8c-0.1-1.8,0-12.7,0-22.8c0-8.7,0.1-16.8,0-18.1l-0.4-12.1l11.3,4.1
	c12.7,4.6,22,15.4,24.9,28.3c3.1-0.8,5.7-2.2,7.5-4c2.1-2.2,3-5,2.9-8.7c-0.2-3.5-3.3-9.5-26.5-25c-13.8-8.7-22.5-23.9-23-40.5
	c-0.8-18.4,10.8-38.7,31.8-40.8c15.9-1.3,27.5-2.2,43.5-3.1l8.4-0.5l0.2,8.5c0,2,0,11.6,0,21.1c0,9.2-0.1,18.2,0,19.6l0.5,12.3
	l-11.5-4.3c-12.6-4.8-21.9-15.7-24.8-28.5c-0.9,0.4-1.8,0.9-2.5,1.6c-2.3,2.3-2.6,6.9-2.4,10.3c0.2,4.1,1.8,9.8,13,17.5
	c32,21.9,35.2,32.9,36.5,47.2c2.1,19.7-11.1,37.5-30.5,41.3l-1,0.1c-16.3,1.2-30,2.5-48.8,4.6L510,284.1z"/>
<path class="st3" d="M514.5,176.2c0.4,13.9,7.7,26.6,19.4,34c25.7,17.3,29.8,24.7,30.1,31.4c0.7,16.2-13.4,22.3-25.7,22.2
	c0.1-13.2-8.1-25.1-20.5-29.6c0.1,2.4-0.1,37.5,0,40.9c17.3-1.9,31.5-3.3,49.1-4.6c15.2-3,25.6-17.1,24-32.6
	c-1-10.7-1.9-19.9-33-41.2c-13.1-9-16.2-17-16.5-23.8c-0.7-16.1,8-21.6,20.2-21.3c-0.1,13.3,8.1,25.3,20.5,30
	c-0.1-2.4,0.1-36.8,0-40.8c-16,1-27.5,1.8-43.2,3.1C522,145.5,513.8,162.4,514.5,176.2"/>
<path class="st1" d="M64.9,250c-4,1.5-8.2,2.3-12.5,2.4c-4,0-8-0.7-11.8-2.2c5.4,5.4,12.8,8.3,20.4,8.1c4.3-0.1,8.5-0.9,12.5-2.3
	v-8.6c-3.4-0.7-6.4-2.4-8.7-5L64.9,250z"/>
<path class="st2" d="M79.3,394L79,378.8c7.2-6.2,11.8-14,12.3-20.4c0-5.5,0-96.2,0-151.3c-19.3,2.9-38.4,9.6-38.4,20.7l-8.2,0.1h8.2
	c0.1,4.7,2.9,8.5,4.7,10.1s3.4,2.6,7.2,3.5c0,1.9,0,7.2,0,8.5c-7.8,2.8-12.7,2.4-12.7,2.4c-10.4,0-17.5-4.8-22.5-10.8
	s-7.3-13.7-6.5-21.5c0-41.9,45.5-63.6,135.3-63.8c45.4-0.1,73.8-10.7,76.1-33.8l12.6,4.1c-0.1,65-83.8,73.6-113.1,75.2v145.1
	c-0.3,3.8,2.9,9.1,12.8,10.6v9.9C128.9,373.9,93.6,387.8,79.3,394z"/>
<path class="st3" d="M44.8,227.8L44.8,227.8c0.1-22.6,39.2-28.6,54.8-30c0,0,0,161.2,0,160.9c-0.6,8.6-4.5,16.6-10.9,22.4
	c14.2-6.1,30.7-12.6,49.3-19.3c-7.3-0.9-12.6-7.5-11.9-14.9v-153c18.1-0.3,106-4.6,112.7-58.5c-5.2,18.3-36,29.1-80.1,29.1
	c-30.7,0-127.2,0.9-127.2,56.4c-1.1,11.6,7.3,22,19,23.2c0.7,0.1,1.4,0.1,2.1,0.1C47.6,240.1,44.8,234.1,44.8,227.8"/>
<path class="st3" d="M350.8,144.5c7,0,12.7-5.7,12.7-12.7s-5.7-12.7-12.7-12.7s-12.7,5.7-12.7,12.7l0,0
	C338.1,138.8,343.8,144.5,350.8,144.5L350.8,144.5"/>
<path class="st3" d="M496.6,316.5V310c-123.1,12.9-278.3,57.4-311.6,70c6.1-0.8,37.6,2.9,73.9,27.3
	C304.5,359.9,410.6,327.6,496.6,316.5"/>
<path class="st3" d="M486.2,255.8c0,0,0-58.5,0-68.7c2.1-16.2-9.3-31.1-25.5-33.2c-3.3-0.4-6.6-0.3-9.8,0.4
	c-7.8,1.2-15.5,2.4-23.2,3.7c-13.1,2.2-26,4.5-38.7,6.9c8.7,3.1,13.9,11.9,12.7,21v106c8.6-1.6,17.3-3.1,26.1-4.5V167.2
	c7.2-1.7,32.5-4.3,32.5,30.4v84.7c12.8-1.9,25.8-3.6,38.8-5.2C490.3,273.9,485,265,486.2,255.8"/>
<path class="st3" d="M151.4,126.7c-0.3-0.2-0.8,0-0.9,0.3l-4.3,7.5c-0.7,1.8-1.1,3.7-1.2,5.7c0,3.3,1.8,4.2,2,4.3c0.1,0,0.2,0,0.2,0
	c0.2,0,0.4-0.1,0.6-0.3l2.8-3.9c0.2-0.2,0.2-0.5,0.1-0.7c-0.5-1.2-0.8-2.5-0.8-3.8c0.1-2.8,0.7-5.5,1.8-8.1
	C151.9,127.3,151.8,126.8,151.4,126.7"/>
<path class="st3" d="M162.2,118.4l0.2-0.5c0.5-3.5,1.7-6.9,3.6-9.9c0.2-0.3,0.1-0.7-0.2-0.9c-0.3-0.2-0.7-0.1-1,0.1
	c-0.3,0.3-0.6,0.6-0.9,0.9c-2.2,3.6-4.1,7.4-5.6,11.3c-0.5,0.5-0.9,0.9-1.4,1.4v0.2c-0.3,0.5-0.5,1.1-0.6,1.6c0,0-0.2,2.8-0.2,3
	c0.1,2.6,1,5.1,2.6,7.1c0.1,0.2,0.3,0.3,0.5,0.3l0,0c0.2,0,0.4-0.1,0.5-0.2c1-1,2-2,3-2.9c0.2-0.2,0.3-0.5,0.2-0.8
	c-0.9-2.1-1.4-4.4-1.5-6.7c0-1.2,0.2-2.4,0.4-3.6C161.9,118.7,162.1,118.5,162.2,118.4"/>
<path class="st3" d="M381.3,77.6c2.2,0.2,4.4,0.5,6.6,0.8c-0.1,0.1-0.1,0.3-0.1,0.5c2.1,8.9,3.5,18,4.2,27.1c0,0.3,0.3,0.6,0.6,0.6
	c2.3,0.4,4.7,0.8,7.1,1.2h0.1c0.1,0,0.3,0,0.4-0.1c0.2-0.1,0.3-0.3,0.3-0.5c0.3-1.9,0.4-3.7,0.4-5.6c-0.3-7.4-1.5-14.6-3.7-21.6
	c-0.1-0.3-0.3-0.5-0.6-0.5c-2.2-0.3-4.3-0.8-6.4-1.2c0.1,0,0.1-0.1,0.1-0.1c1.6-5,4.8-9.5,9-12.6c0.3-0.2,0.4-0.7,0.1-1
	c-0.1-0.2-0.3-0.3-0.5-0.3c-2.3-0.3-4.4-0.6-6.7-0.8l-0.5,0.1c-4.7,3.3-8.5,7.8-11,13c-0.2,0.4,0,0.8,0.4,1
	C381.1,77.5,381.2,77.5,381.3,77.6"/>
<path class="st3" d="M260.7,75.4c0.1,0,0.1,0,0.2,0c0.6-0.1,1.4-0.3,2.3-0.4c-0.4,1.1-0.6,2.3-0.6,3.6c0.2,4.9,1.6,9.7,4,14
	c0.1,0.2,0.4,0.4,0.6,0.4h0.1c1.2-0.1,3.4,0,4.7,0c0.2,0,0.4-0.1,0.6-0.3c0.1-0.2,0.2-0.4,0.1-0.6c-1.1-3-1.7-6.2-1.8-9.4
	c0-3.4,0.7-6.8,2-10c0.2-0.4,0-0.8-0.4-0.9c-0.1-0.1-0.3-0.1-0.4-0.1c-1.2,0.2-2.3,0.4-3.5,0.7c0.5-4.8,3.1-9.1,7-11.8
	c0.3-0.2,0.4-0.6,0.2-0.9c-0.1-0.3-0.5-0.5-0.8-0.4c-2.2,0.4-4.3,0.9-6.5,1.3l-0.3,0.1c-4.3,3.5-7.2,8.5-8.2,14c0,0.2,0,0.5,0.2,0.6
	C260.4,75.4,260.6,75.4,260.7,75.4"/>
<path class="st3" d="M436.2,88.6c-0.2,0.2-0.2,0.5-0.1,0.8c3.5,8.4,5,17.4,4.5,26.4c0,0.4,0.3,0.6,0.7,0.7l6.9,1h0.1
	c0.4,0,0.7-0.2,0.8-0.6c0.5-2.4,0.8-4.8,0.7-7.2c-0.2-6.9-1.6-13.7-4.2-20.1c-0.1-0.3-0.3-0.4-0.6-0.5c-3.1-0.3-3.9-0.4-5.6-0.6
	v-0.1c0.1-4.5,1.6-9.4,1.6-13.2c0-0.6,0-1.2-0.2-1.8c-0.1-0.3-0.3-0.5-0.5-0.6c-2.1-0.5-3.2-0.4-5.1-0.8c-0.2-0.1-0.4,0-0.6,0.1
	s-0.3,0.3-0.3,0.5c-0.8,4.8-2.2,9.5-4.3,13.9c-0.1,0.4,0.2,0.7,0.5,0.8C432.8,88,434.4,88.3,436.2,88.6"/>
<path class="st3" d="M472.4,95.7c0,0.2,0,0.4,0.1,0.6s0.3,0.3,0.4,0.3c1.2,0.3,2.3,0.6,3.3,0.8c6.4,4.7,10.4,11.9,10.9,19.8
	c0,1.4-0.2,2.8-0.5,4.2c0,0.2,0,0.4,0.1,0.6s0.3,0.3,0.5,0.3c2.1,0.2,4.2,0.6,6.3,0.8h0.1c0.3,0,0.6-0.2,0.7-0.5
	c0.4-1.6,0.7-3.2,0.7-4.9c-1.1-8.9-5.9-16.9-13.2-22.1l-0.4-0.2c-0.8-0.1-1.6-0.2-2.4-0.4c-0.1-0.7-0.2-1.3-0.4-2l-0.2-0.3
	c-1.9-1.8-3.8-3.6-5.7-5.3c-0.2-0.2-0.6-0.2-0.9,0s-0.4,0.6-0.3,0.9c0.8,1.7,1.2,3.5,1.2,5.3C472.6,94.3,472.6,95,472.4,95.7"/>
<path class="st3" d="M227,69.4l-0.3,0.2c-3.6,3.6-5.8,8.3-6.4,13.4c0,0.2,0.1,0.5,0.3,0.6c0.1,0.1,0.3,0.2,0.4,0.2
	c0.1,0,0.2,0,0.2,0c0.3-0.1,0.7-0.2,1.1-0.3c-0.4,1.4-0.6,2.8-0.7,4.2c0.1,3.9,1.5,7.7,4,10.7c0.1,0.2,0.4,0.3,0.6,0.3h0.1
	c1.6-0.3,3.2-0.8,4.7-1.1c0.2,0,0.4-0.2,0.5-0.4c0.1-0.2,0.1-0.4,0-0.6c-1.2-2.2-1.8-4.6-1.8-7c0.1-3.1,0.7-6.2,1.9-9.1
	c0.1-0.3,0-0.5-0.2-0.7s-0.5-0.3-0.7-0.2c-0.8,0.2-2,0.5-3.2,0.7c0.3-4.2,2-8.2,4.9-11.3c0.3-0.2,0.3-0.6,0.2-0.9
	c-0.2-0.3-0.5-0.4-0.8-0.3C230.3,68.2,228.6,68.8,227,69.4"/>
<path class="st3" d="M210,76l-0.2,0.2c-3.8,4.2-6.5,9.2-8,14.6c-0.1,0.3,0,0.6,0.2,0.7c0.1,0.1,0.3,0.2,0.4,0.2c0.1,0,0.2,0,0.3-0.1
	s0.2-0.1,0.4-0.2c-0.6,4.6,0.7,9.3,3.6,12.9c0.1,0.2,0.3,0.3,0.6,0.3c0.1,0,0.2,0,0.2,0c1.6-0.6,3-1.1,4.7-1.6
	c0.2-0.1,0.3-0.2,0.4-0.4c0.1-0.2,0.1-0.4,0-0.6c-1.3-2.6-1.9-5.5-2-8.3c-0.1-2.4,0.3-4.8,1.2-7c0.1-0.3,0.1-0.6-0.1-0.8
	c-0.2-0.2-0.5-0.3-0.8-0.2c-1,0.4-1.3,0.5-2.6,1.1c1-4.3,3.1-8.2,6.2-11.4c0.2-0.3,0.3-0.6,0.1-0.9s-0.6-0.4-0.9-0.2
	C212.6,74.7,211.3,75.3,210,76"/>
<path class="st3" d="M195.8,82.8c-0.3-0.3-0.7-0.3-1-0.1c-0.6,0.4-1.1,0.9-1.7,1.3l-0.1,0.1c-4.5,5-7.8,10.9-9.8,17.3
	c-0.1,0.3,0,0.7,0.3,0.9c0.1,0.1,0.3,0.1,0.4,0.1c0.3-0.1,0.6-0.2,0.8-0.4c0,0.6,0,1.1,0.1,1.7c0.2,3.2,1.4,6.2,3.4,8.6
	c0.1,0.1,0.3,0.2,0.5,0.2s0.3-0.1,0.4-0.1c1.6-0.7,3-1.6,4.4-2.4c0.2-0.1,0.3-0.3,0.4-0.5c0.1-0.2,0-0.4-0.1-0.6
	c-1.5-2.8-2.1-6-1.8-9.1c0-1.2,0.1-2.3,0.2-3.5c0-0.3-0.1-0.6-0.4-0.8c-0.3-0.2-0.6-0.1-0.9,0c-0.8,0.5-1.3,0.9-2.1,1.4
	c1.3-4.8,3.6-9.3,6.8-13.1C196.1,83.5,196.1,83.1,195.8,82.8"/>
<path class="st3" d="M175.9,106.7l0.3-0.5c0.5-3.8,1.8-7.5,3.9-10.7c0.2-0.4,0.1-0.8-0.3-1c-0.3-0.2-0.8-0.2-1.1,0.1
	c-0.3,0.4-0.6,0.7-1,1.1c-2.4,3.8-4.4,7.8-6,12c-0.6,0.6-1.2,1.2-1.8,1.8l-0.1,0.2c-0.3,0.6-0.5,1.2-0.7,1.8l-0.3,2.6
	c0,0.3,0,0.5,0,0.7c0.1,2.7,1.1,5.4,2.9,7.5c0.1,0.2,0.3,0.3,0.6,0.3h0.1c0.2,0,0.4-0.1,0.5-0.2c1.1-1.1,3-2,4.1-2.9
	c0.2-0.2,0.3-0.6,0.2-0.9c-1.2-2.3-2-4.7-2.4-7.2c0-1.3,0.2-2.5,0.4-3.8C175.4,107.1,175.7,106.9,175.9,106.7"/>
<path class="st3" d="M356.6,73.7c2,0.1,4,0.2,6.1,0.4c0,0.1-0.1,0.2-0.1,0.3c0.5,8.6,2,17.2,4.3,25.5c0.1,0.3,0.3,0.5,0.6,0.5
	c1.9,0.2,3.8,0.5,5.7,0.7h0.1c0.2,0,0.4-0.1,0.5-0.2c0.2-0.2,0.2-0.4,0.2-0.6l-2.3-25.1c0-0.3-0.3-0.6-0.7-0.6
	c-2.1-0.2-4.1-0.6-6.2-0.8l0.1-0.1c1.5-5.2,4.8-9.7,9.3-12.8c0.3-0.2,0.4-0.7,0.2-1c-0.1-0.2-0.3-0.3-0.5-0.3
	c-1.7-0.1-3.5-0.3-5.3-0.4l-0.4,0.1c-5.8,2.6-10.2,7.5-12.1,13.5c-0.1,0.2,0,0.4,0.1,0.6C356.2,73.6,356.4,73.7,356.6,73.7"/>
<path class="st3" d="M331.8,72.3c1.6,0.1,3.3,0.2,4.9,0.3c1,8.9,2.9,17.6,5.7,26c0.1,0.3,0.3,0.5,0.6,0.5c1.9,0.2,3.8,0.5,5.7,0.7
	h0.1c0.2,0,0.4-0.1,0.5-0.2c0.2-0.2,0.2-0.4,0.2-0.6l-3.4-26.6c0-0.3-0.3-0.6-0.6-0.6c-1.7-0.2-3.5-0.3-5.2-0.4
	c1.6-4.9,4.8-9,9-11.9c0.3-0.2,0.4-0.5,0.3-0.8s-0.3-0.5-0.6-0.5c-1.8-0.1-3.5-0.3-5.3-0.4l-0.4,0.1c-5.8,2.6-10.2,7.5-12.1,13.5
	c-0.1,0.2,0,0.4,0.1,0.6C331.4,72.2,331.6,72.3,331.8,72.3"/>
<path class="st3" d="M415,84c-0.2,0.2-0.2,0.5-0.2,0.7c1.7,6.7,2.5,13.7,2.4,20.6c0,3-0.1,4.9-0.1,4.9c0,0.4,0.3,0.8,0.7,0.8
	c2.7,0.4,4.9,0.8,7.7,1.2h0.1c0.4,0,0.7-0.3,0.8-0.6c0.5-2.6,0.7-5.3,0.7-7.9c0-6.2-1-12.4-3-18.3c-0.1-0.3-0.3-0.5-0.6-0.5
	c-3.1-0.4-4.6-0.8-7.7-1.2C415.5,83.7,415.2,83.8,415,84"/>
<path class="st3" d="M414.4,84.1L414.4,84.1c0.4,0,0.7-0.2,0.8-0.4c2.3-4.5,4.3-9.2,5.7-14c0.1-0.2,0-0.5-0.1-0.6
	c-0.1-0.2-0.3-0.3-0.5-0.4l-5.6-0.9L414,68c-3.4,4.2-6.1,8.9-8.2,13.9c-0.1,0.2-0.1,0.5,0,0.7s0.3,0.4,0.6,0.4
	C409.6,83.3,411.2,83.7,414.4,84.1"/>
<path class="st3" d="M455.9,93.3L455.9,93.3c0.1,0.7,0.3,0.6,0.3,0.7l0,0c4.4,4,6.9,9.6,6.9,15.6c-0.1,3-0.5,5.9-1.4,8.7
	c-0.1,0.2,0,0.4,0.1,0.6s0.3,0.3,0.5,0.4l8.2,1.2h0.1c0.4,0,0.7-0.3,0.8-0.6c0.6-2.3,0.8-4.7,0.9-7.1c0.1-6.6-2.4-13-6.9-17.8
	l-0.3-0.2c0,0-1.9-0.5-3.9-1c0-0.1,0.1-0.1,0.1-0.2v-0.8c-0.1-4.8-0.6-9.5-1.5-14.2c0-0.3-0.2-0.5-0.5-0.6c-2.1-0.5-2.6-0.4-4.6-0.9
	c-0.2,0-0.4,0-0.6,0.1s-0.3,0.3-0.3,0.5c-0.2,4.7-0.6,9.3-1.4,13.9c-0.1,0.4,0.2,0.7,0.5,0.8C454,92.9,455,93.1,455.9,93.3"/>
<path class="st3" d="M308.1,71.7c1.1,0,2.3,0,3.4,0c0.4,8.6,2.5,17.1,6.2,24.8c0.1,0.2,0.3,0.4,0.6,0.4c1.8,0.1,3.6,0.3,5.4,0.5h0.1
	c0.2,0,0.4-0.1,0.5-0.3c0.2-0.2,0.2-0.4,0.1-0.7c-2.2-8.2-3.4-16.6-3.5-25.1c0-0.4-0.3-0.7-0.7-0.7c-1.5,0-3,0-4.4-0.1
	c1.7-4.9,4.6-9.2,8.4-12.6c0.2-0.2,0.3-0.5,0.2-0.8c-0.1-0.3-0.4-0.5-0.7-0.5c-1.6,0-3.2-0.1-4.7-0.1l-0.3,0.1
	c-5.5,2.9-9.6,7.9-11.3,13.9c-0.1,0.2,0,0.4,0.1,0.6C307.7,71.6,307.9,71.7,308.1,71.7"/>
<path class="st3" d="M284.5,73.1L284.5,73.1c1.1-0.1,2.2-0.2,3.2-0.3c-0.4,1.6-0.5,3.3-0.6,4.9c0,5.4,1.2,10.8,3.6,15.7
	c0.1,0.3,0.4,0.6,0.6,0.6c1.7,0,4.1,0.5,5.9,0.5l0,0c0.2,0,0.4-0.1,0.6-0.3c0.1-0.2,0.2-0.4,0.1-0.6c-1.3-4.9-2-10-2.1-15.1
	c0-2.4,0.2-4.9,0.8-7.3c0.1-0.2,0-0.5-0.2-0.6c-0.1-0.2-0.4-0.3-0.6-0.3c-1.3,0.1-2.5,0.2-3.8,0.3c0.9-4.8,3.5-9.2,7.3-12.3
	c0.2-0.2,0.3-0.5,0.2-0.8c-0.1-0.3-0.4-0.5-0.7-0.4c-1.6,0.1-3.2,0.2-4.8,0.4l-0.4,0.1c-5.4,3.1-9,8.5-10,14.6
	c0,0.2,0.1,0.4,0.2,0.6C284.1,73.1,284.3,73.1,284.5,73.1"/>
<path class="st3" d="M254.4,63.1c-0.1-0.3-0.4-0.4-0.7-0.4c-2,0.4-4,0.8-5.9,1.2l-0.3,0.1c-3.9,3.2-6.6,7.8-7.5,12.8
	c0,0.2,0,0.4,0.2,0.6c0.1,0.1,0.3,0.2,0.4,0.2h0.1c0.6-0.1,1.5-0.3,2.4-0.4c-0.5,1.3-0.8,2.7-0.8,4.1c0,4.6,1.1,9.1,3.2,13.3
	c0.1,0.2,0.3,0.3,0.6,0.3h0.1c1.1-0.1,3.4-0.4,4.6-0.4c0.2,0,0.4-0.1,0.5-0.3c0.1-0.2,0.1-0.4,0.1-0.6c-0.9-2.8-1.4-5.7-1.4-8.6
	c0-3.1,0.6-6.3,1.9-9.1c0.1-0.3,0-0.7-0.3-0.9c-0.1-0.1-0.2-0.1-0.4,0c-1.1,0.2-2.4,0.4-3.5,0.6c0.3-4.7,2.8-9,6.7-11.6
	C254.4,63.7,254.5,63.4,254.4,63.1"/>
<path class="st3" d="M248.8,446.9c0-0.2-0.2-0.4-0.4-0.5c-2.2-0.9-4.4-1.8-6.6-2.8c-0.4-0.2-0.8,0-0.9,0.3c-0.1,0.2-0.1,0.4,0,0.5
	c1.3,3.5,3.4,6.5,6.3,8.9c2.7,1.2,5.2,2.1,7.7,3c0.1,0,0.2,0,0.2,0c0.3,0,0.5-0.1,0.6-0.4c0.2-0.3,0.1-0.7-0.2-0.9
	C252.3,453.3,250,450.4,248.8,446.9"/>
<path class="st3" d="M230,441.4l-0.3-0.5c-3-1.8-3.5-1.6-6.5-3.6l0,0c-0.2-0.2-0.5-0.3-0.7-0.5c-0.3-0.2-0.8-0.1-1,0.2
	c-0.1,0.1-0.1,0.2-0.1,0.4l0,0c0.6,2.2,1.5,4.3,2.6,6.3l0.1,0.1c2.4,2.6,5.3,4.6,8.5,5.9l0,0c0.1,0.1,0.3,0.1,0.4,0.1
	c0.2,0,0.4-0.1,0.6-0.3c0.2-0.3,0.2-0.7-0.1-1C231.6,446.6,230.4,444,230,441.4"/>
<path class="st3" d="M212.1,433.3l-0.3-0.5c-3-1.8-3.5-1.7-6.5-3.6l0,0c-0.2-0.2-0.5-0.4-0.7-0.5s-0.5-0.1-0.8,0
	c-0.2,0.2-0.4,0.5-0.3,0.7c0.5,2,1.2,3.9,2.1,5.7c0,0,8.6,6.2,9.1,6.5c0.3,0.2,0.8,0.1,1-0.2c0.2-0.3,0.1-0.7-0.1-0.9
	C213.7,438.5,212.6,436,212.1,433.3"/>
<path class="st3" d="M456.6,418.7L456.6,418.7c-11.5-3-16-8.3-15.8-10.1c0-0.3-0.1-0.5-0.3-0.7c-0.2-0.1-0.5-0.2-0.7,0
	c-1.5,0.7-3,2-4.9,3c-6.8-0.9-13.2-4.1-18.1-8.9c-0.2-0.2-0.5-0.2-0.8-0.1c-1.9,1.1-7.4,4-7.7,4.3c-0.1,0.1-0.1,0.3-0.1,0.4
	c0,0.2,0.1,0.4,0.3,0.6c5.4,5,12.3,8.1,19.6,9h0.3c0.8-0.4,1.9-0.9,3-1.5c3.2,6.2,13.5,9,17.1,10h0.4c2.9-1.4,5.6-3.1,8.1-5
	C457.3,419.2,457,418.8,456.6,418.7L456.6,418.7z"/>
<path class="st3" d="M477.7,403.3c-11.7-4-12.5-7.4-12.8-10.7c0-0.4-0.6-0.6-0.9-0.4c-0.4,0.1-3.7,2.9-4,2.9
	c-6.9-0.9-13.4-3.8-18.6-8.5c-0.2-0.1-0.5-0.1-0.7,0c-2.1,1.4-4.7,3.8-6.7,5.1c-0.2,0.1-0.3,0.4-0.3,0.6s0.1,0.5,0.3,0.6
	c5.2,5,11.9,8,19.1,8.4l0.4-0.1c0.6-0.4,1.8-1.1,2.5-1.6c4,4.6,9.3,7.9,15.2,9.5l0.6-0.1c1.8-1.2,6.1-4.3,6.2-4.4l0,0l0,0l0,0l0,0
	l0,0l0,0c0-0.1,0.1-0.1,0.1-0.2l0,0C478.3,403.9,478.1,403.5,477.7,403.3L477.7,403.3"/>
<path class="st3" d="M289.9,448.8l-0.6-0.2c-1.6,0-3.2,0.1-4.7,0.1c-0.9,0-1.8,0-2.8,0c-0.3,0-0.6,0.2-0.7,0.4
	c-0.1,0.3,0,0.6,0.2,0.8c3.1,3.1,6.7,5.8,10.6,7.8l-2.2-0.2c-0.3,0-0.6,0.1-0.7,0.4s-0.1,0.6,0.1,0.8c1.3,1.4,2.7,2.6,4.3,3.7
	l0.3,0.1c1.2,0.2,4.2,0.6,5.3,0.8h0.1c0.3,0,0.5-0.1,0.6-0.3c0.1-0.2,0.1-0.6,0-0.8c-0.4-0.5-2.1-1.2-2.1-1.6c0-0.3,0.1-0.6,0.2-0.9
	c1.8,0,3.6,0,5.3,0c0.4,0,0.8,0,1.2,0c0.4,0,0.6-0.3,0.7-0.6c0-0.4-0.2-0.7-0.5-0.8C299,456.5,293.9,453.2,289.9,448.8"/>
<path class="st3" d="M412.5,428.4c1.4-0.6,3.3-1.5,4.3-2c0.3-0.1,0.5-0.4,0.4-0.8c0-0.3-0.3-0.6-0.6-0.6c-8-0.7-15.4-4.2-21.1-9.8
	c-0.2-0.2-0.5-0.2-0.8-0.1c-2,1.1-5.2,2.7-7.3,3.7c-0.2,0.1-0.4,0.3-0.4,0.6c0,0.2,0.1,0.5,0.3,0.6c5.2,4.3,11.3,7.5,17.9,9.1
	c-0.4,0.2-0.8,0.3-1.2,0.4c-0.3,0.1-0.5,0.5-0.5,0.8c1.4,6.1,12.6,9,17.5,10.2h0.4c2.1-0.6,5.4-2.3,7.3-2.9c0.3-0.1,0.5-0.4,0.5-0.7
	c0-0.3-0.2-0.6-0.5-0.7C418.9,433.9,413.3,430.6,412.5,428.4"/>
<path class="st3" d="M390.3,439.5c1.8-0.8,3.8-1.7,5.1-2.3c0.3-0.1,0.5-0.4,0.4-0.7c0-0.3-0.3-0.6-0.6-0.6c-8.4-0.7-16.4-3.9-23-9.2
	c-0.2-0.2-0.5-0.2-0.8-0.1c-1.9,1-4.9,1.9-7.1,2.9c-0.2,0.1-0.4,0.3-0.4,0.6c0,0.2,0.1,0.5,0.3,0.6c5.7,4.6,12.4,7.8,19.6,9.3
	c-0.4,0.1-0.8,0.3-1.2,0.4c-0.3,0.1-0.5,0.5-0.5,0.8c1.3,6.1,9.4,8.6,14.3,9.7h0.4c2-0.5,4-1.1,5.9-1.7c0.3-0.1,0.5-0.4,0.5-0.7
	c0-0.3-0.2-0.6-0.5-0.7C392.5,445.2,390.6,441.6,390.3,439.5"/>
<path class="st3" d="M344.4,455.9c0-0.4,0.4-1.5,0.4-1.7c0.9-0.1,1.9-0.2,2.8-0.3c0.3,0,0.6-0.3,0.6-0.7c0-0.3-0.2-0.6-0.5-0.7
	c-6-2.2-11.5-5.7-16-10.3l-0.6-0.2c-2.5,0.5-4.9,1.1-7.4,1.4c-0.3,0-0.5,0.2-0.6,0.5s0,0.6,0.2,0.8c4.8,4.2,10.4,7.3,16.4,9.3
	c-1.3,0.1-2.6,0.2-3.9,0.3c-0.3,0-0.6,0.2-0.6,0.5c0,0.1,0,0.2,0,0.3c0.1,3.3,4.2,5.8,7,7.1l0.3,0.1c1.7,0,2.8-0.4,4.5-0.4
	c0.4,0,1.3-0.2,1.7-0.2c0.3,0,0.6-0.2,0.7-0.5s-0.1-0.6-0.3-0.8C345.6,458.3,344.4,456.9,344.4,455.9"/>
<path class="st3" d="M322.2,459.1c0-0.4,0.1-0.8,0.3-1.1c1-0.2,2-0.4,3-0.5c0.3,0,0.6-0.3,0.6-0.6c0-0.3-0.2-0.7-0.5-0.8
	c-5.8-1.9-11-5.2-15.3-9.6l-0.6-0.2c-2.4,0.5-4.9,0.6-7.4,0.9c-0.3,0-0.5,0.2-0.6,0.5s0,0.6,0.2,0.8c4.3,3.8,9.3,6.8,14.8,8.8
	c-1,0.1-2,0.2-3.1,0.2c-0.3,0-0.6,0.2-0.7,0.5c0,0.1,0,0.2,0,0.2c1.2,2.9,3.4,5.2,6.3,6.5l0.3,0.1c1.7,0,6,0,6.5,0
	c0.3,0,0.6-0.2,0.7-0.5s-0.1-0.6-0.3-0.8C323,461.4,322.2,460,322.2,459.1"/>
<path class="st3" d="M365.3,448.8c1.6-0.4,3.3-1,4.5-1.2c0.4-0.1,0.6-0.4,0.6-0.8c-0.1-0.3-0.3-0.5-0.6-0.6
	c-7.3-1.6-13.8-5.4-18.9-10.8c-0.2-0.2-0.5-0.3-0.7-0.2c-2.1,0.6-5,1.7-6.9,2.1c-0.3,0.1-0.5,0.3-0.5,0.5c-0.1,0.3,0,0.6,0.3,0.7
	c4.9,4.1,10.5,7.4,16.5,9.6c-0.6,0.2-1.3,0.3-2,0.4c-0.4,0.1-0.7,0.4-0.6,0.8c0,0.1,0,0.1,0,0.1c2.2,4.1,6,7.1,10.6,8.2h0.2
	c2.2-0.1,4.9-0.8,7.1-0.9c0.4,0,0.7-0.4,0.6-0.8c0-0.3-0.2-0.5-0.5-0.6C368.9,453.3,366,450.8,365.3,448.8"/>
<path class="st3" d="M502.2,337.5c-2.1,1.6-4.3,3.3-6.5,5c-0.3,0.2-0.4,0.7-0.1,1c0.1,0.1,0.1,0.1,0.2,0.2
	c5.4,3.2,11.3,5.5,17.5,6.8c0.1,0,1.3,0.3,1.3,0.3c0.2,0,0.4-0.1,0.5-0.2c1.2-1.1,2.5-2.1,3.7-3c1.9,1,4.8,1.8,7,2.8
	c0.1,0.1,0.2,0.1,0.3,0.1c0.2,0,0.5-0.1,0.6-0.3c0.8-1.3,2.1-3.7,3-5.1c0.2-0.3,0.1-0.6-0.1-0.9c-2-1.4-4.3-2.4-6.7-3.1
	c-0.4-0.1-0.7-0.2-1,0c-1,0.9-1.8,1.8-2.8,2.7c-5.6-1.5-11.1-3.6-16.2-6.4C502.7,337.3,502.4,337.3,502.2,337.5"/>
<path class="st3" d="M504.7,361.1c-0.1-0.1-0.3-0.2-0.5-0.3c-0.2,0-0.4,0-0.6,0.2c-0.7,0.6-1.5,1.2-2.3,1.8
	c-6.5-2.5-12.6-5.8-18.3-9.8c-0.3-0.1-0.6-0.1-0.8,0.1c-2.3,1.9-4.6,3.8-7,5.6c-0.2,0.1-0.3,0.4-0.3,0.6s0.1,0.4,0.3,0.6
	c5.9,4.8,12.7,8.3,20,10.4l0.6-0.1c0.8-0.6,2.2-1.4,3-2c3,2.9,6.8,4.6,11,5c0.1,0,0.2,0.1,0.3,0.1c0.2,0,0.4-0.1,0.5-0.2
	c1.3-1.3,4-4.6,5.3-5.9c0.2-0.4,0.3-0.8,0.4-1.2c0-0.2-0.1-0.5-0.3-0.5C512,364.7,508.2,363.3,504.7,361.1"/>
<path class="st3" d="M483.8,378.2c-0.2-0.3-0.5-0.4-0.8-0.3l-0.1,0.1c-0.1,0.1-0.2,0.1-0.2,0.2s-0.1,0.1-0.1,0.2
	c0,0-1.4,1.6-1.7,1.5c-10.6-2.3-10.9-5.9-16.5-9c-0.3-0.1-0.6-0.1-0.8,0.1c-2.3,1.9-4.6,3.8-7,5.6c-0.2,0.1-0.3,0.4-0.3,0.6
	s0.1,0.4,0.3,0.6c4.9,4.3,10.8,7.3,17.2,8.8l0.6-0.1c0.8-0.6,1.5-1.2,2.3-1.7c4.2,3.7,9.6,5.8,15.2,5.7c0.1,0,0.2,0.1,0.3,0.1
	c0.2,0,0.4-0.1,0.5-0.2c1.2-1.2,4.4-4.2,5.7-5.6c0.2-0.2,0.2-0.5,0.2-0.7c-0.1-0.3-0.3-0.4-0.6-0.5
	C497.9,383.5,487.1,383.8,483.8,378.2"/>
<path class="st3" d="M267.7,448.5l-0.5-0.3c-2.2-0.3-4.5-0.6-6.8-1c-0.3,0-0.6,0.1-0.7,0.3c-0.2,0.2-0.1,0.6,0,0.8
	c2,2.7,4.4,5.1,6.9,7.3h-0.1c-0.3,0-0.6,0.1-0.7,0.3c-0.2,0.2-0.1,0.6,0,0.8c0.5,1,1.1,1.8,1.9,2.6l0.3,0.1c1.2,0.4,3,0.7,4.1,1
	c0.1,0,0.1,0,0.2,0c0.2,0,0.4-0.1,0.5-0.2c0.2-0.2,0.3-0.5,0.2-0.7c0-0.1-0.8-0.7-0.8-0.8c0-0.1,0-0.2,0.1-0.2
	c1.4,0.1,2.8,0.3,3.8,0.4h0.1c0.3,0,0.6-0.2,0.7-0.4c0.1-0.3,0-0.7-0.3-0.9C273.1,455.2,270.1,452.1,267.7,448.5"/>
<path class="st3" d="M194.4,423l-0.3-0.4l-5.7-3.8c-0.3-0.2-0.6-0.1-0.8,0c0.5,1.9,1.1,3.9,1.9,5.7l0.2,0.3c1.9,2,4,3.7,6.4,5.1
	c0.1,0.1,0.2,0.1,0.4,0.1c0.4,0,0.7-0.3,0.7-0.7c0-0.2-0.1-0.4-0.2-0.5C195.8,427,194.9,425,194.4,423"/>
<path class="st3" d="M533.4,331.2c0.1,0,0.1,0,0.2,0c0.3,0,0.5-0.2,0.6-0.4c1-2.1,2-4.2,2.8-6.3c0.2-0.3,0-0.8-0.3-0.9
	c-0.1,0-0.1,0-0.2-0.1c-4.6-0.9-8.9-2.6-12.9-5c-0.2-0.1-0.5-0.1-0.8,0.1c-2,1.6-2.4,3.5-4.2,4.8c-0.3,0.2-0.4,0.7-0.1,1
	c0.1,0.1,0.1,0.1,0.2,0.2C523.3,327.5,528.2,329.8,533.4,331.2"/>
<path class="st3" d="M541.1,308.6L541.1,308.6c0.4,0,0.6-0.2,0.7-0.4c0.8-2,1.4-3.9,2.1-5.8c0-0.1,0-0.1,0.1-0.2
	c0-0.2,0-0.3-0.1-0.5l0,0c-0.1-0.1-0.2-0.2-0.3-0.2h-0.2c-2.9,0.1-5.9-0.6-8.5-1.9c-0.3-0.1-0.6,0-0.7,0.2c-1.3,1.6-2.7,3.2-4.1,4.8
	c-0.1,0.2-0.2,0.4-0.2,0.6s0.2,0.4,0.4,0.5C533.6,307.3,537.3,308.3,541.1,308.6"/>
</svg>
