<?xml version="1.0" encoding="utf-8"?>
<!-- Generator: Adobe Illustrator 21.1.0, SVG Export Plug-In . SVG Version: 6.00 Build 0)  -->
<!DOCTYPE svg PUBLIC "-//W3C//DTD SVG 1.1//EN" "http://www.w3.org/Graphics/SVG/1.1/DTD/svg11.dtd">
<svg version="1.1" id="Layer_1" xmlns="http://www.w3.org/2000/svg" xmlns:xlink="http://www.w3.org/1999/xlink" x="0px" y="0px"
	 width="609.8px" height="490px" viewBox="0 0 609.8 490" style="enable-background:new 0 0 609.8 490;" xml:space="preserve">
<style type="text/css">
	.st0{fill:#FFFFFF;}
	.st1{fill:#B0B7BB;}
	.st2{fill:#002B5C;}
	.st3{fill:#D31245;}
</style>
<title>Minnesota Twins logo</title>
<path class="st0" d="M319.8,490c-65.2,0-126.5-25.5-172.5-71.8c-9.3-9.3-18.2-19.8-26.2-31.1c-22.6,8.7-33.8,13.3-36.8,14.7
	l-18.7,8.7v-10.7l-9.1,3.8l-0.7-40.9l4.7-4c5.2-4.5,7.5-9.3,7.8-11.4v-89.2l-0.2,0.1c-5.1,1.8-10.7,2.9-16.5,3.1l-0.2,0h-0.9
	c-10.4,0-20.3-3.9-28-11c-4.9-2.6-9.3-6.2-12.8-10.5C2.5,231-0.9,220.1,0.2,209c0-20.9,9.1-37.8,27.1-50.3
	c16.9-11.7,41.8-19.5,74.2-23.1c11.7-23.5,27.1-45,45.8-63.8C193.5,25.5,254.7,0,319.8,0C385,0,446.3,25.5,492.3,71.8
	c12.4,12.4,23.4,26.2,32.9,41c0.6-0.1,1.1-0.1,1.7-0.2c15-1.2,27-2.2,43.8-3.2l22.1-1.3l0.2,9.3l9-0.5v88.4l-2.3-0.2
	c7,10,10.5,22.1,9.9,34.6c-1.2,26.3-21.1,47.8-47.3,51.1l-0.8,0.2h-0.8l-1.5,0.1c-8.9,47.5-32.6,92.5-66.9,127.1
	C446.3,464.5,385,490,319.8,490L319.8,490L319.8,490z"/>
<path class="st1" d="M81.3,206.2c0-3.1,0-6.2,0-9.1C62.1,200,43,206.7,43,217.8v0.1c0.2,6.5,4.7,12,11,13.4
	c-1.6-2.2-2.4-4.9-2.3-7.6v-0.1C51.7,214,63.6,208.7,81.3,206.2"/>
<path class="st2" d="M231,449c-39.3-17.1-72.9-45.3-96.5-81.1c-2.7,1-5.8,2.2-9.1,3.5c8.6,13.1,18.4,25.4,29.5,36.5
	c0.2,0.1,0.3,0.3,0.4,0.4c1.8,1.8,3.6,3.5,5.4,5.3c0.3,0.2,0.5,0.5,0.8,0.7c1.7,1.5,3.3,3.1,5,4.6c2.8,2.5,5.7,4.9,8.6,7.2
	c41,32.9,91.9,50.7,144.4,50.7h0.1c66.5,0.1,129.8-28.6,173.7-78.6l0.2-0.3c29.5-33.5,48.6-75,55.1-119.2c-0.3,0-0.6,0.1-0.9,0.1
	l0,0c-2.7,0.2-5.6,0.5-8.6,0.8c-19.2,121.4-133,204.3-254.3,185.1C266.3,461.8,248.2,456.5,231,449"/>
<path class="st2" d="M483.1,81.1c-90.2-90.5-236.4-90.5-326.5,0s-90.2,237.3,0,327.9s236.4,90.5,326.5,0
	c43.3-43.5,67.6-102.4,67.6-163.9C550.8,183.5,526.5,124.5,483.1,81.1"/>
<path class="st2" d="M580.3,131.3c3-0.2,5.9-0.3,8.7-0.5c0,5.2,0,48.1,0,59.9c-11.7-1.2-22.3-7.2-29.3-16.6
	c6.2,4.2,13.2,6.9,20.6,7.8C580.3,172.9,580.3,146,580.3,131.3"/>
<path class="st2" d="M572.1,171.5c-12.4-4.7-20.6-16.7-20.5-30c-12.2-0.3-21,5.2-20.2,21.3c0.3,6.8,3.4,14.8,16.5,23.8
	c31.1,21.3,32,30.5,33,41.2c1.6,15.4-8.8,29.6-24,32.6c-17.6,1.3-31.8,2.7-49.1,4.6c-0.1-3.4,0.1-38.5,0-40.9
	c12.4,4.5,20.6,16.4,20.5,29.6c12.2,0.1,26.4-6,25.7-22.2c-0.3-6.8-4.4-14.2-30.1-31.4c-11.7-7.4-19-20.1-19.4-34
	c-0.6-13.8,7.5-30.7,24.5-32.4c15.7-1.3,27.2-2.1,43.2-3.1C572.2,134.7,572,169.1,572.1,171.5"/>
<path class="st2" d="M548.3,171.1c0,0.4,0.1,0.8,0.1,1.2c0.4,1.4,0.8,2.9,1.3,4.3c0.3,0.7,0.7,1.3,1.1,1.9c-9.5-7-11-12.2-11.1-16.1
	c0-0.5-1-9.9,5-11.8c0.9,4.3,2.5,8.4,4.8,12.2C548.4,165.5,548,168.3,548.3,171.1"/>
<path class="st2" d="M21.3,210.9c0-55.5,96.5-56.4,127.2-56.4c44.2-0.1,75-10.9,80.1-29.1c-6.7,54-94.6,58.3-112.7,58.5v153
	c-0.7,7.4,4.6,14,11.9,14.9c-18.6,6.7-35.1,13.3-49.3,19.4c6.3-5.8,10.2-13.8,10.9-22.4c0,0.3,0-160.9,0-160.9
	c-15.6,1.5-54.7,7.5-54.8,29.9v0.1c0,6.3,2.8,12.3,7.7,16.3c-11.7,0-21.2-9.4-21.2-21.1C21.2,212.3,21.3,211.6,21.3,210.9"/>
<path class="st0" d="M549.7,176.6L549.7,176.6c-0.4-1.4-0.8-2.9-1.3-4.3l0,0C548.8,173.7,549.2,175.2,549.7,176.6"/>
<path class="st0" d="M132.9,199.8v10.6c13.1-4.2,40.8-12.9,52.5-16.5v9.3c1.8-0.6,3.5-1.1,5.1-1.5v-9.2c11.8-3.4,42.6-12,54.6-15.3
	v9.3c1.8-0.5,3.5-0.9,5.1-1.4v-9.2c12.9-3.4,41.5-10.4,54.5-13.5v9.3c1.8-0.4,3.5-0.8,5.1-1.2v-9.3l6.4-1.5
	c12.9-2.9,26-5.7,38.8-8.3l9.9-2v9.3l5.1-1v-9.3c13.1-2.5,33.8-6.3,46.5-8.4l23.8-3.8c11-1.9,22.4,1.1,31,8.2
	c2.1,1.7,3.9,3.7,5.5,5.9c1.1,0.7,2.2,1.5,3.1,2.3c9.1,8.4,13.9,20.5,13.2,32.9v70c-0.1,1.6,0,3.2,0.4,4.7l1.3,0.7v2.2
	c1.3,1.7,2.9,3.1,4.8,4.1c0-14.2,0-44.1,0-53.1c11.5,0.8,22,6.5,29,15.7c1,0.7,2,1.5,2.9,2.3c3.5,3,6.4,6.7,8.6,10.8
	c3.9-2.1,6.1-6.4,5.7-10.8c-0.2-1.8-0.9-3.5-2.1-5c-3.5-4.3-7.6-8.1-12.2-11.4c-3.3-2.5-7.3-5.4-12.2-8.7c-1.2-0.8-2.2-1.6-3.3-2.4
	c-12-9-19.3-23.1-19.7-38.1c0-0.6,0-1.2,0-1.9c-0.1-12.5,5.4-24.3,15-32.2C449.2,26.5,313.1-9,207.3,53.1
	c-37.6,22.1-67.8,54.7-87,93.8c11.9-0.7,22-0.7,28.3-0.7c45.4-0.1,75.7-11.4,76.1-33.7l12.6,4.1c0,1.4,0,2.7-0.1,4l6.7,2.2
	C243,185.7,162.2,198.4,132.9,199.8 M461.7,77.5c0.3-0.2,0.6-0.2,0.9,0c2,1.7,3.9,3.5,5.7,5.3l0.2,0.3c0.2,0.7,0.3,1.3,0.4,2
	c0.8,0.1,1.6,0.2,2.4,0.4l0.4,0.2c7.3,5.1,12.1,13.2,13.2,22.1c0,1.6-0.2,3.3-0.7,4.9c-0.1,0.3-0.4,0.5-0.7,0.5h-0.1
	c-2.1-0.3-4.2-0.6-6.3-0.8c-0.2,0-0.4-0.1-0.5-0.3c-0.1-0.2-0.2-0.4-0.1-0.6c0.4-1.4,0.5-2.8,0.5-4.2c-0.5-7.9-4.5-15.1-10.9-19.8
	c-1-0.3-2.1-0.5-3.3-0.8c-0.2,0-0.3-0.2-0.4-0.3c-0.1-0.2-0.1-0.4-0.1-0.6c0.2-0.7,0.3-1.3,0.3-2c0-1.8-0.5-3.6-1.2-5.3
	C461.3,78.1,461.4,77.7,461.7,77.5 M443.8,68c0-0.2,0.1-0.4,0.3-0.5c0.2-0.1,0.4-0.2,0.6-0.1c2,0.4,2.5,0.3,4.6,0.9
	c0.3,0.1,0.5,0.3,0.5,0.6c0.9,4.7,1.4,9.4,1.5,14.2v0.8c0,0.1-0.1,0.1-0.1,0.2c2,0.5,3.9,1,3.9,1l0.3,0.2c4.5,4.8,7,11.2,6.9,17.8
	c0,2.4-0.3,4.8-0.8,7.1c-0.1,0.4-0.4,0.6-0.8,0.6h-0.1l-8.2-1.2c-0.2,0-0.4-0.2-0.5-0.4c-0.1-0.2-0.2-0.4-0.1-0.6
	c0.8-2.8,1.3-5.8,1.4-8.7c0-5.9-2.5-11.6-6.9-15.6l0,0c0-0.1-0.2,0-0.4-0.6l0,0c-0.9-0.2-1.8-0.4-3-0.7c-0.4-0.1-0.6-0.4-0.5-0.8
	C443.1,77.2,443.6,72.6,443.8,68 M424.4,62.8c0-0.2,0.1-0.4,0.3-0.5c0.2-0.1,0.4-0.2,0.6-0.1c1.9,0.4,3,0.3,5.1,0.8
	c0.3,0.1,0.5,0.3,0.5,0.6c0.1,0.6,0.2,1.2,0.2,1.8c0,3.8-1.6,8.7-1.6,13.2v0.1c1.7,0.2,2.5,0.3,5.6,0.6c0.3,0,0.5,0.2,0.6,0.5
	c2.6,6.4,4,13.2,4.2,20.1c0,2.4-0.2,4.8-0.8,7.2c-0.1,0.4-0.4,0.6-0.7,0.6h-0.1l-6.9-1c-0.4-0.1-0.6-0.3-0.7-0.7
	c0.5-9-1-18.1-4.5-26.4c-0.1-0.2-0.1-0.5,0.1-0.8c-1.8-0.4-3.4-0.6-5.5-1.2c-0.4-0.1-0.6-0.5-0.5-0.8
	C422.2,72.2,423.6,67.6,424.4,62.8 M414,75.4c1.9,5.9,2.9,12.1,3,18.3c0,2.7-0.2,5.3-0.7,7.9c-0.1,0.4-0.4,0.6-0.8,0.6h-0.1
	c-2.7-0.4-5-0.8-7.7-1.2c-0.4,0-0.7-0.4-0.7-0.8c0,0,0.1-1.9,0.1-4.9c0.1-7-0.7-13.9-2.4-20.6c-0.1-0.2,0-0.5,0.2-0.7
	s0.4-0.3,0.7-0.3c3.2,0.4,4.6,0.8,7.7,1.2C413.7,74.9,414,75.1,414,75.4 M395.8,71.8c2.1-5,4.9-9.7,8.2-13.9l0.7-0.2l5.6,0.9
	c0.2,0,0.4,0.2,0.5,0.4s0.2,0.4,0.1,0.6c-1.5,4.8-3.4,9.5-5.7,14c-0.1,0.3-0.4,0.5-0.7,0.5h-0.1c-3.2-0.4-4.8-0.8-8-1.1
	c-0.3,0-0.5-0.2-0.6-0.4S395.7,72.1,395.8,71.8 M381.7,53.5l0.5-0.1c2.3,0.3,4.4,0.5,6.7,0.8c0.4,0.1,0.7,0.4,0.6,0.8
	c0,0.2-0.1,0.4-0.3,0.5c-4.2,3.2-7.4,7.6-9,12.6c0,0.1-0.1,0.1-0.1,0.1c2.2,0.4,4.2,0.8,6.4,1.2c0.3,0,0.5,0.2,0.6,0.5
	c2.2,7,3.5,14.3,3.7,21.6c0,1.9-0.1,3.8-0.4,5.6c0,0.2-0.1,0.4-0.3,0.5c-0.1,0.1-0.3,0.1-0.4,0.1h-0.1c-2.4-0.4-4.8-0.8-7.1-1.2
	c-0.3-0.1-0.6-0.3-0.6-0.7c-0.7-9.1-2.1-18.2-4.2-27.1c0-0.2,0-0.4,0.1-0.5c-2.2-0.3-4.4-0.6-6.6-0.8c-0.4-0.1-0.7-0.4-0.6-0.8
	c0-0.1,0-0.1,0.1-0.2C373.2,61.3,377,56.9,381.7,53.5 M358.1,49.3l0.4-0.1c1.8,0.1,3.5,0.2,5.3,0.4c0.3,0,0.6,0.2,0.6,0.5
	c0.1,0.3,0,0.6-0.3,0.8c-4.5,3-7.8,7.5-9.3,12.7l-0.1,0.1c2.1,0.2,4.1,0.6,6.2,0.8c0.3,0,0.6,0.3,0.7,0.7l2.3,25.1
	c0,0.2-0.1,0.4-0.2,0.6c-0.1,0.1-0.3,0.2-0.5,0.2h-0.1c-1.9-0.3-3.8-0.5-5.7-0.7c-0.3,0-0.5-0.2-0.6-0.5c-2.3-8.3-3.8-16.9-4.3-25.5
	c0-0.1,0.1-0.2,0.1-0.3c-2-0.1-4.1-0.3-6.1-0.4c-0.2,0-0.4-0.1-0.5-0.3s-0.2-0.4-0.1-0.6C348,56.8,352.4,51.9,358.1,49.3
	 M333.3,47.9l0.4-0.1c1.8,0.1,3.6,0.2,5.3,0.4c0.3,0,0.6,0.2,0.6,0.5c0.1,0.3,0,0.6-0.3,0.8c-4.2,2.9-7.4,7.1-9,11.9
	c1.7,0.1,3.5,0.2,5.2,0.4c0.3,0,0.6,0.3,0.6,0.6l3.4,26.6c0,0.2,0,0.4-0.2,0.6c-0.1,0.1-0.3,0.2-0.5,0.2h-0.1
	c-1.9-0.3-3.8-0.5-5.7-0.7c-0.3,0-0.5-0.2-0.6-0.5c-2.8-8.4-4.8-17.2-5.7-26c-1.6-0.1-3.3-0.2-4.9-0.3c-0.2,0-0.4-0.1-0.5-0.3
	s-0.2-0.4-0.1-0.6C323.1,55.4,327.5,50.5,333.3,47.9 M340.8,100.9c5.7,0,11.2,2.4,15.2,6.5c7.9,3.2,13.2,10.9,13.2,19.5
	c0,11.5-9.3,20.8-20.8,20.8h-0.1c-5.7,0-11.1-2.4-15-6.4c-10.8-4.2-16.1-16.3-11.9-27.1C324.4,106.2,332.2,100.9,340.8,100.9
	 M308.7,46.9l0.3-0.1c1.6,0,3.1,0,4.7,0.1c0.3,0,0.6,0.2,0.7,0.5s0,0.6-0.2,0.8c-3.9,3.4-6.8,7.7-8.4,12.6c1.5,0,2.9,0,4.4,0.1
	c0.4,0,0.7,0.3,0.7,0.7c0.2,8.5,1.4,16.9,3.5,25.1c0.1,0.2,0,0.5-0.1,0.7s-0.3,0.3-0.5,0.3h-0.1c-1.7-0.2-3.6-0.3-5.4-0.5
	c-0.3,0-0.5-0.2-0.6-0.4c-3.7-7.8-5.8-16.2-6.2-24.8c-1.1,0-2.3,0-3.4,0c-0.4,0-0.7-0.3-0.7-0.7c0-0.1,0-0.1,0-0.2
	C299.1,54.8,303.2,49.8,308.7,46.9 M283.7,47.7l0.4-0.1c1.6-0.1,3.2-0.3,4.8-0.4c0.4,0,0.7,0.3,0.8,0.7c0,0.2-0.1,0.5-0.2,0.6
	c-3.8,3.1-6.4,7.5-7.3,12.3c1.3-0.1,2.5-0.2,3.8-0.3c0.2,0,0.5,0.1,0.6,0.3s0.2,0.4,0.2,0.6c-0.6,2.4-0.8,4.8-0.8,7.3
	c0.1,5.1,0.8,10.2,2.1,15.1c0.1,0.2,0,0.4-0.1,0.6s-0.3,0.3-0.6,0.3l0,0c-1.8,0-4.2-0.5-5.9-0.6c-0.3,0-0.5-0.4-0.6-0.6
	c-2.4-4.9-3.6-10.3-3.6-15.7c0-1.6,0.2-3.3,0.6-4.9c-1,0.1-2.1,0.2-3.1,0.3h-0.1c-0.2,0-0.4-0.1-0.5-0.2c-0.2-0.2-0.2-0.4-0.2-0.6
	C274.7,56.2,278.4,50.9,283.7,47.7 M258.2,50.6l0.3-0.2c2.1-0.5,4.3-0.9,6.5-1.3c0.4-0.1,0.8,0.2,0.8,0.6c0.1,0.3-0.1,0.5-0.3,0.7
	c-3.9,2.8-6.4,7.1-7,11.8c1.2-0.2,2.4-0.5,3.5-0.7c0.3,0,0.5,0.1,0.7,0.3s0.2,0.5,0.1,0.7c-1.4,3.1-2,6.5-2,10
	c0.1,3.2,0.7,6.4,1.8,9.4c0.1,0.2,0,0.4-0.1,0.6s-0.3,0.3-0.6,0.3c-1.2,0.1-3.4-0.1-4.7,0h-0.1c-0.3,0-0.5-0.1-0.6-0.4
	c-2.4-4.3-3.8-9.1-4-14c0-1.2,0.2-2.4,0.5-3.6c-0.9,0.1-1.7,0.2-2.3,0.4c-0.1,0-0.1,0-0.2,0c-0.2,0-0.4-0.1-0.5-0.2
	c-0.2-0.2-0.2-0.4-0.2-0.6C251,59.1,253.9,54.2,258.2,50.6 M140.7,129.6c0.1,0.2,0.1,0.5-0.1,0.7l-2.8,3.9c-0.1,0.2-0.4,0.3-0.6,0.3
	c-0.1,0-0.2,0-0.3,0c-0.2,0-2-1-2-4.3c0.1-1.9,0.5-3.8,1.2-5.7l4.3-7.5c0.2-0.3,0.6-0.5,1-0.3c0.3,0.2,0.4,0.6,0.3,0.9
	c-1.1,2.6-1.7,5.3-1.8,8.1C139.9,127,140.2,128.4,140.7,129.6 M152.9,119.1c0.1,0.3,0,0.6-0.2,0.8c-1,0.9-2,1.9-3,2.9
	c-0.1,0.1-0.3,0.2-0.5,0.2l0,0c-0.2,0-0.4-0.1-0.5-0.3c-1.6-2-2.5-4.5-2.6-7.1c0-0.2,0.2-3,0.2-3c0.2-0.6,0.4-1.1,0.6-1.6l0.1-0.1
	c0.4-0.5,0.9-0.9,1.4-1.4c1.5-3.9,3.3-7.7,5.6-11.3c0.3-0.3,0.6-0.6,0.9-1c0.2-0.3,0.6-0.3,1-0.1c0.3,0.2,0.4,0.6,0.2,0.9
	c-1.8,3-3.1,6.4-3.6,9.9l-0.2,0.5c-0.1,0.1-0.3,0.3-0.4,0.4c-0.3,1.2-0.4,2.4-0.4,3.6C151.5,114.8,152,117,152.9,119.1 M167.2,108.3
	c0.1,0.3,0,0.7-0.2,0.9c-1.1,1-2.9,1.9-4.1,2.9c-0.1,0.1-0.3,0.2-0.6,0.2h-0.1c-0.2,0-0.4-0.1-0.6-0.3c-1.8-2.1-2.8-4.7-2.9-7.5
	c0-0.2,0-0.4,0-0.7l0.3-2.6c0.2-0.6,0.4-1.2,0.7-1.8l0.1-0.2c0.6-0.6,1.2-1.2,1.8-1.8c1.7-4.2,3.7-8.2,6-11.9c0.3-0.4,0.7-0.7,1-1.1
	c0.3-0.3,0.7-0.4,1.1-0.2c0.3,0.2,0.4,0.7,0.3,1c-2,3.3-3.4,6.9-3.9,10.7l-0.3,0.5c-0.2,0.2-0.5,0.5-0.7,0.7
	c-0.3,1.2-0.4,2.5-0.4,3.8C165.2,103.6,166,106.1,167.2,108.3 M181.2,85.5c0.3-0.2,0.6-0.2,0.9,0c0.3,0.2,0.4,0.5,0.4,0.8
	c-0.2,1.2-0.2,2.3-0.2,3.5c-0.3,3.2,0.3,6.3,1.8,9.2c0.1,0.2,0.1,0.4,0.1,0.6s-0.2,0.4-0.4,0.5c-1.4,0.8-2.8,1.7-4.4,2.4
	c-0.1,0.1-0.3,0.1-0.4,0.1c-0.2,0-0.4-0.1-0.5-0.2c-2-2.5-3.2-5.5-3.4-8.6c-0.1-0.5-0.1-1.1-0.1-1.7c-0.2,0.2-0.5,0.3-0.8,0.4
	c-0.2,0-0.3,0-0.4-0.1c-0.3-0.2-0.4-0.5-0.3-0.9c2-6.4,5.4-12.3,9.8-17.3l0.1-0.1c0.5-0.4,1.1-0.9,1.7-1.3c0.3-0.2,0.8-0.2,1,0.1
	c0.3,0.3,0.3,0.7,0.1,1c-3.2,3.8-5.5,8.3-6.8,13.1C179.9,86.4,180.4,86,181.2,85.5 M204.7,65.2c-3.1,3.2-5.2,7.1-6.2,11.4
	c1.3-0.6,1.6-0.7,2.6-1.1c0.4-0.2,0.8,0,0.9,0.4c0.1,0.2,0.1,0.4,0,0.6c-0.9,2.2-1.3,4.6-1.2,7c0,2.9,0.7,5.7,2,8.3
	c0.1,0.2,0.1,0.4,0,0.6s-0.2,0.3-0.4,0.4c-1.7,0.5-3.1,1.1-4.7,1.6c-0.1,0-0.2,0-0.2,0c-0.2,0-0.4-0.1-0.6-0.3
	c-2.4-3.1-3.8-6.9-3.8-10.8c0-0.7,0.1-1.4,0.1-2.1c-0.1,0.1-0.2,0.1-0.4,0.2c-0.1,0.1-0.2,0.1-0.3,0.1c-0.4,0-0.7-0.3-0.7-0.7
	c0-0.1,0-0.1,0-0.2c1.5-5.4,4.2-10.4,8-14.6l0.2-0.2c1.3-0.6,2.5-1.3,3.8-1.9c0.4-0.2,0.8,0,1,0.3C205,64.7,204.9,65,204.7,65.2
	 M222.7,58.9c-2.9,3.1-4.6,7.1-4.9,11.4c1.2-0.3,2.3-0.5,3.2-0.8c0.3-0.1,0.5,0,0.7,0.2s0.3,0.5,0.2,0.7c-1.1,2.9-1.7,6-1.9,9.1
	c0,2.5,0.6,4.9,1.8,7c0.1,0.2,0.1,0.4,0,0.6s-0.3,0.3-0.5,0.4c-1.6,0.3-3.2,0.8-4.7,1.1h-0.1c-0.2,0-0.4-0.1-0.6-0.3
	c-2.5-3-3.9-6.8-4-10.7c0-1.4,0.3-2.9,0.7-4.2c-0.5,0.1-0.9,0.2-1.1,0.3c-0.1,0-0.1,0-0.2,0c-0.2,0-0.3,0-0.4-0.1
	c-0.2-0.2-0.3-0.4-0.3-0.6c0.5-5.1,2.8-9.8,6.4-13.4l0.3-0.2c1.7-0.6,3.4-1.2,5.1-1.7c0.4-0.1,0.8,0.1,0.9,0.5
	C223,58.4,223,58.7,222.7,58.9 M237.5,65.5c1.1-0.2,2.4-0.4,3.5-0.6c0.2,0,0.5,0.1,0.6,0.2c0.1,0.2,0.2,0.5,0.1,0.7
	c-1.2,2.9-1.9,6-1.8,9.1c0,2.9,0.5,5.8,1.4,8.6c0.1,0.2,0,0.4-0.1,0.6s-0.3,0.3-0.5,0.3c-1.1,0-3.5,0.4-4.6,0.4H236
	c-0.2,0-0.5-0.1-0.6-0.3c-2-4.1-3.1-8.7-3.2-13.3c0-1.4,0.3-2.8,0.8-4.1c-0.9,0.1-1.8,0.3-2.4,0.4h-0.2c-0.2,0-0.3-0.1-0.4-0.2
	c-0.2-0.1-0.2-0.4-0.2-0.6c0.9-5,3.6-9.6,7.5-12.8l0.3-0.1c2-0.4,3.9-0.9,5.9-1.2c0.3-0.1,0.6,0.1,0.7,0.4c0.1,0.3,0,0.6-0.2,0.8
	C240.3,56.5,237.8,60.8,237.5,65.5"/>
<path class="st0" d="M145.7,363.7c-0.9,0.3-5.1,1.9-11.2,4.2c67.8,102.4,205.7,130.4,308,62.4c51.9-34.5,87-89.1,96.7-150.7
	c-12.1,1.1-25.8,2.3-30.9,2.9c0-1.3,0-4.7,0-9.3c-1.6,0.2-3.2,0.4-4.8,0.5v9.3c-13.4,1.3-38.8,4.8-52.9,6.9v-9.4
	c-3.2,0.5-6.1,0.9-8.7,1.3v-94.3c0.2-4.9-0.6-9.7-2.4-14.3c-1.6-0.5-3.3-0.7-5-0.8c0,13-0.1,119.7-0.1,119.7l-42.4,7.2v-9.2
	l-6.6,1.2v9.3l-14.6,2.9c-9.3,2.3-19.2,0.2-26.8-5.7c-1.9-1.5-3.6-3.2-5.1-5.1c-1.2-0.7-2.4-1.5-3.6-2.4
	c-11.8-9-13.2-24.6-13.2-35.5v-68.2c0.5-6-3.3-11.5-9-13.3v112.1c-0.1,2.6,0.2,5.2,0.7,7.7c0.8,0.2,1.7,0.4,2.7,0.6v4
	c2.6,1.8,5.5,3,8.7,3.4V313c-40,9-83.4,20.5-123,32.2c-12.1,3.7-25.2,1.8-35.7-5.2c-1.6-1.1-3-2.4-4.3-3.9c-1.5-0.8-2.9-1.6-4.3-2.6
	c-10.6-8.7-16.3-22-15.3-35.7c0,0,0-63.5,0-63.8c0-3.4-0.3-7.3-10-10.6v119.7c0,1.2,0.3,2.4,0.8,3.5c1.1,0.3,2.2,0.6,3.3,0.7v3.1
	c2.6,1.7,5.6,2.8,8.7,3.2L145.7,363.7z M186.4,420c-0.1,0-0.3,0-0.4-0.1c-2.4-1.4-4.5-3.1-6.4-5.1l-0.2-0.3
	c-0.8-1.9-1.4-3.8-1.9-5.7c0.2-0.2,0.6-0.2,0.8,0l5.7,3.8l0.3,0.4c0.5,2.1,1.4,4.1,2.6,5.8c0.3,0.3,0.3,0.7,0,0.9
	C186.9,419.9,186.7,420,186.4,420 M203.5,432.4L203.5,432.4L203.5,432.4L203.5,432.4 M205,431.8c-0.1,0-0.3,0-0.4-0.1
	c-0.4-0.2-9.1-6.5-9.1-6.5c-0.9-1.8-1.6-3.7-2.1-5.7c-0.1-0.3,0.1-0.6,0.3-0.7c0.2-0.2,0.5-0.2,0.8,0c0.2,0.1,0.5,0.3,0.7,0.5l0,0
	c3,1.9,3.4,1.7,6.5,3.6l0.3,0.5c0.4,2.7,1.6,5.2,3.4,7.3c0.3,0.3,0.3,0.7,0.1,1C205.5,431.7,205.2,431.8,205,431.8 M222.9,439.8
	c-0.1,0-0.3,0-0.4-0.1c-3.2-1.3-6.2-3.3-8.5-5.9l-0.1-0.1c-1.1-2-1.9-4.1-2.6-6.3l0,0c0-0.3,0.1-0.5,0.4-0.6c0.2-0.1,0.5-0.1,0.7,0
	c0.2,0.2,0.5,0.3,0.7,0.5l0,0c3,1.9,3.4,1.7,6.5,3.6l0.3,0.5c0.4,2.7,1.6,5.2,3.4,7.3c0.3,0.3,0.3,0.7,0.1,1
	C223.3,439.7,223.1,439.8,222.9,439.8 M245,446.4c-0.1,0-0.2,0-0.2,0c-2.5-0.9-4.9-1.9-7.7-3c-2.8-2.3-5-5.4-6.3-8.9
	c-0.1-0.4,0.1-0.8,0.4-0.9c0.2-0.1,0.4-0.1,0.5,0c2.2,1,4.4,1.9,6.6,2.8c0.2,0.1,0.4,0.3,0.4,0.5c1.1,3.4,3.4,6.4,6.6,8.2
	c0.3,0.2,0.4,0.6,0.2,0.9C245.5,446.3,245.2,446.5,245,446.4 M266.3,448.9h-0.1c-1-0.2-2.5-0.3-3.8-0.4c0,0.1-0.1,0.2-0.1,0.2
	c0,0.1,0.7,0.7,0.8,0.8c0.1,0.3,0,0.5-0.2,0.7c-0.1,0.1-0.3,0.2-0.5,0.2c-0.1,0-0.1,0-0.2,0c-1.1-0.3-3-0.7-4.1-1l-0.3-0.2
	c-0.8-0.8-1.4-1.6-1.9-2.6c-0.2-0.2-0.2-0.6,0-0.8c0.2-0.2,0.5-0.4,0.7-0.3h0.1c-2.6-2.2-4.9-4.6-6.9-7.3c-0.2-0.2-0.2-0.5,0-0.8
	s0.4-0.4,0.7-0.3c2.3,0.4,4.6,0.8,6.8,1l0.5,0.3c2.3,3.6,5.4,6.7,8.9,9.1c0.3,0.2,0.4,0.6,0.3,0.9
	C266.8,448.8,266.6,448.9,266.3,448.9 M294.5,449.7c-0.4,0-0.8,0-1.2,0c-1.8,0-3.6,0-5.3,0c-0.2,0.3-0.3,0.6-0.2,0.9
	c0,0.4,1.7,1,2.1,1.6c0.2,0.2,0.2,0.6,0,0.8c-0.1,0.2-0.4,0.3-0.6,0.3h-0.1c-1.1-0.2-4.2-0.6-5.3-0.8l-0.3-0.1
	c-1.6-1-3.1-2.2-4.3-3.7c-0.2-0.2-0.3-0.5-0.1-0.8c0.1-0.3,0.4-0.4,0.7-0.4l2.2,0.2c-3.9-2-7.5-4.6-10.6-7.8
	c-0.2-0.2-0.3-0.5-0.2-0.8c0.1-0.3,0.4-0.4,0.7-0.4c0.9,0,1.8,0,2.8,0c1.6,0,3.1,0,4.7-0.1l0.6,0.2c4,4.5,9.1,7.7,14.8,9.5
	c0.3,0.1,0.6,0.4,0.5,0.8C295.1,449.4,294.8,449.7,294.5,449.7 M316.1,454.8c-0.4,0-4.7,0-6.5,0l-0.3-0.1c-2.9-1.2-5.2-3.5-6.3-6.5
	c0-0.1,0-0.2,0-0.3c0.1-0.3,0.4-0.5,0.7-0.5c1-0.1,2-0.2,3.1-0.2c-5.4-1.9-10.5-4.9-14.8-8.8c-0.2-0.2-0.3-0.5-0.2-0.8
	c0.1-0.3,0.3-0.5,0.6-0.5c2.4-0.3,4.9-0.5,7.4-0.9l0.6,0.2c4.3,4.4,9.5,7.6,15.3,9.6c0.3,0.1,0.5,0.4,0.5,0.8c0,0.3-0.3,0.6-0.6,0.6
	c-1,0.1-2,0.3-3,0.5c-0.2,0.3-0.3,0.7-0.3,1.1c0,1,0.8,2.4,4.3,4.4c0.3,0.2,0.4,0.5,0.3,0.8C316.7,454.6,316.5,454.8,316.1,454.8
	 M338.8,451.7c-0.4,0-1.3,0.2-1.7,0.2c-1.7,0-2.8,0.4-4.5,0.4l-0.3-0.1c-2.9-1.4-7-3.9-7-7.2c0-0.1,0-0.2,0-0.3
	c0.1-0.3,0.3-0.5,0.6-0.5c1.3-0.1,2.6-0.2,3.9-0.3c-6-2-11.6-5.1-16.4-9.3c-0.2-0.2-0.3-0.5-0.2-0.7c0.1-0.3,0.3-0.5,0.6-0.5
	c2.4-0.3,4.9-0.9,7.4-1.4l0.6,0.2c4.5,4.6,9.9,8.1,16,10.3c0.3,0.1,0.5,0.4,0.5,0.8c0,0.3-0.3,0.6-0.6,0.6c-0.9,0.1-1.9,0.2-2.8,0.3
	c0.1,0.2-0.4,1.3-0.4,1.7c0,1,1.2,2.3,4.7,4.4c0.3,0.2,0.4,0.5,0.3,0.8C339.4,451.5,339.1,451.7,338.8,451.7 M364.9,446.9
	c-2.2,0.2-4.9,0.8-7.1,0.9h-0.2c-4.5-1.1-8.4-4.1-10.6-8.2c-0.1-0.2-0.1-0.4,0-0.6s0.3-0.3,0.5-0.4c0.7-0.1,1.3-0.2,2-0.4
	c-6-2.2-11.6-5.5-16.5-9.6c-0.2-0.2-0.3-0.5-0.3-0.7c0.1-0.3,0.3-0.5,0.5-0.5c1.9-0.4,4.8-1.6,6.9-2.1c0.3-0.1,0.5,0,0.7,0.2
	c5.1,5.4,11.7,9.2,18.9,10.8c0.4,0.1,0.6,0.5,0.6,0.8c-0.1,0.3-0.3,0.5-0.6,0.6c-1.2,0.2-2.9,0.8-4.5,1.2c0.7,2,3.6,4.5,9.8,6.7
	c0.4,0.1,0.6,0.5,0.4,0.9C365.4,446.7,365.2,446.9,364.9,446.9 M392.7,439.3c-2,0.6-3.9,1.2-5.9,1.7h-0.4
	c-4.9-1.2-12.9-3.6-14.3-9.7c-0.1-0.4,0.1-0.7,0.5-0.8c0.4-0.1,0.8-0.3,1.2-0.4c-7.1-1.6-13.8-4.8-19.6-9.3
	c-0.2-0.2-0.3-0.4-0.3-0.6s0.2-0.5,0.4-0.6c2.2-1,5.2-1.9,7.1-2.9c0.3-0.1,0.6-0.1,0.8,0.1c6.6,5.3,14.6,8.5,23,9.2
	c0.3,0,0.6,0.3,0.6,0.6c0,0.3-0.1,0.6-0.4,0.8c-1.3,0.6-3.3,1.5-5.1,2.3c0.3,2.1,2.2,5.7,12.3,8.4c0.3,0.1,0.5,0.4,0.5,0.7
	C393.2,438.9,393,439.2,392.7,439.3 M418.7,427.7c-1.9,0.6-5.2,2.4-7.3,2.9H411c-4.9-1.2-16.1-4.1-17.5-10.2
	c-0.1-0.4,0.1-0.7,0.5-0.8c0.4-0.1,0.8-0.3,1.2-0.4c-6.6-1.7-12.7-4.8-17.9-9.1c-0.2-0.2-0.3-0.4-0.3-0.6s0.2-0.5,0.4-0.6
	c2.1-1,5.3-2.6,7.3-3.7c0.3-0.1,0.6-0.1,0.8,0.1c5.7,5.6,13.2,9.1,21.1,9.8c0.3,0,0.6,0.3,0.6,0.6c0,0.3-0.1,0.6-0.4,0.8
	c-1,0.4-2.9,1.3-4.3,2c0.8,2.2,6.3,5.5,16.1,8c0.3,0.1,0.5,0.4,0.5,0.7C419.2,427.4,419,427.6,418.7,427.7 M439,414.6h-0.4
	c-3.6-1-13.9-3.8-17.1-10c-1.1,0.6-2.1,1.1-3,1.5h-0.3c-7.3-0.9-14.1-4-19.6-9c-0.3-0.2-0.4-0.7-0.2-1l0,0c0.2-0.3,5.7-3.2,7.7-4.3
	c0.3-0.1,0.6-0.1,0.8,0.1c4.9,4.9,11.2,8,18.1,8.9c1.9-1,3.3-2.2,4.9-3c0.2-0.1,0.5-0.1,0.7,0s0.3,0.4,0.3,0.7
	c-0.1,1.8,4.3,7.2,15.8,10.1l0,0c0.4,0.1,0.6,0.5,0.5,0.9l0,0C444.6,411.5,441.9,413.2,439,414.6 M468.1,394.2
	c0,0.1-0.1,0.1-0.1,0.2l0,0l0,0l0,0l0,0l0,0l0,0c-0.1,0.1-4.4,3.1-6.2,4.4l-0.6,0.1c-5.9-1.7-11.1-5-15.2-9.5
	c-0.7,0.5-2,1.2-2.5,1.6l-0.4,0.1c-7.2-0.4-14-3.3-19.1-8.4c-0.3-0.2-0.4-0.7-0.2-1c0.1-0.1,0.1-0.1,0.2-0.2c2-1.2,4.6-3.7,6.7-5.1
	c0.2-0.1,0.5-0.1,0.7,0c5.2,4.7,11.7,7.6,18.6,8.5c0.3,0,3.6-2.7,4-2.9c0.4-0.1,0.9,0,0.9,0.4c0.3,3.4,1.1,6.8,12.8,10.7h0.1
	C468.1,393.5,468.3,393.8,468.1,394.2L468.1,394.2 M488.4,374.7c-1.3,1.4-4.5,4.4-5.7,5.6c-0.1,0.1-0.3,0.2-0.5,0.2
	c-0.1,0-0.2,0-0.3-0.1c-5.6,0-11-2-15.2-5.7c-0.8,0.6-1.5,1.2-2.3,1.8l-0.6,0.1c-6.4-1.5-12.2-4.5-17.2-8.8
	c-0.2-0.1-0.3-0.3-0.3-0.6c0-0.2,0.1-0.5,0.3-0.6c2.4-1.9,4.7-3.8,7-5.6c0.2-0.2,0.5-0.2,0.8-0.1c5.6,3.1,5.9,6.7,16.5,9
	c0.3,0,1.7-1.5,1.7-1.5c0-0.1,0-0.1,0.1-0.2s0.1-0.2,0.2-0.2l0.1-0.1c0.3-0.1,0.7,0,0.8,0.3c3.3,5.5,14.1,5.2,14.1,5.2
	c0.4,0,0.7,0.4,0.6,0.8C488.6,374.4,488.5,374.5,488.4,374.7 M505.9,357c-1.2,1.3-4,4.6-5.3,5.9c-0.1,0.1-0.3,0.2-0.5,0.2
	c-0.1,0-0.2,0-0.3-0.1c-4.1-0.3-8-2.1-11-4.9c-0.8,0.6-2.2,1.4-3,2l-0.6,0.1c-7.3-2-14.1-5.6-20-10.4c-0.2-0.1-0.3-0.3-0.3-0.6
	c0-0.2,0.1-0.4,0.3-0.6c2.4-1.9,4.7-3.8,7-5.6c0.2-0.2,0.5-0.2,0.8-0.1c5.7,4,11.9,7.3,18.3,9.8c0.8-0.6,1.5-1.2,2.3-1.8
	c0.2-0.1,0.4-0.2,0.6-0.2c0.2,0.1,0.3,0.2,0.5,0.3c3.5,2.2,7.3,3.6,11.4,4.1c0.2,0,0.3,0.3,0.3,0.5
	C506.3,356.2,506.1,356.6,505.9,357 M520,294.5c1.4-1.6,2.8-3.2,4.1-4.8c0.2-0.2,0.5-0.3,0.7-0.2c2.6,1.3,5.5,2,8.5,1.9h0.2
	c0.1,0,0.2,0.1,0.3,0.2l0,0c0.1,0.1,0.2,0.3,0.1,0.5c0,0.1,0,0.1-0.1,0.2c-0.6,1.9-1.3,3.8-2.1,5.8c-0.1,0.3-0.3,0.4-0.6,0.4H531
	c-3.8-0.3-7.5-1.3-10.9-3c-0.2-0.1-0.3-0.2-0.4-0.4C519.8,294.9,519.8,294.7,520,294.5 M508.8,313.3c1.8-1.3,2.2-3.1,4.2-4.8
	c0.2-0.2,0.5-0.2,0.8-0.1c4,2.4,8.3,4.1,12.9,5c0.2,0,0.4,0.2,0.5,0.4c0.1,0.2,0.1,0.4,0,0.6c-0.9,2.1-1.8,4.2-2.8,6.3
	c-0.1,0.3-0.4,0.4-0.6,0.4c-0.1,0-0.1,0-0.2,0c-5.2-1.4-10.1-3.7-14.6-6.7C508.7,314.2,508.5,313.8,508.8,313.3
	C508.6,313.5,508.7,313.4,508.8,313.3 M509.1,333.8c0.9-0.9,1.8-1.7,2.8-2.7c0.3-0.3,0.6-0.2,1,0c2.4,0.6,4.7,1.6,6.7,3.1
	c0.2,0.2,0.2,0.6,0.1,0.9c-0.9,1.4-2.2,3.8-3,5.1c-0.1,0.2-0.4,0.3-0.6,0.3c-0.1,0-0.2,0-0.3-0.1c-2.2-1-5-1.8-7-2.8
	c-1.2,0.9-2.5,1.9-3.7,3c-0.1,0.1-0.3,0.2-0.5,0.2c-0.1,0-1.3-0.3-1.3-0.3c-6.2-1.3-12-3.6-17.5-6.8c-0.3-0.2-0.5-0.6-0.3-1
	c0-0.1,0.1-0.2,0.2-0.2c2.3-1.7,4.4-3.4,6.5-5c0.2-0.2,0.5-0.2,0.8-0.1C498.1,330.2,503.5,332.4,509.1,333.8 M160.5,367
	c43.2-17.2,207.1-63.9,334.3-76.1v7.9c2.9-0.3,5.8-0.6,8.7-0.8v22.9c-84.2,9.3-199.3,42.4-245.4,93.2l-8-6
	c-5.3-4-10.9-7.6-16.7-10.9c-22.2-12.9-47.3-19.8-72.9-20.1V367z"/>
<path class="st3" d="M203.5,432.4L203.5,432.4L203.5,432.4z"/>
<path class="st2" d="M333.2,141.3c10.8,4.2,22.9-1.2,27-12c4.2-10.8-1.2-22.9-11.9-27.1c-10.8-4.2-22.9,1.2-27,12
	c-0.9,2.4-1.4,5-1.4,7.6C319.9,130.5,325.2,138.2,333.2,141.3 M340.8,109.1c7,0,12.7,5.7,12.7,12.7c0,7-5.7,12.7-12.7,12.7
	s-12.7-5.7-12.7-12.7l0,0C328.1,114.8,333.8,109.1,340.8,109.1L340.8,109.1"/>
<path class="st0" d="M196,307.8c2.2,0.4,4.4,0.4,6.6,0.2c0-12,0-91.7,0-92.1c0-3.2-0.8-7.9-8.6-11.1v91.5
	C193.9,300.2,194.6,304.2,196,307.8"/>
<path class="st0" d="M374.4,281.1c0.8,0.2,1.6,0.4,2.4,0.5v3.8c1.8,1.8,4.1,2.9,6.6,3.4V174.6c0-3.7-0.1-9.7-10-13.7v112.2
	C373.4,275.8,373.7,278.5,374.4,281.1"/>
<path class="st0" d="M255.7,291.4c2.1,0.4,4.3,0.4,6.4,0.2c0-11.9,0-91.2,0-91.6c0-5.3-3.4-10-8.4-11.6v91.4
	C253.6,283.7,254.3,287.7,255.7,291.4"/>
<path class="st1" d="M309.7,170.4c-1.6,0.4-3.3,0.8-5.1,1.2v106.6c0,9.8,1.8,13,9.4,15c-0.6-2.5-0.8-5.1-0.7-7.7V173.4
	c-1.2-0.5-2.4-1-3.6-1.4L309.7,170.4L309.7,170.4z"/>
<path class="st1" d="M193.8,338.5c-10.4,3.2-21.6,2.3-31.3-2.4c1.3,1.4,2.8,2.7,4.3,3.9c10.5,7,23.6,8.9,35.7,5.2
	c39.5-11.7,82.9-23.2,123-32.2v-11.8c-3.1-0.4-6.1-1.5-8.7-3.4v7.8C276.7,314.9,233.3,326.6,193.8,338.5"/>
<path class="st1" d="M250.5,289.2c1.5,1.1,3.3,1.8,5.1,2.1c-1.4-3.7-2.1-7.7-1.9-11.6v-91.4c-1.2-0.6-2.4-1.1-3.6-1.5V185
	c-1.6,0.4-3.2,0.9-5.1,1.4v86.4C244.3,278.8,246.3,284.9,250.5,289.2"/>
<path class="st1" d="M190.7,305.6c1.6,1.1,3.4,1.9,5.3,2.2c-1.5-3.7-2.1-7.6-2-11.5v-91.5c-1.2-0.5-2.4-0.9-3.6-1.3v-2
	c-1.6,0.5-3.2,1-5.1,1.5v86.6C184.6,295.5,186.6,301.4,190.7,305.6"/>
<path class="st1" d="M374.4,281.1c-0.7-2.6-1-5.3-0.9-8V161c-1.2-0.5-2.4-0.9-3.6-1.2v-2.1l-5.1,1v106.9
	C364.8,275.2,367.4,279.2,374.4,281.1"/>
<path class="st1" d="M383.4,288.9c-2.5-0.5-4.8-1.7-6.6-3.4v7.6l-14.6,3c-7.9,1.9-16.1,0.7-23.2-3.2c1.5,1.9,3.2,3.6,5.1,5.1
	c7.6,5.9,17.5,8,26.8,5.7l14.6-2.9v-9.3l-2,0.4L383.4,288.9L383.4,288.9z"/>
<path class="st1" d="M134.5,367.9c6-2.3,10.3-3.9,11.2-4.2v-9.9c-3.1-0.4-6-1.5-8.7-3.2v6.8c-15.1,5.5-41,15.3-58.3,22.7v9.9
	c4.8-2.2,22.1-9,37.8-15.1c3-1.2,6-2.3,8.8-3.4C128.7,370.1,131.8,369,134.5,367.9"/>
<path class="st1" d="M579.9,203.1c6.4,7.5,9.8,17.2,9.3,27.1c0,17.1-12.7,36.9-32.2,38.4c-13.8,1.1-31.9,2.8-48.7,4.5
	c0,4.6,0,8,0,9.3c5.1-0.5,18.8-1.8,30.9-2.9c3-0.3,5.9-0.5,8.6-0.8c3.9-0.3,7.2-0.7,9.6-0.9c2-0.2,3.2-0.3,3.4-0.3
	c19.8-2.4,35-18.7,35.9-38.7C597.4,225.1,591.1,211.6,579.9,203.1"/>
<path class="st1" d="M559.7,174.1c7,9.4,17.6,15.4,29.3,16.6c0-11.8,0-54.7,0-59.9c-2.8,0.2-5.7,0.3-8.7,0.5c0,14.7,0,41.6,0,50.6
	C572.9,181,565.9,178.3,559.7,174.1"/>
<path class="st1" d="M544.6,150.7c-6,1.9-5.1,11.3-5,11.8c0.2,3.9,1.7,9.1,11.1,16.1c-0.4-0.6-0.8-1.3-1.1-1.9l0,0
	c-0.4-1.4-0.8-2.9-1.2-4.3l0,0c0-0.4-0.1-0.8-0.1-1.2c-0.3-2.8,0.1-5.6,1.1-8.1C547.2,159.1,545.6,155,544.6,150.7"/>
<path class="st1" d="M528.6,229.7c3.2,4.5,5.5,9.5,6.7,14.9c1.7-0.4,3.3-1,4.8-1.8c-2.2-4.1-5.1-7.7-8.6-10.8
	C530.6,231.2,529.6,230.4,528.6,229.7"/>
<path class="st1" d="M132.9,223.4c-0.7-0.2-1.4-0.5-2.2-0.7V211c0.7-0.2,1.4-0.5,2.2-0.7v-10.6c29.3-1.4,110.1-14,111-76.9l-6.7-2.2
	c-2.2,60.5-84.3,69.7-113,71.2v145c0,6.1,5.7,8.7,9.4,9.8c-0.5-1.1-0.8-2.3-0.8-3.5L132.9,223.4z"/>
<path class="st1" d="M340.8,142.8c-2.6,0-5.1-0.5-7.6-1.4c3.9,4.1,9.3,6.4,15,6.4c11.5,0.1,20.8-9.2,20.9-20.7V127
	c0-8.6-5.2-16.3-13.2-19.5c8,8.4,7.6,21.6-0.7,29.6C351.4,140.7,346.2,142.8,340.8,142.8"/>
<path class="st1" d="M250.1,408l8,6c46.1-50.9,161.2-84,245.4-93.2v-22.9c-2.9,0.3-5.8,0.5-8.7,0.8v15
	C410.6,323.5,296.2,356.9,250.1,408"/>
<path class="st1" d="M494.8,263v11.7c-10.9,1.1-29.9,3.8-44.2,5.8v9.4c14-2.1,39.5-5.6,52.8-6.9v-9.3c-1.3,0.2-2.6,0.3-3.9,0.4
	c0-1.1,0-3.6,0-7C497.7,266.1,496.1,264.7,494.8,263"/>
<path class="st1" d="M484.5,247.2c-0.1,4.2-0.1,8.5,8.2,12.6l0.8,0.4c-0.3-1.6-0.5-3.1-0.4-4.7v-70c0.7-12.4-4.1-24.4-13.2-32.9
	c-1-0.8-2-1.6-3.1-2.3c5.3,7.9,8,17.3,7.7,26.9V247.2z"/>
<path class="st1" d="M426,164.7c0,13-0.1,119.7-0.1,119.7l-33.8,5.9v9.2l42.4-7.2c0,0,0.1-106.7,0.1-119.7c1.7,0,3.4,0.3,5,0.8
	c-0.9-2.2-2.3-4.2-4.2-5.7C432.7,165.6,429.3,164.6,426,164.7"/>
<path class="st2" d="M304.6,278.2v-116c-13,3.1-41.5,10.1-54.5,13.5v11.2c1.2,0.4,2.4,0.9,3.6,1.5c5,1.6,8.4,6.3,8.4,11.6
	c0,0.4,0,79.7,0,91.6c-2.2,0.2-4.3,0.1-6.4-0.2c-1.9-0.3-3.6-1-5.1-2.1c-4.2-4.4-6.2-10.4-5.5-16.4v-95.7
	c-12,3.3-42.9,11.9-54.6,15.3v11.2c1.2,0.4,2.4,0.8,3.6,1.3c7.7,3.3,8.6,7.9,8.6,11.2c0,0.4,0,80.1,0,92.1c-2.2,0.2-4.4,0.1-6.6-0.3
	c-1.9-0.3-3.7-1.1-5.3-2.2c-4.1-4.2-6.1-10.1-5.3-15.9v-95.8c-11.6,3.6-39.4,12.2-52.5,16.5c-0.8,0.2-1.5,0.5-2.2,0.7V223
	c0.8,0.2,1.5,0.4,2.2,0.7c9.7,3.3,10,7.2,10,10.6c0,0.4,0,63.8,0,63.8c-0.9,13.7,4.8,26.9,15.3,35.7c1.4,1,2.8,1.8,4.3,2.6
	c9.8,4.7,21,5.6,31.3,2.4c39.5-11.9,82.9-23.6,123-32.9v-11.8c-1-0.2-1.9-0.4-2.7-0.6C306.5,291.2,304.6,288,304.6,278.2
	 M191.4,330.6c-9.6,3.1-20,1.7-28.5-3.8c-8.4-7.2-12.8-18-11.9-29v-61.4c1.5-8.8-4-17.2-12.7-19.3c11.1-3.6,24.1-7.8,38.7-12.2v84.7
	c0,35.9,33.3,25.4,33.7,25.3v-96.6c1.5-8.8-4-17.4-12.7-19.7c12.1-3.5,25-7.2,38.7-10.9v85c0,36.4,33.1,25.8,33.5,25.8v-96.1
	c1.4-9-4.1-17.6-12.8-20.2c12.4-3.2,25.4-6.5,38.8-9.7V278c0,8.8,1.3,18.8,12.2,21C266.2,309,226.7,319.8,191.4,330.6"/>
<path class="st2" d="M362.2,296l14.6-3v-11.4c-0.8-0.1-1.6-0.3-2.4-0.5c-7-1.9-9.6-5.9-9.6-15.6V149.3l-9.8,2
	c-12.8,2.6-25.9,5.4-38.8,8.3l-6.4,1.5V172c1.2,0.4,2.4,0.9,3.6,1.4c5.7,1.8,9.5,7.3,9,13.3v68.2c0,10.9,1.4,26.5,13.2,35.5
	c1.1,0.9,2.3,1.7,3.6,2.4C346.1,296.7,354.4,297.9,362.2,296 M340.5,283.9c-7.2-5.5-10-15-10-29v-66.8c1.4-9-4-17.6-12.6-20.4
	c12.6-2.8,25.4-5.6,38.6-8.3v106.1c0,8.7,1.2,18.5,11.9,20.9c-2.6,0.5-5.1,1-7.7,1.5C353.8,289.8,346.2,288.3,340.5,283.9"/>
<path class="st2" d="M250.1,408c46.1-51.1,160.5-84.6,244.7-94.3v-22.9c-127.2,12.2-291.2,59-334.3,76.1V377
	c25.6,0.3,50.7,7.2,72.9,20.1C239.2,400.4,244.8,404,250.1,408 M175,370c33.3-12.6,188.6-57.1,311.6-70v6.5
	c-86.1,11.1-192.1,43.4-237.7,90.9C212.6,372.9,181.1,369.3,175,370"/>
<path class="st2" d="M494.8,263v-2.2l-1.3-0.7l-0.8-0.4c-8.3-4.1-8.3-8.5-8.2-12.6v-70c0.3-9.6-2.3-19-7.7-26.9
	c-1.6-2.2-3.5-4.2-5.5-5.9c-8.7-7.1-20-10.1-31-8.2l-23.8,3.8c-12.7,2.1-33.4,5.9-46.5,8.4v11.4c1.3,0.4,2.5,0.8,3.6,1.2
	c9.9,4,10,10,10,13.7v117.2l2-0.4l6.6-1.1l33.8-5.9c0,0,0.1-106.7,0.1-119.7c3.4-0.1,6.7,1,9.5,3c1.8,1.5,3.3,3.5,4.2,5.7
	c1.7,4.5,2.5,9.4,2.4,14.3V282c2.6-0.4,5.5-0.8,8.7-1.3c14.2-2.1,33.3-4.8,44.2-5.8V263H494.8z M450.2,272.4v-84.7
	c0-34.7-25.2-32.1-32.5-30.4v120.2c-8.8,1.5-17.4,3-26.1,4.5V176c1.3-9.1-4-17.9-12.7-21c12.7-2.4,25.6-4.7,38.7-6.9
	c7.7-1.3,15.4-2.5,23.2-3.7c16-3.3,31.6,7,34.9,23c0.7,3.2,0.8,6.5,0.4,9.8c0,10.1,0,68.7,0,68.7c-1.2,9.2,4.1,18.1,12.8,21.3
	C476,268.7,463,270.5,450.2,272.4"/>
<path class="st3" d="M296.4,278.2V172.7c-13.4,3.2-26.4,6.4-38.8,9.7c8.7,2.6,14.2,11.2,12.8,20.2v96.1c-0.4,0-33.5,10.7-33.5-25.8
	v-85c-13.7,3.7-26.6,7.4-38.7,10.9c8.6,2.4,14.1,10.9,12.7,19.7V315c-0.4,0-33.7,10.5-33.7-25.3V205c-14.7,4.5-27.6,8.6-38.7,12.2
	c8.6,2.1,14.2,10.5,12.7,19.3v61.4c-0.9,11,3.5,21.8,11.9,29c8.4,5.5,18.9,6.9,28.5,3.8c35.3-10.9,74.8-21.6,117.3-31.5
	C297.7,297,296.4,287,296.4,278.2"/>
<path class="st3" d="M368.5,286.4c-10.7-2.4-11.9-12.2-11.9-20.9V159.4c-13.2,2.7-26.1,5.5-38.6,8.3c8.6,2.8,13.9,11.4,12.6,20.4
	v66.8c0,13.9,2.7,23.4,10,29c5.8,4.4,13.3,5.9,20.4,4C363.4,287.4,365.9,286.9,368.5,286.4"/>
<path class="st2" d="M500,274.1l-0.3-8.8c-0.1-1.8,0-12.7,0-22.8c0-8.7,0.1-16.8,0-18.1l-0.4-12.1l11.3,4.1
	c12.7,4.6,22,15.4,24.9,28.3c3.1-0.8,5.7-2.2,7.5-4c2.1-2.2,3-5,2.9-8.7c-0.2-3.5-3.3-9.5-26.5-25c-13.8-8.7-22.5-23.9-23-40.5
	c-0.8-18.4,10.8-38.7,31.8-40.8c15.9-1.3,27.5-2.2,43.5-3.1l8.4-0.5l0.2,8.5c0,2,0,11.6,0,21.1c0,9.2-0.1,18.2,0,19.6l0.5,12.3
	l-11.5-4.3c-12.6-4.8-21.9-15.7-24.8-28.5c-0.9,0.4-1.8,0.9-2.5,1.6c-2.3,2.3-2.6,6.9-2.4,10.3c0.2,4.1,1.8,9.8,13,17.5
	c32,21.9,35.2,32.9,36.5,47.2c2.1,19.7-11.1,37.5-30.5,41.3l-1,0.1c-16.3,1.2-30,2.5-48.8,4.6L500,274.1z"/>
<path class="st3" d="M504.5,166.2c0.4,13.9,7.7,26.6,19.4,34c25.7,17.3,29.8,24.7,30.1,31.4c0.7,16.2-13.4,22.3-25.7,22.2
	c0.1-13.2-8.1-25.1-20.5-29.6c0.1,2.4-0.1,37.5,0,40.9c17.3-1.9,31.5-3.3,49.1-4.6c15.2-3,25.6-17.1,24-32.6
	c-1-10.7-1.9-19.9-33-41.2c-13.1-9-16.2-17-16.5-23.8c-0.7-16.1,8-21.6,20.2-21.3c-0.1,13.3,8.1,25.3,20.5,30
	c-0.1-2.4,0.1-36.8,0-40.8c-16,1-27.5,1.8-43.2,3.1C512,135.5,503.8,152.4,504.5,166.2"/>
<path class="st1" d="M54.9,240c-4,1.5-8.2,2.3-12.5,2.4c-4,0-8-0.7-11.8-2.2c5.4,5.4,12.8,8.3,20.4,8.1c4.3-0.1,8.5-0.9,12.5-2.3
	v-8.6c-3.4-0.7-6.4-2.4-8.7-5L54.9,240z"/>
<path class="st2" d="M69.3,384L69,368.8c7.2-6.2,11.8-14,12.3-20.4c0-5.5,0-96.2,0-151.3c-19.3,2.9-38.4,9.6-38.4,20.7l-8.2,0.1h8.2
	c0.1,4.7,2.9,8.5,4.7,10.1s3.4,2.6,7.2,3.5c0,1.9,0,7.2,0,8.5c-7.8,2.8-12.7,2.4-12.7,2.4c-10.4,0-17.5-4.8-22.5-10.8
	s-7.3-13.7-6.5-21.5c0-41.9,45.5-63.6,135.3-63.8c45.4-0.1,73.8-10.7,76.1-33.8l12.6,4.1c-0.1,65-83.8,73.6-113.1,75.2v145.1
	c-0.3,3.8,2.9,9.1,12.8,10.6v9.9C118.9,363.9,83.6,377.8,69.3,384z"/>
<path class="st3" d="M34.8,217.8L34.8,217.8c0.1-22.6,39.2-28.6,54.8-30c0,0,0,161.2,0,160.9c-0.6,8.6-4.5,16.6-10.9,22.4
	c14.2-6.1,30.7-12.6,49.3-19.3c-7.3-0.9-12.6-7.5-11.9-14.9v-153c18.1-0.3,106-4.6,112.7-58.5c-5.2,18.3-36,29.1-80.1,29.1
	c-30.7,0-127.2,0.9-127.2,56.4c-1.1,11.6,7.3,22,19,23.2c0.7,0.1,1.4,0.1,2.1,0.1C37.6,230.1,34.8,224.1,34.8,217.8"/>
<path class="st3" d="M340.8,134.5c7,0,12.7-5.7,12.7-12.7s-5.7-12.7-12.7-12.7s-12.7,5.7-12.7,12.7l0,0
	C328.1,128.8,333.8,134.5,340.8,134.5L340.8,134.5"/>
<path class="st3" d="M486.6,306.5V300c-123.1,12.9-278.3,57.4-311.6,70c6.1-0.8,37.6,2.9,73.9,27.3
	C294.5,349.9,400.6,317.6,486.6,306.5"/>
<path class="st3" d="M476.2,245.8c0,0,0-58.5,0-68.7c2.1-16.2-9.3-31.1-25.5-33.2c-3.3-0.4-6.6-0.3-9.8,0.4
	c-7.8,1.2-15.5,2.4-23.2,3.7c-13.1,2.2-26,4.5-38.7,6.9c8.7,3.1,13.9,11.9,12.7,21v106c8.6-1.6,17.3-3.1,26.1-4.5V157.2
	c7.2-1.7,32.5-4.3,32.5,30.4v84.7c12.8-1.9,25.8-3.6,38.8-5.2C480.3,263.9,475,255,476.2,245.8"/>
<path class="st3" d="M141.4,116.7c-0.3-0.2-0.8,0-0.9,0.3l-4.3,7.5c-0.7,1.8-1.1,3.7-1.2,5.7c0,3.3,1.8,4.2,2,4.3c0.1,0,0.2,0,0.2,0
	c0.2,0,0.4-0.1,0.6-0.3l2.8-3.9c0.2-0.2,0.2-0.5,0.1-0.7c-0.5-1.2-0.8-2.5-0.8-3.8c0.1-2.8,0.7-5.5,1.8-8.1
	C141.9,117.3,141.8,116.8,141.4,116.7"/>
<path class="st3" d="M152.2,108.4l0.2-0.5c0.5-3.5,1.7-6.9,3.6-9.9c0.2-0.3,0.1-0.7-0.2-0.9c-0.3-0.2-0.7-0.1-1,0.1
	c-0.3,0.3-0.6,0.6-0.9,0.9c-2.2,3.6-4.1,7.4-5.6,11.3c-0.5,0.5-0.9,0.9-1.4,1.4l0,0.2c-0.3,0.5-0.5,1.1-0.6,1.6c0,0-0.2,2.8-0.2,3
	c0.1,2.6,1,5.1,2.6,7.1c0.1,0.2,0.3,0.3,0.5,0.3l0,0c0.2,0,0.4-0.1,0.5-0.2c1-1,2-2,3-2.9c0.2-0.2,0.3-0.5,0.2-0.8
	c-0.9-2.1-1.4-4.4-1.5-6.7c0-1.2,0.2-2.4,0.4-3.6C151.9,108.7,152.1,108.5,152.2,108.4"/>
<path class="st3" d="M371.3,67.6c2.2,0.2,4.4,0.5,6.6,0.8c-0.1,0.1-0.1,0.3-0.1,0.5c2.1,8.9,3.5,18,4.2,27.1c0,0.3,0.3,0.6,0.6,0.6
	c2.3,0.4,4.7,0.8,7.1,1.2h0.1c0.1,0,0.3,0,0.4-0.1c0.2-0.1,0.3-0.3,0.3-0.5c0.3-1.9,0.4-3.7,0.4-5.6c-0.3-7.4-1.5-14.6-3.7-21.6
	c-0.1-0.3-0.3-0.5-0.6-0.5c-2.2-0.3-4.3-0.8-6.4-1.2c0.1,0,0.1-0.1,0.1-0.1c1.6-5,4.8-9.5,9-12.6c0.3-0.2,0.4-0.7,0.1-1
	c-0.1-0.2-0.3-0.3-0.5-0.3c-2.3-0.3-4.4-0.6-6.7-0.8l-0.5,0.1c-4.7,3.3-8.5,7.8-11,13c-0.2,0.4,0,0.8,0.4,1
	C371.1,67.5,371.2,67.5,371.3,67.6"/>
<path class="st3" d="M250.7,65.4c0.1,0,0.1,0,0.2,0c0.6-0.1,1.4-0.3,2.3-0.4c-0.4,1.1-0.6,2.3-0.6,3.6c0.2,4.9,1.6,9.7,4,14
	c0.1,0.2,0.4,0.4,0.6,0.4h0.1c1.2-0.1,3.4,0,4.7,0c0.2,0,0.4-0.1,0.6-0.3c0.1-0.2,0.2-0.4,0.1-0.6c-1.1-3-1.7-6.2-1.8-9.4
	c0-3.4,0.7-6.8,2-10c0.2-0.4,0-0.8-0.4-0.9c-0.1-0.1-0.3-0.1-0.4-0.1c-1.2,0.2-2.3,0.4-3.5,0.7c0.5-4.8,3.1-9.1,7-11.8
	c0.3-0.2,0.4-0.6,0.2-0.9c-0.1-0.3-0.5-0.5-0.8-0.4c-2.2,0.4-4.3,0.9-6.5,1.3l-0.3,0.1c-4.3,3.5-7.2,8.5-8.2,14c0,0.2,0,0.5,0.2,0.6
	C250.4,65.4,250.6,65.4,250.7,65.4"/>
<path class="st3" d="M426.2,78.6c-0.2,0.2-0.2,0.5-0.1,0.8c3.5,8.4,5,17.4,4.5,26.4c0,0.4,0.3,0.6,0.7,0.7l6.9,1h0.1
	c0.4,0,0.7-0.2,0.8-0.6c0.5-2.4,0.8-4.8,0.7-7.2c-0.2-6.9-1.6-13.7-4.2-20.1c-0.1-0.3-0.3-0.4-0.6-0.5c-3.1-0.3-3.9-0.4-5.6-0.6
	v-0.1c0.1-4.5,1.6-9.4,1.6-13.2c0-0.6,0-1.2-0.2-1.8c-0.1-0.3-0.3-0.5-0.5-0.6c-2.1-0.5-3.2-0.4-5.1-0.8c-0.2-0.1-0.4,0-0.6,0.1
	s-0.3,0.3-0.3,0.5c-0.8,4.8-2.2,9.5-4.3,13.9c-0.1,0.4,0.2,0.7,0.5,0.8C422.8,78,424.4,78.3,426.2,78.6"/>
<path class="st3" d="M462.4,85.7c0,0.2,0,0.4,0.1,0.6s0.3,0.3,0.4,0.3c1.2,0.3,2.3,0.6,3.3,0.8c6.4,4.7,10.4,11.9,10.9,19.8
	c0,1.4-0.2,2.8-0.5,4.2c0,0.2,0,0.4,0.1,0.6s0.3,0.3,0.5,0.3c2.1,0.2,4.2,0.6,6.3,0.8h0.1c0.3,0,0.6-0.2,0.7-0.5
	c0.4-1.6,0.7-3.2,0.7-4.9c-1.1-8.9-5.9-16.9-13.2-22.1l-0.4-0.2c-0.8-0.1-1.6-0.2-2.4-0.4c-0.1-0.7-0.2-1.3-0.4-2l-0.2-0.3
	c-1.9-1.8-3.8-3.6-5.7-5.3c-0.2-0.2-0.6-0.2-0.9,0s-0.4,0.6-0.3,0.9c0.8,1.7,1.2,3.5,1.2,5.3C462.6,84.3,462.6,85,462.4,85.7"/>
<path class="st3" d="M217,59.4l-0.3,0.2c-3.6,3.6-5.8,8.3-6.4,13.4c0,0.2,0.1,0.5,0.3,0.6c0.1,0.1,0.3,0.2,0.4,0.2
	c0.1,0,0.2,0,0.2,0c0.3-0.1,0.7-0.2,1.1-0.3c-0.4,1.4-0.6,2.8-0.7,4.2c0.1,3.9,1.5,7.7,4,10.7c0.1,0.2,0.4,0.3,0.6,0.3h0.1
	c1.6-0.3,3.2-0.8,4.7-1.1c0.2,0,0.4-0.2,0.5-0.4c0.1-0.2,0.1-0.4,0-0.6c-1.2-2.2-1.8-4.6-1.8-7c0.1-3.1,0.7-6.2,1.9-9.1
	c0.1-0.3,0-0.5-0.2-0.7s-0.5-0.3-0.7-0.2c-0.8,0.2-2,0.5-3.2,0.7c0.3-4.2,2-8.2,4.9-11.3c0.3-0.2,0.3-0.6,0.2-0.9
	c-0.2-0.3-0.5-0.4-0.8-0.3C220.3,58.2,218.6,58.8,217,59.4"/>
<path class="st3" d="M200,66l-0.2,0.2c-3.8,4.2-6.5,9.2-8,14.6c-0.1,0.3,0,0.6,0.2,0.7c0.1,0.1,0.3,0.2,0.4,0.2c0.1,0,0.2,0,0.3-0.1
	s0.2-0.1,0.4-0.2c-0.6,4.6,0.7,9.3,3.6,12.9c0.1,0.2,0.3,0.3,0.6,0.3c0.1,0,0.2,0,0.2,0c1.6-0.6,3-1.1,4.7-1.6
	c0.2-0.1,0.3-0.2,0.4-0.4c0.1-0.2,0.1-0.4,0-0.6c-1.3-2.6-1.9-5.5-2-8.3c-0.1-2.4,0.3-4.8,1.2-7c0.1-0.3,0.1-0.6-0.1-0.8
	c-0.2-0.2-0.5-0.3-0.8-0.2c-1,0.4-1.3,0.5-2.6,1.1c1-4.3,3.1-8.2,6.2-11.4c0.2-0.3,0.3-0.6,0.1-0.9s-0.6-0.4-0.9-0.2
	C202.6,64.7,201.3,65.3,200,66"/>
<path class="st3" d="M185.8,72.8c-0.3-0.3-0.7-0.3-1-0.1c-0.6,0.4-1.1,0.9-1.7,1.3l-0.1,0.1c-4.5,5-7.8,10.9-9.8,17.3
	c-0.1,0.3,0,0.7,0.3,0.9c0.1,0.1,0.3,0.1,0.4,0.1c0.3-0.1,0.6-0.2,0.8-0.4c0,0.6,0,1.1,0.1,1.7c0.2,3.2,1.4,6.2,3.4,8.6
	c0.1,0.1,0.3,0.2,0.5,0.2s0.3-0.1,0.4-0.1c1.6-0.7,3-1.6,4.4-2.4c0.2-0.1,0.3-0.3,0.4-0.5c0.1-0.2,0-0.4-0.1-0.6
	c-1.5-2.8-2.1-6-1.8-9.1c0-1.2,0.1-2.3,0.2-3.5c0-0.3-0.1-0.6-0.4-0.8c-0.3-0.2-0.6-0.1-0.9,0c-0.8,0.5-1.3,0.9-2.1,1.4
	c1.3-4.8,3.6-9.3,6.8-13.1C186.1,73.5,186.1,73.1,185.8,72.8"/>
<path class="st3" d="M165.9,96.7l0.3-0.5c0.5-3.8,1.8-7.5,3.9-10.7c0.2-0.4,0.1-0.8-0.3-1c-0.3-0.2-0.8-0.2-1.1,0.1
	c-0.3,0.4-0.6,0.7-1,1.1c-2.4,3.8-4.4,7.8-6,12c-0.6,0.6-1.2,1.2-1.8,1.8l-0.1,0.2c-0.3,0.6-0.5,1.2-0.7,1.8l-0.3,2.6
	c0,0.3,0,0.5,0,0.7c0.1,2.7,1.1,5.4,2.9,7.5c0.1,0.2,0.3,0.3,0.6,0.3h0.1c0.2,0,0.4-0.1,0.5-0.2c1.1-1.1,3-2,4.1-2.9
	c0.2-0.2,0.3-0.6,0.2-0.9c-1.2-2.3-2-4.7-2.4-7.2c0-1.3,0.2-2.5,0.4-3.8C165.4,97.1,165.7,96.9,165.9,96.7"/>
<path class="st3" d="M346.6,63.7c2,0.1,4,0.2,6.1,0.4c0,0.1-0.1,0.2-0.1,0.3c0.5,8.6,2,17.2,4.3,25.5c0.1,0.3,0.3,0.5,0.6,0.5
	c1.9,0.2,3.8,0.5,5.7,0.7h0.1c0.2,0,0.4-0.1,0.5-0.2c0.2-0.2,0.2-0.4,0.2-0.6l-2.3-25.1c0-0.3-0.3-0.6-0.7-0.6
	c-2.1-0.2-4.1-0.6-6.2-0.8l0.1-0.1c1.5-5.2,4.8-9.7,9.3-12.8c0.3-0.2,0.4-0.7,0.2-1c-0.1-0.2-0.3-0.3-0.5-0.3
	c-1.7-0.1-3.5-0.3-5.3-0.4l-0.4,0.1c-5.8,2.6-10.2,7.5-12.1,13.5c-0.1,0.2,0,0.4,0.1,0.6C346.2,63.6,346.4,63.7,346.6,63.7"/>
<path class="st3" d="M321.8,62.3c1.6,0.1,3.3,0.2,4.9,0.3c1,8.9,2.9,17.6,5.7,26c0.1,0.3,0.3,0.5,0.6,0.5c1.9,0.2,3.8,0.5,5.7,0.7
	h0.1c0.2,0,0.4-0.1,0.5-0.2c0.2-0.2,0.2-0.4,0.2-0.6l-3.4-26.6c0-0.3-0.3-0.6-0.6-0.6c-1.7-0.2-3.5-0.3-5.2-0.4
	c1.6-4.9,4.8-9,9-11.9c0.3-0.2,0.4-0.5,0.3-0.8s-0.3-0.5-0.6-0.5c-1.8-0.1-3.5-0.3-5.3-0.4l-0.4,0.1c-5.8,2.6-10.2,7.5-12.1,13.5
	c-0.1,0.2,0,0.4,0.1,0.6C321.4,62.2,321.6,62.3,321.8,62.3"/>
<path class="st3" d="M405,74c-0.2,0.2-0.2,0.5-0.2,0.7c1.7,6.7,2.5,13.7,2.4,20.6c0,3-0.1,4.9-0.1,4.9c0,0.4,0.3,0.8,0.7,0.8
	c2.7,0.4,4.9,0.8,7.7,1.2h0.1c0.4,0,0.7-0.3,0.8-0.6c0.5-2.6,0.7-5.3,0.7-7.9c0-6.2-1-12.4-3-18.3c-0.1-0.3-0.3-0.5-0.6-0.5
	c-3.1-0.4-4.6-0.8-7.7-1.2C405.5,73.7,405.2,73.8,405,74"/>
<path class="st3" d="M404.4,74.1L404.4,74.1c0.4,0,0.7-0.2,0.8-0.4c2.3-4.5,4.3-9.2,5.7-14c0.1-0.2,0-0.5-0.1-0.6
	c-0.1-0.2-0.3-0.3-0.5-0.4l-5.6-0.9L404,58c-3.4,4.2-6.1,8.9-8.2,13.9c-0.1,0.2-0.1,0.5,0,0.7s0.3,0.4,0.6,0.4
	C399.6,73.3,401.2,73.7,404.4,74.1"/>
<path class="st3" d="M445.9,83.3L445.9,83.3c0.1,0.7,0.3,0.6,0.3,0.7l0,0c4.4,4,6.9,9.6,6.9,15.6c-0.1,3-0.5,5.9-1.4,8.7
	c-0.1,0.2,0,0.4,0.1,0.6s0.3,0.3,0.5,0.4l8.2,1.2h0.1c0.4,0,0.7-0.3,0.8-0.6c0.6-2.3,0.8-4.7,0.9-7.1c0.1-6.6-2.4-13-6.9-17.8
	l-0.3-0.2c0,0-1.9-0.5-3.9-1c0-0.1,0.1-0.1,0.1-0.2v-0.8c-0.1-4.8-0.6-9.5-1.5-14.2c0-0.3-0.2-0.5-0.5-0.6c-2.1-0.5-2.6-0.4-4.6-0.9
	c-0.2,0-0.4,0-0.6,0.1c-0.2,0.1-0.3,0.3-0.3,0.5c-0.2,4.7-0.6,9.3-1.4,13.9c-0.1,0.4,0.2,0.7,0.5,0.8C444,82.9,445,83.1,445.9,83.3"
	/>
<path class="st3" d="M298.1,61.7c1.1,0,2.3,0,3.4,0c0.4,8.6,2.5,17.1,6.2,24.8c0.1,0.2,0.3,0.4,0.6,0.4c1.8,0.1,3.6,0.3,5.4,0.5h0.1
	c0.2,0,0.4-0.1,0.5-0.3c0.2-0.2,0.2-0.4,0.1-0.7c-2.2-8.2-3.4-16.6-3.5-25.1c0-0.4-0.3-0.7-0.7-0.7c-1.5,0-3,0-4.4-0.1
	c1.7-4.9,4.6-9.2,8.4-12.6c0.2-0.2,0.3-0.5,0.2-0.8c-0.1-0.3-0.4-0.5-0.7-0.5c-1.6,0-3.2-0.1-4.7-0.1l-0.3,0.1
	c-5.5,2.9-9.6,7.9-11.3,13.9c-0.1,0.2,0,0.4,0.1,0.6C297.7,61.6,297.9,61.7,298.1,61.7"/>
<path class="st3" d="M274.5,63.1L274.5,63.1c1.1-0.1,2.2-0.2,3.2-0.3c-0.4,1.6-0.5,3.3-0.6,4.9c0,5.4,1.2,10.8,3.6,15.7
	c0.1,0.3,0.4,0.6,0.6,0.6c1.7,0,4.1,0.5,5.9,0.5l0,0c0.2,0,0.4-0.1,0.6-0.3c0.1-0.2,0.2-0.4,0.1-0.6c-1.3-4.9-2-10-2.1-15.1
	c0-2.4,0.2-4.9,0.8-7.3c0.1-0.2,0-0.5-0.2-0.6c-0.1-0.2-0.4-0.3-0.6-0.3c-1.3,0.1-2.5,0.2-3.8,0.3c0.9-4.8,3.5-9.2,7.3-12.3
	c0.2-0.2,0.3-0.5,0.2-0.8c-0.1-0.3-0.4-0.5-0.7-0.4c-1.6,0.1-3.2,0.2-4.8,0.4l-0.4,0.1c-5.4,3.1-9,8.5-10,14.6
	c0,0.2,0.1,0.4,0.2,0.6C274.1,63.1,274.3,63.1,274.5,63.1"/>
<path class="st3" d="M244.4,53.1c-0.1-0.3-0.4-0.4-0.7-0.4c-2,0.4-4,0.8-5.9,1.2l-0.3,0.1c-3.9,3.2-6.6,7.8-7.5,12.8
	c0,0.2,0,0.4,0.2,0.6c0.1,0.1,0.3,0.2,0.4,0.2h0.1c0.6-0.1,1.5-0.3,2.4-0.4c-0.5,1.3-0.8,2.7-0.8,4.1c0,4.6,1.1,9.1,3.2,13.3
	c0.1,0.2,0.3,0.3,0.6,0.3h0.1c1.1-0.1,3.4-0.4,4.6-0.4c0.2,0,0.4-0.1,0.5-0.3c0.1-0.2,0.1-0.4,0.1-0.6c-0.9-2.8-1.4-5.7-1.4-8.6
	c0-3.1,0.6-6.3,1.9-9.1c0.1-0.3,0-0.7-0.3-0.9c-0.1-0.1-0.2-0.1-0.4,0c-1.1,0.2-2.4,0.4-3.5,0.6c0.3-4.7,2.8-9,6.7-11.6
	C244.4,53.7,244.5,53.4,244.4,53.1"/>
<path class="st3" d="M238.8,436.9c0-0.2-0.2-0.4-0.4-0.5c-2.2-0.9-4.4-1.8-6.6-2.8c-0.4-0.2-0.8,0-0.9,0.3c-0.1,0.2-0.1,0.4,0,0.5
	c1.3,3.5,3.4,6.5,6.3,8.9c2.7,1.2,5.2,2.1,7.7,3c0.1,0,0.2,0,0.2,0c0.3,0,0.5-0.1,0.6-0.4c0.2-0.3,0.1-0.7-0.2-0.9
	C242.3,443.3,240,440.4,238.8,436.9"/>
<path class="st3" d="M220,431.4l-0.3-0.5c-3-1.8-3.5-1.6-6.5-3.6l0,0c-0.2-0.2-0.5-0.3-0.7-0.5c-0.3-0.2-0.8-0.1-1,0.2
	c-0.1,0.1-0.1,0.2-0.1,0.4l0,0c0.6,2.2,1.5,4.3,2.6,6.3l0.1,0.1c2.4,2.6,5.3,4.6,8.5,5.9l0,0c0.1,0.1,0.3,0.1,0.4,0.1
	c0.2,0,0.4-0.1,0.6-0.3c0.2-0.3,0.2-0.7-0.1-1C221.6,436.6,220.4,434,220,431.4"/>
<path class="st3" d="M202.1,423.3l-0.3-0.5c-3-1.8-3.5-1.7-6.5-3.6l0,0c-0.2-0.2-0.5-0.4-0.7-0.5s-0.5-0.1-0.8,0
	c-0.2,0.2-0.4,0.5-0.3,0.7c0.5,2,1.2,3.9,2.1,5.7c0,0,8.6,6.2,9.1,6.5c0.3,0.2,0.8,0.1,1-0.2c0.2-0.3,0.1-0.7-0.1-0.9
	C203.7,428.5,202.6,426,202.1,423.3"/>
<path class="st3" d="M446.6,408.7L446.6,408.7c-11.5-3-16-8.3-15.8-10.1c0-0.3-0.1-0.5-0.3-0.7c-0.2-0.1-0.5-0.2-0.7,0
	c-1.5,0.7-3,2-4.9,3c-6.8-0.9-13.2-4.1-18.1-8.9c-0.2-0.2-0.5-0.2-0.8-0.1c-1.9,1.1-7.4,4-7.7,4.3c-0.1,0.1-0.1,0.3-0.1,0.4
	c0,0.2,0.1,0.4,0.3,0.6c5.4,5,12.3,8.1,19.6,9h0.3c0.8-0.4,1.9-0.9,3-1.5c3.2,6.2,13.5,9,17.1,10h0.4c2.9-1.4,5.6-3.1,8.1-5
	C447.3,409.2,447,408.8,446.6,408.7L446.6,408.7z"/>
<path class="st3" d="M467.7,393.3c-11.7-4-12.5-7.4-12.8-10.7c0-0.4-0.6-0.6-0.9-0.4c-0.4,0.1-3.7,2.9-4,2.9
	c-6.9-0.9-13.4-3.8-18.6-8.5c-0.2-0.1-0.5-0.1-0.7,0c-2.1,1.4-4.7,3.8-6.7,5.1c-0.2,0.1-0.3,0.4-0.3,0.6s0.1,0.5,0.3,0.6
	c5.2,5,11.9,8,19.1,8.4l0.4-0.1c0.6-0.4,1.8-1.1,2.5-1.6c4,4.6,9.3,7.9,15.2,9.5l0.6-0.1c1.8-1.2,6.1-4.3,6.2-4.4l0,0l0,0l0,0l0,0
	l0,0l0,0c0-0.1,0.1-0.1,0.1-0.2l0,0C468.3,393.9,468.1,393.5,467.7,393.3L467.7,393.3"/>
<path class="st3" d="M279.9,438.8l-0.6-0.2c-1.6,0-3.2,0.1-4.7,0.1c-0.9,0-1.8,0-2.8,0c-0.3,0-0.6,0.2-0.7,0.4
	c-0.1,0.3,0,0.6,0.2,0.8c3.1,3.1,6.7,5.8,10.6,7.8l-2.2-0.2c-0.3,0-0.6,0.1-0.7,0.4s-0.1,0.6,0.1,0.8c1.3,1.4,2.7,2.6,4.3,3.7
	l0.3,0.1c1.2,0.2,4.2,0.6,5.3,0.8h0.1c0.3,0,0.5-0.1,0.6-0.3c0.1-0.2,0.1-0.6,0-0.8c-0.4-0.5-2.1-1.2-2.1-1.6c0-0.3,0.1-0.6,0.2-0.9
	c1.8,0,3.6,0,5.3,0c0.4,0,0.8,0,1.2,0c0.4,0,0.6-0.3,0.7-0.6c0-0.4-0.2-0.7-0.5-0.8C289,446.5,283.9,443.2,279.9,438.8"/>
<path class="st3" d="M402.5,418.4c1.4-0.6,3.3-1.5,4.3-2c0.3-0.1,0.5-0.4,0.4-0.8c0-0.3-0.3-0.6-0.6-0.6c-8-0.7-15.4-4.2-21.1-9.8
	c-0.2-0.2-0.5-0.2-0.8-0.1c-2,1.1-5.2,2.7-7.3,3.7c-0.2,0.1-0.4,0.3-0.4,0.6c0,0.2,0.1,0.5,0.3,0.6c5.2,4.3,11.3,7.5,17.9,9.1
	c-0.4,0.2-0.8,0.3-1.2,0.4c-0.3,0.1-0.5,0.5-0.5,0.8c1.4,6.1,12.6,9,17.5,10.2h0.4c2.1-0.6,5.4-2.3,7.3-2.9c0.3-0.1,0.5-0.4,0.5-0.7
	c0-0.3-0.2-0.6-0.5-0.7C408.9,423.9,403.3,420.6,402.5,418.4"/>
<path class="st3" d="M380.3,429.5c1.8-0.8,3.8-1.7,5.1-2.3c0.3-0.1,0.5-0.4,0.4-0.7c0-0.3-0.3-0.6-0.6-0.6c-8.4-0.7-16.4-3.9-23-9.2
	c-0.2-0.2-0.5-0.2-0.8-0.1c-1.9,1-4.9,1.9-7.1,2.9c-0.2,0.1-0.4,0.3-0.4,0.6c0,0.2,0.1,0.5,0.3,0.6c5.7,4.6,12.4,7.8,19.6,9.3
	c-0.4,0.1-0.8,0.3-1.2,0.4c-0.3,0.1-0.5,0.5-0.5,0.8c1.3,6.1,9.4,8.6,14.3,9.7h0.4c2-0.5,4-1.1,5.9-1.7c0.3-0.1,0.5-0.4,0.5-0.7
	c0-0.3-0.2-0.6-0.5-0.7C382.5,435.2,380.6,431.6,380.3,429.5"/>
<path class="st3" d="M334.4,445.9c0-0.4,0.4-1.5,0.4-1.7c0.9-0.1,1.9-0.2,2.8-0.3c0.3,0,0.6-0.3,0.6-0.7c0-0.3-0.2-0.6-0.5-0.7
	c-6-2.2-11.5-5.7-16-10.3l-0.6-0.2c-2.5,0.5-4.9,1.1-7.4,1.4c-0.3,0-0.5,0.2-0.6,0.5s0,0.6,0.2,0.8c4.8,4.2,10.4,7.3,16.4,9.3
	c-1.3,0.1-2.6,0.2-3.9,0.3c-0.3,0-0.6,0.2-0.6,0.5c0,0.1,0,0.2,0,0.3c0.1,3.3,4.2,5.8,7,7.1l0.3,0.1c1.7,0,2.8-0.4,4.5-0.4
	c0.4,0,1.3-0.2,1.7-0.2c0.3,0,0.6-0.2,0.7-0.5s-0.1-0.6-0.3-0.8C335.6,448.3,334.4,446.9,334.4,445.9"/>
<path class="st3" d="M312.2,449.1c0-0.4,0.1-0.8,0.3-1.1c1-0.2,2-0.4,3-0.5c0.3,0,0.6-0.3,0.6-0.6c0-0.3-0.2-0.7-0.5-0.8
	c-5.8-1.9-11-5.2-15.3-9.6l-0.6-0.2c-2.4,0.5-4.9,0.6-7.4,0.9c-0.3,0-0.5,0.2-0.6,0.5s0,0.6,0.2,0.8c4.3,3.8,9.3,6.8,14.8,8.8
	c-1,0.1-2,0.2-3.1,0.2c-0.3,0-0.6,0.2-0.7,0.5c0,0.1,0,0.2,0,0.2c1.2,2.9,3.4,5.2,6.3,6.5l0.3,0.1c1.7,0,6,0,6.5,0
	c0.3,0,0.6-0.2,0.7-0.5s-0.1-0.6-0.3-0.8C313,451.4,312.2,450,312.2,449.1"/>
<path class="st3" d="M355.3,438.8c1.6-0.4,3.3-1,4.5-1.2c0.4-0.1,0.6-0.4,0.6-0.8c-0.1-0.3-0.3-0.5-0.6-0.6
	c-7.3-1.6-13.8-5.4-18.9-10.8c-0.2-0.2-0.5-0.3-0.7-0.2c-2.1,0.6-5,1.7-6.9,2.1c-0.3,0.1-0.5,0.3-0.5,0.5c-0.1,0.3,0,0.6,0.3,0.7
	c4.9,4.1,10.5,7.4,16.5,9.6c-0.6,0.2-1.3,0.3-2,0.4c-0.4,0.1-0.7,0.4-0.6,0.8c0,0.1,0,0.1,0,0.1c2.2,4.1,6,7.1,10.6,8.2h0.2
	c2.2-0.1,4.9-0.8,7.1-0.9c0.4,0,0.7-0.4,0.6-0.8c0-0.3-0.2-0.5-0.5-0.6C358.9,443.3,356,440.8,355.3,438.8"/>
<path class="st3" d="M492.2,327.5c-2.1,1.6-4.3,3.3-6.5,5c-0.3,0.2-0.4,0.7-0.1,1c0.1,0.1,0.1,0.1,0.2,0.2
	c5.4,3.2,11.3,5.5,17.5,6.8c0.1,0,1.3,0.3,1.3,0.3c0.2,0,0.4-0.1,0.5-0.2c1.2-1.1,2.5-2.1,3.7-3c1.9,1,4.8,1.8,7,2.8
	c0.1,0.1,0.2,0.1,0.3,0.1c0.2,0,0.5-0.1,0.6-0.3c0.8-1.3,2.1-3.7,3-5.1c0.2-0.3,0.1-0.6-0.1-0.9c-2-1.4-4.3-2.4-6.7-3.1
	c-0.4-0.1-0.7-0.2-1,0c-1,0.9-1.8,1.8-2.8,2.7c-5.6-1.5-11.1-3.6-16.2-6.4C492.7,327.3,492.4,327.3,492.2,327.5"/>
<path class="st3" d="M494.7,351.1c-0.1-0.1-0.3-0.2-0.5-0.3c-0.2,0-0.4,0-0.6,0.2c-0.7,0.6-1.5,1.2-2.3,1.8
	c-6.5-2.5-12.6-5.8-18.3-9.8c-0.3-0.1-0.6-0.1-0.8,0.1c-2.3,1.9-4.6,3.8-7,5.6c-0.2,0.1-0.3,0.4-0.3,0.6s0.1,0.4,0.3,0.6
	c5.9,4.8,12.7,8.3,20,10.4l0.6-0.1c0.8-0.6,2.2-1.4,3-2c3,2.9,6.8,4.6,11,5c0.1,0,0.2,0.1,0.3,0.1c0.2,0,0.4-0.1,0.5-0.2
	c1.3-1.3,4-4.6,5.3-5.9c0.2-0.4,0.3-0.8,0.4-1.2c0-0.2-0.1-0.5-0.3-0.5C502,354.7,498.2,353.3,494.7,351.1"/>
<path class="st3" d="M473.8,368.2c-0.2-0.3-0.5-0.4-0.8-0.3l-0.1,0.1c-0.1,0.1-0.2,0.1-0.2,0.2s-0.1,0.1-0.1,0.2
	c0,0-1.4,1.6-1.7,1.5c-10.6-2.3-10.9-5.9-16.5-9c-0.3-0.1-0.6-0.1-0.8,0.1c-2.3,1.9-4.6,3.8-7,5.6c-0.2,0.1-0.3,0.4-0.3,0.6
	s0.1,0.4,0.3,0.6c4.9,4.3,10.8,7.3,17.2,8.8l0.6-0.1c0.8-0.6,1.5-1.2,2.3-1.7c4.2,3.7,9.6,5.8,15.2,5.7c0.1,0,0.2,0.1,0.3,0.1
	c0.2,0,0.4-0.1,0.5-0.2c1.2-1.2,4.4-4.2,5.7-5.6c0.2-0.2,0.2-0.5,0.2-0.7c-0.1-0.3-0.3-0.4-0.6-0.5
	C487.9,373.5,477.1,373.8,473.8,368.2"/>
<path class="st3" d="M257.7,438.5l-0.5-0.3c-2.2-0.3-4.5-0.6-6.8-1c-0.3,0-0.6,0.1-0.7,0.3c-0.2,0.2-0.1,0.6,0,0.8
	c2,2.7,4.4,5.1,6.9,7.3h-0.1c-0.3,0-0.6,0.1-0.7,0.3c-0.2,0.2-0.1,0.6,0,0.8c0.5,1,1.1,1.8,1.9,2.6l0.3,0.1c1.2,0.4,3,0.7,4.1,1
	c0.1,0,0.1,0,0.2,0c0.2,0,0.4-0.1,0.5-0.2c0.2-0.2,0.3-0.5,0.2-0.7c0-0.1-0.8-0.7-0.8-0.8c0-0.1,0-0.2,0.1-0.2
	c1.4,0.1,2.8,0.3,3.8,0.4h0.1c0.3,0,0.6-0.2,0.7-0.4c0.1-0.3,0-0.7-0.3-0.9C263.1,445.2,260.1,442.1,257.7,438.5"/>
<path class="st3" d="M184.4,413l-0.3-0.4l-5.7-3.8c-0.3-0.2-0.6-0.1-0.8,0c0.5,1.9,1.1,3.9,1.9,5.7l0.2,0.3c1.9,2,4,3.7,6.4,5.1
	c0.1,0.1,0.2,0.1,0.4,0.1c0.4,0,0.7-0.3,0.7-0.7c0-0.2-0.1-0.4-0.2-0.5C185.8,417,184.9,415,184.4,413"/>
<path class="st3" d="M523.4,321.2c0.1,0,0.1,0,0.2,0c0.3,0,0.5-0.2,0.6-0.4c1-2.1,2-4.2,2.8-6.3c0.2-0.3,0-0.8-0.3-0.9
	c-0.1,0-0.1,0-0.2-0.1c-4.6-0.9-8.9-2.6-12.9-5c-0.2-0.1-0.5-0.1-0.8,0.1c-2,1.6-2.4,3.5-4.2,4.8c-0.3,0.2-0.4,0.7-0.1,1
	c0.1,0.1,0.1,0.1,0.2,0.2C513.3,317.5,518.2,319.8,523.4,321.2"/>
<path class="st3" d="M531.1,298.6L531.1,298.6c0.4,0,0.6-0.2,0.7-0.4c0.8-2,1.4-3.9,2.1-5.8c0-0.1,0-0.1,0.1-0.2
	c0-0.2,0-0.3-0.1-0.5l0,0c-0.1-0.1-0.2-0.2-0.3-0.2h-0.2c-2.9,0.1-5.9-0.6-8.5-1.9c-0.3-0.1-0.6,0-0.7,0.2c-1.3,1.6-2.7,3.2-4.1,4.8
	c-0.1,0.2-0.2,0.4-0.2,0.6s0.2,0.4,0.4,0.5C523.6,297.3,527.3,298.3,531.1,298.6"/>
</svg>
