<?xml version="1.0" encoding="utf-8"?>
<!-- Generator: Adobe Illustrator 25.4.3, SVG Export Plug-In . SVG Version: 6.00 Build 0)  -->
<svg version="1.1" id="Layer_1" xmlns="http://www.w3.org/2000/svg" xmlns:xlink="http://www.w3.org/1999/xlink" x="0px" y="0px"
	 viewBox="0 0 166.9 143.7" style="enable-background:new 0 0 166.9 143.7;" xml:space="preserve">
<style type="text/css">
	.st0{fill:#FFB819;}
</style>
<g id="A_x27_s_x5F_Primary-AthleticGold_00000026150455216311056090000008874802451775783098_">
	<g>
		<path class="st0" d="M135.2,103c-17.2,18.8-22.8,11.5-25.8,2.6L81.3,21c-2.6-7.8-7.4-14.4-15.6-17C53.2,0.8,39.6,6.7,35,26.9
			c4.5-6.5,12.8-12,20.4-7.4c6.6,3.9,6.6,8.3,4,16l0,0l-2,5.9c-7.9-8.3-24.6-6.6-26.5,12.1c5.2-4.7,23.9-4.3,18.3,12.2l0,0L32.4,115
			c-14,0.1-28,7.2-32.3,24.7c3.9-6.2,32.6-18.5,58.5,0.4L75,120c-1.1-1.1-10.1-3-16.8,3.6c-3.5-3-8.1-5.3-13.1-6.8l8.6-25.4h31.9
			L96.8,125c4.4,13.4,14.7,21,21.2,10.9c0,0,17.8-26.6,19.9-29.7C139.9,103,135.7,102.5,135.2,103 M58.3,77.7l11.5-33.8l11.3,33.8
			H58.3z"/>
		<polygon class="st0" points="105.5,52.1 108.4,52.1 115.3,43.2 115.3,33.6 105.1,33.6 105.1,44 108.5,44 		"/>
		<path class="st0" d="M152.1,57.1c-8.2-1.6-15-3.3-12.9-9.2c1.7-5,13.8-4.5,18,1.8l6.3-6.5c-7.4-10.2-25.3-11.5-32.6-1.3
			c-10,14.1,1.4,21.7,14.3,24.9c5.3,1.3,12,4.4,8.7,9.5c-2.8,4.4-13.8,2.3-22-5.2l-5.6,7.6c5,5.8,24.6,18,36.8,3.2
			C173.3,69.6,160.3,58.7,152.1,57.1"/>
	</g>
</g>
</svg>
