<?xml version="1.0" encoding="utf-8"?>
<!-- Generator: Adobe Illustrator 21.1.0, SVG Export Plug-In . SVG Version: 6.00 Build 0)  -->
<!DOCTYPE svg PUBLIC "-//W3C//DTD SVG 1.1//EN" "http://www.w3.org/Graphics/SVG/1.1/DTD/svg11.dtd">
<svg version="1.1" id="Layer_1" xmlns="http://www.w3.org/2000/svg" xmlns:xlink="http://www.w3.org/1999/xlink" x="0px" y="0px"
	 width="303.2px" height="263.1px" viewBox="0 0 303.2 263.1" style="enable-background:new 0 0 303.2 263.1;" xml:space="preserve"
	>
<style type="text/css">
	.st0{fill:#FFCA38;}
	.st1{fill:#00402E;}
</style>
<path class="st0" d="M191.5,112c-1.3,0-2.6-0.4-3.8-1.1c-5.7-3.4-1.9-10.5-0.3-13.6l1.3-2.5H188c-1.7,0-3-1.3-3-3V63.2
	c0-1.7,1.3-3,3-3h26.1c1.7,0,3,1.3,3,3v25.3c0,0.8-0.3,1.6-0.9,2.1l-16.1,16.1l-0.7,0.7C197.4,109.4,194.9,112,191.5,112z"/>
<path id="outline-1" class="st0" d="M214.1,88.5c0,0,0,0-16.1,16.1c-2.6,2.6-5.2,5.8-8.8,3.7c-2.7-1.6-1.5-5.2,0.8-9.6
	c3.6-6.9,3.6-6.9,3.6-6.9H188V63.2h26.1V88.5L214.1,88.5z"/>
<path class="st0" d="M283.9,105.4c4.4,2.1,8.3,4.8,11.4,8.2c5.4,5.9,7.9,13.2,7.9,21.4c0,10.5-3.5,19.5-10.8,26.6
	c-7.4,7.1-18.3,11.2-32,10.2c-16.1-1.1-28.9-11.1-37.5-19.2l-5.1-4.7l15-21.7c-1.9-1.3-3.6-2.7-5.1-4.2c-5.3-5.4-7.4-12.8-7.4-20.8
	c0-9.9,3.5-18.7,10.4-25.9c7.3-7.6,17.4-10.9,28.9-11c11.6,0,23.9,3.8,35.1,18l4,5.1L283.9,105.4L283.9,105.4z"/>
<path class="st0" d="M201.2,263.1c-1.5,0-3.1-0.2-4.6-0.6c-15.7-3.9-27-17.2-34.6-40.6l-15.4-46.8h-34.9l-10.3,31.2
	c2.5,1.2,4.8,2.4,7.2,3.6c0.7,0.4,1.4,0.7,2.1,1c4.7-3,12.5-7,20.9-7c4,0,7.6,0.9,10.7,2.7c2.9,1.7,4.9,4.4,5.5,7.5
	c0.6,3.1-0.3,6.3-2.4,9l-25.4,31.1c-2,2.5-6.3,3.8-9.4,3.8c-1.3,0-2.5-0.2-3.5-0.7c-3.3-1.4-6.6-3-10.1-4.8
	c-3.1-1.6-6.4-3.2-9.7-4.6c-5.6-2.5-12.2-5.1-19.4-5.8c-3.5-0.4-8.1-0.8-12.8-0.8c-14.4,0-25.2,4.3-36.1,14.4
	c-2.7,2.6-5.8,3.9-9,3.9c-3.1,0-5.9-1.4-7.7-3.8c-2.2-3-2.7-7-1.4-11.3c6-19.1,22.5-36.7,40.1-42.9c6.1-2.2,12.6-3.6,19.2-4.2
	l29.8-90.8c-2.4-3.4-5.7-4.6-6.8-4.7c-1.1,0-5,1.2-7.2,3.6c-2.6,2.8-5.7,4.4-8.8,4.4c-4.7,0-8.5-3.5-10-9.1
	c-2-7.8-0.7-16.2,3.7-23.6c4.5-7.6,11.8-13.1,19.9-15.1c4.2-1.1,8.2-1.6,12-1.6c3.9,0,7.8,0.5,11.7,1.6l2.5-7.7l-2.3-7
	c-0.3-0.4-1.7-1.8-4.6-2c-0.2,0-0.4,0-0.7,0c-7,0-12.9,5.5-18.1,11.4c-2.8,3.1-6.1,4.8-9.4,4.8c-2.5,0-4.8-1-6.6-2.7
	c-2.2-2.2-3.4-5.6-3.4-9.5C62.2,18.9,89.7,0,114.8,0c3.6,0,7.1,0.4,10.5,1.2c7.9,1.8,14.8,7.4,20.5,16.5c4.4,7,7,14.3,7.9,17.1
	l53,161c0.9,2.7,1.6,3.9,2,4.4c0.2,0.1,0.7,0.3,1.8,0.4c0.2,0,0.3,0,0.5,0c2.3,0,6.5-1.9,11.2-7.1c3.2-3.6,6.8-6.8,10.1-9.1
	c1.6-1.1,3.8-2.6,6.4-3.6c2.1-0.8,4-1.1,5.9-1.1c1.7,0,3.4,0.3,5,0.9c5.3,2.1,9.5,8.2,6.8,17.3c-1,3.1-2.5,6.8-4.4,10.3
	c-3.3,6.4-8.6,15.1-14.9,24.6c-6,9.1-11.3,15.9-16.2,20.6C214,259.9,207.6,263.1,201.2,263.1z M132.3,131.7l-3.2-9.6l-3.2,9.6H132.3
	z"/>
<path id="outline-3" class="st0" d="M121.9,134.7h14.6l-7.3-22.2L121.9,134.7L121.9,134.7z M41.8,204.6c6.9-2.5,13.9-3.8,20.4-4.2
	l30.9-94c-2.9-5.1-7.5-7-9.7-7.3c-1.7-0.2-6.8,1.3-9.8,4.5c-5.3,5.8-11.8,4.1-13.7-3.4C56,85,66.5,68.8,81.3,65.1
	c7.2-1.8,15.3-2.4,25,0.8l3.7-11.4l-2.7-8.2c-0.1-0.4-2.2-3.5-7.2-3.8c-8.3-0.4-14.8,5.2-21.2,12.4c-6.2,7-14.2,3.9-14.1-5.4
	c0.5-33.3,35-51.3,59.8-45.4c9,2.1,15,9.3,18.7,15.2c3.9,6.2,6.4,12.7,7.6,16.4l53,161c1.2,3.7,2.2,5,2.7,5.6c0.3,0.3,1,0.9,3.6,1.2
	c3.3,0.4,8.5-1.7,14.2-8c2.8-3.1,6.2-6.3,9.6-8.7c1.7-1.2,3.6-2.4,5.7-3.2c1.9-0.7,5.2-1.6,8.8-0.2c3.3,1.3,7.4,5.6,5,13.6
	c-0.9,2.9-2.4,6.4-4.2,9.8c-3.6,7-9.1,15.9-14.7,24.3c-4.8,7.3-10.2,14.7-15.8,20.1c-5,4.8-12.7,10.6-21.5,8.4
	c-18.6-4.6-27.6-23.5-32.5-38.6l-16.1-48.9h-39.2l-11.8,35.8c4.6,2.1,9.1,4.5,13.1,6.5c9.1-6.2,21.1-10.2,29.9-5.1
	c4.5,2.6,5.5,7.9,2.2,12l-25.4,31.1c-1.7,2.1-6.9,3.4-9.4,2.3c-6.3-2.7-12.8-6.3-19.8-9.4c-6.6-2.9-13.2-5.3-20.3-6
	c-17.3-1.9-33.6-1.9-51.2,14.4c-7.4,6.9-16.1,1.5-13.2-8.2C9.4,227,25.3,210.4,41.8,204.6L41.8,204.6z"/>
<g id="Layer_2">
	<polygon id="body-1" class="st1" points="209.1,68.2 209.1,86.5 194.5,101.1 201.9,86.8 193,86.8 193,68.2 	"/>
	<path id="body-2" class="st1" d="M262.4,147.3c4.1,0.6,7.3-0.7,9.7-2.1c2.5-1.4,3.7-3.5,3.8-6.4c0-2.7-1-4.8-3-6.3
		c-1.9-1.3-9-3.6-21.1-6.9c-8.6-2.4-14.7-5.4-18.2-9.1c-3.4-3.5-5.1-8.5-5.2-15.3c0-7.9,2.7-14.6,8.2-20.4
		c5.4-5.6,13.1-8.5,23.2-8.6c9.4,0,19.2,2.8,28.8,14.9l-8.8,10.6c-8.2-7.1-14.3-9-19.7-9.1c-4.4,0-7.7,0.7-9.7,2.4
		c-1.9,1.6-2.9,3.5-2.9,5.8c0,2.7,1.1,4.7,3.2,6.1c2.1,1.2,9.1,3.3,21.1,6.4c7.9,2.1,13.8,5.2,17.7,9.5c3.8,4.2,5.8,9.5,5.8,16.1
		c0,8.5-2.8,15.4-8.4,20.8c-5.5,5.3-14.2,8.8-25.8,8c-13.2-0.9-24.2-9.2-32.6-17.1l8.2-11.9C248,143.3,254.8,146.1,262.4,147.3
		L262.4,147.3z"/>
	<path id="body-3" class="st1" d="M129.2,86.8l-18.4,55.9h36.8L129.2,86.8L129.2,86.8z M11.5,247.6c4.9-16,19-30.6,33-35.6
		c8.2-2.9,16.4-4,23.6-4l33.7-102.3C97.9,95.9,89.7,91.6,84.2,91c-4.5-0.4-12,2.2-16.5,7.1C65,87.4,72.6,75.4,83.3,72.8
		c7.6-1.9,16.2-2.2,28,3.8l7.3-22.1l-3.5-10.7c-1.2-3.7-6.2-8.9-14.4-9.3C88.3,33.8,79.4,42.4,73,49.6c0.4-27.1,29-42.7,50-37.8
		c11.6,2.7,18.4,19.6,20.6,26.3l53,161c2.7,8.3,5.9,11.3,12.9,12.2c7.2,0.9,14.9-3.6,21.2-10.5c5.2-5.7,11.9-11.3,15.1-10
		c3.6,1.4-6.8,19.5-17.6,35.9c-9.5,14.3-20.1,27.3-28.7,25.2c-14-3.5-21.9-18.2-26.8-33.3l-18-54.6h-50.8L88,212.2
		c8.6,3.4,17.2,8.2,23.9,11.4c8.9-7.6,19.6-10.7,25-7.6l-25.5,31.1c-12.5-5.3-25.9-14.2-42.4-16C50.9,229.2,31.6,228.9,11.5,247.6
		L11.5,247.6z"/>
</g>
</svg>
