<?xml version="1.0" encoding="utf-8"?>
<!-- Generator: Adobe Illustrator 21.1.0, SVG Export Plug-In . SVG Version: 6.00 Build 0)  -->
<!DOCTYPE svg PUBLIC "-//W3C//DTD SVG 1.1//EN" "http://www.w3.org/Graphics/SVG/1.1/DTD/svg11.dtd">
<svg version="1.1" id="Layer_1" xmlns="http://www.w3.org/2000/svg" xmlns:xlink="http://www.w3.org/1999/xlink" x="0px" y="0px"
	 width="300.2px" height="406.5px" viewBox="0 0 300.2 406.5" style="enable-background:new 0 0 300.2 406.5;" xml:space="preserve"
	>
<style type="text/css">
	.st0{fill:#ffc425;stroke:#ffc425;stroke-width:0.16;}
</style>
<g>
	<path class="st0" d="M271.5,102.3c-11.3-10.1-31.1-23.3-59.6-23.3c-14.9,0-142.8,0.1-142.8,0.1v2.6c0,0,3.3,0.1,4.4,0.1
		c4.9,0.1,8,1.9,10.7,4.9c2.8,2.9,4.4,3.9,4.4,11.6c0,16,0,51.7,0,51.7h-40c-2.8,0-4.8-1.3-6.3-2.9c-1.5-1.7-2-3.3-2-5.7V68.9
		c0-7.8,2.6-13.2,6.6-18.4c4-5.3,12.6-10.1,21.4-10.1h96c2.5,0,4.6,0.7,6.4,2.5c1.8,1.8,2.6,3.6,2.6,5.6s-0.4,4.6-3.7,7
		c-3.7,2.5-8.1,2.4-8.1,2.4v2.7h54.9V40.7c0-11.1-3.6-20.9-12.3-28.8C195.5,4,186.8,0.1,165.8,0.1H71.1l0,0c-21.6,0-40.5,10-52.3,23
		S0.1,54.1,0.1,71.8v70.7c0,13.7,6.4,26.3,14.7,34c8.3,7.7,18.5,13.6,34.8,13.7c39.1,0,114.7,0,118.5,0c2.3,0,4.6,1.2,6,2.8
		c1.4,1.6,2.1,3.6,2.1,5.3V264c0,7.1-2.9,14-7,18.6c-4,4.6-11.3,10.1-22.3,10.1H129v-87.5H88.6v87.5h-40c-2.6,0-4.5-1-6-2.5
		c-1.5-1.5-2.3-3.7-2.3-5.8c0-2.7,0.2-38.4,0.2-38.4s0-4.1,1.1-6.4c0.9-1.9,1.8-3.8,3.3-5.3c1.7-1.9,3.9-3.4,6.2-4.4
		c2.8-1.1,8.9-1.4,8.9-1.4v-2.7H0.1v58.6c0,11.2,4,24.3,14,34.2c9.9,9.9,21.7,14.4,34.6,14.4h40v53.1c0,3.9-1.6,8.1-5.1,11.6
		c-3.6,3.5-8,4.8-10,5.3c-2,0.5-2.4,0.6-6,1.1v2.3l143.8-0.1c23.6,0,48-10.1,64.1-27.1c12.4-13.2,24.7-32.3,24.7-61.4
		c0-15.7-0.6-119.9,0-152C300.6,136.6,282.8,112.5,271.5,102.3z M259.7,323.8c0,11.2-4.7,22.4-12.4,29.9
		c-7.6,7.5-19.3,12.4-30.1,12.4H129v-32.9h23.3c14.1,0,30.6-4.2,45.1-18.1c14.5-14,19.1-32.5,19.1-45.7v-69.6
		c0-14.3-4.7-26.4-14.1-35.6c-9.4-9.3-21.7-14.2-34.6-14.2H129v-30.3h87.5c13.1,0,23.5,4.6,31.2,12.8c7.7,8.2,12.1,18.9,12.1,28.2
		L259.7,323.8L259.7,323.8z"/>
</g>
</svg>
