<?xml version="1.0" encoding="utf-8"?>
<!-- Generator: Adobe Illustrator 21.1.0, SVG Export Plug-In . SVG Version: 6.00 Build 0)  -->
<!DOCTYPE svg PUBLIC "-//W3C//DTD SVG 1.1//EN" "http://www.w3.org/Graphics/SVG/1.1/DTD/svg11.dtd">
<svg version="1.1"
	 id="svg23675" xmlns:cc="http://creativecommons.org/ns#" xmlns:dc="http://purl.org/dc/elements/1.1/" xmlns:rdf="http://www.w3.org/1999/02/22-rdf-syntax-ns#" xmlns:svg="http://www.w3.org/2000/svg"
	 xmlns="http://www.w3.org/2000/svg" xmlns:xlink="http://www.w3.org/1999/xlink" x="0px" y="0px" width="300px" height="543.1px"
	 viewBox="0 0 300 543.1" style="enable-background:new 0 0 300 543.1;" xml:space="preserve">
<style type="text/css">
	.st0{fill:#0C2C56;}
	.st1{fill:#005C5C;}
	.st2{fill:#C4CED4;}
	.st3{fill:#FFFFFF;}
	.st4{fill:#D50032;}
</style>
<g>
	<path id="path23679" class="st0" d="M1.5,335.8c49.6,4,52.5,33.4,70.4,64.6c15.6,27.1,37.1,52.4,67.3,52.4
		c33.4,0,37.5-33.5,37.5-46c0-19.5-9.9-35.2-24.8-49.2c-2.4-2.2-6.4-7.7-9-9.8c-10.1-8.3-21.7-16.1-33.9-23.8
		c-3.3-2.1-5.1-1-8.5-3.1C52.2,290.6,0,256.2,0,163C0,51.8,82.8,0,140,0c41.6,0,71.7,24.9,71.7,24.9l56.8-20.6v188.4
		c-37.6,0-60.9-37.5-69.2-53.4c-4.7-8.9-16.1-51.8-48.8-51.8c-21.1,0-26.4,22-26.4,34.9c0,18,12.1,34.6,30.4,47.8
		c11.5,8.3,26,17.2,40,25.8c6.7,4.1,22.8,11.3,25.1,12.9c30.5,21.6,79.7,61.3,79.7,148.8c0,117.7-83.4,182.3-156.6,182.3
		c-34.3,0-76.3-20.5-76.3-20.5L1.5,543.1L1.5,335.8L1.5,335.8z"/>
	<g id="g23681">
		<path id="path23683" class="st1" d="M192.8,195.1c-8.9-5.5-18-11.1-26.3-16.6l3.1,19.4c3.2,2,6.4,4,9.5,5.9L192.8,195.1z
			 M89.3,313.8l6.1-13.4C85.5,294,75.4,287,65.8,279l-25.7-4.2C54.8,290.5,72,302.7,89.3,313.8z M133.5,322.7
			c-0.5-0.4-1.1-0.7-1.6-1.1l-13.6,8.5c6.4,4.2,12.6,8.5,18.4,12.9L133.5,322.7z"/>
		<path id="path23685" class="st1" d="M265,275c13.6,23.5,19.7,51.4,19.7,82.9c0,63.7-25.4,103.2-46.7,125.1
			c-26.3,27.1-61,42.6-95.3,42.6c-38.9,0-74.3-23.2-74.3-23.2l-52.4,19.9V358.8c17.5,3,25.8,15.5,33.1,30.4c2.9,6,6.3,12,10.1,18.5
			c23.2,40.2,49.3,59.7,79.9,59.7c38.4,0,52.1-32.6,52.1-60.6c0-20-8.2-38.2-25-55.5l-3.1,18.6c8.4,10.9,13.5,22.9,13.5,36.9
			c0,12.5-4,46-37.5,46c-30.2,0-51.6-25.3-67.3-52.4c-18-31.1-20.8-60.6-70.4-64.6v207.3l64.9-23.4c0,0,42,20.5,76.3,20.5
			c73.2,0,156.6-64.6,156.6-182.3c0-35.7-8.2-63.5-20-85.3L265,275L265,275z M219.6,209c-0.3-0.2-0.7-0.5-1.3-0.8l-5.8,13.6
			c11.1,7.9,23.8,17.3,35.3,29.8l20.5,3.3C252.6,233.5,234,219.2,219.6,209z M42.3,254.7c-18.6-24.3-27.7-54.3-27.7-91.7
			c0-58.1,27.7-95.8,47.8-115.2c22.8-22,50.3-33.2,77.6-33.2c40.3,0,70.3,27.9,70.3,27.9l43.6-17.4v148.7
			c-29.8-9.1-32.5-31.8-46.7-55.7C191.5,91.7,178.7,73,150.5,73c-28.2,0-41,25.7-41,49.5c0,19.4,10,37.9,29,53.8l2.8-17.3
			c-10.7-10.9-17.1-23.3-17.1-36.5c0-12.9,5.4-34.9,26.4-34.9c32.6,0,44.1,42.9,48.8,51.8c4.4,8.5,13.2,23.1,26.1,35l10.1-6.5
			l-4.7,11c10.3,8,22.9,13.8,37.7,13.8V4.3l-56.8,20.6c0,0-30.1-24.9-71.7-24.9C82.8,0,0,51.8,0,163c0,41.5,10.4,71.3,26.1,94.4
			C26.1,257.4,42.3,254.7,42.3,254.7z"/>
	</g>
	<g id="g23687">
		<path id="path23689" class="st2" d="M102.3,244.7l-34.7-76.6l65.9,39.8l2.9-18.3c-21.7-16.1-37.1-35.7-37.1-67.1
			c0-37.5,23-61.5,48.5-61.5c59.7,0,67.8,72.7,94.7,94.5v-115c-17,6-30.3,14.4-33.4,14.4c-5.5,0-29.8-30.4-68.7-30.4
			c-47.5,0-115,48.1-115,135.7c0,41.1,11.5,70.1,28.5,92.3C53.9,252.8,102.3,244.7,102.3,244.7z M207.3,233.9l-4.4,10.4l22.9,3.7
			C219.9,242.9,213.7,238.3,207.3,233.9L207.3,233.9z M83.2,281.8c5.1,4,10.3,7.7,15.6,11.3l3.7-8.1L83.2,281.8z M202.4,285.5
			l0.1,2.1l33.3,74l-64.6-40.1l-2.8,17.1c19.6,16.1,33.1,35.6,33.1,65.1c0,43.8-24.4,75.2-58,75.2c-79.9,0-95.5-81.5-116.2-101.5
			l0.1,128.1c26.8-8.1,34.3-16.5,39.7-16.5c9.5,0,30.2,25.6,75.1,25.6c64.2,0,131.5-62.1,131.5-155.5c0-35.3-8.6-61.3-21.9-81.7
			L202.4,285.5L202.4,285.5z"/>
	</g>
	<path id="path23691" class="st1" d="M77.4,179.2l30.7,67.9l-0.4,37.2l-30.3,66.1l62.1-38.7l21.9-1.5l64.6,40.2l-27.7-61.7
		l-2.2-39.4l29.9-70.1L169.7,215l-29.6,2.2"/>
	<path id="path23693" class="st2" d="M77.4,179.2l48.5,56.9l-18.3,48.2l-30.3,66.1l51.4-56.2l32.5,16.1l64.6,40.2L167.5,281
		l28.5-31.7l29.9-70.1l-53.3,59.9l-32.5-21.9"/>
	<path id="path23695" class="st1" d="M222.6,264.9c0,39.1-31.7,70.8-70.8,70.8S81,304.1,81,264.9c0-39.1,31.7-70.8,70.8-70.8
		S222.6,225.8,222.6,264.9L222.6,264.9z"/>
	<path id="path23697" class="st3" d="M220.1,264.9c0,37.7-30.5,68.2-68.3,68.2c-37.7,0-68.3-30.5-68.3-68.2
		c0-37.7,30.6-68.3,68.3-68.3C189.5,196.7,220.1,227.3,220.1,264.9z"/>
	<g id="g23699">
		<path id="path23701" class="st4" d="M107.3,218.5c0.5-0.2,1.8-4.7,1.8-4.7c-0.1-0.2-0.7-0.8-1-1.1c-0.3,0.2-0.6,0.5-1,0.8
			l-0.9,3.3l-0.8-0.7c-0.1,0-0.7,0.1-1.5,0.4c-0.9,0.8-1.7,1.7-2.5,2.6c1.2-0.3,4.4-1.3,5-1.4C106.8,218,107.3,218.5,107.3,218.5"/>
		<path id="path23703" class="st4" d="M112.1,221.6c0.5-0.2,1.8-5,1.8-5c-0.2-0.4-1.5-1.2-1.5-1.2l-0.4-0.2l-0.1,0.4l-1.2,4.3
			l-1.1-0.7c-0.3,0-5.7,1.6-5.7,1.6c-0.1,0.6,1.4,1.5,1.4,1.5c0.2,0,5.1-1.4,5.6-1.6C111.3,221.2,112.1,221.6,112.1,221.6
			 M110.8,225.8c0.3,0,5.1-1.8,5.5-1.9c0.5,0.4,1.3,0.8,1.3,0.8c0.5-0.2,1.3-5.1,1.3-5.1c-0.2-0.3-1.7-1.1-1.7-1.1l-0.4-0.2
			l-0.1,0.4l-0.7,4.3l-1.3-0.6c-0.3,0-5.6,2-5.6,2C109.3,225.1,110.8,225.8,110.8,225.8 M115.7,228c0.4,0.5,1.5,1,1.5,1
			c0.2,0,5-2,5.4-2.2c0.5,0.3,1.4,0.7,1.4,0.7c0.5-0.2,0.9-5.1,0.9-5.1c-0.2-0.3-1.7-1-1.7-1l-0.4-0.2l0,0.4l-0.4,4.3l-1.3-0.5
			c-0.3,0-5.4,2.2-5.4,2.2C115.6,227.8,115.6,227.9,115.7,228 M122.1,230.6c0,0.1,0.1,0.2,0.2,0.3h0c0.5,0.5,1.8,0.8,1.8,0.8
			c0.2,0,4.6-2.6,4.8-2.7c0.6,0.3,1.7,0.5,1.7,0.5c0.4-0.4-0.1-5.2-0.1-5.2c-0.2-0.3-2-0.7-2-0.7l-0.5-0.1l0,0.5l0.5,4.3l-1.5-0.4
			C126.8,227.9,122.1,230.6,122.1,230.6 M173.2,230.3c0.1-0.4,0.1-0.7,0.1-0.8c0.6-0.1,1.7-0.4,1.7-0.4c0-0.1-0.1-0.2-0.1-0.3h0
			l-0.1-0.1c-0.4-0.6-1.5-1.5-2.4-2.3C172.8,227.8,173,229.1,173.2,230.3 M178.6,227.2c-0.2,0.3-0.9,4.4-0.9,4.4
			c0.4,0.4,2.2-0.3,2.2-0.3c0.2-0.2,0.8-3.7,0.8-4.3c0.6-0.2,1.4-0.5,1.4-0.5c0-0.1-0.1-0.2-0.1-0.3l0,0l-0.1-0.1
			c-0.9-1-4.4-3.3-4.4-3.3c-0.3,0-1.9,0.6-1.9,0.6l-0.6,0.2l4.8,3.1 M184.1,224.9c-0.2,0.3,0,4.4,0,4.4c0.5,0.3,2-0.5,2-0.5
			c0.1-0.3,0.1-3.5,0-4.2c0.5-0.2,1.3-0.6,1.3-0.6c0-0.1-0.1-0.1-0.2-0.3h0.1l-0.1-0.1c-1-1-4.6-3-4.6-3c-0.3,0-1.8,0.7-1.8,0.7
			l-0.6,0.3l4.9,2.8 M189.2,222.3c-0.2,0.3,0.3,4.3,0.3,4.3c0.5,0.3,1.9-0.6,1.9-0.6c0.1-0.3-0.2-3.5-0.3-4.2
			c0.5-0.2,1.2-0.6,1.2-0.6c0-0.1-0.1-0.2-0.2-0.3h0l-0.1-0.1c-1-0.9-4.8-2.8-4.8-2.8c-0.3,0-1.7,0.8-1.7,0.8l-0.5,0.3l5,2.5
			 M194.1,219.3c-0.1,0.4,1.3,4.2,1.3,4.2c0.5,0.1,1.7-0.9,1.7-0.9c0.1-0.3-1-3.3-1.3-4c0.4-0.3,1-0.8,1-0.8
			c-0.1-0.5-5.3-2.5-5.3-2.5c-0.3,0.1-1.4,1-1.4,1l-0.4,0.4l5.1,2L194.1,219.3z M199.7,219.9c0.5,0.1,1.7-0.8,1.7-0.8
			c0-0.1-0.1-0.7-0.4-1.3c-0.7-0.8-1.5-1.5-2.3-2.3l-0.4,0.3C198.3,216.1,199.7,219.9,199.7,219.9 M194.1,213.1l3.6,1.4
			c-0.8-0.8-1.7-1.5-2.6-2.2c-0.3,0.2-0.6,0.5-0.6,0.5 M196.8,311.6c-0.6,0.2-1.8,4.7-1.8,4.7c0.1,0.2,0.4,0.6,0.7,0.8
			c0.5-0.4,0.9-0.8,1.3-1.2l0.7-2.7l0.8,0.6c0.1,0,0.4,0,0.8-0.1c0.9-0.9,1.7-1.7,2.6-2.7c-1.5,0.4-3.9,1.1-4.4,1.3
			C197.3,312,196.8,311.6,196.8,311.6"/>
		<path id="path23705" class="st4" d="M198.9,307.7c-0.3,0-5,1.4-5.6,1.6c-0.4-0.4-1.2-0.8-1.2-0.8c-0.5,0.2-1.8,4.9-1.8,4.9
			c0.1,0.4,1.5,1.1,1.5,1.1l0.4,0.2l1.3-4.7l1.2,0.7c0.2,0,5.7-1.6,5.7-1.6C200.3,308.5,198.9,307.7,198.9,307.7 M193.3,304.2
			c-0.3,0-5.2,1.8-5.5,1.9c-0.5-0.4-1.3-0.7-1.3-0.7c-0.5,0.2-1.3,5-1.3,5c0.2,0.4,1.6,1.1,1.6,1.1l0.4,0.2l0.8-4.8l1.3,0.6
			c0.3,0,5.6-1.9,5.6-1.9C194.9,305,193.3,304.2,193.3,304.2 M188.4,302L188.4,302L188.4,302c-0.4-0.5-1.5-1-1.5-1
			c-0.3,0-5.1,2.1-5.4,2.2c-0.5-0.4-1.5-0.7-1.5-0.7c-0.5,0.2-0.9,5.1-0.9,5.1c0.2,0.3,1.8,1,1.8,1l0.4,0.2l0.4-4.8l1.3,0.5
			c0.3,0,5.4-2.2,5.4-2.2C188.6,302.3,188.5,302.2,188.4,302 M182,299.4c0-0.1-0.1-0.2-0.2-0.3h0h0c-0.5-0.5-1.8-0.8-1.8-0.8
			c-0.2,0-4.7,2.6-4.9,2.7c-0.6-0.2-1.7-0.5-1.7-0.5c-0.4,0.4,0.2,5.2,0.2,5.2c0.2,0.3,2,0.7,2,0.7l0.5,0.1l-0.6-4.8l1.6,0.4
			C177.4,302.1,182,299.4,182,299.4 M174,296.8L174,296.8c-0.1,0-0.2-0.1-0.3-0.1c0,0.3-0.1,0.5-0.1,0.8c0.4-0.2,0.6-0.4,0.6-0.4
			C174.1,297,174,297,174,296.8 M125.6,302.9c0.2-0.2,0.8-4.4,0.8-4.4c-0.4-0.3-2.1,0.4-2.1,0.4c-0.2,0.2-0.8,3.6-0.8,4.2
			c-0.6,0.2-1.4,0.5-1.4,0.5c0,0.1,0.2,0.4,0.2,0.4c1,1,4.4,3.3,4.4,3.3c0.3,0,1.9-0.6,1.9-0.6l0.6-0.2l-4.7-3.1 M120.1,305.1
			c0.2-0.3,0-4.3,0-4.3c-0.5-0.3-2,0.5-2,0.5c-0.2,0.2-0.1,3.5-0.1,4.2c-0.5,0.2-1.3,0.5-1.3,0.5c0,0.1,0.3,0.4,0.3,0.4
			c1,1,4.6,3.1,4.6,3.1c0.3,0,1.8-0.7,1.8-0.7l0.5-0.3l-4.9-2.8 M114.9,307.7c0.2-0.3-0.3-4.3-0.3-4.3c-0.5-0.2-1.9,0.6-1.9,0.6
			c-0.2,0.2,0.2,3.5,0.3,4.1c-0.5,0.3-1.2,0.7-1.2,0.7c0,0,0.1,0.1,0.2,0.2h0l0.1,0c1,0.8,4.8,2.8,4.8,2.8c0.3,0,1.7-0.8,1.7-0.8
			l0.5-0.3l-5-2.5 M110,310.7c0.1-0.4-1.4-4.2-1.4-4.2c-0.5-0.1-1.7,0.9-1.7,0.9c-0.1,0.3,1,3.3,1.3,4c-0.4,0.3-1,0.8-1,0.8
			c0.1,0.5,5.3,2.5,5.3,2.5c0.3-0.1,1.4-1,1.4-1l0.4-0.3l-5.1-2 M104.4,310.1c-0.5-0.1-1.7,0.8-1.7,0.8c0,0.1,0.2,1,0.5,1.8
			c0.7,0.7,1.3,1.3,2,2l0.5-0.5C105.9,313.9,104.4,310.1,104.4,310.1 M110.1,317l-4.1-1.6c1,0.9,2,1.7,3,2.5
			c0.4-0.3,0.7-0.6,0.7-0.6 M130.7,300.5c-0.6,0.1-1.6,0.4-1.6,0.4c0,0.1,0,0.2,0.1,0.3l0,0l0.1,0c0.3,0.5,1.1,1.2,1.9,1.9
			C131,302.3,130.8,301.4,130.7,300.5"/>
	</g>
	<path id="path23707" class="st1" d="M152.2,117.9l-20.1,126.3L7.3,265l124.8,20.5l19.7,125.9l20.8-125.2L300,264.6l-127.4-20.8"/>
	<path id="path23709" class="st2" d="M152.2,117.9l-0.4,147.1l-19.7-20.8L7.3,265l144.5,0l-19.7,20.5l19.7,125.9V264.9l20.8,21.2
		L300,264.6l-148.2,0.3l20.8-21.1"/>
</g>
</svg>
