<?xml version="1.0" encoding="utf-8"?>
<!-- Generator: Adobe Illustrator 21.1.0, SVG Export Plug-In . SVG Version: 6.00 Build 0)  -->
<!DOCTYPE svg PUBLIC "-//W3C//DTD SVG 1.1//EN" "http://www.w3.org/Graphics/SVG/1.1/DTD/svg11.dtd">
<svg version="1.1" id="Layer_1" xmlns="http://www.w3.org/2000/svg" xmlns:xlink="http://www.w3.org/1999/xlink" x="0px" y="0px"
	 width="300px" height="365.3px" viewBox="0 0 300 365.3" style="enable-background:new 0 0 300 365.3;" xml:space="preserve">
<style type="text/css">
	.st0{fill:#183561;}
	.st1{fill:#FFFFFF;}
</style>
<g>
	<path class="st0" d="M267.4,296.6l-3.3,12.7c-0.3,0.8-2.4,2.9-10.5,7.6c-7.8,4.6-19.3,5.2-19.4,5.2c0,0-124.8,0-129.5,0v-23
		c25.4,5.6,51.7,8.1,80.2,7.9c62.6-0.3,96.2-38.6,96.2-74.4v-0.2c0-32.6-24-68.5-68.5-72v-7.6h35.7v-41.3H135.5V153h36.2v5.7
		c-25.7,0-57.8-3.9-67-4.9V91.1c29.6-3.4,92.5,6.9,122.9,18.1l5.9,2.2l21.3-44.6h-11l1.2,0.3l-1.4-0.4c-5.1-0.2-10.5-0.8-15.2-2
		l-5.1-1.2c-25.9-6.2-79.1-18.5-118.7-14.6v-6.4h16.7V0H45v42.3h17.1v12.9C30.9,61.7,0,85.4,0,124.6s30.8,62.3,62.1,67.8v48.4
		c-2.7-1.5-5.9-3.2-5.9-3.2l-1.9-1.2l-15.6-10.1l-25.9,37l4.2,4.1c1.4,1.4,1.5,1.4,8.3,3.4c0,0,5.7,1.9,6.1,1.9
		c1,0.5,13.2,6.4,30.6,14V322H32.5v43.3h202.9c3.6-0.2,21-1,31.6-6.8c19.6-10.5,28.6-20.5,28.7-20.6l4.2-4.4L267.4,296.6
		L267.4,296.6z M62.1,145.9c-10.8-2.7-17.2-11.3-17.2-24.4c0-11.5,7.9-20.5,17.2-24.7V145.9z M103.3,195.5c13.7,1.5,45,4.7,69.5,4.9
		v44.8h38.4v-42.6c5.9,1,11.3,3.7,15.7,7.9c5.7,5.6,9,13.4,9,21.8c0,10.3-5.7,18.8-16.4,24.7c-11,6.1-27.1,9.1-46.7,9.1
		c-30.4,0-59.2-7.9-69.7-11.3C103.3,248.6,103.3,205.5,103.3,195.5z"/>
	<path class="st1" d="M205.6,167.1v-21h35.7v-27.6h-98.9v27.6h36v19.6c-32.5,0.8-81-5.7-81-5.7V84.9c27.1-5.6,96.9,5.1,132.4,17.8
		l13.9-29.1c0,0-7.8-0.2-16.9-2.2c-24.2-5.6-88.3-21.6-129.4-14.9V35.3h16.9V6.9H51.9v28.4H69v25.4C38.9,64.9,6.9,86.9,6.9,124.6
		c0,38.4,31.8,58.7,62.1,62.1V252c-5.6-1.7-11.3-5.4-18.3-9.5c-4.1-2.5-10.3-6.8-10.3-6.6l-18.6,26.7c0.2,0.2,8.3,2.5,12.2,3.9
		c9.8,4.7,21.6,10.8,35,15.9v47H39.4v29.3h196c0,0,18.3-0.5,28.4-5.9c18.1-9.6,26.7-19.1,26.7-19.1l-19.8-22.3
		c-1.2,4.4-7.9,8.6-14,12c-9.3,5.4-22.5,6.1-22.5,6.1H97.6v-38.2c24.9,6.1,52.8,9.6,87.3,9.3c55.8-0.3,89.3-32.6,89.3-67.6
		C274.1,201.6,251.5,167.1,205.6,167.1 M69,87.8v66.3c-19.6-0.5-31.1-13.7-31.1-32.3C38,103.3,53.9,89.8,69,87.8z M178.6,194.8v44.8
		h27.1v-43c21-0.2,36,16.6,36,36c0,20.5-18.6,39.6-68.7,39.6c-39.1,0-75.4-12.9-75.4-12.9v-70.3C97.6,189.1,147.1,195,178.6,194.8
		L178.6,194.8z"/>
</g>
</svg>
