<?xml version="1.0" encoding="utf-8"?>
<!-- Generator: Adobe Illustrator 21.1.0, SVG Export Plug-In . SVG Version: 6.00 Build 0)  -->
<!DOCTYPE svg PUBLIC "-//W3C//DTD SVG 1.1//EN" "http://www.w3.org/Graphics/SVG/1.1/DTD/svg11.dtd">
<svg version="1.1" id="Layer_1" xmlns="http://www.w3.org/2000/svg" xmlns:xlink="http://www.w3.org/1999/xlink" x="0px" y="0px"
	 width="300px" height="277.7px" viewBox="0 0 300 277.7" style="enable-background:new 0 0 300 277.7;" xml:space="preserve">
<style type="text/css">
	.st0{fill:#4C9FC9;}
	.st1{fill:#FFFFFF;}
</style>
<title>TB</title>
<desc>Created with Sketch.</desc>
<g id="Clip-2">
</g>
<path class="st0" d="M286.4,182.8c-9.9-9.7-23-13.6-32.7-15.3c13.6-6.7,33.7-21.2,33.7-48.6c0-32.3-21.8-47.3-68.5-47.3h-2.6
	c43.1,0.1,65,13,65,44.3c0,39.2-43.5,50.4-43.5,50.4l0,0c0,0,56.1-1.3,56.1,48.7c0,38.1-24.4,56.6-66.2,56.6H132h-4.7v-8.7l0,0v2.6
	v12.2h103.4c44.7,0,69.3-21.2,69.3-59.6C300,203.5,295.4,191.6,286.4,182.8L286.4,182.8z"/>
<path class="st0" d="M159.1,86c0,0-29.9-4.9-31.8-5.2v-9.2l0,0v14.8c0,0,27.4,4.5,31.8,5.2V86z"/>
<path class="st0" d="M147.7,188.6c0,0-26.2-4.8-30.5-5.5V22.8h42.4c13.9,5.7,20,30.6,21.5,38.2l0.5,2.6l13-0.7L187.2,0h-5.5
	l6.7,56.9h-0.7l-1.3,0.1l-5.1,0.3c-1.1-5.1-7.2-34-23.6-40.5l-0.2-0.1l0,0h-46.2v165.8c0,0,28.6,5.2,30.5,5.6v9.1H46.5v6.1h101.1
	L147.7,188.6L147.7,188.6z"/>
<path class="st0" d="M205.9,167.4V179l2.8,0.2c5.2,0.4,50,5,50.9,39.3c0-0.7,0-1.4,0-2c0-38.4-49.5-43.1-53.8-43.4L205.9,167.4
	L205.9,167.4z"/>
<path class="st0" d="M193.3,82.5v177.4h0.1c1.4,0,9.1,0,18.7,0c-4,0-10,0-12.7,0V88.4c2.7-0.1,7.8-0.2,7.8-0.2
	c0.3,0,17.7-0.8,29.3,10.2c6.9,6.5,10.4,15.9,10.6,28c0-0.6,0-1.3,0-2c0-44.8-43-42.3-43-42.3c-2.3,0-7.2,0-9.8,0.3L193.3,82.5z"/>
<path class="st0" d="M76.8,16.7H31l-0.2,0.1C14.5,23.3,9,45.7,7.9,51v0.1l-7.1-0.4l-0.7,6L13,57.4l0.5-2.6c0.9-4.3,6-25.9,20.9-32
	h42.3v-6.1H76.8z"/>
<path id="Fill-4" class="st1" d="M247.1,124.4c0,0.7,0,1.3,0,2c-1.4,36.6-41.2,40.7-41.2,40.7v0.3v5.7c4.3,0.3,53.8,5,53.8,43.4
	c0,0.7,0,1.4,0,2c-0.8,20.8-14.3,41.4-46.6,41.4h-1c-9.6,0-17.3,0-18.7,0h-0.1V82.5l1.1-0.1c2.6-0.3,7.5-0.3,9.8-0.3
	C204.1,82.1,247.1,79.6,247.1,124.4L247.1,124.4z M127.3,271.6h4.7h95.7c41.8,0,66.2-18.5,66.2-56.6c0-50-56.1-48.7-56.1-48.7l0,0
	c0,0,43.5-11.3,43.5-50.4c0-31.3-21.9-44.2-65-44.3c-0.2,0-0.3,0-0.5,0H132h-4.7l0,0v4.6v4.5c1.9,0.3,31.8,5.2,31.8,5.2v170.9l0,0
	c-0.8,0.1-29.9,5.2-31.8,5.5v0.5v4L127.3,271.6L127.3,271.6z"/>
<g id="Clip-7">
</g>
<path id="Fill-6" class="st1" d="M46.5,188.1v9.1h6.1h88.9h0.3v-9.1c-1.9-0.3-30.5-5.6-30.5-5.6V16.7l0,0h46.2l0,0l0.2,0.1
	c16.4,6.5,22.5,35.4,23.6,40.5l5.1-0.3l1.3-0.1h0.7L181.7,0l0,0L6.7,0.1l-6,50.7l7.1,0.4v-0.1c1.1-5.4,6.7-27.8,23-34.2l0.2-0.2
	h45.8l0,0v6.1v159.7C76.8,182.5,48.7,187.7,46.5,188.1"/>
</svg>
