<?xml version="1.0" encoding="utf-8"?>
<!-- Generator: Adobe Illustrator 21.1.0, SVG Export Plug-In . SVG Version: 6.00 Build 0)  -->
<!DOCTYPE svg PUBLIC "-//W3C//DTD SVG 1.1//EN" "http://www.w3.org/Graphics/SVG/1.1/DTD/svg11.dtd">
<svg version="1.1" id="Layer_1" xmlns="http://www.w3.org/2000/svg" xmlns:xlink="http://www.w3.org/1999/xlink" x="0px" y="0px"
	 width="300px" height="299.5px" viewBox="0 0 300 299.5" style="enable-background:new 0 0 300 299.5;" xml:space="preserve">
<style type="text/css">
	.st0{fill:#11225B;}
	.st1{fill:#FFFFFF;}
</style>
<g>
	<path class="st0" d="M273,8.3c-27.9-22.3-53.1,5.6-53.1,21.5c27.8,5.9,52.7,33.8,41.6,106.2c-9.1,59.2-44,96.1-66,96.8
		c18.2-25,30.5-53.1,37.1-80.6c20-82.2-12-108.7-37.3-109.9c-30.7-1.6-61.5,40.3-70.1,89.7c-6.8,39.1-5.9,79.2,17.9,108.5
		c-21.1,26.6-71.7,34.8-62.8-29.3c7.5-53.6,34.1-112.7,48.8-141.8l0.4-0.8c7.9-16.2,14.2-27.7,16.9-32.3l-6-0.1
		c-57.5,1-103.4,14.3-124.7,43.5c-20,27.3-20.6,56.1-4.1,73.1l2.4,2.5c4.9,4.8,11.2,7.3,17.5,7.3h0c5.7,0,11.5-2.1,15.8-6.5
		c4.4-4.3,6.5-10.2,6.5-15.9c0-6.3-2.5-12.6-7.4-17.5c-2.6-2.5-5.5-4.5-8.7-5.7l0.1-0.2l1.5-3.1c3.9-6.8,10.7-12.9,19.4-17.3
		c6.9-3.5,15-5.9,23.8-6.7l-1.4,2.9c-12.2,22.7-30,65.8-35.7,88.2C28.2,251.1,56.6,292.2,87.3,298c37,6.9,65.3-11,80.3-34.2
		c17.9,11.3,65.1,17.9,100.6-45.4C309,145.7,310.5,38.4,273,8.3 M168.5,216.4c-7-17.1-10.2-37.1-10.2-56.2c0-23,4.6-44.4,12.6-57
		c5.2-8.3,11.5-12.3,18.4-11.8c2.5,0.1,5.3,1,7.4,5.8c1.6,3.9,2.3,9.1,2.3,15.1C199,142.2,181.1,193.5,168.5,216.4"/>
	<path class="st1" d="M268.8,13.5c-8.9-7.1-18.1-8.8-26.6-4.6c-7.2,3.5-12.6,10.3-14.7,16.2c17.2,5.8,43.3,23.6,43.3,78.4
		c0,10-0.9,21.1-2.8,33.7c-8.5,55.9-39.6,93.8-64.5,101.1c-7.3,2.2-14,1.5-19.4-1.4c24.7-30.3,36.5-62.9,42.1-86.1
		c4.4-18,6.1-32.8,6.1-44.9c0-21.6-5.5-34.7-11.3-42.5c-8.9-11.8-20-14.1-26-14.4c-26.1-1.3-55.1,37.4-63.2,84.3
		c-2.3,13.6-3.6,26.1-3.6,37.5c0,29.4,7.8,52.3,23.3,69.3c-11.5,18.1-35,30.4-53.5,26.2c-8.2-1.9-25.4-9.5-25.4-41
		c0-4.5,0.3-9.4,1.1-14.8c6.8-48.3,28.9-101.9,44.6-134.2l0.4-0.7c6.8-14.2,12.6-25.5,16.5-32.3l-1,0C78.2,45.1,39.2,59,21.2,83.7
		c0,0-15.1,19.3-14.6,38.9c0.3,11.4,4.3,21.4,13,28.5l1.1,0.9c6.8,5.3,16.2,5.2,21.9-0.6c6.3-6.3,5.9-16.9-0.9-23.7
		c-3.5-3.5-8-5.3-12.4-5.4h-0.1c4-22.4,29.8-39.8,61-39.8l4.1,0.1l-0.6,1.1l-6.5,12.1c-11.6,21.5-29.4,63.9-35.1,86.6
		c-8.9,35.5-6.3,66.6,7.2,87.7c7.5,11.7,17.8,19.2,29,21.3c24.7,4.6,42.8-3.2,53.6-10.6c9-6.2,17.8-15.8,24-26
		c7.4,4.8,19.8,9.9,30.2,9.7c17.7-0.2,43.5-9,66.1-49.3c18.8-33.6,30.2-76.6,30.9-118C294.1,57.7,284.9,26.5,268.8,13.5 M189.7,84.7
		c39.5,2.5-5,125.6-22.2,145.2C139.3,179,149.9,82.2,189.7,84.7"/>
</g>
</svg>
