<?xml version="1.0" encoding="utf-8"?>
<!-- Generator: Adobe Illustrator 21.1.0, SVG Export Plug-In . SVG Version: 6.00 Build 0)  -->
<!DOCTYPE svg PUBLIC "-//W3C//DTD SVG 1.1//EN" "http://www.w3.org/Graphics/SVG/1.1/DTD/svg11.dtd">
<svg version="1.1"
	 id="svg5811" xmlns:cc="http://creativecommons.org/ns#" xmlns:dc="http://purl.org/dc/elements/1.1/" xmlns:rdf="http://www.w3.org/1999/02/22-rdf-syntax-ns#" xmlns:svg="http://www.w3.org/2000/svg"
	 xmlns="http://www.w3.org/2000/svg" xmlns:xlink="http://www.w3.org/1999/xlink" x="0px" y="0px" width="300px" height="448.1px"
	 viewBox="0 0 300 448.1" style="enable-background:new 0 0 300 448.1;" xml:space="preserve">
<style type="text/css">
	.st0{fill:#FFFFFF;}
	.st1{fill:#D3D5D7;}
	.st2{fill:#9CC2EA;}
	.st3{fill:#424A52;}
	.st4{fill:#960A2C;}
</style>
<g id="g5823">
	<path id="path5829" class="st0" d="M220.8,93.6L150,38L79.2,93.6l70.8-48L220.8,93.6z"/>
	<path id="path5831" class="st0" d="M111.9,357.9l38.1,45.7l38.1-45.7L150,393.4L111.9,357.9z"/>
	<path id="path5833" class="st0" d="M185.5,239L150,202.4L114.4,239l-6.5-5.7l-31.6,32.6c1.5,2.5,3,5,4.6,7.4l29.9-35.3l6,6.1
		l33.1-39.1l33.1,39.1l6-6.1l29.9,35.3c1.6-2.4,3.1-4.9,4.6-7.4L192,233.3L185.5,239L185.5,239z"/>
	<path id="path5835" class="st0" d="M150,260.7l9.3,6.7l-3.5,10.9h-11.4l-3.5-10.9L150,260.7L150,260.7z M150,285.7
		c12.3,0,22.3-9.5,23.3-21.5l-1.4-0.8l1.1-5.3c-1.4-7.7-6.6-14.1-13.7-17.2l-9.3,6.7l-9.3-6.7c-7,3-12.2,9.4-13.7,17.2l1.1,5.3
		l-1.4,0.8C127.7,276.2,137.7,285.7,150,285.7"/>
	<path id="path5837" class="st0" d="M84.2,133.8c0-1.2,1-2.5,2.2-2.8l4-1.2c1.2-0.3,2.2,0.4,2.2,1.6v30.6c0,1.2-1,2.5-2.2,2.8
		l-4,1.2c-1.2,0.4-2.2-0.3-2.2-1.5V133.8z M84.8,172l7-2.1c3.8-1.1,6.8-5.1,6.8-8.8v-32.6c0-3.8-3.1-5.9-6.8-4.8l-7,2.1
		c-3.8,1.1-6.8,5.1-6.8,8.8v32.6C78,170.9,81.1,173.1,84.8,172"/>
	<path id="path5839" class="st0" d="M131.2,157.3c-1.2,0.1-2.2-0.8-2.2-2v-30.6c0-1.2,1-2.3,2.2-2.4l4-0.3c1.2-0.1,2.2,0.8,2.2,2
		v30.6c0,1.2-1,2.3-2.2,2.4L131.2,157.3z M143.6,155.2v-32.6c0-3.8-3.1-6.6-6.8-6.3l-7,0.5c-3.8,0.3-6.8,3.6-6.8,7.4v32.6
		c0,3.8,3.1,6.6,6.8,6.3l7-0.5C140.5,162.2,143.6,158.9,143.6,155.2"/>
	<path id="path5841" class="st0" d="M240.1,173.6c0,1.2-1,1.8-2.2,1.3l-4-1.7c-1.2-0.5-2.2-1.9-2.2-3.1v-30.6c0-1.2,1-1.8,2.2-1.3
		l4,1.7c1.2,0.5,2.2,1.9,2.2,3.1V173.6L240.1,173.6z M239.4,134.9l-7-3c-3.8-1.6-6.8,0.2-6.8,3.9v32.6c0,3.8,3.1,8.2,6.8,9.8l7,3
		c3.8,1.6,6.8-0.2,6.8-3.9v-32.6C246.2,140.9,243.2,136.5,239.4,134.9"/>
	<path id="path5843" class="st0" d="M72.5,136.6c0-3.8-3.1-5.5-6.8-3.9l-5.1,2.2c-3.8,1.6-6.8,6-6.8,9.8v32.6c0,3.8,3.1,5.5,6.8,3.9
		l5.1-2.2c3.8-1.6,6.8-6,6.8-9.8v-3.1l0.9-1v-0.6l-8,3.5v0.6l0.9,0.2v2.1c0,1.2-1,2.6-2.2,3.1l-2.1,0.9c-1.2,0.5-2.2,0-2.2-1.2V143
		c0-1.2,1-2.6,2.2-3.1l2.1-0.9c1.2-0.5,2.2,0,2.2,1.2v4l-0.9,1v0.6l8-3.5v-0.6l-0.9-0.2V136.6L72.5,136.6z"/>
	<path id="path5845" class="st0" d="M118.3,157.9l-0.6,0.1l-0.6,1l-6.8,1.2v-39.4l0.9-0.8v-0.6l-8,1.5v0.6l0.9,0.4v43.8l-0.9,0.8
		v0.6l15.1-2.7L118.3,157.9L118.3,157.9z"/>
	<path id="path5847" class="st0" d="M212.6,165.6l-6.2-1.7v-35l6.2,1.7c1.2,0.3,2.2,1.6,2.2,2.8V164
		C214.8,165.2,213.8,166,212.6,165.6 M221,166.7v-32.6c0-3.8-3.1-7.7-6.8-8.7l-14.8-4v0.6l0.9,0.8v43.8l-0.9,0.3v0.6l14.8,4
		C217.9,172.7,221,170.4,221,166.7"/>
	<path id="path5849" class="st0" d="M161.6,136.5c0,1.2-1,2.1-2.2,2.1l-4.2-0.2v-16.7l4.2,0.2c1.2,0.1,2.2,1.1,2.2,2.3V136.5z
		 M169.7,162.4l-1.4-0.9l-5.1-17.4c2.7-0.8,4.6-3.3,4.6-6.3v-14.2c0-3.8-3.1-7-6.8-7.1l-12.9-0.5v0.6l0.9,0.6v43.8l-0.9,0.6v0.6
		l8,0.1v-0.6l-0.9-0.6v-16.9l1.9,0.1l5.4,18.3l7.2,0.5V162.4z"/>
	<path id="path5851" class="st0" d="M181.3,142v-15.9c0-1.2,1-2,2.2-1.8l2.1,0.3c1.2,0.2,2.2,1.3,2.2,2.5V143L181.3,142z
		 M186.8,164.6v0.6l8,1.5v-0.6l-0.9-0.7v-38.2c0-3.8-3.1-7.3-6.8-7.9l-5.1-0.8c-3.8-0.6-6.8,2-6.8,5.8v38.2l-0.9,0.4v0.6l8,1v-0.6
		l-0.9-0.7v-15.5l6.4,1v15.5L186.8,164.6L186.8,164.6z"/>
	<path id="path5853" class="st0" d="M163.2,178v-0.3h-5.5v0.3c0.4,0,0.7,0.2,0.7,0.5v12.4c0,0.3-0.3,0.5-0.7,0.5v0.3h5.5v-0.3
		c-0.4,0-0.7-0.2-0.7-0.5v-12.4C162.4,178.2,162.8,178,163.2,178"/>
	<path id="path5855" class="st0" d="M175.2,180.8h3.4c2.1,0,3.9,1,3.9,3.9c0,2.8-1.7,3.9-3.9,3.9h-3.4V180.8z M170.4,191.4v0.3h9
		c3.9,0,7-2.3,7-7c0-4.6-3.1-7-7-7h-9v0.3c0.4,0,0.7,0.2,0.7,0.5v12.4C171.2,191.1,170.8,191.4,170.4,191.4"/>
	<path id="path5857" class="st0" d="M141.8,180.8h4.4c0.8,0,1.5,0.7,1.5,1.5c0,0.8-0.7,1.5-1.5,1.5h-4.4V180.8z M147.1,186.9
		c2.5,0,4.6-2.1,4.6-4.6c0-2.5-2.1-4.6-4.6-4.6h-10v0.3c0.4,0,0.7,0.2,0.7,0.5v12.4c0,0.3-0.3,0.5-0.7,0.5v0.3h5.5v-0.3
		c-0.4,0-0.7-0.2-0.7-0.5v-4H147.1z"/>
	<path id="path5859" class="st0" d="M103.3,183.7h-5.1v-2.9h5.1c0.8,0,1.5,0.7,1.5,1.5C104.7,183.1,104.1,183.7,103.3,183.7
		 M108.7,182.3c0-2.5-2.1-4.6-4.6-4.6H93.4v0.3c0.4,0,0.7,0.2,0.7,0.5v12.4c0,0.3-0.3,0.5-0.7,0.5v0.3h5.5v-0.3
		c-0.4,0-0.7-0.2-0.7-0.5v-4h2.7l2.8,4c0.2,0.3,0,0.5-0.4,0.5v0.3h5.5v-0.3c-0.4,0-0.9-0.2-1.1-0.5l-2.9-4
		C107,186.5,108.7,184.6,108.7,182.3"/>
	<path id="path5861" class="st0" d="M120.1,186.5l2.6-6.7l2.6,6.7H120.1z M126.3,191.4v0.3h4.8v-0.4c-0.3-0.1-0.6-0.2-0.6-0.4
		l-4.7-12.4c-0.1-0.3,0.1-0.5,0.6-0.5v-0.3h-7.4v0.3c0.4,0,0.7,0.2,0.6,0.5l-4.7,12.4c-0.1,0.2-0.3,0.4-0.6,0.4v0.4h4.8v-0.3
		c-0.4,0-0.7-0.2-0.6-0.5l0.9-2.3h6.7l0.9,2.3C127,191.1,126.7,191.4,126.3,191.4"/>
	<path id="path5863" class="st0" d="M193.2,186.2l-2,4.7l0.3,0.1c0,0,0.2-0.3,0.5-0.3c0.8,0,2,1.1,7.2,1.1c3.5,0,7.4-0.9,7.4-4.7
		c0-5.9-10.7-3.3-10.7-5.4c0-1,1.7-1.4,2.8-1.4c3.8,0,5.9,0.9,5.6,1.7l0.3,0.2l1.8-3.7l-0.3-0.1c0,0-0.2,0.4-0.7,0.4
		c-0.5,0-3.5-1.1-6.7-1.1c-3.5,0-6.8,1.6-6.8,4.1c0,5.9,10.7,3,10.7,5.4c0,1.1-1.1,1.6-3.4,1.6c-5.1,0-6.1-1.6-5.8-2.3L193.2,186.2
		L193.2,186.2z"/>
	<path id="path5865" class="st1" d="M150,434.5C68.9,352.7,10.5,227.6,9,130.4c6-5.1,130.8-110.2,141-118.9
		c10.3,8.7,135,113.8,141,118.9C289.5,227.6,231.1,352.7,150,434.5 M150,0L0,126.5c0,104.8,65.5,239.9,150,321.7
		c84.5-81.8,150-216.9,150-321.7L150,0z"/>
	<path id="path5867" class="st1" d="M150,373.9C115.4,339.1,51.6,263,37.1,167.3c-1.4-9.2-2.3-18.6-2.8-28.1L150,63.4l115.7,75.8
		c-0.4,9.5-1.4,18.9-2.8,28.1C248.4,263,184.6,339.1,150,373.9 M150,56.9L27.3,137.2c5,115.2,82.3,207,122.7,247.4
		c40.3-40.4,117.6-132.1,122.7-247.4L150,56.9z"/>
	<path id="path5869" class="st1" d="M142.1,318c-1.4,0-2.5,0.8-2.5,1.7c0,0.9,1.1,1.7,2.5,1.7c1.4,0,2.5-0.8,2.5-1.7
		C144.6,318.8,143.5,318,142.1,318"/>
	<path id="path5871" class="st1" d="M141.4,325.8c3.8,0,4-3.2,4-3.2s-2,1.2-4.3,1.2c-2.5,0-4.5-1.7-4.5-4c0-2.7,2.8-4,5.5-4
		c4.3,0,6.4,2.3,6.4,6.1c0,4-3.5,6.2-7,6.2c-2.7,0-4-0.7-4.2-0.7c-0.3,0-0.5,0.3-0.5,0.3l-0.3-0.1l1.8-3.1l0.2,0.1
		C138.3,325,139,325.8,141.4,325.8 M110.9,237.9L81,273.3c21,32.9,45.6,57.1,69,74.1v-40.5c-19.5,0-35.3-15.8-35.3-35.3
		c0-19.5,15.8-35.3,35.3-35.3v-31.3l-33.1,39.1L110.9,237.9L110.9,237.9z"/>
	<path id="path5873" class="st2" d="M150,403.6l-38.1-45.7l38.1,35.5l38.1-35.5L150,403.6z M150,56.9l122.7,80.3
		c-5,115.2-82.3,207-122.7,247.4C109.7,344.2,32.4,252.4,27.3,137.2L150,56.9z M150,38l70.8,55.6l-70.8-48l-70.8,48L150,38z
		 M150,31.5L17.5,133.4c5.4,114.8,86.8,232.4,132.5,278c45.7-45.6,127.1-163.2,132.5-278L150,31.5L150,31.5z"/>
	<path id="path5875" class="st2" d="M157.9,325.6c1.4,0,2.5-0.8,2.5-1.7c0-0.9-1.1-1.7-2.5-1.7c-1.4,0-2.5,0.8-2.5,1.7
		C155.4,324.9,156.5,325.6,157.9,325.6"/>
	<path id="path5877" class="st2" d="M158.6,317.9c-3.8,0-4,3.2-4,3.2s2-1.2,4.3-1.2c2.5,0,4.5,1.7,4.5,4c0,2.7-2.8,4-5.5,4
		c-4.3,0-6.4-2.3-6.4-6.2c0-4,3.5-6.1,7.1-6.1c2.7,0,4,0.7,4.2,0.7c0.3,0,0.5-0.3,0.5-0.3l0.3,0.1l-1.8,3.1l-0.2-0.1
		C161.7,318.6,161,317.9,158.6,317.9 M185.3,271.6c0,19.5-15.8,35.3-35.3,35.3v40.5c23.4-17,48-41.3,69-74.1l-29.9-35.4l-6,6.1
		L150,204.9v31.3C169.5,236.3,185.3,252.1,185.3,271.6"/>
	<path id="path5879" class="st2" d="M126.7,264.1l-4.5,2.5c0-0.3,0-0.5,0-0.8c0-5,1.3-9.7,3.6-13.7l1.2,5.9
		c1.4-7.7,6.6-14.1,13.7-17.2l0.4-1.3c2.8-0.9,5.7-1.4,8.8-1.4c3.1,0,6.1,0.5,8.8,1.4l0.4,1.3c7,3,12.2,9.4,13.7,17.2l1.2-5.9
		c2.3,4.1,3.6,8.7,3.6,13.7c0,0.3,0,0.5,0,0.8l-4.5-2.5c-0.9,12-11,21.5-23.3,21.5C137.7,285.7,127.7,276.2,126.7,264.1 M180.7,268
		c0-16.9-13.7-30.7-30.7-30.7s-30.7,13.7-30.7,30.7c0,16.9,13.7,30.7,30.7,30.7S180.7,284.9,180.7,268"/>
	<path id="path5881" class="st3" d="M150,237.3c16.9,0,30.7,13.7,30.7,30.7c0,16.9-13.7,30.7-30.7,30.7c-16.9,0-30.7-13.7-30.7-30.7
		C119.3,251.1,133.1,237.3,150,237.3 M150,306.9c19.5,0,35.3-15.8,35.3-35.3c0-19.5-15.8-35.3-35.3-35.3s-35.3,15.8-35.3,35.3
		C114.7,291.1,130.5,306.9,150,306.9"/>
	<path id="path5883" class="st3" d="M223.6,265.9c-1.5,2.5-3,5-4.6,7.4c-21,32.9-45.6,57.1-69,74.1c-23.4-17-48-41.3-69-74.1
		c-1.6-2.4-3.1-4.9-4.6-7.4c-16.3-27.2-30.2-59.8-39.3-98.6C51.6,263,115.4,339.1,150,373.9c34.6-34.8,98.4-110.9,112.9-206.6
		C253.8,206.1,239.9,238.7,223.6,265.9"/>
	<path id="path5885" class="st4" d="M17.5,133.4L150,31.5l132.5,101.9c-5.4,114.8-86.8,232.4-132.5,278
		C104.3,365.8,22.9,248.2,17.5,133.4 M150,11.5C139.7,20.2,15,125.3,9,130.4c1.5,97.2,60,222.3,141,304.1
		c81.1-81.8,139.5-206.9,141-304.1C285,125.3,160.3,20.2,150,11.5"/>
	<path id="path5887" class="st4" d="M103.3,180.8h-5.1v2.9h5.1c0.8,0,1.5-0.6,1.5-1.5C104.7,181.5,104.1,180.8,103.3,180.8"/>
	<path id="path5889" class="st4" d="M237.9,139.9l-4-1.7c-1.2-0.5-2.2,0.1-2.2,1.3v30.6c0,1.2,1,2.6,2.2,3.1l4,1.7
		c1.2,0.5,2.2,0,2.2-1.3V143C240.1,141.8,239.1,140.4,237.9,139.9"/>
	<path id="path5891" class="st4" d="M90.3,129.8l-4,1.2c-1.2,0.4-2.2,1.6-2.2,2.8v30.6c0,1.2,1,1.9,2.2,1.5l4-1.2
		c1.2-0.4,2.2-1.6,2.2-2.8v-30.6C92.5,130.1,91.5,129.4,90.3,129.8"/>
	<path id="path5893" class="st4" d="M212.6,130.7l-6.2-1.7v35l6.2,1.7c1.2,0.3,2.2-0.4,2.2-1.6v-30.6
		C214.8,132.2,213.8,131,212.6,130.7"/>
	<path id="path5895" class="st4" d="M146.2,180.8h-4.4v2.9h4.4c0.8,0,1.5-0.6,1.5-1.5C147.7,181.5,147,180.8,146.2,180.8"/>
	<path id="path5897" class="st4" d="M246.2,177.2c0,3.8-3.1,5.5-6.8,3.9l-7-3c-3.8-1.6-6.8-6-6.8-9.8v-32.6c0-3.8,3.1-5.5,6.8-3.9
		l7,3c3.8,1.6,6.8,6,6.8,9.8V177.2z M221,166.7c0,3.8-3.1,6-6.8,5l-14.8-4v-0.6l0.9-0.3V123l-0.9-0.8v-0.6l14.8,4
		c3.8,1,6.8,4.9,6.8,8.7V166.7z M199.2,191.8c-5.1,0-6.3-1.1-7.2-1.1c-0.3,0-0.5,0.3-0.5,0.3l-0.3-0.1l2-4.7l0.3,0.1
		c-0.3,0.7,0.7,2.3,5.8,2.3c2.2,0,3.4-0.5,3.4-1.6c0-2.4-10.7,0.5-10.7-5.4c0-2.5,3.3-4.1,6.8-4.1c3.2,0,6.2,1.1,6.7,1.1
		c0.5,0,0.7-0.4,0.7-0.4l0.3,0.1l-1.8,3.7l-0.3-0.2c0.3-0.7-1.8-1.7-5.6-1.7c-1.1,0-2.8,0.4-2.8,1.4c0,2.1,10.7-0.5,10.7,5.4
		C206.6,190.9,202.8,191.8,199.2,191.8 M181.3,147.6v15.5l0.9,0.7v0.6l-8-1v-0.6l0.9-0.4v-38.2c0-3.8,3.1-6.4,6.8-5.8l5.1,0.8
		c3.8,0.6,6.8,4.2,6.8,7.9v38.2l0.9,0.7v0.6l-8-1.5v-0.6l0.9-0.4v-15.5L181.3,147.6L181.3,147.6z M179.4,191.7h-9v-0.3
		c0.4,0,0.7-0.2,0.7-0.5v-12.4c0-0.3-0.3-0.5-0.7-0.5v-0.3h9c3.9,0,7,2.4,7,7S183.3,191.7,179.4,191.7 M169.7,163l-7.2-0.5
		l-5.4-18.3l-1.9-0.1v16.9l0.9,0.6v0.6l-8-0.1v-0.6l0.9-0.6v-43.8l-0.9-0.6v-0.6l12.9,0.5c3.8,0.1,6.8,3.3,6.8,7.1v14.2
		c0,3-1.9,5.5-4.6,6.3l5.1,17.4l1.4,0.9V163z M163.2,178c-0.4,0-0.7,0.2-0.7,0.5v12.4c0,0.3,0.3,0.5,0.7,0.5v0.3h-5.5v-0.3
		c0.4,0,0.7-0.2,0.7-0.5v-12.4c0-0.3-0.3-0.5-0.7-0.5v-0.3h5.5V178z M147.1,186.9h-5.3v4c0,0.3,0.3,0.5,0.7,0.5v0.3h-5.5v-0.3
		c0.4,0,0.7-0.2,0.7-0.5v-12.4c0-0.3-0.3-0.5-0.7-0.5v-0.3h10c2.5,0,4.6,2.1,4.6,4.6C151.7,184.8,149.6,186.9,147.1,186.9
		 M129.7,163.1c-3.8,0.3-6.8-2.6-6.8-6.3v-32.6c0-3.8,3.1-7.1,6.8-7.4l7-0.5c3.8-0.3,6.8,2.6,6.8,6.3v32.6c0,3.8-3.1,7.1-6.8,7.4
		L129.7,163.1z M131.2,191.7h-4.8v-0.3c0.4,0,0.7-0.2,0.6-0.5l-0.9-2.3h-6.7l-0.9,2.3c-0.1,0.3,0.2,0.5,0.6,0.5v0.3h-4.8v-0.4
		c0.3-0.1,0.6-0.2,0.6-0.4l4.7-12.4c0.1-0.3-0.2-0.5-0.6-0.5v-0.3h7.4v0.3c-0.4,0-0.7,0.2-0.6,0.5l4.7,12.4c0.1,0.2,0.3,0.4,0.6,0.4
		V191.7z M107.6,190.9c0.2,0.3,0.7,0.5,1.1,0.5v0.3h-5.5v-0.3c0.4,0,0.6-0.2,0.4-0.5l-2.8-4h-2.7v4c0,0.3,0.3,0.5,0.7,0.5v0.3h-5.5
		v-0.3c0.4,0,0.7-0.2,0.7-0.5v-12.4c0-0.3-0.3-0.5-0.7-0.5v-0.3h10.7c2.5,0,4.6,2.1,4.6,4.6c0,2.3-1.7,4.2-3.9,4.6L107.6,190.9z
		 M84.8,172c-3.8,1.1-6.8-1.1-6.8-4.8v-32.6c0-3.8,3.1-7.7,6.8-8.8l7-2.1c3.8-1.1,6.8,1.1,6.8,4.8v32.6c0,3.8-3.1,7.7-6.8,8.8
		L84.8,172z M103.2,166.5l0.9-0.8V122l-0.9-0.4v-0.6l8-1.5v0.6l-0.9,0.8v39.4l6.8-1.2l0.6-1l0.6-0.1v6.5l-15.1,2.7L103.2,166.5
		L103.2,166.5z M73.4,142.4l-8,3.5v-0.6l0.9-1v-4c0-1.2-1-1.8-2.2-1.2l-2.1,0.9c-1.2,0.5-2.2,1.9-2.2,3.1v30.6c0,1.2,1,1.8,2.2,1.2
		l2.1-0.9c1.2-0.5,2.2-1.9,2.2-3.1v-2.1l-0.9-0.2v-0.6l8-3.5v0.6l-0.9,1v3.1c0,3.8-3.1,8.2-6.8,9.8l-5.1,2.2
		c-3.8,1.6-6.8-0.1-6.8-3.9v-32.6c0-3.8,3.1-8.2,6.8-9.8l5.1-2.2c3.8-1.6,6.8,0.1,6.8,3.9v4.9l0.9,0.2V142.4L73.4,142.4z M150,63.4
		L34.3,139.2c0.4,9.5,1.4,18.9,2.8,28.1c9.1,38.8,23,71.4,39.3,98.6l31.6-32.6l6.5,5.7l35.6-36.6l35.5,36.6l6.5-5.7l31.6,32.6
		c16.3-27.2,30.2-59.8,39.3-98.6c1.4-9.2,2.3-18.6,2.8-28.1L150,63.4L150,63.4z"/>
	<path id="path5899" class="st4" d="M120.1,186.5h5.1l-2.6-6.7L120.1,186.5z"/>
	<path id="path5901" class="st4" d="M159.4,122l-4.2-0.2v16.7l4.2,0.2c1.2,0,2.2-0.9,2.2-2.1v-12.3C161.6,123,160.7,122,159.4,122"
		/>
	<path id="path5903" class="st4" d="M135.2,122l-4,0.3c-1.2,0.1-2.2,1.2-2.2,2.4v30.6c0,1.2,1,2.1,2.2,2l4-0.3
		c1.2-0.1,2.2-1.2,2.2-2.4V124C137.4,122.8,136.4,121.9,135.2,122"/>
	<path id="path5905" class="st4" d="M178.6,180.8h-3.4v7.7h3.4c2.1,0,3.9-1,3.9-3.9C182.4,181.9,180.7,180.8,178.6,180.8"/>
	<path id="path5907" class="st4" d="M187.7,127.2c0-1.2-1-2.3-2.2-2.5l-2.1-0.3c-1.2-0.2-2.2,0.6-2.2,1.8V142l6.4,1V127.2z"/>
	<path id="path5909" class="st4" d="M159.3,267.5l-9.3-6.7l-9.3,6.7l3.5,10.9h11.4L159.3,267.5z"/>
	<path id="path5911" class="st4" d="M159.3,240.9l-0.4-1.3c-2.8-0.9-5.7-1.4-8.8-1.4c-3.1,0-6.1,0.5-8.8,1.4l-0.4,1.3l9.3,6.7
		L159.3,240.9z"/>
	<path id="path5913" class="st4" d="M125.9,252.1c-2.3,4.1-3.6,8.7-3.6,13.7c0,0.3,0,0.5,0,0.8l4.5-2.5l1.4-0.8l-1.1-5.3
		L125.9,252.1L125.9,252.1z"/>
	<path id="path5915" class="st4" d="M172.9,258l-1.1,5.3l1.4,0.8l4.5,2.5c0-0.3,0-0.5,0-0.8c0-5-1.3-9.7-3.6-13.7L172.9,258z"/>
	<path id="path5917" class="st4" d="M142.1,321.4c-1.4,0-2.5-0.8-2.5-1.7c0-0.9,1.1-1.7,2.5-1.7c1.4,0,2.5,0.8,2.5,1.7
		C144.6,320.7,143.5,321.4,142.1,321.4 M142.1,315.7c-2.7,0-5.5,1.3-5.5,4c0,2.4,1.9,4,4.5,4c2.3,0,4.3-1.2,4.3-1.2s-0.2,3.2-4,3.2
		c-2.5,0-3.1-0.8-3-1.4l-0.2-0.1l-1.8,3.1l0.3,0.1c0,0,0.2-0.3,0.5-0.3c0.2,0,1.5,0.7,4.2,0.7c3.6,0,7.1-2.1,7.1-6.2
		C148.5,317.9,146.4,315.7,142.1,315.7"/>
	<path id="path5919" class="st4" d="M157.9,322.2c1.4,0,2.5,0.8,2.5,1.7c0,0.9-1.1,1.7-2.5,1.7c-1.4,0-2.5-0.8-2.5-1.7
		C155.4,323,156.5,322.2,157.9,322.2 M161.8,319.3l1.8-3.1l-0.3-0.1c0,0-0.2,0.3-0.5,0.3c-0.2,0-1.5-0.7-4.2-0.7
		c-3.6,0-7.1,2.1-7.1,6.1c0,3.9,2.1,6.2,6.4,6.2c2.7,0,5.5-1.3,5.5-4c0-2.4-1.9-4-4.5-4c-2.3,0-4.3,1.2-4.3,1.2s0.2-3.2,4-3.2
		c2.5,0,3.1,0.8,3,1.4L161.8,319.3L161.8,319.3z"/>
	<path id="path5921" class="st4" d="M180.7,424.8h3.2v9.8h1.2v-9.8h3.4v-1.2h-7.8L180.7,424.8L180.7,424.8z"/>
	<path id="path5923" class="st4" d="M194.8,432.5l-2.8-8.9h-1.9v10.9h1.2v-9.3l2.9,9.3h1.2l2.9-9.3v9.3h1.2v-10.9h-1.9L194.8,432.5
		L194.8,432.5z"/>
</g>
</svg>
