<?xml version="1.0" encoding="utf-8"?>
<!-- Generator: Adobe Illustrator 21.1.0, SVG Export Plug-In . SVG Version: 6.00 Build 0)  -->
<!DOCTYPE svg PUBLIC "-//W3C//DTD SVG 1.1//EN" "http://www.w3.org/Graphics/SVG/1.1/DTD/svg11.dtd">
<svg version="1.1"
	 id="svg4889" inkscape:version="0.48.1 " sodipodi:docname="New York Red Bulls logo.svg" xmlns:cc="http://creativecommons.org/ns#" xmlns:dc="http://purl.org/dc/elements/1.1/" xmlns:inkscape="http://www.inkscape.org/namespaces/inkscape" xmlns:rdf="http://www.w3.org/1999/02/22-rdf-syntax-ns#" xmlns:sodipodi="http://sodipodi.sourceforge.net/DTD/sodipodi-0.dtd" xmlns:svg="http://www.w3.org/2000/svg"
	 xmlns="http://www.w3.org/2000/svg" xmlns:xlink="http://www.w3.org/1999/xlink" x="0px" y="0px" width="371.6px" height="300px"
	 viewBox="0 0 371.6 300" style="enable-background:new 0 0 371.6 300;" xml:space="preserve">
<style type="text/css">
	.st0{fill:#FFFFFF;}
	.st1{fill:#23326A;}
	.st2{fill:#FABB23;}
	.st3{fill:#ED1E36;}
	.st4{fill:#C6CCD2;}
</style>
<sodipodi:namedview  bordercolor="#666666" borderopacity="1" fit-margin-bottom="0" fit-margin-left="0" fit-margin-right="0" fit-margin-top="0" gridtolerance="10" guidetolerance="10" id="namedview4981" inkscape:current-layer="svg4889" inkscape:cx="-194.02273" inkscape:cy="114.22212" inkscape:pageopacity="0" inkscape:pageshadow="2" inkscape:window-height="731" inkscape:window-maximized="1" inkscape:window-width="1280" inkscape:window-x="-4" inkscape:window-y="-4" inkscape:zoom="0.49027978" objecttolerance="10" pagecolor="#ffffff" showgrid="false">
	</sodipodi:namedview>
<g>
	<path id="path4907" inkscape:connector-curvature="0" class="st0" d="M371.5,185.6c-0.1-0.5-0.3-1.1-0.5-1.6l-0.2-0.4
		c-0.1-0.3-0.3-0.7-0.4-1.1c-0.1-0.2-0.1-0.3-0.1-0.5c0-0.1,0-0.2,0-0.3c0.2-2-0.3-3-1.1-4.4c-0.6-1.1-1.4-1.5-2-1.5
		c-0.1,0.4-0.5,0.7-1,0.7c-0.1,0-0.1,0-0.2,0c-0.6-0.1-0.9-0.6-0.9-1.2c0-0.1,0-0.3,0-0.4c0-0.5-0.1-1-0.4-1.5
		c-0.7-1.2-5.5-5.2-7.3-5.2c-1.5,0-3,0.8-4.1,2.2c-0.2,0.2-0.5,0.4-0.8,0.4c0,0-0.1,0-0.1,0c-0.3,0-0.7-0.2-0.8-0.5
		c-0.2-0.3-0.3-0.6-0.4-0.9c-0.3-0.9-0.5-1.7-0.7-2.6l-0.1-0.7c-0.5-2.2-1.3-4.5-4.2-5.3c-0.2-0.1-0.6-0.1-0.9-0.2
		c-0.3,0-0.7,0-1-0.1l-0.3,0c-0.6,0-1.2,0-1.8-0.1c-1.2-0.2-2-0.6-2-1.9c0-0.1,0-0.2,0.1-0.3l0.3-0.9c0.2-0.7,0.6-1.7,0.9-3
		c0.5-2.3,0.5-4.5,0.1-6.3c-0.1-0.3,0-0.7,0.3-0.9c0.2-0.2,0.5-0.3,0.8-0.3c0.1,0,0.1,0,0.2,0c1.2,0.2,2.2,0.2,2.5,0.2
		c6.3,0,16.3-4.1,16.3-15.2c0-6.4-5.2-12.4-9.5-16.4c-0.3-0.3-0.4-0.7-0.3-1c0.1-0.4,0.4-0.7,0.8-0.8c6.1-1.6,9.5-5.7,9.5-11.5v-0.4
		c0-0.9,0-1.9-0.2-3c-0.3-1.5-0.8-3-1.7-4.4c-0.1-0.1-0.3-0.3-0.6-0.3c-0.1,0-0.2,0-0.3,0c-0.2,0.1-0.5,0.2-0.7,0.3
		c-0.6,0.4-1.4,1.1-2.1,1.7c-0.7,0.6-1.7,1.1-2.9,1.5c-0.8,0.3-1.6,0.5-2.4,0.7c-0.4,0.1-0.9,0.2-1.4,0.4c-2.9,0.8-6.1,2-9.7,5.1
		c-1.6,1.4-2.8,3.8-2.9,6.1c-0.1,1.9,0.6,3.9,2.2,6c1.3,1.9,3.1,3.6,5,5.4l0.7,0.6c0.7,0.6,1.4,1.3,2,1.9c1,1,1.7,1.8,2.3,2.5
		c1.5,1.8,2.2,3.3,2.2,4.7c0,3-2.1,5-5.4,5c-3.6,0-6.3-1.4-10.1-3.9c-0.6-0.4-1.2-0.8-1.8-1.2c-1.3-0.9-2.6-1.7-4-2.6
		c-2.6-1.6-5.1-3-7.7-4.1c-0.7-0.3-1.4-0.6-2.2-0.9V0H53.6v123.3c-1.4,0.3-2.7,0.8-4,1.4c-1.8,0.8-3.6,1.9-5.9,3.5
		c-1,0.7-1.9,1.4-2.9,2.1c-0.8,0.6-1.7,1.2-2.5,1.8c-3.7,2.6-6.9,4.4-10.4,4.4c-3.4,0-5.9-2-6.2-5.1c-0.3-2.7,1.1-5.5,3.9-7.8
		l1.6-1.3c1.2-0.9,2.3-1.8,3.2-2.7c1.6-1.4,2.8-2.6,3.6-3.7c2.1-2.8,2.7-5.7,1.8-9.4c-0.8-3.3-3.4-5.5-7.8-6.9
		c-1.6-0.5-3.2-0.8-4.7-1L23,98.6c-0.5-0.1-0.9-0.1-1.2-0.2c-0.5-0.1-0.8-0.2-1-0.3c-2.4-1.1-7.6-4.5-8.6-5.2l-0.4-0.3l-0.3,0.4
		c-0.9,1.4-1.7,2.4-2.3,7.2c-0.6,5.2,3.7,11.6,11.1,12.7c0.4,0.1,0.7,0.4,0.9,0.8c0.1,0.4,0,0.8-0.4,1.1c-7.8,6.2-9.5,8.8-9.9,15.7
		c-0.3,4.3,1.2,8.5,4.1,11.5c3.1,3.3,7.7,5.1,13.2,5.1c1.5,0,3-0.1,4.6-0.4c0.1,0,0.1,0,0.2,0c0.2,0,0.5,0.1,0.6,0.2
		c0.2,0.2,0.4,0.4,0.4,0.7c0.4,4.8,1.2,8.7,2.3,10.5c0.3,0.4,0.2,1-0.2,1.3c-0.3,0.3-0.9,0.6-1.5,0.9c-1.7,0.7-4.2,1.1-6.7,1.1
		c-1.6,0-2.7,1.1-3.7,3.4c-0.3,0.8-0.6,1.6-0.8,2.3l-0.1,0.2c-0.1,0.4-0.2,0.8-0.4,1.1c-0.1,0.3-0.2,0.6-0.3,0.8
		c-0.3,0.6-0.8,1.1-1.4,1.7c-0.2,0.2-0.4,0.3-0.7,0.3c-0.1,0-0.1,0-0.2,0c-0.3-0.1-0.6-0.3-0.7-0.5c-0.8-1.4-2-2.3-3.6-2.6l0,0h-0.2
		c-2.4,0-6.6,2-8.1,5.8c-0.1,0.4-0.5,0.6-0.9,0.6l-0.2,0c-1.9,0.2-3.1,1.1-3.8,2.8c-0.3,0.7-0.5,1.5-0.6,2.2L2,180.2
		c-0.1,0.6-0.2,1.2-0.4,1.8c-0.1,0.5-0.3,0.9-0.5,1.3c-0.1,0.2-0.2,0.4-0.4,0.6c-0.1,0.1-0.2,0.3-0.3,0.4c-0.4,0.8-0.6,1.6-0.3,2.9
		c0.2,0.6,0.6,1.2,1.5,1.6c0.6,0.3,1.4,0.6,2.3,0.8c1.7,0.4,3.3,0.5,3.6,0.5c0.2,0,0.5-0.1,0.7-0.2c0.2-0.1,0.3-0.2,0.5-0.3
		c0.2-0.1,0.4-0.2,0.7-0.2c0.1,0,0.1,0,0.2,0l0.8,0.1c0.6,0.1,1.4,0.3,2.2,0.4l0.1,0c0.8,0.2,1.5,0.3,2.1,0.4
		c0.3,0.1,0.6,0.1,0.8,0.1c0.2,0,0.4,0.1,0.6,0.1h0c3.3-0.2,4.7-1.4,5.6-2.7c0.3-0.3,0.5-0.7,0.7-1.1l0.4-0.6l0.3-0.5
		c0.3-0.5,0.5-0.9,0.8-1.3c0.2-0.3,0.5-0.4,0.8-0.4c0.1,0,0.2,0,0.3,0c0.4,0.1,0.8,0.2,1.1,0.2c0.8,0.1,1.5,0.2,1.8,0.2
		c0.2,0,0.4,0,0.6,0c3.1,0,5.5-1.7,7.4-3.4l0.6-0.5c0.3-0.3,0.6-0.5,0.9-0.7c0.4-0.3,0.9-0.7,1.4-1.1c0.9-0.6,1.7-0.9,2.5-0.9l0.2,0
		c0.8,0,3.6,0.3,8.4,1c0.2,0,0.4,0,0.6,0c0.8,0,1.8-0.2,2.9-0.6V201c0,15.9,2,22,6.9,30.5l0.3,0.5l0.3,0.5
		C89.5,274.8,136.5,300,187,300c50.5,0,97.5-25.2,125.9-67.5l0.3-0.5l0.3-0.5c4.9-8.5,6.9-14.6,6.9-30.5v-21.8
		c0.4,0,0.7,0.1,1.1,0.1c0.8,0,1.6-0.1,2.4-0.3c0.9-0.2,1.8-0.3,2.7-0.3c0.5,0,0.9,0,1.4,0.1c1.2,0.1,2.2,0.4,3.1,0.6l0.2,0.1
		c1.4,0.3,2.7,0.9,4,1.7c1.1,0.6,2,1.3,2.8,2l0.2,0.2c1.7,1.3,3.5,2.7,6,2.7c0.1,0,0.2,0,0.3,0c0.2,0,0.4-0.1,0.4-0.1
		c0.1,0,0.3-0.1,0.5-0.2c0.3-0.1,0.7-0.3,1.2-0.4c0.4-0.2,0.8-0.3,1.3-0.4c0.1,0,0.1,0,0.2,0c0.3,0,0.7,0.2,0.9,0.5
		c0.1,0.2,0.3,0.4,0.4,0.6c0.3,0.4,0.5,0.8,0.8,1.3c1,1.2,2.7,2.9,6.8,3c0.4,0,0.7,0,1.1,0c2.1,0,3.5-0.2,4-0.3c0.1,0,0.1,0,0.2,0
		c0.2,0,0.4,0.1,0.6,0.2c0.4,0.3,0.9,0.4,1.4,0.4c1.1,0,2.7-0.3,4.1-0.8c0.8-0.3,1.4-0.6,1.9-1c0.6-0.5,1-1,1.1-1.5
		C371.7,186.7,371.6,186.2,371.5,185.6"/>
	<path id="path4909" inkscape:connector-curvature="0" class="st1" d="M310.3,173.6c-1.8-2.4-3-5.7-3.5-9.3c0-0.3-0.2-0.6-0.5-0.7
		c-0.2-0.1-0.4-0.2-0.6-0.2c-0.1,0-0.2,0-0.3,0c-0.4,0.1-0.8,0.2-1.2,0.3v2.9V201c0,13.7-1.6,16.9-4.8,22.5
		c-24.4,36.5-65.7,60.4-112.5,60.4c-46.8,0-88.1-24-112.5-60.4c-3.2-5.6-4.8-8.8-4.8-22.5v-31.5v-5.7c-0.1,0-0.2,0-0.3,0h-0.3h0
		c-0.4,0-0.8,0.2-0.9,0.6c-0.5,0.9-0.9,1.9-1.4,2.8l-0.8,1.6c-0.7,1.5-1.5,2.9-2,3.6c-0.5,0.6-1,1.1-1.6,1.4v4.7V201
		c0,14.6,1.8,19.1,5.7,26.1l0.1,0.2l0.1,0.2c26.7,39.8,71,63.6,118.5,63.6c47.5,0,91.8-23.8,118.5-63.6l0.1-0.2l0.1-0.2
		c4-7,5.7-11.5,5.7-26.1v-23.1v-3.1C311,174.5,310.6,174,310.3,173.6"/>
	<path id="path4911" inkscape:connector-curvature="0" class="st1" d="M68.2,118.5l0.4-0.4c0.4-0.3,0.7-0.7,1.1-1V16.1h234.6v100.5
		c0.7,0.5,1.4,1,2.1,1.4c0.6,0.4,1.2,0.8,1.8,1.2c1.1,0.7,2.2,1.2,3.3,1.6V8.8h-249v113.1c1.1-0.3,2.2-0.7,3.2-1.4
		C66.4,120.1,67.2,119.4,68.2,118.5"/>
	<path id="path4913" inkscape:connector-curvature="0" class="st1" d="M60.8,122.3V7.1h252.5v114.2c0.4,0.1,0.9,0.2,1.4,0.3l0.5,0.1
		c0.7,0.1,1.4,0.3,2.1,0.5V3.1H56.8v119.6c0.6-0.1,1.2-0.1,1.8-0.2C59.3,122.5,60,122.4,60.8,122.3"/>
	<path id="path4915" inkscape:connector-curvature="0" class="st1" d="M313.4,176.1c-0.1,0-0.1-0.1-0.2-0.1v3v22
		c0,15-1.8,19.7-6,26.9l-0.2,0.3l-0.2,0.3c-27,40.3-71.8,64.4-119.9,64.4c-48.1,0-92.9-24.1-119.9-64.4l-0.2-0.3l-0.2-0.3
		c-4.2-7.2-6-12-6-26.9v-21.7v-4.5c-0.3,0.1-0.6,0.3-0.8,0.4l-0.1,0.1c-0.4,0.2-0.8,0.4-1.1,0.5c-0.7,0.4-1.3,0.8-2,1.2v4.7V201
		c0,15.9,2.1,21.2,6.5,28.9l0.2,0.4l0.2,0.4c27.7,41.4,73.8,66.1,123.3,66.1s95.5-24.7,123.3-66.1l0.2-0.4l0.2-0.4
		c4.4-7.7,6.5-13.1,6.5-28.9v-19.6v-3.2c-1.1-0.5-2.1-1.1-3-1.7C314,176.4,313.7,176.3,313.4,176.1"/>
	<path id="path4917" inkscape:connector-curvature="0" class="st2" d="M244.4,158.7c-0.3,1.9,2.1,4.9,2.8,6.2
		c0.3-0.7,2.4-5.4,2.7-5.9C248.9,158.9,246.2,158.9,244.4,158.7"/>
	<path id="path4919" inkscape:connector-curvature="0" class="st2" d="M127,163.5c1-1.7,2-2,2.8-2.9c0.4-1.2,1-1.9,1.8-2.9
		c-1.9,0.3-5.7,1-7.2,1.3C124.7,160.1,125,162.7,127,163.5"/>
	<path id="path4921" inkscape:connector-curvature="0" class="st2" d="M247.4,176.2c-0.1-0.4-0.2-0.8-0.3-1.2
		c-0.1-0.5-0.5-0.8-1-0.8h0c-0.5,0-0.9,0.3-1,0.7c-0.5,1.7-1.9,4.5-5.7,4.7c-0.1,0-0.2,0-0.3,0c-1.7,0-3.9-0.8-5.4-1.4l-0.7-0.3
		c-0.8-0.3-1.5-0.6-2.2-0.8c-1-0.3-1.7-0.5-2.3-0.6c-0.1,0-0.3,0-0.4,0c-0.2,0-0.4,0-0.7,0c-0.4,0-0.9,0.1-1.4,0.1
		c-0.9,0.1-2,0.2-3,0.2h-0.2c-2.2,0-3.9-0.7-5.3-1.9c-0.2-0.2-0.5-0.3-0.7-0.3c-0.3,0-0.5,0.1-0.8,0.3c-3.4,3.5-7.5,5.3-12.4,5.3
		h-0.4c-1,0-2.8-0.6-3.5-1.5c-0.3-0.4-0.4-0.8-0.3-1.3c0.1-0.3,0-0.6-0.2-0.9c-0.2-0.2-0.5-0.4-0.8-0.4c-2.7,0-4.4-1.4-4.8-2.6
		c-0.3-1,0.1-2,1.2-2.7l0.3-0.2c0.4-0.3,0.8-0.6,1.4-1.1c0.9-0.7,1.9-1.7,3.1-3c2.5-2.6,4.4-5.9,6-10.1c1.3-3.6,2.2-7.6,3.1-11.5
		l0.1-0.6c1.8-7.9,3.8-16.9,10.3-24c4.8-5.2,8.4-8.1,18.6-15.3c1.7-1.2,3.5-2.7,5.2-4.1c-7.6-10.4-18-18.6-30-23.5
		c5.3,6.1,8.5,14.1,8.5,22.8c0,19.3-15.6,34.9-34.9,34.9c-19.3,0-34.9-15.6-34.9-34.9c0-8.6,3.1-16.5,8.3-22.5
		c-11.2,4.7-20.8,12.1-28.2,21.5c1.8,1.3,3.6,2.6,5.7,4.4c1.4,1.2,3,2.5,4.8,4.1c1.3,1.1,2.7,2.3,4.4,3.7c1,0.9,2.2,2.3,3.7,4.2
		c0.5,0.6,1,1.2,1.4,1.8c0.7,0.9,1.3,1.7,1.9,2.4c4.5,5.5,7.3,9.2,8,13.8c1.2,8.9,2.1,13.9,5.5,22.8c0.1,0.2,0.2,0.4,0.4,0.6
		c0.2,0.2,0.4,0.5,0.7,0.8l0.8,0.8c0.3,0.3,0.5,0.6,0.8,0.8c0.6,0.7,1,1.6,1.4,2.3l0.4,0.7c0.3,0.6,0.6,1.2,1,1.8
		c0.8,1.4,2,3.1,4,4.2c2.1,1.2,2.5,1.4,3.2,2.1c0.3,0.3,0.5,0.7,0.5,1.1c0,0.6-0.4,1.4-1,1.9c-0.6,0.6-1.5,1-2.6,1.1
		c-0.3,0.1-0.5,0.2-0.7,0.5c-0.2,0.2-0.2,0.6-0.1,0.8c0.2,0.7,0,1.4-0.4,2c-0.7,0.9-1.9,1.4-3.4,1.5c-0.2,0-0.5,0-0.7,0
		c-6.6,0-11-3.1-13.1-4.9c-0.2-0.2-0.4-0.3-0.7-0.3c-0.2,0-0.4,0.1-0.6,0.2l-0.3,0.2c-0.8,0.5-1.9,1.4-3.4,2c-1,0.5-2.1,0.7-3.6,0.7
		c-0.5,0-1,0-1.5-0.1c-0.3,0-0.7,0-1-0.1c-0.5,0-1-0.1-1.5-0.1c-0.3,0-0.5,0-0.8,0c-0.6,0-1,0-1.5,0.1c-1.2,0.2-2.4,0.6-3.8,1.1
		l-0.9,0.3c-1.6,0.5-3.4,1.1-5,1.1c-0.1,0-0.3,0-0.4,0c-2.4,0-4.1-0.9-5-2.7c-0.2-0.4-0.4-0.8-0.5-1.2c-0.1-0.4-0.5-0.7-0.9-0.7
		c0,0-0.1,0-0.1,0c-0.4,0-0.7,0.2-0.9,0.6c0,0,0,0.1-0.1,0.1c11.9,21.4,34.7,35.9,61,35.9C212.8,212,235.5,197.6,247.4,176.2
		C247.5,176.3,247.4,176.2,247.4,176.2"/>
	<path id="path4923" inkscape:connector-curvature="0" class="st3" d="M110.2,39.6c0-8.3-6.6-15.1-14.6-15.1c-0.2,0-1.4,0-1.6,0h-17
		v51.1h10.3V33.3l6.2-0.1c3.8,0,6.7,3,6.7,6.7c0,3.7-3.1,6.7-6.9,6.7l-2.4,0.1v12.2l10.3,16.7h12.2L99,54.3
		C105.5,52.6,110.2,46.7,110.2,39.6"/>
	<path id="path4925" inkscape:connector-curvature="0" class="st3" d="M121.6,55.9c0-3.4,2.7-6.2,6.1-6.2c3.4,0,6.1,2.8,6.1,6.2
		C133.7,55.9,121.6,55.9,121.6,55.9z M127.6,42.6c-9.1,0-16.5,7.6-16.5,17.1s7.4,17.1,16.5,17.1c6.9,0,12.4-3.2,15.2-8.3l-8.1-3.8
		c-1,2.3-3.4,3.9-6.3,3.9c-3.8,0-6.8-2.8-6.8-6.4c0-0.2-0.1-0.1-0.1-0.4l22,0c0.1-0.7,0.1-1.4,0.1-2.1
		C143.8,48.6,136.7,42.6,127.6,42.6"/>
	<path id="path4927" inkscape:connector-curvature="0" class="st3" d="M156.9,60c0-4.4,3.3-8,7.4-8c4.1,0,7.4,3.6,7.4,8
		c0,4.4-3.3,8-7.4,8C160.2,68,156.9,64.4,156.9,60 M181.6,65.9l0-43.1h-10.1l0,24.7c-2.7-2.6-6.2-4.2-10.1-4.2
		c-8.3,0-15.1,7.3-15.1,16.3c0,9,6.7,16.3,15.1,16.3c0.1,0,0.1,0,0.2,0C166.9,70.6,173.9,67,181.6,65.9"/>
	<path id="path4929" inkscape:connector-curvature="0" class="st3" d="M287.4,75.7h9.7V23.3h-9.7V75.7z"/>
	<path id="path4931" inkscape:connector-curvature="0" class="st3" d="M254.6,62.7c0,3.1-2.6,5.6-5.7,5.6c-3.1,0-5.7-2.5-5.7-5.6
		V44.3h-9.9v20.4c0,6.9,7,12.5,15.6,12.5c8.6,0,15.6-5.6,15.6-12.5V44.3h-9.8L254.6,62.7L254.6,62.7z"/>
	<path id="path4933" inkscape:connector-curvature="0" class="st3" d="M213.3,66.7H204V33.4h6.5c2.8,0,5.2,2.4,5.2,5.4
		c0,3-2.3,5.4-5.2,5.4h-3.4v9.2h6.2c3.5,0,6.1,2.9,6.1,6.6C219.2,63.8,217,66.4,213.3,66.7 M221.4,47.7c2.7-2.6,4.3-6.1,4.3-10
		c0-3.5-1.3-6.7-3.5-9.2c-2.3-2.7-6.4-3.9-12-3.9h-16.6v41.7c6.7,1.4,12.6,4.7,17.3,9.3h4.1c8.2-0.1,14.8-6.7,14.8-14.7
		C229.9,55,228,50.9,221.4,47.7"/>
	<path id="path4935" inkscape:connector-curvature="0" class="st3" d="M270.9,75.7h9.7V23.3h-9.7V75.7z"/>
	<path id="path4937" inkscape:connector-curvature="0" class="st4" d="M160.2,119.3c10.2,7.4,24.5,8.5,35.7,2.5
		c12.2-6.3,19.6-19.3,18.4-33.3c-0.2-2-0.5-4-1.1-5.9c3.4,5.2,5.4,11.3,5.4,17.9c0,17.8-14.5,32.3-32.3,32.3
		C175.6,132.8,166.1,127.5,160.2,119.3"/>
	<path id="path4939" inkscape:connector-curvature="0" class="st1" d="M176.9,108.6c-7.5-1.8-12.7-3.6-12.7-3.6
		c-0.8-7.8-0.1-14.6-0.1-14.6c3.3-1.7,12.1-5.7,12.1-5.7c4.2,4.8,8.2,11.2,8.2,11.2C182.5,99.6,176.9,108.6,176.9,108.6 M164.5,76.8
		c-0.8,1.2-3,5-5,9.4c-1.9,2.4-3.5,4.8-4.2,5.8C156.9,86.1,160.1,80.9,164.5,76.8 M198.4,95.6c0,0,2.8-5.9,6.2-10.7
		c0,0,6.5,3.1,9.6,5.6c0,0,1.1,3.5,0.4,13.8c0,0-3.9,2.3-9.6,3.6C205,108,201.2,101.5,198.4,95.6 M183.7,119.8l14-0.4l2.7,7.6
		c-5.3,3.1-11.6,4.8-11.6,4.8c-6.7-1.5-10.5-4.3-10.5-4.3L183.7,119.8z M186.4,68.2c4.3,0,8.3,0.8,12,2.3c-0.1,0.6-0.6,2.3-1.9,4.5
		c-6.7-0.9-14.2-0.2-14.2-0.2l-6.2-4.9C179.4,68.8,182.9,68.2,186.4,68.2 M165.8,125.3c-5.4-4.5-9.2-10.6-10.8-17.7
		c1.7,1.8,5.1,5.2,5.1,5.2c2,4.2,7,11.4,7,11.4C166.7,124.6,166.1,125,165.8,125.3"/>
	<path id="path4941" inkscape:connector-curvature="0" class="st1" d="M83.3,221.2l3.1,3.8l10.5-8.7c3.2-2.7,9.4-8.3,12.3-11
		l0.1,0.1c-7.2,7.8-13.1,16-19.6,23.6l2.9,3.6l36.3-30.1l-3.1-3.8l-10.5,8.7c-3.2,2.6-9.4,8.3-12.3,11l-0.1-0.1
		c7.2-7.8,13.1-16,19.6-23.6l-2.9-3.6L83.3,221.2L83.3,221.2z"/>
	<path id="path4943" inkscape:connector-curvature="0" class="st1" d="M145.6,216.1l-7.8-5.9c-2.1-1.6-5.2-1.2-6.9,0.9l-22.7,29.7
		c-1.6,2.1-1.2,5.2,0.9,6.8l7.8,5.9l3-3.9l-7.8-5.9l9.9-12.9l5.8,4.5l3-3.9L125,227l9.9-12.9l7.8,5.9L145.6,216.1L145.6,216.1z"/>
	<path id="path4945" inkscape:connector-curvature="0" class="st1" d="M134.5,263.8l4.2,1.7c3.9-6.1,8.1-11.9,12.5-21.1l0.1,0
		c-3,9.7-3.8,16.9-5.1,24l4.2,1.7l18.7-43.3l-4.6-1.8c-3.1,7.8-6.4,15.7-9.5,23.6c-1.1,2.8-2.1,5.7-3.2,8.5l-0.1,0
		c2-7.6,2.8-12.9,4-18.2l-3.8-1.5c-2.7,4.7-5.8,9.1-9.4,16l-0.1-0.1c1.1-2.8,2.3-5.6,3.4-8.4c3.1-7.9,6-15.9,9-23.8l-4.6-1.8
		L134.5,263.8L134.5,263.8z"/>
	<path id="path4947" inkscape:connector-curvature="0" class="st1" d="M196.6,274.7l4.9-0.5l-2.3-20.9c1.4-0.8,2.5-1.8,3.3-3.1
		c0.7-1.3,1-2.8,0.8-4.3l-2.1-19l-4.9,0.5l2.3,21.1l-4.9,0.5l-2.3-21.1l-4.9,0.5l2.1,19c0.2,1.5,0.8,2.9,1.8,4.1
		c1,1.1,2.3,1.9,3.8,2.3L196.6,274.7L196.6,274.7z"/>
	<path id="path4949" inkscape:connector-curvature="0" class="st1" d="M232.4,260.7l-4.6,1.8l-13.6-34.8l4.6-1.8L232.4,260.7
		L232.4,260.7z M222.6,262.4c1.5,3.8,5.7,5.6,9.5,4.2c3.8-1.5,5.6-5.7,4.2-9.5l-12.1-31c-1.5-3.8-5.7-5.6-9.5-4.2
		c-3.8,1.5-5.6,5.7-4.2,9.5L222.6,262.4L222.6,262.4z"/>
	<path id="path4951" inkscape:connector-curvature="0" class="st1" d="M234.6,217.1l3.9-2.9l9.6,13.1l-3.9,2.9L234.6,217.1z
		 M255.7,254.1l3.9-2.9l-12.5-17l3.9-2.9l10.4,14.2c0.7,1,1.9,1.7,2.9,2.2l4-3c-1.2-0.6-2.3-1.1-3-2.1l-9.3-12.7
		c-1.7-2.3-3.1-2.6-4.3-2.2c0.6-1.2,0.9-2.5-0.5-4.3l-8.8-12c-1.6-2.2-4.6-2.6-6.8-1l-7.9,5.8L255.7,254.1L255.7,254.1z"/>
	<path id="path4953" inkscape:connector-curvature="0" class="st1" d="M254.9,190.8l-3.3,3.8c0,0,0.7,2.1,2.3,3.4
		c1.6,1.4,9,7.7,9,7.7s3.5,2.7,0.2,6.6l-15.4-13.2l-3.2,3.7l35.8,30.7l3.2-3.7l-16.5-14.2c0,0,3.2-3.7,6.3-1.1
		c2.6,2.3,10.6,9.1,10.6,9.1s1.7,1.6,3.6,1.6l3.3-3.8c0,0-2.1-0.2-4.3-2.1c-2.2-1.9-8.8-7.6-8.8-7.6s-5.9-5.6-11.1,0.5
		c0,0,4.6-6.1-2.1-11.8c-5.2-4.5-7.8-6.7-7.8-6.7S255.2,192.5,254.9,190.8"/>
	<path id="path4955" inkscape:connector-curvature="0" class="st3" d="M99.1,171c1.2,1.3,1.2,3.4,2.6,4.4c1.8,0.3,3.5-0.4,4.9-1.5
		c0.8-0.7-0.4-1.5-0.5-2.3c-0.8-1.2-0.2-3.5-2.2-3.5c-1.9,0.3-3.9,0.4-5.8,0.4l-0.5,0.4C97.1,169.9,98.8,169.9,99.1,171"/>
	<path id="path4957" inkscape:connector-curvature="0" class="st3" d="M6.8,177.4c-1,0.5-2,1.4-2.3,2.5c-0.3,1.9,0.1,3.8-1.4,5.2
		c-0.1,0.4-0.4,0.8-0.1,1.2c1.3,0.4,2.6,1,4.3,1.2c0.7-2.4,1.3-5,2.1-7.1v-0.6C8.8,178.8,8,177.7,6.8,177.4"/>
	<path id="path4959" inkscape:connector-curvature="0" class="st3" d="M157.7,151.2c0,0-0.2,0.5-0.2,0.5c0,0-0.2,0.5-0.2,0.5
		c-0.2,0.5-0.5,0.7-0.9,0.8c-0.2,0.1-0.5,0-0.7-0.1c-0.2-0.1-0.3-0.4-0.3-0.6c0,0,0-0.5,0-0.5l-0.2-1.9c-0.2-0.9-0.4-1.5-0.8-2.1
		c0,0-0.8-1-0.8-1c0,0-0.9-1.1-0.9-1.1c-0.7-0.7-1.4-1.1-2-1.1c-0.5,0.2-1,0.5-1.5,1.1l-0.7,0.8l-0.6,0.8c-0.2,0.4-0.7,0.2-0.7,0.2
		c0,0,0,0-0.1,0c0,0,0-0.1,0-0.1c-0.1-0.4-0.2-0.7-0.2-1.1c0-0.6,0.2-1.1,0.4-1.5l0.5-1l0.6-1.2l0.1-0.1c0.2-0.2,0.3-0.5,0.5-0.9
		l0.2-0.4l0.3-0.9c0.5-1.1,1.3-1.4,2.4-0.9c0.9,0.5,1.4,1.2,1.8,1.8l0.3,0.4l0.3,0.6l0.7,0.9c2,2.2,2.9,4.3,2.9,6.4
		C157.9,150.1,157.8,150.6,157.7,151.2 M150.2,167.8C150.2,167.8,150.2,167.8,150.2,167.8C150.2,167.8,150.2,167.8,150.2,167.8
		c-1.2,0.4-2.5,0.5-3.9,0.5l-0.1,0c0,0-0.3-0.1-0.3-0.1c0,0-0.3-0.2-0.3-0.2c-0.1-0.1-0.3-0.3-0.2-0.7c0.5-1.6,2.1-3.4,4.1-3.8
		c0,0,0.2,0,0.2,0h0.3l0.4,0.1c0.2,0.1,0.6,0.2,0.7,0.8c0,0.3,0.1,0.6,0.1,0.9C151.2,166.1,151,167.2,150.2,167.8 M127,127.6l-0.2,0
		c0,0,0,0,0,0.1c0,0,0,0,0,0c-0.2,0.2-0.5,0.3-0.8,0.1c0,0,0,0-0.1-0.1c0,0,0-0.1,0-0.1c-0.5-2.4-1-5-2-7.4c0,0-0.6-1-0.6-1
		l-0.2-0.3l-0.5-0.7c-0.4-0.6-0.8-1.4-0.2-2.4l0.1-0.1c0.4-0.4,1.2-0.5,1.8-0.3l0.1,0c1,0.7,1.7,1.9,2.2,2.8
		c0.6,1.4,0.9,3.2,0.9,5.1c0,1.4-0.2,2.9-0.6,4.2L127,127.6 M174.8,170.5c-3.7-2.1-5.1-6.1-7.4-9.3c-0.8-1.2-2.2-1.9-2.9-3
		c-2.6-7.1-4.9-14.2-5.5-22.4c-0.5-2-1-4.1-2.1-6c-3.3-5.4-7.5-10.2-11.7-15.2c-0.4-0.4-0.4-0.4-1.2-1.2l-14.4-12
		c-1.8-1.3-3.8-2.2-5.8-3.1c-3-1.2-7.2-0.9-10.2,0.4c-3.1,1.6-5.9,4-9.2,5.1c-4.7,2.1-10.1,2.6-14.2,6.2c-2.4,2.1-4.4,5.3-7.9,4.7
		c-4-0.2-7.5,1.3-10.5,3.7c-2.7,2.4-5.2,5.3-8.7,6c-3,1.3-6.8,0.7-9.9,1.8c-4.9,1.2-8.8,5.1-13,8.1c-4.2,2.4-8.2,5.1-13.5,4.9
		c-3.4-0.2-6.7-2.6-7.8-5.9c-1-3.8,0.1-7.7,3.1-10.2c3.1-3.7,8-5.9,10.5-10.2c1.3-2.3,1.1-5.9-0.6-8c-3.2-3.3-7.9-3.5-12-4.5
		c-2.7-0.7-4.8-2.8-7.1-4.1c-0.9,1.4-1.2,2.9-1.1,4.6c0.5,3.8,3.4,7.3,7.1,8.6c2.1,0.9,4.6,0.2,6.8,0.7c0.6,0.2,1.2,0.8,1.3,1.5
		c-0.1,0.6-0.2,1.2-0.7,1.6c-3.4,2.9-7,5.6-9.9,9.1c-3,3.3-3.4,9.1-1.8,13.2c1.8,4.7,6.7,7.9,11.4,8.5c3.5,0.5,6.6-0.4,9.7-1
		c0.4,0,0.6,0.4,0.8,0.7c0.3,2.8-0.1,5.3,0.5,7.9c0.5,2.4,1.3,4,2.2,6.3c0.1,0.8,0,1.6-0.5,2.3c-1.8,1.3-3.6,2.3-5.5,3.1l-4.7,0.3
		l-0.9,0.4c-1.8,2.1-1.8,4.2-2.9,6.5c-1.5,2.4-4.1,3.6-6.4,5c-0.7,1.2-1.5,2.4-2.6,3.3c-0.8,0.7-1.8,0.9-2.8,1
		c-1.6,1.9-2,4.5-2.4,7.1c2.7,0.2,5.5,1.7,8.1,0.2c2.3-1,2.7-3.8,4.4-5.4c1.3-1.5,3.3-0.4,4.9-0.1c2.4,0.1,4.1-1.6,6.1-2.4
		c1.4-0.9,2.6-2.5,4-3.4c2.8-1.3,6.7-0.6,9.6-0.1c2.3,0.6,4.7,0.2,6.8-0.7c1.9-1.2,3.7-2.6,5.8-3.1c1.9-1,2.8-3.1,3.6-4.9
		c0.6-1.6,2.2-2.9,2.1-4.8c-0.5-0.4-1-1.3-1.8-1.3c-0.9,1.3-1.6,2.6-2.6,3.8c-4.4,6-7.9,6.6-16.8,6.6c-6.6-0.2-12.6,1.8-17.2,6.9
		c-0.3,0.2-0.7,0.1-1-0.2c-0.2-0.7,0.4-1.9,0.7-2.5c4.1-5.8,10.4-7.1,17.1-7.2c3.7-0.3,7.1-0.9,10.2-2.4c3.5-1.8,5.8-4.5,7.3-7.9
		c0.8-3.8,1.1-8,2.1-11.6c0.1-0.4,1-0.6,1.3-0.5c0.4,0.1,1.1,0.4,1.1,0.8c-0.7,3.8-1.9,8.2-0.4,11.9c2.9,3.8,8.3,1.8,12.3,1.6
		c4.1-0.4,7.5,0,11.4,0.2c1.9-0.1,3.4,0.4,4.9-0.8c0.4-0.7,0.6-1.6,0.5-2.3c-0.1-1.1-1-1.8,0-2.7c0.3-0.2,1.2-0.1,1.5,0.2
		c0.5,1.5,0.8,3.2,1.8,4.5c1.9,2.5,4.8,4.4,7.5,5.8c2.6,1.8,4.7,4.3,4.9,7.4c0,1.6-1.5,2.7-2.7,3.4c-2.1,1-4.3,1.9-6.8,1.6
		c-3.2-1.6-4.1-5-6.2-7.5c-1.1-1.2-2.7-1.5-4.4-1.3c-1.8,0.2-3.5,0.2-5.1,0.8c-0.4,0.4-0.5,0.9-0.5,1.5c1.1,2,2.3,4,3.5,6
		c1.4,0.9,3.4-0.5,4.6,1c1,1.6,1.7,3.5,3.3,4.7c1.5,1.3,3.8,1.9,5.8,1.1c4.5-1.4,9-2.9,13.2-5.1h1.4c1.7-0.2,3.6-0.1,4.8-1.3
		c1.3-1.9,2.4-3.8,3.5-5.8c1-1.4,0.5-3.5,0.1-5.1c-2.1-2.6-3.2-5.4-4.3-8.3c-1-0.3-1.9-0.9-3.1-0.9c-0.5,0.2-1.3,0.1-1.6,0.7
		l4.8,9.5c0.3,0.7,0.7,1.8,0.5,2.7c-0.7,2-1.7,4-3.3,5.4c-0.3,0.2-0.7,0.4-0.9-0.1c0.5-2.1,1.5-4.3,1.4-6.7l-4.7-8.5
		c-0.6-1.2-1.5-2.2-1.5-3.5c0-0.6,0.5-1,1-1.3c2.1-0.7,4.6-0.5,6.1-2.2c2.1-3.2,2.5-6.4,3.1-10.2c0.1-0.2,0.6-0.7,1-0.7
		c0.4-0.1,0.8,0.4,1,0.6c0.6,4.2-0.2,8.5-2.7,11.7c-0.1,0.4-0.3,1,0.2,1.3c2.3,0.7,4.7,0,6.7-1c2.5,0.1,4.8-0.5,7.1-0.9
		c0.2,0.1,0.5,0.4,0.5,0.6c-1.5,1.7-2.4,3.6-2.8,5.8c-1.8,1.9-4.4,3.5-4.6,6.3c0.3,1.3,1.5,0.1,2.3,0.2c0.4,0.1,0.6,0.4,0.6,0.7
		l-1.8,2.7c-1,1.6,0.2,3.4,0.2,4.9c0.4,1.2,1.9,1.8,3.2,1.8c2.7-0.1,5.2-1.2,7.6-2c2.7-1.2,6-1.1,8.9-0.6c2.9-0.2,5-2.1,7.1-4
		c1.2,0,2.2,0.8,3,1.6c3.3,3.5,7.5,5,12.4,4.9l0.4-0.2c0.3-0.3,0.2-0.9-0.2-1.1l-2.9-1.5c-2-1.3-4.5-3-5.2-5.2
		c-0.6-2-1.7-4.2-2.9-6.1c-0.4-1-1.4-1.8-1.8-2.7c0.1-0.1,0.2-0.3,0.4-0.2c3.2,1.1,5.1,4.2,6.5,7c2.3,3.2,5.7,6,10,5.2l0.4-0.3
		c0.2-0.2,0.1-0.5,0-0.7L174.8,170.5L174.8,170.5z"/>
	<path id="path4961" inkscape:connector-curvature="0" class="st3" d="M13.2,177.3c1.9-1.1,3.1-3.2,4.1-4.9
		c-0.2-0.7-0.9-1.2-1.4-1.6c-0.4-0.3-0.9-0.1-1.3,0.1c-1.3,1.2-2.7,2.1-4.2,3c-0.6,0.4-0.4,1.3-0.5,2c0,0.6,0.7,1,1.1,1.4
		C11.6,177.4,12.5,177.5,13.2,177.3"/>
	<path id="path4963" inkscape:connector-curvature="0" class="st3" d="M271.6,169.2c-1.6,0.3-3.5-0.1-5.2,0.2
		c-0.7,1.1-1.4,2.4-1.2,3.9c0.2,1.5,1.9,1.6,3,2.1c1,0.1,2.6,0.5,3.1-0.6c0.6-1.6,1.2-3.3,1.4-5C272.6,169.2,272.1,169,271.6,169.2"
		/>
	<path id="path4965" inkscape:connector-curvature="0" class="st3" d="M256.2,113.2l-0.3,0.5l-0.3,0.5c0,0-1.9,1.8-1.9,1.8l-2.1,1.9
		c-1.5,1.5-2.6,2.8-3.4,4c-0.7,0.9-1.1,1.9-1.6,2.9c-0.1,0.3-0.5,0.3-0.7,0.2c0,0-0.1,0-0.1,0c0-0.1,0-0.1,0-0.1
		c-0.1-0.4-0.2-0.8-0.2-1.2c0-0.3,0-0.7,0.1-1.1c0,0,0.4-1.5,0.4-1.5l0.2-0.7c1.2-3.1,3.8-6.3,7.2-8.9c0.4-0.3,1.2-0.5,1.9-0.3
		c0.4,0.1,0.6,0.4,0.8,0.7c0.2,0.3,0.2,0.5,0.2,0.7C256.3,112.9,256.3,113,256.2,113.2l0.1,0.1L256.2,113.2 M231.4,147.8l-0.2,0.6
		c-0.1,0.2-0.3,0.4-0.5,0.6c-0.2,0.1-0.5,0.2-0.8,0c-0.3-0.1-0.6-0.3-0.8-0.6c0,0-0.3-0.4-0.3-0.4l-0.2-0.4
		c-0.3-0.5-0.5-0.8-1.2-0.8c-0.6,0-1,0.2-1.3,0.5l-0.4,0.3l-0.2,0.2c0,0-0.6,0.4-0.6,0.4c0,0-0.9,0.7-0.9,0.7l-0.4,0.3l-1.2,1.1
		c-0.9,0.9-1.4,1.8-1.5,2.6c0,0-0.2,0.6-0.2,0.6l0,0.3l-0.1,0.4c-0.1,0.4-0.2,0.9-0.7,1.2c-0.3,0.1-0.7,0-0.9-0.2
		c-0.2-0.2-0.3-0.4-0.3-0.6c-0.2-2.9,0.8-5.7,2.8-7.5c1-0.9,1.9-1.9,2.6-2.8l0.8-1l1.6-2l0.2-0.1c1.2-0.2,1.9,0.8,2.1,1.3
		c1,1.3,1.8,2.8,2.6,4.6c0,0.1,0.1,0.3,0.1,0.4C231.4,147.7,231.4,147.7,231.4,147.8 M230,168.9L230,168.9c-0.4,0.4-0.9,0.5-1.6,0.4
		l-1.2-0.1l-0.4-0.1l-0.1,0c-1.2-0.7-1.5-2-1.6-3.3c0-0.5,0.1-0.8,0.5-1c0,0,0,0,0.1-0.1h0.1c1.6,0,2.8,0.5,3.6,1.4l0,0.1l0.2,0.5
		l0.4,0.8l0.1-0.1c-0.1,0-0.1,0.1-0.1,0.1c0.1,0.3,0.2,0.5,0.2,0.8C230.1,168.5,230.1,168.7,230,168.9 M359.7,180.5
		c-3.1,0.2-4.6-3.2-6.5-5.1c-1.5-1.8-4.5-2.8-4.4-5.4c-0.5-1-0.7-2.7-1.2-4c-0.4-1.1-0.9-2.7-2.3-2.9c-2.6-0.4-5.8,0.3-7.4-2.1
		c-1.7-1.8,0.2-4,0.5-5.7c0.7-2.3,0.8-5.2,0.4-7.5c-0.1-1.3-1-2.4-0.7-3.8c0.6-1.2,2.1-0.3,3-0.2c3.4,1,7.4,0.5,10.5-0.9
		c4.3-2.1,7.7-6.4,7.5-11.3c-0.6-6.4-5.2-11.6-10.1-15.8c-0.9-0.8-2.1-1.6-2.4-2.8c-0.1-2.5,2.7-1.3,4.1-1.9
		c1.7-0.4,3.4-0.9,4.8-1.8c3.7-2.5,4.5-6.9,3.8-11.1c-0.1-0.4-0.1-0.9-0.7-0.9c-0.7,0.6-1.3,1.3-2.2,1.8c-2.4,1.4-5.5,1.2-8,2.4
		c-3.1,1.3-6.9,3.2-8.3,6.8c-0.4,1.8,0.1,3.6,0.9,5.1c3.8,6,11.7,9.9,13,17c0.5,2.9-1,5.1-3.2,6.7c-3.4,2.1-8.5,1.3-11.9-0.5
		c-6.6-3.3-12.3-8.8-19.4-11c-4.4-2-9.9-1.5-13.9-4.6c-3-1.9-5.7-4.5-9.1-5.4c-2.3-0.8-4.9-0.7-7.1-1.8c-2.2-1.9-4.5-3.8-7.1-5.1
		c-3.5-1.8-7.4-2.7-11.3-3.5c-2.3-0.5-3.2-3.1-5.1-4.4c-3.2-2.6-6.8-4.4-11.2-4c-1.8,0.1-3.2,1.3-4.6,2.6
		c-9.3,8.2-20,13.8-28.5,23.1c-5.7,5.9-7.2,13.4-9.4,20.6c-3,11-4.3,23-15.3,29.8c-0.2,0.3-0.2,0.9,0.2,1.1c2.9,0.7,5.8-0.4,7.7-2.4
		c1.9-3,3.9-5.8,6.5-8.6l0.6-0.3c0.3,0.1,0.7,0.2,0.5,0.7c-0.7,2.4-2.9,4.2-3.7,6.6c-1,2.9-3.8,5.2-6.2,7.2l-0.1,0.4
		c0,0.3,0.3,0.6,0.6,0.7c5.4,0.2,9.2-3.6,12.8-7.2c0.4-0.4,0.9-0.3,1.3-0.2c1.6,1.2,3,3,5.1,3.5c2.2-0.3,4.5-0.6,6.8-0.4
		c3.2,1,6.3,2.3,9.6,3.4c1.6-0.1,2.9-1.6,3.7-3c0.7-1.6-0.3-3.2-0.2-4.7c0.8-0.5,1.7,0.1,2.6-0.1c0.4-0.2,0.7-0.7,0.7-1.1
		c-0.6-2.8-3.1-4.9-3.9-7.5c-1.2-3.4-5.2-5.4-5.9-9c0.2-0.2,0.5-0.6,0.8-0.4c2.6,1.9,4.9,4.4,8.2,4.9c2.4,0.2,4.9,0.5,7.4,0.3
		c0.4-0.1,0.7-0.5,0.5-1c-1-2.2-2-4.4-2.6-6.8c-0.8-3-1.5-7.1-0.5-10.4c0.2-0.2,1-0.7,1.3-0.6c0.5,0.1,1.1,0.7,1.2,1.1
		c0.4,5.2-0.2,9.9,2.9,14c1.3,2.1,3.7,2.6,5.3,4.2c0.6,0.9,0.7,2.3,0.3,3.2l-3.7,5.5c-0.9,1.2-1.7,2.6-2,3.9c-0.3,1.5-0.1,3,0,4.4
		c-0.2,0.1-0.4-0.2-0.6-0.4c-1-2-2.1-4.6-1-6.9l4.7-7.2l0.2-0.5c-1-0.5-2.2-1.1-3.3-1.3c-0.5,0.2-0.9,0.8-1.3,1.3l-4.6,8.3
		c-0.3,1-0.6,1.7-0.4,2.7c0.2,1.2,0.5,2.4,1.1,3.5c0.4,1.7,0.7,2.9,1.5,4.4c1.2,1.3,2.7,0.1,4.2,0.5c1.5,0.4,2,2.1,3.5,2.6
		c3.3,1.1,6.8,1.7,10.1,3c1.7,0.5,4.1,1.2,5.7-0.2c2.1-1.2,2.7-3.4,3-5.5c0.7-0.9,2-0.5,3-0.8c1.8-1.2,2.4-3.4,3.8-5.1l0.2-0.9
		c-0.2-0.5-0.7-0.9-1.2-1h-6.2c-2.9,0.4-3.1,3.5-4.3,5.5c-0.7,1.2-2,1.7-3.4,1.6c-2.9-0.8-6.5-1.2-7.9-4.4c-0.2-0.8-0.2-1.8,0.4-2.3
		c1.5-1.8,3.4-3.8,5.2-5.2c2.7-0.6,5.3-2.6,6.7-4.9c0.7-1,0.6-2.6,1.8-3.3c0.4-0.1,1.2-0.1,1.4,0.3c0.5,1.8-0.4,3-1,4.6
		c6.6,0.7,11.8-1.2,18.2-1c2.7,0,5.2,0.3,7.9,0.1c2.7-0.1,5.6-1.2,6.5-4c1.2-3.6-0.5-7.7-1.1-11.1l0.7-0.6c0.4-0.2,1.1,0.1,1.4,0.3
		c1.2,3.2,1.9,7.1,2.4,10.7c0.5,3.1,1.8,5.1,3.5,7.7c3.1,4.6,8.6,6.4,14,5.3c6.6-0.5,12.2,3,16.3,8.1v0.3c-0.1,0.2-0.4,0.5-0.7,0.5
		c-3.5-2.7-6.9-5.5-11.4-6.1c-4.5-0.8-8.5,1.5-13.2-0.4c-5.6-1.9-8-5.3-10.4-10.9H310c-0.4,0.1-0.6,0.4-0.7,0.8l0.6,3.8
		c0.7,3,1.7,6.6,5,8c2.6,1.5,5,3.7,8.2,2.9c5.5-1.2,11.1,0.4,15.4,3.5c1.4,0.8,2.5,2.3,4,2.8c1.6,0.7,3.7,0.3,5-0.8
		c3.1-1,3.8,2.9,6,4.3c1.9,1.8,5.7,1.1,8.2,1.1l-0.1-0.3C361.3,184.7,360.6,182.7,359.7,180.5"/>
	<path id="path4967" inkscape:connector-curvature="0" class="st3" d="M367.9,183.7c-0.3-1.4,0.1-3.4-0.9-4.6
		c-0.8-0.6-1.5-1.5-2.6-1.3c-0.9,0.7-2.1,1.6-1.9,2.9c0.7,2.2,1.2,3.8,1.6,6c0.2,0.4,0,1.3,0.7,1.3l3.9-1.3
		C369.5,185.6,368.2,184.7,367.9,183.7"/>
	<path id="path4969" inkscape:connector-curvature="0" class="st3" d="M358.1,171c-1.2-1-2.5,0.5-3.1,1.4c0.4,1.5,1.6,2.7,2.6,4
		c0.5,0.7,1.3,1.2,2.1,1.3c0.8,0,1.5-0.4,2.1-0.9c0.4-0.6,0.9-1.2,0.7-2C361.4,173.2,359.5,172.3,358.1,171"/>
</g>
</svg>
