<?xml version="1.0" encoding="utf-8"?>
<!-- Generator: Adobe Illustrator 21.1.0, SVG Export Plug-In . SVG Version: 6.00 Build 0)  -->
<!DOCTYPE svg PUBLIC "-//W3C//DTD SVG 1.1//EN" "http://www.w3.org/Graphics/SVG/1.1/DTD/svg11.dtd">
<svg version="1.1" id="Layer_1" xmlns="http://www.w3.org/2000/svg" xmlns:xlink="http://www.w3.org/1999/xlink" x="0px" y="0px"
	 width="300px" height="300px" viewBox="0 0 300 300" style="enable-background:new 0 0 300 300;" xml:space="preserve">
<style type="text/css">
	.st0{fill:#B38708;}
	.st1{fill:#002D55;}
	.st2{fill:#FFFFFF;}
	.st3{fill:#5191CD;}
</style>
<g>
	<path class="st0" d="M150,0C67.3,0,0,67.3,0,150c0,82.7,67.3,150,150,150c82.7,0,150-67.3,150-150C300,67.3,232.7,0,150,0"/>
	<path class="st1" d="M150,5.8C70.5,5.8,5.8,70.5,5.8,150c0,79.5,64.7,144.2,144.2,144.2c79.5,0,144.2-64.7,144.2-144.2
		C294.2,70.5,229.5,5.8,150,5.8"/>
	<path class="st2" d="M150,252.8c-56.7,0-102.8-46.1-102.8-102.8C47.2,93.3,93.3,47.2,150,47.2c56.7,0,102.8,46.1,102.8,102.8
		C252.8,206.7,206.7,252.8,150,252.8 M150,51.3c-54.4,0-98.7,44.3-98.7,98.7c0,54.4,44.3,98.7,98.7,98.7c54.4,0,98.7-44.3,98.7-98.7
		C248.7,95.6,204.4,51.3,150,51.3z"/>
	<path class="st0" d="M150,51.3c-54.4,0-98.7,44.3-98.7,98.7c0,54.4,44.3,98.7,98.7,98.7c54.4,0,98.7-44.3,98.7-98.7
		C248.7,95.6,204.4,51.3,150,51.3"/>
	<path class="st3" d="M80.7,133.7c-0.5-5.1-0.8-10.4-0.8-15.7c0-11.6,1.3-22.9,3.7-33.7l0.2,0.1l-0.2-0.4l-2,2.8
		c-2.5,11.3-4.9,25.4-4.9,37.6c0,3.4,0.1,6.8,0.3,10.2C78.3,134.3,79.5,134,80.7,133.7z"/>
	<path class="st3" d="M183,87v-30c-10.3-3.7-21.4-5.7-33-5.7c-11.6,0-22.7,2-33,5.7v30c12.3-2.2,23.6-7.8,33-15.9
		C159.4,79.2,170.7,84.8,183,87z"/>
	<path class="st3" d="M220.1,118c0,5.3-0.3,10.5-0.8,15.7c1.2,0.3,2.5,0.6,3.7,0.9c0.2-3.4,0.3-6.8,0.3-10.2
		c0-12.2-2.4-26.3-4.9-37.6l-2-2.8l-0.2,0.4l0.2-0.1C218.8,95.1,220.1,106.4,220.1,118z"/>
	<path class="st3" d="M238.6,106.4h-1.3c4.9,11.5,7.7,24.1,7.7,37.4c0,40.8-25.8,75.6-61.9,88.9V230c20.5-22.2,34.6-51.8,38.8-84.9
		l-4.1-1.1c-7.4,43.5-32.9,79.9-67.8,99.2C115.2,224,89.7,187.6,82.2,144l-4.1,1.1c4.2,33.1,18.3,62.6,38.8,84.9v2.8
		C80.8,219.4,55,184.6,55,143.8c0-13.3,2.7-25.9,7.7-37.4h-1.3c-6.5,13.2-10.2,27.9-10.2,43.6c0,54.4,44.3,98.7,98.7,98.7
		c0,0,0,0,0,0s0,0,0,0c54.4,0,98.7-44.3,98.7-98.7C248.7,134.4,245.1,119.6,238.6,106.4z"/>
	<path class="st1" d="M150,125.4c23.8,0,47.4,2.9,69.3,8.3c0.5-5.1,0.8-10.4,0.8-15.7c0-11.6-1.3-22.9-3.7-33.7
		c-6.9,2.4-14.2,3.7-21.9,3.7c-16.8,0-32.2-6.3-44.5-16.9C137.7,81.7,122.3,88,105.5,88c-7.6,0-15-1.3-21.9-3.7
		c-2.4,10.8-3.7,22.1-3.7,33.7c0,5.3,0.3,10.5,0.8,15.7C102.6,128.3,126.2,125.4,150,125.4z"/>
	<path class="st1" d="M230.6,141.7c-24.8-7.4-52.7-11.4-80.6-11.4s-55.8,4-80.6,11.4c0,0-1.8,0.6-4,1.3l4.7,4.3
		c3.9-1.2,7.9-2.3,12-3.3c7.4,43.5,33,79.9,67.8,99.2c34.8-19.3,60.4-55.7,67.8-99.2c4.1,1,8.1,2.1,12,3.3l4.7-4.3
		C232.4,142.3,230.6,141.7,230.6,141.7z"/>
	<path class="st0" d="M30.4,125.2c0.3-0.6,0.6-1.2,0.6-1.6c0.2-0.9,0-1.6-0.5-2c-0.5-0.5-1.5-0.8-3-1.1c-2-0.4-3.4-0.5-4.3-0.1
		c-0.6,0.2-1.1,0.9-1.3,2c-0.2,1-0.2,1.7,0.1,2.1c0.1,0.3,0.3,0.5,0.6,0.6c0.3,0.1,0.7,0.3,1.3,0.4l10.4,2.1
		c0.5,0.1,0.9,0.2,1.2,0.2c0.3,0.1,0.6,0.1,0.8,0.1c0.2,0,0.4,0,0.5,0c0.1,0,0.3-0.1,0.4-0.2c0.4-0.2,0.6-0.4,0.8-0.8
		c0.2-0.3,0.4-0.9,0.6-1.7l2.2,0.5l-2.5,12.1l-2.2-0.5c0.1-0.8,0.1-1.4,0-1.8c-0.1-0.4-0.3-0.7-0.7-1c-0.1-0.1-0.2-0.2-0.3-0.2
		c-0.1-0.1-0.2-0.1-0.4-0.2c-0.2-0.1-0.4-0.1-0.7-0.2c-0.3-0.1-0.6-0.1-1.1-0.2l-10.1-2.1c-0.5-0.1-0.9-0.2-1.2-0.2
		c-0.3-0.1-0.6-0.1-0.8-0.1c-0.2,0-0.4,0-0.5,0c-0.1,0-0.3,0.1-0.4,0.1c-0.4,0.2-0.6,0.4-0.8,0.7c-0.2,0.3-0.4,0.8-0.6,1.5l-2.2-0.5
		l1.5-7.2c0.2-0.9,0.3-1.8,0.5-2.5c0.1-0.7,0.3-1.5,0.4-2.3c0.1-0.5,0.1-0.9,0.2-1.3c0.1-0.4,0.1-0.8,0.2-1.1
		c0.5-2.3,1.4-3.8,2.9-4.5c1.4-0.7,3.6-0.8,6.3-0.3c2.7,0.5,4.5,1.5,5.5,2.9c1,1.4,1.3,3.2,0.8,5.5c-0.4,1.8-1,3.1-2.1,4.2
		L30.4,125.2"/>
	<path class="st0" d="M54.5,86.4c-0.4,0.7-0.7,1.1-1,1.4c-0.3,0.2-0.6,0.4-1,0.5c-0.2,0-0.3,0.1-0.5,0c-0.1,0-0.3-0.1-0.5-0.1
		c-0.2-0.1-0.4-0.2-0.7-0.3c-0.3-0.1-0.7-0.3-1.1-0.6l-9.2-4.8c-0.4-0.2-0.7-0.4-1-0.5c-0.2-0.1-0.4-0.3-0.6-0.4
		c-0.2-0.1-0.3-0.2-0.4-0.3c-0.1-0.1-0.2-0.2-0.2-0.3c-0.3-0.4-0.4-0.8-0.4-1.2c0-0.4,0.2-1,0.6-1.8l-2-1l-4.3,8.2l7.6,3.8L36.8,95
		l-7.5-3.8l-4.2,8l2,1c0.4-0.6,0.7-1.1,0.9-1.3c0.2-0.2,0.6-0.4,1-0.5c0.2,0,0.3,0,0.5,0c0.2,0,0.3,0,0.5,0.1
		c0.2,0.1,0.4,0.2,0.7,0.3c0.3,0.1,0.7,0.3,1.1,0.5l9.2,4.8c0.4,0.2,0.7,0.4,1,0.5c0.2,0.1,0.5,0.3,0.6,0.4c0.2,0.1,0.3,0.2,0.4,0.3
		c0.1,0.1,0.2,0.2,0.2,0.3c0.3,0.4,0.4,0.8,0.4,1.2c0,0.4-0.2,1-0.5,1.7l2,1l4.2-8.1l-9.1-4.7l3.1-5.9l9.1,4.7l4.2-8.1L54.5,86.4"/>
	<path class="st0" d="M51,68.4c-0.4-0.3-0.7-0.6-0.9-0.8c-0.3-0.2-0.5-0.4-0.6-0.5C49.3,67.1,49.1,67,49,67c-0.1,0-0.3-0.1-0.5-0.1
		c-0.4,0-0.8,0.1-1.1,0.2c-0.3,0.2-0.7,0.5-1.2,1l-1.7-1.5l8-9.2l1.7,1.5c-0.5,0.6-0.8,1.2-0.9,1.5c-0.1,0.4-0.1,0.8,0.1,1.2
		c0.1,0.1,0.1,0.3,0.2,0.4c0.1,0.1,0.2,0.2,0.3,0.4c0.1,0.1,0.3,0.3,0.5,0.5c0.2,0.2,0.5,0.4,0.8,0.7l7.8,6.8c0.4,0.3,0.7,0.6,1,0.8
		c0.2,0.2,0.4,0.4,0.6,0.5c0.2,0.1,0.3,0.2,0.5,0.2c0.1,0,0.3,0.1,0.5,0.1c0.4,0,0.8-0.1,1.1-0.2c0.3-0.2,0.7-0.5,1.2-1l1.7,1.5
		l-8,9.2l-1.7-1.5c0.5-0.6,0.8-1.1,0.9-1.5c0.1-0.4,0.1-0.8-0.1-1.2c0-0.1-0.1-0.3-0.2-0.4c-0.1-0.1-0.2-0.2-0.3-0.4
		c-0.1-0.1-0.3-0.3-0.5-0.5c-0.2-0.2-0.5-0.4-0.8-0.7L51,68.4"/>
	<path class="st0" d="M90.3,55L75,66.6l-1.4-1.8c0.6-0.5,1-1,1.2-1.3c0.2-0.4,0.3-0.8,0.2-1.2c0-0.2-0.1-0.3-0.1-0.4
		c0-0.1-0.1-0.3-0.2-0.4c-0.1-0.2-0.2-0.3-0.4-0.6c-0.2-0.2-0.4-0.5-0.6-0.9l-6.3-8.2c-0.3-0.4-0.6-0.7-0.8-1
		c-0.2-0.3-0.4-0.4-0.5-0.6c-0.1-0.1-0.3-0.2-0.4-0.3c-0.1-0.1-0.3-0.1-0.4-0.2c-0.4-0.1-0.8-0.1-1.1,0c-0.3,0.1-0.8,0.4-1.4,0.8
		l-1.4-1.8l9.7-7.4l1.4,1.8c-0.6,0.5-1,1-1.2,1.3c-0.2,0.4-0.3,0.8-0.2,1.2c0,0.1,0.1,0.3,0.1,0.4c0,0.1,0.1,0.3,0.2,0.4
		c0.1,0.2,0.2,0.4,0.4,0.6c0.2,0.2,0.4,0.5,0.6,0.9l6.4,8.5c0.2,0.3,0.4,0.5,0.6,0.7c0.2,0.2,0.3,0.3,0.4,0.4
		c0.1,0.1,0.2,0.2,0.3,0.2c0.1,0,0.2,0.1,0.3,0.1c0.1,0,0.3,0,0.4,0c0.1,0,0.3-0.1,0.4-0.2c0.2-0.1,0.3-0.2,0.6-0.3
		c0.2-0.2,0.5-0.3,0.8-0.6l0.4-0.3c0.4-0.3,0.7-0.5,0.9-0.7c0.2-0.2,0.4-0.4,0.6-0.5c0.1-0.2,0.2-0.3,0.3-0.5
		c0.1-0.2,0.1-0.3,0.1-0.5c0.1-0.5,0.1-0.9-0.1-1.4c-0.2-0.5-0.5-1.1-1-1.8l2.2-1.7L90.3,55"/>
	<path class="st0" d="M101.3,24.5c0.2,0.2,0.3,0.4,0.4,0.6c0.1,0.2,0.3,0.4,0.4,0.5c0.1,0.2,0.3,0.3,0.4,0.5
		c0.1,0.2,0.3,0.4,0.5,0.6l9.7,11c0.5,0.6,1,1.1,1.4,1.4c0.4,0.4,0.8,0.6,1.1,0.8c0.4,0.2,0.7,0.3,1.1,0.3c0.4,0,0.8,0,1.2-0.2
		l0.9,2.1l-10.7,4.4l-0.9-2.1c0.8-0.4,1.3-0.7,1.5-1c0.2-0.3,0.2-0.7,0.1-1.1c-0.1-0.3-0.5-0.8-1.2-1.7l-0.4-0.5l-5.3,2.2l0,0.6
		c0,0.4,0,0.8,0.1,1.1c0.1,0.3,0.1,0.6,0.2,0.8c0.2,0.5,0.5,0.7,0.8,0.8c0.3,0.1,1-0.1,1.8-0.3l0.9,2.1L96.8,51l-0.9-2.1
		c0.4-0.3,0.7-0.5,0.9-0.8c0.2-0.2,0.4-0.5,0.5-0.9c0.1-0.3,0.2-0.7,0.2-1.2c0-0.5,0-1.1,0-1.9l-0.7-14.5c0-0.8-0.1-1.5-0.1-2
		c-0.1-0.5-0.1-0.9-0.2-1.1L101.3,24.5 M103,35l-0.2-0.3c-0.1-0.1-0.1-0.2-0.2-0.3l-0.4-0.5c-0.2-0.2-0.4-0.5-0.5-0.6l-0.5-0.6
		c-0.1-0.1-0.2-0.2-0.3-0.3c-0.1-0.1-0.2-0.2-0.3-0.3l0.2,2.9l0.2,3.9l3.9-1.6L103,35z"/>
	<path class="st0" d="M125.7,23.8c-0.1-0.5-0.1-0.9-0.2-1.2c-0.1-0.3-0.1-0.6-0.2-0.8c-0.1-0.2-0.1-0.4-0.2-0.5
		c-0.1-0.1-0.2-0.3-0.3-0.4c-0.3-0.3-0.6-0.5-0.9-0.5c-0.4-0.1-0.9-0.1-1.6,0l-0.3-2.2l6.5-0.8c1.3-0.2,2.5-0.3,3.4-0.4
		c0.9-0.1,1.7-0.2,2.3-0.3c0.5-0.1,1-0.2,1.5-0.2c0.5-0.1,0.9-0.1,1.1-0.1c1.9-0.2,3.4-0.1,4.6,0.3c1.2,0.4,2.2,1.2,3,2.2
		c0.6,0.9,1.2,2.1,1.6,3.4c0.4,1.4,0.8,2.8,1,4.5c0.4,3.7,0,6.6-1.4,8.6c-1.3,2.1-3.6,3.3-6.7,3.6c-0.2,0-0.5,0.1-0.9,0.1
		c-0.3,0-0.7,0.1-1.2,0.1c-0.8,0.1-1.6,0.1-2.3,0.2c-0.7,0.1-1.4,0.1-2.1,0.2l-8,0.9l-0.3-2.2c0.8-0.1,1.4-0.3,1.7-0.5
		c0.3-0.2,0.6-0.5,0.8-1c0-0.1,0.1-0.3,0.1-0.4c0-0.1,0-0.3,0-0.5c0-0.2,0-0.4,0-0.7c0-0.3-0.1-0.6-0.1-1.1L125.7,23.8 M133.1,33.3
		c0,0.4,0.1,0.7,0.1,0.9c0,0.2,0.1,0.4,0.1,0.5c0.1,0.1,0.1,0.3,0.2,0.3c0.1,0.1,0.2,0.2,0.3,0.3c0.3,0.2,0.6,0.3,0.9,0.4
		c0.3,0,0.8,0,1.5-0.1c1-0.1,1.8-0.3,2.5-0.7c0.6-0.3,1.1-0.9,1.5-1.5c0.3-0.7,0.5-1.5,0.6-2.6c0.1-1,0-2.3-0.2-3.8
		c-0.2-1.4-0.4-2.7-0.7-3.6c-0.3-1-0.7-1.7-1.1-2.3c-0.5-0.6-1.1-0.9-1.8-1.1c-0.7-0.2-1.5-0.2-2.5-0.1c-0.6,0.1-1.1,0.2-1.5,0.2
		c-0.4,0.1-0.6,0.2-0.8,0.4c-0.2,0.2-0.3,0.4-0.3,0.7c0,0.3,0,0.7,0.1,1.2L133.1,33.3z"/>
	<path class="st0" d="M178,25.4l-2.7-0.4c0-0.7,0-1.3-0.1-1.8c-0.1-0.5-0.2-0.9-0.5-1.2c-0.3-0.3-0.6-0.6-1.1-0.7
		c-0.5-0.2-1.1-0.3-1.8-0.4l-0.4-0.1c-0.5-0.1-1-0.1-1.3-0.1c-0.3,0-0.6,0-0.8,0.1c-0.2,0.1-0.3,0.3-0.4,0.6
		c-0.1,0.3-0.2,0.6-0.2,1.1l-0.6,3.8l4.8,0.7c0.5,0.1,0.9,0.1,1.2,0.1c0.3,0,0.6,0,1,0l-0.6,3.9c-0.3-0.1-0.6-0.2-0.9-0.2
		c-0.3-0.1-0.8-0.1-1.4-0.2l-4.6-0.7l-0.6,4c-0.1,0.5-0.1,0.9-0.1,1.2c0,0.3,0.1,0.5,0.2,0.7c0.2,0.2,0.4,0.3,0.8,0.4
		c0.4,0.1,0.9,0.2,1.6,0.3l0.8,0.1c0.7,0.1,1.3,0.2,1.8,0.2c0.5,0,0.9-0.2,1.2-0.4c0.3-0.2,0.6-0.6,0.8-1.1c0.2-0.5,0.4-1.1,0.6-1.9
		l2.8,0.4l-1.1,7.2L156.9,38l0.3-2.2c0.8,0.1,1.4,0.1,1.8,0c0.4-0.1,0.7-0.3,1-0.7c0.1-0.1,0.2-0.2,0.2-0.3c0.1-0.1,0.1-0.3,0.1-0.4
		c0-0.2,0.1-0.4,0.1-0.7c0-0.3,0.1-0.6,0.2-1.1l1.5-10.2c0.1-0.5,0.1-0.9,0.2-1.2c0-0.3,0.1-0.6,0-0.8c0-0.2,0-0.4-0.1-0.5
		c0-0.1-0.1-0.3-0.2-0.4c-0.2-0.3-0.5-0.6-0.8-0.8c-0.3-0.2-0.8-0.3-1.5-0.5l0.3-2.2l14.5,2.2c0.6,0.1,1.1,0.2,1.4,0.2
		c0.4,0.1,0.7,0.1,1,0.1c0.3,0,0.6,0,0.9,0c0.3,0,0.6-0.1,1-0.1L178,25.4"/>
	<path class="st0" d="M201.8,50.5l-17.8-7.4l0.9-2.1c0.8,0.3,1.4,0.4,1.7,0.4c0.4,0,0.8-0.2,1.1-0.5c0.1-0.1,0.2-0.2,0.3-0.3
		c0.1-0.1,0.2-0.2,0.3-0.4c0.1-0.2,0.2-0.4,0.3-0.6c0.1-0.3,0.3-0.6,0.4-1l4-9.6c0.2-0.5,0.3-0.8,0.5-1.1c0.1-0.3,0.2-0.6,0.2-0.8
		c0-0.2,0.1-0.4,0.1-0.5c0-0.1,0-0.3-0.1-0.5c-0.1-0.4-0.3-0.7-0.6-0.9c-0.3-0.2-0.7-0.5-1.4-0.8l0.9-2.1L204,27l-0.9,2.1
		c-0.8-0.3-1.3-0.4-1.8-0.4c-0.4,0-0.8,0.2-1.1,0.5c-0.1,0.1-0.2,0.2-0.3,0.3c-0.1,0.1-0.2,0.2-0.2,0.4c-0.1,0.2-0.2,0.4-0.3,0.6
		c-0.1,0.3-0.3,0.6-0.4,1l-4.1,9.8c-0.2,0.4-0.3,0.6-0.3,0.8c-0.1,0.2-0.1,0.4-0.2,0.5c0,0.1,0,0.3,0,0.4c0,0.1,0,0.2,0.1,0.3
		c0.1,0.1,0.1,0.2,0.2,0.3c0.1,0.1,0.2,0.2,0.3,0.3c0.1,0.1,0.3,0.2,0.6,0.3c0.2,0.1,0.5,0.2,0.9,0.4l0.4,0.2
		c0.4,0.2,0.8,0.3,1.1,0.4c0.3,0.1,0.5,0.2,0.7,0.2c0.2,0,0.4,0.1,0.6,0c0.2,0,0.3-0.1,0.5-0.1c0.5-0.1,0.8-0.4,1.2-0.8
		c0.3-0.4,0.7-1,1.1-1.8l2.6,1.1L201.8,50.5"/>
	<path class="st0" d="M220.7,50.9c0.4,0.6,3.2,2.3,3.6,2.6c0.7,0.5,1.4,0.7,2,0.4c0.6-0.3,1.4-1,2.3-2.2c1.2-1.6,1.9-2.9,1.9-3.8
		c0.1-0.7-0.3-1.3-1.3-2c-0.8-0.6-1.5-0.9-2-0.8c-0.3,0-0.6,0.1-0.8,0.3c-0.2,0.2-0.5,0.5-0.9,1l-6.4,8.5c-0.3,0.4-0.6,0.8-0.7,1
		c-0.2,0.3-0.3,0.5-0.4,0.7c-0.1,0.2-0.2,0.3-0.2,0.5c0,0.1,0,0.3,0,0.5c0,0.4,0.1,0.8,0.3,1.1c0.2,0.3,0.7,0.7,1.3,1.3l-1.4,1.8
		l-9.9-7.4l1.4-1.8c0.7,0.4,1.2,0.7,1.6,0.8c0.4,0.1,0.8,0,1.2-0.2c0.1-0.1,0.2-0.1,0.4-0.2c0.1-0.1,0.2-0.2,0.3-0.3
		c0.1-0.2,0.3-0.3,0.4-0.5c0.2-0.2,0.4-0.5,0.7-0.9l6.2-8.3c0.3-0.4,0.5-0.7,0.7-1c0.2-0.3,0.3-0.5,0.4-0.7c0.1-0.2,0.1-0.3,0.2-0.5
		c0-0.2,0-0.3,0.1-0.5c0-0.4-0.1-0.7-0.3-1c-0.2-0.3-0.6-0.7-1.1-1.1l1.4-1.8l5.9,4.4c0.8,0.6,1.4,1.1,2,1.5
		c0.6,0.4,1.2,0.9,1.9,1.3c0.4,0.3,0.8,0.5,1.1,0.8c0.3,0.3,0.6,0.5,0.9,0.6c1.9,1.4,2.8,2.9,2.9,4.5c0.1,1.6-0.8,3.6-2.5,5.9
		c-1.6,2.2-3.3,3.4-4.9,3.8c-1.7,0.3-3.4-0.2-5.4-1.6c-1.4-1.1-3.5-3-4-4.3L220.7,50.9"/>
	<path class="st0" d="M258.5,70.9l-6.7,5.1l-4.1-5.3l6.7-5.1l-5.6-7.3l-1.8,1.4c0.4,0.6,0.7,1.1,0.8,1.4c0.1,0.3,0.1,0.7,0,1.1
		c0,0.2-0.1,0.3-0.2,0.4c-0.1,0.1-0.2,0.3-0.3,0.4c-0.1,0.2-0.3,0.3-0.6,0.5c-0.3,0.2-0.6,0.5-1,0.8l-8.2,6.3
		c-0.4,0.3-0.7,0.5-0.9,0.7c-0.2,0.2-0.4,0.3-0.6,0.4c-0.2,0.1-0.3,0.2-0.4,0.2c-0.1,0-0.2,0.1-0.4,0.1c-0.5,0.1-0.9,0.1-1.2-0.1
		c-0.4-0.2-0.8-0.6-1.3-1.2L231,72l5.6,7.2l8.1-6.2l4.1,5.3l-8.1,6.2l5.6,7.3l1.8-1.4c-0.4-0.6-0.7-1.1-0.8-1.5
		c-0.1-0.3-0.1-0.7,0-1.1c0-0.2,0.1-0.3,0.2-0.4c0.1-0.1,0.2-0.3,0.3-0.4c0.1-0.1,0.3-0.3,0.6-0.5c0.2-0.2,0.6-0.5,1-0.8l8.2-6.3
		c0.4-0.3,0.6-0.5,0.9-0.7c0.2-0.2,0.4-0.3,0.6-0.4c0.2-0.1,0.3-0.2,0.4-0.2c0.1,0,0.2-0.1,0.4-0.1c0.5-0.1,0.9-0.1,1.2,0.2
		c0.4,0.2,0.8,0.6,1.4,1.3l1.8-1.4L258.5,70.9"/>
	<path class="st0" d="M265.8,94.8c0.5-0.2,0.8-0.4,1.1-0.5c0.3-0.1,0.5-0.3,0.7-0.4c0.2-0.1,0.3-0.2,0.4-0.3
		c0.1-0.1,0.2-0.2,0.3-0.4c0.2-0.4,0.3-0.7,0.2-1.1c0-0.4-0.2-0.9-0.4-1.5l2.1-0.9l5,11.1l-2.1,0.9c-0.4-0.7-0.7-1.2-1-1.5
		c-0.3-0.3-0.7-0.4-1.2-0.4c-0.2,0-0.3,0-0.4,0c-0.1,0-0.3,0-0.5,0.1c-0.2,0.1-0.4,0.2-0.7,0.3c-0.3,0.1-0.6,0.2-1,0.4l-9.5,4.2
		c-0.5,0.2-0.8,0.4-1.1,0.5c-0.3,0.1-0.5,0.3-0.7,0.4c-0.2,0.1-0.3,0.2-0.4,0.3c-0.1,0.1-0.2,0.2-0.3,0.4c-0.2,0.4-0.3,0.7-0.2,1.1
		c0,0.4,0.2,0.9,0.4,1.5l-2.1,0.9l-5-11.1l2.1-0.9c0.4,0.7,0.7,1.2,1,1.5c0.3,0.3,0.7,0.4,1.2,0.4c0.1,0,0.3,0,0.4,0
		c0.1,0,0.3,0,0.5-0.1c0.2-0.1,0.4-0.2,0.7-0.3c0.3-0.1,0.6-0.2,1-0.4L265.8,94.8"/>
	<path class="st0" d="M282.4,125.5c-0.2,0.1-0.5,0.2-0.7,0.3c-0.2,0.1-0.4,0.2-0.6,0.3c-0.2,0.1-0.4,0.2-0.6,0.3
		c-0.2,0.1-0.4,0.2-0.7,0.4l-12.6,7.5c-0.7,0.4-1.2,0.8-1.7,1.1c-0.4,0.3-0.8,0.6-1,0.9c-0.2,0.3-0.4,0.6-0.5,1
		c-0.1,0.3-0.1,0.8-0.1,1.2l-2.2,0.5l-2.3-11.3l2.2-0.4c0.2,0.8,0.5,1.4,0.7,1.6c0.3,0.3,0.6,0.4,1.1,0.3c0.3-0.1,0.9-0.3,1.9-0.9
		l0.6-0.3l-1.2-5.6l-0.6-0.1c-0.4-0.1-0.8-0.1-1.1-0.1c-0.3,0-0.6,0-0.9,0.1c-0.5,0.1-0.8,0.3-0.9,0.7c-0.1,0.3-0.1,0.9,0,1.9
		l-2.2,0.5l-1.8-9.1l2.2-0.5c0.2,0.4,0.4,0.8,0.6,1c0.2,0.3,0.5,0.5,0.8,0.7c0.3,0.2,0.7,0.3,1.2,0.4c0.5,0.1,1.1,0.2,1.8,0.3
		l14.4,2c0.8,0.1,1.5,0.2,2,0.2c0.5,0,0.9,0,1.1,0L282.4,125.5 M271.8,125.1c0.1-0.1,0.2-0.1,0.3-0.2c0.1,0,0.2-0.1,0.3-0.2l0.6-0.3
		c0.3-0.1,0.5-0.3,0.7-0.4l0.6-0.3c0.1-0.1,0.2-0.1,0.4-0.2c0.1-0.1,0.2-0.1,0.4-0.2l-2.9-0.4l-3.9-0.5l0.8,4.1L271.8,125.1z"/>
	<polyline class="st0" points="37.5,163 30.7,166.1 31.6,173.5 26.5,168 19.8,171.2 23.4,164.7 18.3,159.2 25.6,160.6 29.3,154.1 
		30.1,161.5 37.5,163 	"/>
	<polyline class="st0" points="43.8,189.7 38,194.3 40.6,201.3 34.4,197.2 28.6,201.9 30.6,194.7 24.3,190.6 31.8,190.3 33.7,183.1 
		36.4,190 43.8,189.7 	"/>
	<polyline class="st0" points="56.4,214.1 51.9,220 56.1,226.1 49.1,223.6 44.6,229.6 44.7,222.1 37.7,219.7 44.8,217.5 45,210.1 
		49.3,216.2 56.4,214.1 	"/>
	<polyline class="st0" points="74.5,234.7 71.5,241.5 77.1,246.5 69.7,245.8 66.7,252.6 65.1,245.3 57.7,244.6 64.1,240.9 
		62.5,233.6 68.1,238.5 74.5,234.7 	"/>
	<polyline class="st0" points="97,250.4 95.8,257.8 102.4,261.2 95,262.3 93.8,269.6 90.4,263 83.1,264.1 88.4,258.9 85.1,252.2 
		91.7,255.6 97,250.4 	"/>
	<polyline class="st0" points="122.6,260.2 123.2,267.7 130.4,269.4 123.5,272.3 124.1,279.7 119.3,274 112.4,276.8 116.3,270.5 
		111.5,264.8 118.7,266.6 122.6,260.2 	"/>
	<polygon class="st0" points="150,263.6 152.3,270.7 159.8,270.7 153.7,275.1 156,282.2 150,277.8 144,282.2 146.3,275.1 
		140.2,270.7 147.7,270.7 	"/>
	<polyline class="st0" points="262.5,163 269.3,166.1 268.4,173.5 273.5,168 280.2,171.2 276.6,164.7 281.7,159.2 274.4,160.6 
		270.7,154.1 269.9,161.5 262.5,163 	"/>
	<polyline class="st0" points="256.2,189.7 262,194.3 259.4,201.3 265.6,197.2 271.4,201.9 269.4,194.7 275.7,190.6 268.2,190.3 
		266.3,183.1 263.6,190 256.2,189.7 	"/>
	<polyline class="st0" points="243.6,214.1 248.1,220 243.9,226.1 250.9,223.6 255.4,229.6 255.3,222.1 262.3,219.7 255.2,217.5 
		255,210.1 250.7,216.2 243.6,214.1 	"/>
	<polyline class="st0" points="225.5,234.7 228.5,241.5 222.9,246.5 230.3,245.8 233.3,252.6 234.9,245.3 242.3,244.6 235.9,240.9 
		237.5,233.6 231.9,238.5 225.5,234.7 	"/>
	<polyline class="st0" points="203,250.4 204.2,257.8 197.6,261.2 205,262.3 206.2,269.6 209.6,263 216.9,264.1 211.6,258.9 
		214.9,252.2 208.3,255.6 203,250.4 	"/>
	<polyline class="st0" points="177.4,260.2 176.8,267.7 169.6,269.4 176.5,272.3 175.9,279.7 180.7,274 187.6,276.8 183.7,270.5 
		188.5,264.8 181.3,266.6 177.4,260.2 	"/>
	<path class="st0" d="M108,118.2l-4.2,0.6V95.2l-4.5,0.6v24.6c0,1.4,0.9,2.2,2.2,2.2c0.2,0,0.3,0,0.5,0l7.8-1.1
		c1.5-0.2,2.6-1.4,2.6-2.9V94l-4.5,0.6L108,118.2L108,118.2z"/>
	<polygon class="st0" points="132.1,105.5 125.9,92.7 123.3,92.8 123.3,120 127.5,119.8 127.5,107 133.7,119.4 136.3,119.2 
		136.3,92 132.1,92.2 	"/>
	<polygon class="st0" points="147.4,91.7 147.4,118.9 152,118.9 151.9,91.7 	"/>
	<path class="st0" d="M174.2,92.5l-8.5-0.5c-1.2,0-2.6,0.9-2.6,2.4v22.2c0,1.6,1.5,2.6,2.7,2.6l8.3,0.5l0.1,0c1.2,0,2.6-0.9,2.6-2.4
		V95.1C176.9,93.5,175.3,92.6,174.2,92.5z M172.4,116l-4.7-0.3v-20l4.7,0.3V116z"/>
	<polygon class="st0" points="196.5,94.9 196.5,108.1 190.3,94.1 187.8,93.7 187.8,121 192,121.5 192,108.8 198,122.4 200.7,122.7 
		200.7,95.5 	"/>
	<path class="st0" d="M105.6,154.1c0.5,0.2,1,0.4,1.6,0.6c1.7,0.5,3.9,0.8,6.6,0.5l1-0.1l-0.8,0.7c-0.7,0.6-2.9,2-5,2.9
		c3.7-0.5,10.5-3.5,14.5-5.9c-0.4-0.2-0.8-0.5-1.2-0.8C116.5,154.2,110.2,154.6,105.6,154.1"/>
	<path class="st0" d="M121.3,193.2c-1,1.7-1.5,3.4-1.5,5.1c0,2.8,1.3,5.6,3.7,8.1c5.1,5.1,14.6,8.3,24.9,8.3
		c15.9,0,28.8-7.4,28.8-16.4c0-1.7-0.5-3.4-1.4-5.1c-3.9,6.7-15,11.3-27.3,11.3C136.1,204.5,125.1,199.9,121.3,193.2"/>
	<path class="st0" d="M181.3,193.7c0.4,0,1.2,0.1,2.2,0.1c2.8,0,6.8-0.5,10.8-2.9c-2.9,0.1-9-0.3-15.4-3.1
		C179.8,189.2,180.8,191.3,181.3,193.7"/>
	<path class="st0" d="M148.6,145.4l0.2,0c7.5,0,14.1,4.2,14.2,9.3c0,2.2-1.1,4.5-3.2,6.2c-1.7,1.3-4.1,2.2-6.3,3.1
		c0,0-5.2,1.9-9.5,3.4c-0.2,0.1-20.4,6.5-20.4,18.7c0,2.4,1.1,4.8,3.1,6.8c4.4,4.5,13.1,7.1,22.3,6.9c14.1-0.4,25.6-7.1,25.6-15.1
		c0-5.1-5-9-12.7-11.1c-1.8,0.7-3.9,1.4-6.1,2.1c-2.1,0.7-4.6,1.4-7.1,2.4c-5.8,2.1-6.9,3.9-7.1,4.8c-0.1,0.6,0.1,1,0.3,1.2
		c2.2-1.3,5.4-2.2,8.9-2.6c1-0.1,2-0.2,2.9-0.2c5.3,0,8.9,1.5,8.9,3.9c0,0.7-0.3,1.3-0.9,1.9c-1.8,1.9-6.5,3.1-11.8,3.1
		c-4.5,0-8.6-1.4-10.9-3.7c-1.2-1.2-1.8-2.5-1.8-3.9c0-5,7.2-7.4,11.9-9c0.6-0.2,1.1-0.4,1.6-0.6c4.2-1.5,9.2-3.4,9.2-3.4
		c8-2.6,12.3-9.5,11.2-16.2c-1.2-7.9-9-13.5-19-13.5c-1,0-1.9,0.1-2.9,0.2c0,0-0.9,0.2-2,0.2c-1.1,0-2-0.2-2.7-0.5
		c-1.4-0.8-2.9-0.9-2.9-0.9c-11.6,2.6-18.3,7.5-19.5,8.5c0.4,1,2.2,4.7,8,3.8c2.2-0.3,3.9-0.4,5.4-0.4c3.4-0.1,5.3-0.1,7.9-3.1
		C145.6,145.6,147.9,145.4,148.6,145.4"/>
	<path class="st1" d="M137.2,145c1-0.6,1.5-2.9,1.5-2.9c-4,1-8.2,3.1-8.2,3.1S136.3,145.6,137.2,145"/>
	<path class="st0" d="M263.7,267.9h-2.1v5.9h-2v-5.9h-2.1v-1.6h6.3L263.7,267.9 M274.3,273.8h-2V268h-0.2l-1.8,4.1h-1.4l-1.9-4.2
		h-0.3v5.9h-1.9v-7.5h3.3l1.5,3.7l1.6-3.7h3.2V273.8L274.3,273.8z"/>
</g>
</svg>
