<?xml version="1.0" encoding="utf-8"?>
<!-- Generator: Adobe Illustrator 21.1.0, SVG Export Plug-In . SVG Version: 6.00 Build 0)  -->
<!DOCTYPE svg PUBLIC "-//W3C//DTD SVG 1.1//EN" "http://www.w3.org/Graphics/SVG/1.1/DTD/svg11.dtd">
<svg version="1.1"
	 id="svg2" inkscape:version="0.91 r13725" sodipodi:docname="Real_Salt_Lake_2010.svg" xmlns:cc="http://creativecommons.org/ns#" xmlns:dc="http://purl.org/dc/elements/1.1/" xmlns:inkscape="http://www.inkscape.org/namespaces/inkscape" xmlns:rdf="http://www.w3.org/1999/02/22-rdf-syntax-ns#" xmlns:sodipodi="http://sodipodi.sourceforge.net/DTD/sodipodi-0.dtd" xmlns:svg="http://www.w3.org/2000/svg"
	 xmlns="http://www.w3.org/2000/svg" xmlns:xlink="http://www.w3.org/1999/xlink" x="0px" y="0px" width="300px" height="404.4px"
	 viewBox="0 0 300 404.4" style="enable-background:new 0 0 300 404.4;" xml:space="preserve">
<style type="text/css">
	.st0{fill:#F1CB00;}
	.st1{fill:#B30838;}
	.st2{fill:#013A81;}
	.st3{fill:#FFFFFF;}
</style>
<sodipodi:namedview  bordercolor="#666666" borderopacity="1.0" fit-margin-bottom="1" fit-margin-left="0.4" fit-margin-right="0.4" fit-margin-top="1" id="base" inkscape:current-layer="layer1" inkscape:cx="254.98875" inkscape:cy="703.37445" inkscape:document-units="px" inkscape:pageopacity="0.0" inkscape:pageshadow="2" inkscape:window-height="705" inkscape:window-maximized="1" inkscape:window-width="1366" inkscape:window-x="-8" inkscape:window-y="-8" inkscape:zoom="0.35" pagecolor="#ffffff" showgrid="false">
	</sodipodi:namedview>
<g id="layer1" transform="translate(-120.01125,-908.65004)" inkscape:groupmode="layer" inkscape:label="Layer 1">
	<g id="g3338" transform="matrix(0.47481409,0,0,0.47481409,121.42857,912.19398)">
		<title  id="title3340">Layer 1</title>
		<path id="svg_1" inkscape:connector-curvature="0" class="st0" d="M-3-7.5v324.9c0,364.7,315.9,526.7,315.9,526.7
			s315.9-162,315.9-526.7V-7.5H-3"/>
		<path id="svg_2" inkscape:connector-curvature="0" class="st1" d="M9,4.5v313c0,326.7,262.6,489,303.9,512.6
			c41.4-23.6,304-185.9,304-512.6V4.5H9 M593,317.5c0,295-217.3,446.5-280.1,484.4C250.1,763.9,32.9,612.5,32.9,317.5V28.4H593
			L593,317.5L593,317.5z"/>
		<path id="svg_3" inkscape:connector-curvature="0" class="st2" d="M46.1,40.3v277.2c0,279.8,200.1,427.7,268.1,470.3
			c68-42.6,268.1-190.4,268.1-470.3V40.3H46.1"/>
		<path id="svg_4" inkscape:connector-curvature="0" class="st3" d="M383.2,585c-0.2-14.6-4.9-28.2-12.8-39.4l-28.4,0.4l-8.4-27.1
			c-6.5-2-13.5-3.1-20.7-3.1c-7.2,0-14.2,1.1-20.7,3.1l-8.5,27.1l-28.4-0.4c-7.8,11.2-12.5,24.7-12.8,39.4l23.2,16.4l-9.1,26.9
			c8.4,11.2,20,19.7,33.5,24.3l22.8-17l22.8,17c13.5-4.6,25.1-13.2,33.5-24.3l-9.1-26.9L383.2,585"/>
		<path id="svg_5" inkscape:connector-curvature="0" class="st0" d="M443,206.6c32.5,30.5,55.1,71.5,62.4,117.7
			c-5.9-47.8-27.7-90.6-59.9-123L443,206.6"/>
		<path id="svg_6" inkscape:connector-curvature="0" class="st0" d="M233.8,550.5C154.8,521.9,98.3,446,98.3,356.9
			c0-65.9,30.9-124.5,78.9-162.2l-6.5-14C119,219.3,85.5,281,85.5,350.7c0,94.7,62,174.8,147.3,201.8
			C233.1,551.8,233.5,551.1,233.8,550.5"/>
		<path id="svg_7" inkscape:connector-curvature="0" class="st0" d="M375.2,355.2c-14.1-12.6-29.5-20-46.5-22.2
			c0,0,75.8-5.8,75.8-49.8c0-21.2-26.5-49.8-109.1-49.8h-97c0,0,12.9,7.2,12.9,13.4v93.9c12,5.9,28.4,11.3,44.7,17.9v-18.2h26.6
			c14.1,0,22.2,3.2,29.6,9.4l77.4,72c10.8,9.3,32.3,20.5,51,20.5c24,0,33.6-8,33.6-8s-15.5-1-27.3-11L375.2,355.2 M288.3,328.7
			h-32.2v-83.1h32.2c40.6,0,67.6,13.9,67.6,41.6C356,309.6,327.9,328.7,288.3,328.7L288.3,328.7z"/>
		<path id="svg_8" inkscape:connector-curvature="0" class="st0" d="M211.4,390.4v31.3c0,7.2-11.6,13.3-11.6,13.3h68.5
			c0,0-12.2-6.1-12.2-13.3v-10.6C245.6,403.6,228.7,397.4,211.4,390.4"/>
		<path id="svg_9" inkscape:connector-curvature="0" class="st0" d="M163.9,133c5.1,12.1,7.3,16.3,7.3,16.3l-4.1,15.1l16,7l9.9,21.4
			c0,0,46.7-21.1,119.9-21.1c73.2,0,119.9,21.1,119.9,21.1l9.9-21.4l16-7l-4.1-15.1c0,0,2.2-4.2,7.3-16.3
			c5.1-12.1,29.9-25.1,29.9-25.1c-20.9-21.5-38.3,21.5-60.4,0.6c-7.6,11.4,8.4,25.1,8.4,25.1s-4.8,12-18.7,14.3
			c-16.8,2.8-34.4,1.8-37.7-29.2c0,0-11.4,31.3-37.7,24.4c-17.1-4.5-24-18.1-26.4-25.1c17.1-2.1,30.1-12.5,30.1-25h-24.9
			c-1-12.8-11.4-23.3-11.4-23.3s-10.5,10.5-11.4,23.3h-24.8c0,12.5,13,22.9,30.1,25c-2.4,6.9-9.3,20.6-26.4,25.1
			c-26.3,6.8-37.7-24.4-37.7-24.4c-3.4,31-20.9,32-37.7,29.2c-13.9-2.3-18.7-14.3-18.7-14.3s16-13.7,8.4-25.1
			c-22.1,20.9-39.5-22.2-60.4-0.6C134,107.9,158.8,120.9,163.9,133"/>
		<path id="svg_10" inkscape:connector-curvature="0" class="st0" d="M431.8,220.1c0.6-1.2,0.9-2.4,0.9-3.7
			c0-16.8-53.6-30.4-119.7-30.4c-66.1,0-119.7,13.6-119.7,30.4c0,1.2,0.3,2.5,0.8,3.7c25.5-13.5,69.2-22.4,118.9-22.4
			C362.6,197.7,406.3,206.6,431.8,220.1"/>
		<path id="svg_11" inkscape:connector-curvature="0" class="st0" d="M256.2,567.7l22.9-18l-20.7-0.3c-6.6,9.9-10.7,21.6-11.1,34.3
			l16.9,11.9L256.2,567.7"/>
		<path id="svg_12" inkscape:connector-curvature="0" class="st0" d="M330.9,523c-5.7-1.6-11.8-2.5-18-2.5c-6.2,0-12.3,0.9-18,2.5
			l-6.2,19.7l24.2-16.2l24.2,16.2L330.9,523"/>
		<path id="svg_13" inkscape:connector-curvature="0" class="st0" d="M346.7,549.7l22.9,18l-8,28l16.9-11.9
			c-0.4-12.7-4.5-24.4-11.1-34.3L346.7,549.7"/>
		<path id="svg_14" inkscape:connector-curvature="0" class="st0" d="M267.9,607l-6.6,19.6c7.5,9.6,17.5,17,29.1,21.2l16.6-12.4
			l-29.1-1.1L267.9,607"/>
		<path id="svg_15" inkscape:connector-curvature="0" class="st0" d="M347.9,634.3l-29.1,1.1l16.6,12.4
			c11.6-4.2,21.7-11.7,29.2-21.2L358,607L347.9,634.3"/>
		<path id="svg_16" inkscape:connector-curvature="0" class="st1" d="M528.9,355.1c0,92.1-54.2,171.4-132.3,207.7
			c1.2,4.3,2.1,8.8,2.6,13.4c83-35.3,141.1-117.9,141.1-214.1c0-72.4-33-137.1-84.7-179.8l-3.5,1.5
			C499.2,225.7,528.9,286.9,528.9,355.1"/>
		<path id="svg_17" inkscape:connector-curvature="0" class="st1" d="M226.4,579.3c0.2-2.6,0.5-5.2,0.9-7.8
			c-53.8-18.5-98.6-56.6-125.8-105.9C127.4,517.6,172,558.5,226.4,579.3"/>
		<path id="svg_18" inkscape:connector-curvature="0" class="st1" d="M320.1,295.5v20.7c18.1-6.5,28.5-18.1,28.5-29.1
			c0-1.5-0.1-2.9-0.3-4.3h-38.9C309.4,282.9,320.1,285.6,320.1,295.5"/>
		<path id="svg_19" inkscape:connector-curvature="0" class="st1" d="M320.1,367.1v95.3c0,10-10.7,12.7-10.7,12.7h126.5
			c50.7,0,33.3-29.8,33.3-29.8s-9.9,17.3-39.9,17.3h-71.5v-60.4L320.1,367.1"/>
		<path id="svg_20" inkscape:connector-curvature="0" class="st1" d="M281.9,322.3c0,0,13.1-6.5,13.1-18.3
			c0-11.5-14.4-17.7-31.5-20.9v14.4C275.4,302.9,281.1,311.8,281.9,322.3"/>
		<path id="svg_21" inkscape:connector-curvature="0" class="st1" d="M150.9,445.2c0,17,32.3,32.3,77.9,32.3
			c57.1,0,80.9-29.6,80.9-57.6c0-60-124.3-58.8-124.3-98.3c0-10.3,7.8-18.7,18.7-24v-14.2c-25.6,6-50,20.8-50,46.9
			c0,55.6,120.4,53.8,120.4,97.5c0,22.5-15.7,37.9-45.8,37.9c-34.1,0-62.9-17.7-55.8-44.2C173,421.6,150.9,426.7,150.9,445.2"/>
		<path id="svg_22" inkscape:connector-curvature="0" class="st1" d="M243.2,592.7c0,0-2.2,14.6,8.4,27.8l2.6-8.1
			C254.2,612.4,244.7,603.8,243.2,592.7"/>
		<path id="svg_23" inkscape:connector-curvature="0" class="st1" d="M297.7,654.4c0,0,13.2,6.6,29,0.6l-6.9-5
			C319.8,650.1,308.7,656.5,297.7,654.4"/>
		<path id="svg_24" inkscape:connector-curvature="0" class="st1" d="M375.9,599.3c0,0,2.6,12.6-2.7,22.4c0,0,10.4-10.5,9.6-27.4
			L375.9,599.3"/>
		<path id="svg_25" inkscape:connector-curvature="0" class="st1" d="M342.3,522.2l2.6,8.1c0,0,12.8,1.4,20.5,9.5
			C365.4,539.8,358.7,526.7,342.3,522.2"/>
		<path id="svg_26" inkscape:connector-curvature="0" class="st1" d="M285.1,521.8c0,0-14.6,2.4-23.9,16.6h8.5
			C269.7,538.4,275,526.7,285.1,521.8"/>
		<path id="svg_27" inkscape:connector-curvature="0" class="st1" d="M332.2,565.8l7.2-16.2l-13.2,11.9h-26.7l-13.2-11.9l7.2,16.2
			l-8.3,25.4l-15.4,8.9l17.7-1.9l21.6,15.7l3.7,17.4l3.7-17.4l21.6-15.7l17.7,1.9l-15.4-8.9L332.2,565.8 M307.1,576.7l-14.7,19.6
			l8.6-27.6h27.6L307.1,576.7z"/>
		<path id="svg_28" inkscape:connector-curvature="0" class="st2" d="M356,287.1c0-27.7-27.1-41.6-67.6-41.6h-32.2v83.1h32.2
			C327.9,328.7,356,309.6,356,287.1 M281.9,322.3c-0.8-10.5-6.5-19.3-18.4-24.8v-14.4c17.1,3.1,31.5,9.4,31.5,20.9
			C294.9,315.8,281.9,322.3,281.9,322.3z M320.1,316.2v-20.7c0-10-10.7-12.7-10.7-12.7h38.9c0.2,1.4,0.3,2.8,0.3,4.3
			C348.6,298.2,338.2,309.8,320.1,316.2z"/>
		<polyline id="svg_29" class="st2" points="487.4,725.8 495.7,725.8 495.7,750.9 498.8,750.9 498.8,725.8 507.5,725.8 507.5,722.8 
			487.4,722.8 487.4,725.8 		"/>
		<polyline id="svg_30" class="st2" points="523.5,745.7 516.3,722.8 511.5,722.8 511.5,750.9 514.5,750.9 514.5,727.1 522,750.9 
			525,750.9 532.6,727.1 532.6,750.9 535.5,750.9 535.5,722.8 530.7,722.8 523.5,745.7 		"/>
	</g>
</g>
</svg>
