<?xml version="1.0" encoding="utf-8"?>
<!-- Generator: Adobe Illustrator 15.0.0, SVG Export Plug-In . SVG Version: 6.00 Build 0)  -->
<!DOCTYPE svg PUBLIC "-//W3C//DTD SVG 1.1//EN" "http://www.w3.org/Graphics/SVG/1.1/DTD/svg11.dtd">
<svg version="1.1" id="Layer_1" xmlns="http://www.w3.org/2000/svg" xmlns:xlink="http://www.w3.org/1999/xlink" x="0px" y="0px"
	 width="500px" height="627.519px" viewBox="0 0 500 627.519" enable-background="new 0 0 500 627.519" xml:space="preserve">
<polygon points="360.08,616.979 355.795,616.979 355.795,627.519 353.09,627.519 353.09,616.999 348.772,616.999 348.772,614.294 
	360.08,614.294 "/>
<polygon points="374.397,627.519 371.692,627.519 371.692,619.079 367.965,624.508 364.219,619.079 364.219,627.519 
	361.513,627.519 361.513,614.294 364.201,614.294 367.947,619.722 371.729,614.294 374.397,614.294 "/>
<path d="M486.19,33.001C474.986,29.623,373.168,0,250,0C126.824,0,25.014,29.623,13.811,33.001L0,37.165v14.423v268.734
	c0,50.478,13.844,99.731,41.147,146.393c27.665,47.276,61.779,78.706,79.652,93.235c58.438,47.496,117.291,64.136,126.457,65.444
	l2.744,0.392l2.745-0.392c9.166-1.309,68.019-17.949,126.456-65.444c17.874-14.529,51.988-45.958,79.653-93.235
	C486.155,420.053,500,370.8,500,320.322V51.588V37.165L486.19,33.001z"/>
<path fill="#FFFFFF" d="M250,19.414c-121.475,0-222.474,29.729-230.586,32.175c0,0,0,267.094,0,268.734
	c0,104.537,64.762,184.841,113.63,224.562C188.058,589.596,244.009,605.32,250,606.176c5.991-0.855,61.943-16.58,116.956-61.292
	c48.868-39.72,113.63-120.024,113.63-224.562c0-1.64,0-268.734,0-268.734C472.475,49.143,371.475,19.414,250,19.414z"/>
<path d="M466.44,320.322c0,44.441-12.298,87.991-36.553,129.443c-24.989,42.706-55.745,71.048-71.854,84.141
	c-10.713,8.706-21.406,16.188-31.544,22.576l-64.014-115.869c-0.797,0.138-1.606,0.259-2.413,0.373
	c-3.301,0.458-6.672,0.716-10.111,0.716c-40.095,0-72.599-32.505-72.599-72.605c0-17.987,6.557-34.431,17.387-47.114l-0.006-0.013
	c0.444-0.521,0.88-1.05,1.338-1.558l-67.958-123.027h-15.676l67.23,121.701c-10.09,14.114-16.041,31.377-16.041,50.011
	c0,47.605,38.731,86.331,86.326,86.331c1.664,0,3.308-0.054,4.947-0.147l59.823,108.289c-11.109,6.384-21.188,11.354-29.367,15.03
	c-17.426,7.835-30.294,11.763-35.354,13.089c-5.06-1.326-17.927-5.253-35.354-13.089c-18.06-8.118-45.329-22.463-72.679-44.691
	c-16.109-13.094-46.865-41.436-71.854-84.142C45.858,408.314,33.56,364.763,33.56,320.322V62.289
	c11.877-3.209,33.371-8.597,61.232-13.8C147.857,38.583,200.077,33.56,250,33.56c49.923,0,102.144,5.024,155.209,14.93
	c27.859,5.201,49.354,10.591,61.231,13.8V320.322z"/>
<path fill="#0067B1" d="M405.209,48.49C352.144,38.583,299.923,33.56,250,33.56c-49.923,0-102.143,5.024-155.208,14.93
	c-27.861,5.202-49.355,10.591-61.232,13.8v258.033c0,44.441,12.298,87.992,36.553,129.443
	c24.989,42.706,55.745,71.048,71.854,84.142c27.35,22.228,54.619,36.573,72.679,44.691c17.426,7.835,30.293,11.763,35.354,13.089
	c5.06-1.326,17.927-5.253,35.354-13.089c8.18-3.676,18.258-8.646,29.367-15.03l-2.29-4.146c-4.86,2.794-9.526,5.322-13.91,7.575
	l-52.104-94.373c-1.9-0.064-3.78-0.175-5.646-0.337l0.009,0.016c-52.925-4.647-94.445-49.074-94.445-103.207
	c0-17.006,4.127-33.048,11.397-47.207c0.38-0.729,0.766-1.457,1.158-2.182c0.1-0.186,1.13-2.049,1.563-2.781l-65.999-119.54H89
	l65.991,119.531c-8.547,15.486-13.425,33.272-13.425,52.179c0,57.606,45.174,104.812,101.948,108.161l50.738,91.897
	c-3.889,1.927-7.523,3.633-10.84,5.125c-16.937,7.615-29.188,11.322-33.411,12.5c-4.224-1.178-16.471-4.884-33.411-12.5
	c-17.802-8.002-44.681-22.142-71.633-44.047c-15.86-12.892-46.141-40.798-70.753-82.859c-23.825-40.714-35.905-83.459-35.905-127.05
	V65.928c13.008-3.432,32.663-8.17,57.364-12.781C148.443,43.293,200.37,38.298,250,38.298c49.631,0,101.558,4.996,154.34,14.85
	c24.695,4.61,44.353,9.349,57.364,12.781v254.394c0,43.589-12.081,86.335-35.906,127.05c-24.612,42.064-54.893,69.968-70.752,82.858
	c-10.473,8.512-20.928,15.839-30.85,22.1l2.293,4.151c10.139-6.388,20.832-13.87,31.544-22.576
	c16.109-13.093,46.865-41.435,71.854-84.141c24.255-41.452,36.553-85.001,36.553-129.443V62.289
	C454.563,59.081,433.068,53.691,405.209,48.49z"/>
<polygon fill="#0067B1" points="397.626,197.385 346.742,197.385 371.188,245.572 "/>
<path fill="#0067B1" d="M133.554,197.385l65.836,119.313c10.934-10.531,25.142-17.673,40.955-19.758l-53.751-99.555H133.554z"/>
<polygon fill="#0067B1" points="317.822,342.546 317.906,342.696 344.546,294.135 294.203,197.385 240.744,197.385 310.078,327.959 
	"/>
<polygon fill="#0067B1" points="344.544,294.156 436.279,294.156 436.279,245.59 371.183,245.59 "/>
<path fill="#0067B1" d="M317.892,342.719c3.209,8.216,4.986,17.143,4.986,26.489c0,7.697-1.198,15.108-3.407,22.077H424
	c5.608-15.995,9.308-32.211,11.072-48.57H317.893L317.892,342.719z"/>
<path fill="#0067B1" d="M293.753,488.399h69.184c11.939-12.394,25.439-28.617,37.724-48.562H266.959L293.753,488.399z"/>
<path fill="#FFFFFF" d="M249.267,300.472l-2.491,11.518c-10.681,4.999-18.263,12.773-18.263,12.773
	c-6.153,0.212-15.379,0.775-24.811,2.253c-0.979-3.085-1.184-6.17-1.223-7.329C215.126,307.483,231.709,300.682,249.267,300.472
	 M250.956,300.472l2.486,11.518c10.689,4.999,18.263,12.773,18.263,12.773c6.159,0.212,15.387,0.775,24.814,2.253
	c0.979-3.085,1.187-6.17,1.229-7.329C285.098,307.483,268.512,300.682,250.956,300.472"/>
<path fill="#D8D9DA" d="M279.918,378.724c-3.204,9.465-11.561,23.929-13.502,27.241c-1.817,0.381-8.543,1.645-16.978,1.645
	c-5.589,0-10.842-0.55-15.627-1.64c-1.937-3.303-10.292-17.778-13.5-27.246c3.07-4.599,10.797-15.634,19.258-23.698h21.09
	C269.117,363.09,276.844,374.125,279.918,378.724 M225.718,330.807c-8.553-1.637-17.487-2.032-22.222-2.118
	c-8.038,10.037-13.56,22.265-14.901,25.379c1.817,11.557,7.266,21.913,8.346,23.808c3.727,0.332,7.604,0.5,11.545,0.5
	c5.319,0,9.2-0.303,10.632-0.43c5.201-13.631,11.892-25.617,13.458-28.367L225.718,330.807z M296.78,328.689
	c-4.75,0.085-13.711,0.48-22.286,2.124l-6.848,18.753c1.566,2.749,8.262,14.745,13.462,28.38c1.428,0.127,5.311,0.43,10.632,0.43
	c3.943,0,7.832-0.169,11.567-0.501c1.085-1.905,6.54-12.279,8.356-23.849C310.299,350.838,304.857,338.713,296.78,328.689"/>
<path fill="#ADAFB2" d="M195.325,405.738l-2.518,1.129c-7.407-11.216-11.324-24.268-11.324-37.771c0-4.488,0.433-8.971,1.29-13.341
	c0.813-0.013,2.412-0.106,4.435-0.5c0.469,3.458,2.313,14.679,7.686,25.066C193.721,384.238,192.044,393.142,195.325,405.738
	 M304.908,405.738l2.512,1.129c7.411-11.216,11.328-24.268,11.328-37.771c0-4.488-0.432-8.971-1.292-13.341
	c-0.813-0.013-2.415-0.106-4.435-0.5c-0.465,3.458-2.312,14.679-7.686,25.066C306.51,384.238,308.183,393.142,304.908,405.738"/>
<path fill="#717073" d="M218.315,423.226c1.708,5.194,2.905,7.524,3.387,8.349c-11.155-5.079-20.695-13.014-27.763-23.083
	l2.388-0.521C202.13,415.69,214.434,421.516,218.315,423.226 M281.935,423.226c-1.707,5.194-2.898,7.524-3.384,8.349
	c11.155-5.079,20.696-13.014,27.764-23.083l-2.385-0.521C298.125,415.69,285.822,421.516,281.935,423.226"/>
<path fill="#919195" d="M278.449,421.941c-0.97-0.963-2.475-2.479-4.092-4.205c-3.404-3.634-5.911-6.932-7.469-9.338
	c-16.584,3.981-30.232,0.853-33.548-0.055c-3.205,4.972-9.696,11.782-12.257,14.282c0.219,1.607,0.911,6.109,2.246,9.368
	c0.063,0.138,0.117,0.256,0.181,0.39c8.431,3.546,17.377,5.343,26.603,5.343c9.071,0,17.878-1.741,26.203-5.179
	c1.582-3.502,2.351-8.891,2.522-10.219C278.715,422.203,278.595,422.085,278.449,421.941"/>
<path fill="#A7A9AC" d="M194.893,380.32c-5.374-10.387-7.218-21.608-7.686-25.066c-2.024,0.394-3.621,0.487-4.435,0.5
	c-0.856,4.37-1.291,8.853-1.291,13.341c0,13.501,3.92,26.556,11.328,37.771l2.516-1.129
	C192.044,393.142,193.72,384.238,194.893,380.32"/>
<path d="M196.327,407.974l-2.388,0.519c7.069,10.068,16.607,18.001,27.763,23.083c-0.483-0.825-1.678-3.157-3.387-8.347
	C214.434,421.518,202.13,415.692,196.327,407.974"/>
<path fill="#FFFFFF" d="M214.223,170.137h5.65v10.818c-0.016,1.025-0.037,2.457-1.177,3.618c-1.212,1.233-2.889,1.293-4.474,1.338
	h-3.24v-3.728h1.274c1.204-0.042,1.903-0.087,1.965-1.633V170.137z"/>
<path fill="#FFFFFF" d="M237.769,170.476c3.621,1.472,4.894,4.781,4.894,7.487c0,1.473-0.353,2.993-1.14,4.287
	c-0.493,0.826-1.112,1.544-1.876,2.125c-2.142,1.698-4.69,2.099-7.55,2.099c-5.501,0-7.758-1.947-8.915-3.528
	c-1.075-1.434-1.503-2.954-1.503-4.762c0-1.764,0.448-3.514,1.455-4.938c2.211-3.128,5.965-3.642,8.762-3.687
	C233.862,169.538,235.958,169.739,237.769,170.476 M227.493,178.007c0,2.437,1.314,4.959,4.734,4.959
	c0.785,0,1.587-0.087,2.281-0.445c1.743-0.875,2.346-2.926,2.346-4.514c0-1.72-0.762-4.896-4.627-4.94
	C228.674,173.02,227.493,175.838,227.493,178.007"/>
<path fill="#FFFFFF" d="M249.917,174.205c0,0.226,0.063,0.425,0.175,0.561c0.386,0.491,1.969,0.85,2.843,1.029
	c1.072,0.239,2.17,0.446,3.24,0.692c0.693,0.13,1.362,0.292,2.031,0.562c2.104,0.776,2.773,2.346,2.773,3.771
	c0,1.05-0.359,2.014-0.829,2.704c-1.314,1.99-3.976,2.86-8.222,2.86c-1.587,0-4.738-0.133-6.592-1.787
	c-1.359-1.207-1.566-2.66-1.652-3.373l5.56-0.158c0.199,1.031,1.254,1.813,3.491,1.813c0.58,0,1.405-0.07,1.964-0.379
	c0.379-0.225,0.786-0.669,0.786-1.209c0-0.737-0.606-1.05-1.052-1.209c-0.691-0.22-4.247-0.847-5.03-1.027
	c-0.622-0.132-1.208-0.286-1.806-0.491c-0.605-0.219-3.13-1.119-3.13-3.999c0-1.186,0.49-2.278,1.274-3.084
	c1.762-1.834,4.937-2.01,6.674-2.01c1.929,0,3.826,0.269,4.809,0.603c2.952,0.935,3.333,3.15,3.486,3.999l-5.537,0.313
	c-0.141-0.517-0.407-1.452-2.771-1.452C251.658,172.933,249.917,173.045,249.917,174.205"/>
<polygon fill="#FFFFFF" points="279.27,170.137 279.27,173.695 268.295,173.695 268.295,176.261 278.438,176.261 278.438,179.84 
	268.274,179.84 268.274,182.341 279.491,182.341 279.491,185.912 262.643,185.912 262.643,170.137 "/>
<path fill="#FFFFFF" d="M151.861,174.205c0,0.226,0.068,0.425,0.18,0.561c0.379,0.491,1.97,0.85,2.839,1.029
	c1.074,0.239,2.167,0.446,3.239,0.692c0.695,0.13,1.361,0.292,2.03,0.562c2.104,0.776,2.776,2.346,2.776,3.771
	c0,1.05-0.359,2.014-0.827,2.704c-1.322,1.99-3.979,2.86-8.225,2.86c-1.583,0-4.733-0.133-6.591-1.787
	c-1.359-1.207-1.563-2.66-1.65-3.373l5.561-0.158c0.202,1.031,1.254,1.813,3.487,1.813c0.583,0,1.404-0.07,1.965-0.379
	c0.381-0.225,0.784-0.669,0.784-1.209c0-0.737-0.604-1.05-1.049-1.209c-0.695-0.22-4.247-0.847-5.032-1.027
	c-0.623-0.132-1.206-0.286-1.813-0.491c-0.593-0.219-3.125-1.119-3.125-3.999c0-1.186,0.493-2.278,1.281-3.084
	c1.76-1.834,4.935-2.01,6.676-2.01c1.917,0,3.821,0.269,4.804,0.603c2.95,0.935,3.333,3.15,3.486,3.999l-5.542,0.313
	c-0.131-0.517-0.404-1.452-2.769-1.452C153.603,172.933,151.861,173.045,151.861,174.205"/>
<polygon fill="#FFFFFF" points="195.446,170.137 195.559,178.769 187.92,170.137 183.248,170.137 183.248,183.224 184.416,185.912 
	188.832,185.912 188.745,177.223 196.315,185.912 201.01,185.912 201.01,170.137 "/>
<polygon fill="#FFFFFF" points="175.973,170.137 169.535,170.137 162.747,185.912 168.933,185.912 172.773,174.518 174.633,179.861 
	172.408,179.861 171.235,183.346 175.822,183.346 176.664,185.912 182.812,185.912 "/>
<rect x="63.728" y="175.614" fill="#FFFFFF" width="70.854" height="4.751"/>
<path fill="#FFFFFF" d="M273.333,92.866h17.003v65.168h-13.311l-3.692-11.365V92.866z M329.354,92.866h-19.88l-18.951,31.327
	l20.475,33.845h19.88l-20.476-33.845L329.354,92.866z"/>
<polygon fill="#FFFFFF" points="254.684,158.024 251.949,149.713 232.897,149.713 237.366,136.121 247.474,136.121 239.962,113.01 
	225.236,158.024 207.96,158.024 229.385,92.908 250.624,92.908 272.058,158.024 "/>
<path fill="#FFFFFF" d="M180.418,145.127c-3.548,0-6.586-1.125-8.539-3.166c-3.171-3.094-3.171-7.071-3.171-9.98V92.908h-17.255
	v36.901l0.002,0.283c0.192,7.305,0.389,14.865,7,21.302c5.9,5.657,12.617,8.184,21.758,8.184c10.386,0,16.064-3.278,21.284-8.202
	c8.022-7.637,8.022-18.067,8.022-26.302V92.908h-17.193v39.072c0,2.909,0,6.899-3.314,10.099
	C187.79,143.218,184.956,145.127,180.418,145.127"/>
<path fill="#FFFFFF" d="M136.71,144.131c3.281-4.232,5.522-8.626,6.971-13.189c1.479-4.679,2.127-9.223,2.127-13.63
	c0-5.787-1.01-11.239-3.216-16.372c-2.209-5.142-5.078-9.604-8.882-13.41c-3.814-3.799-8.266-6.822-13.374-9.07
	c-5.1-2.239-10.584-3.367-16.451-3.367c-5.864,0-11.349,1.103-16.451,3.314c-5.102,2.197-9.575,5.223-13.426,9.064
	c-3.844,3.844-6.73,8.328-8.939,13.469c-2.209,5.133-3.218,10.585-3.218,16.372c0,5.854,1.008,11.333,3.218,16.427
	c2.209,5.099,5.095,9.547,8.939,13.347c3.851,3.806,8.324,6.806,13.426,9.017c5.102,2.207,10.586,3.308,16.451,3.308
	c3.198,0,6.344-0.341,9.426-1.028c3.089-0.684,6.227-1.786,9.432-3.308l0.141-0.11l0.098,0.167l1.795,2.841h20.713l-8.616-13.583
	L136.71,144.131z M79.074,117.255c0-13.8,10.955-24.988,24.757-24.988c5.176,0,9.948,1.573,13.895,4.264
	c0.149,0.106,0.292,0.216,0.437,0.317c0.178,0.126,0.354,0.25,0.527,0.378c6.025,4.556,9.887,11.828,9.887,20.022
	c0,4.331-1.078,8.401-2.984,11.949h-19.313l6.949,10.771l0.178,0.271l-0.156,0.136c-0.229,0.095-0.459,0.188-0.692,0.277
	c-0.083,0.029-0.166,0.062-0.248,0.093c-0.25,0.091-0.5,0.174-0.751,0.256c-0.145,0.047-0.288,0.098-0.433,0.14
	c-0.213,0.065-0.428,0.123-0.643,0.184c-0.18,0.051-0.354,0.102-0.535,0.148c-0.208,0.051-0.419,0.098-0.626,0.144
	c-0.187,0.042-0.371,0.087-0.56,0.125c-0.238,0.049-0.474,0.089-0.718,0.13c-0.158,0.029-0.317,0.059-0.477,0.084
	c-0.314,0.047-0.631,0.084-0.948,0.118c-0.091,0.013-0.18,0.026-0.271,0.037c-0.834,0.083-1.678,0.125-2.535,0.125
	c-0.428,0-0.853-0.011-1.275-0.029C89.354,141.533,79.074,130.626,79.074,117.255"/>
<path fill="#FFFFFF" d="M411.911,116.831c-5.263-1.01-8.71-2.079-8.71-5.645c0-3.02,2.685-4.754,7.363-4.754
	c1.592,0,7.125,0.177,11.408,2.457c2.412,1.338,3.536,2.812,4.441,4.025l11.07-10.113c-2.027-2.271-4.164-4.602-8.322-6.811
	c-4.958-2.669-11.152-4.077-17.917-4.077c-12.112,0-21.012,4.736-24.412,12.996c-1.061,2.471-1.644,5.355-1.644,8.127
	c0,12.475,9.114,16.607,15.97,18.525c0.847,0.22,2.783,0.623,5.021,1.09c4.137,0.866,9.284,1.944,10.694,2.501
	c3.207,1.128,3.681,3.343,3.681,4.562c0,5.014-7.33,5.401-9.575,5.401c-2.919,0-6.062-0.549-8.622-1.5
	c-2.765-0.975-4.532-2.176-5.812-3.443c-0.812-0.809-1.516-1.635-2.14-2.471c-0.054-0.077-0.184-0.271-0.37-0.558
	c-0.247-0.381-0.45-0.734-0.45-0.734l-12.137,8.023h-29.89v-13.421h23.216v-13.597h-23.216V106.51h27.861V92.908h-44.846v65.117
	h47.499v-9.664c2.78,3.283,7.068,7.277,14.394,9.537c4.099,1.292,8.623,1.917,13.832,1.917c10.076,0,17.689-2.755,22.618-8.202
	c2.391-2.621,5.234-7.216,5.234-14.21C438.149,121.665,424.806,119.211,411.911,116.831"/>
<rect x="364.223" y="175.614" fill="#E31837" width="72.05" height="4.751"/>
<path fill="#E31837" d="M290.127,172.452c2.65-0.294,3.867-1.192,4.984-2.046h3.948v15.214h-5.251v-9.935h-3.681V172.452z"/>
<path fill="#E31837" d="M309.409,180.484c-3.701,0-6.802-1.461-6.802-4.913c0-1.484,0.7-3.368,3.053-4.444
	c2.087-0.942,5.206-0.989,5.791-0.989c5.275,0,8.688,2.176,8.688,7.498c0,1.684-0.316,4.667-2.921,6.641
	c-1.973,1.479-4.417,1.682-6.635,1.682c-1.241,0-2.792-0.089-4.357-0.582c-2.43-0.767-3.233-2.088-3.636-3.589l5.879-0.141
	c0.355,0.43,0.825,0.99,2.267,0.99c0.92,0,1.862-0.199,2.577-0.784c1.212-0.988,1.325-2.471,1.347-3.119
	C313.872,179.407,312.666,180.484,309.409,180.484 M307.995,175.346c0,1.838,2.469,1.859,3.118,1.859c2.222,0,3.37-0.603,3.37-1.839
	c0-1.48-1.258-1.974-3.523-1.906C309.769,173.505,307.995,173.729,307.995,175.346"/>
<path fill="#E31837" d="M346.044,170.787h6.059v8.826h2.633v3.556h-2.683v2.743h-5.026v-2.743h-9.924v-3.31L346.044,170.787z
	 M347.047,174.788l-4.777,4.826h4.777V174.788z"/>
<path fill="#E31837" d="M338.557,173.693c-9.592,6.363-9.269,12.219-9.269,12.219H323.3c0,0,0.403-7.927,10.058-12.219h-11.492
	v-3.556h16.69V173.693z"/>
<line fill="none" x1="177.353" y1="369.095" x2="322.878" y2="369.095"/>
</svg>
