<?xml version="1.0" encoding="utf-8"?>
<!-- Generator: Adobe Illustrator 21.1.0, SVG Export Plug-In . SVG Version: 6.00 Build 0)  -->
<!DOCTYPE svg PUBLIC "-//W3C//DTD SVG 1.1//EN" "http://www.w3.org/Graphics/SVG/1.1/DTD/svg11.dtd">
<svg version="1.1" id="Layer_1" xmlns="http://www.w3.org/2000/svg" xmlns:xlink="http://www.w3.org/1999/xlink" x="0px" y="0px"
	 width="300px" height="280.3px" viewBox="0 0 300 280.3" style="enable-background:new 0 0 300 280.3;" xml:space="preserve">
<style type="text/css">
	.st0{fill:#FFFFFF;}
	.st1{fill:#B0B7BB;}
	.st2{fill:#E31937;}
	.st3{fill:#455560;}
</style>
<g>
	<path class="st0" d="M279.6,160.6v-9.4c0,0-5.7-1.2-15.3-3l4-14.2c0,0-9.6-3.1-27.8-6.4V57.7c0,0-17.9-3.2-43.6-5.5l4.7-14.9
		L185,25.4l-3.5-10.8l-5.8,4.2l2.2-6.8h-11.4L150,0l-16.5,12h-11.4l2.2,6.8l-5.8-4.2L115,25.4L98.5,37.3l4.7,14.9
		c-25.7,2.3-43.6,5.5-43.6,5.5v69.7c-18.2,3.3-27.8,6.4-27.8,6.4l3.9,14.2c-9.6,1.8-15.3,3-15.3,3v9.4L0,182.3l20.5,14.5v11.5
		c0,0,16.1-3,39.3-6.2c3.9,54.4,90.2,78.2,90.2,78.2s86.3-23.8,90.3-78.2c23.1,3.2,39.3,6.2,39.3,6.2v-11.5l20.4-14.5 M102.1,121.9
		c-7.4,0.6-14.1,1.4-20.3,2.1l9.9-12.8c3.5-0.3,6.9-0.7,10.4-1L102.1,121.9L102.1,121.9z M87,107.5l-8.3,11.8V86.7
		c15.6-2.1,42.3-4.8,71.4-4.8c29.1,0,55.8,2.8,71.3,4.8v32.6l-8.3-11.8c-12.7-1.5-29.8-3-48.6-3.6V120c-4.7-0.1-9.5-0.1-14.4-0.1
		c-4.9,0-9.7,0.1-14.3,0.1v-16.1C116.8,104.4,99.7,105.9,87,107.5z M198,110.2c3.4,0.3,6.8,0.7,10.4,1l9.9,12.8
		c-6.2-0.8-13-1.5-20.2-2.1L198,110.2L198,110.2z M156,76.9l12.4-9.1c37.7,1.4,67.6,6.4,67.6,6.4v52.4c-2.9-0.5-6.1-1-9.4-1.5V82.3
		C213.8,80.6,186.5,77.3,156,76.9z M64,61.4c0,0,18.7-3.1,45.1-5.1l-5.4-17.2l15.1-10.9l2-6.5l11.9,8.6l-4.6-14h6.7l15.1-11l15.1,11
		h6.7l-4.5,14l11.9-8.6l2.1,6.5l15.1,10.9l-5.4,17.2c26.5,2,45.1,5.1,45.1,5.1V70c0,0-30.7-5.2-69.2-6.5L150,75.6l-16.7-12.2
		C94.7,64.8,64,70,64,70V61.4z M64,74.3c0,0,29.9-5,67.7-6.4l12.4,9.1c-30.5,0.3-57.8,3.7-70.7,5.4v42.8c-3.3,0.5-6.5,1-9.4,1.5
		C64,126.7,64,74.3,64,74.3z M150,124.3c69.5,0,112.8,12.7,112.8,12.7l-5.5,20l5.5,24.7c0,0-43.3-12.6-112.8-12.6
		c-69.5,0-112.7,12.6-112.7,12.6l5.5-24.7l-5.5-20C37.3,137,80.5,124.3,150,124.3z M240.4,181.3c9.4,1.8,16.5,3.5,21.2,4.7
		l-21.2,8.5V181.3z M177.7,195.8h11.9v3h-11.9c-2.9,0-5.1-1.8-5.1-4.1V190c0-2.2,2.2-4.1,5.1-4.1h11.9v3.8l-1.3-0.8h-10.6
		c-0.8,0-1.5,0.6-1.5,1.1v4.7C176.3,195.3,176.9,195.8,177.7,195.8z M193.8,227.6v11.7c-5.1,3.5-10.5,6.7-15.8,9.6l-9.5-7.9
		C178.7,236.8,187,232.2,193.8,227.6z M173.9,251c-10,5-19.1,8.4-23.9,10c-4.7-1.6-13.8-5-23.9-10l9.6-7.9v-69.4
		c4.6-0.1,9.4-0.2,14.3-0.2c4.9,0,9.7,0.1,14.4,0.2v69.4L173.9,251z M78.6,187v-8.8c7.1-1,15-1.9,23.5-2.6v41.7
		C102.1,217.3,80.8,202.3,78.6,187z M102.1,224.8v11.6c-12.2-9.4-22.1-21.2-23.3-35.2C82.2,206.6,89.2,215.5,102.1,224.8z
		 M124.7,190.9v3h-9.8v3.9l1.1,1h-6l1.3-1V187l-1.3-1.1h17.7v3.8l-1.3-0.8h-11.5v2L124.7,190.9L124.7,190.9z M106.2,227.6
		c6.8,4.5,15.2,9.2,25.3,13.4L122,249c-5.3-2.8-10.7-6-15.8-9.6L106.2,227.6L106.2,227.6z M198,224.8c12.9-9.3,19.8-18.2,23.3-23.6
		c-1.2,14-11.1,25.8-23.3,35.2V224.8z M198,217.3v-41.7c8.5,0.7,16.3,1.6,23.4,2.6v8.8C219.3,202.3,198,217.3,198,217.3z
		 M59.6,194.5L38.3,186c4.8-1.2,12-2.9,21.3-4.7V194.5z M24.9,203v-8.5L6.7,181.7l18.2-19.3v-7.5c0,0,4.5-0.9,12.1-2.4l1.3,4.7
		l-7,30.9l25.2,10C37.6,200.7,24.9,203,24.9,203z M236,198.3c0,52.7-86,77.4-86,77.4S64,251,64,198.3v-17.7c2.9-0.5,6-1,9.4-1.6
		v19.3c0,40.5,63.1,63.2,76.6,67.6c13.6-4.4,76.6-27.1,76.6-67.6V179c3.3,0.6,6.4,1.1,9.4,1.6V198.3z M275.2,194.5v8.5
		c0,0-12.7-2.3-31.6-5l25.1-10l-6.8-30.9l1.3-4.7c7.5,1.5,12,2.4,12,2.4v7.5l18.2,19.3L275.2,194.5z"/>
	<polyline class="st0" points="124.3,34.7 113.7,42.4 118,55.6 130.7,54.9 134.8,42.4 	"/>
	<polyline class="st0" points="156.5,36 160.5,23.6 150,16 139.4,23.6 143.5,36 	"/>
	<polyline class="st0" points="182,55.6 186.3,42.4 175.7,34.7 165.3,42.4 169.3,54.9 	"/>
	<polyline class="st0" points="160.5,57.6 156.5,45.2 143.5,45.2 139.4,57.6 150,65.2 	"/>
	<path class="st0" d="M142.4,156.9h12.5c3.1,0,5.7-2.5,5.7-5.6v-11.4c0-3.1-2.6-5.6-5.7-5.6h-12.5c-3.1,0-5.7,2.5-5.7,5.6v11.4
		C136.7,154.3,139.3,156.9,142.4,156.9 M141.4,139.8c0-0.6,0.6-1.1,1.1-1.1h12.2c0.6,0,1.2,0.5,1.2,1.1v11.5c0,0.6-0.5,1.1-1.2,1.1
		h-12.2c-0.6,0-1.1-0.5-1.1-1.1V139.8z"/>
	<path class="st0" d="M229.5,162.7l12.5,2.1c3.1,0.5,5.6-1.5,5.6-4.7v-11.2c0-3.2-2.5-6.1-5.6-6.6l-12.5-2.1
		c-3.1-0.6-5.7,1.5-5.7,4.6v11.3C223.7,159.2,226.4,162.2,229.5,162.7 M228.4,145.6c0-0.7,0.6-1.1,1.1-1.1l12.2,2.1
		c0.7,0.1,1.2,0.7,1.2,1.4v11.3c0,0.7-0.5,1.1-1.2,1l-12.2-2.1c-0.6-0.1-1.1-0.8-1.1-1.4V145.6z"/>
	<path class="st0" d="M83.1,160.9l12.5-1.3c3.1-0.4,5.7-3.2,5.7-6.4V142c0-3.1-2.5-5.4-5.7-4.9l-12.5,1.3c-3.1,0.4-5.6,3.2-5.6,6.3
		v11.3C77.5,159.1,80,161.4,83.1,160.9 M82.2,144.1c0-0.7,0.4-1.2,1.1-1.3l12.1-1.3c0.7-0.1,1.2,0.3,1.2,1v11.4
		c0,0.6-0.5,1.2-1.2,1.3l-12.1,1.3c-0.6,0.1-1.1-0.3-1.1-1C82.2,155.5,82.2,144.1,82.2,144.1z"/>
	<polyline class="st0" points="59.3,146.7 59.3,162.8 57.5,165 65.8,163.5 64,161.9 64,145.8 71.7,144.4 73.6,146 73.6,139.7 
		49.7,143.9 49.7,150.2 51.6,148 	"/>
	<polyline class="st0" points="205.6,141.6 205.6,157.8 203.7,159.5 212.1,160.4 210.3,158.3 210.3,142.2 218,142.9 219.8,145 
		219.8,138.7 196,136.2 196,142.5 197.9,140.8 	"/>
	<polyline class="st0" points="164.6,157.1 172.9,157.3 171,155.3 171,140.9 184.1,157.9 192.1,158.4 190.2,156.5 190.2,137.6 
		192.1,135.8 183.7,135.3 185.5,137.2 185.5,151.8 172.4,134.7 164.6,134.5 166.4,136.4 166.4,155.3 	"/>
	<path class="st0" d="M105.3,158.7l8.3-0.6l-1.8-1.7v-5l13.3-0.7c0.6,0,1.2,0.5,1.2,1.1v3.9l-1.9,2l8.4-0.4l-1.9-1.8v-3.6
		c0-1.8-1.1-3.2-2.7-3.7c1.5-0.8,2.7-2.4,2.7-4.1v-3.7c0-3.2-2.5-5.5-5.7-5.3l-20,1.2l1.8,1.7v18.9 M111.8,140l13.3-0.7
		c0.6-0.1,1.2,0.5,1.2,1.1v4.6c0,0.7-0.6,1.2-1.2,1.3l-13.3,0.8V140z"/>
	<path class="st1" d="M102.1,110.2c-3.5,0.3-6.9,0.7-10.4,1L81.8,124c6.2-0.8,12.9-1.5,20.3-2.1"/>
	<path class="st1" d="M78.6,187c2.1,15.2,23.5,30.3,23.5,30.3v-41.7c-8.5,0.7-16.4,1.6-23.5,2.6"/>
	<path class="st1" d="M106.2,239.4c5.1,3.5,10.5,6.7,15.8,9.6l9.5-7.9c-10.1-4.2-18.4-8.9-25.3-13.4"/>
	<path class="st1" d="M208.3,111.2c-3.5-0.3-7-0.7-10.4-1v11.7c7.2,0.6,14.1,1.4,20.2,2.1"/>
	<path class="st1" d="M198,217.3c0,0,21.3-15,23.4-30.3v-8.8c-7.1-1-14.9-1.9-23.4-2.6"/>
	<path class="st1" d="M178.1,249c5.3-2.8,10.7-6,15.8-9.6v-11.7c-6.8,4.5-15.1,9.2-25.2,13.4"/>
	<path class="st1" d="M144.1,142.5c0-0.6,0.6-1.1,1.2-1.1h9v-1.3h-10.3c-0.7,0-1.2,0.6-1.2,1.2v9.7h1.2"/>
	<path class="st1" d="M162.1,139.8v11.4c0,3.9-3.3,7.1-7.2,7.1h-12.5c-0.2,0-0.6-0.1-0.9-0.1c1,0.8,2.2,1.3,3.6,1.3h11
		c4,0,7.1-3.2,7.1-7.2v-9.9c0-1.3-0.4-2.6-1.3-3.6C162,139.3,162.1,139.6,162.1,139.8"/>
	<path class="st1" d="M231.2,148.7c0-0.6,0.5-1.1,1.1-0.9l9.2,1.5v-1.2l-10.3-1.8c-0.6-0.1-1.2,0.3-1.2,1v9.6l1.3,0.2"/>
	<path class="st1" d="M249,148.3c0,0.3,0.1,0.6,0.1,0.8v11.3c0,3.9-3.2,6.6-7.2,5.9l-12.5-2.2c-0.3,0-0.6-0.1-0.9-0.2
		c1,1,2.2,1.7,3.5,1.9l11,1.9c3.9,0.8,7.2-2,7.2-5.9v-9.8C250.3,150.7,249.8,149.4,249,148.3"/>
	<path class="st1" d="M83.7,145.4v9.6l1.2-0.2v-8.4c0-0.6,0.6-1.2,1.2-1.3l9.1-1v-1.2l-10.4,1.1C84.2,144.2,83.7,144.8,83.7,145.4"
		/>
	<path class="st1" d="M102.8,141.8v11.2c0,3.9-3.2,7.5-7.1,7.9l-12.5,1.3c-0.3,0.1-0.5,0.1-0.8,0.1c1,0.7,2.2,1,3.5,0.9l11-1.3
		c4-0.4,7.2-3.9,7.2-7.9v-9.8c0-1.3-0.4-2.5-1.2-3.5C102.8,141.2,102.8,141.5,102.8,141.8"/>
	<polyline class="st1" points="52.4,152.4 54.3,150.2 57.8,149.6 57.8,148.4 52.4,149.4 	"/>
	<polyline class="st1" points="65.5,147.1 65.5,161 66.7,162.1 66.7,148 72.2,147.1 71,146 	"/>
	<polyline class="st1" points="75,147.2 76.2,148.2 76.2,141.9 75,142.2 	"/>
	<polyline class="st1" points="61.4,165.7 60.1,167.2 68.5,165.7 67.3,164.7 	"/>
	<polyline class="st1" points="200.6,143.8 204.1,144.2 204.1,142.9 198.8,142.3 198.8,145.5 	"/>
	<polyline class="st1" points="217.4,144.4 211.7,143.8 211.7,157.9 213,159.2 213,145.1 218.6,145.7 	"/>
	<polyline class="st1" points="221.3,146.7 222.5,148 222.5,141.7 221.3,141.6 	"/>
	<polyline class="st1" points="206.4,162.5 214.8,163.4 213.6,162.1 207.7,161.4 	"/>
	<polyline class="st1" points="185.9,159.5 186.9,160.8 194.8,161.3 193.5,160 	"/>
	<polyline class="st1" points="191.6,156 192.9,157.2 192.9,140.5 194.8,138.7 191.6,138.6 	"/>
	<polyline class="st1" points="174.4,158.9 168.4,158.7 167.2,159.9 175.6,160.2 	"/>
	<polyline class="st1" points="173.7,146.9 172.5,145.2 172.5,154.8 173.7,156.1 	"/>
	<path class="st1" d="M133.6,155.8v-1.5c0-1.2-0.5-2.2-1.3-2.9c0,0,0,0.2,0,0.2v3"/>
	<polyline class="st1" points="114.5,153.9 124.8,153.3 124.8,152.1 113.3,152.8 113.3,155.6 114.5,156.8 	"/>
	<polyline class="st1" points="115.1,159.5 109.2,159.9 108,161.2 116.4,160.6 	"/>
	<path class="st1" d="M130.8,147.8c0.2,0.2,0.4,0.5,0.6,0.7c1.3-0.8,2.2-2.2,2.2-3.8v-2c0-1.4-0.5-2.6-1.3-3.5c0,0.3,0,0.5,0,0.8
		v3.8C132.4,145.3,131.8,146.7,130.8,147.8"/>
	<polyline class="st1" points="114.5,142.6 124.8,142 124.8,140.8 113.3,141.5 113.3,145.4 114.5,145.3 	"/>
	<polyline class="st1" points="128.3,158.7 127.1,160 135.5,159.7 134.3,158.5 	"/>
	<path class="st2" d="M275.2,162.3v-7.5c0,0-4.5-0.9-12-2.4l-1.3,4.7l6.8,30.9l-25.1,10c18.9,2.7,31.6,5,31.6,5v-8.5l18.2-12.9"/>
	<path class="st2" d="M38.2,157.1l-1.3-4.7c-7.6,1.5-12.1,2.4-12.1,2.4v7.5L6.7,181.7l18.2,12.9v8.5c0,0,12.7-2.3,31.6-5l-25.2-10"
		/>
	<path class="st2" d="M73.4,82.3c12.9-1.8,40.1-5.1,70.7-5.4l-12.4-9.1C94,69.2,64,74.3,64,74.3v52.4c2.9-0.5,6-1,9.4-1.5"/>
	<path class="st2" d="M236,126.7V74.3c0,0-29.9-5-67.6-6.4L156,76.9c30.5,0.3,57.8,3.7,70.7,5.4v42.8
		C229.9,125.7,233.1,126.2,236,126.7"/>
	<path class="st2" d="M226.6,198.3c0,40.5-63,63.2-76.6,67.6c-13.5-4.4-76.6-27.1-76.6-67.6V179c-3.3,0.6-6.5,1.1-9.4,1.6v17.7
		c0,52.7,85.9,77.4,85.9,77.4s86-24.6,86-77.4v-17.7c-3-0.5-6.1-1-9.4-1.6"/>
	<path class="st2" d="M150,75.6l16.8-12.2C205.3,64.8,236,70,236,70v-8.6c0,0-18.6-3.1-45.1-5.1l5.4-17.2l-15.1-10.9l-2.1-6.5
		l-11.9,8.6l4.5-14h-6.7L150,5.5l-15.1,11h-6.7l4.6,14l-11.9-8.6l-2,6.5l-15.1,10.9l5.4,17.2c-26.4,2-45.1,5.1-45.1,5.1V70
		c0,0,30.7-5.2,69.3-6.5 M175.7,34.7l10.6,7.7L182,55.6l-12.7-0.7l-4-12.5L175.7,34.7z M150,16l10.6,7.7l-4,12.4h-13.1l-4-12.4
		L150,16z M143.5,45.2h13.1l4,12.4L150,65.2l-10.5-7.6L143.5,45.2z M118,55.6l-4.3-13.2l10.5-7.7l10.5,7.7l-4.1,12.5L118,55.6z"/>
	<path class="st2" d="M229.6,158.3l12.2,2.1c0.7,0.1,1.2-0.3,1.2-1V148c0-0.7-0.5-1.3-1.2-1.4l-12.2-2.1c-0.6-0.1-1.1,0.3-1.1,1.1
		v11.3C228.4,157.6,229,158.2,229.6,158.3 M229.9,147.3c0-0.7,0.6-1.1,1.2-1l10.3,1.8v1.2l-9.2-1.5c-0.6-0.2-1.1,0.3-1.1,0.9v8.4
		l-1.3-0.2V147.3z"/>
	<path class="st2" d="M37.3,181.7c0,0,43.2-12.6,112.7-12.6c69.5,0,112.8,12.6,112.8,12.6l-5.5-24.7l5.5-20
		c0,0-43.3-12.7-112.8-12.7C80.5,124.3,37.3,137,37.3,137l5.5,20 M52.4,152.4v-3.1l5.4-0.9v1.1l-3.5,0.6L52.4,152.4z M60.1,167.2
		l1.2-1.5l6-1l1.2,1L60.1,167.2z M66.7,148v14l-1.2-1v-14l5.6-1l1.2,1L66.7,148z M108,161.2l1.2-1.3l5.9-0.5l1.3,1.1L108,161.2z
		 M114.5,156.8l-1.2-1.2v-2.8l11.5-0.7v1.2l-10.3,0.6V156.8z M167.2,159.9l1.2-1.2l5.9,0.2l1.3,1.3L167.2,159.9z M173.7,156.1
		l-1.2-1.3v-9.6l1.2,1.6V156.1z M186.9,160.8l-0.9-1.3l7.6,0.6l1.2,1.2L186.9,160.8z M198.8,145.5v-3.1l5.3,0.6v1.3l-3.5-0.4
		L198.8,145.5z M206.4,162.5l1.2-1.1l5.9,0.7l1.3,1.3L206.4,162.5z M213,145.1v14l-1.3-1.3v-14l5.7,0.5l1.2,1.4L213,145.1z
		 M250.3,152.1v9.8c0,3.9-3.2,6.7-7.2,5.9l-11-1.9c-1.3-0.2-2.6-0.9-3.5-1.9c0.2,0.1,0.6,0.2,0.9,0.2l12.5,2.2
		c3.9,0.7,7.2-2,7.2-5.9v-11.3c0-0.2-0.1-0.6-0.1-0.8C249.8,149.4,250.3,150.7,250.3,152.1z M223.7,144.8c0-3.1,2.6-5.2,5.7-4.6
		l12.5,2.1c3.1,0.6,5.6,3.5,5.6,6.6v11.2c0,3.2-2.5,5.2-5.6,4.7l-12.5-2.1c-3.1-0.5-5.7-3.5-5.7-6.6V144.8z M221.3,141.6l1.2,0.1
		v6.3l-1.2-1.3V141.6z M196,136.2l23.8,2.5v6.2l-1.8-2.1l-7.7-0.8v16.2l1.8,2.1l-8.4-0.9l1.9-1.7v-16.2l-7.7-0.8l-1.8,1.7V136.2z
		 M192.9,140.5v16.7l-1.2-1.3v-17.4l3.1,0.1L192.9,140.5z M164.6,134.5l7.8,0.3l13.1,17.1v-14.6l-1.8-1.9l8.4,0.5l-1.9,1.8v18.8
		l1.9,2l-7.9-0.5L171,140.9v14.5l1.9,2l-8.4-0.2l1.8-1.8v-18.9L164.6,134.5z M163.2,142.6v9.9c0,4-3.1,7.2-7.1,7.2h-11
		c-1.4,0-2.6-0.5-3.6-1.3c0.3,0,0.6,0.1,0.9,0.1h12.5c3.9,0,7.2-3.2,7.2-7.1v-11.4c0-0.3-0.1-0.5-0.1-0.8
		C162.8,140,163.2,141.2,163.2,142.6z M136.7,139.8c0-3.1,2.5-5.6,5.7-5.6h12.5c3.1,0,5.7,2.5,5.7,5.6v11.4c0,3.1-2.6,5.6-5.7,5.6
		h-12.5c-3.1,0-5.7-2.5-5.7-5.6V139.8z M135.5,159.7l-8.4,0.4l1.2-1.3l6-0.2L135.5,159.7z M132.4,151.4c0.8,0.7,1.3,1.7,1.3,2.9v1.5
		l-1.3-1.1v-3C132.4,151.6,132.4,151.5,132.4,151.4z M133.6,142.8v2c0,1.6-0.9,3-2.2,3.8c-0.2-0.3-0.4-0.5-0.6-0.7
		c1-1.1,1.5-2.6,1.5-4v-3.8c0-0.3,0-0.5,0-0.8C133.2,140.2,133.6,141.4,133.6,142.8z M105.3,136.1l20-1.2c3.1-0.2,5.7,2.2,5.7,5.3
		v3.7c0,1.8-1.1,3.4-2.7,4.1c1.5,0.5,2.7,1.9,2.7,3.7v3.6l1.9,1.8l-8.4,0.4l1.9-2v-3.9c0-0.6-0.6-1.1-1.2-1.1l-13.3,0.7v5l1.8,1.7
		l-8.3,0.6l1.8-1.9v-18.9L105.3,136.1z M104,144.3v9.8c0,4-3.2,7.5-7.2,7.9l-11,1.3c-1.3,0.1-2.6-0.2-3.5-0.9c0.3,0,0.5,0,0.8-0.1
		l12.5-1.3c3.9-0.5,7.1-4,7.1-7.9v-11.2c0-0.4,0-0.6,0-1C103.6,141.8,104,143,104,144.3z M77.5,144.7c0-3.1,2.5-5.9,5.6-6.3
		l12.5-1.3c3.1-0.4,5.7,1.8,5.7,4.9v11.3c0,3.2-2.5,6-5.7,6.4l-12.5,1.3c-3.1,0.4-5.6-1.8-5.6-5C77.5,155.9,77.5,144.7,77.5,144.7z
		 M75,142.2l1.2-0.3v6.3l-1.2-0.9V142.2z M49.7,143.9l23.8-4.3v6.3l-1.9-1.6l-7.7,1.4v16.1l1.8,1.6l-8.4,1.5l1.8-2.1v-16.2l-7.7,1.4
		l-1.8,2.2L49.7,143.9L49.7,143.9z"/>
	<path class="st2" d="M126.3,144.9v-4.6c0-0.6-0.6-1.2-1.2-1.1l-13.3,0.7v6.9l13.3-0.8C125.7,146.1,126.3,145.6,126.3,144.9
		 M124.8,142l-10.3,0.6v2.7l-1.2,0.1v-3.9l11.5-0.7V142z"/>
	<path class="st2" d="M83.3,156.5l12.1-1.3c0.7-0.1,1.2-0.7,1.2-1.3v-11.4c0-0.7-0.5-1.1-1.2-1l-12.1,1.3c-0.6,0.1-1.1,0.7-1.1,1.3
		v11.4C82.2,156.1,82.7,156.6,83.3,156.5 M83.7,145.4c0-0.6,0.6-1.2,1.2-1.3l10.4-1.1v1.2l-9.1,1c-0.7,0.1-1.2,0.7-1.2,1.3v8.4
		l-1.2,0.2L83.7,145.4L83.7,145.4z"/>
	<path class="st2" d="M142.6,152.4h12.2c0.6,0,1.2-0.5,1.2-1.1v-11.5c0-0.6-0.5-1.1-1.2-1.1h-12.2c-0.6,0-1.1,0.5-1.1,1.1v11.5
		C141.4,151.9,142,152.4,142.6,152.4 M142.9,141.3c0-0.6,0.6-1.2,1.2-1.2h10.3v1.3h-9c-0.7,0-1.2,0.5-1.2,1.1v8.5h-1.2L142.9,141.3
		L142.9,141.3z"/>
	<polyline class="st2" points="126.4,188.9 127.7,189.7 127.7,185.9 110,185.9 111.3,187 111.3,197.7 110,198.8 116,198.8 
		114.9,197.7 114.9,193.8 124.7,193.8 124.7,190.9 114.9,190.9 114.9,188.9 	"/>
	<path class="st2" d="M177.7,188.9h10.6l1.3,0.8v-3.8h-11.9c-2.9,0-5.1,1.8-5.1,4.1v4.7c0,2.2,2.2,4.1,5.1,4.1h11.9v-3h-11.9
		c-0.8,0-1.5-0.5-1.5-1.1V190C176.3,189.4,176.9,188.9,177.7,188.9"/>
	<path class="st3" d="M240.4,181.3v13.2l21.2-8.5C256.9,184.8,249.8,183.1,240.4,181.3"/>
	<path class="st3" d="M59.6,194.5v-13.2c-9.3,1.8-16.5,3.5-21.3,4.7"/>
	<path class="st3" d="M78.8,201.2c1.2,14,11.1,25.8,23.3,35.2v-11.6C89.2,215.5,82.2,206.6,78.8,201.2"/>
	<path class="st3" d="M198,224.8v11.6c12.2-9.4,22-21.2,23.3-35.2C217.8,206.6,210.8,215.5,198,224.8"/>
	<path class="st3" d="M78.6,86.7v32.6l8.3-11.8c12.8-1.5,29.8-3,48.7-3.6V120c4.6-0.1,9.4-0.1,14.3-0.1c4.9,0,9.7,0.1,14.4,0.1
		v-16.1c18.9,0.5,36,2,48.6,3.6l8.3,11.8V86.7c-15.5-2.1-42.2-4.8-71.3-4.8C120.9,81.8,94.2,84.6,78.6,86.7"/>
	<path class="st3" d="M164.4,173.7c-4.7-0.1-9.5-0.2-14.4-0.2c-4.9,0-9.7,0.1-14.3,0.2v69.4l-9.6,7.9c10.1,5,19.2,8.4,23.9,10
		c4.9-1.6,13.9-5,23.9-10l-9.6-7.9"/>
</g>
</svg>
