<?xml version="1.0" encoding="utf-8"?>
<!-- Generator: Adobe Illustrator 21.1.0, SVG Export Plug-In . SVG Version: 6.00 Build 0)  -->
<!DOCTYPE svg PUBLIC "-//W3C//DTD SVG 1.1//EN" "http://www.w3.org/Graphics/SVG/1.1/DTD/svg11.dtd">
<svg version="1.1"
	 id="svg6395" inkscape:version="0.48.1 " sodipodi:docname="Vancouver Whitecaps Logo.svg" xmlns:cc="http://creativecommons.org/ns#" xmlns:dc="http://purl.org/dc/elements/1.1/" xmlns:inkscape="http://www.inkscape.org/namespaces/inkscape" xmlns:rdf="http://www.w3.org/1999/02/22-rdf-syntax-ns#" xmlns:sodipodi="http://sodipodi.sourceforge.net/DTD/sodipodi-0.dtd" xmlns:svg="http://www.w3.org/2000/svg"
	 xmlns="http://www.w3.org/2000/svg" xmlns:xlink="http://www.w3.org/1999/xlink" x="0px" y="0px" width="300px" height="390.9px"
	 viewBox="0 0 300 390.9" style="enable-background:new 0 0 300 390.9;" xml:space="preserve">
<style type="text/css">
	.st0{fill:#AEACAD;}
	.st1{fill:#00245E;}
	.st2{fill:#9DC2EA;}
	.st3{fill:#FFFFFF;}
	.st4{fill:#051C36;}
</style>
<sodipodi:namedview  bordercolor="#666666" borderopacity="1" gridtolerance="10" guidetolerance="10" id="namedview38" inkscape:current-layer="g6470" inkscape:cx="180.70866" inkscape:cy="182.30475" inkscape:pageopacity="0" inkscape:pageshadow="2" inkscape:window-height="706" inkscape:window-maximized="1" inkscape:window-width="1366" inkscape:window-x="-8" inkscape:window-y="-8" inkscape:zoom="1.0718605" objecttolerance="10" pagecolor="#ffffff" showgrid="false">
	</sodipodi:namedview>
<g>
	<path id="path4489" class="st0" d="M150,0l-4,6.6L116.5,56l-12.4-20.8l-4-6.6l-4,6.6L1.4,193.8L0,196.2l1.4,2.4l93.4,156.3l4,6.6
		l4-6.6l12.8-21.5l30.4,50.9l4,6.6l4-6.6l30.4-50.9l12.9,21.5l4,6.6l4-6.6l93.4-156.3l1.4-2.4l-1.4-2.4L203.8,35.3l-4-6.6l-4,6.6
		L183.5,56L154,6.6L150,0L150,0z M150,9l33.5,56l16.4-27.4l94.8,158.6l-93.4,156.3l-16.8-28.1L150,381.9l-34.4-57.5l-16.8,28.1
		L5.4,196.2l94.8-158.6L116.5,65L150,9L150,9z"/>
	<path id="path4491" class="st1" d="M115.6,324.4l34.4,57.5l34.4-57.5l16.8,28.1l93.4-156.3L199.8,37.6L183.5,65L150,9l-33.5,56
		l-16.4-27.4L5.4,196.2l93.4,156.3L115.6,324.4L115.6,324.4z"/>
	<path id="path4493" class="st2" d="M212.2,223.1l-62.2,104l-62.2-104h-21L150,362.3l83.2-139.2H212.2L212.2,223.1z M98.8,297.7
		l-44.6-74.6h-21l65.6,109.8l14.6-24.4l-10.5-17.6L98.8,297.7L98.8,297.7z M245.8,223.1l-44.6,74.6l-4.1-6.9l-10.5,17.6l14.6,24.4
		l65.6-109.8L245.8,223.1L245.8,223.1z"/>
	<path id="path4495" class="st3" d="M199.8,57.3l-14.2,23.8l10.2,17.1l4-6.7l46.5,77.8h20.5L199.8,57.3L199.8,57.3z M33.2,169.3
		h20.5l46.5-77.8l4,6.7l10.2-17.1l-14.2-23.8L33.2,169.3L33.2,169.3z"/>
	<path id="path4497" class="st3" d="M101.4,144.1L150,62.9l48.6,81.3H219L150,28.6L81,144.1H101.4z"/>
	<path id="path4499" class="st3" d="M23.2,181.3h7.1l4.8,19.1h0.1l6.2-19.1h6.1l6.2,19.6h0.1l5-19.6h6.6L56.7,211h-5.8l-6.6-20.6
		h-0.1L37.7,211H32L23.2,181.3L23.2,181.3z"/>
	<path id="path4501" class="st3" d="M68.6,181.3h6.6v11.1h12.7v-11.1h6.6V211h-6.6v-12.9H75.1V211h-6.6V181.3z"/>
	<path id="path4503" class="st3" d="M101.5,181.3h6.5V211h-6.5V181.3z"/>
	<path id="path4505" class="st3" d="M121.5,187.1H113v-5.8h23.5v5.8H128V211h-6.6V187.1z"/>
	<path id="path4507" class="st3" d="M141.6,181.3h20.2v6.1h-13.7v5.5h10.1v6h-10.1v6.1h14.4v6h-21L141.6,181.3L141.6,181.3z"/>
	<g id="g4511">
		<path id="path4513" class="st3" d="M186.4,189c-1.3-1.5-3.2-2.4-5.6-2.4c-5,0-8.6,4-8.6,9.6c0,5.5,3.7,9.6,8.4,9.6
			c2.6,0,4.8-1.2,6.1-3.2l5.5,4.1c-2.5,3.5-6.7,5.2-10.8,5.2c-9.3,0-16-6.1-16-15.6c0-9.5,6.8-15.6,16-15.6c3.3,0,7.5,1.1,10,4.4
			L186.4,189L186.4,189z"/>
		<path id="path4515" class="st3" d="M208.2,189.9l-3.6,9.2h7.3L208.2,189.9z M205.7,181.3h5.4L224,211h-7.4l-2.6-6.3h-11.6L200,211
			h-7.2L205.7,181.3z"/>
		<path id="path4517" class="st3" d="M233.5,193.9h4.4c2.3,0,4.6-0.8,4.6-3.6c0-3.1-3.1-3.5-5.6-3.5h-3.4L233.5,193.9L233.5,193.9z
			 M227,181.3h11c6.2,0,11.3,2,11.3,9c0,7-4.7,9.1-11,9.1h-4.8V211H227L227,181.3L227,181.3z"/>
		<path id="path4519" class="st3" d="M269,188.5c-1.1-1.3-3.2-2-4.8-2c-1.8,0-4.4,0.8-4.4,3.1c0,5.4,13.7,1.9,13.7,12.4
			c0,6.6-5.3,9.8-11.5,9.8c-3.8,0-7.2-1.1-10-3.7l4.7-5.1c1.3,1.8,3.5,2.8,5.7,2.8c2.1,0,4.5-1,4.5-3.1c0-5.5-14-2.5-14-12.4
			c0-6.3,5.5-9.7,11.3-9.7c3.4,0,6.6,0.9,9.1,3.1L269,188.5L269,188.5z"/>
		<path id="path4521" class="st3" d="M125.9,222.9h19.9v6.1h-13.4v6h9.6v6h-9.6v11.6h-6.6V222.9z"/>
		<path id="path4523" class="st3" d="M167.9,230.6c-1.3-1.5-3.2-2.4-5.6-2.4c-5,0-8.6,4-8.6,9.6c0,5.5,3.7,9.6,8.4,9.6
			c2.7,0,4.8-1.2,6.1-3.2l5.5,4.1c-2.5,3.5-6.7,5.2-10.8,5.2c-9.3,0-16-6.1-16-15.6c0-9.5,6.8-15.6,16-15.6c3.3,0,7.5,1.1,10,4.4
			L167.9,230.6L167.9,230.6z"/>
		<path id="path4525" class="st3" d="M73.8,152.4H78l4.2,11.1h0l4.3-11.1h4l-7,17h-3L73.8,152.4z"/>
		<path id="path4527" class="st3" d="M96.8,157.3l-2.1,5.3h4.2L96.8,157.3z M95.3,152.4h3.1l7.4,17h-4.2l-1.5-3.6h-6.6l-1.4,3.6H88
			L95.3,152.4L95.3,152.4z"/>
		<path id="path4529" class="st3" d="M107.9,152.4h5.1l7.2,11.8h0.1v-11.8h3.7v17h-4.9l-7.4-12.1h0v12.1h-3.7V152.4z"/>
		<path id="path4531" class="st3" d="M138.7,156.8c-0.7-0.9-1.8-1.4-3.2-1.4c-2.8,0-4.9,2.3-4.9,5.5c0,3.2,2.1,5.5,4.8,5.5
			c1.5,0,2.7-0.7,3.5-1.8l3.1,2.3c-1.4,2-3.8,3-6.1,3c-5.3,0-9.2-3.5-9.2-8.9c0-5.5,3.9-8.9,9.2-8.9c1.9,0,4.3,0.7,5.7,2.5
			L138.7,156.8L138.7,156.8z"/>
		<path id="path4533" class="st3" d="M152.4,166.4c3.2,0,5.3-2.3,5.3-5.5c0-3.2-2.1-5.5-5.3-5.5c-3.2,0-5.3,2.3-5.3,5.5
			C147.1,164.1,149.2,166.4,152.4,166.4 M152.4,152c5.3,0,9.2,3.5,9.2,8.9c0,5.5-3.9,8.9-9.2,8.9c-5.3,0-9.2-3.5-9.2-8.9
			C143.2,155.4,147.1,152,152.4,152"/>
		<path id="path4535" class="st3" d="M179.1,162.8c0,4-2.4,7-7.2,7c-4.7,0-7.2-3-7.2-7v-10.4h3.7v10.3c0,2.1,1.4,3.7,3.4,3.7
			c2,0,3.4-1.6,3.4-3.7v-10.3h3.7V162.8z"/>
		<path id="path4537" class="st3" d="M181.1,152.4h4.3l4.2,11.1h0l4.3-11.1h4l-7,17h-3L181.1,152.4z"/>
		<path id="path4539" class="st3" d="M200.2,152.4h11.5v3.5H204v3.2h7.4v3.5H204v3.5h8.2v3.5h-12L200.2,152.4L200.2,152.4z"/>
		<path id="path4541" class="st3" d="M219.3,159.4h2.2c1.4,0,3.1,0,3.1-1.9c0-1.7-1.5-2-2.9-2h-2.4V159.4z M215.5,152.4h6.6
			c3.5,0,6.4,1.2,6.4,5.2c0,2.4-1.3,4.2-3.7,4.7l4.3,7.2h-4.5l-3.6-6.8h-1.9v6.8h-3.7V152.4z"/>
		<path id="path4543" class="st4" d="M216.2,345.8h2.5v6.7h1.3v-6.7h2.6v-1.2h-6.4L216.2,345.8L216.2,345.8z"/>
		<path id="path4545" class="st4" d="M227.4,350.9l-2-6.3h-1.9v7.8h1.2v-6.7l2.1,6.7h1.2l2-6.6v6.6h1.2v-7.8h-1.9L227.4,350.9
			L227.4,350.9z"/>
	</g>
</g>
</svg>
