<?xml version="1.0" encoding="utf-8"?>
<!-- Generator: Adobe Illustrator 13.0.0, SVG Export Plug-In . SVG Version: 6.00 Build 14948)  -->
<!DOCTYPE svg PUBLIC "-//W3C//DTD SVG 1.1//EN" "http://www.w3.org/Graphics/SVG/1.1/DTD/svg11.dtd">
<svg version="1.1" id="Layer_1" xmlns="http://www.w3.org/2000/svg" xmlns:xlink="http://www.w3.org/1999/xlink" x="0px" y="0px"
	 width="500px" height="386.029px" viewBox="0 0 500 386.029" enable-background="new 0 0 500 386.029" xml:space="preserve">
<g>
	<path fill="#F47920" d="M139.448,176.916l-29.507,64.759c43.409,1.923,56.646,1.806,68.314-23.81
		C196.916,176.916,160.402,173.959,139.448,176.916 M170.62,214.372c-8.124,17.816-14.576,20.466-47.849,19.401l22.263-48.849
		c11.461-0.954,23.618,0.456,27.991,6.29C177.205,196.817,174.023,206.899,170.62,214.372"/>
	<path fill="#F47920" d="M387.195,154.84c1.339,10.177,3.677,15.153,6.148,18.608c1.495-0.266,10.373-1.872,10.373-1.872
		s1.835,8.956,2.117,10.317c3.144-0.052,11.224-0.162,11.224-0.162s2.619,5.704,2.879,6.263c0.798-0.477,1.656-0.999,2.574-1.591
		C413.217,176.608,407.225,159.357,387.195,154.84"/>
	<path fill="#F47920" d="M171.419,106.77l-21.982,48.227c32.37,2.438,42.167,0,49.958-17.1
		C213.579,106.77,184.656,105.678,171.419,106.77 M191.744,134.408c-4.313,9.479-7.636,13.488-29.544,12.852l14.725-32.323
		c8.39-0.074,14.813,1.584,16.899,4.562C195.644,122.082,194.889,127.523,191.744,134.408"/>
	<path d="M144.916,184.921l-22.249,48.836c33.266,1.066,39.725-1.568,47.841-19.385c3.396-7.473,6.578-17.555,2.39-23.162
		C168.541,185.369,156.392,183.967,144.916,184.921 M163.605,211.235h-0.007c-5.319,11.675-7.709,15.108-29.24,15.152
		c5.26-11.526,13.082-28.697,15.545-34.098c9.626-0.196,15.641,1.746,16.921,3.463C167.49,196.641,168.186,201.157,163.605,211.235"
		/>
	<path d="M421.46,40.948c0,0-12.327-8.801-40.058-0.4l2.619,4.599c0,0,10.802-4.166,31.533,1.576l0.726,6.471
		c0.208,1.779,1.82,3.066,3.597,2.87c1.789-0.203,3.077-1.816,2.878-3.599L421.46,40.948z"/>
	<path d="M176.813,114.934l-14.731,32.323c21.915,0.636,25.23-3.37,29.551-12.849c3.145-6.889,3.899-12.319,2.087-14.909
		C191.618,116.521,185.203,114.86,176.813,114.934 M184.73,131.264c-2.19,4.802-3.44,7.303-10.729,8.139
		c3.411-7.496,5.734-12.586,7.599-16.685c2.768,0.274,4.506,0.759,5.453,1.144C186.949,125.104,186.454,127.498,184.73,131.264"/>
	<path d="M298.674,182.886c-11.38-8.539-21.538-31.165-21.538-31.165l-4.883,2.176C284.579,187.082,298.674,182.886,298.674,182.886
		"/>
	<path d="M335.137,200.655c-11.388,0-23.655-17.347-55.278-17.347c-20.117,0-36.965,5.764-45.245,9.219
		c-2.9-17.88-18.668-24.624-18.668-24.624s30.24-13.773,30.24-43.528c0-36.988-29.611-36.988-29.611-36.988H103.992l-8.834,19.382
		h17.166c10.403,0,2.382,17.606,2.382,17.606l-45.43,99.688c0,0-8.021,17.597-35.589,17.597l-8.827,19.385h154.705
		c-3.914,6.971-10.876,22.331-10.876,43.106c0,44.171,32.245,65.909,68.277,65.909c49.314,0,75.795-53.804,75.795-53.804h-20.746
		c0,0-16.301,28.336-45.83,28.336c-23.485,0-29.722-17.313-29.722-30.319c0-35.413,32.156-104.416,72.258-104.416
		s24.165,60.613,24.165,60.613h20.739l36.336-79.723h-20.746C349.217,190.748,344.719,200.655,335.137,200.655 M178.152,217.865
		c-11.675,25.615-24.912,25.732-68.322,23.795l29.515-64.741C160.291,173.956,196.805,176.919,178.152,217.865 M199.284,137.893
		C191.485,155,181.696,157.434,149.318,155l21.982-48.23C184.538,105.678,213.46,106.77,199.284,137.893"/>
	<path fill="#F47920" d="M478.861,62.624c-8.968-7.125-22.937-15.435-43.513-21.168c0,0-25.201-33.603-88.87-33.603
		c-18.883,0-34.701,1.506-47.635,3.614c6.142,1.96,12.438,4.181,18.897,6.637l-2.692,7.089
		C235.383-5.151,205.58,12.732,205.58,12.732c-4.875,33.591,43.084,61.777,43.084,61.777l-3.848,6.537
		c-1.384-0.811-22.863-13.636-36.351-32.926c-16.61,9.818-38.452,25.124-46.555,30.873H98.702l-16.485,36.177h20.288
		c0,0,7.244,0,4.011,7.199l-44.771,98.218c-0.2,0.398-6.577,12.681-27.946,12.681h-5.401L11.912,269.45h154.69
		c-3.285,8.818-6.208,20.629-6.208,34.701c0,51.335,38.512,74.299,76.683,74.299c61.219,0,89.291-70.585,89.291-70.585h-39.06
		c0,0-14.258,28.338-41.019,28.338c-17.617,0-21.309-11.928-21.309-21.93c0-31.623,29.551-96.01,63.853-96.01
		c32.755,0,13.297,60.613,13.297,60.613h37.018l36.689-80.528c11.61,6.524,25.676,14.616,38.653,14.616
		c19.134,0,26.947-10.697,26.947-10.697l-7.037-3.94l8.531-17.738c-16.263,13.81-26.547,17.836-26.547,17.836l-4.158-9.039
		l-12.55,0.188l-1.901-9.211l-7.502,1.354c-5.771-6.682-11.831-14.273-11.831-48.685c0-7.721,1.495-11.247,7.317-11.247
		c2.805,0,10.744,1.879,15.368,3.041c-3.359-4.813-5.609-11.313-5.609-20.11c0-21.342,12.282-28.031,20.866-30.106v-7.284
		c0-2.091,1.693-3.796,3.788-3.796c2.102,0,3.796,1.705,3.796,3.796v13.958c0,0-20.865-1.495-20.865,23.433
		c0,10.972,5.423,26.147,28.183,26.147c6.407,0,12.415-1.024,17.957-2.812c3.484,8.409,1.007,18.797,1.007,18.797
		s6.592-8.509,11.549-24.502c3.358-2.009,6.467-4.295,9.338-6.781c0.814-2.282,1.613-5.653,1.613-10.166
		c0-10.754-5.438-19.511-5.438-24.797C467.312,74.791,474.658,71.121,478.861,62.624 M277.246,151.729
		c0,0,10.159,22.623,21.539,31.157c0,0-14.088,4.203-26.415-28.989L277.246,151.729z M333.745,270.471h-20.74
		c0,0,15.931-60.613-24.172-60.613c-40.102,0-72.25,69.02-72.25,104.416c0,13.006,6.23,30.319,29.707,30.319
		c29.529,0,45.836-28.336,45.836-28.336h20.747c0,0-26.481,53.804-75.795,53.804c-36.041,0-68.277-21.738-68.277-65.909
		c0-20.775,6.969-36.122,10.869-43.093H24.964l8.834-19.384c27.576,0,35.589-17.611,35.589-17.611l45.43-99.685
		c0,0,8.021-17.602-2.39-17.602H95.269l8.834-19.389h112.598c0,0,29.588,0,29.588,36.991c0,29.751-30.225,43.536-30.225,43.536
		s15.76,6.74,18.667,24.613c8.272-3.444,25.12-9.219,45.252-9.219c31.607,0,43.883,17.347,55.256,17.347
		c9.589,0,14.095-9.907,14.095-9.907h20.739L333.745,270.471z M419.995,56.061c-1.791,0.203-3.39-1.084-3.596-2.863l-0.726-6.471
		c-20.739-5.745-31.535-1.568-31.535-1.568l-2.619-4.613c27.725-8.397,40.06,0.407,40.06,0.407l1.287,11.516
		C423.058,54.248,421.778,55.865,419.995,56.061"/>
	<path d="M439.543,34.792c-6.985-7.847-35.042-34.535-93.183-34.535c-24.365,0-47.235,3.215-64.134,6.456
		c-56.292-14.454-79.532-1.172-80.664-0.492c-1.946,1.169-3.278,3.16-3.604,5.42c-1.583,10.861,1.34,20.979,6.386,30.032
		c-15.642,9.268-35.434,23.011-44.957,29.729H93.708l-23.396,51.353H97.88l-43.01,94.37c-0.37,0.636-5.246,8.554-21.183,8.554
		H23.396L0,277.027h156.2c-2.294,8.804-3.5,17.875-3.5,27.124c0,56.573,42.322,81.878,84.267,81.878
		c72.14,0,100.47-85.755,100.47-85.755h-54.885c0,0-12.327,28.339-36.366,28.339c-7.125,0-13.733-1.746-13.733-14.34
		c0-30.928,28.923-88.434,56.27-88.434c24.269,0,2.907,60.598,2.907,60.598l52.274,0.029l35.322-77.496
		c10.684,5.801,22.988,11.573,35.145,11.573c28.584,0,38.135-20.736,38.135-20.736l-8.294-4.632
		c11.972-24.276,8.99-34.058,8.99-34.058c-8.851,10.659-21.695,18.916-24.446,20.924c-2.472-2.364-4.847-5.727-7.37-9.263
		c-7.132-10.07-16.004-22.541-35.049-25.83c-0.267-4.01-0.407-8.602-0.407-13.917c0,0,0.267-2.168,10.699-2.168
		s25.067,7.584,34.546,7.584c4.209,0,8.265-0.392,12.142-1.113c3.183,10.751-3.654,25.412-3.654,25.412s23.801-11.146,25.052-33.428
		C487.134,116.226,500,92.02,500,76.759c0-1.38-0.392-2.741-1.103-3.925C498.275,71.798,483.257,47.651,439.543,34.792
		 M422.4,186.408c-0.918,0.584-1.784,1.113-2.576,1.591c-0.251-0.563-2.878-6.267-2.878-6.267s-8.087,0.114-11.216,0.159
		c-0.281-1.365-2.131-10.311-2.131-10.311s-8.88,1.598-10.374,1.872c-2.464-3.463-4.809-8.442-6.142-18.608
		C407.105,159.35,413.1,176.612,422.4,186.408 M471.018,115.566c-2.856,2.479-5.978,4.765-9.336,6.774
		c-4.951,15.993-11.543,24.501-11.543,24.501s2.485-10.388-1.007-18.797c-5.541,1.794-11.549,2.819-17.957,2.819
		c-22.767,0-28.184-15.175-28.184-26.155c0-24.928,20.866-23.433,20.866-23.433V67.326c0-2.098-1.703-3.796-3.804-3.796
		c-2.094,0-3.788,1.698-3.788,3.796v7.284c-8.568,2.068-20.864,8.756-20.864,30.099c0,8.797,2.248,15.305,5.607,20.117
		c-4.617-1.161-12.548-3.041-15.359-3.041c-5.831,0-7.311,3.518-7.311,11.247c0,34.412,6.053,41.996,11.831,48.678l7.495-1.354
		l1.894,9.211l12.549-0.181l4.158,9.03c0,0,10.299-4.018,26.556-17.834l-8.531,17.746l7.044,3.927c0,0-7.813,10.711-26.963,10.711
		c-12.978,0-27.035-8.092-38.651-14.608l-36.685,80.521l-37.017-0.017c0,0,19.466-60.597-13.296-60.597
		c-34.302,0-63.846,64.387-63.846,96.01c0,10.002,3.685,21.93,21.309,21.93c26.747,0,41.012-28.338,41.012-28.338h39.066
		c0,0-28.086,70.585-89.298,70.585c-38.164,0-76.675-22.964-76.675-74.299c0-14.072,2.916-25.883,6.2-34.701H11.801l16.485-36.182
		h5.401c21.368,0,27.746-12.282,27.953-12.697l44.756-98.208c3.241-7.192-3.996-7.192-3.996-7.192H82.106l16.485-36.177H161.8
		c8.095-5.749,29.951-21.061,46.554-30.88c13.496,19.29,34.968,32.116,36.352,32.933l3.847-6.544c0,0-47.96-28.179-43.084-61.77
		c0,0,29.811-17.891,109.459,12.452l2.701-7.081c-6.458-2.463-12.755-4.683-18.89-6.648c12.934-2.105,28.752-3.603,47.62-3.603
		c63.676,0,88.876,33.591,88.876,33.591c20.577,5.745,34.531,14.055,43.507,21.18c-4.203,8.498-11.535,12.16-11.535,17.979
		c0,5.279,5.415,14.036,5.415,24.787C472.623,109.914,471.832,113.277,471.018,115.566"/>
	<path fill="#F47920" d="M484.381,67.492c-2.516,1.021-10.033,4.794-10.033,13.152c0,7.21,6.229,16.811,3.293,28.357
		c9.508-10.773,14.768-23.326,14.768-32.245C492.408,76.756,490.063,72.893,484.381,67.492"/>
</g>
</svg>
