<?xml version="1.0" encoding="utf-8"?>
<!-- Generator: Adobe Illustrator 21.1.0, SVG Export Plug-In . SVG Version: 6.00 Build 0)  -->
<!DOCTYPE svg PUBLIC "-//W3C//DTD SVG 1.1//EN" "http://www.w3.org/Graphics/SVG/1.1/DTD/svg11.dtd">
<svg version="1.1" id="Layer_1" xmlns="http://www.w3.org/2000/svg" xmlns:xlink="http://www.w3.org/1999/xlink" x="0px" y="0px"
	 width="500px" height="404.2px" viewBox="0 0 500 404.2" style="enable-background:new 0 0 500 404.2;" xml:space="preserve">
<style type="text/css">
	.st0{fill:#FFFFFF;}
	.st1{fill:#FFB819;}
	.st2{fill:#A93439;}
</style>
<g>
	<path class="st0" d="M487.3,262c-4.6-3.1-9.2-4.7-11.2-5.2c-7.8-4.1-14.6-8.8-20.7-14.3c4.3-16.4,6.5-33.1,6.5-49.7
		C462,86.5,375.5,0,269.2,0H269c-50.3,0-97.8,19.3-133.9,54.2C100.6,87.7,80,132.1,76.9,179.8c-9.4,1.7-22.9,5-35.4,11.4
		C20.3,202,9.1,218.3,9.1,238.2c0,22.6,15.7,38.5,38.3,38.9c-0.1,0.8-0.3,1.7-0.3,2.5c-1.1,0.3-2.5,0.6-4.4,0.9
		c-1.9,0.3-3.7,1.3-4.8,2.9c-6.5,8.7-8.2,19.2-9.8,29.3c-2.3,14.2-4.4,27.6-18.3,39.6c-1.2,1.1-2.1,2.5-2.4,4.1
		c-0.6,2.9-0.8,5.8-0.5,8.6c-0.5,0.3-1,0.5-1.2,0.6c-3.1,0.8-5.2,3.4-5.4,6.6c-0.2,3.2,1.8,6.1,4.7,7.3c2.1,0.8,4.1,1.4,6.1,1.6
		c0.2,0.7,0.5,1.5,0.9,2.3c-0.4,0.5-0.7,0.9-0.8,1c-2.2,2-2.9,5-1.9,7.7c1,2.8,3.6,4.7,6.5,4.8c0.6,0,1.2,0.1,1.8,0.1
		c2.6,0,5.1-0.4,7.4-1.2c0,0.8,0.2,1.7,0.5,2.5c1.1,2.8,4,4.5,7,4.5c0.2,0,0.3,0,0.5,0c3.1-0.2,5.9-0.9,8.4-2.2
		c1.3,1.2,3.1,1.9,4.9,1.9c0.9,0,1.8-0.2,2.7-0.5c4.9-1.8,8.2-4.7,10.3-7.4c5.2-1.3,9.5-3.6,12.6-6.7c1.2-1.2,2-2.9,2.1-4.6
		c1.3-16.1,2.5-25.6,4.5-35.1c1.3,0.1,2.6,0.2,4.1,0.2c5.2,0,10.4-1.1,15.4-3.4c1.1-0.5,2-1.2,2.7-2.2c0.1-0.1,8.7-11,22.7-23.7
		c2.3,2.7,4.8,5.3,7.2,7.9c-1.7,5.9-3.3,14.1-3.3,24.6c0,11.6-7.8,17.9-8,18.2c-1.9,1.5-2.9,3.7-2.9,6.1c0,0.8,0.2,2.9,1.5,5.5
		c-0.1,0.1-0.2,0.2-0.2,0.3c-2.3,2-2.8,5.1-1.7,8c1.1,2.8,4,4.5,7,4.5c0.1,0,0.2,0,0.2,0c0.9,0,1.8-0.1,2.8-0.3
		c0.1,0.2,0.3,0.3,0.5,0.5c-0.9,2.1-0.6,4.4,0.6,6.5c1.3,2.2,3.8,3.4,6.3,3.4c0.2,0,0.5,0,0.7,0c2.8-0.2,5.4-1.2,7.9-2.9
		c0,0,0,0,0,0c1.4,1.4,3.2,2.1,5.1,2.1c1.2,0,2.4-0.3,3.5-0.9c3.8-1.9,6.4-4.1,8.2-6.1c0.5,0.1,1,0.1,1.5,0.1c1.9,0,3.7-0.7,5.1-2.1
		c2.5-2.4,4.5-5.3,5.9-8.6c0.8-0.5,1.1-0.8,1.2-0.9c1.4-1.1,2.3-2.7,2.6-4.4c0.1-0.5,1.6-8.4,2.3-18c28.1,15.2,59.5,23.1,91.6,23.1
		c59.5,0,115.2-27.4,151.7-73.8c1.2,1.3,2.8,2.2,4.6,2.5c1,0.2,2.1,0.2,3.1,0.2c3.5,0,6.9-0.9,10-2.6c0.7,2.5,2.9,4.4,5.4,5.1
		c1.7,0.4,3.5,0.7,5.2,0.7c2.7,0,5.3-0.6,7.7-1.7c0.9,0.7,2,1.2,3.2,1.4c1.4,0.3,2.9,0.5,4.3,0.5c2.9,0,6.8-0.7,10.6-3.5
		c0.2,0,0.4,0.1,0.6,0.1c0.6,0.1,1.2,0.1,1.7,0.1c0,0,0,0,0,0c3.7,0,9-1.7,13.5-9.4c4.1-3.2,9.2-9.8,9.2-19.8
		C500.1,275.9,495.7,267.7,487.3,262z"/>
	<path class="st0" d="M485.4,300.1c-1.6,3.2-4.7,7.6-8.6,7.1c0,0,0.6-1.1,1.2-2.7c-0.4,0.3-1,0.6-1.3,0.7c0,0-1.5,1.1-4.2,1.7
		c-1.8,2.1-5.3,4.4-10.8,3.2c0,0,2.1-1.4,3.1-4c-1-0.4-2-1-3-1.5c0,0-1.5,1-3.8,1.3c-1.5,2-5.3,5.7-12,3.9c0,0,2.5-2.4,3.2-6.4
		c-0.9-0.6-1.6-1.3-2.4-2.2c0,0-2.9,0.7-6.9,0.7c-2.2,2.3-6.9,5.9-13.2,5.1c0,0,3-2.6,3.8-6.3c-2.7-0.9-5.3-2.1-7.4-4.3
		c-33.3,49.5-89.7,81.9-153.9,81.9c-36.2,0-70.1-10.5-98.6-28.4c0.5,13.5-2.5,29.2-2.5,29.2c-0.4,0.4-2.6,1.7-2.6,1.7
		c-0.9,2.5-2.3,5.5-5.1,8.2c0,0,0.2-2.1-0.3-4.4l-2.4,3.9l-2.8,0.8c-1.1,1.9-3.3,4.5-7.5,6.5c0,0,1.1-2.8,1-5.9l-3.7,2.8
		c-1.6,0-3.6-0.2-3.6-0.2c-1.6,1.8-4.3,3.9-7.5,4.2c0,0,1.2-2.2,1.4-5.5c-2.4-1-3.6-2.6-3.6-2.6l-0.2-4.8l-0.3-0.2
		c-1.8,1.5-4.5,3-7.7,3.1c0,0,2.4-2.6,3-6.6c-2.2-2.2-2.2-4.6-2.2-4.6s10.9-8.3,10.9-24c0-12.6,2.6-21.6,4.4-26.6
		c-5.3-5.2-10.1-10.6-14.8-16.4c-18.1,15.4-29.2,29.7-29.2,29.7c-12.1,5.6-21.9,1-21.9,1c-3.3,13.3-4.7,23.7-6.4,43.4
		c-3.3,3.2-8,4.7-11.8,5.4c-1.1,2.1-3.4,5.3-8.4,7.1c0,0,1.3-1.9,1.5-4.5c-2.3,1.1-4.6,1.3-6.8,1.1c-1.5,1.6-4.2,3.5-8.7,3.8
		c0,0,2-1.9,3-5.6l-2.8-1.6l-0.9,1c-2.7-0.1-4.8-0.7-6.6-1.5c-1.9,1.1-4.8,2.2-9.1,2c0,0,2.3-2.1,4.1-6.3c-2.1-2.9-2.8-5.7-2.8-5.7
		l1.4-1.4l-2.1-3c-1.9,0.8-5.1,1.1-9.4-0.6c0,0,4.6-1.2,7.1-5.2c-0.7-2.8-0.9-5.9-0.1-9.7c26.9-23,15.8-52,29.2-70
		c8.8-1.2,11-3.8,11-3.8c-1.6-6.9,3.8-15.6,3.8-15.6s-5.4,1.3-10.2,1.3c-19.3,0-31.8-13.2-31.8-31.5c0-40.5,53.1-50.2,67.5-52.1
		C87.6,86.7,169.2,7.2,269.4,7.2c102.4,0,185.4,83,185.4,185.4c0,18.1-2.7,35.5-7.5,52c6.6,6.6,14.9,13.1,26.3,18.9
		c0,0,19.4,4.6,19.4,21.7C492.9,295.9,485.4,300.1,485.4,300.1z"/>
	<path class="st1" d="M234.2,143.6c-3.7-0.6-9.2-1.4-14.8-1.7l-4.3-0.2l2.5-3.6c1-1.4,2-2.9,3-4.3l1.7-2.4l1.5,0.2
		c4.8,0.8,10.3,1.7,15.6,3.1l4.5,1.2l-3.5,3c-1.5,1.3-2.9,2.6-4,3.8l-0.9,0.9L234.2,143.6z"/>
	<path class="st1" d="M238.8,137.1c-5.4-1.4-11.2-2.4-15.4-3.1c-1.2,1.7-2.6,3.5-3.8,5.4c5.1,0.3,10.1,1,15,1.7
		C236,139.7,237.4,138.4,238.8,137.1z"/>
	<path class="st1" d="M315.1,142.7c-0.5-1.4-1-2.6-1.8-3.6l-2.2-2.9l3.5-1c5.9-1.7,12.7-2.8,17.3-3.5l1.4-0.2l0.9,1.1
		c1.4,1.8,2.9,4,3.9,5.5l2.4,3.6l-4.3,0.3c-5.6,0.3-11.8,1.1-18.5,2.3l-2,0.3L315.1,142.7z"/>
	<path class="st1" d="M315.3,137.6c1,1.2,1.5,2.7,2.1,4.2c6-1.1,12.4-1.9,18.7-2.3c-1.2-1.8-2.6-3.7-3.8-5.4
		C327.7,134.8,321,136,315.3,137.6z"/>
	<path class="st1" d="M311.2,136.7c-0.9-0.9-2-1.7-3.1-2.5l-3.9-3l4.7-1.4c3.8-1.1,6.7-3.1,7.5-4.6l0.7-1.3l1.2,0.1
		c-3.1-3.5-8.4-6.6-10.6-7.4c-0.6-0.2-1.6-0.5-3.5-0.5c-7.7,0-16.8,3.7-19.3,6l11,7.9h-35.6l11-7.9c-2.3-2.3-11.6-6.1-19.5-6.1
		c-1.9,0-2.9,0.3-3.4,0.5c-2,0.8-7.4,3.8-10.6,7.4l1.1,0l0.7,1.3c0.7,1.4,3.5,3.3,7.3,4.5l5.2,1.5l-4.5,2.9
		c-1.3,0.9-2.7,1.7-4.1,2.7l-0.9,0.6l-1-0.2c-5.7-1.2-11.5-1.9-17.2-1.9h-4.7l2.7-3.8c1.2-1.7,2.2-3.1,2.9-4.1
		c-5.9-8.6-12.5-12.5-12.6-12.5l1.5-4.6c6.6,0.6,13.6,3.6,17.2,5.3l1.1,0.5l0.2,1.3c5.9-5.1,12.3-8.3,12.6-8.5l0.2-0.1l0.2-0.1
		c2.3-0.7,5.1-1.1,8.1-1.1c9.9,0,20.8,3.9,24.1,5.1c3.2-1.2,14.1-5.1,24-5.1c3,0,5.8,0.4,8.1,1.1l0.1,0l0.1,0
		c0.3,0.1,7.1,3.1,13,8.5c4-2.1,14.7-7.3,21.7-7.9l1.4,4.6c-8.9,4.7-14,10.9-15.8,13.5c0.7,1,1.8,2.4,2.9,4.1l2.7,3.8h-4.7
		c-5.4,0-11.2,0.7-18.1,2.1l-1.3,0.3L311.2,136.7z"/>
	<path class="st1" d="M87.2,241.5c0-0.7-0.4-2.7-2.7-4.8l-2.4-2.2l2.8-1.7c3.8-2.2,8.1-5,13.5-8.8l1.7-1.2l1.4,1.4
		c0.9,0.9,2.1,2.4,2.2,4.8l0.1,1l-0.7,0.8c-4.7,5.5-8.7,9.5-12,12.4l-3.8,3.3L87.2,241.5z"/>
	<path class="st1" d="M71.5,253.3c-0.1-2-0.9-5.1-3.5-8.1l-2.2-2.5l3-1.3c1.6-0.7,3.2-1.4,4.8-2.3l1.5-0.8l1.3,1.2
		c2.2,1.9,4.8,5.3,5,10.4l0.1,1.4l-2.4,1.5c-1.3,0.8-2.6,1.6-3.7,2.4l-3.5,2.4L71.5,253.3z"/>
	<path class="st1" d="M62.5,210.5c-2.5-6.3-1.4-12.4-0.6-15.5l0.4-1.3l1.3-0.4c4.7-1.3,9-2.3,13.3-3.1l8.4-1.5l-3.7,3.4
		c0.2,0,0.4,0,0.6-0.1l5.2-0.5l-2.9,4.3c-1.1,1.7-3.7,6.1-2.4,10.4l0.8,2.9l-3,0.2c-5.1,0.4-10,1.3-14.4,2.7l-2.2,0.7L62.5,210.5z"
		/>
	<path class="st1" d="M39.8,230.6c-6.8-1.5-10.9-6.6-12.6-10.9l-0.5-1.2l0.7-1.1c2-2.9,4.5-5.7,7.3-8.3l2.1-2l1.6,2.4
		c0.7,1.1,1.4,1.9,2.1,2.5c-0.4-1.7-0.7-3.7-0.7-6v-1.2l1-0.7c2.7-2,6-3.9,10-5.8l4.5-2.1l-1,4.8c-0.8,3.7,0.3,7.5,3.2,11l1.9,2.3
		l-2.6,1.4c-10.9,6.1-14.4,13.4-14.4,13.5l-0.8,1.8L39.8,230.6z"/>
	<path class="st1" d="M28.4,251c-1.2,0-2.4-0.1-3.7-0.3l-1.3-0.2l-0.6-1.2c-0.2-0.4-4.3-9.4-1.4-19.7l1.4-4.9l3,4.2
		c3.5,4.8,8,5.9,11.1,5.9c0.1,0,0.3,0,0.4,0l2.7-0.1l-0.2,2.7c-0.2,2.5,0.3,4.4,1.4,5.7l1.4,1.8l-1.7,1.6
		C37.7,249.5,33.5,251,28.4,251C28.4,251,28.4,251,28.4,251z"/>
	<path class="st1" d="M46.8,264.5c-9.5,0-15.2-4.7-15.4-4.9l-3.2-2.7l3.9-1.5c6.9-2.6,10-6.4,11.2-8.4l0.9-1.5l1.7,0.4
		c1.1,0.2,2.4,0.4,3.8,0.4c3.4,0,7.3-0.7,11.7-2.1l1.5-0.5l1.1,1.2c3.5,3.9,4.9,8.8,4,13.8l-0.2,1.3l-1.3,0.5
		c-3.1,1.2-6.3,2.2-9.7,2.9l-3.1,0.6l0.2-3.2c0-0.8,0-1.5-0.2-2.1c-0.7,1.4-1.6,2.9-2.7,4.6l-0.7,1l-1.2,0.1
		C48.3,264.4,47.5,264.5,46.8,264.5z"/>
	<path class="st1" d="M229.1,110.8c0,0-4-1.3-8.8-2.5l-6.5-1.6l6.1-2.9c6-2.9,21.9-9.7,40.3-9.7c6.5,0,12.5,0.9,18,2.6l-1-3.3
		l4.6,1.7c0.3,0.1,8,2.9,12.1,7.7l2.8,3.2l-4.2,0.8c-3.2,0.6-6.3,1.4-8.7,2l-1.6,0.4l-0.9-0.6c-3-2.1-7.8-3.3-12.3-3.8l2.9,4.2
		l-6.5-1.8c-5.5-1.5-10-2.3-14-2.3c-7,0-12.7,2.2-20.2,5.9l-0.9,0.5L229.1,110.8z"/>
	<path class="st1" d="M53.4,373.3c-18.2,0-28.3-11.4-31-14.9l-1.2-1.6l1.4-1.5c7.8-8.5,11.9-20.1,13.7-26.3l1.1-4l2.9,2.9
		c1.8,1.8,4.1,2.8,6.9,3c-2.9-2.2-6.3-5.4-8.7-9.6l-0.5-0.8l0.2-0.9c0.3-1.2,0.5-2.4,0.7-3.6l0.2-1.1l1.2-6.2l3.3,5.4
		c0.3,0.5,0.7,1.1,1.3,1.7c-1.5-2.7-2.8-5.9-3.5-9.3l-0.1-0.6l0.2-0.6c2.5-8.3,5.3-13,5.4-13.2l1.2-2.1l2,1.1c0.1,0,0.2,0,0.3,0
		c1.8,0,5.6-1.1,8.4-2.1c-0.7-7.7,1.2-14.9,5.7-21.3l0.7-0.9l1.1-0.1c0.7-0.1,1.3-0.1,2-0.1c6,0,10.5,2.4,13.8,5.1
		c-2-4.5-5.9-7.2-8.7-8.6l-3.3-1.7l2.8-2.4c3.1-2.6,7.7-5.6,10.8-7.6c1.2-0.8,2.4-1.6,2.7-1.8l2.5-2l1.3,2.9
		c2.1,4.9,6.3,8.4,10.3,11.7c1.6,1.4,3.3,2.8,4.8,4.3c-0.9-1.9-2.1-3.8-3.3-5.8c-2.9-4.8-6.2-10.2-7.1-16.5l-0.2-1.3l0.9-0.9
		c5.6-5,11.2-11.3,17.4-19l2.6-3.3l1.6,3.9c2.6,6.4,6.1,11.9,10.6,16.2c-2.9-5.8-6.1-14-8.1-24.2l-0.2-1l0.6-0.9
		c2.2-3,4.3-6.1,6.4-9.1l3-4.3l1.4,5c0.6,2.3,1.9,5.2,4.3,7.9c-1.4-4.8-2.7-11.2-2.4-17.5l0-0.6l0.3-0.5c2.3-3.6,5.2-8.3,7.6-12.4
		l4.5,1.5c0,0.1,0,0.2,0,0.3c1.1-5.4,2.6-11.3,4.7-16.8l0.1-0.3l0.2-0.3c7.1-9.8,14.5-18.9,22.1-27l1-1l1.4,0.3
		c5.9,1.4,10.5,4.5,13.5,9c-0.1-4-1.7-8.8-7.5-12.4l-2.6-1.7l2.3-2.2c1.9-1.8,3.9-3.7,5.8-5.3l1.1-0.9l1.3,0.5
		c1.3,0.4,2.5,1,3.6,1.5c-0.4-0.6-0.8-1.3-1.3-2l-1.4-1.9l1.8-1.5c2.9-2.4,5.5-4.4,8.2-6.3l3.4-2.5l0.4,4.2c0.8,8.5,3.9,16.3,7.7,20
		l1.7,1.6l1.1,0.1l-0.5,0.5l2,1.9l-4,0.1l-1.2,1.3c-1.1,1.2-3.9,4-6,7.3c1.9-0.2,4.2-0.3,6.2-0.3c0.8,0,1.5,0,2.1,0.1l4.4,0.3
		l-2.6,3.6c0,0-2.3,3.3-5,8.9l-0.6,1.3l-1.4,0.1c-2.1,0.1-5,0.6-8.8,1.8c2.2,0.1,4.3,0.5,6.1,1.1l2.5,0.8l-0.9,2.4
		c-3.8,10.3-5.8,20.9-6.1,31.6c2.6-1.6,6.3-3.6,10.7-5.4l2.8-1.2l0.5,3c0.1,0.3,1.5,8.1,1.7,13.6l0.1,2.7l-2.7-0.2
		c-1.2-0.1-2.5-0.1-3.8-0.1c-6.8,0-17.6,1.4-25.6,9c5-2.5,11.3-4.7,17.9-4.7c4.4,0,8.5,1,12.2,3l1.6,0.8l-0.3,1.8
		c-0.5,2.7-1.1,5.1-1.9,7.2c0.8,1.4,2.5,4.1,4.5,7.6l1.5,2.7l-2.9,0.9c-3.7,1.1-9.2,3.6-13.2,8.8c4.1-2.8,9.3-5.2,15.2-5.2
		c0.8,0,1.6,0,2.4,0.1l1.3,0.1l0.6,1.1c4.2,7.6,9.7,18.1,11.8,24.7l0.2,0.8c2.3-0.9,4.2-1.4,4.3-1.4l0.4-0.1l0.4,0c0.7,0,1.4,0,2,0
		c11.3,0,18.8-4,21-5.5l0.4-6.3l4.8,7.2l-0.3,0.9c-1.8,24.1-33.5,35.4-34.9,35.8l-0.3,0.1l-0.3,0c-0.1,0-0.8,0.1-2,0.1
		c-4.4,0-14.7-1-18.6-9.7l-2-1c-1.4-0.7-4.8-2.4-9.4-5.1l-1.1-0.6l-0.1-1.2c-0.5-5.2,0.4-9.4,1.8-12.6c-2.3,1.9-4,4.5-5.3,7.8
		l-1,2.6l-2.5-1.3c-8.5-4.6-15.5-14.4-15.7-14.8l-0.5-0.7l0-0.8c0.3-10.5,4.4-17.7,8.5-22.1c-7.6,3.3-11.3,10.8-12.5,13.5l-1.6,3.8
		l-2.6-3.2c-2.7-3.3-4-6.9-5.4-10.4c-1.3-3.5-2.6-6.8-5.2-9.8l-0.8-1l0.3-1.3c2.4-9,6.3-15.4,10.4-19.8c-5.4,4.1-9.3,9.6-11.2,12.7
		l-4.5-1.7l0.1-0.6c0.4-2.3,0.8-5.2,1.5-8.4l0.1-0.4l0.2-0.4c9.4-15.3,21.1-23.2,29.4-27.2c-8.7,1.8-17.8,8.1-20.7,10.2l-6.1,4.5
		l2.3-7.2c2.6-8,5.8-15.3,9.6-21.5c-1.1,0.3-1.9,0.6-2.4,0.8l-5.2,2.5l1.8-5.4c0,0,0.1-0.2,0.1-0.4c-1.2,2-2.3,4.2-3.2,6.6
		c0.1,0,0.2-0.1,0.3-0.1l5.6-1.2l-3,4.9c-0.1,0.2-14.3,23.5-15.3,52.1c1.7,0.6,4.1,1.9,6.6,4.8l1.7,2l-2,1.6
		c-13.9,10.7-22.4,19-24.7,21.3l-1.9,1.9l-1.7-2.1c-2.2-2.7-4.3-5.8-6.1-9.1c0.5,4,1.7,8.6,4.1,13.1l0.8,1.5l-1.1,1.3
		c-13.3,14.9-20.4,30.5-22.9,36.6l-1.1,2.7l-2.5-1.6c-3.8-2.4-6-6.6-8.4-11.1c-2-3.8-4.1-7.8-7.2-10.7c1.4,3,2.3,6.2,3.3,9.5
		c1.7,6.2,3.5,12.7,9.1,18.4l1.4,1.5l-1.2,1.7c-0.3,0.4-0.6,0.9-0.9,1.4c-0.3,0.6-0.7,1.1-1.1,1.7l-1.1,1.6l-1.8-0.7
		c-2.7-1-5.2-2.3-7.4-3.8c1.5,1.9,3.5,3.8,6,5.4l1.9,1.2l-1,2c-0.6,1.2-1.2,2.3-1.7,3.3l-0.9,1.7l-1.9-0.5c-4.8-1.3-10.7-3.6-16-7.9
		c1.5,2.4,2.8,3.8,2.8,3.8l1.2,1.2l-0.6,1.5c-3.3,7.9-5.4,18.3-5.4,18.4l-0.3,1.6l-1.6,0.3c-1.1,0.2-2.2,0.3-3.3,0.3
		c-2.5,0-5.8-0.5-9.5-2.4c2.2,2.6,5.6,5,10.9,5.3l2.8,0.2l-0.6,2.8c-0.5,2.4-0.8,5.3-1.1,8.3c-0.2,1.6-0.3,3.2-0.5,4.7l-0.2,1.9
		l-1.9,0.3C57.6,373.1,55.5,373.3,53.4,373.3z"/>
	<path class="st1" d="M303.7,242.2c5.9-6.3,13.2-16.2,14.4-27.2l0.3-2.6l2.5,0.4c5,0.8,8.9,1.8,11.2,2.6c0.9-6.4-0.6-12.1-0.6-12.2
		l-1-4l4,1c1.7,0.4,3.4,1,4.8,1.6c-0.6-2.2-1.2-4.1-1.2-4.1l-1.5-4.8l4.7,1.9c5.5,2.2,10.7,5.1,14,7.2c0.2-28-13.5-47.5-13.6-47.7
		l-2.6-3.7l4.5-0.2c0.9,0,1.8-0.1,2.7-0.1c1.8,0,3.3,0.1,4.6,0.3l0.6,0.1l0.5,0.4c3.7,2.7,7.2,5.7,10.3,8.8l0.3,0.3l0.2,0.4
		c1.7,4.2,5,13.4,5.4,24.1c0.6-2.5,1.1-5.6,1.3-9.5l0.4-7.1l4.1,5.8c7.1,10.2,11.2,20.1,12.5,23.3l0.8,1.9l-1.7,1.1
		c-2.6,1.8-5.7,4.8-7.7,10.2c3.5-3.4,8.2-7.1,13.9-8.7l0.8-0.2l0.8,0.3c4.6,1.8,9.1,4.2,13.6,7.2l3.2,2.1l-3.3,2
		c-4.5,2.7-15.1,10.8-15.9,27.2l-0.2,4.7l-3.7-2.9c-4.1-3.2-7.6-6.6-10.2-9.8l-0.7-0.9c0,0-0.8,1-0.8,1h-1.2
		c-7.3,0-13.4-0.8-15.7-1.1l-2.4-0.3l0.1-2.2c0.3-6.4,2.2-11.7,4.2-15.6c-5.6,4.5-7.8,11.1-8.6,14.5l-0.5,2.2l-2.3-0.4
		c-4.4-0.8-8.4-3-10.4-4.3l-1.8-1.1c-2.8,2.7-6.1,5.8-10,8.9l-6,4.9l2-7c-3.2,3.7-8.1,8.6-15.5,14.9L303.7,242.2z"/>
	<path class="st1" d="M469.9,279.8c-0.4,0-0.8,0-1.3,0c-14,0-35.3-8.6-44.4-17.7c-13.8-5-25.7-11.2-35.5-18.5l-1.5-1.2l0.8-1.8
		c8.3-19.4,21.6-22.7,28.8-23l1,0l0.7,0.7c2.3,2.2,4.2,4.1,5.9,6l2.4,2.7l-3.4,1.3c-2.5,0.9-6.2,2.9-9.1,6.7
		c3.8-2.4,8.6-4.5,13.6-4.7l1.2,0l0.8,0.9c1.8,2.1,3.4,4.3,5.1,6.6c4.9,6.7,9.9,13.6,22.6,21.3l6.6,4.1l-2.2,0.1
		c6.7,2.1,12.1,4.8,16.2,7.9l0.6,0.5l0.2,0.8c0.7,2.3,0.1,3.9-0.6,4.8C477.1,279,474.4,279.8,469.9,279.8
		C469.9,279.8,469.9,279.8,469.9,279.8z"/>
	<path class="st0" d="M83.9,189.2L83.9,189.2C83.8,189.2,83.9,189.2,83.9,189.2L83.9,189.2z"/>
	<path class="st0" d="M318.5,126.3l-7-0.3l-4.8,2.2c0,0-0.2-2.4-2.8-2.4c-2.2,0-1.7,2.7,0.4,3.4c1.6,0.8,3.3,1.6,5.1,2.8
		C313.5,130.9,317.2,128.6,318.5,126.3z"/>
	<path class="st0" d="M345.2,111.5c-12.4,6.6-17.7,15.8-17.7,15.8c8.8-6.8,11.9-6.5,11.9-6.5c0.8,3.7-0.3,11.9-0.3,11.9
		C347.1,124.8,345.2,111.5,345.2,111.5z"/>
	<path class="st0" d="M237.4,126.3c1.3,2.2,5,4.5,8.8,5.6c1.8-1.1,3.6-2,5.2-2.8c2.1-0.4,3.1-3.5,0.5-3.5c-2.1,0-2.8,1.7-2.7,2.6
		l-4.9-2.2L237.4,126.3z"/>
	<path class="st0" d="M247.3,114.3c-2.8,1.1-12.2,6.4-14.2,12.3l13.1-8.3l16.4,7.1l11.5-2.3C274.2,117.5,254,111.6,247.3,114.3z
		 M262.5,122.6l-9.2-6.6l14.9,3.8L262.5,122.6z"/>
	<path class="st0" d="M308.6,114.3c-6.6-2.6-26.9,3.2-26.9,8.8l11.5,2.3l16.5-7.1l13.1,8.3C320.8,120.6,311.4,115.3,308.6,114.3z
		 M293.4,122.6l-5.7-2.9l14.9-3.8L293.4,122.6z"/>
	<path class="st0" d="M331.7,147.3c4.9-1,8.9-1,8.9-1c-0.8-1.2-1.7-2.8-2.8-4.5c-7,0.7-14.2,1.6-19.7,3.2c0.3,3.7-0.7,8-3.6,13
		c0,0,3.2,3.3,3.5,7.1c0,0-16.1,8.8-8.9,25.3c0,0-6.3-1.1-8.1-1.1c0,0-0.2,9.5,0.5,12.6c0.7,3.2,4.8,22.7-9.8,26.7
		c-2.1,0.6-3.3-0.3-4.7-0.8c-1.2-0.3-5.4-1.5-9.1-1.5c-3.6,0-7.8,1.2-9.1,1.5c-1.2,0.4-2.5,1.3-4.7,0.8
		c-14.6-3.8-10.4-25.9-9.7-29.1c-4.3-2.2-15.5,0.8-15.5,0.8c0.8-8.5,2.7-16.1,2.7-16.1c-8.5,1.6-14,3.2-14,3.2
		c2.1-8.4,3-12.1,3-12.1c-10,2.5-13.7,5.7-13.7,5.7c4.3-15.5,14.1-24.6,14.1-24.6c-1.5-4.6-0.6-8.8,1.6-12.5c-4.6-1-9.7-1.5-14.8-2
		c-1.1,1.6-2.1,3.2-2.8,4.5c0,0,6.3-0.9,10.8,1c0,0-15.1,12.7-16.7,43.5c0,0,5.8-4.3,13.4-5.7c0,0-3.1,8.1-2.2,11
		c0,0,10-3.8,15.5-4.6c0,0-3.6,9.9-1.5,15.6c0,0,8.4-3,14.9-2.1c0,0-3.7,22.7,6,26.4c4.6,1.9,11.8,4.6,22.4,4.6
		c10.6,0,18.5-2.9,22.4-4.6c10.5-4.8,6.1-26.4,6.1-26.4c10.8-1,16.7,2.1,16.7,2.1c2.1-5.7-1.4-15.6-1.4-15.6
		c4.1,0.2,12.4,2.2,12.4,2.2c-0.3-2.2-1.9-6.3-1.9-6.3c9,0.1,15.7,3.8,15.7,3.8C348.8,173,331.7,147.3,331.7,147.3z M327.2,177.9
		c0,0,1.5,5.5,1.5,7.8c0,0-6.8-1.3-10.8-1.1c1,3.3,0.3,14.9,0.3,14.9c-0.5-9.7-6-19.9-6-19.9c2.2-1,8.7-0.3,8.7-0.3
		c0.3-2.7-1.8-8.8-1.8-8.8c5.2-0.7,7.8-0.3,7.8-0.3c0.3-1.8-1.1-13.1-4.5-19.6c10.7,8.6,16.2,28.2,16.2,28.2
		C335.7,178.1,330.9,177.8,327.2,177.9z"/>
	<path class="st0" d="M309.7,139.4c-0.3,0.1-0.5,0.2-0.8,0.3l-16.2,1.5c0,0,5.2-2.4,13.1-4.6c-2.1-1.1-4.5-2.1-6.4-3
		c0,0-14.9,6-18.3,10.8l3.1,7.1l22,4c2.4-2.5,3.9-4.6,4.9-6.5l-21.4-0.6c0,0,9.4-3.1,22.2-5.6C311.5,141.6,310.7,140.5,309.7,139.4z
		"/>
	<path class="st0" d="M250.2,155.7l22-4l3.1-7.1c-3.4-4.8-18.3-10.8-18.3-10.8c-2.1,0.9-4.5,1.8-6.6,3.1c7.6,2.2,12.7,4.6,12.7,4.6
		l-16.1-1.5c-0.1-0.1-0.3-0.1-0.4-0.2c-1,1-1.6,2.1-2,3.3c12.4,2.6,21.6,5.5,21.6,5.5l-20.9,0.6C246.2,151,247.8,153.2,250.2,155.7z
		"/>
	<path class="st0" d="M304.1,160.2c0,0-4.6-3.6-9.5-2.8c0,0,6.6,12.8,0.5,23C295.1,180.5,304.8,176.4,304.1,160.2z"/>
	<path class="st0" d="M260.8,180.5c-6.1-10.3,0.5-23,0.5-23c-4.9-1-9.6,2.8-9.6,2.8C251.1,176.4,260.8,180.5,260.8,180.5z"/>
	<path class="st0" d="M270.4,220.2c0,0,2.9,1.4,7.5,1.4c4.7,0,7.5-1.4,7.5-1.4l5.2,1.4c8.2-7.7,5.1-16.6,5.1-16.6
		c-2.8,7.9-10,12.3-10,12.3l-2.8-1.9l-2.8,1.9l-2.1-1.9l-2.1,1.9l-2.8-1.9l-2.8,1.9c0,0-7.3-4.4-10-12.3c0,0-3.2,8.8,5.1,16.6
		L270.4,220.2z"/>
	<polygon class="st0" points="277.9,135.1 290.6,131.5 265.2,131.5 	"/>
	<path class="st0" d="M266.4,156.5c0,0-3.4,3,0.9,7.1l3.7-1.5l2.3,1.4l2.4-1.4l2.3,1.4l2.3-1.4l2.4,1.4l2.3-1.4l3.7,1.5
		c4.3-4.1,0.9-7.1,0.9-7.1l-4.8,2.7h-13.6L266.4,156.5z"/>
	<path class="st0" d="M284.1,278c0,0-4.9-10.6-18.8-10.6c-1.3,23-33.3,34.1-33.3,34.1s-14.9,1.5-18.5-9.4c0.7,9,6.1,20.4,30.4,17
		c0,0,6.3,3.4,7.5,5.2c0,0,8.1,0,11.2-7c0,0-2.8-6.5-7.9-9.2c0,0,7.5,0.9,13.2,7.5c1.4-1.5,2.8-3.5,3.4-6.3c0,0,1.4-5.4-8-11.8
		c0,0,7,1.3,12,6.8c1.4-1.6,3-3.7,3.9-5.6c0,0-1.1-6.8-8.7-11.6c0,0,6.6,1.7,11.3,6.2C282.9,282.4,283.9,280.5,284.1,278z"/>
	<path class="st0" d="M126.5,264.2c2.2,2.8,4.5,5,6.6,6.7c9.9-8.2,18.6-14.2,24.1-17.7c-1.8-5.1-3.8-8.3-5.7-10.6
		C137.6,253.4,128.9,261.7,126.5,264.2z"/>
	<path class="st0" d="M97.3,308.2c0.1,0.1,0.2,0.1,0.3,0.2c8.8-11.9,18.5-22.2,27.7-30.6c-1.9-2.2-3.4-4.6-4.7-6.9
		C105.9,287.3,98.6,304.6,97.3,308.2z"/>
	<path class="st0" d="M24.7,357.2c-1.1,1.2-2.4,2.5-3.7,3.5c0,0-1.1,6.3,2.4,10.6c1.8-2.1,2.7-3.2,2.7-3.2c0.9,5.2-2.1,9-2.1,9
		c2.3,4.6,7.5,5.2,7.5,5.2c3.4-2.5,6.7-8.4,6.7-8.4c-0.1,3.2-1,6-2,8.3c4,3.7,9.3,2.4,9.3,2.4c3.1-2.1,5-7.5,5-7.5
		c0.5,1.4,0.6,3.3,0.5,5.3c3.9-0.8,6.8-2.9,6.8-2.9c1.1-2.8,1.6-5.9,2.1-9.1C38.9,373.5,27.5,360.7,24.7,357.2z"/>
	<path class="st0" d="M476.7,273c1,3.1-1.4,4.5-8.2,4.5c-14,0-35.2-9-43.1-17.4c-16.5-6-27.8-12.8-35.4-18.3
		c-1.2,2.9-1.7,4.9-1.7,4.9c-0.2-2.2-0.2-4.3-0.1-6.3c-5.5-4.4-8.6-7.8-9.8-9.4c-1.2,4.9-1.2,9.9-0.9,13.6
		c7.7,6.8,23.6,19.1,39.9,21.5c0,0-3.9,9.3,11.4,15.1c0,0,2.1,5,5.1,9.2c0,0,6.4,5,13.7,2.2c0,0,5.7-7-0.6-13.1c0,0,8.2,4,5.1,14.2
		c0,0,2.5,4.9,10.1,2.4c0,0,3.7-8.7-0.3-14.5c0,0,7.5,5.4,4.3,15.5c0,0,4.2,2.6,8.2,0.5c0,0,4.9-7.7,0.9-13.5c0,0,4.6,3.3,3.8,9.7
		C485.6,288.4,486.1,280.2,476.7,273z"/>
	<path class="st0" d="M349.3,227c-4.2-0.9-8-3-9.6-3.9c-1.2,2.4-2.7,4.7-4.1,7c2.8,1.8,7,4.2,12.4,6.2
		C348.1,233.4,348.5,230.2,349.3,227z"/>
	<path class="st0" d="M359.3,239.2c3.1,0.5,6.4,0.8,9.9,0.9c1-4.2,2.8-7.5,4.6-9.9c-7.2,0-13.3-0.9-15.5-1.1
		C358.4,232,358.5,235.5,359.3,239.2z"/>
	<path class="st2" d="M286.8,188.9c-4.6-7.6,1.2-19.4,1.2-19.4c-9.2-3.3-10,11.7-10,16c-0.1-4.3-1-19.4-10-16c0,0,5.8,11.8,1.1,19.4
		c-4.5,7.4-0.7,19.1,2.1,19.9c1.5,0.5,3.1,0.7,6.8,0.7s5.2-0.2,6.8-0.7C287.5,207.9,291.3,196.3,286.8,188.9z"/>
	<path d="M473.4,263.6c-11.4-5.8-19.7-12.3-26.3-18.9c4.8-16.5,7.5-33.9,7.5-52c0-102.3-83-185.4-185.4-185.4
		C169,7.2,87.4,86.8,83.9,186.1c-14.3,1.9-67.5,11.6-67.5,52.1c0,18.3,12.5,31.5,31.8,31.5c4.9,0,10.2-1.3,10.2-1.3
		s-5.4,8.7-3.8,15.6c0,0-2.2,2.6-11,3.8c-13.5,17.9-2.4,47-29.2,70c-0.8,3.7-0.6,7,0.1,9.7c-2.6,3.9-7.1,5.2-7.1,5.2
		c4.3,1.7,7.4,1.3,9.4,0.6l2.1,3l-1.4,1.4c0,0,0.7,2.9,2.8,5.7c-1.8,4.1-4.1,6.3-4.1,6.3c4.3,0.3,7.2-0.9,9.1-2
		c1.8,1,3.9,1.5,6.6,1.5l0.9-1l2.8,1.6c-1,3.7-3,5.6-3,5.6c4.5-0.3,7.1-2.1,8.7-3.8c2.1,0.3,4.5,0,6.8-1.1c-0.3,2.6-1.5,4.5-1.5,4.5
		c4.9-1.8,7.3-5,8.4-7.1c3.9-0.7,8.6-2.1,11.8-5.4c1.6-19.7,3.1-30.1,6.4-43.4c0,0,9.7,4.6,21.9-1c0,0,11.2-14.2,29.2-29.7
		c4.6,5.7,9.6,11.3,14.8,16.4c-1.9,5-4.4,14-4.4,26.6c0,15.6-10.9,24-10.9,24s0.1,2.3,2.2,4.6c-0.5,4.1-3,6.6-3,6.6
		c3.3-0.1,6-1.5,7.7-3.1l0.3,0.2l0.2,4.8c0,0,1.2,1.6,3.6,2.6c-0.2,3.3-1.4,5.5-1.4,5.5c3.2-0.3,5.7-2.4,7.5-4.2c0,0,2,0.2,3.6,0.2
		l3.7-2.8c0.3,3.2-1,5.9-1,5.9c4.1-2.1,6.4-4.6,7.5-6.5l2.8-0.8l2.4-3.9c0.4,2.3,0.3,4.4,0.3,4.4c2.8-2.7,4.2-5.7,5.1-8.2
		c0,0,2.1-1.3,2.6-1.7c0,0,3-15.8,2.5-29.2c28.6,18,62.4,28.4,98.6,28.4c64,0,120.5-32.5,153.9-81.9c2.1,2.1,4.7,3.4,7.4,4.3
		c-0.9,3.7-3.8,6.3-3.8,6.3c6.4,1,10.9-2.8,13.2-5.1c3.9-0.1,6.9-0.7,6.9-0.7c0.9,1,1.6,1.5,2.4,2.2c-0.7,4-3.2,6.4-3.2,6.4
		c6.8,1.7,10.6-2,12-3.9c2.3-0.3,3.8-1.3,3.8-1.3c1,0.7,2,1.1,3,1.5c-1,2.7-3.1,4-3.1,4c5.5,1.1,8.9-1.2,10.8-3.2
		c2.7-0.5,4.2-1.7,4.2-1.7c0.4-0.1,1-0.3,1.3-0.7c-0.7,1.6-1.2,2.7-1.2,2.7c3.9,0.6,7-3.9,8.6-7.1c0,0,7.5-4.2,7.5-14.8
		C492.9,268.1,473.4,263.6,473.4,263.6z M269.2,15.9c97.7,0,176.9,79.2,176.9,176.9c0,15.4-2,30.3-5.7,44.5
		c-15.1-18.1-21.9-35.9-49.6-44.5c-11.2-27.8-27.8-43.6-39.5-51.7l7.3-0.3c-3.1-0.8-6.3-1.1-9.7-1.4l-1.6-1.1
		c7.6-8.6,9.5-28.1,6.2-32.8c-3.5-5.1-27.5,2.8-27.5,2.8c-5.8-2.7-15.5-6.6-21.9-6c-5.8-5.8-18-15.9-34.4-16.7c0,0,1.4,2.2,2.3,5.1
		c-34.4-5-62.8,13.4-62.8,13.4c-7.5-0.5-7.5,2.8-7.8,4.8c-44.7,29.1-60.1,68.7-78.6,93.9c-7.2,5.5-17,13.4-27.6,20.7
		c-0.7-3.9-1.2-7.7-1.6-11.8c5.5-1.2,9.8-4.3,9.8-11.8c0-6.1-5.6-8.8-10.7-9.8C94,93.5,172.5,15.9,269.2,15.9z M348,191.3
		c0,0-6.6-3.7-15.7-3.8c0,0,1.6,4,1.9,6.3c0,0-8.3-2.1-12.4-2.2c0,0,3.6,9.9,1.4,15.6c0,0-5.8-3-16.7-2.1c0,0,4.4,21.7-6.1,26.4
		c-3.8,1.7-11.8,4.6-22.4,4.6c-10.6,0-17.9-2.8-22.4-4.6c-9.8-3.7-6-26.4-6-26.4c-6.4-0.9-14.9,2.1-14.9,2.1
		c-2.1-5.7,1.5-15.6,1.5-15.6c-5.4,0.8-15.5,4.6-15.5,4.6c-0.8-2.9,2.2-11,2.2-11c-7.5,1.4-13.4,5.7-13.4,5.7
		c1.5-30.8,16.7-43.5,16.7-43.5c-4.6-1.7-10.8-1-10.8-1c0.8-1.2,1.7-2.8,2.8-4.5c5.1,0.5,10.2,1.1,14.8,2c-2.2,3.7-3.2,7.9-1.6,12.5
		c0,0-9.9,9-14.1,24.6c0,0,3.5-3.2,13.7-5.7c0,0-1,3.7-3,12.1c0,0,5.4-1.5,14-3.2c0,0-1.9,7.5-2.7,16.1c0,0,11.2-3.1,15.5-0.8
		c-0.7,3.2-4.9,25.3,9.7,29.1c2.1,0.6,3.4-0.3,4.7-0.8c1.2-0.3,5.4-1.5,9.1-1.5c3.6,0,7.8,1.2,9.1,1.5c1.2,0.4,2.5,1.3,4.7,0.8
		c14.7-3.8,10.5-23.4,9.8-26.7c-0.7-3.2-0.5-12.6-0.5-12.6c1.8-0.1,8.1,1.1,8.1,1.1c-7.3-16.6,8.9-25.3,8.9-25.3
		c-0.3-3.7-3.5-7.1-3.5-7.1c3-5,3.9-9.4,3.6-13c5.4-1.5,12.8-2.5,19.7-3.2c1.1,1.6,2.1,3.2,2.8,4.5c0,0-4,0-8.9,1
		C331.7,147.3,348.8,173,348,191.3z M219.7,139.4c1.2-1.8,2.6-3.7,3.8-5.4c4.2,0.7,10,1.7,15.4,3.1c-1.5,1.2-2.9,2.6-4,4
		C229.9,140.4,224.8,139.8,219.7,139.4z M250.4,136.7c2.1-1.2,4.6-2.2,6.6-3.1c0,0,14.9,6,18.3,10.8l-3.1,7.1l-22,4
		c-2.4-2.5-3.9-4.6-4.9-6.5l20.9-0.6c0,0-9.3-3-21.6-5.5c0.3-1.2,1.1-2.4,2-3.3c0.1,0.1,0.3,0.1,0.4,0.2l16.1,1.5
		C263.1,141.2,258,138.8,250.4,136.7z M309,139.7c0.3-0.1,0.5-0.2,0.8-0.3c1,1,1.7,2.1,2.1,3.3c-12.7,2.7-22.2,5.6-22.2,5.6
		l21.4,0.6c-1,1.9-2.5,4.1-4.9,6.5l-22-4l-3.1-7.1c3.4-4.8,18.3-10.8,18.3-10.8c2.1,0.9,4.4,1.7,6.4,3c-7.8,2.2-13.1,4.6-13.1,4.6
		L309,139.7z M260.8,180.5c0,0-9.7-4-9.1-20.4c0,0,4.7-3.6,9.6-2.8C261.3,157.5,254.6,170.3,260.8,180.5z M260.1,205
		c2.8,7.9,10,12.3,10,12.3l2.8-1.9l2.8,1.9l2.1-1.9l2.1,1.9l2.8-1.9l2.8,1.9c0,0,7.2-4.4,10-12.3c0,0,3.2,8.8-5.1,16.6l-5.2-1.4
		c0,0-2.9,1.4-7.5,1.4c-4.7,0-7.5-1.4-7.5-1.4l-5.2,1.4C257,213.9,260.1,205,260.1,205z M267.9,169.5c9.2-3.3,10,11.7,10,16
		c0.1-4.3,1-19.4,10-16c0,0-5.8,11.8-1.2,19.4c4.5,7.4,0.7,19.1-2.1,19.9c-1.5,0.5-3.2,0.7-6.8,0.7c-3.7,0-5.2-0.2-6.8-0.7
		c-2.8-1-6.5-12.5-2.1-19.9C273.7,181.2,267.9,169.5,267.9,169.5z M288.7,163.7l-3.7-1.5l-2.3,1.4l-2.4-1.4l-2.3,1.4l-2.3-1.4
		l-2.4,1.4l-2.3-1.4l-3.7,1.5c-4.3-4.1-0.9-7.1-0.9-7.1l4.8,2.7h13.6l4.8-2.7C289.5,156.5,292.9,159.5,288.7,163.7z M295.1,180.5
		c6.1-10.3-0.5-23-0.5-23c4.9-1,9.5,2.8,9.5,2.8C304.8,176.4,295.1,180.5,295.1,180.5z M277.9,135.1l-12.7-3.6h25.3L277.9,135.1z
		 M315.3,137.6c5.7-1.5,12.4-2.8,17.1-3.5c1.2,1.7,2.5,3.5,3.8,5.4c-6.4,0.4-12.8,1.2-18.7,2.3C316.9,140.3,316.1,138.8,315.3,137.6
		z M339.3,132.8c0,0,1-8.2,0.3-11.9c0,0-3.2-0.3-11.9,6.5c0,0,1.7,2.3,3.9,5.4c-6.6,0-13,0.9-18.5,2.1c-1.1-1-2.2-1.9-3.3-2.8
		c-1.6-1.1-3.3-2.1-5.1-2.8c-2.1-0.9-2.7-3.4-0.4-3.4c2.6,0,2.8,2.4,2.8,2.4l4.8-2.2l7,0.3l4.3,0.2l-13.1-8.4l-16.5,7.1l-11.5-2.3
		l6.4,4.6H268l6.4-4.6l-11.5,2.3l-16.4-7.1l-13.1,8.3l4.2-0.2l7-0.3l4.9,2.2c-0.2-0.9,0.7-2.6,2.7-2.6c2.6,0,1.5,3.2-0.5,3.5
		c-1.5,0.8-3.3,1.6-5.2,2.8c-1.3,0.9-2.8,1.6-4.1,2.7c-5.4-1.1-11.5-1.9-17.7-1.9c2.2-3.2,3.9-5.4,3.9-5.4
		c-6.4-10-14.3-14.7-14.3-14.7c5.3,0.5,11.4,2.7,16.3,5.1l0.9,4.5c6.2-6.8,15.3-11.2,15.3-11.2c11.9-3.7,31.4,4.3,31.4,4.3
		s19.5-8,31.3-4.3c0,0,7.5,3.2,13.6,9.3c0,0,14.2-7.7,22.4-8.5C345.2,111.5,347.1,124.8,339.3,132.8z M280.9,97.2
		c0,0,7.4,2.7,11.1,7c-3.4,0.8-6.8,1.5-9.4,2.2c-7-4.9-19.9-4.6-19.9-4.6c1.1,0.9,2.2,1.5,3.2,2.8c-15.5-4.3-23.3-2.4-35.8,3.8
		c0,0-4-1.3-9-2.6c15.8-7.5,41.5-13.9,61-5.2L280.9,97.2z M51.5,243.6c-5,0-7.7-1.7-7.7-6c0-13.4,20.9-25.1,38.1-25.1c1,0,2,0,3,0
		c0.6,5.4,1.4,10.9,2.5,16.2C74.4,237,61.2,243.6,51.5,243.6z M79.1,249.9c-1.8,1.1-3.4,2.1-5.1,3.2c-0.2-2.7-1.1-6.1-4.1-9.6
		c1.5-0.7,3.2-1.4,5-2.3C76.7,242.9,78.9,245.8,79.1,249.9z M100,226.1c0.8,0.8,1.3,1.7,1.5,3.2c-4.5,5.1-8.4,9.1-11.7,12.2
		c-0.2-1.9-1.1-4.3-3.4-6.5C90.5,232.5,95,229.5,100,226.1z M83.9,189.2L83.9,189.2C83.9,189.2,83.8,189.2,83.9,189.2L83.9,189.2z
		 M64.2,195.8c3.9-1.2,8.2-2.2,13.1-3.1c0,0-2.1,2.1-2.7,3.1c0,0,3.5-0.9,7.7-1.2c-1.5,2.5-4.1,7.5-2.8,12.4c-3.5,0.3-9,1-14.9,2.8
		C62.7,204.3,63.5,198.9,64.2,195.8z M36.4,210.7c4.5,6.5,8.9,5.2,8.9,5.2c-2.5-2.8-3-7-3-10c2.8-2,6-3.8,9.7-5.5
		c-1.1,5.8,1.5,10.5,3.7,13.1C43.9,220.1,40.3,228,40.3,228c-6.5-1.4-9.7-6.6-11-9.6C31.3,216.1,33.6,213.4,36.4,210.7z M25.2,248.5
		c0,0-3.9-8.5-1.2-18.1c4.3,6.1,10,7,13.6,6.9c-0.3,2.7,0.2,5.3,1.9,7.5C34.6,249,28.5,248.8,25.2,248.5z M56.3,261
		c0.3-5.3-3.8-8.5-3.8-8.5c0.8,2.7-1.7,6.9-3.5,9.5c-10,0.8-16-4.2-16-4.2c7.3-2.8,10.8-7,12.4-9.5c3.1,0.8,8.3,1,16.7-1.7
		c1.8,1.9,4.6,5.8,3.4,11.8C62.7,259.3,59.6,260.3,56.3,261z M151.4,315.8c-2,1.9-3.9,3-5.4,3.6c-5.4-5.2-10.3-10.7-14.9-16.5
		c7.5-5.7,15.7-11.6,24.6-16.5C149.4,300.2,151.4,315.8,151.4,315.8z M159.1,236.9c6.6-24.8,25-27.8,25-27.8
		c-15.8-2.1-26.8,13.1-30.3,18.8c0.3-2.4,0.9-5.4,1.5-8.9c16-26,38.8-29.9,38.8-29.9c-11.3-5.5-28.2,5.7-33.6,9.7
		c3.1-9.3,7.3-18.7,13-26.3c0,0-7.2,1.7-9.2,2.7c0,0,4.4-13.3,14-22.2c0,0-16.5,9.9-23.3,31.2c0,0,3.4-1.1,4.8-1.3
		c0,0-15.3,24.8-15.7,55.4c0,0,3.3-0.2,7.3,4.4c1.9,2.2,3.9,5.5,5.7,10.6c-5.4,3.4-14.1,9.4-24.1,17.7c-2.1-1.8-4.4-4-6.6-6.7
		c-3.9-4.7-7.5-10.9-10.3-19c0,0-2.5,13.1,4.3,25.8c1.2,2.3,2.8,4.6,4.7,6.9c-9.3,8.4-19,18.6-27.7,30.6c-0.1-0.1-0.2-0.1-0.3-0.2
		c-8.8-5.6-8.8-24.8-27.1-26.9c13.9,7,7.8,23.5,20.8,36.8c-0.7,1-1.2,2.1-1.9,3.1c-5.3-2.1-11-5.5-15.4-11.7c0,0,1.4,11.3,11.8,17.7
		c-0.6,1.1-1.1,2.1-1.7,3.2c-6.6-1.7-16.7-5.9-22.6-16.5c0.6,10,7.1,16.5,7.1,16.5c-3.3,8.1-5.5,18.8-5.5,18.8
		c-3.5,0.7-10.4,0.6-18.4-7.1c0,0,2.3,14.3,16.9,15.2c-0.9,3.8-1.1,8.5-1.6,13.2c-0.4,3.2-1,6.3-2.1,9.1c0,0-2.8,2.1-6.8,2.9
		c0.1-2,0.1-3.9-0.5-5.3c0,0-1.9,5.5-5,7.5c0,0-5.2,1.3-9.3-2.4c1-2.3,1.9-5.2,2-8.3c0,0-3.2,5.9-6.7,8.4c0,0-5.3-0.5-7.5-5.2
		c0,0,2.9-3.8,2.1-9c0,0-0.9,1.1-2.7,3.2c-3.4-4.4-2.4-10.6-2.4-10.6c1.3-1.1,2.6-2.3,3.7-3.5c7.5-8.2,11.9-19.2,14.2-27.2
		c2.7,2.8,7.5,5.3,15.8,3c0,0-9.1-4.4-13.7-12.4c0.3-1.7,0.6-3.3,1-4.9c1.9,3,5.3,6,11.2,7.5c0,0-7-7.7-8.9-16.9
		c2.5-8.2,5.2-12.6,5.2-12.6c2.3,1.5,12.4-2.7,12.4-2.7c-1.3-8.9,1.1-16,5.1-21.5c12.7-1.1,19.1,10.5,19.1,10.5
		c1-10.9-6.9-16.6-11.2-18.7c4.3-3.6,12.2-8.2,13.5-9.4c4.9,11.2,19,15.1,21.1,25.5c3.8-10.8-10-19.9-11.7-33.2
		c6.2-5.7,12-12.3,17.7-19.3c3.2,8.1,9.4,18,21.3,24.6c0,0-10-12-14.1-33.9c2.2-3.1,4.4-6.2,6.4-9.2c1.2,4.4,4.2,10.3,11.8,14.5
		c0,0-5.8-12.7-5.2-24.7c2.9-4.6,5.4-8.8,7.6-12.4c-0.5,4.6-0.3,11.2,2.5,17.9c0,0,1.2-18.6,6.9-33.2c7.4-10.2,14.7-19.1,21.9-26.8
		c4.8,1.1,12.5,4.6,14.9,15c0,0,6.6-14.2-7-22.9c1.9-1.9,3.9-3.6,5.7-5.3c2.8,0.9,6.8,2.8,8.5,7c0,0,1.5-4.4-3.5-11.2
		c2.8-2.2,5.4-4.3,8-6.2c0.8,7.6,3.5,16.8,8.5,21.5c-4.4,0.2-8.5,0.7-12.3,1.5c0,0,4.8,0.1,11.4,0.5c-2.3,2.3-6.7,7.2-8.5,11.8
		c0,0,7.8-1,12.4-0.7c0,0-2.4,3.3-5.3,9.3c-4.9,0.3-12.8,2.1-24.1,8.6c0,0,11.8-3.7,20.8-1c-3.4,9.3-6.6,22-6.2,36.9
		c0,0,6-4.3,14-7.6c0,0,1.5,7.7,1.6,13.3c-9-0.7-29.5,0.2-38.4,19.9c0,0,20.5-17.3,37.8-8.1c-0.5,2.8-1.1,5.4-2.2,7.8
		c0,0,2.1,3.5,5.1,8.6c-5.6,1.7-16.5,6.7-19.4,20.7c0,0,10.8-13.7,24.2-12.2c4.6,8.5,9.7,18.3,11.6,24.3c-2.1,2.9-3.3,5.7-3.3,5.7
		c3.4-2.8,10.9-4.8,10.9-4.8c16.1,0.7,25.7-6.5,25.7-6.5c13.9-0.3,18.8,10.2,18.8,10.2c-0.2,2.4-1.2,4.4-2.2,5.6
		c-4.7-4.4-11.3-6.2-11.3-6.2c7.5,4.8,8.7,11.6,8.7,11.6c-1,1.9-2.5,3.9-3.9,5.6c-5-5.4-12-6.8-12-6.8c9.4,6.3,8,11.8,8,11.8
		c-0.7,2.8-2,4.8-3.4,6.3c-5.7-6.7-13.2-7.5-13.2-7.5c5.2,2.7,7.9,9.2,7.9,9.2c-3.2,7-11.2,7-11.2,7c-1.3-1.7-7.5-5.2-7.5-5.2
		c-24.3,3.3-29.7-8-30.4-17c-0.4-5.4,1-10.1,1-10.1c-1.4,3.3-2.5,6.4-3.3,9.3c-1.1-0.6-4.7-2.3-9.5-5.2c-1.1-12.4,6.4-18.2,6.4-18.2
		c-9.4,1.6-13.2,8.6-14.6,12.8c-8.2-4.4-14.9-14-14.9-14C179,248,193.7,241,193.7,241c-15.8-0.6-22.4,13.1-23.8,16.6
		C164.7,250.8,164.7,243.2,159.1,236.9z M269.2,369.5c-33.1,0-64-9.1-90.6-24.9c2.3,0.2,5.2,0.3,8.2,0.2c0,0,16.1-10.9,27.2-29.1
		c9.8,9,31,3.2,31,3.2l8.9,3.7c3.4-0.5,6.3-1.2,8.5-2.1c3.2,3.2,3.2,7,3.2,7c3-3,3-6.9,2.3-9.8c1.9-1.5,2.8-3,3.3-4
		c0.8-0.4,1.4-0.9,2.1-1.2c3.2,2.1,4.6,6.7,4.6,6.7c2.2-5.1,1.1-9,0-11.2c1.5-2.1,2.1-3.8,2.1-3.8l-0.1-0.5c0.5-0.4,1-0.9,1.4-1.2
		c3.3,3.2,4.1,7,4.1,7c3-5.7,1.5-10.2,0.1-12.8c0.9-1.5,1.2-2.7,1.2-2.7c0-0.9-0.1-1.6-0.2-2.4c0.6-0.6,1.1-1.1,1.5-1.6
		c3.3,3.2,3.3,7,3.3,7c3.1-5.1,1.7-11,0.7-14.1c1.1-3.3,1.1-5.6,1.1-5.6c-3.9-17.7-28.7-16.5-28.7-16.5c-10.6,6-19.9,7.1-24.1,7.2
		l-3.5-6.4c16.9-1.6,20.4-8.2,35.5-8.2c16.1,0,24.3,8.8,24.3,8.8s16.8-7.4,30.9-22.2c12.9,8.9,41,7.7,41,7.7
		c14.1,15.9,39.8,24,39.8,24c-1.3,6.6,1.1,10,3.9,11.8c-0.4,3.2-0.4,7.5,1.7,10.7C381.9,339.8,329,369.5,269.2,369.5z M479.2,293.8
		c0.8-6.4-3.8-9.7-3.8-9.7c4,5.7-0.9,13.5-0.9,13.5c-3.9,2.1-8.2-0.5-8.2-0.5c3.2-10.1-4.3-15.5-4.3-15.5c4,5.8,0.3,14.5,0.3,14.5
		c-7.6,2.5-10.1-2.4-10.1-2.4c3.2-10.3-5.1-14.2-5.1-14.2c6.3,6.2,0.6,13.1,0.6,13.1c-7.4,2.8-13.7-2.2-13.7-2.2
		c-3-4.2-5.1-9.2-5.1-9.2c-15.4-5.7-11.4-15.1-11.4-15.1c-16.3-2.5-32.3-14.8-39.9-21.5c-0.3-3.7-0.4-8.7,0.9-13.6
		c0.7-2.5,1.5-5,3-7.2c0,0-4,1.7-7.5,6.4c-1.9,2.5-3.7,5.7-4.6,9.9c-3.5,0-6.9-0.3-9.9-0.9c-0.9-3.7-1.1-7.2-1-10.3
		c0.8-14.1,9.5-22.1,9.5-22.1c-10.6,2.5-16.4,11.2-18.6,20.3c-0.9,3.2-1.1,6.3-1.1,9.3c-5.5-2-9.7-4.4-12.4-6.2
		c1.5-2.2,2.9-4.6,4.1-7c1.7-3.3,3.2-6.9,4.2-10.6c0,0-7.3,9.2-18.8,18.5c1.5-5.4,1.1-9.1,1.1-9.1s-3.3,7.2-20.6,21.9
		c7-7.5,13.9-17.6,15-28.7c8.5,1.4,13.5,3.4,13.5,3.4c2.1-8.1-0.1-16.1-0.1-16.1c5.2,1.2,9,3.7,9,3.7c-0.6-3-2.5-9.4-2.5-9.4
		c8.9,3.4,17.2,9.4,17.2,9.4c1.8-31.5-14-53.6-14-53.6c2.2-0.3,4.8-0.1,6.9,0.2c3.7,2.7,7,5.5,10,8.6c2.6,6.3,7.1,20.2,4.4,34.4
		c0,0,6.2-3.4,7-20.6c6.4,9.4,10.3,18.2,12.2,22.8c-4,2.8-9.7,8.7-10.8,21.5c0,0,7.5-12.4,19-15.6c4.6,1.8,8.9,4.2,13.1,7
		c-5.5,3.3-16.2,12.1-17.1,29.3c-0.1,2-0.1,4,0.1,6.3c0,0,0.5-2,1.7-4.9c3.2-7.5,11.1-20.9,26.7-21.5c2.1,1.9,3.9,3.9,5.7,5.8
		c-4.2,1.5-11.8,5.7-14.3,16.8c0,0,9.9-9.7,19.8-10c7.1,8.3,10.8,17.7,28.2,28.4c-4.9,0.3-7.3,1.4-7.3,1.4
		c13.2,2.5,22.2,6.3,27.7,10.5C486.1,280.2,485.6,288.4,479.2,293.8z"/>
	<path d="M322.5,150.6c3.3,6.4,4.7,17.8,4.5,19.6c0,0-2.7-0.3-7.8,0.3c0,0,2.1,6.2,1.8,8.8c0,0-6.4-0.7-8.7,0.3c0,0,5.5,10.2,6,19.9
		c0,0,0.7-11.6-0.3-14.9c4-0.3,10.8,1.1,10.8,1.1c0-2.2-1.5-7.8-1.5-7.8c3.6,0,8.4,0.3,11.5,1C338.7,178.9,333.2,159.3,322.5,150.6z
		"/>
	<polygon points="293.4,122.6 302.6,116 287.7,119.7 	"/>
	<polygon points="262.5,122.6 268.4,119.7 253.5,116 	"/>
	<polygon points="216.5,350.1 220.9,351.5 224.2,340.3 230,342 231.2,338.2 225.4,336.5 227.3,329.9 235.1,332.2 236.3,328.3 
		224,324.8 	"/>
	<path d="M253,330.9c-4.7-0.6-7.3,2.2-7.6,5.9l-1.6,13.6c-0.4,3.7,1.4,7,6.1,7.5c4.7,0.6,7.3-2.2,7.6-5.9l1.5-13.6
		C259.6,334.7,257.8,331.5,253,330.9z M254.6,338l-1.5,13.3c-0.3,2-1,2.8-2.8,2.7c-1.8-0.3-2.3-1.2-2.1-3.2l1.5-13.3
		c0.3-2,1-2.9,2.8-2.7C254.4,335,254.8,336.1,254.6,338z"/>
	<path d="M278.8,331.5c-4.8,0.3-6.8,3.5-6.4,7.3l1,13.7c0.3,3.7,2.7,6.6,7.5,6.3c4.8-0.3,6.7-3.5,6.4-7.3l-1-13.7
		C285.9,334.1,283.6,331.2,278.8,331.5z M280.4,354.7c-1.8,0.1-2.5-0.9-2.7-2.8l-1-13.4c-0.2-2,0.4-3,2.2-3.1
		c1.8-0.2,2.5,0.8,2.7,2.8l1,13.4C282.7,353.7,282.2,354.6,280.4,354.7z"/>
	<polygon points="308.7,330.7 307.8,326.9 294.7,330 295.7,333.9 300,332.8 305.2,354.8 309.6,353.7 304.4,331.8 	"/>
	<path d="M331.1,331.6c1.7-1.6,1.6-4.2,0.8-6.4c-1.7-4.1-4.7-5.6-9.2-3.7l-6.2,2.6l10.2,24.5l6.6-2.8c4.8-2,5.3-5.7,3.6-9.8
		C335.6,332.8,333.7,331.6,331.1,331.6z M322.2,325.8l1.5-0.7c1.9-0.8,3.2,0,4.2,2.3c0.9,2.1,0.1,3.6-1.5,4.3l-1.5,0.7L322.2,325.8z
		 M331.2,342.6l-1.7,0.8l-3.2-7.5l1.3-0.6c2.5-1.1,3.9-0.2,5.1,2.3C333.7,340,333.5,341.6,331.2,342.6z"/>
	<path d="M341.6,312l10,24.9l3.7-2.3l-2.5-5.4l4.2-2.7l3.8,4.6l3.7-2.4l-18.3-19.7L341.6,312z M346.8,314.9l7.5,8.7l-3.1,2
		L346.8,314.9L346.8,314.9z"/>
	<polygon points="376.4,314.2 361.4,297.3 358.1,300.3 375.7,320.1 384.5,312.4 381.8,309.4 	"/>
	<polygon points="392.4,298.1 375.2,283.4 372.2,286.9 392.4,304.1 400,295.2 397,292.6 	"/>
	<path d="M190.7,97.2C198.2,90.8,201,83,201,83l-14.2-16.8l-13,11l6.1,7.2l5.5-4.7L189,84c0,0-1.1,3.3-4.8,6.4
		c-4.2,3.5-11.6,5-17.1-1.5c-3.3-4-5.9-11.6,0.9-17.3c5.3-4.6,10.2-3.3,10.2-3.3l0.4-10.5c0,0-7.6-1-16.2,6.3
		c-11,9.4-11.8,21.5-2.9,32.1C167.1,104.9,180,106.3,190.7,97.2z"/>
	<polygon points="124.1,131.7 153.9,145.3 158.1,136.2 128.4,122.5 133.1,112.1 124.9,108.3 111.1,138.5 119.3,142.3 	"/>
	<polygon points="170.8,116.1 136.9,91.8 130.9,99.9 164.9,124.2 	"/>
	<polygon points="235.9,71.6 232.2,63 214.1,70.4 211.4,63.8 227.7,57.1 224.1,48.4 207.9,55.2 205.4,49.3 222.5,42.1 219,33.4 
		192.5,44.4 208.4,82.9 	"/>
	<polygon points="291.7,46.1 276.6,44.6 275.8,52.6 290.9,54.1 	"/>
	<path d="M334.2,85.7l7.8-5l12,8.8l-2.3,9l9.2,6.7l10-44.3l-6.5-4.8l-39.2,22.8L334.2,85.7z M359.3,69.7l-2.9,10.9l-6.6-4.9
		L359.3,69.7z"/>
	<polygon points="362.1,109.4 368.6,117.1 393.7,96.4 401.1,105.4 408.1,99.6 387,74 380,79.8 387.3,88.7 	"/>
	<path d="M400.6,111.8c-7.4,3.6-6.3,10.5-5.4,16.1c0.7,4.6,1,7.4-1.4,8.5c-2.4,1.1-4.8-1.4-5.7-3.3c-1.2-2.6-1.2-6.1,0.3-8.8
		l-10.2-3c-1.7,5.2-1.1,10.4,1.3,15.5c4.4,8.8,12,12.1,19.7,8.4c7.7-3.8,6.6-10.6,5.7-16.2c-0.8-4.2-1.1-7,1.2-8
		c2.4-1.1,4.7,1.3,5.6,3.3c1,1.7,1.4,5.1,0.2,7.1l9.9,2.9c1.3-4.3,0.8-9.4-1.5-14C416.7,113.1,409.1,107.6,400.6,111.8z"/>
	<path d="M251.1,69.3l-1.7-16.1l3.4-0.4L262.9,68l11.9-1.3l-12.2-16.2c0,0,8.2-2.5,7.2-12.2c-1-8.3-6.9-12.2-17.2-11.2l-16.2,1.7
		l4.5,41.5L251.1,69.3z M252.8,35.8c2.5-0.3,6.4-0.4,6.8,3.3c0.3,3.3-2.3,4.2-6.4,4.7l-4.7,0.5l-0.9-8L252.8,35.8z"/>
	<path d="M312.2,76.7c10.9,3.8,17.7-2.1,17.7-2.1L324,66c0,0-4,3.5-9.1,1.7c-5.8-2.1-8.8-8.6-6.5-15.2c2.3-6.6,8.1-10.6,14.5-8.4
		c5.3,1.8,6.1,5.7,6.1,5.7l9.4-3.4c0,0-2.1-7.5-11.4-10.8c-13.2-4.6-24.3,1.5-28.6,13.7C294.3,61.4,301,72.8,312.2,76.7z"/>
</g>
</svg>
