<?xml version="1.0" encoding="utf-8"?>
<!-- Generator: Adobe Illustrator 21.1.0, SVG Export Plug-In . SVG Version: 6.00 Build 0)  -->
<!DOCTYPE svg PUBLIC "-//W3C//DTD SVG 1.1//EN" "http://www.w3.org/Graphics/SVG/1.1/DTD/svg11.dtd">
<svg version="1.1"
	 id="Layer_1" xmlns:cc="http://creativecommons.org/ns#" xmlns:dc="http://purl.org/dc/elements/1.1/" xmlns:rdf="http://www.w3.org/1999/02/22-rdf-syntax-ns#" xmlns:svg="http://www.w3.org/2000/svg"
	 xmlns="http://www.w3.org/2000/svg" xmlns:xlink="http://www.w3.org/1999/xlink" x="0px" y="0px" width="500px" height="278.8px"
	 viewBox="0 0 500 278.8" style="enable-background:new 0 0 500 278.8;" xml:space="preserve">
<style type="text/css">
	.st0{clip-path:url(#SVGID_2_);fill:#FFFFFF;}
	.st1{clip-path:url(#SVGID_4_);fill:#FFFFFF;}
	.st2{clip-path:url(#SVGID_6_);fill:#FFFFFF;}
	.st3{clip-path:url(#SVGID_8_);fill:#FFFFFF;}
	.st4{clip-path:url(#SVGID_10_);fill:#FFFFFF;}
	.st5{clip-path:url(#SVGID_12_);fill:#FFFFFF;}
	.st6{clip-path:url(#SVGID_14_);fill:#FFFFFF;}
	.st7{clip-path:url(#SVGID_16_);fill:#FFFFFF;}
	.st8{clip-path:url(#SVGID_18_);fill:#FFFFFF;}
	.st9{clip-path:url(#SVGID_20_);fill:#FFFFFF;}
	.st10{clip-path:url(#SVGID_22_);fill:#FFFFFF;}
	.st11{clip-path:url(#SVGID_24_);fill:#FFFFFF;}
	.st12{clip-path:url(#SVGID_26_);fill:#FFFFFF;}
	.st13{clip-path:url(#SVGID_28_);fill:#FFFFFF;}
	.st14{clip-path:url(#SVGID_30_);fill:#FFFFFF;}
	.st15{clip-path:url(#SVGID_32_);fill:#FFFFFF;}
	.st16{clip-path:url(#SVGID_34_);fill:#FFFFFF;}
	.st17{clip-path:url(#SVGID_36_);fill:#D6D7D9;}
	.st18{clip-path:url(#SVGID_38_);fill:#D6D7D9;}
	.st19{clip-path:url(#SVGID_40_);fill:#D6D7D9;}
	.st20{clip-path:url(#SVGID_42_);fill:#D6D7D9;}
	.st21{clip-path:url(#SVGID_44_);fill:#A8B2B8;}
	.st22{clip-path:url(#SVGID_46_);fill:#A8B2B8;}
	.st23{clip-path:url(#SVGID_48_);fill:#A8B2B8;}
	.st24{clip-path:url(#SVGID_50_);fill:#A8B2B8;}
	.st25{clip-path:url(#SVGID_52_);fill:#A8B2B8;}
	.st26{clip-path:url(#SVGID_54_);fill:#A8B2B8;}
	.st27{clip-path:url(#SVGID_56_);fill:#7D4800;}
	.st28{clip-path:url(#SVGID_58_);fill:#7D4800;}
	.st29{clip-path:url(#SVGID_60_);fill:#7D4800;}
	.st30{clip-path:url(#SVGID_62_);fill:#7D4800;}
	.st31{clip-path:url(#SVGID_64_);fill:#7D4800;}
	.st32{clip-path:url(#SVGID_66_);fill:#7D4800;}
	.st33{clip-path:url(#SVGID_68_);fill:#7D4800;}
	.st34{clip-path:url(#SVGID_70_);fill:#910028;}
	.st35{clip-path:url(#SVGID_72_);fill:#910028;}
	.st36{clip-path:url(#SVGID_74_);fill:#910028;}
	.st37{clip-path:url(#SVGID_76_);fill:#910028;}
	.st38{clip-path:url(#SVGID_78_);fill:#910028;}
	.st39{clip-path:url(#SVGID_80_);fill:#910028;}
	.st40{clip-path:url(#SVGID_82_);fill:#910028;}
	.st41{clip-path:url(#SVGID_84_);fill:#910028;}
	.st42{clip-path:url(#SVGID_86_);fill:#910028;}
	.st43{clip-path:url(#SVGID_88_);fill:#910028;}
	.st44{clip-path:url(#SVGID_90_);fill:#003C78;}
	.st45{clip-path:url(#SVGID_92_);fill:#003C78;}
	.st46{clip-path:url(#SVGID_94_);fill:#003C78;}
	.st47{clip-path:url(#SVGID_96_);}
	.st48{clip-path:url(#SVGID_98_);}
</style>
<g>
	<g>
		<defs>
			<polyline id="SVGID_1_" points="0,0 0,278.8 500,278.8 500,0 			"/>
		</defs>
		<clipPath id="SVGID_2_">
			<use xlink:href="#SVGID_1_"  style="overflow:visible;"/>
		</clipPath>
		<path id="path252" class="st0" d="M472,267.1l-33.6-34.5v-61.8c-1,0.4-2,0.7-3,1v62l29.6,30.4H264.4l69.8-33.9
			c-21.7-0.1-32.5-8.9-36-12.4c-1,0.6-2.1,1.1-3.2,1.5c4.6,3.8,15.6,11.9,29,12.6l-5.9,2.8l-66.5,32.2l0,0l0,0L472,267.1"/>
	</g>
	<g>
		<defs>
			<polyline id="SVGID_3_" points="0,0 0,278.8 500,278.8 500,0 			"/>
		</defs>
		<clipPath id="SVGID_4_">
			<use xlink:href="#SVGID_3_"  style="overflow:visible;"/>
		</clipPath>
		<path id="path254" class="st1" d="M207.1,200.9l-35.8,32.9l29.6,30.3H63.8l59.9-29.1l72.2-66.3c-0.2-1.2-0.3-2.4-0.5-3.6
			L122,232.7h0l-70.9,34.4h156.8L175.6,234l33.2-30.5C208.2,202.6,207.7,201.8,207.1,200.9"/>
	</g>
	<g>
		<defs>
			<polyline id="SVGID_5_" points="0,0 0,278.8 500,278.8 500,0 			"/>
		</defs>
		<clipPath id="SVGID_6_">
			<use xlink:href="#SVGID_5_"  style="overflow:visible;"/>
		</clipPath>
		<path id="path256" class="st2" d="M363.7,14.6h71.7v103.9c1.1,0.5,2.1,1.1,3,1.6V11.7h-75.9l-42.1,38.7c1.1,0.3,2.2,0.6,3.4,0.9
			L363.7,14.6"/>
	</g>
	<g>
		<defs>
			<polyline id="SVGID_7_" points="0,0 0,278.8 500,278.8 500,0 			"/>
		</defs>
		<clipPath id="SVGID_8_">
			<use xlink:href="#SVGID_7_"  style="overflow:visible;"/>
		</clipPath>
		<path id="path258" class="st3" d="M415.7,115.4l-0.1-0.2c-0.1-0.1-6-11.4-19.1-23.9c-0.1-0.2-9.8-18.6-9.8-18.6s-0.7,2.8-0.8,3.4
			c-2.2-3.4-7.9-12.3-14.7-20.3l0.9,3.7c0,0.1,1.3,5,2.3,10.6c0.3,1.9,0.6,3.8,0.8,5.7c-1.2-0.7-5.2-2.8-5.2-2.8l1.2,2.4
			c0,0.1,3.5,6.9,4.7,11.4c-1.8-0.7-5.2-1.8-11-3.1c-0.3-0.6-7.2-12.7-7.2-12.7s0,3.8,0,4.3c-2.8-3.7-8.9-11.9-12.2-17.1
			c-0.3-0.5-0.6-0.9-0.8-1.3l-2.4-3.9c0,0,0.3,1.8,0.8,4.4c1,4.9,2.7,12.9,4.4,19c-0.9-0.5-4-2-4-2l1.1,2.2c0,0,2.1,4.6,2.9,9.4
			c0.5-0.1,0.8-0.1,0.8-0.1c-0.7-5.1-2.9-9.6-2.9-9.6l3.5,1.8c-3-10.1-4.9-20.7-4.9-20.7c4,6.7,14.6,20.5,14.6,20.5v-3.6l5.8,10.3
			c9.3,2,12.7,3.7,12.7,3.7c-0.6-4.5-5.1-13.2-5.1-13.2l4.2,2.3c-0.7-8.1-3.3-18-3.3-18c6.7,8.1,13.4,18.9,13.4,18.9L387,75
			l8.8,16.7c13.2,12.6,19,23.8,19,23.8C415.1,115.5,415.4,115.5,415.7,115.4"/>
	</g>
	<g>
		<defs>
			<polyline id="SVGID_9_" points="0,0 0,278.8 500,278.8 500,0 			"/>
		</defs>
		<clipPath id="SVGID_10_">
			<use xlink:href="#SVGID_9_"  style="overflow:visible;"/>
		</clipPath>
		<path id="path260" class="st4" d="M268.4,207.7c0.8,2.5,1.9,4.8,3.3,6.9c2.6,1.5,4.8,2.5,6.4,3.6c0.3,0,0.6,0,0.9,0.1
			c-2.5-2.8-4.3-6.2-5.2-10C271.8,208.3,270,208,268.4,207.7"/>
	</g>
	<g>
		<defs>
			<polyline id="SVGID_11_" points="0,0 0,278.8 500,278.8 500,0 			"/>
		</defs>
		<clipPath id="SVGID_12_">
			<use xlink:href="#SVGID_11_"  style="overflow:visible;"/>
		</clipPath>
		<path id="path262" class="st5" d="M287.2,182.1c-1.5-1.5-3.2-3-4.9-4.4c-5.3,2.4-9.7,6.6-12.3,11.7c2.3,1.7,4.2,2.9,5.5,3.7
			C278,188.2,282.1,184.3,287.2,182.1"/>
	</g>
	<g>
		<defs>
			<polyline id="SVGID_13_" points="0,0 0,278.8 500,278.8 500,0 			"/>
		</defs>
		<clipPath id="SVGID_14_">
			<use xlink:href="#SVGID_13_"  style="overflow:visible;"/>
		</clipPath>
		<path id="path264" class="st6" d="M296.8,180.1c1.2,0,2.4,0.1,3.5,0.3c-0.9-1.6-1.8-3.2-2.9-4.7c-1.4-0.2-2.8-0.3-4.2-0.3
			c-2.8,0-5.6,0.5-8.1,1.3c1.7,1.4,3.3,2.9,4.9,4.5C292.1,180.4,294.4,180.1,296.8,180.1"/>
	</g>
	<g>
		<defs>
			<polyline id="SVGID_15_" points="0,0 0,278.8 500,278.8 500,0 			"/>
		</defs>
		<clipPath id="SVGID_16_">
			<use xlink:href="#SVGID_15_"  style="overflow:visible;"/>
		</clipPath>
		<path id="path266" class="st7" d="M254.7,160.8c1.6,0.7,3.2,1.4,4.9,2.3c-3.1,2.3-4.6,4.6-4.6,4.6l2.1,1.5c0,0,1.4-2.6,4.5-5.1
			c1.5,0.8,3,1.6,4.5,2.5c-3.5,2.8-4.9,5.6-4.9,5.6l2.1,1.7c0,0,1.2-3.2,4.6-6.3c2,1.2,4,2.5,6,3.8c0.6-0.6,1.2-1.2,1.9-1.8
			c-1.9-1.3-3.8-2.5-5.8-3.6c1.4-0.9,3-1.8,5-2.4l-1.8-0.9c-1.9,0.6-3.5,1.4-4.9,2.3c-1.5-0.9-3-1.7-4.6-2.4
			c1.3-0.8,2.8-1.5,4.5-2.1l-2-0.8c-1.6,0.5-3.1,1.2-4.4,2c-1.7-0.8-3.4-1.6-5-2.3c1.1-0.6,2.4-1.3,3.8-1.7l-2.2-0.7
			c-1.4,0.5-2.6,1-3.7,1.6c-3-1.2-5.8-2.1-8.5-2.8c-0.6,0.5-1.2,1-1.8,1.6c2.4,0.6,5.1,1.5,8,2.7c-2.6,1.9-3.9,3.8-3.9,3.8l2.1,1.3
			C250.8,164.9,252.1,162.9,254.7,160.8"/>
	</g>
	<g>
		<defs>
			<polyline id="SVGID_17_" points="0,0 0,278.8 500,278.8 500,0 			"/>
		</defs>
		<clipPath id="SVGID_18_">
			<use xlink:href="#SVGID_17_"  style="overflow:visible;"/>
		</clipPath>
		<path id="path268" class="st8" d="M340.5,129c13.9,0,23.4,11.3,23.4,11.3s-0.9-5.8,4-10.6c-1.8-2.6-5.1-8.8-8.2-15
			c-11.7-4.7-19.9-3-19.9-3l8.5,2.6c-14.9-3-19.9,1.9-19.9,1.9l6.6-0.2c-9,1.2-13.5,6-15.1,8.1c2.7,8.4,2.5,15.1,2.5,15.1
			S330.8,129,340.5,129"/>
	</g>
	<g>
		<defs>
			<polyline id="SVGID_19_" points="0,0 0,278.8 500,278.8 500,0 			"/>
		</defs>
		<clipPath id="SVGID_20_">
			<use xlink:href="#SVGID_19_"  style="overflow:visible;"/>
		</clipPath>
		<path id="path270" class="st9" d="M365.3,190.8c0,0-6-7-11.7-7c-7.9,1.7-9.5,8.2-9.5,8.2c-1.3,0-1.8-3.4-1.8-3.4
			c-9.8,6.9-12.5,17.2-12.5,17.2s4.6,3.5,10.9,4.7C340.6,210.5,341.8,193.2,365.3,190.8"/>
	</g>
	<g>
		<defs>
			<polyline id="SVGID_21_" points="0,0 0,278.8 500,278.8 500,0 			"/>
		</defs>
		<clipPath id="SVGID_22_">
			<use xlink:href="#SVGID_21_"  style="overflow:visible;"/>
		</clipPath>
		<path id="path272" class="st10" d="M373.5,140.2l-2.1-3.6c-0.4,1-0.7,1.9-0.9,2.8l-1.9-2.3l-1.9,3.7l3.3,1.8
			c-0.5,7.6,5.7,8.4,7.8,8.4c2.6,0,3.7-0.8,3.7-0.8c-6.7,0.5-8.1-3.2-8.4-5.5l2.5-0.3l-2.6-0.6c0-0.3,0-0.6,0-0.7
			C373,141.8,373.5,140.2,373.5,140.2"/>
	</g>
	<g>
		<defs>
			<polyline id="SVGID_23_" points="0,0 0,278.8 500,278.8 500,0 			"/>
		</defs>
		<clipPath id="SVGID_24_">
			<use xlink:href="#SVGID_23_"  style="overflow:visible;"/>
		</clipPath>
		<path id="path274" class="st11" d="M384.3,132c-5.3-4.9-11.9-5-17.8-10.6c5.3,12.2,11.7,24.7,20.5,28.1l-4.7,0.7l5.6,1.9l-4.5,5.1
			c0,0,6-4,17.5-5.5C390.6,147.6,391.6,138.8,384.3,132"/>
	</g>
	<g>
		<defs>
			<polyline id="SVGID_25_" points="0,0 0,278.8 500,278.8 500,0 			"/>
		</defs>
		<clipPath id="SVGID_26_">
			<use xlink:href="#SVGID_25_"  style="overflow:visible;"/>
		</clipPath>
		<path id="path276" class="st12" d="M356.5,174l0.6-13.4c-8,3-17.9,11.9-17.9,11.9S346.2,169.7,356.5,174"/>
	</g>
	<g>
		<defs>
			<polyline id="SVGID_27_" points="0,0 0,278.8 500,278.8 500,0 			"/>
		</defs>
		<clipPath id="SVGID_28_">
			<use xlink:href="#SVGID_27_"  style="overflow:visible;"/>
		</clipPath>
		<path id="path278" class="st13" d="M369.8,166.7c-4.4-4-8.9-5.4-8.9-5.4l-2.7,13.5c5.2,1.8,9.6,5.9,9.6,5.9L369.8,166.7"/>
	</g>
	<g>
		<defs>
			<polyline id="SVGID_29_" points="0,0 0,278.8 500,278.8 500,0 			"/>
		</defs>
		<clipPath id="SVGID_30_">
			<use xlink:href="#SVGID_29_"  style="overflow:visible;"/>
		</clipPath>
		<path id="path280" class="st14" d="M379.1,174.7l-5.8-5.8l-4.8,12.4c4.5,4.4,8.6,7.3,8.6,7.3L379.1,174.7"/>
	</g>
	<g>
		<defs>
			<polyline id="SVGID_31_" points="0,0 0,278.8 500,278.8 500,0 			"/>
		</defs>
		<clipPath id="SVGID_32_">
			<use xlink:href="#SVGID_31_"  style="overflow:visible;"/>
		</clipPath>
		<path id="path282" class="st15" d="M387.8,184.4l-6.1-7.5l-3.5,12.2c2.9,3,8.2,4.4,8.2,4.4L387.8,184.4"/>
	</g>
	<g>
		<defs>
			<polyline id="SVGID_33_" points="0,0 0,278.8 500,278.8 500,0 			"/>
		</defs>
		<clipPath id="SVGID_34_">
			<use xlink:href="#SVGID_33_"  style="overflow:visible;"/>
		</clipPath>
		<path id="path284" class="st16" d="M398.8,195.3l-8.8-9.2l-2.7,7.8C394.2,196.4,398.8,195.3,398.8,195.3"/>
	</g>
	<g>
		<defs>
			<polyline id="SVGID_35_" points="0,0 0,278.8 500,278.8 500,0 			"/>
		</defs>
		<clipPath id="SVGID_36_">
			<use xlink:href="#SVGID_35_"  style="overflow:visible;"/>
		</clipPath>
		<path id="path286" class="st17" d="M232.8,121.5c0-6.6,0.7-10.1,1.1-12.2l0.1-1c-1.6,3.4-6.3,14.8-6.3,35.2
			c0,26,13.1,40.9,17.2,44.9c-0.9-2.2-0.7-2.7-0.5-2.9c0.2-0.3,0.6-0.5,0.9-0.5c0.7,0,1.1,0.5,2.3,2.3c0.8,1.2,2,2.9,3.4,4.6
			c3.4,2.6,11.4,7.4,22.4,7.4c1.5,0,2.8,0,3.9-0.1l-2.3-1.1C270.9,195.5,232.8,174.2,232.8,121.5"/>
	</g>
	<g>
		<defs>
			<polyline id="SVGID_37_" points="0,0 0,278.8 500,278.8 500,0 			"/>
		</defs>
		<clipPath id="SVGID_38_">
			<use xlink:href="#SVGID_37_"  style="overflow:visible;"/>
		</clipPath>
		<path id="path288" class="st18" d="M334.2,94.2c5.1-0.9,7.9-0.3,8-0.3l10.4-0.3l-2-4.5C342,91,337,92.9,334.2,94.2"/>
	</g>
	<g>
		<defs>
			<polyline id="SVGID_39_" points="0,0 0,278.8 500,278.8 500,0 			"/>
		</defs>
		<clipPath id="SVGID_40_">
			<use xlink:href="#SVGID_39_"  style="overflow:visible;"/>
		</clipPath>
		<path id="path290" class="st19" d="M368.3,89.9c0,0,4.5,3.5,8.2,8.3c3.5,4.7,17.8,5.2,32.6,31.2C405.3,117,394,98.3,368.3,89.9"/>
	</g>
	<g>
		<defs>
			<polyline id="SVGID_41_" points="0,0 0,278.8 500,278.8 500,0 			"/>
		</defs>
		<clipPath id="SVGID_42_">
			<use xlink:href="#SVGID_41_"  style="overflow:visible;"/>
		</clipPath>
		<path id="path292" class="st20" d="M447,129.9c-7.5-5.3-15.2-10.8-26.1-10.8c-3.7,0-6.1,1-7,1.5c0.4,1,1.4,3.3,2.3,6.1
			c20.1,2.5,28.4,3.6,32.1,5.7c3.2,1.8,5.8,4.4,10.6,4.9C454.6,135.3,450.8,132.6,447,129.9"/>
	</g>
	<g>
		<defs>
			<polyline id="SVGID_43_" points="0,0 0,278.8 500,278.8 500,0 			"/>
		</defs>
		<clipPath id="SVGID_44_">
			<use xlink:href="#SVGID_43_"  style="overflow:visible;"/>
		</clipPath>
		<path id="path294" class="st21" d="M273.6,199c-11.1,0-19-4.8-22.4-7.4c-1.4-1.8-2.6-3.4-3.4-4.6c-1.2-1.7-1.6-2.3-2.3-2.3
			c-0.4,0-0.7,0.2-0.9,0.5c-0.2,0.3-0.5,0.7,0.5,2.9c-4.1-4-17.2-18.9-17.2-44.9c0-20.3,4.6-31.8,6.3-35.2l-0.1,1
			c-0.4,2.1-1.1,5.6-1.1,12.2c0,52.8,38.1,74.1,42.5,76.3l2.3,1.1C276.4,199,275.1,199,273.6,199 M275.7,196.9
			c-3.6-1.9-41.9-23.1-41.9-75.5c0-9.5,1.4-12.4,1.4-14.3c0-1.3-0.6-1.7-2.3-1.7c-18.4,0-33,22.2-33,46.6
			c0,39.7,23.7,66.7,39.4,68.1c0,0-13.2-10-18.7-26.6c8.3,13.9,24.8,35.7,37.9,33.9c-12.6-12.4-17.8-20.1-25.6-34.2l2.5,2.1
			c0,0,18,31.6,34.7,31.6c3.8,0,7.5-1.8,7.5-3.9c0-3.4-17.6-10-30.9-33.3c0,0-2.1-4-1.3-4c1.1,0,9.1,18,26.4,18
			c3.2,0,8.2-0.2,8.2-2.9C280.1,198.5,277.5,197.9,275.7,196.9L275.7,196.9z"/>
	</g>
	<g>
		<defs>
			<polyline id="SVGID_45_" points="0,0 0,278.8 500,278.8 500,0 			"/>
		</defs>
		<clipPath id="SVGID_46_">
			<use xlink:href="#SVGID_45_"  style="overflow:visible;"/>
		</clipPath>
		<path id="path296" class="st22" d="M334.2,94.2c2.8-1.3,7.9-3.3,16.5-5.1l2,4.5l-10.4,0.3C342.1,93.9,339.3,93.4,334.2,94.2
			 M359.7,114.6c-4.1-7.9-7.8-15.8-7.8-15.8l4.1,1l-5-11.3c-16.4,3.4-20.3,7.2-20.3,7.2c7.5-1.9,11.4-1.1,11.4-1.1
			c-14.5,2.3-21.9,7.6-21.9,7.6c4.4-1.2,6.7-0.3,6.7-0.3c-9.2,2.5-14.2,7.8-14.2,7.8c3.5,4.8,5.8,9.8,7.2,14.3
			c1.6-2.1,6.1-6.9,15.1-8.1l-6.6,0.2c0,0,4.9-4.8,19.9-1.9l-8.5-2.6C339.8,111.6,348,109.8,359.7,114.6L359.7,114.6z"/>
	</g>
	<g>
		<defs>
			<polyline id="SVGID_47_" points="0,0 0,278.8 500,278.8 500,0 			"/>
		</defs>
		<clipPath id="SVGID_48_">
			<use xlink:href="#SVGID_47_"  style="overflow:visible;"/>
		</clipPath>
		<path id="path298" class="st23" d="M376.5,98.2c-3.6-4.9-8.2-8.3-8.2-8.3c25.7,8.4,37,27.2,40.8,39.5
			C394.3,103.3,380,102.9,376.5,98.2 M366.3,88.5l3.2,7.2l0.6-2.8c26.1,31,20.9,55.4,34.8,55.4c6.7,0,7.7-5.8,7.7-10.1
			C412.7,127.2,400.6,98.6,366.3,88.5L366.3,88.5z"/>
	</g>
	<g>
		<defs>
			<polyline id="SVGID_49_" points="0,0 0,278.8 500,278.8 500,0 			"/>
		</defs>
		<clipPath id="SVGID_50_">
			<use xlink:href="#SVGID_49_"  style="overflow:visible;"/>
		</clipPath>
		<path id="path300" class="st24" d="M459.5,132c7.4,0,10-8,10-11.6c0-2.2-0.2-4.2-2.3-4.2c-2,0,0,8.9-16.9,12.4
			C450.3,128.6,452,132,459.5,132"/>
	</g>
	<g>
		<defs>
			<polyline id="SVGID_51_" points="0,0 0,278.8 500,278.8 500,0 			"/>
		</defs>
		<clipPath id="SVGID_52_">
			<use xlink:href="#SVGID_51_"  style="overflow:visible;"/>
		</clipPath>
		<path id="path302" class="st25" d="M472.1,137.2c8.4,0,12.8-4.9,12.8-11.6c0-1.8,0-4.5-3.8-3.9c0,0-9.9,11.6-20.1,12.6
			C461.1,134.4,463.7,137.2,472.1,137.2"/>
	</g>
	<g>
		<defs>
			<polyline id="SVGID_53_" points="0,0 0,278.8 500,278.8 500,0 			"/>
		</defs>
		<clipPath id="SVGID_54_">
			<use xlink:href="#SVGID_53_"  style="overflow:visible;"/>
		</clipPath>
		<path id="path304" class="st26" d="M448.3,132.5c-3.7-2.1-12-3.2-32.1-5.7c-0.9-2.8-1.9-5.2-2.3-6.1c0.9-0.5,3.3-1.5,7-1.5
			c10.9,0,18.7,5.5,26.1,10.8c3.8,2.7,7.6,5.4,11.9,7.4C454.2,136.9,451.6,134.3,448.3,132.5 M487.8,136.7c-2.7,0-10.2,3.5-14.2,3.5
			c-21.9,0-30.5-21.7-52.7-21.7c-5.1,0-7.8,1.9-7.8,1.9s2.4,5.5,3.8,11c34.7,2.6,33,15,54.9,16.3l-0.6,0.6
			c-19.8,0.8-29.6-12.5-48.6-12.5c-2.6,0-4,0.9-4.7,1.7c0,0.2,0,0.3,0,0.5c0,7.8-4.4,13.2-4.4,13.2s8,2.4,8.6,11.7c0,0,3,1.2,13-1
			l-8.5,4.9c0,0-0.7,1.8,0.8,1.8c14.6,0,34.2-14.9,34.2-14.9s-11.6,8.8-11.6,16.7c0,1.8,0.5,4.7,2.4,4.7c4.4,0,7.3-10.2,18.6-18.7
			c11.3-8.5,18.9-11.3,18.9-17.5C490,137.5,488.5,136.7,487.8,136.7L487.8,136.7z"/>
	</g>
	<g>
		<defs>
			<polyline id="SVGID_55_" points="0,0 0,278.8 500,278.8 500,0 			"/>
		</defs>
		<clipPath id="SVGID_56_">
			<use xlink:href="#SVGID_55_"  style="overflow:visible;"/>
		</clipPath>
		<path id="path306" class="st27" d="M260.8,205.1c1.7,2.1,3.3,3.8,4.9,5.3c-0.4-1.2-0.8-2.4-1.1-3.7
			C262.2,205.9,260.8,205.1,260.8,205.1"/>
	</g>
	<g>
		<defs>
			<polyline id="SVGID_57_" points="0,0 0,278.8 500,278.8 500,0 			"/>
		</defs>
		<clipPath id="SVGID_58_">
			<use xlink:href="#SVGID_57_"  style="overflow:visible;"/>
		</clipPath>
		<path id="path308" class="st28" d="M254.7,156.6c0,0,1.5-0.7,3.8-1.6c2.5,0.7,4.7,1.5,6.8,2.3c-2.6,0.9-4.5,1.9-4.5,1.9l1,0.5
			c0,0,2-1,4.6-1.9c2.1,0.9,4.1,1.8,6.1,2.6c-3.8,1.3-5.1,2.1-5.1,2.1l1,0.5c0,0,1.3-0.9,5.2-2.1c2.1,1,4,2,6,2.9
			c-4.4,1.2-6.1,2.2-6.1,2.2c2.4,1.6,5.2,3.4,5.2,3.4c-0.4,0.3-0.8,0.7-1.3,1.1c1.6,1.2,3.3,2.4,4.8,3.6c3.4-1.4,7.2-2.1,11.1-2.1
			c0.5,0,1,0,1.5,0c-9.1-11.2-23.2-19.8-38.9-19.8c-5.3,0-9.8,0.9-12.9,1.9c0.2,0.5,0.4,1.1,0.6,1.6l2.2-2
			C245.9,153.8,250.4,155,254.7,156.6"/>
	</g>
	<g>
		<defs>
			<polyline id="SVGID_59_" points="0,0 0,278.8 500,278.8 500,0 			"/>
		</defs>
		<clipPath id="SVGID_60_">
			<use xlink:href="#SVGID_59_"  style="overflow:visible;"/>
		</clipPath>
		<path id="path310" class="st29" d="M245.2,159.1c0.6,1.3,1.3,2.7,2,3.9c0.5-0.7,1.3-1.7,2.2-2.5
			C249.3,160.5,247.5,159.8,245.2,159.1"/>
	</g>
	<g>
		<defs>
			<polyline id="SVGID_61_" points="0,0 0,278.8 500,278.8 500,0 			"/>
		</defs>
		<clipPath id="SVGID_62_">
			<use xlink:href="#SVGID_61_"  style="overflow:visible;"/>
		</clipPath>
		<path id="path312" class="st30" d="M275.4,172.4c-0.7,0.7-1.2,1.2-1.2,1.2c-2.1-1.5-6-3.9-6-3.9c-3,2.7-4.1,6.9-4.1,6.9
			c-1.6-1.3-3.2-2.6-5-3.9c0.4-1.1,1.6-3.3,4.1-5.8l-1.4-0.8c-2.4,2.4-3.5,4.5-4,5.6c-1.5-1.1-3.2-2.3-5-3.5
			c1.3-2.5,3.8-4.7,3.8-4.7l-1.6-0.7c0,0-2.3,2.1-3.7,4.5c-0.9-0.6-1.8-1.1-2.8-1.7c5.9,10.1,13.1,17.2,18.8,21.9
			c2.7-5.1,7-9.2,12.1-11.9C278.1,174.4,276.7,173.3,275.4,172.4"/>
	</g>
	<g>
		<defs>
			<polyline id="SVGID_63_" points="0,0 0,278.8 500,278.8 500,0 			"/>
		</defs>
		<clipPath id="SVGID_64_">
			<use xlink:href="#SVGID_63_"  style="overflow:visible;"/>
		</clipPath>
		<path id="path314" class="st31" d="M302.1,184c-1.7-0.4-3.5-0.7-5.3-0.7c-1.5,0-2.9,0.2-4.2,0.5c5.7,6.3,10,13.2,11.9,20.6
			c0.5-1.9,0.7-4,0.7-6.4C305.2,193.5,304.1,188.7,302.1,184"/>
	</g>
	<g>
		<defs>
			<polyline id="SVGID_65_" points="0,0 0,278.8 500,278.8 500,0 			"/>
		</defs>
		<clipPath id="SVGID_66_">
			<use xlink:href="#SVGID_65_"  style="overflow:visible;"/>
		</clipPath>
		<path id="path316" class="st32" d="M278.1,195.6c1.4,0.7,6.5,3.5,6.5,5.8c0,4.2-4.4,5.9-7.4,6.6c0.1,0.5,0.3,1,0.5,1.5
			c3.9,1.1,8,1.7,12.3,1.7c4.3,0,8.5-0.6,12.5-1.8c0-0.1,0.1-0.1,0.1-0.2c-0.9-8.1-5.3-16.6-12.8-24.6
			C284.4,186.5,280.2,190.5,278.1,195.6"/>
	</g>
	<g>
		<defs>
			<polyline id="SVGID_67_" points="0,0 0,278.8 500,278.8 500,0 			"/>
		</defs>
		<clipPath id="SVGID_68_">
			<use xlink:href="#SVGID_67_"  style="overflow:visible;"/>
		</clipPath>
		<path id="path318" class="st33" d="M279.1,212.7c1.2,2.1,2.8,4.1,4.7,5.6c5.5-0.2,11.4-1.6,15.6-5.3c-3.1,0.6-6.2,1-9.5,1
			C286.2,213.9,282.6,213.5,279.1,212.7"/>
	</g>
	<g>
		<defs>
			<polyline id="SVGID_69_" points="0,0 0,278.8 500,278.8 500,0 			"/>
		</defs>
		<clipPath id="SVGID_70_">
			<use xlink:href="#SVGID_69_"  style="overflow:visible;"/>
		</clipPath>
		<path id="path320" class="st34" d="M450.4,227.9v-49.8c-2.7-0.6-3.5-3.8-3.5-6c0-2.4,1.1-5.9,1.1-5.9c-2.4,1.4-6,3.1-9.6,4.5v61.8
			l33.6,34.5H251.7l0,0l0,0l66.5-32.2c-5.7-1.1-10.9-3.3-15.2-5.7l-78.4,38l-32-32.8l23.8-21.9c-2.6-2.6-5.2-5.6-7.6-9.1L175.6,234
			l32.3,33.1H51.1l70.9-34.4h0l73.4-67.5c-0.4-4.1-0.7-8.3-0.7-12.8c0-0.9,0-1.8,0.1-2.7L115.1,223L0,278.8h500L450.4,227.9"/>
	</g>
	<g>
		<defs>
			<polyline id="SVGID_71_" points="0,0 0,278.8 500,278.8 500,0 			"/>
		</defs>
		<clipPath id="SVGID_72_">
			<use xlink:href="#SVGID_71_"  style="overflow:visible;"/>
		</clipPath>
		<path id="path326" class="st35" d="M374.3,70.1c-9.5-4.5-19.1-8.5-28.8-12c3.3,5.2,9.4,13.4,12.2,17.1c0-0.5,0-4.3,0-4.3
			s6.9,12.1,7.2,12.7c5.8,1.2,9.2,2.4,11,3.1c-1.1-4.5-4.6-11.3-4.7-11.4l-1.2-2.4c0,0,4,2.1,5.2,2.8
			C374.9,73.9,374.6,72,374.3,70.1"/>
	</g>
	<g>
		<defs>
			<polyline id="SVGID_73_" points="0,0 0,278.8 500,278.8 500,0 			"/>
		</defs>
		<clipPath id="SVGID_74_">
			<use xlink:href="#SVGID_73_"  style="overflow:visible;"/>
		</clipPath>
		<path id="path328" class="st36" d="M282.6,94.5c-23.8-4.1-51.5-6.2-87.7-6.2c-61.8,0-112,5.5-156.6,12.1c79-7,141.6-2.6,184.3,2.6
			c0.5,0.1,1.1,0.1,1.6,0.2c3.8-1.4,7.4-2.2,10.3-2.4c0,0,0.9-4.7,3.8-4.7c21.7,0,33,8,33,8C274.7,100.4,279.2,96.9,282.6,94.5"/>
	</g>
	<g>
		<defs>
			<polyline id="SVGID_75_" points="0,0 0,278.8 500,278.8 500,0 			"/>
		</defs>
		<clipPath id="SVGID_76_">
			<use xlink:href="#SVGID_75_"  style="overflow:visible;"/>
		</clipPath>
		<path id="path330" class="st37" d="M245.9,54.6C299,64.1,309.2,70,338,82.4c-46.4-14.3-81.6-20.1-142.7-20.1S78.4,67.4,38.7,74.4
			c103.4-9.9,179,1.1,217.2,8.4c27.7,5.3,46.3,12,60.3,17.7c15.4-11.9,27.8-14.2,31-14.6c-0.7-4.7-2.9-9.3-2.9-9.4l-1.1-2.2
			c0,0,3.1,1.5,4,2c-1.7-6.2-3.4-14.1-4.4-19c-6.4-2.2-12.8-4.2-19.2-6c-1.1-0.3-2.2-0.6-3.4-0.9l42.1-38.7h75.9v108.5
			c5.4,3.2,8.6,6.7,8.6,6.7c1.2,0,2.3-0.1,3.4-0.2V0h-92.6l-51.1,47c-37.3-8.5-75.1-11-110.9-11.4C137.2,34.8,76.6,42.1,37.6,48
			C123.8,40.7,192.7,45.1,245.9,54.6"/>
	</g>
	<g>
		<defs>
			<polyline id="SVGID_77_" points="0,0 0,278.8 500,278.8 500,0 			"/>
		</defs>
		<clipPath id="SVGID_78_">
			<use xlink:href="#SVGID_77_"  style="overflow:visible;"/>
		</clipPath>
		<path id="path332" class="st38" d="M309.1,106.6c2-1.8,3.8-3.4,5.7-4.9c-4.3-1.2-8.7-2.3-13.2-3.4
			C306.3,102.3,309.1,106.6,309.1,106.6"/>
	</g>
	<g>
		<defs>
			<polyline id="SVGID_79_" points="0,0 0,278.8 500,278.8 500,0 			"/>
		</defs>
		<clipPath id="SVGID_80_">
			<use xlink:href="#SVGID_79_"  style="overflow:visible;"/>
		</clipPath>
		<path id="path334" class="st39" d="M398.7,168.6c0,0,7.2,9.7,8,19.1c0,0-3.3-9.6-15.5-16.4L398.7,168.6 M363.5,156.5
			c26.3,15.2,29.1,32,61,58.3c1.4-44.8-5.8-60.7-20.1-60.7c-8.3,0-16.6,5.4-16.6,5.4c-4.4-0.3-6.3-2.5-9-2.7c1,2.8,5.5,7.9,5.1,10.9
			c-6.8-11.9-19.7-19.9-30-19.9c-17.6,0-26.9,18.5-26.9,26.1c0,1.9-0.1,5.1,3.8,5.1c3.9,0,7.2-1.6,13.3-1.6
			c20.5,0,25.7,23.7,51.5,23.7c3.4,0,6.4-0.6,6.4-0.6l-2.3-3.2c0,0-2.4,0.1-3.2,0.1c-24.5,0-28.9-24.6-51.9-24.6
			c-5.1,0-8.8,1.4-8.8,1.4l-0.6-0.5C335.3,173.9,350.7,157.2,363.5,156.5z"/>
	</g>
	<g>
		<defs>
			<polyline id="SVGID_81_" points="0,0 0,278.8 500,278.8 500,0 			"/>
		</defs>
		<clipPath id="SVGID_82_">
			<use xlink:href="#SVGID_81_"  style="overflow:visible;"/>
		</clipPath>
		<path id="path336" class="st40" d="M321.1,148.1c0,4-3.6,17.7-3.6,29.6c0,18.5,9.9,25,9.9,25s6.1-17.8,22.3-20.8
			c0,0-3.4-1.5-7.8-1.5c-4.5,0-6,1.9-12.3,1.9c-2.1,0-5.1-0.3-5.1-7.6c0-13.5,12.2-29.3,29.3-29.3c7.2,0,11.5,2.1,11.5,2.1
			c-17-16.2-28-13.3-28-13.3c4.3,1,5,2.4,5,2.4c-10.5-2.4-13.3,0.2-13.3,0.2c3.4,0.5,4.1,1.7,4.1,1.7
			C328,140.2,321.1,144.1,321.1,148.1"/>
	</g>
	<g>
		<defs>
			<polyline id="SVGID_83_" points="0,0 0,278.8 500,278.8 500,0 			"/>
		</defs>
		<clipPath id="SVGID_84_">
			<use xlink:href="#SVGID_83_"  style="overflow:visible;"/>
		</clipPath>
		<path id="path338" class="st41" d="M351.6,83.2c1.1,3.3,3.4,8.5,10.1,21.4l-4.2-1.7l2.7,5.8c18.2,1.5,26.2,20.7,26.2,20.7
			c-4.1-14.7-15.3-31.1-15.3-31.1l-0.8,2.9l-9.9-17.4l0.2,3.4c-8.1-13.7-10.1-15.7-10.1-15.7c1.5,3.6,3.6,13.7,3.6,13.7L351.6,83.2"
			/>
	</g>
	<g>
		<defs>
			<polyline id="SVGID_85_" points="0,0 0,278.8 500,278.8 500,0 			"/>
		</defs>
		<clipPath id="SVGID_86_">
			<use xlink:href="#SVGID_85_"  style="overflow:visible;"/>
		</clipPath>
		<path id="path340" class="st42" d="M381.7,84.4l-2.7-2.2l4.2,9.1c0,0,18,7.1,27.7,29.4c-4.1-11.3-12.9-23.3-12.9-23.3v2.9
			c-2.2-5.2-7.4-12.4-10-18l0.2,4.1c-6.3-10.9-9.8-16.2-9.8-16.2C379,74.3,381.7,81.8,381.7,84.4"/>
	</g>
	<g>
		<defs>
			<polyline id="SVGID_87_" points="0,0 0,278.8 500,278.8 500,0 			"/>
		</defs>
		<clipPath id="SVGID_88_">
			<use xlink:href="#SVGID_87_"  style="overflow:visible;"/>
		</clipPath>
		<path id="path342" class="st43" d="M239.5,100.5c0,0-3.7,8.8-3.7,22.8c0,16.8,6.2,27.8,6.2,27.8c1.9-0.6,3.9-1,5.9-1.3
			c-1.2-1.9-4.5-8-5.6-17.7c-0.2-2-0.4-4.2-0.4-6.5c0-13.1,2.9-24,2.9-24L239.5,100.5"/>
	</g>
	<g>
		<defs>
			<polyline id="SVGID_89_" points="0,0 0,278.8 500,278.8 500,0 			"/>
		</defs>
		<clipPath id="SVGID_90_">
			<use xlink:href="#SVGID_89_"  style="overflow:visible;"/>
		</clipPath>
		<path id="path344" class="st44" d="M195.9,168.8l-72.2,66.3l-59.9,29.1h137.1l-29.6-30.3l35.8-32.9
			C202,192.7,197.8,182.1,195.9,168.8"/>
	</g>
	<g>
		<defs>
			<polyline id="SVGID_91_" points="0,0 0,278.8 500,278.8 500,0 			"/>
		</defs>
		<clipPath id="SVGID_92_">
			<use xlink:href="#SVGID_91_"  style="overflow:visible;"/>
		</clipPath>
		<path id="path346" class="st45" d="M465.1,264.2l-29.6-30.4v-62c-2.1,0.6-4,1.1-5.3,1.1c-4.3,0-6.6-3.4-6.6-3.4s3.3,14.4,3.3,30.2
			c0,11.1-1.2,18.1-1.9,18.1c-3.4,0-19.2-14.8-19.2-14.8s-1.5,2.1-12.8,2.1c-11.3,0-24.7-11.1-24.7-11.1c-6.9-0.7-13,2.6-13,2.6
			c-4.1,2-0.4,16.1-13.7,16.1c-9.7,0-28.7-9.9-28.7-34.7c0-8.1,3.8-19.5,3.8-29.4c-1.7-40.9-27.4-51.6-27.4-51.6
			c-16,7-28.1,37.6-28.1,37.6c0.1-17.7,3.9-26.1,3.9-26.1c-5-4.5-16.7-6.5-16.7-6.5c-4.7,12.8-5.8,21.9-6,29.8
			c1.1,9.7,4.4,15.8,5.6,17.8c2.6-0.4,5.3-0.7,8-0.7c29.2,0,52.7,26.8,52.7,49c0,7.4-2.3,13.3-6.8,17.3c-1.1,1-2.3,1.9-3.6,2.6
			c3.5,3.5,14.3,12.3,36,12.4l-69.8,33.9L465.1,264.2"/>
	</g>
	<g>
		<defs>
			<polyline id="SVGID_93_" points="0,0 0,278.8 500,278.8 500,0 			"/>
		</defs>
		<clipPath id="SVGID_94_">
			<use xlink:href="#SVGID_93_"  style="overflow:visible;"/>
		</clipPath>
		<path id="path348" class="st46" d="M342.2,52.9l2.4,3.9c0.2,0.4,0.5,0.9,0.8,1.3c9.7,3.5,19.4,7.4,28.8,12
			c-1-5.7-2.2-10.6-2.3-10.7l-0.9-3.7c6.9,8,12.6,16.9,14.7,20.3c0.1-0.6,0.8-3.4,0.8-3.4s9.7,18.4,9.8,18.6
			c13.1,12.5,19,23.8,19.1,23.9l0.1,0.2c7.7-1.4,14.5,0.5,19.8,3.1V14.6h-71.7l-39.9,36.7c6.4,1.8,12.9,3.8,19.2,6
			C342.5,54.7,342.2,53,342.2,52.9"/>
	</g>
	<g>
		<defs>
			<polyline id="SVGID_95_" points="0,0 0,278.8 500,278.8 500,0 			"/>
		</defs>
		<clipPath id="SVGID_96_">
			<use xlink:href="#SVGID_95_"  style="overflow:visible;"/>
		</clipPath>
		<path id="path350" class="st47" d="M471,156.4c-11.3,8.5-14.2,18.7-18.6,18.7c-1.9,0-2.4-2.8-2.4-4.7c0-8,11.6-16.7,11.6-16.7
			s-19.6,14.9-34.2,14.9c-1.5,0-0.8-1.8-0.8-1.8l8.5-4.9c-10.1,2.2-13,1-13,1c-0.6-9.2-8.6-11.7-8.6-11.7s4.4-5.5,4.4-13.3
			c0-0.2,0-0.3,0-0.5c0.7-0.8,2.1-1.7,4.7-1.7c19,0,28.8,13.3,48.6,12.5l0.6-0.6c-21.8-1.4-20.2-13.7-54.8-16.3
			c-1.4-5.6-3.8-11-3.8-11s2.7-1.8,7.8-1.8c22.2,0,30.8,21.7,52.7,21.7c4,0,11.5-3.5,14.2-3.5c0.7,0,2.2,0.7,2.2,2.1
			C490,145,482.4,147.8,471,156.4 M357,160.6l-0.6,13.4c-10.3-4.2-17.4-1.5-17.4-1.5S349.1,163.6,357,160.6L357,160.6z M390,186.1
			l8.8,9.2c0,0-4.5,1.1-11.5-1.4L390,186.1z M381.7,176.9l6.1,7.5l-1.4,9.2c0,0-5.3-1.4-8.2-4.4L381.7,176.9z M367.8,180.7
			c0,0-4.5-4.1-9.6-5.9l2.7-13.5c0,0,4.5,1.4,8.9,5.4L367.8,180.7z M373.3,168.9l5.8,5.8l-1.9,13.9c0,0-4.1-2.8-8.6-7.3L373.3,168.9
			L373.3,168.9z M424.5,214.9c-31.9-26.4-34.7-43.1-61-58.3c-12.8,0.6-28.2,17.3-28.2,17.3l0.6,0.6c0,0,3.7-1.4,8.8-1.4
			c23,0,27.4,24.6,51.9,24.6c0.8,0,3.2-0.1,3.2-0.1l2.3,3.2c0,0-3,0.6-6.4,0.6c-25.8,0-31-23.7-51.5-23.7c-6,0-9.3,1.6-13.3,1.6
			c-3.9,0-3.8-3.2-3.8-5.2c0-7.6,9.3-26.1,26.9-26.1c10.3,0,23.2,8,30,19.9c0.4-3.1-4.1-8.2-5.1-10.9c2.7,0.2,4.6,2.5,9,2.7
			c0,0,8.2-5.4,16.6-5.4C418.7,154.2,425.8,170.1,424.5,214.9L424.5,214.9z M340.6,210.5c-6.3-1.2-10.9-4.7-10.9-4.7
			s2.7-10.3,12.5-17.2c0,0,0.5,3.4,1.8,3.4c0,0,1.5-6.5,9.5-8.2c5.7,0,11.7,7,11.7,7C341.8,193.2,340.6,210.5,340.6,210.5z
			 M317.6,177.8c0-11.9,3.6-25.6,3.6-29.6c0-4,6.8-7.9,12-9.4c0,0-0.7-1.2-4.1-1.8c0,0,2.8-2.6,13.3-0.2c0,0-0.7-1.4-5-2.4
			c0,0,11-2.9,28,13.3c0,0-4.4-2.1-11.5-2.1c-17.1,0-29.3,15.8-29.3,29.3c0,7.3,3,7.6,5.1,7.6c6.2,0,7.8-1.9,12.3-1.9
			c4.4,0,7.8,1.5,7.8,1.5c-16.2,3-22.3,20.8-22.3,20.8S317.6,196.3,317.6,177.8L317.6,177.8z M312.7,109.6c0,0,5-5.3,14.2-7.8
			c0,0-2.4-0.8-6.7,0.3c0,0,7.4-5.3,21.9-7.6c0,0-4-0.8-11.4,1.1c0,0,4-3.7,20.3-7.2l5,11.3l-4.1-1c0,0,3.8,7.9,7.8,15.8
			c3.1,6.2,6.4,12.4,8.3,15c-4.9,4.8-4,10.6-4,10.6s-9.5-11.3-23.4-11.3c-9.8,0-18.2,10.1-18.2,10.1s0.2-6.7-2.4-15.1
			C318.5,119.4,316.2,114.4,312.7,109.6L312.7,109.6z M360.7,87.2l-0.2-3.4l9.9,17.4l0.9-2.9c0,0,11.1,16.4,15.3,31.1
			c0,0-8.1-19.2-26.2-20.7l-2.7-5.8l4.2,1.7c-6.7-12.9-9-18.1-10.1-21.4l2.7,2.1c0,0-2.1-10.2-3.6-13.7
			C350.6,71.5,352.6,73.5,360.7,87.2L360.7,87.2z M366.7,140.8l1.9-3.7l1.9,2.3c0.2-0.9,0.5-1.8,0.9-2.8l2.1,3.6
			c0,0-0.5,1.5-0.5,2.8c0,0.2,0,0.4,0,0.7l2.6,0.6l-2.5,0.3c0.3,2.4,1.8,6,8.4,5.5c0,0-1.1,0.8-3.7,0.8c-2.2,0-8.3-0.9-7.8-8.4
			C370,142.6,366.7,140.8,366.7,140.8z M382.3,150.3l4.7-0.7c-8.8-3.4-15.2-15.9-20.5-28.1c5.9,5.6,12.5,5.7,17.8,10.6
			c7.3,6.7,6.3,15.5,16.6,19.8c-11.5,1.5-17.5,5.5-17.5,5.5l4.5-5.1L382.3,150.3L382.3,150.3z M412.7,138.2c0,4.4-1,10.2-7.7,10.2
			c-14,0-8.7-24.3-34.8-55.4l-0.6,2.8l-3.2-7.2C400.6,98.6,412.7,127.2,412.7,138.2z M388.2,86.6l-0.2-4.1c2.6,5.6,7.9,12.8,10,18
			v-2.9c0,0,8.7,11.9,12.9,23.3c-9.7-22.3-27.7-29.4-27.7-29.4l-4.2-9.1l2.7,2.2c0-2.7-2.7-10.2-3.3-14
			C378.4,70.4,381.8,75.7,388.2,86.6L388.2,86.6z M467.2,116.3c2.1,0,2.3,2,2.3,4.2c0,3.6-2.6,11.6-10,11.6c-7.5,0-9.2-3.4-9.2-3.4
			C467.2,125.2,465.2,116.3,467.2,116.3z M481.1,121.7c3.8-0.6,3.8,2.1,3.8,3.9c0,6.6-4.4,11.6-12.8,11.6c-8.4,0-11.1-2.8-11.1-2.8
			C471.2,133.3,481.1,121.7,481.1,121.7z M265.7,210.4c-1.6-1.4-3.3-3.2-4.9-5.3c0,0,1.4,0.8,3.9,1.6
			C264.9,208,265.3,209.2,265.7,210.4z M275.7,196.9c1.8,0.9,4.3,1.6,4.3,3.8c0,2.7-5,2.9-8.2,2.9c-17.3,0-25.3-18-26.4-18
			c-0.7,0,1.3,4,1.3,4c13.3,23.3,30.9,29.9,30.9,33.3c0,2.1-3.6,3.9-7.4,3.9c-16.7,0-34.7-31.6-34.7-31.6l-2.5-2.1
			c7.8,14.1,12.9,21.8,25.6,34.2c-13.1,1.9-29.6-20-37.9-33.9c5.5,16.6,18.7,26.6,18.7,26.6c-15.7-1.4-39.4-28.4-39.4-68.1
			c0-24.4,14.6-46.6,33-46.6c1.6,0,2.3,0.4,2.3,1.7c0,2-1.4,4.8-1.4,14.3C233.8,173.9,272.2,195.1,275.7,196.9L275.7,196.9z
			 M255.9,152.3c15.6,0,29.8,8.6,38.9,19.8c-0.5,0-1,0-1.5,0c-3.9,0-7.7,0.8-11.1,2.1c-1.6-1.2-3.2-2.4-4.8-3.6
			c0.5-0.5,1-0.8,1.3-1.1c0,0-2.8-1.8-5.2-3.4c0,0,1.7-0.9,6.1-2.2c-1.9-0.9-3.9-1.9-6-2.9c-3.9,1.3-5.2,2.1-5.2,2.1l-1-0.5
			c0,0,1.3-0.8,5.1-2.1c-1.9-0.9-3.9-1.8-6.1-2.7c-2.6,1-4.6,1.9-4.6,1.9l-1-0.5c0,0,1.9-1,4.5-1.9c-2.1-0.8-4.4-1.6-6.8-2.3
			c-2.3,0.8-3.8,1.6-3.8,1.6c-4.4-1.6-8.8-2.9-8.8-2.9l-2.2,2c-0.2-0.5-0.4-1-0.6-1.6C246.1,153.2,250.6,152.3,255.9,152.3
			L255.9,152.3z M300.3,180.3c-1.2-0.2-2.3-0.3-3.5-0.3c-2.4,0-4.7,0.3-6.8,1c-1.5-1.5-3.2-3-4.9-4.5c2.6-0.8,5.3-1.3,8.1-1.3
			c1.4,0,2.9,0.1,4.2,0.3C298.5,177.2,299.5,178.7,300.3,180.3L300.3,180.3z M305.2,198c0,2.4-0.3,4.5-0.7,6.4
			c-1.9-7.4-6.2-14.3-11.9-20.6c1.4-0.3,2.8-0.5,4.2-0.5c1.8,0,3.6,0.3,5.3,0.7C304.1,188.7,305.2,193.5,305.2,198L305.2,198z
			 M282.3,177.7c1.7,1.4,3.4,2.9,4.9,4.4c-5.1,2.2-9.2,6.1-11.6,11c-1.4-0.8-3.3-2-5.5-3.7C272.6,184.3,277,180.1,282.3,177.7
			L282.3,177.7z M251.3,167.2c1.4-2.4,3.7-4.4,3.7-4.4l1.6,0.7c0,0-2.5,2.2-3.8,4.7c1.8,1.2,3.5,2.4,5,3.5c0.5-1.1,1.6-3.2,4-5.6
			l1.4,0.8c-2.6,2.6-3.7,4.7-4.1,5.8c1.7,1.3,3.3,2.6,5,3.9c0,0,1.1-4.1,4.1-6.9c0,0,4,2.4,6,3.9c0,0,0.5-0.5,1.2-1.2
			c1.4,1,2.7,2,4.1,3c-5.1,2.7-9.4,6.9-12.1,11.9c-5.8-4.6-12.9-11.7-18.8-21.8C249.5,166,250.4,166.6,251.3,167.2z M249.3,160.5
			c-0.9,0.9-1.7,1.8-2.2,2.5c-0.7-1.2-1.3-2.6-2-3.9C247.5,159.8,249.3,160.5,249.3,160.5z M261.9,161.5c1.3-0.7,2.7-1.4,4.4-2
			l2,0.8c-1.7,0.6-3.2,1.3-4.5,2.1c1.5,0.8,3,1.6,4.5,2.4c1.4-0.9,3-1.7,4.9-2.3l1.8,0.9c-1.9,0.6-3.6,1.5-5,2.4
			c1.9,1.1,3.9,2.4,5.8,3.6c-0.7,0.6-1.3,1.2-1.9,1.8c-2-1.4-4-2.6-6-3.8c-3.4,3-4.6,6.3-4.6,6.3l-2.1-1.7c0,0,1.4-2.9,4.9-5.7
			c-1.5-0.9-3-1.7-4.5-2.5c-3.1,2.5-4.5,5.1-4.5,5.1l-2.1-1.5c0,0,1.5-2.3,4.6-4.6c-1.7-0.8-3.3-1.6-4.9-2.3
			c-2.7,2.1-3.9,4.2-3.9,4.2l-2.1-1.3c0,0,1.3-1.9,3.9-3.8c-2.9-1.1-5.6-2.1-8-2.7c0.6-0.6,1.2-1.1,1.8-1.6c2.7,0.7,5.5,1.7,8.5,2.8
			c1.1-0.6,2.3-1.2,3.7-1.6l2.2,0.7c-1.5,0.5-2.7,1.1-3.8,1.7C258.6,160,260.2,160.7,261.9,161.5L261.9,161.5z M302.4,209.4
			c-4,1.1-8.1,1.8-12.5,1.8c-4.3,0-8.4-0.6-12.3-1.7c-0.2-0.5-0.3-1-0.4-1.5c3-0.6,7.4-2.4,7.4-6.6c0-2.3-5.1-5.1-6.5-5.8
			c2.1-5.1,6.4-9.1,11.6-11c7.5,8.1,11.9,16.5,12.8,24.6C302.5,209.3,302.4,209.4,302.4,209.4L302.4,209.4z M283.9,218.3
			c-1.9-1.6-3.5-3.5-4.8-5.6c3.5,0.8,7.1,1.2,10.8,1.2c3.3,0,6.4-0.3,9.5-1C295.2,216.7,289.4,218.1,283.9,218.3L283.9,218.3z
			 M278.1,218.2c-1.7-1.1-3.9-2.1-6.4-3.6c-1.4-2.1-2.6-4.4-3.3-6.9c1.6,0.3,3.4,0.6,5.4,0.6c0.9,3.8,2.7,7.2,5.2,10
			C278.7,218.3,278.4,218.2,278.1,218.2L278.1,218.2z M489.1,133.1c-1.6,0-2.2,1-4.4,1c0,0,3.8-3.9,3.8-7.8c0-3.9-2.9-7.3-5.9-7.3
			c-4.8,0-6.6,5.7-11.8,7.6c0,0,1.5-3.2,1.5-6.5c0-3.3-3.4-6.1-5-6.1c-3,0-3.9,11.1-16.9,12.7c-1.1,0.1-2.2,0.2-3.4,0.2
			c0,0-3.2-3.5-8.6-6.7c-0.9-0.6-1.9-1.1-3-1.6c-5.3-2.6-12.1-4.4-19.8-3.1c-0.3,0.1-0.6,0.1-0.9,0.1c0,0-5.8-11.2-19-23.8L387,75
			l-0.7,3.2c0,0-6.6-10.9-13.4-18.9c0,0,2.5,9.9,3.3,18l-4.2-2.3c0,0,4.5,8.7,5.1,13.2c0,0-3.4-1.8-12.7-3.7l-5.8-10.3v3.6
			c0,0-10.6-13.9-14.6-20.5c0,0,1.9,10.6,4.9,20.7l-3.5-1.8c0,0,2.2,4.6,2.9,9.6c0,0-0.3,0-0.8,0.1c-3.2,0.4-15.7,2.7-31,14.6
			c-0.5,0.4-0.9,0.8-1.4,1.1c-1.9,1.5-3.8,3.1-5.7,4.9c0,0-2.9-4.3-7.5-8.3c-3.8-3.3-8.7-6.4-14.1-7.1c0,0-2.1,1.3-4.9,3.2
			c-3.4,2.4-8,5.9-11.3,9.7c0,0-11.3-8.1-33.1-8.1c-2.8,0-3.7,4.7-3.7,4.7c-2.9,0.2-6.5,0.9-10.3,2.4c-13,5-28.5,18.3-29.4,46.7
			c0,0.9-0.1,1.8-0.1,2.7c0,4.5,0.3,8.8,0.7,12.8c0.1,1.2,0.3,2.4,0.5,3.6c1.9,13.2,6.1,23.9,11.2,32.1c0.5,0.9,1.1,1.7,1.6,2.5
			c2.4,3.5,5,6.5,7.6,9.1c9,8.8,18.6,12.4,24.4,11.8c0,0,10.4,11.3,21.7,5.1c0,0,14.7,5.8,20.5-7.8c2.6-0.1,5.3-0.3,8-0.9
			c1.6,1.5,6,5.2,12,8.5c4.3,2.4,9.5,4.6,15.2,5.7l5.9-2.8c-13.4-0.7-24.4-8.8-29-12.6c1.1-0.4,2.2-0.9,3.2-1.5
			c1.3-0.7,2.5-1.6,3.6-2.6c4.5-4.1,6.7-9.9,6.7-17.3c0-22.2-23.5-49-52.7-49c-2.7,0-5.3,0.2-8,0.7c-2,0.3-4,0.8-5.9,1.3
			c0,0-6.2-10.9-6.2-27.8c0-14,3.7-22.8,3.7-22.8l5.4,0.9c0,0-2.9,11-2.9,24c0,2.3,0.1,4.5,0.4,6.5c0.3-7.8,1.4-17,6-29.8
			c0,0,11.8,2,16.7,6.5c0,0-3.8,8.4-3.9,26.1c0,0,12.1-30.6,28.1-37.6c0,0,25.8,10.7,27.4,51.6c0,9.9-3.8,21.2-3.8,29.3
			c0,24.8,19,34.7,28.7,34.7c13.3,0,9.6-14.1,13.7-16.1c0,0,6-3.3,13-2.6c0,0,13.3,11.1,24.7,11.1c11.3,0,12.8-2.1,12.8-2.1
			s15.8,14.8,19.2,14.8c0.7,0,1.9-6.9,1.9-18.1c0-15.9-3.3-30.2-3.3-30.2s2.3,3.4,6.6,3.4c1.4,0,3.3-0.4,5.3-1.1c1-0.3,2-0.6,3-1
			c3.6-1.4,7.2-3.1,9.6-4.5c0,0-1.1,3.5-1.1,5.9c0,2.2,0.8,5.3,3.5,6c0.3,0.1,0.7,0.1,1,0.1c3.6,0,6.2-2.1,10.8-8.7
			c11.2-16.2,30.6-18,30.6-30.2C492.9,135.6,490.7,133.1,489.1,133.1L489.1,133.1z"/>
	</g>
	<g>
		<defs>
			<polyline id="SVGID_97_" points="0,0 0,278.8 500,278.8 500,0 			"/>
		</defs>
		<clipPath id="SVGID_98_">
			<use xlink:href="#SVGID_97_"  style="overflow:visible;"/>
		</clipPath>
		<path id="path352" class="st48" d="M391.2,171.2c12.2,6.8,15.5,16.4,15.5,16.4c-0.8-9.4-8-19.1-8-19.1L391.2,171.2"/>
	</g>
</g>
</svg>
