<?xml version="1.0" encoding="utf-8"?>
<!-- Generator: Adobe Illustrator 21.1.0, SVG Export Plug-In . SVG Version: 6.00 Build 0)  -->
<!DOCTYPE svg PUBLIC "-//W3C//DTD SVG 1.1//EN" "http://www.w3.org/Graphics/SVG/1.1/DTD/svg11.dtd">
<svg version="1.1" id="Layer_1" xmlns="http://www.w3.org/2000/svg" xmlns:xlink="http://www.w3.org/1999/xlink" x="0px" y="0px"
	 width="581.3px" height="300px" viewBox="0 0 581.3 300" style="enable-background:new 0 0 581.3 300;" xml:space="preserve">
<style type="text/css">
	.st0{fill:#FFFFFF;}
	.st1{fill:#006241;}
</style>
<g>
	<polygon class="st0" points="456.9,218.9 53.6,218.9 122.1,89.8 525.4,89.8 	"/>
	<path id="XMLID_39_" class="st0" d="M484,193.6l-18.5,11.9c-0.4,0.2-0.9,0.2-1.3,0c-0.4-0.2-0.7-0.7-0.7-1.1l-0.2-21.9l8.5-15.9
		v-5.2l-19.1,35.4c-0.2,0.4-0.2,0.9-0.2,1.3l0.2,26.3l-6.5,12.2c-0.4,0.7,0,1.3,0.4,1.7c0.7,0.4,1.3,0,1.7-0.4l6.5-12.2l22.2-14.3
		c0.4-0.2,0.7-0.7,0.9-0.9l15.6-28.9l-4.3,2.8L484,193.6z"/>
	<path id="XMLID_38_" class="st0" d="M510.7,144L492.3,156c-0.4,0.2-0.9,0.2-1.3,0c-0.4-0.2-0.7-0.7-0.7-1.1l-0.2-21.9l8.5-15.9
		v-5.2l-18.9,35.4c-0.2,0.4-0.2,0.9-0.2,1.3l0.2,26.3l-6.5,12.2c-0.2,0.7,0,1.3,0.4,1.7c0.7,0.4,1.3,0,1.7-0.4l6.5-12.2l22.2-14.3
		c0.4-0.2,0.7-0.7,0.9-0.9l15.6-28.9l-4.3,2.8L510.7,144z"/>
	<path id="XMLID_37_" class="st0" d="M537.4,94.5L519,106.4c-0.4,0.2-0.9,0.2-1.3,0c-0.4-0.2-0.7-0.7-0.7-1.1l-0.2-21.9l8.5-15.9
		v-5.2l-19.1,35.4c-0.2,0.4-0.2,0.9-0.2,1.3l0.2,26.3l-6.5,12.2c-0.2,0.7,0,1.3,0.4,1.7c0.7,0.2,1.3,0,1.7-0.4l6.5-12.2l22.2-14.3
		c0.4-0.2,0.7-0.7,0.9-0.9L547,82.5l-4.3,2.8L537.4,94.5z"/>
	<path id="XMLID_36_" class="st0" d="M567.4,38.9c-15.6,5.2-26.9,12.6-34.8,19.6l0.2,17.4L526.4,88c-0.4,0.7,0,1.3,0.4,1.7
		c0.7,0.2,1.3,0,1.7-0.4l6.5-12.2l14.1-9.1L549,49.7c5.2-3,10.6-5.6,16.7-7.6L567.4,38.9z"/>
	<path id="XMLID_35_" class="st0" d="M90.8,173.8l-10.6,19.8l-18.5,11.9c-0.4,0.2-0.9,0.2-1.3,0c-0.4-0.2-0.7-0.7-0.7-1.1l-0.2-21.9
		l5-9.3v-5.2l-15.6,28.9c-0.2,0.4-0.2,0.9-0.2,1.3l0.2,26.3l-6.5,12.2c-0.2,0.7,0,1.3,0.4,1.7c0.7,0.2,1.3,0,1.7-0.4l6.5-12.2
		l22.2-14.3c0.4-0.2,0.7-0.7,0.9-0.9l21.1-39.3L90.8,173.8z"/>
	<path id="XMLID_34_" class="st0" d="M68.6,190.5c0.7,0.2,1.3,0,1.7-0.4l6.5-12.2l22.2-14.3c0.4-0.2,0.7-0.7,0.9-0.9l21.1-39.3
		l-4.3,2.8L106,146l-18.5,11.9c-0.4,0.2-0.9,0.2-1.3,0c-0.4-0.2-0.7-0.7-0.7-1.1l-0.2-21.9l5-9.3v-5.2l-15.6,28.9
		c-0.2,0.4-0.2,0.9-0.2,1.3l0.2,26.3L68.2,189C67.8,189.4,68,190.3,68.6,190.5z"/>
	<path id="XMLID_33_" class="st0" d="M94.3,142.9c0.7,0.4,1.3,0,1.7-0.4l6.5-12.2l22.2-14.3c0.4-0.2,0.7-0.7,0.9-0.9l21.1-39.3
		l-4.3,2.8l-10.6,19.8l-18.5,11.9c-0.4,0.2-0.9,0.2-1.3,0s-0.7-0.7-0.7-1.1L111,87.1l5-9.3v-5.2l-15.6,28.9
		c-0.2,0.4-0.4,0.9-0.4,1.3l0.2,26.3l-6.5,12.2C93.4,141.9,93.6,142.5,94.3,142.9z"/>
	<path id="XMLID_32_" class="st0" d="M119.3,91.9c0.7,0.4,1.3,0,1.7-0.4l6.5-12.2l14.1-9.1l-0.2-17.8c4.8-2.8,10.2-5.6,16.7-8
		l1.7-3.3c-16.1,5.6-27.2,13.5-34.8,20.9l0.2,16.1l-6.5,12.2C118.4,90.8,118.6,91.5,119.3,91.9z"/>
	<path class="st0" d="M114.5,295.5l33.6-62.3h33.2l-0.8,4.7c-0.5,3,1.1,8.6,6,14.3c4.6,5.5,18.6,18.3,47.9,18.3
		c23,0,37.1-9.9,44.8-18.3c9.1-9.8,14.6-22.9,14.6-35.1c0-20.3-12.6-39.8-25.9-60.5c-15.4-24-31.4-48.7-31.4-78.7
		c0-23.5,10.9-42.9,31.6-56.3c16.6-10.8,38.9-17,61.1-17c25.3,0,39.3,5.5,50.6,9.9c7.5,2.9,13.4,5.3,20.7,5.3c9.9,0,17-5.4,21.2-10
		l1.2-1.3h36.9l-29.9,55.6h-30.8l-0.5-3.4c-0.2-1.1-5.2-28.6-46.4-28.6c-17.6,0-38.1,8.5-38.1,32.5c0,13.9,11.1,30.2,22.8,47.5
		c15.4,22.7,32.8,48.4,32.8,77.8c0,25.2-12.5,50.8-34.3,70.2c-23.5,21-55.4,32.6-89.9,32.6c-18.4,0-30.4-4.1-41-7.6
		c-9.2-3.1-17.2-5.8-28.3-5.8c-10.4,0-17.9,4.3-25,14.4l-1.2,1.7H114.5z"/>
	<g id="XMLID_62_">
		<path id="XMLID_20_" class="st1" d="M82.4,200.7L44,270.8h81.6l23.4-40.4c0,0,32.4,0,35.2,0c-3.5,8.3-0.8,16.1,3.4,21.1
			c12.6,15,38.9,17.4,48,17.4c21.3,0,36.3-10.8,43.5-18.4c8.5-8.9,13-22.5,13-33.6c0-5.4-0.7-10.6-2.5-16.2
			C289.7,200.7,82.4,200.7,82.4,200.7z"/>
		<path id="XMLID_24_" class="st1" d="M170.5,105.4h68.3c-2.6-8.7-4.3-17.8-4.3-27.4c0-15.4,5.4-31,14.1-42.5h-39.8
			c-38.7,0-51.3,25.1-51.3,25.1l-19.3,36.1h37.3L170.5,105.4z"/>
		<path id="XMLID_23_" class="st1" d="M169.9,148.6h90.3c-6.7-10.9-13.5-22.2-18.2-34.5H129.8l-13.7,25.6h58.6L169.9,148.6z"/>
		<path id="XMLID_22_" class="st1" d="M416.4,114h-76.8c7.4,10.9,14.8,22.2,20.6,34.5h115.8l13.7-25.6h-77.9L416.4,114z"/>
		<path id="XMLID_21_" class="st1" d="M170.1,192h118.7c-4.8-10.6-11.7-21.5-19.1-32.8c-0.4-0.7-0.7-1.1-1.1-1.7H105.4l-13.7,25.6
			h83.1L170.1,192z"/>
		<path id="XMLID_19_" class="st1" d="M445.1,33.3L429,67.2h-32.4l-1.1-5.7c0-0.2-6-25.2-43.6-27c-26.6-1.2-36.6,17.2-36.6,29.8
			c0,11.5,9.7,25.9,20.1,41.1h164.3l38.9-72H445.1z"/>
		<path id="XMLID_18_" class="st1" d="M416,157.5h-52.1c3.9,10.2,6.3,21.1,6.3,32.4c0,0.7,0,1.3,0,2h82.9l13.7-25.6h-55.6L416,157.5
			z"/>
		<path id="XMLID_17_" class="st1" d="M416,200.5h-47.5c-3,22.8-15.4,45.4-35,63c-2.2,2-7.6,7-9.8,8.7h46.2
			c38.7,0,54.6-25.7,54.6-25.7l19.3-37.2h-32.6L416,200.5z"/>
	</g>
	<path id="XMLID_49_" d="M581.3,28.5H454l6.3-11.9l6.7-12.8h-46.7l-2.4,3c-3.5,3.9-9.6,8.5-17.8,8.5c-6.5,0-11.7-2-18.9-5
		C369.5,5.6,355.2,0,329.1,0c-23,0-46.3,6.5-63.6,17.6c-5,3.3-9.3,6.7-13.3,10.6h-41.9c-76.2,0.2-98,40.6-101.7,47.4L0,277.6h119
		L107.1,300h45.4l2.6-3.7c6.3-8.9,12.4-12.6,21.1-12.6c10.2,0,18,2.6,26.7,5.6c10.9,3.7,23.2,7.8,42.4,7.8c26.9,0,52.4-7,73.9-19.8
		H371c76.2,0,98-40.4,101.7-47.1L581.3,28.5z M504.4,160.8c-0.2,0.4-0.4,0.7-0.9,0.9l-21.9,14.6l-6.5,12.2c-0.4,0.7-1.1,0.9-1.7,0.4
		c-0.7-0.2-0.9-1.1-0.4-1.7l6.5-12.2l-0.2-26.3c0-0.4,0-0.9,0.2-1.3l18.9-35.4v5.2l-8.5,15.9l0.2,21.9c0,0.4,0.2,0.9,0.7,1.1
		c0.4,0.2,0.9,0.2,1.3,0l18.5-11.9l5-9.3l4.3-2.8L504.4,160.8z M531.1,111.2c-0.2,0.4-0.4,0.7-0.9,0.9l-22.2,14.3l-6.5,12.2
		c-0.4,0.7-1.1,0.9-1.7,0.4c-0.7-0.2-0.9-1.1-0.4-1.7l6.5-12.2l-0.2-26.3c0-0.4,0-0.9,0.2-1.3l18.9-35.4v5.2l-8.5,15.9l0.2,21.9
		c0,0.4,0.2,0.9,0.7,1.1s0.9,0.2,1.3,0L537,94.3l5-9.3l4.3-2.8L531.1,111.2z M565.7,41.9c-5.9,2.2-11.5,4.8-16.7,7.6l0.2,18.2
		L535,76.9l-6.5,12.2c-0.2,0.7-1.1,0.9-1.7,0.4s-0.9-1.1-0.4-1.7l6.5-12.2l-0.2-17.4c7.8-7,19.1-14.3,34.8-19.6L565.7,41.9z
		 M118.8,90.2l6.5-12.2l-0.2-16.1c7.6-7.4,18.7-15.4,34.8-20.9l-1.7,3.3c-6.3,2.4-11.9,5.2-16.7,8l0.2,17.8l-14.1,9.1L121,91.5
		c-0.2,0.7-1.1,0.9-1.7,0.4C118.6,91.5,118.4,90.8,118.8,90.2z M93.6,141.2l6.5-12.2l-0.2-26.3c0-0.4,0-0.9,0.2-1.3l15.6-28.9v5.2
		l-4.8,9.3l0.2,21.9c0,0.4,0.2,0.9,0.7,1.1s0.9,0.2,1.3,0l18.5-11.9l10.6-19.8l4.3-2.8l-21.1,39.3c-0.2,0.4-0.4,0.7-0.9,0.9
		l-22.2,14.3L96,142.3c-0.2,0.7-1.1,0.9-1.7,0.4C93.6,142.5,93.4,141.9,93.6,141.2z M68,189l6.5-12.2l-0.2-26.3c0-0.4,0-0.9,0.2-1.3
		l15.6-28.9v5.2l-5,9.3l0.2,21.9c0,0.4,0.2,0.9,0.7,1.1c0.4,0.2,0.9,0.2,1.3,0l18.5-11.9l10.6-19.8l4.3-2.8l-21.1,39.3
		c-0.2,0.4-0.4,0.7-0.9,0.9l-22.2,14.3l-6.5,12.2c-0.4,0.7-1.1,0.9-1.7,0.4C68,190.3,67.8,189.4,68,189z M42.8,238.3
		c-0.7-0.2-0.9-1.1-0.4-1.7l6.5-12.2l-0.2-26.3c0-0.4,0-0.9,0.2-1.3l15.6-28.9v5.2l-5,9.3l0.2,21.9c0,0.4,0.2,0.9,0.7,1.1
		c0.4,0.2,0.9,0.2,1.3,0l18.5-11.9l10.6-19.8l4.3-2.8l-21.1,39.3c-0.2,0.4-0.4,0.7-0.9,0.9L51,225.5l-6.5,12.2
		C44.3,238.3,43.4,238.5,42.8,238.3z M48.2,269.2l36.7-68.4l9.6-17.6l13.7-25.6l9.6-17.6l13.7-25.6l9.6-17.6l19.3-36.1
		c0,0,12.6-23.5,51.3-23.5h33.2c-8.5,11.7-13,25.4-13,40.8c0,9.6,1.5,18.7,4.3,27.4c0.9,3,2,5.9,3,8.9c4.8,12.2,11.3,23.7,18.2,34.5
		c2,3,3.7,5.9,5.6,8.9c0.4,0.7,0.7,1.1,1.1,1.7c7.2,11.3,14.3,22.2,19.1,32.8c1.3,3,2.4,5.9,3.5,8.9c1.7,5.4,2.8,10.9,2.8,16.5
		c0,10.9-5,22.8-13.5,31.9c-7.2,7.6-20,16.7-41.3,16.7c-9.1,0-31.7-1.5-44.3-16.7c-4.1-5-6.5-12.4-3-20.6c-2.8,0-41.5,0-41.5,0
		l-22.2,40.2H48.2z M245.5,288.7c-33.2,0-44.1-13.5-69.3-13.5c-13.3,0-21.5,6.5-28.2,16.1h-26.5l29.3-54.3h26.1
		c-2,11.3,15,37.4,57.8,37.4c42.6,0,63.4-33,63.4-57.3c0-45.2-57.3-84.3-57.3-139.2c0-48.9,49.7-69.3,88.6-69.3
		c41.3,0,51.5,15.2,71.3,15.2c11.5,0,19.6-6.5,24.1-11.3h28.5L427.5,60h-25c0,0-5-31.9-50.4-31.9c-23.2,0-42.4,13-42.4,36.3
		c0,33.9,56,74.3,56,125.3C365.6,237.4,317.8,288.7,245.5,288.7z M440.6,209.4l-19.3,36.1c0,0-12.6,23.5-51.3,23.5h-38
		c2.2-1.7,4.6-3.5,6.5-5.4c19.8-17.6,32.2-40.2,35-63c0.4-2.8,0.7-5.9,0.7-8.7c0-0.7,0-1.3,0-2c0-11.5-2.4-22.2-6.3-32.4
		c-1.1-3-2.4-5.9-3.7-8.9c-5.6-12.2-13.3-23.7-20.6-34.5c-1.1-1.5-2.2-3-3.3-4.6c-0.9-1.3-1.7-2.6-2.8-4.1
		c-10.4-15.2-19.6-29.5-19.6-41.1c0-12.8,8.9-27.6,33.9-27.6c37.6,0,41.9,24.5,41.9,24.8l1.1,7.4h37.6l17.2-31.7h83.9l-36.7,68.4
		l-9.3,17.6l-13.7,25.6l-9.6,17.6L450.3,192l-7,13L440.6,209.4z M454.9,225.7l-6.5,12.2c-0.4,0.7-1.1,0.9-1.7,0.4
		c-0.7-0.2-0.9-1.1-0.4-1.7l6.5-12.2l-0.2-26.3c0-0.4,0-0.9,0.2-1.3l19.1-35.4v5.2l-8.5,15.9l0.2,21.9c0,0.4,0.2,0.9,0.7,1.1
		c0.4,0.2,0.9,0.2,1.3,0l18.5-11.9l5-9.3l4.3-2.8l-15.6,28.9c-0.2,0.4-0.4,0.7-0.9,0.9L454.9,225.7z"/>
</g>
</svg>
