<?xml version="1.0" encoding="utf-8"?>
<!-- Generator: Adobe Illustrator 21.1.0, SVG Export Plug-In . SVG Version: 6.00 Build 0)  -->
<!DOCTYPE svg PUBLIC "-//W3C//DTD SVG 1.1//EN" "http://www.w3.org/Graphics/SVG/1.1/DTD/svg11.dtd">
<svg version="1.1" id="Layer_1" xmlns="http://www.w3.org/2000/svg" xmlns:xlink="http://www.w3.org/1999/xlink" x="0px" y="0px"
	 width="300px" height="304.3px" viewBox="0 0 300 304.3" style="enable-background:new 0 0 300 304.3;" xml:space="preserve">
<style type="text/css">
	.st0{fill:#003364;}
	.st1{fill:#4E91CD;}
	.st2{fill:none;stroke:#FFFFFF;stroke-width:24;}
	.st3{fill:none;stroke:#003364;stroke-width:18;}
	.st4{fill:#FFFFFF;}
</style>
<g>
	<ellipse class="st0" cx="150" cy="152.1" rx="150" ry="152.1"/>
	<ellipse class="st1" cx="150" cy="152.1" rx="140.7" ry="142.8"/>
	<ellipse class="st0" cx="150" cy="152.1" rx="115.8" ry="117.4"/>
	<path id="argoA" d="M170.4,74.8h16V60.5h-72.8v14.2h16L82.7,224.4H66.2v14.2h47.4v-14.2H97.1l14.1-45h77.7l14.1,45h-17.7v14.2h48.3
		v-14.2h-16.5L170.4,74.8z M156,74.8l28.3,90.3h-68.7l28.3-90.3H156z"/>
	<g>
		<path id="argoA_1_" class="st2" d="M170.4,74.8h16V60.5h-72.8v14.2h16L82.7,224.4H66.2v14.2h47.4v-14.2H97.1l14.1-45h77.7l14.1,45
			h-17.7v14.2h48.3v-14.2h-16.5L170.4,74.8z M156,74.8l28.3,90.3h-68.7l28.3-90.3H156z"/>
	</g>
	<g>
		<path id="argoA_2_" class="st3" d="M170.4,74.8h16V60.5h-72.8v14.2h16L82.7,224.4H66.2v14.2h47.4v-14.2H97.1l14.1-45h77.7l14.1,45
			h-17.7v14.2h48.3v-14.2h-16.5L170.4,74.8z M156,74.8l28.3,90.3h-68.7l28.3-90.3H156z"/>
	</g>
	<g>
		<path id="argoA_3_" class="st4" d="M170.4,74.8h16V60.5h-72.8v14.2h16L82.7,224.4H66.2v14.2h47.4v-14.2H97.1l14.1-45h77.7l14.1,45
			h-17.7v14.2h48.3v-14.2h-16.5L170.4,74.8z M156,74.8l28.3,90.3h-68.7l28.3-90.3H156z"/>
	</g>
	<circle id="cir" class="st0" cx="21.5" cy="152.2" r="6.5"/>
	<g>
		<circle id="cir_1_" class="st0" cx="31.3" cy="102.4" r="6.5"/>
	</g>
	<g>
		<circle id="cir_2_" class="st0" cx="59.1" cy="60.1" r="6.5"/>
	</g>
	<g>
		<circle id="cir_3_" class="st0" cx="100.8" cy="31.9" r="6.5"/>
	</g>
	<g>
		<circle id="cir_4_" class="st0" cx="150" cy="22" r="6.5"/>
	</g>
	<g>
		<circle id="cir_5_" class="st0" cx="199.2" cy="31.9" r="6.5"/>
	</g>
	<g>
		<circle id="cir_6_" class="st0" cx="240.9" cy="60.1" r="6.5"/>
	</g>
	<g>
		<circle id="cir_7_" class="st0" cx="268.7" cy="102.4" r="6.5"/>
	</g>
	<g>
		<circle id="cir_8_" class="st0" cx="278.5" cy="152.2" r="6.5"/>
	</g>
	<g>
		<circle id="cir_9_" class="st0" cx="268.7" cy="202" r="6.5"/>
	</g>
	<g>
		<circle id="cir_10_" class="st0" cx="199.2" cy="272.5" r="6.5"/>
	</g>
	<g>
		<circle id="cir_11_" class="st0" cx="150" cy="282.4" r="6.5"/>
	</g>
	<g>
		<circle id="cir_12_" class="st0" cx="100.8" cy="272.5" r="6.5"/>
	</g>
	<g>
		<circle id="cir_13_" class="st0" cx="31.3" cy="202" r="6.5"/>
	</g>
</g>
</svg>
