<?xml version="1.0" encoding="utf-8"?>
<!-- Generator: Adobe Illustrator 16.0.0, SVG Export Plug-In . SVG Version: 6.00 Build 0)  -->
<!DOCTYPE svg PUBLIC "-//W3C//DTD SVG 1.1//EN" "http://www.w3.org/Graphics/SVG/1.1/DTD/svg11.dtd">
<svg version="1.1" id="Layer_1" xmlns="http://www.w3.org/2000/svg" xmlns:xlink="http://www.w3.org/1999/xlink" x="0px" y="0px"
	 width="500px" height="500px" viewBox="0 0 500 500" enable-background="new 0 0 500 500" xml:space="preserve">
<g>
	<path fill="#231F20" d="M500,250.001C500,388.07,388.07,500,250,500S0,388.07,0,250.001C0,111.93,111.93,0,250,0
		S500,111.93,500,250.001"/>
	<path fill="#A29061" d="M250.002,494.412c-65.226,0-126.547-25.4-172.67-71.521C31.21,376.77,5.809,315.447,5.809,250.223
		c0-65.226,25.401-126.547,71.522-172.669c46.123-46.12,107.445-71.521,172.67-71.521c65.227,0,126.549,25.4,172.67,71.521
		c46.119,46.121,71.521,107.442,71.521,172.668c0,65.225-25.402,126.547-71.521,172.668
		C376.551,469.012,315.229,494.412,250.002,494.412 M250.002,12.034c-131.339,0-238.192,106.852-238.192,238.189
		c0,131.338,106.853,238.189,238.192,238.189c131.338,0,238.189-106.852,238.189-238.189
		C488.191,118.885,381.34,12.034,250.002,12.034"/>
</g>
<g>
	<defs>
		<path id="SVGID_1_" d="M86.181,250c0,90.475,73.345,163.82,163.819,163.82c90.477,0,163.821-73.346,163.821-163.82
			c0-90.474-73.344-163.819-163.821-163.819C159.525,86.181,86.181,159.526,86.181,250"/>
	</defs>
	<clipPath id="SVGID_2_">
		<use xlink:href="#SVGID_1_"  overflow="visible"/>
	</clipPath>
	<rect x="211.302" y="84.421" clip-path="url(#SVGID_2_)" fill="#80000B" width="76.743" height="331.146"/>
	<rect x="82.532" y="116.887" clip-path="url(#SVGID_2_)" fill="#80000B" width="64.11" height="266.214"/>
	<rect x="352.707" y="116.887" clip-path="url(#SVGID_2_)" fill="#80000B" width="64.109" height="266.214"/>
</g>
<g>
	<path fill="#231F20" d="M298.283,158.104l15.92-31.946h-128.66l15.925,31.954L132.773,361.83l62.352,40.881l12.978-37.023h84.245
		l11.945,36.752l63.189-40.729L298.283,158.104z M232.721,293.057l17.237-51.761l17.77,51.761H232.721z"/>
	<path fill="#A29061" d="M291.824,157.664l12.783-25.573l-109.458,0l12.774,25.572l-69.788,206.963l24.073,22.494l12.496,5.889
		l15.129,6.742l14.033-40.037h92.821l13.51,41.568l25.508-13.654l26.768-22.096L291.824,157.664z M224.439,299.037l25.433-76.393
		l26.222,76.398L224.439,299.037z"/>
	<polygon fill="#817244" points="224.439,299.037 182.1,329.416 250,131.955 317.9,329.416 276.094,299.043 249.872,222.645 	"/>
	<polygon fill="#817244" points="164.186,381.512 182.1,329.418 317.9,329.418 335.396,380.295 308.459,395.936 296.686,359.715 
		203.867,359.715 191.227,395.777 	"/>
	<path fill="#A29061" d="M250.004,415.836c-91.443,0-165.837-74.395-165.837-165.836c0-91.439,74.395-165.83,165.837-165.83
		c91.439,0,165.83,74.391,165.83,165.83C415.834,341.441,341.443,415.836,250.004,415.836 M250.004,90.913
		C162.28,90.913,90.91,162.28,90.91,250c0,87.723,71.37,159.092,159.094,159.092c87.721,0,159.086-71.369,159.086-159.092
		C409.09,162.28,337.725,90.913,250.004,90.913"/>
	<path fill="#817244" d="M250.002,409.848c-88.142,0-159.851-71.707-159.851-159.848c0-88.14,71.708-159.847,159.851-159.847
		c88.141,0,159.848,71.707,159.848,159.847C409.85,338.141,338.143,409.848,250.002,409.848 M250.002,96.123
		c-84.85,0-153.881,69.029-153.881,153.877c0,84.85,69.031,153.879,153.881,153.879c84.85,0,153.879-69.029,153.879-153.879
		C403.881,165.152,334.852,96.123,250.002,96.123"/>
	<path fill="#A39161" d="M257.361,30.621c0.455-1.445,0.904-2.882,1.355-4.32c-5.785-0.304-11.581-0.319-17.365-0.055
		c0.442,1.44,0.886,2.88,1.328,4.328c-4.121,13.477-8.236,27.089-12.338,40.844c3.431-0.367,6.868-0.638,10.312-0.804
		c0.636-2.265,1.267-4.526,1.903-6.788c4.894-0.182,9.792-0.169,14.687,0.048c0.629,2.262,1.26,4.531,1.889,6.799
		c3.443,0.187,6.879,0.482,10.307,0.87C265.422,57.759,261.395,44.121,257.361,30.621 M249.999,37.47
		c1.566,5.679,3.13,11.378,4.697,17.1c-3.172-0.095-6.351-0.105-9.527-0.032C246.778,48.827,248.387,43.137,249.999,37.47"/>
	<path fill="#A39161" d="M364.656,111.459c2.662,2.192,5.262,4.459,7.793,6.801c2.07-1.127,4.133-2.25,6.197-3.373
		c3.561,3.361,6.98,6.87,10.25,10.516c-1.182,2.027-2.363,4.059-3.547,6.088c2.271,2.589,4.473,5.248,6.596,7.964
		c7.023-12.517,13.939-24.944,20.75-37.276c1.346-0.689,2.695-1.375,4.037-2.06c-3.244-3.668-6.637-7.202-10.168-10.593
		C392.711,96.713,378.742,104.021,364.656,111.459 M387.104,110.241c5.199-2.855,10.381-5.695,15.547-8.521
		c-2.949,5.1-5.918,10.212-8.896,15.343C391.6,114.73,389.381,112.455,387.104,110.241"/>
	<path fill="#A39161" d="M351.799,50.293c-1.588,2.629-3.174,5.258-4.76,7.887c3.264,1.691,6.496,3.452,9.678,5.29
		c-6.049,10.032-12.102,20.058-18.152,30.086c2.766,1.59,5.488,3.237,8.184,4.937c6.053-10.027,12.102-20.055,18.15-30.085
		c2.713,1.71,5.395,3.479,8.039,5.291c2.361-2.093,4.717-4.186,7.072-6.276C371.004,61.083,361.578,55.36,351.799,50.293"/>
	<path fill="#A39161" d="M320.135,37.083c-2.477,8.344-4.945,16.69-7.42,25.03c-1.73-9.774-3.514-19.393-5.338-28.848
		c-3.408-0.886-6.844-1.666-10.301-2.349c0.023,1.493,0.045,2.98,0.07,4.472c-3.787,12.769-7.57,25.538-11.359,38.311
		c3.125,0.638,6.232,1.362,9.318,2.167c2.471-8.342,4.947-16.691,7.422-25.033c1.818,9.466,3.602,19.091,5.328,28.877
		c2.906,0.999,5.787,2.07,8.641,3.221l12.605-42.518C326.143,39.22,323.15,38.11,320.135,37.083"/>
	<path fill="#A39161" d="M94.286,89.53c-3.533,3.387-6.928,6.921-10.169,10.589c1.341,0.686,2.687,1.372,4.032,2.057
		c6.815,12.332,13.729,24.763,20.755,37.28c2.125-2.72,4.324-5.375,6.597-7.964c-1.186-2.035-2.37-4.063-3.552-6.088
		c3.271-3.647,6.695-7.155,10.25-10.517c2.068,1.123,4.132,2.246,6.203,3.373c2.53-2.341,5.125-4.605,7.792-6.799
		C122.107,104.021,108.138,96.714,94.286,89.53 M107.095,117.064c-2.983-5.131-5.947-10.247-8.901-15.343
		c5.17,2.821,10.352,5.666,15.552,8.521C111.467,112.458,109.25,114.73,107.095,117.064"/>
	<path fill="#A39161" d="M149.05,50.293c1.586,2.629,3.172,5.258,4.759,7.887c-3.264,1.691-6.495,3.452-9.678,5.29
		c6.05,10.032,12.102,20.058,18.152,30.086c-2.765,1.59-5.488,3.237-8.183,4.937c-6.053-10.027-12.102-20.055-18.151-30.085
		c-2.713,1.71-5.394,3.479-8.038,5.291c-2.362-2.093-4.718-4.186-7.073-6.276C129.845,61.083,139.271,55.36,149.05,50.293"/>
	<path fill="#A39161" d="M193.953,69.776c-3.219-11.26-6.443-22.52-9.662-33.779c-3.042,0.947-6.064,1.968-9.058,3.059
		c4.065,14.211,8.132,28.424,12.197,42.633c8.076-2.938,16.328-5.364,24.711-7.256c0.073-3.158,0.149-6.309,0.223-9.456
		C206.153,66.286,200.009,67.887,193.953,69.776"/>
	<path fill="#A39161" d="M181.311,415.576c-2.92-1.27-5.819-2.582-8.7-3.943c-6.097,13.471-12.197,26.932-18.294,40.4
		c2.882,1.357,5.784,2.67,8.701,3.936C169.114,442.508,175.214,429.041,181.311,415.576"/>
	<path fill="#A39161" d="M225.303,427.646c-0.692,2.99-1.385,5.979-2.078,8.975c-3.646-0.523-7.271-1.15-10.873-1.885
		c-2.643,11.408-5.29,22.816-7.934,34.227c-3.122-0.639-6.229-1.361-9.314-2.158c2.644-11.408,5.288-22.818,7.935-34.229
		c-3.56-0.922-7.092-1.953-10.593-3.092c0.689-2.988,1.385-5.98,2.079-8.973C204.56,423.775,214.857,426.162,225.303,427.646"/>
	<path fill="#A39161" d="M249.551,455.66c4.988,0.029,9.98-0.145,14.957-0.523c-0.061-3.072-0.125-6.143-0.186-9.213
		c-4.977,0.385-9.965,0.559-14.957,0.527c-0.051-2.598-0.103-5.197-0.156-7.801c6.343,0.035,12.687-0.256,19.003-0.883
		c-0.996-2.979-1.994-5.961-2.994-8.951c-8.564,0.715-17.169,0.82-25.753,0.32c0.299,14.779,0.598,29.555,0.894,44.336
		c8.587,0.5,17.188,0.395,25.756-0.32c0.877-3.146,1.748-6.301,2.623-9.463c-6.318,0.623-12.664,0.92-19.007,0.877
		C249.671,461.6,249.61,458.629,249.551,455.66"/>
	<path fill="#A39161" d="M317.064,428.723c-1.689-6.055-7.848-9.131-13.861-7.289c-6.668,2.049-13.447,3.723-20.309,5.018
		c0.834,1.328,1.666,2.65,2.502,3.971c3.588,12.828,7.172,25.656,10.764,38.484c6.406-1.256,12.744-2.846,18.986-4.764
		c6.012-1.844,9.418-8.611,7.725-14.654C320.941,442.568,319.004,435.646,317.064,428.723 M313.836,452.619
		c0.326,1.16-0.342,2.4-1.498,2.75c-3.084,0.945-6.195,1.807-9.328,2.586c-2.33-8.32-4.652-16.641-6.98-24.963
		c3.131-0.785,6.242-1.648,9.326-2.59c1.156-0.35,2.352,0.293,2.674,1.453C309.969,438.775,311.9,445.701,313.836,452.619"/>
	<path fill="#A39161" d="M148.458,397.57c-5.196,6.982-10.392,13.961-15.588,20.947c1.545-9.506,3.179-19.143,4.911-28.904
		c-2.392-1.926-4.744-3.908-7.041-5.951c-8.828,11.857-17.652,23.719-26.473,35.578c2.386,2.119,4.821,4.172,7.312,6.164
		c5.195-6.984,10.391-13.969,15.587-20.947c-1.728,9.754-3.358,19.385-4.897,28.883c2.531,1.744,5.104,3.424,7.724,5.043
		c8.823-11.861,17.644-23.719,26.468-35.58C153.748,401.129,151.079,399.381,148.458,397.57"/>
	<path fill="#A39161" d="M112.486,364.604c-8.887,6.887-17.775,13.771-26.661,20.656c-0.952,0.736-2.356,0.588-3.119-0.348
		c-1.582-1.936-3.121-3.904-4.616-5.91c-0.722-0.967-0.521-2.355,0.431-3.092c8.886-6.887,17.775-13.771,26.662-20.658
		c-2.137-2.939-4.179-5.951-6.13-9.023c-0.915,1.273-1.832,2.547-2.742,3.818c-7.729,5.986-15.463,11.979-23.198,17.969
		c-4.963,3.848-6.265,11.311-2.508,16.354c1.626,2.191,3.307,4.34,5.036,6.447c3.985,4.871,11.569,5.443,16.528,1.602
		c8.89-6.889,17.776-13.773,26.666-20.658C116.651,369.432,114.535,367.047,112.486,364.604"/>
	<path fill="#A39161" d="M364.525,400.152c5.057-3.828,9.93-7.906,14.584-12.223c-2.596-1.77-5.189-3.541-7.791-5.324
		c-6.727,6.049-13.871,11.611-21.383,16.646c1.275,0.896,2.553,1.793,3.828,2.686c8.26,10.451,16.52,20.902,24.781,31.354
		c2.635-1.795,5.225-3.652,7.768-5.572c-3.744-4.742-7.49-9.48-11.238-14.221c3.979-3.008,7.84-6.174,11.574-9.488
		c-1.904-2.41-3.807-4.816-5.711-7.227c-3.734,3.318-7.596,6.479-11.574,9.49C367.752,404.232,366.137,402.191,364.525,400.152"/>
	<path fill="#A39161" d="M410.988,352.014c-5.01-3.797-11.881-2.598-15.594,2.471c-1.607,2.199-3.256,4.373-4.938,6.518
		c-3.877,4.951-3.17,11.887,1.84,15.686c6.139,4.648,12.283,9.301,18.422,13.955c5.004,3.793,12.445,3.021,16.318-1.926
		c1.682-2.145,3.324-4.318,4.938-6.516c3.715-5.072,2.438-12.441-2.561-16.23c-0.959-0.725-1.918-1.451-2.877-2.176
		c-1.758,2.654-3.572,5.275-5.434,7.861c0.955,0.725,1.914,1.449,2.875,2.176c0.957,0.727,1.17,2.111,0.449,3.082
		c-1.475,2.012-2.984,4.002-4.523,5.973c-0.744,0.947-2.129,1.123-3.088,0.396c-6.141-4.652-12.281-9.307-18.422-13.957
		c-0.961-0.727-1.131-2.084-0.387-3.031c1.539-1.965,3.045-3.959,4.525-5.971c0.711-0.971,2.061-1.18,3.02-0.451
		c0.662,0.5,1.326,1.008,1.99,1.508c1.863-2.582,3.672-5.205,5.436-7.859C412.316,353.016,411.652,352.518,410.988,352.014"/>
	<path fill="#A39161" d="M416.795,141.534c21.029,32.293,32.127,69.725,32.127,108.469c0,31.05-6.955,60.8-20.672,88.417
		l5.449,2.713c14.139-28.471,21.307-59.133,21.307-91.13c0-41.055-12.094-80.684-34.973-114.602L416.795,141.534z"/>
	<path fill="#A39161" d="M83.088,141.534C62.057,173.827,50.96,211.259,50.96,250.003c0,31.05,6.955,60.8,20.671,88.417
		l-5.448,2.713C52.045,312.662,44.877,282,44.877,250.003c0-41.055,12.092-80.684,34.972-114.602L83.088,141.534z"/>
</g>
</svg>
