<?xml version="1.0" encoding="utf-8"?>
<!-- Generator: Adobe Illustrator 21.1.0, SVG Export Plug-In . SVG Version: 6.00 Build 0)  -->
<!DOCTYPE svg PUBLIC "-//W3C//DTD SVG 1.1//EN" "http://www.w3.org/Graphics/SVG/1.1/DTD/svg11.dtd">
<svg version="1.1" id="Layer_1" xmlns="http://www.w3.org/2000/svg" xmlns:xlink="http://www.w3.org/1999/xlink" x="0px" y="0px"
	 width="500px" height="500px" viewBox="0 0 500 500" style="enable-background:new 0 0 500 500;" xml:space="preserve">
<style type="text/css">
	.st0{fill:#231F20;}
	.st1{fill:#A29061;}
	.st2{clip-path:url(#SVGID_2_);fill:#80000B;}
	.st3{clip-path:url(#SVGID_4_);fill:#80000B;}
	.st4{clip-path:url(#SVGID_6_);fill:#80000B;}
	.st5{fill:#817244;}
	.st6{fill:#A39161;}
</style>
<g>
	<path class="st0" d="M500,250c0,138.1-111.9,250-250,250S0,388.1,0,250C0,111.9,111.9,0,250,0S500,111.9,500,250"/>
	<path class="st1" d="M250,500.2c-66.8,0-129.6-26-176.8-73.2C26,379.8,0,317,0,250.2c0-66.8,26-129.6,73.2-176.8
		C120.4,26.2,183.2,0.2,250,0.2c66.8,0,129.6,26,176.8,73.2c47.2,47.2,73.2,110,73.2,176.8c0,66.8-26,129.6-73.2,176.8
		C379.6,474.2,316.8,500.2,250,500.2 M250,12C118.7,12,11.8,118.9,11.8,250.2c0,131.3,106.9,238.2,238.2,238.2
		c131.3,0,238.2-106.9,238.2-238.2C488.2,118.9,381.3,12,250,12"/>
</g>
<g>
	<g>
		<defs>
			<path id="SVGID_1_" d="M86.2,250c0,90.5,73.3,163.8,163.8,163.8c90.5,0,163.8-73.3,163.8-163.8S340.5,86.2,250,86.2
				C159.5,86.2,86.2,159.5,86.2,250"/>
		</defs>
		<clipPath id="SVGID_2_">
			<use xlink:href="#SVGID_1_"  style="overflow:visible;"/>
		</clipPath>
		<rect x="211.3" y="84.4" class="st2" width="76.7" height="331.1"/>
	</g>
	<g>
		<defs>
			<path id="SVGID_3_" d="M86.2,250c0,90.5,73.3,163.8,163.8,163.8c90.5,0,163.8-73.3,163.8-163.8S340.5,86.2,250,86.2
				C159.5,86.2,86.2,159.5,86.2,250"/>
		</defs>
		<clipPath id="SVGID_4_">
			<use xlink:href="#SVGID_3_"  style="overflow:visible;"/>
		</clipPath>
		<rect x="82.5" y="116.9" class="st3" width="64.1" height="266.2"/>
	</g>
	<g>
		<defs>
			<path id="SVGID_5_" d="M86.2,250c0,90.5,73.3,163.8,163.8,163.8c90.5,0,163.8-73.3,163.8-163.8S340.5,86.2,250,86.2
				C159.5,86.2,86.2,159.5,86.2,250"/>
		</defs>
		<clipPath id="SVGID_6_">
			<use xlink:href="#SVGID_5_"  style="overflow:visible;"/>
		</clipPath>
		<rect x="352.7" y="116.9" class="st4" width="64.1" height="266.2"/>
	</g>
</g>
<g>
	<path class="st0" d="M298.3,158.1l15.9-31.9H185.5l15.9,32l-68.7,203.7l62.4,40.9l13-37h84.2l11.9,36.8l63.2-40.7L298.3,158.1z
		 M232.7,293.1l17.2-51.8l17.8,51.8H232.7z"/>
	<path class="st1" d="M291.8,157.7l12.8-25.6H195.1l12.8,25.6l-69.8,207l24.1,22.5l12.5,5.9l15.1,6.7l14-40h92.8l13.5,41.6
		l25.5-13.7l26.8-22.1L291.8,157.7z M224.4,299l25.4-76.4l26.2,76.4L224.4,299z"/>
	<polygon class="st5" points="224.4,299 182.1,329.4 250,132 317.9,329.4 276.1,299 249.9,222.6 	"/>
	<polygon class="st5" points="164.2,381.5 182.1,329.4 317.9,329.4 335.4,380.3 308.5,395.9 296.7,359.7 203.9,359.7 191.2,395.8 	
		"/>
	<path class="st1" d="M250,415.8c-91.4,0-165.8-74.4-165.8-165.8c0-91.4,74.4-165.8,165.8-165.8c91.4,0,165.8,74.4,165.8,165.8
		C415.8,341.4,341.4,415.8,250,415.8 M250,90.9c-87.7,0-159.1,71.4-159.1,159.1c0,87.7,71.4,159.1,159.1,159.1
		c87.7,0,159.1-71.4,159.1-159.1C409.1,162.3,337.7,90.9,250,90.9"/>
	<path class="st5" d="M250,409.8c-88.1,0-159.9-71.7-159.9-159.8c0-88.1,71.7-159.8,159.9-159.8c88.1,0,159.8,71.7,159.8,159.8
		C409.9,338.1,338.1,409.8,250,409.8 M250,96.1c-84.8,0-153.9,69-153.9,153.9c0,84.9,69,153.9,153.9,153.9s153.9-69,153.9-153.9
		C403.9,165.2,334.9,96.1,250,96.1"/>
	<path class="st6" d="M257.4,30.6c0.5-1.4,0.9-2.9,1.4-4.3c-5.8-0.3-11.6-0.3-17.4-0.1c0.4,1.4,0.9,2.9,1.3,4.3
		c-4.1,13.5-8.2,27.1-12.3,40.8c3.4-0.4,6.9-0.6,10.3-0.8c0.6-2.3,1.3-4.5,1.9-6.8c4.9-0.2,9.8-0.2,14.7,0c0.6,2.3,1.3,4.5,1.9,6.8
		c3.4,0.2,6.9,0.5,10.3,0.9C265.4,57.8,261.4,44.1,257.4,30.6 M250,37.5c1.6,5.7,3.1,11.4,4.7,17.1c-3.2-0.1-6.4-0.1-9.5,0
		C246.8,48.8,248.4,43.1,250,37.5"/>
	<path class="st6" d="M364.7,111.5c2.7,2.2,5.3,4.5,7.8,6.8c2.1-1.1,4.1-2.2,6.2-3.4c3.6,3.4,7,6.9,10.2,10.5
		c-1.2,2-2.4,4.1-3.5,6.1c2.3,2.6,4.5,5.2,6.6,8c7-12.5,13.9-24.9,20.8-37.3c1.3-0.7,2.7-1.4,4-2.1c-3.2-3.7-6.6-7.2-10.2-10.6
		C392.7,96.7,378.7,104,364.7,111.5 M387.1,110.2c5.2-2.9,10.4-5.7,15.5-8.5c-2.9,5.1-5.9,10.2-8.9,15.3
		C391.6,114.7,389.4,112.5,387.1,110.2"/>
	<path class="st6" d="M351.8,50.3c-1.6,2.6-3.2,5.3-4.8,7.9c3.3,1.7,6.5,3.5,9.7,5.3c-6,10-12.1,20.1-18.2,30.1
		c2.8,1.6,5.5,3.2,8.2,4.9c6.1-10,12.1-20.1,18.1-30.1c2.7,1.7,5.4,3.5,8,5.3c2.4-2.1,4.7-4.2,7.1-6.3
		C371,61.1,361.6,55.4,351.8,50.3"/>
	<path class="st6" d="M320.1,37.1c-2.5,8.3-4.9,16.7-7.4,25c-1.7-9.8-3.5-19.4-5.3-28.8c-3.4-0.9-6.8-1.7-10.3-2.3
		c0,1.5,0,3,0.1,4.5c-3.8,12.8-7.6,25.5-11.4,38.3c3.1,0.6,6.2,1.4,9.3,2.2c2.5-8.3,4.9-16.7,7.4-25c1.8,9.5,3.6,19.1,5.3,28.9
		c2.9,1,5.8,2.1,8.6,3.2l12.6-42.5C326.1,39.2,323.1,38.1,320.1,37.1"/>
	<path class="st6" d="M94.3,89.5c-3.5,3.4-6.9,6.9-10.2,10.6c1.3,0.7,2.7,1.4,4,2.1c6.8,12.3,13.7,24.8,20.8,37.3
		c2.1-2.7,4.3-5.4,6.6-8c-1.2-2-2.4-4.1-3.6-6.1c3.3-3.6,6.7-7.2,10.2-10.5c2.1,1.1,4.1,2.2,6.2,3.4c2.5-2.3,5.1-4.6,7.8-6.8
		C122.1,104,108.1,96.7,94.3,89.5 M107.1,117.1c-3-5.1-5.9-10.2-8.9-15.3c5.2,2.8,10.4,5.7,15.6,8.5
		C111.5,112.5,109.2,114.7,107.1,117.1"/>
	<path class="st6" d="M149.1,50.3c1.6,2.6,3.2,5.3,4.8,7.9c-3.3,1.7-6.5,3.5-9.7,5.3c6.1,10,12.1,20.1,18.2,30.1
		c-2.8,1.6-5.5,3.2-8.2,4.9c-6.1-10-12.1-20.1-18.2-30.1c-2.7,1.7-5.4,3.5-8,5.3c-2.4-2.1-4.7-4.2-7.1-6.3
		C129.8,61.1,139.3,55.4,149.1,50.3"/>
	<path class="st6" d="M194,69.8c-3.2-11.3-6.4-22.5-9.7-33.8c-3,0.9-6.1,2-9.1,3.1c4.1,14.2,8.1,28.4,12.2,42.6
		c8.1-2.9,16.3-5.4,24.7-7.3c0.1-3.2,0.1-6.3,0.2-9.5C206.2,66.3,200,67.9,194,69.8"/>
	<path class="st6" d="M181.3,415.6c-2.9-1.3-5.8-2.6-8.7-3.9c-6.1,13.5-12.2,26.9-18.3,40.4c2.9,1.4,5.8,2.7,8.7,3.9
		C169.1,442.5,175.2,429,181.3,415.6"/>
	<path class="st6" d="M225.3,427.6c-0.7,3-1.4,6-2.1,9c-3.6-0.5-7.3-1.1-10.9-1.9c-2.6,11.4-5.3,22.8-7.9,34.2
		c-3.1-0.6-6.2-1.4-9.3-2.2c2.6-11.4,5.3-22.8,7.9-34.2c-3.6-0.9-7.1-2-10.6-3.1c0.7-3,1.4-6,2.1-9
		C204.6,423.8,214.9,426.2,225.3,427.6"/>
	<path class="st6" d="M249.6,455.7c5,0,10-0.1,15-0.5c-0.1-3.1-0.1-6.1-0.2-9.2c-5,0.4-10,0.6-15,0.5c-0.1-2.6-0.1-5.2-0.2-7.8
		c6.3,0,12.7-0.3,19-0.9c-1-3-2-6-3-9c-8.6,0.7-17.2,0.8-25.8,0.3c0.3,14.8,0.6,29.6,0.9,44.3c8.6,0.5,17.2,0.4,25.8-0.3
		c0.9-3.1,1.7-6.3,2.6-9.5c-6.3,0.6-12.7,0.9-19,0.9C249.7,461.6,249.6,458.6,249.6,455.7"/>
	<path class="st6" d="M317.1,428.7c-1.7-6.1-7.8-9.1-13.9-7.3c-6.7,2-13.4,3.7-20.3,5c0.8,1.3,1.7,2.6,2.5,4
		c3.6,12.8,7.2,25.7,10.8,38.5c6.4-1.3,12.7-2.8,19-4.8c6-1.8,9.4-8.6,7.7-14.7C320.9,442.6,319,435.6,317.1,428.7 M313.8,452.6
		c0.3,1.2-0.3,2.4-1.5,2.8c-3.1,0.9-6.2,1.8-9.3,2.6c-2.3-8.3-4.7-16.6-7-25c3.1-0.8,6.2-1.6,9.3-2.6c1.2-0.4,2.4,0.3,2.7,1.5
		C310,438.8,311.9,445.7,313.8,452.6"/>
	<path class="st6" d="M148.5,397.6c-5.2,7-10.4,14-15.6,20.9c1.5-9.5,3.2-19.1,4.9-28.9c-2.4-1.9-4.7-3.9-7-6
		c-8.8,11.9-17.7,23.7-26.5,35.6c2.4,2.1,4.8,4.2,7.3,6.2c5.2-7,10.4-14,15.6-20.9c-1.7,9.8-3.4,19.4-4.9,28.9
		c2.5,1.7,5.1,3.4,7.7,5c8.8-11.9,17.6-23.7,26.5-35.6C153.7,401.1,151.1,399.4,148.5,397.6"/>
	<path class="st6" d="M112.5,364.6c-8.9,6.9-17.8,13.8-26.7,20.7c-1,0.7-2.4,0.6-3.1-0.3c-1.6-1.9-3.1-3.9-4.6-5.9
		c-0.7-1-0.5-2.4,0.4-3.1c8.9-6.9,17.8-13.8,26.7-20.7c-2.1-2.9-4.2-6-6.1-9c-0.9,1.3-1.8,2.5-2.7,3.8c-7.7,6-15.5,12-23.2,18
		c-5,3.8-6.3,11.3-2.5,16.4c1.6,2.2,3.3,4.3,5,6.4c4,4.9,11.6,5.4,16.5,1.6c8.9-6.9,17.8-13.8,26.7-20.7
		C116.7,369.4,114.5,367,112.5,364.6"/>
	<path class="st6" d="M364.5,400.2c5.1-3.8,9.9-7.9,14.6-12.2c-2.6-1.8-5.2-3.5-7.8-5.3c-6.7,6-13.9,11.6-21.4,16.6
		c1.3,0.9,2.6,1.8,3.8,2.7c8.3,10.5,16.5,20.9,24.8,31.4c2.6-1.8,5.2-3.7,7.8-5.6c-3.7-4.7-7.5-9.5-11.2-14.2c4-3,7.8-6.2,11.6-9.5
		c-1.9-2.4-3.8-4.8-5.7-7.2c-3.7,3.3-7.6,6.5-11.6,9.5C367.8,404.2,366.1,402.2,364.5,400.2"/>
	<path class="st6" d="M411,352c-5-3.8-11.9-2.6-15.6,2.5c-1.6,2.2-3.3,4.4-4.9,6.5c-3.9,5-3.2,11.9,1.8,15.7
		c6.1,4.6,12.3,9.3,18.4,14c5,3.8,12.4,3,16.3-1.9c1.7-2.1,3.3-4.3,4.9-6.5c3.7-5.1,2.4-12.4-2.6-16.2c-1-0.7-1.9-1.5-2.9-2.2
		c-1.8,2.7-3.6,5.3-5.4,7.9c1,0.7,1.9,1.4,2.9,2.2c1,0.7,1.2,2.1,0.4,3.1c-1.5,2-3,4-4.5,6c-0.7,0.9-2.1,1.1-3.1,0.4
		c-6.1-4.7-12.3-9.3-18.4-14c-1-0.7-1.1-2.1-0.4-3c1.5-2,3-4,4.5-6c0.7-1,2.1-1.2,3-0.5c0.7,0.5,1.3,1,2,1.5
		c1.9-2.6,3.7-5.2,5.4-7.9C412.3,353,411.7,352.5,411,352"/>
	<path class="st6" d="M416.8,141.5c21,32.3,32.1,69.7,32.1,108.5c0,31-7,60.8-20.7,88.4l5.4,2.7C447.8,312.7,455,282,455,250
		c0-41.1-12.1-80.7-35-114.6L416.8,141.5z"/>
	<path class="st6" d="M83.1,141.5C62.1,173.8,51,211.3,51,250c0,31.1,7,60.8,20.7,88.4l-5.4,2.7C52,312.7,44.9,282,44.9,250
		c0-41.1,12.1-80.7,35-114.6L83.1,141.5z"/>
</g>
</svg>
