<?xml version="1.0" encoding="utf-8"?>
<!-- Generator: Adobe Illustrator 21.1.0, SVG Export Plug-In . SVG Version: 6.00 Build 0)  -->
<!DOCTYPE svg PUBLIC "-//W3C//DTD SVG 1.1//EN" "http://www.w3.org/Graphics/SVG/1.1/DTD/svg11.dtd">
<svg version="1.1" id="Layer_1" xmlns="http://www.w3.org/2000/svg" xmlns:xlink="http://www.w3.org/1999/xlink" x="0px" y="0px"
	 width="300px" height="300px" viewBox="0 0 300 300" style="enable-background:new 0 0 300 300;" xml:space="preserve">
<style type="text/css">
	.st0{fill:#FFFFFF;}
	.st1{fill:#00215B;}
	.st2{fill:#CE1432;}
	.st3{fill:#A7A9AC;}
</style>
<g>
	<path class="st0" d="M292.1,183.3c4.8-16.9,4.8-33.3,4.8-33.3s0-16.4-4.8-33.3c-4.4-15.4-10.2-29.2-12.3-37.7
		c-4.8-19,2.3-43.6,2.3-43.6l-14.9,6.1L218.3,90c-2.6-3-5.4-5.7-8.3-8.3l48.4-48.9l6.1-14.9c0,0-24.6,7.1-43.6,2.3
		c-8.5-2.2-22.3-7.9-37.7-12.3C166.4,3.1,150,3.1,150,3.1s-16.4,0-33.3,4.8C101.3,12.3,87.5,18,79,20.2c-19,4.8-43.6-2.3-43.6-2.3
		l6.1,14.9L90,81.7c-3,2.6-5.7,5.4-8.3,8.3L32.8,41.6l-14.9-6.1c0,0,7.1,24.6,2.3,43.6c-2.2,8.5-7.9,22.3-12.3,37.7
		C3.1,133.6,3.1,150,3.1,150s0,16.4,4.8,33.3c4.4,15.4,10.2,29.2,12.3,37.7c4.8,19-2.3,43.6-2.3,43.6l14.9-6.1L81.7,210
		c2.6,2.9,5.4,5.7,8.3,8.3l-48.4,48.9l-6.1,14.9c0,0,24.6-7.1,43.6-2.3c8.5,2.2,22.3,7.9,37.7,12.3c16.9,4.8,33.3,4.8,33.3,4.8
		s16.4,0,33.3-4.8c15.4-4.4,29.2-10.2,37.7-12.3c19-4.8,43.6,2.3,43.6,2.3l-6.1-14.9L210,218.3c2.9-2.6,5.7-5.4,8.3-8.3l48.9,48.4
		l14.9,6.1c0,0-7.1-24.6-2.3-43.6C282,212.5,287.7,198.7,292.1,183.3"/>
	<path class="st0" d="M150,300c-0.7,0-17-0.1-34.1-4.9c-8.2-2.3-15.9-5-22.7-7.4c-5.9-2.1-11-3.9-14.9-4.9c-4.2-1.1-9-1.6-14.3-1.6
		c-14.2,0-27.5,3.8-27.7,3.8l-6.1,1.8l8.8-21.3l46.6-47c-1.4-1.3-2.7-2.6-4-4l-47,46.6l-21.3,8.8l1.8-6.1c0.1-0.2,6.8-24,2.2-42
		c-1-3.9-2.8-9-4.9-14.9c-2.4-6.8-5.1-14.4-7.4-22.7C0.1,167.1,0,150.7,0,150c0-0.7,0.1-17,4.9-34.1c2.3-8.2,5-15.9,7.4-22.7
		c2.1-5.9,3.9-11,4.9-14.9c4.6-18-2.2-41.8-2.2-42l-1.8-6.1L34.5,39l47,46.6c1.3-1.4,2.6-2.7,4-4l-46.6-47l-8.8-21.3l6.1,1.8
		c0.1,0,13.5,3.8,27.7,3.8c5.3,0,10.2-0.5,14.3-1.6c3.9-1,9-2.8,14.9-4.9c6.8-2.4,14.4-5.1,22.6-7.4C133,0.1,149.3,0,150,0
		c0.7,0,17,0.1,34.1,4.9c8.2,2.3,15.9,5,22.6,7.4c5.9,2.1,11.1,3.9,14.9,4.9c4.2,1.1,9,1.6,14.3,1.6c14.2,0,27.5-3.8,27.7-3.8
		l6.1-1.8l-8.8,21.3l-46.6,47c1.4,1.3,2.7,2.6,4,4l47-46.6l21.3-8.8l-1.8,6.1c-0.1,0.2-6.8,24-2.2,42c1,3.9,2.8,9,4.9,14.9
		c2.4,6.8,5.1,14.4,7.4,22.7c4.9,17.1,4.9,33.4,4.9,34.1s-0.1,17-4.9,34.1c-2.3,8.2-5,15.9-7.4,22.7c-2.1,5.9-3.9,11-4.9,14.9
		c-4.6,18,2.2,41.8,2.2,42l1.8,6.1l-21.3-8.8l-47-46.6c-1.3,1.4-2.6,2.7-4,4l46.6,47l8.8,21.3l-6.1-1.8c-0.1,0-13.5-3.8-27.7-3.8
		c-5.3,0-10.2,0.5-14.3,1.6c-3.9,1-9,2.8-14.9,4.9c-6.8,2.4-14.4,5.1-22.7,7.4C167,299.9,150.7,300,150,300 M64,275
		c5.9,0,11.2,0.6,15.8,1.8c4.2,1.1,9.4,2.9,15.5,5c6.7,2.4,14.3,5,22.3,7.3c16.2,4.6,32.2,4.7,32.5,4.7c0.2,0,16.2-0.1,32.4-4.7
		c8-2.3,15.6-5,22.3-7.3c6.1-2.1,11.3-4,15.5-5c4.6-1.2,10-1.8,15.8-1.8c9.2,0,17.9,1.4,23.4,2.6l-3.6-8.7l-50.3-50.7l2.4-2.1
		c2.8-2.5,5.5-5.2,8-8l2.1-2.4l50.7,50.3l8.7,3.6c-1.9-8.7-4.4-25.2-0.8-39.2c1.1-4.2,2.9-9.4,5-15.5c2.4-6.7,5-14.3,7.3-22.3
		c4.6-16.2,4.7-32.3,4.7-32.4s-0.1-16.2-4.7-32.4c-2.3-8-5-15.6-7.3-22.3c-2.1-6.1-4-11.3-5-15.5c-3.6-14-1-30.5,0.8-39.2l-8.7,3.6
		l-50.7,50.3L216,92c-2.5-2.8-5.2-5.5-8.1-8.1l-2.4-2.1l50.3-50.7l3.6-8.7c-5.5,1.2-14.2,2.6-23.4,2.6c-5.9,0-11.2-0.6-15.8-1.8
		c-4.2-1.1-9.4-2.9-15.5-5c-6.7-2.4-14.3-5-22.3-7.3c-16.2-4.6-32.3-4.7-32.4-4.7c-0.2,0-16.2,0.1-32.5,4.7c-8,2.3-15.6,5-22.3,7.3
		c-6.1,2.1-11.3,4-15.5,5C75.1,24.4,69.8,25,64,25c-9.2,0-17.9-1.4-23.4-2.6l3.6,8.7l50.3,50.7L92,84c-2.8,2.5-5.6,5.2-8.1,8
		l-2.2,2.4L31.1,44.2l-8.7-3.6c1.9,8.7,4.4,25.2,0.8,39.2c-1.1,4.1-2.9,9.4-5,15.5c-2.4,6.7-5,14.3-7.3,22.3
		c-4.6,16.2-4.7,32.3-4.7,32.4c0,0.2,0.1,16.2,4.7,32.4c2.3,8,5,15.6,7.3,22.3c2.1,6.1,4,11.3,5,15.5c3.6,14,1,30.5-0.8,39.2
		l8.7-3.6l50.7-50.3L84,208c2.5,2.8,5.2,5.5,8,8l2.4,2.2l-50.3,50.7l-3.6,8.7C46.1,276.5,54.8,275,64,275"/>
	<path class="st1" d="M292.1,183.3c4.8-16.9,4.8-33.3,4.8-33.3s0-16.4-4.8-33.3c-4.4-15.4-10.2-29.2-12.3-37.7
		c-4.8-19,2.3-43.6,2.3-43.6l-14.9,6.1L218.3,90c-2.6-3-5.4-5.7-8.3-8.3l48.4-48.9l6.1-14.9c0,0-24.6,7.1-43.6,2.3
		c-8.5-2.2-22.3-7.9-37.7-12.3C166.4,3.1,150,3.1,150,3.1s-16.4,0-33.3,4.8C101.3,12.3,87.5,18,79,20.2c-19,4.8-43.6-2.3-43.6-2.3
		l6.1,14.9L90,81.7c-3,2.6-5.7,5.4-8.3,8.3L32.8,41.6l-14.9-6.1c0,0,7.1,24.6,2.3,43.6c-2.2,8.5-7.9,22.3-12.3,37.7
		C3.1,133.6,3.1,150,3.1,150s0,16.4,4.8,33.3c4.4,15.4,10.2,29.2,12.3,37.7c4.8,19-2.3,43.6-2.3,43.6l14.9-6.1L81.7,210
		c2.6,2.9,5.4,5.7,8.3,8.3l-48.4,48.9l-6.1,14.9c0,0,24.6-7.1,43.6-2.3c8.5,2.2,22.3,7.9,37.7,12.3c16.9,4.8,33.3,4.8,33.3,4.8
		s16.4,0,33.3-4.8c15.4-4.4,29.2-10.2,37.7-12.3c19-4.8,43.6,2.3,43.6,2.3l-6.1-14.9L210,218.3c2.9-2.6,5.7-5.4,8.3-8.3l48.9,48.4
		l14.9,6.1c0,0-7.1-24.6-2.3-43.6C282,212.5,287.7,198.7,292.1,183.3"/>
	<path class="st2" d="M189.2,210.9l61.5,61.5c0,0-21.6-6.1-38.7-2c-17.1,4.1-33.4,14.7-61.1,14.7h-1.7c-27.7,0-44-10.6-61.1-14.7
		c-17.1-4.1-38.7,2-38.7,2l61.5-61.5L189.2,210.9L189.2,210.9z"/>
	<path class="st2" d="M210.9,110.9l61.5-61.5c0,0-6.1,21.6-2,38.7c4.1,17.1,14.7,33.4,14.7,61.1v1.7c0,27.7-10.6,44-14.7,61.1
		c-4.1,17.1,2,38.7,2,38.7l-61.5-61.5V110.9z"/>
	<path class="st2" d="M189.2,89.2l61.5-61.5c0,0-21.6,6.1-38.7,2C194.9,25.6,178.6,15,150.9,15h-1.7c-27.7,0-44,10.6-61.1,14.7
		c-17.1,4.1-38.7-2-38.7-2l61.5,61.5H189.2z"/>
	<path class="st2" d="M89.2,110.9L27.6,49.3c0,0,6.1,21.6,2,38.7C25.6,105.2,15,121.5,15,149.2v1.7c0,27.7,10.6,44,14.7,61.1
		c4.1,17.1-2,38.7-2,38.7l61.5-61.5V110.9z"/>
	<path class="st1" d="M186.3,211.7l57.1,55.4c0,0-20-5.5-35.9-1.8c-15.9,3.7-31,13.2-56.7,13.2h-1.6c-25.7,0-40.8-9.5-56.7-13.2
		c-15.9-3.7-35.9,1.8-35.9,1.8l57.1-55.4H186.3z"/>
	<path class="st1" d="M211.7,113.7l55.4-57c0,0-5.5,20-1.8,35.9c3.7,15.9,13.2,31,13.2,56.7v1.6c0,25.7-9.5,40.8-13.2,56.7
		c-3.7,15.9,1.8,35.9,1.8,35.9l-55.4-57V113.7z"/>
	<path class="st1" d="M186.3,88.3l57.1-55.4c0,0-20,5.5-35.9,1.8c-15.9-3.7-31-13.2-56.7-13.2h-1.6c-25.7,0-40.8,9.5-56.7,13.2
		c-15.9,3.7-35.9-1.8-35.9-1.8l57.1,55.4H186.3z"/>
	<path class="st1" d="M88.3,113.7l-55.4-57c0,0,5.5,20,1.8,35.9c-3.7,15.9-13.2,31-13.2,56.7v1.6c0,25.7,9.5,40.8,13.2,56.7
		c3.7,15.9-1.8,35.9-1.8,35.9l55.4-57V113.7z"/>
	<path class="st3" d="M106.9,57.3c-0.4,0.4-1.1,1.1-2.5,1.9c-4.7,2.6-9.1,1.2-11.2-2.6c-2.1-3.7-1.3-8.4,3.7-11.3
		c1.5-0.8,2.8-1.2,3.8-1.4l1.6,2.9c-0.6,0-2.1-0.1-3.6,0.8c-2.9,1.6-3.4,4.5-2.1,6.9c1.4,2.5,4.3,3.5,7.3,1.8c1.2-0.7,2.2-1.6,3-2.6
		L106.9,57.3z"/>
	<polygon class="st3" points="125.1,50.3 121.4,51.6 119.3,45.6 113.8,47.5 115.9,53.5 112.2,54.8 107.3,40.7 111,39.4 112.9,44.7 
		118.4,42.8 116.5,37.5 120.2,36.2 	"/>
	
		<rect x="128.5" y="33.9" transform="matrix(0.9816 -0.1911 0.1911 0.9816 -5.5109 25.6887)" class="st3" width="3.9" height="14.9"/>
	<path class="st3" d="M149.5,46.7c-0.5,0.2-1.5,0.5-3.1,0.6c-5.3,0.3-8.7-2.8-9-7.1c-0.3-4.2,2.5-8.2,8.3-8.6c1.7-0.1,3,0.1,4,0.4
		l0.2,3.3c-0.5-0.3-1.8-1-3.6-0.9c-3.3,0.2-5,2.6-4.9,5.4c0.2,2.9,2.3,5,5.8,4.8c1.3-0.1,2.6-0.5,3.8-1L149.5,46.7z"/>
	<path class="st3" d="M169.2,48.2l-4.1-0.4l-0.7-3.1l-5.3-0.5l-1.4,2.9l-3.9-0.4l7.4-14.2l3.8,0.4L169.2,48.2z M163.8,42.3l-1.1-4.9
		c-0.1-0.3-0.1-0.5-0.1-0.8c-0.2,0.4-0.2,0.5-0.3,0.7l-2.2,4.6L163.8,42.3z"/>
	<path class="st3" d="M185.9,51.9c-2.2,0.3-4.5,0.2-6.6-0.4c-5.1-1.5-7.4-5.4-6.2-9.9c1.2-4,5.2-6.8,11-5.1c1.7,0.5,3,1.1,4.5,2.1
		l-0.9,3.2c-0.5-0.6-1.7-1.9-3.9-2.5c-3.3-0.9-6,0.5-6.8,3.3c-0.7,2.6,0.3,5.4,3.6,6.4c1,0.3,1.8,0.2,2.3,0.2l0.8-2.7l-3.4-1
		l2.2-2.2l5.4,1.6L185.9,51.9z"/>
	<path class="st3" d="M196.2,58.6c-4.6-2.4-5.8-6.8-3.7-10.8c2-3.9,6.3-5.6,10.9-3.2c4.6,2.4,5.6,6.9,3.7,10.6
		C205.1,59,200.8,61,196.2,58.6 M203.3,53.5c1.3-2.6,0.9-5.2-1.3-6.3c-2.2-1.1-4.6,0-5.9,2.5c-1.3,2.4-0.9,5.1,1.4,6.2
		C200,57.2,202.3,55.5,203.3,53.5"/>
	<polygon class="st3" points="126.8,267.9 122.8,267.2 125.5,251.8 135.7,253.6 135.2,256.6 129,255.5 128.4,258.9 133.6,259.8 
		133.1,262.8 127.9,261.9 	"/>
	
		<rect x="133.8" y="259.8" transform="matrix(6.129416e-02 -0.9981 0.9981 6.129416e-02 -128.3644 387.1838)" class="st3" width="15.7" height="4.1"/>
	<path class="st3" d="M164.9,268.6l-4.4,0.3l-4.5-6.4c-0.8,0.1-0.9,0.1-1.8,0.2l0.5,6.6l-4,0.3l-1.1-15.6l7.1-0.5
		c2.4-0.2,5.1,0.9,5.3,4c0,0.6,0,1.3-0.3,1.8c-0.5,1.3-1.4,1.9-1.8,2.2L164.9,268.6z M154.2,262.4l-0.2-2.3c0.5-0.1,2.3-0.1,2.7-0.2
		c0.8-0.3,1.3-1,1.3-1.9c0-0.7-0.4-1.1-0.8-1.3c-0.5-0.3-1.3-0.3-2.1-0.2l-1.3,0.1L154.2,262.4z"/>
	<polygon class="st3" points="179.5,265.7 170.2,267.9 166.7,252.6 176.6,250.3 177.3,253.3 171.4,254.7 172,257.6 177.1,256.4 
		177.8,259.4 172.7,260.6 173.5,263.9 180.6,262.3 	"/>
	<polygon class="st0" points="234.5,101.3 174.4,107.9 150,52.5 125.6,107.9 65.5,101.3 101.1,150 65.5,198.7 125.6,192.2 
		150,247.5 174.4,192.2 234.5,198.7 198.9,150 	"/>
	<path class="st0" d="M233.1,150c0,45.9-37.2,83.1-83.1,83.1c-45.9,0-83.1-37.2-83.1-83.1s37.2-83.1,83.1-83.1
		C195.9,67,233.1,104.1,233.1,150"/>
	<path class="st1" d="M230,150c0,44.2-35.8,80-80,80s-80-35.8-80-80c0-44.2,35.8-80,80-80S230,105.8,230,150"/>
	<path class="st3" d="M223.5,150c0,40.6-32.9,73.5-73.5,73.5c-40.6,0-73.5-32.9-73.5-73.5c0-40.6,32.9-73.5,73.5-73.5
		C190.6,76.6,223.5,109.4,223.5,150"/>
	<path class="st3" d="M150,223.9c-40.7,0-73.9-33.1-73.9-73.8c0-40.7,33.1-73.8,73.9-73.8s73.9,33.1,73.9,73.8
		C223.9,190.7,190.7,223.9,150,223.9 M150,76.9c-40.3,0-73.1,32.8-73.1,73.1c0,40.3,32.8,73.1,73.1,73.1c40.3,0,73.1-32.8,73.1-73.1
		C223.1,109.7,190.3,76.9,150,76.9"/>
	<path class="st2" d="M136,144.5c0-12.7,1.3-16.9,14.8-16.9c8.1,0,13.7,0.6,14.5,8.6v3.4h24.5v-3.4c-0.5-26.7-11.9-29.2-36.3-29.2
		c-0.5,0-1,0-1.5,0l0.1-0.1h-40.6v34.3l0.1-0.1v6.6l-8,3.8l8,3.3v9c0,30.6,15.7,33.5,37.8,33.7l-0.1,0.1h40.9v-29.7l-0.2,0.1
		c0-0.7,0-1.5,0-2.2V163h-24.5v2.6c0,10.5-4.8,11.2-14.6,11.2c-14.3,0-14.8-5.1-14.8-18.4V144.5z"/>
	<path class="st2" d="M190.5,197.9h-42.2l0.1-0.1c-21.2-0.3-37.2-3.3-37.2-34.1V155l-8.6-3.5l8.6-4.1l-0.1-41h41.9l-0.1,0.1h0.6
		c25.2,0,36.3,2.8,36.7,29.6v3.8h-25.2v-3.8c-0.8-7.6-6.1-8.2-14.1-8.2c-13.3,0-14.5,4-14.5,16.5v13.9c0,13.4,0.7,18,14.5,18
		c10.3,0,14.2-0.9,14.2-10.8v-3h25.2l0,4.6l0.2,0.5C190.5,167.8,190.5,197.9,190.5,197.9z M150.1,197.1h39.6v-28.8l0,0l-0.2-0.5
		l0-4.4h-23.7v2.2c0,11-5.4,11.6-15,11.6c-14.7,0-15.2-5.4-15.2-18.8v-13.9c0-12.8,1.2-17.3,15.2-17.3c8.2,0,14,0.6,14.9,8.9v3.1
		h23.7v-3.1c-0.5-26.1-11.3-28.8-36-28.8l-2.4,0l0.1-0.1h-39.3l0.1,40.7l-7.4,3.5l7.4,3v9.3c0,30.6,15.5,33.1,37.4,33.3L150.1,197.1
		L150.1,197.1z"/>
	<path class="st1" d="M278.6,284.2c0-4,3-7.1,6.9-7.1c3.8,0,6.9,3.1,6.9,7.1c0,4.1-3,7.1-6.9,7.1
		C281.7,291.3,278.6,288.3,278.6,284.2 M285.5,292.7c4.6,0,8.6-3.6,8.6-8.5c0-4.9-4-8.5-8.6-8.5c-4.7,0-8.6,3.6-8.6,8.5
		C276.9,289.1,280.9,292.7,285.5,292.7 M283.8,284.9h1.7l2.6,4.3h1.7l-2.8-4.3c1.4-0.2,2.5-0.9,2.5-2.7c0-1.9-1.2-2.8-3.5-2.8h-3.7
		v9.8h1.5V284.9z M283.8,283.6v-3h2c1,0,2.1,0.2,2.1,1.4c0,1.5-1.1,1.6-2.4,1.6L283.8,283.6L283.8,283.6z"/>
</g>
</svg>
