<?xml version="1.0" encoding="utf-8"?>
<!-- Generator: Adobe Illustrator 21.1.0, SVG Export Plug-In . SVG Version: 6.00 Build 0)  -->
<!DOCTYPE svg PUBLIC "-//W3C//DTD SVG 1.1//EN" "http://www.w3.org/Graphics/SVG/1.1/DTD/svg11.dtd">
<svg version="1.1" id="Layer_1" xmlns="http://www.w3.org/2000/svg" xmlns:xlink="http://www.w3.org/1999/xlink" x="0px" y="0px"
	 width="315.8px" height="316px" viewBox="0 0 315.8 316" style="enable-background:new 0 0 315.8 316;" xml:space="preserve">
<style type="text/css">
	.st0{fill:#FFFFFF;}
	.st1{fill:#00215B;}
	.st2{fill:#CE1432;}
	.st3{fill:#A7A9AC;}
</style>
<g>
	<path class="st0" d="M300.1,191.3c4.8-16.9,4.8-33.3,4.8-33.3s0-16.4-4.8-33.3c-4.4-15.4-10.2-29.2-12.3-37.7
		c-4.8-19,2.3-43.6,2.3-43.6l-14.9,6.1L226.3,98c-2.6-3-5.4-5.7-8.3-8.3l48.4-48.9l6.1-14.9c0,0-24.6,7.1-43.6,2.3
		c-8.5-2.2-22.3-7.9-37.7-12.3c-16.8-4.8-33.2-4.8-33.2-4.8s-16.4,0-33.3,4.8C109.3,20.3,95.5,26,87,28.2c-19,4.8-43.6-2.3-43.6-2.3
		l6.1,14.9L98,89.7c-3,2.6-5.7,5.4-8.3,8.3L40.8,49.6l-14.9-6.1c0,0,7.1,24.6,2.3,43.6c-2.2,8.5-7.9,22.3-12.3,37.7
		c-4.8,16.8-4.8,33.2-4.8,33.2s0,16.4,4.8,33.3c4.4,15.4,10.2,29.2,12.3,37.7c4.8,19-2.3,43.6-2.3,43.6l14.9-6.1L89.7,218
		c2.6,2.9,5.4,5.7,8.3,8.3l-48.4,48.9l-6.1,14.9c0,0,24.6-7.1,43.6-2.3c8.5,2.2,22.3,7.9,37.7,12.3c16.9,4.8,33.3,4.8,33.3,4.8
		s16.4,0,33.3-4.8c15.4-4.4,29.2-10.2,37.7-12.3c19-4.8,43.6,2.3,43.6,2.3l-6.1-14.9L218,226.3c2.9-2.6,5.7-5.4,8.3-8.3l48.9,48.4
		l14.9,6.1c0,0-7.1-24.6-2.3-43.6C290,220.5,295.7,206.7,300.1,191.3"/>
	<path class="st0" d="M158,316c-0.7,0-18-0.1-36.3-5.2c-8.7-2.4-16.7-5.3-23.2-7.6c-6.2-2.2-10.8-3.8-14.2-4.7
		c-3.4-0.9-7.6-1.3-12.3-1.3c-7.5,0-16.5,1.2-25.2,3.4c-0.1,0-0.3,0.1-0.4,0.1l-21.9,6.5l10.9-26.5L8.9,291.7l6.6-22.4
		c0.5-1.9,5.9-22.4,2-37.5c-0.9-3.4-2.5-8.1-4.7-14.2l-0.2-0.6c-2.4-6.7-5.1-14.3-7.4-22.7C0.1,176.1,0,158.7,0,158
		c0-0.7,0.1-18,5.2-36.3c2.4-8.7,5.4-17.1,7.6-23.2c1.8-5.2,3.7-10.5,4.7-14.2c3.5-13.7-0.7-32.3-2.1-37.6c0-0.1-0.1-0.2-0.1-0.3
		L8.8,24.4l26.5,10.9L24.3,8.9l22,6.5c0.1,0,0.1,0,0.2,0c4,1,14.5,3.5,25.4,3.5c4.8,0,9-0.5,12.2-1.3c3.5-0.9,8.1-2.5,14.3-4.7
		l0.6-0.2c6.7-2.4,14.3-5,22.5-7.4C140,0.1,157.3,0,158,0c0.7,0,18,0.1,36.3,5.2c8.5,2.4,16.4,5.2,23.1,7.6
		c4.9,1.8,10.5,3.7,14.2,4.7c3.4,0.9,7.5,1.3,12.3,1.3c7.5,0,16.5-1.2,25.2-3.4c0.1,0,0.3-0.1,0.4-0.1l21.9-6.5l-10.9,26.5L307,24.3
		l-6.6,22.4c-0.5,1.9-5.9,22.4-2,37.5c0.9,3.7,2.8,9,4.7,14.2l0.2,0.5c2.4,6.7,5.1,14.4,7.4,22.7c5,17.6,5.2,34.4,5.2,36.2
		c0,0.7-0.1,18-5.2,36.3c-2.4,8.7-5.4,17.1-7.6,23.2c-1.8,5.2-3.7,10.5-4.7,14.2c-3.5,13.7,0.7,32.3,2.1,37.7c0,0.1,0.1,0.2,0.1,0.3
		l6.5,21.9l-26.5-10.9l10.9,26.5l-22-6.5c-0.1,0-0.1,0-0.2,0c-4-1-14.5-3.5-25.4-3.5c-4.8,0-9,0.5-12.2,1.3c-3.8,1-9.1,2.9-14.3,4.7
		l-0.5,0.2c-6.7,2.4-14.3,5.1-22.7,7.4C176,315.9,158.7,316,158,316z M72,275c6.6,0,12.6,0.7,17.8,2.1c4.4,1.1,9.6,2.9,15.6,5
		l0.5,0.2c5.4,1.9,13.4,4.7,21.9,7.2c15,4.3,30.2,4.4,30.3,4.4c0.1,0,15.2-0.1,30.2-4.4c6.6-1.9,13.2-4.2,18.9-6.2l6-2.1
		c5-1.7,9.3-3.2,13.1-4.2c5.2-1.4,11.2-2,17.7-2c2.4,0,4.7,0.1,6.9,0.2l-49-49.4l8.8-7.7c2.5-2.3,5-4.7,7.3-7.3l7.7-8.8l49.4,49
		c-0.5-7.8-0.2-16.5,1.9-24.6c1.2-4.4,3-9.6,5-15.7l0.2-0.4c1.9-5.4,4.7-13.4,7.2-21.9c4.2-14.9,4.4-30.1,4.4-30.2
		c0-0.1-0.2-15.2-4.4-30.2c-1.9-6.6-4.2-13.2-6.2-18.9l-2-5.9c-1.7-5-3.2-9.3-4.2-13.2c-2-7.9-2.3-16.5-1.8-24.6l-49.8,49.4
		l-7.5-9.6c-2.2-2.5-4.7-4.9-7.3-7.3l-8.7-7.6l49-49.4c-2.2,0.1-4.5,0.2-6.9,0.2c-6.6,0-12.6-0.7-17.8-2.1c-4.4-1.1-9.6-2.9-15.6-5
		l-0.5-0.2c-5.4-1.9-13.4-4.7-21.9-7.2c-14.9-4.2-30.1-4.4-30.2-4.4c-0.1,0-15.2,0.1-30.3,4.4c-6.6,1.9-13.2,4.2-19,6.2l-5.9,2
		c-5,1.7-9.3,3.2-13.2,4.2c-5.2,1.4-11.2,2-17.6,2c-2.4,0-4.7-0.1-6.9-0.2l49,49.4l-8.9,7.8c-2.9,2.6-5.4,5-7.4,7.3l-7.9,8.6
		L40.8,65.2c0.5,7.8,0.2,16.5-1.9,24.6c-1.2,4.4-3,9.9-5.2,16.1c-1.9,5.4-4.7,13.4-7.2,21.9c-4.2,14.9-4.4,30.1-4.4,30.2
		c0,0.1,0.1,15.2,4.4,30.2c1.9,6.6,4.2,13.2,6.2,19l2,5.9c1.7,5,3.2,9.3,4.2,13.2c2,7.9,2.3,16.5,1.8,24.6l49.4-49l7.8,8.9
		c2.3,2.5,4.7,5,7.3,7.3l8.6,7.9L65,275.2C67.3,275.1,69.6,275,72,275z"/>
	<path class="st0" d="M158,308c-0.7,0-17-0.1-34.1-4.9c-8.2-2.3-15.9-5-22.7-7.4c-5.9-2.1-11-3.9-14.9-4.9c-4.2-1.1-9-1.6-14.3-1.6
		c-14.2,0-27.5,3.8-27.7,3.8l-6.1,1.8l8.8-21.3l46.6-47c-1.4-1.3-2.7-2.6-4-4l-47,46.6l-21.3,8.8l1.8-6.1c0.1-0.2,6.8-24,2.2-42
		c-1-3.9-2.8-9-4.9-14.9c-2.4-6.8-5.1-14.4-7.4-22.7c-4.9-17.1-5-33.5-5-34.2s0.1-17,4.9-34.1c2.3-8.2,5-15.9,7.4-22.7
		c2.1-5.9,3.9-11,4.9-14.9c4.6-18-2.2-41.8-2.2-42l-1.8-6.1L42.5,47l47,46.6c1.3-1.4,2.6-2.7,4-4l-46.6-47l-8.8-21.3l6.1,1.8
		c0.1,0,13.5,3.8,27.7,3.8c5.3,0,10.2-0.5,14.3-1.6c3.9-1,9-2.8,14.9-4.9c6.8-2.4,14.4-5.1,22.6-7.4C141,8.1,157.3,8,158,8
		s17,0.1,34.1,4.9c8.2,2.3,15.9,5,22.6,7.4c5.9,2.1,11.1,3.9,14.9,4.9c4.2,1.1,9,1.6,14.3,1.6c14.2,0,27.5-3.8,27.7-3.8l6.1-1.8
		l-8.8,21.3l-46.6,47c1.4,1.3,2.7,2.6,4,4l47-46.6l21.3-8.8l-1.8,6.1c-0.1,0.2-6.8,24-2.2,42c1,3.9,2.8,9,4.9,14.9
		c2.4,6.8,5.1,14.4,7.4,22.7c4.9,17.1,4.9,33.4,4.9,34.1s-0.1,17-4.9,34.1c-2.3,8.2-5,15.9-7.4,22.7c-2.1,5.9-3.9,11-4.9,14.9
		c-4.6,18,2.2,41.8,2.2,42l1.8,6.1l-21.3-8.8l-47-46.6c-1.3,1.4-2.6,2.7-4,4l46.6,47l8.8,21.3l-6.1-1.8c-0.1,0-13.5-3.8-27.7-3.8
		c-5.3,0-10.2,0.5-14.3,1.6c-3.9,1-9,2.8-14.9,4.9c-6.8,2.4-14.4,5.1-22.7,7.4C175,307.9,158.7,308,158,308 M72,283
		c5.9,0,11.2,0.6,15.8,1.8c4.2,1.1,9.4,2.9,15.5,5c6.7,2.4,14.3,5,22.3,7.3c16.2,4.6,32.2,4.7,32.5,4.7c0.2,0,16.2-0.1,32.4-4.7
		c8-2.3,15.6-5,22.3-7.3c6.1-2.1,11.3-4,15.5-5c4.6-1.2,10-1.8,15.8-1.8c9.2,0,17.9,1.4,23.4,2.6l-3.6-8.7l-50.3-50.7l2.4-2.1
		c2.8-2.5,5.5-5.2,8-8l2.1-2.4l50.7,50.3l8.7,3.6c-1.9-8.7-4.4-25.2-0.8-39.2c1.1-4.2,2.9-9.4,5-15.5c2.4-6.7,5-14.3,7.3-22.3
		c4.6-16.2,4.7-32.3,4.7-32.4s-0.1-16.2-4.7-32.4c-2.3-8-5-15.6-7.3-22.3c-2.1-6.1-4-11.3-5-15.5c-3.6-14-1-30.5,0.8-39.2l-8.7,3.6
		l-50.7,50.3L224,100c-2.5-2.8-5.2-5.5-8.1-8.1l-2.4-2.1l50.3-50.7l3.6-8.7c-5.5,1.2-14.2,2.6-23.4,2.6c-5.9,0-11.2-0.6-15.8-1.8
		c-4.2-1.1-9.4-2.9-15.5-5c-6.7-2.4-14.3-5-22.3-7.3c-16.2-4.6-32.3-4.7-32.4-4.7c-0.2,0-16.2,0.1-32.5,4.7c-8,2.3-15.6,5-22.3,7.3
		c-6.1,2.1-11.3,4-15.5,5C83.1,32.4,77.8,33,72,33c-9.2,0-17.9-1.4-23.4-2.6l3.6,8.7l50.3,50.7L100,92c-2.8,2.5-5.6,5.2-8.1,8
		l-2.2,2.4L39.1,52.2l-8.7-3.6c1.9,8.7,4.4,25.2,0.8,39.2c-1.1,4.1-2.9,9.4-5,15.5c-2.4,6.7-5,14.3-7.3,22.3
		c-4.6,16.2-4.7,32.3-4.7,32.4c0,0.2,0.1,16.2,4.7,32.4c2.3,8,5,15.6,7.3,22.3c2.1,6.1,4,11.3,5,15.5c3.6,14,1,30.5-0.8,39.2
		l8.7-3.6l50.7-50.3L92,216c2.5,2.8,5.2,5.5,8,8l2.4,2.2l-50.3,50.7l-3.6,8.7C54.1,284.5,62.8,283,72,283"/>
	<path class="st1" d="M300.1,191.3c4.8-16.9,4.8-33.3,4.8-33.3s0-16.4-4.8-33.3c-4.4-15.4-10.2-29.2-12.3-37.7
		c-4.8-19,2.3-43.6,2.3-43.6l-14.9,6.1L226.3,98c-2.6-3-5.4-5.7-8.3-8.3l48.4-48.9l6.1-14.9c0,0-24.6,7.1-43.6,2.3
		c-8.5-2.2-22.3-7.9-37.7-12.3c-16.8-4.8-33.2-4.8-33.2-4.8s-16.4,0-33.3,4.8C109.3,20.3,95.5,26,87,28.2c-19,4.8-43.6-2.3-43.6-2.3
		l6.1,14.9L98,89.7c-3,2.6-5.7,5.4-8.3,8.3L40.8,49.6l-14.9-6.1c0,0,7.1,24.6,2.3,43.6c-2.2,8.5-7.9,22.3-12.3,37.7
		c-4.8,16.8-4.8,33.2-4.8,33.2s0,16.4,4.8,33.3c4.4,15.4,10.2,29.2,12.3,37.7c4.8,19-2.3,43.6-2.3,43.6l14.9-6.1L89.7,218
		c2.6,2.9,5.4,5.7,8.3,8.3l-48.4,48.9l-6.1,14.9c0,0,24.6-7.1,43.6-2.3c8.5,2.2,22.3,7.9,37.7,12.3c16.9,4.8,33.3,4.8,33.3,4.8
		s16.4,0,33.3-4.8c15.4-4.4,29.2-10.2,37.7-12.3c19-4.8,43.6,2.3,43.6,2.3l-6.1-14.9L218,226.3c2.9-2.6,5.7-5.4,8.3-8.3l48.9,48.4
		l14.9,6.1c0,0-7.1-24.6-2.3-43.6C290,220.5,295.7,206.7,300.1,191.3"/>
	<path class="st2" d="M197.2,218.9l61.5,61.5c0,0-21.6-6.1-38.7-2s-33.4,14.7-61.1,14.7h-1.7c-27.7,0-44-10.6-61.1-14.7
		s-38.7,2-38.7,2l61.5-61.5H197.2L197.2,218.9z"/>
	<path class="st2" d="M218.9,118.9l61.5-61.5c0,0-6.1,21.6-2,38.7s14.7,33.4,14.7,61.1v1.7c0,27.7-10.6,44-14.7,61.1s2,38.7,2,38.7
		l-61.5-61.5V118.9z"/>
	<path class="st2" d="M197.2,97.2l61.5-61.5c0,0-21.6,6.1-38.7,2S186.6,23,158.9,23h-1.7c-27.7,0-44,10.6-61.1,14.7s-38.7-2-38.7-2
		l61.5,61.5H197.2z"/>
	<path class="st2" d="M97.2,118.9L35.6,57.3c0,0,6.1,21.6,2,38.7c-4,17.2-14.6,33.5-14.6,61.2v1.7c0,27.7,10.6,44,14.7,61.1
		s-2,38.7-2,38.7l61.5-61.5V118.9z"/>
	<path class="st1" d="M194.3,219.7l57.1,55.4c0,0-20-5.5-35.9-1.8s-31,13.2-56.7,13.2h-1.6c-25.7,0-40.8-9.5-56.7-13.2
		s-35.9,1.8-35.9,1.8l57.1-55.4L194.3,219.7L194.3,219.7z"/>
	<path class="st1" d="M219.7,121.7l55.4-57c0,0-5.5,20-1.8,35.9s13.2,31,13.2,56.7v1.6c0,25.7-9.5,40.8-13.2,56.7s1.8,35.9,1.8,35.9
		l-55.4-57L219.7,121.7L219.7,121.7z"/>
	<path class="st1" d="M194.3,96.3l57.1-55.4c0,0-20,5.5-35.9,1.8s-31-13.2-56.7-13.2h-1.6c-25.7,0-40.8,9.5-56.7,13.2
		s-35.9-1.8-35.9-1.8l57.1,55.4H194.3z"/>
	<path class="st1" d="M96.3,121.7l-55.4-57c0,0,5.5,20,1.8,35.9s-13.2,31-13.2,56.7v1.6c0,25.7,9.5,40.8,13.2,56.7
		s-1.8,35.9-1.8,35.9l55.4-57V121.7z"/>
	<path class="st3" d="M114.9,65.3c-0.4,0.4-1.1,1.1-2.5,1.9c-4.7,2.6-9.1,1.2-11.2-2.6c-2.1-3.7-1.3-8.4,3.7-11.3
		c1.5-0.8,2.8-1.2,3.8-1.4l1.6,2.9c-0.6,0-2.1-0.1-3.6,0.8c-2.9,1.6-3.4,4.5-2.1,6.9c1.4,2.5,4.3,3.5,7.3,1.8c1.2-0.7,2.2-1.6,3-2.6
		L114.9,65.3z"/>
	<polygon class="st3" points="133.1,58.3 129.4,59.6 127.3,53.6 121.8,55.5 123.9,61.5 120.2,62.8 115.3,48.7 119,47.4 120.9,52.7 
		126.4,50.8 124.5,45.5 128.2,44.2 	"/>
	
		<rect x="136.5" y="41.9" transform="matrix(0.9816 -0.1911 0.1911 0.9816 -6.8791 27.3647)" class="st3" width="3.9" height="14.9"/>
	<path class="st3" d="M157.5,54.7c-0.5,0.2-1.5,0.5-3.1,0.6c-5.3,0.3-8.7-2.8-9-7.1c-0.3-4.2,2.5-8.2,8.3-8.6c1.7-0.1,3,0.1,4,0.4
		l0.2,3.3c-0.5-0.3-1.8-1-3.6-0.9c-3.3,0.2-5,2.6-4.9,5.4c0.2,2.9,2.3,5,5.8,4.8c1.3-0.1,2.6-0.5,3.8-1L157.5,54.7z"/>
	<path class="st3" d="M177.2,56.2l-4.1-0.4l-0.7-3.1l-5.3-0.5l-1.4,2.9l-3.9-0.4l7.4-14.2l3.8,0.4L177.2,56.2z M171.8,50.3l-1.1-4.9
		c-0.1-0.3-0.1-0.5-0.1-0.8c-0.2,0.4-0.2,0.5-0.3,0.7l-2.2,4.6L171.8,50.3z"/>
	<path class="st3" d="M193.9,59.9c-2.2,0.3-4.5,0.2-6.6-0.4c-5.1-1.5-7.4-5.4-6.2-9.9c1.2-4,5.2-6.8,11-5.1c1.7,0.5,3,1.1,4.5,2.1
		l-0.9,3.2c-0.5-0.6-1.7-1.9-3.9-2.5c-3.3-0.9-6,0.5-6.8,3.3c-0.7,2.6,0.3,5.4,3.6,6.4c1,0.3,1.8,0.2,2.3,0.2l0.8-2.7l-3.4-1
		l2.2-2.2l5.4,1.6L193.9,59.9z"/>
	<path class="st3" d="M204.2,66.6c-4.6-2.4-5.8-6.8-3.7-10.8c2-3.9,6.3-5.6,10.9-3.2c4.6,2.4,5.6,6.9,3.7,10.6
		C213.1,67,208.8,69,204.2,66.6 M211.3,61.5c1.3-2.6,0.9-5.2-1.3-6.3s-4.6,0-5.9,2.5c-1.3,2.4-0.9,5.1,1.4,6.2
		C208,65.2,210.3,63.5,211.3,61.5"/>
	<polygon class="st3" points="134.8,275.9 130.8,275.2 133.5,259.8 143.7,261.6 143.2,264.6 137,263.5 136.4,266.9 141.6,267.8 
		141.1,270.8 135.9,269.9 	"/>
	
		<rect x="141.8" y="267.8" transform="matrix(6.129537e-02 -0.9981 0.9981 6.129537e-02 -128.8491 402.701)" class="st3" width="15.7" height="4.1"/>
	<path class="st3" d="M172.9,276.6l-4.4,0.3l-4.5-6.4c-0.8,0.1-0.9,0.1-1.8,0.2l0.5,6.6l-4,0.3l-1.1-15.6l7.1-0.5
		c2.4-0.2,5.1,0.9,5.3,4c0,0.6,0,1.3-0.3,1.8c-0.5,1.3-1.4,1.9-1.8,2.2L172.9,276.6z M162.2,270.4l-0.2-2.3c0.5-0.1,2.3-0.1,2.7-0.2
		c0.8-0.3,1.3-1,1.3-1.9c0-0.7-0.4-1.1-0.8-1.3c-0.5-0.3-1.3-0.3-2.1-0.2l-1.3,0.1L162.2,270.4z"/>
	<polygon class="st3" points="187.5,273.7 178.2,275.9 174.7,260.6 184.6,258.3 185.3,261.3 179.4,262.7 180,265.6 185.1,264.4 
		185.8,267.4 180.7,268.6 181.5,271.9 188.6,270.3 	"/>
	<polygon class="st0" points="242.5,109.3 182.4,115.9 158,60.5 133.6,115.9 73.5,109.3 109.1,158 73.5,206.7 133.6,200.2 
		158,255.5 182.4,200.2 242.5,206.7 206.9,158 	"/>
	<path class="st0" d="M241.1,158c0,45.9-37.2,83.1-83.1,83.1S74.9,203.9,74.9,158s37.2-83.1,83.1-83.1
		C203.9,75,241.1,112.1,241.1,158"/>
	<path class="st1" d="M238,158c0,44.2-35.8,80-80,80s-80-35.8-80-80s35.8-80,80-80S238,113.8,238,158"/>
	<path class="st3" d="M231.5,158c0,40.6-32.9,73.5-73.5,73.5S84.5,198.6,84.5,158s32.9-73.5,73.5-73.5
		C198.6,84.6,231.5,117.4,231.5,158"/>
	<path class="st3" d="M158,231.9c-40.7,0-73.9-33.1-73.9-73.8s33.1-73.8,73.9-73.8s73.9,33.1,73.9,73.8
		C231.9,198.7,198.7,231.9,158,231.9 M158,84.9c-40.3,0-73.1,32.8-73.1,73.1s32.8,73.1,73.1,73.1s73.1-32.8,73.1-73.1
		S198.3,84.9,158,84.9"/>
	<path class="st2" d="M144,152.5c0-12.7,1.3-16.9,14.8-16.9c8.1,0,13.7,0.6,14.5,8.6v3.4h24.5v-3.4c-0.5-26.7-11.9-29.2-36.3-29.2
		c-0.5,0-1,0-1.5,0l0.1-0.1h-40.6v34.3l0.1-0.1v6.6l-8,3.8l8,3.3v9c0,30.6,15.7,33.5,37.8,33.7l-0.1,0.1h40.9v-29.7L198,176
		c0-0.7,0-1.5,0-2.2V171h-24.5v2.6c0,10.5-4.8,11.2-14.6,11.2c-14.3,0-14.8-5.1-14.8-18.4v-13.9H144z"/>
	<path class="st2" d="M198.5,205.9h-42.2l0.1-0.1c-21.2-0.3-37.2-3.3-37.2-34.1V163l-8.6-3.5l8.6-4.1l-0.1-41H161l-0.1,0.1h0.6
		c25.2,0,36.3,2.8,36.7,29.6v3.8H173v-3.8c-0.8-7.6-6.1-8.2-14.1-8.2c-13.3,0-14.5,4-14.5,16.5v13.9c0,13.4,0.7,18,14.5,18
		c10.3,0,14.2-0.9,14.2-10.8v-3h25.2v4.6l0.2,0.5C198.5,175.8,198.5,205.9,198.5,205.9z M158.1,205.1h39.6v-28.8l0,0l-0.2-0.5v-4.4
		h-23.7v2.2c0,11-5.4,11.6-15,11.6c-14.7,0-15.2-5.4-15.2-18.8v-13.9c0-12.8,1.2-17.3,15.2-17.3c8.2,0,14,0.6,14.9,8.9v3.1h23.7
		v-3.1c-0.5-26.1-11.3-28.8-36-28.8H159l0.1-0.1h-39.3l0.1,40.7l-7.4,3.5l7.4,3v9.3c0,30.6,15.5,33.1,37.4,33.3L158.1,205.1
		L158.1,205.1z"/>
</g>
</svg>
