<?xml version="1.0" encoding="utf-8"?>
<!-- Generator: Adobe Illustrator 21.1.0, SVG Export Plug-In . SVG Version: 6.00 Build 0)  -->
<!DOCTYPE svg PUBLIC "-//W3C//DTD SVG 1.1//EN" "http://www.w3.org/Graphics/SVG/1.1/DTD/svg11.dtd">
<svg version="1.1"
	 id="svg2" inkscape:version="0.91 r13725" sodipodi:docname="Columbus Crew.svg" xmlns:cc="http://creativecommons.org/ns#" xmlns:dc="http://purl.org/dc/elements/1.1/" xmlns:inkscape="http://www.inkscape.org/namespaces/inkscape" xmlns:rdf="http://www.w3.org/1999/02/22-rdf-syntax-ns#" xmlns:sodipodi="http://sodipodi.sourceforge.net/DTD/sodipodi-0.dtd" xmlns:svg="http://www.w3.org/2000/svg"
	 xmlns="http://www.w3.org/2000/svg" xmlns:xlink="http://www.w3.org/1999/xlink" x="0px" y="0px" width="310px" height="310px"
	 viewBox="0 0 310 310" style="enable-background:new 0 0 310 310;" xml:space="preserve">
<style type="text/css">
	.st0{fill:#FFFFFF;}
	.st1{fill:#FFF200;}
	.st2{fill:none;stroke:#1099D6;stroke-miterlimit:10;}
	.st3{fill:none;stroke:#000000;stroke-width:8.400000e-02;stroke-miterlimit:10;}
</style>
<sodipodi:namedview  bordercolor="#666666" borderopacity="1" fit-margin-bottom="1" fit-margin-left="1" fit-margin-right="1" fit-margin-top="1" gridtolerance="10" guidetolerance="10" id="namedview4" inkscape:current-layer="g2054" inkscape:cx="44.520279" inkscape:cy="27.49094" inkscape:pageopacity="0" inkscape:pageshadow="2" inkscape:window-height="1017" inkscape:window-maximized="1" inkscape:window-width="1920" inkscape:window-x="-8" inkscape:window-y="-8" inkscape:zoom="10.788021" objecttolerance="10" pagecolor="#ffffff" showgrid="false">
	</sodipodi:namedview>
<g>
	<g id="g4674" transform="translate(473.9443,156.0019)">
		<path class="st0" d="M-318.9,154c-85.5,0-155-69.5-155-155c0-85.5,69.5-155,155-155s155,69.5,155,155
			C-163.9,84.5-233.5,154-318.9,154z M-318.9-146c-80,0-145,65-145,145s65,145,145,145c80,0,145-65,145-145S-239-146-318.9-146z"/>
		<path id="path4676" inkscape:connector-curvature="0" class="st0" d="M-168.9-1c0,82.8-67.1,150-150,150s-150-67.2-150-150
			s67.2-150,150-150S-168.9-83.8-168.9-1"/>
	</g>
	<g id="g4678" transform="translate(452.8535,137.0898)">
		<path id="path4680" inkscape:connector-curvature="0" class="st1" d="M-297.9,150.2c-73.1,0-132.3-59.2-132.3-132.3
			s59.2-132.3,132.3-132.3c73,0,132.3,59.2,132.3,132.3C-165.6,91-224.8,150.2-297.9,150.2 M-297.8-118.7
			c-75.5,0-136.6,61.2-136.6,136.6s61.1,136.6,136.6,136.6c75.4,0,136.6-61.1,136.6-136.6C-161.3-57.5-222.4-118.7-297.8-118.7"/>
	</g>
	<g id="g4682" transform="translate(452.8555,143.7363)">
		<path id="path4684" inkscape:connector-curvature="0" d="M-297.8,97c-47.4,0-85.8-38.4-85.8-85.8s38.4-85.8,85.8-85.8
			S-212-36.2-212,11.2C-212.1,58.6-250.5,97-297.8,97 M-297.9-121c-73.1,0-132.3,59.2-132.3,132.3s59.2,132.3,132.3,132.3
			c73,0,132.3-59.2,132.3-132.3C-165.6-61.8-224.8-121-297.9-121"/>
	</g>
	<g id="g4686" transform="translate(448.2607,150.5976)">
		<path id="path4688" inkscape:connector-curvature="0" class="st2" d="M-325.4,42.2L-325.4,42.2L-325.4,42.2L-325.4,42.2z"/>
	</g>
	<g id="g4690" transform="translate(460.6348,163.7812)">
		<path id="path4692" inkscape:connector-curvature="0" class="st2" d="M-251.2-63.2c-30.1-30.1-78.8-30.1-108.9,0
			c-30.1,30-30.1,78.8,0,108.9c30.1,30,78.8,30,108.9,0C-221.1,15.6-221.1-33.2-251.2-63.2z"/>
	</g>
	<g id="g4694" transform="translate(441.3125,164.9062)">
		<path id="path4696" inkscape:connector-curvature="0" class="st0" d="M-367-72.2c2.5,2.1,3.7,1.4,5-0.3l1.5-1.9
			c1.3-1.6,2.4-3.8,0-5.8l-10.9-9.1c-2.4-1.9-3.6-1.1-4.9,0.5l-2.1,2.6c-1.2,1.5-1.8,2.9,0.5,4.8L-367-72.2z M-369.5-66.1l-14-11.6
			c-4.2-3.5-2.7-7.7-0.2-10.7l3.5-4.2c2.6-3.1,7-6.2,11.2-2.7l14,11.6c4.3,3.6,2.1,8.6-0.4,11.6l-3.5,4.2
			C-361.4-64.8-365.2-62.5-369.5-66.1"/>
	</g>
	<g id="g4698" transform="translate(461.7842,169.7871)">
		<path id="path4700" inkscape:connector-curvature="0" class="st0" d="M-244.3-111.2l0.9-1.6c0.6-0.9,1.5-2.3-0.8-3.7l-5.6-3.3
			l-3.7,6.1l5.6,3.4C-245.9-109.1-244.9-110.3-244.3-111.2 M-251.2-98.8l1.6-2.7c0.8-1.4,0.9-2.6-0.8-3.7c-0.5-0.3,0.9,0.5-6-3.6
			l-4.2,7l6,3.6C-252.8-97.2-251.7-97.9-251.2-98.8 M-257-93.1l-11.9-7.2l16.6-27.6l11.5,6.9c3.5,2.1,6.4,5.6,3.2,11l-0.7,1.1
			c-1.7,2.7-3.8,3.8-6.4,3.3c2.1,2.3,1.9,5.3,0.2,8.1l-1.2,2C-249-90.1-253.5-91-257-93.1"/>
	</g>
	<g id="g4702" transform="translate(443.2227,144.5722)">
		<path id="path4704" inkscape:connector-curvature="0" class="st0" d="M-355.6,90.4l2-2.2c1.5-1.6,1-2.5-0.5-3.9l-4.7-4.3l-5.5,6
			l4.8,4.4C-358,91.7-357.1,92-355.6,90.4 M-360.2,96.8l-3.5,13.3l-5.5-4.5l3.7-13.4L-368,90l-8.3,9.1l-4.3-4.5l21.5-23.5l9.8,9.8
			c2.9,2.6,5,6.7,0.9,11.1l-2.4,2.7C-353.9,97.9-356.7,98.7-360.2,96.8"/>
	</g>
	<g id="g4706" transform="translate(454.458,142.8125)">
		<path id="path4708" inkscape:connector-curvature="0" class="st0" d="M-288.2,104.4l-5.3,19.6l-3.7-17h-6.9l-4.3,16l-4.2-18.9
			l-7.1-1.3l7.5,33.8l6.8,0.6l4.4-16.3l3.6,16.4l7.3-0.3l9.1-33.8L-288.2,104.4z"/>
	</g>
	<g id="g4710" transform="translate(454.458,142.8125)">
		<path id="path4712" inkscape:connector-curvature="0" class="st3" d="M-288.2,104.4l-5.3,19.6l-3.7-17h-6.9l-4.3,16l-4.2-18.9
			l-7.1-1.3l7.5,33.8l6.8,0.6l4.4-16.3l3.6,16.4l7.3-0.3l9.1-33.8L-288.2,104.4z"/>
	</g>
	<g id="g4714" transform="translate(445.4775,140.6152)">
		<path id="path4716" inkscape:connector-curvature="0" class="st0" d="M-342.1,122c0.7,0.3,4.4,2,6,2.7c1.5,0.6,6.8,2.6,7.8,2.9
			l-2.4,5.4c0,0-6.4-2.3-10.3-4.1c-4.4-2-9.1-4.5-9.1-4.5l12.9-29.7c0,0,3.5,2.1,8.3,4.3c4.2,1.9,7.6,3,9,3.5c0,0.4-0.3,5.9-0.3,5.9
			s-4.1-1.3-7.4-2.7c-2.7-1.1-6.2-2.8-6.2-2.8l-2.8,6.4c1.3,0.6,3.1,1.5,4.9,2.3c2.6,1.1,5.8,2.2,5.8,2.2l-2.2,5.1
			c0,0-2.6-0.9-4.8-1.8c-2.4-1-5.9-2.7-5.9-2.7L-342.1,122z"/>
	</g>
	<g id="g4718" transform="translate(444.8818,166.6582)">
		<path id="path4720" inkscape:connector-curvature="0" class="st0" d="M-345.6-86.2l-16.2-27.9l5.4-3.6l13.3,23.1
			c4-2.6,6.9-4.1,11.4-6.3l2.5,5c0,0-4.5,2.1-8.3,4.4C-341.1-89.3-343.7-87.5-345.6-86.2"/>
	</g>
	<g id="g4722" transform="translate(463.1826,144.8691)">
		<path id="path4724" inkscape:connector-curvature="0" class="st0" d="M-235.9,88c-3.9,2.3-6.6,4.7-7.8,3.3l-1.2-1.3
			c-1.9-2.2-1.4-3.3,0.6-5.3c0.7-0.6,2.5-2.2,2.5-2.2c1.5-1.3,2.8-2,4.7-0.1l1.1,1.2l4.7-4.2l-2-2.3c-2.2-2.4-4.6-2.9-6.7-2.3
			c-0.6,0.2-1.1,0.4-1.6,0.6c-0.9,0.5-1.8,1.1-2.6,1.8l-4.3,3.8l-1,0.9c-2,1.8-3.7,4.3-3.3,7c0.1,1.1,0.6,2.3,1.6,3.5l0.3,0.4
			l1.2,1.4l2.6,3c3.5,3.9,9.9-1.4,13.6-3.5c3-1.7,4.4-2.6,6-0.8l0.5,0.6c1,1.1,1.3,1.9,1.3,2.6c-0.2,0.8-0.9,1.7-1.7,2.6
			c-0.6,0.6-2.8,2.5-2.8,2.5c-1.5,1.3-2.8,2-4.7,0.1l-1.5-1.7l-4.7,4.2l2.7,3l0,0c1.5,1.6,3,2.2,4.6,2.3c1.3,0.1,2.7-0.4,3.9-1.1
			c0.8-0.4,1.5-1,2.3-1.6l4.2-3.8l1.2-1.1c2.7-2.4,4.7-5.8,2.4-9.5c-0.1-0.2-0.2-0.4-0.3-0.5c0,0,0,0-0.1-0.1
			c-0.1-0.2-0.3-0.4-0.4-0.5c0,0,0,0-0.2-0.2c-0.2-0.3-0.9-1-2.4-2.7c-0.4-0.4-0.5-0.5-1-1.1C-228,82.6-231.4,85.4-235.9,88"/>
	</g>
	<g id="g4726" transform="translate(466.5215,150.2617)">
		<path id="path4728" inkscape:connector-curvature="0" class="st0" d="M-215.9,44.9l-2.5-1.4c-4.8-2.8-8.3,0.2-10.2,3.6l-3.5,6.1
			c-2,3.3-2.7,7.7,2.1,10.5l6.5,3.7l2.6,1.5l6.5,3.7c4.8,2.7,8.2-0.1,10.1-3.5l3.5-6c2-3.4,2.8-7.8-2-10.6l-3-1.7l-3.2,5.5l1.3,0.7
			c2.7,1.6,2.4,3,1.4,4.7l-2,3.5c-1,1.7-2.1,2.7-4.8,1.1l-4.7-2.7l-2.6-1.5l-4.7-2.7c-2.7-1.6-2.4-3-1.4-4.7l2-3.5
			c1-1.8,2.1-2.7,4.8-1.1l0.8,0.4L-215.9,44.9z"/>
	</g>
	<g id="g4730" transform="translate(438.0449,163.4375)">
		<path id="path4732" inkscape:connector-curvature="0" class="st0" d="M-386.6-60.5l-2.7-1c-5.2-1.9-8.1,1.6-9.4,5.2l-2.4,6.6
			c-1.4,3.6-1.4,8,3.8,10l7,2.6l2.8,1l7,2.6c5.2,1.9,8-1.5,9.4-5.1l2.4-6.5c1.3-3.7,1.4-8.2-3.8-10.2l-3.3-1.2l-2.2,5.9l1.4,0.5
			c2.9,1.1,2.9,2.5,2.2,4.4l-1.4,3.8c-0.7,1.9-1.6,3-4.5,1.9l-5.2-1.9l-2.8-1l-5.2-1.9c-2.9-1.1-2.9-2.5-2.2-4.4l1.4-3.8
			c0.7-1.9,1.6-3,4.5-1.9l0.8,0.3L-386.6-60.5z"/>
	</g>
	<g id="g4734" transform="translate(440.6572,147.6855)">
		<path id="path4736" inkscape:connector-curvature="0" class="st0" d="M-371,65.5l2.5-1.4c4.8-2.8,4-7.2,2-10.6l-3.4-6.1
			c-1.9-3.4-5.3-6.2-10.1-3.5l-6.5,3.7l-2.6,1.5l-6.5,3.7c-4.8,2.8-4.1,7.1-2.1,10.5l3.5,6.1c1.9,3.4,5.4,6.4,10.2,3.6l3-1.7
			l-3.1-5.4l-1.3,0.7c-2.7,1.6-3.8,0.6-4.8-1.2l-2-3.5c-1-1.7-1.3-3.2,1.4-4.7l4.8-2.7l2.6-1.5l4.7-2.7c2.7-1.5,3.8-0.5,4.8,1.2
			l2,3.5c1,1.7,1.3,3.2-1.4,4.7l-0.8,0.5L-371,65.5z"/>
	</g>
	<g id="g4738" transform="translate(467.9609,161.375)">
		<path id="path4740" inkscape:connector-curvature="0" class="st0" d="M-207.3-44c-1-4.4-2.6-7.7-0.9-8.4l1.6-0.7
			c2.9-1.1,3.5-0.8,4.9,2.2c0.4,0.8,1.4,3.1,1.4,3.1c0.8,1.8,1.1,3.2-1.3,4.5l-1.5,0.7l2.6,5.8l2.8-1.2c3-1.4,4.1-3.5,4.2-5.7
			c0-0.6,0-1.1-0.1-1.8c-0.2-1-0.5-2-1-3l-2.4-5.2l-0.5-1.2c-1.1-2.5-3-4.8-5.7-5.3c-1.1-0.3-2.4-0.1-3.7,0.5l-0.5,0.2l-1.7,0.7
			l-3.6,1.6c-4.8,2.2-1.7,9.9-0.8,14c0.7,3.4,1.2,5-1.1,6l-0.7,0.3c-1.3,0.6-2.2,0.7-2.9,0.4c-0.7-0.4-1.4-1.4-1.9-2.4
			c-0.4-0.8-1.6-3.4-1.6-3.4c-0.8-1.8-1.1-3.2,1.3-4.5l2.1-0.9l-2.6-5.8l-3.7,1.6l0,0c-2,1-3.1,2.3-3.6,3.7c-0.5,1.3-0.5,2.6-0.2,4
			c0.2,0.9,0.5,1.8,0.9,2.6l2.4,5.2l0.6,1.4c1.5,3.3,4.1,6.2,8.4,5.1c0.2,0,0.4-0.1,0.6-0.2c0,0,0.1,0,0.1-0.1
			c0.2,0,0.4-0.1,0.6-0.2c0,0,0,0,0.3-0.1c0.3-0.2,1.2-0.6,3.3-1.5c0.5-0.2,0.7-0.3,1.3-0.6C-204.5-34.8-206.2-38.9-207.3-44"/>
	</g>
	<g id="g4742" transform="translate(455.4414,171.5937)">
		<path id="path4744" inkscape:connector-curvature="0" class="st0" d="M-282.3-125.7l9.2-13.1c3.1,0.7,6.9,1.7,6.9,1.7l-5.6,31.7
			l-6.2-1.4l3.3-18.8l-7.8,10.5l-3.4-0.6l-3.6-12.6l-3.4,19l-6.3-0.5l5.6-31.8c2,0.1,5.2,0.4,7.2,0.6L-282.3-125.7z"/>
	</g>
	<g id="g4746" transform="translate(447.4785,173.0722)">
		<path id="path4748" inkscape:connector-curvature="0" class="st0" d="M-330.1-137.5l6.1-1.6l4.9,22.5c0.7,3.1,2.2,3.2,4.1,2.8
			l3.4-0.7c2-0.5,3.3-1.2,2.6-4.3l-4.9-22.4l6.2-1l5.3,24c1.2,5.5-2.6,7.9-6.5,8.7l-6.4,1.4c-3.9,0.8-8.3,0.3-9.5-5.2L-330.1-137.5z
			"/>
	</g>
	<g id="g4750" transform="translate(465.376,168.7793)">
		<path id="path4752" inkscape:connector-curvature="0" class="st0" d="M-222.8-103.2l4.4,4.5l-17.5,14.9c-2.4,2-1.8,3.4-0.5,5
			l2.3,2.7c1.3,1.5,2.6,2.3,5,0.3l17.5-14.9l3.7,5.1l-18.6,15.9c-4.3,3.7-8.2,1.4-10.7-1.6l-4.3-5c-2.6-3-4.2-7.2,0.1-10.9
			L-222.8-103.2z"/>
	</g>
	<g id="g4754" transform="translate(458.6592,155.8164)">
		<path id="path4756" inkscape:connector-curvature="0" d="M-263,0.5v-36.1h22.8c5.8,10.6,8.9,22.5,8.9,34.8c0,0.4,0,0.9,0,1.3
			C-231.3,0.5-263,0.5-263,0.5z M-252.5,50.3c-3.2,3.2-6.9,6.2-10.6,8.7V37h21.1C-244.9,41.8-248.4,46.2-252.5,50.3 M-263,37.1
			h-36.1V0.5h36.1V37.1z M-299.2,71.4c-1.5,0.1-3,0.1-4.5,0.1c-11.3,0-22.2-2.6-32-7.5V37l-16.2,16.1c-1-0.9-2-1.8-2.9-2.8
			c-1-1-2-2.1-3-3.2l33.6-33.6l-1.8-0.9c-2.1-1-4.1-2.1-6.1-3.1l-31,31c-1.7-2.4-3.2-4.9-4.5-7.4l27.9-27.8c-2.6-1.5-5-3-7.3-4.6
			l-24.2,24.2c-1.1-3-2.1-6.1-2.8-9.2l21.4-21.4c-0.4-3.6-0.8-7.2-1.1-10.9l-21.9,21.9c-0.3-4-0.3-8,0-12l21.1-21.1
			c-0.3-4.1-0.4-7.8-0.5-11.4l-18,17.7c3.3-11.2,9.4-21.7,18.2-30.5c8.6-8.6,19.1-14.8,30.5-18.2L-339-55.4
			c-4.6,0.6-8.8,1.6-12.1,2.8c-0.2,9.1,0.2,19.7,1,30.8c0.4,5.4,0.9,10.8,1.5,15.9c3.7,2.7,7.8,5.3,12.1,7.8
			c3.9,2.3,7.9,4.4,11.8,6.3c3.9-1.9,7.9-4,11.9-6.3c4.4-2.5,8.4-5.2,12.1-7.8c0.2-1.5,0.3-3,0.5-4.5l44.5-44.5c1.1,1,2.2,2,3.2,3
			c0.9,0.9,1.8,1.9,2.7,2.9l-86,86l36.5,0.1L-299.2,71.4L-299.2,71.4z M-303.7-73.2c2,0,4,0.1,6,0.3l-17,16.9
			c-1.3-0.1-2.7-0.2-4.1-0.3h-0.9c-0.2,0-0.4,0-0.6,0l-3.1-0.1c-0.9,0-1.7,0-2.5,0h-0.3l16.5-16.5
			C-307.6-73.1-305.7-73.2-303.7-73.2 M-278.1-68.5l-20,20c0-1.4,0-2.9,0-4.2c-1.8-0.7-3.8-1.2-6-1.7l16.9-16.9
			C-284.2-70.6-281.1-69.7-278.1-68.5 M-262.4-60.3l-36.7,36.7c0.3-4.3,0.6-8.6,0.7-12.7l28.6-28.5
			C-267.3-63.4-264.8-61.9-262.4-60.3 M-245.9-58.5c-15.4-15.4-35.9-23.9-57.7-23.9c-21.8,0-42.3,8.5-57.7,23.9
			c-31.8,31.8-31.8,83.6,0,115.4c15.4,15.4,35.9,23.9,57.7,23.9c21.8,0,42.3-8.5,57.7-23.9S-222,21-222-0.8
			C-222.1-22.6-230.5-43.1-245.9-58.5"/>
	</g>
	<g id="g4758" transform="translate(448.8408,160.4804)">
		<path id="path4760" inkscape:connector-curvature="0" class="st0" d="M-321.9-36.8c0,3-1.2,3.6-3.2,3.6h-0.5c-2,0-3.2-0.6-3.2-3.6
			v-6.8c0-3,1.2-3.6,3.1-3.6h0.6c2,0,3.2,0.6,3.2,3.6V-36.8z M-327-12h3.8c2.3,0,6-0.7,6-5.6v-27.9c0-5.5-4.2-6.4-6.6-6.4h-3.2
			c-2.5,0-6.6,0.9-6.6,6.4V-35c0,5.6,4.1,6.4,6.6,6.4h2.3c0.8,0,1.7-0.2,2.4-0.5l0.4-0.2v10c0,2.7-1.2,3.3-2.9,3.3h-1.1
			c-1.8,0-2.9-0.6-2.9-3.3v-4h-4.4v5.7C-333.1-12.7-329.3-12-327-12"/>
	</g>
	<g id="g4762" transform="translate(450.8652,159.0781)">
		<path id="path4764" inkscape:connector-curvature="0" class="st0" d="M-309.8-25.6c0-3,1.2-3.6,3.2-3.6h0.5c2,0,3.3,0.6,3.3,3.6
			v6.8c0,3-1.2,3.6-3.1,3.6h-0.7c-2,0-3.2-0.6-3.2-3.6L-309.8-25.6L-309.8-25.6z M-304.7-50.5h-3.8c-2.3,0-6,0.7-6,5.7v27.9
			c0,5.5,4.2,6.4,6.6,6.4h3.2c2.5,0,6.6-0.8,6.6-6.4v-10.6c0-5.5-4.2-6.4-6.6-6.4h-2.3c-0.8,0-1.7,0.2-2.4,0.5l-0.4,0.2v-8.3v-0.1
			v-1.6c0-2.7,1.1-3.3,2.8-3.3h1.1c1.8,0,2.9,0.5,2.9,3.3v4h4.4v-5.7C-298.6-49.8-302.4-50.5-304.7-50.5"/>
	</g>
	<g id="g4766" transform="translate(452.8555,136.4765)">
		<path id="path4768" inkscape:connector-curvature="0" d="M-297.8,155.1c-75.5,0-136.6-61.1-136.6-136.6
			c0-75.4,61.1-136.6,136.6-136.6c75.4,0,136.6,61.2,136.6,136.6C-161.3,94-222.4,155.1-297.8,155.1 M-297.8-126.4
			c-80,0-144.9,64.9-144.9,144.9s64.9,144.9,144.9,144.9s144.9-64.9,144.9-144.9S-217.8-126.4-297.8-126.4"/>
	</g>
	<g id="g4778" transform="translate(448.2725,146.7265)">
		<path id="path4780" inkscape:connector-curvature="0" class="st1" d="M-325.3,73.1c9.8,4.9,20.8,7.5,32,7.5c1.5,0,3,0,4.5-0.1
			V46.2l-36.5-0.1V73.1z"/>
	</g>
	<g id="g4782" transform="translate(460.167,163.3125)">
		<path id="path4784" inkscape:connector-curvature="0" class="st1" d="M-254-59.5c-1.1-1-2.1-2-3.2-3L-301.7-18
			c-0.2,1.5-0.3,3-0.5,4.5c-3.6,2.6-7.7,5.2-12.1,7.8c-3.9,2.3-7.9,4.4-11.9,6.3c-3.9-1.9-7.9-4-11.8-6.3c-4.3-2.5-8.4-5.1-12.1-7.8
			c-0.6-5.1-1.1-10.5-1.5-15.9c-0.8-11.1-1.2-21.7-1-30.8c3.3-1.2,7.5-2.1,12.1-2.8l14.7-14.7c-11.4,3.4-21.9,9.6-30.5,18.2
			c-8.8,8.8-14.8,19.3-18.2,30.5l17.8-17.8c0.1,3.6,0.2,7.3,0.5,11.4l-21.1,21.1c-0.3,4-0.3,8,0,12l21.9-21.9
			c0.3,3.7,0.7,7.3,1.1,10.9L-375.6,8c0.7,3.1,1.6,6.2,2.8,9.2L-348.6-7c2.3,1.6,4.8,3.1,7.3,4.6l-27.9,27.8c1.3,2.5,2.9,5,4.5,7.4
			l31-31c2,1.1,4,2.1,6.1,3.1l1.8,0.9l-33.6,33.6c1,1.1,2,2.2,3,3.2c0.9,0.9,1.9,1.9,2.9,2.8l16.2-16.1l86-86
			C-252.2-57.6-253.1-58.5-254-59.5"/>
	</g>
	<g id="g4786" transform="translate(460.167,148.6894)">
		<path id="path4788" inkscape:connector-curvature="0" class="st1" d="M-254,57.4c4.1-4.1,7.6-8.5,10.5-13.3h-21.1v22
			C-260.9,63.7-257.2,60.6-254,57.4"/>
	</g>
	<g id="g4790" transform="translate(449.6748,163.9414)">
		<path id="path4792" inkscape:connector-curvature="0" class="st1" d="M-316.9-64.5c0.8,0,1.6,0,2.5,0l3.1,0.1c0.2,0,0.4,0,0.6,0
			h0.9c1.4,0.1,2.8,0.2,4.1,0.3l17-16.9c-2-0.2-4-0.3-6-0.3s-4,0.1-5.9,0.3l-16.5,16.5H-316.9z"/>
	</g>
	<g id="g4794" transform="translate(453.6377,163.414)">
		<path id="path4796" inkscape:connector-curvature="0" class="st1" d="M-293.2-60.3c0,1.3,0,2.8,0,4.2l20-20c-3-1.1-6.1-2-9.2-2.8
			L-299.2-62C-297-61.5-294.9-61-293.2-60.3"/>
	</g>
	<g id="g4798" transform="translate(453.5039,159.2578)">
		<path id="path4800" inkscape:connector-curvature="0" class="st1" d="M-294-27.1l36.7-36.7c-2.4-1.7-4.9-3.2-7.4-4.5l-28.6,28.5
			C-293.4-35.6-293.6-31.4-294-27.1"/>
	</g>
	<path id="path4802" inkscape:connector-curvature="0" class="st1" d="M159.5,192.9h36.1v-36.6h-36.1V192.9z"/>
	<g id="g4804" transform="translate(461.1045,147.7539)">
		<path id="path4806" inkscape:connector-curvature="0" class="st1" d="M-248.4,64.9c-15.4,15.4-35.9,23.9-57.7,23.9
			c-21.8,0-42.3-8.5-57.7-23.9c-31.8-31.8-31.8-83.6,0-115.4c15.4-15.4,35.9-23.9,57.7-23.9c21.8,0,42.3,8.5,57.7,23.9
			s23.9,35.9,23.9,57.7C-224.5,29-233,49.5-248.4,64.9 M-306.1-78.6c-47.4,0-85.8,38.4-85.8,85.8S-353.5,93-306.1,93
			s85.8-38.4,85.8-85.8C-220.3-40.1-258.7-78.6-306.1-78.6"/>
	</g>
	<g id="g4808" transform="translate(463.1943,156.0039)">
		<path id="path4810" inkscape:connector-curvature="0" class="st1" d="M-235.9-1c0-12.4-3.1-24.3-8.9-34.8h-22.8V0.3h31.7
			C-235.9-0.2-235.9-0.6-235.9-1"/>
	</g>
</g>
</svg>
