<?xml version="1.0" encoding="utf-8"?>
<!-- Generator: Adobe Illustrator 21.1.0, SVG Export Plug-In . SVG Version: 6.00 Build 0)  -->
<!DOCTYPE svg PUBLIC "-//W3C//DTD SVG 1.1//EN" "http://www.w3.org/Graphics/SVG/1.1/DTD/svg11.dtd">
<svg version="1.1"
	 id="svg5811" xmlns:cc="http://creativecommons.org/ns#" xmlns:dc="http://purl.org/dc/elements/1.1/" xmlns:rdf="http://www.w3.org/1999/02/22-rdf-syntax-ns#" xmlns:svg="http://www.w3.org/2000/svg"
	 xmlns="http://www.w3.org/2000/svg" xmlns:xlink="http://www.w3.org/1999/xlink" x="0px" y="0px" width="312px" height="464.4px"
	 viewBox="0 0 312 464.4" style="enable-background:new 0 0 312 464.4;" xml:space="preserve">
<style type="text/css">
	.st0{fill:#FFFFFF;}
	.st1{fill:#D3D5D7;}
	.st2{fill:#9CC2EA;}
	.st3{fill:#424A52;}
	.st4{fill:#960A2C;}
</style>
<g id="g5823">
	<path id="path5829" class="st0" d="M226.8,101.4L156,45.8l-70.8,55.6l70.8-48L226.8,101.4z"/>
	<path id="path5831" class="st0" d="M117.9,365.7l38.1,45.7l38.1-45.7L156,401.2L117.9,365.7z"/>
	<path id="path5833" class="st0" d="M191.5,246.8L156,210.2l-35.6,36.6l-6.5-5.7l-31.6,32.6c1.5,2.5,3,5,4.6,7.4l29.9-35.3l6,6.1
		l33.1-39.1l33.1,39.1l6-6.1l29.9,35.3c1.6-2.4,3.1-4.9,4.6-7.4L198,241.1L191.5,246.8L191.5,246.8z"/>
	<path id="path5835" class="st0" d="M156,268.5l9.3,6.7l-3.5,10.9h-11.4l-3.5-10.9L156,268.5L156,268.5z M156,293.5
		c12.3,0,22.3-9.5,23.3-21.5l-1.4-0.8l1.1-5.3c-1.4-7.7-6.6-14.1-13.7-17.2l-9.3,6.7l-9.3-6.7c-7,3-12.2,9.4-13.7,17.2l1.1,5.3
		l-1.4,0.8C133.7,284,143.7,293.5,156,293.5"/>
	<path id="path5837" class="st0" d="M90.2,141.6c0-1.2,1-2.5,2.2-2.8l4-1.2c1.2-0.3,2.2,0.4,2.2,1.6v30.6c0,1.2-1,2.5-2.2,2.8
		l-4,1.2c-1.2,0.4-2.2-0.3-2.2-1.5V141.6z M90.8,179.8l7-2.1c3.8-1.1,6.8-5.1,6.8-8.8v-32.6c0-3.8-3.1-5.9-6.8-4.8l-7,2.1
		c-3.8,1.1-6.8,5.1-6.8,8.8V175C84,178.7,87.1,180.9,90.8,179.8"/>
	<path id="path5839" class="st0" d="M137.2,165.1c-1.2,0.1-2.2-0.8-2.2-2v-30.6c0-1.2,1-2.3,2.2-2.4l4-0.3c1.2-0.1,2.2,0.8,2.2,2
		v30.6c0,1.2-1,2.3-2.2,2.4L137.2,165.1z M149.6,163v-32.6c0-3.8-3.1-6.6-6.8-6.3l-7,0.5c-3.8,0.3-6.8,3.6-6.8,7.4v32.6
		c0,3.8,3.1,6.6,6.8,6.3l7-0.5C146.5,170,149.6,166.7,149.6,163"/>
	<path id="path5841" class="st0" d="M246.1,181.4c0,1.2-1,1.8-2.2,1.3l-4-1.7c-1.2-0.5-2.2-1.9-2.2-3.1v-30.6c0-1.2,1-1.8,2.2-1.3
		l4,1.7c1.2,0.5,2.2,1.9,2.2,3.1V181.4L246.1,181.4z M245.4,142.7l-7-3c-3.8-1.6-6.8,0.2-6.8,3.9v32.6c0,3.8,3.1,8.2,6.8,9.8l7,3
		c3.8,1.6,6.8-0.2,6.8-3.9v-32.6C252.2,148.7,249.2,144.3,245.4,142.7"/>
	<path id="path5843" class="st0" d="M78.5,144.4c0-3.8-3.1-5.5-6.8-3.9l-5.1,2.2c-3.8,1.6-6.8,6-6.8,9.8v32.6c0,3.8,3.1,5.5,6.8,3.9
		l5.1-2.2c3.8-1.6,6.8-6,6.8-9.8v-3.1l0.9-1v-0.6l-8,3.5v0.6l0.9,0.2v2.1c0,1.2-1,2.6-2.2,3.1l-2.1,0.9c-1.2,0.5-2.2,0-2.2-1.2
		v-30.7c0-1.2,1-2.6,2.2-3.1l2.1-0.9c1.2-0.5,2.2,0,2.2,1.2v4l-0.9,1v0.6l8-3.5v-0.6l-0.9-0.2V144.4L78.5,144.4z"/>
	<path id="path5845" class="st0" d="M124.3,165.7l-0.6,0.1l-0.6,1l-6.8,1.2v-39.4l0.9-0.8v-0.6l-8,1.5v0.6l0.9,0.4v43.8l-0.9,0.8
		v0.6l15.1-2.7V165.7L124.3,165.7z"/>
	<path id="path5847" class="st0" d="M218.6,173.4l-6.2-1.7v-35l6.2,1.7c1.2,0.3,2.2,1.6,2.2,2.8v30.6
		C220.8,173,219.8,173.8,218.6,173.4 M227,174.5v-32.6c0-3.8-3.1-7.7-6.8-8.7l-14.8-4v0.6l0.9,0.8v43.8l-0.9,0.3v0.6l14.8,4
		C223.9,180.5,227,178.2,227,174.5"/>
	<path id="path5849" class="st0" d="M167.6,144.3c0,1.2-1,2.1-2.2,2.1l-4.2-0.2v-16.7l4.2,0.2c1.2,0.1,2.2,1.1,2.2,2.3V144.3z
		 M175.7,170.2l-1.4-0.9l-5.1-17.4c2.7-0.8,4.6-3.3,4.6-6.3v-14.2c0-3.8-3.1-7-6.8-7.1l-12.9-0.5v0.6l0.9,0.6v43.8l-0.9,0.6v0.6
		l8,0.1v-0.6l-0.9-0.6V152l1.9,0.1l5.4,18.3l7.2,0.5V170.2z"/>
	<path id="path5851" class="st0" d="M187.3,149.8v-15.9c0-1.2,1-2,2.2-1.8l2.1,0.3c1.2,0.2,2.2,1.3,2.2,2.5v15.9L187.3,149.8z
		 M192.8,172.4v0.6l8,1.5v-0.6l-0.9-0.7V135c0-3.8-3.1-7.3-6.8-7.9l-5.1-0.8c-3.8-0.6-6.8,2-6.8,5.8v38.2l-0.9,0.4v0.6l8,1v-0.6
		l-0.9-0.7v-15.5l6.4,1V172L192.8,172.4L192.8,172.4z"/>
	<path id="path5853" class="st0" d="M169.2,185.8v-0.3h-5.5v0.3c0.4,0,0.7,0.2,0.7,0.5v12.4c0,0.3-0.3,0.5-0.7,0.5v0.3h5.5v-0.3
		c-0.4,0-0.7-0.2-0.7-0.5v-12.4C168.4,186,168.8,185.8,169.2,185.8"/>
	<path id="path5855" class="st0" d="M181.2,188.6h3.4c2.1,0,3.9,1,3.9,3.9c0,2.8-1.7,3.9-3.9,3.9h-3.4V188.6z M176.4,199.2v0.3h9
		c3.9,0,7-2.3,7-7c0-4.6-3.1-7-7-7h-9v0.3c0.4,0,0.7,0.2,0.7,0.5v12.4C177.2,198.9,176.8,199.2,176.4,199.2"/>
	<path id="path5857" class="st0" d="M147.8,188.6h4.4c0.8,0,1.5,0.7,1.5,1.5s-0.7,1.5-1.5,1.5h-4.4V188.6z M153.1,194.7
		c2.5,0,4.6-2.1,4.6-4.6s-2.1-4.6-4.6-4.6h-10v0.3c0.4,0,0.7,0.2,0.7,0.5v12.4c0,0.3-0.3,0.5-0.7,0.5v0.3h5.5v-0.3
		c-0.4,0-0.7-0.2-0.7-0.5v-4L153.1,194.7L153.1,194.7z"/>
	<path id="path5859" class="st0" d="M109.3,191.5h-5.1v-2.9h5.1c0.8,0,1.5,0.7,1.5,1.5C110.7,190.9,110.1,191.5,109.3,191.5
		 M114.7,190.1c0-2.5-2.1-4.6-4.6-4.6H99.4v0.3c0.4,0,0.7,0.2,0.7,0.5v12.4c0,0.3-0.3,0.5-0.7,0.5v0.3h5.5v-0.3
		c-0.4,0-0.7-0.2-0.7-0.5v-4h2.7l2.8,4c0.2,0.3,0,0.5-0.4,0.5v0.3h5.5v-0.3c-0.4,0-0.9-0.2-1.1-0.5l-2.9-4
		C113,194.3,114.7,192.4,114.7,190.1"/>
	<path id="path5861" class="st0" d="M126.1,194.3l2.6-6.7l2.6,6.7H126.1z M132.3,199.2v0.3h4.8v-0.4c-0.3-0.1-0.6-0.2-0.6-0.4
		l-4.7-12.4c-0.1-0.3,0.1-0.5,0.6-0.5v-0.3H125v0.3c0.4,0,0.7,0.2,0.6,0.5l-4.7,12.4c-0.1,0.2-0.3,0.4-0.6,0.4v0.4h4.8v-0.3
		c-0.4,0-0.7-0.2-0.6-0.5l0.9-2.3h6.7l0.9,2.3C133,198.9,132.7,199.2,132.3,199.2"/>
	<path id="path5863" class="st0" d="M199.2,194l-2,4.7l0.3,0.1c0,0,0.2-0.3,0.5-0.3c0.8,0,2,1.1,7.2,1.1c3.5,0,7.4-0.9,7.4-4.7
		c0-5.9-10.7-3.3-10.7-5.4c0-1,1.7-1.4,2.8-1.4c3.8,0,5.9,0.9,5.6,1.7l0.3,0.2l1.8-3.7l-0.3-0.1c0,0-0.2,0.4-0.7,0.4
		s-3.5-1.1-6.7-1.1c-3.5,0-6.8,1.6-6.8,4.1c0,5.9,10.7,3,10.7,5.4c0,1.1-1.1,1.6-3.4,1.6c-5.1,0-6.1-1.6-5.8-2.3L199.2,194
		L199.2,194z"/>
	<path class="st1" d="M151.8,460.4C63.9,375.2,0,238.1,0,134.3v-2.8L156,0l156,131.6v2.8c0,103.7-63.9,240.8-151.8,326l-4.2,4
		L151.8,460.4z M21.1,141c2.5,93.3,57.4,212.4,134.9,292.8c77.5-80.4,132.4-199.5,134.9-292.8c-10.5-8.9-53.3-45-88.4-74.6
		C182.1,49.2,164.1,34,156,27.2c-13.6,11.5-55,46.4-89.1,75.2C46,120,27.5,135.6,21.1,141z"/>
	<path id="path5865" class="st1" d="M156,442.3C74.9,360.5,16.5,235.4,15,138.2C21,133.1,145.8,28,156,19.3
		c10.3,8.7,135,113.8,141,118.9C295.5,235.4,237.1,360.5,156,442.3 M156,7.8L6,134.3C6,239.1,71.5,374.2,156,456
		c84.5-81.8,150-216.9,150-321.7L156,7.8z"/>
	<path id="path5867" class="st1" d="M156,381.7c-34.6-34.8-98.4-110.9-112.9-206.6c-1.4-9.2-2.3-18.6-2.8-28.1L156,71.2L271.7,147
		c-0.4,9.5-1.4,18.9-2.8,28.1C254.4,270.8,190.6,346.9,156,381.7 M156,64.7L33.3,145c5,115.2,82.3,207,122.7,247.4
		C196.3,352,273.6,260.3,278.7,145L156,64.7z"/>
	<path id="path5869" class="st1" d="M148.1,325.8c-1.4,0-2.5,0.8-2.5,1.7c0,0.9,1.1,1.7,2.5,1.7s2.5-0.8,2.5-1.7
		S149.5,325.8,148.1,325.8"/>
	<path id="path5871" class="st1" d="M147.4,333.6c3.8,0,4-3.2,4-3.2s-2,1.2-4.3,1.2c-2.5,0-4.5-1.7-4.5-4c0-2.7,2.8-4,5.5-4
		c4.3,0,6.4,2.3,6.4,6.1c0,4-3.5,6.2-7,6.2c-2.7,0-4-0.7-4.2-0.7c-0.3,0-0.5,0.3-0.5,0.3l-0.3-0.1l1.8-3.1l0.2,0.1
		C144.3,332.8,145,333.6,147.4,333.6 M116.9,245.7L87,281.1c21,32.9,45.6,57.1,69,74.1v-40.5c-19.5,0-35.3-15.8-35.3-35.3
		s15.8-35.3,35.3-35.3v-31.3l-33.1,39.1L116.9,245.7L116.9,245.7z"/>
	<path id="path5873" class="st2" d="M156,411.4l-38.1-45.7l38.1,35.5l38.1-35.5L156,411.4z M156,64.7L278.7,145
		c-5,115.2-82.3,207-122.7,247.4C115.7,352,38.4,260.2,33.3,145L156,64.7z M156,45.8l70.8,55.6l-70.8-48l-70.8,48L156,45.8z
		 M156,39.3L23.5,141.2c5.4,114.8,86.8,232.4,132.5,278c45.7-45.6,127.1-163.2,132.5-278L156,39.3L156,39.3z"/>
	<path id="path5875" class="st2" d="M163.9,333.4c1.4,0,2.5-0.8,2.5-1.7c0-0.9-1.1-1.7-2.5-1.7s-2.5,0.8-2.5,1.7
		C161.4,332.7,162.5,333.4,163.9,333.4"/>
	<path id="path5877" class="st2" d="M164.6,325.7c-3.8,0-4,3.2-4,3.2s2-1.2,4.3-1.2c2.5,0,4.5,1.7,4.5,4c0,2.7-2.8,4-5.5,4
		c-4.3,0-6.4-2.3-6.4-6.2c0-4,3.5-6.1,7.1-6.1c2.7,0,4,0.7,4.2,0.7c0.3,0,0.5-0.3,0.5-0.3l0.3,0.1l-1.8,3.1l-0.2-0.1
		C167.7,326.4,167,325.7,164.6,325.7 M191.3,279.4c0,19.5-15.8,35.3-35.3,35.3v40.5c23.4-17,48-41.3,69-74.1l-29.9-35.4l-6,6.1
		L156,212.7V244C175.5,244.1,191.3,259.9,191.3,279.4"/>
	<path id="path5879" class="st2" d="M132.7,271.9l-4.5,2.5c0-0.3,0-0.5,0-0.8c0-5,1.3-9.7,3.6-13.7l1.2,5.9
		c1.4-7.7,6.6-14.1,13.7-17.2l0.4-1.3c2.8-0.9,5.7-1.4,8.8-1.4s6.1,0.5,8.8,1.4l0.4,1.3c7,3,12.2,9.4,13.7,17.2l1.2-5.9
		c2.3,4.1,3.6,8.7,3.6,13.7c0,0.3,0,0.5,0,0.8l-4.5-2.5c-0.9,12-11,21.5-23.3,21.5C143.7,293.5,133.7,284,132.7,271.9 M186.7,275.8
		c0-16.9-13.7-30.7-30.7-30.7s-30.7,13.7-30.7,30.7c0,16.9,13.7,30.7,30.7,30.7S186.7,292.7,186.7,275.8"/>
	<path id="path5881" class="st3" d="M156,245.1c16.9,0,30.7,13.7,30.7,30.7c0,16.9-13.7,30.7-30.7,30.7c-16.9,0-30.7-13.7-30.7-30.7
		C125.3,258.9,139.1,245.1,156,245.1 M156,314.7c19.5,0,35.3-15.8,35.3-35.3s-15.8-35.3-35.3-35.3s-35.3,15.8-35.3,35.3
		S136.5,314.7,156,314.7"/>
	<path id="path5883" class="st3" d="M229.6,273.7c-1.5,2.5-3,5-4.6,7.4c-21,32.9-45.6,57.1-69,74.1c-23.4-17-48-41.3-69-74.1
		c-1.6-2.4-3.1-4.9-4.6-7.4c-16.3-27.2-30.2-59.8-39.3-98.6c14.5,95.7,78.3,171.8,112.9,206.6c34.6-34.8,98.4-110.9,112.9-206.6
		C259.8,213.9,245.9,246.5,229.6,273.7"/>
	<path id="path5885" class="st4" d="M23.5,141.2L156,39.3l132.5,101.9c-5.4,114.8-86.8,232.4-132.5,278
		C110.3,373.6,28.9,256,23.5,141.2 M156,19.3C145.7,28,21,133.1,15,138.2c1.5,97.2,60,222.3,141,304.1
		c81.1-81.8,139.5-206.9,141-304.1C291,133.1,166.3,28,156,19.3"/>
	<path id="path5887" class="st4" d="M109.3,188.6h-5.1v2.9h5.1c0.8,0,1.5-0.6,1.5-1.5C110.7,189.3,110.1,188.6,109.3,188.6"/>
	<path id="path5889" class="st4" d="M243.9,147.7l-4-1.7c-1.2-0.5-2.2,0.1-2.2,1.3v30.6c0,1.2,1,2.6,2.2,3.1l4,1.7
		c1.2,0.5,2.2,0,2.2-1.3v-30.6C246.1,149.6,245.1,148.2,243.9,147.7"/>
	<path id="path5891" class="st4" d="M96.3,137.6l-4,1.2c-1.2,0.4-2.2,1.6-2.2,2.8v30.6c0,1.2,1,1.9,2.2,1.5l4-1.2
		c1.2-0.4,2.2-1.6,2.2-2.8v-30.6C98.5,137.9,97.5,137.2,96.3,137.6"/>
	<path id="path5893" class="st4" d="M218.6,138.5l-6.2-1.7v35l6.2,1.7c1.2,0.3,2.2-0.4,2.2-1.6v-30.6
		C220.8,140,219.8,138.8,218.6,138.5"/>
	<path id="path5895" class="st4" d="M152.2,188.6h-4.4v2.9h4.4c0.8,0,1.5-0.6,1.5-1.5C153.7,189.3,153,188.6,152.2,188.6"/>
	<path id="path5897" class="st4" d="M252.2,185c0,3.8-3.1,5.5-6.8,3.9l-7-3c-3.8-1.6-6.8-6-6.8-9.8v-32.6c0-3.8,3.1-5.5,6.8-3.9l7,3
		c3.8,1.6,6.8,6,6.8,9.8V185z M227,174.5c0,3.8-3.1,6-6.8,5l-14.8-4v-0.6l0.9-0.3v-43.8l-0.9-0.8v-0.6l14.8,4c3.8,1,6.8,4.9,6.8,8.7
		V174.5z M205.2,199.6c-5.1,0-6.3-1.1-7.2-1.1c-0.3,0-0.5,0.3-0.5,0.3l-0.3-0.1l2-4.7l0.3,0.1c-0.3,0.7,0.7,2.3,5.8,2.3
		c2.2,0,3.4-0.5,3.4-1.6c0-2.4-10.7,0.5-10.7-5.4c0-2.5,3.3-4.1,6.8-4.1c3.2,0,6.2,1.1,6.7,1.1s0.7-0.4,0.7-0.4l0.3,0.1l-1.8,3.7
		l-0.3-0.2c0.3-0.7-1.8-1.7-5.6-1.7c-1.1,0-2.8,0.4-2.8,1.4c0,2.1,10.7-0.5,10.7,5.4C212.6,198.7,208.8,199.6,205.2,199.6
		 M187.3,155.4v15.5l0.9,0.7v0.6l-8-1v-0.6l0.9-0.4V132c0-3.8,3.1-6.4,6.8-5.8l5.1,0.8c3.8,0.6,6.8,4.2,6.8,7.9v38.2l0.9,0.7v0.6
		l-8-1.5v-0.6l0.9-0.4v-15.5L187.3,155.4L187.3,155.4z M185.4,199.5h-9v-0.3c0.4,0,0.7-0.2,0.7-0.5v-12.4c0-0.3-0.3-0.5-0.7-0.5
		v-0.3h9c3.9,0,7,2.4,7,7S189.3,199.5,185.4,199.5 M175.7,170.8l-7.2-0.5l-5.4-18.3l-1.9-0.1v16.9l0.9,0.6v0.6l-8-0.1v-0.6l0.9-0.6
		v-43.8l-0.9-0.6v-0.6l12.9,0.5c3.8,0.1,6.8,3.3,6.8,7.1v14.2c0,3-1.9,5.5-4.6,6.3l5.1,17.4l1.4,0.9V170.8z M169.2,185.8
		c-0.4,0-0.7,0.2-0.7,0.5v12.4c0,0.3,0.3,0.5,0.7,0.5v0.3h-5.5v-0.3c0.4,0,0.7-0.2,0.7-0.5v-12.4c0-0.3-0.3-0.5-0.7-0.5v-0.3h5.5
		V185.8z M153.1,194.7h-5.3v4c0,0.3,0.3,0.5,0.7,0.5v0.3H143v-0.3c0.4,0,0.7-0.2,0.7-0.5v-12.4c0-0.3-0.3-0.5-0.7-0.5v-0.3h10
		c2.5,0,4.6,2.1,4.6,4.6C157.7,192.6,155.6,194.7,153.1,194.7 M135.7,170.9c-3.8,0.3-6.8-2.6-6.8-6.3V132c0-3.8,3.1-7.1,6.8-7.4
		l7-0.5c3.8-0.3,6.8,2.6,6.8,6.3V163c0,3.8-3.1,7.1-6.8,7.4L135.7,170.9z M137.2,199.5h-4.8v-0.3c0.4,0,0.7-0.2,0.6-0.5l-0.9-2.3
		h-6.7l-0.9,2.3c-0.1,0.3,0.2,0.5,0.6,0.5v0.3h-4.8v-0.4c0.3-0.1,0.6-0.2,0.6-0.4l4.7-12.4c0.1-0.3-0.2-0.5-0.6-0.5v-0.3h7.4v0.3
		c-0.4,0-0.7,0.2-0.6,0.5l4.7,12.4c0.1,0.2,0.3,0.4,0.6,0.4v0.4H137.2z M113.6,198.7c0.2,0.3,0.7,0.5,1.1,0.5v0.3h-5.5v-0.3
		c0.4,0,0.6-0.2,0.4-0.5l-2.8-4h-2.7v4c0,0.3,0.3,0.5,0.7,0.5v0.3h-5.5v-0.3c0.4,0,0.7-0.2,0.7-0.5v-12.4c0-0.3-0.3-0.5-0.7-0.5
		v-0.3H110c2.5,0,4.6,2.1,4.6,4.6c0,2.3-1.7,4.2-3.9,4.6L113.6,198.7z M90.8,179.8c-3.8,1.1-6.8-1.1-6.8-4.8v-32.6
		c0-3.8,3.1-7.7,6.8-8.8l7-2.1c3.8-1.1,6.8,1.1,6.8,4.8v32.6c0,3.8-3.1,7.7-6.8,8.8L90.8,179.8z M109.2,174.3l0.9-0.8v-43.7
		l-0.9-0.4v-0.6l8-1.5v0.6l-0.9,0.8v39.4l6.8-1.2l0.6-1l0.6-0.1v6.5l-15.1,2.7V174.3L109.2,174.3z M79.4,150.2l-8,3.5v-0.6l0.9-1v-4
		c0-1.2-1-1.8-2.2-1.2l-2.1,0.9c-1.2,0.5-2.2,1.9-2.2,3.1v30.6c0,1.2,1,1.8,2.2,1.2l2.1-0.9c1.2-0.5,2.2-1.9,2.2-3.1v-2.1l-0.9-0.2
		v-0.6l8-3.5v0.6l-0.9,1v3.1c0,3.8-3.1,8.2-6.8,9.8l-5.1,2.2c-3.8,1.6-6.8-0.1-6.8-3.9v-32.6c0-3.8,3.1-8.2,6.8-9.8l5.1-2.2
		c3.8-1.6,6.8,0.1,6.8,3.9v4.9l0.9,0.2V150.2L79.4,150.2z M156,71.2L40.3,147c0.4,9.5,1.4,18.9,2.8,28.1c9.1,38.8,23,71.4,39.3,98.6
		l31.6-32.6l6.5,5.7l35.6-36.6l35.5,36.6l6.5-5.7l31.6,32.6c16.3-27.2,30.2-59.8,39.3-98.6c1.4-9.2,2.3-18.6,2.8-28.1L156,71.2
		L156,71.2z"/>
	<path id="path5899" class="st4" d="M126.1,194.3h5.1l-2.6-6.7L126.1,194.3z"/>
	<path id="path5901" class="st4" d="M165.4,129.8l-4.2-0.2v16.7l4.2,0.2c1.2,0,2.2-0.9,2.2-2.1v-12.3
		C167.6,130.8,166.7,129.8,165.4,129.8"/>
	<path id="path5903" class="st4" d="M141.2,129.8l-4,0.3c-1.2,0.1-2.2,1.2-2.2,2.4v30.6c0,1.2,1,2.1,2.2,2l4-0.3
		c1.2-0.1,2.2-1.2,2.2-2.4v-30.6C143.4,130.6,142.4,129.7,141.2,129.8"/>
	<path id="path5905" class="st4" d="M184.6,188.6h-3.4v7.7h3.4c2.1,0,3.9-1,3.9-3.9C188.4,189.7,186.7,188.6,184.6,188.6"/>
	<path id="path5907" class="st4" d="M193.7,135c0-1.2-1-2.3-2.2-2.5l-2.1-0.3c-1.2-0.2-2.2,0.6-2.2,1.8v15.8l6.4,1V135H193.7z"/>
	<path id="path5909" class="st4" d="M165.3,275.3l-9.3-6.7l-9.3,6.7l3.5,10.9h11.4L165.3,275.3z"/>
	<path id="path5911" class="st4" d="M165.3,248.7l-0.4-1.3c-2.8-0.9-5.7-1.4-8.8-1.4s-6.1,0.5-8.8,1.4l-0.4,1.3l9.3,6.7L165.3,248.7
		z"/>
	<path id="path5913" class="st4" d="M131.9,259.9c-2.3,4.1-3.6,8.7-3.6,13.7c0,0.3,0,0.5,0,0.8l4.5-2.5l1.4-0.8l-1.1-5.3
		L131.9,259.9L131.9,259.9z"/>
	<path id="path5915" class="st4" d="M178.9,265.8l-1.1,5.3l1.4,0.8l4.5,2.5c0-0.3,0-0.5,0-0.8c0-5-1.3-9.7-3.6-13.7L178.9,265.8z"/>
	<path id="path5917" class="st4" d="M148.1,329.2c-1.4,0-2.5-0.8-2.5-1.7c0-0.9,1.1-1.7,2.5-1.7s2.5,0.8,2.5,1.7
		C150.6,328.5,149.5,329.2,148.1,329.2 M148.1,323.5c-2.7,0-5.5,1.3-5.5,4c0,2.4,1.9,4,4.5,4c2.3,0,4.3-1.2,4.3-1.2s-0.2,3.2-4,3.2
		c-2.5,0-3.1-0.8-3-1.4l-0.2-0.1l-1.8,3.1l0.3,0.1c0,0,0.2-0.3,0.5-0.3c0.2,0,1.5,0.7,4.2,0.7c3.6,0,7.1-2.1,7.1-6.2
		C154.5,325.7,152.4,323.5,148.1,323.5"/>
	<path id="path5919" class="st4" d="M163.9,330c1.4,0,2.5,0.8,2.5,1.7c0,0.9-1.1,1.7-2.5,1.7s-2.5-0.8-2.5-1.7S162.5,330,163.9,330
		 M167.8,327.1l1.8-3.1l-0.3-0.1c0,0-0.2,0.3-0.5,0.3c-0.2,0-1.5-0.7-4.2-0.7c-3.6,0-7.1,2.1-7.1,6.1c0,3.9,2.1,6.2,6.4,6.2
		c2.7,0,5.5-1.3,5.5-4c0-2.4-1.9-4-4.5-4c-2.3,0-4.3,1.2-4.3,1.2s0.2-3.2,4-3.2c2.5,0,3.1,0.8,3,1.4L167.8,327.1L167.8,327.1z"/>
</g>
</svg>
