<?xml version="1.0" encoding="utf-8"?>
<!-- Generator: Adobe Illustrator 21.1.0, SVG Export Plug-In . SVG Version: 6.00 Build 0)  -->
<!DOCTYPE svg PUBLIC "-//W3C//DTD SVG 1.1//EN" "http://www.w3.org/Graphics/SVG/1.1/DTD/svg11.dtd">
<svg version="1.1"
	 id="svg7020" inkscape:version="0.48.1 " sodipodi:docname="FC Dallas logo.svg" xmlns:cc="http://creativecommons.org/ns#" xmlns:dc="http://purl.org/dc/elements/1.1/" xmlns:inkscape="http://www.inkscape.org/namespaces/inkscape" xmlns:rdf="http://www.w3.org/1999/02/22-rdf-syntax-ns#" xmlns:sodipodi="http://sodipodi.sourceforge.net/DTD/sodipodi-0.dtd" xmlns:svg="http://www.w3.org/2000/svg"
	 xmlns="http://www.w3.org/2000/svg" xmlns:xlink="http://www.w3.org/1999/xlink" x="0px" y="0px" width="300px" height="300.7px"
	 viewBox="0 0 300 300.7" style="enable-background:new 0 0 300 300.7;" xml:space="preserve">
<style type="text/css">
	.st0{fill:#E81F3E;}
	.st1{fill:#FFFFFF;}
	.st2{fill:#2A4076;}
	.st3{fill:#CCCBCC;}
</style>
<sodipodi:namedview  bordercolor="#666666" borderopacity="1" fit-margin-bottom="0" fit-margin-left="0" fit-margin-right="0" fit-margin-top="0" gridtolerance="10" guidetolerance="10" id="namedview7291" inkscape:current-layer="svg7020" inkscape:cx="-292.43016" inkscape:cy="125.307" inkscape:pageopacity="0" inkscape:pageshadow="2" inkscape:window-height="731" inkscape:window-maximized="1" inkscape:window-width="1280" inkscape:window-x="-4" inkscape:window-y="-4" inkscape:zoom="0.3940779" objecttolerance="10" pagecolor="#ffffff" showgrid="false">
	</sodipodi:namedview>
<g id="g7028" transform="matrix(0.44089928,0,0,-0.44089928,-5.7263379,310.48459)">
	<path id="path7030" inkscape:connector-curvature="0" class="st0" d="M690.4,655.6c0,0-118.1,48.6-337.2,48.6S16,655.6,16,655.6
		c-28-350,143-545.3,337.2-633.5C547.4,110.3,718.3,305.5,690.4,655.6z"/>
	<path id="path7032" inkscape:connector-curvature="0" class="st1" d="M353.2,696.2c191.4,0,306.2-37.8,329.6-46.3
		c1.7-23.2,2.6-45.9,2.6-68.2c0-129.4-29.2-242.5-87.1-336.9c-56.5-92.1-141.2-166-245.1-213.9C249.3,78.9,164.5,152.7,108.1,244.8
		c-57.9,94.5-87.1,207.5-87.1,336.8c0,22.3,0.9,45.1,2.6,68.3C47,658.5,161.8,696.2,353.2,696.2z"/>
	<path id="path7034" inkscape:connector-curvature="0" class="st2" d="M494.2,300c0,0-7-1-10.7-11.2l-20.2,0.3
		c0,0-7.2,10.1-21.1,10.2c0,0-13-7.1-11.8-17.3c0,0,3.3,5.6,11.1,5.7c5.1-1.9,7.4-7.6,7.4-7.6s-2.8-12.4-18.1-17.3
		c0,0-18.4,10.6-32.5,11.2c-14.1,0.7-33.8-16.9-52.3-1.3c-18.5,15.6-16.7,39.8-9,56.1c0,0-43.8-30.6-7.7-72.5
		c0,0-60.4-40.3-86.6-132c33.2-24.6,70.1-46.7,110.5-67.3c33.8,17.3,65.2,35.5,94,55.5c-36.5,25.7-58.5,71.3-28,131l8.2-3.8l38.4,3
		l6,9.7l14.1,0.9c0,0,13.2,13.8,14.9,23.9C500.9,277,487.6,285.7,494.2,300z"/>
	<path id="path7036" inkscape:connector-curvature="0" class="st2" d="M671.4,639.1c0,0-119.2,45.8-318.2,45.8S35,639.1,35,639.1
		c-1.9-71.8,2.3-135,12.2-191.1c88.4,29.6,109.4-41.3,181.2-43.9l79.9-0.8c13.3,13.5,32.5,20.5,32.5,20.5l68.4-0.5
		c14.2-7.1,28.6-18.1,28.6-18.1s21.7-0.3,47.1,1.8c49.5,4,69.1,56.3,174,39.9C669.1,503.3,673.3,566.9,671.4,639.1z"/>
	<path id="path7038" inkscape:connector-curvature="0" class="st1" d="M81.9,490.9l22.1,4.3v60.2l19.4,3.7v21.3l-19.4-3.8v27.3
		l19.4,4c0,7.4,0,14.5,0,21.9l-41.5-9.5C81.9,620.3,81.9,490.9,81.9,490.9z"/>
	<path id="path7040" inkscape:connector-curvature="0" class="st1" d="M164.4,637.5c-23.4-3.8-25-7.6-25.2-30.3v-82.5
		c0.2-21.2,1.7-23.6,25.2-21.2c23.7,2.9,27.1,5.4,27.3,26.5v25.9l-22.1-2v-25.2c0-3.5-2.2-4.6-4.1-4.9c-1.8-0.1-4.2,0.2-4.2,4.3
		v81.6c0,3.3,1.8,4.9,3.9,5.1c2.3,0.3,4.4-1,4.4-4.2v-16.1l22.1,2.3v16.7C191.6,637.1,188.2,640.5,164.4,637.5z"/>
	<path id="path7042" inkscape:connector-curvature="0" class="st1" d="M283.6,648.6l-30.3-2.2V511.5l31,1.8
		c19.3,1.1,22.4,3.8,22.7,22.7v84.6C306.6,646.4,302.9,649.3,283.6,648.6 M284.9,537.1c-0.1-3-0.4-4.1-3.4-4.3l-6.1-0.5v91.1
		l6.1,0.5c2.1,0,3.3-1,3.4-5.8V537.1z"/>
	<path id="path7044" inkscape:connector-curvature="0" class="st1" d="M335.3,650.1l-13.3-135.9l20.4,0.3l1.7,23.7l12.1,0.2
		l1.9-23.4l20.4-0.2l-13.4,135.9L335.3,650.1 M345.3,558.7l5,53.4l4.8-53.3L345.3,558.7z"/>
	<path id="path7046" inkscape:connector-curvature="0" class="st1" d="M417.1,648.8l-22.1,0.9V514.3l37.4-1.2v19.6l-15.3,0.5V648.8z
		"/>
	<path id="path7048" inkscape:connector-curvature="0" class="st1" d="M470.8,530.3v114.6l-22.1,1.9V512l37-2.9l0,19.9L470.8,530.3
		L470.8,530.3z"/>
	<path id="path7050" inkscape:connector-curvature="0" class="st1" d="M513.6,639.9l-13.3-132l20.4-1.9l1.7,24.2l12-1.1l1.7-24.6
		l20.4-2.3l-13.4,133.9L513.6,639.9 M523.5,550.9l4.9,51.4l4.8-52.3L523.5,550.9z"/>
	<path id="path7052" inkscape:connector-curvature="0" class="st1" d="M624.5,584v13c-0.2,21.6-3.9,26.7-27.5,31.3
		c-23.7,4-25,0.9-25.2-21.9v-18.2c0.2-11.3,2.3-17.7,9.6-24.1l16-12.8c3.1-2.7,5-5.8,5-9.9v-21.1c0-3.2-2.6-3.6-4.5-3.5
		c-1.8,0.4-4,2-4,4.9l0.1,18.9l-22.1,2.7v-19.2c0.2-21.2,2.7-24.4,26.1-28c23.8-3.1,26.4-2,26.6,19.8v27c-0.2,8.7-2.9,16-9.7,21.9
		l-16.8,13.6c-2.8,2.5-4,4.7-4,9.3v15.2c0,3.2,2.1,4,4,3.8c1.9-0.4,4.5-3,4.5-6.4v-13L624.5,584L624.5,584z"/>
	<path id="path7054" inkscape:connector-curvature="0" class="st1" d="M392.6,167.2h-34.8l-1.8,30l-20.9-30h-34.7l22.8-20
		l-17.8-31.1l33.3,19.3l22.6-19l-2.2,31L392.6,167.2z"/>
	<path id="path7056" inkscape:connector-curvature="0" class="st0" d="M506.1,366.1l-36-8.1c-6.2-4.3-17-13.5-10.9-21.1l35-37
		c-6.7-14.3,6.6-23,6.6-23c-1.8-10.1-14.9-23.9-14.9-23.9l-14.1-0.9l-6-9.7l-38.4-3l-8.2,3.8c-30.5-59.7-8.5-105.3,28-131
		C558.2,189.2,631.1,290.3,659,447C556.6,441.2,555.8,378,506.1,366.1z"/>
	<path id="path7058" inkscape:connector-curvature="0" class="st0" d="M214.5,356.7c-83.3,10.5-87,90.1-167.3,91.4
		c14.5-81.9,41.2-148.7,79.3-204.8c44.7,54.5,92.7,90.6,121.9,109.6C236.1,354.1,224.3,355.4,214.5,356.7z"/>
	<path id="path7060" inkscape:connector-curvature="0" class="st0" d="M430.2,394.2c-7.4,11.3-25.4,12.9-22.4,21.6
		c-8.2-4.2-7.1-11.5-2-16.1c6.4-5.8-4.8-10.5-7.1-3.7c-2.8-3.3-2.8-8.7,3.4-14c6.2-5.4,19.7-5.4,24.9-20.4
		C426.2,371.9,439.5,379.8,430.2,394.2z"/>
	<path id="path7062" inkscape:connector-curvature="0" class="st2" d="M499.6,388.8c-19-1.9-44.9-3.1-44.9-3.1
		c4.5-5.4,6.2-11.6,6.2-11.6s-20.6-16.2-1.7-37.1c-6,7.6,4.7,16.8,10.9,21.1l36,8.1C555.8,378,556.6,441.2,659,447
		C549.9,452.1,545.8,393.4,499.6,388.8z"/>
	<path id="path7064" inkscape:connector-curvature="0" class="st2" d="M329.6,395.1c4.6-13.4-3.7-17.8-3.7-17.8l-99,5.2
		c-90.5,8.3-87.7,79.4-179.7,65.4c80.3-1.3,84.1-80.8,167.3-91.4c9.8-1.3,21.6-2.6,33.8-3.8c7.4-0.8,15-1.5,22.4-2.2
		c-18.5-13.9-25.1-33.7-25.1-33.7c57.8,11.1,79,28.1,85.7,35.2C350.7,371.1,334.5,393.6,329.6,395.1z"/>
	<path id="path7066" inkscape:connector-curvature="0" class="st2" d="M377.6,369.2c0,0-12.2-6.8-19.7-21.2c0,0,36,3.1,63.1-11.6
		C408.8,359.2,397,364,377.6,369.2z"/>
	<path id="path7068" inkscape:connector-curvature="0" class="st2" d="M550.8,146.1h6.4v-19.3h2.3v19.3h6.7v2.3h-15.4V146.1z"/>
	<path id="path7070" inkscape:connector-curvature="0" class="st2" d="M584.1,148.4l-5.6-17.6l-5.5,17.6h-3.7v-21.6h2.3v18.3
		l5.8-18.3h2.3l5.8,18.3v-18.3h2.3v21.6H584.1z"/>
	<path id="path7072" inkscape:connector-curvature="0" class="st3" d="M333.1,475.7h-18.6c-10.1,0-15.2-0.9-15.2-7.8v-2.5
		c0-5,2.2-7.8,14.8-7.8h12.2c5.1,0,7.6,0.7,9.7,2.1v-3.3c0-2.2-1.9-3.4-6.4-3.4h-30.7v-6h30.7c14,0,18.7,2.5,18.7,11v7.8
		C348.3,473.1,343.3,475.7,333.1,475.7 M329.2,463.4h-11.4c-5.3,0-6.6,0.7-6.6,3.1c0,2.4,1.4,3.1,6.4,3.1h11.9c5,0,6.4-0.7,6.4-3.1
		C336,464.1,334.6,463.4,329.2,463.4z"/>
	<path id="path7074" inkscape:connector-curvature="0" class="st3" d="M392.7,465.1h-12.2c-5.1,0-7.6-0.7-9.7-2.1v3.3
		c0,2.2,1.9,3.4,6.4,3.4h29.2v6h-29.3c-13.9,0-18.7-2.5-18.7-11v-7.8c0-7.3,5.1-9.9,15.3-9.9h18.6c10.1,0,15.3,0.9,15.3,7.8v2.4
		C407.5,462.3,405.3,465.1,392.7,465.1 M389.1,453.1h-11.9c-5,0-6.4,0.8-6.4,3.1c0,2.4,1.4,3.1,6.6,3.1h11.4c5.3,0,6.6-0.7,6.6-3.1
		C395.5,453.8,394.1,453.1,389.1,453.1z"/>
</g>
</svg>
