<?xml version="1.0" encoding="utf-8"?>
<!-- Generator: Adobe Illustrator 21.1.0, SVG Export Plug-In . SVG Version: 6.00 Build 0)  -->
<!DOCTYPE svg PUBLIC "-//W3C//DTD SVG 1.1//EN" "http://www.w3.org/Graphics/SVG/1.1/DTD/svg11.dtd">
<svg version="1.1"
	 id="svg2" inkscape:version="0.48.5 r10040" sodipodi:docname="D.C._United_logo_(2016).svg" xmlns:cc="http://creativecommons.org/ns#" xmlns:dc="http://purl.org/dc/elements/1.1/" xmlns:inkscape="http://www.inkscape.org/namespaces/inkscape" xmlns:rdf="http://www.w3.org/1999/02/22-rdf-syntax-ns#" xmlns:sodipodi="http://sodipodi.sourceforge.net/DTD/sodipodi-0.dtd" xmlns:svg="http://www.w3.org/2000/svg"
	 xmlns="http://www.w3.org/2000/svg" xmlns:xlink="http://www.w3.org/1999/xlink" x="0px" y="0px" width="300px" height="318.5px"
	 viewBox="0 0 300 318.5" style="enable-background:new 0 0 300 318.5;" xml:space="preserve">
<style type="text/css">
	.st0{fill:#FFFFFF;}
	.st1{fill:none;}
	.st2{fill:#EF3E42;}
</style>
<path d="M291.9,38c-2,5-6.3,9.7-10.6,13.5c-5.2,4.5-14.1,8.6-19.4,9.4V13.9c-6.8-1.4-46.4-9.8-111.9-9.8C84.5,4.2,45,12.5,38.2,13.9
	v46.9c-5.4-0.9-14.3-5-19.4-9.4C14.4,47.7,10.1,43,8.1,38c-2.7,6.2-3.7,14.1-3.5,20.9C5,70.8,9,77.6,14.5,85.6c0,0-4,8.5-3.1,25.2
	c0.7,14.2,8.9,25.7,12.7,30.9c-4.3,25,7.3,42,14.4,50.1c8.7,10,20.4,15.2,20.4,15.2c3.7,9.8,13.4,31.5,26.4,48.4
	c15.8,20.5,38.7,44.4,64.4,57.8c25.8-13.4,49.1-37.4,64.9-57.8c13-16.9,22.7-38.5,26.4-48.4c0,0,11.7-5.2,20.4-15.2
	c7.1-8.2,18.6-25.1,14.4-50.1c3.8-5.2,11.9-16.8,12.7-30.9c0.9-16.7-3.1-25.2-3.1-25.2c5.5-8,9.5-14.8,9.9-26.8
	C295.6,52.1,294.5,44.2,291.9,38"/>
<path class="st0" d="M300,59.8c-0.3,11.5-4.7,20.4-9.5,26.5c0,0,2.7,8.9,2.7,20.3c0,21.1-9.9,32.3-12.4,36.1c2.1,14-0.5,27.4-5.9,38
	c-6.6,13-15.6,22-29.8,29.1c0,0-10.7,26.7-24.7,45.9c-30,41.1-64.6,60.8-70.6,62.8c-6.5-2.1-40.1-21.5-70.2-62.8
	c-14-19.2-24.7-45.9-24.7-45.9c-14.2-7.1-23.2-16.1-29.8-29.1c-5.3-10.5-8-24-5.9-38c-2.5-3.8-12.4-15-12.4-36.1
	c0-11.3,2.7-20.3,2.7-20.3c-4.7-6.1-9.2-15-9.5-26.5C-0.2,52.8,0.5,42.3,6.4,31c0.7-1.4,1.7-2.8,2.4-3.8c0,0,1.4,5.5,4.1,10.3
	c1.7,3,3.5,5.7,7.6,9.4c5,4.6,10.3,6.9,13.5,8l0-44.1C54.1,6.3,94.9,0,149.8,0c54.9,0,95.4,6.3,116.3,10.8l0,44.1
	c3.2-1,8.5-3.4,13.5-8c4-3.7,5.9-6.4,7.6-9.4c2.7-4.8,4.1-10.3,4.1-10.3c0.7,0.9,1.6,2.3,2.4,3.8C299.5,42.3,300.2,52.8,300,59.8"/>
<sodipodi:namedview  bordercolor="#666666" borderopacity="1" fit-margin-bottom="0" fit-margin-left="0" fit-margin-right="0" fit-margin-top="0" gridtolerance="10" guidetolerance="10" id="namedview4" inkscape:current-layer="g160" inkscape:cx="2.7547816" inkscape:cy="21.973143" inkscape:pageopacity="0" inkscape:pageshadow="2" inkscape:window-height="838" inkscape:window-maximized="1" inkscape:window-width="1600" inkscape:window-x="-8" inkscape:window-y="-8" inkscape:zoom="90.509668" objecttolerance="10" pagecolor="#ffffff" showgrid="false">
	</sodipodi:namedview>
<rect x="0" y="0" class="st1" width="300" height="318.5"/>
<path id="path3033" inkscape:connector-curvature="0" sodipodi:nodetypes="cccccccccccccc" class="st0" d="M150.4,315
	c45.8-26.1,73.4-63.7,91.9-107c19-10.8,37.5-22.4,36.8-67c11.4-14.3,12.2-31.8,9.2-54.7c8.8-17,10.5-34.9,3.4-56.3
	c-4.2,17.6-15.3,20.1-27.8,26.6l2.2-44.3c-73.3-13-149.7-14.3-230.2,0l0.8,44.5c-12.7-6-28.4-8.9-28.6-27.4
	C2.7,47.8-0.5,63.2,11,81.6c-4.4,26.8-1,47,11.9,59.4c-5.4,37.2,9.8,55.7,34.6,65.7C68.3,250.3,100.8,285.5,150.4,315z"/>
<g id="g156" transform="translate(-0.38939625,-189.1226)">
	<path id="path158" inkscape:connector-curvature="0" class="st2" d="M204.7,402.2c12.3-4,26.9-9,26.9-9l-162.6,0c0,0,15,5.3,27.4,9
		c10.7,3.2,23.5,7.8,27.4,16.6h53.1C181.2,410,194.1,405.6,204.7,402.2 M118.5,448.4c-3,5.6-6.9,10.3-8.6,12.8h81.5
		c-1.7-2.5-5.5-7.3-8.8-12.8c-2.5-4.1-4.7-8.1-6.1-12.8h-52.3C122.9,440,120.8,444.2,118.5,448.4 M191.3,371.1h-9l7.2,5.3l-2.8,8.5
		l7.2-5.3l7.2,5.3l-2.8-8.5l7.2-5.3h-8.9l-2.8-8.5L191.3,371.1z M147.2,371.1h-8.9l7.2,5.3l-2.8,8.5l7.2-5.3l7.2,5.3l-2.8-8.5
		l7.2-5.3h-8.9l-2.8-8.5C150,362.6,147.2,371.1,147.2,371.1z M105.3,362.6l2.8,8.5h8.9l-7.2,5.3l2.8,8.5l-7.2-5.3l-7.2,5.3l2.8-8.5
		l-7.2-5.3h8.9C102.5,371.1,105.3,362.6,105.3,362.6z"/>
</g>
<path d="M204.7,16c0,0-7.5-0.5-10.5-0.7c-4.2-0.3-10-0.6-10-0.6l-2.2,4.5l8,0.5v40.1c0,0,7.5,0.5,7.4,0.5V20.1l7.4,0.5L204.7,16z"/>
<path d="M224.7,57.8l-9.1-1.1l0-16.2l4.9,0.5l2.7-5.1l-7.5-0.8V21.7l7.9,0.8l0-4.7c0,0-5.1-0.5-7.3-0.8c-1.9-0.2-8-0.8-8-0.8v44.8
	c0,0,5.6,0.6,7.8,0.8c2.4,0.3,8.7,0.9,8.7,0.9L224.7,57.8z"/>
<polygon points="179.1,14.5 171.7,14.2 171.7,58.9 179.1,59.3 "/>
<polyline points="163.9,14 156.5,13.9 156.4,30.4 149,13.9 142.1,13.9 142.1,58.6 149.5,58.6 149.5,27.7 156.7,41.9 156.7,58.6 
	163.9,58.7 163.9,14 "/>
<path d="M135,14l-7.5,0.2v37.7c0,2.7-1.5,3.1-3,3.1c-1.9,0-2.9-0.8-2.9-2.8V14.4l-7.4,0.3v37.1c0,3.9,1.6,5,2.3,5.7
	c1.4,1.3,4.6,2.1,7.9,2c3.9-0.2,6.1-1,8.1-2.4c1.8-1.3,2.6-3.4,2.6-5.8V14"/>
<path d="M92.2,15.9c-1.3,0.1-5.5,0.4-8,3c-2.3,2.4-2.2,5.5-2.2,6.6v28.4c0,2.6,1,4.6,2.7,6c0.8,0.6,2.6,2,7.4,1.6
	c4.1-0.4,6.3-1.7,7.6-2.8c2.2-1.9,2.3-4.4,2.3-5.5l0-10.5l-7.3,3.1l0,7.6c0,2.3-0.8,3.3-2.6,3.6c-1.2,0.1-2.7,0-2.7-2.9V23.2
	c0-1.7,0.9-2.8,2.4-2.9c1.5-0.2,2.8,0.5,2.8,2.5l0,8.8l7.3-3.1l0-4.3c0-2.3-0.2-4.1-1-5.4C99.2,16.3,95.3,15.7,92.2,15.9"/>
<path d="M107.4,60.2c0.7-0.1,1.3-0.4,1.8-1c0.5-0.6,0.7-1.2,0.6-2c-0.1-0.7-0.4-1.4-0.9-1.9c-0.6-0.5-1.2-0.7-1.9-0.7
	c-0.7,0.1-1.3,0.4-1.8,1c-0.5,0.6-0.7,1.2-0.6,2c0.1,0.7,0.4,1.4,0.9,1.9C106.1,60.1,106.7,60.3,107.4,60.2"/>
<path d="M76,62.9c0.7-0.1,1.3-0.4,1.8-1c0.5-0.6,0.7-1.2,0.6-2c-0.1-0.7-0.4-1.4-0.9-1.9c-0.6-0.5-1.2-0.7-1.9-0.7
	c-0.7,0.1-1.3,0.4-1.8,1c-0.5,0.6-0.7,1.2-0.6,2c0.1,0.7,0.4,1.4,0.9,1.9C74.6,62.7,75.2,62.9,76,62.9"/>
<path d="M249.7,31.6c0-1.1,0.1-4.7-0.4-6.3c-0.7-2-1.6-2.8-3-3.6c-1.3-0.8-3.6-1.2-6.8-1.7c-3.1-0.5-10.4-1.4-10.4-1.4v44.9
	c0,0,4.6,0.6,6.1,0.8c1.5,0.3,7.1,1,8.3,1c2.5,0,3.1-0.5,3.9-1c1.5-0.9,2.3-2.7,2.3-5.3L249.7,31.6z"/>
<path d="M70.8,28.4c0-1.3-0.1-4.3-1-5.8c-0.8-1.5-1.9-2.3-3-2.8c-1.1-0.5-2.8-0.7-6.1-0.2c-3.1,0.4-10.6,1.6-10.6,1.6l0,44.4
	c0,0,4.5-0.6,6.1-0.8c1.7-0.2,7-0.9,8.2-1.1c2.5-0.5,3.4-1.4,4.1-2.1c1.5-1.4,2.4-3.4,2.4-6L70.8,28.4z"/>
<path d="M149.8,305.5c12.2-6.4,31.4-24.4,41.3-33.4l-81.6,0C119.1,283,138.7,299.6,149.8,305.5"/>
<path d="M123.5,229.7c1.1,1.9,1.5,4.5,1.7,7.3c0.3,3.7-0.9,8.3-1.3,9.6h52.3c-0.5-1.3-1.6-5.9-1.3-9.6c0.2-2.8,0.6-5.3,1.8-7.3
	H123.5z"/>
<path d="M179.7,236.5c-1,10.7,13.2,26.3,16.8,29.8c8.1-8.4,15.5-18.4,21.1-27c5-7.9,11.3-19.7,14.7-28.3c-10,3.9-18.9,6.6-27.4,9.3
	C194.5,223.7,180.5,228,179.7,236.5"/>
<path d="M95.2,220.5c-8.2-2.5-17.4-5.6-27.4-9.4c3.4,8.6,9.7,20.4,14.7,28.3c5.6,8.7,13.1,18.7,21.2,27.1c4-4.2,16.7-19.2,16.7-30
	C120.4,228.3,105.6,223.8,95.2,220.5"/>
<path d="M280.4,90.8c2.9,10.7,1.5,21.3-0.3,27.8c-5.9,20-22.6,27.4-35.4,34.6c-6.1,3.4-10.9,6.5-14.3,9.5
	c-11.9,10.5-9.8,17.9-9.8,17.9c4.3-8.6,17.2-14.2,28.5-19.9c15.4-7.8,20.4-14.9,20.4-14.9c2.3,13.4-1.9,25.9-7.2,34.6
	c-11.6,18.7-30.3,23.4-30.8,23.7H68.6c-0.6-0.3-19.3-5-30.8-23.7c-5.4-8.7-9.5-21.2-7.3-34.6c0,0,4.9,7.1,20.4,14.9
	c11.3,5.7,24.2,11.3,28.5,19.9c0,0,2.2-7.5-9.8-17.9c-3.4-3-8.2-6-14.3-9.5c-12.8-7.2-29.6-14.6-35.4-34.6
	c-1.9-6.4-3.3-17.1-0.3-27.8c0,0,2.7,9.2,22.7,19.2c14.5,7.2,24.4,14.1,28.8,24c0,0,3.4-12.3-9.9-22.2c-3.8-2.8-6.9-4.8-15.4-9.4
	c-5.6-3.1-18.3-9.5-27.3-22.6c-5.6-8.3-9.3-18.1-7.5-28.7c0,0,1.8,4,8.7,8.2C28,64.4,37,67,49.8,70.5c12,3.3,32.6,7.3,44.8,14.1
	c5.5,3.1,9,7.4,9.1,12.4c0.2,13-11.5,25.3-11.5,42.2c0,10.6,5.5,17.6,17.3,17.6c5.6,0,9.9-2,13.1-4.9c4-3.6,6.1-8.6,6.1-13
	c0-10.8-7.7-13.2-9.4-14c4.1-1.7,7-4.4,7.4-8.5c0.3-3.3-0.3-5.6-0.9-6.9c-1.1-2.4-2.4-4-2.4-4s3.7,1.3,8.7,1.8
	c12.7,1.3,17.2-0.7,23.6-0.7c6.1,0,11.8,3,11.6,9c0,0,3-0.9,7.2-0.9c9.3,0,12.6,5.6,12.6,10.6c0,7.5-5,11.1-6.3,11.5
	c-0.7-3.4-4.8-5.1-7.9-5.1c-4.5,0-9.9,2.9-9.9,10.2c0,4.9,2.7,8.5,4.4,10c2.6,2.2,7.8,5,18.3,5c14.2,0,22.3-7.1,22.3-17.7
	c0-16.9-11.8-29.1-11.5-42.2c0.1-4.9,3.5-9.2,9.1-12.4c12.2-6.8,32.7-10.8,44.8-14.1C263,67,272,64.4,280.3,59.3
	c6.9-4.2,8.7-8.2,8.7-8.2c1.8,10.5-1.9,20.4-7.5,28.7c-9,13.2-21.7,19.5-27.3,22.6c-8.4,4.7-11.6,6.6-15.4,9.4
	c-13.3,10-9.9,22.2-9.9,22.2c4.4-9.9,14.2-16.8,28.8-24C277.7,100.1,280.4,90.8,280.4,90.8"/>
<path d="M199.5,147.2c1.4-1.7,2.4-4.7,2.4-7.9c0-5.5-2-12.7-5.8-21.6c-2.4-5.5-6.3-14.3-5.7-22.5c0.4-5.6,4.6-10.9,10.9-14.2
	c10.4-5.6,24.7-9,24.7-9c-22.5-2.3-48.9-4-76.2-4c-27.5,0-53.5,1.7-76.1,4c0,0,14.1,3.3,24.7,9c6.3,3.3,10.5,8.6,10.9,14.2
	c0.6,8.2-3.4,17-5.7,22.5c-3.8,8.9-5.9,16.1-5.8,21.6c0,3.2,1,6.2,2.3,8c1.7,2.3,4.2,4.7,10,4.7c9.6,0,13.2-8.6,13.2-13.7
	c0-5-2.6-7.5-4.5-9.1c-2.6-2.2-6.1-3.8-8.1-4.4c0,0,11-3.5,11-10c0-5.3-3.2-11.3-7.3-15.7l0.3-0.3c1.1,0.6,5.2,2.2,8.7,2.8
	c3.8,0.7,9.4,1.3,15.6,1.3c8.5,0,12.3-1,18.6-1c6.5,0,12.3,3.1,13.8,9c0,0,3.5-0.5,6.9-0.2c7.8,0.8,13.1,6.3,13.2,13.4
	c0.3,14-11.7,18.6-14,18.9c0,0,0.5-1.1,0.2-2.8c-0.2-1.7-1.8-3.9-4.3-3.9c-3.6,0-5.5,3-5.3,6c0.3,6.5,7.6,9.3,15,9.7
	c1.1,0.1,1.9,0.1,3,0.1C192.7,151.9,197,150.2,199.5,147.2"/>
<path class="st0" d="M62.8,59.3c-0.4,0.4-1.2,0.6-1.7,0.7l-3.6,0.5l0-36.1l3.8-0.5c0.9-0.1,1.3,0,1.7,0.4c0.4,0.4,0.4,1.2,0.4,2.5
	l0,30.7C63.4,58.1,63.4,58.8,62.8,59.3"/>
<path class="st0" d="M242.3,58.6c0,0.9-0.1,1.3-0.4,1.5c-0.4,0.3-1.1,0.3-1.9,0.2l-3.4-0.5V23.9l3.7,0.5c1.1,0.1,1.4,0.4,1.7,1
	c0.2,0.4,0.3,1.1,0.3,2.4C242.3,28,242.3,58.6,242.3,58.6z"/>
<path class="st0" d="M162,153.6c-0.7-0.7-4.3-5.3-4.4-11c-0.3-9.8,6.5-15.6,15.2-15.6c6.5,0,8.4,3.8,8.4,3.8
	c0.7-0.8,1.8-3.6,1.4-6.1c-0.7-4.1-4.2-5.8-9.7-5.9c-5.7,0-9.3,1.6-9.3,1.6l-0.7,0.3c0,0,1.1-5.1-2.7-8.1c-2.9-2.3-7.9-1.6-12.2-0.8
	c-5.4,0.9-13.8,0.9-18.1-1.3c0,0,2.3,3.4,1.8,7.8c-0.4,3.3-2.8,5.6-4.1,6.5c2.3,1.7,6.6,4.7,6.6,13.2c0,7-4.7,13.7-6.7,15.3
	c4.1-0.7,8.6-1,11.5,0.1c6.9,2.5,8.1,7.4,8.9,9.8l0.6-0.3c-0.6-3.2-0.8-9,2.5-10.8c2.6-1.4,7.6,0.2,10.8,1.9
	C161.9,154,161.9,153.6,162,153.6"/>
<path d="M162.7,120.9c-0.8-0.6-1.8-1-3-1.4c-1.4-0.4-3.2-0.8-7.2-0.6c-2.5,0.1-5.7,0-5.7,0s2.8,3.7,4,4.7c2,1.5,5.3,0.1,8-1
	C160.1,121.9,162.7,120.9,162.7,120.9"/>
<path class="st2" d="M198.2,187.2l7.2-5.3h-8.9l-2.8-8.5l-2.8,8.5H182l7.2,5.3l-2.8,8.5l7.2-5.3l7.2,5.3
	C201,195.8,198.2,187.2,198.2,187.2z"/>
<path class="st2" d="M154.1,187.2l7.2-5.3h-8.9l-2.8-8.5l-2.8,8.5h-8.9l7.2,5.3l-2.8,8.5l7.2-5.3l7.2,5.3
	C156.8,195.8,154.1,187.2,154.1,187.2z"/>
<path class="st2" d="M109.3,187.2l7.2-5.3h-8.9l-2.8-8.5l-2.8,8.5h-8.9l7.2,5.3l-2.8,8.5l7.2-5.3l7.2,5.3
	C112.1,195.8,109.3,187.2,109.3,187.2z"/>
</svg>
