<?xml version="1.0" encoding="utf-8"?>
<!-- Generator: Adobe Illustrator 21.1.0, SVG Export Plug-In . SVG Version: 6.00 Build 0)  -->
<!DOCTYPE svg PUBLIC "-//W3C//DTD SVG 1.1//EN" "http://www.w3.org/Graphics/SVG/1.1/DTD/svg11.dtd">
<svg version="1.1"
	 id="svg2" inkscape:version="0.48.5 r10040" sodipodi:docname="D.C._United_logo_(2016).svg" xmlns:cc="http://creativecommons.org/ns#" xmlns:dc="http://purl.org/dc/elements/1.1/" xmlns:inkscape="http://www.inkscape.org/namespaces/inkscape" xmlns:rdf="http://www.w3.org/1999/02/22-rdf-syntax-ns#" xmlns:sodipodi="http://sodipodi.sourceforge.net/DTD/sodipodi-0.dtd" xmlns:svg="http://www.w3.org/2000/svg"
	 xmlns="http://www.w3.org/2000/svg" xmlns:xlink="http://www.w3.org/1999/xlink" x="0px" y="0px" width="300px" height="318.5px"
	 viewBox="0 0 300 318.5" style="enable-background:new 0 0 300 318.5;" xml:space="preserve">
<style type="text/css">
	.st0{clip-path:url(#SVGID_2_);}
	.st1{fill:#FFFFFF;}
	.st2{fill:#EF3E42;}
	.st3{fill:#231F20;}
</style>
<sodipodi:namedview  bordercolor="#666666" borderopacity="1" fit-margin-bottom="0" fit-margin-left="0" fit-margin-right="0" fit-margin-top="0" gridtolerance="10" guidetolerance="10" id="namedview4" inkscape:current-layer="g160" inkscape:cx="2.7547816" inkscape:cy="21.973143" inkscape:pageopacity="0" inkscape:pageshadow="2" inkscape:window-height="838" inkscape:window-maximized="1" inkscape:window-width="1600" inkscape:window-x="-8" inkscape:window-y="-8" inkscape:zoom="90.509668" objecttolerance="10" pagecolor="#ffffff" showgrid="false">
	</sodipodi:namedview>
<g id="g148" transform="matrix(0.06814849,0,0,0.06814849,50.322777,217.07202)">
	<g>
		<defs>
			<polygon id="SVGID_1_" points="-738.4,1488.8 3663.7,1488.8 3663.7,-3185.3 -738.4,-3185.3 			"/>
		</defs>
		<clipPath id="SVGID_2_">
			<use xlink:href="#SVGID_1_"  style="overflow:visible;"/>
		</clipPath>
		<g id="g150" class="st0">
			<g id="g160" transform="translate(250.5023,523.3287)">
				<path id="path3033" inkscape:connector-curvature="0" sodipodi:nodetypes="cccccccccccccc" class="st1" d="M1218.2,913.9
					C1890.6,531.4,2294.6-20.7,2566.3-656.3c278.6-158.3,550.2-328.6,539.3-983.3c167.2-209.5,179.4-466,135.2-802.3
					c128.4-249.5,154.6-512.8,50.4-825.7c-61.1,258.7-224.6,294.8-407.6,390.9l31.7-650.3c-1075.8-191.2-2196.8-210.4-3378.2,0
					l11.9,652.3c-186.6-88.3-416.1-130.7-419.2-402.6c-79.5,269.6-126.3,495.8,42.5,765.4c-64.9,393.3-14.4,690.4,174.5,872.3
					c-78.6,546.2,144,817.4,507.5,963.5C12.9-36.4,490.5,480.7,1218.2,913.9z"/>
				<g id="g3859">
					<g id="g156" transform="translate(-0.38939625,-189.1226)">
						<path id="path158" inkscape:connector-curvature="0" class="st2" d="M2009.1-393.2c180.5-58.2,395.3-131.8,395.3-131.8
							L18.1-525.2c0,0,220.6,77.6,402.4,132.6C576.8-345.2,765.2-277.9,823-148.6h778.7C1665.1-277.9,1853.8-343.2,2009.1-393.2
							 M744.4,285.6c-44.4,82-100.9,150.5-126.5,187.3h1196.3c-25.6-36.9-80-106.8-129.1-187.3c-36.5-59.9-68.8-118.5-90-187.2H828
							C808.8,161.9,778.1,223.5,744.4,285.6 M1813.4-849.3H1682l106.3,77.2l-40.6,124.9l106.3-77.2l106.3,77.2l-40.6-124.9
							l106.3-77.2h-131.3L1854-974.2L1813.4-849.3z M1166-849.3h-131.3l106.3,77.2l-40.6,124.9l106.3-77.2l106.2,77.2l-40.6-124.9
							l106.2-77.2h-131.3l-40.6-124.9C1206.5-974.2,1166-849.3,1166-849.3z M550.5-974.2l40.6,124.9h131.3l-106.3,77.2l40.6,124.9
							l-106.3-77.2l-106.3,77.2l40.6-124.9l-106.3-77.2h131.3C509.9-849.3,550.5-974.2,550.5-974.2z"/>
					</g>
					<path id="path162" inkscape:connector-curvature="0" class="st3" d="M2014.7-3473.2c0,0-110.1-7.9-154.5-10.6
						c-61.3-3.7-147-8.6-147-8.6l-32.5,65.5l117.7,6.7l0,588.8c0,0,110.4,7.6,108.1,7.5l0-589.9l108.7,7.5L2014.7-3473.2z
						 M2308.7-2860.7l-133.2-15.5l0.3-237.1l71.2,7.4l39.3-75.4l-110.7-11.6v-197.2l116,12.4l0.5-68.6c0,0-74.5-7.7-107.6-11.4
						c-27.2-3-117.1-11.6-117.1-11.6v657.4c0,0,82.8,8.3,113.9,11.6c34.8,3.7,128,13.7,128,13.7L2308.7-2860.7z M1639.5-3496.3
						l-108.4-3.7v655.4l108.4,6.2C1639.5-2838.4,1639.5-3496.3,1639.5-3496.3z M1416.3-3503l-109.3-1.1l-0.3,241.8l-109.4-242.8
						l-101.4,0.4v655.9l108.3,0V-3302l105.6,208.6v244.4l106.5,2.1V-3503 M991.4-3502.6l-110.6,2.8v552.9
						c0,38.9-22.4,45.8-44.6,46.2c-27.4,0.4-42.8-11.7-42.8-41.6v-554.6l-109.2,5.1v544c0,56.8,23.1,73.7,34.1,83.5
						c20.8,18.5,67.6,31.1,116.6,29.1c57.8-2.3,90.2-14.5,118.3-35.4c26.1-19.5,38.2-50.3,38.2-85.7V-3502.6 M364.5-3475.6
						c-19.2,1.3-80.2,5.2-117.4,43.4c-34.4,35.3-32.3,81.1-32.1,97.3v417.4c0.7,37.6,14.6,67.9,39.8,87.7
						c11.8,9.3,38,29.8,108.6,23.3c59.8-5.5,92.7-24.4,110.9-40.5c32.1-28.4,33.5-64.2,33.2-80.4l-0.1-154.7l-107.3,45.3l0.1,111
						c0,33.8-12.1,48.9-37.9,52.1c-16.9,2-39.9-0.4-39.9-42.6V-3368c0-25.6,13.2-40.7,35.5-43.1c22.7-2.5,41.1,7.4,41.1,37.4
						l0.1,129.5l107.4-45.7l-0.2-63.7c0-33.6-3.3-60.1-15.3-78.6C466.9-3469,409.4-3478.7,364.5-3475.6 M587-2825
						c10.4-0.8,19.1-5.5,26.2-14c7-8.5,10.1-18.2,9.3-29.1c-0.8-10.9-5.4-20-13.6-27.3c-8.2-7.3-17.5-10.6-27.9-9.8
						c-10.4,0.9-19.1,5.5-26.1,14.1c-7,8.5-10.1,18.3-9.3,29.1c0.8,10.8,5.3,19.9,13.6,27.2C567.3-2827.4,576.6-2824.2,587-2825
						 M125.6-2785.8c10.4-0.8,19.2-5.5,26.2-14c7-8.5,10.1-18.2,9.3-29.1c-0.8-10.9-5.4-19.9-13.6-27.3s-17.5-10.6-28-9.7
						c-10.4,0.9-19.1,5.5-26.1,14.1c-7,8.5-10.1,18.3-9.3,29.1c0.8,10.8,5.4,19.9,13.6,27.2C105.9-2788.2,115.2-2785,125.6-2785.8
						 M2566.5-2848.2c0,12.7-2.2,18.9-6.3,22.1c-6.6,5.1-16.5,4.1-27.3,2.5l-50.4-7.2v-526.4l54.4,7.7c16.2,2.2,21,6.3,25.1,15.4
						c2.9,6.4,4.5,16.2,4.5,35.8C2566.5-3298.3,2566.5-2848.2,2566.5-2848.2z M2675.5-3245c0-15.5,2-68.6-5.9-92.2
						c-9.8-29.6-23.4-41.1-43.3-53.2c-19.2-11.6-53.1-17.7-99.9-25.3c-46.2-7.3-153.2-20.2-153.2-20.2v658.3c0,0,67.6,8.7,89.8,12.3
						c22.1,3.7,104.7,15,121.9,15.2c36.4,0.4,45.7-7.3,56.5-14.1c21.9-13.8,34.4-40.2,34.4-78.1L2675.5-3245z M-67-2838.4
						c-6.5,6.1-17.3,8.5-25.4,9.6l-52.4,6.9l-0.4-530.2l55.6-7.5c12.5-1.7,19.5,0.7,24.6,6.2c5.4,5.7,6,17,6.1,36.6l0.4,450.8
						C-58.6-2856.1-59-2845.8-67-2838.4 M50.2-3291.8c0-19.3-1.8-62.7-14.5-85.2c-12.2-21.4-28.1-34.4-44.5-41.1
						c-16.5-6.7-41.4-9.6-90.1-2.8c-46.2,5.6-155.6,23.5-155.6,23.5l0.6,652.2c0,0,66-8.5,89.5-11.8c25-3.5,102.4-12.9,119.8-16.6
						c36.2-7.5,50-20.8,60.8-30.6c21.9-19.9,34.5-49.9,34.5-87.8L50.2-3291.8z M1208.6,774.2c178.5-94.5,460.5-358,606.1-490.8
						l-1197.9,0.1C758,443.4,1046.3,688.3,1208.6,774.2 M822.6-337.8c16.3,28.3,21.9,66,24.9,106.5c4.1,54.5-13,121.9-19.7,140.5
						H1595c-6.8-18.6-23.8-86-19.7-140.5c3-40.5,9.4-78.2,25.7-106.5H822.6z M1648.5-238.3c-14.1,156.9,194,385.7,246.5,438
						c118.4-123.4,227.5-269.4,309.2-396.6c74-115.2,166.2-288.4,216-415.2c-146.8,56.5-277.3,97.4-401.8,136.8
						C1864.7-426.5,1659.6-362.7,1648.5-238.3 M407.4-472.6c-119.9-37.4-255-82-401.8-138.5c49.9,126.7,142.1,299.9,216,415.2
						C303.3-68.8,414,78.8,532.4,202.3c59.2-61.2,245-282.1,245-439.6C777.4-358.7,561.3-424.6,407.4-472.6 M1919.2-961l106.3-77.2
						h-131.3l-40.6-124.9l-40.6,124.9h-131.3l106.3,77.2l-40.6,124.9l106.3-77.2l106.3,77.2C1959.8-836.1,1919.2-961,1919.2-961z
						 M1388.7-1454.1c-10.7-9.8-62.9-77.2-65.1-161.9c-3.7-143.2,94.7-229,223.4-229c95.1,0,123.7,56,123.7,56
						c9.8-11.8,26.4-53.3,20.4-88.9c-10.3-60.6-61.2-85.8-142-85.9c-84.2-0.1-136.6,23.4-136.6,23.4l-10.4,3.9
						c0,0,15.5-75.2-39.7-119.1c-42.4-33.8-115.6-22.8-179.2-12c-79.6,13.1-202,13.2-265.7-18.6c0,0,34,50.6,26.7,114
						c-5.5,47.9-41.4,81.8-60.8,95.7c33.4,24.7,96.8,68.4,96.8,194.1c0,102.7-68.6,200.5-98,224.2c59.9-11,126.2-14.6,169,1
						c100.9,36.7,118.2,108.8,131.2,144l9.4-3.9c-9-47.6-11.8-132.3,37.2-158.7c38.8-20.8,111.2,2.6,157.8,27.4
						C1386.7-1448.3,1386.8-1455.2,1388.7-1454.1 M1271.7-961l106.3-77.2h-131.3l-40.6-124.9l-40.6,124.9h-131.3l106.3,77.2
						l-40.6,124.9l106.3-77.2l106.3,77.2C1312.3-836.1,1271.7-961,1271.7-961z M615.6-961l106.3-77.2H590.6L550-1163.1l-40.6,124.9
						H378.1L484.3-961l-40.6,124.9L550-913.3l106.3,77.2C656.2-836.1,615.6-961,615.6-961z M3125.9-2375.9
						c43,157,22.6,313.2-5.1,407.7c-85.9,293.1-331.9,401.7-520,507.5c-89.8,50.6-159.6,95-210,139.1
						c-175.3,153.5-143.3,263.2-143.3,263.2c63.2-126,253-208.5,418.9-292.3c226.3-114.3,298.8-218.4,298.8-218.4
						c33.2,196.8-27.3,379.9-106.3,507.6c-169.8,274.3-444.5,343.3-452.6,347.4H17.8c-8.1-4.1-282.6-73.1-452.4-347.4
						c-79.1-127.7-139.5-310.8-106.4-507.6c0,0,72.5,104.1,298.9,218.4c165.9,83.8,355.6,166.2,418.9,292.3
						c0,0,32-109.7-143.3-263.2c-50.4-44.1-120.2-88.5-210-139.1c-188.1-105.9-434.1-214.4-520-507.5
						c-27.7-94.5-48.1-250.7-5.1-407.7c0,0,40.2,135.7,333.7,281.7c212.8,105.9,358,206.3,421.9,351.8c0,0,49.3-179.9-145.4-326.1
						c-55.7-41.8-101.6-70.1-225.3-138.4c-82-45.3-267.9-138.8-399.9-331.7c-82.9-121.2-137.2-266.3-110.7-420.6
						c0,0,26.7,58.1,127.3,120.3c121.8,75.3,254.5,113.5,441.3,164.1c176.6,47.8,478.9,107.2,657.4,206.7
						c80.7,45,132.1,109.2,133.2,181.3c2.9,190.6-168.6,371.8-168.6,619.6c0,155.7,80.5,258.1,254.3,258.1
						c82,0,145.7-29.4,192.7-72.2c58.2-53,89.4-126.5,89.4-190.3c0-158.1-112.7-193.1-138.4-205.9c60.7-24.8,102.4-64.6,108.4-125
						c4.7-47.9-4.8-81.9-13.9-101.3c-16.5-35.5-35.2-58-35.2-58s53.7,19.2,127.4,26.8c186.9,19.4,252.3-10.4,345.8-10.4
						c90,0,173.6,43.6,169.8,132.4c0,0,43.7-13.5,105.6-13.5c136.3,0,185.5,82.2,185.5,156.2c0,110.5-72.9,163.6-91.9,169.2
						c-11-49.7-70.3-75.3-116.3-75.3c-65.9,0-145.9,42.7-145.9,149.7c0,71.2,39.3,125.3,64.2,146.8c37.7,32.7,114,72.9,268.7,72.9
						c207.7,0,327.6-104.4,327.6-260.1c0-247.8-172.8-427.7-168.6-619.6c1.6-72.1,51.2-135,133.9-181.3
						c178.3-100,480.1-158.9,656.7-206.8c186.8-50.6,319.5-88.8,441.3-164.1c100.6-62.2,127.3-120.3,127.3-120.3
						c26.5,154.3-27.8,299.4-110.7,420.6c-132,193-317.9,286.4-399.9,331.7c-123.7,68.3-169.6,96.5-225.3,138.4
						c-194.7,146.2-145.4,326.1-145.4,326.1c63.9-145.5,209.1-245.9,421.9-351.8C3085.7-2240.2,3125.9-2375.9,3125.9-2375.9
						 M3294.1-3151.5c-29,73.5-92.6,142.6-155.9,197.5c-75.7,65.7-206.5,125.5-285.2,138.4v-688.4
						c-99.8-20.8-681.5-143.7-1641.9-143.7c-960.3,0-1540,122.9-1639.8,143.7v688.4c-78.7-12.9-209.5-72.7-285.2-138.4
						c-63.3-54.9-126.9-124-155.9-197.5c-38.9,91.7-54,207.6-50.9,306.2c5.4,175.6,64.1,275.1,145,392.7c0,0-58.3,125-45.3,370.3
						c11,207.8,131.2,376.7,186.3,453.6c-62.8,366.9,106.6,615.8,210.8,735.5C-296.4-746.9-124-670.1-124-670.1
						C-69.2-525.9,72.1-208,263.3,39.6C495,339.7,830.5,691.8,1208.6,888.4c378.2-196.6,720.6-548.7,952.4-848.8
						c191.2-247.6,332.5-565.5,387.3-709.7c0,0,172.4-76.8,299.8-223.1c104.3-119.7,273.6-368.6,210.8-735.5
						c55.2-76.8,175.3-245.8,186.3-453.6c13-245.3-45.3-370.3-45.3-370.3c81-117.6,139.6-217.2,145-392.7
						C3348-2943.9,3333-3059.8,3294.1-3151.5 M3412.9-2830.7c-4.4,168.3-69.1,299.4-138.8,389c0,0,40,130.9,39.7,297.2
						c-0.6,310-145.6,474.3-182.4,530.1c31.2,205.4-8,402.6-86.4,557c-97.1,191.1-229.3,322.7-437.3,427.7
						c0,0-157.4,392.5-362.9,674.2c-439.8,603-947.2,892.1-1035.7,921.1C1113.1,934.9,621,649.9,179.3,44.4
						C-26.1-237.3-183.5-629.8-183.5-629.8c-208-104.9-340.2-236.6-437.3-427.7c-78.4-154.3-117.5-351.6-86.4-557
						c-36.7-55.8-181.7-220.1-182.4-530.1c-0.3-166.3,39.7-297.2,39.7-297.2c-69.7-89.7-134.4-220.7-138.8-389
						c-2.7-103.5,7.1-257.3,93.4-423.1c10.8-20.8,25.3-41.4,35-55.1c0,0,20,80.1,59.9,150.9c24.7,43.8,51.6,83.3,110.8,137.6
						c73,66.9,150.6,101.8,198.1,116.8l-0.6-646.8c296.6-65.4,896-158.2,1702-158.2c806.1,0,1399.8,92.8,1706.1,158.2l-0.6,646.8
						c47.6-14.9,125.1-49.8,198.1-116.8c59.2-54.3,86.1-93.8,110.8-137.6c39.9-70.8,59.9-150.9,59.9-150.9
						c9.7,13.7,24.2,34.3,35,55.1C3405.7-3088,3415.5-2934.2,3412.9-2830.7 M1938.3-1549.3c20-24.6,35.3-69.5,35.7-116.3
						c0.6-80.3-29.1-186.1-85.4-316.9c-34.7-80.6-92.5-210-84.1-330.2c5.7-82.8,68.2-159.4,159.6-209
						c152.9-82.9,362.7-131.4,362.7-131.4c-330.8-33.1-718.2-58.8-1118.4-58.8c-403.3,0-784.9,25.1-1116.1,58.8
						c0,0,207.1,48.5,362.7,131.4c91.8,48.9,153.8,126.2,159.6,209c8.3,120.2-49.4,249.6-84.1,330.2
						c-56.3,130.7-86,236.6-85.4,316.9c0.4,46.8,14.7,91.6,33.3,117.3c24.7,34.2,62.3,68.9,146.3,68.9
						c140.7,0,194.2-125.5,194.2-200.3c0-74.1-38.8-109.5-65.9-132.9c-37.6-32.5-90-55.5-118.3-64.4c0,0,162-52,162-146.4
						c0-77.4-47.1-165.9-107.7-230.3l4-4.1c16.6,9.3,76.8,32,128.2,41.4c55.5,10.1,138.2,18.8,228.7,18.8
						c124.5,0,181.2-14.8,273.3-14.8c96,0,181.1,45.4,201.9,132.4c0,0,52-7.3,101.8-2.3c114.1,11.5,192.1,91.8,194.1,196.3
						c4,205.9-172.1,272.3-205.8,277.2c0,0,6.9-16,3.2-41.6c-3.6-24.7-26.2-57.7-63.8-57.7c-53.4,0-80.2,44-78.4,87.7
						c3.9,95.7,111.4,136.6,219.4,142.5c16.4,0.9,28,1.3,43.3,0.9C1839-1479.7,1901.9-1504.5,1938.3-1549.3 M1398.7-1934.5
						c-12.2-8.2-26.7-15.2-44.1-20.5c-20.8-6.3-47.3-11.3-106.1-9.2c-36.2,1.3-83.4,0-83.4,0s40.5,54.9,58.8,68.6
						c29.4,22.1,77.9,2.2,117.7-14.7C1360.8-1919.3,1398.7-1934.5,1398.7-1934.5 M2309.3,214.7l17.9,70.6h17.4l17.9-70.6v70.6h16.8
						v-89.8h-27.3l-16,61.3l-16.2-61.3h-27.1v89.8h16.7C2309.3,285.3,2309.3,214.7,2309.3,214.7z M2254.6,285.3h-18v-74.5h-26.7
						v-15.3h71.4v15.3h-26.6V285.3z"/>
				</g>
			</g>
		</g>
	</g>
</g>
</svg>
