<?xml version="1.0" encoding="utf-8"?>
<!-- Generator: Adobe Illustrator 21.1.0, SVG Export Plug-In . SVG Version: 6.00 Build 0)  -->
<!DOCTYPE svg PUBLIC "-//W3C//DTD SVG 1.1//EN" "http://www.w3.org/Graphics/SVG/1.1/DTD/svg11.dtd">
<svg version="1.1"
	 id="svg2" inkscape:version="0.91 r13725" sodipodi:docname="Sporting Kansas City.svg" xmlns:cc="http://creativecommons.org/ns#" xmlns:dc="http://purl.org/dc/elements/1.1/" xmlns:inkscape="http://www.inkscape.org/namespaces/inkscape" xmlns:rdf="http://www.w3.org/1999/02/22-rdf-syntax-ns#" xmlns:sodipodi="http://sodipodi.sourceforge.net/DTD/sodipodi-0.dtd" xmlns:svg="http://www.w3.org/2000/svg"
	 xmlns="http://www.w3.org/2000/svg" xmlns:xlink="http://www.w3.org/1999/xlink" x="0px" y="0px" width="300px" height="336.6px"
	 viewBox="0 0 300 336.6" style="enable-background:new 0 0 300 336.6;" xml:space="preserve">
<style type="text/css">
	.st0{clip-path:url(#SVGID_2_);}
	.st1{fill:#9FA1A4;}
	.st2{fill:#FFFFFF;}
	.st3{fill:#002B5C;}
	.st4{fill:#91B0D5;}
</style>
<sodipodi:namedview  bordercolor="#666666" borderopacity="1.0" fit-margin-bottom="1" fit-margin-left="0.4" fit-margin-right="0.4" fit-margin-top="1" id="base" inkscape:current-layer="layer1" inkscape:cx="76.230943" inkscape:cy="81.636895" inkscape:document-units="px" inkscape:pageopacity="0.0" inkscape:pageshadow="2" inkscape:window-height="705" inkscape:window-maximized="1" inkscape:window-width="1366" inkscape:window-x="-8" inkscape:window-y="-8" inkscape:zoom="2.8284271" pagecolor="#ffffff" showgrid="false">
	</sodipodi:namedview>
<g id="layer1" transform="translate(-1123.4073,-27.340373)" inkscape:groupmode="layer" inkscape:label="Layer 1">
	<g id="g3406" transform="matrix(1.25,0,0,-1.25,520.35714,995.93368)">
		<g>
			<defs>
				<polygon id="SVGID_1_" points="482.4,505.6 722.4,505.6 722.4,774.9 482.4,774.9 482.4,505.6 				"/>
			</defs>
			<clipPath id="SVGID_2_">
				<use xlink:href="#SVGID_1_"  style="overflow:visible;"/>
			</clipPath>
			<g id="g3408" class="st0">
				<g id="g3414" transform="translate(593.2272,758.3854)">
					<path id="path3416" inkscape:connector-curvature="0" class="st1" d="M114.1-11.5C114.1-11.5,114-11.4,114.1-11.5
						c-30.9,17.9-66.8,28-104.9,28v0h0h0h0h0l0,0c-38,0-73.8-9.9-104.6-27.6c0,0-0.1-0.1-0.2-0.2c-12.6-31-23.1-82.1-7-127.1
						c14.1-39.6,37.8-65.8,64.4-85.3c26.6-19.5,46.4-28.7,46.6-28.8c0,0,0.7-0.3,0.8-0.3c0.2,0,0.8,0.3,0.8,0.3
						c0.2,0.1,20,9.3,46.6,28.8c26.6,19.5,50.3,45.7,64.4,85.3C137.1-93.3,126.7-42.5,114.1-11.5"/>
				</g>
				<g id="g3418" transform="translate(540.9445,644.0406)">
					<path id="path3420" inkscape:connector-curvature="0" class="st2" d="M59.1-131.7c-1.6,0.7-39.2,17.5-70.6,51.9
						c-29.3,32.1-58.1,86-28.7,160.3l0.6,1.6l1.4,1c1.7,1.1,41.8,27.3,99.4,27.3c57.6,0,97.7-26.2,99.4-27.3l1.4-1l0.6-1.6
						c29.4-74.2,0.7-128.1-28.6-160.3c-31.4-34.4-69-51.2-70.6-51.9l-2.2-1L59.1-131.7z"/>
				</g>
				<g id="g3422" transform="translate(589.0542,746.433)">
					<path id="path3424" inkscape:connector-curvature="0" class="st3" d="M109.7-24.1c0,0.1-0.1,0.2-0.3,0.3
						c-2.9,1.9-41.7,26.3-96.2,26.3c-54.6,0-93.6-24.6-96.2-26.3c-0.1-0.1-0.2-0.2-0.2-0.3c-54.7-138.5,96.4-205,96.4-205
						S164.4-162.5,109.7-24.1"/>
				</g>
				<g id="g3426" transform="translate(564.1866,716.3168)">
					<path id="path3428" inkscape:connector-curvature="0" class="st2" d="M83.6-55.7c-0.5-0.1-0.1-0.6,0.1-0.9
						c0.4-0.5,2.9-3.6,3.3-4c0.3-0.4,0.4-0.6,1.1-0.6c0.7,0.2,1.4,0.4,2.1,0.5c1.1,0.2,2.2,0.3,3.3,0.4c0.2,0,0.4,0,0.6,0
						c3.5,0.1,6.1-0.4,6.1-0.5c7.4-1.2,8-7.3,8.1-7.6l0-0.2c0.1-1.4,0.2-4.3-2.9-6.7c-0.1-0.1-0.2-0.3-0.1-0.4
						c0-0.2,0.2-0.3,0.3-0.3c1.2-0.1,2.4-0.2,3.6-0.2c0.3,0,0.7,0,1,0c2.9,0.1,5.1,0.7,6.6,2c1.5,1.3,2.2,3.2,2.2,5.6
						c0,0.1,0,8.8-12.6,12.9c-3.8,1.2-7.9,1.5-10.7,1.5c-2.2,0-3.6-0.2-3.6-0.2c-0.1,0-1.9-0.1-4.7-0.6
						C85.9-55.1,84.8-55.4,83.6-55.7"/>
				</g>
				<g id="g3430" transform="translate(581.8361,688.1289)">
					<path id="path3432" inkscape:connector-curvature="0" class="st2" d="M102.1-85.3c-0.1,0.1-0.3,0.1-0.5,0
						c-4-2.7-8.7-4.1-14.1-4.1c-3.2,0-6.5,0.5-9.7,1.4c-0.8,0.2-1.4,0.4-2,0.7c-1,0.4-1.9,0.8-2.8,1.2c-1.7,0.8-3.4,1.9-4.9,3.1
						c-0.6,0.5-1.2,0.9-1.7,1.4c-6.6,5.8-9.2,12.8-9.3,12.9c-1.8,4.5-2.9,8.3-2.9,13.6c0,2,0.3,4,0.7,6c0,0,0,0,0,0
						c0,0.1,0.1,0.6,0.1,0.6c0.1,0.3-0.1,0.5-0.2,0.7c-0.4,0.4-6.2,7.5-6.6,7.9c-0.3,0.3-0.5,0.9-1,0.8c-1.5-2-2.4-3.8-3-5.1
						c-0.1-0.3-0.3-0.5-0.4-0.8c-0.1-0.1-0.1-0.3-0.2-0.4c0,0,0,0,0-0.1c-1.7-4.1-2.5-8.8-2.3-14c0-0.1,0.6-14.6,11.2-24.5
						c2.9-2.7,6-4.9,9.3-6.6c0.6-0.3,1.3-0.6,1.9-0.9c2.6-1.2,5.4-2.1,8.2-2.7c0.8-0.2,1.6-0.3,2.3-0.4c1.8-0.3,3.6-0.4,5.3-0.4
						c1.5,0,2.3,0.1,2.3,0.1c13.1,0.5,18.8,6,20.2,9.2C102.3-85.6,102.2-85.4,102.1-85.3"/>
				</g>
				<g id="g3434" transform="translate(571.0893,690.5853)">
					<path id="path3436" inkscape:connector-curvature="0" class="st2" d="M90.8-82.8L90.8-82.8L90.8-82.8z M62.1-36.6l8.4-10.4
						c0,0,0.1-0.1,0.1-0.1l0.1-0.1c0.4-0.5,0.8-1,1.2-1.4L72-49c6.4-9.2,9.7-18,9.7-25.9c0-0.7,0-1.3-0.1-2l0-0.5
						c0-0.5-0.1-1-0.2-1.4l0-0.1c0-0.2-0.1-0.4-0.1-0.6c0-0.3-0.1-0.6-0.1-0.9c-0.2-1.1-0.5-2.3-0.9-3.6c-0.1-0.3,0.3-0.5,0.6-0.7
						c0.5-0.3,4.2-2.5,7.9-3.8c0.3-0.1,0.4-0.1,0.5,0.1c0.8,1.8,1.4,3.6,1.9,5.4c0,0.1,0,0.1,0,0.2c1.1,3.9,1.6,7.9,1.6,12
						c0,6.9-1.5,13.6-4.4,19.8c-1.5,3.2-3.6,6.8-6.3,10.5c-0.4,0.6-0.8,1.1-1.2,1.7c-0.1,0.1-0.2,0.3-0.3,0.5l-0.3,0.4
						c-0.4,0.6-0.9,1.1-1.3,1.7c-0.2,0.3-0.5,0.6-0.7,0.9c-0.3,0.4-0.7,0.8-1,1.2l-0.7,0.8c-0.4,0.5-0.8,1-1.3,1.5l-1.8,2.1
						c-2.5,3-5.1,6-7.5,9c-7,8.9-10.7,15.6-11,19.9c-0.1,2.5,0.7,4.4,2.6,5.8c2,1.6,4,2.2,6.9,2.2c1.8,0,3.9-1,5.2-2.5
						c1.3-1.6,1.9-3.1,1.9-4.5l0-0.2c0-1.4,0-4.3-3.1-6.6c-0.1-0.1-0.2-0.3-0.1-0.4c0-0.2,0.2-0.3,0.3-0.3c1.5-0.2,3.1-0.3,4.7-0.3
						c5.9,0,8.9,2.5,8.9,7.4c0.1,2.4-0.8,5.9-5,9.1c-3.3,2.4-7.5,4-11.3,4.1c-5.7,0.3-10.9-1.2-15.8-4.3C45.7,5.9,43.4,1.4,43.4-4
						c0-5.9,3.4-13.2,10-21.8C56.3-29.4,59.2-33,62.1-36.6"/>
				</g>
				<g id="g3438" transform="translate(562.5061,682.4579)">
					<path id="path3440" inkscape:connector-curvature="0" class="st2" d="M81.8-91.3C81.2-91,81-91,80.6-91.6
						c-0.6-0.8-1.3-1.7-2-2.5c-6.7-7.9-15.4-14.7-25.7-20.1c-0.2-0.1-0.3-0.3-0.2-0.5c0.1-0.2,0.2-0.3,0.4-0.3c0,0,0,0,0.1,0
						c11.6,1.9,21.7,6.7,30.1,14.4c0,0,0.1,0.1,0.1,0.1l0.1,0.1c1.2,1.1,2.2,2.1,3.1,3.1c0.6,0.6,1.5,1.6,2.6,3.1
						c0.1,0.2,0,0.3-0.2,0.4C85.2-93,82.4-91.6,81.8-91.3"/>
				</g>
				<g id="g3442" transform="translate(558.8799,705.8269)">
					<path id="path3444" inkscape:connector-curvature="0" class="st3" d="M78-66.7C78-66.7,78-66.7,78-66.7
						C78-66.7,78-66.7,78-66.7"/>
				</g>
				<g id="g3446" transform="translate(506.5596,748.147)">
					<path id="path3448" inkscape:connector-curvature="0" class="st2" d="M23-22.3c-5.1-2.2-10-4.6-14.9-7.4c-1-0.5-1.7-1.5-2-2.4
						c-0.4-1.4-0.9-3-1.3-4.4c-0.2-0.7-0.1-1,0.7-0.8c3.9,1.2,8,2.1,12.2,3c-0.2-0.7-0.5-2-0.6-2.7c-3.4-1.6-6.9-3.5-10.3-5.3
						c0.2,0.9,0.5,1.7,0.7,2.5c-1.4-0.8-2.9-1.7-4.3-2.5c-0.4-1.3-0.7-2.6-1.1-3.9c-0.3-0.9,0.2-1.1,1.2-0.6
						c5.2,2.9,10.5,5.8,15.9,8.2c1.1,0.5,1.9,1.3,2.1,2.2c0.3,1.5,0.7,3.1,1,4.6c0.2,0.7,0,1-0.8,0.9c-4.2-0.7-8.3-1.6-12.3-2.7
						c0.2,0.7,0.5,1.8,0.7,2.5c3.1,1.7,6.3,3.3,9.7,4.8c-0.2-0.7-0.4-1.5-0.5-2.2c1.5,0.7,2.9,1.3,4.4,2c0.3,1.2,0.5,2.4,0.8,3.6
						C24.5-22.1,24-21.8,23-22.3"/>
				</g>
				<g id="g3450" transform="translate(518.4844,752.3682)">
					<path id="path3452" inkscape:connector-curvature="0" class="st2" d="M35.5-17.8c-5.8-1.6-11.5-3.5-17.1-5.8
						c-1.1-5.2-2.3-10.8-3.4-16c1.5,0.6,3.1,1.2,4.6,1.8c0.8,4.2,1.7,8.8,2.6,13c3.3,1.2,6.7,2.3,10.1,3.4c-0.3-1.6-0.6-3.5-0.8-5.1
						c-3.2-1-6.4-2-9.6-3.2c1-0.5,2.1-1,3.2-1.5c2.9,1,5.9,1.9,8.8,2.8c1.1,0.3,1.8,1,1.9,1.9c0.4,2.5,0.8,5.2,1.1,7.7
						C37.1-17.9,36.6-17.5,35.5-17.8"/>
				</g>
				<g id="g3454" transform="translate(529.3193,748.5298)">
					<path id="path3456" inkscape:connector-curvature="0" class="st2" d="M46.9-21.9c-4.2-0.6-8.3-1.3-12.5-2.2
						c0.4,3.1,0.8,6.7,1.2,9.9c3.8,0.8,8.1,1.5,12.1,2.1C47.5-15.2,47.2-18.8,46.9-21.9 M51-9c-6-0.7-12-1.7-17.9-3.1
						c-1.1-0.2-1.8-1-1.9-1.9c-0.6-4.1-1.2-8.4-1.7-12.5c-0.1-0.9,0.5-1.2,1.6-1c6.2,1.4,12.4,2.5,18.7,3.3c1.1,0.1,1.8,0.8,1.9,1.6
						c0.3,4,0.6,8.2,1,12.3C52.7-9.3,52.1-8.8,51-9"/>
				</g>
				<g id="g3458" transform="translate(544.0546,750.639)">
					<path id="path3460" inkscape:connector-curvature="0" class="st2" d="M62.4-19.7c1.1,0,1.8,0.5,1.8,1.3c0,2.3-0.1,4.7-0.1,7
						c0,0.9-0.7,1.5-1.8,1.5c-6.1,0.1-12.2,0-18.2-0.5c-0.2-5-0.4-10.1-0.6-15c1.6,0.1,3.2,0.2,4.8,0.3c0.1,4,0.2,8.3,0.3,12.3
						c3.6,0.2,7.2,0.3,10.8,0.2c0-1.5,0-3,0-4.4c-3.5,0-6.9,0-10.4-0.2c0.8-0.6,8.6-5.7,11.8-7.7c2,0,3.9-0.1,5.9-0.2
						c0,0,0,0.1,0,0.1c-2.8,1.8-5.2,3.6-8,5.4C60.1-19.6,61-19.6,62.4-19.7"/>
				</g>
				<g id="g3462" transform="translate(546.79,753.9946)">
					<path id="path3464" inkscape:connector-curvature="0" class="st2" d="M65.3-16.1c2.8-0.1,5.5-0.4,8.3-0.7
						c0.3-4.1,0.6-8.5,0.9-12.5c1.6-0.2,3.1-0.4,4.7-0.6c-0.3,4-0.7,8.4-1,12.5c2.8-0.4,5.5-0.8,8.3-1.3c-0.1,1-0.2,1.8-0.3,2.8
						c-7,1.3-14,2.1-21,2.4C65.2-14.4,65.2-15.1,65.3-16.1"/>
				</g>
				<g id="g3466" transform="translate(559.7791,746.3826)">
					<path id="path3468" inkscape:connector-curvature="0" class="st2" d="M78.9-24.1c1.6-0.3,3.2-0.7,4.8-1c-0.6,5-1.3,10.3-2,15.3
						c-1.5,0.3-3,0.7-4.5,0.9C77.8-13.9,78.4-19.1,78.9-24.1"/>
				</g>
				<g id="g3470" transform="translate(572.7366,745.1066)">
					<path id="path3472" inkscape:connector-curvature="0" class="st2" d="M92.6-25.5c-4.5,4.7-9,9.8-13.4,14.3
						c-1.5,0.4-3.1,0.8-4.6,1.2c0.8-5.2,1.6-10.5,2.4-15.5c1.6-0.4,3.2-0.8,4.7-1.3c-0.6,3.4-1.2,7.2-1.7,10.7
						c4.5-4.6,9.1-9.8,13.7-14.5c1.5-0.5,2.9-1.1,4.4-1.7c-1,5-2.1,10.5-3.1,15.7c-1.5,0.6-2.9,1.1-4.4,1.6
						C91.2-18.2,91.9-22.1,92.6-25.5"/>
				</g>
				<g id="g3474" transform="translate(587.6498,736.6887)">
					<path id="path3476" inkscape:connector-curvature="0" class="st2" d="M108.2-34.3c-0.7,2.6-1.6,5.9-2,7.3
						c-3.9,2.2-5.4,3-10,5.3l2.4-3.4c2.1-1.1,2.5-1.3,4.1-2.2c0.4-1.3,0.8-2.9,1.1-3.8c-3.8,2.2-6.5,3.5-10.4,5.3
						c-1,3.9-1.8,7.4-2.6,10.7c3.9-1.8,6.5-3.1,10-5c0.2-0.8,0.4-1.8,0.4-1.8l4.1-2.3c0,0-0.6,2.1-0.9,3.3c-0.3,1-0.9,1.8-1.9,2.4
						c-5.2,2.8-8.8,4.7-15.2,7.5c-1,0.4-1.5,0.1-1.3-0.8c1-4.3,2-9.1,3-13.4c0.2-0.9,1-1.6,2-2.1c5.5-2.4,10-4.7,15.5-7.7
						C108-35.7,108.6-35.7,108.2-34.3"/>
				</g>
				<g id="g3478" transform="translate(498.3892,755.0197)">
					<path id="path3480" inkscape:connector-curvature="0" class="st2" d="M14.4-15c-1.2,0.6-2.3,1.2-3.4,1.7
						c-0.4-1.3-0.8-2.7-1.2-4.2c-0.8-0.4-1.6-0.9-2.4-1.3c1.1,3.5,2.2,6.8,3.2,9.8c0.7,0.4,1.4,0.7,2.1,1c-0.3-1.1-1-3.5-1-3.5
						l5.1,5.5c0,0,1.9,0.8,2.8,1.2c0,0,0.4,0.1,0.4,0.1c-1.8-1.9-4.6-5-6.6-7.2c1.4-0.7,2.4-1.2,3.9-1.9c0,0,0-0.1,0-0.1
						C16-14.3,15.4-14.5,14.4-15"/>
				</g>
				<g id="g3482" transform="translate(506.7037,761.6353)">
					<path id="path3484" inkscape:connector-curvature="0" class="st2" d="M23.2-8.1c-0.9-1.5-1.8-3-2.7-4.5c1.2,0.5,2.4,1,3.7,1.4
						C23.8-10.1,23.5-9.1,23.2-8.1 M24.9-13.7c-0.1,0.4-0.3,0.8-0.4,1.3c-1.7-0.6-3.5-1.3-5.2-2c-0.4-0.6-0.8-1.3-1.2-1.9
						c-0.8-0.3-1.5-0.6-2.3-1c0,0,0,0,0,0c2.3,3.6,4.5,7.1,6.6,10.5c0.7,0.3,1.5,0.6,2.2,0.8c0.7-2.3,1.4-4.6,2.2-7c0,0,0,0,0,0
						C26.2-13.2,25.6-13.4,24.9-13.7"/>
				</g>
				<g id="g3486" transform="translate(517.0719,761.8544)">
					<path id="path3488" inkscape:connector-curvature="0" class="st2" d="M34.1-7.9c-1.6,1.4-3.1,2.8-4.6,4.1
						c-0.4-1.9-0.7-3.8-1.1-5.7c-0.7-0.2-1.5-0.4-2.3-0.7c0.6,2.8,1.1,5.5,1.6,8.3c0.7,0.2,1.4,0.4,2.1,0.6c1.5-1.3,3-2.6,4.6-3.9
						c0.3,1.8,0.6,3.6,0.9,5.3c0.7,0.2,1.4,0.3,2.1,0.5c-0.4-2.6-0.8-5.3-1.2-8C35.5-7.5,34.8-7.7,34.1-7.9"/>
				</g>
				<g id="g3490" transform="translate(527.8913,763.9766)">
					<path id="path3492" inkscape:connector-curvature="0" class="st2" d="M45.4-5.6c-2.6-0.4-5.2-0.8-7.8-1.2
						c-0.5-0.1-0.8,0.1-0.8,0.6C36.9-5.7,37-5,37.1-4.4c0.7,0.1,1.5,0.3,2.2,0.4c0-0.4-0.1-0.9-0.1-1.3c1.7,0.3,3.4,0.6,5.1,0.8
						c0,0.4,0.1,0.7,0.1,1.1c-2.2,0.3-4.3,0.6-6.5,0.8c-0.4,0-0.5,0.2-0.5,0.6c0.1,0.7,0.2,1.3,0.2,2c0.1,0.4,0.4,0.8,0.9,0.9
						C41,1.3,43.6,1.7,46.1,2c0.5,0.1,0.8-0.2,0.7-0.6c-0.1-0.6-0.1-1.2-0.2-1.7c-0.7-0.1-1.4-0.2-2.2-0.3c0,0.4,0.1,0.7,0.1,1.1
						c-1.7-0.2-3.3-0.5-5-0.8c0-0.3-0.1-0.6-0.1-0.9c2.1-0.2,4.3-0.5,6.5-0.8c0.4-0.1,0.5-0.3,0.5-0.6c-0.1-0.7-0.1-1.4-0.2-2.1
						C46.3-5.2,45.9-5.6,45.4-5.6"/>
				</g>
				<g id="g3494" transform="translate(536.5942,767.7408)">
					<path id="path3496" inkscape:connector-curvature="0" class="st2" d="M54.6-1.7c-0.7-1.1-1.3-2.3-2-3.4
						c1.2,0.1,2.5,0.2,3.7,0.2C55.7-3.8,55.2-2.7,54.6-1.7 M57.8-7.5c-0.2,0.4-0.5,0.9-0.7,1.3c-1.8-0.1-3.5-0.2-5.3-0.3
						c-0.3-0.5-0.6-0.9-0.8-1.4C50.2-8,49.4-8,48.6-8.1v0c1.7,2.7,3.3,5.3,4.9,7.9C54.3-0.1,55-0.1,55.8,0c1.4-2.4,2.9-4.9,4.3-7.3
						v0C59.3-7.4,58.6-7.5,57.8-7.5"/>
				</g>
				<g id="g3498" transform="translate(549.3453,764.7103)">
					<path id="path3500" inkscape:connector-curvature="0" class="st2" d="M68-4.9c-2.6,0.2-5.3,0.3-8,0.4c-0.5,0-0.9,0.3-0.9,0.7
						c0,0.6,0,1.3,0,1.9c0.8,0,1.5,0,2.2-0.1c0-0.4,0-0.8,0-1.3c1.7-0.1,3.4-0.2,5.2-0.3c0,0.4,0,0.7-0.1,1.1
						c-2.3,0.8-4.6,1.5-6.9,2.2C59.1-0.1,59,0.1,59,0.5c0,0.7,0,1.3-0.1,2c0,0.4,0.3,0.7,0.8,0.7C62.4,3,65,2.9,67.6,2.7
						c0.5,0,0.8-0.3,0.9-0.8c0-0.6,0.1-1.1,0.1-1.7c-0.7,0.1-1.5,0.1-2.2,0.2c0,0.4,0,0.7-0.1,1.1c-1.7,0.1-3.4,0.2-5.1,0.3
						c0-0.3,0-0.6,0-0.9c2.3-0.7,4.5-1.4,6.8-2.2c0.4-0.1,0.6-0.4,0.6-0.7c0-0.7,0.1-1.4,0.1-2.1C68.8-4.7,68.5-4.9,68-4.9"/>
				</g>
				<g id="g3502" transform="translate(564.1968,762.481)">
					<path id="path3504" inkscape:connector-curvature="0" class="st2" d="M83.6-7.2C80.8-6.6,78-6,75.2-5.5
						c-0.5,0.1-0.8,0.4-0.9,0.9c-0.2,2.1-0.5,4.2-0.7,6.3c-0.1,0.5,0.2,0.7,0.7,0.6c2.7-0.5,5.5-1,8.2-1.6c0.5-0.1,0.9-0.5,0.9-0.9
						c0.1-0.7,0.2-1.5,0.3-2.2c-0.7,0.2-1.5,0.3-2.2,0.5c-0.1,0.5-0.1,1-0.2,1.4c-1.9,0.4-3.7,0.8-5.5,1.1c0.2-1.6,0.4-3.3,0.6-4.9
						C78.3-4.6,80.2-5,82-5.4c-0.1,0.5-0.1,1-0.2,1.5c0.7-0.2,1.5-0.3,2.2-0.5c0.1-0.7,0.2-1.5,0.3-2.2C84.4-7.1,84.1-7.3,83.6-7.2"
						/>
				</g>
				<g id="g3506" transform="translate(569.8419,761.0573)">
					<path id="path3508" inkscape:connector-curvature="0" class="st2" d="M89.5-8.7C89-6,88.5-3.3,87.9-0.6
						c0.7-0.2,1.4-0.4,2.1-0.6c0.5-2.7,1.1-5.4,1.7-8.2C91-9.2,90.2-8.9,89.5-8.7"/>
				</g>
				<g id="g3510" transform="translate(577.5983,761.5921)">
					<path id="path3512" inkscape:connector-curvature="0" class="st2" d="M97.7-8.1c0.6-2.3,1.1-4.7,1.7-7.1
						c-0.8,0.3-1.5,0.6-2.2,1c-0.5,2.4-1.1,4.7-1.6,6.9c-1.2,0.4-2.4,0.9-3.6,1.3c-0.1,0.5-0.2,1-0.3,1.5c3-1,6.2-2.1,9.5-3.4
						c0.2-0.6,0.3-1.1,0.5-1.7C100.3-9.1,99-8.6,97.7-8.1"/>
				</g>
				<g id="g3514" transform="translate(586.9073,755.866)">
					<path id="path3516" inkscape:connector-curvature="0" class="st2" d="M107.4-14.2c0.3-1,0.7-2.7,1.1-3.7
						c-0.8,0.4-1.5,0.8-2.3,1.2c-0.3,1-0.6,2.2-0.9,3.2c-2,2.6-4.1,5.5-5.9,7.9c0,0,0,0,0,0.1c0.7-0.3,2.3-1,3.1-1.4
						c1.4-1.8,2.7-3.8,3.7-5c0.9,0.9,1.9,2.3,1.9,2.3s1.3-0.7,2.1-1.1c0,0,0,0,0-0.1C109.3-11.8,108.4-13,107.4-14.2"/>
				</g>
				<g id="g3518" transform="translate(542.0266,700.394)">
					<path id="path3520" inkscape:connector-curvature="0" class="st4" d="M60.3-72.4v19C25.1-55.1-6.9-66.5-32.1-84.6
						c2.2-5.2,4.8-10.4,7.8-15.4C-1-84.3,28.2-74.3,60.3-72.4"/>
				</g>
				<g id="g3522" transform="translate(492.2111,717.8439)">
					<path id="path3524" inkscape:connector-curvature="0" class="st4" d="M7.9-54.1C27.4-41,50-31.5,74.6-26.7
						c-5.3,6.3-10.3,12.1-15.1,17.4C42.2-13.9,26-20.9,11.3-29.7C9.2-38.7,8-46.4,7.9-54.1"/>
				</g>
				<g id="g3526" transform="translate(529.671,725.2335)">
					<path id="path3528" inkscape:connector-curvature="0" class="st4" d="M47.3-46.3C19-50.8-6.9-61.6-28.5-76.9
						c0.6-4.4,1.5-9.1,2.7-14.1c0.4-1.6,0.8-3.2,1.2-4.7c23.9,17.1,53.7,28.4,86.4,31.4C56.8-58,51.9-52,47.3-46.3"/>
				</g>
				<g id="g3530" transform="translate(542.0266,659.3462)">
					<path id="path3532" inkscape:connector-curvature="0" class="st4" d="M60.3-115.6c-8.3-1-16.3-2.6-23.8-4.7
						c10.8-7.1,19.7-11.7,23.8-13.8V-115.6z"/>
				</g>
				<g id="g3534" transform="translate(542.0266,684.017)">
					<path id="path3536" inkscape:connector-curvature="0" class="st4" d="M60.3-89.7v18.3C31.4-73.4,5.1-82.2-16.3-95.8
						c3.3-4.5,6.8-8.9,10.7-13.2C13.3-98.6,35.8-91.7,60.3-89.7"/>
				</g>
				<g id="g3538" transform="translate(542.0266,667.5921)">
					<path id="path3540" inkscape:connector-curvature="0" class="st4" d="M60.3-106.9v17.6c-20-2-38.5-7.2-54.6-14.9
						c4.7-4.4,9.4-8.5,14.1-12.2C32.1-111.7,45.8-108.5,60.3-106.9"/>
				</g>
				<g id="g3542" transform="translate(569.7823,649.8273)">
					<path id="path3544" inkscape:connector-curvature="0" class="st1" d="M89.4-125.6v-7.5h-0.9v7.5h-2.4v0.8h5.7v-0.8H89.4z"/>
				</g>
				<g id="g3546" transform="translate(574.7535,646.1615)">
					<path id="path3548" inkscape:connector-curvature="0" class="st1" d="M94.7-129.4v6.3l-2.3-5h-0.8l-2.3,5v-6.3h-0.9v8.3h0.9
						L92-127l2.6,5.9h0.9v-8.3H94.7z"/>
				</g>
			</g>
		</g>
	</g>
</g>
</svg>
