<?xml version="1.0" encoding="utf-8"?>
<!-- Generator: Adobe Illustrator 21.1.0, SVG Export Plug-In . SVG Version: 6.00 Build 0)  -->
<!DOCTYPE svg PUBLIC "-//W3C//DTD SVG 1.1//EN" "http://www.w3.org/Graphics/SVG/1.1/DTD/svg11.dtd">
<svg version="1.1"
	 id="svg6954" inkscape:version="0.47 r22583" sodipodi:docname="Los_Angeles_Galaxy_logo.svg" xmlns:cc="http://creativecommons.org/ns#" xmlns:dc="http://purl.org/dc/elements/1.1/" xmlns:inkscape="http://www.inkscape.org/namespaces/inkscape" xmlns:rdf="http://www.w3.org/1999/02/22-rdf-syntax-ns#" xmlns:sodipodi="http://sodipodi.sourceforge.net/DTD/sodipodi-0.dtd" xmlns:svg="http://www.w3.org/2000/svg"
	 xmlns="http://www.w3.org/2000/svg" xmlns:xlink="http://www.w3.org/1999/xlink" x="0px" y="0px" width="300px" height="381.3px"
	 viewBox="0 0 300 381.3" style="enable-background:new 0 0 300 381.3;" xml:space="preserve">
<style type="text/css">
	.st0{fill:#FFD900;}
	.st1{fill:#3365B1;}
	.st2{fill:#00245D;}
	.st3{fill:#F5BF0B;}
	.st4{fill:#FCCE19;stroke:#000000;}
	.st5{fill:#C7BFCD;}
	.st6{fill:#FFFFFF;}
	.st7{fill:#FCCE19;}
	.st8{fill:#14162E;}
	.st9{fill:#EAA91C;}
</style>
<sodipodi:namedview  bordercolor="#666666" borderopacity="1" fit-margin-bottom="0" fit-margin-left="0" fit-margin-right="0" fit-margin-top="0" gridtolerance="10" guidetolerance="10" id="namedview7483" inkscape:current-layer="svg6954" inkscape:cx="-110.25138" inkscape:cy="154.45219" inkscape:pageopacity="0" inkscape:pageshadow="2" inkscape:window-height="840" inkscape:window-maximized="1" inkscape:window-width="1440" inkscape:window-x="-4" inkscape:window-y="-4" inkscape:zoom="1.4428449" objecttolerance="10" pagecolor="#ffffff" showgrid="false">
	</sodipodi:namedview>
<defs>
	
	
		<inkscape:perspective  id="perspective35" inkscape:persp3d-origin="118.00652 : 100 : 1" inkscape:vp_x="0 : 150 : 1" inkscape:vp_y="0 : 1000 : 0" inkscape:vp_z="236.01303 : 150 : 1" sodipodi:type="inkscape:persp3d">
		</inkscape:perspective>
	
		<inkscape:perspective  id="perspective2849" inkscape:persp3d-origin="0.5 : 0.33333333 : 1" inkscape:vp_x="0 : 0.5 : 1" inkscape:vp_y="0 : 1000 : 0" inkscape:vp_z="1 : 0.5 : 1" sodipodi:type="inkscape:persp3d">
		</inkscape:perspective>
</defs>
<g id="g6966">
	<path id="path6972" inkscape:connector-curvature="0" class="st0" d="M149.9,381.3C58,333.3,0.9,202.5,0,94
		c31.3-7.3,93.5-20,149.9-94C206.4,73.9,268.6,86.7,300,94C299,202.5,241.9,333.3,149.9,381.3"/>
	<path id="path6974" inkscape:connector-curvature="0" class="st1" d="M19.6,108.4c2.2,47.4,15.7,98.9,37.7,143.3
		c23.9,48.4,56.6,85.8,92.6,107c36.1-21.2,68.9-58.6,92.8-107c22-44.4,35.4-95.9,37.8-143.3c-31.2-7.6-82.4-24.1-130.7-79.6
		C101.7,84.3,50.5,100.8,19.6,108.4"/>
	<path id="path6976" inkscape:connector-curvature="0" class="st2" d="M29,114.9c3,44.9,15.6,91.7,35.9,132.8
		c21.9,44.2,52,79.5,85,100.2c33.1-20.7,63.2-55.9,85.1-100.2c20.3-41,32.9-87.9,35.9-132.8c-32.3-8.4-77.6-25.7-121-73.1
		C106.6,89.2,61.1,106.6,29,114.9"/>
	<path id="path6978" inkscape:connector-curvature="0" class="st3" d="M145.7,20.6l4.2-4.9V0C93.5,73.9,31.3,86.7,0,94l10.4,7.6
		l3.6-0.8C46.8,92.8,102,74.4,145.7,20.6"/>
	<path id="path6980" inkscape:connector-curvature="0" class="st3" d="M299.9,94l-10.7,7.6l-0.2,3.7c-0.1,49-16.9,106.8-39.3,152
		c-24.2,48.8-59.6,87.7-96.8,109.6l-2.9,1.6v12.8C241.9,333.3,299,202.5,300,94H299.9"/>
	<path id="path6982" inkscape:connector-curvature="0" class="st4" d="M246.9,319.9h-2.5V318h7.4v1.9H249v7.6h-2.1L246.9,319.9
		L246.9,319.9z"/>
	<path id="path6984" inkscape:connector-curvature="0" class="st4" d="M261,323.8V320h-0.1c-0.3,1.2-0.7,2.6-1,3.7l-1.2,3.7H257
		l-1-3.7c-0.3-1.1-0.7-2.5-1-3.7c0,1.2,0,2.7-0.1,3.8l-0.2,3.7h-2l0.7-9.5h2.8l1.1,3.2c0.3,1.1,0.5,2.4,0.8,3.3
		c0.2-1,0.7-2.3,0.9-3.3l1-3.2h2.9l0.7,9.5h-2.2L261,323.8"/>
	<path id="path6986" inkscape:connector-curvature="0" class="st5" d="M136.3,231.3H87.4c-3.2,0-6.1-1.1-8.5-3.5
		c-2.4-2.3-3.6-5.2-3.6-8.6v-72.6h18.2v67.8h42.8V231.3"/>
	<path id="path6988" inkscape:connector-curvature="0" class="st6" d="M78.7,148.8v68.6c0,2.1,0.7,3.8,2.4,5.5
		c1.5,1.6,3.3,2.4,5.5,2.4h44.6v-8.6H88.4v-67.9H78.7"/>
	<path id="path6990" inkscape:connector-curvature="0" class="st5" d="M144.6,231.3h18.6l7.2-18.4h28l-6-15.5h-15.8l11.3-28.7
		l24.2,62.7h19.3c0,0-28.7-70.6-29.8-73.5c-2.3-6.3-5.9-11.1-13.8-11.1h-0.2c-7.7,0-11,4.9-13.2,11.1L144.6,231.3"/>
	<path id="path6992" inkscape:connector-curvature="0" class="st6" d="M149.7,225.2h9.4c1.5-4,7.2-18.6,7.2-18.6H193
		c-1.4-3.3-2.1-5.2-2.9-7.2h-21l17.8-45.4l20.9,53.4c0,0.2,4.3,12.3,6.4,17.8h10.2c-4.1-9.7-25-62.2-27.2-67.5
		c-2.2-5.6-4.9-8.5-9.1-8.5h-0.3c-6.3,0-8.6,2.9-10.8,8.3C177,157.5,152.8,217.4,149.7,225.2"/>
	<path id="path6994" inkscape:connector-curvature="0" class="st7" d="M240,261.1c-27.1-5.3-57.7-8-90.2-8
		c-33.8,0-65.7,3.2-93.8,8.9c-12,2.3-22.6,4.6-30,7c6.8,11,14.7,23.4,21.4,33.7c6.7-1.8,13.7-3.3,21-4.8c24.3-4.9,52.1-7.5,81.3-7.5
		c28.3,0,54.6,2.4,78.3,7.1c8.6,1.6,16.8,3.1,24.4,5c6.9-10.6,14.7-22.7,21.6-33.3C265.8,266.9,254.1,263.8,240,261.1"/>
	<path id="path6996" inkscape:connector-curvature="0" class="st8" d="M135,273.1c-0.5-0.5-0.6-1.5-0.6-2.8v-10.6l-5.9,0.3v10.8
		c0,2.3,0.3,3.8,2.2,5.3c2.1,1.8,4.5,1.8,7.6,1.6l6.4-0.3v-4l-6.1,0.3C136.7,274,135.6,273.6,135,273.1"/>
	<path id="path6998" inkscape:connector-curvature="0" class="st8" d="M206.8,262.8l-7-0.7c0,0-3.1,3.7-4.1,4.8
		c-0.8-1.3-3.9-5.4-3.9-5.4l-7.1-0.7c0,0,7.4,9.3,7.9,9.7c-0.5,0.6-8.3,8.5-8.3,8.5l7.2,0.7c0,0,3.6-4,4.4-5.2
		c0.9,1.3,4.2,5.9,4.2,5.9l7.3,0.6c0,0-7.6-9.4-8.1-10.1C199.8,270.4,206.8,262.8,206.8,262.8"/>
	<path id="path7000" inkscape:connector-curvature="0" class="st8" d="M104,272.6c0.7-1.1,2.2-4.8,3.1-6.3c0.8,1.6,2.3,4.6,3.1,5.9
		L104,272.6z M104.3,261.7l-9.7,18.8l6.3-0.5c0,0,0.9-2,1.2-2.8l10-0.8c0.1,0.6,1.2,2.5,1.2,2.5l6.6-0.5l-9.7-17.4L104.3,261.7
		L104.3,261.7z"/>
	<path id="path7002" inkscape:connector-curvature="0" class="st8" d="M63,276c0,3.1,1.3,5.3,3.6,6.6c2.3,1.1,4.5,0.9,7.2,0.6
		l11.1-1.3v-11l-10,1.3v3.6c2.8-0.1,3.2-0.1,4.4-0.3v2.8c-1.1,0.2-5.5,0.7-5.5,0.7c-2.7,0.5-4.3-0.1-4.3-4.1c0-4.6,2.1-5.5,4.3-5.9
		l11.1-1.5v-3.8L73.8,265C66.6,266,63,269.6,63,276"/>
	<path id="path7004" inkscape:connector-curvature="0" class="st8" d="M161.8,270.8c0.7-1.2,2.2-4.5,3.1-6.1c0.8,1.6,2.4,5,3.1,6.2
		L161.8,270.8z M162.2,259.8l-9.7,17.9l6.3,0.1c0,0,1-2.2,1.2-2.7l9.8,0.1c0.3,0.7,1.3,2.9,1.3,2.9l6.6,0.3L168,260L162.2,259.8z"/>
	<path id="path7006" inkscape:connector-curvature="0" class="st8" d="M232.1,266.3c0,0-4.1,4.4-5.1,5.4c-0.8-1.4-4.9-7-4.9-7
		l-6.8-0.8c0,0,8.7,11.1,8.9,11.4v7.9l5.8,0.8v-7.9c0.3-0.2,9.2-8.9,9.2-8.9L232.1,266.3L232.1,266.3z"/>
	<path id="path7008" inkscape:connector-curvature="0" class="st3" d="M261.7,273c-5.9,9.2-13.9,20.5-13.9,20.5
		c-7.3-1.4-15.2-2.9-23.4-4.2c-22.4-3.7-47.7-5.9-74.6-5.9c-27.9,0-54.3,2.3-77.6,6.3c-7,1.3-13.7,2.6-20,4.1l-4.8,8.9
		c5.1-1.3,12.9-3.2,15.6-3.6c0.2,0,5.9,8.8,6.2,8.6c0.1-0.3,4.1-4.2,6.4-6.4c2.7-2.3,7.4-5.9,7.5-5.9c20.8-2.8,43.1-5,66.6-5
		c28.1,0,54.6,2.4,78.3,7.1c11.6,2,20.1,3.9,24.6,5c7.1-10.6,13.9-22,21.3-33.3L261.7,273"/>
	<path id="path7010" inkscape:connector-curvature="0" class="st1" d="M149.4,57.6c0,15.3-5.9,30-16.8,40.9
		c-10.8,10.8-25,16.9-40.5,16.9c-0.3,0-0.5,0.3-0.5,0.7c0,0.4,0.1,0.6,0.5,0.6c15.5,0.1,29.8,6.1,40.5,17.1
		c10.9,10.9,16.8,25.3,16.8,40.7c0,0.1,0.2,0.2,0.2,0.5c0.2,0.1,0.5,0.1,0.6,0h0.2c0.1-0.2,0.3-0.3,0.3-0.5c0-15.6,5.8-30,16.6-40.9
		c11-10.8,25.3-16.8,40.7-16.9c0.3,0,0.6-0.3,0.6-0.7c0-0.3-0.2-0.6-0.6-0.6c-15.4-0.1-29.6-6.1-40.7-17.1
		c-10.7-10.9-16.8-25.3-16.8-40.7c0-0.3-0.1-0.6-0.5-0.6C149.8,57,149.4,57.2,149.4,57.6"/>
	<path id="path7012" inkscape:connector-curvature="0" class="st7" d="M149.9,77.3l0.2,0.2c1.6,20.5,17.6,36.8,38,38.6
		c0.1,0,0.3,0,0.3,0.3c0,0-0.2,0.1-0.3,0.1c-3,0.2-6.1,0.8-8.9,1.8c-16,5.1-27.7,19.1-29.1,36.5c0,0,0,0.2-0.2,0.2
		c-0.1,0-0.1-0.2-0.1-0.2c-1.4-17.4-13.1-31.3-29-36.5c-3-1-5.8-1.6-9-1.8l-0.1-0.1c0-0.3,0-0.3,0.1-0.3c20.4-1.8,36.5-18,38-38.6
		L149.9,77.3"/>
	<path id="path7014" inkscape:connector-curvature="0" class="st9" d="M149.9,77.3l-0.1,0.2c-1.5,20.5-17.6,36.8-38,38.6
		c-0.1,0-0.1,0-0.1,0.3h38.2L149.9,77.3"/>
	<path id="path7016" inkscape:connector-curvature="0" class="st9" d="M149.9,154.9c0.2,0,0.2-0.2,0.2-0.2
		c1.4-17.4,13.1-31.3,29.1-36.5c2.9-1,5.9-1.6,8.9-1.8c0.1,0,0.3-0.1,0.3-0.1h-38.6V154.9"/>
	<path id="path7018" inkscape:connector-curvature="0" class="st6" d="M175.5,116.1c-13.9-0.1-25.4-11.3-25.4-25.1h-0.3
		c0,6.7-2.5,13.1-7.2,17.7c-4.8,4.8-11.1,7.4-17.8,7.7h-0.2c0,0.1,0.2,0.1,0.2,0.1c13.7,0.2,25,11.6,25,25.3c0,0.2,0.1,0.2,0.1,0.2
		c0.2,0,0.2,0,0.2-0.2c0-13.9,11.5-25.3,25.4-25.3l0.1-0.1C175.6,116.1,175.5,116.1,175.5,116.1"/>
</g>
</svg>
