<?xml version="1.0" encoding="utf-8"?>
<!-- Generator: Adobe Illustrator 21.1.0, SVG Export Plug-In . SVG Version: 6.00 Build 0)  -->
<!DOCTYPE svg PUBLIC "-//W3C//DTD SVG 1.1//EN" "http://www.w3.org/Graphics/SVG/1.1/DTD/svg11.dtd">
<svg version="1.1"
	 id="svg2" xmlns:cc="http://creativecommons.org/ns#" xmlns:dc="http://purl.org/dc/elements/1.1/" xmlns:rdf="http://www.w3.org/1999/02/22-rdf-syntax-ns#" xmlns:svg="http://www.w3.org/2000/svg"
	 xmlns="http://www.w3.org/2000/svg" xmlns:xlink="http://www.w3.org/1999/xlink" x="0px" y="0px" width="300px" height="476.3px"
	 viewBox="0 0 300 476.3" style="enable-background:new 0 0 300 476.3;" xml:space="preserve">
<style type="text/css">
	.st0{fill:#E4E5E6;}
	.st1{fill:#8CD2F4;}
	.st2{fill:#E31B23;}
	.st3{fill:#231F20;}
</style>
<path class="st0" d="M152.6,458.1l-13.9-5.9c-4-1.7-6.8-3.1-8.3-4.2l-4.1-3v-5.1c0-26.5-8.2-36.6-30.2-63.5l-3.3-4
	C78.5,355,74.8,345,74.8,323.8v-7.5l5.1-2.9c7.6-4.3,29-16.6,36.3-22.4c3.3-2.6,5.1-5.9,5.1-7.8c0-0.4,0-1-1.1-1.9
	c-7.2-6-42.7-31.9-60.4-44.7l-5.2-3.8l3.8-19.2l44.4,19.8c15.9-3,19.4-1,21.4,0c5.4,2.9,10.1,5.7,17.7,11.2c0-0.1,0-0.1,0-0.2
	c-0.5-5.1-0.9-9.9-0.9-10.1c-0.6-8.5-0.9-17.2-0.9-26.5L139.8,0l14.1,6.3c0.7,0.3,7.1,3.2,14.2,9c9.1,7.4,15.7,15.8,20.2,25.7
	c1.6,3.4,2.7,7.7,3.4,12.9l3.3-15.5l13,13c0.5,0.5,4.8,4.9,9.7,12.3c4.4,6.6,8.7,13.4,12.6,24.3c0.5,1.4,0.9,2.9,1.1,4.6l4.6-10.4
	l10.3,13.4c0.4,0.6,10.8,14.2,14,37.1c0.1,0.5,0.1,1,0.2,1.5l6.2-8.5l7.3,15.1c0.7,1.5,6.7,14.6,5.5,34.4l5.7-5.1l3.9,16.5
	c0.3,1.4,2.9,13.3-1.2,29.7l4.7-2.7l0.4,16.9c0,1.2,0.1,11.4-5.6,24.3l5.4-1.7l-3,16.5c-0.2,1-1.8,9.1-8.3,18.8l5.3-0.6l-6.5,15.5
	c-0.4,0.8-3,7-9.6,13.8l5.9,0.6l-9.4,13.8c-0.4,0.7-3.6,5.1-9.9,9.7l3.7,1.2l-12.2,11.6c-0.5,0.5-3.6,3.3-9.1,6l2.8,1.6l-14.3,8.8
	c-0.8,0.5-8.1,4.8-19.3,5.1c-6.6,0.2-14.9-3.9-30.6-16c-19.8,0-25.6,6.8-25.6,30.4V458.1z M94.9,327.9c0.4,13.5,3,19.1,13.3,31.8
	l3.3,4c8.5,10.5,15.6,19.1,21.1,27.7v-1.7c0-17,2.9-38.5,24.1-46.8l-5.9-5.5l0.2-0.2c-3.2,0.2-6.5-0.2-9.5-1.2l-0.2-0.1
	c-12.8-4.3-17.9-14.7-17.9-25.5C114.8,316.4,102,323.9,94.9,327.9z M133.3,302.4L133.3,302.4C133.3,302.4,133.3,302.4,133.3,302.4
	C133.3,302.4,133.3,302.4,133.3,302.4z M182.7,286.5c0,0.6,0.1,1.1,0.1,1.6c0.3-0.1,0.5-0.2,0.8-0.3L182.7,286.5z M179.8,268.9
	c0.7,2.9,1.3,5.7,1.8,8.4c1.4-1,2.8-1.9,4-2.7L179.8,268.9z M114.7,252c8.3,6.2,15.4,11.5,18.4,14c3.5,2.9,5.9,6.5,7.2,10.6
	c-0.2-4.6-2-8.2-5.5-11.7c-0.8-0.8-1.8-1.7-2.9-2.6c-7.4-5.6-11.9-8.2-15.9-10.4C115.7,251.9,115.3,251.9,114.7,252z M176.5,257.7
	c0.9,2.7,1.7,5.4,2.4,7.9c1.3-1.4,2.6-2.7,3.7-3.9L176.5,257.7z M262.5,253.9l-8.8,5.1C257.7,256.9,260.5,255.2,262.5,253.9z
	 M174.3,245.8c0,2.3,0.3,4.3,0.5,5.8c1-1.7,2-3.2,2.8-4.6L174.3,245.8z M268.3,212.1c-9.2,8.3-21,18.9-32.8,29.6
	c2.5-1.7,4.9-3.5,7.3-5.2c22.3-16.3,24.8-22.1,25.1-22.8C268,213.2,268.2,212.6,268.3,212.1z M259.6,169.2
	c-10.8,14.9-26.5,36.5-40.9,56.4c6.2-6.4,12.7-13.2,18.7-19.9c20.7-23.2,21.9-30.1,22-30.8C259.6,172.9,259.7,171,259.6,169.2z
	 M238.6,125.9c-9.6,21.6-25.1,56.7-38,85.8c7.4-11.4,16-24.8,23.3-37.7c17.2-30.2,16.7-37.9,16.6-38.7
	C240.1,131.9,239.4,128.7,238.6,125.9z M206,82.6c-6.5,30.7-17.8,84.5-24.6,116.4c6.3-16,14.6-37.7,21-57.8
	c11.5-36.2,9.6-45.1,9.1-46.5C209.8,89.8,208,86,206,82.6z M159.8,34.8l0.2,153l0.5-3.1c2.9-18.2,7.7-48.6,10.3-76.4
	c4-41.3,1.2-54.7-0.8-59C167.6,44,164.3,39.2,159.8,34.8z"/>
<g id="layer1" transform="translate(-128.28962,-337.99785)">
	<g id="g4644" transform="matrix(1.25,0,0,-1.25,210.27087,354.94785)">
		<path id="path4646" class="st0" d="M93.3-25l-4.4-20.9C87.6-52,86-59.6,84.2-68l-1-0.5c2,22.5,2,40.5-2,49.1
			c-3.3,7.1-8.5,13.7-15,19C56.9,7,51,7.9,51,7.9l0.1-91.3l-102.7-47.8c-14-6.5-14-23-14-23v-157.1l120-56.1l120,56.1V-26
			l-60.7-28.2c-2.3,5.8-5.2,11.2-8.7,16.1c-1.4,2.1-2.8,4-4.2,5.7C98.4-29.3,93.3-25,93.3-25"/>
	</g>
	<g id="g4648" transform="matrix(1.25,0,0,-1.25,153.6405,374.25747)">
		<path id="path4650" class="st0" d="M28.8-47l5.5-16l5.5,16l16.6-3.2l-11,12.8l11,12.7l-16.6-3.2l-5.5,16l-5.5-16l-16.5,3.2
			l11.1-12.8L12.3-50.2L28.8-47z"/>
	</g>
	<g id="g4652" transform="matrix(1.25,0,0,-1.25,135.52487,449.1686)">
		<path id="path4654" class="st1" d="M8.2-132.2c-14-6.5-14-23-14-23v-76.3c0,0,0,16.5,14,23l226,105.1v76.3L8.2-132.2z"/>
	</g>
	<g id="g4656" transform="matrix(1.25,0,0,-1.25,239.46112,453.70972)">
		<path id="path4658" d="M126.5-137.4c7,8.3,8.4,16,8.4,16s-59.7-19.4-79.4-25.9c4.9,2.2,8.5,3.4,10.6,4.3c8,3.4,60,20.9,65.8,31.8
			c5.7,10.6,5.5,19.4,5.5,19.4s-58.2-33.7-79.1-45.8c4.9,3.5,8.5,5.7,10.6,7.2c7.9,5.6,60.3,36.6,64.1,49.8
			c3.7,12.9,1.5,22.3,1.5,22.3s-55.3-49.9-75.3-68c4.1,4.5,7.3,7.5,9.2,9.5c7.3,7.9,57.1,53.7,58.2,68.9c1.1,14.8-3.6,24.6-3.6,24.6
			s-50-68.9-66.9-92.3c3.5,6,6.4,10.1,8,12.8c6.1,10.3,49.7,71.6,47.3,88.3c-2.3,16.4-9.6,25.9-9.6,25.9S64.1-73.8,50.9-103.7
			c2.5,7.7,4.8,12.9,5.9,16.3c4.2,12.6,37.4,89.3,31,107c-2.7,7.5-5.6,12.3-9.2,17.7s-6.8,8.6-6.8,8.6C70,37.5,56.9-24.6,48.3-65.4
			l-5-28.8c-1.8-10.4-0.1-17.4,0.7-19.9l0.6-1.8c9.6-28.4,2.2-42.1-1.5-46.8l-0.2-0.2c-0.7-0.9-2.5-3-5.3-4.6
			c-2.2-1.2-4.5-1.7-6.9-1.7c-1.4,0-2.8,0.2-4.1,0.6c-12.6,4.2-8,18.4-8,18.5c-1.1-5.9,0.5-9.8,1.9-12c2.2-3.3,5.8-5.2,9.6-5.2
			c6.4,0,9.9,4.4,11.1,5.8l0.1,0.2c3.5,4.4,10.5,17.7,0.7,45.8l0,0c-0.3,0.8-3.1,9.9-1.4,20l6.8,39c4.9,31.1,15,95.7,7,113
			c-3.7,8-9,13.6-14,17.7s-9.5,6.1-9.5,6.1l0.2-154c0-8.2,0.3-15,0.7-20.6c0,0,0.3-3.9,0.7-7.9s2.3-12.4,3.4-16.2l1.3-4.4
			c5-17.5,2.7-28.6-1.3-33.7c-1-1.2-2.6-3.3-5.7-3.3c-3.6,0-7.4,4.2-2.8,14.8c4.5,10.6,6.8,21.8-2.8,31.4c-0.9,0.9-1.9,1.8-3,2.7
			c-6.9,5.2-10.8,7.4-15,9.7c-2.2,1.2-14.2-1.3-14.2-1.3l-28.7,12.8l-0.1-0.5c0,0,41.3-29.8,48.8-36.1c6.9-5.8,3.3-14.9-3.4-20.2
			c-7.6-6-30.1-18.6-30.1-18.6v-1.3c0-15,2.2-21.2,12.5-33.8C11.1-224.4,20-234.1,20-259.3c1.1-0.8,5.1-2.5,5.1-2.5v42.6
			c0,19.3,5,32.3,28.5,32.3l-16.4,15.4c2.4-1.8,3.9-3.2,5-4c4.1-3.1,28.4-24.5,35.6-24.2c7.1,0.2,11.5,2.9,11.5,2.9
			S51.5-174.9,41-168.9c3.5-1.6,5.8-2.8,7.3-3.5c5.2-2.4,36.5-20.1,44.4-18.1c7.7,1.9,11.8,5.8,11.8,5.8s-46.7,15.1-59.3,19.2
			c4.3-0.9,7.2-1.8,9-2.2c6.2-1.4,44.3-13.4,52.4-9.4c7.9,3.8,11.5,9.1,11.5,9.1s-53.3,5.5-69.1,7.1c3.8-0.1,7.5-0.3,9.2-0.3
			c7.1-0.1,51.3-4.3,59.2,1.9c7.7,6,10.4,12.5,10.4,12.5s-57.8-6.1-75.5-8c4.7,1,8.1,1.4,10.2,1.8
			C70.3-151.5,119.3-145.9,126.5-137.4"/>
	</g>
	<g id="g4660" transform="matrix(1.25,0,0,-1.25,179.5215,440.90535)">
		<path id="path4662" class="st2" d="M58.3-122.8c0,0-2.4-0.6-4.2,0.5s-2.4,3.5-2.4,3.5s2.4,0.6,4.2-0.5
			C57.7-120.4,58.3-122.8,58.3-122.8"/>
	</g>
	<g id="g4664" transform="matrix(1.25,0,0,-1.25,234.98475,493.9581)">
		<path id="path4666" class="st3" d="M121.4-183.1c0,0,1.3,0.6,1.3,2.6v2.9l-14.7-6.9v-24.8l4.5,2.1v9.1l5.1,2.4
			c0.4,0.2,1.2,1,1.2,2.5v2.5l-6.3-3v6.4L121.4-183.1z"/>
	</g>
	<g id="g4668" transform="matrix(1.25,0,0,-1.25,242.724,490.2461)">
		<path id="path4670" class="st3" d="M130.2-178.9c0.6,0.3,1,0.1,1-0.5v-1.9l0,0c0-0.6,0.5-1,1-1c0.1,0,0.2,0,0.4,0.1l2.9,1.4v3.1
			c0,2.1-1.8,3.8-3.9,3.8c-0.5,0-0.9-0.1-1.4-0.3l-8.3-3.9c-1.7-0.9-2.9-2.7-2.9-4.7v-16c0-1.9,1.6-3.5,3.5-3.4c0.5,0,1,0.1,1.4,0.3
			l8.7,4.1c1.7,0.9,2.9,2.7,2.9,4.7v4.5l-3.4-1.5c-0.1-0.1-0.9-0.5-0.9-1.6v-1.2c0-0.6-0.4-1.2-1-1.4l-5.8-2.8c-0.6-0.3-1-0.1-1,0.5
			v13.4c0,0.6,0.4,1.2,1,1.4L130.2-178.9z"/>
	</g>
	<g id="g4672" transform="matrix(1.25,0,0,-1.25,212.946,510.42635)">
		<path id="path4674" class="st3" d="M96.3-201.9l-8.5,12.8l-4.5-2.1V-216c0,0,1.9,0.9,3.2,1.5c0.3,0.2,1.3,0.8,1.3,2.6v14.8
			l8.7-12.8l4.3,2v24.8l-3.1-1.5c-0.3-0.2-1.4-0.6-1.4-2.5V-201.9z"/>
	</g>
	<g id="g4676" transform="matrix(1.25,0,0,-1.25,202.06263,518.55685)">
		<path id="path4678" class="st3" d="M83.9-211.1v12.4l-4.4-12.1l-3.8-1.8l-5.1,8.3v-13.2c0-1.5-0.7-2.3-1.5-2.7l-2.8-1.3v24.8
			l4,1.9l6.6-11.6l6.2,17.6l5,2.4v-24.8l-2.4-1.1C85-212.7,83.9-212.1,83.9-211.1"/>
	</g>
	<g id="g4680" transform="matrix(1.25,0,0,-1.25,217.23275,499.77485)">
		<path id="path4682" class="st3" d="M101.2-189.8v-19.5c0-1.9,1.5-3.4,3.4-3.3c0.5,0,1,0.1,1.4,0.3l0,0l9.3,4.3l0,0
			c1.8,0.8,3.1,2.7,3.1,4.8l0,0v21.4c0,0-2.2-1-3.1-1.5c-1.2-0.6-1.4-1.8-1.4-2.6v-17.2c0-0.6-0.4-1.2-1-1.4l-6.3-2.9
			c-0.6-0.3-1-0.1-1,0.5v16.9c0,1.1-1.1,1.7-2,1.3L101.2-189.8z"/>
	</g>
</g>
</svg>
