<?xml version="1.0" encoding="utf-8"?>
<!-- Generator: Adobe Illustrator 21.1.0, SVG Export Plug-In . SVG Version: 6.00 Build 0)  -->
<!DOCTYPE svg PUBLIC "-//W3C//DTD SVG 1.1//EN" "http://www.w3.org/Graphics/SVG/1.1/DTD/svg11.dtd">
<svg version="1.1"
	 id="svg2" xmlns:cc="http://creativecommons.org/ns#" xmlns:dc="http://purl.org/dc/elements/1.1/" xmlns:rdf="http://www.w3.org/1999/02/22-rdf-syntax-ns#" xmlns:svg="http://www.w3.org/2000/svg"
	 xmlns="http://www.w3.org/2000/svg" xmlns:xlink="http://www.w3.org/1999/xlink" x="0px" y="0px" width="300px" height="469.1px"
	 viewBox="0 0 300 469.1" style="enable-background:new 0 0 300 469.1;" xml:space="preserve">
<style type="text/css">
	.st0{fill:#E4E5E6;}
	.st1{fill:#8CD2F4;}
	.st2{fill:#231F20;}
	.st3{fill:#E31B23;}
</style>
<g id="layer1" transform="translate(-128.28962,-337.99785)">
	<g id="g4644" transform="matrix(1.25,0,0,-1.25,210.27087,354.94785)">
		<path id="path4646" class="st0" d="M93.3-19.3l-4.4-20.9c-1.3-6.1-2.9-13.7-4.7-22.1l-1-0.5c2,22.5,2,40.5-2,49.1
			c-3.3,7.1-8.5,13.7-15,19C56.9,12.7,51,13.6,51,13.6l0.1-91.3l-102.7-47.8c-14-6.5-14-23-14-23v-157.1l120-56.1l120,56.1v285.3
			l-60.7-28.2c-2.3,5.8-5.2,11.2-8.7,16.1c-1.4,2.1-2.8,4-4.2,5.7C98.4-23.6,93.3-19.3,93.3-19.3"/>
	</g>
	<g id="g4648" transform="matrix(1.25,0,0,-1.25,153.6405,374.25747)">
		<path id="path4650" class="st0" d="M28.8-41.3l5.5-16l5.5,16l16.6-3.2L45.4-31.7L56.4-19l-16.6-3.2l-5.5,16l-5.5-16L12.3-19
			l11.1-12.8L12.3-44.5L28.8-41.3z"/>
	</g>
	<g id="g4652" transform="matrix(1.25,0,0,-1.25,135.52487,449.1686)">
		<path id="path4654" class="st1" d="M8.2-126.5c-14-6.5-14-23-14-23v-76.3c0,0,0,16.5,14,23l226,105.1v76.3L8.2-126.5z"/>
	</g>
	<g id="g4656" transform="matrix(1.25,0,0,-1.25,239.46112,453.70972)">
		<path id="path4658" class="st2" d="M126.5-131.7c7,8.3,8.4,16,8.4,16s-59.7-19.4-79.4-25.9c4.9,2.2,8.5,3.4,10.6,4.3
			c8,3.4,60,20.9,65.8,31.8c5.7,10.6,5.5,19.4,5.5,19.4s-58.2-33.7-79.1-45.8c4.9,3.5,8.5,5.7,10.6,7.2c7.9,5.6,60.3,36.6,64.1,49.8
			c3.7,12.9,1.5,22.3,1.5,22.3s-55.3-49.9-75.3-68c4.1,4.5,7.3,7.5,9.2,9.5c7.3,7.9,57.1,53.7,58.2,68.9c1.1,14.8-3.6,24.6-3.6,24.6
			s-50-68.9-66.9-92.3c3.5,6,6.4,10.1,8,12.8c6.1,10.3,49.7,71.6,47.3,88.3c-2.3,16.4-9.6,25.9-9.6,25.9S64.1-68.1,50.9-98
			c2.5,7.7,4.8,12.9,5.9,16.3C61-69.1,94.2,7.6,87.8,25.3c-2.7,7.5-5.6,12.3-9.2,17.7c-3.6,5.4-6.8,8.6-6.8,8.6
			C70,43.2,56.9-18.9,48.3-59.7l-5-28.8c-1.8-10.4-0.1-17.4,0.7-19.9l0.6-1.8c9.6-28.4,2.2-42.1-1.5-46.8l-0.2-0.2
			c-0.7-0.9-2.5-3-5.3-4.6c-2.2-1.2-4.5-1.7-6.9-1.7c-1.4,0-2.8,0.2-4.1,0.6c-12.6,4.2-8,18.4-8,18.5c-1.1-5.9,0.5-9.8,1.9-12
			c2.2-3.3,5.8-5.2,9.6-5.2c6.4,0,9.9,4.4,11.1,5.8l0.1,0.2c3.5,4.4,10.5,17.7,0.7,45.8l0,0c-0.3,0.8-3.1,9.9-1.4,20l6.8,39
			c4.9,31.1,15,95.7,7,113c-3.7,8-9,13.6-14,17.7c-5,4.1-9.5,6.1-9.5,6.1l0.2-154c0-8.2,0.3-15,0.7-20.6c0,0,0.3-3.9,0.7-7.9
			c0.4-4,2.3-12.4,3.4-16.2l1.3-4.4c5-17.5,2.7-28.6-1.3-33.7c-1-1.2-2.6-3.3-5.7-3.3c-3.6,0-7.4,4.2-2.8,14.8
			c4.5,10.6,6.8,21.8-2.8,31.4c-0.9,0.9-1.9,1.8-3,2.7c-6.9,5.2-10.8,7.4-15,9.7c-2.2,1.2-14.2-1.3-14.2-1.3L-36.3-84l-0.1-0.5
			c0,0,41.3-29.8,48.8-36.1c6.9-5.8,3.3-14.9-3.4-20.2c-7.6-6-30.1-18.6-30.1-18.6v-1.3c0-15,2.2-21.2,12.5-33.8
			c19.7-24.2,28.6-33.9,28.6-59.1c1.1-0.8,5.1-2.5,5.1-2.5v42.6c0,19.3,5,32.3,28.5,32.3l-16.4,15.4c2.4-1.8,3.9-3.2,5-4
			c4.1-3.1,28.4-24.5,35.6-24.2c7.1,0.2,11.5,2.9,11.5,2.9S51.5-169.2,41-163.2c3.5-1.6,5.8-2.8,7.3-3.5
			c5.2-2.4,36.5-20.1,44.4-18.1c7.7,1.9,11.8,5.8,11.8,5.8s-46.7,15.1-59.3,19.2c4.3-0.9,7.2-1.8,9-2.2c6.2-1.4,44.3-13.4,52.4-9.4
			c7.9,3.8,11.5,9.1,11.5,9.1s-53.3,5.5-69.1,7.1c3.8-0.1,7.5-0.3,9.2-0.3c7.1-0.1,51.3-4.3,59.2,1.9c7.7,6,10.4,12.5,10.4,12.5
			s-57.8-6.1-75.5-8c4.7,1,8.1,1.4,10.2,1.8C70.3-145.8,119.3-140.2,126.5-131.7"/>
	</g>
	<g id="g4660" transform="matrix(1.25,0,0,-1.25,179.5215,440.90535)">
		<path id="path4662" class="st3" d="M58.3-117.1c0,0-2.4-0.6-4.2,0.5c-1.8,1.1-2.4,3.5-2.4,3.5s2.4,0.6,4.2-0.5
			C57.7-114.7,58.3-117.1,58.3-117.1"/>
	</g>
	<g id="g4664" transform="matrix(1.25,0,0,-1.25,234.98475,493.9581)">
		<path id="path4666" class="st2" d="M121.4-177.4c0,0,1.3,0.6,1.3,2.6v2.9l-14.7-6.9v-24.8l4.5,2.1v9.1l5.1,2.4
			c0.4,0.2,1.2,1,1.2,2.5v2.5l-6.3-3v6.4L121.4-177.4z"/>
	</g>
	<g id="g4668" transform="matrix(1.25,0,0,-1.25,242.724,490.2461)">
		<path id="path4670" class="st2" d="M130.2-173.2c0.6,0.3,1,0.1,1-0.5v-1.9h0c0-0.6,0.5-1,1-1c0.1,0,0.2,0,0.4,0.1l2.9,1.4l0,3.1
			c0,2.1-1.8,3.8-3.9,3.8c-0.5,0-0.9-0.1-1.4-0.3l-8.3-3.9c-1.7-0.9-2.9-2.7-2.9-4.7v-16c0-1.9,1.6-3.5,3.5-3.4c0.5,0,1,0.1,1.4,0.3
			l8.7,4.1c1.7,0.9,2.9,2.7,2.9,4.7v4.5l-3.4-1.5c-0.1-0.1-0.9-0.5-0.9-1.6v-1.2c0-0.6-0.4-1.2-1-1.4l-5.8-2.8c-0.6-0.3-1-0.1-1,0.5
			v13.4c0,0.6,0.4,1.2,1,1.4L130.2-173.2z"/>
	</g>
	<g id="g4672" transform="matrix(1.25,0,0,-1.25,212.946,510.42635)">
		<path id="path4674" class="st2" d="M96.3-196.2l-8.5,12.8l-4.5-2.1v-24.8c0,0,1.9,0.9,3.2,1.5c0.3,0.2,1.3,0.8,1.3,2.6v14.8
			l8.7-12.8l4.3,2v24.8l-3.1-1.5c-0.3-0.2-1.4-0.6-1.4-2.5L96.3-196.2z"/>
	</g>
	<g id="g4676" transform="matrix(1.25,0,0,-1.25,202.06263,518.55685)">
		<path id="path4678" class="st2" d="M83.9-205.4v12.4l-4.4-12.1l-3.8-1.8l-5.1,8.3l0-13.2c0-1.5-0.7-2.3-1.5-2.7l-2.8-1.3v24.8
			l4,1.9l6.6-11.6l6.2,17.6l5,2.4v-24.8l-2.4-1.1C85-207,83.9-206.4,83.9-205.4"/>
	</g>
	<g id="g4680" transform="matrix(1.25,0,0,-1.25,217.23275,499.77485)">
		<path id="path4682" class="st2" d="M101.2-184.1v-19.5c0-1.9,1.5-3.4,3.4-3.3c0.5,0,1,0.1,1.4,0.3h0l9.3,4.3l0,0
			c1.8,0.8,3.1,2.7,3.1,4.8h0l0,21.4c0,0-2.2-1-3.1-1.5c-1.2-0.6-1.4-1.8-1.4-2.6v-17.2c0-0.6-0.4-1.2-1-1.4l-6.3-2.9
			c-0.6-0.3-1-0.1-1,0.5v16.9c0,1.1-1.1,1.7-2,1.3L101.2-184.1z"/>
	</g>
</g>
</svg>
