<?xml version="1.0" encoding="utf-8"?>
<!-- Generator: Adobe Illustrator 21.1.0, SVG Export Plug-In . SVG Version: 6.00 Build 0)  -->
<!DOCTYPE svg PUBLIC "-//W3C//DTD SVG 1.1//EN" "http://www.w3.org/Graphics/SVG/1.1/DTD/svg11.dtd">
<svg version="1.1"
	 id="svg27763" xmlns:cc="http://creativecommons.org/ns#" xmlns:dc="http://purl.org/dc/elements/1.1/" xmlns:rdf="http://www.w3.org/1999/02/22-rdf-syntax-ns#" xmlns:svg="http://www.w3.org/2000/svg"
	 xmlns="http://www.w3.org/2000/svg" xmlns:xlink="http://www.w3.org/1999/xlink" x="0px" y="0px" width="300px" height="340.5px"
	 viewBox="0 0 300 340.5" style="enable-background:new 0 0 300 340.5;" xml:space="preserve">
<style type="text/css">
	.st0{fill:url(#path5638_1_);}
	.st1{fill:url(#path5688_1_);}
	.st2{fill:url(#path5792_1_);}
	.st3{fill:url(#path5818_1_);}
	.st4{fill:url(#path5844_1_);}
	.st5{fill:#FFFFFF;}
	.st6{fill:#636466;}
	.st7{fill:#BAC1C6;}
</style>
<g>
	<g id="g5618" transform="matrix(1.25,0,0,-1.25,-135.01343,1336.7581)">
		<g id="g5620">
			<g id="g5626">
				<g id="g5628">
					
						<radialGradient id="path5638_1_" cx="312.4091" cy="814.3974" r="0.5644" gradientTransform="matrix(245.164 0 0 -245.164 -76371.7969 200590.0469)" gradientUnits="userSpaceOnUse">
						<stop  offset="0" style="stop-color:#065CAB"/>
						<stop  offset="0.6706" style="stop-color:#065CAB"/>
						<stop  offset="1" style="stop-color:#003A74"/>
					</radialGradient>
					<path id="path5638" class="st0" d="M219.7,1049.2h-0.4c-0.6,0-1.1,0-1.6,0l0,0c-52.8,0-97.5-17.5-97.5-17.5l0,0
						c-0.7-8.7-1.1-19-1-27.7l0,0c0.4-45.1,10.5-87.8,29.2-123.4l0,0c18-34.3,43.3-59.6,71.3-71.4l0,0c28,11.8,53.3,37.1,71.3,71.4
						l0,0c18.7,35.6,28.8,78.2,29.2,123.4l0,0c0.1,8.7-0.3,19-1,27.7l0,0c0,0-44.7,17.5-97.5,17.5l0,0c-0.5,0-1.1,0-1.6,0l0,0H219.7
						L219.7,1049.2z"/>
				</g>
			</g>
		</g>
	</g>
	<g id="g5664" transform="matrix(1.25,0,0,-1.25,-135.01343,1336.7581)">
		<g id="g5666">
			<g id="g5672">
				<g id="g5674">
					
						<linearGradient id="path5688_1_" gradientUnits="userSpaceOnUse" x1="313.1737" y1="815.285" x2="313.7381" y2="815.285" gradientTransform="matrix(481.9485 0 0 -481.9485 -150822.75 393976.5)">
						<stop  offset="0" style="stop-color:#BCBEC0"/>
						<stop  offset="0.4709" style="stop-color:#E5E6E7"/>
						<stop  offset="0.4709" style="stop-color:#E5E6E7"/>
						<stop  offset="0.8779" style="stop-color:#BCBEC0"/>
						<stop  offset="1" style="stop-color:#BCBEC0"/>
					</linearGradient>
					<path id="path5688" class="st1" d="M217.5,1069.4c-35.2-0.3-70-6.6-100.7-18.1l0,0l-5.9-2.2l7.9-16.3
						c1,0.4,46.1,17.9,98.9,17.9l0,0c0.5,0,1.1,0,1.6,0l0,0h0.4h0.4c0.5,0,1.1,0,1.6,0l0,0c52.8,0,97.9-17.5,98.9-17.9l0,0l7.9,16.3
						l-5.9,2.2c-30.7,11.5-65.5,17.8-100.7,18.1l0,0c-0.7,0-1.5,0-2.2,0l0,0C218.9,1069.4,218.2,1069.4,217.5,1069.4"/>
				</g>
			</g>
		</g>
	</g>
	<g id="g5766" transform="matrix(1.25,0,0,-1.25,-135.01343,1336.7581)">
		<g id="g5768">
			<g id="g5774">
				<g id="g5776">
					
						<linearGradient id="path5792_1_" gradientUnits="userSpaceOnUse" x1="312.0686" y1="813.6808" x2="312.6331" y2="813.6808" gradientTransform="matrix(140.7298 0 0 -140.7298 -43798.2148 115498.2734)">
						<stop  offset="0" style="stop-color:#BCBEC0"/>
						<stop  offset="0.4709" style="stop-color:#F7F7F8"/>
						<stop  offset="0.4709" style="stop-color:#F7F7F8"/>
						<stop  offset="0.8779" style="stop-color:#BCBEC0"/>
						<stop  offset="0.8779" style="stop-color:#BCBEC0"/>
						<stop  offset="1" style="stop-color:#BCBEC0"/>
					</linearGradient>
					<path id="path5792" class="st2" d="M158.6,1042.6c-1.5-4.8-2-10-0.9-15.8l0,0c0.3-1.4,0.6-2.8,1.1-4.3l0,0
						c3.3-10.4,12.3-32.3,14.5-41l0,0c2.2-8.7,3.2-14.9,3.2-14.9l0,0c0,0-5.2,0-8.5,0l0,0c-1.9,9.3-3.9,16.7-9.2,28.2l0,0
						c-9.8,21.1-22.9,32.2-36.7,30.2l0,0c-0.8-0.1-1.6-0.3-2.4-0.5l0,0c-0.4-6.9-0.6-14.1-0.5-20.6l0,0c0.1-9.1,0.6-18.1,1.4-27l0,0
						c2.7,5.8,6.7,9.1,11.9,9.9l0,0c6.8,1,13.5-0.7,18.3-4.6l0,0c7.3-6.2,7.4-15.6,7.4-15.6l0,0h-16.9l3.8-14.4c0,0,25.2,0,29.6,0
						l0,0c-1.2-6.2-10.3-11.3-19.8-12.4l0,0c0.3-0.6,0.6-1.3,1.4-2l0,0c1.5-1.3,5.3-3.3,13.8-1.8l0,0l3.5,0.6c0,0-0.4-2.1,0-5.1l0,0
						l9.1,2.8v112.4C174,1045.6,165.9,1044.1,158.6,1042.6"/>
				</g>
			</g>
		</g>
	</g>
	<g id="g5794" transform="matrix(1.25,0,0,-1.25,-135.01343,1336.7581)">
		<g id="g5796">
			<g id="g5802">
				<g id="g5804">
					
						<linearGradient id="path5818_1_" gradientUnits="userSpaceOnUse" x1="312.7679" y1="814.3906" x2="313.3323" y2="814.3906" gradientTransform="matrix(247.2819 0 0 -247.2819 -77233.8281 202307.1562)">
						<stop  offset="0" style="stop-color:#8D9092"/>
						<stop  offset="0.5462" style="stop-color:#E5E6E7"/>
						<stop  offset="0.5462" style="stop-color:#E5E6E7"/>
						<stop  offset="0.8663" style="stop-color:#8D9092"/>
						<stop  offset="1" style="stop-color:#8D9092"/>
					</linearGradient>
					<path id="path5818" class="st3" d="M110.1,1042.8c-1.5-12.8-2.2-26-2.1-39l0,0c0.3-30.2,4.7-59.3,13.1-86.2l0,0l0,0
						c-6.9-3.7-10.6-10-10.7-18.4l0,0c-0.1-10.1,0-40.6,0-41l0,0l0-2.2l43.2-5.3c17.4-24.3,38.8-42.3,62-52l0,0l4-1.7v10.4h0h0
						l-0.3,0.1c-14.3,6-27.9,15.4-40.3,27.8l0,0c-12.2,12.3-23,27.2-32.1,44.4l0,0c-18.8,35.8-29,78.7-29.4,124l0,0
						c-0.1,9.2,0.3,18.2,1.1,28.9l0,0l-7.9,16.3L110.1,1042.8L110.1,1042.8z"/>
				</g>
			</g>
		</g>
	</g>
	<g id="g5820" transform="matrix(1.25,0,0,-1.25,-135.01343,1336.7581)">
		<g id="g5822">
			<g id="g5828">
				<g id="g5830">
					
						<linearGradient id="path5844_1_" gradientUnits="userSpaceOnUse" x1="312.5742" y1="814.5745" x2="313.1386" y2="814.5745" gradientTransform="matrix(284.1999 0 0 -284.1999 -88613.8594 232425.0469)">
						<stop  offset="0" style="stop-color:#8D9092"/>
						<stop  offset="0.4232" style="stop-color:#E5E6E7"/>
						<stop  offset="0.4232" style="stop-color:#E5E6E7"/>
						<stop  offset="0.8663" style="stop-color:#8D9092"/>
						<stop  offset="1" style="stop-color:#8D9092"/>
					</linearGradient>
					<path id="path5844" class="st4" d="M320.6,1032.8c0.8-10.7,1.2-19.7,1.1-28.9l0,0c-0.4-45.3-10.5-88.2-29.4-124l0,0
						c-9.1-17.2-19.9-32.2-32.1-44.4l0,0c-12.4-12.4-26-21.8-40.3-27.8l0,0l-0.3-0.1V797l4,1.7c30.5,12.7,57.9,40,77.2,76.6l0,0
						c7.1,13.5,13,27.9,17.6,43l0,0l13.9,4.2c10.2,3.1,15.5,10.2,15.6,20.4l0,0c0.1,10.1,0,40.6,0,41l0,0v1.4l-16.8,10.5
						c0.1,2.6,0.1,5.3,0.2,7.9l0,0c0.1,13-0.6,26.2-2.1,39l0,0l-0.7,6.3L320.6,1032.8L320.6,1032.8z"/>
				</g>
			</g>
		</g>
	</g>
	<g id="g5854" transform="matrix(1.25,0,0,-1.25,426.0197,477.47708)">
		<path id="path5856" class="st5" d="M-244.3,253.6c-7,2.1-12.9,6.3-13.8,11.2c4.4,0,29.6,0,29.6,0l3.7,14.4h-16.9
			c0,0,0,9.4,7.4,15.6c4.7,4,11.4,5.6,18.3,4.6c7.7-1.1,12.6-7.9,15-19.7c6.6,2.2,14.4,8.9,16.8,21.5c3.6,18.7-7.5,34.4-21.4,36.4
			c-13.8,2-26.9-9.1-36.7-30.2c-5.3-11.5-7.4-18.9-9.2-28.2c-3.3,0-8.5,0-8.5,0s1,6.1,3.2,14.9c2.2,8.7,11.3,30.6,14.5,41
			c0.4,1.4,0.8,2.9,1.1,4.3c1.6,8.5-0.2,15.8-3.6,22c-7.4-0.4-14.5-1.1-21.4-2V246.9L-244.3,253.6z"/>
	</g>
	<g id="g5858" transform="matrix(1.25,0,0,-1.25,408.85058,492.97908)">
		<path id="path5860" class="st6" d="M-322.1,183.2l38.7-4.7c-3.1,4.4-6,9.1-8.8,13.9L-322.1,183.2z"/>
	</g>
	<g id="g5862" transform="matrix(1.25,0,0,-1.25,449.71682,467.73158)">
		<path id="path5864" class="st6" d="M-136.8,297.8c-0.2-4.6-0.5-9.2-0.9-13.7l15.3,4.7L-136.8,297.8z"/>
	</g>
	<path id="path5868" d="M296.8,106.8L23.5,190.2c-9.5,2.9-17.2,9.4-17.3,22.6c-0.1,12.8,0,51.2,0,51.2l51.1-15.6
		c6.3,10.5,13.1,20.1,20.3,28.9v-35.2l15.7-4.8v56.9c6.5,6.3,13.3,11.8,20.3,16.8v-79.9l15.7-4.8v94.2c3.4,1.8,6.7,3.4,10.2,4.8
		c3.4-1.4,6.8-3.1,10.2-4.8V220.1l15-4.6v95.9c7-4.8,13.8-10.4,20.4-16.6v-85.6l15-4.6V279c7.3-8.6,14.1-18.1,20.3-28.3v-52.2
		l15-4.6v28.6c4.8-10.4,9-21.3,12.7-32.5l31.5-9.6c9.5-2.9,17.2-9.4,17.3-22.6C296.9,145.1,296.8,106.8,296.8,106.8"/>
	<g id="g5870" transform="matrix(1.25,0,0,-1.25,426.50944,479.90808)">
		<path id="path5872" class="st7" d="M-242,242.5c0,3.5,3.2,7,7.3,8.3c3.2,1,5.4,0.2,5.4-1.2c0-0.8-0.7-1.6-1.5-1.9
			c-0.9-0.3-1.6,0-1.6,0.8l0.2,0.6c-0.4,0.1-1.2,0.2-2.5-0.2c-2.7-0.8-4.8-3.2-4.8-5.6c0-2.3,2-3.6,4.9-2.7c1.6,0.5,3,1.5,4,2.8
			l1.6-0.9c-1.3-1.7-3.4-3-5.6-3.7C-238.9,237.5-242,238.9-242,242.5"/>
	</g>
	<g id="g5874" transform="matrix(1.25,0,0,-1.25,430.81557,479.3482)">
		<path id="path5876" class="st7" d="M-222.5,245.1l1.7,0.5l0,8.1l-2.6-0.8l0-1.8l-2.3-0.7l0,3.6l12.1,3.7l0-3.6l-2.3-0.7v1.8
			l-2.6-0.8l0-8.1l1.7,0.5v-1.8l-5.9-1.8L-222.5,245.1z"/>
	</g>
	<g id="g5878" transform="matrix(1.25,0,0,-1.25,413.01121,483.2767)">
		<path id="path5880" class="st7" d="M-303.3,227.3l1.7,2.3l-5.9-1.8l0-1.8l1.8,0.6l0-8.1l-1.9-0.6l0-1.8l6.2,1.9v1.8l-2-0.6
			L-303.3,227.3z"/>
	</g>
	<g id="g5882" transform="matrix(1.25,0,0,-1.25,417.61108,481.87095)">
		<path id="path5884" class="st7" d="M-282.4,233.6L-282.4,233.6l1.7,2.3l-3.8-1.2l-4.3-7.8l-4.3,5.1l-3.8-1.2l1.8-1.3l-0.4-8.2
			l-1.7-0.5l0-1.8l5.7,1.7l0,1.8l-1.7-0.5l0.3,6.1l4-4.6l0.3,0.1l4,7.1l0.3-5.9l-1.7-0.5v-1.8l5.7,1.8l0,1.8l-1.7-0.5L-282.4,233.6z
			"/>
	</g>
	<g id="g5886" transform="matrix(1.25,0,0,-1.25,421.05569,481.19658)">
		<path id="path5888" class="st7" d="M-266.8,236.7c0-1.4-1.1-2.6-2.9-3.1c-1-0.3-1.3-0.4-1.6-0.4l0,4.2l1.5,0.5
			C-268,238.3-266.8,237.9-266.8,236.7 M-269.6,239.6l-5.6-1.7l1.6-1.3l0-8.1l-1.6-0.5l0-1.8l5.7,1.7l0,1.8l-1.7-0.5l0,2.1
			c0.3,0.1,0.7,0.2,1.4,0.4c3.3,1,5.6,3,5.5,5.7C-264.3,239.8-266.6,240.6-269.6,239.6"/>
	</g>
	<g id="g5890" transform="matrix(1.25,0,0,-1.25,423.64469,480.87321)">
		<path id="path5892" class="st7" d="M-255,238.2l1.9,5.2l2-4L-255,238.2z M-247.1,237l-3.5,7l1.5,0.5l0,1.8l-7.9-2.4l1.5-1.3
			l-3.4-9.1l-1.2-0.4l0-1.8l5.4,1.6l0,1.8l-1.7-0.5l0.8,2.1l5.2,1.6l0.8-1.7l-1.6-0.5l0-1.8l5.4,1.6l0,1.8
			C-245.9,237.4-247.1,237-247.1,237z"/>
	</g>
	<g id="g5894" transform="matrix(1.25,0,0,-1.25,421.37194,485.41283)">
		<path id="path5896" class="st5" d="M-265.3,217.6c0,3.9-3.2,5.8-7.6,4.4c-4.4-1.3-7.6-5.1-7.6-9.1c0-3.9,3.2-5.8,7.6-4.4
			C-268.5,209.9-265.3,213.6-265.3,217.6 M-284.5,211.7c0,5.5,4.8,11.2,11.6,13.3c6.8,2.1,11.5-0.7,11.6-6.2
			c0-5.5-4.8-11.2-11.6-13.3C-279.8,203.4-284.5,206.2-284.5,211.7"/>
	</g>
	<g id="g5898" transform="matrix(1.25,0,0,-1.25,429.20069,484.24158)">
		<path id="path5900" class="st5" d="M-229.8,222.9l2.8,0.9l-0.1,13.1l-4.2-1.3l0-3l-3.7-1.1l0,5.8l19.6,6l0-5.8l-3.7-1.1l0,3
			l-4.2-1.3l0.1-13.1l2.8,0.9l0-2.9l-9.5-2.9L-229.8,222.9z"/>
	</g>
	<g id="g5902" transform="matrix(1.25,0,0,-1.25,425.66594,482.33833)">
		<path id="path5904" class="st5" d="M-245.9,231.5l0-2.9l2.8,0.9l0-9.5l-12.4,8.6l-5.4-1.6l2.6-2.1l0.1-13l-2.6-0.8l0-2.9l9,2.7
			l0,2.9l-2.8-0.9l-0.1,10.3l13.2-9.1l2.1,0.6l-0.1,15.9l2.5,0.8l0,2.9L-245.9,231.5z"/>
	</g>
	<g id="g5906" transform="matrix(1.25,0,0,-1.25,435.3572,480.46445)">
		<path id="path5908" class="st5" d="M-201.9,240c0-2-2.1-3.8-5-4.7c-1.2-0.4-1.8-0.5-2.2-0.6l0,6l2.1,0.6
			C-203.9,242.3-201.9,242-201.9,240 M-197.9,241.4c0,3.8-3.7,4.5-8.9,2.9l-8.8-2.7l2.6-2.1l0.1-13l-2.6-0.8l0-2.9l9.3,2.8l0,2.9
			l-2.8-0.9l0,4.2c0.5,0.1,1.1,0.3,1.9,0.5c0.4,0.1,1.1,0.4,1.6,0.6l4.6-5.8l5,1.5l0,2.9l-2.6-0.8l-3.5,4
			C-199.6,236.5-197.9,238.9-197.9,241.4"/>
	</g>
	<g id="g5910" transform="matrix(1.25,0,0,-1.25,440.5257,478.80396)">
		<path id="path5912" class="st5" d="M-178.5,247.6l0,5.4l-16.9-5.2l2.6-2.1h0l0.1-13l-2.6-0.8l0-2.9l16.9,5.2l0,5.4l-3.7-1.1l0-2.5
			l-6.7-2.1l0,5.3l6.8,2.1l0,2.7l-6.8-2.1l0,5l6.7,2l0-2.5L-178.5,247.6z"/>
	</g>
	<g id="g5914" transform="matrix(1.25,0,0,-1.25,443.17932,478.89283)">
		<path id="path5916" class="st5" d="M-166.4,247.1l3.1,8.4l3.2-6.4L-166.4,247.1z M-153.6,245.3l-5.7,11.3l2.5,0.8l0,2.8l-12.8-3.9
			l2.5-2.1h0l-5.6-14.8l-2.1-0.6l0-2.9l8.7,2.7l0,2.8l-2.6-0.8l1.2,3.5l8.5,2.6l1.3-2.7l-2.4-0.8l0-2.8l8.5,2.6l0,2.9
			C-151.7,245.9-153.6,245.3-153.6,245.3z"/>
	</g>
	<g id="g5918" transform="matrix(1.25,0,0,-1.25,449.27769,477.61358)">
		<path id="path5920" class="st5" d="M-138.7,253l0-2.7l-6.2-1.9l-0.1,13l3,0.9l0,2.9l-9.4-2.9l2.6-2.1l0.1-13l-2.6-0.8l0-2.9
			l16.4,5l0,5.5L-138.7,253z"/>
	</g>
	<g id="g5922" transform="matrix(1.25,0,0,-1.25,416.59208,485.65283)">
		<path id="path5924" class="st5" d="M-287,216.5L-287,216.5l2.8,3.7v0l-6.1-1.9l-6.9-12.6l-7,8.3l-6.2-1.9l2.8-2l-0.7-13.2
			l-2.7-0.8l0-2.9l9.2,2.8l0,2.9l-2.7-0.8l0.4,9.8l6.5-7.5l0.5,0.2l6.4,11.4l0.5-9.5l-2.7-0.8l0-2.9l9.3,2.8l0,2.9l-2.7-0.8
			L-287,216.5z"/>
	</g>
	<g id="g5926" transform="matrix(1.25,0,0,-1.25,439.83132,477.28833)">
		<path id="path5928" class="st7" d="M-181.6,254.4l0,3.2l-10.9-6.8L-181.6,254.4z"/>
	</g>
</g>
</svg>
