<?xml version="1.0" encoding="utf-8"?>
<!-- Generator: Adobe Illustrator 21.1.0, SVG Export Plug-In . SVG Version: 6.00 Build 0)  -->
<!DOCTYPE svg PUBLIC "-//W3C//DTD SVG 1.1//EN" "http://www.w3.org/Graphics/SVG/1.1/DTD/svg11.dtd">
<svg version="1.1"
	 id="svg4889" inkscape:version="0.48.1 " sodipodi:docname="New York Red Bulls logo.svg" xmlns:cc="http://creativecommons.org/ns#" xmlns:dc="http://purl.org/dc/elements/1.1/" xmlns:inkscape="http://www.inkscape.org/namespaces/inkscape" xmlns:rdf="http://www.w3.org/1999/02/22-rdf-syntax-ns#" xmlns:sodipodi="http://sodipodi.sourceforge.net/DTD/sodipodi-0.dtd" xmlns:svg="http://www.w3.org/2000/svg"
	 xmlns="http://www.w3.org/2000/svg" xmlns:xlink="http://www.w3.org/1999/xlink" x="0px" y="0px" width="387.7px" height="316px"
	 viewBox="0 0 387.7 316" style="enable-background:new 0 0 387.7 316;" xml:space="preserve">
<style type="text/css">
	.st0{fill:#FFFFFF;}
	.st1{fill:#23326A;}
	.st2{fill:#FABB23;}
	.st3{fill:#ED1E36;}
	.st4{fill:#C6CCD2;}
</style>
<sodipodi:namedview  bordercolor="#666666" borderopacity="1" fit-margin-bottom="0" fit-margin-left="0" fit-margin-right="0" fit-margin-top="0" gridtolerance="10" guidetolerance="10" id="namedview4981" inkscape:current-layer="svg4889" inkscape:cx="-194.02273" inkscape:cy="114.22212" inkscape:pageopacity="0" inkscape:pageshadow="2" inkscape:window-height="731" inkscape:window-maximized="1" inkscape:window-width="1280" inkscape:window-x="-4" inkscape:window-y="-4" inkscape:zoom="0.49027978" objecttolerance="10" pagecolor="#ffffff" showgrid="false">
	</sodipodi:namedview>
<g>
	<path class="st0" d="M195,316c-53.1,0-102.7-26.6-132.6-71l-0.9-1.5c-5.5-9.6-8-16.8-8-34.5v-14.9c-1.2-0.2-2.2-0.3-2.8-0.3
		c-0.1,0.1-0.3,0.2-0.4,0.3l-1.1,0.9c-1.6,1.4-6.1,5.3-12.6,5.3h-0.1c-0.1,0.2-0.3,0.3-0.4,0.5c-2.6,3.5-6.4,5.4-11.4,5.7l-0.5,0
		c-0.6,0-1.1-0.1-1.5-0.1c-0.5,0-1-0.1-1.6-0.2c-0.5-0.1-1.1-0.2-1.7-0.3c-0.4-0.1-0.7-0.1-1.1-0.2c-0.8,0.3-1.8,0.5-2.8,0.5
		c-0.8,0-3-0.1-5.4-0.7c-1.4-0.3-2.7-0.8-3.9-1.4c-2.7-1.3-4.7-3.5-5.7-6.3L0.4,197c-0.7-2.9-0.4-5.7,0.9-8.3l0.6-1.2l0.2-0.2
		c0-0.1,0-0.3,0.1-0.5l0.1-0.4l0.2-0.7c0.2-1,0.5-2.2,1-3.5c1.4-3.3,3.7-5.6,6.8-6.8c3.5-4.8,9.1-7.3,13.6-7.3h0.9l0.7,0.1
		c0,0,0,0,0,0c1.5-2.9,3.4-4.6,5.3-5.6c-5.4-1-10.1-3.4-13.6-7.1c-4.5-4.6-6.7-11-6.3-17.6c0.4-6.2,1.9-10.3,5.1-14.2
		c-5-4.4-7.4-10.8-6.8-16.5c0.7-5.4,1.7-7.8,3.4-10.4l0.8-1.1l4.8-6.4l6.7,5c1.2,0.8,5,3.2,6.8,4.2h0.2l0.5,0.1
		c2.2,0.3,4.2,0.7,6,1.3c9.1,2.9,12.2,8.5,13.2,12.7c1.4,5.9,0.4,11.3-3.1,16c0,0.1-0.1,0.1-0.1,0.2c2-1.4,3.7-2.3,5.3-3.1V0h282.9
		v126c1.4,0.7,2.8,1.5,4.4,2.4c-2.6-3.5-3.8-7.2-3.6-11c0.2-4.3,2.3-8.8,5.6-11.7c4.8-4.1,9.1-5.7,12.5-6.7c0.7-0.3,1.4-0.4,1.8-0.5
		l0.2,0c0.6-0.2,1.2-0.3,1.5-0.4l0.3-0.1c0.2-0.1,0.3-0.1,0.4-0.2c0.8-0.7,1.7-1.5,2.7-2.1l0.4-0.3l0.5-0.2c0.3-0.1,0.6-0.3,0.9-0.4
		l1.5-0.7h2.2c1.3,0,4,0.3,6.3,2.6l0.6,0.6l0.5,0.7c1.4,2.1,2.3,4.4,2.8,7.2l0,0.1c0.3,1.8,0.3,3.3,0.3,4.4v0.4
		c0,5.9-2.2,10.9-6.2,14.4c3.8,5.1,5.7,10.2,5.7,15.3c0,7.5-3.2,13.9-9.1,18.2c-2.7,2-6,3.5-9.3,4.3c2.4,1.3,4.2,3.3,5.5,5.9
		c0.2,0,0.4,0,0.6,0c5.5,0,11.6,5.7,13.7,8.4c2.1,0.9,3.9,2.6,5.1,4.8c1.1,1.9,2.2,4.1,2.2,7.4l0.1,0.2c0.3,0.7,0.7,1.8,0.9,3l0,0.3
		l-7.9,1.3l7.9-1.2c0.1,0.9,0.4,2.7-0.1,5c-0.5,2.2-1.8,4.1-3.7,5.7l-0.1,0.1c-1.5,1.2-3,1.8-4.1,2.2l-0.1,0
		c-2.3,0.8-4.7,1.3-6.8,1.3c-1.1,0-2.1-0.1-3.1-0.4c-0.9,0.1-1.9,0.1-3.1,0.1l-1.3,0c-4.6-0.1-8.3-1.5-11.3-4.4
		c-0.3,0-0.6,0.1-1,0.1h-0.3c-5.2,0-8.7-2.7-10.8-4.3l-0.4-0.3l-0.4-0.4c-0.5-0.4-0.8-0.6-1.2-0.8l-0.4-0.2
		c-0.6-0.4-1.1-0.6-1.5-0.7l-1-0.2l-0.2-0.1v14c0,17.7-2.5,24.9-8,34.5l-0.9,1.5C297.7,289.4,248.2,316,195,316z M75.8,236.2
		c27,40,71.6,63.8,119.2,63.8c47.7,0,92.2-23.8,119.1-63.8l0.5-0.8c4-7,5.8-11.6,5.8-26.4v-29.8h8c0.5,0,1,0,1.3,0.1
		c0.1,0,0.1,0,0.2,0l0.2,0c1.5-0.3,3-0.5,4.4-0.5c0.6,0,1.4,0,2.5,0.2c1.3,0.1,2.4,0.4,3.3,0.6l1.5,0.3l0.3,0.2
		c1.7,0.5,3.5,1.3,5.2,2.3c1.8,1,3.2,2.1,4.1,2.9l0.2,0.2c0.2,0.1,0.4,0.3,0.6,0.4c0.8-0.3,1.6-0.5,2.3-0.6l0.7-0.1
		c-1-0.7-1.9-1.7-2.5-2.8c-0.6-1-0.9-1.9-1-2.3c-0.4-1.3-0.7-2.4-0.9-3.4l0-0.1c-0.5,0-1.1-0.1-1.8-0.2c-6.4-1.1-8.7-5.9-8.7-9.8
		c0-1.3,0.3-2.5,0.7-3.4l0.1-0.2c0.1-0.3,0.2-0.6,0.3-0.9c0.2-0.5,0.3-0.9,0.4-1.4c0.3-1.4,0.2-2.3,0.1-2.7
		c-0.8-3.1,0.2-6.3,2.5-8.5c-1.6-0.8-3.1-1.7-4.5-2.7l-2-1.3c-0.8-0.6-1.7-1.1-2.6-1.7l-1.1-0.7c-2.6-1.6-4.7-2.7-6.6-3.5
		c-0.6-0.3-1.2-0.5-1.9-0.8l-5.2-1.9V16H69.6v121.8l-6.3,1.4c-0.6,0.1-1.4,0.4-2.3,0.8l-0.1,0c-1.2,0.5-2.6,1.4-4.6,2.8
		c-0.4,0.3-0.9,0.6-1.3,0.9c-0.5,0.4-1,0.7-1.5,1.1c-0.4,0.3-0.9,0.6-1.3,1c-0.4,0.3-0.7,0.5-1.1,0.8l-0.2,0.1
		c-1.2,0.9-2.5,1.7-3.8,2.5c0,0,0.1,0.1,0.1,0.1c1.7,1.7,2.6,3.7,2.7,5.9c0.4,4.2,1,6.3,1.2,6.9c2.3,3.7,1.5,8.6-1.8,11.4
		c-1.1,1-2.3,1.6-3.2,2l-0.5,0.2c-2.2,0.9-4.6,1.3-6.5,1.5c0,0,0,0,0,0.1l-0.3,0.9c-0.1,0.4-0.3,0.9-0.5,1.4
		c-0.1,0.4-0.3,0.8-0.5,1.2c-0.8,1.5-1.7,2.6-2.5,3.4l0.4,0.1c0.2,0,0.4,0.1,0.6,0.1h0.3c0.1,0,0.6-0.1,2.1-1.4l0.6-0.5
		c0.6-0.6,1.2-1,1.6-1.2c0.3-0.2,0.7-0.5,1-0.8l0.6-0.4c2.2-1.5,4.6-2.2,6.9-2.2h0.2c1.3,0,4.3,0.3,8.9,1c0.1,0,0.2-0.1,0.3-0.1
		l10.7-3.9V209c0,14.8,1.8,19.4,5.8,26.4L75.8,236.2z M365.3,190.4h1c1,0,1.7-0.1,2.1-0.1c-1.5-1.3-2.5-3-2.9-4.9
		c-1.2,0.7-2.5,1.2-3.8,1.4c0.9,0.6,1.6,1.4,2.2,2.3l0.1,0.1c0.1,0.1,0.2,0.3,0.3,0.5c0.2,0.2,0.3,0.4,0.4,0.6
		C364.8,190.4,365,190.4,365.3,190.4z M21.3,189.9h0.5l1,0.2c0.3,0.1,0.7,0.1,1.1,0.2l0.7-1.2c0.2-0.4,0.5-0.9,1-1.6
		c0.2-0.3,0.4-0.5,0.6-0.7l-0.3-0.1c-1-0.3-2-0.9-2.8-1.5c-0.8,1.8-2.3,3.3-4,4.2l0.8,0.1c0.3,0.1,0.7,0.1,1,0.2
		C20.9,189.8,21.1,189.9,21.3,189.9z M373.9,190.3L373.9,190.3L373.9,190.3z M36.1,184.3C36.1,184.3,36.1,184.3,36.1,184.3
		L36.1,184.3C36.1,184.3,36.1,184.3,36.1,184.3z M39.8,175.6L39.8,175.6L39.8,175.6z M34.5,115.6c0.7,0.7,1.2,1.4,1.7,2.3
		c0-0.4,0-0.8-0.2-1.4C36.1,116.4,35.7,116,34.5,115.6z"/>
	<path id="path4907" inkscape:connector-curvature="0" class="st0" d="M379.5,193.6c-0.1-0.5-0.3-1.1-0.5-1.6l-0.2-0.4
		c-0.1-0.3-0.3-0.7-0.4-1.1c-0.1-0.2-0.1-0.3-0.1-0.5c0-0.1,0-0.2,0-0.3c0.2-2-0.3-3-1.1-4.4c-0.6-1.1-1.4-1.5-2-1.5
		c-0.1,0.4-0.5,0.7-1,0.7c-0.1,0-0.1,0-0.2,0c-0.6-0.1-0.9-0.6-0.9-1.2c0-0.1,0-0.3,0-0.4c0-0.5-0.1-1-0.4-1.5
		c-0.7-1.2-5.5-5.2-7.3-5.2c-1.5,0-3,0.8-4.1,2.2c-0.2,0.2-0.5,0.4-0.8,0.4h-0.1c-0.3,0-0.7-0.2-0.8-0.5c-0.2-0.3-0.3-0.6-0.4-0.9
		c-0.3-0.9-0.5-1.7-0.7-2.6l-0.1-0.7c-0.5-2.2-1.3-4.5-4.2-5.3c-0.2-0.1-0.6-0.1-0.9-0.2c-0.3,0-0.7,0-1-0.1H352
		c-0.6,0-1.2,0-1.8-0.1c-1.2-0.2-2-0.6-2-1.9c0-0.1,0-0.2,0.1-0.3l0.3-0.9c0.2-0.7,0.6-1.7,0.9-3c0.5-2.3,0.5-4.5,0.1-6.3
		c-0.1-0.3,0-0.7,0.3-0.9c0.2-0.2,0.5-0.3,0.8-0.3c0.1,0,0.1,0,0.2,0c1.2,0.2,2.2,0.2,2.5,0.2c6.3,0,16.3-4.1,16.3-15.2
		c0-6.4-5.2-12.4-9.5-16.4c-0.3-0.3-0.4-0.7-0.3-1c0.1-0.4,0.4-0.7,0.8-0.8c6.1-1.6,9.5-5.7,9.5-11.5v-0.4c0-0.9,0-1.9-0.2-3
		c-0.3-1.5-0.8-3-1.7-4.4c-0.1-0.1-0.3-0.3-0.6-0.3c-0.1,0-0.2,0-0.3,0c-0.2,0.1-0.5,0.2-0.7,0.3c-0.6,0.4-1.4,1.1-2.1,1.7
		s-1.7,1.1-2.9,1.5c-0.8,0.3-1.6,0.5-2.4,0.7c-0.4,0.1-0.9,0.2-1.4,0.4c-2.9,0.8-6.1,2-9.7,5.1c-1.6,1.4-2.8,3.8-2.9,6.1
		c-0.1,1.9,0.6,3.9,2.2,6c1.3,1.9,3.1,3.6,5,5.4l0.7,0.6c0.7,0.6,1.4,1.3,2,1.9c1,1,1.7,1.8,2.3,2.5c1.5,1.8,2.2,3.3,2.2,4.7
		c0,3-2.1,5-5.4,5c-3.6,0-6.3-1.4-10.1-3.9c-0.6-0.4-1.2-0.8-1.8-1.2c-1.3-0.9-2.6-1.7-4-2.6c-2.6-1.6-5.1-3-7.7-4.1
		c-0.7-0.3-1.4-0.6-2.2-0.9V8H61.6v123.3c-1.4,0.3-2.7,0.8-4,1.4c-1.8,0.8-3.6,1.9-5.9,3.5c-1,0.7-1.9,1.4-2.9,2.1
		c-0.8,0.6-1.7,1.2-2.5,1.8c-3.7,2.6-6.9,4.4-10.4,4.4c-3.4,0-5.9-2-6.2-5.1c-0.3-2.7,1.1-5.5,3.9-7.8l1.6-1.3
		c1.2-0.9,2.3-1.8,3.2-2.7c1.6-1.4,2.8-2.6,3.6-3.7c2.1-2.8,2.7-5.7,1.8-9.4c-0.8-3.3-3.4-5.5-7.8-6.9c-1.6-0.5-3.2-0.8-4.7-1
		l-0.3,0c-0.5-0.1-0.9-0.1-1.2-0.2c-0.5-0.1-0.8-0.2-1-0.3c-2.4-1.1-7.6-4.5-8.6-5.2l-0.4-0.3l-0.3,0.4c-0.9,1.4-1.7,2.4-2.3,7.2
		c-0.6,5.2,3.7,11.6,11.1,12.7c0.4,0.1,0.7,0.4,0.9,0.8c0.1,0.4,0,0.8-0.4,1.1c-7.8,6.2-9.5,8.8-9.9,15.7c-0.3,4.3,1.2,8.5,4.1,11.5
		c3.1,3.3,7.7,5.1,13.2,5.1c1.5,0,3-0.1,4.6-0.4c0.1,0,0.1,0,0.2,0c0.2,0,0.5,0.1,0.6,0.2c0.2,0.2,0.4,0.4,0.4,0.7
		c0.4,4.8,1.2,8.7,2.3,10.5c0.3,0.4,0.2,1-0.2,1.3c-0.3,0.3-0.9,0.6-1.5,0.9c-1.7,0.7-4.2,1.1-6.7,1.1c-1.6,0-2.7,1.1-3.7,3.4
		c-0.3,0.8-0.6,1.6-0.8,2.3l-0.1,0.2c-0.1,0.4-0.2,0.8-0.4,1.1c-0.1,0.3-0.2,0.6-0.3,0.8c-0.3,0.6-0.8,1.1-1.4,1.7
		c-0.2,0.2-0.4,0.3-0.7,0.3c-0.1,0-0.1,0-0.2,0c-0.3-0.1-0.6-0.3-0.7-0.5c-0.8-1.4-2-2.3-3.6-2.6l0,0h-0.2c-2.4,0-6.6,2-8.1,5.8
		c-0.1,0.4-0.5,0.6-0.9,0.6h-0.2c-1.9,0.2-3.1,1.1-3.8,2.8c-0.3,0.7-0.5,1.5-0.6,2.2l-0.2,0.7c-0.1,0.6-0.2,1.2-0.4,1.8
		c-0.1,0.5-0.3,0.9-0.5,1.3c-0.1,0.2-0.2,0.4-0.4,0.6c-0.1,0.1-0.2,0.3-0.3,0.4c-0.4,0.8-0.6,1.6-0.3,2.9c0.2,0.6,0.6,1.2,1.5,1.6
		c0.6,0.3,1.4,0.6,2.3,0.8c1.7,0.4,3.3,0.5,3.6,0.5c0.2,0,0.5-0.1,0.7-0.2c0.2-0.1,0.3-0.2,0.5-0.3c0.2-0.1,0.4-0.2,0.7-0.2
		c0.1,0,0.1,0,0.2,0l0.8,0.1c0.6,0.1,1.4,0.3,2.2,0.4h0.1c0.8,0.2,1.5,0.3,2.1,0.4c0.3,0.1,0.6,0.1,0.8,0.1c0.2,0,0.4,0.1,0.6,0.1
		l0,0c3.3-0.2,4.7-1.4,5.6-2.7c0.3-0.3,0.5-0.7,0.7-1.1l0.4-0.6l0.3-0.5c0.3-0.5,0.5-0.9,0.8-1.3c0.2-0.3,0.5-0.4,0.8-0.4
		c0.1,0,0.2,0,0.3,0c0.4,0.1,0.8,0.2,1.1,0.2c0.8,0.1,1.5,0.2,1.8,0.2c0.2,0,0.4,0,0.6,0c3.1,0,5.5-1.7,7.4-3.4l0.6-0.5
		c0.3-0.3,0.6-0.5,0.9-0.7c0.4-0.3,0.9-0.7,1.4-1.1c0.9-0.6,1.7-0.9,2.5-0.9h0.2c0.8,0,3.6,0.3,8.4,1c0.2,0,0.4,0,0.6,0
		c0.8,0,1.8-0.2,2.9-0.6V209c0,15.9,2,22,6.9,30.5l0.3,0.5l0.3,0.5c28.5,42.3,75.5,67.5,126,67.5s97.5-25.2,125.9-67.5l0.3-0.5
		l0.3-0.5c4.9-8.5,6.9-14.6,6.9-30.5v-21.8c0.4,0,0.7,0.1,1.1,0.1c0.8,0,1.6-0.1,2.4-0.3c0.9-0.2,1.8-0.3,2.7-0.3
		c0.5,0,0.9,0,1.4,0.1c1.2,0.1,2.2,0.4,3.1,0.6l0.2,0.1c1.4,0.3,2.7,0.9,4,1.7c1.1,0.6,2,1.3,2.8,2l0.2,0.2c1.7,1.3,3.5,2.7,6,2.7
		c0.1,0,0.2,0,0.3,0c0.2,0,0.4-0.1,0.4-0.1c0.1,0,0.3-0.1,0.5-0.2c0.3-0.1,0.7-0.3,1.2-0.4c0.4-0.2,0.8-0.3,1.3-0.4
		c0.1,0,0.1,0,0.2,0c0.3,0,0.7,0.2,0.9,0.5c0.1,0.2,0.3,0.4,0.4,0.6c0.3,0.4,0.5,0.8,0.8,1.3c1,1.2,2.7,2.9,6.8,3c0.4,0,0.7,0,1.1,0
		c2.1,0,3.5-0.2,4-0.3c0.1,0,0.1,0,0.2,0c0.2,0,0.4,0.1,0.6,0.2c0.4,0.3,0.9,0.4,1.4,0.4c1.1,0,2.7-0.3,4.1-0.8
		c0.8-0.3,1.4-0.6,1.9-1c0.6-0.5,1-1,1.1-1.5C379.7,194.7,379.6,194.2,379.5,193.6"/>
	<path id="path4909" inkscape:connector-curvature="0" class="st1" d="M318.3,181.6c-1.8-2.4-3-5.7-3.5-9.3c0-0.3-0.2-0.6-0.5-0.7
		c-0.2-0.1-0.4-0.2-0.6-0.2c-0.1,0-0.2,0-0.3,0c-0.4,0.1-0.8,0.2-1.2,0.3v2.9V209c0,13.7-1.6,16.9-4.8,22.5
		c-24.4,36.5-65.7,60.4-112.5,60.4s-88.1-24-112.5-60.4c-3.2-5.6-4.8-8.8-4.8-22.5v-31.5v-5.7c-0.1,0-0.2,0-0.3,0H77l0,0
		c-0.4,0-0.8,0.2-0.9,0.6c-0.5,0.9-0.9,1.9-1.4,2.8l-0.8,1.6c-0.7,1.5-1.5,2.9-2,3.6c-0.5,0.6-1,1.1-1.6,1.4v4.7V209
		c0,14.6,1.8,19.1,5.7,26.1l0.1,0.2l0.1,0.2c26.7,39.8,71,63.6,118.5,63.6s91.8-23.8,118.5-63.6l0.1-0.2l0.1-0.2
		c4-7,5.7-11.5,5.7-26.1v-23.1v-3.1C319,182.5,318.6,182,318.3,181.6"/>
	<path id="path4911" inkscape:connector-curvature="0" class="st1" d="M76.2,126.5l0.4-0.4c0.4-0.3,0.7-0.7,1.1-1v-101h234.6v100.5
		c0.7,0.5,1.4,1,2.1,1.4c0.6,0.4,1.2,0.8,1.8,1.2c1.1,0.7,2.2,1.2,3.3,1.6v-112h-249v113.1c1.1-0.3,2.2-0.7,3.2-1.4
		C74.4,128.1,75.2,127.4,76.2,126.5"/>
	<path id="path4913" inkscape:connector-curvature="0" class="st1" d="M68.8,130.3V15.1h252.5v114.2c0.4,0.1,0.9,0.2,1.4,0.3
		l0.5,0.1c0.7,0.1,1.4,0.3,2.1,0.5V11.1H64.8v119.6c0.6-0.1,1.2-0.1,1.8-0.2C67.3,130.5,68,130.4,68.8,130.3"/>
	<path id="path4915" inkscape:connector-curvature="0" class="st1" d="M321.4,184.1c-0.1,0-0.1-0.1-0.2-0.1v3v22
		c0,15-1.8,19.7-6,26.9l-0.2,0.3l-0.2,0.3c-27,40.3-71.8,64.4-119.9,64.4S102,276.8,75,236.5l-0.2-0.3l-0.2-0.3
		c-4.2-7.2-6-12-6-26.9v-21.7v-4.5c-0.3,0.1-0.6,0.3-0.8,0.4l-0.1,0.1c-0.4,0.2-0.8,0.4-1.1,0.5c-0.7,0.4-1.3,0.8-2,1.2v4.7V209
		c0,15.9,2.1,21.2,6.5,28.9l0.2,0.4l0.2,0.4c27.7,41.4,73.8,66.1,123.3,66.1s95.5-24.7,123.3-66.1l0.2-0.4l0.2-0.4
		c4.4-7.7,6.5-13.1,6.5-28.9v-19.6v-3.2c-1.1-0.5-2.1-1.1-3-1.7C322,184.4,321.7,184.3,321.4,184.1"/>
	<path id="path4917" inkscape:connector-curvature="0" class="st2" d="M252.4,166.7c-0.3,1.9,2.1,4.9,2.8,6.2
		c0.3-0.7,2.4-5.4,2.7-5.9C256.9,166.9,254.2,166.9,252.4,166.7"/>
	<path id="path4919" inkscape:connector-curvature="0" class="st2" d="M135,171.5c1-1.7,2-2,2.8-2.9c0.4-1.2,1-1.9,1.8-2.9
		c-1.9,0.3-5.7,1-7.2,1.3C132.7,168.1,133,170.7,135,171.5"/>
	<path id="path4921" inkscape:connector-curvature="0" class="st2" d="M255.4,184.2c-0.1-0.4-0.2-0.8-0.3-1.2
		c-0.1-0.5-0.5-0.8-1-0.8l0,0c-0.5,0-0.9,0.3-1,0.7c-0.5,1.7-1.9,4.5-5.7,4.7c-0.1,0-0.2,0-0.3,0c-1.7,0-3.9-0.8-5.4-1.4l-0.7-0.3
		c-0.8-0.3-1.5-0.6-2.2-0.8c-1-0.3-1.7-0.5-2.3-0.6c-0.1,0-0.3,0-0.4,0c-0.2,0-0.4,0-0.7,0c-0.4,0-0.9,0.1-1.4,0.1
		c-0.9,0.1-2,0.2-3,0.2h-0.2c-2.2,0-3.9-0.7-5.3-1.9c-0.2-0.2-0.5-0.3-0.7-0.3c-0.3,0-0.5,0.1-0.8,0.3c-3.4,3.5-7.5,5.3-12.4,5.3
		h-0.4c-1,0-2.8-0.6-3.5-1.5c-0.3-0.4-0.4-0.8-0.3-1.3c0.1-0.3,0-0.6-0.2-0.9c-0.2-0.2-0.5-0.4-0.8-0.4c-2.7,0-4.4-1.4-4.8-2.6
		c-0.3-1,0.1-2,1.2-2.7l0.3-0.2c0.4-0.3,0.8-0.6,1.4-1.1c0.9-0.7,1.9-1.7,3.1-3c2.5-2.6,4.4-5.9,6-10.1c1.3-3.6,2.2-7.6,3.1-11.5
		l0.1-0.6c1.8-7.9,3.8-16.9,10.3-24c4.8-5.2,8.4-8.1,18.6-15.3c1.7-1.2,3.5-2.7,5.2-4.1c-7.6-10.4-18-18.6-30-23.5
		c5.3,6.1,8.5,14.1,8.5,22.8c0,19.3-15.6,34.9-34.9,34.9s-34.9-15.6-34.9-34.9c0-8.6,3.1-16.5,8.3-22.5
		c-11.2,4.7-20.8,12.1-28.2,21.5c1.8,1.3,3.6,2.6,5.7,4.4c1.4,1.2,3,2.5,4.8,4.1c1.3,1.1,2.7,2.3,4.4,3.7c1,0.9,2.2,2.3,3.7,4.2
		c0.5,0.6,1,1.2,1.4,1.8c0.7,0.9,1.3,1.7,1.9,2.4c4.5,5.5,7.3,9.2,8,13.8c1.2,8.9,2.1,13.9,5.5,22.8c0.1,0.2,0.2,0.4,0.4,0.6
		c0.2,0.2,0.4,0.5,0.7,0.8l0.8,0.8c0.3,0.3,0.5,0.6,0.8,0.8c0.6,0.7,1,1.6,1.4,2.3l0.4,0.7c0.3,0.6,0.6,1.2,1,1.8
		c0.8,1.4,2,3.1,4,4.2c2.1,1.2,2.5,1.4,3.2,2.1c0.3,0.3,0.5,0.7,0.5,1.1c0,0.6-0.4,1.4-1,1.9c-0.6,0.6-1.5,1-2.6,1.1
		c-0.3,0.1-0.5,0.2-0.7,0.5c-0.2,0.2-0.2,0.6-0.1,0.8c0.2,0.7,0,1.4-0.4,2c-0.7,0.9-1.9,1.4-3.4,1.5c-0.2,0-0.5,0-0.7,0
		c-6.6,0-11-3.1-13.1-4.9c-0.2-0.2-0.4-0.3-0.7-0.3c-0.2,0-0.4,0.1-0.6,0.2l-0.3,0.2c-0.8,0.5-1.9,1.4-3.4,2c-1,0.5-2.1,0.7-3.6,0.7
		c-0.5,0-1,0-1.5-0.1c-0.3,0-0.7,0-1-0.1c-0.5,0-1-0.1-1.5-0.1c-0.3,0-0.5,0-0.8,0c-0.6,0-1,0-1.5,0.1c-1.2,0.2-2.4,0.6-3.8,1.1
		l-0.9,0.3c-1.6,0.5-3.4,1.1-5,1.1c-0.1,0-0.3,0-0.4,0c-2.4,0-4.1-0.9-5-2.7c-0.2-0.4-0.4-0.8-0.5-1.2c-0.1-0.4-0.5-0.7-0.9-0.7
		h-0.1c-0.4,0-0.7,0.2-0.9,0.6c0,0,0,0.1-0.1,0.1c11.9,21.4,34.7,35.9,61,35.9C220.8,220,243.5,205.6,255.4,184.2
		C255.5,184.3,255.4,184.2,255.4,184.2"/>
	<path id="path4923" inkscape:connector-curvature="0" class="st3" d="M118.2,47.6c0-8.3-6.6-15.1-14.6-15.1c-0.2,0-1.4,0-1.6,0H85
		v51.1h10.3V41.3l6.2-0.1c3.8,0,6.7,3,6.7,6.7s-3.1,6.7-6.9,6.7l-2.4,0.1v12.2l10.3,16.7h12.2L107,62.3
		C113.5,60.6,118.2,54.7,118.2,47.6"/>
	<path id="path4925" inkscape:connector-curvature="0" class="st3" d="M129.6,63.9c0-3.4,2.7-6.2,6.1-6.2c3.4,0,6.1,2.8,6.1,6.2
		C141.7,63.9,129.6,63.9,129.6,63.9z M135.6,50.6c-9.1,0-16.5,7.6-16.5,17.1s7.4,17.1,16.5,17.1c6.9,0,12.4-3.2,15.2-8.3l-8.1-3.8
		c-1,2.3-3.4,3.9-6.3,3.9c-3.8,0-6.8-2.8-6.8-6.4c0-0.2-0.1-0.1-0.1-0.4h22c0.1-0.7,0.1-1.4,0.1-2.1
		C151.8,56.6,144.7,50.6,135.6,50.6"/>
	<path id="path4927" inkscape:connector-curvature="0" class="st3" d="M164.9,68c0-4.4,3.3-8,7.4-8c4.1,0,7.4,3.6,7.4,8
		s-3.3,8-7.4,8S164.9,72.4,164.9,68 M189.6,73.9V30.8h-10.1v24.7c-2.7-2.6-6.2-4.2-10.1-4.2c-8.3,0-15.1,7.3-15.1,16.3
		s6.7,16.3,15.1,16.3c0.1,0,0.1,0,0.2,0C174.9,78.6,181.9,75,189.6,73.9"/>
	<path id="path4929" inkscape:connector-curvature="0" class="st3" d="M295.4,83.7h9.7V31.3h-9.7V83.7z"/>
	<path id="path4931" inkscape:connector-curvature="0" class="st3" d="M262.6,70.7c0,3.1-2.6,5.6-5.7,5.6c-3.1,0-5.7-2.5-5.7-5.6
		V52.3h-9.9v20.4c0,6.9,7,12.5,15.6,12.5s15.6-5.6,15.6-12.5V52.3h-9.8L262.6,70.7L262.6,70.7z"/>
	<path id="path4933" inkscape:connector-curvature="0" class="st3" d="M221.3,74.7H212V41.4h6.5c2.8,0,5.2,2.4,5.2,5.4
		s-2.3,5.4-5.2,5.4h-3.4v9.2h6.2c3.5,0,6.1,2.9,6.1,6.6C227.2,71.8,225,74.4,221.3,74.7 M229.4,55.7c2.7-2.6,4.3-6.1,4.3-10
		c0-3.5-1.3-6.7-3.5-9.2c-2.3-2.7-6.4-3.9-12-3.9h-16.6v41.7c6.7,1.4,12.6,4.7,17.3,9.3h4.1c8.2-0.1,14.8-6.7,14.8-14.7
		C237.9,63,236,58.9,229.4,55.7"/>
	<path id="path4935" inkscape:connector-curvature="0" class="st3" d="M278.9,83.7h9.7V31.3h-9.7V83.7z"/>
	<path id="path4937" inkscape:connector-curvature="0" class="st4" d="M168.2,127.3c10.2,7.4,24.5,8.5,35.7,2.5
		c12.2-6.3,19.6-19.3,18.4-33.3c-0.2-2-0.5-4-1.1-5.9c3.4,5.2,5.4,11.3,5.4,17.9c0,17.8-14.5,32.3-32.3,32.3
		C183.6,140.8,174.1,135.5,168.2,127.3"/>
	<path id="path4939" inkscape:connector-curvature="0" class="st1" d="M184.9,116.6c-7.5-1.8-12.7-3.6-12.7-3.6
		c-0.8-7.8-0.1-14.6-0.1-14.6c3.3-1.7,12.1-5.7,12.1-5.7c4.2,4.8,8.2,11.2,8.2,11.2C190.5,107.6,184.9,116.6,184.9,116.6
		 M172.5,84.8c-0.8,1.2-3,5-5,9.4c-1.9,2.4-3.5,4.8-4.2,5.8C164.9,94.1,168.1,88.9,172.5,84.8 M206.4,103.6c0,0,2.8-5.9,6.2-10.7
		c0,0,6.5,3.1,9.6,5.6c0,0,1.1,3.5,0.4,13.8c0,0-3.9,2.3-9.6,3.6C213,116,209.2,109.5,206.4,103.6 M191.7,127.8l14-0.4l2.7,7.6
		c-5.3,3.1-11.6,4.8-11.6,4.8c-6.7-1.5-10.5-4.3-10.5-4.3L191.7,127.8z M194.4,76.2c4.3,0,8.3,0.8,12,2.3c-0.1,0.6-0.6,2.3-1.9,4.5
		c-6.7-0.9-14.2-0.2-14.2-0.2l-6.2-4.9C187.4,76.8,190.9,76.2,194.4,76.2 M173.8,133.3c-5.4-4.5-9.2-10.6-10.8-17.7
		c1.7,1.8,5.1,5.2,5.1,5.2c2,4.2,7,11.4,7,11.4C174.7,132.6,174.1,133,173.8,133.3"/>
	<path id="path4941" inkscape:connector-curvature="0" class="st1" d="M91.3,229.2l3.1,3.8l10.5-8.7c3.2-2.7,9.4-8.3,12.3-11
		l0.1,0.1c-7.2,7.8-13.1,16-19.6,23.6l2.9,3.6l36.3-30.1l-3.1-3.8l-10.5,8.7c-3.2,2.6-9.4,8.3-12.3,11l-0.1-0.1
		c7.2-7.8,13.1-16,19.6-23.6l-2.9-3.6L91.3,229.2L91.3,229.2z"/>
	<path id="path4943" inkscape:connector-curvature="0" class="st1" d="M153.6,224.1l-7.8-5.9c-2.1-1.6-5.2-1.2-6.9,0.9l-22.7,29.7
		c-1.6,2.1-1.2,5.2,0.9,6.8l7.8,5.9l3-3.9l-7.8-5.9l9.9-12.9l5.8,4.5l3-3.9L133,235l9.9-12.9l7.8,5.9L153.6,224.1L153.6,224.1z"/>
	<path id="path4945" inkscape:connector-curvature="0" class="st1" d="M142.5,271.8l4.2,1.7c3.9-6.1,8.1-11.9,12.5-21.1h0.1
		c-3,9.7-3.8,16.9-5.1,24l4.2,1.7l18.7-43.3l-4.6-1.8c-3.1,7.8-6.4,15.7-9.5,23.6c-1.1,2.8-2.1,5.7-3.2,8.5h-0.1
		c2-7.6,2.8-12.9,4-18.2l-3.8-1.5c-2.7,4.7-5.8,9.1-9.4,16l-0.1-0.1c1.1-2.8,2.3-5.6,3.4-8.4c3.1-7.9,6-15.9,9-23.8l-4.6-1.8
		L142.5,271.8L142.5,271.8z"/>
	<path id="path4947" inkscape:connector-curvature="0" class="st1" d="M204.6,282.7l4.9-0.5l-2.3-20.9c1.4-0.8,2.5-1.8,3.3-3.1
		c0.7-1.3,1-2.8,0.8-4.3l-2.1-19l-4.9,0.5l2.3,21.1l-4.9,0.5l-2.3-21.1l-4.9,0.5l2.1,19c0.2,1.5,0.8,2.9,1.8,4.1
		c1,1.1,2.3,1.9,3.8,2.3L204.6,282.7L204.6,282.7z"/>
	<path id="path4949" inkscape:connector-curvature="0" class="st1" d="M240.4,268.7l-4.6,1.8l-13.6-34.8l4.6-1.8L240.4,268.7
		L240.4,268.7z M230.6,270.4c1.5,3.8,5.7,5.6,9.5,4.2c3.8-1.5,5.6-5.7,4.2-9.5l-12.1-31c-1.5-3.8-5.7-5.6-9.5-4.2
		c-3.8,1.5-5.6,5.7-4.2,9.5L230.6,270.4L230.6,270.4z"/>
	<path id="path4951" inkscape:connector-curvature="0" class="st1" d="M242.6,225.1l3.9-2.9l9.6,13.1l-3.9,2.9L242.6,225.1z
		 M263.7,262.1l3.9-2.9l-12.5-17l3.9-2.9l10.4,14.2c0.7,1,1.9,1.7,2.9,2.2l4-3c-1.2-0.6-2.3-1.1-3-2.1l-9.3-12.7
		c-1.7-2.3-3.1-2.6-4.3-2.2c0.6-1.2,0.9-2.5-0.5-4.3l-8.8-12c-1.6-2.2-4.6-2.6-6.8-1l-7.9,5.8L263.7,262.1L263.7,262.1z"/>
	<path id="path4953" inkscape:connector-curvature="0" class="st1" d="M262.9,198.8l-3.3,3.8c0,0,0.7,2.1,2.3,3.4
		c1.6,1.4,9,7.7,9,7.7s3.5,2.7,0.2,6.6l-15.4-13.2l-3.2,3.7l35.8,30.7l3.2-3.7L275,223.6c0,0,3.2-3.7,6.3-1.1
		c2.6,2.3,10.6,9.1,10.6,9.1s1.7,1.6,3.6,1.6l3.3-3.8c0,0-2.1-0.2-4.3-2.1c-2.2-1.9-8.8-7.6-8.8-7.6s-5.9-5.6-11.1,0.5
		c0,0,4.6-6.1-2.1-11.8c-5.2-4.5-7.8-6.7-7.8-6.7S263.2,200.5,262.9,198.8"/>
	<path id="path4955" inkscape:connector-curvature="0" class="st3" d="M107.1,179c1.2,1.3,1.2,3.4,2.6,4.4c1.8,0.3,3.5-0.4,4.9-1.5
		c0.8-0.7-0.4-1.5-0.5-2.3c-0.8-1.2-0.2-3.5-2.2-3.5c-1.9,0.3-3.9,0.4-5.8,0.4l-0.5,0.4C105.1,177.9,106.8,177.9,107.1,179"/>
	<path id="path4957" inkscape:connector-curvature="0" class="st3" d="M14.8,185.4c-1,0.5-2,1.4-2.3,2.5c-0.3,1.9,0.1,3.8-1.4,5.2
		c-0.1,0.4-0.4,0.8-0.1,1.2c1.3,0.4,2.6,1,4.3,1.2c0.7-2.4,1.3-5,2.1-7.1v-0.6C16.8,186.8,16,185.7,14.8,185.4"/>
	<path id="path4959" inkscape:connector-curvature="0" class="st3" d="M165.7,159.2l-0.2,0.5l-0.2,0.5c-0.2,0.5-0.5,0.7-0.9,0.8
		c-0.2,0.1-0.5,0-0.7-0.1s-0.3-0.4-0.3-0.6v-0.5l-0.2-1.9c-0.2-0.9-0.4-1.5-0.8-2.1l-0.8-1l-0.9-1.1c-0.7-0.7-1.4-1.1-2-1.1
		c-0.5,0.2-1,0.5-1.5,1.1l-0.7,0.8l-0.6,0.8c-0.2,0.4-0.7,0.2-0.7,0.2s0,0-0.1,0v-0.1c-0.1-0.4-0.2-0.7-0.2-1.1
		c0-0.6,0.2-1.1,0.4-1.5l0.5-1l0.6-1.2l0.1-0.1c0.2-0.2,0.3-0.5,0.5-0.9l0.2-0.4l0.3-0.9c0.5-1.1,1.3-1.4,2.4-0.9
		c0.9,0.5,1.4,1.2,1.8,1.8l0.3,0.4l0.3,0.6l0.7,0.9c2,2.2,2.9,4.3,2.9,6.4C165.9,158.1,165.8,158.6,165.7,159.2 M158.2,175.8
		L158.2,175.8L158.2,175.8c-1.2,0.4-2.5,0.5-3.9,0.5h-0.1l-0.3-0.1l-0.3-0.2c-0.1-0.1-0.3-0.3-0.2-0.7c0.5-1.6,2.1-3.4,4.1-3.8h0.2
		h0.3l0.4,0.1c0.2,0.1,0.6,0.2,0.7,0.8c0,0.3,0.1,0.6,0.1,0.9C159.2,174.1,159,175.2,158.2,175.8 M135,135.6h-0.2c0,0,0,0,0,0.1l0,0
		c-0.2,0.2-0.5,0.3-0.8,0.1c0,0,0,0-0.1-0.1v-0.1c-0.5-2.4-1-5-2-7.4l-0.6-1l-0.2-0.3l-0.5-0.7c-0.4-0.6-0.8-1.4-0.2-2.4l0.1-0.1
		c0.4-0.4,1.2-0.5,1.8-0.3h0.1c1,0.7,1.7,1.9,2.2,2.8c0.6,1.4,0.9,3.2,0.9,5.1c0,1.4-0.2,2.9-0.6,4.2L135,135.6 M182.8,178.5
		c-3.7-2.1-5.1-6.1-7.4-9.3c-0.8-1.2-2.2-1.9-2.9-3c-2.6-7.1-4.9-14.2-5.5-22.4c-0.5-2-1-4.1-2.1-6c-3.3-5.4-7.5-10.2-11.7-15.2
		c-0.4-0.4-0.4-0.4-1.2-1.2l-14.4-12c-1.8-1.3-3.8-2.2-5.8-3.1c-3-1.2-7.2-0.9-10.2,0.4c-3.1,1.6-5.9,4-9.2,5.1
		c-4.7,2.1-10.1,2.6-14.2,6.2c-2.4,2.1-4.4,5.3-7.9,4.7c-4-0.2-7.5,1.3-10.5,3.7c-2.7,2.4-5.2,5.3-8.7,6c-3,1.3-6.8,0.7-9.9,1.8
		c-4.9,1.2-8.8,5.1-13,8.1c-4.2,2.4-8.2,5.1-13.5,4.9c-3.4-0.2-6.7-2.6-7.8-5.9c-1-3.8,0.1-7.7,3.1-10.2c3.1-3.7,8-5.9,10.5-10.2
		c1.3-2.3,1.1-5.9-0.6-8c-3.2-3.3-7.9-3.5-12-4.5c-2.7-0.7-4.8-2.8-7.1-4.1c-0.9,1.4-1.2,2.9-1.1,4.6c0.5,3.8,3.4,7.3,7.1,8.6
		c2.1,0.9,4.6,0.2,6.8,0.7c0.6,0.2,1.2,0.8,1.3,1.5c-0.1,0.6-0.2,1.2-0.7,1.6c-3.4,2.9-7,5.6-9.9,9.1c-3,3.3-3.4,9.1-1.8,13.2
		c1.8,4.7,6.7,7.9,11.4,8.5c3.5,0.5,6.6-0.4,9.7-1c0.4,0,0.6,0.4,0.8,0.7c0.3,2.8-0.1,5.3,0.5,7.9c0.5,2.4,1.3,4,2.2,6.3
		c0.1,0.8,0,1.6-0.5,2.3c-1.8,1.3-3.6,2.3-5.5,3.1l-4.7,0.3l-0.9,0.4c-1.8,2.1-1.8,4.2-2.9,6.5c-1.5,2.4-4.1,3.6-6.4,5
		c-0.7,1.2-1.5,2.4-2.6,3.3c-0.8,0.7-1.8,0.9-2.8,1c-1.6,1.9-2,4.5-2.4,7.1c2.7,0.2,5.5,1.7,8.1,0.2c2.3-1,2.7-3.8,4.4-5.4
		c1.3-1.5,3.3-0.4,4.9-0.1c2.4,0.1,4.1-1.6,6.1-2.4c1.4-0.9,2.6-2.5,4-3.4c2.8-1.3,6.7-0.6,9.6-0.1c2.3,0.6,4.7,0.2,6.8-0.7
		c1.9-1.2,3.7-2.6,5.8-3.1c1.9-1,2.8-3.1,3.6-4.9c0.6-1.6,2.2-2.9,2.1-4.8c-0.5-0.4-1-1.3-1.8-1.3c-0.9,1.3-1.6,2.6-2.6,3.8
		c-4.4,6-7.9,6.6-16.8,6.6c-6.6-0.2-12.6,1.8-17.2,6.9c-0.3,0.2-0.7,0.1-1-0.2c-0.2-0.7,0.4-1.9,0.7-2.5c4.1-5.8,10.4-7.1,17.1-7.2
		c3.7-0.3,7.1-0.9,10.2-2.4c3.5-1.8,5.8-4.5,7.3-7.9c0.8-3.8,1.1-8,2.1-11.6c0.1-0.4,1-0.6,1.3-0.5c0.4,0.1,1.1,0.4,1.1,0.8
		c-0.7,3.8-1.9,8.2-0.4,11.9c2.9,3.8,8.3,1.8,12.3,1.6c4.1-0.4,7.5,0,11.4,0.2c1.9-0.1,3.4,0.4,4.9-0.8c0.4-0.7,0.6-1.6,0.5-2.3
		c-0.1-1.1-1-1.8,0-2.7c0.3-0.2,1.2-0.1,1.5,0.2c0.5,1.5,0.8,3.2,1.8,4.5c1.9,2.5,4.8,4.4,7.5,5.8c2.6,1.8,4.7,4.3,4.9,7.4
		c0,1.6-1.5,2.7-2.7,3.4c-2.1,1-4.3,1.9-6.8,1.6c-3.2-1.6-4.1-5-6.2-7.5c-1.1-1.2-2.7-1.5-4.4-1.3c-1.8,0.2-3.5,0.2-5.1,0.8
		c-0.4,0.4-0.5,0.9-0.5,1.5c1.1,2,2.3,4,3.5,6c1.4,0.9,3.4-0.5,4.6,1c1,1.6,1.7,3.5,3.3,4.7c1.5,1.3,3.8,1.9,5.8,1.1
		c4.5-1.4,9-2.9,13.2-5.1h1.4c1.7-0.2,3.6-0.1,4.8-1.3c1.3-1.9,2.4-3.8,3.5-5.8c1-1.4,0.5-3.5,0.1-5.1c-2.1-2.6-3.2-5.4-4.3-8.3
		c-1-0.3-1.9-0.9-3.1-0.9c-0.5,0.2-1.3,0.1-1.6,0.7l4.8,9.5c0.3,0.7,0.7,1.8,0.5,2.7c-0.7,2-1.7,4-3.3,5.4c-0.3,0.2-0.7,0.4-0.9-0.1
		c0.5-2.1,1.5-4.3,1.4-6.7l-4.7-8.5c-0.6-1.2-1.5-2.2-1.5-3.5c0-0.6,0.5-1,1-1.3c2.1-0.7,4.6-0.5,6.1-2.2c2.1-3.2,2.5-6.4,3.1-10.2
		c0.1-0.2,0.6-0.7,1-0.7c0.4-0.1,0.8,0.4,1,0.6c0.6,4.2-0.2,8.5-2.7,11.7c-0.1,0.4-0.3,1,0.2,1.3c2.3,0.7,4.7,0,6.7-1
		c2.5,0.1,4.8-0.5,7.1-0.9c0.2,0.1,0.5,0.4,0.5,0.6c-1.5,1.7-2.4,3.6-2.8,5.8c-1.8,1.9-4.4,3.5-4.6,6.3c0.3,1.3,1.5,0.1,2.3,0.2
		c0.4,0.1,0.6,0.4,0.6,0.7l-1.8,2.7c-1,1.6,0.2,3.4,0.2,4.9c0.4,1.2,1.9,1.8,3.2,1.8c2.7-0.1,5.2-1.2,7.6-2c2.7-1.2,6-1.1,8.9-0.6
		c2.9-0.2,5-2.1,7.1-4c1.2,0,2.2,0.8,3,1.6c3.3,3.5,7.5,5,12.4,4.9l0.4-0.2c0.3-0.3,0.2-0.9-0.2-1.1l-2.9-1.5c-2-1.3-4.5-3-5.2-5.2
		c-0.6-2-1.7-4.2-2.9-6.1c-0.4-1-1.4-1.8-1.8-2.7c0.1-0.1,0.2-0.3,0.4-0.2c3.2,1.1,5.1,4.2,6.5,7c2.3,3.2,5.7,6,10,5.2l0.4-0.3
		c0.2-0.2,0.1-0.5,0-0.7L182.8,178.5L182.8,178.5z"/>
	<path id="path4961" inkscape:connector-curvature="0" class="st3" d="M21.2,185.3c1.9-1.1,3.1-3.2,4.1-4.9
		c-0.2-0.7-0.9-1.2-1.4-1.6c-0.4-0.3-0.9-0.1-1.3,0.1c-1.3,1.2-2.7,2.1-4.2,3c-0.6,0.4-0.4,1.3-0.5,2c0,0.6,0.7,1,1.1,1.4
		C19.6,185.4,20.5,185.5,21.2,185.3"/>
	<path id="path4963" inkscape:connector-curvature="0" class="st3" d="M279.6,177.2c-1.6,0.3-3.5-0.1-5.2,0.2
		c-0.7,1.1-1.4,2.4-1.2,3.9c0.2,1.5,1.9,1.6,3,2.1c1,0.1,2.6,0.5,3.1-0.6c0.6-1.6,1.2-3.3,1.4-5C280.6,177.2,280.1,177,279.6,177.2"
		/>
	<path id="path4965" inkscape:connector-curvature="0" class="st3" d="M264.2,121.2l-0.3,0.5l-0.3,0.5l-1.9,1.8l-2.1,1.9
		c-1.5,1.5-2.6,2.8-3.4,4c-0.7,0.9-1.1,1.9-1.6,2.9c-0.1,0.3-0.5,0.3-0.7,0.2h-0.1c0-0.1,0-0.1,0-0.1c-0.1-0.4-0.2-0.8-0.2-1.2
		c0-0.3,0-0.7,0.1-1.1l0.4-1.5l0.2-0.7c1.2-3.1,3.8-6.3,7.2-8.9c0.4-0.3,1.2-0.5,1.9-0.3c0.4,0.1,0.6,0.4,0.8,0.7
		c0.2,0.3,0.2,0.5,0.2,0.7C264.3,120.9,264.3,121,264.2,121.2l0.1,0.1L264.2,121.2 M239.4,155.8l-0.2,0.6c-0.1,0.2-0.3,0.4-0.5,0.6
		c-0.2,0.1-0.5,0.2-0.8,0c-0.3-0.1-0.6-0.3-0.8-0.6l-0.3-0.4l-0.2-0.4c-0.3-0.5-0.5-0.8-1.2-0.8c-0.6,0-1,0.2-1.3,0.5l-0.4,0.3
		l-0.2,0.2l-0.6,0.4l-0.9,0.7l-0.4,0.3l-1.2,1.1c-0.9,0.9-1.4,1.8-1.5,2.6l-0.2,0.6v0.3l-0.1,0.4c-0.1,0.4-0.2,0.9-0.7,1.2
		c-0.3,0.1-0.7,0-0.9-0.2s-0.3-0.4-0.3-0.6c-0.2-2.9,0.8-5.7,2.8-7.5c1-0.9,1.9-1.9,2.6-2.8l0.8-1l1.6-2l0.2-0.1
		c1.2-0.2,1.9,0.8,2.1,1.3c1,1.3,1.8,2.8,2.6,4.6c0,0.1,0.1,0.3,0.1,0.4C239.4,155.7,239.4,155.7,239.4,155.8 M238,176.9L238,176.9
		c-0.4,0.4-0.9,0.5-1.6,0.4l-1.2-0.1l-0.4-0.1h-0.1c-1.2-0.7-1.5-2-1.6-3.3c0-0.5,0.1-0.8,0.5-1c0,0,0,0,0.1-0.1h0.1
		c1.6,0,2.8,0.5,3.6,1.4v0.1l0.2,0.5l0.4,0.8l0.1-0.1c-0.1,0-0.1,0.1-0.1,0.1c0.1,0.3,0.2,0.5,0.2,0.8
		C238.1,176.5,238.1,176.7,238,176.9 M367.7,188.5c-3.1,0.2-4.6-3.2-6.5-5.1c-1.5-1.8-4.5-2.8-4.4-5.4c-0.5-1-0.7-2.7-1.2-4
		c-0.4-1.1-0.9-2.7-2.3-2.9c-2.6-0.4-5.8,0.3-7.4-2.1c-1.7-1.8,0.2-4,0.5-5.7c0.7-2.3,0.8-5.2,0.4-7.5c-0.1-1.3-1-2.4-0.7-3.8
		c0.6-1.2,2.1-0.3,3-0.2c3.4,1,7.4,0.5,10.5-0.9c4.3-2.1,7.7-6.4,7.5-11.3c-0.6-6.4-5.2-11.6-10.1-15.8c-0.9-0.8-2.1-1.6-2.4-2.8
		c-0.1-2.5,2.7-1.3,4.1-1.9c1.7-0.4,3.4-0.9,4.8-1.8c3.7-2.5,4.5-6.9,3.8-11.1c-0.1-0.4-0.1-0.9-0.7-0.9c-0.7,0.6-1.3,1.3-2.2,1.8
		c-2.4,1.4-5.5,1.2-8,2.4c-3.1,1.3-6.9,3.2-8.3,6.8c-0.4,1.8,0.1,3.6,0.9,5.1c3.8,6,11.7,9.9,13,17c0.5,2.9-1,5.1-3.2,6.7
		c-3.4,2.1-8.5,1.3-11.9-0.5c-6.6-3.3-12.3-8.8-19.4-11c-4.4-2-9.9-1.5-13.9-4.6c-3-1.9-5.7-4.5-9.1-5.4c-2.3-0.8-4.9-0.7-7.1-1.8
		c-2.2-1.9-4.5-3.8-7.1-5.1c-3.5-1.8-7.4-2.7-11.3-3.5c-2.3-0.5-3.2-3.1-5.1-4.4c-3.2-2.6-6.8-4.4-11.2-4c-1.8,0.1-3.2,1.3-4.6,2.6
		c-9.3,8.2-20,13.8-28.5,23.1c-5.7,5.9-7.2,13.4-9.4,20.6c-3,11-4.3,23-15.3,29.8c-0.2,0.3-0.2,0.9,0.2,1.1c2.9,0.7,5.8-0.4,7.7-2.4
		c1.9-3,3.9-5.8,6.5-8.6l0.6-0.3c0.3,0.1,0.7,0.2,0.5,0.7c-0.7,2.4-2.9,4.2-3.7,6.6c-1,2.9-3.8,5.2-6.2,7.2l-0.1,0.4
		c0,0.3,0.3,0.6,0.6,0.7c5.4,0.2,9.2-3.6,12.8-7.2c0.4-0.4,0.9-0.3,1.3-0.2c1.6,1.2,3,3,5.1,3.5c2.2-0.3,4.5-0.6,6.8-0.4
		c3.2,1,6.3,2.3,9.6,3.4c1.6-0.1,2.9-1.6,3.7-3c0.7-1.6-0.3-3.2-0.2-4.7c0.8-0.5,1.7,0.1,2.6-0.1c0.4-0.2,0.7-0.7,0.7-1.1
		c-0.6-2.8-3.1-4.9-3.9-7.5c-1.2-3.4-5.2-5.4-5.9-9c0.2-0.2,0.5-0.6,0.8-0.4c2.6,1.9,4.9,4.4,8.2,4.9c2.4,0.2,4.9,0.5,7.4,0.3
		c0.4-0.1,0.7-0.5,0.5-1c-1-2.2-2-4.4-2.6-6.8c-0.8-3-1.5-7.1-0.5-10.4c0.2-0.2,1-0.7,1.3-0.6c0.5,0.1,1.1,0.7,1.2,1.1
		c0.4,5.2-0.2,9.9,2.9,14c1.3,2.1,3.7,2.6,5.3,4.2c0.6,0.9,0.7,2.3,0.3,3.2l-3.7,5.5c-0.9,1.2-1.7,2.6-2,3.9c-0.3,1.5-0.1,3,0,4.4
		c-0.2,0.1-0.4-0.2-0.6-0.4c-1-2-2.1-4.6-1-6.9l4.7-7.2l0.2-0.5c-1-0.5-2.2-1.1-3.3-1.3c-0.5,0.2-0.9,0.8-1.3,1.3l-4.6,8.3
		c-0.3,1-0.6,1.7-0.4,2.7c0.2,1.2,0.5,2.4,1.1,3.5c0.4,1.7,0.7,2.9,1.5,4.4c1.2,1.3,2.7,0.1,4.2,0.5s2,2.1,3.5,2.6
		c3.3,1.1,6.8,1.7,10.1,3c1.7,0.5,4.1,1.2,5.7-0.2c2.1-1.2,2.7-3.4,3-5.5c0.7-0.9,2-0.5,3-0.8c1.8-1.2,2.4-3.4,3.8-5.1l0.2-0.9
		c-0.2-0.5-0.7-0.9-1.2-1h-6.2c-2.9,0.4-3.1,3.5-4.3,5.5c-0.7,1.2-2,1.7-3.4,1.6c-2.9-0.8-6.5-1.2-7.9-4.4c-0.2-0.8-0.2-1.8,0.4-2.3
		c1.5-1.8,3.4-3.8,5.2-5.2c2.7-0.6,5.3-2.6,6.7-4.9c0.7-1,0.6-2.6,1.8-3.3c0.4-0.1,1.2-0.1,1.4,0.3c0.5,1.8-0.4,3-1,4.6
		c6.6,0.7,11.8-1.2,18.2-1c2.7,0,5.2,0.3,7.9,0.1c2.7-0.1,5.6-1.2,6.5-4c1.2-3.6-0.5-7.7-1.1-11.1l0.7-0.6c0.4-0.2,1.1,0.1,1.4,0.3
		c1.2,3.2,1.9,7.1,2.4,10.7c0.5,3.1,1.8,5.1,3.5,7.7c3.1,4.6,8.6,6.4,14,5.3c6.6-0.5,12.2,3,16.3,8.1v0.3c-0.1,0.2-0.4,0.5-0.7,0.5
		c-3.5-2.7-6.9-5.5-11.4-6.1c-4.5-0.8-8.5,1.5-13.2-0.4c-5.6-1.9-8-5.3-10.4-10.9H318c-0.4,0.1-0.6,0.4-0.7,0.8l0.6,3.8
		c0.7,3,1.7,6.6,5,8c2.6,1.5,5,3.7,8.2,2.9c5.5-1.2,11.1,0.4,15.4,3.5c1.4,0.8,2.5,2.3,4,2.8c1.6,0.7,3.7,0.3,5-0.8
		c3.1-1,3.8,2.9,6,4.3c1.9,1.8,5.7,1.1,8.2,1.1l-0.1-0.3C369.3,192.7,368.6,190.7,367.7,188.5"/>
	<path id="path4967" inkscape:connector-curvature="0" class="st3" d="M375.9,191.7c-0.3-1.4,0.1-3.4-0.9-4.6
		c-0.8-0.6-1.5-1.5-2.6-1.3c-0.9,0.7-2.1,1.6-1.9,2.9c0.7,2.2,1.2,3.8,1.6,6c0.2,0.4,0,1.3,0.7,1.3l3.9-1.3
		C377.5,193.6,376.2,192.7,375.9,191.7"/>
	<path id="path4969" inkscape:connector-curvature="0" class="st3" d="M366.1,179c-1.2-1-2.5,0.5-3.1,1.4c0.4,1.5,1.6,2.7,2.6,4
		c0.5,0.7,1.3,1.2,2.1,1.3c0.8,0,1.5-0.4,2.1-0.9c0.4-0.6,0.9-1.2,0.7-2C369.4,181.2,367.5,180.3,366.1,179"/>
</g>
</svg>
