<?xml version="1.0" encoding="utf-8"?>
<!-- Generator: Adobe Illustrator 21.1.0, SVG Export Plug-In . SVG Version: 6.00 Build 0)  -->
<!DOCTYPE svg PUBLIC "-//W3C//DTD SVG 1.1//EN" "http://www.w3.org/Graphics/SVG/1.1/DTD/svg11.dtd">
<svg version="1.1"
	 id="svg2" inkscape:version="0.48.2 r9819" sodipodi:docname="nyfc.svg" xmlns:cc="http://creativecommons.org/ns#" xmlns:dc="http://purl.org/dc/elements/1.1/" xmlns:inkscape="http://www.inkscape.org/namespaces/inkscape" xmlns:rdf="http://www.w3.org/1999/02/22-rdf-syntax-ns#" xmlns:sodipodi="http://sodipodi.sourceforge.net/DTD/sodipodi-0.dtd" xmlns:svg="http://www.w3.org/2000/svg"
	 xmlns="http://www.w3.org/2000/svg" xmlns:xlink="http://www.w3.org/1999/xlink" x="0px" y="0px" width="300px" height="300px"
	 viewBox="0 0 300 300" style="enable-background:new 0 0 300 300;" xml:space="preserve">
<style type="text/css">
	.st0{fill:#28295C;}
	.st1{fill:#FFFFFF;}
	.st2{fill:#E76B31;}
	.st3{fill:#78A5DB;}
</style>
<sodipodi:namedview  bordercolor="#666666" borderopacity="1.0" fit-margin-bottom="0.5" fit-margin-left="0.5" fit-margin-right="0.5" fit-margin-top="0.5" id="base" inkscape:current-layer="layer1" inkscape:cx="1922.8466" inkscape:cy="-497.97192" inkscape:document-units="px" inkscape:pageopacity="0.0" inkscape:pageshadow="2" inkscape:window-height="1028" inkscape:window-maximized="1" inkscape:window-width="1920" inkscape:window-x="-8" inkscape:window-y="-8" inkscape:zoom="0.18760427" pagecolor="#ffffff" showgrid="false">
	<inkscape:grid  empspacing="5" enabled="true" id="grid2996" snapvisiblegridlinesonly="true" type="xygrid" visible="true">
		</inkscape:grid>
</sodipodi:namedview>
<g>
	
		<path id="path2998" sodipodi:cx="150" sodipodi:cy="422.36218" sodipodi:rx="350" sodipodi:ry="350" sodipodi:type="arc" class="st0" d="
		M300,150c0,82.8-67.2,150-150,150S0,232.8,0,150S67.2,0,150,0S300,67.2,300,150z"/>
	<path id="path3002" inkscape:connector-curvature="0" class="st1" d="M150,51.8c-54.2,0-98.2,44-98.2,98.2s44,98.2,98.2,98.2
		s98.2-44,98.2-98.2S204.2,51.8,150,51.8z M150,55.4c52.3,0,94.6,42.3,94.6,94.6s-42.3,94.6-94.6,94.6S55.4,202.3,55.4,150
		S97.7,55.4,150,55.4z"/>
	<path id="path3772" inkscape:connector-curvature="0" class="st2" d="M150,0C67.1,0,0,67.2,0,150s67.1,150,150,150
		s150-67.1,150-150S232.9,0,150,0z M150,9.3c77.7,0,140.6,63,140.6,140.7s-63,140.6-140.6,140.6S9.4,227.7,9.4,150S72.3,9.3,150,9.3
		z"/>
	<path id="path3774" inkscape:connector-curvature="0" class="st3" d="M150,15.5C75.9,15.5,15.5,75.9,15.5,150S75.9,284.5,150,284.5
		S284.5,224.1,284.5,150S224.1,15.5,150,15.5z M150,45.1c58.2,0,104.8,46.7,104.8,104.9S208.2,254.6,150,254.6S45.2,208.2,45.2,150
		S91.8,45.1,150,45.1z M30.8,142.4l7.7,5.6l-3,9.2h-9.6l-3-9.2L30.8,142.4z M269.3,142.4l7.7,5.6l-3,9.2h-9.6l-3-9.2L269.3,142.4z"
		/>
	<path id="path3776" inkscape:connector-curvature="0" sodipodi:nodetypes="cccccccccccccc" class="st1" d="M98.7,87.8H92v-8.7h23.1
		v8.7h-3.9l38.3,36.9l25.3-24.4c2.6,1.3,5.2,2.9,7.8,4.6l-28.5,27.2v14.1l-8.6-8.5v-5.1L98.7,87.8z"/>
	<path id="path3778" inkscape:connector-curvature="0" sodipodi:nodetypes="ccccccccc" class="st1" d="M187.9,87.8h-4.2v-9h23.1v9
		h-6.6l-8.2,8c-2.5-2.1-4.9-3.4-7.4-4.9L187.9,87.8z"/>
	<path id="path3780" inkscape:connector-curvature="0" sodipodi:nodetypes="cccccccccc" class="st1" d="M118.3,91.7l6.8,6.4
		c0,0,10.4-5.8,25-5.8c25.8,0,46.4,17,54.9,39.5h9.2v-26h-8.6v7.5c-10.5-16.2-30.9-29.7-55.5-29.7C131.3,83.6,118.3,91.7,118.3,91.7
		z"/>
	<path id="path3782" inkscape:connector-curvature="0" sodipodi:nodetypes="ccccccccccccccccccccc" class="st1" d="M129.6,176.2v8.1
		h-21.3v-8.1h6.4v-46.6h-6.1v-8.1h16.5l52.9,50.2v-42.1h-6.3v-8.1H193v8.1h-6.6v54.7h-7l-56.1-53.1v44.9L129.6,176.2L129.6,176.2z"
		/>
	<path id="path3784" inkscape:connector-curvature="0" sodipodi:nodetypes="ccccccc" class="st1" d="M142.9,208v8.7
		c-33.8-3.2-59.7-32.4-59.7-66.3c0-22.4,10.1-39.2,23.9-51.4l6.4,6.2c-13.2,10.9-21.6,27-21.6,45.2C92,179.8,114.4,204.5,142.9,208z
		"/>
	<path id="path3786" inkscape:connector-curvature="0" sodipodi:nodetypes="ccccc" class="st1" d="M156.5,216.7V208
		c22.8-2.5,43-18.9,49.1-40.6h9.1C208,193.3,184.8,213.8,156.5,216.7z"/>
	<path id="path3788" inkscape:connector-curvature="0" sodipodi:nodetypes="ccccccccc" class="st1" d="M160.8,233.3h-21.9v-8.7h6.3
		v-69.4l8.9,8.1v61.3h6.8v8.7H160.8z"/>
	<path id="path3819" inkscape:connector-curvature="0" class="st0" d="M75.5,67.1L63.9,55.7l-2.5,2.5l7.2,7l-12.5-1.6L53.8,66
		l11.6,11.4l2.5-2.5l-7.4-7.2l12.9,1.6L75.5,67.1z"/>
	<path id="path3821" inkscape:connector-curvature="0" class="st0" d="M88,57.4l-2-2.5l-7,5.4l-2.1-2.7l6-4.7l-2-2.5l-6,4.7l-2-2.6
		l6.9-5.4l-2-2.5l-9.7,7.6l10,12.8L88,57.4z"/>
	<path id="path3823" inkscape:connector-curvature="0" class="st0" d="M103.1,30.8l-3.3,1.7l2.1,11.3l-8.3-8.2L90.9,37l1.8,11.5
		l-8-8.3L81.3,42l12.4,12l2.8-1.4l-1.6-11.1l8.1,7.8l2.8-1.4L103.1,30.8z"/>
	<path id="path3825" inkscape:connector-curvature="0" class="st0" d="M129.4,24l-4,0.9l-2.4,7.2l-5.2-5.5l-4.1,0.9l8.3,8.2l1.4,6.3
		l3.5-0.8l-1.4-6.3L129.4,24z"/>
	<path id="path3827" inkscape:connector-curvature="0" class="st0" d="M146.4,24.9L146.4,24.9c-0.9-0.8-1.8-1.5-2.8-1.9
		s-2.1-0.6-3.1-0.6c-1.1,0-2.1,0.3-3.2,0.7c-1.1,0.4-2,1.1-2.9,2s-1.5,1.9-2,2.9c-0.4,1.1-0.6,2.1-0.6,3.2c0,1.1,0.2,2.1,0.7,3.2
		c0.4,1,1,1.9,1.9,2.7l0,0c0.8,0.8,1.8,1.4,2.8,1.8c1,0.4,2.1,0.6,3.1,0.6c1.1,0,2.1-0.3,3.2-0.7c1.1-0.4,2-1.1,2.9-2s1.5-1.9,2-2.9
		c0.4-1.1,0.6-2.1,0.6-3.2s-0.2-2.1-0.7-3.2C147.9,26.6,147.3,25.7,146.4,24.9z M143.9,27.6c0.5,0.5,0.9,1,1.2,1.6s0.4,1.2,0.5,1.8
		c0,0.6-0.1,1.3-0.3,1.9c-0.2,0.6-0.6,1.2-1.1,1.7s-1.1,0.9-1.7,1.1c-0.6,0.2-1.2,0.4-1.9,0.3c-0.6,0-1.3-0.1-1.9-0.4
		c-0.6-0.3-1.2-0.6-1.7-1.1l0,0c-0.5-0.5-0.9-1-1.2-1.6s-0.4-1.2-0.5-1.8c0-0.6,0.1-1.3,0.3-1.9s0.6-1.2,1.1-1.7s1.1-0.9,1.7-1.1
		c0.6-0.2,1.2-0.4,1.9-0.4c0.6,0,1.3,0.1,1.9,0.4C142.8,26.7,143.3,27,143.9,27.6L143.9,27.6z"/>
	<path id="path3829" inkscape:connector-curvature="0" class="st0" d="M166.3,39.6l-3.6-6.1c1.1-0.3,1.9-0.9,2.6-1.7
		c0.7-0.8,1.1-1.8,1.2-3.2l0,0c0.1-1.7-0.3-3-1.4-4c-1-1-2.5-1.6-4.4-1.7l-7.4-0.5l-1.1,16.2l3.6,0.2l0.3-5.2l2.8,0.2l3.1,5.4
		L166.3,39.6z M162.9,28.7c0,0.7-0.3,1.2-0.8,1.6s-1.2,0.6-2.1,0.5l-3.6-0.2l0.3-4.7l3.5,0.2c0.9,0.1,1.6,0.3,2,0.7
		C162.7,27.3,163,27.9,162.9,28.7L162.9,28.7z"/>
	<path id="path3831" inkscape:connector-curvature="0" class="st0" d="M182.8,43.4l-4.7-10.6l8-5.3l-4.2-0.9l-8,5.5l1.5-6.9
		l-3.5-0.8l-3.5,15.9l3.5,0.8l1.1-4.9l2.3-1.5l3.4,7.9L182.8,43.4z"/>
	<path id="path3833" inkscape:connector-curvature="0" class="st0" d="M205,49.9l-1.1-3c-0.8,0.3-1.6,0.4-2.3,0.5
		c-0.7,0-1.5-0.1-2.4-0.5c-0.6-0.3-1.2-0.7-1.6-1.2c-0.4-0.5-0.7-1-0.9-1.6s-0.3-1.2-0.2-1.9c0-0.7,0.2-1.3,0.5-1.9l0,0
		c0.3-0.6,0.7-1.2,1.1-1.6c0.5-0.5,1-0.8,1.6-1.1s1.2-0.4,1.8-0.4s1.3,0.1,1.9,0.4c0.7,0.3,1.4,0.8,1.8,1.4c0.5,0.6,0.9,1.2,1.2,2
		l3.2-1.5c-0.2-0.5-0.4-1-0.7-1.4c-0.3-0.5-0.6-0.9-1-1.3c-0.4-0.4-0.8-0.8-1.3-1.2s-1.1-0.7-1.8-1c-1.1-0.5-2.3-0.8-3.4-0.8
		c-1.1,0-2.2,0.2-3.2,0.6c-1,0.4-1.9,1-2.7,1.7c-0.8,0.8-1.4,1.7-1.9,2.7l0,0c-0.5,1.1-0.7,2.1-0.8,3.2c0,1.1,0.1,2.2,0.5,3.1
		c0.4,1,0.9,1.9,1.7,2.7s1.7,1.5,2.8,2c0.7,0.3,1.4,0.6,2,0.7c0.6,0.1,1.2,0.2,1.8,0.2s1.2-0.1,1.7-0.2
		C203.9,50.3,204.4,50.2,205,49.9L205,49.9z"/>
	<path id="path3835" inkscape:connector-curvature="0" class="st0" d="M208.9,55.8l8.5-13.9l-3.1-1.9l-8.5,13.9L208.9,55.8z"/>
	<path id="path3837" inkscape:connector-curvature="0" class="st0" d="M229.8,54.8l2-2.6L221,44l-2,2.6l4,3L215.2,60l2.9,2.2
		l7.8-10.4L229.8,54.8z"/>
	<path id="path3839" inkscape:connector-curvature="0" class="st0" d="M245.4,65.3l-2.9-2.9l-7.4,1.8l1.9-7.4l-3-3l-2.5,11.4
		l-4.5,4.5l2.5,2.5l4.6-4.6L245.4,65.3z"/>
	<polygon class="st0" points="60.7,231.2 56,235.8 53.9,233.5 65.9,221.9 74.1,231.1 71.9,233.3 65.7,226.4 62.9,229.1 68.4,235.2 
		66.2,237.3 	"/>
	<polygon class="st0" points="105.2,269.2 109.6,256.4 104.8,254.7 105.8,251.8 118.5,256.5 117.5,259.4 112.5,257.5 108.1,270.3 	
		"/>
	<path class="st0" d="M126.8,275.2c-0.6,0-1.2-0.1-2-0.3l-7.7-1.8l3.4-16.3l7.4,1.7c0.8,0.2,1.4,0.5,2,0.8c0.6,0.4,1.1,0.8,1.4,1.3
		c0.4,0.5,0.6,1.1,0.8,1.7c0.1,0.6,0.1,1.3,0,1.9s-0.3,1.1-0.5,1.5s-0.5,0.8-0.8,1c-0.2,0.2-0.4,0.3-0.7,0.5
		c0.4,0.3,0.7,0.7,0.9,1.1s0.4,0.9,0.5,1.4s0.1,1.1-0.1,1.7c-0.2,0.7-0.4,1.4-0.8,1.9c-0.4,0.5-0.9,1-1.5,1.3s-1.3,0.4-2,0.5
		C127,275.2,126.9,275.2,126.8,275.2z M125.5,272c0.4,0.1,0.8,0.1,1.1,0.1c0.4,0,0.7-0.1,1-0.2c0.5-0.2,0.7-0.6,0.9-1.2
		c0.1-0.6,0-1.1-0.3-1.5c-0.4-0.5-1.2-0.9-2.1-1.1l-4.5-1l-0.8,3.7L125.5,272z M126.4,265.1c0.4,0.1,0.7,0.1,1,0.1
		c0.4,0,0.7-0.1,0.9-0.2c0.3-0.1,0.7-0.4,0.9-1.2c0.1-0.5,0-1-0.3-1.4s-0.9-0.7-1.7-0.9l-4.3-1l-0.8,3.6L126.4,265.1z"/>
	<path class="st0" d="M147.9,277.5l-1.5-4.1l-7.2-0.4l-2.2,4l-3.2-0.2l8.4-16.5l2.4,0.2l6.6,17.3L147.9,277.5z M145.3,270.3
		l-2.1-5.4l-2.6,5.2L145.3,270.3z"/>
	<polygon class="st0" points="167.8,259.3 170.9,258.8 173.6,272 182.1,270.4 182.8,273.5 171.3,275.6 	"/>
	<path class="st0" d="M225.7,251c-0.9,0-1.8-0.3-2.9-0.9c-0.9-0.5-1.7-1.2-2.4-2l-6.2-7.5l2.4-1.9l6.1,7.4c1,1.1,2.2,1.8,3,1.8
		c1.4,0,1.9-0.4,2.9-1.2c1.1-0.9,1.6-1.8,1.6-2.6c0-1-0.2-1.8-1.1-3l-6.2-7.5l2.4-1.9l6,7.1c1,1.2,2.2,3,2.2,5.2s-1.5,4.2-2.9,5.3
		C228.8,250.6,227.5,251,225.7,251z"/>
	<polygon class="st0" points="154.2,260.6 157.2,260.5 158.2,273.9 166.8,273.6 167,276.6 155.3,277.1 	"/>
	<polygon class="st0" points="202.9,247.6 205.5,246 212.8,257.5 220.2,253 221.8,255.6 211.8,261.6 	"/>
	<path class="st0" d="M76.9,252.5c-4.7,0-8.6-3.9-8.6-8.6s3.9-8.6,8.6-8.6s8.6,3.9,8.6,8.6S81.6,252.5,76.9,252.5z M76.9,238.3
		c-3.1,0-5.6,2.5-5.6,5.6s2.5,5.6,5.6,5.6s5.6-2.5,5.6-5.6S79.9,238.3,76.9,238.3z"/>
	<path class="st0" d="M93.8,263.6c-4.7,0-8.6-3.9-8.6-8.6s3.9-8.6,8.6-8.6s8.6,3.9,8.6,8.6S98.6,263.6,93.8,263.6z M93.8,249.5
		c-3.1,0-5.6,2.5-5.6,5.6s2.5,5.6,5.6,5.6s5.6-2.5,5.6-5.6S96.9,249.5,93.8,249.5z"/>
	<path class="st0" d="M227.3,229.6l5.2-5.6c0.5-0.6,1.1-1,1.7-1.3c0.6-0.3,1.2-0.5,1.8-0.6c0.2,0,0.4,0,0.6,0c0.4,0,0.9,0.1,1.3,0.2
		c0.6,0.2,1.1,0.5,1.7,1c0.4,0.4,0.8,0.8,1,1.2s0.4,0.8,0.5,1.2c0.1,0.3,0.1,0.6,0.1,0.8l0,0c0.5-0.1,0.9-0.2,1.4-0.2s1,0.1,1.5,0.3
		s1,0.5,1.4,0.9c0.6,0.5,1,1.1,1.2,1.7c0.3,0.6,0.4,1.3,0.3,2c-0.1,0.6-0.3,1.3-0.6,2c-0.3,0.6-0.7,1.2-1.4,1.8l-5.4,5.7
		L227.3,229.6z M239.4,236.5l3.3-3.6c0.6-0.7,1-1.3,1-1.8c0.1-0.5-0.1-0.9-0.6-1.4c-0.4-0.3-0.7-0.5-1.1-0.5c-0.1,0-0.2,0-0.3,0
		c-0.6,0.1-1.3,0.6-2,1.3l-3.1,3.3L239.4,236.5z M234.4,231.9l2.9-3.2c0.5-0.6,0.8-1.1,0.9-1.7c0-0.3,0-0.8-0.6-1.4
		c-0.3-0.3-0.7-0.5-1.1-0.5c-0.1,0-0.1,0-0.2,0c-0.5,0.1-1.1,0.4-1.6,1l-3,3.2L234.4,231.9z"/>
	<path id="path3922" inkscape:connector-curvature="0" sodipodi:nodetypes="csssccsssc" class="st0" d="M204.1,260.3
		c-1,2.3-2.4,4.1-5.5,4.1s-5.6-2.5-5.6-5.6s2.5-5.6,5.6-5.6c0.9,0,1.7,0.2,2.4,0.5l0.9-2.7c-1-0.4-2.2-0.7-3.4-0.7
		c-4.7,0-8.5,3.8-8.5,8.5c0,4.7,3.8,8.5,8.5,8.5c3.9,0,7.1-2.6,8.2-6.1"/>
</g>
</svg>
