<?xml version="1.0" encoding="utf-8"?>
<!-- Generator: Adobe Illustrator 21.1.0, SVG Export Plug-In . SVG Version: 6.00 Build 0)  -->
<!DOCTYPE svg PUBLIC "-//W3C//DTD SVG 1.1//EN" "http://www.w3.org/Graphics/SVG/1.1/DTD/svg11.dtd">
<svg version="1.1"
	 id="Layer_1" inkscape:version="0.48.2 r9819" sodipodi:docname="Orlando_City_2014.svg" xmlns:cc="http://creativecommons.org/ns#" xmlns:dc="http://purl.org/dc/elements/1.1/" xmlns:inkscape="http://www.inkscape.org/namespaces/inkscape" xmlns:rdf="http://www.w3.org/1999/02/22-rdf-syntax-ns#" xmlns:sodipodi="http://sodipodi.sourceforge.net/DTD/sodipodi-0.dtd" xmlns:svg="http://www.w3.org/2000/svg"
	 xmlns="http://www.w3.org/2000/svg" xmlns:xlink="http://www.w3.org/1999/xlink" x="0px" y="0px" width="300px" height="341.6px"
	 viewBox="0 0 300 341.6" style="enable-background:new 0 0 300 341.6;" xml:space="preserve">
<style type="text/css">
	.st0{fill:#633492;}
	.st1{fill:#FFFFFF;}
	.st2{fill:#FDE192;}
</style>
<sodipodi:namedview  bordercolor="#666666" borderopacity="1" fit-margin-bottom="0" fit-margin-left="0" fit-margin-right="0" fit-margin-top="0" gridtolerance="10" guidetolerance="10" id="namedview35" inkscape:current-layer="Layer_1" inkscape:cx="148.21433" inkscape:cy="168.77295" inkscape:pageopacity="0" inkscape:pageshadow="2" inkscape:window-height="480" inkscape:window-maximized="0" inkscape:window-width="706" inkscape:window-x="0" inkscape:window-y="0" inkscape:zoom="0.41450632" objecttolerance="10" pagecolor="#ffffff" showgrid="false">
	</sodipodi:namedview>
<g>
	<path id="path3" inkscape:connector-curvature="0" class="st0" d="M150,341.6C99.6,321,61.3,291.7,36.2,254.4
		c-20.2-29.9-32.1-65-35.3-104.3C-4.3,86.8,15.1,32.6,17.4,26.4C23.3,23.6,74.9,0,150,0s126.7,23.6,132.6,26.4
		c2.3,6.2,21.7,60.4,16.6,123.7c-3.2,39.3-15.1,74.4-35.3,104.3C238.7,291.7,200.4,321,150,341.6"/>
	<path id="path5" inkscape:connector-curvature="0" class="st1" d="M150,333.7c-47.6-20-83.9-48-107.8-83.4
		c-19.5-28.9-31-62.8-34.1-100.8C3.6,93.4,18.8,44.7,23.3,31.8C35.6,26.3,83.2,7.3,150,7.3c66.8,0,114.4,19,126.7,24.5
		c4.5,12.9,19.7,61.7,15.1,117.8c-3.1,38-14.6,71.9-34.1,100.8C233.9,285.7,197.6,313.7,150,333.7"/>
	<path id="path7" inkscape:connector-curvature="0" class="st0" d="M150,325.8c-44.9-19.3-79.1-46.1-101.7-79.5
		c-18.8-27.8-29.8-60.5-32.8-97.3c-4.1-50.9,8.3-95.4,13.7-111.8C45,30.5,89.3,14.6,150,14.6c60.7,0,105,15.9,120.9,22.6
		c5.4,16.4,17.9,60.9,13.7,111.8c-3,36.7-14,69.5-32.8,97.3C229.1,279.7,194.9,306.4,150,325.8"/>
	<path id="path9" inkscape:connector-curvature="0" class="st1" d="M86.3,239.9c-1.1-1.1-2.4-1.9-3.8-2.5c-1.5-0.6-3-0.9-4.7-0.9
		c-1.7,0-3.2,0.3-4.7,0.9c-1.5,0.6-2.7,1.5-3.8,2.5c-1.1,1.1-2,2.3-2.6,3.7c-0.6,1.4-0.9,3-0.9,4.6c0,1.6,0.3,3.2,0.9,4.6
		c0.6,1.4,1.5,2.7,2.6,3.7c1.1,1.1,2.4,1.9,3.8,2.5c1.5,0.6,3,0.9,4.7,0.9c1.7,0,3.2-0.3,4.7-0.9c1.5-0.6,2.7-1.5,3.8-2.5
		c1.1-1.1,2-2.3,2.6-3.7c0.6-1.4,0.9-3,0.9-4.6s-0.3-3.2-0.9-4.6C88.2,242.2,87.4,240.9,86.3,239.9 M85.8,248.2
		c0,1.1-0.2,2.2-0.6,3.2c-0.4,1-1,1.8-1.7,2.5c-0.7,0.7-1.6,1.3-2.6,1.7c-2,0.8-4.4,0.8-6.3,0c-1-0.4-1.9-1-2.6-1.7
		c-0.7-0.7-1.3-1.6-1.7-2.5c-0.4-1-0.6-2-0.6-3.2c0-1.1,0.2-2.2,0.6-3.2c0.4-1,1-1.8,1.7-2.5c0.7-0.7,1.6-1.3,2.6-1.7
		c1-0.4,2-0.6,3.2-0.6c1.1,0,2.2,0.2,3.2,0.6c1,0.4,1.9,1,2.6,1.7c0.7,0.7,1.3,1.6,1.7,2.5C85.6,246,85.8,247.1,85.8,248.2
		L85.8,248.2z"/>
	<polyline id="polyline11" class="st1" points="135.9,256.1 124.1,256.1 124.1,236.7 120.2,236.7 120.2,259.7 133.9,259.7 
		135.9,256.1 	"/>
	<polyline id="polyline13" class="st1" points="167.2,245.6 182.4,260.4 182.4,237.5 178.1,237.5 178.1,250.7 163.5,235.9 
		163.5,251.8 167.2,258.8 167.2,245.6 	"/>
	<path id="path15" inkscape:connector-curvature="0" class="st1" d="M203.1,240c-1.1-1-2.3-1.8-3.8-2.4c-1.4-0.6-3-0.9-4.7-0.9h-7.8
		v23h7.8c1.7,0,3.2-0.3,4.7-0.9c1.4-0.6,2.7-1.4,3.8-2.4c1.1-1,1.9-2.2,2.5-3.6c0.6-1.4,0.9-2.9,0.9-4.6c0-1.6-0.3-3.2-0.9-4.6
		C205,242.2,204.2,241,203.1,240 M190.8,240.3h3.4c1.1,0,2.2,0.2,3.2,0.6c1,0.4,1.9,1,2.7,1.7c0.8,0.7,1.4,1.6,1.8,2.5
		c0.4,1,0.6,2,0.6,3.1c0,1.1-0.2,2.2-0.6,3.1c-0.4,1-1,1.8-1.8,2.5c-0.8,0.7-1.6,1.3-2.7,1.7c-1,0.4-2.1,0.6-3.2,0.6h-3.4V240.3
		L190.8,240.3z"/>
	<path id="path17" inkscape:connector-curvature="0" class="st1" d="M233.4,243.6c-0.6-1.4-1.5-2.7-2.6-3.7
		c-1.1-1.1-2.4-1.9-3.8-2.5c-1.5-0.6-3-0.9-4.7-0.9c-1.7,0-3.2,0.3-4.7,0.9c-1.5,0.6-2.7,1.5-3.8,2.5c-1.1,1.1-2,2.3-2.6,3.7
		c-0.6,1.4-0.9,3-0.9,4.6c0,1.6,0.3,3.2,0.9,4.6c0.6,1.4,1.5,2.7,2.6,3.7c1.1,1.1,2.4,1.9,3.8,2.5c1.5,0.6,3,0.9,4.7,0.9
		c1.7,0,3.2-0.3,4.7-0.9c1.5-0.6,2.7-1.5,3.8-2.5c1.1-1.1,2-2.3,2.6-3.7c0.6-1.4,0.9-3,0.9-4.6C234.3,246.6,234,245,233.4,243.6
		 M230.3,248.2c0,1.1-0.2,2.2-0.6,3.2c-0.4,1-1,1.8-1.7,2.5c-0.7,0.7-1.6,1.3-2.6,1.7c-2,0.8-4.4,0.8-6.3,0c-1-0.4-1.9-1-2.6-1.7
		c-0.7-0.7-1.3-1.6-1.7-2.5c-0.4-1-0.6-2-0.6-3.2c0-1.1,0.2-2.2,0.6-3.2c0.4-1,1-1.8,1.7-2.5c0.7-0.7,1.6-1.3,2.6-1.7
		c1-0.4,2-0.6,3.2-0.6s2.2,0.2,3.2,0.6c1,0.4,1.9,1,2.6,1.7c0.7,0.7,1.3,1.6,1.7,2.5C230.1,246,230.3,247.1,230.3,248.2L230.3,248.2
		z"/>
	<rect id="rect19" x="139.1" y="266.6" class="st1" width="4" height="23"/>
	<path id="path21" inkscape:connector-curvature="0" class="st1" d="M184.2,266.6l-6.1,8.8l-6.2-8.8h-4.7c0.1,0.3,8.8,12.9,8.8,12.9
		v10.1h4v-10.1l8.9-12.9H184.2"/>
	<polyline id="polyline23" class="st1" points="163.4,266.6 148,266.6 148,270.1 154.4,270.1 154.4,289.6 158.4,289.6 158.4,270.1 
		165.8,270.1 163.4,266.6 	"/>
	<polyline id="polyline25" class="st1" points="151.1,235.1 139.4,259.7 143.8,259.7 151.1,244.1 153.5,249.1 151.1,249.1 
		149.5,252.7 155.2,252.7 158.5,259.7 162.8,259.7 151.1,235.1 	"/>
	<path id="path27" inkscape:connector-curvature="0" class="st1" d="M133.4,282.8c-0.3,0.5-0.6,0.9-1,1.3c-0.7,0.7-1.6,1.3-2.6,1.7
		c-2,0.8-4.4,0.8-6.3,0c-1-0.4-1.9-1-2.6-1.7c-0.7-0.7-1.3-1.6-1.7-2.5c-0.4-1-0.6-2-0.6-3.2c0-1.1,0.2-2.2,0.6-3.2
		c0.4-1,1-1.8,1.7-2.5c0.7-0.7,1.6-1.3,2.6-1.7c1-0.4,2-0.6,3.2-0.6c1.1,0,2.2,0.2,3.2,0.6c1,0.4,1.9,1,2.6,1.7
		c0.4,0.4,0.7,0.8,1,1.3v-5.3c-0.6-0.4-1.3-0.8-2.1-1.1c-1.5-0.6-3-0.9-4.7-0.9s-3.2,0.3-4.7,0.9c-1.5,0.6-2.7,1.5-3.8,2.5
		c-1.1,1.1-2,2.3-2.6,3.7c-0.6,1.4-0.9,3-0.9,4.6c0,1.6,0.3,3.2,0.9,4.6c0.6,1.4,1.5,2.7,2.6,3.7c1.1,1.1,2.4,1.9,3.8,2.5
		c1.5,0.6,3,0.9,4.7,0.9c1.7,0,3.2-0.3,4.7-0.9c0.7-0.3,1.4-0.7,2.1-1.1L133.4,282.8"/>
	<path id="path29" inkscape:connector-curvature="0" class="st1" d="M108.3,250.9c2.5-1.4,3.7-3.8,3.7-6.4c0-4.3-2.8-7.8-8-7.8
		c-0.1,0-8.4,0-8.4,0v23h4v-19.2h3.4c0.1,0,0.6,0,0.7,0c2.2,0,4,1.8,4,4c0,2.2-1.8,4-4,4c-0.1,0-0.6,0-0.7,0h-2.3l9.3,11.3h5.3
		L108.3,250.9"/>
	<path id="path31" inkscape:connector-curvature="0" class="st2" d="M150,164.2c0,0-18.1,0.7-20.7,6.6c-0.5,1.1,0,8.8,0,8.8
		s1.5,0.3,2.7-0.5c0,0-0.2,3.4,2.3,5.1c2.5,1.7,6.4,4.1,6.5,4.1c0.1,0,2.4-1.7,3.7-1.8c1.3-0.1,4.1,4.8,5.6,6.2
		c1.4-1.4,4.3-6.3,5.6-6.2c1.3,0.1,3.6,1.8,3.7,1.8c0.1,0,4-2.4,6.5-4.1c2.5-1.7,2.3-5.1,2.3-5.1c1.2,0.8,2.7,0.5,2.7,0.5
		s0.5-7.7,0-8.8C168.1,164.9,150,164.2,150,164.2"/>
	<path id="path33" inkscape:connector-curvature="0" class="st2" d="M224.6,132.8c25.4-1.4,24.6-16.3,24.6-16.3
		c-14.9,6.5-19.9-4.6-26-5.8c21-7.2,17.9-23.1,17.9-23.1c-8.2,10.6-20.5,1.2-26.5,2.1C231.5,78.5,225,62.6,225,62.6
		c-3.2,11.9-24,8.4-24,8.4c11.5-17,1.3-28.5,1.3-28.5c0.9,12.5-21,15.8-21,15.8c5.7-22.2-7-27.8-7-27.8C176.7,41,162,49.3,162,49.3
		l-12-23.4l-12,23.4c0,0-14.7-8.4-12.2-18.9c0,0-12.7,5.6-7,27.8c0,0-21.9-3.2-21-15.8c0,0-10.3,11.5,1.3,28.5c0,0-20.8,3.5-24-8.4
		c0,0-6.5,15.9,10.4,27.1c-6-0.9-18.4,8.5-26.5-2.1c0,0-3.1,15.8,17.9,23.1c-6.1,1.2-11.1,12.4-26,5.8c0,0-0.8,15,24.6,16.3
		c-9.1,5.4-7.2,15.9-23.9,14.1c0,0,5.5,13.7,28,7.8c-6.9,7.3-3.3,16.7-18.9,19.6c0,0,10.2,12.4,29.7-0.3
		c-3.6,6.8,1.5,17.1-12.2,23.9c0,0,14.2,8.3,29-9.4c-0.7,10.7,5.9,18.7-4.5,27.8c0,0,15.6,4.3,24.8-17.7c1.6,9.2,10.5,13,3.4,27.6
		c0,0,11.7,0.9,19.1-18.2c7.5,19.1,19.1,18.2,19.1,18.2c-7.1-14.6,1.8-18.4,3.4-27.6c9.2,21.9,24.8,17.7,24.8,17.7
		c-10.4-9.1-3.9-17.1-4.5-27.8c14.9,17.7,29,9.4,29,9.4c-13.7-6.8-8.6-17.1-12.2-23.9c19.5,12.7,29.7,0.3,29.7,0.3
		c-15.6-2.9-12-12.4-18.9-19.6c22.5,5.9,28-7.8,28-7.8C231.8,148.7,233.7,138.2,224.6,132.8 M115.7,71c10.1,0,9.3-7.8,8.2-9.7
		c0,0,8.5,0.4,15.5,5.6c0,0,8.5-9.7,10.5-17.4c2.1,7.7,10.5,17.4,10.5,17.4c7.1-5.2,15.5-5.6,15.5-5.6c-1.1,1.8-2,9.7,8.2,9.7
		c10.1,0,12.3,3.3,12.3,3.3c-2.9-0.6-7.1-1.2-18.1,2.5c-11,3.7-8.6-5.9-8.6-5.9c-15.6,1.1-19.9,9.8-19.9,9.8s-4.4-8.7-19.9-9.8
		c0,0,2.4,9.6-8.6,5.9c-11-3.7-15.1-3.1-18.1-2.5C103.5,74.4,105.6,71,115.7,71z M156.5,143.8c-4.3,2.6-6.5,6.3-6.5,6.3
		s-2.2-3.7-6.5-6.3c0,0,0.5-3-0.6-3.2c-1.1-0.2-4.2-0.1-4.2-0.1s-5-2-5.8-6c0,0,2.7,0.8,6.3-0.4c3.6-1.1,5.1,0.2,6.2,0.6
		c1.1,0.5,2.3,0.6,4.5,0.6s3.4-0.2,4.5-0.6c1.1-0.5,2.6-1.8,6.2-0.6c3.6,1.1,6.3,0.4,6.3,0.4c-0.9,4-5.8,6-5.8,6s-3.1-0.1-4.2,0.1
		C156,140.8,156.5,143.8,156.5,143.8L156.5,143.8z M133.3,112.1c-5.3-0.1-18.8-1.1-19.3-11.4v-0.3c0,0,7.5-1.2,10.3,0
		c5.2,2.2,9.7,12,18.1,4.6c0,0-5.6,12.4-9.1,18.6C133.3,123.7,138.6,112.2,133.3,112.1z M166.7,112.1c-5.3,0.1,0,11.6,0,11.6
		c-3.5-6.2-9.1-18.6-9.1-18.6c8.4,7.4,12.9-2.5,18.1-4.6c2.8-1.2,10.3,0,10.3,0v0.3C185.5,111,172,112,166.7,112.1L166.7,112.1z
		 M206.7,144.7c-15.2-3-21.3,4-21.3,4c9.9,1.4,14.1,13,14.1,13c-7.3-4.4-15.3-3.4-15.3-3.4c9.8,24.7-22.9,30.4-34.3,44
		c-11.4-13.6-44.1-19.3-34.3-44c0,0-8-1-15.3,3.4c0,0,4.2-11.7,14.1-13c0,0-6.1-6.9-21.3-4c0,0,7.9-9.4,17.8-7.6
		c0,0-5.1-8.8-19.7-9.7c0,0,2.4-3.1,11-3.8c0,0-6.6-7.5-3.6-21.3c0,0-5.1-4-3.3-16.1c0,0,1.9,9.8,6.1,8.5c2.9-0.8,1.6-4.4-0.7-4.2
		c0,0,0.7-2.7,4.9-4.4c4.2-1.7,5.3-1.9,5.2-5.2c0,0,3-1.2,4.1,1.6c1.1,2.9-1.8,4.2-3.3,4.5c-1.5,0.3-3.5,0.9-4.4,2.6
		c0,0,3.1,1,0.7,3.8c-2.5,2.7-11.4,23.3,9.6,37.6c0,0-0.5,6.6,7,12.8c0,0-3.2-0.3-3.8-0.2c-0.6,0.1-0.8,6.2,0,6.4
		c0.8,0.2,12.4,0,12.4,0s-11.8,3.5-12.2,4c-0.5,0.4,0.1,3.6,0.5,3.6c0.4,0.1,9.9-2.8,14.8-3.1c0,0-11.1,5.1-13,6.6
		c0,0,1.8,4,4.3,5.3c0,0,16.1-5.8,22.5-11c6.4,5.2,22.5,11,22.5,11c2.5-1.4,4.3-5.3,4.3-5.3c-1.9-1.5-13-6.6-13-6.6
		c4.9,0.3,14.4,3.2,14.8,3.1c0.4-0.1,1-3.2,0.5-3.6c-0.5-0.4-12.2-4-12.2-4s11.7,0.2,12.4,0c0.8-0.2,0.6-6.2,0-6.4
		c-0.6-0.1-3.8,0.2-3.8,0.2c7.4-6.2,7-12.8,7-12.8c21-14.3,12-34.8,9.6-37.6c-2.5-2.7,0.7-3.8,0.7-3.8c-0.9-1.7-2.9-2.3-4.4-2.6
		c-1.5-0.3-4.4-1.7-3.3-4.5c1.1-2.9,4.1-1.6,4.1-1.6c-0.2,3.3,0.9,3.5,5.2,5.2c4.2,1.7,4.9,4.4,4.9,4.4c-2.3-0.3-3.6,3.3-0.7,4.2
		c4.1,1.2,6.1-8.5,6.1-8.5c1.9,12-3.3,16.1-3.3,16.1c3,13.8-3.6,21.3-3.6,21.3c8.7,0.6,11,3.8,11,3.8c-14.6,0.9-19.7,9.7-19.7,9.7
		C198.8,135.4,206.7,144.7,206.7,144.7L206.7,144.7z"/>
</g>
</svg>
