<?xml version="1.0" encoding="utf-8"?>
<!-- Generator: Adobe Illustrator 21.1.0, SVG Export Plug-In . SVG Version: 6.00 Build 0)  -->
<!DOCTYPE svg PUBLIC "-//W3C//DTD SVG 1.1//EN" "http://www.w3.org/Graphics/SVG/1.1/DTD/svg11.dtd">
<svg version="1.1" id="Layer_1" xmlns="http://www.w3.org/2000/svg" xmlns:xlink="http://www.w3.org/1999/xlink" x="0px" y="0px"
	 width="310px" height="310px" viewBox="0 0 310 310" style="enable-background:new 0 0 310 310;" xml:space="preserve">
<style type="text/css">
	.st0{fill:#B38708;}
	.st1{fill:#002D55;}
	.st2{fill:#FFFFFF;}
	.st3{fill:#5191CD;}
</style>
<g>
	<path class="st0" d="M155,310C69.5,310,0,240.5,0,155C0,69.5,69.5,0,155,0c85.5,0,155,69.5,155,155C310,240.5,240.5,310,155,310z
		 M155,10C75,10,10,75,10,155s65,145,145,145s145-65,145-145S235,10,155,10z"/>
	<path class="st0" d="M155,5C72.3,5,5,72.3,5,155s67.3,150,150,150s150-67.3,150-150S237.7,5,155,5"/>
	<path class="st1" d="M155,10.8C75.5,10.8,10.8,75.5,10.8,155S75.5,299.2,155,299.2S299.2,234.5,299.2,155S234.5,10.8,155,10.8"/>
	<path class="st2" d="M155,257.8c-56.7,0-102.8-46.1-102.8-102.8C52.2,98.3,98.3,52.2,155,52.2S257.8,98.3,257.8,155
		S211.7,257.8,155,257.8 M155,56.3c-54.4,0-98.7,44.3-98.7,98.7s44.3,98.7,98.7,98.7s98.7-44.3,98.7-98.7S209.4,56.3,155,56.3z"/>
	<path class="st0" d="M155,56.3c-54.4,0-98.7,44.3-98.7,98.7s44.3,98.7,98.7,98.7s98.7-44.3,98.7-98.7S209.4,56.3,155,56.3"/>
	<path class="st3" d="M85.7,138.7c-0.5-5.1-0.8-10.4-0.8-15.7c0-11.6,1.3-22.9,3.7-33.7l0.2,0.1L88.6,89l-2,2.8
		c-2.5,11.3-4.9,25.4-4.9,37.6c0,3.4,0.1,6.8,0.3,10.2C83.3,139.3,84.5,139,85.7,138.7z"/>
	<path class="st3" d="M188,92V62c-10.3-3.7-21.4-5.7-33-5.7s-22.7,2-33,5.7v30c12.3-2.2,23.6-7.8,33-15.9
		C164.4,84.2,175.7,89.8,188,92z"/>
	<path class="st3" d="M225.1,123c0,5.3-0.3,10.5-0.8,15.7c1.2,0.3,2.5,0.6,3.7,0.9c0.2-3.4,0.3-6.8,0.3-10.2
		c0-12.2-2.4-26.3-4.9-37.6l-2-2.8l-0.2,0.4l0.2-0.1C223.8,100.1,225.1,111.4,225.1,123z"/>
	<path class="st3" d="M243.6,111.4h-1.3c4.9,11.5,7.7,24.1,7.7,37.4c0,40.8-25.8,75.6-61.9,88.9V235c20.5-22.2,34.6-51.8,38.8-84.9
		l-4.1-1.1c-7.4,43.5-32.9,79.9-67.8,99.2C120.2,229,94.7,192.6,87.2,149l-4.1,1.1c4.2,33.1,18.3,62.6,38.8,84.9v2.8
		c-36.1-13.4-61.9-48.2-61.9-89c0-13.3,2.7-25.9,7.7-37.4h-1.3c-6.5,13.2-10.2,27.9-10.2,43.6c0,54.4,44.3,98.7,98.7,98.7l0,0l0,0
		c54.4,0,98.7-44.3,98.7-98.7C253.7,139.4,250.1,124.6,243.6,111.4z"/>
	<path class="st1" d="M155,130.4c23.8,0,47.4,2.9,69.3,8.3c0.5-5.1,0.8-10.4,0.8-15.7c0-11.6-1.3-22.9-3.7-33.7
		c-6.9,2.4-14.2,3.7-21.9,3.7c-16.8,0-32.2-6.3-44.5-16.9C142.7,86.7,127.3,93,110.5,93c-7.6,0-15-1.3-21.9-3.7
		c-2.4,10.8-3.7,22.1-3.7,33.7c0,5.3,0.3,10.5,0.8,15.7C107.6,133.3,131.2,130.4,155,130.4z"/>
	<path class="st1" d="M235.6,146.7c-24.8-7.4-52.7-11.4-80.6-11.4s-55.8,4-80.6,11.4c0,0-1.8,0.6-4,1.3l4.7,4.3
		c3.9-1.2,7.9-2.3,12-3.3c7.4,43.5,33,79.9,67.8,99.2c34.8-19.3,60.4-55.7,67.8-99.2c4.1,1,8.1,2.1,12,3.3l4.7-4.3
		C237.4,147.3,235.6,146.7,235.6,146.7z"/>
	<path class="st0" d="M35.4,130.2c0.3-0.6,0.6-1.2,0.6-1.6c0.2-0.9,0-1.6-0.5-2c-0.5-0.5-1.5-0.8-3-1.1c-2-0.4-3.4-0.5-4.3-0.1
		c-0.6,0.2-1.1,0.9-1.3,2c-0.2,1-0.2,1.7,0.1,2.1c0.1,0.3,0.3,0.5,0.6,0.6c0.3,0.1,0.7,0.3,1.3,0.4l10.4,2.1
		c0.5,0.1,0.9,0.2,1.2,0.2c0.3,0.1,0.6,0.1,0.8,0.1s0.4,0,0.5,0s0.3-0.1,0.4-0.2c0.4-0.2,0.6-0.4,0.8-0.8c0.2-0.3,0.4-0.9,0.6-1.7
		l2.2,0.5l-2.5,12.1l-2.2-0.5c0.1-0.8,0.1-1.4,0-1.8c-0.1-0.4-0.3-0.7-0.7-1c-0.1-0.1-0.2-0.2-0.3-0.2c-0.1-0.1-0.2-0.1-0.4-0.2
		c-0.2-0.1-0.4-0.1-0.7-0.2c-0.3-0.1-0.6-0.1-1.1-0.2l-10.1-2.1c-0.5-0.1-0.9-0.2-1.2-0.2c-0.3-0.1-0.6-0.1-0.8-0.1
		c-0.2,0-0.4,0-0.5,0s-0.3,0.1-0.4,0.1c-0.4,0.2-0.6,0.4-0.8,0.7c-0.2,0.3-0.4,0.8-0.6,1.5l-2.2-0.5l1.5-7.2
		c0.2-0.9,0.3-1.8,0.5-2.5c0.1-0.7,0.3-1.5,0.4-2.3c0.1-0.5,0.1-0.9,0.2-1.3s0.1-0.8,0.2-1.1c0.5-2.3,1.4-3.8,2.9-4.5
		c1.4-0.7,3.6-0.8,6.3-0.3s4.5,1.5,5.5,2.9s1.3,3.2,0.8,5.5c-0.4,1.8-1,3.1-2.1,4.2L35.4,130.2"/>
	<path class="st0" d="M59.5,91.4c-0.4,0.7-0.7,1.1-1,1.4c-0.3,0.2-0.6,0.4-1,0.5c-0.2,0-0.3,0.1-0.5,0c-0.1,0-0.3-0.1-0.5-0.1
		c-0.2-0.1-0.4-0.2-0.7-0.3c-0.3-0.1-0.7-0.3-1.1-0.6l-9.2-4.8c-0.4-0.2-0.7-0.4-1-0.5c-0.2-0.1-0.4-0.3-0.6-0.4
		c-0.2-0.1-0.3-0.2-0.4-0.3c-0.1-0.1-0.2-0.2-0.2-0.3c-0.3-0.4-0.4-0.8-0.4-1.2c0-0.4,0.2-1,0.6-1.8l-2-1l-4.3,8.2l7.6,3.8l-3,6
		l-7.5-3.8l-4.2,8l2,1c0.4-0.6,0.7-1.1,0.9-1.3c0.2-0.2,0.6-0.4,1-0.5c0.2,0,0.3,0,0.5,0c0.2,0,0.3,0,0.5,0.1
		c0.2,0.1,0.4,0.2,0.7,0.3c0.3,0.1,0.7,0.3,1.1,0.5l9.2,4.8c0.4,0.2,0.7,0.4,1,0.5c0.2,0.1,0.5,0.3,0.6,0.4c0.2,0.1,0.3,0.2,0.4,0.3
		c0.1,0.1,0.2,0.2,0.2,0.3c0.3,0.4,0.4,0.8,0.4,1.2c0,0.4-0.2,1-0.5,1.7l2,1l4.2-8.1l-9.1-4.7l3.1-5.9l9.1,4.7l4.2-8.1L59.5,91.4"/>
	<path class="st0" d="M56,73.4c-0.4-0.3-0.7-0.6-0.9-0.8c-0.3-0.2-0.5-0.4-0.6-0.5c-0.2,0-0.4-0.1-0.5-0.1s-0.3-0.1-0.5-0.1
		c-0.4,0-0.8,0.1-1.1,0.2c-0.3,0.2-0.7,0.5-1.2,1l-1.7-1.5l8-9.2l1.7,1.5c-0.5,0.6-0.8,1.2-0.9,1.5c-0.1,0.4-0.1,0.8,0.1,1.2
		c0.1,0.1,0.1,0.3,0.2,0.4c0.1,0.1,0.2,0.2,0.3,0.4c0.1,0.1,0.3,0.3,0.5,0.5s0.5,0.4,0.8,0.7l7.8,6.8c0.4,0.3,0.7,0.6,1,0.8
		c0.2,0.2,0.4,0.4,0.6,0.5c0.2,0.1,0.3,0.2,0.5,0.2c0.1,0,0.3,0.1,0.5,0.1c0.4,0,0.8-0.1,1.1-0.2c0.3-0.2,0.7-0.5,1.2-1l1.7,1.5
		l-8,9.2L64.9,85c0.5-0.6,0.8-1.1,0.9-1.5c0.1-0.4,0.1-0.8-0.1-1.2c0-0.1-0.1-0.3-0.2-0.4s-0.2-0.2-0.3-0.4
		c-0.1-0.1-0.3-0.3-0.5-0.5c-0.2-0.2-0.5-0.4-0.8-0.7L56,73.4"/>
	<path class="st0" d="M95.3,60L80,71.6l-1.4-1.8c0.6-0.5,1-1,1.2-1.3c0.2-0.4,0.3-0.8,0.2-1.2c0-0.2-0.1-0.3-0.1-0.4
		c0-0.1-0.1-0.3-0.2-0.4c-0.1-0.2-0.2-0.3-0.4-0.6c-0.2-0.2-0.4-0.5-0.6-0.9l-6.3-8.2c-0.3-0.4-0.6-0.7-0.8-1
		c-0.2-0.3-0.4-0.4-0.5-0.6c-0.1-0.1-0.3-0.2-0.4-0.3s-0.3-0.1-0.4-0.2c-0.4-0.1-0.8-0.1-1.1,0s-0.8,0.4-1.4,0.8l-1.4-1.8l9.7-7.4
		l1.4,1.8c-0.6,0.5-1,1-1.2,1.3c-0.2,0.4-0.3,0.8-0.2,1.2c0,0.1,0.1,0.3,0.1,0.4c0,0.1,0.1,0.3,0.2,0.4c0.1,0.2,0.2,0.4,0.4,0.6
		c0.2,0.2,0.4,0.5,0.6,0.9l6.4,8.5c0.2,0.3,0.4,0.5,0.6,0.7s0.3,0.3,0.4,0.4c0.1,0.1,0.2,0.2,0.3,0.2c0.1,0,0.2,0.1,0.3,0.1
		c0.1,0,0.3,0,0.4,0s0.3-0.1,0.4-0.2c0.2-0.1,0.3-0.2,0.6-0.3c0.2-0.2,0.5-0.3,0.8-0.6l0.4-0.3c0.4-0.3,0.7-0.5,0.9-0.7
		c0.2-0.2,0.4-0.4,0.6-0.5c0.1-0.2,0.2-0.3,0.3-0.5c0.1-0.2,0.1-0.3,0.1-0.5c0.1-0.5,0.1-0.9-0.1-1.4s-0.5-1.1-1-1.8l2.2-1.7
		L95.3,60"/>
	<path class="st0" d="M106.3,29.5c0.2,0.2,0.3,0.4,0.4,0.6s0.3,0.4,0.4,0.5c0.1,0.2,0.3,0.3,0.4,0.5s0.3,0.4,0.5,0.6l9.7,11
		c0.5,0.6,1,1.1,1.4,1.4c0.4,0.4,0.8,0.6,1.1,0.8c0.4,0.2,0.7,0.3,1.1,0.3s0.8,0,1.2-0.2l0.9,2.1l-10.7,4.4l-0.9-2.1
		c0.8-0.4,1.3-0.7,1.5-1s0.2-0.7,0.1-1.1c-0.1-0.3-0.5-0.8-1.2-1.7l-0.4-0.5l-5.3,2.2v0.6c0,0.4,0,0.8,0.1,1.1s0.1,0.6,0.2,0.8
		c0.2,0.5,0.5,0.7,0.8,0.8s1-0.1,1.8-0.3l0.9,2.1l-8.5,3.6l-0.9-2.1c0.4-0.3,0.7-0.5,0.9-0.8c0.2-0.2,0.4-0.5,0.5-0.9
		c0.1-0.3,0.2-0.7,0.2-1.2s0-1.1,0-1.9l-0.7-14.5c0-0.8-0.1-1.5-0.1-2c-0.1-0.5-0.1-0.9-0.2-1.1L106.3,29.5 M108,40l-0.2-0.3
		c-0.1-0.1-0.1-0.2-0.2-0.3l-0.4-0.5c-0.2-0.2-0.4-0.5-0.5-0.6l-0.5-0.6c-0.1-0.1-0.2-0.2-0.3-0.3c-0.1-0.1-0.2-0.2-0.3-0.3l0.2,2.9
		l0.2,3.9l3.9-1.6L108,40z"/>
	<path class="st0" d="M130.7,28.8c-0.1-0.5-0.1-0.9-0.2-1.2c-0.1-0.3-0.1-0.6-0.2-0.8c-0.1-0.2-0.1-0.4-0.2-0.5s-0.2-0.3-0.3-0.4
		c-0.3-0.3-0.6-0.5-0.9-0.5c-0.4-0.1-0.9-0.1-1.6,0l-0.3-2.2l6.5-0.8c1.3-0.2,2.5-0.3,3.4-0.4s1.7-0.2,2.3-0.3
		c0.5-0.1,1-0.2,1.5-0.2c0.5-0.1,0.9-0.1,1.1-0.1c1.9-0.2,3.4-0.1,4.6,0.3c1.2,0.4,2.2,1.2,3,2.2c0.6,0.9,1.2,2.1,1.6,3.4
		c0.4,1.4,0.8,2.8,1,4.5c0.4,3.7,0,6.6-1.4,8.6c-1.3,2.1-3.6,3.3-6.7,3.6c-0.2,0-0.5,0.1-0.9,0.1c-0.3,0-0.7,0.1-1.2,0.1
		c-0.8,0.1-1.6,0.1-2.3,0.2c-0.7,0.1-1.4,0.1-2.1,0.2l-8,0.9l-0.3-2.2c0.8-0.1,1.4-0.3,1.7-0.5c0.3-0.2,0.6-0.5,0.8-1
		c0-0.1,0.1-0.3,0.1-0.4c0-0.1,0-0.3,0-0.5s0-0.4,0-0.7s-0.1-0.6-0.1-1.1L130.7,28.8 M138.1,38.3c0,0.4,0.1,0.7,0.1,0.9
		s0.1,0.4,0.1,0.5c0.1,0.1,0.1,0.3,0.2,0.3c0.1,0.1,0.2,0.2,0.3,0.3c0.3,0.2,0.6,0.3,0.9,0.4c0.3,0,0.8,0,1.5-0.1
		c1-0.1,1.8-0.3,2.5-0.7c0.6-0.3,1.1-0.9,1.5-1.5c0.3-0.7,0.5-1.5,0.6-2.6c0.1-1,0-2.3-0.2-3.8c-0.2-1.4-0.4-2.7-0.7-3.6
		c-0.3-1-0.7-1.7-1.1-2.3c-0.5-0.6-1.1-0.9-1.8-1.1s-1.5-0.2-2.5-0.1c-0.6,0.1-1.1,0.2-1.5,0.2c-0.4,0.1-0.6,0.2-0.8,0.4
		c-0.2,0.2-0.3,0.4-0.3,0.7c0,0.3,0,0.7,0.1,1.2L138.1,38.3z"/>
	<path class="st0" d="M183,30.4l-2.7-0.4c0-0.7,0-1.3-0.1-1.8s-0.2-0.9-0.5-1.2c-0.3-0.3-0.6-0.6-1.1-0.7c-0.5-0.2-1.1-0.3-1.8-0.4
		l-0.4-0.1c-0.5-0.1-1-0.1-1.3-0.1s-0.6,0-0.8,0.1s-0.3,0.3-0.4,0.6c-0.1,0.3-0.2,0.6-0.2,1.1l-0.6,3.8l4.8,0.7
		c0.5,0.1,0.9,0.1,1.2,0.1s0.6,0,1,0l-0.6,3.9c-0.3-0.1-0.6-0.2-0.9-0.2c-0.3-0.1-0.8-0.1-1.4-0.2l-4.6-0.7l-0.6,4
		c-0.1,0.5-0.1,0.9-0.1,1.2s0.1,0.5,0.2,0.7c0.2,0.2,0.4,0.3,0.8,0.4c0.4,0.1,0.9,0.2,1.6,0.3l0.8,0.1c0.7,0.1,1.3,0.2,1.8,0.2
		s0.9-0.2,1.2-0.4s0.6-0.6,0.8-1.1s0.4-1.1,0.6-1.9l2.8,0.4l-1.1,7.2l-19.5-3l0.3-2.2c0.8,0.1,1.4,0.1,1.8,0c0.4-0.1,0.7-0.3,1-0.7
		c0.1-0.1,0.2-0.2,0.2-0.3c0.1-0.1,0.1-0.3,0.1-0.4c0-0.2,0.1-0.4,0.1-0.7s0.1-0.6,0.2-1.1l1.5-10.2c0.1-0.5,0.1-0.9,0.2-1.2
		c0-0.3,0.1-0.6,0-0.8c0-0.2,0-0.4-0.1-0.5c0-0.1-0.1-0.3-0.2-0.4c-0.2-0.3-0.5-0.6-0.8-0.8c-0.3-0.2-0.8-0.3-1.5-0.5L165,21
		l14.5,2.2c0.6,0.1,1.1,0.2,1.4,0.2c0.4,0.1,0.7,0.1,1,0.1s0.6,0,0.9,0c0.3,0,0.6-0.1,1-0.1L183,30.4"/>
	<path class="st0" d="M206.8,55.5L189,48.1l0.9-2.1c0.8,0.3,1.4,0.4,1.7,0.4c0.4,0,0.8-0.2,1.1-0.5c0.1-0.1,0.2-0.2,0.3-0.3
		s0.2-0.2,0.3-0.4s0.2-0.4,0.3-0.6c0.1-0.3,0.3-0.6,0.4-1l4-9.6c0.2-0.5,0.3-0.8,0.5-1.1c0.1-0.3,0.2-0.6,0.2-0.8s0.1-0.4,0.1-0.5
		s0-0.3-0.1-0.5c-0.1-0.4-0.3-0.7-0.6-0.9c-0.3-0.2-0.7-0.5-1.4-0.8l0.9-2.1L209,32l-0.9,2.1c-0.8-0.3-1.3-0.4-1.8-0.4
		c-0.4,0-0.8,0.2-1.1,0.5c-0.1,0.1-0.2,0.2-0.3,0.3s-0.2,0.2-0.2,0.4c-0.1,0.2-0.2,0.4-0.3,0.6c-0.1,0.3-0.3,0.6-0.4,1l-4.1,9.8
		c-0.2,0.4-0.3,0.6-0.3,0.8c-0.1,0.2-0.1,0.4-0.2,0.5c0,0.1,0,0.3,0,0.4c0,0.1,0,0.2,0.1,0.3s0.1,0.2,0.2,0.3
		c0.1,0.1,0.2,0.2,0.3,0.3s0.3,0.2,0.6,0.3c0.2,0.1,0.5,0.2,0.9,0.4l0.4,0.2c0.4,0.2,0.8,0.3,1.1,0.4c0.3,0.1,0.5,0.2,0.7,0.2
		s0.4,0.1,0.6,0c0.2,0,0.3-0.1,0.5-0.1c0.5-0.1,0.8-0.4,1.2-0.8c0.3-0.4,0.7-1,1.1-1.8l2.6,1.1L206.8,55.5"/>
	<path class="st0" d="M225.7,55.9c0.4,0.6,3.2,2.3,3.6,2.6c0.7,0.5,1.4,0.7,2,0.4s1.4-1,2.3-2.2c1.2-1.6,1.9-2.9,1.9-3.8
		c0.1-0.7-0.3-1.3-1.3-2c-0.8-0.6-1.5-0.9-2-0.8c-0.3,0-0.6,0.1-0.8,0.3s-0.5,0.5-0.9,1l-6.4,8.5c-0.3,0.4-0.6,0.8-0.7,1
		c-0.2,0.3-0.3,0.5-0.4,0.7c-0.1,0.2-0.2,0.3-0.2,0.5c0,0.1,0,0.3,0,0.5c0,0.4,0.1,0.8,0.3,1.1s0.7,0.7,1.3,1.3l-1.4,1.8l-9.9-7.4
		l1.4-1.8c0.7,0.4,1.2,0.7,1.6,0.8c0.4,0.1,0.8,0,1.2-0.2c0.1-0.1,0.2-0.1,0.4-0.2c0.1-0.1,0.2-0.2,0.3-0.3c0.1-0.2,0.3-0.3,0.4-0.5
		c0.2-0.2,0.4-0.5,0.7-0.9l6.2-8.3c0.3-0.4,0.5-0.7,0.7-1s0.3-0.5,0.4-0.7c0.1-0.2,0.1-0.3,0.2-0.5c0-0.2,0-0.3,0.1-0.5
		c0-0.4-0.1-0.7-0.3-1s-0.6-0.7-1.1-1.1l1.4-1.8l5.9,4.4c0.8,0.6,1.4,1.1,2,1.5s1.2,0.9,1.9,1.3c0.4,0.3,0.8,0.5,1.1,0.8
		s0.6,0.5,0.9,0.6c1.9,1.4,2.8,2.9,2.9,4.5c0.1,1.6-0.8,3.6-2.5,5.9c-1.6,2.2-3.3,3.4-4.9,3.8c-1.7,0.3-3.4-0.2-5.4-1.6
		c-1.4-1.1-3.5-3-4-4.3L225.7,55.9"/>
	<path class="st0" d="M263.5,75.9l-6.7,5.1l-4.1-5.3l6.7-5.1l-5.6-7.3l-1.8,1.4c0.4,0.6,0.7,1.1,0.8,1.4c0.1,0.3,0.1,0.7,0,1.1
		c0,0.2-0.1,0.3-0.2,0.4c-0.1,0.1-0.2,0.3-0.3,0.4c-0.1,0.2-0.3,0.3-0.6,0.5c-0.3,0.2-0.6,0.5-1,0.8l-8.2,6.3
		c-0.4,0.3-0.7,0.5-0.9,0.7s-0.4,0.3-0.6,0.4c-0.2,0.1-0.3,0.2-0.4,0.2c-0.1,0-0.2,0.1-0.4,0.1c-0.5,0.1-0.9,0.1-1.2-0.1
		c-0.4-0.2-0.8-0.6-1.3-1.2L236,77l5.6,7.2l8.1-6.2l4.1,5.3l-8.1,6.2l5.6,7.3l1.8-1.4c-0.4-0.6-0.7-1.1-0.8-1.5
		c-0.1-0.3-0.1-0.7,0-1.1c0-0.2,0.1-0.3,0.2-0.4c0.1-0.1,0.2-0.3,0.3-0.4s0.3-0.3,0.6-0.5c0.2-0.2,0.6-0.5,1-0.8l8.2-6.3
		c0.4-0.3,0.6-0.5,0.9-0.7c0.2-0.2,0.4-0.3,0.6-0.4s0.3-0.2,0.4-0.2s0.2-0.1,0.4-0.1c0.5-0.1,0.9-0.1,1.2,0.2
		c0.4,0.2,0.8,0.6,1.4,1.3l1.8-1.4L263.5,75.9"/>
	<path class="st0" d="M270.8,99.8c0.5-0.2,0.8-0.4,1.1-0.5c0.3-0.1,0.5-0.3,0.7-0.4s0.3-0.2,0.4-0.3c0.1-0.1,0.2-0.2,0.3-0.4
		c0.2-0.4,0.3-0.7,0.2-1.1c0-0.4-0.2-0.9-0.4-1.5l2.1-0.9l5,11.1l-2.1,0.9c-0.4-0.7-0.7-1.2-1-1.5s-0.7-0.4-1.2-0.4
		c-0.2,0-0.3,0-0.4,0s-0.3,0-0.5,0.1s-0.4,0.2-0.7,0.3c-0.3,0.1-0.6,0.2-1,0.4l-9.5,4.2c-0.5,0.2-0.8,0.4-1.1,0.5
		c-0.3,0.1-0.5,0.3-0.7,0.4s-0.3,0.2-0.4,0.3c-0.1,0.1-0.2,0.2-0.3,0.4c-0.2,0.4-0.3,0.7-0.2,1.1c0,0.4,0.2,0.9,0.4,1.5l-2.1,0.9
		l-5-11.1l2.1-0.9c0.4,0.7,0.7,1.2,1,1.5s0.7,0.4,1.2,0.4c0.1,0,0.3,0,0.4,0c0.1,0,0.3,0,0.5-0.1c0.2-0.1,0.4-0.2,0.7-0.3
		c0.3-0.1,0.6-0.2,1-0.4L270.8,99.8"/>
	<path class="st0" d="M287.4,130.5c-0.2,0.1-0.5,0.2-0.7,0.3c-0.2,0.1-0.4,0.2-0.6,0.3s-0.4,0.2-0.6,0.3c-0.2,0.1-0.4,0.2-0.7,0.4
		l-12.6,7.5c-0.7,0.4-1.2,0.8-1.7,1.1c-0.4,0.3-0.8,0.6-1,0.9c-0.2,0.3-0.4,0.6-0.5,1c-0.1,0.3-0.1,0.8-0.1,1.2l-2.2,0.5l-2.3-11.3
		l2.2-0.4c0.2,0.8,0.5,1.4,0.7,1.6c0.3,0.3,0.6,0.4,1.1,0.3c0.3-0.1,0.9-0.3,1.9-0.9l0.6-0.3l-1.2-5.6l-0.6-0.1
		c-0.4-0.1-0.8-0.1-1.1-0.1c-0.3,0-0.6,0-0.9,0.1c-0.5,0.1-0.8,0.3-0.9,0.7c-0.1,0.3-0.1,0.9,0,1.9l-2.2,0.5l-1.8-9.1l2.2-0.5
		c0.2,0.4,0.4,0.8,0.6,1c0.2,0.3,0.5,0.5,0.8,0.7s0.7,0.3,1.2,0.4s1.1,0.2,1.8,0.3l14.4,2c0.8,0.1,1.5,0.2,2,0.2s0.9,0,1.1,0
		L287.4,130.5 M276.8,130.1c0.1-0.1,0.2-0.1,0.3-0.2c0.1,0,0.2-0.1,0.3-0.2l0.6-0.3c0.3-0.1,0.5-0.3,0.7-0.4l0.6-0.3
		c0.1-0.1,0.2-0.1,0.4-0.2c0.1-0.1,0.2-0.1,0.4-0.2l-2.9-0.4l-3.9-0.5l0.8,4.1L276.8,130.1z"/>
	<polyline class="st0" points="42.5,168 35.7,171.1 36.6,178.5 31.5,173 24.8,176.2 28.4,169.7 23.3,164.2 30.6,165.6 34.3,159.1 
		35.1,166.5 42.5,168 	"/>
	<polyline class="st0" points="48.8,194.7 43,199.3 45.6,206.3 39.4,202.2 33.6,206.9 35.6,199.7 29.3,195.6 36.8,195.3 38.7,188.1 
		41.4,195 48.8,194.7 	"/>
	<polyline class="st0" points="61.4,219.1 56.9,225 61.1,231.1 54.1,228.6 49.6,234.6 49.7,227.1 42.7,224.7 49.8,222.5 50,215.1 
		54.3,221.2 61.4,219.1 	"/>
	<polyline class="st0" points="79.5,239.7 76.5,246.5 82.1,251.5 74.7,250.8 71.7,257.6 70.1,250.3 62.7,249.6 69.1,245.9 
		67.5,238.6 73.1,243.5 79.5,239.7 	"/>
	<polyline class="st0" points="102,255.4 100.8,262.8 107.4,266.2 100,267.3 98.8,274.6 95.4,268 88.1,269.1 93.4,263.9 90.1,257.2 
		96.7,260.6 102,255.4 	"/>
	<polyline class="st0" points="127.6,265.2 128.2,272.7 135.4,274.4 128.5,277.3 129.1,284.7 124.3,279 117.4,281.8 121.3,275.5 
		116.5,269.8 123.7,271.6 127.6,265.2 	"/>
	<polygon class="st0" points="155,268.6 157.3,275.7 164.8,275.7 158.7,280.1 161,287.2 155,282.8 149,287.2 151.3,280.1 
		145.2,275.7 152.7,275.7 	"/>
	<polyline class="st0" points="267.5,168 274.3,171.1 273.4,178.5 278.5,173 285.2,176.2 281.6,169.7 286.7,164.2 279.4,165.6 
		275.7,159.1 274.9,166.5 267.5,168 	"/>
	<polyline class="st0" points="261.2,194.7 267,199.3 264.4,206.3 270.6,202.2 276.4,206.9 274.4,199.7 280.7,195.6 273.2,195.3 
		271.3,188.1 268.6,195 261.2,194.7 	"/>
	<polyline class="st0" points="248.6,219.1 253.1,225 248.9,231.1 255.9,228.6 260.4,234.6 260.3,227.1 267.3,224.7 260.2,222.5 
		260,215.1 255.7,221.2 248.6,219.1 	"/>
	<polyline class="st0" points="230.5,239.7 233.5,246.5 227.9,251.5 235.3,250.8 238.3,257.6 239.9,250.3 247.3,249.6 240.9,245.9 
		242.5,238.6 236.9,243.5 230.5,239.7 	"/>
	<polyline class="st0" points="208,255.4 209.2,262.8 202.6,266.2 210,267.3 211.2,274.6 214.6,268 221.9,269.1 216.6,263.9 
		219.9,257.2 213.3,260.6 208,255.4 	"/>
	<polyline class="st0" points="182.4,265.2 181.8,272.7 174.6,274.4 181.5,277.3 180.9,284.7 185.7,279 192.6,281.8 188.7,275.5 
		193.5,269.8 186.3,271.6 182.4,265.2 	"/>
	<path class="st0" d="M113,123.2l-4.2,0.6v-23.6l-4.5,0.6v24.6c0,1.4,0.9,2.2,2.2,2.2c0.2,0,0.3,0,0.5,0l7.8-1.1
		c1.5-0.2,2.6-1.4,2.6-2.9V99l-4.5,0.6L113,123.2L113,123.2z"/>
	<polygon class="st0" points="137.1,110.5 130.9,97.7 128.3,97.8 128.3,125 132.5,124.8 132.5,112 138.7,124.4 141.3,124.2 
		141.3,97 137.1,97.2 	"/>
	<polygon class="st0" points="152.4,96.7 152.4,123.9 157,123.9 156.9,96.7 	"/>
	<path class="st0" d="M179.2,97.5l-8.5-0.5c-1.2,0-2.6,0.9-2.6,2.4v22.2c0,1.6,1.5,2.6,2.7,2.6l8.3,0.5h0.1c1.2,0,2.6-0.9,2.6-2.4
		v-22.2C181.9,98.5,180.3,97.6,179.2,97.5z M177.4,121l-4.7-0.3v-20l4.7,0.3V121z"/>
	<polygon class="st0" points="201.5,99.9 201.5,113.1 195.3,99.1 192.8,98.7 192.8,126 197,126.5 197,113.8 203,127.4 205.7,127.7 
		205.7,100.5 	"/>
	<path class="st0" d="M110.6,159.1c0.5,0.2,1,0.4,1.6,0.6c1.7,0.5,3.9,0.8,6.6,0.5l1-0.1l-0.8,0.7c-0.7,0.6-2.9,2-5,2.9
		c3.7-0.5,10.5-3.5,14.5-5.9c-0.4-0.2-0.8-0.5-1.2-0.8C121.5,159.2,115.2,159.6,110.6,159.1"/>
	<path class="st0" d="M126.3,198.2c-1,1.7-1.5,3.4-1.5,5.1c0,2.8,1.3,5.6,3.7,8.1c5.1,5.1,14.6,8.3,24.9,8.3
		c15.9,0,28.8-7.4,28.8-16.4c0-1.7-0.5-3.4-1.4-5.1c-3.9,6.7-15,11.3-27.3,11.3C141.1,209.5,130.1,204.9,126.3,198.2"/>
	<path class="st0" d="M186.3,198.7c0.4,0,1.2,0.1,2.2,0.1c2.8,0,6.8-0.5,10.8-2.9c-2.9,0.1-9-0.3-15.4-3.1
		C184.8,194.2,185.8,196.3,186.3,198.7"/>
	<path class="st0" d="M153.6,150.4h0.2c7.5,0,14.1,4.2,14.2,9.3c0,2.2-1.1,4.5-3.2,6.2c-1.7,1.3-4.1,2.2-6.3,3.1
		c0,0-5.2,1.9-9.5,3.4c-0.2,0.1-20.4,6.5-20.4,18.7c0,2.4,1.1,4.8,3.1,6.8c4.4,4.5,13.1,7.1,22.3,6.9c14.1-0.4,25.6-7.1,25.6-15.1
		c0-5.1-5-9-12.7-11.1c-1.8,0.7-3.9,1.4-6.1,2.1c-2.1,0.7-4.6,1.4-7.1,2.4c-5.8,2.1-6.9,3.9-7.1,4.8c-0.1,0.6,0.1,1,0.3,1.2
		c2.2-1.3,5.4-2.2,8.9-2.6c1-0.1,2-0.2,2.9-0.2c5.3,0,8.9,1.5,8.9,3.9c0,0.7-0.3,1.3-0.9,1.9c-1.8,1.9-6.5,3.1-11.8,3.1
		c-4.5,0-8.6-1.4-10.9-3.7c-1.2-1.2-1.8-2.5-1.8-3.9c0-5,7.2-7.4,11.9-9c0.6-0.2,1.1-0.4,1.6-0.6c4.2-1.5,9.2-3.4,9.2-3.4
		c8-2.6,12.3-9.5,11.2-16.2c-1.2-7.9-9-13.5-19-13.5c-1,0-1.9,0.1-2.9,0.2c0,0-0.9,0.2-2,0.2s-2-0.2-2.7-0.5
		c-1.4-0.8-2.9-0.9-2.9-0.9c-11.6,2.6-18.3,7.5-19.5,8.5c0.4,1,2.2,4.7,8,3.8c2.2-0.3,3.9-0.4,5.4-0.4c3.4-0.1,5.3-0.1,7.9-3.1
		C150.6,150.6,152.9,150.4,153.6,150.4"/>
	<path class="st1" d="M142.2,150c1-0.6,1.5-2.9,1.5-2.9c-4,1-8.2,3.1-8.2,3.1S141.3,150.6,142.2,150"/>
</g>
</svg>
