<?xml version="1.0" encoding="utf-8"?>
<!-- Generator: Adobe Illustrator 21.1.0, SVG Export Plug-In . SVG Version: 6.00 Build 0)  -->
<!DOCTYPE svg PUBLIC "-//W3C//DTD SVG 1.1//EN" "http://www.w3.org/Graphics/SVG/1.1/DTD/svg11.dtd">
<svg version="1.1"
	 id="svg9105" inkscape:version="0.91 r13725" sodipodi:docname="Portland Timbers.svg" xmlns:cc="http://creativecommons.org/ns#" xmlns:dc="http://purl.org/dc/elements/1.1/" xmlns:inkscape="http://www.inkscape.org/namespaces/inkscape" xmlns:rdf="http://www.w3.org/1999/02/22-rdf-syntax-ns#" xmlns:sodipodi="http://sodipodi.sourceforge.net/DTD/sodipodi-0.dtd" xmlns:svg="http://www.w3.org/2000/svg"
	 xmlns="http://www.w3.org/2000/svg" xmlns:xlink="http://www.w3.org/1999/xlink" x="0px" y="0px" width="300px" height="312.9px"
	 viewBox="0 0 300 312.9" style="enable-background:new 0 0 300 312.9;" xml:space="preserve">
<style type="text/css">
	.st0{fill:#DBE200;}
	.st1{fill:#2B5134;}
	.st2{fill:#FFFFFF;}
</style>
<sodipodi:namedview  bordercolor="#666666" borderopacity="1.0" fit-margin-bottom="0" fit-margin-left="0" fit-margin-right="0" fit-margin-top="0" id="base" inkscape:current-layer="layer1" inkscape:cx="98.089936" inkscape:cy="29.850017" inkscape:document-units="px" inkscape:pageopacity="0.0" inkscape:pageshadow="2" inkscape:window-height="1017" inkscape:window-maximized="1" inkscape:window-width="1920" inkscape:window-x="-8" inkscape:window-y="-8" inkscape:zoom="7.9195959" pagecolor="#ffffff" showgrid="false">
	</sodipodi:namedview>
<g id="layer1" transform="translate(1960.2307,11.840027)" inkscape:groupmode="layer" inkscape:label="Layer 1">
	<g id="g5524" transform="matrix(1.25,0,0,-1.25,-1915.5238,34.535473)">
		<path id="path5526" inkscape:connector-curvature="0" class="st0" d="M171-177.4h-1.9v1.4h5.4v-1.4h-1.9v-4.6H171V-177.4z"/>
	</g>
	<g id="g5528" transform="matrix(1.25,0,0,-1.25,-1914.0768,35.537973)">
		<path id="path5530" inkscape:connector-curvature="0" class="st0" d="M176.5-181.2l-1.1,3.6v-3.6H174v6h2l1.2-3.9l1.2,3.9h2v-6
			h-1.5v3.6l-1.1-3.6H176.5z"/>
	</g>
	<g id="g5532" transform="matrix(1.25,0,0,-1.25,-1908.3407,14.108723)">
		<path id="path5534" inkscape:connector-curvature="0" class="st1" d="M198.5-99.3c0,34.6-14.7,65.8-38.1,87.7
			c-2.1,8.2-4.7,13.3-5,13.8l-3,5.6l-6-2c-2.1-0.7-4.3-1.4-6.5-2c-18,10.8-39,17-61.5,17c-22.6,0-43.7-6.2-61.7-17.1
			c-3.9,1.2-6.1,2-6.2,2L4.2,8.2l-3-6.3C-1-2.7-2.6-7.3-3.7-11.8c-23.3-21.9-37.8-53-37.8-87.4c0-58.2,41.4-106.7,96.4-117.7
			c-0.3-2.7-0.5-4.6-0.5-5.5c0.1-0.1,2.7-2,4.6-3c3.9-2,10.1-4,19.2-4c0.1,0,0.6,0,0.6,0c14.6,0,21.7,5.2,23.8,7.1
			c0,0.9-0.2,2.8-0.6,5.5C157.1-205.9,198.5-157.4,198.5-99.3"/>
	</g>
	<g id="g5536" transform="matrix(1.25,0,0,-1.25,-1924.7469,-7.2246474)">
		<path class="st0" d="M67-237.4c-1.5,3.5-2.8,7.6-3.9,11.3c-50,12.9-84.9,58-84.9,109.8c0,24.9,8.4,49.5,23.5,69.2
			C3.6-32,10.6-19.6,13.5-15l1.4-0.8c-3.8-8.1-6.1-16.8-6.8-25.8c-0.2-2.5-0.3-4.9-0.3-7.3V-49l-0.2-0.5c-1.3-1.6-2.5-3.3-3.7-5
			C-8.8-72.6-15.6-94-15.6-116.2c0-8.5,0.9-16.8,2.7-24.4L54-74.2l0.4,0.2c2.5,0.5,5,1,7.8,1.5l0.7-1.4l-74.1-73.5
			c2.1-6.8,4.8-13.3,8-19.3l75.6,75.3l1.4-0.5c0.2-3.1,0.3-6.4,0.4-10.4l-0.2-0.6l-72.2-72c3.6-5.6,7.7-10.7,12.1-15.2l58.9,59.4
			l1.4-0.6c0-1,0-2,0-3c0-1.1-0.1-2.2-0.1-3.3l-0.2-0.6l-55.7-56.2c12.8-11.9,28.2-20.6,44.6-25.2c1-0.3,2-0.6,2.9-0.8l0.1,0
			c0.1,0,0.2-0.1,0.3-0.1c0.1,0,0.3-0.1,0.4-0.1c0.4-0.1,0.9-0.2,1.3-0.3c0.6-0.1,1.1-0.3,1.7-0.4l0.7-0.9
			c-0.8-7.1-1.4-12.2-1.7-15.1L67-237.4z M114.7-236.8c-0.2,2.1-0.6,5.1-1.2,9l-0.1,1l0,0.1v0.2c-0.2,1.3-0.3,2.7-0.4,4.1l0,0.3
			l0.6,0.8c0.5,0.1,1,0.2,1.5,0.3c0.5,0.1,1,0.2,1.5,0.3c0.2,0.1,0.3,0.1,0.4,0.1c0.1,0,0.2,0,0.3,0.1c0.5,0.2,1,0.3,1.6,0.4
			c0.5,0.1,1,0.2,1.5,0.4c16.8,4.7,32.5,13.6,45.3,25.8l-55.8,55.8l-0.2,0.6c0,1.1,0,2.2-0.1,3.3c0,1,0,2,0,3l1.4,0.6l58.8-58.8
			c4.4,4.8,8.2,9.7,11.6,14.8l-71.8,71.8l-0.2,0.6c0.1,3.7,0.3,7.2,0.5,10.4l1.4,0.5l75.1-75.1c3.2,6.2,5.8,12.5,7.7,18.7l-75,73.8
			l0.7,1.4c2.8-0.5,5.4-1,7.8-1.5L128-74l67.9-66.8c1.9,7.9,2.8,16.2,2.8,24.5c0,22.4-6.8,43.7-19.7,61.8c-0.5,0.6-0.9,1.2-1.4,1.8
			c-0.8,1.1-1.6,2.1-2.4,3.1l-0.2,0.5c0,1.3,0,2.6-0.1,3.7l0,0.3c0,1.2-0.1,2.3-0.2,3.4c-1.4,15.9-7,26.3-7.1,26.4l-0.2,0.4l1.4,0.8
			c2.4-3.6,10.5-16.7,12.5-33c15.6-20.2,23.7-44.1,23.6-69.2c0-51.8-34.9-96.9-85-109.9c-1.2-4.1-2.5-7.7-3.8-10.9L114.7-236.8z
			 M47.3-18.5l-0.2,0c-0.4,0.1-0.7,0.2-1,0.2c-0.4,0.1-0.8,0.2-1.2,0.3c-0.2,0-0.3,0.1-0.4,0.1l-0.2,0c-0.5,0.2-1,0.3-1.5,0.4
			c-0.2,0-0.3,0-0.4,0.1c0,0-0.1,0-0.1,0l-0.1,0c-0.3,0.1-0.6,0.1-0.9,0.2c-0.2,0.1-0.5,0.1-0.7,0.2c-0.2,0-0.3,0.1-0.4,0.1l0,0
			c-8.5,2-14.2,4-16.3,4.7l0.4,1.5c2.2-0.2,5.1-0.5,8.3-0.9c4-0.4,8.5-0.9,12.9-1.3C60-6.2,75.6-2.9,91.7-2.9
			c16.2,0,31.8-3.3,46.3-9.9c3.6,0.4,7.3,0.7,10.7,1.1c4,0.4,7.6,0.7,10.3,1l0.3-1.6c-4.9-1.7-10.2-3.2-16.2-4.6
			c-0.2,0-0.4-0.1-0.5-0.1c-0.2-0.1-0.4-0.1-0.6-0.2l-0.2,0c0,0-0.1,0-0.1,0c-0.1,0-0.2-0.1-0.4-0.1c-0.9-0.2-1.8-0.4-2.7-0.6
			c-0.9-0.2-1.9-0.4-2.8-0.6l-0.5,0.1c-13.7,6.2-28.4,9.3-43.8,9.3c-15.1,0-29.8-3.1-43.8-9.3l-0.3-0.1H47.3z"/>
		<path id="path5538" inkscape:connector-curvature="0" class="st0" d="M135.7-17.7L135.7-17.7c1.9,0.4,3.7,0.8,5.6,1.2
			c0.2,0,0.4,0.1,0.6,0.1c0.4,0.1,0.7,0.2,1.1,0.3l0,0c5.4,1.3,10.8,2.8,16.1,4.6c-4.9-0.5-13.2-1.3-21.2-2.1
			c-14.1,6.4-29.8,9.9-46.2,9.9c-16.5,0-32.2-3.6-46.3-9.9c-8,0.8-16.4,1.7-21.4,2.2c1.1-0.4,6.9-2.5,16.2-4.7l0,0
			c0.1,0,0.2-0.1,0.3-0.1c0.6-0.1,1.1-0.3,1.7-0.4c0.2,0,0.4-0.1,0.6-0.1c0.6-0.1,1.1-0.2,1.7-0.4c0.2,0,0.3-0.1,0.5-0.1
			c0.7-0.2,1.5-0.3,2.3-0.5l0,0c0.1,0,0.1,0,0.2,0c13.5,6,28.4,9.4,44.1,9.4C107.3-8.3,122.2-11.6,135.7-17.7L135.7-17.7 M73.1-91.9
			L-3.3-168c-3.6,6.6-6.5,13.6-8.7,20.9l74.4,73.8c-2.8-0.5-5.3-1-7.8-1.5l-67.9-67.4c-2.1,8.3-3.1,17-3.1,26
			C-16.4-93-9.1-71.6,3.3-54c1.2,1.7,2.4,3.4,3.7,5v0.1c0,2.4,0.1,4.9,0.3,7.4c0.7,8.1,2.7,17,6.9,26.1c-3.5-5.5-10-17.5-11.7-32
			c-14.7-19-23.5-43-23.5-68.9c0-52.6,36-96.7,84.7-109.1c1-3.6,2.4-7.8,4-11.7c0.3,3,0.9,8.3,1.7,15.1c-1.1,0.2-2.1,0.5-3.1,0.7
			c-0.3,0.1-0.5,0.1-0.8,0.2c-1,0.2-2,0.5-3,0.8c-17.3,4.8-32.8,13.9-45.5,25.9l56.3,56.8c0,2.2,0.1,4.3,0.1,6.3l-59.5-60
			c-4.9,5-9.3,10.6-13.1,16.5l72.7,72.5C73.4-98.6,73.3-95.1,73.1-91.9 M180.6-47.3c-1.8,15.4-9.1,28-12.4,32.9l0.2-0.4
			c0.4-0.7,5.8-11.2,7.2-26.7c0.1-1.1,0.2-2.3,0.2-3.5c0-0.1,0-0.1,0-0.2c0.1-1.2,0.1-2.5,0.1-3.8l0,0c1.3-1.6,2.5-3.3,3.8-5
			c12.5-17.6,19.8-39.1,19.8-62.3c0-9-1.1-17.8-3.2-26.1l-68.9,67.8c-2.4,0.5-5,1-7.8,1.5l75.3-74.1c-2.1-7.1-5-13.9-8.4-20.3
			l-75.9,75.9c-0.2-3.2-0.4-6.7-0.5-10.4l72.3-72.3c-3.7-5.8-7.9-11.1-12.6-16.1L110.4-131c0-2,0.1-4.1,0.1-6.3l56.4-56.4
			c-12.8-12.4-28.6-21.7-46.2-26.6c-1-0.3-2-0.5-3-0.8c-0.3-0.1-0.5-0.1-0.8-0.2c-1-0.2-2.1-0.5-3.1-0.7c0-0.1,0-0.1,0-0.2
			c0.1-1.4,0.2-2.8,0.4-4.1c0-0.1,0-0.2,0-0.3c0.6-4.3,1.1-7.8,1.3-10.1c1.6,3.8,2.9,7.8,3.9,11.3c48.7,12.4,84.8,56.6,84.8,109.2
			C204.3-90.3,195.4-66.4,180.6-47.3"/>
	</g>
	<g id="g5540" transform="matrix(1.25,0,0,-1.25,-1930.8707,39.673973)">
		<path id="path5542" inkscape:connector-curvature="0" class="st2" d="M112.3-197c-4,33.2-4.8,106.3-4.8,126.9
			c0,17.9,2.2,32.8,2.8,36.4c-4.4,0.4-9,0.6-13.8,0.6s-9.3-0.2-13.6-0.5c0.7-4.1,2.8-19,2.8-36.5c0-20.7-0.8-93.8-4.8-126.9l0,0l0,0
			c0,0,3.8-3.9,15.7-3.9l0,0l0,0C108.5-201,112.3-197.1,112.3-197C112.3-197.1,112.3-197.1,112.3-197L112.3-197L112.3-197z
			 M166.8,19.4c-75.7-25.3-141.1,0-141.1,0c-14.8-31.4,0-61.5,0-61.5S49.2-26,96.4-26c47.3,0,70.3-16.1,70.3-16.1
			C181.9-8.9,166.8,19.4,166.8,19.4"/>
	</g>
</g>
</svg>
