<?xml version="1.0" encoding="utf-8"?>
<!-- Generator: Adobe Illustrator 21.1.0, SVG Export Plug-In . SVG Version: 6.00 Build 0)  -->
<!DOCTYPE svg PUBLIC "-//W3C//DTD SVG 1.1//EN" "http://www.w3.org/Graphics/SVG/1.1/DTD/svg11.dtd">
<svg version="1.1"
	 id="svg2" inkscape:version="0.91 r13725" sodipodi:docname="Real_Salt_Lake_2010.svg" xmlns:cc="http://creativecommons.org/ns#" xmlns:dc="http://purl.org/dc/elements/1.1/" xmlns:inkscape="http://www.inkscape.org/namespaces/inkscape" xmlns:rdf="http://www.w3.org/1999/02/22-rdf-syntax-ns#" xmlns:sodipodi="http://sodipodi.sourceforge.net/DTD/sodipodi-0.dtd" xmlns:svg="http://www.w3.org/2000/svg"
	 xmlns="http://www.w3.org/2000/svg" xmlns:xlink="http://www.w3.org/1999/xlink" x="0px" y="0px" width="316px" height="421.3px"
	 viewBox="0 0 316 421.3" style="enable-background:new 0 0 316 421.3;" xml:space="preserve">
<style type="text/css">
	.st0{fill:#F1CB00;}
	.st1{fill:#B30838;}
	.st2{fill:#013A81;}
	.st3{fill:#FFFFFF;}
</style>
<sodipodi:namedview  bordercolor="#666666" borderopacity="1.0" fit-margin-bottom="1" fit-margin-left="0.4" fit-margin-right="0.4" fit-margin-top="1" id="base" inkscape:current-layer="layer1" inkscape:cx="254.98875" inkscape:cy="703.37445" inkscape:document-units="px" inkscape:pageopacity="0.0" inkscape:pageshadow="2" inkscape:window-height="705" inkscape:window-maximized="1" inkscape:window-width="1366" inkscape:window-x="-8" inkscape:window-y="-8" inkscape:zoom="0.35" pagecolor="#ffffff" showgrid="false">
	</sodipodi:namedview>
<g id="layer1" transform="translate(-120.01125,-908.65004)" inkscape:groupmode="layer" inkscape:label="Layer 1">
	<g id="g3338" transform="matrix(0.47481409,0,0,0.47481409,121.42857,912.19398)">
		<title  id="title3340">Layer 1</title>
		<path class="st0" d="M329.8,879.9l-7.7-3.9c-3.3-1.7-82.6-42.9-162.7-130.2c-47.1-51.3-84.6-108-111.6-168.5
			C14.1,501.6-3,419.8-3,334.3V-7.5h665.5v341.7c0,85.6-17.1,167.3-50.8,243c-26.9,60.5-64.5,117.2-111.6,168.5
			C420,833.1,340.8,874.3,337.5,876L329.8,879.9z M30.7,26.2v308.1c0,80.8,16.1,158,47.9,229.3c25.5,57.1,61,110.8,105.6,159.4
			c62,67.6,124.2,106.4,145.5,118.7c21.4-12.4,84.3-51.7,146.4-119.6c44.4-48.6,79.8-102.2,105.1-159.2
			c31.6-71.1,47.6-148.1,47.6-228.6V26.2H30.7z"/>
		<path id="svg_1" inkscape:connector-curvature="0" class="st0" d="M13.9,9.4v324.9C13.9,699,329.8,861,329.8,861
			s315.9-162,315.9-526.7V9.4H13.9"/>
		<path id="svg_2" inkscape:connector-curvature="0" class="st1" d="M25.9,21.4v313c0,326.7,262.6,489,303.9,512.6
			c41.4-23.6,304-185.9,304-512.6v-313H25.9 M609.9,334.4c0,295-217.3,446.5-280.1,484.4c-62.8-38-280-189.4-280-484.4V45.3h560.1
			V334.4L609.9,334.4z"/>
		<path id="svg_3" inkscape:connector-curvature="0" class="st2" d="M63,57.2v277.2c0,279.8,200.1,427.7,268.1,470.3
			c68-42.6,268.1-190.4,268.1-470.3V57.2H63"/>
		<path id="svg_4" inkscape:connector-curvature="0" class="st3" d="M400.1,601.9c-0.2-14.6-4.9-28.2-12.8-39.4l-28.4,0.4l-8.4-27.1
			c-6.5-2-13.5-3.1-20.7-3.1s-14.2,1.1-20.7,3.1l-8.5,27.1l-28.4-0.4c-7.8,11.2-12.5,24.7-12.8,39.4l23.2,16.4l-9.1,26.9
			c8.4,11.2,20,19.7,33.5,24.3l22.8-17l22.8,17c13.5-4.6,25.1-13.2,33.5-24.3l-9.1-26.9L400.1,601.9"/>
		<path id="svg_5" inkscape:connector-curvature="0" class="st0" d="M459.9,223.5C492.4,254,515,295,522.3,341.2
			c-5.9-47.8-27.7-90.6-59.9-123L459.9,223.5"/>
		<path id="svg_6" inkscape:connector-curvature="0" class="st0" d="M250.7,567.4c-79-28.6-135.5-104.5-135.5-193.6
			c0-65.9,30.9-124.5,78.9-162.2l-6.5-14c-51.7,38.6-85.2,100.3-85.2,170c0,94.7,62,174.8,147.3,201.8
			C250,568.7,250.4,568,250.7,567.4"/>
		<path id="svg_7" inkscape:connector-curvature="0" class="st0" d="M392.1,372.1c-14.1-12.6-29.5-20-46.5-22.2
			c0,0,75.8-5.8,75.8-49.8c0-21.2-26.5-49.8-109.1-49.8h-97c0,0,12.9,7.2,12.9,13.4v93.9c12,5.9,28.4,11.3,44.7,17.9v-18.2h26.6
			c14.1,0,22.2,3.2,29.6,9.4l77.4,72c10.8,9.3,32.3,20.5,51,20.5c24,0,33.6-8,33.6-8s-15.5-1-27.3-11L392.1,372.1 M305.2,345.6H273
			v-83.1h32.2c40.6,0,67.6,13.9,67.6,41.6C372.9,326.5,344.8,345.6,305.2,345.6L305.2,345.6z"/>
		<path id="svg_8" inkscape:connector-curvature="0" class="st0" d="M228.3,407.3v31.3c0,7.2-11.6,13.3-11.6,13.3h68.5
			c0,0-12.2-6.1-12.2-13.3V428C262.5,420.5,245.6,414.3,228.3,407.3"/>
		<path id="svg_9" inkscape:connector-curvature="0" class="st0" d="M180.8,149.9c5.1,12.1,7.3,16.3,7.3,16.3l-4.1,15.1l16,7
			l9.9,21.4c0,0,46.7-21.1,119.9-21.1s119.9,21.1,119.9,21.1l9.9-21.4l16-7l-4.1-15.1c0,0,2.2-4.2,7.3-16.3
			c5.1-12.1,29.9-25.1,29.9-25.1c-20.9-21.5-38.3,21.5-60.4,0.6c-7.6,11.4,8.4,25.1,8.4,25.1s-4.8,12-18.7,14.3
			c-16.8,2.8-34.4,1.8-37.7-29.2c0,0-11.4,31.3-37.7,24.4c-17.1-4.5-24-18.1-26.4-25.1c17.1-2.1,30.1-12.5,30.1-25h-24.9
			c-1-12.8-11.4-23.3-11.4-23.3s-10.5,10.5-11.4,23.3h-24.8c0,12.5,13,22.9,30.1,25c-2.4,6.9-9.3,20.6-26.4,25.1
			c-26.3,6.8-37.7-24.4-37.7-24.4c-3.4,31-20.9,32-37.7,29.2c-13.9-2.3-18.7-14.3-18.7-14.3s16-13.7,8.4-25.1
			c-22.1,20.9-39.5-22.2-60.4-0.6C150.9,124.8,175.7,137.8,180.8,149.9"/>
		<path id="svg_10" inkscape:connector-curvature="0" class="st0" d="M448.7,237c0.6-1.2,0.9-2.4,0.9-3.7
			c0-16.8-53.6-30.4-119.7-30.4s-119.7,13.6-119.7,30.4c0,1.2,0.3,2.5,0.8,3.7c25.5-13.5,69.2-22.4,118.9-22.4
			C379.5,214.6,423.2,223.5,448.7,237"/>
		<path id="svg_11" inkscape:connector-curvature="0" class="st0" d="M273.1,584.6l22.9-18l-20.7-0.3c-6.6,9.9-10.7,21.6-11.1,34.3
			l16.9,11.9L273.1,584.6"/>
		<path id="svg_12" inkscape:connector-curvature="0" class="st0" d="M347.8,539.9c-5.7-1.6-11.8-2.5-18-2.5s-12.3,0.9-18,2.5
			l-6.2,19.7l24.2-16.2l24.2,16.2L347.8,539.9"/>
		<path id="svg_13" inkscape:connector-curvature="0" class="st0" d="M363.6,566.6l22.9,18l-8,28l16.9-11.9
			c-0.4-12.7-4.5-24.4-11.1-34.3L363.6,566.6"/>
		<path id="svg_14" inkscape:connector-curvature="0" class="st0" d="M284.8,623.9l-6.6,19.6c7.5,9.6,17.5,17,29.1,21.2l16.6-12.4
			l-29.1-1.1L284.8,623.9"/>
		<path id="svg_15" inkscape:connector-curvature="0" class="st0" d="M364.8,651.2l-29.1,1.1l16.6,12.4
			c11.6-4.2,21.7-11.7,29.2-21.2l-6.6-19.6L364.8,651.2"/>
		<path id="svg_16" inkscape:connector-curvature="0" class="st1" d="M545.8,372c0,92.1-54.2,171.4-132.3,207.7
			c1.2,4.3,2.1,8.8,2.6,13.4c83-35.3,141.1-117.9,141.1-214.1c0-72.4-33-137.1-84.7-179.8l-3.5,1.5
			C516.1,242.6,545.8,303.8,545.8,372"/>
		<path id="svg_17" inkscape:connector-curvature="0" class="st1" d="M243.3,596.2c0.2-2.6,0.5-5.2,0.9-7.8
			c-53.8-18.5-98.6-56.6-125.8-105.9C144.3,534.5,188.9,575.4,243.3,596.2"/>
		<path id="svg_18" inkscape:connector-curvature="0" class="st1" d="M337,312.4v20.7c18.1-6.5,28.5-18.1,28.5-29.1
			c0-1.5-0.1-2.9-0.3-4.3h-38.9C326.3,299.8,337,302.5,337,312.4"/>
		<path id="svg_19" inkscape:connector-curvature="0" class="st1" d="M337,384v95.3c0,10-10.7,12.7-10.7,12.7h126.5
			c50.7,0,33.3-29.8,33.3-29.8s-9.9,17.3-39.9,17.3h-71.5v-60.4L337,384"/>
		<path id="svg_20" inkscape:connector-curvature="0" class="st1" d="M298.8,339.2c0,0,13.1-6.5,13.1-18.3
			c0-11.5-14.4-17.7-31.5-20.9v14.4C292.3,319.8,298,328.7,298.8,339.2"/>
		<path id="svg_21" inkscape:connector-curvature="0" class="st1" d="M167.8,462.1c0,17,32.3,32.3,77.9,32.3
			c57.1,0,80.9-29.6,80.9-57.6c0-60-124.3-58.8-124.3-98.3c0-10.3,7.8-18.7,18.7-24v-14.2c-25.6,6-50,20.8-50,46.9
			c0,55.6,120.4,53.8,120.4,97.5c0,22.5-15.7,37.9-45.8,37.9c-34.1,0-62.9-17.7-55.8-44.2C189.9,438.5,167.8,443.6,167.8,462.1"/>
		<path id="svg_22" inkscape:connector-curvature="0" class="st1" d="M260.1,609.6c0,0-2.2,14.6,8.4,27.8l2.6-8.1
			C271.1,629.3,261.6,620.7,260.1,609.6"/>
		<path id="svg_23" inkscape:connector-curvature="0" class="st1" d="M314.6,671.3c0,0,13.2,6.6,29,0.6l-6.9-5
			C336.7,667,325.6,673.4,314.6,671.3"/>
		<path id="svg_24" inkscape:connector-curvature="0" class="st1" d="M392.8,616.2c0,0,2.6,12.6-2.7,22.4c0,0,10.4-10.5,9.6-27.4
			L392.8,616.2"/>
		<path id="svg_25" inkscape:connector-curvature="0" class="st1" d="M359.2,539.1l2.6,8.1c0,0,12.8,1.4,20.5,9.5
			C382.3,556.7,375.6,543.6,359.2,539.1"/>
		<path id="svg_26" inkscape:connector-curvature="0" class="st1" d="M302,538.7c0,0-14.6,2.4-23.9,16.6h8.5
			C286.6,555.3,291.9,543.6,302,538.7"/>
		<path id="svg_27" inkscape:connector-curvature="0" class="st1" d="M349.1,582.7l7.2-16.2l-13.2,11.9h-26.7l-13.2-11.9l7.2,16.2
			l-8.3,25.4l-15.4,8.9l17.7-1.9l21.6,15.7l3.7,17.4l3.7-17.4l21.6-15.7l17.7,1.9l-15.4-8.9L349.1,582.7 M324,593.6l-14.7,19.6
			l8.6-27.6h27.6L324,593.6z"/>
		<path id="svg_28" inkscape:connector-curvature="0" class="st2" d="M372.9,304c0-27.7-27.1-41.6-67.6-41.6h-32.2v83.1h32.2
			C344.8,345.6,372.9,326.5,372.9,304 M298.8,339.2c-0.8-10.5-6.5-19.3-18.4-24.8V300c17.1,3.1,31.5,9.4,31.5,20.9
			C311.8,332.7,298.8,339.2,298.8,339.2z M337,333.1v-20.7c0-10-10.7-12.7-10.7-12.7h38.9c0.2,1.4,0.3,2.8,0.3,4.3
			C365.5,315.1,355.1,326.7,337,333.1z"/>
	</g>
</g>
</svg>
