<?xml version="1.0" encoding="utf-8"?>
<!-- Generator: Adobe Illustrator 21.1.0, SVG Export Plug-In . SVG Version: 6.00 Build 0)  -->
<!DOCTYPE svg PUBLIC "-//W3C//DTD SVG 1.1//EN" "http://www.w3.org/Graphics/SVG/1.1/DTD/svg11.dtd">
<svg version="1.1"
	 id="Layer_1" inkscape:output_extension="org.inkscape.output.svg.inkscape" inkscape:version="0.46" sodipodi:docname="101709MLSGameGuideSFCatKC223332Wpdf.svg" sodipodi:version="0.32" xmlns:cc="http://creativecommons.org/ns#" xmlns:dc="http://purl.org/dc/elements/1.1/" xmlns:inkscape="http://www.inkscape.org/namespaces/inkscape" xmlns:rdf="http://www.w3.org/1999/02/22-rdf-syntax-ns#" xmlns:sodipodi="http://sodipodi.sourceforge.net/DTD/sodipodi-0.dtd" xmlns:svg="http://www.w3.org/2000/svg"
	 xmlns="http://www.w3.org/2000/svg" xmlns:xlink="http://www.w3.org/1999/xlink" x="0px" y="0px" width="204.8px" height="300px"
	 viewBox="0 0 204.8 300" style="enable-background:new 0 0 204.8 300;" xml:space="preserve">
<style type="text/css">
	.st0{fill:#142530;}
	.st1{fill:#FFFFFF;}
	.st2{fill:#005595;}
	.st3{fill:#5D9741;}
	.st4{fill:none;}
</style>
<defs>
	
	
		<inkscape:perspective  id="perspective74" inkscape:persp3d-origin="400 : 200 : 1" inkscape:vp_x="0 : 300 : 1" inkscape:vp_y="0 : 1000 : 0" inkscape:vp_z="800 : 300 : 1" sodipodi:type="inkscape:persp3d">
		</inkscape:perspective>
</defs>
<sodipodi:namedview  bordercolor="#666666" borderopacity="1.0" gridtolerance="10.0" guidetolerance="10.0" id="base" inkscape:current-layer="Layer_1" inkscape:cx="94.289246" inkscape:cy="44.762931" inkscape:pageopacity="0.0" inkscape:pageshadow="2" inkscape:snap-global="false" inkscape:window-height="669" inkscape:window-width="934" inkscape:window-x="675" inkscape:window-y="323" inkscape:zoom="2.72" objecttolerance="10.0" pagecolor="#ffffff" showgrid="false">
	</sodipodi:namedview>
<g id="g3" transform="matrix(12.253588,0,0,12.253588,-4761.3399,-3393.1395)">
	<path id="path5" class="st0" d="M392.4,294.2c-0.9-0.9-1.9-1.6-3-2.3c0,0,0.3-0.7,0.4-1c0.7-2.8,0.1-5-1.1-7.5c0,0,1.9,0.2,3.2,0.1
		c1.8-0.2,3.4-0.7,5-1.5c2.8,1.4,5.1,1.7,8.2,1.4c-1.4,3-2,5.5-0.8,8.5c0,0-0.7,0.4-1.2,0.8c-3.2,2.4-4.8,4.9-6.3,8.7
		C395.8,298.5,394.7,296.4,392.4,294.2"/>
	<path class="st1" d="M396.8,300c-0.9-2.3-2.2-4.2-4.1-6c-1-0.9-1.8-1.6-2.6-2.1l-0.1-0.1l0.1-0.1c0,0,0.1-0.3,0.2-0.7
		c0.6-2.2,0.3-4.6-0.8-6.9l-0.1-0.3l0.3,0c0,0,0.4,0,1.1,0c0.4,0,0.8,0,1.2-0.1c1.7-0.2,3.4-0.6,4.9-1.4l0.1,0l0.1,0
		c1.9,0.9,4.1,1.5,6.1,1.5c0.4,0,0.8,0,1.1-0.1l0.3,0l-0.1,0.3c-1.1,2.3-1.4,4.7-0.8,6.9c0.1,0.4,0.2,0.7,0.2,0.7l0.1,0.1l-0.1,0.1
		c0,0-0.4,0.2-0.8,0.6c-2.8,2-4.8,4.7-5.9,7.6l-0.2,0.4L396.8,300z M390.6,291.6c0.8,0.5,1.6,1.2,2.5,2c1.2,1.2,2.8,3,3.9,5.4
		c1.1-2.6,3.2-5,5.8-6.9c0.2-0.2,0.5-0.3,0.6-0.4c-0.2-0.6-0.4-1.3-0.4-2.1c-0.1-1.2,0-3,0.8-5c-0.2,0-0.3,0-0.5,0
		c-2.1,0-4.3-0.5-6.2-1.4c-1.9,0.9-4.2,1.4-6.2,1.4c-0.2,0-0.3,0-0.5,0c0.9,2.1,1.1,4.5,0.5,6.7
		C390.6,291.3,390.6,291.5,390.6,291.6z"/>
	<path id="path7" class="st2" d="M392.9,293.8c1.4,1.3,3.1,3.3,4.1,5.8c1.2-2.9,3.4-5.5,5.9-7.3c0.3-0.3,0.6-0.4,0.7-0.5
		c-0.3-0.7-0.4-1.5-0.5-2.2c-0.1-1.4,0-3.2,0.9-5.2c-2.4,0.2-5-0.4-7.1-1.5c-2.1,1-4.8,1.6-7.1,1.5c1,2.2,1.2,4.7,0.6,6.9
		c-0.1,0.3-0.1,0.5-0.2,0.6C391.2,292.3,392.1,293,392.9,293.8"/>
	<path id="path9" class="st1" d="M392.9,293.7c1.4,1.3,3,3.2,4,5.7c1.2-2.9,3.4-5.4,5.9-7.2c0.3-0.3,0.6-0.4,0.7-0.5
		c-0.3-0.7-0.4-1.5-0.5-2.2c-0.1-1.4,0-3.2,0.9-5.2c-2.3,0.2-5-0.4-7-1.4c-2.1,1-4.7,1.6-7,1.4c1,2.1,1.2,4.6,0.6,6.8
		c-0.1,0.3-0.1,0.4-0.2,0.5C391.3,292.2,392.1,293,392.9,293.7 M392.8,293.9c-0.8-0.8-1.7-1.5-2.7-2.1c0,0,0.1-0.3,0.2-0.7
		c0.6-2.4,0.3-4.8-0.8-7c0,0,1.1,0.1,2.4,0c1.7-0.2,3.4-0.6,5-1.4c2.1,1.1,5,1.7,7.4,1.4c-1.1,2.2-1.4,4.6-0.8,7
		c0.1,0.4,0.2,0.7,0.2,0.7s-0.4,0.2-0.8,0.6c-2.6,2-4.8,4.5-6,7.6C396,297.5,394.6,295.6,392.8,293.9"/>
	<path id="path11" class="st0" d="M391.4,286.2c-0.6-3.5-0.6-7.1-0.6-7.1l6.1-2.2l6.1,2.2c0,0,0.1,3.6-0.6,7.1
		c-0.7,4.1-2.1,7.8-5.6,10.5C393.5,294,392.1,290.2,391.4,286.2"/>
	<path class="st1" d="M396.8,295.9c-2.5-1.9-4.1-5.2-5-9.8c-0.6-3.4-0.6-6.5-0.6-6.5l0-0.2l5.7-2l5.7,2l0,0.2c0,0,0.1,3.1-0.6,6.5
		c-0.9,4.6-2.5,8-5,9.8l-0.1,0.1L396.8,295.9z M392.1,280c0,0.8,0.1,3.2,0.6,5.9c0.5,2.9,1.7,6.9,4.3,9c1.7-1.4,2.9-3.7,3.8-6.9
		c0.7-2.4,1-5.4,1-8.1l-4.9-1.7L392.1,280z"/>
	<path id="path13" class="st3" d="M392.3,286c0.6,3.5,1.9,7.4,4.7,9.5c4.1-3.2,5.3-10.9,5.2-15.9l-5.2-1.8l-5.2,1.8
		C391.7,280.3,391.7,282.9,392.3,286"/>
	<path id="path15" class="st1" d="M392.4,286c0.6,3.4,1.9,7.2,4.5,9.3c4-3.2,5.1-10.7,5.1-15.5l-5.1-1.8l-5.1,1.8
		C391.8,280.4,391.8,283,392.4,286 M392,286c-0.6-3.4-0.6-6.5-0.6-6.5l5.5-1.9l5.5,1.9c0,0,0.1,3-0.6,6.5c-0.6,3.5-1.9,7.4-4.9,9.7
		C394,293.5,392.7,289.5,392,286"/>
	<path id="path17" class="st1" d="M395.7,285.9l-0.4-2.8c-0.4-0.1-1-0.3-1-0.8c-0.3-0.2-0.7-0.4-0.7-0.8c0-0.4,0.5-0.7,0.9-0.8
		c0.3-0.3,0.8-0.5,1.3-0.6c0-0.2,0.1-0.3,0.2-0.4c0.2-0.1,0.3-0.2,0.5-0.3l0.1-0.1l0.1-1.2c0.1-0.3,0.4-0.3,0.5-0.2
		c0,0,0.1,0.1,0.1,0.2l0.1,1.2l0.1,0.1c0.6,0.2,0.7,0.5,0.7,0.7c0.6,0.1,1.1,0.3,1.3,0.6c0.4,0.2,0.9,0.4,0.9,0.8
		c0,0.4-0.4,0.6-0.7,0.8c0,0.5-0.7,0.7-1,0.8l-0.4,2.8L395.7,285.9"/>
	<path id="path19" class="st0" d="M395.9,285.9l-0.4-3c-0.5-0.1-1-0.3-1-0.6c0-0.1,0-0.1,0.1-0.2c-0.4-0.2-0.7-0.4-0.7-0.6
		c0-0.2,0.3-0.5,0.7-0.6c0.2-0.3,0.7-0.5,1.5-0.6c-0.1-0.2,0.1-0.4,0.1-0.4c0.2-0.1,0.3-0.2,0.5-0.3l0.1-0.2l0.1-1.3
		c0-0.2,0.1,0,0.1,0l0.1,1.3l0.1,0.2c0.4,0.1,0.6,0.3,0.6,0.3l-0.1,0c-0.4,0-0.5,0.2-0.5,0.4c1,0,1.8,0.3,2.1,0.7
		c0.4,0.2,0.7,0.4,0.7,0.6c0,0.2-0.3,0.5-0.7,0.6c0,0,0.1,0.1,0.1,0.2c0,0.2-0.4,0.4-1,0.6l-0.4,3h-0.2l0.2-2.8c0,0,0-0.1-0.1-0.1
		c-0.1,0-0.3,0-0.3,0c-0.1,0-0.1,0.1-0.1,0.1c0,0,0,1.5,0,2.8h-1v-2.8c0,0,0-0.1-0.1-0.1l-0.3,0c-0.2,0-0.1,0.1-0.1,0.1l0.2,2.8
		L395.9,285.9"/>
	<path id="path21" class="st1" d="M397.9,281c-0.2-0.1-0.4-0.1-0.6-0.1l0.1,0c0.2-0.1,0.6-0.2,0.9-0.1c0.3,0.1,0.9,0.4,0.8,0.9
		c-0.1-0.1-0.2-0.2-0.3-0.3c0,0-0.1,0-0.1,0.1c0.2,0.2,0.3,0.4,0.2,0.6c-0.2-0.3-0.8-0.6-1.2-0.8l0,0c0.2-0.2,0.5-0.1,0.8,0
		c0,0,0.1,0,0.1-0.1C398.3,281.1,398.1,281,397.9,281"/>
	<path id="path23" class="st1" d="M395.1,293.7c0.3-2,0.5-2.9,0.6-4.9h2.3c0.1,2.1,0.3,2.9,0.7,4.9l-1.8,1.9L395.1,293.7"/>
	<path id="path25" class="st0" d="M395.4,293.9c0.2-0.9,0.6-2.8,0.7-5.1h1.8c0.1,2.3,0.5,4.2,0.7,5.1l-0.4,0.5
		c-0.2-1-0.3-1.5-0.5-2.5c0-0.2-0.1-0.2-0.1-0.2c-0.1,0-0.1,0.1-0.1,0.2l-0.2,3.2l-0.3,0.4l-0.3-0.4l-0.2-3.2c0-0.2,0-0.2-0.1-0.2
		c-0.1,0-0.1,0.1-0.1,0.2c-0.2,0.9-0.3,1.5-0.5,2.4L395.4,293.9"/>
	<path id="path27" class="st4" d="M392.7,288.1c0.8,2.8,2,5.7,4.2,7.4c2.1-1.6,3.4-4.4,4.2-7.4H392.7"/>
	<path id="path29" class="st0" d="M388.6,286c2.7-1.2,5.4-1.8,8.4-1.8c3,0,5.6,0.6,8.4,1.8v5.3c-2.8-1.2-5.3-1.9-8.4-1.9
		c-3.1,0-5.5,0.6-8.4,1.9V286"/>
	<path id="path31" class="st1" d="M389.1,286.3v4.2c2.4-1,5.1-1.6,7.9-1.6c2.8,0,5.5,0.6,7.9,1.6v-4.2c-2.4-1-5.1-1.6-7.9-1.6
		C394.2,284.7,391.5,285.3,389.1,286.3"/>
	<path id="path33" class="st0" d="M392.7,286.4c0,0.2,0.1,0.2,0.3,0.1l0.2,0c0.3-0.1,0.3-0.1,0.3-0.3c0-0.2-0.1-0.2-0.4-0.2
		c-0.2,0-0.2,0-0.2,0c0,0,0-0.1,0.1-0.1l0.2,0c0.1,0,0.1,0,0.1,0.1l0.2,0v0c0-0.1,0-0.2-0.3-0.2l-0.3,0.1c-0.3,0-0.3,0.2-0.3,0.3
		c0,0.2,0,0.2,0.3,0.2c0.3,0,0.3-0.1,0.3,0c0,0.1,0,0.1-0.1,0.1l-0.2,0c-0.1,0-0.1,0-0.1-0.1L392.7,286.4L392.7,286.4"/>
	<polyline id="polyline35" class="st0" points="394.2,286.4 394.9,286.3 394.9,286.1 394.4,286.2 394.4,286 394.8,286 394.9,285.8 
		394.4,285.9 394.4,285.8 394.9,285.7 394.9,285.5 394.2,285.6 394.2,286.4 	"/>
	<path id="path37" class="st0" d="M395.9,285.6l0.1,0.3l-0.3,0L395.9,285.6L395.9,285.6z M395.4,286.2l0.2,0l0.1-0.1l0.4,0l0.1,0.1
		l0.2,0l-0.4-0.7l-0.3,0L395.4,286.2"/>
	<polyline id="polyline39" class="st0" points="396.8,285.6 397.1,285.6 397.1,286.2 397.3,286.2 397.3,285.6 397.6,285.6 
		397.6,285.5 396.8,285.4 396.8,285.6 	"/>
	<polyline id="polyline41" class="st0" points="398,285.6 398.3,285.7 398.3,286.2 398.5,286.2 398.5,285.7 398.7,285.7 
		398.7,285.5 398,285.5 398,285.6 	"/>
	<polyline id="polyline43" class="st0" points="399.3,286.3 399.9,286.4 399.9,286.2 399.5,286.2 399.5,285.6 399.3,285.6 
		399.3,286.3 	"/>
	<polyline id="polyline45" class="st0" points="400.4,286.5 401.1,286.6 401.1,286.4 400.6,286.3 400.6,286.2 401,286.3 
		401.1,286.2 400.6,286.1 400.6,286 401.1,286.1 401.1,285.9 400.4,285.7 400.4,286.5 	"/>
	<path id="path47" class="st0" d="M391.6,287.6c-0.3,0.1-0.4,0.3-0.4,0.7c0,0.3,0.2,0.5,0.4,0.4c0.3-0.1,0.4-0.3,0.4-0.7
		C392,287.7,391.9,287.5,391.6,287.6 M391.6,289c-0.5,0.1-0.8-0.2-0.8-0.7c0-0.5,0.3-1,0.8-1.1c0.5-0.1,0.8,0.2,0.8,0.7
		C392.4,288.4,392.1,288.9,391.6,289"/>
	<polyline id="polyline49" class="st0" points="395.5,286.5 395.5,288.3 394.4,287.4 394.6,287.6 394.6,288.3 394.2,288.4 
		394.2,286.6 395.1,287.4 395.1,286.6 395.5,286.5 	"/>
	<path id="path51" class="st0" d="M396.4,287.8c0.2,0,0.3-0.1,0.3-0.3v-0.5c0-0.3-0.2-0.3-0.4-0.3v1L396.4,287.8L396.4,287.8z
		 M397,287v0.6c0,0.5-0.4,0.6-0.5,0.6c-0.3,0-0.6,0-0.6,0l0-1.5l-0.1-0.2c0,0,0.4,0,0.8,0C396.8,286.5,397,286.6,397,287"/>
	<polyline id="polyline53" class="st0" points="398.4,286.6 398.4,286.9 397.8,286.9 397.8,287.2 398.3,287.2 398.1,287.5 
		397.8,287.5 397.8,287.9 398.4,287.9 398.4,288.3 397.4,288.2 397.4,287.3 397.2,287.1 397.4,287.2 397.4,286.5 398.4,286.6 	"/>
	<path id="path55" class="st0" d="M399.4,287l-0.3,0v0.4l0.3,0c0.1,0,0.2-0.1,0.2-0.2S399.5,287,399.4,287 M399.7,288.4l-0.3-0.7
		l-0.2,0v0.7l-0.3,0v-1.5l-0.1-0.1l0.8,0.1c0.3,0,0.5,0.3,0.5,0.6c0,0.2-0.1,0.4-0.3,0.4l0.4,0.8L399.7,288.4"/>
	<path id="path57" class="st0" d="M399.4,287.5l-0.3,0v-0.5l0.3,0l0,0l0,0l-0.3,0v0.4L399.4,287.5L399.4,287.5
		c0.2-0.1,0.2-0.1,0.2-0.2c0-0.1-0.1-0.2-0.2-0.2l0,0l0,0c0.1,0,0.3,0.1,0.3,0.3C399.7,287.4,399.6,287.4,399.4,287.5L399.4,287.5
		 M400,288.4l-0.4-0.8l0,0c0.1,0,0.3-0.1,0.3-0.4c0-0.3-0.2-0.5-0.5-0.6l-0.7-0.1l0.1,0.1v1.5l0.3,0v-0.7l0.3,0l0.3,0.7L400,288.4
		L400,288.4z M399.6,288.4l-0.3-0.7l-0.2,0v0.6l-0.4,0v-1.5l-0.2-0.2l0.9,0.1c0.3,0.1,0.5,0.3,0.5,0.6c0,0.2-0.1,0.4-0.3,0.4
		l0.4,0.8L399.6,288.4"/>
	<path id="path59" class="st0" d="M400.7,288.6c-0.2,0-0.4-0.2-0.6-0.3l0.1-0.3c0.1,0.1,0.3,0.2,0.5,0.3c0.1,0,0.2,0,0.2-0.1
		c0-0.1,0-0.2-0.3-0.3c-0.3-0.2-0.4-0.4-0.4-0.6c0-0.3,0.2-0.5,0.6-0.4c0.2,0,0.4,0.1,0.5,0.2l-0.1,0.3c-0.1-0.1-0.2-0.2-0.4-0.2
		c-0.1,0-0.2,0-0.2,0.1c0,0.1,0.1,0.2,0.3,0.3c0.3,0.2,0.4,0.4,0.4,0.6C401.3,288.5,401.1,288.7,400.7,288.6"/>
	<path id="path61" class="st0" d="M393.2,288.6c-0.4,0.1-0.6-0.1-0.6-0.6v-1l0.4-0.1v1c0,0.3,0.1,0.4,0.3,0.4c0.2,0,0.3-0.2,0.3-0.5
		v-1l0.5-0.1l-0.1,0.2v0.9C393.9,288.3,393.6,288.6,393.2,288.6"/>
	<path id="path63" class="st0" d="M390.1,289.6c-0.2,0.1-0.4,0.1-0.6,0l0.1-0.4c0.1,0.1,0.3,0.1,0.5,0c0.1-0.1,0.2-0.1,0.2-0.2
		c0-0.1,0-0.1-0.3-0.2c-0.3,0-0.4-0.2-0.4-0.4c0-0.3,0.2-0.6,0.6-0.8c0.2-0.1,0.4-0.1,0.5,0l-0.1,0.4c-0.1,0-0.3-0.1-0.4,0
		c-0.1,0.1-0.2,0.1-0.2,0.2c0,0.1,0.1,0.1,0.3,0.1c0.3,0,0.4,0.2,0.4,0.4C390.7,289.1,390.5,289.4,390.1,289.6"/>
	<path id="path65" class="st0" d="M402.1,287.9v-0.7l1,0.3v0.4l-0.7-0.2v0.4l0.6,0.2l-0.2,0.3l-0.4-0.1v0.7l-0.4-0.1v-0.9l-0.2-0.2
		L402.1,287.9 M402.1,288.1l-0.2-0.2"/>
	<path id="path67" class="st0" d="M404,289.6c-0.5-0.2-0.9-0.7-0.9-1.2c0-0.5,0.4-0.8,0.9-0.6c0.2,0.1,0.4,0.2,0.5,0.3l-0.1,0.3
		c-0.1-0.1-0.3-0.2-0.4-0.3c-0.3-0.1-0.5,0-0.5,0.3c0,0.3,0.2,0.6,0.5,0.7c0.1,0,0.3,0.1,0.4,0l0.1,0.4
		C404.4,289.7,404.2,289.7,404,289.6"/>
</g>
</svg>
