<?xml version="1.0" encoding="utf-8"?>
<!-- Generator: Adobe Illustrator 21.1.0, SVG Export Plug-In . SVG Version: 6.00 Build 0)  -->
<!DOCTYPE svg PUBLIC "-//W3C//DTD SVG 1.1//EN" "http://www.w3.org/Graphics/SVG/1.1/DTD/svg11.dtd">
<svg version="1.1" id="Layer_1" xmlns="http://www.w3.org/2000/svg" xmlns:xlink="http://www.w3.org/1999/xlink" x="0px" y="0px"
	 width="500px" height="627.5px" viewBox="0 0 500 627.5" style="enable-background:new 0 0 500 627.5;" xml:space="preserve">
<style type="text/css">
	.st0{fill:#FFFFFF;}
	.st1{fill:#0067B1;}
	.st2{fill:#D8D9DA;}
	.st3{fill:#ADAFB2;}
	.st4{fill:#717073;}
	.st5{fill:#919195;}
	.st6{fill:#A7A9AC;}
	.st7{fill:#E31837;}
	.st8{fill:none;}
</style>
<path d="M486.2,33C475,29.6,373.2,0,250,0C126.8,0,25,29.6,13.8,33L0,37.2v14.4v268.7c0,50.5,13.8,99.7,41.1,146.4
	c27.7,47.3,61.8,78.7,79.7,93.2c58.4,47.5,117.3,64.1,126.5,65.4l2.7,0.4l2.7-0.4c9.2-1.3,68-17.9,126.5-65.4
	c17.9-14.5,52-46,79.7-93.2c27.3-46.7,41.1-95.9,41.1-146.4V51.6V37.2L486.2,33z"/>
<path class="st0" d="M249.3,611.1c-4-0.6-20-5-41.4-14.6c-19.4-8.6-48.6-23.9-78-47.8c-17.1-13.9-49.8-44-76.3-89.3
	c-26-44.4-39.2-91.2-39.2-139.1V47.9l3.6-1.1c11-3.3,110.9-32.4,232-32.4c121.1,0,221,29.1,232,32.4l3.6,1.1v272.4
	c0,47.9-13.2,94.7-39.2,139.1c-26.5,45.3-59.2,75.4-76.3,89.3c-29.4,23.9-58.6,39.2-78,47.8c-21.4,9.5-37.4,14-41.4,14.6l-0.7,0.1
	L249.3,611.1z"/>
<path class="st0" d="M250,19.4c-121.5,0-222.5,29.7-230.6,32.2c0,0,0,267.1,0,268.7c0,104.5,64.8,184.8,113.6,224.6
	c55,44.7,111,60.4,117,61.3c6-0.9,61.9-16.6,117-61.3c48.9-39.7,113.6-120,113.6-224.6c0-1.6,0-268.7,0-268.7
	C472.5,49.1,371.5,19.4,250,19.4z"/>
<path d="M466.4,320.3c0,44.4-12.3,88-36.6,129.4c-25,42.7-55.7,71-71.9,84.1c-10.7,8.7-21.4,16.2-31.5,22.6l-64-115.9
	c-0.8,0.1-1.6,0.3-2.4,0.4c-3.3,0.5-6.7,0.7-10.1,0.7c-40.1,0-72.6-32.5-72.6-72.6c0-18,6.6-34.4,17.4-47.1l0,0
	c0.4-0.5,0.9-1,1.3-1.6l-68-123h-15.7l67.2,121.7c-10.1,14.1-16,31.4-16,50c0,47.6,38.7,86.3,86.3,86.3c1.7,0,3.3-0.1,4.9-0.1
	l59.8,108.3c-11.1,6.4-21.2,11.4-29.4,15c-17.4,7.8-30.3,11.8-35.4,13.1c-5.1-1.3-17.9-5.3-35.4-13.1c-18.1-8.1-45.3-22.5-72.7-44.7
	c-16.1-13.1-46.9-41.4-71.9-84.1c-24.3-41.5-36.6-85-36.6-129.4v-258c11.9-3.2,33.4-8.6,61.2-13.8c53.1-9.9,105.3-14.9,155.2-14.9
	s102.1,5,155.2,14.9c27.9,5.2,49.4,10.6,61.2,13.8L466.4,320.3L466.4,320.3z"/>
<path class="st1" d="M405.2,48.5C352.1,38.6,299.9,33.6,250,33.6s-102.1,5-155.2,14.9c-27.9,5.2-49.4,10.6-61.2,13.8v258
	c0,44.4,12.3,88,36.6,129.4c25,42.7,55.7,71,71.9,84.1c27.4,22.2,54.6,36.6,72.7,44.7c17.4,7.8,30.3,11.8,35.4,13.1
	c5.1-1.3,17.9-5.3,35.4-13.1c8.2-3.7,18.3-8.6,29.4-15l-2.3-4.1c-4.9,2.8-9.5,5.3-13.9,7.6l-52.1-94.4c-1.9-0.1-3.8-0.2-5.6-0.3l0,0
	c-52.9-4.6-94.4-49.1-94.4-103.2c0-17,4.1-33,11.4-47.2c0.4-0.7,0.8-1.5,1.2-2.2c0.1-0.2,1.1-2,1.6-2.8l-66-119.5H89l66,119.5
	c-8.5,15.5-13.4,33.3-13.4,52.2c0,57.6,45.2,104.8,101.9,108.2l50.7,91.9c-3.9,1.9-7.5,3.6-10.8,5.1c-16.9,7.6-29.2,11.3-33.4,12.5
	c-4.2-1.2-16.5-4.9-33.4-12.5c-17.8-8-44.7-22.1-71.6-44c-15.9-12.9-46.1-40.8-70.8-82.9c-23.8-40.7-35.9-83.5-35.9-127V65.9
	c13-3.4,32.7-8.2,57.4-12.8c52.8-9.9,104.7-14.8,154.3-14.8c49.6,0,101.6,5,154.3,14.9c24.7,4.6,44.4,9.3,57.4,12.8v254.4
	c0,43.6-12.1,86.3-35.9,127c-24.6,42.1-54.9,70-70.8,82.9c-10.5,8.5-20.9,15.8-30.9,22.1l2.3,4.2c10.1-6.4,20.8-13.9,31.5-22.6
	c16.1-13.1,46.9-41.4,71.9-84.1c24.3-41.5,36.6-85,36.6-129.4v-258C454.6,59.1,433.1,53.7,405.2,48.5z"/>
<polygon class="st1" points="397.6,197.4 346.7,197.4 371.2,245.6 "/>
<path class="st1" d="M133.6,197.4l65.8,119.3c10.9-10.5,25.1-17.7,41-19.8l-53.8-99.6L133.6,197.4L133.6,197.4z"/>
<polygon class="st1" points="317.8,342.5 317.9,342.7 344.5,294.1 294.2,197.4 240.7,197.4 310.1,328 "/>
<polygon class="st1" points="344.5,294.2 436.3,294.2 436.3,245.6 371.2,245.6 "/>
<path class="st1" d="M317.9,342.7c3.2,8.2,5,17.1,5,26.5c0,7.7-1.2,15.1-3.4,22.1H424c5.6-16,9.3-32.2,11.1-48.6L317.9,342.7
	L317.9,342.7z"/>
<path class="st1" d="M293.8,488.4h69.2c11.9-12.4,25.4-28.6,37.7-48.6H267L293.8,488.4z"/>
<path class="st0" d="M249.3,300.5l-2.5,11.5c-10.7,5-18.3,12.8-18.3,12.8c-6.2,0.2-15.4,0.8-24.8,2.3c-1-3.1-1.2-6.2-1.2-7.3
	C215.1,307.5,231.7,300.7,249.3,300.5 M251,300.5l2.5,11.5c10.7,5,18.3,12.8,18.3,12.8c6.2,0.2,15.4,0.8,24.8,2.3
	c1-3.1,1.2-6.2,1.2-7.3C285.1,307.5,268.5,300.7,251,300.5"/>
<path class="st2" d="M279.9,378.7c-3.2,9.5-11.6,23.9-13.5,27.2c-1.8,0.4-8.5,1.6-17,1.6c-5.6,0-10.8-0.5-15.6-1.6
	c-1.9-3.3-10.3-17.8-13.5-27.2c3.1-4.6,10.8-15.6,19.3-23.7h21.1C269.1,363.1,276.8,374.1,279.9,378.7 M225.7,330.8
	c-8.6-1.6-17.5-2-22.2-2.1c-8,10-13.6,22.3-14.9,25.4c1.8,11.6,7.3,21.9,8.3,23.8c3.7,0.3,7.6,0.5,11.5,0.5c5.3,0,9.2-0.3,10.6-0.4
	c5.2-13.6,11.9-25.6,13.5-28.4L225.7,330.8z M296.8,328.7c-4.8,0.1-13.7,0.5-22.3,2.1l-6.8,18.8c1.6,2.7,8.3,14.7,13.5,28.4
	c1.4,0.1,5.3,0.4,10.6,0.4c3.9,0,7.8-0.2,11.6-0.5c1.1-1.9,6.5-12.3,8.4-23.8C310.3,350.8,304.9,338.7,296.8,328.7"/>
<path class="st3" d="M195.3,405.7l-2.5,1.1c-7.4-11.2-11.3-24.3-11.3-37.8c0-4.5,0.4-9,1.3-13.3c0.8,0,2.4-0.1,4.4-0.5
	c0.5,3.5,2.3,14.7,7.7,25.1C193.7,384.2,192,393.1,195.3,405.7 M304.9,405.7l2.5,1.1c7.4-11.2,11.3-24.3,11.3-37.8
	c0-4.5-0.4-9-1.3-13.3c-0.8,0-2.4-0.1-4.4-0.5c-0.5,3.5-2.3,14.7-7.7,25.1C306.5,384.2,308.2,393.1,304.9,405.7"/>
<path class="st4" d="M218.3,423.2c1.7,5.2,2.9,7.5,3.4,8.3c-11.2-5.1-20.7-13-27.8-23.1l2.4-0.5
	C202.1,415.7,214.4,421.5,218.3,423.2 M281.9,423.2c-1.7,5.2-2.9,7.5-3.4,8.3c11.2-5.1,20.7-13,27.8-23.1l-2.4-0.5
	C298.1,415.7,285.8,421.5,281.9,423.2"/>
<path class="st5" d="M278.4,421.9c-1-1-2.5-2.5-4.1-4.2c-3.4-3.6-5.9-6.9-7.5-9.3c-16.6,4-30.2,0.9-33.5-0.1
	c-3.2,5-9.7,11.8-12.3,14.3c0.2,1.6,0.9,6.1,2.2,9.4c0.1,0.1,0.1,0.3,0.2,0.4c8.4,3.5,17.4,5.3,26.6,5.3c9.1,0,17.9-1.7,26.2-5.2
	c1.6-3.5,2.4-8.9,2.5-10.2C278.7,422.2,278.6,422.1,278.4,421.9"/>
<path class="st6" d="M194.9,380.3c-5.4-10.4-7.2-21.6-7.7-25.1c-2,0.4-3.6,0.5-4.4,0.5c-0.9,4.4-1.3,8.9-1.3,13.3
	c0,13.5,3.9,26.6,11.3,37.8l2.5-1.1C192,393.1,193.7,384.2,194.9,380.3"/>
<path d="M196.3,408l-2.4,0.5c7.1,10.1,16.6,18,27.8,23.1c-0.5-0.8-1.7-3.2-3.4-8.3C214.4,421.5,202.1,415.7,196.3,408"/>
<path class="st0" d="M214.2,170.1h5.6V181c0,1,0,2.5-1.2,3.6c-1.2,1.2-2.9,1.3-4.5,1.3H211v-3.7h1.3c1.2,0,1.9-0.1,2-1.6
	L214.2,170.1L214.2,170.1z"/>
<path class="st0" d="M237.8,170.5c3.6,1.5,4.9,4.8,4.9,7.5c0,1.5-0.4,3-1.1,4.3c-0.5,0.8-1.1,1.5-1.9,2.1c-2.1,1.7-4.7,2.1-7.6,2.1
	c-5.5,0-7.8-1.9-8.9-3.5c-1.1-1.4-1.5-3-1.5-4.8c0-1.8,0.4-3.5,1.5-4.9c2.2-3.1,6-3.6,8.8-3.7C233.9,169.5,236,169.7,237.8,170.5
	 M227.5,178c0,2.4,1.3,5,4.7,5c0.8,0,1.6-0.1,2.3-0.4c1.7-0.9,2.3-2.9,2.3-4.5c0-1.7-0.8-4.9-4.6-4.9
	C228.7,173,227.5,175.8,227.5,178"/>
<path class="st0" d="M249.9,174.2c0,0.2,0.1,0.4,0.2,0.6c0.4,0.5,2,0.9,2.8,1c1.1,0.2,2.2,0.4,3.2,0.7c0.7,0.1,1.4,0.3,2,0.6
	c2.1,0.8,2.8,2.3,2.8,3.8c0,1.1-0.4,2-0.8,2.7c-1.3,2-4,2.9-8.2,2.9c-1.6,0-4.7-0.1-6.6-1.8c-1.4-1.2-1.6-2.7-1.7-3.4l5.6-0.2
	c0.2,1,1.3,1.8,3.5,1.8c0.6,0,1.4-0.1,2-0.4c0.4-0.2,0.8-0.7,0.8-1.2c0-0.7-0.6-1.1-1.1-1.2c-0.7-0.2-4.2-0.8-5-1
	c-0.6-0.1-1.2-0.3-1.8-0.5c-0.6-0.2-3.1-1.1-3.1-4c0-1.2,0.5-2.3,1.3-3.1c1.8-1.8,4.9-2,6.7-2c1.9,0,3.8,0.3,4.8,0.6
	c3,0.9,3.3,3.1,3.5,4l-5.5,0.3c-0.1-0.5-0.4-1.5-2.8-1.5C251.7,172.9,249.9,173,249.9,174.2"/>
<polygon class="st0" points="279.3,170.1 279.3,173.7 268.3,173.7 268.3,176.3 278.4,176.3 278.4,179.8 268.3,179.8 268.3,182.3 
	279.5,182.3 279.5,185.9 262.6,185.9 262.6,170.1 "/>
<path class="st0" d="M151.9,174.2c0,0.2,0.1,0.4,0.2,0.6c0.4,0.5,2,0.9,2.8,1c1.1,0.2,2.2,0.4,3.2,0.7c0.7,0.1,1.4,0.3,2,0.6
	c2.1,0.8,2.8,2.3,2.8,3.8c0,1.1-0.4,2-0.8,2.7c-1.3,2-4,2.9-8.2,2.9c-1.6,0-4.7-0.1-6.6-1.8c-1.4-1.2-1.6-2.7-1.6-3.4l5.6-0.2
	c0.2,1,1.3,1.8,3.5,1.8c0.6,0,1.4-0.1,2-0.4c0.4-0.2,0.8-0.7,0.8-1.2c0-0.7-0.6-1.1-1-1.2c-0.7-0.2-4.2-0.8-5-1
	c-0.6-0.1-1.2-0.3-1.8-0.5c-0.6-0.2-3.1-1.1-3.1-4c0-1.2,0.5-2.3,1.3-3.1c1.8-1.8,4.9-2,6.7-2c1.9,0,3.8,0.3,4.8,0.6
	c2.9,0.9,3.3,3.1,3.5,4l-5.5,0.3c-0.1-0.5-0.4-1.5-2.8-1.5C153.6,172.9,151.9,173,151.9,174.2"/>
<polygon class="st0" points="195.4,170.1 195.6,178.8 187.9,170.1 183.2,170.1 183.2,183.2 184.4,185.9 188.8,185.9 188.7,177.2 
	196.3,185.9 201,185.9 201,170.1 "/>
<polygon class="st0" points="176,170.1 169.5,170.1 162.7,185.9 168.9,185.9 172.8,174.5 174.6,179.9 172.4,179.9 171.2,183.3 
	175.8,183.3 176.7,185.9 182.8,185.9 "/>
<rect x="63.7" y="175.6" class="st0" width="70.9" height="4.8"/>
<path class="st0" d="M273.3,92.9h17V158H277l-3.7-11.4V92.9z M329.4,92.9h-19.9l-19,31.3L311,158h19.9l-20.5-33.8L329.4,92.9z"/>
<polygon class="st0" points="254.7,158 251.9,149.7 232.9,149.7 237.4,136.1 247.5,136.1 240,113 225.2,158 208,158 229.4,92.9 
	250.6,92.9 272.1,158 "/>
<path class="st0" d="M180.4,145.1c-3.5,0-6.6-1.1-8.5-3.2c-3.2-3.1-3.2-7.1-3.2-10V92.9h-17.3v36.9l0,0.3c0.2,7.3,0.4,14.9,7,21.3
	c5.9,5.7,12.6,8.2,21.8,8.2c10.4,0,16.1-3.3,21.3-8.2c8-7.6,8-18.1,8-26.3V92.9h-17.2V132c0,2.9,0,6.9-3.3,10.1
	C187.8,143.2,185,145.1,180.4,145.1"/>
<path class="st0" d="M136.7,144.1c3.3-4.2,5.5-8.6,7-13.2c1.5-4.7,2.1-9.2,2.1-13.6c0-5.8-1-11.2-3.2-16.4
	c-2.2-5.1-5.1-9.6-8.9-13.4c-3.8-3.8-8.3-6.8-13.4-9.1c-5.1-2.2-10.6-3.4-16.5-3.4c-5.9,0-11.3,1.1-16.5,3.3
	c-5.1,2.2-9.6,5.2-13.4,9.1c-3.8,3.8-6.7,8.3-8.9,13.5c-2.2,5.1-3.2,10.6-3.2,16.4c0,5.9,1,11.3,3.2,16.4c2.2,5.1,5.1,9.5,8.9,13.3
	c3.9,3.8,8.3,6.8,13.4,9c5.1,2.2,10.6,3.3,16.5,3.3c3.2,0,6.3-0.3,9.4-1c3.1-0.7,6.2-1.8,9.4-3.3l0.1-0.1l0.1,0.2l1.8,2.8h20.7
	l-8.6-13.6L136.7,144.1z M79.1,117.3c0-13.8,11-25,24.8-25c5.2,0,9.9,1.6,13.9,4.3c0.1,0.1,0.3,0.2,0.4,0.3c0.2,0.1,0.4,0.2,0.5,0.4
	c6,4.6,9.9,11.8,9.9,20c0,4.3-1.1,8.4-3,11.9h-19.3l6.9,10.8l0.2,0.3l-0.2,0.1c-0.2,0.1-0.5,0.2-0.7,0.3c-0.1,0-0.2,0.1-0.2,0.1
	c-0.2,0.1-0.5,0.2-0.8,0.3c-0.1,0-0.3,0.1-0.4,0.1c-0.2,0.1-0.4,0.1-0.6,0.2c-0.2,0.1-0.4,0.1-0.5,0.1c-0.2,0.1-0.4,0.1-0.6,0.1
	c-0.2,0-0.4,0.1-0.6,0.1c-0.2,0-0.5,0.1-0.7,0.1c-0.2,0-0.3,0.1-0.5,0.1c-0.3,0-0.6,0.1-0.9,0.1c-0.1,0-0.2,0-0.3,0
	c-0.8,0.1-1.7,0.1-2.5,0.1c-0.4,0-0.9,0-1.3,0C89.4,141.5,79.1,130.6,79.1,117.3"/>
<path class="st0" d="M411.9,116.8c-5.3-1-8.7-2.1-8.7-5.6c0-3,2.7-4.8,7.4-4.8c1.6,0,7.1,0.2,11.4,2.5c2.4,1.3,3.5,2.8,4.4,4
	l11.1-10.1c-2-2.3-4.2-4.6-8.3-6.8c-5-2.7-11.2-4.1-17.9-4.1c-12.1,0-21,4.7-24.4,13c-1.1,2.5-1.6,5.4-1.6,8.1
	c0,12.5,9.1,16.6,16,18.5c0.8,0.2,2.8,0.6,5,1.1c4.1,0.9,9.3,1.9,10.7,2.5c3.2,1.1,3.7,3.3,3.7,4.6c0,5-7.3,5.4-9.6,5.4
	c-2.9,0-6.1-0.5-8.6-1.5c-2.8-1-4.5-2.2-5.8-3.4c-0.8-0.8-1.5-1.6-2.1-2.5c-0.1-0.1-0.2-0.3-0.4-0.6c-0.2-0.4-0.5-0.7-0.5-0.7
	l-12.1,8h-29.9V131h23.2v-13.6h-23.2v-10.9h27.9V92.9h-44.8V158h47.5v-9.7c2.8,3.3,7.1,7.3,14.4,9.5c4.1,1.3,8.6,1.9,13.8,1.9
	c10.1,0,17.7-2.8,22.6-8.2c2.4-2.6,5.2-7.2,5.2-14.2C438.1,121.7,424.8,119.2,411.9,116.8"/>
<rect x="364.2" y="175.6" class="st7" width="72.1" height="4.8"/>
<path class="st7" d="M290.1,172.5c2.6-0.3,3.9-1.2,5-2h3.9v15.2h-5.3v-9.9h-3.7V172.5z"/>
<path class="st7" d="M309.4,180.5c-3.7,0-6.8-1.5-6.8-4.9c0-1.5,0.7-3.4,3.1-4.4c2.1-0.9,5.2-1,5.8-1c5.3,0,8.7,2.2,8.7,7.5
	c0,1.7-0.3,4.7-2.9,6.6c-2,1.5-4.4,1.7-6.6,1.7c-1.2,0-2.8-0.1-4.4-0.6c-2.4-0.8-3.2-2.1-3.6-3.6l5.9-0.1c0.4,0.4,0.8,1,2.3,1
	c0.9,0,1.9-0.2,2.6-0.8c1.2-1,1.3-2.5,1.3-3.1C313.9,179.4,312.7,180.5,309.4,180.5 M308,175.3c0,1.8,2.5,1.9,3.1,1.9
	c2.2,0,3.4-0.6,3.4-1.8c0-1.5-1.3-2-3.5-1.9C309.8,173.5,308,173.7,308,175.3"/>
<path class="st7" d="M346,170.8h6.1v8.8h2.6v3.6h-2.7v2.7h-5v-2.7h-9.9v-3.3L346,170.8z M347,174.8l-4.8,4.8h4.8V174.8z"/>
<path class="st7" d="M338.6,173.7c-9.6,6.4-9.3,12.2-9.3,12.2h-6c0,0,0.4-7.9,10.1-12.2h-11.5v-3.6h16.7L338.6,173.7L338.6,173.7z"
	/>
<line class="st8" x1="177.4" y1="369.1" x2="322.9" y2="369.1"/>
</svg>
