<?xml version="1.0" encoding="utf-8"?>
<!-- Generator: Adobe Illustrator 21.1.0, SVG Export Plug-In . SVG Version: 6.00 Build 0)  -->
<!DOCTYPE svg PUBLIC "-//W3C//DTD SVG 1.1//EN" "http://www.w3.org/Graphics/SVG/1.1/DTD/svg11.dtd">
<svg version="1.1" id="Layer_1" xmlns="http://www.w3.org/2000/svg" xmlns:xlink="http://www.w3.org/1999/xlink" x="0px" y="0px"
	 width="315.1px" height="291.7px" viewBox="0 0 315.1 291.7" style="enable-background:new 0 0 315.1 291.7;" xml:space="preserve"
	>
<style type="text/css">
	.st0{fill:#FFFFFF;}
	.st1{fill:#B0B7BB;}
	.st2{fill:#E31937;}
	.st3{fill:#455560;}
</style>
<g>
	<path class="st0" d="M156.2,291.3c-3.5-1-84.4-23.9-93.2-77.4c-20.1,2.9-33.9,5.4-34,5.5l-5.9,1.1v-14.9L0,189.3l23-24.6v-11.5
		l4-0.8c0,0,3.7-0.8,10.1-2l-3.7-13.6l4.6-1.5c0.4-0.1,8.7-2.8,24.3-5.8V59.7l4.1-0.7c0.7-0.1,15.6-2.8,37.9-5l-3.9-12.4l18.1-13.1
		l4.7-14.6l-0.2-0.7h0.5l0.2-0.5l0.7,0.5h15.3L157.6,0l18.1,13.2H191l0.7-0.5l0.2,0.5h0.5l-0.2,0.7l4.7,14.6L215,41.5L211.1,54
		c22.2,2.2,37.2,4.9,37.9,5l4.1,0.7v69.9c15.7,3,24,5.7,24.3,5.8l4.6,1.5l-3.8,13.6c6.3,1.2,10,2,10,2l4,0.8v11.5l23,24.4l-23,16.3
		v14.9l-5.9-1.1c-0.1,0-14-2.6-34-5.5c-8.9,53.5-89.8,76.4-93.3,77.4l-1.3,0.4L156.2,291.3z M142.9,256c6.3,2.8,11.5,4.8,14.6,5.9
		c2.9-1,8.2-3,14.7-5.9l-5.3-4.4v-66.8c-3-0.1-6.2-0.1-9.4-0.1c-3.1,0-6.2,0-9.3,0.1v66.9L142.9,256z M118.8,243
		c3.1,2.1,6.5,4.2,10.2,6.2l0.8-0.7c-3.8-1.8-7.4-3.7-11-5.8V243z M186.1,249c3.7-2.1,7.1-4.2,10.2-6.2v0c-3.5,2-7.1,3.9-10.9,5.7
		L186.1,249z M91.2,192.8c1.2,7,7.6,14.6,13.5,20.1v-25.6c-4.6,0.4-9.1,0.9-13.5,1.5V192.8z M210.6,212.9c5.8-5.5,12.3-13.1,13.4-20
		v-4.1c-4.4-0.6-8.9-1.1-13.4-1.5V212.9z M37.5,203.3c2-0.3,4.5-0.7,7.4-1.2l-7.4-2.9V203.3z M270.1,202c3,0.5,5.5,0.9,7.6,1.2V199
		L270.1,202z M281.6,195.4l11.7-8.3l-15.6-16.6v-5.4l-2.9-0.6L281.6,195.4z M33.5,195.3l7-30.7c-1.1,0.2-2.1,0.4-3,0.6v5.4
		l-15.6,16.5L33.5,195.3z M157.6,170.3c52.9,0,90.5,7.1,106.2,10.8l-4-18l4.5-16.3c-13-3.2-51.7-11.3-106.6-11.3
		c-54.9,0-93.6,8.1-106.5,11.3l4.5,16.3l-4,18C67.1,177.4,104.6,170.3,157.6,170.3z M100.5,123.9c1.4-0.1,2.7-0.3,4.1-0.4v-1.6
		c-0.9,0.1-1.8,0.2-2.8,0.3L100.5,123.9z M210.6,123.5c1.4,0.1,2.7,0.3,4,0.4l-1.3-1.7c-0.9-0.1-1.8-0.2-2.7-0.3L210.6,123.5z
		 M148.4,121.2c0.6,0,1.2,0,1.9,0c2.4,0,4.9-0.1,7.4-0.1c3.2,0,6.3,0,9.4,0v-16.2l5.2,0.2c20.7,0.7,38.1,2.3,49,3.6l2.2,0.3l0.5,0.7
		V97.3c-16.8-2-40.7-4.2-66.3-4.2c-28.3,0-53.6,2.6-66.4,4.2v12.4l0.5-0.7l2.2-0.3c15.1-1.9,32.6-3.2,49.3-3.6l5.1-0.1V121.2z
		 M157.6,75.6l15.2-11l1.7,0.1c6.1,0.2,12.1,0.5,17.7,0.9l5.8-18.3l-13.5-9.7L184,36l-18.7,13.5l7.1-22h-1.5l-13.5-9.8L144,27.5
		h-1.4l7.3,22.1L131.1,36l-0.4,1.4l-13.5,9.8l5.7,18.3c5.7-0.4,11.7-0.7,17.8-0.9l1.7-0.1L157.6,75.6z"/>
	<path class="st0" d="M287.2,166.8v-9.4c0,0-5.7-1.2-15.3-3l4-14.2c0,0-9.6-3.1-27.8-6.4V63.9c0,0-17.9-3.2-43.6-5.5l4.7-14.9
		l-16.6-11.9l-3.5-10.8l-5.8,4.2l2.2-6.8h-11.4l-16.5-12l-16.5,12h-11.4l2.2,6.8l-5.8-4.2l-3.5,10.8l-16.5,11.9l4.7,14.9
		c-25.7,2.3-43.6,5.5-43.6,5.5v69.7C49,136.9,39.4,140,39.4,140l3.9,14.2c-9.6,1.8-15.3,3-15.3,3v9.4L7.6,188.5L28.1,203v11.5
		c0,0,16.1-3,39.3-6.2c3.9,54.4,90.2,78.2,90.2,78.2s86.3-23.8,90.3-78.2c23.1,3.2,39.3,6.2,39.3,6.2V203l20.4-14.5 M109.7,128.1
		c-7.4,0.6-14.1,1.4-20.3,2.1l9.9-12.8c3.5-0.3,6.9-0.7,10.4-1L109.7,128.1L109.7,128.1z M94.6,113.7l-8.3,11.8V92.9
		c15.6-2.1,42.3-4.8,71.4-4.8s55.8,2.8,71.3,4.8v32.6l-8.3-11.8c-12.7-1.5-29.8-3-48.6-3.6v16.1c-4.7-0.1-9.5-0.1-14.4-0.1
		s-9.7,0.1-14.3,0.1v-16.1C124.4,110.6,107.3,112.1,94.6,113.7z M205.6,116.4c3.4,0.3,6.8,0.7,10.4,1l9.9,12.8
		c-6.2-0.8-13-1.5-20.2-2.1L205.6,116.4L205.6,116.4z M163.6,83.1L176,74c37.7,1.4,67.6,6.4,67.6,6.4v52.4c-2.9-0.5-6.1-1-9.4-1.5
		V88.5C221.4,86.8,194.1,83.5,163.6,83.1z M71.6,67.6c0,0,18.7-3.1,45.1-5.1l-5.4-17.2l15.1-10.9l2-6.5l11.9,8.6l-4.6-14h6.7
		l15.1-11l15.1,11h6.7l-4.5,14l11.9-8.6l2.1,6.5l15.1,10.9l-5.4,17.2c26.5,2,45.1,5.1,45.1,5.1v8.6c0,0-30.7-5.2-69.2-6.5
		l-16.8,12.1l-16.7-12.2c-38.6,1.4-69.3,6.6-69.3,6.6V67.6z M71.6,80.5c0,0,29.9-5,67.7-6.4l12.4,9.1c-30.5,0.3-57.8,3.7-70.7,5.4
		v42.8c-3.3,0.5-6.5,1-9.4,1.5C71.6,132.9,71.6,80.5,71.6,80.5z M157.6,130.5c69.5,0,112.8,12.7,112.8,12.7l-5.5,20l5.5,24.7
		c0,0-43.3-12.6-112.8-12.6S44.9,187.9,44.9,187.9l5.5-24.7l-5.5-20C44.9,143.2,88.1,130.5,157.6,130.5z M248,187.5
		c9.4,1.8,16.5,3.5,21.2,4.7l-21.2,8.5L248,187.5L248,187.5z M185.3,202h11.9v3h-11.9c-2.9,0-5.1-1.8-5.1-4.1v-4.7
		c0-2.2,2.2-4.1,5.1-4.1h11.9v3.8l-1.3-0.8h-10.6c-0.8,0-1.5,0.6-1.5,1.1v4.7C183.9,201.5,184.5,202,185.3,202z M201.4,233.8v11.7
		c-5.1,3.5-10.5,6.7-15.8,9.6l-9.5-7.9C186.3,243,194.6,238.4,201.4,233.8z M181.5,257.2c-10,5-19.1,8.4-23.9,10
		c-4.7-1.6-13.8-5-23.9-10l9.6-7.9v-69.4c4.6-0.1,9.4-0.2,14.3-0.2c4.9,0,9.7,0.1,14.4,0.2v69.4L181.5,257.2z M86.2,193.2v-8.8
		c7.1-1,15-1.9,23.5-2.6v41.7C109.7,223.5,88.4,208.5,86.2,193.2z M109.7,231v11.6c-12.2-9.4-22.1-21.2-23.3-35.2
		C89.8,212.8,96.8,221.7,109.7,231z M132.3,197.1v3h-9.8v3.9l1.1,1h-6l1.3-1v-10.8l-1.3-1.1h17.7v3.8l-1.3-0.8h-11.5v2H132.3
		L132.3,197.1z M113.8,233.8c6.8,4.5,15.2,9.2,25.3,13.4l-9.5,8c-5.3-2.8-10.7-6-15.8-9.6V233.8L113.8,233.8z M205.6,231
		c12.9-9.3,19.8-18.2,23.3-23.6c-1.2,14-11.1,25.8-23.3,35.2V231z M205.6,223.5v-41.7c8.5,0.7,16.3,1.6,23.4,2.6v8.8
		C226.9,208.5,205.6,223.5,205.6,223.5z M67.2,200.7l-21.3-8.5c4.8-1.2,12-2.9,21.3-4.7V200.7z M32.5,209.2v-8.5l-18.2-12.8
		l18.2-19.3v-7.5c0,0,4.5-0.9,12.1-2.4l1.3,4.7l-7,30.9l25.2,10C45.2,206.9,32.5,209.2,32.5,209.2z M243.6,204.5
		c0,52.7-86,77.4-86,77.4s-86-24.7-86-77.4v-17.7c2.9-0.5,6-1,9.4-1.6v19.3c0,40.5,63.1,63.2,76.6,67.6
		c13.6-4.4,76.6-27.1,76.6-67.6v-19.3c3.3,0.6,6.4,1.1,9.4,1.6V204.5z M282.8,200.7v8.5c0,0-12.7-2.3-31.6-5l25.1-10l-6.8-30.9
		l1.3-4.7c7.5,1.5,12,2.4,12,2.4v7.5l18.2,19.3L282.8,200.7z"/>
	<polyline class="st0" points="131.9,40.9 121.3,48.6 125.6,61.8 138.3,61.1 142.4,48.6 	"/>
	<polyline class="st0" points="164.1,42.2 168.1,29.8 157.6,22.2 147,29.8 151.1,42.2 	"/>
	<polyline class="st0" points="189.6,61.8 193.9,48.6 183.3,40.9 172.9,48.6 176.9,61.1 	"/>
	<polyline class="st0" points="168.1,63.8 164.1,51.4 151.1,51.4 147,63.8 157.6,71.4 	"/>
	<path class="st0" d="M150,163.1h12.5c3.1,0,5.7-2.5,5.7-5.6v-11.4c0-3.1-2.6-5.6-5.7-5.6H150c-3.1,0-5.7,2.5-5.7,5.6v11.4
		C144.3,160.5,146.9,163.1,150,163.1 M149,146c0-0.6,0.6-1.1,1.1-1.1h12.2c0.6,0,1.2,0.5,1.2,1.1v11.5c0,0.6-0.5,1.1-1.2,1.1h-12.2
		c-0.6,0-1.1-0.5-1.1-1.1V146z"/>
	<path class="st0" d="M237.1,168.9l12.5,2.1c3.1,0.5,5.6-1.5,5.6-4.7v-11.2c0-3.2-2.5-6.1-5.6-6.6l-12.5-2.1
		c-3.1-0.6-5.7,1.5-5.7,4.6v11.3C231.3,165.4,234,168.4,237.1,168.9 M236,151.8c0-0.7,0.6-1.1,1.1-1.1l12.2,2.1
		c0.7,0.1,1.2,0.7,1.2,1.4v11.3c0,0.7-0.5,1.1-1.2,1l-12.2-2.1c-0.6-0.1-1.1-0.8-1.1-1.4V151.8z"/>
	<path class="st0" d="M90.7,167.1l12.5-1.3c3.1-0.4,5.7-3.2,5.7-6.4v-11.2c0-3.1-2.5-5.4-5.7-4.9l-12.5,1.3
		c-3.1,0.4-5.6,3.2-5.6,6.3v11.3C85.1,165.3,87.6,167.6,90.7,167.1 M89.8,150.3c0-0.7,0.4-1.2,1.1-1.3l12.1-1.3
		c0.7-0.1,1.2,0.3,1.2,1v11.4c0,0.6-0.5,1.2-1.2,1.3l-12.1,1.3c-0.6,0.1-1.1-0.3-1.1-1V150.3z"/>
	<polyline class="st0" points="66.9,152.9 66.9,169 65.1,171.2 73.4,169.7 71.6,168.1 71.6,152 79.3,150.6 81.2,152.2 81.2,145.9 
		57.3,150.1 57.3,156.4 59.2,154.2 	"/>
	<polyline class="st0" points="213.2,147.8 213.2,164 211.3,165.7 219.7,166.6 217.9,164.5 217.9,148.4 225.6,149.1 227.4,151.2 
		227.4,144.9 203.6,142.4 203.6,148.7 205.5,147 	"/>
	<polyline class="st0" points="172.2,163.3 180.5,163.5 178.6,161.5 178.6,147.1 191.7,164.1 199.7,164.6 197.8,162.7 197.8,143.8 
		199.7,142 191.3,141.5 193.1,143.4 193.1,158 180,140.9 172.2,140.7 174,142.6 174,161.5 	"/>
	<path class="st0" d="M112.9,164.9l8.3-0.6l-1.8-1.7v-5l13.3-0.7c0.6,0,1.2,0.5,1.2,1.1v3.9l-1.9,2l8.4-0.4l-1.9-1.8v-3.6
		c0-1.8-1.1-3.2-2.7-3.7c1.5-0.8,2.7-2.4,2.7-4.1v-3.7c0-3.2-2.5-5.5-5.7-5.3l-20,1.2l1.8,1.7v18.9 M119.4,146.2l13.3-0.7
		c0.6-0.1,1.2,0.5,1.2,1.1v4.6c0,0.7-0.6,1.2-1.2,1.3l-13.3,0.8V146.2z"/>
	<path class="st1" d="M109.7,116.4c-3.5,0.3-6.9,0.7-10.4,1l-9.9,12.8c6.2-0.8,12.9-1.5,20.3-2.1"/>
	<path class="st1" d="M86.2,193.2c2.1,15.2,23.5,30.3,23.5,30.3v-41.7c-8.5,0.7-16.4,1.6-23.5,2.6"/>
	<path class="st1" d="M113.8,245.6c5.1,3.5,10.5,6.7,15.8,9.6l9.5-7.9c-10.1-4.2-18.4-8.9-25.3-13.4"/>
	<path class="st1" d="M215.9,117.4c-3.5-0.3-7-0.7-10.4-1v11.7c7.2,0.6,14.1,1.4,20.2,2.1"/>
	<path class="st1" d="M205.6,223.5c0,0,21.3-15,23.4-30.3v-8.8c-7.1-1-14.9-1.9-23.4-2.6"/>
	<path class="st1" d="M185.7,255.2c5.3-2.8,10.7-6,15.8-9.6v-11.7c-6.8,4.5-15.1,9.2-25.2,13.4"/>
	<path class="st1" d="M151.7,148.7c0-0.6,0.6-1.1,1.2-1.1h9v-1.3h-10.3c-0.7,0-1.2,0.6-1.2,1.2v9.7h1.2"/>
	<path class="st1" d="M169.7,146v11.4c0,3.9-3.3,7.1-7.2,7.1H150c-0.2,0-0.6-0.1-0.9-0.1c1,0.8,2.2,1.3,3.6,1.3h11
		c4,0,7.1-3.2,7.1-7.2v-9.9c0-1.3-0.4-2.6-1.3-3.6C169.6,145.5,169.7,145.8,169.7,146"/>
	<path class="st1" d="M238.8,154.9c0-0.6,0.5-1.1,1.1-0.9l9.2,1.5v-1.2l-10.3-1.8c-0.6-0.1-1.2,0.3-1.2,1v9.6l1.3,0.2"/>
	<path class="st1" d="M256.6,154.5c0,0.3,0.1,0.6,0.1,0.8v11.3c0,3.9-3.2,6.6-7.2,5.9l-12.5-2.2c-0.3,0-0.6-0.1-0.9-0.2
		c1,1,2.2,1.7,3.5,1.9l11,1.9c3.9,0.8,7.2-2,7.2-5.9v-9.8C257.9,156.9,257.4,155.6,256.6,154.5"/>
	<path class="st1" d="M91.3,151.6v9.6l1.2-0.2v-8.4c0-0.6,0.6-1.2,1.2-1.3l9.1-1v-1.2l-10.4,1.1C91.8,150.4,91.3,151,91.3,151.6"/>
	<path class="st1" d="M110.4,148v11.2c0,3.9-3.2,7.5-7.1,7.9l-12.5,1.3c-0.3,0.1-0.5,0.1-0.8,0.1c1,0.7,2.2,1,3.5,0.9l11-1.3
		c4-0.4,7.2-3.9,7.2-7.9v-9.8c0-1.3-0.4-2.5-1.2-3.5C110.4,147.4,110.4,147.7,110.4,148"/>
	<polyline class="st1" points="60,158.6 61.9,156.4 65.4,155.8 65.4,154.6 60,155.6 	"/>
	<polyline class="st1" points="73.1,153.3 73.1,167.2 74.3,168.3 74.3,154.2 79.8,153.3 78.6,152.2 	"/>
	<polyline class="st1" points="82.6,153.4 83.8,154.4 83.8,148.1 82.6,148.4 	"/>
	<polyline class="st1" points="69,171.9 67.7,173.4 76.1,171.9 74.9,170.9 	"/>
	<polyline class="st1" points="208.2,150 211.7,150.4 211.7,149.1 206.4,148.5 206.4,151.7 	"/>
	<polyline class="st1" points="225,150.6 219.3,150 219.3,164.1 220.6,165.4 220.6,151.3 226.2,151.9 	"/>
	<polyline class="st1" points="228.9,152.9 230.1,154.2 230.1,147.9 228.9,147.8 	"/>
	<polyline class="st1" points="214,168.7 222.4,169.6 221.2,168.3 215.3,167.6 	"/>
	<polyline class="st1" points="193.5,165.7 194.5,167 202.4,167.5 201.1,166.2 	"/>
	<polyline class="st1" points="199.2,162.2 200.5,163.4 200.5,146.7 202.4,144.9 199.2,144.8 	"/>
	<polyline class="st1" points="182,165.1 176,164.9 174.8,166.1 183.2,166.4 	"/>
	<polyline class="st1" points="181.3,153.1 180.1,151.4 180.1,161 181.3,162.3 	"/>
	<path class="st1" d="M141.2,162v-1.5c0-1.2-0.5-2.2-1.3-2.9v0.2v3"/>
	<polyline class="st1" points="122.1,160.1 132.4,159.5 132.4,158.3 120.9,159 120.9,161.8 122.1,163 	"/>
	<polyline class="st1" points="122.7,165.7 116.8,166.1 115.6,167.4 124,166.8 	"/>
	<path class="st1" d="M138.4,154c0.2,0.2,0.4,0.5,0.6,0.7c1.3-0.8,2.2-2.2,2.2-3.8v-2c0-1.4-0.5-2.6-1.3-3.5c0,0.3,0,0.5,0,0.8v3.8
		C140,151.5,139.4,152.9,138.4,154"/>
	<polyline class="st1" points="122.1,148.8 132.4,148.2 132.4,147 120.9,147.7 120.9,151.6 122.1,151.5 	"/>
	<polyline class="st1" points="135.9,164.9 134.7,166.2 143.1,165.9 141.9,164.7 	"/>
	<path class="st2" d="M282.8,168.5V161c0,0-4.5-0.9-12-2.4l-1.3,4.7l6.8,30.9l-25.1,10c18.9,2.7,31.6,5,31.6,5v-8.5l18.2-12.9"/>
	<path class="st2" d="M45.8,163.3l-1.3-4.7c-7.6,1.5-12.1,2.4-12.1,2.4v7.5l-18.1,19.4l18.2,12.9v8.5c0,0,12.7-2.3,31.6-5l-25.2-10"
		/>
	<path class="st2" d="M81,88.5c12.9-1.8,40.1-5.1,70.7-5.4L139.3,74c-37.7,1.4-67.7,6.5-67.7,6.5v52.4c2.9-0.5,6-1,9.4-1.5"/>
	<path class="st2" d="M243.6,132.9V80.5c0,0-29.9-5-67.6-6.4l-12.4,9c30.5,0.3,57.8,3.7,70.7,5.4v42.8
		C237.5,131.9,240.7,132.4,243.6,132.9"/>
	<path class="st2" d="M234.2,204.5c0,40.5-63,63.2-76.6,67.6C144.1,267.7,81,245,81,204.5v-19.3c-3.3,0.6-6.5,1.1-9.4,1.6v17.7
		c0,52.7,85.9,77.4,85.9,77.4s86-24.6,86-77.4v-17.7c-3-0.5-6.1-1-9.4-1.6"/>
	<path class="st2" d="M157.6,81.8l16.8-12.2c38.5,1.4,69.2,6.6,69.2,6.6v-8.6c0,0-18.6-3.1-45.1-5.1l5.4-17.2l-15.1-10.9l-2.1-6.5
		l-11.9,8.6l4.5-14h-6.7l-15-10.8l-15.1,11h-6.7l4.6,14l-11.9-8.6l-2,6.5l-15.1,10.9l5.4,17.2c-26.4,2-45.1,5.1-45.1,5.1v8.4
		c0,0,30.7-5.2,69.3-6.5 M183.3,40.9l10.6,7.7l-4.3,13.2l-12.7-0.7l-4-12.5L183.3,40.9z M157.6,22.2l10.6,7.7l-4,12.4h-13.1l-4-12.4
		L157.6,22.2z M151.1,51.4h13.1l4,12.4l-10.6,7.6l-10.5-7.6L151.1,51.4z M125.6,61.8l-4.3-13.2l10.5-7.7l10.5,7.7l-4.1,12.5
		L125.6,61.8z"/>
	<path class="st2" d="M237.2,164.5l12.2,2.1c0.7,0.1,1.2-0.3,1.2-1v-11.4c0-0.7-0.5-1.3-1.2-1.4l-12.2-2.1c-0.6-0.1-1.1,0.3-1.1,1.1
		v11.3C236,163.8,236.6,164.4,237.2,164.5 M237.5,153.5c0-0.7,0.6-1.1,1.2-1l10.3,1.8v1.2l-9.2-1.5c-0.6-0.2-1.1,0.3-1.1,0.9v8.4
		l-1.3-0.2v-9.6H237.5z"/>
	<path class="st2" d="M44.9,187.9c0,0,43.2-12.6,112.7-12.6s112.8,12.6,112.8,12.6l-5.5-24.7l5.5-20c0,0-43.3-12.7-112.8-12.7
		S44.9,143.2,44.9,143.2l5.5,20 M60,158.6v-3.1l5.4-0.9v1.1l-3.5,0.6L60,158.6z M67.7,173.4l1.2-1.5l6-1l1.2,1L67.7,173.4z
		 M74.3,154.2v14l-1.2-1v-14l5.6-1l1.2,1L74.3,154.2z M115.6,167.4l1.2-1.3l5.9-0.5l1.3,1.1L115.6,167.4z M122.1,163l-1.2-1.2V159
		l11.5-0.7v1.2l-10.3,0.6V163z M174.8,166.1l1.2-1.2l5.9,0.2l1.3,1.3L174.8,166.1z M181.3,162.3l-1.2-1.3v-9.6l1.2,1.6V162.3z
		 M194.5,167l-0.9-1.3l7.6,0.6l1.2,1.2L194.5,167z M206.4,151.7v-3.1l5.3,0.6v1.3l-3.5-0.4L206.4,151.7z M214,168.7l1.2-1.1l5.9,0.7
		l1.3,1.3L214,168.7z M220.6,151.3v14l-1.3-1.3v-14l5.7,0.5l1.2,1.4L220.6,151.3z M257.9,158.3v9.8c0,3.9-3.2,6.7-7.2,5.9l-11-1.9
		c-1.3-0.2-2.6-0.9-3.5-1.9c0.2,0.1,0.6,0.2,0.9,0.2l12.5,2.2c3.9,0.7,7.2-2,7.2-5.9v-11.3c0-0.2-0.1-0.6-0.1-0.8
		C257.4,155.6,257.9,156.9,257.9,158.3z M231.3,151c0-3.1,2.6-5.2,5.7-4.6l12.5,2.1c3.1,0.6,5.6,3.5,5.6,6.6v11.2
		c0,3.2-2.5,5.2-5.6,4.7l-12.5-2.1c-3.1-0.5-5.7-3.5-5.7-6.6V151z M228.9,147.8l1.2,0.1v6.3l-1.2-1.3V147.8z M203.6,142.4l23.8,2.5
		v6.2l-1.8-2.1l-7.7-0.8v16.2l1.8,2.1l-8.4-0.9l1.9-1.7v-16.2l-7.7-0.8l-1.8,1.7v-6.2H203.6z M200.5,146.7v16.7l-1.2-1.3v-17.4
		l3.1,0.1L200.5,146.7z M172.2,140.7l7.8,0.3l13.1,17.1v-14.6l-1.8-1.9l8.4,0.5l-1.9,1.8v18.8l1.9,2l-7.9-0.5l-13.2-17.1v14.5l1.9,2
		l-8.4-0.2l1.8-1.8v-18.9L172.2,140.7z M170.8,148.8v9.9c0,4-3.1,7.2-7.1,7.2h-11c-1.4,0-2.6-0.5-3.6-1.3c0.3,0,0.6,0.1,0.9,0.1
		h12.5c3.9,0,7.2-3.2,7.2-7.1v-11.4c0-0.3-0.1-0.5-0.1-0.8C170.4,146.2,170.8,147.4,170.8,148.8z M144.3,146c0-3.1,2.5-5.6,5.7-5.6
		h12.5c3.1,0,5.7,2.5,5.7,5.6v11.4c0,3.1-2.6,5.6-5.7,5.6H150c-3.1,0-5.7-2.5-5.7-5.6V146z M143.1,165.9l-8.4,0.4l1.2-1.3l6-0.2
		L143.1,165.9z M140,157.6c0.8,0.7,1.3,1.7,1.3,2.9v1.5l-1.3-1.1v-3C140,157.8,140,157.7,140,157.6z M141.2,149v2
		c0,1.6-0.9,3-2.2,3.8c-0.2-0.3-0.4-0.5-0.6-0.7c1-1.1,1.5-2.6,1.5-4v-3.8c0-0.3,0-0.5,0-0.8C140.8,146.4,141.2,147.6,141.2,149z
		 M112.9,142.3l20-1.2c3.1-0.2,5.7,2.2,5.7,5.3v3.7c0,1.8-1.1,3.4-2.7,4.1c1.5,0.5,2.7,1.9,2.7,3.7v3.6l1.9,1.8l-8.4,0.4l1.9-2v-3.9
		c0-0.6-0.6-1.1-1.2-1.1l-13.3,0.7v5l1.8,1.7l-8.3,0.6l1.8-1.9v-18.9L112.9,142.3z M111.6,150.5v9.8c0,4-3.2,7.5-7.2,7.9l-11,1.3
		c-1.3,0.1-2.6-0.2-3.5-0.9c0.3,0,0.5,0,0.8-0.1l12.5-1.3c3.9-0.5,7.1-4,7.1-7.9v-11.2c0-0.4,0-0.6,0-1
		C111.2,148,111.6,149.2,111.6,150.5z M85.1,150.9c0-3.1,2.5-5.9,5.6-6.3l12.5-1.3c3.1-0.4,5.7,1.8,5.7,4.9v11.3
		c0,3.2-2.5,6-5.7,6.4l-12.5,1.3c-3.1,0.4-5.6-1.8-5.6-5C85.1,162.1,85.1,150.9,85.1,150.9z M82.6,148.4l1.2-0.3v6.3l-1.2-0.9V148.4
		z M57.3,150.1l23.8-4.3v6.3l-1.9-1.6l-7.7,1.4V168l1.8,1.6l-8.4,1.5l1.8-2.1v-16.2l-7.7,1.4l-1.8,2.2L57.3,150.1L57.3,150.1z"/>
	<path class="st2" d="M133.9,151.1v-4.6c0-0.6-0.6-1.2-1.2-1.1l-13.3,0.7v6.9l13.3-0.8C133.3,152.3,133.9,151.8,133.9,151.1
		 M132.4,148.2l-10.3,0.6v2.7l-1.2,0.1v-3.9l11.5-0.7V148.2z"/>
	<path class="st2" d="M90.9,162.7l12.1-1.3c0.7-0.1,1.2-0.7,1.2-1.3v-11.4c0-0.7-0.5-1.1-1.2-1L90.9,149c-0.6,0.1-1.1,0.7-1.1,1.3
		v11.4C89.8,162.3,90.3,162.8,90.9,162.7 M91.3,151.6c0-0.6,0.6-1.2,1.2-1.3l10.4-1.1v1.2l-9.1,1c-0.7,0.1-1.2,0.7-1.2,1.3v8.4
		l-1.2,0.2L91.3,151.6L91.3,151.6z"/>
	<path class="st2" d="M150.2,158.6h12.2c0.6,0,1.2-0.5,1.2-1.1V146c0-0.6-0.5-1.1-1.2-1.1h-12.2c-0.6,0-1.1,0.5-1.1,1.1v11.5
		C149,158.1,149.6,158.6,150.2,158.6 M150.5,147.5c0-0.6,0.6-1.2,1.2-1.2H162v1.3h-9c-0.7,0-1.2,0.5-1.2,1.1v8.5h-1.2L150.5,147.5
		L150.5,147.5z"/>
	<polyline class="st2" points="134,195.1 135.3,195.9 135.3,192.1 117.6,192.1 118.9,193.2 118.9,203.9 117.6,205 123.6,205 
		122.5,203.9 122.5,200 132.3,200 132.3,197.1 122.5,197.1 122.5,195.1 	"/>
	<path class="st2" d="M185.3,195.1h10.6l1.3,0.8v-3.8h-11.9c-2.9,0-5.1,1.8-5.1,4.1v4.7c0,2.2,2.2,4.1,5.1,4.1h11.9v-3h-11.9
		c-0.8,0-1.5-0.5-1.5-1.1v-4.7C183.9,195.6,184.5,195.1,185.3,195.1"/>
	<path class="st3" d="M248,187.5v13.2l21.2-8.5C264.5,191,257.4,189.3,248,187.5"/>
	<path class="st3" d="M67.2,200.7v-13.2c-9.3,1.8-16.5,3.5-21.3,4.7"/>
	<path class="st3" d="M86.4,207.4c1.2,14,11.1,25.8,23.3,35.2V231C96.8,221.7,89.8,212.8,86.4,207.4"/>
	<path class="st3" d="M205.6,231v11.6c12.2-9.4,22-21.2,23.3-35.2C225.4,212.8,218.4,221.7,205.6,231"/>
	<path class="st3" d="M86.2,92.9v32.6l8.3-11.8c12.8-1.5,29.8-3,48.7-3.6v16.1c4.6-0.1,9.4-0.1,14.3-0.1c4.9,0,9.7,0.1,14.4,0.1
		v-16.1c18.9,0.5,36,2,48.6,3.6l8.3,11.8V92.9c-15.5-2.1-42.2-4.8-71.3-4.8C128.5,88,101.8,90.8,86.2,92.9"/>
	<path class="st3" d="M172,179.9c-4.7-0.1-9.5-0.2-14.4-0.2s-9.7,0.1-14.3,0.2v69.4l-9.6,7.9c10.1,5,19.2,8.4,23.9,10
		c4.9-1.6,13.9-5,23.9-10l-9.6-7.9"/>
</g>
</svg>
