<?xml version="1.0" encoding="utf-8"?>
<!-- Generator: Adobe Illustrator 21.1.0, SVG Export Plug-In . SVG Version: 6.00 Build 0)  -->
<!DOCTYPE svg PUBLIC "-//W3C//DTD SVG 1.1//EN" "http://www.w3.org/Graphics/SVG/1.1/DTD/svg11.dtd">
<svg version="1.1"
	 id="svg6395" inkscape:version="0.48.1 " sodipodi:docname="Vancouver Whitecaps Logo.svg" xmlns:cc="http://creativecommons.org/ns#" xmlns:dc="http://purl.org/dc/elements/1.1/" xmlns:inkscape="http://www.inkscape.org/namespaces/inkscape" xmlns:rdf="http://www.w3.org/1999/02/22-rdf-syntax-ns#" xmlns:sodipodi="http://sodipodi.sourceforge.net/DTD/sodipodi-0.dtd" xmlns:svg="http://www.w3.org/2000/svg"
	 xmlns="http://www.w3.org/2000/svg" xmlns:xlink="http://www.w3.org/1999/xlink" x="0px" y="0px" width="323.3px" height="429.5px"
	 viewBox="0 0 323.3 429.5" style="enable-background:new 0 0 323.3 429.5;" xml:space="preserve">
<style type="text/css">
	.st0{fill:#AEACAD;}
	.st1{fill:#00245E;}
	.st2{fill:#9DC2EA;}
	.st3{fill:#FFFFFF;}
</style>
<sodipodi:namedview  bordercolor="#666666" borderopacity="1" gridtolerance="10" guidetolerance="10" id="namedview38" inkscape:current-layer="g6470" inkscape:cx="180.70866" inkscape:cy="182.30475" inkscape:pageopacity="0" inkscape:pageshadow="2" inkscape:window-height="706" inkscape:window-maximized="1" inkscape:window-width="1366" inkscape:window-x="-8" inkscape:window-y="-8" inkscape:zoom="1.0718605" objecttolerance="10" pagecolor="#ffffff" showgrid="false">
	</sodipodi:namedview>
<g>
	<path class="st0" d="M149,408.8l-21.8-36.6l-4.2,7.1l-12.6,20.8l-12.6-20.7L4.3,222.9L0,215.5l4.4-7.5L99.1,49.4l12.6-20.8
		l12.6,20.7l3.9,6.5l20.9-35L161.6,0l12.6,20.7l20.9,35l3.7-6.3l12.6-20.8l12.6,20.7l95,158.6l4.3,7.4l-4.4,7.5l-93.4,156.3
		l-12.6,20.8l-12.6-20.7l-4.3-7.2l-21.8,36.6l-12.6,20.8L149,408.8z M161.6,381.7l34.5-57.5l16.8,28.1l81.8-136.8L211.5,76.4
		l-16.4,27.4l-33.5-56l-33.5,56l-16.3-27.4L28.6,215.5l81.8,136.8l16.8-28.1L161.6,381.7z"/>
	<path id="path4489" class="st0" d="M161.6,19.3l-4,6.6l-29.5,49.4l-12.4-20.8l-4-6.6l-4,6.6L13,213.1l-1.4,2.4l1.4,2.4l93.4,156.3
		l4,6.6l4-6.6l12.8-21.5l30.4,50.9l4,6.6l4-6.6l30.4-50.9l12.9,21.5l4,6.6l4-6.6l93.4-156.3l1.4-2.4l-1.4-2.4L215.4,54.6l-4-6.6
		l-4,6.6l-12.3,20.7l-29.5-49.4L161.6,19.3L161.6,19.3z M161.6,28.3l33.5,56l16.4-27.4l94.8,158.6l-93.4,156.3l-16.8-28.1
		l-34.5,57.5l-34.4-57.5l-16.8,28.1L17,215.5l94.8-158.6l16.3,27.4L161.6,28.3L161.6,28.3z"/>
	<path id="path4491" class="st1" d="M127.2,343.7l34.4,57.5l34.4-57.5l16.8,28.1l93.4-156.3L211.4,56.9l-16.3,27.4l-33.5-56
		l-33.5,56l-16.4-27.4L17,215.5l93.4,156.3L127.2,343.7L127.2,343.7z"/>
	<path id="path4493" class="st2" d="M223.8,242.4l-62.2,104l-62.2-104h-21l83.2,139.2l83.2-139.2L223.8,242.4L223.8,242.4z
		 M110.4,317l-44.6-74.6h-21l65.6,109.8l14.6-24.4l-10.5-17.6L110.4,317L110.4,317z M257.4,242.4L212.8,317l-4.1-6.9l-10.5,17.6
		l14.6,24.4l65.6-109.8L257.4,242.4L257.4,242.4z"/>
	<path id="path4495" class="st3" d="M211.4,76.6l-14.2,23.8l10.2,17.1l4-6.7l46.5,77.8h20.5L211.4,76.6L211.4,76.6z M44.8,188.6
		h20.5l46.5-77.8l4,6.7l10.2-17.1l-14.2-23.8L44.8,188.6L44.8,188.6z"/>
	<path id="path4497" class="st3" d="M113,163.4l48.6-81.2l48.6,81.3h20.4l-69-115.6l-69,115.5H113z"/>
	<path id="path4499" class="st3" d="M34.8,200.6h7.1l4.8,19.1h0.1l6.2-19.1h6.1l6.2,19.6h0.1l5-19.6H77l-8.7,29.7h-5.8l-6.6-20.6
		h-0.1l-6.5,20.6h-5.7L34.8,200.6L34.8,200.6z"/>
	<path id="path4501" class="st3" d="M80.2,200.6h6.6v11.1h12.7v-11.1h6.6v29.7h-6.6v-12.9H86.7v12.9h-6.6L80.2,200.6L80.2,200.6z"/>
	<path id="path4503" class="st3" d="M113.1,200.6h6.5v29.7h-6.5V200.6z"/>
	<path id="path4505" class="st3" d="M133.1,206.4h-8.5v-5.8h23.5v5.8h-8.5v23.9H133v-23.9H133.1z"/>
	<path id="path4507" class="st3" d="M153.2,200.6h20.2v6.1h-13.7v5.5h10.1v6h-10.1v6.1h14.4v6h-21L153.2,200.6L153.2,200.6z"/>
	<g id="g4511">
		<path id="path4513" class="st3" d="M198,208.3c-1.3-1.5-3.2-2.4-5.6-2.4c-5,0-8.6,4-8.6,9.6c0,5.5,3.7,9.6,8.4,9.6
			c2.6,0,4.8-1.2,6.1-3.2l5.5,4.1c-2.5,3.5-6.7,5.2-10.8,5.2c-9.3,0-16-6.1-16-15.6s6.8-15.6,16-15.6c3.3,0,7.5,1.1,10,4.4
			L198,208.3L198,208.3z"/>
		<path id="path4515" class="st3" d="M219.8,209.2l-3.6,9.2h7.3L219.8,209.2z M217.3,200.6h5.4l12.9,29.7h-7.4l-2.6-6.3H214
			l-2.4,6.3h-7.2L217.3,200.6z"/>
		<path id="path4517" class="st3" d="M245.1,213.2h4.4c2.3,0,4.6-0.8,4.6-3.6c0-3.1-3.1-3.5-5.6-3.5h-3.4V213.2L245.1,213.2z
			 M238.6,200.6h11c6.2,0,11.3,2,11.3,9s-4.7,9.1-11,9.1h-4.8v11.6h-6.5V200.6L238.6,200.6z"/>
		<path id="path4519" class="st3" d="M280.6,207.8c-1.1-1.3-3.2-2-4.8-2c-1.8,0-4.4,0.8-4.4,3.1c0,5.4,13.7,1.9,13.7,12.4
			c0,6.6-5.3,9.8-11.5,9.8c-3.8,0-7.2-1.1-10-3.7l4.7-5.1c1.3,1.8,3.5,2.8,5.7,2.8c2.1,0,4.5-1,4.5-3.1c0-5.5-14-2.5-14-12.4
			c0-6.3,5.5-9.7,11.3-9.7c3.4,0,6.6,0.9,9.1,3.1L280.6,207.8L280.6,207.8z"/>
		<path id="path4521" class="st3" d="M137.5,242.2h19.9v6.1H144v6h9.6v6H144v11.6h-6.6L137.5,242.2L137.5,242.2z"/>
		<path id="path4523" class="st3" d="M179.5,249.9c-1.3-1.5-3.2-2.4-5.6-2.4c-5,0-8.6,4-8.6,9.6c0,5.5,3.7,9.6,8.4,9.6
			c2.7,0,4.8-1.2,6.1-3.2l5.5,4.1c-2.5,3.5-6.7,5.2-10.8,5.2c-9.3,0-16-6.1-16-15.6s6.8-15.6,16-15.6c3.3,0,7.5,1.1,10,4.4
			L179.5,249.9L179.5,249.9z"/>
		<path id="path4525" class="st3" d="M85.4,171.7h4.2l4.2,11.1l0,0l4.3-11.1h4l-7,17h-3L85.4,171.7z"/>
		<path id="path4527" class="st3" d="M108.4,176.6l-2.1,5.3h4.2L108.4,176.6z M106.9,171.7h3.1l7.4,17h-4.2l-1.5-3.6h-6.6l-1.4,3.6
			h-4.1L106.9,171.7L106.9,171.7z"/>
		<path id="path4529" class="st3" d="M119.5,171.7h5.1l7.2,11.8h0.1v-11.8h3.7v17h-4.9l-7.4-12.1l0,0v12.1h-3.7L119.5,171.7
			L119.5,171.7z"/>
		<path id="path4531" class="st3" d="M150.3,176.1c-0.7-0.9-1.8-1.4-3.2-1.4c-2.8,0-4.9,2.3-4.9,5.5s2.1,5.5,4.8,5.5
			c1.5,0,2.7-0.7,3.5-1.8l3.1,2.3c-1.4,2-3.8,3-6.1,3c-5.3,0-9.2-3.5-9.2-8.9c0-5.5,3.9-8.9,9.2-8.9c1.9,0,4.3,0.7,5.7,2.5
			L150.3,176.1L150.3,176.1z"/>
		<path id="path4533" class="st3" d="M164,185.7c3.2,0,5.3-2.3,5.3-5.5s-2.1-5.5-5.3-5.5s-5.3,2.3-5.3,5.5
			C158.7,183.4,160.8,185.7,164,185.7 M164,171.3c5.3,0,9.2,3.5,9.2,8.9c0,5.5-3.9,8.9-9.2,8.9s-9.2-3.5-9.2-8.9
			C154.8,174.7,158.7,171.3,164,171.3"/>
		<path id="path4535" class="st3" d="M190.7,182.1c0,4-2.4,7-7.2,7c-4.7,0-7.2-3-7.2-7v-10.4h3.7V182c0,2.1,1.4,3.7,3.4,3.7
			s3.4-1.6,3.4-3.7v-10.3h3.7v10.4H190.7z"/>
		<path id="path4537" class="st3" d="M192.7,171.7h4.3l4.2,11.1l0,0l4.3-11.1h4l-7,17h-3L192.7,171.7z"/>
		<path id="path4539" class="st3" d="M211.8,171.7h11.5v3.5h-7.7v3.2h7.4v3.5h-7.4v3.5h8.2v3.5h-12V171.7L211.8,171.7z"/>
		<path id="path4541" class="st3" d="M230.9,178.7h2.2c1.4,0,3.1,0,3.1-1.9c0-1.7-1.5-2-2.9-2h-2.4L230.9,178.7L230.9,178.7z
			 M227.1,171.7h6.6c3.5,0,6.4,1.2,6.4,5.2c0,2.4-1.3,4.2-3.7,4.7l4.3,7.2h-4.5l-3.6-6.8h-1.9v6.8H227L227.1,171.7L227.1,171.7z"/>
	</g>
</g>
</svg>
