<?xml version="1.0" encoding="UTF-8" standalone="no"?>
<svg width="500px" height="500px" viewBox="0 0 500 500" version="1.1" xmlns="http://www.w3.org/2000/svg" xmlns:xlink="http://www.w3.org/1999/xlink">
    <!-- Generator: Sketch 39.1 (31720) - http://www.bohemiancoding.com/sketch -->
    <title>BKN</title>
    <desc>Created with Sketch.</desc>
    <defs>
        <polygon id="path-1" points="0.000289403154 499.871795 487.684611 499.871795 487.684611 1.98504274 243.84245 1.98504274 0.000289403154 1.98504274"></polygon>
    </defs>
    <g id="NBA" stroke="none" stroke-width="1" fill="none" fill-rule="evenodd">
        <g id="BKN">
            <g id="BKLN_Logo-Special" transform="translate(6.000000, 0.000000)">
                <g id="Group-3">
                    <mask id="mask-2" fill="white">
                        <use xlink:href="#path-1"></use>
                    </mask>
                    <g id="Clip-2"></g>
                    <path d="M386.557703,379.267094 C314.412052,470.938034 248.253983,490.305556 245.467323,491.083333 L244.508541,491.346154 L243.54976,491.070513 C236.370642,489.038462 171.318694,468.534188 101.141856,379.267094 C14.3048515,268.895299 7.43536245,126.480769 8.51586026,70.2799145 C8.46461135,65.3910256 8.46461135,62.508547 8.46461135,62.4957265 L8.46461135,60.3867521 L10.3779039,59.4358974 C14.347559,57.4273504 109.070489,10.3611111 240.733205,10.3611111 L246.938594,10.3611111 C378.701672,10.3611111 473.341323,57.4273504 477.302437,59.4358974 L479.213594,60.3867521 L479.213594,62.4957265 C479.213594,62.508547 479.213594,65.3910256 479.155939,70.5961538 C480.279144,126.613248 473.443821,268.858974 386.557703,379.267094 L386.557703,379.267094 Z M487.584249,69.4850427 C487.633362,64.3034188 487.633362,61.3803419 487.633362,61.3803419 L487.633362,55.0128205 L481.880672,52.1196581 C477.84055,50.0641026 381.165891,1.98504274 246.953541,1.98504274 L240.718258,1.98504274 C106.595594,1.98504274 9.83979039,50.0641026 5.79753275,52.1196581 L0.0512489083,55.0128205 L0.0512489083,61.3803419 C0.0512489083,61.3803419 0.0512489083,64.2905983 0.0939563319,69.1666667 C-0.992947598,126.344017 6.01534061,271.512821 94.7549607,384.297009 C166.712699,475.826923 234.158397,497.07265 241.602301,499.175214 L244.497865,500 L247.376345,499.190171 C250.271908,498.376068 318.979611,478.303419 392.912568,384.297009 C481.737603,271.465812 488.71386,126.480769 487.584249,69.4850427 L487.584249,69.4850427 Z" id="Fill-1" fill="#000000" mask="url(#mask-2)"></path>
                </g>
                <path d="M417.234445,221.882479 L417.234445,221.882479 C411.152908,221.882479 403.717546,220.630342 395.124812,218.175214 C364.657336,209.472222 348.552367,194.461538 348.552367,174.762821 L348.552367,153.818376 C348.552367,153.066239 348.885485,152.367521 349.462035,151.893162 C350.030044,151.42094 350.7881,151.235043 351.516262,151.376068 C357.420563,152.527778 360.354563,153.149573 366.487349,154.523504 C367.621231,154.782051 368.426266,155.790598 368.426266,156.955128 L368.426266,168.794872 C368.426266,179.730769 368.426266,185.215812 374.159738,191.681624 C378.866096,196.997863 386.790459,201.284188 397.695799,204.433761 C402.686162,205.871795 406.897114,206.600427 410.21548,206.600427 C414.518253,206.600427 417.341214,205.448718 419.094354,202.976496 C420.821869,200.538462 421.658934,196.645299 421.658934,191.076923 C421.658934,175.58547 416.610917,167.502137 391.663376,143.036325 L387.418258,138.882479 C366.406205,118.344017 353.7221,105.952991 353.7221,85.2435897 C353.7221,60.3055556 368.372882,51.4850427 397.089354,59.7307692 C438.152541,71.517094 438.152541,95.0747863 438.146135,109.147436 L438.146135,120.305556 C438.146135,121.117521 437.753227,121.886752 437.091262,122.350427 C436.416485,122.820513 435.564472,122.925214 434.802144,122.643162 C429.002476,120.49359 426.2329,119.508547 420.672393,117.617521 C419.670904,117.275641 418.993991,116.324786 418.993991,115.260684 L418.987585,101.925214 C418.987585,92.6260684 418.987585,80.1004274 396.021668,73.4978632 C391.791498,72.2777778 388.127201,71.6538462 385.141952,71.6538462 C379.423428,71.6538462 373.572511,73.4636752 373.572511,86.8290598 C373.572511,100.350427 377.211183,105.65812 408.976965,138.512821 C430.082974,160.354701 441.10576,172.758547 441.10576,194.41453 C441.10576,202.634615 441.10576,221.876068 417.234445,221.882479 L417.234445,221.882479 Z M342.637389,347.950855 C342.383279,348.128205 342.112087,348.316239 341.832354,348.514957 C341.843031,340.42094 340.897061,332.175214 339.013664,323.976496 C346.162886,317.153846 350.177384,309.540598 351.052886,301.318376 C351.146843,301.681624 351.264288,302.021368 351.351838,302.386752 C353.621738,311.350427 354.702236,320.33547 354.72786,329.168803 C354.38193,330.905983 351.968961,341.444444 342.637389,347.950855 L342.637389,347.950855 Z M342.812489,378.91453 C342.782594,378.797009 342.759105,378.67735 342.705721,378.574786 C342.366197,377.752137 341.161847,376.34188 337.653432,377.564103 C339.671358,370.809829 340.961122,363.818376 341.4971,356.773504 C342.161201,356.314103 342.782594,355.867521 343.386904,355.410256 C343.762729,355.128205 344.138555,354.856838 344.525057,354.574786 C349.267716,351.262821 352.144061,346.809829 353.916419,342.547009 C352.353328,355.339744 348.552367,367.626068 342.812489,378.91453 L342.812489,378.91453 Z M324.881777,404.474359 C329.084188,398.271368 332.733537,391.32906 335.520197,383.976496 C335.763629,383.801282 336.022009,383.636752 336.297472,383.448718 C336.594288,383.260684 336.901782,383.059829 337.170838,382.861111 C338.731795,381.837607 339.513341,381.685897 339.848594,381.685897 C340.081349,381.685897 340.181712,381.709402 340.269262,382.145299 L340.463581,383.025641 L340.615192,383.025641 C336.267576,390.767094 330.984668,397.965812 324.881777,404.474359 L324.881777,404.474359 Z M305.255581,421.036325 C294.98231,427.824786 283.395786,433.017094 270.737306,436.16453 C248.666109,441.636752 226.481738,440.100427 206.543777,433.017094 C211.779707,434.004274 217.252664,434.519231 222.875096,434.555556 L223.707891,434.568376 C228.002122,434.568376 232.30276,434.226496 236.893808,433.544872 C241.841463,432.758547 246.942865,431.536325 252.484153,429.809829 C271.557288,423.972222 289.336389,413.775641 304.198572,404.568376 C306.351026,403.228632 308.428742,401.982906 310.453074,400.760684 C314.785742,398.153846 318.870707,395.685897 323.043223,392.786325 C324.627668,391.681624 326.083991,390.636752 327.51469,389.628205 C327.732498,389.472222 327.952441,389.309829 328.168114,389.155983 C323.062441,402.369658 315.101777,413.32906 305.255581,421.036325 L305.255581,421.036325 Z M185.399332,422.65812 L182.251795,420.799145 L182.358563,420.987179 C160.033258,406.260684 142.941747,383.553419 135.916376,355.713675 C134.682131,350.794872 133.825847,345.884615 133.274921,340.985043 C137.511498,347.869658 147.665188,360.378205 169.100044,369.42094 C180.566987,374.262821 192.544284,377.762821 204.858969,379.946581 L204.839751,370.305556 C196.368734,368.495726 187.02862,365.816239 175.395118,361.976496 C145.717729,352.190171 134.944782,338.790598 132.815817,335.758547 C131.357358,313.042735 137.026769,290.980769 148.290852,272.245726 C153.050594,271.213675 170.9749,269.027778 202.535686,284.651709 C203.214734,284.978632 203.97279,285.401709 204.677463,285.767094 L204.666786,277.720085 C199.919856,275.358974 195.497502,273.267094 191.536389,271.611111 C180.00752,266.75 170.146376,264.294872 162.234825,264.294872 C158.028144,264.294872 154.921179,264.976496 152.561594,265.739316 C166.539734,245.807692 187.156742,230.393162 212.245218,223.132479 C215.019066,222.891026 217.801454,222.739316 220.524052,222.739316 C285.375275,222.739316 322.808332,288.269231 329.940472,318.222222 C330.109166,318.807692 330.233017,319.40812 330.359004,320.00641 C330.391035,320.17094 330.416659,320.33547 330.44869,320.487179 C322.009703,324.728632 309.985428,325.057692 295.351729,321.429487 C290.944323,320.324786 285.962502,318.574786 280.592044,316.365385 C279.927943,318.431624 279.058847,320.369658 278.048817,322.166667 C279.827581,323.90812 281.271092,325.739316 282.451952,327.617521 C284.375921,328.264957 286.227288,328.816239 287.99324,329.239316 C300.976297,332.339744 308.962585,333.608974 315.577965,333.608974 C322.152773,333.608974 327.480524,332.269231 332.193288,329.416667 C333.555655,337.190171 334.260328,345.036325 334.294493,352.75641 C323.472432,358.00641 306.338214,363.974359 287.655852,368.025641 L287.668664,375.801282 C308.486397,371.09188 323.502328,366.288462 334.119393,360.976496 C333.615445,368.049145 332.515729,374.74359 330.837328,380.910256 C330.598166,381.064103 330.373952,381.202991 330.198852,381.32265 C328.272747,382.485043 326.359454,383.517094 324.328716,384.598291 L319.075703,387.536325 C314.59783,390.096154 309.968345,392.739316 305.317507,395.230769 C292.13586,402.299145 281.264686,408.066239 271.130214,413.388889 C269.656808,414.115385 268.213297,414.880342 266.76338,415.632479 C265.052948,416.523504 263.342515,417.416667 261.585105,418.275641 C249.641974,424.277778 239.142354,427.482906 226.46679,428.976496 C222.69359,429.423077 219.206528,429.645299 215.811288,429.645299 C208.636441,429.645299 201.775493,428.623932 194.807777,426.544872 C191.102908,425.476496 187.938288,424.17094 185.399332,422.65812 L185.399332,422.65812 Z M114.37048,209.307692 C100.204428,172.788462 85.2952664,134.606838 69.9825197,95.6089744 C70.2729301,102.194444 70.3882402,107.391026 70.3882402,116.688034 C70.5761528,152.014957 70.7747424,187.352564 70.9840087,222.692308 C70.9904148,223.75641 70.3177729,224.707265 69.3098777,225.059829 C63.7130699,227.004274 61.0609389,227.965812 55.7929782,229.957265 C55.5089738,230.064103 55.2121572,230.115385 54.9132052,230.115385 C54.4135284,230.115385 53.9202576,229.970085 53.5017249,229.675214 C52.8333537,229.211538 52.4297686,228.442308 52.4297686,227.632479 L52.4297686,78.2435897 C52.4297686,77.2094017 53.0703799,76.2820513 54.0398384,75.9188034 C62.5599694,72.6987179 66.7602445,71.2136752 75.4277162,68.3418803 C76.6790437,67.9188034 78.0350044,68.5598291 78.5197336,69.7863248 C94.1015371,109.136752 109.39293,147.997863 124.071472,185.538462 C123.781061,179.600427 123.584607,172.976496 123.584607,165.764957 L122.375987,57.0940171 C122.367445,55.9252137 123.163939,54.9038462 124.306362,54.6452991 C130.127384,53.2948718 133.008,52.6730769 138.946467,51.474359 C139.674629,51.3205128 140.434821,51.5149573 141.013507,51.991453 C141.585786,52.4615385 141.918904,53.1666667 141.918904,53.9166667 L141.918904,203.299145 C141.918904,204.480769 141.083974,205.502137 139.933009,205.737179 C130.823515,207.568376 126.381943,208.568376 117.283127,210.82265 C116.0681,211.128205 114.823179,210.470085 114.37048,209.307692 L114.37048,209.307692 Z M158.38048,50.034188 C158.38048,48.8119658 159.266659,47.7735043 160.468873,47.5726496 C185.969476,43.4871795 211.980432,41.1965812 237.782122,40.7735043 C238.427004,40.75 239.088969,41.0192308 239.567293,41.482906 C240.04348,41.9487179 240.310402,42.5940171 240.310402,43.2564103 L240.310402,52.5662393 C240.310402,53.9294872 239.221362,55.034188 237.863266,55.0555556 C213.699406,55.4551282 201.587581,56.3141026 178.367555,59.3311966 L178.367555,111.861111 C196.789402,109.482906 207.229231,108.641026 226.611996,107.92735 C227.288908,107.897436 227.944467,108.149573 228.431332,108.619658 C228.920332,109.087607 229.191524,109.741453 229.191524,110.416667 L229.191524,119.519231 C229.191524,120.858974 228.134515,121.950855 226.797773,122.004274 C206.987934,122.737179 196.992262,123.549145 178.062197,126.021368 L178.062197,185.117521 C200.867961,182.149573 213.613991,181.25641 237.470358,180.846154 C238.096022,180.83547 238.777205,181.094017 239.253393,181.561966 C239.731716,182.032051 239.996502,182.666667 239.996502,183.337607 L239.996502,192.641026 C239.996502,194.002137 238.913869,195.106838 237.557908,195.134615 C212.091472,195.564103 186.415769,197.837607 161.256825,201.871795 C161.126568,201.895299 160.99631,201.905983 160.866052,201.905983 C160.27669,201.905983 159.706546,201.696581 159.251712,201.307692 C158.69438,200.837607 158.38048,200.145299 158.38048,199.416667 L158.38048,50.034188 L158.38048,50.034188 Z M338.768096,272.245726 C341.714908,278.119658 348.733873,294.997863 340.897061,310.057692 C339.88276,312.100427 338.526799,314.017094 336.844127,315.777778 C320.367603,261.356838 277.309978,221.570513 232.864362,219.162393 C275.796,215.038462 316.968092,236.241453 338.768096,272.245726 L338.768096,272.245726 Z M250.468362,43.0106838 C250.468362,42.3461538 250.735284,41.707265 251.215742,41.2435897 C251.683389,40.7735043 252.311188,40.5021368 252.9881,40.5213675 C283.771611,40.8675214 314.74517,43.8632479 345.052493,49.4252137 C346.233354,49.6410256 347.089638,50.6688034 347.089638,51.8739316 L347.089638,61.3931624 C347.089638,62.1324786 346.76079,62.8333333 346.203459,63.3012821 C345.629044,63.7777778 344.900882,63.982906 344.151367,63.8418803 C329.711987,61.1880342 322.180533,60.0598291 308.482127,58.5213675 L308.482127,195.809829 C308.482127,196.514957 308.183175,197.196581 307.655738,197.666667 C307.196633,198.076923 306.603,198.301282 305.992284,198.301282 C305.904734,198.301282 305.810777,198.301282 305.723227,198.290598 C299.671585,197.626068 296.726908,197.337607 290.709432,196.850427 C289.419668,196.74359 288.426721,195.66453 288.426721,194.367521 L288.426721,56.5897436 C274.779563,55.5021368 267.363419,55.1858974 252.932581,55.0213675 C251.570214,54.9978632 250.468362,53.8931624 250.468362,52.5320513 L250.468362,43.0106838 L250.468362,43.0106838 Z M468.52179,68.3525641 C468.52179,68.3525641 468.421428,68.3119658 468.244192,68.2179487 L468.244192,67.9081197 L466.243349,66.9893162 C461.477201,64.8055556 450.789668,60.1303419 435.312498,54.5747863 C397.189716,40.6431624 329.201633,21.1752137 246.836096,21.1752137 L240.827162,21.1752137 C158.280118,21.1752137 90.1318821,40.7606838 52.0603493,54.6858974 C36.7411965,60.1901709 26.1711092,64.8183761 21.4348559,66.9893162 L19.4340131,67.9188034 L19.4404192,68.2179487 C19.2525066,68.3119658 19.1585502,68.3525641 19.1585502,68.3525641 C19.1585502,68.3525641 19.1585502,71.1367521 19.2097991,76.0576923 C18.5414279,111.061966 18.9343362,259.702991 108.2441,373.217949 C176.018646,459.433761 239.103917,478.850427 244.495729,480.388889 C249.654786,478.955128 311.488729,459.608974 379.442646,373.217949 C468.803659,259.702991 469.155996,111.061966 468.459865,76.0576923 C468.52179,71.1367521 468.52179,68.3525641 468.52179,68.3525641 L468.52179,68.3525641 Z" id="Fill-4" fill="#000000"></path>
                <path d="M231.557515,267.147436 L240.942472,267.147436 C245.093633,267.301282 249.720983,267.418803 252.699825,269.252137 C254.064328,270.096154 254.892852,271.096154 255.394664,272.446581 C255.815332,273.844017 256.203969,276.264957 256.445266,280.397436 L256.49438,298.617521 C256.445266,298.933761 256.445266,299.391026 256.445266,300.002137 C256.304332,304.700855 256.203969,312.67735 246.887345,315.472222 C244.286463,316.200855 243.047948,316.435897 237.393485,316.621795 L231.777459,316.634615 C230.818677,316.683761 230.560297,316.200855 230.560297,315.472222 C230.560297,315.025641 230.496236,268.442308 230.496236,268.442308 C230.496236,267.67735 230.771699,267.241453 231.557515,267.147436 L231.557515,267.147436 Z M260.698926,343.15812 C261.668384,346.083333 261.826402,349.348291 261.826402,352.380342 L261.879786,374.027778 C261.879786,383.895299 261.26907,388.534188 257.508681,391.446581 C255.251594,393.068376 252.505507,394.00641 245.478,394.24359 C245.478,394.24359 233.383258,394.277778 232.471454,394.277778 C231.371738,394.277778 230.955341,393.621795 230.955341,392.58547 C230.955341,383.681624 230.818677,334.606838 230.818677,334.196581 C230.818677,333.737179 230.955341,333.115385 231.871415,333.115385 C232.778948,333.115385 237.94441,333.068376 237.94441,333.068376 C244.335576,333.373932 251.044913,333.844017 255.394664,336.628205 C257.916537,338.130342 259.612022,340.292735 260.698926,343.15812 L260.698926,343.15812 Z M248.537987,410.711538 C251.943904,410.711538 262.396546,410.675214 271.102454,403.25 C278.806873,396.262821 279.605502,388.017094 279.827581,378.75 L279.774197,352.626068 C279.774197,344.450855 279.774197,334.452991 271.254066,327.371795 C269.488114,325.891026 267.357013,324.611111 264.813786,323.589744 C268.770629,320.933761 271.476144,317.282051 272.968769,312.67735 C274.309782,308.589744 274.258533,303.504274 274.217961,301.517094 L274.145358,278.260684 C273.936092,271.824786 273.225013,264.49359 268.018978,258.551282 C263.410847,253.452991 256.445266,250.818376 247.594153,250.854701 L216.069668,250.938034 C215.145052,250.938034 214.250332,251.303419 213.532847,251.995726 C212.823904,252.67735 212.495057,253.557692 212.495057,254.485043 L212.766249,407.185897 C212.766249,408.410256 213.404725,409.606838 214.478817,410.228632 C215.048961,410.594017 215.747227,410.805556 216.473253,410.805556 L248.537987,410.711538 L248.537987,410.711538 Z" id="Fill-5" fill="#000000"></path>
                <path d="M379.442646,373.217949 C311.488729,459.608974 249.654786,478.955128 244.495729,480.388889 C239.103917,478.850427 176.018646,459.433761 108.2441,373.217949 C18.9343362,259.702991 18.5414279,111.061966 19.2097991,76.0576923 C19.1585502,71.1367521 19.1585502,68.3525641 19.1585502,68.3525641 C19.1585502,68.3525641 19.2525066,68.3119658 19.4404192,68.2179487 L19.4340131,67.9188034 L21.4348559,66.9893162 C26.1711092,64.8183761 36.7411965,60.1901709 52.0603493,54.6858974 C90.1318821,40.7606838 158.280118,21.1752137 240.827162,21.1752137 L246.836096,21.1752137 C329.201633,21.1752137 397.189716,40.6431624 435.312498,54.5747863 C450.789668,60.1303419 461.477201,64.8055556 466.243349,66.9893162 L468.244192,67.9081197 L468.244192,68.2179487 C468.421428,68.3119658 468.52179,68.3525641 468.52179,68.3525641 C468.52179,68.3525641 468.52179,71.1367521 468.459865,76.0576923 C469.155996,111.061966 468.803659,259.702991 379.442646,373.217949 L379.442646,373.217949 Z M479.213594,62.4957265 L479.213594,60.3867521 L477.302437,59.4358974 C473.341323,57.4273504 378.701672,10.3611111 246.938594,10.3611111 L240.733205,10.3611111 C109.070489,10.3611111 14.347559,57.4273504 10.3779039,59.4358974 L8.46461135,60.3867521 L8.46461135,62.4957265 C8.46461135,62.508547 8.46461135,65.3910256 8.51586026,70.2799145 C7.43536245,126.480769 14.3048515,268.895299 101.141856,379.267094 C171.318694,468.534188 236.370642,489.038462 243.54976,491.070513 L244.508541,491.346154 L245.467323,491.083333 C248.253983,490.305556 314.412052,470.938034 386.557703,379.267094 C473.443821,268.858974 480.279144,126.613248 479.155939,70.5961538 C479.213594,65.3910256 479.213594,62.508547 479.213594,62.4957265 L479.213594,62.4957265 Z" id="Fill-6" fill="#FFFFFF"></path>
                <path d="M252.932581,55.0213675 C267.363419,55.1858974 274.779563,55.5021368 288.426721,56.5897436 L288.426721,194.367521 C288.426721,195.66453 289.419668,196.74359 290.709432,196.850427 C296.726908,197.337607 299.671585,197.626068 305.723227,198.290598 C305.810777,198.301282 305.904734,198.301282 305.992284,198.301282 C306.603,198.301282 307.196633,198.076923 307.655738,197.666667 C308.183175,197.196581 308.482127,196.514957 308.482127,195.809829 L308.482127,58.5213675 C322.180533,60.0598291 329.711987,61.1880342 344.151367,63.8418803 C344.900882,63.982906 345.629044,63.7777778 346.203459,63.3012821 C346.76079,62.8333333 347.089638,62.1324786 347.089638,61.3931624 L347.089638,51.8739316 C347.089638,50.6688034 346.233354,49.6410256 345.052493,49.4252137 C314.74517,43.8632479 283.771611,40.8675214 252.9881,40.5213675 C252.311188,40.5021368 251.683389,40.7735043 251.215742,41.2435897 C250.735284,41.707265 250.468362,42.3461538 250.468362,43.0106838 L250.468362,52.5320513 C250.468362,53.8931624 251.570214,54.9978632 252.932581,55.0213675" id="Fill-7" fill="#FFFFFF"></path>
                <path d="M373.572511,86.8290598 C373.572511,73.4636752 379.423428,71.6538462 385.141952,71.6538462 C388.127201,71.6538462 391.791498,72.2777778 396.021668,73.4978632 C418.987585,80.1004274 418.987585,92.6260684 418.987585,101.925214 L418.993991,115.260684 C418.993991,116.324786 419.670904,117.275641 420.672393,117.617521 C426.2329,119.508547 429.002476,120.49359 434.802144,122.643162 C435.564472,122.925214 436.416485,122.820513 437.091262,122.350427 C437.753227,121.886752 438.146135,121.117521 438.146135,120.305556 L438.146135,109.147436 C438.152541,95.0747863 438.152541,71.517094 397.089354,59.7307692 C368.372882,51.4850427 353.7221,60.3055556 353.7221,85.2435897 C353.7221,105.952991 366.406205,118.344017 387.418258,138.882479 L391.663376,143.036325 C416.610917,167.502137 421.658934,175.58547 421.658934,191.076923 C421.658934,196.645299 420.821869,200.538462 419.094354,202.976496 C417.341214,205.448718 414.518253,206.600427 410.21548,206.600427 C406.897114,206.600427 402.686162,205.871795 397.695799,204.433761 C386.790459,201.284188 378.866096,196.997863 374.159738,191.681624 C368.426266,185.215812 368.426266,179.730769 368.426266,168.794872 L368.426266,156.955128 C368.426266,155.790598 367.621231,154.782051 366.487349,154.523504 C360.354563,153.149573 357.420563,152.527778 351.516262,151.376068 C350.7881,151.235043 350.030044,151.42094 349.462035,151.893162 C348.885485,152.367521 348.552367,153.066239 348.552367,153.818376 L348.552367,174.762821 C348.552367,194.461538 364.657336,209.472222 395.124812,218.175214 C403.717546,220.630342 411.152908,221.882479 417.234445,221.882479 C441.10576,221.876068 441.10576,202.634615 441.10576,194.41453 C441.10576,172.758547 430.082974,160.354701 408.976965,138.512821 C377.211183,105.65812 373.572511,100.350427 373.572511,86.8290598" id="Fill-8" fill="#FFFFFF"></path>
                <path d="M141.918904,203.299145 L141.918904,53.9166667 C141.918904,53.1666667 141.585786,52.4615385 141.013507,51.991453 C140.434821,51.5149573 139.674629,51.3205128 138.946467,51.474359 C133.008,52.6730769 130.127384,53.2948718 124.306362,54.6452991 C123.163939,54.9038462 122.367445,55.9252137 122.375987,57.0940171 L123.584607,165.764957 C123.584607,172.976496 123.781061,179.600427 124.071472,185.538462 C109.39293,147.997863 94.1015371,109.136752 78.5197336,69.7863248 C78.0350044,68.5598291 76.6790437,67.9188034 75.4277162,68.3418803 C66.7602445,71.2136752 62.5599694,72.6987179 54.0398384,75.9188034 C53.0703799,76.2820513 52.4297686,77.2094017 52.4297686,78.2435897 L52.4297686,227.632479 C52.4297686,228.442308 52.8333537,229.211538 53.5017249,229.675214 C53.9202576,229.970085 54.4135284,230.115385 54.9132052,230.115385 C55.2121572,230.115385 55.5089738,230.064103 55.7929782,229.957265 C61.0609389,227.965812 63.7130699,227.004274 69.3098777,225.059829 C70.3177729,224.707265 70.9904148,223.75641 70.9840087,222.692308 C70.7747424,187.352564 70.5761528,152.014957 70.3882402,116.688034 C70.3882402,107.391026 70.2729301,102.194444 69.9825197,95.6089744 C85.2952664,134.606838 100.204428,172.788462 114.37048,209.307692 C114.823179,210.470085 116.0681,211.128205 117.283127,210.82265 C126.381943,208.568376 130.823515,207.568376 139.933009,205.737179 C141.083974,205.502137 141.918904,204.480769 141.918904,203.299145" id="Fill-9" fill="#FFFFFF"></path>
                <path d="M160.866052,201.905983 C160.99631,201.905983 161.126568,201.895299 161.256825,201.871795 C186.415769,197.837607 212.091472,195.564103 237.557908,195.134615 C238.913869,195.106838 239.996502,194.002137 239.996502,192.641026 L239.996502,183.337607 C239.996502,182.666667 239.731716,182.032051 239.253393,181.561966 C238.777205,181.094017 238.096022,180.83547 237.470358,180.846154 C213.613991,181.25641 200.867961,182.149573 178.062197,185.117521 L178.062197,126.021368 C196.992262,123.549145 206.987934,122.737179 226.797773,122.004274 C228.134515,121.950855 229.191524,120.858974 229.191524,119.519231 L229.191524,110.416667 C229.191524,109.741453 228.920332,109.087607 228.431332,108.619658 C227.944467,108.149573 227.288908,107.897436 226.611996,107.92735 C207.229231,108.641026 196.789402,109.482906 178.367555,111.861111 L178.367555,59.3311966 C201.587581,56.3141026 213.699406,55.4551282 237.863266,55.0555556 C239.221362,55.034188 240.310402,53.9294872 240.310402,52.5662393 L240.310402,43.2564103 C240.310402,42.5940171 240.04348,41.9487179 239.567293,41.482906 C239.088969,41.0192308 238.427004,40.75 237.782122,40.7735043 C211.980432,41.1965812 185.969476,43.4871795 160.468873,47.5726496 C159.266659,47.7735043 158.38048,48.8119658 158.38048,50.034188 L158.38048,199.416667 C158.38048,200.145299 158.69438,200.837607 159.251712,201.307692 C159.706546,201.696581 160.27669,201.905983 160.866052,201.905983" id="Fill-10" fill="#FFFFFF"></path>
                <path d="M344.525057,354.574786 C344.138555,354.856838 343.762729,355.128205 343.386904,355.410256 C342.782594,355.867521 342.161201,356.314103 341.4971,356.773504 C340.961122,363.818376 339.671358,370.809829 337.653432,377.564103 C341.161847,376.34188 342.366197,377.752137 342.705721,378.574786 C342.759105,378.67735 342.782594,378.797009 342.812489,378.91453 C348.552367,367.626068 352.353328,355.339744 353.916419,342.547009 C352.144061,346.809829 349.267716,351.262821 344.525057,354.574786" id="Fill-11" fill="#FFFFFF"></path>
                <path d="M327.51469,389.628205 C326.083991,390.636752 324.627668,391.681624 323.043223,392.786325 C318.870707,395.685897 314.785742,398.153846 310.453074,400.760684 C308.428742,401.982906 306.351026,403.228632 304.198572,404.568376 C289.336389,413.775641 271.557288,423.972222 252.484153,429.809829 C246.942865,431.536325 241.841463,432.758547 236.893808,433.544872 C232.30276,434.226496 228.002122,434.568376 223.707891,434.568376 L222.875096,434.555556 C217.252664,434.519231 211.779707,434.004274 206.543777,433.017094 C226.481738,440.100427 248.666109,441.636752 270.737306,436.16453 C283.395786,433.017094 294.98231,427.824786 305.255581,421.036325 C315.101777,413.32906 323.062441,402.369658 328.168114,389.155983 C327.952441,389.309829 327.732498,389.472222 327.51469,389.628205" id="Fill-12" fill="#FFFFFF"></path>
                <path d="M340.269262,382.145299 C340.181712,381.709402 340.081349,381.685897 339.848594,381.685897 C339.513341,381.685897 338.731795,381.837607 337.170838,382.861111 C336.901782,383.059829 336.594288,383.260684 336.297472,383.448718 C336.022009,383.636752 335.763629,383.801282 335.520197,383.976496 C332.733537,391.32906 329.084188,398.271368 324.881777,404.474359 C330.984668,397.965812 336.267576,390.767094 340.615192,383.025641 L340.463581,383.025641 L340.269262,382.145299" id="Fill-13" fill="#FFFFFF"></path>
                <path d="M351.052886,301.318376 C350.177384,309.540598 346.162886,317.153846 339.013664,323.976496 C340.897061,332.175214 341.843031,340.42094 341.832354,348.514957 C342.112087,348.316239 342.383279,348.128205 342.637389,347.950855 C351.968961,341.444444 354.38193,330.905983 354.72786,329.168803 C354.702236,320.33547 353.621738,311.350427 351.351838,302.386752 C351.264288,302.021368 351.146843,301.681624 351.052886,301.318376" id="Fill-14" fill="#FFFFFF"></path>
                <path d="M336.844127,315.777778 C338.526799,314.017094 339.88276,312.100427 340.897061,310.057692 C348.733873,294.997863 341.714908,278.119658 338.768096,272.245726 C316.968092,236.241453 275.796,215.038462 232.864362,219.162393 C277.309978,221.570513 320.367603,261.356838 336.844127,315.777778" id="Fill-15" fill="#FFFFFF"></path>
                <path d="M212.766249,407.185897 L212.495057,254.485043 C212.495057,253.557692 212.823904,252.67735 213.532847,251.995726 C214.250332,251.303419 215.145052,250.938034 216.069668,250.938034 L247.594153,250.854701 C256.445266,250.818376 263.410847,253.452991 268.018978,258.551282 C273.225013,264.49359 273.936092,271.824786 274.145358,278.260684 L274.217961,301.517094 C274.258533,303.504274 274.309782,308.589744 272.968769,312.67735 C271.476144,317.282051 268.770629,320.933761 264.813786,323.589744 C267.357013,324.611111 269.488114,325.891026 271.254066,327.371795 C279.774197,334.452991 279.774197,344.450855 279.774197,352.626068 L279.827581,378.75 C279.605502,388.017094 278.806873,396.262821 271.102454,403.25 C262.396546,410.675214 251.943904,410.711538 248.537987,410.711538 L216.473253,410.805556 C215.747227,410.805556 215.048961,410.594017 214.478817,410.228632 C213.404725,409.606838 212.766249,408.410256 212.766249,407.185897 L212.766249,407.185897 Z M226.46679,428.976496 C239.142354,427.482906 249.641974,424.277778 261.585105,418.275641 C263.342515,417.416667 265.052948,416.523504 266.76338,415.632479 C268.213297,414.880342 269.656808,414.115385 271.130214,413.388889 C281.264686,408.066239 292.13586,402.299145 305.317507,395.230769 C309.968345,392.739316 314.59783,390.096154 319.075703,387.536325 L324.328716,384.598291 C326.359454,383.517094 328.272747,382.485043 330.198852,381.32265 C330.373952,381.202991 330.598166,381.064103 330.837328,380.910256 C332.515729,374.74359 333.615445,368.049145 334.119393,360.976496 C323.502328,366.288462 308.486397,371.09188 287.668664,375.801282 L287.655852,368.025641 C306.338214,363.974359 323.472432,358.00641 334.294493,352.75641 C334.260328,345.036325 333.555655,337.190171 332.193288,329.416667 C327.480524,332.269231 322.152773,333.608974 315.577965,333.608974 C308.962585,333.608974 300.976297,332.339744 287.99324,329.239316 C286.227288,328.816239 284.375921,328.264957 282.451952,327.617521 C281.271092,325.739316 279.827581,323.90812 278.048817,322.166667 C279.058847,320.369658 279.927943,318.431624 280.592044,316.365385 C285.962502,318.574786 290.944323,320.324786 295.351729,321.429487 C309.985428,325.057692 322.009703,324.728632 330.44869,320.487179 C330.416659,320.33547 330.391035,320.17094 330.359004,320.00641 C330.233017,319.40812 330.109166,318.807692 329.940472,318.222222 C322.808332,288.269231 285.375275,222.739316 220.524052,222.739316 C217.801454,222.739316 215.019066,222.891026 212.245218,223.132479 C187.156742,230.393162 166.539734,245.807692 152.561594,265.739316 C154.921179,264.976496 158.028144,264.294872 162.234825,264.294872 C170.146376,264.294872 180.00752,266.75 191.536389,271.611111 C195.497502,273.267094 199.919856,275.358974 204.666786,277.720085 L204.677463,285.767094 C203.97279,285.401709 203.214734,284.978632 202.535686,284.651709 C170.9749,269.027778 153.050594,271.213675 148.290852,272.245726 C137.026769,290.980769 131.357358,313.042735 132.815817,335.758547 C134.944782,338.790598 145.717729,352.190171 175.395118,361.976496 C187.02862,365.816239 196.368734,368.495726 204.839751,370.305556 L204.858969,379.946581 C192.544284,377.762821 180.566987,374.262821 169.100044,369.42094 C147.665188,360.378205 137.511498,347.869658 133.274921,340.985043 C133.825847,345.884615 134.682131,350.794872 135.916376,355.713675 C142.941747,383.553419 160.033258,406.260684 182.358563,420.987179 L182.251795,420.799145 L185.399332,422.65812 C187.938288,424.17094 191.102908,425.476496 194.807777,426.544872 C201.775493,428.623932 208.636441,429.645299 215.811288,429.645299 C219.206528,429.645299 222.69359,429.423077 226.46679,428.976496 L226.46679,428.976496 Z" id="Fill-16" fill="#FFFFFF"></path>
                <path d="M231.777459,316.634615 L237.393485,316.621795 C243.047948,316.435897 244.286463,316.200855 246.887345,315.472222 C256.203969,312.67735 256.304332,304.700855 256.445266,300.002137 C256.445266,299.391026 256.445266,298.933761 256.49438,298.617521 L256.445266,280.397436 C256.203969,276.264957 255.815332,273.844017 255.394664,272.446581 C254.892852,271.096154 254.064328,270.096154 252.699825,269.252137 C249.720983,267.418803 245.093633,267.301282 240.942472,267.147436 L231.557515,267.147436 C230.771699,267.241453 230.496236,267.67735 230.496236,268.442308 C230.496236,268.442308 230.560297,315.025641 230.560297,315.472222 C230.560297,316.200855 230.818677,316.683761 231.777459,316.634615" id="Fill-17" fill="#FFFFFF"></path>
                <path d="M237.94441,333.068376 C237.94441,333.068376 232.778948,333.115385 231.871415,333.115385 C230.955341,333.115385 230.818677,333.737179 230.818677,334.196581 C230.818677,334.606838 230.955341,383.681624 230.955341,392.58547 C230.955341,393.621795 231.371738,394.277778 232.471454,394.277778 C233.383258,394.277778 245.478,394.24359 245.478,394.24359 C252.505507,394.00641 255.251594,393.068376 257.508681,391.446581 C261.26907,388.534188 261.879786,383.895299 261.879786,374.027778 L261.826402,352.380342 C261.826402,349.348291 261.668384,346.083333 260.698926,343.15812 C259.612022,340.292735 257.916537,338.130342 255.394664,336.628205 C251.044913,333.844017 244.335576,333.373932 237.94441,333.068376" id="Fill-18" fill="#FFFFFF"></path>
            </g>
        </g>
    </g>
</svg>