<?xml version="1.0" encoding="utf-8"?>
<!-- Generator: Adobe Illustrator 21.0.2, SVG Export Plug-In . SVG Version: 6.00 Build 0)  -->
<!DOCTYPE svg PUBLIC "-//W3C//DTD SVG 1.1//EN" "http://www.w3.org/Graphics/SVG/1.1/DTD/svg11.dtd">
<svg version="1.1" id="Layer_1" xmlns="http://www.w3.org/2000/svg" xmlns:xlink="http://www.w3.org/1999/xlink" x="0px" y="0px"
	 width="225.9px" height="250px" viewBox="0 0 225.9 250" style="enable-background:new 0 0 225.9 250;" xml:space="preserve">
<style type="text/css">
	.st0{fill:#231F20;}
	.st1{fill:#FFFFFF;}
	.st2{fill:#061922;}
	.st3{fill:#008248;}
	.st4{fill:none;stroke:#008248;stroke-width:0.3058;}
	.st5{fill:#A63732;}
	.st6{fill:none;stroke:#A63732;stroke-width:0.3058;}
	.st7{fill:#BA9653;}
	.st8{fill:none;stroke:#BA9653;stroke-width:0.3058;}
	.st9{fill:#F9B282;}
	.st10{fill:none;stroke:#F9B282;stroke-width:0.3058;stroke-linecap:round;}
	.st11{fill:none;stroke:#F9B282;stroke-width:0.3058;}
	.st12{fill:none;stroke:#00A55C;stroke-width:0.3058;}
</style>
<path class="st0" d="M220.9,117.8c0-28.8-11.2-55.9-31.6-76.3c-17.6-17.6-40.2-28.4-64.6-31c-0.6-0.6-1.2-1.1-1.9-1.5
	c-8.6-5.6-15.9-1.4-20.9,1c-0.4,0.2-0.8,0.4-1.3,0.6c-9.4,1.1-18.5,3.4-27,6.7c-1-1.5-2.2-2.9-3.5-4.2C64.9,7.9,58,5,50.6,5
	C35.4,5,23,17.4,23,32.6c0,6.4,2.2,12.4,6.1,17.3C14,68.5,5,92.1,5,117.8c0,28.8,11.2,55.9,31.6,76.3c10,10,21.5,17.7,34.1,23.1
	c-0.7,5.7,0.2,9.6,1.3,11.2c-1.6,1.3-2.3,2.2-2.5,3.7c-2.5,3.4,3.6,7.8,6.1,9.7c5.1,3.9,7.8,3.3,11.8,3.1c4.9-0.2,9.6-6,12.3-9.8
	c5.3-0.8,6.3,0.1,6.5,0.8c1.7-0.2,4-0.7,7.2-2c7.2-3,5.2-6.8,4.4-7.4c-0.2-0.2-0.4-0.4-0.5-0.7c17.1-0.7,33.5-5.3,48.2-13.5
	c0.5,0.6,1.1,1.2,1.6,2c1.6,2.3,2.4,9.9,2.8,13.8c0.3,3.9,1,6.6,2.9,12.8c1.9,6.2,2.7,1.7,2.8,0c0.1-1.7,0.4-7.7,0.2-12
	c-0.2-4.3-0.3-10.6,0.5-13.3c0.8-2.7-0.7-3.3-1.1-3.8c-0.4-0.5,0-0.7-1.1-4.1c-0.1-0.2-0.1-0.4-0.2-0.6c5.5-3.8,10.7-8.1,15.5-12.9
	C209.7,173.8,220.9,146.7,220.9,117.8"/>
<path class="st1" d="M84,250c-3.1,0-6.7-0.6-11.4-4.3l-0.4-0.3c-2.8-2.1-11.1-8.5-7.3-15.3c0.3-1.1,0.8-2.1,1.4-2.9
	c-0.5-2-0.7-4.3-0.7-6.9c-12-5.6-22.9-13.2-32.4-22.7C11.7,176.4,0,148,0,117.8c0-24.5,8.1-48.5,22.9-68.1c-3.2-5.1-4.9-11-4.9-17.2
	C18,14.6,32.6,0,50.6,0c8.7,0,16.9,3.4,23.1,9.6c0.6,0.6,1.1,1.2,1.7,1.8C83,8.6,91,6.7,99.1,5.7c0.2-0.1,0.4-0.2,0.5-0.3l0.8-0.4
	c5.4-2.6,14.4-7.1,24.9-0.3c0.5,0.3,0.9,0.6,1.3,1c25.2,3,48,14.2,66.1,32.2c21.3,21.3,33.1,49.7,33.1,79.9
	c0,30.2-11.7,58.5-33.1,79.9c-4.1,4.1-8.6,8-13.3,11.4c0,0,0,0,0,0.1c2.3,2.7,2,5.7,1.4,7.9c-0.4,1.3-0.6,5.6-0.3,11.5
	c0.2,4.3,0,10-0.1,12.1l0,0.4c-0.3,6.3-3.5,7.6-5.4,7.9c-4.9,0.6-6.5-4.6-7.1-6.6c-2-6.4-2.8-9.4-3.1-13.8c-0.4-4.5-0.9-7.7-1.3-9.6
	c-12.5,6.3-25.9,10.1-40,11.4c-0.7,3.4-3.5,6.2-8.1,8.1c-3.5,1.5-6.2,2-8.4,2.3c-1.4,0.2-2.8-0.2-3.8-1c-0.2,0-0.4,0-0.7,0
	c-3.5,4.6-8.5,9.8-14.8,10c-0.4,0-0.8,0-1.2,0.1C85.6,250,84.8,250,84,250z M74.1,233.9c0.6,0.8,2,2,4,3.6l0.4,0.3
	c3.1,2.4,4.3,2.3,7.2,2.1c0.4,0,0.9-0.1,1.4-0.1c0.7,0,3.4-0.7,8.4-7.7c0.8-1.1,2-1.9,3.4-2.1c1.8-0.3,5.6-0.8,8.5,0.4
	c1.1-0.3,2.4-0.7,4-1.3c0.7-0.3,1.3-0.6,1.6-0.8c-0.1-0.1-0.2-0.3-0.2-0.4c-0.8-1.5-0.7-3.3,0.1-4.8c0.9-1.5,2.4-2.4,4.1-2.5
	c16.3-0.6,31.8-5,45.9-12.9c2-1.1,4.5-0.7,6.1,0.9c-0.1-0.2-0.1-0.5-0.2-0.7c-0.4-2,0.4-4,2.1-5.2c5.3-3.6,10.2-7.7,14.8-12.3
	c19.4-19.4,30.2-45.3,30.2-72.8c0-27.5-10.7-53.3-30.2-72.8c-16.8-16.8-38.1-27-61.6-29.6c-1.1-0.1-2.2-0.6-3-1.4
	c-0.3-0.3-0.7-0.6-1.1-0.9c-5.4-3.5-9.6-1.8-15.1,0.9l-0.9,0.4c-0.3,0.2-0.7,0.4-1.2,0.6c-0.5,0.3-1.1,0.5-1.7,0.5
	c-8.8,1-17.5,3.2-25.7,6.4c-2.2,0.9-4.7,0.1-6-1.9c-0.8-1.2-1.8-2.4-2.9-3.5c-4.3-4.3-9.9-6.6-16-6.6C38.1,10,28,20.1,28,32.6
	c0,5.2,1.7,10.1,5,14.2c1.5,1.8,1.5,4.5,0,6.3c-14.8,18.3-23,41.3-23,64.8c0,27.5,10.7,53.4,30.2,72.8c9.4,9.4,20.4,16.9,32.5,22
	c2.1,0.9,3.3,3,3,5.2c-0.6,4.7,0.2,7.3,0.5,7.8c1.4,2.1,1,4.9-1,6.5c-0.5,0.4-0.7,0.6-0.8,0.7C74.3,233.3,74.3,233.6,74.1,233.9z
	 M114.4,230.1C114.4,230.1,114.5,230.1,114.4,230.1C114.5,230.1,114.4,230.1,114.4,230.1z"/>
<path class="st2" d="M220.9,117.8c0-28.8-11.2-55.9-31.6-76.3c-17.6-17.6-40.2-28.4-64.6-31c-0.6-0.6-1.2-1.1-1.9-1.5
	c-8.6-5.6-15.9-1.4-20.9,1c-0.4,0.2-0.8,0.4-1.3,0.6c-9.4,1.1-18.5,3.4-27,6.7c-1-1.5-2.2-2.9-3.5-4.2C64.9,7.9,58,5,50.6,5
	C35.4,5,23,17.4,23,32.6c0,6.4,2.2,12.4,6.1,17.3C14,68.5,5,92.1,5,117.8c0,28.8,11.2,55.9,31.6,76.3c10,10,21.5,17.7,34.1,23.1
	c-0.7,5.7,0.2,9.6,1.3,11.2c-1.6,1.3-2.3,2.2-2.5,3.7c-2.5,3.4,3.6,7.8,6.1,9.7c5.1,3.9,7.8,3.3,11.8,3.1c4.9-0.2,9.6-6,12.3-9.8
	c5.3-0.8,6.3,0.1,6.5,0.8c1.7-0.2,4-0.7,7.2-2c7.2-3,5.2-6.8,4.4-7.4c-0.2-0.2-0.4-0.4-0.5-0.7c17.1-0.7,33.5-5.3,48.2-13.5
	c0.5,0.6,1.1,1.2,1.6,2c1.6,2.3,2.4,9.9,2.8,13.8c0.3,3.9,1,6.6,2.9,12.8c1.9,6.2,2.7,1.7,2.8,0c0.1-1.7,0.4-7.7,0.2-12
	c-0.2-4.3-0.3-10.6,0.5-13.3c0.8-2.7-0.7-3.3-1.1-3.8c-0.4-0.5,0-0.7-1.1-4.1c-0.1-0.2-0.1-0.4-0.2-0.6c5.5-3.8,10.7-8.1,15.5-12.9
	C209.7,173.8,220.9,146.7,220.9,117.8"/>
<path class="st3" d="M87.4,218.6c4-0.2,9.6-1.4,12.1-2.5c0.3,0.1,0.9,0.4,1.7,0.8c0.3-2.7-1.4-8.2-2.3-10.8c-0.6-1.7-1.2-2.8-2-4.6
	c-2.3-0.4-5-1.6-7.1-2.5c0,1.6,0.3,5.7,0.6,8.5c-0.8,0.1-2,0.2-3.4,0.2C87.3,210.6,87.6,216.1,87.4,218.6"/>
<path class="st4" d="M87.4,218.6c4-0.2,9.6-1.4,12.1-2.5c0.3,0.1,0.9,0.4,1.7,0.8c0.3-2.7-1.4-8.2-2.3-10.8c-0.6-1.7-1.2-2.8-2-4.6
	c-2.3-0.4-5-1.6-7.1-2.5c0,1.6,0.3,5.7,0.6,8.5c-0.8,0.1-2,0.2-3.4,0.2C87.3,210.6,87.6,216.1,87.4,218.6z"/>
<path class="st3" d="M162.9,209.7c-0.8-0.8,0.9-3.1,1.7-7.4c0.8-4.3,0.8-11.6-2.3-15.7c-1.5-2-2.3-3.2-2.6-4.1
	c-9.9,7.2-21.2,12-33.2,14c-0.1,0.3-0.3,0.5-0.4,0.6c-1.8,2.3-5.2,5.5-7.7,6.8c-2.5,1.3-5.4,2.3-7,2.8c-0.3,2.7-0.8,8.6-0.1,10.7
	c0.2,0.8,3.3,2.6,4.4,4.6c0.1,0.2,0.2,0.4,0.3,0.6c17-0.5,33-5.1,47.1-12.8C163.1,209.9,163,209.8,162.9,209.7"/>
<path class="st4" d="M162.9,209.7c-0.8-0.8,0.9-3.1,1.7-7.4c0.8-4.3,0.8-11.6-2.3-15.7c-1.5-2-2.3-3.2-2.6-4.1
	c-9.9,7.2-21.2,12-33.2,14c-0.1,0.3-0.3,0.5-0.4,0.6c-1.8,2.3-5.2,5.5-7.7,6.8c-2.5,1.3-5.4,2.3-7,2.8c-0.3,2.7-0.8,8.6-0.1,10.7
	c0.2,0.8,3.3,2.6,4.4,4.6c0.1,0.2,0.2,0.4,0.3,0.6c17-0.5,33-5.1,47.1-12.8C163.1,209.9,163,209.8,162.9,209.7z"/>
<path class="st3" d="M187.1,43.7c-16.5-16.4-37.4-26.8-60.1-29.8c1.8,3.6,2.1,7.7,2.3,10.4c3.3-1.4,5.8-2.2,7.1-4.3
	c1.3-2.2,3.2-1.8,4.3-0.2c1.2,1.6,1.2,3.6-1.9,5.5c-3.1,1.9-5.3,2.8-6,3.2c-0.7,0.3-0.1,0.9,0.7,2.2c0.7,1.3,2.7,4.3,3,10.8
	c0,0.1,0,0.1,0,0.2c12.3,3.8,23.5,10.5,32.8,19.8c15.1,15.1,23.4,35.1,23.4,56.4c0,12.2-2.7,24-7.9,34.7c0.7,0.4,1.6,2.8,1.9,6
	c0.2,1.7,0.1,3.5-0.4,4.7c-0.5,1.2-4.4,7.1-6.4,8.8c-0.7,0.7-2.5,0.6-3.3-0.5c-0.8-1.1-0.8-0.5-1.4,0.1c-0.6,0.6-2.6,3.5-3.1,4.3
	c-0.5,0.8-2.2,1.5-1.1,4.5c1.1,3,2.3,5.3,1.9,6.9c-0.4,1.7-0.6,2.2,1.7,4.1c2.3,1.9,2.2,4.3,1.2,5.8c-0.6,0.9-1.6,3.4-2,6
	c26.6-19,44.1-50.2,44.1-85.4C217.8,89.8,206.9,63.5,187.1,43.7"/>
<path class="st4" d="M187.1,43.7c-16.5-16.4-37.4-26.8-60.1-29.8c1.8,3.6,2.1,7.7,2.3,10.4c3.3-1.4,5.8-2.2,7.1-4.3
	c1.3-2.2,3.2-1.8,4.3-0.2c1.2,1.6,1.2,3.6-1.9,5.5c-3.1,1.9-5.3,2.8-6,3.2c-0.7,0.3-0.1,0.9,0.7,2.2c0.7,1.3,2.7,4.3,3,10.8
	c0,0.1,0,0.1,0,0.2c12.3,3.8,23.5,10.5,32.8,19.8c15.1,15.1,23.4,35.1,23.4,56.4c0,12.2-2.7,24-7.9,34.7c0.7,0.4,1.6,2.8,1.9,6
	c0.2,1.7,0.1,3.5-0.4,4.7c-0.5,1.2-4.4,7.1-6.4,8.8c-0.7,0.7-2.5,0.6-3.3-0.5c-0.8-1.1-0.8-0.5-1.4,0.1c-0.6,0.6-2.6,3.5-3.1,4.3
	c-0.5,0.8-2.2,1.5-1.1,4.5c1.1,3,2.3,5.3,1.9,6.9c-0.4,1.7-0.6,2.2,1.7,4.1c2.3,1.9,2.2,4.3,1.2,5.8c-0.6,0.9-1.6,3.4-2,6
	c26.6-19,44.1-50.2,44.1-85.4C217.8,89.8,206.9,63.5,187.1,43.7z"/>
<path class="st3" d="M66.6,195.3c-0.3-2.8-0.7-7.9,1.3-11.6c-4-2.8-7.8-5.9-11.4-9.4c-15.1-15.1-23.4-35.1-23.4-56.4
	c0-22.8,9.6-43.4,25-58c0.1-0.3,0.3-0.6,0.6-0.9c-2.6,0.8-5.3,1.2-8.2,1.2c-7.3,0-14.3-2.9-19.5-8c-15,18.6-23.1,41.5-23.1,65.6
	c0,28,10.9,54.4,30.7,74.2c9.5,9.5,20.5,16.9,32.5,22.1c0.5-2.2,1.2-4.7,2.2-7.3c0.9-2.4-0.5-8-2.8-10.9
	C69.3,195.5,67.7,195.4,66.6,195.3"/>
<path class="st4" d="M66.6,195.3c-0.3-2.8-0.7-7.9,1.3-11.6c-4-2.8-7.8-5.9-11.4-9.4c-15.1-15.1-23.4-35.1-23.4-56.4
	c0-22.8,9.6-43.4,25-58c0.1-0.3,0.3-0.6,0.6-0.9c-2.6,0.8-5.3,1.2-8.2,1.2c-7.3,0-14.3-2.9-19.5-8c-15,18.6-23.1,41.5-23.1,65.6
	c0,28,10.9,54.4,30.7,74.2c9.5,9.5,20.5,16.9,32.5,22.1c0.5-2.2,1.2-4.7,2.2-7.3c0.9-2.4-0.5-8-2.8-10.9
	C69.3,195.5,67.7,195.4,66.6,195.3z"/>
<path class="st3" d="M94.5,14.6c-6.6,1.2-13.1,3-19.3,5.4c2,3.9,3.1,8.2,3.1,12.7c0,5.9-1.9,11.6-5.3,16.3c5.8-3.4,12-6,18.6-7.9
	c0.4-0.4,0.9-0.8,1.3-1.2c-2.4-4-5.7-10.4-2.8-19.1C90.7,18.3,92.5,16.2,94.5,14.6"/>
<path class="st4" d="M94.5,14.6c-6.6,1.2-13.1,3-19.3,5.4c2,3.9,3.1,8.2,3.1,12.7c0,5.9-1.9,11.6-5.3,16.3c5.8-3.4,12-6,18.6-7.9
	c0.4-0.4,0.9-0.8,1.3-1.2c-2.4-4-5.7-10.4-2.8-19.1C90.7,18.3,92.5,16.2,94.5,14.6z"/>
<path class="st1" d="M136.4,46.2c2.3,1.2,4.9,3.7,3.9,8.4c-0.4,1.9-2,3.8-2.2,4.5c-0.3,1.3-2.9,3.4-3.7,5c-0.8,1.7-1,3.1-0.7,3.8
	c0,0,0,0,0,0c1.3,1.3,4.3,2.9,6,3.5c1.3,0.5,1.2,0.8,0.7,1.7c0.9,0.1,1.4,0.7,2.2,1.7c0.9,1.1,3.3,0.4,4.8-0.3
	c1.5-0.8,3.4-1,4.9,0.8c1.5,1.8,3.8,5.3,4.8,8.4c1.1,3.2,2.3,5.8,2.6,6.3c0.3,0.5-1.2,9.7-1.6,13.3c-0.4,3.7-0.8,5.3-0.8,5.8
	c-0.1,0.6,2.3-2.1,2.4,1.1c0.1,2.5,1.2,10.6,2.6,16.6c0.3,1.5,0.7,2.9,1.1,4c1,0.2,1.8,2.2,2.4,5.3c0.6,3.1,1.8,5,1.9,6.5
	c0.1,1.5,0.5,1.8,1,2c0.5,0.2,0.3,1-1.2,2.8c0.3,0.2,0.8,0.7,1.2,1.1c0.4-0.4,1.6-1.8,1.6-1.8s4.6,1.8,5.6,2.2
	c1,0.3,2.2-2.1,5.2-0.8c0.8,0.4,1.7,1.5,2.4,2.6c4.7-10,7.3-21.1,7.3-32.9c0-20.8-8.1-40.4-22.8-55.1c-9-9-19.8-15.5-31.5-19.2
	C136.5,44.7,136.4,45.8,136.4,46.2"/>
<path class="st1" d="M160.5,177.4c-1.2-0.6-1.9,0.3-2.5-4.3c-0.2-1.3-1.3-3.1-2.1-3.9c-0.8-0.8-0.9-2.4-0.5-3.8
	c0.7-2.1,0.8-4,0.7-5.7c-0.1-1.7,0.3-3.8,2.6-4.8c-0.8-0.9-1.3-2.1-1.5-3c-3.4-1.1-4.1-1.2-4.8-2.9c-1.2-2.8-1.9-6.8-2.2-9
	c-0.2-1.1-0.3-2.1-0.3-3c-1.1-2.1-3.5-6.7-5.4-10.1c-0.7-1.3-1.3-2.4-1.8-3.2c-1.7-2.9,0-6.8,0.8-9c0.8-2.3,1.5-4.3,0.7-6.5
	c-0.7-2.3-0.7-2.8-0.9-3.7s-0.9-2.1-1.9,1.1c-1,3.2-2.9,7.8-4,12.7c-0.6,2.8-1,5.7-0.9,8.6c0.1,2.2,0.5,4.4,1.5,6.3
	c2.2,4.5,4.8,8.7,4.4,11.2c-0.3,2.5-0.9,2.6-0.9,3c-0.4,4.8-2.5,14.1-3.6,16.8c-1.1,2.7-5.3,12.3-6.3,16.4
	c-0.7,3.1-2.6,9.8-4.3,13.8c12.5-2.4,23.9-7.7,33.6-15.3C161.3,178.4,161.2,177.8,160.5,177.4"/>
<path class="st1" d="M67.8,68c0.9,1.2,2.1,2.3,3.7,3.1c4.1,2.1,4.9,3.6,4.9,7.2c0,3.6,0.7,10.9,1.8,12.2c0.8-0.8,1.6-1.8,1.8-2.2
	c1.2,2.2,3.5,6.2,7.3,8.7c0.3,0.2,0.1,1.1,0.8,1.3c1.3,0.3,9.3,1.6,9.6,3.3c1.7-1.7,4.3-5.8,4.8-7.3c0.5-1.4,3.4-5.9,5.6-8.4
	c0-1,0-1.6,0.1-1.8c-0.6,0.5-1.5,1.8-2.8,2.3c-1.3,0.6-6,2.6-9.3,4.3c-1.2,0.6-3.3,1.3-4.1-4.8c-0.8-6.1,0-9.3,0.6-10.7
	c0.6-1.4,1.7-2.7,3.8-2.1c2.1,0.6,5.4,1.8,6.3,1.8c0.2-0.7,0.8-1.9-1.5-2.2c-1.6-0.2-5.8-1.4-8.2-4.6c-1-1.3-1.6-2.9-1.7-5
	c-4.8,0.8-15.7,2.2-18.1,2.8c-2.4,0.6-4.5,1.1-5.3-4.4c-0.3-2.3-0.9-5.6,0.8-4.4c1.3-1,3.2-2.2,6.4-1.7c0.6,0.1,1.3,0.6,1.6,1.1
	c0.2,0.8-0.2,2.1-0.6,3.4c-0.7,2.2-2.1,3.8,2.4,2.8c4.8-1.1,10.8-2,12.4-2.3c0.2-1.6,1.5-4.1,3.1-6c1.6-1.8,1.8-3.3,1.9-3.9
	c0.1-0.6-0.5-0.7-1.3,0c-0.9,0.8-3.7,2.5-6.3,1.8c-1-0.3-2.3-2.2-2.9-3.3c0.5-1.1,1.9-3.1,3.6-5.1c-8.9,2.8-17.2,7.3-24.6,13.2
	c0,0.9,0.1,3.1,0.7,5.4C65.6,63.9,66.3,66,67.8,68"/>
<path class="st1" d="M73.6,181.9c3.4-1.3,6.1-1.3,8.8,2.3c0.8,1,1.3,3.9,7.8,1.3c-3.4-4.1-5.5-8.9-7.3-15.4
	c-3-10.3-9.6-21.9-7.2-27.3c-1.4-1.3-3.1-6.5-4.8-5.9c-1.2,0.4-2.8,0.4-1.5-3.5c0.6-1.8,1.6-3.9,3.5-6.5c2.3-3.1,5.9-6.9,11.7-11.4
	c0.5-0.4,0.6-0.8,0.3-1.1c-0.6-0.6-1.2-1.3-1.8-1.6c-0.6-0.3-1.2-0.2-1.7,0.3c-0.5,0.5-1.3,1.1-1.8,1.4c-0.5,0.3-4.5-3.6-6.6-6.4
	c-2.1-2.8-4.3-3.8-4.9-4.1c0.8-0.9,2.7-2.9,2-2.7c-1.3,0.4-3.4,0.7-5.7-1.7c-2.8-2.9-1.7-4.4-2.3-4.8c-0.6-0.4-3.6,0.2-5.8-3.3
	c-2.3-3.5-3.2-5-1.3-7.5c0.9-1.3,1.3-1.8,1-3.4c-0.2-1.6,0-2.6,2.1-4.6c2.1-2,3.3-3.8,4.3-3.7c0.7,0.1-1.4-2.5-2.7-4.5
	c-0.3-0.5-0.6-1-0.8-1.4c-0.3-0.8-0.9-2.2-1-3.7C43.1,77.6,35,97.1,35,117.9c0,20.8,8.1,40.4,22.8,55.1c3.5,3.5,7.2,6.5,11.1,9.2
	C70.7,180.3,72.7,181.1,73.6,181.9"/>
<path class="st5" d="M29.2,17.4c6.8,1.8,12,7.3,14.2,10.4c0.6,0.8,1.2,0.7,1.4,0.1c0.5-1.2,1.5-5.3,1.5-8.3c0-7,1-9.8,2.7-13
	C40.9,6.9,33.7,11.1,29.2,17.4"/>
<path class="st6" d="M29.2,17.4c6.8,1.8,12,7.3,14.2,10.4c0.6,0.8,1.2,0.7,1.4,0.1c0.5-1.2,1.5-5.3,1.5-8.3c0-7,1-9.8,2.7-13
	C40.9,6.9,33.7,11.1,29.2,17.4z"/>
<path class="st5" d="M25.1,38.9C38,40,42,32.8,42.8,31.8c0.8-1.1-0.2-1.8-0.6-2.3c-2.2-3.1-7.2-8.6-14-10.4c-2.4,4-3.8,8.6-3.8,13.5
	C24.4,34.8,24.6,36.9,25.1,38.9"/>
<path class="st6" d="M25.1,38.9C38,40,42,32.8,42.8,31.8c0.8-1.1-0.2-1.8-0.6-2.3c-2.2-3.1-7.2-8.6-14-10.4c-2.4,4-3.8,8.6-3.8,13.5
	C24.4,34.8,24.6,36.9,25.1,38.9z"/>
<path class="st5" d="M76.1,38.4c-5.4-2.3-11.9-0.2-16.4,3.8c-4.6,4-6.9,7.1-8.5,16.6c-0.2,0-0.4,0-0.6,0c-6.8,0-13-2.6-17.6-6.8
	c7.8-2,14.5-5.6,21.9-12.6c7.4-7,11.1-15.2,12.1-19s-0.4-1.6-1.2,0.2c-1.2,2.7-5,10-12.6,17.1c-7.6,7.1-13.4,10.6-21.4,13.3
	c-2.6-2.7-4.7-6-6-9.7c2.7,0.2,11.1-0.8,15.3-4.3c5.5-4.5,6.2-9.9,6.9-17.6c0.8-7.7,1.9-10,3.7-12.9c13.9,0.6,25,12.1,25,26.2
	C76.7,34.6,76.5,36.5,76.1,38.4"/>
<path class="st6" d="M76.1,38.4c-5.4-2.3-11.9-0.2-16.4,3.8c-4.6,4-6.9,7.1-8.5,16.6c-0.2,0-0.4,0-0.6,0c-6.8,0-13-2.6-17.6-6.8
	c7.8-2,14.5-5.6,21.9-12.6c7.4-7,11.1-15.2,12.1-19s-0.4-1.6-1.2,0.2c-1.2,2.7-5,10-12.6,17.1c-7.6,7.1-13.4,10.6-21.4,13.3
	c-2.6-2.7-4.7-6-6-9.7c2.7,0.2,11.1-0.8,15.3-4.3c5.5-4.5,6.2-9.9,6.9-17.6c0.8-7.7,1.9-10,3.7-12.9c13.9,0.6,25,12.1,25,26.2
	C76.7,34.6,76.5,36.5,76.1,38.4z"/>
<path class="st5" d="M75.4,41c-1.3-1.8-5.7-2.6-12.8,1.8c-0.7,0.4-1.1,0.7-0.3,1.5c1.5,1.5,3.8,4.3,5.3,8.2
	C71.1,49.5,73.8,45.5,75.4,41"/>
<path class="st6" d="M75.4,41c-1.3-1.8-5.7-2.6-12.8,1.8c-0.7,0.4-1.1,0.7-0.3,1.5c1.5,1.5,3.8,4.3,5.3,8.2
	C71.1,49.5,73.8,45.5,75.4,41z"/>
<path class="st5" d="M65.5,54.1c-1.5-3.7-2.8-6.3-4.2-8.2c-0.8-1-0.9-1.4-2.3-0.2c-3.9,3.5-5.5,8.8-6.3,12.9
	C57.4,58.3,61.8,56.7,65.5,54.1"/>
<path class="st6" d="M65.5,54.1c-1.5-3.7-2.8-6.3-4.2-8.2c-0.8-1-0.9-1.4-2.3-0.2c-3.9,3.5-5.5,8.8-6.3,12.9
	C57.4,58.3,61.8,56.7,65.5,54.1z"/>
<path class="st7" d="M97.6,218.2c0.5-0.2,1.3-0.6,1.6-0.3c0.3,0.3,2.3,1.7,3.6,2.8c1.3,1.1,1.7,1.4,0.7,2c-1,0.6-1.9,1.2-1.8,0.7
	c0.2-0.5,0.4-1.3-0.3-1.9c-0.7-0.7-2.3-1.9-3-2.5C98.1,218.5,97.6,218.2,97.6,218.2"/>
<path class="st8" d="M97.6,218.2c0.5-0.2,1.3-0.6,1.6-0.3c0.3,0.3,2.3,1.7,3.6,2.8c1.3,1.1,1.7,1.4,0.7,2c-1,0.6-1.9,1.2-1.8,0.7
	c0.2-0.5,0.4-1.3-0.3-1.9c-0.7-0.7-2.3-1.9-3-2.5C98.1,218.5,97.6,218.2,97.6,218.2z"/>
<path class="st7" d="M92.9,219.6c-0.4,0.4-0.5,1,0,1.5c0.5,0.5,3.3,2.8,3.8,3.3s1.1,0.6,1.9,0.5c0.8-0.2-0.9,0.9-1.5,1
	c-0.6,0.1-1.3,0.1-2-0.5c-0.7-0.6-4.4-4.2-5.2-4.9c-0.8-0.7,0.2-0.7,0.9-0.8C91.4,219.7,92,219.7,92.9,219.6"/>
<path class="st8" d="M92.9,219.6c-0.4,0.4-0.5,1,0,1.5c0.5,0.5,3.3,2.8,3.8,3.3s1.1,0.6,1.9,0.5c0.8-0.2-0.9,0.9-1.5,1
	c-0.6,0.1-1.3,0.1-2-0.5c-0.7-0.6-4.4-4.2-5.2-4.9c-0.8-0.7,0.2-0.7,0.9-0.8C91.4,219.7,92,219.7,92.9,219.6z"/>
<path class="st7" d="M88.3,198.3c0.3,0.8,0.3,1.5-0.8,1.3c-1.2-0.2-6.1-0.6-7.5-0.6c-0.3,0-0.2-0.8-0.7-0.5
	c-0.5,0.3-0.3,1.1-0.3,1.9s-0.1,1.3,0,1.9c0,0.9,0.6,2.1,2.8,2.2c2.3,0.1,4.4-0.1,5-0.6c0.7-0.5,0-1.2-0.7-1.2c-0.6,0-4.4,0.3-5.2,0
	c-0.8-0.3-1.3-1.2-0.8-1.6c0.7-0.5,2,0.1,3.3,0.1c1.3,0,2.7-0.3,3-0.1c0.3,0.2,0.8,0.1,0.8,1.7c0,0.3,0.8,0.5,1.2,0.5
	s0.5,0.6,0.5,1.5c0,0.8,0,1-1.5,1s-8-0.1-8.9-0.1c-0.4,0-0.4-0.3-0.5-1c0-0.8-0.3-6-0.4-6.4c-0.1-0.4,1-0.5,1.9-0.3
	c0.9,0.2,2,0.3,3.4,0.4c1.4,0.1,3.6,0.3,3.6,0.3s1.1,0.1,1.2-0.2C87.8,198.1,88.2,198,88.3,198.3"/>
<path class="st8" d="M88.3,198.3c0.3,0.8,0.3,1.5-0.8,1.3c-1.2-0.2-6.1-0.6-7.5-0.6c-0.3,0-0.2-0.8-0.7-0.5
	c-0.5,0.3-0.3,1.1-0.3,1.9s-0.1,1.3,0,1.9c0,0.9,0.6,2.1,2.8,2.2c2.3,0.1,4.4-0.1,5-0.6c0.7-0.5,0-1.2-0.7-1.2c-0.6,0-4.4,0.3-5.2,0
	c-0.8-0.3-1.3-1.2-0.8-1.6c0.7-0.5,2,0.1,3.3,0.1c1.3,0,2.7-0.3,3-0.1c0.3,0.2,0.8,0.1,0.8,1.7c0,0.3,0.8,0.5,1.2,0.5
	s0.5,0.6,0.5,1.5c0,0.8,0,1-1.5,1s-8-0.1-8.9-0.1c-0.4,0-0.4-0.3-0.5-1c0-0.8-0.3-6-0.4-6.4c-0.1-0.4,1-0.5,1.9-0.3
	c0.9,0.2,2,0.3,3.4,0.4c1.4,0.1,3.6,0.3,3.6,0.3s1.1,0.1,1.2-0.2C87.8,198.1,88.2,198,88.3,198.3z"/>
<path class="st9" d="M58.3,83.4c-1.1-0.3-1.9,0.9-2.4,1.9c-0.5,1-1.1,2.1,0.5,4.3s2.6,3.6,5.3,3.4c1.3-0.1,2.5-1.1,2.9-1.7
	c0.4-0.6,0.5,0.4-0.2,1.4c-0.7,1-1.2,3.3,0.1,4.9c1.3,1.6,3.8,2.9,7.3,0.9c3.4-2,4.8-4.4,5.4-5.5c0.6-1.1,0.6-1.6,0-2.3
	c-0.6-0.7-2.5-3.8-2.9-10.1c-0.2-3.8,0.4-6.2-1.9-7.5c-2.3-1.3-7.7-4.5-8.3-10.7c-0.2-2.3-0.1-5.9-2.4-4c-2.3,1.9-2.3,3.3-2.6,4.7
	C58.8,64.7,60,66.6,61,68c1,1.3,2.2,4.3,3.1,5c0.9,0.8,1.5,1.3,2.3,1.4c0.8,0.1,3.8,0.1,4.5,0.3c0.8,0.3,1.2,1.2-0.7,1.2
	c-1.8,0-4.7,0.5-5.9,0.7c-1.3,0.2-2.4,0.3-3,2.8c-0.6,2.5-1.4,5.4-1.5,6.3c-0.1,0.9-0.6,1.4-0.6,1.9s1,2.9,3.3,0.5
	c2.3-2.4,3.2-4.8,3.6-6c0.4-1.2,0.9-1,0.5,0.8c-0.4,1.8-0.5,6.4,0.3,8c0.9,1.7,2.8,3.5,5.3,2.3c0.5-0.2,1.3-0.7,2-0.6
	c0.7,0.1-0.1,1.3-0.7,1.8c-0.6,0.5-2.5,2.6-5.9-0.4c-0.8-0.8-2-2.4-2.3-4.5c-0.1-0.7-1-0.9-1.4-0.3c-0.4,0.6-2.7,2.7-4.3,1.2
	s-2.2-2.3-1.3-5.5C58.4,84.2,58.7,83.5,58.3,83.4"/>
<path class="st10" d="M58.3,83.4c-1.1-0.3-1.9,0.9-2.4,1.9c-0.5,1-1.1,2.1,0.5,4.3s2.6,3.6,5.3,3.4c1.3-0.1,2.5-1.1,2.9-1.7
	c0.4-0.6,0.5,0.4-0.2,1.4c-0.7,1-1.2,3.3,0.1,4.9c1.3,1.6,3.8,2.9,7.3,0.9c3.4-2,4.8-4.4,5.4-5.5c0.6-1.1,0.6-1.6,0-2.3
	c-0.6-0.7-2.5-3.8-2.9-10.1c-0.2-3.8,0.4-6.2-1.9-7.5c-2.3-1.3-7.7-4.5-8.3-10.7c-0.2-2.3-0.1-5.9-2.4-4c-2.3,1.9-2.3,3.3-2.6,4.7
	C58.8,64.7,60,66.6,61,68c1,1.3,2.2,4.3,3.1,5c0.9,0.8,1.5,1.3,2.3,1.4c0.8,0.1,3.8,0.1,4.5,0.3c0.8,0.3,1.2,1.2-0.7,1.2
	c-1.8,0-4.7,0.5-5.9,0.7c-1.3,0.2-2.4,0.3-3,2.8c-0.6,2.5-1.4,5.4-1.5,6.3c-0.1,0.9-0.6,1.4-0.6,1.9s1,2.9,3.3,0.5
	c2.3-2.4,3.2-4.8,3.6-6c0.4-1.2,0.9-1,0.5,0.8c-0.4,1.8-0.5,6.4,0.3,8c0.9,1.7,2.8,3.5,5.3,2.3c0.5-0.2,1.3-0.7,2-0.6
	c0.7,0.1-0.1,1.3-0.7,1.8c-0.6,0.5-2.5,2.6-5.9-0.4c-0.8-0.8-2-2.4-2.3-4.5c-0.1-0.7-1-0.9-1.4-0.3c-0.4,0.6-2.7,2.7-4.3,1.2
	s-2.2-2.3-1.3-5.5C58.4,84.2,58.7,83.5,58.3,83.4z"/>
<path class="st9" d="M60,78.7c-0.4,1.1-0.7,2.5-0.8,3c-0.2,0.5-0.9,1.6-1.6,0.2c-0.7-1.4-0.6-2.5,0.4-3.6c0.3-0.3,0.8-1,1.2-0.7
	C59.5,78,60.1,78.5,60,78.7"/>
<path class="st10" d="M60,78.7c-0.4,1.1-0.7,2.5-0.8,3c-0.2,0.5-0.9,1.6-1.6,0.2c-0.7-1.4-0.6-2.5,0.4-3.6c0.3-0.3,0.8-1,1.2-0.7
	C59.5,78,60.1,78.5,60,78.7z"/>
<path class="st9" d="M63.7,74.9c-0.7,0.3-2.2,0.3-2.7,1.5c-0.3,0.8-1.7-0.1-1-1c0.7-0.9,1.2-0.8,1.6-1.1c0.4-0.3,0.6-1,1.4-0.6
	C63.9,74.1,64.1,74.7,63.7,74.9"/>
<path class="st10" d="M63.7,74.9c-0.7,0.3-2.2,0.3-2.7,1.5c-0.3,0.8-1.7-0.1-1-1c0.7-0.9,1.2-0.8,1.6-1.1c0.4-0.3,0.6-1,1.4-0.6
	C63.9,74.1,64.1,74.7,63.7,74.9z"/>
<path class="st9" d="M118.7,33.6c-2.3,0.3-4.5,1.7-6.7,3.2c-2.2,1.5-10,8.1-11.8,9.4c1.9,1,2.4,3,1.8,6.3c-0.1,0.7,0,1,0.5,0.5
	c0.5-0.5,2.8-3,2.8-5c-0.1-2-1-3.2-1.2-3.4c-0.2-0.3,0.7-1.3,1.6,0.8c0.9,2.1,0.7,5-2.1,8.3c-2.8,3.3-4.9,3.2-6.1,3.8
	c-1.2,0.6-2.3,1.5-1.3,3.3c1.1,1.8,3.2,1.1,4,0.5c0.8-0.6,2-1.3,4.7-1c2.7,0.2,3.6-1.4,1.8-3.3c-0.6-0.6-2.1-1.9-0.2-1.9
	c1.1,0,2.4,2.4,3.2,3.1c0.8,0.7,2.4,0.9,4.7,1.1c2.3,0.2,5.8,1,5.8,3.2c0,1.3-0.7,1.7-1.7,0.7c-0.4-0.4-0.9,0.2-1.3,0.7
	c-1.4,1.4-5,5.3-7.6,5.9c-2.6,0.7-3.5-0.1-7-1.9c-3.4-1.8-6.6-3.7-7.5-4.3c-0.9-0.6-2.8-1.9-1.9,0.8c0.9,2.7,3.2,5.4,7.7,6.9
	c4.5,1.5,5.2,2,6.2,2.5c1,0.5,0.4,1-0.9,0.8c-1.2-0.1-2.4-1.2-1.4,1.1c1,2.3,2.5,4.7,7.1,4.1c4.6-0.6,4.7-1.6,7.6-6.3
	c0.5-0.8,1-0.3,0.7,1.9c2.3-1.1,3.5-1.4,4.8-1.8c1.3-0.3,4.8-1.5,7.1-5.8c1.2-2.2,1.8-2.9,1.6-5.2c-0.1-0.8,1.2-2.5,2.4-3.7
	c1.2-1.2,4.7-5.6,2.9-8.8s-4.7-1.6-6.1,0.8c-1.4,2.3-3,4.9-3.1,8.9c-1-0.3-2,0-2.5,0.8c-0.2,0.4-3.9-0.1-5.2,0.3
	c-1.2,0.3-1.7-0.4-0.3-2.2c1.3-1.8,6-8.1,5.8-12.9c-0.1-1.4,0.1-1.7,0.3-2.8c0.3-1.4,0.4-1.4-1.3-2.3c-1.1-0.6-1.2-2.3-1.4-3.7
	c-0.2-1.4-0.5-1.4-2.1-1.1C121.6,36.3,119.6,35.1,118.7,33.6"/>
<path class="st11" d="M118.7,33.6c-2.3,0.3-4.5,1.7-6.7,3.2c-2.2,1.5-10,8.1-11.8,9.4c1.9,1,2.4,3,1.8,6.3c-0.1,0.7,0,1,0.5,0.5
	c0.5-0.5,2.8-3,2.8-5c-0.1-2-1-3.2-1.2-3.4c-0.2-0.3,0.7-1.3,1.6,0.8c0.9,2.1,0.7,5-2.1,8.3c-2.8,3.3-4.9,3.2-6.1,3.8
	c-1.2,0.6-2.3,1.5-1.3,3.3c1.1,1.8,3.2,1.1,4,0.5c0.8-0.6,2-1.3,4.7-1c2.7,0.2,3.6-1.4,1.8-3.3c-0.6-0.6-2.1-1.9-0.2-1.9
	c1.1,0,2.4,2.4,3.2,3.1c0.8,0.7,2.4,0.9,4.7,1.1c2.3,0.2,5.8,1,5.8,3.2c0,1.3-0.7,1.7-1.7,0.7c-0.4-0.4-0.9,0.2-1.3,0.7
	c-1.4,1.4-5,5.3-7.6,5.9c-2.6,0.7-3.5-0.1-7-1.9c-3.4-1.8-6.6-3.7-7.5-4.3c-0.9-0.6-2.8-1.9-1.9,0.8c0.9,2.7,3.2,5.4,7.7,6.9
	c4.5,1.5,5.2,2,6.2,2.5c1,0.5,0.4,1-0.9,0.8c-1.2-0.1-2.4-1.2-1.4,1.1c1,2.3,2.5,4.7,7.1,4.1c4.6-0.6,4.7-1.6,7.6-6.3
	c0.5-0.8,1-0.3,0.7,1.9c2.3-1.1,3.5-1.4,4.8-1.8c1.3-0.3,4.8-1.5,7.1-5.8c1.2-2.2,1.8-2.9,1.6-5.2c-0.1-0.8,1.2-2.5,2.4-3.7
	c1.2-1.2,4.7-5.6,2.9-8.8s-4.7-1.6-6.1,0.8c-1.4,2.3-3,4.9-3.1,8.9c-1-0.3-2,0-2.5,0.8c-0.2,0.4-3.9-0.1-5.2,0.3
	c-1.2,0.3-1.7-0.4-0.3-2.2c1.3-1.8,6-8.1,5.8-12.9c-0.1-1.4,0.1-1.7,0.3-2.8c0.3-1.4,0.4-1.4-1.3-2.3c-1.1-0.6-1.2-2.3-1.4-3.7
	c-0.2-1.4-0.5-1.4-2.1-1.1C121.6,36.3,119.6,35.1,118.7,33.6z"/>
<path class="st9" d="M108.9,59.7c-0.5,1-1.7,2-4.6,1.7c-1.5-0.2-2.9-0.2-3.1,1c-0.2,0.8-0.8,0.8-1.8,0.7c-1,0-2-0.3-2,0
	c0,0.3,4.1,2.8,5.5,3.4c1.4,0.6,3.4,2.1,5,2c2.2-0.2,4.1-1.3,7.3-4.7c1.3-1.4,2.4-2.1,1.1-2.7c-0.8-0.4-1.7-0.5-2.8-0.5
	C112.3,60.6,109.9,60.5,108.9,59.7"/>
<path class="st11" d="M108.9,59.7c-0.5,1-1.7,2-4.6,1.7c-1.5-0.2-2.9-0.2-3.1,1c-0.2,0.8-0.8,0.8-1.8,0.7c-1,0-2-0.3-2,0
	c0,0.3,4.1,2.8,5.5,3.4c1.4,0.6,3.4,2.1,5,2c2.2-0.2,4.1-1.3,7.3-4.7c1.3-1.4,2.4-2.1,1.1-2.7c-0.8-0.4-1.7-0.5-2.8-0.5
	C112.3,60.6,109.9,60.5,108.9,59.7z"/>
<path class="st9" d="M93.4,59.8c-1.1,0-1.3-0.9-0.5-2.1s1.5-2.4,2.5-3.2c0.2,0.5,0.5,1.2,1,1.5c-0.7,0.7-1.5,1.6-1.4,3.3"/>
<path class="st11" d="M93.4,59.8c-1.1,0-1.3-0.9-0.5-2.1s1.5-2.4,2.5-3.2c0.2,0.5,0.5,1.2,1,1.5c-0.7,0.7-1.5,1.6-1.4,3.3L93.4,59.8
	z"/>
<path class="st2" d="M112.1,47.5c0.2-1.2,0-2.1-1.7-0.8c-1.6-1.2-3-2.6-3.5-2.9c-0.5-0.3-0.8-0.8-0.2-1.4c0.6-0.6,1.6,0.4,1.4-1.3
	c-0.1-0.6,1.3-0.2,1.6-0.4c0.3-0.2-0.2-1,1.4-0.6c0.5,0.1,0.3-0.8,1.3-0.7c1,0.2,1.5,0.5,1.7-0.3c0.2-0.8,0.4-1.3,1.7-0.5
	c0.9,0.5,1.2,0.2,1.3-0.2c0.1-0.4,0.9-0.2,1.6,0.3c0.7,0.4,2.5,1.3,4.5,3.7c0.5,0.6,0.7,1.2,0.4,1.3c-0.3,0.1-0.7,0-0.8,0.7
	c-0.1,0.7-0.4,1.3-0.8,0.5c-0.4-0.8-0.5,0.1-0.7-0.7c-0.3-0.8-0.7,0.3-0.9-0.2c-0.3-0.7-0.5,0.1-0.8-0.5c-0.1-0.3-0.9,0.4-1.2-0.1
	c-0.2-0.5-0.8,0.5-1.2,0c-0.4-0.5-0.4,0.6-1.1,0.3c-0.7-0.2-0.4,0.6-1,0.3s-0.5,0.8-1.1,0.7c-0.6-0.2-0.6,0.1-0.7,0.8
	c-0.1,0.7-0.4,3.5-0.4,4.1c0,0.7,1.4,0.5,3.5,0.2c2.1-0.3,5.8-1.4,7.7-3c0.8-0.6,1.4-0.6,1.5-0.4c0.1,0.2-0.2,0.9-0.8,1.3
	c-0.5,0.5-2,1.9-5.2,2.5c-3.2,0.6-5.9,1.1-6.4,1c-0.5-0.1,0.2,0.8,1.2,0.6c0.5-0.1,1.6,1.9,3.3,1.9c1.4,0,3.5-1.6,4.1-2
	c0.6-0.5,2.7-1.4,1.3,0c-1.4,1.4-2.9,3-4.4,3c-1.5,0-3.8-0.5-5.4-1.5c-1.6-1.1-2.2-1.7-1.9-3.3C112,48.2,112,47.9,112.1,47.5"/>
<path class="st11" d="M112.1,47.5c0.2-1.2,0-2.1-1.7-0.8c-1.6-1.2-3-2.6-3.5-2.9c-0.5-0.3-0.8-0.8-0.2-1.4c0.6-0.6,1.6,0.4,1.4-1.3
	c-0.1-0.6,1.3-0.2,1.6-0.4c0.3-0.2-0.2-1,1.4-0.6c0.5,0.1,0.3-0.8,1.3-0.7c1,0.2,1.5,0.5,1.7-0.3c0.2-0.8,0.4-1.3,1.7-0.5
	c0.9,0.5,1.2,0.2,1.3-0.2c0.1-0.4,0.9-0.2,1.6,0.3c0.7,0.4,2.5,1.3,4.5,3.7c0.5,0.6,0.7,1.2,0.4,1.3c-0.3,0.1-0.7,0-0.8,0.7
	c-0.1,0.7-0.4,1.3-0.8,0.5c-0.4-0.8-0.5,0.1-0.7-0.7c-0.3-0.8-0.7,0.3-0.9-0.2c-0.3-0.7-0.5,0.1-0.8-0.5c-0.1-0.3-0.9,0.4-1.2-0.1
	c-0.2-0.5-0.8,0.5-1.2,0c-0.4-0.5-0.4,0.6-1.1,0.3c-0.7-0.2-0.4,0.6-1,0.3s-0.5,0.8-1.1,0.7c-0.6-0.2-0.6,0.1-0.7,0.8
	c-0.1,0.7-0.4,3.5-0.4,4.1c0,0.7,1.4,0.5,3.5,0.2c2.1-0.3,5.8-1.4,7.7-3c0.8-0.6,1.4-0.6,1.5-0.4c0.1,0.2-0.2,0.9-0.8,1.3
	c-0.5,0.5-2,1.9-5.2,2.5c-3.2,0.6-5.9,1.1-6.4,1c-0.5-0.1,0.2,0.8,1.2,0.6c0.5-0.1,1.6,1.9,3.3,1.9c1.4,0,3.5-1.6,4.1-2
	c0.6-0.5,2.7-1.4,1.3,0c-1.4,1.4-2.9,3-4.4,3c-1.5,0-3.8-0.5-5.4-1.5c-1.6-1.1-2.2-1.7-1.9-3.3C112,48.2,112,47.9,112.1,47.5z"/>
<path class="st2" d="M136.4,52.7c-1,0.7-1.5,0.9-1.6,2.1c-0.1,1.2-0.3,3.2-0.8,3.3c-0.6,0.2-0.5-1.1-0.7-0.7c-0.2,0.6-1,0.3-1.2-0.2
	c-0.1-0.2-2.2-0.2-0.5-2.6c1.5-2.2,2.7-3.3,3.8-3.8C136.6,50.3,138.4,51.3,136.4,52.7"/>
<path class="st11" d="M136.4,52.7c-1,0.7-1.5,0.9-1.6,2.1c-0.1,1.2-0.3,3.2-0.8,3.3c-0.6,0.2-0.5-1.1-0.7-0.7
	c-0.2,0.6-1,0.3-1.2-0.2c-0.1-0.2-2.2-0.2-0.5-2.6c1.5-2.2,2.7-3.3,3.8-3.8C136.6,50.3,138.4,51.3,136.4,52.7z"/>
<path class="st9" d="M177.2,151.9c-0.4-1,0.3-2.6,2.4-1.5c2.1,1.2,3.7,2.2,2.2,6.8c-1.5,4.6-2.6,7.3-3.2,9.2
	c-0.6,1.9-2.8,4.3-2.1,1.1c0.8-3.3,1.2-7.2,0.8-9.2c-0.6-3.7,0.6-3.5,0.2-5.1C177.5,152.6,177.4,152.2,177.2,151.9"/>
<path class="st10" d="M177.2,151.9c-0.4-1,0.3-2.6,2.4-1.5c2.1,1.2,3.7,2.2,2.2,6.8c-1.5,4.6-2.6,7.3-3.2,9.2
	c-0.6,1.9-2.8,4.3-2.1,1.1c0.8-3.3,1.2-7.2,0.8-9.2c-0.6-3.7,0.6-3.5,0.2-5.1C177.5,152.6,177.4,152.2,177.2,151.9z"/>
<path class="st9" d="M185.1,155.8c0.6,1.8,1.3,5.9,0.2,7.6c-1,1.7-4.1,6.3-5.3,7.4c-1.2,1.2-2.1,0.7-1.3-0.6
	c0.8-1.3,1.8-2.9,1.8-3.5c0-0.6-0.1-1.3,0.9-3.2c1-1.9,2.8-8.3,2.9-8.8S185,155.3,185.1,155.8"/>
<path class="st10" d="M185.1,155.8c0.6,1.8,1.3,5.9,0.2,7.6c-1,1.7-4.1,6.3-5.3,7.4c-1.2,1.2-2.1,0.7-1.3-0.6
	c0.8-1.3,1.8-2.9,1.8-3.5c0-0.6-0.1-1.3,0.9-3.2c1-1.9,2.8-8.3,2.9-8.8S185,155.3,185.1,155.8z"/>
<path class="st9" d="M163.6,171.3c-0.5-1.5-0.8-3.7-1.6-4.9c0.7-1.8,2.9-6.8,6.6-8.3c0.4-0.2,0.7-0.6,0.5-0.9
	c-0.2-0.3,0.5-0.6,0.8,0.6c0.3,1.2,0.9,4.5,0.9,4.5c0.2,0.8-0.2,1.3-0.3,2.3c-0.2,1-0.6,3.3-0.3,4.4c0.3,1.2,0.7,2,3,1.5
	c1.2-0.3,1.1-0.6,1.4-1.6c0.3-1,1.3-3.8,1.6-5.4c0.3-1.6,0-5.5-0.3-6.5c-0.3-1,0.1-4.4-0.1-5c-0.3-0.7-0.4-1.7-2.5-2.3
	c-2.1-0.7-2.7-0.8-4.1,0.6c-1.4,1.4-1.9,2-2.6,2.7c-0.7,0.7-2.3,0.1-0.9-1.3c1.4-1.3,2.8-2.7,3.2-3.1l-0.4-1.1h-0.8
	c-2.3,2.3-5.3,3.6-7.3,4c-0.8,0.2-2.2,0.3-1.2,1.6c0.2,0.3,0.3,1.2,0.9,0.9c0.6-0.3,1.5-1.8,2.3-1.2c0.8,0.7-0.2,2.3-1.2,3
	c-1,0.8-2.1,1.5-2.8,1.9c-0.8,0.4-1.2,0.8-1.1,2.2c0.1,1.3,0.2,3.8-0.6,5.6c-0.8,1.8-0.3,2.3,0.3,3.6c0.7,1.3,1.8,2.3,2.1,4.3
	c0.3,2,0.5,2.5,1.8,2.3c1.3-0.2,1.8-0.8,2.3-1.6"/>
<path class="st10" d="M163.6,171.3c-0.5-1.5-0.8-3.7-1.6-4.9c0.7-1.8,2.9-6.8,6.6-8.3c0.4-0.2,0.7-0.6,0.5-0.9
	c-0.2-0.3,0.5-0.6,0.8,0.6c0.3,1.2,0.9,4.5,0.9,4.5c0.2,0.8-0.2,1.3-0.3,2.3c-0.2,1-0.6,3.3-0.3,4.4c0.3,1.2,0.7,2,3,1.5
	c1.2-0.3,1.1-0.6,1.4-1.6c0.3-1,1.3-3.8,1.6-5.4c0.3-1.6,0-5.5-0.3-6.5c-0.3-1,0.1-4.4-0.1-5c-0.3-0.7-0.4-1.7-2.5-2.3
	c-2.1-0.7-2.7-0.8-4.1,0.6c-1.4,1.4-1.9,2-2.6,2.7c-0.7,0.7-2.3,0.1-0.9-1.3c1.4-1.3,2.8-2.7,3.2-3.1l-0.4-1.1h-0.8
	c-2.3,2.3-5.3,3.6-7.3,4c-0.8,0.2-2.2,0.3-1.2,1.6c0.2,0.3,0.3,1.2,0.9,0.9c0.6-0.3,1.5-1.8,2.3-1.2c0.8,0.7-0.2,2.3-1.2,3
	c-1,0.8-2.1,1.5-2.8,1.9c-0.8,0.4-1.2,0.8-1.1,2.2c0.1,1.3,0.2,3.8-0.6,5.6c-0.8,1.8-0.3,2.3,0.3,3.6c0.7,1.3,1.8,2.3,2.1,4.3
	c0.3,2,0.5,2.5,1.8,2.3c1.3-0.2,1.8-0.8,2.3-1.6L163.6,171.3z"/>
<path class="st5" d="M164.1,175.1c-0.6,1-1.6,2.6-1.6,4c0,1.4-1.4,2.9-1.3,3.6c0.2,0.7,2,2.4,3.1,4.3c1.1,1.8,2.5,4.6,2.5,9.2
	s-1.5,10.8-1.7,11.7c-0.2,0.8-0.6,1.5,0.7,2.7c1.3,1.2,3.3,3.3,4,8.3c0.8,4.9,1.3,7.5,1.6,7.8c0.3,0.2,0.2,0.7,0.2,1.6
	s0.8,6.2,1.4,7.2c0.6,1,0.5-5.7,0.4-7.6s0.1-11.1,0.4-12.4c0.3-1.3,0.7-2.8-0.5-4.5c-1.2-1.7-3.2-4.6-1.7-9.4
	c1.5-4.8,3.9-4.8,3.2-6.7c-0.8-1.9-2.1-3.3-3.1-4.3c-1-1.1-0.2-3.7-0.3-4.8c-0.1-2-1.7-2.3-1.8-4.6c-0.2-2.3-0.3-4.1,1.3-6.3
	c1.7-2.3-0.6-2.2-1.3-3.6c-0.8-1.4-1.2-3.3-0.5-6.3c0.3-1.5,0.2-1.9-0.3-2.1c-0.4-0.2-2.2-0.5-2.2-0.5l-2.6,5.2
	c0.4,1,0.6,2.5,0.6,3.5"/>
<path class="st6" d="M164.1,175.1c-0.6,1-1.6,2.6-1.6,4c0,1.4-1.4,2.9-1.3,3.6c0.2,0.7,2,2.4,3.1,4.3c1.1,1.8,2.5,4.6,2.5,9.2
	s-1.5,10.8-1.7,11.7c-0.2,0.8-0.6,1.5,0.7,2.7c1.3,1.2,3.3,3.3,4,8.3c0.8,4.9,1.3,7.5,1.6,7.8c0.3,0.2,0.2,0.7,0.2,1.6
	s0.8,6.2,1.4,7.2c0.6,1,0.5-5.7,0.4-7.6s0.1-11.1,0.4-12.4c0.3-1.3,0.7-2.8-0.5-4.5c-1.2-1.7-3.2-4.6-1.7-9.4
	c1.5-4.8,3.9-4.8,3.2-6.7c-0.8-1.9-2.1-3.3-3.1-4.3c-1-1.1-0.2-3.7-0.3-4.8c-0.1-2-1.7-2.3-1.8-4.6c-0.2-2.3-0.3-4.1,1.3-6.3
	c1.7-2.3-0.6-2.2-1.3-3.6c-0.8-1.4-1.2-3.3-0.5-6.3c0.3-1.5,0.2-1.9-0.3-2.1c-0.4-0.2-2.2-0.5-2.2-0.5l-2.6,5.2
	c0.4,1,0.6,2.5,0.6,3.5L164.1,175.1z"/>
<path class="st1" d="M140,73.6c-2.1,2.7-5.3,9.7-6.8,14c-1.5,4.3-4.9,14.7-2.5,21.5c2.4,6.8,7.2,2.5,8.3-0.1c1.1-2.6,2.8-7,3.3-8.2
	c0.5-1.2,0.8-1.8,1.7,0.9c0.9,2.8,2.3,9.3,2.3,9.9c0,0.6-0.9,2.3-1.9,4.8c-1,2.6-1.6,4.4-0.6,6c1,1.6,4.9,8.3,6.2,11.3
	c0.8,1.8,1.4,2.1,3.4,1.6c2-0.5,6.8-2.2,8.3-2.8c1.4-0.7,0.7-1.8,0.3-3.3c-0.6-2.2-3.2-14.2-3.2-15.8c0-1.6,0.4-3.7-1.7-1.3
	c-0.8,0.8-1.8,0-1.5-1.2c0.2-1.2,2.8-17.4,2.9-19.4c-1.4-3.1-5.6-12.8-6.8-14.6c-1.2-1.8-1.6-1.8-3.3-0.9c-1.8,0.9-5.7,2.3-7.1-1
	c-0.2-0.6-0.7-1.9,0.3-2.1l-0.8-0.3C140.8,72.7,140.2,73.2,140,73.6"/>
<path class="st1" d="M161.8,133.6c-1.6,0.9-6.8,3.2-9,3.5c-2.2,0.3-1.7,0.9-1.3,2.6c0.4,1.7,1.7,6.7,2.3,8.4
	c0.7,1.8,1.6,1.7,3.3,1.7c2.7-0.1,7.2-1.3,10.4-4.3c-0.9-1.1-2.5-6.3-3-8.5C164.2,134.6,164.2,132.2,161.8,133.6"/>
<path class="st1" d="M114,85.4c-0.2,0.3-0.7,1.3-2.1,1.3c-1.3,0-2.4-0.4-3.3,0.8c-0.8,1.2-5.4,6.8-6.4,10.2c1,2.1,2.3,5.8,3.3,8.5
	c3.3-2.8,13.6-12.9,15.6-14.8c0.8-0.8,0.8-1.4-0.2-2.2c-1.1-0.8-5.1-3.3-5.8-3.7C114.5,85.1,114.2,85.1,114,85.4"/>
<path class="st1" d="M87.8,100.1c-0.6,2.6-1.9,7.1-4,10.6c0.8,1.3,1.5,2.5,2.5,2.9c2.3-1.7,6.8-5.8,8-7.3c1.3-1.5,2.8-3.8,2.8-4.3
	c0-0.5-0.6-0.7-1.3-0.5c-0.8,0.2-3.8-1.1-6.8-1.7C88.1,99.8,87.8,99.8,87.8,100.1"/>
<path class="st1" d="M85.9,97.6c-0.9-0.2-4.1-3.6-5.2-5.4c-1.1-1.8-1.3-1.7-1.7-0.3c-0.4,1.3-2,4.3-3.1,5.7
	c-1.1,1.4-3.9,5.1-4.7,5.9s0,1.2,0.7,1.8c0.7,0.7,4.1,4.8,4.8,5.8c0.8,0.9,1.6,2.6,3.6,0.8s4.4-5.2,5.5-8.6c1.1-3.4,1.2-5.2,2.1-5
	l0-0.7l-0.2-0.4l-0.5-0.4c0.1,0.3,0.1,0.5-0.1,0.9C87,97.8,86.3,97.7,85.9,97.6"/>
<path class="st1" d="M137,20.8c-2.2,2.7-6.8,5-14.3,6.9c-7.6,1.9-14.9,7.3-17.9,9.8c-3.1,2.6-10.9,9-14.6,10.5
	c-1,0.4-3.1,1.8-0.4,2.2c2,0.3,3.4-0.9,7.8-4.1c4.3-3.2,7.7-5.5,11-8.7c3.1-3,8.7-5.8,14.7-7.5c6-1.7,13.9-4.3,16.2-6.8
	c1.1-1.2,1.2-1.8,0.2-2.8C138.5,19.5,137.9,19.8,137,20.8"/>
<path class="st1" d="M98.7,47.1c-0.7,0.4-0.9,0.8-1.7,3.2c-0.8,2.4-0.7,3.8,0,4.4c0.5,0.4,1.1,0.5,1.5,0.5c0.3,0,0.5,0.1,0.5-0.6
	c0-0.7-0.1-3.7,2.2-5.1c0.4-0.2-0.1-2-1.5-1.8C99,47.7,99.5,46.6,98.7,47.1"/>
<path class="st1" d="M72.9,56.6c1.2,0,1.9,0,1.8,1.3c-0.1,1.3-0.7,3.2-0.8,4.4c-0.1,1.3-0.1,1.8,0.7,1.8c0.8,0-1.1,0.8-2.1,0.9
	c-1,0.2-2.5,0.7-3.3-3.5c-0.2-1.3-0.2-3.4-0.3-3.9C70,57.1,71.5,56.6,72.9,56.6"/>
<path class="st1" d="M95.1,60.2c0.3,1.7,0.8,1.7,0.4,1.9c-0.3,0.2-0.7-0.6-2-0.4c-1.3,0.2-11.8,1.8-12.6,1.9
	c-2.3,0.2-2.5-0.1-0.3-0.6c2.2-0.5,10.1-1.9,12.5-2.4"/>
<path class="st1" d="M82.4,187.8c1.1,0.7,3.7,1.4,8.1-0.4c4.4-1.8,9.3-0.6,10.1,2.6c0.8,3.2,0.8,7.3-0.6,9c-1.2,1.5-2.3,1.3-3.6,0.9
	c-2.4-0.8-8-3.3-9.6-4.1c-1.6-0.8-4.3-1.6-6.2-1.6c-0.8-1.6-0.7-4.3-0.2-5.3c0.5-1,0.5-2,0.9-1.8C81.8,187.4,82.4,187.8,82.4,187.8"
	/>
<path class="st1" d="M99.9,202.5c1.1,0,3,0.5,3.7,2.4c0.5,1.6,3.8,2,5.2,1.9c1.4-0.1,1.2,0.7,1.1,1.5c-0.1,0.8-0.3,3.3-0.3,4.3
	c0,1,0.2,4.5,0.4,5.2c0.2,0.7-0.4,1-1.2,1.3c-0.8,0.3-3.5,1.2-5.3-0.1c-0.9-0.7-2-1.6-0.9-1.7c1.1-0.1-1.3-9.5-2-11.2
	C99.9,204.6,98,202.5,99.9,202.5"/>
<path class="st1" d="M71.2,182.9c0.4,0.1,0.7,0.6,1,1.2c0.3,0.6,0.4,1.1-0.1,1.7c-0.9,1-2,5.6-1.8,8.8c-0.6-0.2-1.8-0.4-2.5-0.2
	c-0.2-1.8-0.1-7.6,0.8-9.4C69.4,183,70.2,182.5,71.2,182.9"/>
<path class="st1" d="M71.4,233.8c2.1,2.3,6,5.9,8.9,7.2c2.9,1.3,4.8,1.7,7.4,1.4c2.1-0.2,1.7,0.7,0,0.9s-5.5,0.2-8-1.1
	c-2.5-1.3-6.5-3.8-9-7.4C70.1,233.9,70.7,233,71.4,233.8"/>
<path class="st1" d="M114.9,227.9c-1.7,0.8-4.8,2.3-7.8,3.1c0.3,1.5,0.4,2.2,0.4,2.6c1.8,0,5.4-1.3,8.3-3.1c0.7-0.4,0.9-0.9,0.7-1.5
	C116.1,228.4,115.8,227.5,114.9,227.9"/>
<path class="st1" d="M95.1,221.1c-0.4-0.4,2-0.9,2.5-0.9c0.6,0.4,1.6,1.3,2,1.7c0.3,0.2,0.1,0.4-0.1,0.6c-0.3,0.2-1.7,0.5-2.4,0.6
	C96.3,222.4,95.3,221.3,95.1,221.1"/>
<path class="st1" d="M99.5,186.4c-0.7-0.5-0.6-0.8-0.2-1.3c0.3-0.5,0.7-0.8,1-1c0.3-0.2,0.8-0.2,1.4,0.6c0.6,0.8,3.8,6.1,4.4,7.5
	s1.5,0.5,1.2-0.3c-0.3-0.8-1-2.3-1.3-2.7c0.9-2.8,1.8-7.2,1.8-10c0-2.8-0.7-5.7-1.2-6.7c2.3,0.1,7.2,0,9.1-0.6
	c1.9-0.6,0.3-0.8-0.4-0.7c-0.8,0.1-6.1,0.1-10.1-0.4c-6.8-0.8-13.6-4.7-15.7-7.3c-0.3-0.4-2.3-0.2-0.7,1.1s5.9,5.3,12.2,6.4
	c1.4,0.2,3.7,0.7,4,5.8c0.3,5.2-0.2,8.5-0.2,9s-0.3,0.7-0.8,0.1c-0.4-0.6-1.8-2.5-2.6-2.9c-0.8-0.4-1.3-0.3-1.9,0.2
	c-0.7,0.5-1.7,1.5-2.1,2"/>
<path class="st1" d="M86.1,202.7c-0.6,0-4.4,0.3-5.2,0c-0.8-0.3-1.3-1.2-0.8-1.6c0.7-0.5,2,0.1,3.3,0.1c1.3,0,2.7-0.3,3-0.1
	c0.3,0.2,0.8,0.1,0.8,1.7"/>
<path class="st1" d="M77,225.6c-1.1-0.7-2.3-3.8-2.6-9.9c-0.1-2.1,0.8-5.6,1.4-7.3c0.7-1.7-0.4-1-0.7-0.4c-0.2,0.6-1.1,2.9-1.3,4.7
	c-0.2,1.8-0.7,4.3,0,8.1c0.7,3.8,1,4.9,1.2,5.6"/>
<path class="st7" d="M111.2,20.7c0.2-0.4,0.3-0.9,0.5-1.2c-0.6,0.3-1.2,0.6-1.7,0.9C110.2,20.9,110.7,21.7,111.2,20.7"/>
<path class="st8" d="M111.2,20.7c0.2-0.4,0.3-0.9,0.5-1.2c-0.6,0.3-1.2,0.6-1.7,0.9C110.2,20.9,110.7,21.7,111.2,20.7z"/>
<path class="st7" d="M126.2,21.5c-0.2-0.9-1,0.5-2.1,1.8c-1,1.3-2.5,0.5-2.7-0.1c-0.2-0.6-0.5-1.3-1.4-2.5c-0.9-1.2,0.9-2.9,1.6-3.1
	c0.8-0.2,1.7-0.4,2-0.6c0.2-0.2-0.2-1.4-0.4-2.4c-3,0.9-6.7,2.4-9.9,4c1,0.4,0.7,2.3,0.6,2.6c-0.1,0.3-0.5,2,0.3,1
	c0.8-1,1-1.4,1.8-1.6c0.8-0.3,1.7-0.2,1.7,1c0,1.2-0.5,1.1-0.7,1.8c-0.2,0.8,0,0.7,0.4,0.9c0.4,0.2,0.6,0.7,0.3,1.5
	c-0.3,0.8-1.5,0.9-2.7,0.8c-1.1-0.1-1.2,0-0.9,0.4c0.3,0.3,0.7,1,0.9,1.7c2.7-1.3,6-2.4,11.1-3.5C126.4,24,126.4,22.2,126.2,21.5"/>
<path class="st8" d="M126.2,21.5c-0.2-0.9-1,0.5-2.1,1.8c-1,1.3-2.5,0.5-2.7-0.1c-0.2-0.6-0.5-1.3-1.4-2.5c-0.9-1.2,0.9-2.9,1.6-3.1
	c0.8-0.2,1.7-0.4,2-0.6c0.2-0.2-0.2-1.4-0.4-2.4c-3,0.9-6.7,2.4-9.9,4c1,0.4,0.7,2.3,0.6,2.6c-0.1,0.3-0.5,2,0.3,1
	c0.8-1,1-1.4,1.8-1.6c0.8-0.3,1.7-0.2,1.7,1c0,1.2-0.5,1.1-0.7,1.8c-0.2,0.8,0,0.7,0.4,0.9c0.4,0.2,0.6,0.7,0.3,1.5
	c-0.3,0.8-1.5,0.9-2.7,0.8c-1.1-0.1-1.2,0-0.9,0.4c0.3,0.3,0.7,1,0.9,1.7c2.7-1.3,6-2.4,11.1-3.5C126.4,24,126.4,22.2,126.2,21.5z"
	/>
<path class="st7" d="M99.9,38c-0.4-0.8-0.9-0.9-1.1-0.3c-0.2,0.6-0.6,2.5-1.9,3.1c-0.4,0.2-0.7,0.3-1,0.3c0.4,0.5,0.9,0.9,1.5,1.3
	c1-1.1,2-2.1,2.9-3C100.2,39,100.1,38.5,99.9,38"/>
<path class="st8" d="M99.9,38c-0.4-0.8-0.9-0.9-1.1-0.3c-0.2,0.6-0.6,2.5-1.9,3.1c-0.4,0.2-0.7,0.3-1,0.3c0.4,0.5,0.9,0.9,1.5,1.3
	c1-1.1,2-2.1,2.9-3C100.2,39,100.1,38.5,99.9,38z"/>
<path class="st7" d="M112.3,28c-0.5-0.2-0.8,0.5-1.1,1c-0.3,0.5-0.9,1.3-2,1.2c-1.1-0.1-1.3-0.5-1.6-1.4c-0.3-0.9-1-1.2-1.8-1.2
	c-0.8,0-1.3-1-0.5-2c0.8-1,1.7-0.5,2.3-0.5c0.7,0,1-0.7,0.5-1.1c-0.4-0.3-1.2-1.2-1.3-1.8c-2.4,1.6-5.8,4-8.8,6.7
	c0.5,0,1.2,0.2,1.5,0.4c0.4,0.2,1,0.7,1,1.4c-0.1,0.8,0.2,0.9,0.6,0.4c0.5-0.5-0.1-2,1.5-2.6c1.5-0.6,1.8,0.6,1.7,1.4
	c-0.1,0.8,0,1.5,0.8,1.9c0.8,0.3,1.7,1.6,0,2.4c-1.8,0.8-2.7,0.9-3.4,1.1c-0.7,0.2-0.5,0.9,0,1.4c0.4,0.3,0.6,0.6,0.8,0.8
	c2.2-2,4.3-3.7,6.6-5.3c1.3-0.9,2.5-1.6,3.7-2.4C112.9,29,113,28.3,112.3,28"/>
<path class="st8" d="M112.3,28c-0.5-0.2-0.8,0.5-1.1,1c-0.3,0.5-0.9,1.3-2,1.2c-1.1-0.1-1.3-0.5-1.6-1.4c-0.3-0.9-1-1.2-1.8-1.2
	c-0.8,0-1.3-1-0.5-2c0.8-1,1.7-0.5,2.3-0.5c0.7,0,1-0.7,0.5-1.1c-0.4-0.3-1.2-1.2-1.3-1.8c-2.4,1.6-5.8,4-8.8,6.7
	c0.5,0,1.2,0.2,1.5,0.4c0.4,0.2,1,0.7,1,1.4c-0.1,0.8,0.2,0.9,0.6,0.4c0.5-0.5-0.1-2,1.5-2.6c1.5-0.6,1.8,0.6,1.7,1.4
	c-0.1,0.8,0,1.5,0.8,1.9c0.8,0.3,1.7,1.6,0,2.4c-1.8,0.8-2.7,0.9-3.4,1.1c-0.7,0.2-0.5,0.9,0,1.4c0.4,0.3,0.6,0.6,0.8,0.8
	c2.2-2,4.3-3.7,6.6-5.3c1.3-0.9,2.5-1.6,3.7-2.4C112.9,29,113,28.3,112.3,28z"/>
<path class="st7" d="M96,35.8c0-0.8-0.6-1.1-1-1.3c-0.3-0.1-0.9-0.7-1.1-1.2c-0.4,0.6-0.8,1.1-1.1,1.7c0.2,0.6,0.4,1.1,0.5,1.6
	C94.3,36.6,95.9,36.5,96,35.8"/>
<path class="st8" d="M96,35.8c0-0.8-0.6-1.1-1-1.3c-0.3-0.1-0.9-0.7-1.1-1.2c-0.4,0.6-0.8,1.1-1.1,1.7c0.2,0.6,0.4,1.1,0.5,1.6
	C94.3,36.6,95.9,36.5,96,35.8z"/>
<path class="st7" d="M131.2,74.7c-2.7-0.2-6,0.4-9.1,1.6c0.5,0.3,1.1,1.1,2.2,0.7c1.6-0.5,2.1,1.1,1.4,1.6c-0.8,0.5-1,1.6,0.4,0.8
	c1.4-0.9,2.7,0.4,2.1,1.3c-0.6,0.9-1.3,0.2-1.2,1.5c0.2,1.3-0.1,2.5-1.3,2.7c-1.2,0.2-1.4-1.5-2-1.4c-0.5,0.1,0.1,3.1-0.1,3.1
	c-0.8,0.1-1.6,0.8-2,1.3c0,0,0.1,0,0.1,0.1c4.6,3.3,5.8,1.5,6.4-0.1c0.7-1.6,2.1-6.3,2.6-8.8C131.1,77.6,131.4,76.1,131.2,74.7"/>
<path class="st8" d="M131.2,74.7c-2.7-0.2-6,0.4-9.1,1.6c0.5,0.3,1.1,1.1,2.2,0.7c1.6-0.5,2.1,1.1,1.4,1.6c-0.8,0.5-1,1.6,0.4,0.8
	c1.4-0.9,2.7,0.4,2.1,1.3c-0.6,0.9-1.3,0.2-1.2,1.5c0.2,1.3-0.1,2.5-1.3,2.7c-1.2,0.2-1.4-1.5-2-1.4c-0.5,0.1,0.1,3.1-0.1,3.1
	c-0.8,0.1-1.6,0.8-2,1.3c0,0,0.1,0,0.1,0.1c4.6,3.3,5.8,1.5,6.4-0.1c0.7-1.6,2.1-6.3,2.6-8.8C131.1,77.6,131.4,76.1,131.2,74.7z"/>
<path class="st7" d="M121.3,83.8c0.2-0.6-0.4-1.2-1.1-0.7c-0.7,0.5-1.8,1.1-2.5-0.1c-0.7-1.2,0.8-1.3,0.9-1.9
	c0.1-0.6-0.5-0.7-0.2-1.6c0.3-1,1.3-0.7,2.1-0.2c0.9,0.6,0.6-0.8,0.5-1.3c-0.1-0.4-0.2-0.8-0.1-1.1c-0.9,0.4-1.8,0.9-2.6,1.4
	c-4.3,2.6-4.4,4.8-3.4,5.7c0.9,0.7,2.7,1.1,5.9,3.1C120.7,86,121.1,84.3,121.3,83.8"/>
<path class="st8" d="M121.3,83.8c0.2-0.6-0.4-1.2-1.1-0.7c-0.7,0.5-1.8,1.1-2.5-0.1c-0.7-1.2,0.8-1.3,0.9-1.9
	c0.1-0.6-0.5-0.7-0.2-1.6c0.3-1,1.3-0.7,2.1-0.2c0.9,0.6,0.6-0.8,0.5-1.3c-0.1-0.4-0.2-0.8-0.1-1.1c-0.9,0.4-1.8,0.9-2.6,1.4
	c-4.3,2.6-4.4,4.8-3.4,5.7c0.9,0.7,2.7,1.1,5.9,3.1C120.7,86,121.1,84.3,121.3,83.8z"/>
<path class="st7" d="M107.6,81.3c-1.8-0.9-3.5-2.8-4.7-5.1c0,0,0.1-0.3-0.4-0.3s-2.3-0.2-5.4-1.3c-3.1-1.1-3.5-0.4-3.9,0.9
	c-0.4,1.3-0.8,3.8-0.8,7.8c-0.1,4,1.7,6.5,2.8,6.1c0.5-0.2,1.9-0.9,3.4-1.6c0-0.8,0.1-2.2,0.2-2.8c0.1-1-0.9-0.6-1.3-0.1
	c-0.4,0.5-1.2,1.3-2,1.2s-1.3-1.5-1.1-2.7c0.1-1.3-1.3-1.8-0.4-3.4c0.9-1.7,1.7,0.4,2.5,0.2c0.8-0.2,0.4-0.6,0-1.9
	c-0.4-1.3,1.2-1.7,2.2-0.8c0.6,0.6,0.9-0.7,1.8-0.5c0.9,0.2,1.5,0.8,0.9,1.7c-0.4,0.7-0.7,2.4,0.1,1.5c0.8-0.9,1.6-1.4,2.3-0.8
	c0.8,0.6,0.2,1.8,0,2.4c-0.2,0.6,1.3,1.4,0.2,2.1c-1.1,0.8-2.3-0.5-2.9-0.4c-0.6,0.2-0.8,0.9,0.1,1.5c0.5,0.4,1.1,0.7,1.5,0.8
	c1.7-0.6,3.8-1.7,4.4-2.1l1.1,0.1C108.2,82.5,108.1,81.6,107.6,81.3"/>
<path class="st8" d="M107.6,81.3c-1.8-0.9-3.5-2.8-4.7-5.1c0,0,0.1-0.3-0.4-0.3s-2.3-0.2-5.4-1.3c-3.1-1.1-3.5-0.4-3.9,0.9
	c-0.4,1.3-0.8,3.8-0.8,7.8c-0.1,4,1.7,6.5,2.8,6.1c0.5-0.2,1.9-0.9,3.4-1.6c0-0.8,0.1-2.2,0.2-2.8c0.1-1-0.9-0.6-1.3-0.1
	c-0.4,0.5-1.2,1.3-2,1.2s-1.3-1.5-1.1-2.7c0.1-1.3-1.3-1.8-0.4-3.4c0.9-1.7,1.7,0.4,2.5,0.2c0.8-0.2,0.4-0.6,0-1.9
	c-0.4-1.3,1.2-1.7,2.2-0.8c0.6,0.6,0.9-0.7,1.8-0.5c0.9,0.2,1.5,0.8,0.9,1.7c-0.4,0.7-0.7,2.4,0.1,1.5c0.8-0.9,1.6-1.4,2.3-0.8
	c0.8,0.6,0.2,1.8,0,2.4c-0.2,0.6,1.3,1.4,0.2,2.1c-1.1,0.8-2.3-0.5-2.9-0.4c-0.6,0.2-0.8,0.9,0.1,1.5c0.5,0.4,1.1,0.7,1.5,0.8
	c1.7-0.6,3.8-1.7,4.4-2.1l1.1,0.1C108.2,82.5,108.1,81.6,107.6,81.3z"/>
<path class="st7" d="M101.4,99.7c-0.7-1.5-0.9-0.3-2.8,2.6c-0.9,1.5-3.3,4.2-6.3,7.3c2.1,0.4,6.5,1.5,3.8,3.7
	c-2.8,2.3-1.6,2.2-0.3,2c1.3-0.2,3.3,0.6,1.8,3.4c-1.6,2.8-2.7,4.8-4.2,5.8c-1.5,0.9-3.7,0.8-4.2-1.3c-0.5-2.2-1.9,0-2,1.4
	c-0.1,1.4-0.2,3.8-0.1,4.7l-3.2-0.2c-0.1-1.3-0.1-4,0.2-5.3c0.3-1.3,0.2-2.8-1.8-2.2c-1.3,0.4-2.1,0.1-2.6-0.2
	c-3.7,3.3-5.6,5.6-6.9,7.6c1,0.8,2.5,1.5,4.1,0.8c1.8-0.8,4.8,0.2,3,3c-1.8,2.8-1.8,4.3,0.1,2.5c1.8-1.8,4.8-4.8,5.7-1.6
	c0.6,2.1-1.3,2.8-1.3,4.4c0.1,1.7,1.8,3.3-0.6,5.3c-2.3,2-3.3-1.4-4.9-0.9c-1,0.3-1.2,1.2-1.1,2c2.1,2.9,5.1,7.1,6.2,8.9
	c1.7,2.8,1.7,6.1,2.3,5.6c0.7-0.5,2.2-2,2.8-2.4c0.5-0.4,1-0.9,0.8-1.8c-0.3-0.9-1.2-5.8-0.9-9.3c0.3-3.9,2.2-8.2,3.5-10.7
	c1.3-2.4,5.2-9.9,6.1-11.9c0.9-2,2.6-4.3,3-6.2c0.4-1.8,2-6.1,2.7-8.1C104.3,107,103.2,103.6,101.4,99.7"/>
<path class="st8" d="M101.4,99.7c-0.7-1.5-0.9-0.3-2.8,2.6c-0.9,1.5-3.3,4.2-6.3,7.3c2.1,0.4,6.5,1.5,3.8,3.7
	c-2.8,2.3-1.6,2.2-0.3,2c1.3-0.2,3.3,0.6,1.8,3.4c-1.6,2.8-2.7,4.8-4.2,5.8c-1.5,0.9-3.7,0.8-4.2-1.3c-0.5-2.2-1.9,0-2,1.4
	c-0.1,1.4-0.2,3.8-0.1,4.7l-3.2-0.2c-0.1-1.3-0.1-4,0.2-5.3c0.3-1.3,0.2-2.8-1.8-2.2c-1.3,0.4-2.1,0.1-2.6-0.2
	c-3.7,3.3-5.6,5.6-6.9,7.6c1,0.8,2.5,1.5,4.1,0.8c1.8-0.8,4.8,0.2,3,3c-1.8,2.8-1.8,4.3,0.1,2.5c1.8-1.8,4.8-4.8,5.7-1.6
	c0.6,2.1-1.3,2.8-1.3,4.4c0.1,1.7,1.8,3.3-0.6,5.3c-2.3,2-3.3-1.4-4.9-0.9c-1,0.3-1.2,1.2-1.1,2c2.1,2.9,5.1,7.1,6.2,8.9
	c1.7,2.8,1.7,6.1,2.3,5.6c0.7-0.5,2.2-2,2.8-2.4c0.5-0.4,1-0.9,0.8-1.8c-0.3-0.9-1.2-5.8-0.9-9.3c0.3-3.9,2.2-8.2,3.5-10.7
	c1.3-2.4,5.2-9.9,6.1-11.9c0.9-2,2.6-4.3,3-6.2c0.4-1.8,2-6.1,2.7-8.1C104.3,107,103.2,103.6,101.4,99.7z"/>
<path class="st7" d="M137.8,136.7c-2.2-3.6-2.6-5-2.9-8.7c-0.2-2.3,0-5.3,0.3-8.2c-0.6-0.1-1.5,0.1-1.6,1c-0.1,1.6-0.8,3.8-1.3,5
	c-0.5,1.2-2.2,1.1-3.2,1.2c-1,0.1-1-0.6-0.3-2.1s0.9-2.2,0.8-3.5c-0.2-1.3-0.8-0.2-1.4,1c-0.6,1.2-2.3,3.5-4.2,3.3
	c-1.9-0.2-1.4-3.2-1.3-4.2c0.2-1-0.4-1.2-1.2-1.3c-0.8-0.2-2.3-0.5-1.4-2.9c0.8-2.4,1.8-2.2,2.9-1.8c1.2,0.4,1.3-0.3,0.3-0.8
	c-1.1-0.4-2.3-1.3-2.2-2.5c0.2-3.1,2.2-2.8,3.7-2.5c1.3,0.3,3-0.5,4.1-1.7c0-0.1,0-0.2-0.1-0.2c-2.2-8.5,2-18.9,3.2-21.9
	c1.2-2.9,5.7-11.1,7.2-13.6c-0.8-0.4-3-1.5-4.3-2.2c-1.2-0.6-1.9-0.9-2.2-0.5c-0.3,0.5-0.8,0.7-1.3,1.5c-1.2,1.7-0.2,1.4,0.2,1.4
	c0.3,0,1.7,1.8,2,2.3c0.3,0.4,0,0.8-0.6,2.1c-0.8,1.7-1.3,5.8-1.9,8.2c-2,7.3-5.2,6.6-6.6,5.7c-1.4-0.9-1.8,0.5-3.3,2.5
	c-0.3,0.5-1.2,1.4-2.3,2.5c1.4,0.6,3.2,2.4,1,4.1c-2.6,2-3.1,3.1-1.8,2.8c1.2-0.2,2.5-2.2,3.9-0.8c1.4,1.3-0.5,2.8-1.3,3.3
	c-0.8,0.4-2.3,1.2-1.8,2.8c0.4,1.6,0.7,3.8-1.4,4.3c-2.1,0.5-2.9-0.4-3.5-1.5c-0.6-1.1-1.2-0.3-1.4,1c-0.3,1.3-0.4,2.3-0.4,2.8
	c0,0.5-1.5-0.2-2.2-0.9s-1.5,1.2-2.3,0.2c-0.8-0.9,0.9-3.8,1.5-4.8c0.6-0.9,0.3-2.3-3-0.7c-1.1,1.8-1.9,4.4-3.3,8.5
	c-1.8,5.6-6,13.2-7.7,16c-4.5,7.2-5.3,14.1-4.6,18.3c0.7,4.2,1.3,3.9,2.2,3.9s3.2,2.8,4.7,4.6c1.5,1.8,2.1,1,2.8,0.4
	c2.4-1.9,7.3-5,14.1-8.3c2.9-1.4,6.8-2.9,10.6-4.1c0.1-1.6,0.4-3.5,0.6-4.2c0.2-0.8-0.7-1.1-1.5,0c-0.8,1.1-3.1,3.8-4.6,3.1
	c-1.5-0.7-2.8-2.3-1.9-3.8c0.8-1.4-0.3-1.8-0.9-2.6c-0.6-0.8-0.6-3.7,1.3-3.9c1.8-0.2,2.4,1.3,3.7,1.8c1.3,0.4,2.3,0.3,0.7-1.4
	c-1.6-1.8-3.5-1.1-2.5-3.5c1-2.4,2.4-2.3,4.1-1.8c1.7,0.5,2.5-0.4,3.6-1.2c1.1-0.7,3.3-1.8,4.8,0c1.5,1.8-1.1,3.3-1.7,3.9
	c-1.1,1.1-1.3,3.3-0.1,2c1.3-1.3,3.4-5.8,4.8-2c0.8,2.2-0.8,3-0.5,4.3c0.2,1.3,2.5,3.2,0.7,4.8c-1.8,1.7-4.4,0.2-5.5-0.8
	c-1.1-1-2.3-1.5-1.8,0.3c0.4,1.3,0.6,2.8,0.6,3.6c3.6-1,6.8-1.6,8.4-1.5c2.4,0.2,4.2,0.9,4.1-1.3C141.2,141.8,140,140.3,137.8,136.7
	 M108.2,151.7c-2,0.6-2.3-0.3-3.7-0.8s-1.4,0.7-0.5,2.1c0.9,1.4,1.9,2.8,0.8,2.8s-1.9,0.2-2.1,1c-0.2,0.8-1.9-0.2-2.3-1.9
	c-0.4-1.8-0.8-5.1-1.8-3.4c-0.9,1.7-1.8,4.4-4.1,3.2c-2.3-1.3-0.8-2.9-1.9-4.1c-1.2-1.2-2.3-2.7-1.1-4.8c1.2-2.1,2.2-0.3,3.3-0.3
	c1.1,0,1.3-1,0.2-1.8c-1-0.8-2.3-4.3,2.3-4.1c1.8,0.1,3.7-0.5,5.2-1.6c1.5-1.1,5.4-0.5,3.8,2.3c-1.6,2.8-1.1,3.3-0.2,2.3
	c0.9-1,2.1-2.8,3.8-2.3c1.8,0.5,1,1.8-0.1,3.3c-1.1,1.5-0.4,2.5,0.4,3.1C111.3,147.1,112.8,150.3,108.2,151.7 M116.7,132
	c-1.5,0.1-3.3-0.3-3.3-0.3c-0.2,1.6-1.7,3.9-3.3,6.2c-0.2,0.2-1.1,0.2-1.5-0.1c-0.4-0.3-1.6-0.9-0.7-1.9c0.9-1,2.4-3.1,2.2-4
	c-0.2-0.9-0.9-1.8-1.9-0.5c-1,1.3-2.6,3.8-4.3,3.9c-1.8,0.1-3.5-1.5-2.7-3.1c0.8-1.6,1.1-2.4-0.1-3.8s-0.7-3.2,1.8-4.3
	c0.8-0.3,2.1,0,3,0.8c0.9,0.8,1.4,0,0.2-0.8c-1.3-0.8-2.3-1.7-2.4-3.3c-0.2-1.6,0.8-3.3,3-2.3c2.2,0.9,3.5,0.2,4.4-0.6
	c0.9-0.8,4.8-1.7,4.3,1.8c-0.4,2.5-1.6,2.6-1.9,3.9c-0.3,1.3,0.7,0.5,1.3-0.5s1.9-5.1,4.7-2c0.7,0.8,0.4,2-0.4,3.4
	c-0.8,1.4-0.2,2.3,0.3,3C119.7,128,120.9,131.7,116.7,132"/>
<path class="st8" d="M116.7,132c-1.5,0.1-3.3-0.3-3.3-0.3c-0.2,1.6-1.7,3.9-3.3,6.2c-0.2,0.2-1.1,0.2-1.5-0.1
	c-0.4-0.3-1.6-0.9-0.7-1.9c0.9-1,2.4-3.1,2.2-4c-0.2-0.9-0.9-1.8-1.9-0.5c-1,1.3-2.6,3.8-4.3,3.9c-1.8,0.1-3.5-1.5-2.7-3.1
	c0.8-1.6,1.1-2.4-0.1-3.8s-0.7-3.2,1.8-4.3c0.8-0.3,2.1,0,3,0.8c0.9,0.8,1.4,0,0.2-0.8c-1.3-0.8-2.3-1.7-2.4-3.3
	c-0.2-1.6,0.8-3.3,3-2.3c2.2,0.9,3.5,0.2,4.4-0.6c0.9-0.8,4.8-1.7,4.3,1.8c-0.4,2.5-1.6,2.6-1.9,3.9c-0.3,1.3,0.7,0.5,1.3-0.5
	s1.9-5.1,4.7-2c0.7,0.8,0.4,2-0.4,3.4c-0.8,1.4-0.2,2.3,0.3,3C119.7,128,120.9,131.7,116.7,132z"/>
<path class="st8" d="M108.2,151.7c-2,0.6-2.3-0.3-3.7-0.8s-1.4,0.7-0.5,2.1c0.9,1.4,1.9,2.8,0.8,2.8s-1.9,0.2-2.1,1
	c-0.2,0.8-1.9-0.2-2.3-1.9c-0.4-1.8-0.8-5.1-1.8-3.4c-0.9,1.7-1.8,4.4-4.1,3.2c-2.3-1.3-0.8-2.9-1.9-4.1c-1.2-1.2-2.3-2.7-1.1-4.8
	c1.2-2.1,2.2-0.3,3.3-0.3c1.1,0,1.3-1,0.2-1.8c-1-0.8-2.3-4.3,2.3-4.1c1.8,0.1,3.7-0.5,5.2-1.6c1.5-1.1,5.4-0.5,3.8,2.3
	c-1.6,2.8-1.1,3.3-0.2,2.3c0.9-1,2.1-2.8,3.8-2.3c1.8,0.5,1,1.8-0.1,3.3c-1.1,1.5-0.4,2.5,0.4,3.1
	C111.3,147.1,112.8,150.3,108.2,151.7z"/>
<path class="st8" d="M137.8,136.7c-2.2-3.6-2.6-5-2.9-8.7c-0.2-2.3,0-5.3,0.3-8.2c-0.6-0.1-1.5,0.1-1.6,1c-0.1,1.6-0.8,3.8-1.3,5
	c-0.5,1.2-2.2,1.1-3.2,1.2c-1,0.1-1-0.6-0.3-2.1s0.9-2.2,0.8-3.5c-0.2-1.3-0.8-0.2-1.4,1c-0.6,1.2-2.3,3.5-4.2,3.3
	c-1.9-0.2-1.4-3.2-1.3-4.2c0.2-1-0.4-1.2-1.2-1.3c-0.8-0.2-2.3-0.5-1.4-2.9c0.8-2.4,1.8-2.2,2.9-1.8c1.2,0.4,1.3-0.3,0.3-0.8
	c-1.1-0.4-2.3-1.3-2.2-2.5c0.2-3.1,2.2-2.8,3.7-2.5c1.3,0.3,3-0.5,4.1-1.7c0-0.1,0-0.2-0.1-0.2c-2.2-8.5,2-18.9,3.2-21.9
	c1.2-2.9,5.7-11.1,7.2-13.6c-0.8-0.4-3-1.5-4.3-2.2c-1.2-0.6-1.9-0.9-2.2-0.5c-0.3,0.5-0.8,0.7-1.3,1.5c-1.2,1.7-0.2,1.4,0.2,1.4
	c0.3,0,1.7,1.8,2,2.3c0.3,0.4,0,0.8-0.6,2.1c-0.8,1.7-1.3,5.8-1.9,8.2c-2,7.3-5.2,6.6-6.6,5.7c-1.4-0.9-1.8,0.5-3.3,2.5
	c-0.3,0.5-1.2,1.4-2.3,2.5c1.4,0.6,3.2,2.4,1,4.1c-2.6,2-3.1,3.1-1.8,2.8c1.2-0.2,2.5-2.2,3.9-0.8c1.4,1.3-0.5,2.8-1.3,3.3
	c-0.8,0.4-2.3,1.2-1.8,2.8c0.4,1.6,0.7,3.8-1.4,4.3c-2.1,0.5-2.9-0.4-3.5-1.5c-0.6-1.1-1.2-0.3-1.4,1c-0.3,1.3-0.4,2.3-0.4,2.8
	c0,0.5-1.5-0.2-2.2-0.9s-1.5,1.2-2.3,0.2c-0.8-0.9,0.9-3.8,1.5-4.8c0.6-0.9,0.3-2.3-3-0.7c-1.1,1.8-1.9,4.4-3.3,8.5
	c-1.8,5.6-6,13.2-7.7,16c-4.5,7.2-5.3,14.1-4.6,18.3c0.7,4.2,1.3,3.9,2.2,3.9s3.2,2.8,4.7,4.6c1.5,1.8,2.1,1,2.8,0.4
	c2.4-1.9,7.3-5,14.1-8.3c2.9-1.4,6.8-2.9,10.6-4.1c0.1-1.6,0.4-3.5,0.6-4.2c0.2-0.8-0.7-1.1-1.5,0c-0.8,1.1-3.1,3.8-4.6,3.1
	c-1.5-0.7-2.8-2.3-1.9-3.8c0.8-1.4-0.3-1.8-0.9-2.6c-0.6-0.8-0.6-3.7,1.3-3.9c1.8-0.2,2.4,1.3,3.7,1.8c1.3,0.4,2.3,0.3,0.7-1.4
	c-1.6-1.8-3.5-1.1-2.5-3.5c1-2.4,2.4-2.3,4.1-1.8c1.7,0.5,2.5-0.4,3.6-1.2c1.1-0.7,3.3-1.8,4.8,0c1.5,1.8-1.1,3.3-1.7,3.9
	c-1.1,1.1-1.3,3.3-0.1,2c1.3-1.3,3.4-5.8,4.8-2c0.8,2.2-0.8,3-0.5,4.3c0.2,1.3,2.5,3.2,0.7,4.8c-1.8,1.7-4.4,0.2-5.5-0.8
	c-1.1-1-2.3-1.5-1.8,0.3c0.4,1.3,0.6,2.8,0.6,3.6c3.6-1,6.8-1.6,8.4-1.5c2.4,0.2,4.2,0.9,4.1-1.3C141.2,141.8,140,140.3,137.8,136.7
	z"/>
<path class="st3" d="M115.2,26.3c1.1,0.1,2.4,0,2.7-0.8c0.3-0.8,0-1.3-0.3-1.5c-0.4-0.2-0.5-0.1-0.4-0.9c0.2-0.8,0.7-0.7,0.7-1.8
	c0-1.2-0.9-1.2-1.7-1c-0.8,0.2-1.1,0.6-1.8,1.6c-0.8,1-0.4-0.7-0.3-1c0.1-0.3,0.4-2.2-0.6-2.5c-0.6,0.3-1.2,0.6-1.7,0.9
	c-0.2,0.4-0.3,0.8-0.5,1.2c-0.4,1.1-0.9,0.3-1.3-0.2c0,0,0,0,0,0c-1.1,0.6-2.1,1.2-2.8,1.7c-0.1,0.1-0.2,0.1-0.2,0.2
	c0.1,0.7,0.9,1.5,1.3,1.8c0.5,0.4,0.2,1.1-0.5,1.1c-0.7,0-1.5-0.5-2.3,0.5c-0.8,1-0.3,2,0.5,2c0.8,0,1.5,0.3,1.8,1.2
	c0.3,0.9,0.5,1.3,1.6,1.4c1.1,0.1,1.7-0.7,2-1.2c0.3-0.5,0.7-1.2,1.1-1c0.7,0.2,0.6,1,0.4,1.7c0.8-0.5,1.6-0.9,2.4-1.3
	c-0.1-0.7-0.6-1.4-0.9-1.7C113.9,26.4,114,26.2,115.2,26.3"/>
<path class="st12" d="M115.2,26.3c1.1,0.1,2.4,0,2.7-0.8c0.3-0.8,0-1.3-0.3-1.5c-0.4-0.2-0.5-0.1-0.4-0.9c0.2-0.8,0.7-0.7,0.7-1.8
	c0-1.2-0.9-1.2-1.7-1c-0.8,0.2-1.1,0.6-1.8,1.6c-0.8,1-0.4-0.7-0.3-1c0.1-0.3,0.4-2.2-0.6-2.5c-0.6,0.3-1.2,0.6-1.7,0.9
	c-0.2,0.4-0.3,0.8-0.5,1.2c-0.4,1.1-0.9,0.3-1.3-0.2c0,0,0,0,0,0c-1.1,0.6-2.1,1.2-2.8,1.7c-0.1,0.1-0.2,0.1-0.2,0.2
	c0.1,0.7,0.9,1.5,1.3,1.8c0.5,0.4,0.2,1.1-0.5,1.1c-0.7,0-1.5-0.5-2.3,0.5c-0.8,1-0.3,2,0.5,2c0.8,0,1.5,0.3,1.8,1.2
	c0.3,0.9,0.5,1.3,1.6,1.4c1.1,0.1,1.7-0.7,2-1.2c0.3-0.5,0.7-1.2,1.1-1c0.7,0.2,0.6,1,0.4,1.7c0.8-0.5,1.6-0.9,2.4-1.3
	c-0.1-0.7-0.6-1.4-0.9-1.7C113.9,26.4,114,26.2,115.2,26.3z"/>
<path class="st3" d="M124.5,14.2c-0.4,0.1-0.8,0.2-1.2,0.3c0.2,1,0.6,2.2,0.4,2.4c-0.3,0.2-1.2,0.4-2,0.6c-0.8,0.2-2.5,1.9-1.6,3.1
	c0.9,1.2,1.2,1.9,1.4,2.5c0.2,0.6,1.7,1.4,2.7,0.1c1-1.3,1.8-2.6,2.1-1.8c0.2,0.7,0.2,2.5,0,3.5c0.2,0,0.4-0.1,0.7-0.1
	C127.3,20.2,126.1,16.8,124.5,14.2"/>
<path class="st12" d="M124.5,14.2c-0.4,0.1-0.8,0.2-1.2,0.3c0.2,1,0.6,2.2,0.4,2.4c-0.3,0.2-1.2,0.4-2,0.6c-0.8,0.2-2.5,1.9-1.6,3.1
	c0.9,1.2,1.2,1.9,1.4,2.5c0.2,0.6,1.7,1.4,2.7,0.1c1-1.3,1.8-2.6,2.1-1.8c0.2,0.7,0.2,2.5,0,3.5c0.2,0,0.4-0.1,0.7-0.1
	C127.3,20.2,126.1,16.8,124.5,14.2z"/>
<path class="st3" d="M101.6,36.6c-0.6-0.5-0.8-1.2,0-1.4c0.7-0.2,1.7-0.4,3.4-1.1c1.8-0.8,0.8-2,0-2.4c-0.8-0.3-0.9-1.1-0.8-1.9
	c0.1-0.8-0.1-2-1.7-1.4c-1.5,0.6-1,2.1-1.5,2.6c-0.5,0.5-0.7,0.3-0.6-0.4c0.1-0.8-0.6-1.3-1-1.4c-0.3-0.1-0.9-0.3-1.5-0.3
	c-1.6,1.4-3.1,3-4.2,4.4c0.2,0.5,0.8,1.1,1.1,1.2c0.4,0.1,1,0.4,1,1.3c0,0.7-1.6,0.8-2.7,0.8c0.7,2,1.5,3.4,2.5,4.5
	c0.2-0.1,0.5-0.2,1-0.4c1.3-0.5,1.7-2.5,1.9-3.1c0.2-0.6,0.8-0.5,1.1,0.3c0.3,0.5,0.4,1,0.4,1.5c0.7-0.7,1.5-1.4,2.2-2.1
	C102.2,37.2,101.9,36.9,101.6,36.6"/>
<path class="st12" d="M101.6,36.6c-0.6-0.5-0.8-1.2,0-1.4c0.7-0.2,1.7-0.4,3.4-1.1c1.8-0.8,0.8-2,0-2.4c-0.8-0.3-0.9-1.1-0.8-1.9
	c0.1-0.8-0.1-2-1.7-1.4c-1.5,0.6-1,2.1-1.5,2.6c-0.5,0.5-0.7,0.3-0.6-0.4c0.1-0.8-0.6-1.3-1-1.4c-0.3-0.1-0.9-0.3-1.5-0.3
	c-1.6,1.4-3.1,3-4.2,4.4c0.2,0.5,0.8,1.1,1.1,1.2c0.4,0.1,1,0.4,1,1.3c0,0.7-1.6,0.8-2.7,0.8c0.7,2,1.5,3.4,2.5,4.5
	c0.2-0.1,0.5-0.2,1-0.4c1.3-0.5,1.7-2.5,1.9-3.1c0.2-0.6,0.8-0.5,1.1,0.3c0.3,0.5,0.4,1,0.4,1.5c0.7-0.7,1.5-1.4,2.2-2.1
	C102.2,37.2,101.9,36.9,101.6,36.6z"/>
<path class="st3" d="M123.7,86.5c0.2,0-0.4-3,0.1-3.1c0.5-0.1,0.8,1.6,2,1.4c1.2-0.2,1.5-1.4,1.3-2.7c-0.2-1.3,0.6-0.6,1.2-1.5
	c0.6-0.9-0.7-2.2-2.1-1.3c-1.4,0.9-1.2-0.3-0.4-0.8c0.8-0.5,0.2-2.1-1.4-1.6c-1.1,0.4-1.7-0.3-2.3-0.7c-0.4,0.2-0.8,0.3-1.3,0.5
	c-0.1,0.3,0,0.7,0.1,1.1c0.1,0.5,0.4,1.9-0.5,1.3c-0.8-0.5-1.8-0.8-2.1,0.2c-0.3,1,0.3,1,0.2,1.6c-0.1,0.6-1.6,0.7-0.9,1.9
	c0.7,1.2,1.8,0.5,2.5,0.1c0.7-0.5,1.4,0.1,1.1,0.7c-0.2,0.5-0.6,2.1-0.6,3.2c0.3,0.2,0.7,0.5,1.1,0.7
	C122.1,87.3,122.9,86.6,123.7,86.5"/>
<path class="st12" d="M123.7,86.5c0.2,0-0.4-3,0.1-3.1c0.5-0.1,0.8,1.6,2,1.4c1.2-0.2,1.5-1.4,1.3-2.7c-0.2-1.3,0.6-0.6,1.2-1.5
	c0.6-0.9-0.7-2.2-2.1-1.3c-1.4,0.9-1.2-0.3-0.4-0.8c0.8-0.5,0.2-2.1-1.4-1.6c-1.1,0.4-1.7-0.3-2.3-0.7c-0.4,0.2-0.8,0.3-1.3,0.5
	c-0.1,0.3,0,0.7,0.1,1.1c0.1,0.5,0.4,1.9-0.5,1.3c-0.8-0.5-1.8-0.8-2.1,0.2c-0.3,1,0.3,1,0.2,1.6c-0.1,0.6-1.6,0.7-0.9,1.9
	c0.7,1.2,1.8,0.5,2.5,0.1c0.7-0.5,1.4,0.1,1.1,0.7c-0.2,0.5-0.6,2.1-0.6,3.2c0.3,0.2,0.7,0.5,1.1,0.7
	C122.1,87.3,122.9,86.6,123.7,86.5z"/>
<path class="st3" d="M101,83.6c0.6-0.2,1.8,1.1,2.9,0.4c1.1-0.8-0.5-1.5-0.2-2.1c0.2-0.6,0.7-1.8,0-2.4c-0.8-0.6-1.5,0-2.3,0.8
	c-0.8,0.9-0.5-0.8-0.1-1.5c0.5-0.9,0-1.5-0.9-1.7c-0.9-0.2-1.2,1.1-1.8,0.5c-1-0.9-2.5-0.5-2.2,0.8c0.4,1.3,0.8,1.7,0,1.9
	c-0.8,0.2-1.5-1.9-2.5-0.2c-0.9,1.7,0.5,2.2,0.4,3.4c-0.1,1.3,0.4,2.6,1.1,2.7c0.8,0.1,1.5-0.7,2-1.2c0.4-0.5,1.4-0.9,1.3,0.1
	c-0.1,0.7-0.1,2-0.2,2.8c1.5-0.7,3.2-1.5,4.1-1.8c0,0,0.1,0,0.1,0c-0.4-0.2-1-0.4-1.6-0.8C100.2,84.5,100.4,83.8,101,83.6"/>
<path class="st12" d="M101,83.6c0.6-0.2,1.8,1.1,2.9,0.4c1.1-0.8-0.5-1.5-0.2-2.1c0.2-0.6,0.7-1.8,0-2.4c-0.8-0.6-1.5,0-2.3,0.8
	c-0.8,0.9-0.5-0.8-0.1-1.5c0.5-0.9,0-1.5-0.9-1.7c-0.9-0.2-1.2,1.1-1.8,0.5c-1-0.9-2.5-0.5-2.2,0.8c0.4,1.3,0.8,1.7,0,1.9
	c-0.8,0.2-1.5-1.9-2.5-0.2c-0.9,1.7,0.5,2.2,0.4,3.4c-0.1,1.3,0.4,2.6,1.1,2.7c0.8,0.1,1.5-0.7,2-1.2c0.4-0.5,1.4-0.9,1.3,0.1
	c-0.1,0.7-0.1,2-0.2,2.8c1.5-0.7,3.2-1.5,4.1-1.8c0,0,0.1,0,0.1,0c-0.4-0.2-1-0.4-1.6-0.8C100.2,84.5,100.4,83.8,101,83.6z"/>
<path class="st3" d="M82.5,121.6c1.9-0.6,2,0.9,1.8,2.2c-0.2,1.3-0.2,3.9-0.2,5.3l3.2,0.2c-0.2-0.8,0-3.3,0.1-4.7
	c0.1-1.4,1.5-3.6,2-1.4c0.5,2.2,2.7,2.3,4.2,1.3c1.5-0.9,2.6-2.9,4.2-5.8c1.6-2.8-0.5-3.6-1.8-3.4c-1.3,0.2-2.5,0.3,0.3-2
	c2.6-2.2-1.8-3.3-3.8-3.7c-3.4,3.5-7.5,7.5-11.2,10.7c-0.5,0.4-0.9,0.8-1.3,1.2C80.4,121.7,81.2,122,82.5,121.6"/>
<path class="st12" d="M82.5,121.6c1.9-0.6,2,0.9,1.8,2.2c-0.2,1.3-0.2,3.9-0.2,5.3l3.2,0.2c-0.2-0.8,0-3.3,0.1-4.7
	c0.1-1.4,1.5-3.6,2-1.4c0.5,2.2,2.7,2.3,4.2,1.3c1.5-0.9,2.6-2.9,4.2-5.8c1.6-2.8-0.5-3.6-1.8-3.4c-1.3,0.2-2.5,0.3,0.3-2
	c2.6-2.2-1.8-3.3-3.8-3.7c-3.4,3.5-7.5,7.5-11.2,10.7c-0.5,0.4-0.9,0.8-1.3,1.2C80.4,121.7,81.2,122,82.5,121.6z"/>
<path class="st3" d="M79.2,142.6c1.6-0.5,2.6,2.9,4.9,0.9c2.3-2,0.7-3.7,0.6-5.3s1.8-2.3,1.3-4.4c-0.9-3.2-3.8-0.2-5.7,1.6
	c-1.8,1.7-1.9,0.3-0.1-2.5c1.8-2.8-1.2-3.8-3-3c-1.6,0.7-3.1,0-4.1-0.8c-0.7,1.1-1.2,2.2-1.8,3.3c-1.6,3.3-0.5,3.3,0.7,3.3
	c1.2,0,3.7,4.9,4,5.8c0.1,0.3,1,1.6,2.1,3.2C78,143.9,78.2,143,79.2,142.6"/>
<path class="st12" d="M79.2,142.6c1.6-0.5,2.6,2.9,4.9,0.9c2.3-2,0.7-3.7,0.6-5.3s1.8-2.3,1.3-4.4c-0.9-3.2-3.8-0.2-5.7,1.6
	c-1.8,1.7-1.9,0.3-0.1-2.5c1.8-2.8-1.2-3.8-3-3c-1.6,0.7-3.1,0-4.1-0.8c-0.7,1.1-1.2,2.2-1.8,3.3c-1.6,3.3-0.5,3.3,0.7,3.3
	c1.2,0,3.7,4.9,4,5.8c0.1,0.3,1,1.6,2.1,3.2C78,143.9,78.2,143,79.2,142.6z"/>
<path class="st3" d="M103.6,120.6c-0.2-1.6,0.8-3.3,3-2.3c2.2,0.9,3.5,0.2,4.4-0.6c0.9-0.8,4.8-1.7,4.3,1.8
	c-0.4,2.5-1.6,2.6-1.9,3.9c-0.3,1.3,0.7,0.5,1.3-0.5s1.9-5.1,4.7-2c0.7,0.8,0.4,2-0.4,3.4c-0.8,1.4-0.2,2.3,0.3,3
	c0.5,0.8,1.7,4.4-2.5,4.7c-1.5,0.1-3.3-0.3-3.3-0.3c-0.2,1.6-1.7,3.9-3.3,6.2c-0.2,0.2-1.1,0.2-1.5-0.1c-0.4-0.3-1.6-0.9-0.7-1.9
	c0.9-1,2.4-3.1,2.2-4c-0.2-0.9-0.9-1.8-1.9-0.5c-1,1.3-2.6,3.8-4.3,3.9s-3.5-1.5-2.7-3.1c0.8-1.6,1.1-2.4-0.1-3.8s-0.7-3.2,1.8-4.3
	c0.8-0.3,2.1,0,3,0.8c0.9,0.8,1.4,0,0.2-0.8C104.8,123.2,103.8,122.3,103.6,120.6"/>
<path class="st12" d="M103.6,120.6c-0.2-1.6,0.8-3.3,3-2.3c2.2,0.9,3.5,0.2,4.4-0.6c0.9-0.8,4.8-1.7,4.3,1.8
	c-0.4,2.5-1.6,2.6-1.9,3.9c-0.3,1.3,0.7,0.5,1.3-0.5s1.9-5.1,4.7-2c0.7,0.8,0.4,2-0.4,3.4c-0.8,1.4-0.2,2.3,0.3,3
	c0.5,0.8,1.7,4.4-2.5,4.7c-1.5,0.1-3.3-0.3-3.3-0.3c-0.2,1.6-1.7,3.9-3.3,6.2c-0.2,0.2-1.1,0.2-1.5-0.1c-0.4-0.3-1.6-0.9-0.7-1.9
	c0.9-1,2.4-3.1,2.2-4c-0.2-0.9-0.9-1.8-1.9-0.5c-1,1.3-2.6,3.8-4.3,3.9s-3.5-1.5-2.7-3.1c0.8-1.6,1.1-2.4-0.1-3.8s-0.7-3.2,1.8-4.3
	c0.8-0.3,2.1,0,3,0.8c0.9,0.8,1.4,0,0.2-0.8C104.8,123.2,103.8,122.3,103.6,120.6z"/>
<path class="st3" d="M124.8,109.8c-1.5-0.3-3.5-0.6-3.7,2.5c-0.1,1.2,1.1,2.1,2.2,2.5c1.1,0.4,0.9,1.2-0.3,0.8
	c-1.2-0.4-2.1-0.7-2.9,1.8c-0.8,2.4,0.7,2.8,1.4,2.9c0.8,0.2,1.3,0.3,1.2,1.3c-0.2,1-0.7,3.9,1.3,4.2c1.9,0.2,3.6-2.1,4.2-3.3
	c0.6-1.2,1.3-2.3,1.4-1c0.2,1.3-0.1,2-0.8,3.5s-0.7,2.2,0.3,2.1c1-0.1,2.7,0,3.2-1.2c0.5-1.2,1.2-3.4,1.3-5c0.1-1,0.9-1.1,1.6-1
	c0.2-1.7,0.4-3.3,0.7-4.8c-3.3,0.5-6.1-3.5-7-7C127.7,109.3,126.1,110.1,124.8,109.8"/>
<path class="st12" d="M124.8,109.8c-1.5-0.3-3.5-0.6-3.7,2.5c-0.1,1.2,1.1,2.1,2.2,2.5c1.1,0.4,0.9,1.2-0.3,0.8
	c-1.2-0.4-2.1-0.7-2.9,1.8c-0.8,2.4,0.7,2.8,1.4,2.9c0.8,0.2,1.3,0.3,1.2,1.3c-0.2,1-0.7,3.9,1.3,4.2c1.9,0.2,3.6-2.1,4.2-3.3
	c0.6-1.2,1.3-2.3,1.4-1c0.2,1.3-0.1,2-0.8,3.5s-0.7,2.2,0.3,2.1c1-0.1,2.7,0,3.2-1.2c0.5-1.2,1.2-3.4,1.3-5c0.1-1,0.9-1.1,1.6-1
	c0.2-1.7,0.4-3.3,0.7-4.8c-3.3,0.5-6.1-3.5-7-7C127.7,109.3,126.1,110.1,124.8,109.8z"/>
<path class="st3" d="M109.2,109.2c-0.6,1-2.3,3.8-1.5,4.8s1.6-0.9,2.3-0.2s2.2,1.4,2.2,0.9s0.2-1.5,0.4-2.8c0.2-1.3,0.8-2.1,1.4-1
	c0.6,1.1,1.4,2,3.5,1.5c2.1-0.5,1.8-2.7,1.4-4.3c-0.4-1.6,1.1-2.3,1.8-2.8c0.8-0.4,2.7-1.9,1.3-3.3c-1.4-1.3-2.7,0.6-3.9,0.8
	c-1.3,0.2-0.8-0.8,1.8-2.8c2.2-1.7,0.4-3.5-1-4.1c-3.6,3.6-10,9.5-11.4,10.8c-0.5,0.5-0.9,1-1.3,1.7
	C109.5,106.9,109.7,108.2,109.2,109.2"/>
<path class="st12" d="M109.2,109.2c-0.6,1-2.3,3.8-1.5,4.8s1.6-0.9,2.3-0.2s2.2,1.4,2.2,0.9s0.2-1.5,0.4-2.8c0.2-1.3,0.8-2.1,1.4-1
	c0.6,1.1,1.4,2,3.5,1.5c2.1-0.5,1.8-2.7,1.4-4.3c-0.4-1.6,1.1-2.3,1.8-2.8c0.8-0.4,2.7-1.9,1.3-3.3c-1.4-1.3-2.7,0.6-3.9,0.8
	c-1.3,0.2-0.8-0.8,1.8-2.8c2.2-1.7,0.4-3.5-1-4.1c-3.6,3.6-10,9.5-11.4,10.8c-0.5,0.5-0.9,1-1.3,1.7
	C109.5,106.9,109.7,108.2,109.2,109.2z"/>
<path class="st3" d="M129.9,142.7c1.1,1,3.7,2.4,5.5,0.8c1.8-1.7-0.4-3.5-0.7-4.8c-0.3-1.3,1.3-2.2,0.5-4.3c-1.5-3.8-3.6,0.8-4.8,2
	c-1.2,1.3-1-0.9,0.1-2c0.6-0.6,3.2-2.2,1.7-3.9c-1.5-1.8-3.7-0.7-4.8,0c-1.1,0.8-1.9,1.7-3.6,1.2c-1.7-0.5-3.1-0.7-4.1,1.8
	c-1,2.4,0.9,1.8,2.5,3.5c1.6,1.7,0.6,1.8-0.7,1.4c-1.3-0.4-1.8-2-3.7-1.8c-1.8,0.2-1.8,3.2-1.3,3.9c0.6,0.8,1.8,1.2,0.9,2.6
	c-0.8,1.4,0.4,3.1,1.9,3.8c1.5,0.7,3.8-2,4.6-3.1c0.8-1.1,1.7-0.8,1.5,0c-0.1,0.7-0.5,2.6-0.6,4.2c1.3-0.4,2.5-0.8,3.7-1.1
	c0-0.9-0.2-2.3-0.6-3.6C127.6,141.2,128.8,141.7,129.9,142.7"/>
<path class="st12" d="M129.9,142.7c1.1,1,3.7,2.4,5.5,0.8c1.8-1.7-0.4-3.5-0.7-4.8c-0.3-1.3,1.3-2.2,0.5-4.3c-1.5-3.8-3.6,0.8-4.8,2
	c-1.2,1.3-1-0.9,0.1-2c0.6-0.6,3.2-2.2,1.7-3.9c-1.5-1.8-3.7-0.7-4.8,0c-1.1,0.8-1.9,1.7-3.6,1.2c-1.7-0.5-3.1-0.7-4.1,1.8
	c-1,2.4,0.9,1.8,2.5,3.5c1.6,1.7,0.6,1.8-0.7,1.4c-1.3-0.4-1.8-2-3.7-1.8c-1.8,0.2-1.8,3.2-1.3,3.9c0.6,0.8,1.8,1.2,0.9,2.6
	c-0.8,1.4,0.4,3.1,1.9,3.8c1.5,0.7,3.8-2,4.6-3.1c0.8-1.1,1.7-0.8,1.5,0c-0.1,0.7-0.5,2.6-0.6,4.2c1.3-0.4,2.5-0.8,3.7-1.1
	c0-0.9-0.2-2.3-0.6-3.6C127.6,141.2,128.8,141.7,129.9,142.7z"/>
<path class="st3" d="M97.4,139.5c1.8,0.1,3.7-0.5,5.2-1.6c1.5-1.1,5.4-0.5,3.8,2.3c-1.6,2.8-1.1,3.3-0.2,2.3c0.9-1,2.1-2.8,3.8-2.3
	c1.8,0.5,1,1.8-0.1,3.3c-1.1,1.5-0.4,2.5,0.4,3.1c0.8,0.6,2.4,3.7-2.3,5.1c-2,0.6-2.3-0.3-3.7-0.8s-1.4,0.7-0.5,2.1
	c0.9,1.4,1.9,2.8,0.8,2.8s-1.9,0.2-2.1,1c-0.2,0.8-1.9-0.2-2.3-1.9c-0.4-1.8-0.8-5.1-1.8-3.4c-0.9,1.7-1.8,4.4-4.1,3.2
	c-2.3-1.3-0.8-2.9-1.9-4.1c-1.2-1.2-2.3-2.7-1.1-4.8c1.2-2.1,2.2-0.3,3.3-0.3c1.1,0,1.3-1,0.2-1.8C94.1,142.8,92.8,139.2,97.4,139.5
	"/>
<path class="st12" d="M97.4,139.5c1.8,0.1,3.7-0.5,5.2-1.6c1.5-1.1,5.4-0.5,3.8,2.3c-1.6,2.8-1.1,3.3-0.2,2.3c0.9-1,2.1-2.8,3.8-2.3
	c1.8,0.5,1,1.8-0.1,3.3c-1.1,1.5-0.4,2.5,0.4,3.1c0.8,0.6,2.4,3.7-2.3,5.1c-2,0.6-2.3-0.3-3.7-0.8s-1.4,0.7-0.5,2.1
	c0.9,1.4,1.9,2.8,0.8,2.8s-1.9,0.2-2.1,1c-0.2,0.8-1.9-0.2-2.3-1.9c-0.4-1.8-0.8-5.1-1.8-3.4c-0.9,1.7-1.8,4.4-4.1,3.2
	c-2.3-1.3-0.8-2.9-1.9-4.1c-1.2-1.2-2.3-2.7-1.1-4.8c1.2-2.1,2.2-0.3,3.3-0.3c1.1,0,1.3-1,0.2-1.8C94.1,142.8,92.8,139.2,97.4,139.5
	z"/>
<path class="st7" d="M114,81.1c-0.5,1.3-1.2,3-1.5,3.8c-0.3,0.8-1.9,0.5-1.8-0.1c0.2-1.3-1.5-0.4-1.3-1.4c0.2-0.8-0.2-2.2,0.8-2.2
	S112.8,81.1,114,81.1"/>
<path class="st8" d="M114,81.1c-0.5,1.3-1.2,3-1.5,3.8c-0.3,0.8-1.9,0.5-1.8-0.1c0.2-1.3-1.5-0.4-1.3-1.4c0.2-0.8-0.2-2.2,0.8-2.2
	S112.8,81.1,114,81.1z"/>
<path class="st7" d="M111.2,20.7c0.2-0.4,0.3-0.9,0.5-1.2c-0.6,0.3-1.2,0.6-1.7,0.9C110.2,20.9,110.7,21.7,111.2,20.7"/>
<path class="st7" d="M126.2,21.5c-0.2-0.9-1,0.5-2.1,1.8c-1,1.3-2.5,0.5-2.7-0.1c-0.2-0.6-0.5-1.3-1.4-2.5c-0.9-1.2,0.9-2.9,1.6-3.1
	c0.8-0.2,1.7-0.4,2-0.6c0.2-0.2-0.2-1.4-0.4-2.4c-3,0.9-6.7,2.4-9.9,4c1,0.4,0.7,2.3,0.6,2.6c-0.1,0.3-0.5,2,0.3,1
	c0.8-1,1-1.4,1.8-1.6c0.8-0.3,1.7-0.2,1.7,1c0,1.2-0.5,1.1-0.7,1.8c-0.2,0.8,0,0.7,0.4,0.9c0.4,0.2,0.6,0.7,0.3,1.5
	c-0.3,0.8-1.5,0.9-2.7,0.8c-1.1-0.1-1.2,0-0.9,0.4c0.3,0.3,0.7,1,0.9,1.7c2.7-1.3,6-2.4,11.1-3.5C126.4,24,126.4,22.2,126.2,21.5"/>
<path class="st7" d="M99.9,38c-0.4-0.8-0.9-0.9-1.1-0.3c-0.2,0.6-0.6,2.5-1.9,3.1c-0.4,0.2-0.7,0.3-1,0.3c0.4,0.5,0.9,0.9,1.5,1.3
	c1-1.1,2-2.1,2.9-3C100.2,39,100.1,38.5,99.9,38"/>
<path class="st7" d="M112.3,28c-0.5-0.2-0.8,0.5-1.1,1c-0.3,0.5-0.9,1.3-2,1.2c-1.1-0.1-1.3-0.5-1.6-1.4c-0.3-0.9-1-1.2-1.8-1.2
	c-0.8,0-1.3-1-0.5-2c0.8-1,1.7-0.5,2.3-0.5c0.7,0,1-0.7,0.5-1.1c-0.4-0.3-1.2-1.2-1.3-1.8c-2.4,1.6-5.8,4-8.8,6.7
	c0.5,0,1.2,0.2,1.5,0.4c0.4,0.2,1,0.7,1,1.4c-0.1,0.8,0.2,0.9,0.6,0.4c0.5-0.5-0.1-2,1.5-2.6c1.5-0.6,1.8,0.6,1.7,1.4
	c-0.1,0.8,0,1.5,0.8,1.9c0.8,0.3,1.7,1.6,0,2.4c-1.8,0.8-2.7,0.9-3.4,1.1c-0.7,0.2-0.5,0.9,0,1.4c0.4,0.3,0.6,0.6,0.8,0.8
	c2.2-2,4.3-3.7,6.6-5.3c1.3-0.9,2.5-1.6,3.7-2.4C112.9,29,113,28.3,112.3,28"/>
<path class="st7" d="M96,35.8c0-0.8-0.6-1.1-1-1.3c-0.3-0.1-0.9-0.7-1.1-1.2c-0.4,0.6-0.8,1.1-1.1,1.7c0.2,0.6,0.4,1.1,0.5,1.6
	C94.3,36.6,95.9,36.5,96,35.8"/>
<path class="st7" d="M131.2,74.7c-2.7-0.2-6,0.4-9.1,1.6c0.5,0.3,1.1,1.1,2.2,0.7c1.6-0.5,2.1,1.1,1.4,1.6c-0.8,0.5-1,1.6,0.4,0.8
	c1.4-0.9,2.7,0.4,2.1,1.3c-0.6,0.9-1.3,0.2-1.2,1.5c0.2,1.3-0.1,2.5-1.3,2.7c-1.2,0.2-1.4-1.5-2-1.4c-0.5,0.1,0.1,3.1-0.1,3.1
	c-0.8,0.1-1.6,0.8-2,1.3c0,0,0.1,0,0.1,0.1c4.6,3.3,5.8,1.5,6.4-0.1c0.7-1.6,2.1-6.3,2.6-8.8C131.1,77.6,131.4,76.1,131.2,74.7"/>
<path class="st7" d="M121.3,83.8c0.2-0.6-0.4-1.2-1.1-0.7c-0.7,0.5-1.8,1.1-2.5-0.1c-0.7-1.2,0.8-1.3,0.9-1.9
	c0.1-0.6-0.5-0.7-0.2-1.6c0.3-1,1.3-0.7,2.1-0.2c0.9,0.6,0.6-0.8,0.5-1.3c-0.1-0.4-0.2-0.8-0.1-1.1c-0.9,0.4-1.8,0.9-2.6,1.4
	c-4.3,2.6-4.4,4.8-3.4,5.7c0.9,0.7,2.7,1.1,5.9,3.1C120.7,86,121.1,84.3,121.3,83.8"/>
<path class="st7" d="M107.6,81.3c-1.8-0.9-3.5-2.8-4.7-5.1c0,0,0.1-0.3-0.4-0.3s-2.3-0.2-5.4-1.3c-3.1-1.1-3.5-0.4-3.9,0.9
	c-0.4,1.3-0.8,3.8-0.8,7.8c-0.1,4,1.7,6.5,2.8,6.1c0.5-0.2,1.9-0.9,3.4-1.6c0-0.8,0.1-2.2,0.2-2.8c0.1-1-0.9-0.6-1.3-0.1
	c-0.4,0.5-1.2,1.3-2,1.2s-1.3-1.5-1.1-2.7c0.1-1.3-1.3-1.8-0.4-3.4c0.9-1.7,1.7,0.4,2.5,0.2c0.8-0.2,0.4-0.6,0-1.9
	c-0.4-1.3,1.2-1.7,2.2-0.8c0.6,0.6,0.9-0.7,1.8-0.5c0.9,0.2,1.5,0.8,0.9,1.7c-0.4,0.7-0.7,2.4,0.1,1.5c0.8-0.9,1.6-1.4,2.3-0.8
	c0.8,0.6,0.2,1.8,0,2.4c-0.2,0.6,1.3,1.4,0.2,2.1c-1.1,0.8-2.3-0.5-2.9-0.4c-0.6,0.2-0.8,0.9,0.1,1.5c0.5,0.4,1.1,0.7,1.5,0.8
	c1.7-0.6,3.8-1.7,4.4-2.1l1.1,0.1C108.2,82.5,108.1,81.6,107.6,81.3"/>
<path class="st7" d="M101.4,99.7c-0.7-1.5-0.9-0.3-2.8,2.6c-0.9,1.5-3.3,4.2-6.3,7.3c2.1,0.4,6.5,1.5,3.8,3.7
	c-2.8,2.3-1.6,2.2-0.3,2c1.3-0.2,3.3,0.6,1.8,3.4c-1.6,2.8-2.7,4.8-4.2,5.8c-1.5,0.9-3.7,0.8-4.2-1.3c-0.5-2.2-1.9,0-2,1.4
	c-0.1,1.4-0.2,3.8-0.1,4.7l-3.2-0.2c-0.1-1.3-0.1-4,0.2-5.3c0.3-1.3,0.2-2.8-1.8-2.2c-1.3,0.4-2.1,0.1-2.6-0.2
	c-3.7,3.3-5.6,5.6-6.9,7.6c1,0.8,2.5,1.5,4.1,0.8c1.8-0.8,4.8,0.2,3,3c-1.8,2.8-1.8,4.3,0.1,2.5c1.8-1.8,4.8-4.8,5.7-1.6
	c0.6,2.1-1.3,2.8-1.3,4.4c0.1,1.7,1.8,3.3-0.6,5.3c-2.3,2-3.3-1.4-4.9-0.9c-1,0.3-1.2,1.2-1.1,2c2.1,2.9,5.1,7.1,6.2,8.9
	c1.7,2.8,1.7,6.1,2.3,5.6c0.7-0.5,2.2-2,2.8-2.4c0.5-0.4,1-0.9,0.8-1.8c-0.3-0.9-1.2-5.8-0.9-9.3c0.3-3.9,2.2-8.2,3.5-10.7
	c1.3-2.4,5.2-9.9,6.1-11.9c0.9-2,2.6-4.3,3-6.2c0.4-1.8,2-6.1,2.7-8.1C104.3,107,103.2,103.6,101.4,99.7"/>
<path class="st7" d="M137.8,136.7c-2.2-3.6-2.6-5-2.9-8.7c-0.2-2.3,0-5.3,0.3-8.2c-0.6-0.1-1.5,0.1-1.6,1c-0.1,1.6-0.8,3.8-1.3,5
	c-0.5,1.2-2.2,1.1-3.2,1.2c-1,0.1-1-0.6-0.3-2.1s0.9-2.2,0.8-3.5c-0.2-1.3-0.8-0.2-1.4,1c-0.6,1.2-2.3,3.5-4.2,3.3
	c-1.9-0.2-1.4-3.2-1.3-4.2c0.2-1-0.4-1.2-1.2-1.3c-0.8-0.2-2.3-0.5-1.4-2.9c0.8-2.4,1.8-2.2,2.9-1.8c1.2,0.4,1.3-0.3,0.3-0.8
	c-1.1-0.4-2.3-1.3-2.2-2.5c0.2-3.1,2.2-2.8,3.7-2.5c1.3,0.3,3-0.5,4.1-1.7c0-0.1,0-0.2-0.1-0.2c-2.2-8.5,2-18.9,3.2-21.9
	c1.2-2.9,5.7-11.1,7.2-13.6c-0.8-0.4-3-1.5-4.3-2.2c-1.2-0.6-1.9-0.9-2.2-0.5c-0.3,0.5-0.8,0.7-1.3,1.5c-1.2,1.7-0.2,1.4,0.2,1.4
	c0.3,0,1.7,1.8,2,2.3c0.3,0.4,0,0.8-0.6,2.1c-0.8,1.7-1.3,5.8-1.9,8.2c-2,7.3-5.2,6.6-6.6,5.7c-1.4-0.9-1.8,0.5-3.3,2.5
	c-0.3,0.5-1.2,1.4-2.3,2.5c1.4,0.6,3.2,2.4,1,4.1c-2.6,2-3.1,3.1-1.8,2.8c1.2-0.2,2.5-2.2,3.9-0.8c1.4,1.3-0.5,2.8-1.3,3.3
	c-0.8,0.4-2.3,1.2-1.8,2.8c0.4,1.6,0.7,3.8-1.4,4.3c-2.1,0.5-2.9-0.4-3.5-1.5c-0.6-1.1-1.2-0.3-1.4,1c-0.3,1.3-0.4,2.3-0.4,2.8
	c0,0.5-1.5-0.2-2.2-0.9s-1.5,1.2-2.3,0.2c-0.8-0.9,0.9-3.8,1.5-4.8c0.6-0.9,0.3-2.3-3-0.7c-1.1,1.8-1.9,4.4-3.3,8.5
	c-1.8,5.6-6,13.2-7.7,16c-4.5,7.2-5.3,14.1-4.6,18.3c0.7,4.2,1.3,3.9,2.2,3.9s3.2,2.8,4.7,4.6c1.5,1.8,2.1,1,2.8,0.4
	c2.4-1.9,7.3-5,14.1-8.3c2.9-1.4,6.8-2.9,10.6-4.1c0.1-1.6,0.4-3.5,0.6-4.2c0.2-0.8-0.7-1.1-1.5,0c-0.8,1.1-3.1,3.8-4.6,3.1
	c-1.5-0.7-2.8-2.3-1.9-3.8c0.8-1.4-0.3-1.8-0.9-2.6c-0.6-0.8-0.6-3.7,1.3-3.9c1.8-0.2,2.4,1.3,3.7,1.8c1.3,0.4,2.3,0.3,0.7-1.4
	c-1.6-1.8-3.5-1.1-2.5-3.5c1-2.4,2.4-2.3,4.1-1.8c1.7,0.5,2.5-0.4,3.6-1.2c1.1-0.7,3.3-1.8,4.8,0c1.5,1.8-1.1,3.3-1.7,3.9
	c-1.1,1.1-1.3,3.3-0.1,2c1.3-1.3,3.4-5.8,4.8-2c0.8,2.2-0.8,3-0.5,4.3c0.2,1.3,2.5,3.2,0.7,4.8c-1.8,1.7-4.4,0.2-5.5-0.8
	c-1.1-1-2.3-1.5-1.8,0.3c0.4,1.3,0.6,2.8,0.6,3.6c3.6-1,6.8-1.6,8.4-1.5c2.4,0.2,4.2,0.9,4.1-1.3C141.2,141.8,140,140.3,137.8,136.7
	 M108.2,151.7c-2,0.6-2.3-0.3-3.7-0.8s-1.4,0.7-0.5,2.1c0.9,1.4,1.9,2.8,0.8,2.8s-1.9,0.2-2.1,1c-0.2,0.8-1.9-0.2-2.3-1.9
	c-0.4-1.8-0.8-5.1-1.8-3.4c-0.9,1.7-1.8,4.4-4.1,3.2c-2.3-1.3-0.8-2.9-1.9-4.1c-1.2-1.2-2.3-2.7-1.1-4.8c1.2-2.1,2.2-0.3,3.3-0.3
	c1.1,0,1.3-1,0.2-1.8c-1-0.8-2.3-4.3,2.3-4.1c1.8,0.1,3.7-0.5,5.2-1.6c1.5-1.1,5.4-0.5,3.8,2.3c-1.6,2.8-1.1,3.3-0.2,2.3
	c0.9-1,2.1-2.8,3.8-2.3c1.8,0.5,1,1.8-0.1,3.3c-1.1,1.5-0.4,2.5,0.4,3.1C111.3,147.1,112.8,150.3,108.2,151.7 M116.7,132
	c-1.5,0.1-3.3-0.3-3.3-0.3c-0.2,1.6-1.7,3.9-3.3,6.2c-0.2,0.2-1.1,0.2-1.5-0.1c-0.4-0.3-1.6-0.9-0.7-1.9c0.9-1,2.4-3.1,2.2-4
	c-0.2-0.9-0.9-1.8-1.9-0.5c-1,1.3-2.6,3.8-4.3,3.9c-1.8,0.1-3.5-1.5-2.7-3.1c0.8-1.6,1.1-2.4-0.1-3.8s-0.7-3.2,1.8-4.3
	c0.8-0.3,2.1,0,3,0.8c0.9,0.8,1.4,0,0.2-0.8c-1.3-0.8-2.3-1.7-2.4-3.3c-0.2-1.6,0.8-3.3,3-2.3c2.2,0.9,3.5,0.2,4.4-0.6
	c0.9-0.8,4.8-1.7,4.3,1.8c-0.4,2.5-1.6,2.6-1.9,3.9c-0.3,1.3,0.7,0.5,1.3-0.5s1.9-5.1,4.7-2c0.7,0.8,0.4,2-0.4,3.4
	c-0.8,1.4-0.2,2.3,0.3,3C119.7,128,120.9,131.7,116.7,132"/>
<polyline class="st1" points="193.5,60.4 191,62.2 196.7,70.2 193.5,72.5 187.9,64.3 185.4,66.1 190.4,73.8 187.2,76.1 179,64.5 
	193.8,54 202.8,66.6 199.5,68.9 "/>
<polyline class="st1" points="197.6,85.1 200.9,92.4 196.1,94.6 190.8,82.8 206.8,75.9 208.9,80.4 "/>
<polyline class="st1" points="199.5,106.7 199,102.2 209.7,101 209.3,94.5 214.1,94.1 215.4,109.7 210.6,110.1 210.2,105.4 "/>
<polyline class="st1" points="199.6,122.8 199.5,117.5 215.3,117.4 215.3,122.7 "/>
<path class="st1" d="M207.9,144.4c1.5-0.9,2.1-2,2.4-3.3c0.5-3.3-1.2-6-4.2-6.5c-2.8-0.4-5.1,0.9-6,3.7c-0.4,1.5-0.3,2.9,0.1,3.9
	l-4.2,1.4c-0.6-2-0.8-4.2-0.5-6c0.5-2.7,1.4-4.2,3.4-5.7c2.2-1.7,5.3-2.1,8-1.6c2.4,0.5,4.7,1.7,6.1,4.1c1.4,2.4,2.1,4.5,1.5,7.5
	c-0.3,1.8-1.9,4.3-4,5.6"/>
<path class="st1" d="M199.6,158.2c-2.4,2.3-6.6,5-8.2,5.1c-2.2,0.2-2.8-1-3.2-2.9c-0.3-1.5,0-3.8,0.7-5.8c0.6-1.7,2-3.4,3.3-4.5
	l2.6,1.2c-1.4,0.9-2.3,2.4-2.9,4.2c-0.4,1.2-0.8,3,0.4,3.4c1.3,0.5,4.3-2.5,5.1-3.3c1.4-1.4,4.4-3.8,6.6-3.2
	c1.5,0.4,4.1,3.4,3.1,8.4c-0.4,2.1-1.2,4.3-2.6,5.7l-3.6-2.4c1-0.7,1.6-2.6,2-3.9c0.3-0.9,0.4-2.4-0.5-2.9
	C201.9,156.9,200.8,157,199.6,158.2"/>
<path class="st1" d="M180.1,48.3c-0.2-1.7-0.6-2.9-1.7-3.6c-2.8-1.8-5.9-1.3-7.7,1.1c-1.4,2-1.3,5,0.9,7c1.2,1,2.6,1.5,3.6,1.5
	l-0.4,4.4c-2-0.3-4.2-1-5.7-2c-2.3-1.6-3.3-3-3.8-5.5c-0.6-2.7,0.3-5.7,1.8-7.9c1.4-2,3.9-3.8,6.7-4.1c2.7-0.3,5.2,0.1,7.3,2
	c1.4,1.2,2.7,4,3,6.4"/>
<path class="st1" d="M19,137.3c0.1-4.7,2.4-7,3.7-7.2c2.1-0.4,3.2-0.1,4.7,1.2c1.5,1.3,2.2,2.8,2.6,4.8c0.4,1.8,0.5,3.9,0,5.4
	l-3.4,0.3c0.7-1.5,0.2-2.9-0.2-4.8c-0.3-1.2-1.1-2.5-2.3-2.2c-1.3,0.3-1.2,2.5-1.3,3.6c-0.4,3.8-1.6,6.3-4,6.6
	c-2.2,0.2-5-1.2-5.9-5.8c-0.4-2.1-0.2-4.9,0.3-6.9l3.5,0c-0.5,1.1-0.9,4-0.6,5.3c0.2,1,1,2.2,2,2.1C18.8,139.8,19,138.1,19,137.3"/>
<polyline class="st1" points="28.2,115.3 28.2,119.2 15.8,119.4 15.8,125 11.8,125.1 11.7,110.2 15.6,110.2 15.7,115.5 "/>
<polyline class="st1" points="37.1,71.2 26.4,64.4 28.7,60.7 44.4,69.8 41.4,74.5 28.7,74.7 28.6,74.7 38.3,80.3 35.9,84.5 
	20.4,75.5 22.5,71.6 "/>
<path class="st1" d="M13,94.4c0-5.3,4.3-9.6,9.6-9.6c5.3,0,9.6,4.3,9.6,9.6c0,5.3-4.3,9.6-9.6,9.6C17.4,104.1,13,99.7,13,94.4
	 M22.7,99.4c2.8,0,5-2.2,5-5s-2.2-5-5-5c-2.8,0-5,2.2-5,5S19.9,99.4,22.7,99.4"/>
<path class="st1" d="M19.3,157.9c0-5.3,4.3-9.6,9.6-9.6c5.3,0,9.6,4.3,9.6,9.6c0,5.3-4.3,9.6-9.6,9.6
	C23.6,167.5,19.3,163.2,19.3,157.9 M28.9,162.9c2.8,0,5-2.2,5-5c0-2.8-2.2-5-5-5c-2.8,0-5,2.2-5,5C23.9,160.6,26.1,162.9,28.9,162.9
	"/>
<path class="st1" d="M39.7,175.4c-1.4-2.1-0.7-5.2,0.8-6.5c3-2.7,8,3.4,9.8,5.7l5.2,6l-12.8,10.6l-4.8-4.8
	c-3.5-3.5-7.7-7.8-4.2-10.8C35.1,174.4,38.2,174.7,39.7,175.4 M49.7,178.2l-0.4-0.5c-1-1.2-4.4-5.5-5.7-4.2
	c-1.5,1.4,2.1,5.2,3.2,6.5l0.3,0.4L49.7,178.2z M43.5,183.4c-0.5-0.6-4.3-5.2-5.8-3.8c-1.6,1.5,2.2,4.5,3.4,6L43.5,183.4z"/>
</svg>
