<?xml version="1.0" encoding="utf-8"?>
<!-- Generator: Adobe Illustrator 21.1.0, SVG Export Plug-In . SVG Version: 6.00 Build 0)  -->
<!DOCTYPE svg PUBLIC "-//W3C//DTD SVG 1.1//EN" "http://www.w3.org/Graphics/SVG/1.1/DTD/svg11.dtd">
<svg version="1.1" id="Layer_1" xmlns="http://www.w3.org/2000/svg" xmlns:xlink="http://www.w3.org/1999/xlink" x="0px" y="0px"
	 width="482.4px" height="500px" viewBox="0 0 482.4 500" style="enable-background:new 0 0 482.4 500;" xml:space="preserve">
<style type="text/css">
	.st0{fill:#828382;}
	.st1{fill:#1C1060;}
	.st2{fill:#008CA8;}
	.st3{fill:#FEFEFE;}
</style>
<title>CHA</title>
<desc>Created with Sketch.</desc>
<g id="NBA">
	<g id="CHA">
		<g id="Page-1" transform="translate(9.000000, 0.000000)">
			<g id="Group-3">
				<path id="Fill-1" class="st0" d="M417.9,243.7c-0.5-0.3-1-0.6-1.5-0.9L277.2,127l35.3,53.2l54.8,52.8c-5.4,1.2-10.4,3.2-15,6.2
					c-15.6-16.8-33.7-26.1-53.8-27.7c-6.7-0.6-14,2.2-21,7.8C168.4,121.4,17.3,10,15.8,8.9L3.7,0l2.7,14.8
					c0.1,0.3,5.1,28.1,14.1,63.1c-10.8-6-17.1-9.4-17.1-9.4L-9,61.8l3.7,13.5c0.2,0.7,19.8,71.1,49.2,131.8
					C57.6,238,96.6,271,157.1,280.4c27.8,4.4,59.3,7.3,93.7,8.7c0.7,5.5,2,10.9,4,16c-14.9,2.7-28.8,9.6-39.9,20
					c-29.2,27.3-32.7,73.2-8.1,104.2c0.5,0.7,51.2,70.7,148.9,70.7c10.7,0,21.7-0.8,32.7-2.5l20.1-3l-18.5-8.3
					c-14.2-6.4-51.2-26.1-62.9-44.9c0,0,0.1-0.1,0.1-0.1c13.6-12.7,21.4-30.7,22-50.6c0.7-22.7-8.2-46-23.8-62.4
					c-0.1-0.1-0.3-0.3-0.4-0.4c9.1-1.3,17.6-3.6,25.6-6.7c11,13.2,25.6,24.3,38.2,28.9c2,0.7,4.4,1.4,7.2,2.2
					c16.7,4.8,44.6,12.9,61.5,55.6l6.9,17.4l4.5-18.1C469,405.8,495.7,294.1,417.9,243.7"/>
			</g>
			<path id="Fill-4" class="st1" d="M414.7,248.8c-0.5-0.3-1.1-0.7-1.7-1.1l-108.1-90l12.7,19.1l58.2,55.9l11.3,5.8
				c-11.7-1.8-24.8-0.5-35.5,8.7c-12.7-14.9-30.2-27.9-53.4-29.8c-6.5-0.5-13.8,3.3-20.5,9.9C167.1,127.7,12.3,13.7,12.3,13.7
				s6.2,34.9,17.5,76.2C11.5,79.7,0.5,73.8,0.5,73.8s19.3,69.8,48.8,131c13.7,30.7,54.6,61.1,108.7,69.7c34.7,5.5,70.5,7.8,98.2,8.8
				c0.4,8.9,2.6,18,7.2,26.7c-16.1,1.1-31.9,7.6-44.5,19.4c-27.4,25.7-30.1,67.6-7.4,96.4c0,0,59.3,83.4,175.8,65.8
				c0,0-56.7-25.5-68-51.9c1.2-1,2.4-1.9,3.6-2.9c29-27.2,25.2-75.8-2.1-104.5c-3.3-3.5-7-6.6-10.8-9.3c13.1-0.4,28-2.8,42.1-9.3
				c10.9,14.5,26.1,26.1,38.4,30.6c14.3,5.2,51.5,9,72.2,61.2C462.9,405.4,489.8,297.3,414.7,248.8"/>
			<path id="Fill-6" class="st2" d="M344.3,255.3c-4.3-5.7-15.4-18.5-31.1-23.7c0,0,17.5,19.8,25,39.1
				C338.9,265.4,340.9,260.2,344.3,255.3"/>
			<path id="Fill-8" class="st2" d="M45.6,79.5c110.8,80.1,207.9,150.6,251.2,182.1C261.7,229.3,158.4,137,37.8,55.7
				C45.4,81.7,45.6,79.5,45.6,79.5"/>
			<path id="Fill-10" class="st3" d="M87.8,143.3l211.5,129.3l21.5,6.5c0,0-125.1-91-275.2-199.6c0,0,8,20.3,18.6,49l-34.8-19.8
				l8.7,23.1c5.3,17.3,14.3,43,26.5,67c29.1,43.4,84.8,51.6,84.8,51.6l82.4,12.1l7.2,1.7L87.8,143.3z"/>
			<path id="Fill-12" class="st2" d="M293.1,407.5c0.3-4.5-1.6-9.3-6.4-13.9c-14.3-13.8-28.1-26.1-33.6-38.2
				c-7.3,5.8-13.4,13.5-17.5,23.6c-1.8,4.4-2.9,8.6-3.5,12.6c11.8,9.1,30.4,16.1,59.6,15.9C292,407.6,292.5,407.6,293.1,407.5"/>
			<path id="Fill-14" class="st2" d="M266,426.6c12-0.9,21.1-6.2,25.3-13.1c-14.2,0.5-38.9-0.1-59.8-12.4c0.1,3.4,0.6,10.8,4.9,19.6
				C242.1,423.9,252.1,427.7,266,426.6"/>
			<path id="Fill-16" class="st2" d="M291.5,461c7.6-9.2,17.9-10,25.2-9c-3.7-4.7-6.4-9.8-7.6-15.1c2.3-1.5,4.5-3.1,6.5-5
				c21.5-20.1,21.1-56.5,4.6-80.9c-4.4-2.8-9.4-4.9-14.7-6.3c31.7,48.5,4.3,84.9,4.3,84.9l-0.7-0.1c16.3-40.7,0.9-69.2-16.3-86.6
				c-12-0.5-23.6,2.1-34.3,9c7.9,20.5,46,37.6,42.6,58.8c-1.6,9.9-12.4,28.5-57.4,21.2c9.7,10.2,26.5,16.4,55.7,8.2
				c0,0-7.5,7.4-19.4,11.7C283.5,454.9,287.3,458,291.5,461"/>
			<path id="Fill-18" class="st3" d="M331,466.1c-0.8-0.3-1.8-0.6-2.9-1.1c-11.8-4.9-16.2,3.4-17.7,8.6
				c17.1,7.7,36.6,12.8,60.8,15.3C371.2,489,348.4,479.5,331,466.1"/>
			<path id="Fill-20" class="st2" d="M390.2,249.5C390.2,249.5,390.2,249.5,390.2,249.5C390.2,249.5,390.2,249.5,390.2,249.5"/>
			<path id="Fill-22" class="st2" d="M415,262.1c-4.3-3.2-12.4-8.4-21.4-11.5c-41-8.4-44.3,50.7,11.7,80.8c11,4.2,33.6,6.4,51.6,41
				C456.9,372.3,466.5,300,415,262.1"/>
			<path id="Fill-24" class="st1" d="M448.4,350.5c0,0-0.6-36.6-21.9-61.9c-20.9-24.8-45.4-30.9-47.3-21.7c0,0,11.6-1.9,26.3,14.3
				c0,0-19.1,33.8,28.3,45.5c0,0,3.3,0.7,5.9,0.4C443.2,334.5,446.4,342.5,448.4,350.5"/>
			<path id="Fill-26" class="st3" d="M425.9,302.7c0,0,4,5.4,8.4,14.4C434.3,317.1,416.9,321.8,425.9,302.7"/>
		</g>
	</g>
</g>
</svg>
