<?xml version="1.0" encoding="utf-8"?>
<!-- Generator: Adobe Illustrator 21.1.0, SVG Export Plug-In . SVG Version: 6.00 Build 0)  -->
<!DOCTYPE svg PUBLIC "-//W3C//DTD SVG 1.1//EN" "http://www.w3.org/Graphics/SVG/1.1/DTD/svg11.dtd">
<svg version="1.1" id="Layer_1" xmlns="http://www.w3.org/2000/svg" xmlns:xlink="http://www.w3.org/1999/xlink" x="0px" y="0px"
	 width="600px" height="516.4px" viewBox="0 0 600 516.4" style="enable-background:new 0 0 600 516.4;" xml:space="preserve">
<style type="text/css">
	.st0{fill:#FFB819;}
	.st1{fill:#002B60;}
	.st2{fill:#73243D;}
</style>
<g>
	<path class="st0" d="M440.6,107.1c-8.6-1-27.4,4-56.1,16.1c-43.1,18-93.8,56.3-126.1,90.9c-34.6,37.3-103.5,123.4-102.6,163.4
		c0,1.3,1,6.7,6.9,8.8l2.5,0.8c21,4.8,50.3,1.5,114.4-18.4c0,0,97.8-29.7,219.3-82.9l35-19.5l-18,90.5l-2.1,1.7
		C423.8,436.8,284.3,510.4,166.2,516c-27.4,1.3-59.1-0.2-87.3-11.3C42,489.9,19.1,467.4,9.1,439.2c-4-8-37.9-86.1,57-205.3
		L4.3,249.2l49.7-76.9c100.5-83.2,396.8-256,535.2-124.6L600,58.7v44c0,0-220.6,128.8-219.5,126.7c1.9-3.6,48-94.5,48-94.5
		C434.3,123.7,438.3,114.5,440.6,107.1z"/>
	<g>
		<path class="st1" d="M448.1,92.3c-14.2-4.6-39.8,3.4-69.8,16.1c-45.5,19.1-98.2,58.7-131.8,94.7c-32.7,35.2-108.1,126.7-107,174.7
			c0,2.1,0.2,4,0.6,5.9c-7.3-5.9-11.7-14.7-12.1-27.4c-1.1-48,74.2-139.7,107-174.7c33.7-36.2,86.3-75.6,131.8-94.9
			C413.8,67.1,450.2,58.7,448.1,92.3z"/>
		<path class="st1" d="M585.3,65.9l0.4,28.3L418.8,195.1c1.7-1.7,20.7-38.3,21.8-40.8L585.3,65.9z"/>
		<path class="st1" d="M93.5,210.8c-17.6,4.2-35.6,8.6-51.5,12.6c2.3-2.9,18.6-25.4,22.4-30.4c19.5-4.6,39.4-9,57.6-13.2
			C113.2,188.4,103.5,198.9,93.5,210.8z"/>
		<path class="st1" d="M503.2,346.4c-88.6,76.9-224.6,148.1-337.9,153.5c-26.6,1.1-55.7-0.4-80.6-10.3
			c-34.1-13.6-52.8-33.1-60.8-56.3C34.4,447.1,50.3,459,73,468.1c24.9,9.9,54,11.5,80.6,10.1c122.1-5.7,270.9-88.2,357.8-171.8
			L503.2,346.4z"/>
		<path class="st2" d="M578,59.4l-135.1,82.9c58-113.7-46.5-86.9-116.1-45.9c-39.6,20.9-85.1,63.1-99.5,78.3
			C111.3,298.2,30,463.4,284.1,384.3c0,0,98.7-29.8,221.4-83.8C158.4,593.8-169.4,471.2,153,162.8c-29.3,6.7-58.9,13-88,21.2
			C168.5,98.5,451.7-60.9,578,59.4z"/>
	</g>
</g>
</svg>
