<svg id="Layer_1" data-name="Layer 1" xmlns="http://www.w3.org/2000/svg" xmlns:xlink="http://www.w3.org/1999/xlink" viewBox="0 0 110.86 76.45112"><defs><clipPath id="clip-path" transform="translate(0 -0.00021)"><rect x="0.00011" y="0.00101" width="110.86101" height="76.45099" fill="none"/></clipPath><clipPath id="clip-path-2" transform="translate(0 -0.00021)"><rect x="0.00011" width="110.86101" height="76.452" fill="none"/></clipPath></defs><title>Untitled-1</title><g clip-path="url(#clip-path)"><path d="M57.551.1662s-17.451,14.278-17.918,14.66c-.069-.08-.239-.278-.239-.278l-.148.001c-.196.003-4.901.116-13.035,5.06v.001a70.83482,70.83482,0,0,0-11.677,9.164l-.54.541H17.65c-.593.62-1.781,1.864-1.781,1.864s.731,1.501,1.019,2.094H0v9.239l.311.007c.091.002.886.039.886.663v23.315c0,.617-.716.676-.797.681l-.299.018-.002.3v8.786h9.2l.529-.309c.088.101.271.309.271.309h6.77s2.951-1.781,3.277-1.977a9.15745,9.15745,0,0,0,2.758,1.707,8.50281,8.50281,0,0,0,4.584.235c1.335-.279,5.184-2.887,6.146-3.548a13.38137,13.38137,0,0,0,3.959,3.174,10.001,10.001,0,0,0,5.232.244,21.28143,21.28143,0,0,0,4.291-2.384s1.241-.788,1.578-1.002c.174.19.42.46.42.46a11.04323,11.04323,0,0,0,1.536,1.515,7.65125,7.65125,0,0,0,3.433,1.534,10.92766,10.92766,0,0,0,3.418-.02,8.11043,8.11043,0,0,0,3.58-1.844s.143-.106.283-.212c.311.401,1.653,2.14,1.653,2.14l.153-.005H78.242v-2.16c.724.561,2.788,2.16,2.788,2.16H92.156v-2.047c.692.369,3.074,1.641,3.074,1.641s1.136-.982,1.42-1.227a11.3721,11.3721,0,0,0,2.379,1.316,12.01169,12.01169,0,0,0,6.585-.059,7.62249,7.62249,0,0,0,4.013-3.35,9.43855,9.43855,0,0,0,1.072-3.689v-8.804a8.35478,8.35478,0,0,0-1.037-4.139,9.4597,9.4597,0,0,0-1.389-1.916l-.159-.185a16.7722,16.7722,0,0,0-3.145-2.433h5.891v-17.527s-2.438.831-2.697.919a10.80017,10.80017,0,0,0-3.521-1.52,40.00737,40.00737,0,0,0-5.935-.308c.044-.188.124-.527.124-.527s-1.931-2.369-2.545-3.122h4.18l-.533-.54a79.34057,79.34057,0,0,0-13.392-10.364,31.54914,31.54914,0,0,0-10.686-4.362l-.156-.024s-.329.319-.505.49c-.428-.356-17.441-14.522-17.441-14.522Zm-17.757,15.347S57.353,1.14621,57.75.8222c.393.327,17.476,14.552,17.476,14.552s.533-.517.684-.664a31.98419,31.98419,0,0,1,10.299,4.248,80.77816,80.77816,0,0,1,12.717,9.73H94.951s3.007,3.689,3.191,3.915c-.046.195-.24,1.015-.24,1.015l.409-.008a44.24549,44.24549,0,0,1,6.219.293,10.6569,10.6569,0,0,1,3.408,1.508l.132.09s1.583-.54,2.156-.735v16.007h-7.53l.999.589a22.3121,22.3121,0,0,1,3.938,2.892l.16.186a8.79369,8.79369,0,0,1,1.302,1.785,7.78972,7.78972,0,0,1,.97,3.855v8.804a8.93124,8.93124,0,0,1-.975,3.352,7.008,7.008,0,0,1-3.684,3.087,11.45822,11.45822,0,0,1-6.185.055,12.51876,12.51876,0,0,1-2.408-1.37l-.202-.146s-1.208,1.043-1.466,1.267c-.342-.182-3.623-1.935-3.623-1.935v2.471H81.247c-.162-.125-3.639-2.819-3.639-2.819v2.819H63.325c-.165-.213-1.835-2.375-1.835-2.375l-.253.177-.538.404a7.53,7.53,0,0,1-3.294,1.723,10.32079,10.32079,0,0,1-3.223.019,7.03405,7.03405,0,0,1-3.151-1.415,10.51176,10.51176,0,0,1-1.443-1.429l-.79-.865-.213.145-1.814,1.151a20.96881,20.96881,0,0,1-4.136,2.313,9.559,9.559,0,0,1-4.797-.224,13.89035,13.89035,0,0,1-3.91-3.216l-.187-.221-.237.166c-1.323.922-5.008,3.371-6.145,3.609a7.86367,7.86367,0,0,1-4.237-.211,8.79691,8.79691,0,0,1-2.752-1.736l-.174-.146s-3.356,2.025-3.504,2.114H10.386c-.1-.114-.426-.486-.426-.486s-.715.418-.832.486H.734v-7.891a1.27261,1.27261,0,0,0,1.097-1.26v-23.315a1.28313,1.28313,0,0,0-1.197-1.253v-8.022H17.902s-1.108-2.277-1.27-2.609c.263-.275,2.5-2.617,2.5-2.617h-3.59a69.98415,69.98415,0,0,1,10.998-8.53c7.356-4.471,11.879-4.915,12.572-4.958.101.118.442.516.442.516Z" transform="translate(0 -0.00021)" fill="#fff"/></g><g clip-path="url(#clip-path-2)"><path d="M26.3755,19.8804c8.153-4.956,12.874-5.014,12.874-5.014l.344.402L57.7515.41141l17.459,14.537.596-.579a31.50954,31.50954,0,0,1,10.568,4.319,78.26309,78.26309,0,0,1,13.333,10.317h-4.089l2.868,3.518-.181.77a44.004,44.004,0,0,1,6.281.298,10.92137,10.92137,0,0,1,3.532,1.559l2.425-.827v16.766h-6.687a22.41177,22.41177,0,0,1,4.017,2.958,10.20274,10.20274,0,0,1,1.505,2.035,8.06189,8.06189,0,0,1,1.003,3.998v8.804a9.17546,9.17546,0,0,1-1.023,3.52,7.34867,7.34867,0,0,1-3.848,3.219,11.78761,11.78761,0,0,1-6.385.057,12.65988,12.65988,0,0,1-2.497-1.414l-1.442,1.244-3.347-1.787v2.259H81.1385l-3.213-2.49v2.49h-14.756s-1.144-1.43-1.745-2.259a9.40584,9.40584,0,0,1-3.971,2.184,10.63808,10.63808,0,0,1-3.321.019,7.33366,7.33366,0,0,1-3.292-1.473,19.13794,19.13794,0,0,1-2.091-2.134c-2.032,1.232-4.403,2.988-6.02,3.496a9.8392,9.8392,0,0,1-5.014-.234,14.1026,14.1026,0,0,1-4.03-3.304s-4.812,3.357-6.262,3.661a8.21608,8.21608,0,0,1-4.411-.225,9.18233,9.18233,0,0,1-2.847-1.791c-1.402.83-3.385,2.043-3.385,2.043h-6.538l-.348-.396-.681.396H.4165v-8.47s1.097-.053,1.097-.998V43.1824c0-.962-1.197-.98-1.197-.98v-8.612h17.078l-1.144-2.352,2.14-2.24h-3.632a69.95222,69.95222,0,0,1,11.617-9.118" transform="translate(0 -0.00021)" fill="#fff"/><path d="M26.3755,19.8804c8.153-4.956,12.874-5.014,12.874-5.014l.344.402L57.7515.41141l17.459,14.537.596-.579a31.50954,31.50954,0,0,1,10.568,4.319,78.26309,78.26309,0,0,1,13.333,10.317h-4.089l2.868,3.518-.181.77a44.004,44.004,0,0,1,6.281.298,10.92137,10.92137,0,0,1,3.532,1.559l2.425-.827v16.766h-6.687a22.41177,22.41177,0,0,1,4.017,2.958,10.20274,10.20274,0,0,1,1.505,2.035,8.06189,8.06189,0,0,1,1.003,3.998v8.804a9.17546,9.17546,0,0,1-1.023,3.52,7.34867,7.34867,0,0,1-3.848,3.219,11.78761,11.78761,0,0,1-6.385.057,12.65988,12.65988,0,0,1-2.497-1.414l-1.442,1.244-3.347-1.787v2.259H81.1385l-3.213-2.49v2.49h-14.756s-1.144-1.43-1.745-2.259a9.40584,9.40584,0,0,1-3.971,2.184,10.63808,10.63808,0,0,1-3.321.019,7.33366,7.33366,0,0,1-3.292-1.473,19.13794,19.13794,0,0,1-2.091-2.134c-2.032,1.232-4.403,2.988-6.02,3.496a9.8392,9.8392,0,0,1-5.014-.234,14.1026,14.1026,0,0,1-4.03-3.304s-4.812,3.357-6.262,3.661a8.21608,8.21608,0,0,1-4.411-.225,9.18233,9.18233,0,0,1-2.847-1.791c-1.402.83-3.385,2.043-3.385,2.043h-6.538l-.348-.396-.681.396H.4165v-8.47s1.097-.053,1.097-.998V43.1824c0-.962-1.197-.98-1.197-.98v-8.612h17.078l-1.144-2.352,2.14-2.24h-3.632a69.95222,69.95222,0,0,1,11.617-9.118" transform="translate(0 -0.00021)" fill="#6caddf"/><path d="M96.64661,32.54909s-2.69-3.776-9.214-8.698c-6.523-4.921-10.929-7.725-10.929-7.725l-1.145,1.086,1.145-1.086s4.138.624,10.414,4.692a87.03583,87.03583,0,0,1,8.926,6.622h-4.061m-73.763,4.022a74.73419,74.73419,0,0,1,8.813-7.553c4.291-2.976,11.502-7.554,11.502-7.554l1.03,1.087-1.03-1.087a34.85482,34.85482,0,0,0-12.59,5.608c-6.679,4.527-7.365,5.607-7.365,5.607h3.809" transform="translate(0 -0.00021)" fill="none" stroke="#fdb927" stroke-width="0.398"/><polygon points="57.618 2.106 23.971 29.173 92.639 31.005 57.618 2.106" fill="#041e41"/><polygon points="57.618 2.106 23.971 29.173 92.639 31.005 57.618 2.106" fill="none" stroke="#041e41" stroke-width="0.057"/><polygon points="41.139 16.812 57.618 3.479 74.615 17.728 64.257 13.55 64.199 17.899 60.195 14.18 57.906 20.188 54.986 14.008 51.611 16.527 50.408 13.207 41.139 16.812" fill="#fff"/><path d="M2.2258,35.05888h20.944s20.601-4.913,33.419-4.913c12.819,0,35.48,3.777,35.48,3.777l11.101.801.3,15.028-3.045-.932-2.09.782,7.81,9.728-1.259,9.5-7.439,2.976-2.345,1.774-6.181-2.863-6.409,3.95-1.03.002-5.665-4.066-12.117,4.066-3.048-4.122-9.27-1.717-8.012,5.206-7.153-4.92-8.183,4.97-6.409-3.769-5.665,4.352-3.891-3.207-3.834,3.207-3.548-4.695-1.374-32.446Z" transform="translate(0 -0.00021)" fill="#041e41"/><path d="M2.2258,35.05888h20.944s20.601-4.913,33.419-4.913c12.819,0,35.48,3.777,35.48,3.777l11.101.801.3,15.028-3.045-.932-2.09.782,7.81,9.728-1.259,9.5-7.439,2.976-2.345,1.774-6.181-2.863-6.409,3.95-1.03.002-5.665-4.066-12.117,4.066-3.048-4.122-9.27-1.717-8.012,5.206-7.153-4.92-8.183,4.97-6.409-3.769-5.665,4.352-3.891-3.207-3.834,3.207-3.548-4.695-1.374-32.446Z" transform="translate(0 -0.00021)" fill="none" stroke="#041e41" stroke-width="0.057"/><path d="M1.5536,35.067h5.708l4.749,21.974.058-13.199s.029-1.536-.401-1.965c-.429-.429-.973-.992-.973-.992V35.067h6.467v5.818s-.572.706-.858.992c-.287.286-.344,1.965-.344,1.965V74.669h-4.75l-4.52-21.461V65.396a9.74919,9.74919,0,0,0,.515,2.174,4.7044,4.7044,0,0,0,1.03,1.088v6.011H1.5536V68.658a4.85026,4.85026,0,0,0,.901-.687c.401-.401.458-1.945.458-1.945V43.842a8.28979,8.28979,0,0,0-.515-1.965,6.50146,6.50146,0,0,0-.844-.992Z" transform="translate(0 -0.00021)" fill="#fdb927"/><path d="M1.5536,35.067h5.708l4.749,21.974.058-13.199s.029-1.536-.401-1.965c-.429-.429-.973-.992-.973-.992V35.067h6.467v5.818s-.572.706-.858.992c-.287.286-.344,1.965-.344,1.965V74.669h-4.75l-4.52-21.461V65.396a9.74919,9.74919,0,0,0,.515,2.174,4.7044,4.7044,0,0,0,1.03,1.088v6.011H1.5536V68.658a4.85026,4.85026,0,0,0,.901-.687c.401-.401.458-1.945.458-1.945V43.842a8.28979,8.28979,0,0,0-.515-1.965,6.50146,6.50146,0,0,0-.844-.992Z" transform="translate(0 -0.00021)" fill="none" stroke="#fff" stroke-width="0.343"/><path d="M17.73381,44.39519v5.836a1.35344,1.35344,0,0,1,.801.343,2.773,2.773,0,0,1,.343,1.832v15.736s.515,6.582,6.409,6.582c5.895,0,6.41-6.696,6.41-6.696v-20.773s-.058-2.231.286-2.631c.343-.402.915-1.202.915-1.202v-6.066s-1.545.458-4.005,1.488c-2.461,1.03-3.148,1.316-3.148,1.316v6.009s.573.229.573.572v18.368s.028,1.517-1.059,1.517-1.059-1.059-1.059-1.459v-16.194a4.15554,4.15554,0,0,1,.114-1.602,5.61925,5.61925,0,0,0,.458-1.03v-5.781s-1.716.744-4.062,2.06c-2.347,1.317-2.976,1.775-2.976,1.775" transform="translate(0 -0.00021)" fill="#fdb927"/><path d="M17.73381,44.39519v5.836a1.35344,1.35344,0,0,1,.801.343,2.773,2.773,0,0,1,.343,1.832v15.736s.515,6.582,6.409,6.582c5.895,0,6.41-6.696,6.41-6.696v-20.773s-.058-2.231.286-2.631c.343-.402.915-1.202.915-1.202v-6.066s-1.545.458-4.005,1.488c-2.461,1.03-3.148,1.316-3.148,1.316v6.009s.573.229.573.572v18.368s.028,1.517-1.059,1.517-1.059-1.059-1.059-1.459v-16.194a4.15554,4.15554,0,0,1,.114-1.602,5.61925,5.61925,0,0,0,.458-1.03v-5.781s-1.716.744-4.062,2.06C18.36281,43.93719,17.73381,44.39519,17.73381,44.39519Z" transform="translate(0 -0.00021)" fill="none" stroke="#fff" stroke-width="0.343"/><path d="M46.20671,38.19l.969-.54V49.739h-5.58V44.853s.172-1.488-1.03-1.488a1.22378,1.22378,0,0,0-1.259,1.373v20.1s-.114,1.817,1.202,1.817,1.087-1.817,1.087-1.817V57.851h-.858V53.265h6.438V69.631s-2.089,5.093-6.724,5.093-6.581-4.807-6.581-5.608V41.82s.744-6.409,6.924-6.409a6.86676,6.86676,0,0,1,5.412,2.779" transform="translate(0 -0.00021)" fill="#fdb927"/><path d="M46.20671,38.19l.969-.54V49.739h-5.58V44.853s.172-1.488-1.03-1.488a1.22378,1.22378,0,0,0-1.259,1.373v20.1s-.114,1.817,1.202,1.817,1.087-1.817,1.087-1.817V57.851h-.858V53.265h6.438V69.631s-2.089,5.093-6.724,5.093-6.581-4.807-6.581-5.608V41.82s.744-6.409,6.924-6.409A6.86676,6.86676,0,0,1,46.20671,38.19Z" transform="translate(0 -0.00021)" fill="none" stroke="#fff" stroke-width="0.343"/><path d="M62.3974,36.03979v13.699h-5.637v-6.374s.115-1.831-1.202-1.831c-1.316,0-1.144,1.545-1.144,1.774v21.53s-.115,1.817,1.201,1.817c1.317,0,1.202-1.817,1.202-1.817v-6.987h-.973v-4.586h6.553v16.366s-2.032,5.06-6.61,5.06c-5.55,0-7.001-5.575-7.001-5.575V39.5878s.592-6.029,6.916-6.029a7.212,7.212,0,0,1,5.481,2.939Z" transform="translate(0 -0.00021)" fill="#fdb927"/><path d="M62.3974,36.03979v13.699h-5.637v-6.374s.115-1.831-1.202-1.831c-1.316,0-1.144,1.545-1.144,1.774v21.53s-.115,1.817,1.201,1.817c1.317,0,1.202-1.817,1.202-1.817v-6.987h-.973v-4.586h6.553v16.366s-2.032,5.06-6.61,5.06c-5.55,0-7.001-5.575-7.001-5.575V39.5878s.592-6.029,6.916-6.029a7.212,7.212,0,0,1,5.481,2.939Z" transform="translate(0 -0.00021)" fill="none" stroke="#fff" stroke-width="0.343"/><path d="M63.69931,34.0947a34.591,34.591,0,0,1,6.337.915,49.88525,49.88525,0,0,1,6.295,1.488v13.241h-4.235s.172-4.829-.572-6.031a3.33883,3.33883,0,0,0-1.202-1.144v10.701h3.09v4.578h-3.204v9.67a2.57971,2.57971,0,0,0,1.716-2.117,27.05067,27.05067,0,0,0,.172-4.463h4.235v13.736h-12.632v-6.068a1.76292,1.76292,0,0,0,1.13-1.889v-24.32a2.74853,2.74853,0,0,0-1.13-1.945Z" transform="translate(0 -0.00021)" fill="#fdb927"/><path d="M63.69931,34.0947a34.591,34.591,0,0,1,6.337.915,49.88525,49.88525,0,0,1,6.295,1.488v13.241h-4.235s.172-4.829-.572-6.031a3.33883,3.33883,0,0,0-1.202-1.144v10.701h3.09v4.578h-3.204v9.67a2.57971,2.57971,0,0,0,1.716-2.117,27.05067,27.05067,0,0,0,.172-4.463h4.235v13.736h-12.632v-6.068a1.76292,1.76292,0,0,0,1.13-1.889v-24.32a2.74853,2.74853,0,0,0-1.13-1.945Z" transform="translate(0 -0.00021)" fill="none" stroke="#fff" stroke-width="0.343"/><path d="M77.991,36.9558a38.4365,38.4365,0,0,1,8.183,3.033c5.38,2.518,7.267,3.662,7.267,3.662v6.088H90.009a6.68389,6.68389,0,0,0-.23-2.082,3.70674,3.70674,0,0,0-1.145-1.602v19.398a4.34483,4.34483,0,0,0,.459,2.004,7.58037,7.58037,0,0,0,.973,1.087v6.125H81.482v-6.011a2.62933,2.62933,0,0,0,.973-.802,9.62125,9.62125,0,0,0,.629-2.345v-20.381a2.07169,2.07169,0,0,0-1.317,2.069v2.54H77.991Z" transform="translate(0 -0.00021)" fill="#fdb927"/><path d="M77.991,36.9558a38.4365,38.4365,0,0,1,8.183,3.033c5.38,2.518,7.267,3.662,7.267,3.662v6.088H90.009a6.68389,6.68389,0,0,0-.23-2.082,3.70674,3.70674,0,0,0-1.145-1.602v19.398a4.34483,4.34483,0,0,0,.459,2.004,7.58037,7.58037,0,0,0,.973,1.087v6.125H81.482v-6.011a2.62933,2.62933,0,0,0,.973-.802,9.62125,9.62125,0,0,0,.629-2.345v-20.381a2.07169,2.07169,0,0,0-1.317,2.069v2.54H77.991Z" transform="translate(0 -0.00021)" fill="none" stroke="#fff" stroke-width="0.343"/><path d="M107.6333,36.72659l1.316-.515v13.39h-5.321v-5.493s.056-2.346-1.66-2.346c-1.718,0-1.487,2.346-1.487,2.346v4.872a3.62756,3.62756,0,0,0,1.658,2.624,43.39236,43.39236,0,0,1,5.208,3.949,6.69491,6.69491,0,0,1,1.487,3.376v10.701c0,.516-1.03,5.037-6.866,5.037a9.09956,9.09956,0,0,1-5.437-2.175l-1.43,1.087V61.8476h5.264v3.807s-.171,1.915,1.545,1.915c1.718,0,1.545-1.915,1.545-1.915v-4.722s-.286-1.717-1.144-2.232a34.20648,34.20648,0,0,1-5.723-4.12,7.35,7.35,0,0,1-1.545-4.406v-8.985a6.73131,6.73131,0,0,1,1.66-4.348,7.75305,7.75305,0,0,1,5.665-2.175,7.31913,7.31913,0,0,1,5.265,2.06" transform="translate(0 -0.00021)" fill="#fdb927"/><path d="M107.6333,36.72659l1.316-.515v13.39h-5.321v-5.493s.056-2.346-1.66-2.346c-1.718,0-1.487,2.346-1.487,2.346v4.872a3.62756,3.62756,0,0,0,1.658,2.624,43.39236,43.39236,0,0,1,5.208,3.949,6.69491,6.69491,0,0,1,1.487,3.376v10.701c0,.516-1.03,5.037-6.866,5.037a9.09956,9.09956,0,0,1-5.437-2.175l-1.43,1.087V61.8476h5.264v3.807s-.171,1.915,1.545,1.915c1.718,0,1.545-1.915,1.545-1.915v-4.722s-.286-1.717-1.144-2.232a34.20648,34.20648,0,0,1-5.723-4.12,7.35,7.35,0,0,1-1.545-4.406v-8.985a6.73131,6.73131,0,0,1,1.66-4.348,7.75305,7.75305,0,0,1,5.665-2.175A7.31913,7.31913,0,0,1,107.6333,36.72659Z" transform="translate(0 -0.00021)" fill="none" stroke="#fff" stroke-width="0.343"/><path d="M18.01961,31.46208a86.71523,86.71523,0,0,1,38.627-8.927,88.15375,88.15375,0,0,1,40,10.072l-5.323,7.782s-13.905-8.526-34.677-8.526c-20.773,0-33.648,7.611-33.648,7.611l-4.979-8.012" transform="translate(0 -0.00021)" fill="#6caddf"/><path d="M18.01961,31.46208a86.71523,86.71523,0,0,1,38.627-8.927,88.15375,88.15375,0,0,1,40,10.072l-5.323,7.782s-13.905-8.526-34.677-8.526c-20.773,0-33.648,7.611-33.648,7.611l-4.979-8.012" transform="translate(0 -0.00021)" fill="none" stroke="#fdb927" stroke-width="0.398"/><path d="M24.64049,30.8345c-.033-.096-.096-.156-.422-.07l-.043-.127,4.229-1.441c2.345-.798,3.853.039,4.392,1.621.495,1.455-.259,3.205-2.629,4.012l-4.09,1.392-.043-.127c.311-.129.324-.216.291-.312Zm3.278,3.363,1.618-.551c1.351-.461,1.681-1.284,1.374-2.186-.307-.904-1.072-1.354-2.422-.893l-1.619.55Z" transform="translate(0 -0.00021)" fill="#fff"/><path d="M42.33551,29.48289l-.158.032c-.069-.135-.183-.226-.447-.173l-2.453.499.207,1.022,4.234-.861c.145-.029.187-.094.171-.378l.158-.032.389,1.912-.159.033c-.077-.179-.141-.223-.286-.194l-6.582,1.337-.027-.13c.325-.09.349-.175.329-.274l-1.041-5.122c-.02-.099-.075-.168-.409-.123l-.027-.132,6.582-1.337c.145-.029.186-.095.175-.356l.158-.032.389,1.912-.159.033c-.091-.246-.154-.29-.3-.261l-4.234.861.186.912,2.453-.498c.264-.054.334-.182.344-.333l.159-.032Z" transform="translate(0 -0.00021)" fill="#fff"/><path d="M48.67021,25.09589c-.006-.101-.05-.177-.388-.181l-.007-.134,3.239-.181.007.134c-.309.029-.372.099-.368.167.007.123,2.447,2.053,3.435,2.862l-.166-2.989c-.008-.135-.119-.185-.294-.186l-.008-.134,2.46-.138.007.135c-.335.04-.371.121-.365.222l.292,5.218c.006.1.051.177.388.18l.007.135-2.553.143-.008-.135c.242-.013.307-.062.303-.141-.008-.145-.353-.271-4.085-3.376l.197,3.516c.005.1.05.177.387.181l.008.134-2.553.143-.008-.135c.335-.04.371-.121.365-.223Z" transform="translate(0 -0.00021)" fill="#fff"/><path d="M63.1882,30.58089l.014-.133c.163-.005.207-.035.211-.079.012-.101-1.901-4.864-2.132-5.475-.094-.259-.142-.319-.275-.346l.015-.133,2.743.295-.014.134c-.215-.012-.274.027-.282.105-.009.089.163.378,1.51,3.591a33.27683,33.27683,0,0,0,2.171-3.207c.009-.078-.028-.116-.187-.144l.014-.134,2.302.247-.014.134c-.11.011-.166.028-.217.124-.172.342-3.247,4.897-3.263,5.053-.006.055.055.107.176.12l-.015.146Z" transform="translate(0 -0.00021)" fill="#fff"/><path d="M77.7189,31.05089l-.157-.04c-.004-.15-.067-.282-.329-.347l-2.429-.607-.253,1.012,4.191,1.047c.144.036.21-.005.318-.268l.156.04-.474,1.893-.156-.039c.007-.195-.032-.263-.175-.299l-6.516-1.628.032-.13c.333.059.39-.008.416-.104l1.267-5.072c.024-.098.005-.184-.316-.288l.032-.13,6.516,1.629c.144.036.209-.005.311-.245l.156.038-.473,1.893-.156-.038c.023-.261-.015-.328-.159-.364l-4.191-1.047-.226.902,2.428.607c.262.065.38-.019.455-.151l.156.039Z" transform="translate(0 -0.00021)" fill="#fff"/><path d="M84.7231,35.254c-.037.094-.029.181.276.327l-.05.124-2.577-1.019.048-.125c.323.103.389.045.426-.049l1.921-4.861c.038-.094.028-.182-.276-.327l.049-.125,4.581,1.812c1.852.732,2.427,1.586,1.957,2.776-.38.959-1.333,1.173-2.466,1.003l.792,2.315a.4803.4803,0,0,0,.289.332l-.05.125-2.603-1.03.05-.125c.179.059.3.046.348-.079.038-.094-.719-2.058-.796-2.342l-1.226-.485Zm1.13-2.858,2.103.832c.738.291,1.07.109,1.19-.193.119-.302.002-.662-.736-.955l-2.104-.832Z" transform="translate(0 -0.00021)" fill="#fff"/></g></svg>