<?xml version="1.0" encoding="utf-8"?>
<!-- Generator: Adobe Illustrator 21.1.0, SVG Export Plug-In . SVG Version: 6.00 Build 0)  -->
<!DOCTYPE svg PUBLIC "-//W3C//DTD SVG 1.0//EN" "http://www.w3.org/TR/2001/REC-SVG-20010904/DTD/svg10.dtd">
<svg version="1.0" id="Layer_1" xmlns="http://www.w3.org/2000/svg" xmlns:xlink="http://www.w3.org/1999/xlink" x="0px" y="0px"
	 width="422.4px" height="422.4px" viewBox="0 0 422.4 422.4" style="enable-background:new 0 0 422.4 422.4;" xml:space="preserve"
	>
<style type="text/css">
	.st0{fill:#FFC627;}
	.st1{fill:#003DA6;}
</style>
<path class="st0" d="M422.4,211.2c0,116.6-94.5,211.2-211.2,211.2C94.6,422.4,0,327.8,0,211.2S94.5,0,211.2,0
	C327.9,0,422.4,94.6,422.4,211.2"/>
<path class="st1" d="M354.1,336.1c31.9-34.6,51.4-80.8,51.4-131.6c0-107.3-87-194.3-194.3-194.3c-107.4,0-194.4,87-194.4,194.3
	s87,194.3,194.3,194.3c54.6,0,103.8-22.5,139.1-58.7C351.4,339.4,352.8,337.8,354.1,336.1z M159.9,327.8
	c77.6-3.6,154.6-2.4,186.6-1.6c-1.4,1.5-2.8,3-4.1,4.4C318.6,328.8,263.1,325.9,159.9,327.8z M46,224.6c2.8-4.2,5.8-8.8,8.9-13.8
	l-11.4,64.9c-2.1-4.9-3.9-9.9-5.6-15L46,224.6z M35.2,251.4c-0.7-2.7-1.4-5.5-2-8.2c1.9-2.7,4-5.7,6.4-9.2L35.2,251.4z M60.1,202.5
	c4-6.6,8.2-13.6,12.3-21.1L52.7,294.1c-2.4-4.1-4.6-8.4-6.6-12.7L60.1,202.5z M78.2,170.9c5.1-9.7,10.1-19.8,14.7-30.1l-30,169.4
	c-2.6-3.7-5.1-7.4-7.5-11.2L78.2,170.9z M106.5,118.2c1,1.1,2,2.2,3,3.2c0.7,31.1,3,121.7,5.6,186.5c-1.4,0.2-2.8,0.3-4.1,0.5
	C108.1,240.1,106.9,153.7,106.5,118.2z M251.7,247.6l0.1,0.3l0,0L251.7,247.6c0.2,0.2,0.4,0.3,0.7,0.5l-0.6-0.2l15.5,49.2
	c-3.9,0.1-7.8,0.2-11.7,0.4l-19-60.3C241.8,240.8,246.8,244.3,251.7,247.6z M319.2,296.4l-3.9-12.2c14,6.6,24.6,10.5,31.1,12.6
	C337.2,296.6,328.2,296.5,319.2,296.4z M310.5,282l4.6,14.5c-4,0-8,0-11.9,0l-6.8-21.7C301.4,277.4,306.1,279.8,310.5,282z
	 M291.5,272.1l7.7,24.4c-3.8,0-7.7,0.1-11.5,0.1L277.6,264C282.4,266.9,287.1,269.6,291.5,272.1z M272.6,261.1l11,35.6
	c-4.1,0.1-8.2,0.2-12.3,0.3l-14.6-46C262.2,254.6,267.5,258,272.6,261.1z M231,233l20.7,64.6c-3.8,0.1-7.6,0.3-11.3,0.5l-24.1-76.3
	C221.3,225.7,226.2,229.4,231,233z M210.6,217.3l25.7,80.9c-4.1,0.2-8.2,0.4-12.3,0.6l-30.5-95.6C199.3,208.2,205,212.9,210.6,217.3
	z M188.2,198.7l31.9,100.4c-3.7,0.2-7.3,0.4-11,0.6l-36.2-114.6C178.1,189.9,183.2,194.4,188.2,198.7z M167,179.8L205.1,300
	c-3.9,0.3-7.8,0.5-11.6,0.8l-43-136.7C156.1,169.5,161.6,174.8,167,179.8z M143.8,157.5L189.6,301c-3.8,0.3-7.5,0.6-11.2,0.8
	l-50.2-160.4C133.4,147,138.7,152.4,143.8,157.5z M121.8,134.9l52.6,167.4c-4.2,0.3-8.3,0.7-12.3,1l-39.8-127.9
	c-0.6-16.1-1.1-30.3-1.4-41.5C121.2,134.2,121.5,134.5,121.8,134.9z M91.6,231.7l-0.6-0.1l-14.3,81.1c-4,0.5-7.5,1-10.6,1.5
	l26.5-149.4C92.3,184.8,91.9,208.2,91.6,231.7z M123,191.4l35.2,112.3c-3.5,0.3-7,0.6-10.3,0.9l-23.2-73.7
	C124,217.2,123.5,203.9,123,191.4z M125.4,246.7l18.5,58.2c-5.2,0.5-10.3,1-15.1,1.5C127.5,287.5,126.4,267.1,125.4,246.7z
	 M80.7,312.2l10.7-60.3c-0.2,21.2-0.4,41.6-0.3,59C87.4,311.3,84,311.7,80.7,312.2z M91.2,335.3c0,2.2,0.1,4.2,0.1,6.2
	c-2.2-1.9-4.4-3.9-6.5-5.9C86.8,335.5,88.8,335.4,91.2,335.3z M112.1,334.7c1.3,0,2.7-0.1,4.1-0.1c0.5,10.3,1,19.1,1.5,26.2
	c-1.4-0.8-2.8-1.7-4.2-2.6C113,350.9,112.6,343.1,112.1,334.7z M211.1,22.4c100.6,0,182.1,81.5,182.1,182.1
	c0,29.9-7.3,58.2-20.1,83.1c-126.6-28.4-216.9-115.9-252.2-155.4c-0.5-14.7-0.7-23.8-0.7-23.8l-5.6-2.5l-5.3,4.6
	c0,0,0.1,3.1,0.2,8.4c-1.2-1.5-2.2-2.7-2.9-3.6c-0.1-8.5-0.1-13.4-0.1-13.4h-7.8l-0.1,4.7l-4.7,1.1c0,0-0.2,9.9-0.5,25.6
	c-23.7,53.6-49.6,84.3-62.4,97.4c-1.2-8.6-1.9-17.3-1.9-26.2C29.1,103.9,110.6,22.4,211.1,22.4z M134.4,369.6
	c-1.3-9.8-2.5-21.8-3.6-35.4c56.6-1.2,143.3-1.7,203.3,4.4c-32.4,29.8-75.6,47.9-123.1,47.9C183.7,386.6,157.7,380.5,134.4,369.6z"
	/>
</svg>
