<?xml version="1.0" encoding="utf-8"?>
<!-- Generator: Adobe Illustrator 21.1.0, SVG Export Plug-In . SVG Version: 6.00 Build 0)  -->
<!DOCTYPE svg PUBLIC "-//W3C//DTD SVG 1.1//EN" "http://www.w3.org/Graphics/SVG/1.1/DTD/svg11.dtd">
<svg version="1.1" id="Layer_1" xmlns:sketch="http://www.bohemiancoding.com/sketch/ns"
	 xmlns="http://www.w3.org/2000/svg" xmlns:xlink="http://www.w3.org/1999/xlink" x="0px" y="0px" width="293.2px" height="272.2px"
	 viewBox="0 0 293.2 272.2" style="enable-background:new 0 0 293.2 272.2;" xml:space="preserve">
<style type="text/css">
	.st0{fill:#BEC0C2;}
	.st1{fill:#002D62;}
	.st2{fill:#FFC526;}
</style>
<title>indiana-pacers</title>
<desc>Created with Sketch.</desc>
<path class="st0" d="M270.3,37.6c-20-24.1-48.8-37.4-81.1-37.5L60,0L0,272.2l110.3,0.1l15.8-65.9c14.8,0,53.8,0,53.7,0
	c36.9,0.3,67.3-12.2,87.7-36.2C304.6,129.9,298.1,71.1,270.3,37.6"/>
<path class="st1" d="M120.5,199.2L104.7,265L8.9,265L65.7,7.2l123.4,0.1c30.7,0.1,57,12.5,75.6,34.9c27.4,33,30,87.8-2.7,123.4
	c-20.1,23.5-49.5,33.9-82.2,33.6L120.5,199.2"/>
<path class="st2" d="M53,64.5l54.1,0c6.2,0,12.8,5.2,10,13.1c-1.8,4.9-3.1,10.5-3.7,15.8c-0.5,4.1,4.1,6.8,6.8,6.8l110.2,0.1
	c2.1,0,3.2-0.6,3.2-1.6c0-1-0.1-4.6-0.5-7.2c-0.4-2.4-0.8-2.9-2.8-2.9c-13.7,0-19.3-6.1-33.7-15.4C182.1,64,161,58.6,142.8,58.6
	l-88.5-0.1L53,64.5 M119.8,135.8c-1.9-4.1-3.7-8.9-4.8-13.4c-1.4-5.7-6.2-10.4-14.5-10.4l-58,0l1.4-6.5l188,0.1
	c1.9,0,1.5,0.8,1.4,2.9c-0.1,2.1-0.6,5.9-0.9,8.2c-0.3,2.3-2.2,1.7-3.9,1.8c-4.2,0.1-12.1,1.1-16.7,4.5
	c-7.8,5.9-24.4,16.1-33.8,19.1c-10,3.2-47.5,14.6-58.4-6.5 M32.1,159.3l98.2,0.1c4.3,0,8.1,1,11,3.4c8.3,6.8,19,11.8,30.5,15.1
	c5.1,1.5,13.9-0.4,21.8-4.9c19.7-11.1,32.3-32.2,36.4-45.8c1.1-3.6-1-3.3-3.7-3.1c-8.3,0.6-17,8.1-28.4,15.3
	c-11.5,7.3-34.8,14.2-56.9,14.1l-107.6,0L32.1,159.3 M176.2,27.9c1.4-0.3,6.4-0.6,9.1,0.5c18.6,7.3,36.3,26.7,43.7,47.4
	c1.4,4,1.8,6.5,0,6.7c-8.6,1-12.5-3.3-22.6-10.1c-10-6.8-19.3-11.4-32-15.5c-12.6-4-35.4-4.6-38.4-4.7c-3-0.1-2.6-1.3-1.3-2.6
	C145.6,38.7,160.3,30.8,176.2,27.9 M265.7,98.6c0.1,0.8-0.8,1.7-1.8,1.7l-21.5,0c-2.8,0-2.8-1.3-2.9-2.9c-0.1-1.6-0.6-4.7-0.7-6.6
	c-0.1-1.8-0.8-3.9,1.7-4.9c6-2.5,11.7-8.4,14.2-13.4c0.9-1.7,2.1-4.5,3.6-2.1C263.5,78.5,265,88.5,265.7,98.6 M258,137.2
	c-0.4,0.7-1.7,1.3-2.2,0.1c-3.1-8.4-10.6-14.1-15.7-17c-1.6-0.9-1.7-1.9-1.5-3.4c0.2-1.5,0.9-6.4,0.9-8.5c0.1-1.6,0.8-2.8,2-2.8
	h22.4c0.8,0,1.8,0.7,1.8,1.3C265.7,117.6,262.4,128.1,258,137.2 M199.7,179.2c-1.6,0.2-5-0.3,0.4-3.5c16.3-9.5,30.8-31.7,34.7-44.4
	c1.5-4.9,1.6-5.1,3.5-4.6c2.5,0.7,6.4,4.1,9.4,8.2c3,4.1,4.3,12.2,2.6,14.5C238.5,165.2,220,176.2,199.7,179.2 M241.1,78.8
	c-3.8,2-4.5,1.7-5.3-1.2c-7.1-24.8-27.9-43.1-36.5-48.6c-1.6-1-1.2-1.7,0-1.5c20.4,2.7,40.4,13.8,50.5,29.1
	C255.5,65.3,244.8,76.8,241.1,78.8"/>
</svg>
