<?xml version="1.0" encoding="utf-8"?>
<!-- Generator: Adobe Illustrator 21.1.0, SVG Export Plug-In . SVG Version: 6.00 Build 0)  -->
<!DOCTYPE svg PUBLIC "-//W3C//DTD SVG 1.1//EN" "http://www.w3.org/Graphics/SVG/1.1/DTD/svg11.dtd">
<svg version="1.1" id="Layer_1" xmlns="http://www.w3.org/2000/svg" xmlns:xlink="http://www.w3.org/1999/xlink" x="0px" y="0px"
	 width="499.3px" height="414.2px" viewBox="0 0 499.3 414.2" style="enable-background:new 0 0 499.3 414.2;" xml:space="preserve"
	>
<style type="text/css">
	.st0{fill:#49256C;}
	.st1{fill:#F3B336;}
	.st2{fill:none;stroke:#F3B336;stroke-width:0.777;}
</style>
<title>LAL</title>
<desc>Created with Sketch.</desc>
<g id="NBA">
	<g id="LAL">
		<g id="LALakers_2nd_pms" transform="translate(0.000000, 43.000000)">
			<path id="Fill-4" class="st0" d="M496.4,191.3c-4.1-7-11.7-11.1-19.7-10.7l-35.4,1.7c-6.2,0.3-12,3.3-15.9,8.1
				c-2.1,2.7-4.3,5.3-6.5,7.9c11.1-31.6,11.6-64.8,1-95.6C411.8,79,397.6,58.5,378.6,43c2.5-4.1,3.9-6.3,3.9-6.3
				c2.9-4.8,6.1-8.3,9.1-10.1c2.6-1.5,7.1-2.4,12.7-2.4h34.2c7.5,0,14.5-3.9,18.4-10.3l14.8-24c2.1-3.5,3.2-7.4,3.2-11.3
				c0-3.6-0.9-7.3-2.7-10.5c-3.8-6.8-11-11-18.9-11H250.2c-7.5,0-14.5,3.9-18.4,10.3L217-8.7c-4.1,6.7-4.3,15-0.4,21.8
				c2.6,4.6,6.7,8,11.6,9.7c-35.8,14.2-67.3,41-86.7,77.3c-20.2,38-24.1,80-11,118.3c0.8,2.3,1.6,4.5,2.5,6.7
				c-21.3,34.9-36.6,59.9-36.6,59.9c-2.3,3.8-5.1,6.6-8.4,8.6c-2.9,1.8-6.1,2.6-10,2.6H42.8c-7.2,0-14,3.6-18,9.6L3.6,337.7
				c-2.4,3.6-3.6,7.8-3.6,12c0,3.5,0.8,7,2.5,10.2c3.8,7,11.1,11.4,19.1,11.4h362.1c7.4,0,14.3-3.8,18.2-10l94-147.5
				C500.3,206.9,500.5,198.3,496.4,191.3"/>
			<path id="Fill-5" class="st1" d="M263.3,53.1l18.6-30.5c4.3-7,5.4-12.1,3.4-15.2c-2.1-3.2-8.1-4.7-18.3-4.7h-31.6l14.8-24h203.1
				l-14.8,24h-34.2c-9.7,0-17.6,1.8-23.7,5.4c-6.1,3.6-11.6,9.4-16.5,17.4l-16.9,27.7H263.3L263.3,53.1z M485.6,197.6
				c-1.7-2.9-4.9-4.7-8.3-4.5l-35.4,1.7c-2.6,0.1-5.1,1.4-6.7,3.4c-26.9,33.9-59.3,64.1-88.7,83c-28.5,18.3-52.8,27.6-72.1,27.6
				h-56.8c-7.5,0-11.8-0.5-14.2-0.9c0.9-2.2,2.6-5.9,6.2-11.9c0,0,2.4-3.9,6.5-10.7c2.2,0.9,4.4,1.7,6.6,2.4
				c32.5,10.8,67.3,8.2,98.1-4.8c13.8-10.9,48.3-41.4,65-85.4c-7.1,0.2-15.8,5-25.8,14.2c-2.1,1.8-50.9,43.3-81.6,56.5
				c-0.4,0.2-26.4,11.9-58.2,10.4c1.4-2.4,3-4.9,4.7-7.7c27.8,0.2,49.8-9.7,50.3-9.9c29.7-12.8,79.2-54.9,79.6-55.2
				c12.6-11.7,24-17.1,33.7-16.1c1.9-6,3.4-12.2,4.6-18.7l-107.4,0.1c1.6-2.6,3.2-5.2,4.8-7.9l103.7-0.1c0.9-7.9,1.1-15.8,0.6-23.7
				c-14.5,1.1-32.2-5.3-52.8-19.3l-0.1-0.1l-11.3-8.7l-0.2-0.2c-0.1-0.1-1.9-1.9-5.4-4.7c1.4-2.3,2.8-4.6,4.1-6.8
				c3.7,3,6,5.2,6.6,5.8c0.4,0.3,10.4,8,10.7,8.2c22.7,15.4,38,18.6,47.6,17.9c-3.2-27.3-14.7-54.8-34.2-82.2
				c7.4-12.1,11.8-19.3,11.8-19.3c4.1-6.7,8.6-11.5,13.4-14.3c4.6-2.7,11.1-4.1,19.1-4.1h34.2c3.2,0,6.1-1.6,7.8-4.3l14.8-24
				c0.9-1.5,1.3-3.1,1.3-4.8c0-1.5-0.4-3.1-1.1-4.4c-1.6-2.9-4.6-4.6-7.9-4.6H250.2c-3.2,0-6.1,1.6-7.8,4.3l-14.8,24
				c-1.7,2.8-1.8,6.3-0.2,9.2c1.6,2.9,4.7,4.7,7.9,4.7H267c5.3,0,8.2,0.5,9.8,0.9c-0.4,1.1-1.1,2.8-2.7,5.3c0,0-1.9,3.1-5.3,8.7
				c-27.7,3.5-54.4,15.1-76.4,33.2l150.7,0l-16,26.2h-83.9l11.2-18.4h-70.8c-7.8,7.5-14.8,15.9-20.9,25l160.4,0l-16.2,26.5H223
				l11.4-18.7h-76.6c-3.3,5.7-6.2,11.6-8.8,17.8c-1,2.5-1.9,5-2.8,7.5l156.6,0l-18,29.6h-83.9l13.2-21.7h-70.4
				c-2.7,9.4-4.3,18.9-4.9,28.3l141.9,0l-78.9,129.3c-7,11.4-9.7,18.8-7.9,21.9c1.8,3.2,9.6,4.7,23.6,4.7h56.8
				c21.2,0,46.9-9.7,77.1-29c30.2-19.3,63.2-50.2,90.9-85l35.4-1.7l-94,147.5H21.6l21.2-31.8h35.1c7.8,0,14.8-1.9,21.1-5.6
				c6.3-3.8,11.6-9,15.8-15.9l77.3-126.6h-53.5c-0.1,18,3.6,35.7,11,52.3c-24.3,39.9-42.5,69.6-42.5,69.6
				c-3.4,5.5-7.6,9.8-12.7,12.8c-4.9,2.9-10.3,4.3-16.5,4.3H42.8c-3,0-5.9,1.5-7.6,4L14,344.6c-1,1.5-1.5,3.3-1.5,5
				c0,1.5,0.4,2.9,1.1,4.3c1.6,2.9,4.7,4.8,8,4.8h362.1c3.1,0,6-1.6,7.7-4.2l94-147.5C487.2,204.2,487.3,200.5,485.6,197.6
				L485.6,197.6z"/>
			<path id="Stroke-6" class="st2" d="M263.3,53.1l18.6-30.5c4.3-7,5.4-12.1,3.4-15.2c-2.1-3.2-8.1-4.7-18.3-4.7h-31.6l14.8-24
				h203.1l-14.8,24h-34.2c-9.7,0-17.6,1.8-23.7,5.4c-6.1,3.6-11.6,9.4-16.5,17.4l-16.9,27.7H263.3L263.3,53.1z M485.6,197.6
				c-1.7-2.9-4.9-4.7-8.3-4.5l-35.4,1.7c-2.6,0.1-5.1,1.4-6.7,3.4c-26.9,33.9-59.3,64.1-88.7,83c-28.5,18.3-52.8,27.6-72.1,27.6
				h-56.8c-7.5,0-11.8-0.5-14.2-0.9c0.9-2.2,2.6-5.9,6.2-11.9c0,0,2.4-3.9,6.5-10.7c2.2,0.9,4.4,1.7,6.6,2.4
				c32.5,10.8,67.3,8.2,98.1-4.8c13.8-10.9,48.3-41.4,65-85.4c-7.1,0.2-15.8,5-25.8,14.2c-2.1,1.8-50.9,43.3-81.6,56.5
				c-0.4,0.2-26.4,11.9-58.2,10.4c1.4-2.4,3-4.9,4.7-7.7c27.8,0.2,49.8-9.7,50.3-9.9c29.7-12.8,79.2-54.9,79.6-55.2
				c12.6-11.7,24-17.1,33.7-16.1c1.9-6,3.4-12.2,4.6-18.7l-107.4,0.1c1.6-2.6,3.2-5.2,4.8-7.9l103.7-0.1c0.9-7.9,1.1-15.8,0.6-23.7
				c-14.5,1.1-32.2-5.3-52.8-19.3l-0.1-0.1l-11.3-8.7l-0.2-0.2c-0.1-0.1-1.9-1.9-5.4-4.7c1.4-2.3,2.8-4.6,4.1-6.8
				c3.7,3,6,5.2,6.6,5.8c0.4,0.3,10.4,8,10.7,8.2c22.7,15.4,38,18.6,47.6,17.9c-3.2-27.3-14.7-54.8-34.2-82.2
				c7.4-12.1,11.8-19.3,11.8-19.3c4.1-6.7,8.6-11.5,13.4-14.3c4.6-2.7,11.1-4.1,19.1-4.1h34.2c3.2,0,6.1-1.6,7.8-4.3l14.8-24
				c0.9-1.5,1.3-3.1,1.3-4.8c0-1.5-0.4-3.1-1.1-4.4c-1.6-2.9-4.6-4.6-7.9-4.6H250.2c-3.2,0-6.1,1.6-7.8,4.3l-14.8,24
				c-1.7,2.8-1.8,6.3-0.2,9.2c1.6,2.9,4.7,4.7,7.9,4.7H267c5.3,0,8.2,0.5,9.8,0.9c-0.4,1.1-1.1,2.8-2.7,5.3c0,0-1.9,3.1-5.3,8.7
				c-27.7,3.5-54.4,15.1-76.4,33.2l150.7,0l-16,26.2h-83.9l11.2-18.4h-70.8c-7.8,7.5-14.8,15.9-20.9,25l160.4,0l-16.2,26.5H223
				l11.4-18.7h-76.6c-3.3,5.7-6.2,11.6-8.8,17.8c-1,2.5-1.9,5-2.8,7.5l156.6,0l-18,29.6h-83.9l13.2-21.7h-70.4
				c-2.7,9.4-4.3,18.9-4.9,28.3l141.9,0l-78.9,129.3c-7,11.4-9.7,18.8-7.9,21.9c1.8,3.2,9.6,4.7,23.6,4.7h56.8
				c21.2,0,46.9-9.7,77.1-29c30.2-19.3,63.2-50.2,90.9-85l35.4-1.7l-94,147.5H21.6l21.2-31.8h35.1c7.8,0,14.8-1.9,21.1-5.6
				c6.3-3.8,11.6-9,15.8-15.9l77.3-126.6h-53.5c-0.1,18,3.6,35.7,11,52.3c-24.3,39.9-42.5,69.6-42.5,69.6
				c-3.4,5.5-7.6,9.8-12.7,12.8c-4.9,2.9-10.3,4.3-16.5,4.3H42.8c-3,0-5.9,1.5-7.6,4L14,344.6c-1,1.5-1.5,3.3-1.5,5
				c0,1.5,0.4,2.9,1.1,4.3c1.6,2.9,4.7,4.8,8,4.8h362.1c3.1,0,6-1.6,7.7-4.2l94-147.5C487.2,204.2,487.3,200.5,485.6,197.6
				L485.6,197.6z"/>
			<path id="Fill-7" class="st1" d="M403.3,197.8c3.3-8.9,5.8-17.8,7.3-26.8l-9.4,0c-1.2,7.2-2.9,14.2-5,20.9
				C399.1,193.4,401.4,195.5,403.3,197.8"/>
			<path id="Stroke-8" class="st2" d="M403.3,197.8c3.3-8.9,5.8-17.8,7.3-26.8l-9.4,0c-1.2,7.2-2.9,14.2-5,20.9
				C399.1,193.4,401.4,195.5,403.3,197.8L403.3,197.8z"/>
			<path id="Fill-9" class="st1" d="M393.6,199.5c-10.3,27.7-27.1,50.1-42.1,66.1c20.4-14.9,37.3-34.9,48.2-58.9
				C398.5,204.2,396.5,201.4,393.6,199.5"/>
			<path id="Stroke-10" class="st2" d="M393.6,199.5c-10.3,27.7-27.1,50.1-42.1,66.1c20.4-14.9,37.3-34.9,48.2-58.9
				C398.5,204.2,396.5,201.4,393.6,199.5L393.6,199.5z"/>
			<path id="Fill-11" class="st1" d="M411.4,133.9c-2.3,1.6-5.1,3.1-8.7,4.2c0.6,8.4,0.4,16.8-0.5,25.1l9.4,0
				C412.7,153.3,412.6,143.5,411.4,133.9"/>
			<path id="Stroke-12" class="st2" d="M411.4,133.9c-2.3,1.6-5.1,3.1-8.7,4.2c0.6,8.4,0.4,16.8-0.5,25.1l9.4,0
				C412.7,153.3,412.6,143.5,411.4,133.9L411.4,133.9z"/>
			<path id="Fill-13" class="st1" d="M409.9,124.8c-1.9-9.6-4.9-19-9.1-28.1c-5.6-12.1-13-23-21.9-32.5c12.6,21.9,20.3,43.8,23,65.7
				C405.8,128.6,408.4,126.5,409.9,124.8"/>
			<path id="Stroke-14" class="st2" d="M409.9,124.8c-1.9-9.6-4.9-19-9.1-28.1c-5.6-12.1-13-23-21.9-32.5
				c12.6,21.9,20.3,43.8,23,65.7C405.8,128.6,408.4,126.5,409.9,124.8L409.9,124.8z"/>
		</g>
	</g>
</g>
</svg>
