<?xml version="1.0" encoding="utf-8"?>
<!-- Generator: Adobe Illustrator 21.1.0, SVG Export Plug-In . SVG Version: 6.00 Build 0)  -->
<!DOCTYPE svg PUBLIC "-//W3C//DTD SVG 1.1//EN" "http://www.w3.org/Graphics/SVG/1.1/DTD/svg11.dtd">
<svg version="1.1" id="Layer_1" xmlns="http://www.w3.org/2000/svg" xmlns:xlink="http://www.w3.org/1999/xlink" x="0px" y="0px"
	 width="256px" height="241.5px" viewBox="0 0 256 241.5" style="enable-background:new 0 0 256 241.5;" xml:space="preserve">
<style type="text/css">
	.st0{fill:#BBD1E4;}
	.st1{fill:#23375B;}
	.st2{fill:#FDB827;}
	.st3{fill:#6189B9;}
</style>
<g>
	<path class="st0" d="M129,241.5l-3.5-4c-9.3-10.5-19.1-15.8-29.5-21.4c-9.2-4.9-18.6-10-28.5-18.9l-1,5.4l-5.8-3.5
		c-28.2-17-40-40.3-44.4-52.3l-3.4,3.4l-3.2-4.4c-1.1-1.5-25.9-36.7,8-88.3c0.5-0.8,1-1.5,1.6-2.3C8.8,36.1,17.1,16.7,31.5,6.9
		c13.9-9.5,35-11,49.6,7.2c22.3-3.1,41.1,3.5,47.4,6.1c6.3-2.6,25.3-9.3,47.7-6C188.6-3,210.2-3,224.9,6c14.6,8.9,24.4,28,12.9,49.6
		c0.4,0.6,0.9,1.3,1.3,1.9c34.9,53.1,4.9,88.9,4.5,89.2l-4.4,3.6l-0.2-0.4c-4.3,14.3-15.1,37.1-42,50.1l-6.7,3.3v-4.9
		c-9.6,9-19.7,14.3-29.7,19.4c-10.4,5.3-20.2,10.4-28.2,19.6L129,241.5z M61.6,177.8l6.3,6.8c11.1,11.9,22,17.7,32.5,23.3
		c9.4,5.1,19.2,10.3,28.5,19.7c8.4-8.2,18.1-13.2,27.4-18c12-6.2,24.4-12.5,34.9-26l8.4-10.7v15.1c29.4-18.4,32.6-50.4,32.7-51.8
		l1.4-15.4l7.1,13c5.6-11.4,12.8-37-9.6-71.1l0,0c-1-1.5-2-3-2.8-4l-1.8-2.5l1.6-2.6c11.3-18.5,2.6-32.8-8.3-39.5
		c-11.9-7.3-28.7-7-37.7,7.7l-1.7,2.7l-3.2-0.6c-24.5-4.5-44.9,4.6-47.1,5.6l-2,0.9l-2-0.9c-2.2-1-22.4-10-46.6-5.7l-2.9,0.5
		l-1.7-2.4C64.2,6.3,47.9,7,36.7,14.6c-11,7.5-18.1,22.6-7.9,38.2l1.8,2.7l-1.9,2.6c-1.2,1.6-2.2,3.1-3.1,4.5
		C2.2,98.2,9.8,124.8,14.6,135.4l6.7-6.8l1.8,8.5c0.1,0.3,6.5,29.2,36.7,50.3L61.6,177.8z"/>
	<path class="st1" d="M235.2,60.1c-1-1.5-1.9-2.9-2.9-4.2c24.4-39.9-33.1-70.6-53.9-36.7c-25.6-4.7-47,4.6-49.9,6
		c-2.9-1.3-24-10.6-49.4-6.1C53.9-16.2,2,20.3,24.9,55.4c-1.1,1.5-2.2,3-3.3,4.7c-32.5,49.5-8.1,83-8.1,83l5-5
		c0,0,7.1,34.5,44.6,57.1l1.4-7.4c23.1,24.7,44.5,24.1,64.4,46.6c18.4-21.4,45.2-21.4,66.1-48v9.5c38.6-18.8,42.1-59.3,42.1-59.3
		l3.6,6.6C240.7,143.1,267.7,109.5,235.2,60.1"/>
	<path class="st2" d="M153.5,95.1c1.8-0.7,5,1.2,6.7,4.6c7.8-2.3,7.4-12.8,7.3-13.5C161.3,88.6,156.2,92.7,153.5,95.1"/>
	<path class="st3" d="M128.8,146c2.1-0.3,36.4-1.6,15.4,19.7C158.8,146.4,132.3,146.2,128.8,146 M188,35.6c0,0,7.7-19.2,31.3-14.6
		c0,0-21.6-14.3-36.7,11.5c0,0-21.4-10.2-53.6,3.8c0,0-30.6-10.7-53.6-4.6c0,0-13.4-23.3-32.3-13.7c-18.9,9.6-9.1,31.8-5.8,37.5
		c0,0-31.4,31.9-19.6,71.4l6.3-7.9c0,0,9,43,32.2,56.5l1.4-10.6c0,0,24.3,29.3,52.8,41.7c2.7,1.3,17.8,8.8,18.3,12.5v-20.5
		c0,0-19.8,1.6-25-7.5c-3.5-6.2-26.3-46.8-15-89.3c0,0-10.9-1.6-13-20.1c0,0-8.2-4-18.3-3.1c0,0,18.1-5.7,35.2,0.9
		c17,6.6,21.5,23.3,33.1,15.9l3.4-47.2l3.2,47.2c11.5,7.4,16.1-9.3,33.1-15.9c17-6.6,35.1-0.9,35.1-0.9s-7.2-5.1-18.9-7.4
		c-9.7-2-24.1,4.3-24.1,4.3s2-13.4,8.5-20.5C171.5,48.9,184.1,47.6,188,35.6 M41.3,51.8C40.6,45.4,48.7,39,48.7,39
		c-3.3-3.5-9.2-0.5-9.2-0.5c5.3-10.4,17.2-5.3,17.2-5.3c-4.5-5.5-14-5.2-14-5.2c11.8-11.7,26,6.2,26,6.2
		C56,37.2,41.3,51.8,41.3,51.8 M167.6,86.1L167.6,86.1c-0.1,0-0.2,0.1-0.2,0.1C167.4,86.2,167.5,86.2,167.6,86.1 M158.1,101.4
		c18.9,51-5.2,83.7-5.2,83.7c14.9-38.9,5.3-71.2-1.2-83.3c-3.3,0.3-7.3,0.1-7.3,0.1s5-3.1,8.3-6.1c0.2-0.2,0.5-0.5,0.9-0.8
		c0,0,0,0,0,0c1.8-0.7,5,1.2,6.7,4.6c7.8-2.3,7.4-12.8,7.4-13.5c2.3-0.9,4.7-1.5,7.2-1.8C174.8,84.4,173,101.1,158.1,101.4"/>
	<path class="st2" d="M91,86.1c0,0.8-0.5,11.3,7.4,13.6c1.7-3.3,4.7-5.1,6.5-4.6C100.6,91.9,95.4,88.2,91,86.1"/>
	<path class="st0" d="M128.7,193.8c-23.9,0-20.7-5.3-20.7-5.3c2.6-1.6,19.3-1.9,20.6-1.9c1.3,0,18.1,0.3,20.7,1.9
		C149.3,188.6,152.6,193.8,128.7,193.8 M91,86.1C91,86.1,91,86.1,91,86.1C91,86.1,91,86.1,91,86.1 M128.7,171.7v9.7l-6.6,0.3
		c-6.9,0.2-15.9,3-15.9,3c-16.8-41.5-7.5-72.9-3-84.1c-16.6,3.6-19.3-16.3-19.3-16.3c1.7-0.4,4.3,0.4,7.1,1.8
		c0,0.8-0.4,11.3,7.4,13.6c1.7-3.3,4.7-5.1,6.5-4.6c1.2,1,2.4,1.9,3.4,2.7c11.3,9.5,20.1,7.6,20.1,7.6s0.1,36.2,0.1,40.6
		c0,0-32.7-2.6-15.1,19.7c0,0,2.8-8.1,5.8-5.6C123.2,163.7,128.7,171,128.7,171.7"/>
</g>
</svg>
