<?xml version="1.0" encoding="utf-8"?>
<!-- Generator: Adobe Illustrator 21.1.0, SVG Export Plug-In . SVG Version: 6.00 Build 0)  -->
<!DOCTYPE svg PUBLIC "-//W3C//DTD SVG 1.1//EN" "http://www.w3.org/Graphics/SVG/1.1/DTD/svg11.dtd">
<svg version="1.1" id="Layer_1" xmlns="http://www.w3.org/2000/svg" xmlns:xlink="http://www.w3.org/1999/xlink" x="0px" y="0px"
	 width="256px" height="268.7px" viewBox="0 0 256 268.7" style="enable-background:new 0 0 256 268.7;" xml:space="preserve">
<style type="text/css">
	.st0{fill:#98002E;}
	.st1{fill:#F9A01B;}
	.st2{fill:#FFFFFF;}
</style>
<title>Untitled-37</title>
<g>
	<path d="M249.9,86.8c-9.8-10.8-31.4-19.6-59.2-24.8c0.1-3.2,2.1-4.6,5.5-6.9c2.1-1.4,4.1-2.9,5.9-4.6c9-8.5-1.6-21.6-2-22.1
		l-5.8-7.1l1.4,9c1,6.2-1.3,8.4-8,13.1c-0.8,0.6-1.6,1.2-2.2,2c0.5-4.9,0.2-9.8-0.9-14.5c-0.6-3.1-2-5.9-4.2-8.1l-0.7,8.4
		c0,0-0.7,6.5-9.3,14.4c0.7-0.8,1.4-1.7,2.1-2.6c4.2-6.2,3-13.2,1.6-21.4l-0.3-1.7c-1.5-8.5,0.8-13.8,2.3-14.7
		c1.4-1.7,4.2-4.6,4.2-4.6c-1.9-0.5-3.8-0.5-5.7-0.1c-5.4,0.8-14.5,4-14.3,11.4c0.2,3.1,0.9,6.2,2.1,9.1c1,2.9,1.9,5.7,1.1,7.1
		c-0.7,1.1-2.7,2-5.8,2.6c-12.8,2.3-22.6,8.3-27.6,16.8c-1.6,2.8-2.8,5.8-3.3,9c-28.7-0.3-57.3,3.5-85,11.2
		C15.6,75.7,1.2,86.7,0.1,99.4c-0.6,6.7,2.4,16.3,19.2,25.6l-0.1,0.1l4.8,2.3l0,0l2.5,1.2l0,0c8.7,3.8,17.7,6.7,26.9,8.9
		c-3.5,2-6.8,4.3-9.9,7c-29.9,24.6-34.2,68.8-9.6,98.7s68.8,34.2,98.7,9.6c12.4-10.2,20.9-24.3,24.1-39.9c4-13.6,5.6-27.8,4.8-41.9
		c-0.9-10.7,3.6-21.2,11.9-28.1c19.4-2,38.3-6.8,56.3-14.2l0,0l2.4-1.1l0,0l5-2.4l-0.1-0.1c11.7-6.6,18.3-14.3,19-22.5
		C256.3,96.6,254.1,90.9,249.9,86.8 M227.2,100.4c2,2.2,1.9,3.6,1.8,4.1c-0.2,2.5-3.4,5.6-8.7,8.4l0,0
		c-11.1,5.9-30.3,10.3-53.1,12.6c1-0.7,2.1-1.2,3.3-1.7l0.4-0.2c6.5-2.7,14-5.7,14.3-16.5c-0.1-3,0.3-6,1.1-8.9
		c1.6-3.1,4.1-5.6,7.1-7.2c0,0-4.6-0.9-4.6-0.9c-0.2,0-0.5,0-0.7,0c1.4-1,2.6-2.4,3.5-3.9C210.1,90,222.5,95.2,227.2,100.4
		 M27.1,103.1c0.8-8.9,33-20.8,85.1-22.6c-6.6,4.8-10.9,12.1-12,20.1l-0.5,3.9c-0.3,2.5-0.9,4.9-1.7,7.2c-2,5.3-7.7,9.6-13.7,12.9
		c-21-2.6-38.5-7.1-48.7-12.6l0,0C29.9,108.9,26.8,105.7,27.1,103.1"/>
	<path class="st0" d="M20.5,203.5c2.1,11.1,8.4,21,17.6,27.6c3.2,2.2,6.6,4,10.3,5.4c-2.3-3.9-4.9-7.8-7.6-11.7
		c-5.3-7.3-9.8-15.1-13.5-23.3c-3.4-8.4-4.4-17.5-2.8-26.3c-2.7,7.5-4.2,15.4-4.1,23.3C20.3,200.2,20.4,201.9,20.5,203.5"/>
	<path class="st0" d="M31.8,199.8c3.5,7.9,7.9,15.4,13,22.4c3.7,5.3,7.2,10.8,10.2,16.5c3.1,0.7,6.3,1.2,9.5,1.4
		c-3.6-5.1-6.5-10.7-8.8-16.5c-9.7-24.2-8.3-54.1,3.7-71.4c6-8.5,14-15.5,23.3-20.2c8.3-4.5,13.4-5.9,18.7-9c5.7-3.4,8.8-9.1,5-21.9
		c-0.9-2.9-1.3-5.9-1.1-9c-1.4,2.8-2.4,5.8-2.8,8.9l0,0c-0.4,4-1.2,7.9-2.4,11.6c-5,13.2-29.5,20.6-32.7,21.5
		c-8.3,2.4-16,6.6-22.5,12.2C30,159.7,24.7,181,31.8,199.8"/>
	<path class="st0" d="M133.8,80.3c0.2,0.8,0.4,1.6,0.6,2.4c1.2,3.8-1,7.8-4.8,9c-0.5,0.2-1.1,0.3-1.7,0.3c-5.8,0.9-7.8-4.1-8.3-8.3
		c0-1.1,0-2.3,0.2-3.4c-1,0-1.9,0-2.9,0.1c-2.4,1.4-4.7,3.1-6.7,5.1c-1.2,2.5-2.6,6-0.4,14.1c3.8,14.3,2.2,22.9-9.3,27.9
		c-14.6,6.3-24,10-36.6,25.8c-6,7.5-9.2,20-9.8,32.5c-0.4,12.2,1.7,24.4,6.3,35.8c2.6,6.6,6,12.9,10.2,18.6c4-0.2,8-0.7,11.9-1.5
		c-4.4-5.1-7-11.6-7.3-18.3c-1.5-23.2,11-33,30.2-48.4l8.6-7.2c34.3-29.2,24.3-58.8,28.1-84.1C139.4,80.4,136.7,80.3,133.8,80.3"/>
	<path class="st0" d="M147.6,80.8c-1,5.2-1.6,10.5-1.9,15.8c-1.4,22.1-0.7,47-28.6,71.8l-8.4,6.8c-18.7,15-29.4,24.3-28.6,44.7
		c0.2,6.5,3.1,12.7,7.8,17.2c5.3-1.6,10.5-3.8,15.4-6.6c23.3-12.6,40-34.8,45.4-60.8c2.8-13.6,4-27.4,3.6-41.2
		c0-5.5,0.7-16.4,0.7-16.4c0.8-10.3,4.2-20.3,9.8-29c0.3-0.4,0.5-0.8,0.8-1.2C158.4,81.5,153.1,81.1,147.6,80.8"/>
	<path class="st0" d="M155.8,151.7L155.8,151.7C155.8,151.6,155.8,151.7,155.8,151.7c-0.8,4-1,8.4-1.4,12.9
		c-0.2,1.7-0.5,3.3-0.7,4.9c-0.1,0.4-0.2,0.9-0.3,1.3c-5.6,27.3-23,50.7-47.5,64c-4.2,2.4-8.7,4.5-13.3,6.1
		c6.5,4.4,14.4,6.4,22.2,5.6c22.9-3.4,34.1-18.4,39.5-34.4c4-13.3,5.5-27.3,4.7-41.2c-1-13.6,6-26.5,17.9-33.2
		C162.1,137,157.4,143.3,155.8,151.7"/>
	<path class="st0" d="M140.5,241c-6.9,5.6-15.2,9.2-24.1,10.3c-10.4,1.4-21-1.5-29.2-8.2c-0.2-0.1-0.3-0.3-0.4-0.4
		c-4,1.1-8,1.8-12.1,2.1c9.9,10.4,23.5,16.4,37.8,16.7c0.1,0,0.1,0,0.2,0h0c11-4.3,20.7-11.5,28.1-20.7L140.5,241"/>
	<path class="st0" d="M55.2,257.7c0-5.3-1.2-10.5-3.6-15.1c-5.8-1.7-11.3-4.1-16.4-7.2c-3-2-5.7-4.4-8-7.2l0,0
		C33.2,240.6,43,250.9,55.2,257.7L55.2,257.7z"/>
	<path class="st0" d="M101.9,264.6c-13.1-2.5-24.8-9.5-33.4-19.6c-3.7,0-7.4-0.4-11-1.1c2.1,5.1,2.9,10.6,2.4,16.1v0
		c13.2,6,28,7.6,42.1,4.6L101.9,264.6"/>
	<path class="st0" d="M180.4,98.6c-0.3,2.5-2.5,4.2-5,3.9c-1.4-0.2-2.6-0.9-3.3-2.1c-2.3-3.2-1.8-7.6,1-10.3
		c3.2-2.3,6.7-4.2,10.5-5.4l0.1,0c-4.6-0.8-9.4-1.5-14.5-2.1c-0.1,0.1-0.1,0.2-0.2,0.2c-0.5,0.5-0.9,1-1.3,1.6
		c-5.8,8.4-9.2,18.2-10,28.3l-0.3,2.1c-0.4,4.5-0.5,9.1-0.4,13.6c0,0.7,0,1.5,0,2.3c-0.1,1.9-0.1,3.7-0.2,5.5c0,0,0.1,0,0.1,0
		c0.1-0.7,0.1-1,0.1-0.7c1.7-6.5,6.3-11.7,12.5-14.2c6.5-2.6,12.8-5,13.1-14.4c-0.1-3.3,0.4-6.7,1.3-9.8c0.9-2.1,2.5-3.7,4.5-4.6
		C184.7,92.1,181.1,94.8,180.4,98.6"/>
	<path class="st1" d="M188.3,61.5c0.5-6.3,6.4-7.5,12.2-12.9c7.4-7-2.2-18.7-2.2-18.7c1.2,7.9-2.4,10.9-9.1,15.5
		c-2.2,1.4-3.6,3.6-3.9,6.1c-0.2,3.1-0.5,6.2-1.1,9.3C185.6,61,186.9,61.2,188.3,61.5"/>
	<path class="st1" d="M167.9,50.5c-1.8,1.3-3.4,2.7-5,4.1c-1.1,1.1-2.2,2.1-3.2,3.1c6.5,0.6,12.8,1.3,18.9,2.2
		c3.9-7.1,5.7-15.1,3.4-28.8C182.1,31.1,181.5,40.4,167.9,50.5"/>
	<path class="st1" d="M131.7,56.4c7.4,0.1,14.7,0.4,21.8,0.9c0.2-0.2,0.5-0.5,0.7-0.7c4.8-5.1,12.1-9.4,16.1-15.2
		c3.9-5.7,2.4-12.8,0.9-21.2c-2.5-14.6,3.7-17.4,3.7-17.4s-12.4,1.7-12.1,8.9c0.3,9.6,10.2,18.6-4.7,21.4
		c-16.4,3-26.5,11.8-28.8,23.4C130,56.4,130.8,56.4,131.7,56.4"/>
	<path class="st2" d="M131.6,60.2C63.1,59.5,5.9,77.2,3.9,99.7c-0.8,9,7.3,17.3,21.7,24.2c10.6,4.8,21.7,8.5,33.2,10.8
		c2.7-1.2,5.4-2.2,8.2-3.1c3.8-1.1,7.5-2.5,11.1-4.1c-19.2-2.8-34.7-7.1-44.3-12.3c-7.1-3.8-10.9-8.1-10.5-12.6
		c1.3-15.1,49.3-26.9,107.2-26.3c57.9,0.6,103.7,13.3,102.4,28.4c-0.4,4.1-4.2,8-10.7,11.4c-12.1,6.4-33.4,11.2-59.4,13.5
		c-0.9,1.3-1.7,2.7-2.3,4.1c11.8-4.5,25.4,2.1,25.4,2.1c0.5,0.2,1.1,0.5,1.6,0.8c14.8-2.4,29.3-6.6,43.1-12.7
		c13.1-6.2,21.1-13.8,21.8-21.9C254.1,79.7,200.2,60.9,131.6,60.2"/>
</g>
</svg>
