<?xml version="1.0" encoding="utf-8"?>
<!-- Generator: Adobe Illustrator 21.0.2, SVG Export Plug-In . SVG Version: 6.00 Build 0)  -->
<!DOCTYPE svg PUBLIC "-//W3C//DTD SVG 1.1//EN" "http://www.w3.org/Graphics/SVG/1.1/DTD/svg11.dtd">
<svg version="1.1" id="Layer_1" xmlns="http://www.w3.org/2000/svg" xmlns:xlink="http://www.w3.org/1999/xlink" x="0px" y="0px"
	 width="451.3px" height="598.5px" viewBox="0 0 451.3 598.5" style="enable-background:new 0 0 451.3 598.5;" xml:space="preserve"
	>
<style type="text/css">
	.st0{display:none;}
	.st1{display:inline;fill:#F0EBD2;}
	.st2{display:inline;fill:#00471B;}
	.st3{display:inline;fill:#FFFFFF;}
	.st4{display:inline;fill:#007DC5;}
	.st5{fill:#F0EBD2;}
	.st6{fill:#00471B;}
	.st7{fill:#FFFFFF;}
</style>
<g id="Layer_3" class="st0">
	
		<image style="display:inline;overflow:visible;enable-background:new    ;" width="400" height="400" xlink:href="7A0432FFC6F37219.png"  transform="matrix(1 0 0 1 25.6585 99)">
	</image>
</g>
<g id="Layer_1_1_" class="st0">
	<path class="st1" d="M225.3,463.4c-101.3,0-183.7-79.7-183.7-177.7c0-98,82.4-177.7,183.7-177.7C326.6,108,409,187.7,409,285.7
		C409,383.6,326.6,463.4,225.3,463.4"/>
	<path class="st2" d="M401.5,285.7c0,94.1-78.9,170.5-176.2,170.5c-97.3,0-176.2-76.3-176.2-170.5S128,115.2,225.3,115.2
		C322.6,115.2,401.5,191.5,401.5,285.7"/>
	<path class="st3" d="M137.5,172.4l-12.2-17.9l17.3-11l6.1,8.9l-5.3,3.4l-2.6-3.8l-6.7,4.2l5.3,7.7l12-7.6l13.1,19.2l-17.2,11
		l-6.1-9l5.3-3.4l2.6,3.9l6.7-4.2l-6.1-9L137.5,172.4z M133.8,198.2l-12.1-12.1l17,7.5l4.8-4.5l-23.3-10.5l-5.4-16.4l-4.8,4.5
		l3.8,11.4l-7.7-7.7l-4.6,4.3l27.7,27.8L133.8,198.2z M116.6,198.9l-3.7,5l4.7,3.2l-4.6,6.3l-22-15.1l4.6-6.3l4.7,3.2l3.7-5
		l-9.9-6.8l-12,16.3l32.4,22.2l12-16.3L116.6,198.9z M73.3,216.1l30.4,13.3l-3.3,7L70,223.2l-2.6,5.6l36.1,16l8.6-18.5l-36.2-15.8
		L73.3,216.1z M97.7,248.5l3.3,5l-3.5,15.3l-38.9-8.6l3.4-15.3l5-3.2l12.5,2.8l2.5,3l3.6-1.7L97.7,248.5z M77.2,250.1l-9.4-2.1
		l-1.7,7.8l9.4,2.1L77.2,250.1z M94.3,253.9l-10.9-2.4l-1.7,7.8l11,2.4L94.3,253.9z M321,159.3l-20.2,25.9l5.6,4.1l20.2-25.9
		l5.1,3.7l3.8-4.9l-15.8-11.5l-3.8,4.9L321,159.3z M297.1,181.7l3-5.4l-11.8-6.2l5.4-9.5l11.8,6.2l3-5.3l-11.8-6.2l4.6-8.1l11.8,6.2
		l3.1-5.4l-17.3-9.2l-19.1,33.7L297.1,181.7z M311.4,193l28.7-26.9l11.4,11.1v5.8l-9.2,8.6l-4,0.4l-0.5,3.8l-8.9,8.4l-6.1-0.1
		L311.4,193z M332.8,181l5.9,5.6l6.9-6.5l-5.9-5.7L332.8,181z M328.3,185.3l-8.1,7.6l5.8,5.6l8.1-7.5L328.3,185.3z M257.5,141.1
		l-14.2-1.9l1.3-9.2l7.9,1.1l-0.7,4.5l6.3,0.8l1.5-10.6l-20.5-2.7l-3,21.3l14.2,2l-1.5,10.6l-7.9-1.1l0.7-4.6l-6.3-0.8l-1.5,10.7
		l20.5,2.7L257.5,141.1z M264.3,167.1l5.6-16l0.9,18l6.3,2.1l-1-24.8l12.6-12.1l-6.4-2.1l-8.7,8.4l3.5-10.1l-6-2l-12.8,36.6
		L264.3,167.1z M185.1,167.3L174.8,130l15.6-4.2l5.2,2.8l3.3,12l-1.6,3.6l3.2,2.3l3.2,11.6l-3,5.1L185.1,167.3z M194.3,147.2
		l-7.9,2.2l2.9,10.5l7.9-2.2L194.3,147.2z M184.8,143.5l7.9-2.2l-2.5-9l-8,2.2L184.8,143.5z M321.7,398.7l10.1,13.6l-16.9,11.4
		l-10-13.5l0.7-3.4l-3.5-0.5l-10.1-13.7l16.8-11.6l10.2,13.8l-1.1,3.6L321.7,398.7z M306.3,401.7l6.5-4.5l-5.6-7.5l-6.5,4.5
		L306.3,401.7z M322.9,410.9l-6.5-8.8l-6.5,4.5l6.5,8.8L322.9,410.9z M293.9,409.2l9.7,21l-18.9,8.1l-16.1-35.1l18.9-8.1l3.9,8.4
		l-5.8,2.5l-1.3-2.8l-7.3,3.1l3.9,8.4L293.9,409.2z M295.2,427.1l-4.5-9.9l-7.3,3.1l4.5,9.9L295.2,427.1z M372.9,205.8l-33.4,21
		l-3.5-5.1l14.6-9.2l-4.3-6.5l-14.6,9.2l-3.5-5.1l33.3-20.9l0.1-0.1L372.9,205.8z M355.9,209.2l8.2-5.2l-4.4-6.4l-8.2,5.1
		L355.9,209.2z M390.3,249.9l-1.3-6l-39,7.9l4.1,18.8l6.3-1.3l-2.8-12.8L390.3,249.9z M349.8,234l31-12.3l-2.4-5.7l-36.9,14.7
		l7.6,17.8l5.9-2.3L349.8,234z M264.4,404.6l8.7,37.5l-20.2,4.4l-2.1-9l6.2-1.3l0.7,3l7.8-1.7l-2.1-9l-14,3.1l-5.2-22.6L264.4,404.6
		z M262.1,422.6l-2.4-10.6l-7.8,1.7l2.4,10.5L262.1,422.6z M206.3,409.2l-19.2-4.3l-1.4,6l6.2,1.4l-7.6,31.6l6.8,1.5l7.6-31.6
		l6.2,1.4L206.3,409.2z M201.4,447.2l6.3,0.7l0.7-6.1l-6.3-0.7L201.4,447.2z M154.1,414.8l13,5.8l-4.6,9.8l-7.3-3.2l2-4.2l-5.8-2.5
		l-4.6,9.8l18.8,8.3l9.8-20.9l-13-5.8l4-8.4l7.3,3.2l-2,4.2l5.8,2.5l4.6-9.8l-18.8-8.3L154.1,414.8z M145.8,410.2l3.7-4.9l-10.8-7.6
		l5.6-7.5l10.8,7.6l3.7-5l-16-11.2l-23.4,31.1l16,11.2l3.7-4.9l-10.8-7.6l6.6-8.7L145.8,410.2z M228.1,410.2l0.4,7.9l3.2-0.2
		l1.7,30.5l6.3-0.3l-2.1-38.4L228.1,410.2z M229.4,161l-6.3,0.3l-1-16.9l-8,0.4l1,16.9l-6.3,0.3l-2.2-38.3l0-0.1l20.6-1.2l0,0.2
		L229.4,161z M221.8,138.4l-0.5-9.4l-8,0.5l0.5,9.4L221.8,138.4z"/>
	<path class="st1" d="M346.4,285.9c0.1-31.3-12.5-60.7-35.3-82.9c-22.8-22.2-53.2-34.4-85.5-34.4h-0.2c-66.6,0-120.9,52.4-121,116.9
		c-0.1,31.3,12.5,60.7,35.3,82.9c22.8,22.2,53.2,34.4,85.5,34.4h0.2C292,402.8,346.3,350.3,346.4,285.9"/>
	<path class="st2" d="M340.2,285.9c-0.1,61.4-51.6,111.1-115.1,111c-63.5-0.1-114.8-50-114.7-111.4c0.1-61.4,51.6-111.1,115.1-111
		C289,174.6,340.4,224.5,340.2,285.9"/>
	<path class="st3" d="M250.5,219.8c-7.2-1.2-14.6-1.8-22.2-2l0.1-36.4c15.4,0.4,30,4.3,43,10.7C261.7,200.7,255,210,250.5,219.8
		 M194.1,220.9c-3.7-9.2-9.6-18.2-18.3-26.8c-24.4,13.4-42.5,36.3-48.8,63.6C141.6,240,165.6,226.6,194.1,220.9 M323.8,257.9
		c-6.2-27.2-24.2-50.3-48.6-63.7c-8.8,8.6-14.7,17.6-18.4,26.8C285.3,226.8,309.2,240.3,323.8,257.9 M200.4,219.8
		c7.2-1.1,14.6-1.8,22.2-1.9l0.1-36.4c-15.5,0.4-30,4.2-43,10.6C189.3,200.6,196,209.9,200.4,219.8 M195.8,225.6
		c-34.9,8.7-61.3,32.3-66.8,61.4c-1.3,9-0.6,18.4,2.4,27.6c4.2,10.4,10.2,19.9,17.6,28.1C150.4,341.5,213.7,282.2,195.8,225.6
		 M255.1,225.7c-18.1,56.5,45,116,46.3,117.3c6.7-7.5,12.3-15.9,16.4-25.1c4.7-12,5.3-24.3,2.6-35.9
		C313,255.4,287.8,234,255.1,225.7 M283.6,358.5L283.6,358.5c-16.5,11.4-36.7,18-58.4,18c-21.8,0-41.9-6.8-58.4-18.2
		c0,0,58.1-73.9,35.4-134.1c6.6-1.2,13.4-2,20.4-2.1l-0.1,80.9l2.9,4.8l2.9-4.8l0.1-80.9c7,0.2,13.8,0.9,20.3,2.2
		C225.8,284.5,283.6,358.5,283.6,358.5 M261.4,341.7c-6.5-13.3-13.6-30.6-17.7-49.3l-4,0l-14.3,25.2l-14.2-25.2l-4.2,0
		c-4.1,18.5-11.1,35.6-17.7,48.8l-0.1,0.3l31.1,29.3l-9.1-45.8l14,20.6l14.1-20.5l-9.2,45.8L261.4,341.7z"/>
</g>
<g id="Layer_4" class="st0">
	<path class="st1" d="M405.4,252.8c-0.3-0.9-1-1.6-1.9-1.9l-51.9-19l4.3-19.1c0.4-1.6-0.5-3.2-2-3.8l-127.3-46.5l-3.9-8.9
		c-0.3-0.7-0.8-1.2-1.4-1.6l-13.7-7.3l7.8-12.9c0.5-0.8,0.6-1.8,0.3-2.7c-0.3-0.9-0.9-1.6-1.8-2l-37.1-16c-0.4-0.2-0.8-0.3-1.3-0.3
		c-0.4,0-0.8,0.1-1.2,0.2l-47,19.4l-12.4-4.3c-0.3-0.1-0.7-0.2-1.1-0.2c-0.7,0-1.3,0.2-1.9,0.6l-25,18.2c-0.8,0.6-1.3,1.6-1.3,2.6
		l-0.1,38.9l-38.8,39c-0.6,0.6-1,1.4-0.9,2.3c0,0.9,0.4,1.7,1,2.3L63,246l-7.8,50.2c-0.2,1.1,0.3,2.3,1.2,3l71.2,57.1l7.2,38.3
		c0.1,0.4,0.2,0.7,0.4,1l-1.1,2.1c-0.3,0.7-0.4,1.4-0.3,2.2l10.1,44.3c0.3,1.1,1.1,2,2.2,2.4l16.8,5.4l5,12.9c0.5,1.2,1.7,2.1,3,2.1
		h109.3c8.5,19,27.5,32.3,49.6,32.3c30,0,54.3-24.4,54.3-54.3c0-22-13.2-41-32.1-49.6l2.1-33.7l19-17.8c1-1,1.3-2.5,0.7-3.7
		l-7.1-15.3l38.3-69.4C405.7,254.6,405.8,253.7,405.4,252.8"/>
	<path class="st2" d="M344.8,400.2l2.6-41.8l19-17.8l-7.5-16l37.9-68.6L359.5,242l-8.4,10.9l0.7-13.4l-8.5-3.1l4.9-21.9l-126.9-46.3
		l-4.6-10.4l-19.2-10.2l9.4-15.5l-31.4-13.5l-48,19.8l-13-4.5l-21.7,15.8l-0.1,39.9l-38,38.2l16.2,15.4l-8,51.6l71.5,57.3l7.5,39.5
		l2.5,2.1l-2.9,5.8l9.3,40.7l17.9,5.8l5.3,13.6h111.5c6.2,18.7,23.8,32.2,44.7,32.3c26,0,47.2-21,47.2-47.1
		C377.2,424.1,363.6,406.4,344.8,400.2"/>
	<path class="st4" d="M350,324.6l35.4-64.4l-23.3-8.7l-19.9,25.3l1.3-31.8l-9.6-3.5l4.1-18.3l3.4,1.2l-3.3,14.8l9.1,3.3l-1.3,24.1
		l15-19.5l29.7,11.1l-36.5,66.3l7.1,15l-17.9,16.8l-2.7,42.6c-1.2-0.2-2.4-0.4-3.6-0.6l2.7-42.2l0.1-0.3l0.9-1.9l0.2-0.2l16-15.1
		L350,324.6z M174.3,439.7l-17-5.5l-7.7-33.6l4.6-8.6l-5.3-4.5l-7.7-39.7l-70-56.1l7.9-51.4l-13.3-12.5l34.7-34.9l-3.6-1.6
		l-36.3,36.5l14.6,14l-8,51.4l70.8,56.7l7.5,39.6l3.9,3.3l-3.7,7.4l8.4,36.8l17.6,5.7l5,12.8h0l2.5-3.6L174.3,439.7z M254.2,184.9
		L218,171.7l-4.7-10.7l-21.9-11.6l9.2-15.2l-25.2-10.9l-47.8,19.8l-12.4-4.3l-15,10.9l3.3,2l12.3-8.9l10.7,3.7l0.3,0l2-0.1l0.3,0
		l46.4-19.2l20,8.6l-8.9,14.9l3.3,1.8l20.8,11l4.9,11l37.6,13.7L254.2,184.9z"/>
	<path class="st3" d="M313.7,332v-6.2h-12.8l0,12.4H323v31.9h-31.4v-15.7h9.2l0,6.3h12.9v-12.9h-22.1v-31.6H323l0,15.8H313.7z
		 M280.3,288.7h-10l-14.1,22.2l0.1-22.2H247l0,53.9h9.2l0-15.6l6-9.4l8.2,25h10L268.4,308L280.3,288.7z M234.6,266.3l0-15.8h-31.7
		v53.9h31.6l0-15.7h-9.2v6.3h-13l0-35h13v6.2L234.6,266.3z M180.8,221.9l0.1,44.5H168v-44.5h-9.3v53.9h31.4l0-53.9H180.8z
		 M147.2,225.8l0,16.8l-5.8,5.9l-25.5,0l-0.2-54l25.5,0l5.8,5.6l0,17.3l-3.3,4.3L147.2,225.8z M138.8,224.6l-14.8,0l0,15.2l14.8,0
		L138.8,224.6L138.8,224.6z M138.8,203.1l-14.8,0l0,13h14.8L138.8,203.1L138.8,203.1z M331.3,400.7c6.3,0.2,12.3,1.8,17.6,4.5
		c-4,3.6-6.7,7.6-8.5,11.7c-2.9-0.5-6-0.8-9.1-0.8L331.3,400.7z M309.7,406.1c3.6,3.7,6,7.5,7.5,11.4c-11.7,2.4-21.5,8.1-27.6,15.6
		C292.3,421.5,299.7,411.7,309.7,406.1 M291.5,457.2c-1.2-3.9-1.5-7.9-1-11.7c2.2-12.3,13.1-22.4,27.4-26
		c7.3,24-18.6,49.1-19.2,49.7C295.7,465.6,293.3,461.6,291.5,457.2 M328.9,483.4c-8.5-0.2-16.3-3.1-22.8-7.7
		c0.3-0.3,23.8-31.5,14.5-56.8c2.7-0.5,5.5-0.8,8.3-0.9L328.9,483.4z M328.9,416.2c-3.1,0-6.2,0.3-9.1,0.8
		c-1.8-4.2-4.6-8.1-8.5-11.8c5.3-2.7,11.3-4.3,17.6-4.5L328.9,416.2z M331.2,483.4l0.1-65.4c2.9,0.1,5.7,0.4,8.4,0.9
		c-9.3,25.4,14.1,56.5,14.3,56.9C347.5,480.4,339.7,483.2,331.2,483.4 M368,458.6c-1.7,3.9-4,7.5-6.7,10.6
		c-0.5-0.5-26.4-25.8-19-49.7c13.4,3.5,23.8,12.6,26.8,23.9C370.2,448.3,369.9,453.5,368,458.6 M342.9,417.5c1.5-3.9,4-7.7,7.6-11.4
		c10,5.7,17.4,15.5,19.9,27C364.5,425.7,354.6,420,342.9,417.5"/>
</g>
<g id="Layer_5">
	<path class="st5" d="M120.3,512.9c-2.7-2.2-3.8-5.8-2.8-9.1l31.5-112c0.2-0.7,0.4-1.3,0.8-1.9l-14.5-23.2c-1.3-2.1-1.7-4.7-1-7.1
		l2-6.8l-19.8-1.3c-18.6-1.4-25.3-3.8-29.7-6.3c-18.7-10.3-23.6-40-24.6-48.8l-1.2-10c-0.6-4,0.5-8,2.9-10.8
		c1.9-2.2,4.5-3.6,7.3-3.9c-43.1-39-82-87.4-68.4-155.7c15-75.4,76-98.1,78.5-99.1c1-0.4,2-0.5,3-0.5c3.1,0,6.1,1.7,7.7,4.6
		c1.1,2,1.3,4.3,0.7,6.4C112.8,10.5,132,3,140.1,0.4c0.9-0.3,1.8-0.4,2.7-0.4c3.3,0,6.5,1.9,7.9,5.1c1.8,4,0.4,8.8-3.4,11
		c-18.4,11.1-34.4,26.2-46.4,43.6c14.7-3.4,24.5-3.8,28-3.8c1.2,0,1.8,0,1.8,0c4.3,0.3,7.8,3.6,8.2,7.9c0.4,4.3-2.4,8.2-6.6,9.2
		c-0.2,0.1-24.2,6.1-50.6,25.1c-5,15.2-7.5,31.1-7.5,47.3c0,30.6,9.8,62.1,26.9,86.2c4.1,5.8,8.1,10.8,12.3,15.4
		c-1.6-31.4,7.4-80.6,64.2-103.3c1.1-0.4,2.2-0.6,3.2-0.6c3.2,0,6.3,1.8,7.8,4.8c2,4.1,0.6,9-3.3,11.3l-0.4,0.3
		c-8.8,5.7-16.1,13.1-21.8,21.6c6.2-1.9,11.5-2.5,15.1-3l0.7-0.1c0.4,0,0.7-0.1,1-0.1c3.6,0,7,2.3,8.2,5.8c1.4,3.8-0.1,8.1-3.6,10.3
		l-0.3,0.2c-0.1,0.1-0.2,0.2-0.4,0.2c-18.2,10.5-28.3,22.7-30.1,36.3c-1.9,14.9,6.3,28.9,12.2,36.8c15.3-17.7,25.3-47.9,28-59.3
		c1-3.9,4.5-6.6,8.4-6.6c0.3,0,0.7,0,1,0.1c4.4,0.5,7.7,4.2,7.7,8.6c0.2,37.1-9.8,62.5-20,78.7c15.3,7.8,30.3,8.2,33.6,8.2
		c0.4,0,0.9,0,1,0c0.1,0,0.7,0,1,0c3.2,0,18.3-0.4,33.6-8.2c-10.2-16.2-20.2-41.6-20-78.7c0-4.4,3.3-8.1,7.7-8.6
		c0.4,0,0.7-0.1,1-0.1c4,0,7.5,2.7,8.4,6.6c2.8,11.4,12.8,41.6,28,59.3c5.9-7.9,14.1-21.9,12.2-36.8c-1.8-13.6-11.9-25.8-30.1-36.3
		c-0.1-0.1-0.5-0.3-0.5-0.3c-3.4-2.2-5-6.5-3.6-10.3c1.3-3.5,4.5-5.8,8.2-5.8c0.3,0,0.7,0,1,0.1l0.7,0.1c3.6,0.4,8.9,1.1,15.1,3
		c-5.6-8.5-13-15.9-21.7-21.6l-0.4-0.3c-3.9-2.3-5.3-7.3-3.3-11.3c1.5-3,4.6-4.8,7.8-4.8c1.1,0,2.2,0.2,3.2,0.6
		c56.8,22.8,65.8,71.9,64.2,103.3c4.2-4.6,8.2-9.6,12.3-15.4c17.1-24.2,26.9-55.6,26.9-86.2c0-16.2-2.5-32-7.5-47.3
		c-26.6-19.1-50.4-25-50.6-25.1c-4.2-1-7-4.9-6.6-9.2c0.4-4.3,3.9-7.7,8.2-7.9c0,0,0.6,0,1.8,0c3.4,0,13.3,0.4,28,3.8
		c-12.1-17.4-28.1-32.5-46.4-43.6c-3.8-2.3-5.3-7-3.4-11c1.4-3.2,4.6-5.1,7.9-5.1c0.9,0,1.8,0.1,2.7,0.4c8.1,2.6,27.3,10,47.4,27.1
		c-0.6-2.1-0.4-4.4,0.7-6.4c1.5-2.9,4.5-4.6,7.7-4.6c1,0,2,0.2,2.9,0.5c2.6,0.9,63.5,23.7,78.5,99.1
		c13.6,68.3-25.4,116.7-68.4,155.7c2.8,0.3,5.4,1.7,7.3,3.9c2.4,2.8,3.5,6.8,2.9,10.8l-1.2,10c-1.1,8.8-5.9,38.5-24.6,48.8
		c-4.4,2.4-11.1,4.9-29.6,6.3l-19.9,1.3l2,6.8c0.7,2.4,0.4,5-1,7.1l-14.5,23.2c0.3,0.6,0.6,1.2,0.8,1.9l31.5,112
		c0.9,3.3-0.2,6.9-2.8,9.1l-105.3,85.6L120.3,512.9z"/>
	<path class="st6" d="M11.3,117.8c14.2-71.5,72.9-92.6,72.9-92.6C62.8,41.1,40.8,71,31.7,112.9c8.8-11,17-19.2,26.6-25.7
		c23.8-51.3,64.4-72.1,84.4-78.5c-25.9,15.6-47.5,38.9-60.6,65.7C112,63.7,130,64.7,130,64.7s-26.7,6.5-55.9,28.2
		c-5.7,16.5-8.9,34.2-8.9,52.7c0,32.5,10.5,65.8,28.5,91.3c10.1,14.4,19.9,24.3,32.1,33.3c-4-10.1-19.4-88.5,54.7-118.2l-0.5,0.3
		c-17.5,11.3-30.4,29-35.6,49.8c13.5-13,27.8-14.3,35.3-15.2c-0.1,0.1-0.2,0.2-0.4,0.2c-68.8,39.7-14.1,93.4-14.1,93.4
		c21.7-18.2,34.3-58.9,37.1-70c0.3,43-14,68.8-23.8,81.3c22.2,15.2,47,14.2,47,14.2h0h0c0,0,24.9,1,47.1-14.2
		c-9.7-12.6-24-38.3-23.8-81.3c2.7,11.1,15.4,51.8,37,70c0,0,54.7-53.7-14.1-93.4c-0.1-0.1-0.2-0.2-0.4-0.2
		c7.5,0.9,21.8,2.3,35.3,15.2c-5.2-20.8-18.1-38.4-35.6-49.8l-0.5-0.3c74.1,29.7,58.8,108.1,54.7,118.2c12.2-9,22-19,32.1-33.3
		c18-25.5,28.5-58.8,28.5-91.3c0-18.5-3.1-36.2-8.9-52.7c-29.2-21.7-55.9-28.2-55.9-28.2s18-1,47.9,9.7
		c-13.2-26.8-34.8-50.1-60.6-65.7c19.9,6.4,60.6,27.2,84.4,78.5c9.6,6.6,17.8,14.8,26.6,25.7c-9.1-41.9-31-71.8-52.5-87.7
		c0,0,58.7,21.1,73,92.6c16.6,83.2-49.8,135.1-103.4,179.6l40.9-16.7c2.8-1.2,4.7,1.5,4.2,4.7l-1.2,10.1
		c-0.6,5.6-4.7,33.7-20.2,42.2c-3.3,1.8-9.1,4-26.1,5.2l-30.7,2l5.1,17.3l-30.1,48.3l15.4-16.3l31.5,112L239,577.3L266,455
		L225.7,504L185.3,455l27,122.3l-86.4-71.1l31.5-112l15.4,16.3l-30.1-48.3l5.1-17.3l-30.7-2c-17-1.3-22.7-3.4-26.1-5.2
		c-15.5-8.5-19.5-36.7-20.2-42.2l-1.2-10.1c-0.5-3.2,1.4-5.9,4.2-4.7l40.9,16.7C61.2,252.9-5.3,201,11.3,117.8 M398.8,207.2
		c0,0,33.9-53.5,10.8-83.4c-2.4-3.1-4.9-5.9-7.5-8.6C411.6,149.4,398.8,207.2,398.8,207.2 M52.5,207.2c0,0-12.8-57.8-3.3-92
		c-2.5,2.7-5.1,5.5-7.5,8.6C18.7,153.7,52.5,207.2,52.5,207.2"/>
	<path class="st7" d="M313.9,330.9c15.2-1.2,32.5-0.8,39.6-4.7c10.5-5.8,13.5-30.9,13.5-30.9h0C355.4,306.6,330.7,324.4,313.9,330.9
		 M243.2,445.3h-17.5h-17.5l8.4,11.4h9.1h9.1L243.2,445.3z M252.9,347.4c4.2,4.1,11.9,8,21.1,1c4.9-3.8,5-9.3,4.4-12.9
		c-0.3-1.8-2.2-2.8-3.8-2.1c-8.2,3.8-16.5,7.6-20.9,9.6C252,343.8,251.6,346.1,252.9,347.4 M193.9,397l-4.9,21.8l12.2,16.4H214
		l-11.9-17.6l1.9-10.9c5.4,5.8,13.1,9.4,21.7,9.4c8.6,0,16.3-3.6,21.7-9.4l1.9,10.9l-12,17.6h12.9l12.2-16.4l-4.9-21.8
		c-11.6-7.4-14.3-17.9-14.3-17.9l-8.1-26.5l-9.4,4.5l-9.4-4.5l-8.1,26.5C208.2,379.1,205.5,389.6,193.9,397 M177.2,348.3
		c9.2,7.1,17,3.1,21.1-1c1.4-1.3,0.9-3.6-0.8-4.4c-4.4-2-12.6-5.8-20.9-9.6c-1.6-0.8-3.5,0.3-3.8,2.1
		C172.3,339,172.4,344.6,177.2,348.3 M84.3,295.3L84.3,295.3c0,0,3,25.1,13.5,30.9c7.1,3.9,24.5,3.5,39.6,4.7
		C120.6,324.4,95.9,306.6,84.3,295.3"/>
</g>
<g id="Layer_6" class="st0">
	<path class="st1" d="M424.9,298.6c0.1-53.2-20.5-103.3-58.1-141C329.2,119.9,279.2,99.1,226,99h-0.4C116,99,26.6,188.2,26.4,297.9
		c-0.1,53.2,20.5,103.3,58.1,141c37.6,37.7,87.6,58.5,140.8,58.6h0.4C335.4,497.5,424.7,408.3,424.9,298.6"/>
	<path class="st2" d="M414.8,298.6c-0.2,104.5-85,189-189.5,188.9c-104.5-0.2-189-85-188.9-189.5c0.2-104.5,85-189,189.5-188.9
		C330.5,109.3,415,194.1,414.8,298.6"/>
	<path class="st3" d="M267.2,186.2c-11.8-2-24-3.1-36.6-3.4l0.1-61.9c25.4,0.8,49.4,7.3,70.8,18.2
		C285.6,153.6,274.5,169.6,267.2,186.2 M174.3,188c-6-15.6-15.8-30.9-30.2-45.7c-40.2,22.8-70,61.8-80.4,108.2
		C87.8,220.6,127.3,197.8,174.3,188 M387.8,251c-10.2-46.4-39.9-85.5-80-108.4c-14.5,14.7-24.3,30-30.4,45.6
		C324.4,198.1,363.8,221,387.8,251 M184.6,186.1c11.8-1.9,24-3,36.6-3.3l0.1-61.9c-25.4,0.7-49.5,7.1-70.8,18
		C166.3,153.4,177.3,169.4,184.6,186.1 M177.1,196.1c-57.5,14.7-101,55-109.9,104.4c-2.2,15.4-1,31.3,4,47
		c6.9,17.6,16.8,33.8,29.1,47.9C102.3,393.2,206.5,292.4,177.1,196.1 M274.6,196.3c-29.8,96.2,74.1,197.4,76.2,199.6
		c11.1-12.7,20.2-27.1,27.1-42.7c7.7-20.4,8.8-41.4,4.3-61.1C370,246.8,328.5,210.3,274.6,196.3 M321.6,422.2L321.6,422.2
		c-27.2,19.3-60.4,30.7-96.2,30.6c-35.8-0.1-69-11.6-96.1-31h0c0,0,95.6-125.7,58.3-228.1c10.8-2.1,22-3.3,33.5-3.6l-0.2,137.7
		l4.7,8.2l4.7-8.2l0.2-137.7c11.5,0.3,22.7,1.6,33.5,3.7C226.5,296.2,321.6,422.2,321.6,422.2 M285,393.6
		c-10.7-22.7-22.4-52.1-29.1-83.8l-6.6,0l-23.5,42.8l-23.3-42.9l-6.8,0c-6.8,31.4-18.3,60.5-29.1,83.1l-0.2,0.6l51.2,49.9
		l-14.9-77.9l23.1,35l23.2-35l-15.2,77.8L285,393.6z"/>
</g>
</svg>
