<?xml version="1.0" encoding="utf-8"?>
<!-- Generator: Adobe Illustrator 21.1.0, SVG Export Plug-In . SVG Version: 6.00 Build 0)  -->
<!DOCTYPE svg PUBLIC "-//W3C//DTD SVG 1.0//EN" "http://www.w3.org/TR/2001/REC-SVG-20010904/DTD/svg10.dtd">
<svg version="1.0" id="Layer_1" xmlns="http://www.w3.org/2000/svg" xmlns:xlink="http://www.w3.org/1999/xlink" x="0px" y="0px"
	 width="300px" height="347.4px" viewBox="0 0 300 347.4" style="enable-background:new 0 0 300 347.4;" xml:space="preserve">
<style type="text/css">
	.st0{fill:#FFFFFF;}
	.st1{fill:#8D734A;}
	.st2{fill:#001641;}
	.st3{fill:#CF0A2C;}
	.st4{fill:#00103E;}
</style>
<g>
	<path class="st0" d="M163.9,317.6c-0.2,0.9-0.5,2-1.8,3.3c-1.1,1.1-3.1,2.4-6.8,2.6c-5.2,0.2-9-2.4-9.2-7.5c-0.2-5.6,4.1-8,8.8-8.2
		c1.7-0.1,6.6,0.1,8.6,4.2l-4,0.7c-0.4-0.6-1.6-2.3-4.5-2.2c-3.3,0.1-5.1,2.5-5,5.4c0.1,3.2,2.7,5,5.5,4.9c3.2-0.1,4.1-2.1,4.5-3
		L163.9,317.6z"/>
	<path class="st1" d="M150.1,279.2c-39.4,0-71.4-32-71.4-71.4c0-39.4,32-71.4,71.4-71.4c39.4,0,71.4,32,71.4,71.4
		C221.5,247.1,189.5,279.2,150.1,279.2"/>
	<path class="st1" d="M127.5,314.5c-18.7-5.1-28.1-26.6-28.1-26.6c0.4-0.2,19-11.1,25-25.4H67.7v-44.5l12.6-0.1h8.1
		c-2.4-10.7-7.7-22.2-19.1-22.4c-23.7-0.5-9.3,37.1-9.3,37.1s-60,2.9-59.9-58.2c0.1-23.9,15.2-49.9,49-54c2.5-0.3,5-0.5,7.4-0.5
		c18,0,32.1,8.9,41.7,20.9C76.8,71,149.9,0,149.9,0s77.3,74.5,50.6,141c9.7-12.6,24.5-20.9,43-20.9c2.4,0,4.9,0.1,7.4,0.5
		c33.8,4.1,48.9,30,49,54c0.2,57.4-59.2,58.7-59.2,58.7c1-3.9,12.1-35.3-9.9-37.6c-11.4-1.2-16.7,11.7-19.1,22.4h12.5v0.1h8v44.5
		h-57c4.9,14.9,25.1,25.2,25.1,25.2s-7.5,20.6-28.4,26.9c-3.1,15.2-22.1,32.6-22.1,32.6S130.4,329.3,127.5,314.5"/>
	<path class="st2" d="M165.8,300.2c0,0,0,19.2-16.1,34c-16.1-14.8-16.1-34-16.1-34H165.8z"/>
	<path class="st2" d="M250,128.5c-54.7-6.6-63.7,71.2-65.2,97.6H160c0.3-74.3,37.6-63.3,37.6-113c0-49.8-47.5-101.2-47.5-101.2
		s-47.3,52.6-47.3,102.4c0,49.8,37.2,37.5,37.4,111.8h-24.8c-1.4-26.3-10.5-104.2-65.2-97.6c-59.1,7.1-52.7,89,0,95.5
		c0,0-10-36.4,19.3-36.4c21.2,0,27,24.9,28.6,38.5H80.2h-4.5v28.5h4.5h56.1c-8,27.4-26.2,35.7-26.2,35.7S118,305.9,135,308
		c0,0,2.4,2.1,8.4,15.5c1.2,2.8,6.6,0.7,6.6,0.7s1.9,6.3,5.7-1.2c6.8-13.2,8.5-14.9,8.5-14.9c17.1-2.1,25.6-17.8,25.6-17.8
		s-18.3-8.3-26.3-35.7h56.2h4.4v-28.5h-4.4h-17.6c1.5-13.6,7.3-38.5,28.6-38.5c29.1,0,19.2,36.4,19.2,36.4
		C302.7,217.5,309.1,135.7,250,128.5"/>
	<path class="st3" d="M123.2,292.4c2.9,2.9,7.3,5.8,13,6.5l2.7,0.3l2.1,1.8c0.9,0.8,3.4,2.9,8.6,13.9c6.3-11.6,8.9-13.6,9.8-14.3
		l2-1.5l2.4-0.3c5.7-0.7,10.1-3.6,13-6.5c-7.2-6-16.7-17-22-35.3l-3.4-11.7h12.2h51.4v-10.1h-20.3h-8.7h-8.7h-17.4h-9.2l0-9.2
		c0.2-43.9,13.1-61.1,23.5-74.9c7.9-10.5,14.1-18.7,14.1-38.1c0-34.6-25.7-71.1-38.3-86.9c-12.6,16.1-38.3,53.4-38.3,88.1
		c0,19.3,5.8,26.9,14,37.5c10.4,13.5,23.3,30.3,23.4,74.3l0,9.2H140h-17.4h-7.1h-10.3H84.9v10.1h51.4h12.2l-3.4,11.7
		C139.8,275.4,130.3,286.4,123.2,292.4"/>
	<path class="st3" d="M243.6,137.3c-34.8,0-45.3,48.3-48.5,76.1c5.3-22.4,18-35,35.7-35c12.9,0,19.9,5.7,23.6,10.5
		c5.2,6.8,6.5,15.3,6.4,22.6c15-7,22-22.9,22-37c0-15.9-8.9-33.9-33.9-36.9C247.1,137.4,245.3,137.3,243.6,137.3"/>
	<path class="st3" d="M69.2,178.4c17.7,0,30.3,12.5,35.7,34.9c-3.2-27.9-13.6-76-48.5-76c-1.7,0-3.5,0.1-5.3,0.3
		c-24.9,3-33.9,21-33.9,36.9c0,14.1,6.9,29.9,22,37c-0.1-7.3,1.3-15.8,6.4-22.6C49.2,184.2,56.3,178.4,69.2,178.4"/>
	<path class="st4" d="M266.5,199.2c-1.3-5.5-3.5-10.4-6.6-14.5c-4.6-6-13.4-13.2-29.1-13.2c-7.9,0-15.1,2.1-21.2,6.1
		c6.2-18,16.5-33.5,34-33.5c1.5,0,3,0.1,4.5,0.3c25.8,3.1,27.8,23.8,27.8,30.1C275.9,182.3,273.3,192.1,266.5,199.2"/>
	<path class="st4" d="M33.5,199.2c-6.8-7.1-9.5-17-9.4-24.6c0-6.3,2-27,27.8-30.1c1.6-0.2,3.1-0.3,4.5-0.3c17.5,0,27.9,15.5,34,33.5
		c-6.1-4-13.2-6.1-21.2-6.1c-15.8,0-24.5,7.2-29.2,13.2C37,188.9,34.8,193.7,33.5,199.2"/>
	<path class="st4" d="M150,181.5c-5.1-16.1-12.6-25.8-18.7-33.8c-7.8-10.2-12.5-16.3-12.5-33.3c0-28.4,19.1-59.5,31.5-76.7
		c12.4,16.8,31.3,47.2,31.3,75.4c0,17.1-5.1,23.8-12.7,34C162.6,155.2,155.1,165.2,150,181.5"/>
	<path class="st2" d="M40.3,213.7c0,0-16.2-9.9-16.2-37.6s31.3-43.5,54.8-22.6c29,25.8,23.6,49,27.1,64.6l-2.9-1.9
		c0,0-17.5-44.6-43.6-29.9C33.3,201,40.3,213.7,40.3,213.7"/>
	<path class="st2" d="M259.7,213.7c0,0,16.2-9.9,16.2-37.6s-31.3-43.5-54.8-22.6c-29,25.8-23.6,49-27.1,64.6l2.9-1.9
		c0,0,17.5-44.6,43.6-29.9C266.7,201,259.7,213.7,259.7,213.7"/>
	<polygon class="st2" points="121.9,71.9 150.2,37.6 177.9,70.2 174.9,77.4 134.2,73.2 	"/>
	<polygon class="st2" points="79.2,241.4 221.1,241.4 221.8,251.3 78.2,251.6 	"/>
	<path class="st4" d="M127.1,297.4c0,0,12.8-8.4,13-27.9l3.7-2.3c0,0,1.9,28.3-2.3,34.4C141.4,301.6,135.4,303,127.1,297.4"/>
	<path class="st4" d="M173,297.4c0,0-12.8-8.4-13-27.9l-3.7-2.3c0,0-1.8,28.3,2.3,34.4C158.7,301.6,164.7,303,173,297.4"/>
	<path class="st1" d="M134,211c-3.3,3.9-8.2,10.5-17.3,19.8c0,0,16.3,0.9,22.1-9.8c2.8-5.2,2.9-5.8,3.9-7.8
		C140.9,212.8,136.7,212.2,134,211"/>
	<path class="st1" d="M168.8,211c3.2,3.9,8.2,10.5,17.3,19.8c0,0-16.3,0.9-22.1-9.8c-2.8-5.2-3-5.8-3.9-7.8
		C161.9,212.8,166.1,212.2,168.8,211"/>
	<polygon class="st4" points="131.2,211 106.2,237.9 118.7,247.1 138.4,257.6 160.7,257.6 194.1,239.9 171.8,210.4 	"/>
	<path class="st4" d="M150.1,144.4c-35,0-63.4,28.4-63.4,63.4c0,35,28.4,63.4,63.4,63.4c34.9,0,63.4-28.4,63.4-63.4
		C213.5,172.8,185,144.4,150.1,144.4"/>
	<path class="st0" d="M208.9,207.7c0,32.5-26.3,58.8-58.8,58.8c-32.5,0-58.8-26.3-58.8-58.8c0-32.5,26.3-58.8,58.8-58.8
		C182.6,148.9,208.9,175.3,208.9,207.7"/>
	<path class="st1" d="M196.7,219.9c0,25.8-20.9,46.7-46.6,46.7c-25.8,0-46.6-20.9-46.6-46.7c0-25.7,20.9-46.6,46.6-46.6
		C175.9,173.3,196.7,194.2,196.7,219.9"/>
	<path class="st2" d="M150.1,144.4c-35,0-63.4,28.4-63.4,63.4c0,35,28.4,63.4,63.4,63.4c34.9,0,63.4-28.4,63.4-63.4
		C213.5,172.8,185,144.4,150.1,144.4 M203.3,197.5c-3.9,15.7-14.7,28.5-28.6,35.6c1.1-7.7,4.5-15.4,8-23.4
		c5.1-11.5,10.6-24.2,8.2-37.5C197.2,179.3,201.5,187.9,203.3,197.5 M122.3,161.2c7.1-4.2,15.2-6.9,23.9-7.5v85.3
		c-4.3-0.3-8.5-1.1-12.5-2.4c-0.5-10.5-4.8-20.4-9-30C117.6,190.6,111.5,176.8,122.3,161.2 M133.1,244.6c4.2,1.2,8.6,1.9,13,2.1
		v15.1c-7.1-0.5-13.8-2.4-19.9-5.4C129.2,253.7,132.3,249.7,133.1,244.6 M154,246.8c4.5-0.3,8.8-1,13-2.1c0.9,5.1,4,9.1,6.9,11.8
		c-6.1,3-12.8,4.9-19.9,5.4V246.8z M166.6,236.5c-4,1.3-8.2,2.1-12.6,2.5v-85.3c8.7,0.6,16.8,3.3,23.9,7.5
		c10.8,15.6,4.7,29.4-2.3,45.4C171.4,216.1,167.1,226,166.6,236.5 M109.2,172.2c-2.4,13.4,3.1,26,8.2,37.5c3.5,8,6.9,15.8,8,23.6
		c-14-7-24.6-19.8-28.6-35.8C98.7,187.9,103.1,179.2,109.2,172.2 M96.7,217.2c6.8,11.1,16.9,19.7,28.9,24.8c0,0.4-0.1,0.7-0.1,1.1
		c-0.6,4.1-4,7.3-6.3,9.2C107.6,244.2,99.3,231.7,96.7,217.2 M181,252.2c-2.3-1.8-5.7-5.1-6.3-9.2c-0.1-0.4-0.1-0.7-0.1-1.1
		c12-5,22-13.6,28.9-24.7C200.9,231.7,192.6,244.2,181,252.2"/>
	<path class="st2" d="M169.8,62.6c0,0-0.5,2.1-1.8,2.1c-1.3,0-9.2-3.8-13-5.9c-1.6-0.9-3.9-2.2-4.7-2.7c0,0-3.4,1.8-5,2.7
		c-3.8,2.1-11.7,5.9-13,5.9c-1.3,0-1.8-2.1-1.8-2.1s-20.2,13.6-24.5,48.1c-3.2,25.5,13.1,50.4,13.1,50.4l5.8-6.3h22.9h4.6l22.9,2.4
		l4.9,1c0,0,14-22.1,14-48C194.1,75.5,169.8,62.6,169.8,62.6"/>
	<path class="st0" d="M187.6,113.1c0-13.6-5.5-24.7-11.5-31.2c0,0-0.2,3.9-6.7-0.5c-5.6-3.8-12.2-6.1-19.3-6.1
		c-7.1,0-13.7,2.3-19.3,6.1c-6.3,4.3-6.6,0.4-6.6,0.4c-5.9,6.6-11.5,17.7-11.5,31.2c0,11.3,2.8,16.8,3.7,18.4
		c5.6,14.4,18.5,24.5,33.6,24.5c14.9,0,27.7-9.9,33.4-24C183.9,131.5,187.6,126.1,187.6,113.1"/>
	<path class="st2" d="M164.2,143.8c-0.1-0.1-0.1-0.2-0.1-0.2c0,0-3.7-7,2.4-11.8c0,0,13.8,2.9,14.1-15.4c0,0-0.3-1.9,1.6-5.8
		c0,0-3.5-3.2-11.2,2.6c-7.7,5.8-11.9,22.1-16,18.3c-4.1-3.8-2.6-25.1-4.7-25.9h-0.1c-2.1,0.8-0.6,22.1-4.7,25.9
		c-4.2,3.8-8.4-12.5-16.1-18.3c-7.7-5.8-11.2-2.6-11.2-2.6c1.9,3.8,1.6,5.8,1.6,5.8c0.3,18.3,14.1,15.4,14.1,15.4
		c6.1,4.8,2.4,11.8,2.4,11.8c0,0.1-0.1,0.1-0.1,0.2c-16.5-17.7-26-15.3-21.3,4.5c4.6,19.4,22.4,103,25.3,122.3
		c-0.4,17.4-2.4,23.6-3,25l-1.8,3.6l2,4c3.1,4.5,5.3,9.7,6.1,11.6l6.8,17.2l6.7-17.2c0.8-2,3-7.1,6.1-11.7l2.1-3.8l-1.9-3.8
		c-0.5-1.3-2.5-7.3-2.9-24.1c2.4-17.4,20.6-103.4,25.3-123.2C190.3,128.5,180.7,126.1,164.2,143.8"/>
	<path class="st3" d="M139,230.8c-5.9-31.1-10.6-54.1-14.3-70.8c-2.9-12.7,4.8-7.6,8.9,0.3L139,230.8z"/>
	<path class="st3" d="M161.3,230.8c5.9-31.1,10.6-54.1,14.3-70.8c2.9-12.7-4.8-7.6-8.9,0.3L161.3,230.8z"/>
	<path class="st3" d="M129.7,125.6c-1.2-0.3-1.9-1.5-1.5-2.7c0.1-0.5,0.4-0.8,0.8-1.1c-0.8-0.9-1.7-1.8-2.8-2.5c0,0-1.9,9,6.1,8
		c0,0-0.3-0.8-0.9-1.9C130.9,125.6,130.3,125.7,129.7,125.6"/>
	<path class="st3" d="M174.2,119.3c-1.1,0.8-2,1.7-2.8,2.5c0.4,0.3,0.6,0.6,0.8,1.1c0.3,1.2-0.4,2.4-1.5,2.7
		c-0.6,0.2-1.2,0.1-1.7-0.2c-0.6,1.1-0.9,1.9-0.9,1.9C176.1,128.2,174.2,119.3,174.2,119.3"/>
	<path class="st3" d="M153.9,242.4c2.5-48,6.4-82,6.4-86.3c0-1.5-0.2-3.5-0.8-5.6l-2.8,9.1l-0.8-16.1c-1.4-1.8-3.3-3.6-5.7-5.4H150
		c-2.4,1.7-4.1,3.6-5.5,5.4l-0.8,16.1l-2.8-9.1c-0.6,2.1-0.8,4.1-0.8,5.6c0,4.3,3.8,38.2,6.4,86.3c2.5,48-3.4,56.9-3.4,56.9
		c3.4,5,7.2,13.9,7.2,13.9s3.7-8.9,7.2-13.9C157.3,299.3,151.4,290.4,153.9,242.4"/>
</g>
</svg>
