<svg id="Layer_1" data-name="Layer 1" xmlns="http://www.w3.org/2000/svg" viewBox="0 0 116.17699 94.18906"><title>Untitled-2</title><path d="M57.895,94.18906l-7.699-10a25.16392,25.16392,0,0,1-17.245-22.384l-4.777-6.202a63.49339,63.49339,0,0,0-9.091,5.059L4.759,46.28409l6.038-13.236L0,19.02707H17.177l3.325-7.242,8.505-3.433.943-2.565,6.893,3.148,1.639-5.728,1.125-.374A59.36237,59.36237,0,0,1,57.774.00211c.185-.011,2.228.025,2.278.025.24,0,1.243.054,1.243.054a57.61818,57.61818,0,0,1,15.195,2.693l1.14.375,1.508,5.463,2.482-1.875,13.932,4.954,3.362,7.338h17.263l-10.912,14.079,5.947,13.045L96.663,61.13306s-5.335-3.89-8.992-5.34l-4.385,5.653a25.34155,25.34155,0,0,1-17.759,22.899Z" fill="#fff"/><polygon points="57.908 87.259 107.539 23.266 8.606 23.265 57.908 87.259" fill="#bec0c2"/><path d="M4.52779,21.25742l53.375,69.281,53.73-69.279Zm103.011,2.009-49.631,63.993-49.301-63.995Z" fill="#006bb6"/><path d="M100.37462,27.718l-.018-.042-.04-.024-3.175-2.134,1.183-2.261.035-.068-.031-.072-4.371-9.579-.029-.06-.062-.02295L82.08461,9.26l-.081-.02905-.069.052-3.126,2.385-.034.025-.015.04-.536,1.312A92.40959,92.40959,0,0,0,66.1646,11.1c-.729-.073-2.682-.233-5.799-.479l-.303-.023-.313-.02295-.073-.006-.052.051-2.329,2.32.004-2.381s-6.606.372-10.931.961c-4.325.588-8.578,1.65906-8.578,1.65906l-.782-1.676-.025-.052-.053-.025-5.559-2.545-.158-.07-.059.161-.646,1.761-.147-.353-.061-.145-.146.058-7.956,3.191-.059.024-.027.059L7.4366,45.81l12.05,12.068.562-.319c.362-.208.876-.511,1.457-.853,1.457-.859,3.454-2.034,4.408-2.494l.194-.093c1.235-.598,1.854-.899,7.711-3.405l.49-.183c.007-.001.658-.256,1.864-.655,3.217-1.069,11.571-3.556,19.671-3.556h.091c.323,0,.646.006.97.014a96.51265,96.51265,0,0,1,16.352,2.274c4.257.918,7.461,1.8,8.371,2.056l.612.189a80.235,80.235,0,0,1,13.517,7.048l.579.373,12.198-12.56094Z" fill="#006bb6"/><path d="M99.06331,28.83554l-11.722-7.825-2.038-5.724,3.629,1.291,1.468,3.578,5.518,1.768-3.22-7.115-10.414-3.698-1.913,1.479,3.463,11.251,11.146,7.87805,2.859,7.121-4.636-2.091-1.591-4.432-5.687-1.676,3.04,10.017q1.40552.516,2.791,1.074,3.795,1.536,7.431,3.399,2.52,1.287,4.953,2.729l2.423-2.487Z" fill="#f58427"/><path d="M20.00621,34.14047l3.905-3.489.933,1.087-3.858,11.091q3.16351-1.39352,6.436-2.551l2.795-9.146-2.412-3.983,4.996-4.748,2.92-9.728-3.589-1.612-3.223,9.169-5.167,4.449,4.711-11.887-5.064,2.019-13.952,30.609,2.183,2.19q1.94252-1.131,3.937-2.172Z" fill="#f58427"/><path d="M55.36259,12.31314l-4.28.225-2.01,22.96q2.7285-.25955,5.496-.35205Z" fill="#f58427"/><path d="M68.05852,30.73306l-4.969-.297-.798-14.061,4.21.205-.493-3.874-5.658-.404-2.535,2.528-.006,17.585,2.658,2.721q4.116.12607,8.14.614Z" fill="#f58427"/><path d="M39.906,21.37576l1.793,8.729L40.54,36.71982c1.735-.334,3.486-.622,5.253-.853l.01-.003,2.767-23.024-3.974.579-1.304,7.538-1.477-7.095-4.671,1.17-6.499,24.172q2.80952-.87744,5.688-1.574Z" fill="#f58427"/><path d="M74.4359,29.46256l1.399-1.88794,2.042,1.68195,1.879,8.56q2.95953.744,5.846,1.679l-3.507-12.558-3.615-2.956,2.059-2.746-1.712-6.373-4.364-.971,1.717,6.418-2.717,3.632-2.008-10.555-4.042-.512s2.027,15.481,2.984,23.108q2.74649.387,5.44.942Z" fill="#f58427"/><path d="M49.69991,39.859a13.80366,13.80366,0,0,1,5.052-1.36l-.108-2.652q-2.77048.09146-5.503.35c.159,1.036.396,2.584.559,3.662" fill="#bec0c2"/><path d="M60.4041,38.3389a27.80466,27.80466,0,0,1,4.121.972,21.05578,21.05578,0,0,1,3.444,1.235l.565-4.084c-2.707-.333-5.267-.535-8.038-.622-.039.794-.039,1.912-.092,2.499" fill="#bec0c2"/><path d="M42.6815,44.8118c1.567-1.166,2.51-2.365,4.16-3.37-.313-1.48395-.73-3.404-1.034-4.87q-2.69247.35706-5.337.875c.676,2.198,1.536,5.146,2.211,7.365" fill="#bec0c2"/><path d="M69.33549,41.36948a20.14831,20.14831,0,0,1,4.086,3.21405l.272.207,2.153-7.129c-1.856-.384-3.658-.717-5.552-.985Z" fill="#bec0c2"/><path d="M76.132,47.562l5.136,1.209,4.319-8.543c-1.99-.65-3.912-1.185-5.955-1.697Z" fill="#bec0c2"/><path d="M34.82152,48.771c1.341-.495,3.211-1.17,4.96-1.637l-3.335-8.815c-2.015.488-3.771,1.001-5.736,1.622,1.243,2.953,2.634,5.997,4.111,8.83" fill="#bec0c2"/><path d="M27.07622,51.94394c.296-.254,3.212-1.51294,5.207-2.357-1.516-2.745-3.339-5.772-4.86-8.565-2.174.776-4.154,1.58-6.257,2.515Z" fill="#bec0c2"/><path d="M19.80449,55.80118c.928-.558,1.911-1.128,2.994-1.755l-6.815-8.038q-1.94252,1.00946-3.835,2.109Z" fill="#bec0c2"/><path d="M83.98671,49.82864a78.23711,78.23711,0,0,1,12.084,6.32c1.049-1.003,6.74-6.978,7.521-7.798a92.19868,92.19868,0,0,0-14.872-7.035Z" fill="#bec0c2"/><polygon points="59.617 38.205 57.665 38.137 57.631 33.391 59.661 35.499 59.617 38.205" fill="#bec0c2"/><path d="M58.10982,37.266a22.983,22.983,0,1,0,22.983,22.985,22.98494,22.98494,0,0,0-22.983-22.985" fill="#006bb6"/><path d="M59.5226,38.98648c-1.764.61505-3.463,1.511-5.144,2.29205-1.149-.687-1.806-.861-2.582-1.361a20.56981,20.56981,0,0,1,7.726-.931" fill="#f58427"/><path d="M75.9879,48.74417c-5.416-5.457-13.539-5.063-20.43-6.993a48.65743,48.65743,0,0,1,6.148-2.465,21.202,21.202,0,0,1,14.282,9.45795" fill="#f58427"/><path d="M45.546,49.564a26.73084,26.73084,0,0,0-1.764,26.431c-5.353-4.496-8.544-13.204-6.14-21.66,1.967-2.749,4.498-5.18,7.904-4.771" fill="#f58427"/><path d="M51.11491,55.24716c2.804,8.336,3.425,17.565,10.684,25.961-5.66,1.147-11.267-.549-15.738-3.381-5.539-8.081-5.017-20.138.521-27.974,2.698.777,4.167,4.306,4.533,5.394" fill="#f58427"/><path d="M47.22371,48.972a24.50523,24.50523,0,0,1,2.859-3.353c11.774,3.323,23.001,15.531,24.923,27.529a22.70562,22.70562,0,0,1-2.808,3.071,20.71355,20.71355,0,0,1-9.246,4.731c-5.498-5.703-7.308-13.108-9.25-20.407-1.49-5.601-2.525-9.828-6.474-11.541Z" fill="#f58427"/><path d="M74.73311,48.91965c-5.686-5.017-13.608-4.375-20.255-6.713a25.3702,25.3702,0,0,0-3.611,2.678c11.773,3.692,22.457,15.204,25.001,27.102a20.70822,20.70822,0,0,0,3.411-9.047c.288-5.046.238-9.637-4.546-14.02" fill="#f58427"/><path d="M49.11171,45.24954a22.65524,22.65524,0,0,0-2.873,3.421l-.026-.008c-3.118-.698-5.576.914-7.551,2.924a20.21941,20.21941,0,0,1,5.009-7.048,18.44107,18.44107,0,0,1,5.441.711" fill="#f58427"/><path d="M49.9467,44.51956a22.8539,22.8539,0,0,1,3.533-2.66095l-3.02-1.497a19.49946,19.49946,0,0,0-5.637,3.244,28.85924,28.85924,0,0,1,5.124.91394" fill="#f58427"/><path d="M54.85442,9.09158l-.93.926-1.593.095-.593-.51605-.749.636-1.735.162-.762-.725,1.001-6.792,1.313-.18-.708,5.997.94-.104.733-6.009,1.296-.126-.54,5.966.922-.085.472-5.939c.553-.059.838-.053,1.321-.081Z" fill="#006bb6"/><path d="M59.113,2.22537l.012,4.274.838-.006-.051-4.249s.879.028,1.276.061l.169,4.793-.808.806-.265.013.038,2.051-1.425-.042-.016-2.052-.286-.023-.863-.881.054-4.76605c.462,0,1.327.021,1.327.021" fill="#006bb6"/><path d="M48.53831,3.01718l-.223,1.40405-1.587.299-.288,1.64c.581-.105.938-.161,1.63-.253-.097.611-.125.821-.232,1.398l-1.594.227-.3,1.572,1.634-.237s-.162,1.057-.244,1.53c-1.145.141-2.295.305-3.391.496,0,0,1.228-5.696,1.533-7.453Z" fill="#006bb6"/><path d="M42.55382,11.34525l-1.656.325.759-3.105-.513-1.114-1.301,4.47-1.617.369c.672-2.42,1.361-4.84,2.035-7.25995.556-.187.97-.313,1.461-.46.181.408.615,1.231.615,1.231l.393-1.51605s1.026-.271,1.541-.388Z" fill="#006bb6"/><path d="M65.83229,3.54141c.165,1.946.486,3.808.682,5.623l-.724,1.105-2.34-.156-.843-.919c-.151-1.984-.253-3.986-.376-5.98.215-.283.544-.504.803-.782l1.949.19Zm-2.181.329.415,4.637.821.065-.436-4.613Z" fill="#006bb6"/><path d="M73.39461,4.23685c.291,1.11505.861,3.41.861,3.41l.555.113.268-.37-.691-2.855s.686.193,1.422.415l.735,2.764-.346.498.643.707.971,3.367-1.6-.359-.628-2.362-.996-.222.545,2.35-1.622-.319c-.566-2.532-1.59-7.517-1.59-7.517s.823.171,1.473.37994" fill="#006bb6"/><path d="M70.8625,4.50851l.534,2.775-.308.428.544.651.472,2.756-1.559-.271-.425-2.296-.937-.104.332,2.24-1.555-.195-1.035-7.62,2.973.525Zm-2.25.097.278,1.933.879.099-.371-1.889Z" fill="#006bb6"/></svg>