<?xml version="1.0" encoding="utf-8"?>
<!-- Generator: Adobe Illustrator 21.1.0, SVG Export Plug-In . SVG Version: 6.00 Build 0)  -->
<!DOCTYPE svg PUBLIC "-//W3C//DTD SVG 1.0//EN" "http://www.w3.org/TR/2001/REC-SVG-20010904/DTD/svg10.dtd">
<svg version="1.0" id="Layer_1" xmlns="http://www.w3.org/2000/svg" xmlns:xlink="http://www.w3.org/1999/xlink" x="0px" y="0px"
	 width="240px" height="139.3px" viewBox="0 0 240 139.3" style="enable-background:new 0 0 240 139.3;" xml:space="preserve">
<style type="text/css">
	.st0{fill:#FFFFFF;}
	.st1{fill:#0A7EC2;}
	.st2{fill:#F05333;}
	.st3{fill:#FCBB30;}
	.st4{fill:#1E3160;}
</style>
<g>
	<path class="st0" d="M46,110.3c-0.8-0.1-1.5-0.2-2.2-0.4c-7.5-3.2-3.6-11-1.4-16.1c2.9-6.5,5.8-12.9,8.9-19.4
		C35.1,79.6,19.4,84.9,4.1,90.4c-3.8,1.6-6.1-0.9-1.7-3.5C17.9,77,35,68,53.4,60.2c-4.5-9.4-8.1-19.5-10.8-30.2l-2.1-8.5
		C67.3,7.6,89.9,0,120.4,0c30.4,0,53,7.6,79.8,21.4c-0.5,2-1,4.1-1.6,6.1c13.3-0.5,26.3-0.2,38.8,0.8c3,0.2,3,3.6,0.1,3.9
		c-13.9,2-28,4.2-42.3,6.8c-0.9,2.7-1.8,5.4-2.8,8.1c15.3-3.2,30.2-5.4,44.7-6.6c3.7-0.3,3.8,3.2,0.7,3.9
		c-16.9,5.2-34.2,11-51.7,17.3c-14.9,30.8-36.7,51.3-65.8,68.8c-12.9-7.8-24.7-16.4-35.5-26.9c-23.9,11.2-46.8,22.8-68.4,34.8
		c-3.3,2.1-6.2,0.3-2.3-3.2C23.9,126.6,34.6,118.2,46,110.3"/>
	<path class="st1" d="M15.5,136.7c13.7-12.2,29.2-23.7,46.2-34.3c3.2-1.6,6.4-3.2,9.6-4.8c1.3-0.7,3.9-1.9,7.2-3.5
		c2.2,2.5,4.5,4.8,6.8,7.2C60.9,112.6,37.5,124.5,15.5,136.7 M189.2,49.9c16.4-3.6,32.5-6.1,48.1-7.3c-17.2,5.3-34.8,11.1-52.5,17.6
		C186.3,56.8,187.8,53.4,189.2,49.9"/>
	<path class="st2" d="M3.5,88.6c16-10.1,33.6-19.4,52.7-27.4c0.6,1.3,1.3,2.5,2,3.8c-1,2.1-2,4.2-3.1,6.3
		C37.3,76.7,20.1,82.5,3.5,88.6 M196,29.6c14.2-0.6,28-0.4,41.3,0.7c-14.3,2-28.8,4.4-43.6,7.1C194.5,34.8,195.2,32.2,196,29.6"/>
	<path class="st0" d="M120.4,6.9c26.9,0,48,6.3,71.8,18.2c-11.6,43.9-33,73.4-71.8,97.3c-14.6-9-27-19.1-37.3-30.5
		c4.6-2.2,9.8-4.7,14.4-6.8c1.8,0.2,3.6,0.3,5.3,0.3c-0.1,2.5-0.9,4.4-2.2,5.7c0.7,0.9,1.5,1.7,2.3,2.5c2-1.8,3.3-4.5,3.4-8.2
		c4.7-0.1,9.3-0.6,13.5-1.5c-0.2,6.9-1.2,12-3.2,14c-0.1,0.1-0.1,0.1-0.1,0.2c-0.5,0.5-0.9,1-1.3,1.3c1.9-0.4,3.8-0.8,5.6-1.3
		c2.4-4.9,2.4-13.5,2.4-15c4.4-1.1,8.3-2.2,11.9-3.4c0.1,4,1.8,7.9,4.8,9.3c1.4-1,2.7-2,4-3.1c-0.8,0.1-5.7,0.5-5.6-7.4
		c10.3-3.9,17.1-8.6,23-15.6c1.6-3.5,2.8-7.2,3.7-11.1c-7.1,11.2-13.6,17.7-26.3,22.8c0.4-2.2,1-4.9,2.1-8.2
		c3.7-1.6,7.6-3.4,9.9-4.4l5.6-5.8c1.4-5.4,2.8-10.8,4.2-16.2l-4.4,1.4l5.1-5.4c1.1-4.2,2.1-8.5,3.2-12.7c-2.6,0.4-5.1,0.8-7.7,1.2
		c0.4-2.1,0.7-4.2,0.9-6.3c-1.2-0.3-2.5-0.6-3.7-0.9c-0.3,2.4-0.7,5-1.4,7.9l-0.4,0.1c-2.4,0.4-4.9,1.2-7,3l0.7-2.1
		c-4.1,0.7-8.2,1.5-12.4,2.3l-4.1,4.3l0.1-0.3l1.3-3.4c-4.1,0.8-8.1,1.7-12.2,2.6C117.6,26,116.8,21,116,17
		c-1.1,0.1-2.3,0.3-3.4,0.5c0.7,4.1,1.6,9.1,2.5,14.8l-2.9,0.6l-3.7,3.9c-2.6-2.7-7.8-1-11-0.2c-3.6,0.9-7.1,1.8-10.6,2.8
		c-1.1,0.3-2.1,0.6-3.1,1c-2.7-3.8-5.2-7.8-7.2-12l-0.4-0.8c-1.1,0.4-2.1,0.9-3.2,1.4l0.5,0.9c2,4.2,4.4,8,7,11.8
		C76.6,43.3,73,45.7,70,49c0,0-5,5.2-5.6,5.8c-1.3,1.5-2.4,3.1-3.4,4.7c-5.2-10.5-9.4-22-12.5-34.5C72.4,13.2,93.5,6.9,120.4,6.9
		 M123,73.4c2.5-1.1,4.9-2.2,7.4-3.2l1.2-1.2c0.5,0.1,1,0.1,1.7,0c1-0.2,2.1-0.5,3.4-0.9c-0.8,3-1.3,5.7-1.6,7.9
		c-3.5,1.2-7.5,2.4-12,3.6C123.1,77.5,123.1,75.5,123,73.4 M105.9,81.1l2.3-1.1l6-4.8l1.3-3.7c0.9,1.7,1.3,2.4,2.2,4.2l2-0.9
		c0.1,1.9,0.1,3.7,0.1,5.5c-4.3,1-8.9,1.5-13.7,1.6L105.9,81.1z"/>
	<path class="st2" d="M134.8,15.9c5.7,0,11.3,0.3,16.8,0.9c4.2,0.9,8.4,1.9,12.5,3.2c1.6,5.5,2.4,11.3,2.4,17.4
		c0,5-0.6,9.8-1.7,14.5c-7.1,11.2-13.6,17.7-26.3,22.8c0.4-2.2,1-4.9,2.1-8.2c3.7-1.6,7.6-3.4,9.9-4.4l5.6-5.8
		c1.4-5.4,2.8-10.8,4.2-16.2l-4.4,1.4l5.1-5.4c1.1-4.2,2.1-8.5,3.2-12.7c-2.6,0.4-5.1,0.8-7.7,1.2c0.4-2.1,0.7-4.2,0.9-6.3
		c-1.2-0.3-2.5-0.6-3.7-0.9c-0.3,2.4-0.7,5-1.4,7.9l-0.4,0.1c-2.4,0.4-4.9,1.2-7,3l0.7-2.1c-4.1,0.7-8.2,1.5-12.4,2.3l-4.1,4.3
		l0.1-0.3l1.3-3.4c-4.1,0.8-8.1,1.7-12.2,2.6C117.6,26,116.8,21,116,17C122.2,16.3,128.5,15.9,134.8,15.9 M161.2,62.9
		c-4,9-10,16.8-17.4,23c-0.8,0.1-5.7,0.5-5.6-7.4C148.6,74.6,155.3,69.9,161.2,62.9 M139.8,89c-5.8,4.1-12.2,7.2-19.1,9.1
		c2.4-4.9,2.4-13.5,2.4-15c4.4-1.1,8.3-2.2,11.9-3.4C135.1,83.7,136.7,87.6,139.8,89 M115,99.4c-1.9,0.4-3.9,0.6-5.9,0.8
		c-2.2-2.1-4.3-4.4-6.4-6.6c2-1.8,3.3-4.5,3.4-8.2c4.7-0.1,9.3-0.6,13.5-1.5c-0.2,6.9-1.2,12-3.2,14c-0.1,0.1-0.1,0.1-0.1,0.2
		C115.9,98.6,115.4,99.1,115,99.4 M100.5,91.1c-1.5-1.8-3-3.5-4.5-5.4l1.4-0.6c1.8,0.2,3.6,0.3,5.3,0.3
		C102.6,87.9,101.8,89.7,100.5,91.1 M73.2,46c-1.9-4.9-3.6-9.9-5.1-15c1.6-0.8,3.2-1.5,4.8-2.2l0.5,0.9c2,4.2,4.4,8,7,11.8
		C77.8,42.7,75.4,44.2,73.2,46 M76.1,27.5c11.9-4.9,24-8.2,36.5-10c0.7,4.1,1.6,9.1,2.5,14.8l-2.9,0.6l-3.7,3.9
		c-2.6-2.7-7.8-1-11-0.2c-3.6,0.9-7.1,1.8-10.6,2.8c-1.1,0.3-2.1,0.6-3.1,1c-2.7-3.8-5.2-7.8-7.2-12L76.1,27.5z M123,73.4
		c2.5-1.1,4.9-2.2,7.4-3.2l1.2-1.2c0.5,0.1,1,0.1,1.7,0c1-0.2,2.1-0.5,3.4-0.9c-0.8,3-1.3,5.7-1.6,7.9c-3.5,1.2-7.5,2.4-12,3.6
		C123.1,77.5,123.1,75.5,123,73.4 M105.9,81.1l2.3-1.1l6-4.8l1.3-3.7c0.9,1.7,1.3,2.4,2.2,4.2l2-0.9c0.1,1.9,0.1,3.7,0.1,5.5
		c-4.3,1-8.9,1.5-13.7,1.6L105.9,81.1z"/>
	<path class="st3" d="M121.5,115.1c-11.4-7.7-21.6-16.8-30.4-27.1l4.9-2.3c1.4,1.8,2.9,3.6,4.5,5.4c0.7,0.9,1.5,1.7,2.3,2.5
		c6.5,7.2,13.7,13.7,21.6,19.6C123.4,113.8,122.5,114.5,121.5,115.1 M67.7,51.4c-3.3-7.3-6.2-14.9-8.4-22.8
		c19.9-9.4,40.5-14.5,62.4-15.1c10.2,0.1,20.2,1.2,29.9,3.2c-5.5-0.6-11.1-0.9-16.8-0.9c-6.4,0-12.6,0.4-18.8,1.1
		c-1.2,0.1-2.3,0.3-3.4,0.5c-12.5,1.8-24.6,5.1-36.5,10c-1.1,0.4-2.1,0.9-3.2,1.4c-1.6,0.7-3.2,1.4-4.8,2.2c1.5,5.1,3.2,10.1,5.1,15
		C72,46.9,71,47.9,70,49L67.7,51.4z"/>
	<path class="st4" d="M42.8,22.5C68.6,9.2,91.2,2,120.4,2c29.2,0,51.8,7.2,77.5,20.5c-12,48.2-34.8,80.1-77.5,105.7
		c-16.1-9.7-30.2-21-41.9-34.1c-3.3,1.6-5.8,2.8-7.2,3.5c-4,2-8.1,4-12.1,6.1c-4.5,2.3-9.6,5.8-14.8,4.4c-5.7-2.5-1.9-9.4-0.2-13.4
		c4.4-10,9.1-19.9,13.9-29.7c-5.8-10.9-10.4-22.7-13.5-35.5L42.8,22.5z M120.4,6.9c-26.9,0-48,6.3-71.8,18.2
		c3.1,12.5,7.2,24,12.5,34.5c1-1.6,2.1-3.2,3.4-4.7C65,54.2,70,49,70,49c3.1-3.4,6.6-5.7,10.4-7.4c-2.6-3.8-5-7.7-7-11.8l-0.5-0.9
		c1.1-0.5,2.1-0.9,3.2-1.4l0.4,0.8c2.1,4.3,4.6,8.2,7.2,12c1-0.4,2.1-0.7,3.1-1c3.5-1,7.1-1.9,10.6-2.8c3.3-0.8,8.5-2.5,11,0.2
		l3.7-3.9l2.9-0.6c-0.9-5.6-1.7-10.7-2.5-14.8c1.1-0.2,2.3-0.3,3.4-0.5c0.7,4,1.6,9,2.4,14.5c4.1-0.9,8.1-1.7,12.2-2.6l-1.3,3.4
		l-0.1,0.3l4.1-4.3c4.1-0.8,8.2-1.6,12.4-2.3l-0.7,2.1c2.1-1.8,4.6-2.6,7-3l0.4-0.1c0.7-2.9,1.2-5.5,1.4-7.9
		c1.2,0.3,2.5,0.6,3.7,0.9c-0.2,2.1-0.5,4.2-0.9,6.3c2.6-0.4,5.1-0.8,7.7-1.2c-1.1,4.2-2.1,8.5-3.2,12.7l-5.1,5.4l4.4-1.4
		c-1.4,5.4-2.8,10.8-4.2,16.2l-5.6,5.8c-2.3,1-6.2,2.8-9.9,4.4c-1,3.2-1.7,5.9-2.1,8.2c12.7-5.1,19.3-11.6,26.3-22.8
		c-0.9,3.8-2.2,7.5-3.7,11.1c-5.9,7-12.6,11.7-23,15.6c-0.1,7.9,4.8,7.5,5.6,7.4c-1.3,1.1-2.7,2.1-4,3.1c-3.1-1.4-4.7-5.3-4.8-9.3
		c-3.5,1.2-7.4,2.3-11.9,3.4c0,1.5-0.1,10.1-2.4,15c-1.8,0.5-3.7,1-5.6,1.3c0.4-0.3,0.8-0.8,1.3-1.3c0-0.1,0.1-0.1,0.1-0.2
		c2-2,2.9-7.1,3.2-14c-4.2,0.9-8.8,1.4-13.5,1.5c-0.1,3.8-1.4,6.4-3.4,8.2c-0.8-0.8-1.5-1.7-2.3-2.5c1.3-1.3,2.1-3.2,2.2-5.7
		c-1.6,0-3.4-0.1-5.3-0.3c-4.6,2.2-9.8,4.6-14.4,6.8c10.4,11.5,22.8,21.5,37.3,30.5c38.8-24,60.1-53.4,71.8-97.3
		C168.3,13.2,147.2,6.9,120.4,6.9 M123,73.4c0.1,2.1,0.1,4.2,0.1,6.1c4.5-1.1,8.4-2.3,12-3.6c0.2-2.3,0.7-4.9,1.6-7.9
		c-1.3,0.4-2.5,0.8-3.4,0.9c-0.6,0.1-1.2,0-1.7,0l-1.2,1.2C127.9,71.2,125.5,72.3,123,73.4 M105.9,81.1l0.1,0.9
		c4.8-0.1,9.4-0.6,13.7-1.6c0-1.8,0-3.6-0.1-5.5l-2,0.9c-0.9-1.8-1.3-2.4-2.2-4.2l-1.3,3.7l-6,4.8L105.9,81.1z"/>
	<path class="st0" d="M87.3,41.4c-6.1,1.6-11.5,4.2-15.8,9c-2.5,2.8-4.3,6.1-5.9,9.4c-4.8,9.8-9.5,19.8-13.9,29.8
		c-1.2,2.6-4.7,9-0.9,10.6c4.2,1.1,9.4-2.4,13.1-4.3c4-2,8.1-4.1,12.1-6.1c6.9-3.4,13.1-7.6,17.2-14.2c1.7-2.8,2.9-5.8,4.1-8.8
		c2.6-6.5,5.3-12.9,8-19.4c1-2.4,2.8-5.5,2.2-8.1c-1.2-3.5-7.1-1.4-9.7-0.7C94.4,39.5,90.8,40.4,87.3,41.4 M79.6,78.3
		c-3.2,1.4-6.4,2.9-9.6,4.3c4.6-10.7,9.4-21.4,14.4-32c2.8-0.9,5.6-1.8,8.4-2.6C88.4,58.1,83.9,68.2,79.6,78.3 M134.4,30.3
		c-4.4,5.8-8.8,11.6-13.1,17.5c2-5.4,4.1-10.8,6.1-16.1c-4.6,0.9-9.2,1.9-13.8,3c-1.2,2.8-2.4,5.5-3.5,8.3c1-0.3,2-0.6,3-0.8
		c-3.6,8.7-7.1,17.5-10.6,26.2c-1.4,3.6-2.8,7.1-4.2,10.7c4.6-2.2,9.2-4.3,13.8-6.4c2.1-5.8,4.2-11.5,6.3-17.3
		c2,3.9,3.9,7.8,5.8,11.8c3-1.3,5.9-2.6,8.9-3.9c-1.8-4.1-3.7-8.3-5.5-12.4c3.3-5,6.6-10,10-15c0.9-0.2,1.9-0.4,2.8-0.7
		c0.7-2.2,1.4-4.3,2.1-6.5C139.9,29.2,137.2,29.7,134.4,30.3 M152.2,27.2c-2.5,0.4-4.7,1.2-6.5,3.1c-1.5,1.6-2.3,3.6-3,5.6
		c-2,6.2-3.9,12.4-5.9,18.5c-0.8,2.4-2,6.9,1.9,6.6c1.3-0.2,2.6-0.8,3.8-1.3c4-1.7,7.9-3.4,11.9-5c1-3.9,2-7.8,3-11.7
		c-2.1,0.7-4.2,1.3-6.3,2c-0.5,1.7-1,3.5-1.5,5.2c-1.5,0.5-2.9,1.1-4.4,1.6c1.8-6.3,3.7-12.5,5.5-18.8c1.3-0.3,2.6-0.6,3.9-0.8
		c-0.3,1.1-0.6,2.2-0.9,3.3c1.9-0.4,3.8-0.9,5.6-1.3c0.7-2.8,1.4-5.7,2.1-8.5C158.4,26.2,155.3,26.7,152.2,27.2"/>
	<path class="st1" d="M168.9,21.5c1.9,0.6,3.6,1.2,5.4,1.9c4.4,1.6,8.3,3.3,11.6,4.9c-10,34.2-30.4,62.9-59.2,83.3l-2.3,1.6
		c-8.4-6.3-13.4-11.3-13.4-11.3l4-0.7c12-2,23.7-7.5,33.3-16.4c16.4-15.3,23-37.1,19.6-57.6c-0.1-0.5-0.2-0.9-0.3-1.4l0-0.2l0-0.2
		l-0.1-0.2l0-0.2l0-0.2l0-0.2l-0.1-0.2l-0.1-0.2l0-0.2l0-0.2l-0.1-0.3l-0.1-0.2l-0.1-0.2l0-0.2l0-0.2c-0.2-0.7-0.3-1.4-0.5-2
		C167.2,20.9,168.1,21.2,168.9,21.5 M169.2,21.9c1.8,0.6,3.6,1.2,5.3,1.9C172.8,23.1,171,22.5,169.2,21.9"/>
</g>
</svg>
