<?xml version="1.0" encoding="utf-8"?>
<!-- Generator: Adobe Illustrator 21.0.2, SVG Export Plug-In . SVG Version: 6.00 Build 0)  -->
<!DOCTYPE svg PUBLIC "-//W3C//DTD SVG 1.1//EN" "http://www.w3.org/Graphics/SVG/1.1/DTD/svg11.dtd">
<svg version="1.1" id="Layer_1" xmlns="http://www.w3.org/2000/svg" xmlns:xlink="http://www.w3.org/1999/xlink" x="0px" y="0px"
	 width="256px" height="262.7px" viewBox="0 0 256 262.7" style="enable-background:new 0 0 256 262.7;" xml:space="preserve">
<style type="text/css">
	.st0{fill:#FFFFFF;}
	.st1{fill:#003DA6;}
	.st2{fill:#DD0031;}
</style>
<title>Untitled-34</title>
<g>
	<path class="st0" d="M256,131.4c0.9,71.6-56.4,130.4-128,131.4C56.4,261.8-0.9,203,0,131.4C-0.9,59.7,56.4,0.9,128,0
		C199.6,0.9,256.9,59.8,256,131.4"/>
	<path class="st1" d="M7.6,157.2c6.4,32.6,25.5,61.3,53,79.8c27.1,18.4,60.5,24.9,92.5,17.9c32.3-6.8,60.3-26.4,77.8-54.4
		c17.7-28.3,23.9-62.2,17.5-94.9c-6.3-32.6-25.4-61.3-53.1-79.8c-27.1-18.4-60.5-24.9-92.5-18c-32.2,6.9-60.2,26.6-77.8,54.4
		C7.1,90.4,0.9,124.5,7.6,157.2"/>
	<path class="st0" d="M169.9,33c0.1,5.5-2.3,10.8-6.6,14.3c-23.1-17.4-45-25.9-66.6-26c-4.5,0-9,0.3-13.5,1.1c6.9-3,14-5.2,21.3-6.8
		c18.9-4.1,38.6-3.2,57.1,2.6C165.9,22,168.9,27.2,169.9,33"/>
	<path class="st0" d="M145.8,236.9c24.2-22.8,35.5-71.8,42.2-101.1l1-4.6c2.4-12.1,7.9-23.4,16.1-32.7c18.9,31.2,24.3,68.7,14.9,104
		c-21.4,29.5-55.6,47.1-92.1,47.1C134.5,246.3,140.5,242,145.8,236.9"/>
	<path class="st0" d="M189.9,70.8c9.8-8.5,17.7-14.9,23.3-19.1c12.3,13.8,21.1,30.2,25.9,48c-3.8-6.3-9.7-11-16.6-13.5
		c-5.8-1-11.7,0.6-16.2,4.2C201.3,83.4,195.9,76.8,189.9,70.8"/>
	<path class="st0" d="M15,126c11.2-30.9,52.2-43.4,67.7-48.2l0.7-0.2c6.8-1.8,13.8-3.2,20.8-4.3c19.9-3.5,44.4-7.8,59.2-19.1
		c6.5,5.1,12.6,10.5,18.5,16.2c-49.3,43.7-96.3,90-140.7,138.7c-13.1-15.4-22-33.9-26-53.7c-1.6-7.9-2.5-16-2.5-24.1
		C14,128.3,15,126.1,15,126"/>
	<path class="st0" d="M186,66.9c-6.2-6-12.4-11.5-18.4-16.3c5.2-4.6,8-11.2,7.6-18.1c-0.4-3.8-1.7-7.5-3.8-10.7
		c6.9,2.9,13.5,6.5,19.7,10.7c6.6,4.4,12.8,9.6,18.4,15.2C203.6,52.1,195.7,58.6,186,66.9"/>
	<path class="st0" d="M158.9,50.8C145,60.7,122,64.7,103.2,68c-7.2,1.1-14.4,2.6-21.4,4.4l-0.7,0.2c-14.8,4.5-52.1,16-67.5,43.6
		c2.2-17.7,8.3-34.6,17.9-49.6c8.1-12.9,18.6-24.1,30.9-33.2C89.7,21.6,120.4,22.4,158.9,50.8"/>
	<path class="st0" d="M221.3,91.5c8.1,1.7,16.7,15.6,20.8,23.6c3.6,25.8-1.3,52-14,74.8c0.6-4,1.1-8.2,1.5-12.7
		c2.3-28.9-4.8-57.7-20.3-82.2C212.6,92.2,217,90.9,221.3,91.5"/>
	<path class="st0" d="M185.8,74.3c6,6,11.5,12.6,16.3,19.6c-9.3,10.1-15.6,22.6-18.2,36.1l-1.1,4.6c-6.6,28.7-17.6,76.6-40.6,98.3
		c-7.6,7.4-16.9,13-27.2,16.1c-18-2.1-35.2-8.5-50.2-18.6c-7.3-4.9-14.1-10.7-20.1-17.1C89.3,164.4,136.3,118.1,185.8,74.3"/>
	<path class="st0" d="M159.8,166.5l3.1-0.9c1.9-0.2,3.3-1.9,3.2-3.8c0-0.1,0-0.1,0-0.2c0-2.3-0.6-6.6-3.4-6.6c-2.9,0-2.9,5-2.9,7.8
		V166.5z"/>
	<path class="st0" d="M122.3,164.7c0-10.1-0.4-18.8-7-18.8c-5.4,0-6.4,8.7-6.4,18.8c0,10.1-0.3,18.9,6.4,18.9
		C120.9,183.6,122.3,174.8,122.3,164.7"/>
	<path class="st0" d="M159.8,166.5l3.1-0.9c1.9-0.2,3.3-1.9,3.2-3.8c0-0.1,0-0.1,0-0.2c0-2.3-0.6-6.6-3.4-6.6c-2.9,0-2.9,5-2.9,7.8
		V166.5z"/>
	<path class="st0" d="M108.1,141.6h0.1c3.5-5,9.2-7.8,15.3-7.6c13.5,0,21.9,12,21.9,28.1c1.3,15.4-10.1,29-25.5,30.3
		c-0.9,0.1-1.8,0.1-2.7,0.1c-24,0-32.7-19.8-32.7-42.8c0-26.5,11.2-48.3,39.1-48.3c10.2-0.7,19.1,7,19.8,17.2c0,0.3,0,0.7,0,1
		c0.2,5.6-4.1,10.4-9.7,10.6c-0.3,0-0.5,0-0.8,0c-7.5,0-9.9-6.5-11-12.1c-0.4-2.4,0.4-7.7-3.5-7.7c-8.1,0-9.4,16.3-9.8,22.3
		L108.1,141.6z"/>
	<path class="st0" d="M122.3,164.7c0-10.1-0.4-18.8-7-18.8c-5.4,0-6.4,8.7-6.4,18.8c0,10.1-0.3,18.9,6.4,18.9
		C120.9,183.6,122.3,174.8,122.3,164.7"/>
	<path class="st0" d="M199.9,146.7c-2.4,0-4.6,1.1-6.1,2.9c-0.2-0.4-0.3-0.7-0.5-1.1L192,146l-18.4,5.5v10.3h3.4c0.3,0,0.5,0,0.6,0
		c0.4,1.4,0.6,2.9,0.5,4.4v12l-3.4,0.5v11.4h25.5v-11.4l-3.3-0.5v-3.5c0.1-2.7,0.4-5.5,0.9-8.1c1.1,0.3,2.2,0.5,3.3,0.5
		c4.6,0,7.8-4.2,7.8-10.3c0.6-5-2.9-9.5-7.9-10.1C200.6,146.8,200.2,146.7,199.9,146.7"/>
	<path class="st0" d="M231.9,158.8c-0.2-0.5-0.3-1.1-0.3-1.6c0-3.1-1.2-10.3-12.4-10.3c-6.2,0-18.3,4.9-18.3,16.1
		c-0.1,3.4,0.9,6.8,3,9.5c-2.6,1.7-4.1,4.7-3.9,7.8c0,4.1,2,10.9,15.4,10.9c8.6,1.2,16.6-4.8,17.9-13.4c0.2-1.1,0.2-2.2,0.1-3.2
		C233.6,169.2,233.1,163.9,231.9,158.8"/>
	<path class="st0" d="M97.2,98c-0.7-0.8-1.7-1.3-2.8-1.3c-1.7,0-3,1.1-4.6,2.8c-5.5,5.9-13.2,9.2-21.3,9
		c-12.1-0.5-23.6-5.6-32.1-14.4c-0.7-0.7-1.7-1.1-2.7-1.1c-4.5,0-5.7,7.5-5.7,7.6l0,37.5l2.9,0.4c9.7,1.7,19.6,1.4,29.2-1.1
		c-9.3,8.6-30.4,31.9-30.1,54.2c0.1,4.1,2.5,4.5,3.6,4.5c1,0,2-0.5,2.8-1.2c0.2-0.1,0.3-0.3,0.6-0.5c4-2.6,8.6-3.8,13.4-3.6
		c4.3-0.1,8.5,0.8,12.4,2.6c0.7,0.4,1.5,0.6,2.3,0.6c1,0,2-0.4,2.7-1.2c0.9-1.2,1.2-2.6,0.9-4.1c-1.8-15.2,1.3-30.6,8.6-44l1-1.5
		c5.7-8.7,17.6-26.7,19.8-41.6C98.4,100.4,98,99.1,97.2,98"/>
	<path class="st0" d="M167.6,176.1c-1.2-0.1-2.2-0.8-2.7-1.9l6.5-1.8C170.4,173.9,169.1,175.2,167.6,176.1 M181.9,169.6l-0.2-2.8
		c-0.1-1.8-0.4-3.6-0.8-5.3l-0.1-3.3l-0.6,0.9c-2.3-7.4-9.1-12.4-16.8-12.4c-11.8,0-20.1,9.6-20.1,23.3c-1,10.6,6.8,20.1,17.4,21.1
		c0.7,0.1,1.3,0.1,2,0.1c7.5,0.1,14.5-3.9,18.4-10.4l0.5-0.9l-0.4-10.2L181.9,169.6z"/>
	<path class="st0" d="M138,136.4c-0.7-1-1.4-2.1-2-3c6.6-1.2,11.2-7.1,10.9-13.8c-0.2-12.1-10.1-21.9-22.3-21.7c-0.3,0-0.6,0-0.9,0
		c-26.6,0-42.5,19.4-42.5,51.8c0,29.4,13.1,46.3,36.1,46.3c18.6,0,31.6-14,31.6-33.9C147.8,152.7,144,143.8,138,136.4"/>
	<path class="st1" d="M159.9,162.9c0-2.7,0-7.8,2.9-7.8c2.7,0,3.4,4.2,3.4,6.6c0.3,1.9-1,3.7-3,4c-0.1,0-0.1,0-0.2,0l-3.1,0.9
		L159.9,162.9z M167.7,179.7c-4-0.4-7-3.8-7-7.8l17.7-4.9c0.6-8.7-6-16.1-14.6-16.7c-0.1,0-0.2,0-0.3,0c-10,0-16.7,8-16.7,19.8
		c-0.9,8.8,5.4,16.6,14.2,17.6c0.6,0.1,1.2,0.1,1.8,0.1c6.3,0.1,12.2-3.2,15.4-8.6l-3.5-4.3C173.5,177.6,170.8,179.5,167.7,179.7"/>
	<path class="st1" d="M196.8,186.7h-18.7v-4.8l3.4-0.5v-15c0-5.4-0.7-7.9-4.4-7.9v-4.2l13.3-4c1.4,3.1,2.1,6.5,2.2,9.9h0.1
		c1.3-4.1,3-9.8,7.3-9.8c3.8,0,5.5,3,5.5,6.7c0,3.7-1.6,6.8-4.4,6.8c-1.5-0.1-3.1-0.5-4.5-1.1c-2.4-0.8-3.2,10-3.2,12.2v6.6l3.3,0.5
		L196.8,186.7z"/>
	<path class="st1" d="M228.2,157.2c-0.1,2.6-2.2,4.6-4.8,4.5c-0.1,0-0.3,0-0.4,0c-3.2-0.2-5.8-2.7-6.1-5.9c-1.4,0-2.3,0.7-2.3,3.1
		c0,5.6,15.3,1.6,15.3,15.7c0,10.6-7.4,13.2-14.6,13.2c-4.3,0-12-0.6-12-7.4c-0.4-2.6,1.5-5,4.1-5.4c0.2,0,0.4,0,0.6,0
		c4.6,0,5.4,4.4,6.2,7.5c0.2,0.8,0.9,0.9,1.6,0.9c2.5,0,4.2-1,4.2-2.7c0-6.3-15.7-3.9-15.7-17.6c0-8.7,10-12.7,14.9-12.7
		C224.8,150.4,228.2,152.2,228.2,157.2"/>
	<path class="st1" d="M115.3,183.6c-6.7,0-6.4-8.8-6.4-18.9c0-10.1,0.9-18.8,6.4-18.8c6.7,0,7,8.7,7,18.8
		C122.4,174.8,121,183.6,115.3,183.6 M123.6,134c-6-0.2-11.8,2.6-15.3,7.6h-0.1l0.6-8.9c0.3-6,1.7-22.3,9.8-22.3
		c3.9,0,3,5.3,3.5,7.7c1.1,5.6,3.5,12.1,11,12.1c5.6,0.2,10.3-4.2,10.5-9.8c0-0.3,0-0.5,0-0.8c-0.2-10.2-8.6-18.4-18.8-18.2
		c-0.3,0-0.7,0-1,0c-27.9,0-39.1,21.9-39.1,48.3c0,23,8.7,42.8,32.7,42.8c15.5,0.1,28.1-12.3,28.3-27.8c0-0.9,0-1.8-0.1-2.7
		C145.5,146,137.1,134,123.6,134"/>
	<path class="st2" d="M31.5,101v34.1c18.6,2.8,40.8,0.9,56.5-22.6c0.7-1,1-0.3,0.6,0.6c-6.1,9.8-14.2,18.3-23.7,24.9
		c-8.6,6.9-31.7,31.8-31.4,53.7c0,1.7,0.1,1.2,1.5,0.1c8.9-5.2,19.8-5.7,29.2-1.4c1.2,0.6,1.3,0.4,1.1-1.2
		c-1.8-16,1.4-32.2,9.2-46.3c4.9-7.5,18-26.7,20.3-41.7c0.2-1.6-0.5-1.3-2.4,0.7c-16.3,16-42.5,15.7-58.5-0.7
		c-0.2-0.2-0.4-0.5-0.7-0.7C32.1,99.5,31.6,100,31.5,101"/>
	<path class="st0" d="M95.6,80.5c0.2,17.8-14,32.5-31.9,32.7c-17.8-0.2-32.1-14.9-31.9-32.7c-0.2-17.8,14-32.5,31.9-32.7
		C81.6,48,95.8,62.7,95.6,80.5"/>
	<polygon class="st1" points="63.7,49 64.8,52.4 68.4,52.4 65.5,54.6 66.5,58 63.7,55.9 60.9,58 61.9,54.6 59,52.4 62.6,52.4 	"/>
	<polygon class="st1" points="84.9,61.7 86,65.1 89.6,65.1 86.7,67.3 87.8,70.7 85,68.6 82.1,70.7 83.2,67.3 80.2,65.1 83.9,65.1 	
		"/>
	<polygon class="st1" points="75.8,51.9 76.9,55.3 80.5,55.3 77.6,57.5 78.7,60.9 75.8,58.8 73,60.9 74.1,57.5 71.2,55.3 74.8,55.3 
			"/>
	<polygon class="st1" points="88.4,73.6 89.5,77.1 93.1,77.1 90.2,79.3 91.2,82.7 88.4,80.6 85.6,82.7 86.7,79.3 83.7,77.1 
		87.3,77.1 	"/>
	<polygon class="st1" points="86.9,86.3 88,89.8 91.6,89.8 88.7,92 89.7,95.4 86.9,93.3 84.1,95.4 85.1,92 82.2,89.8 85.8,89.8 	"/>
	<polygon class="st1" points="80.1,96.4 81.1,99.9 84.8,99.9 81.8,102.1 82.9,105.5 80.1,103.4 77.2,105.5 78.3,102.1 75.4,99.9 
		79,99.9 	"/>
	<polygon class="st1" points="69.4,102.1 70.4,105.6 74,105.6 71.1,107.8 72.2,111.2 69.4,109.1 66.5,111.2 67.6,107.8 64.7,105.6 
		68.3,105.6 	"/>
	<polygon class="st1" points="42.1,60.5 41,64 37.4,64 40.4,66.2 39.3,69.6 42.1,67.5 45,69.6 43.9,66.2 46.8,64 43.2,64 	"/>
	<polygon class="st1" points="51,51.9 49.9,55.3 46.3,55.3 49.3,57.5 48.2,60.9 51,58.8 53.8,60.9 52.8,57.5 55.7,55.3 52.1,55.3 	
		"/>
	<polygon class="st1" points="38,72.1 36.9,75.6 33.3,75.6 36.3,77.7 35.2,81.2 38,79.1 40.8,81.2 39.8,77.7 42.7,75.6 39.1,75.6 	
		"/>
	<polygon class="st1" points="39.1,84.7 38,88.2 34.4,88.2 37.3,90.4 36.3,93.9 39.1,91.7 41.9,93.9 40.8,90.4 43.8,88.2 40.2,88.2 
			"/>
	<polygon class="st1" points="45.9,95.1 44.8,98.6 41.2,98.6 44.2,100.8 43.1,104.2 45.9,102.1 48.8,104.2 47.7,100.8 50.6,98.6 
		47,98.6 	"/>
	<polygon class="st1" points="56.6,101.7 55.6,105.1 52,105.1 54.9,107.3 53.8,110.7 56.6,108.7 59.5,110.7 58.4,107.3 61.3,105.1 
		57.7,105.1 	"/>
</g>
</svg>
