<?xml version="1.0" encoding="utf-8"?>
<!-- Generator: Adobe Illustrator 21.1.0, SVG Export Plug-In . SVG Version: 6.00 Build 0)  -->
<!DOCTYPE svg PUBLIC "-//W3C//DTD SVG 1.0//EN" "http://www.w3.org/TR/2001/REC-SVG-20010904/DTD/svg10.dtd">
<svg version="1.0" id="Layer_1" xmlns="http://www.w3.org/2000/svg" xmlns:xlink="http://www.w3.org/1999/xlink" x="0px" y="0px"
	 width="300px" height="245.7px" viewBox="0 0 300 245.7" style="enable-background:new 0 0 300 245.7;" xml:space="preserve">
<style type="text/css">
	.st0{fill:#F9A01B;}
	.st1{fill:#E56020;}
	.st2{fill:#B95915;}
</style>
<title>Untitled-34</title>
<g>
	<polygon class="st0" points="0,245.7 144.5,166.6 46.5,245.7 165.4,177.4 163.4,191.2 183.2,180.1 228,222.5 251.8,150.9 
		286.3,148.7 268.8,105.2 300,80.8 259.6,65.1 269.9,21.6 235.5,37.4 217.8,0 190.3,27.5 140.8,5.3 133.9,49.5 89.8,59 115.9,74.8 
		89.6,88 112,89.9 20.1,161.3 112.5,112.3 13.4,187.7 118.9,132.7 6.2,217.4 130.4,151.2 	"/>
	<path class="st1" d="M264.4,105.9c-1.6,39.7-35.2,70.5-74.8,68.9c-39.7-1.6-70.5-35.2-68.9-74.8c1.6-39.7,35.1-70.5,74.8-68.9
		C235.1,32.6,266,66.1,264.4,105.9C264.4,105.8,264.4,105.8,264.4,105.9"/>
	<path class="st2" d="M201.3,165c-39.7-1.6-70.5-35.1-68.9-74.8c0.7-17.6,7.9-34.4,20.2-47.1c-33.1,22-42,66.7-20,99.7
		s66.7,42,99.7,20c4.3-2.8,8.2-6.1,11.8-9.8C231.5,161.4,216.5,165.6,201.3,165"/>
	<path d="M264.4,103.7c0-2.5-0.1-5.1-0.3-7.6c-4.4-3.1-9.5-5.2-14.9-5.9c-1.1-0.1-2.2-0.2-3.2-0.3c-0.7-4.7-1.8-9.4-3.2-13.9
		c0.7,0,1.5,0.1,2.3,0.1c5.1,0.4,10,0.9,15,1.7c-0.7-1.8-1.5-3.6-2.3-5.4c-5.5-0.8-11.2-1.5-16.8-1.9h-0.1c-1.8-4.6-4-9.1-6.7-13.3
		c3.6-0.7,6.9-2.3,9.6-4.8c-1.4-1.4-2.8-2.7-4.2-4c-2.5,2.1-5.5,3.4-8.7,3.7c-0.5-0.7-1-1.5-1.6-2.2c-4.7-6.2-10.4-11.7-16.7-16.2
		c-5.5-1.6-11.2-2.5-17-2.8c-0.3,0-0.6,0-1,0c11.2,4.5,21,11.8,28.5,21.2c-8.4-1.2-16.6-3.1-24.7-5.7c-2.5-0.7-5-1.5-7.4-2.1
		c-11-3.3-22.6-4.7-34.1-3.9c-6.2,3.6-11.9,8-16.8,13.2c15.5-7,33-8.4,49.5-4.1c2.4,0.7,4.8,1.4,7.3,2.1c9.8,3.4,20,5.4,30.3,6.2
		c2.6,3.9,4.9,8,6.8,12.3c-1.9-0.1-3.7-0.2-5.6-0.2c-46.2-0.8-85.8,13-107.8,35.1c0.1,4.3,0.6,8.6,1.5,12.8
		c7.2-9.8,16.5-17.9,27.2-23.6c22.4-12.6,52-19.2,83.6-18.6c1.1,0,2.2,0.1,3.3,0.1c1.6,4.6,2.8,9.3,3.5,14.1
		c-20.3,0.9-33.5,13.5-48.6,27c-15.5,14.5-34.1,25.3-54.3,31.5c2.3,2.8,4.8,5.4,7.5,7.9c22.8-9.2,38-23.5,50.8-34.9
		c14.5-13,27-25.5,45.4-26.1c0.5,5.1,0.5,10.3,0,15.5c-2.1,26.8-17.5,50.8-41,63.9c5.6-0.5,11.1-1.7,16.5-3.5c1.8-1.5,3.5-3,5.2-4.7
		c14.8-14.8,23.8-34.3,25.5-55.1c0.5-5.2,0.5-10.5,0-15.7c0.9,0.1,1.8,0.2,2.8,0.3C255,96.8,260.3,99.6,264.4,103.7"/>
</g>
</svg>
