<?xml version="1.0" encoding="UTF-8" standalone="no"?>
<svg xmlns="http://www.w3.org/2000/svg" xmlns:xlink="http://www.w3.org/1999/xlink" width="350" height="400" viewBox="0 0 590 674" fill-rule="evenodd">
	<title>Logo of Sacramento Kings National Basketball Association (NBA), 2016</title>
	<style type="text/css">
.v {fill:#5b2b82}
.g {fill:#63717a}
	</style><!--
	<rect width="700" height="700" fill="#f00"/>-->
	<path fill="#fff" d="
	M 0,0
	l 85,85
	70,-70 70,70
	70,-70 70,70
	70,-70 70,70
	85,-85
	V 379
	a 295,295 0 0,1 -590,0
	"/>
	<path class="v" d="
	M 25,60
	l 60,60
	70,-70 52.5,52.5 -70,70 h 35
	l 122.5,-122.5 70,70
	70,-70 52.5,52.5 -70,70 h 35
	l 112.5,-112.5
	V 267 H 25
	
	M 25,291
	h 40 v 47
	h 12 l 22,-47
	h 40 l -28,58 l 28,58
	h-40 l-22,-47
	h-12 v 47
	h-40
	
	M 152,291
	h 40 v 116
	h-40
	
	M 206,291
	h 98 a 12,12 0 0,1 12,12 v 104
	h-40 v-94
	h-30 v 94
	h-40
	
	M 331,291
	h 110 v 22
	h -70 v 72
	h  30 v-47
	h  40 v 69
	h-98 a 12,12 0 0,1 -12,-12
	
	M 455,291
	h 110 v 30
	h -40 v -8
	h -30 v 25
	h  58 a 12,12 0 0,1 12,12 v 57
	h-110 v -22
	h  70 v -25
	h -58 a 12,12 0 0,1 -12,-12
	"/>
	<path fill="#fff" d="
	M 42.25,209
	h 36 v 9
	h-24 v 9
	h 18 a 6,6 0 0,1 6,6 v 20
	h-36 v-9
	h 24 v-9
	h-18 a 6,6 0 0,1 -6,-6
	
	M 91.75,209
	h 30 a 6,6 0 0,1 6,6 v 38
	h-12 v-11
	h-12 v 11
	h-12
	m 12,-35
	h 12 v 15
	h-12
	
	M 141.25,209
	h 36 v 9
	h-24 v 26
	h 24 v 9
	h-30 a 6,6 0 0,1 -6,-6
	
	M 190.75,209
	h 30 a 6,6 0 0,1 6,6 v 22
	h -6 l 6, 16
	h-12 l-6,-16
	h -6 v 16
	h-12
	m 12,-35
	h 12 v 10
	h-12
	
	M 240.25,209
	h 30 a 6,6 0 0,1 6,6 v 38
	h-12 v-11
	h-12 v 11
	h-12
	m 12,-35
	h 12 v 15
	h-12
	
	M 289.75,209
	h 54 a 6,6 0 0,1 6,6 v 38
	h-12 v-35
	h-12 v 35
	h-12 v-35
	h-12 v 35
	h-12
	
	M 363.25,209
	h 36 v 9
	h-24 v 9
	h 24 v 9
	h-24 v 9
	h 24 v 9
	h-30 a 6,6 0 0,1 -6,-6
	
	M 412.75,209
	h 30 a 6,6 0 0,1 6,6 v 38
	h-12 v-35
	h-12 v 35
	h-12
	
	M 462.25,209
	h 36 v 9
	h-12 v 35
	h-12 v-35
	h-12
	
	M 517.75,209
	h 24 a 6,6 0 0,1 6,6
	v 32 a 6,6 0 0,1 -6,6
	h-24 a 6,6 0 0,1 -6,-6
	v-32 a 6,6 0 0,1 6,-6
	m 6,9
	h 12 v 26
	h-12
	"/>
	<clipPath id="clip">
		<path d="
		M 26,430
		H 564 A 272,272 0 0,1 26,430
		
		M 142 425
		C 143.5 437.25 146.86 451.8 152 467.6
		C 83 484.9 67 530 67 530
		L 87 558
		C 87 558 95.8 513 163 497
		C 189.69 560 239 631 307 657
		L 368 644
		C 271 630.67 217.688 555.8 191.6 493
		C 198.9 492 206.7 492 215 492
		C 340 492 421 583 475 583
		C 484 583 490 575 490 575
		L 510 560 L 520 535
		C 520 535 511 553 490 553
		C 425 553 360 461 210 461
		C 199.5 461 190 461.55 180.7 462.5
		C 176 448 173 435 172 425
		L 142 425
		"/>
	</clipPath>
	<path class="g" clip-path="url(#clip)" d="
	M 27,430
	H 563 A 273,273 0 0,1 27,430
	"/><!--Sources of clipPath before boolean merge:
	<path fill="#fff" d="
	M 172,425
	C 180,481 230,625 368,644
	L 307,657
	C 210,620 150,490 142,425
	"/>
	<path fill="#fff" d="
	M 67,530
	C 67,530 92,461 210,461
	C 360,461 425,553 490,553
	C 511,553 520,535 520,535
	L 510,560 490,575
	C 490,575 484,583 475,583
	C 421,583 340,492 215,492
	C 100,492 87,558 87,558
	"/>--><!--
	<image xlink:href="SacramentoKings.png" x="0" y="0" width="592" height="674" opacity="0.5"/>-->
</svg>