<?xml version="1.0" encoding="utf-8"?>
<!-- Generator: Adobe Illustrator 21.1.0, SVG Export Plug-In . SVG Version: 6.00 Build 0)  -->
<!DOCTYPE svg PUBLIC "-//W3C//DTD SVG 1.0//EN" "http://www.w3.org/TR/2001/REC-SVG-20010904/DTD/svg10.dtd">
<svg version="1.0" id="Layer_1" xmlns="http://www.w3.org/2000/svg" xmlns:xlink="http://www.w3.org/1999/xlink" x="0px" y="0px"
	 width="389.1px" height="470.7px" viewBox="0 0 389.1 470.7" style="enable-background:new 0 0 389.1 470.7;" xml:space="preserve"
	>
<style type="text/css">
	.st0{fill:#FFFFFF;}
	.st1{fill:none;stroke:#FFFFFF;stroke-width:2.06;}
	.st2{fill:#C4CED4;}
	.st3{fill:none;stroke:#000000;stroke-width:0.151;}
</style>
<g>
	<polygon class="st0" points="331.7,12 305.4,58.6 300.8,95.8 254,179.2 192.6,179.2 238.4,98.3 238.4,12 190.9,12 165.7,58.2 
		161.4,95.8 94.6,214.8 105.9,242.9 147.4,242.9 128.5,290.8 93,252.5 97.2,308.7 35.8,311.3 84.7,345.7 49.9,397.5 106,379.2 
		129.2,434.7 146.8,374.2 209.4,390.3 169,343.6 218.8,302.5 167.4,305.6 223,242.9 296.1,242.9 377.1,99.3 377.1,12 	"/>
	<polygon class="st1" points="331.7,12 305.4,58.6 300.8,95.8 254,179.2 192.6,179.2 238.4,98.3 238.4,12 190.9,12 165.7,58.2 
		161.4,95.8 94.6,214.8 105.9,242.9 147.4,242.9 128.5,290.8 93,252.5 97.2,308.7 35.8,311.3 84.7,345.7 49.9,397.5 106,379.2 
		129.2,434.7 146.8,374.2 209.4,390.3 169,343.6 218.8,302.5 167.4,305.6 223,242.9 296.1,242.9 377.1,99.3 377.1,12 	"/>
	<polygon class="st0" points="99.2,394 20.5,419.7 68.2,348.8 0,300.8 84.3,297.2 78.5,219.2 87.2,228.6 81.3,213.9 149.7,92 
		154,54.5 183.8,0 250.4,0 250.4,101.5 213.2,167.2 246.9,167.2 289.2,92 293.8,54.8 324.7,0 389.1,0 389.1,102.5 303.1,254.9 
		228.4,254.9 195.6,291.9 254.8,288.3 186.1,345 243.6,411.5 155,388.7 131.2,470.7 	"/>
	<polygon points="331.7,12 305.4,58.6 300.8,95.8 254,179.2 192.6,179.2 238.4,98.3 238.4,12 190.9,12 165.7,58.2 161.4,95.8 
		94.6,214.8 105.9,242.9 147.4,242.9 128.5,290.8 93,252.5 97.2,308.7 35.8,311.3 84.7,345.7 49.9,397.5 106,379.2 129.2,434.7 
		146.8,374.2 209.4,390.3 169,343.6 218.8,302.5 167.4,305.6 223,242.9 296.1,242.9 377.1,99.3 377.1,12 	"/>
	<polygon class="st2" points="321.8,53.6 344,53.6 359.4,24.5 338.1,24.5 	"/>
	<polygon class="st3" points="321.8,53.6 344,53.6 359.4,24.5 338.1,24.5 	"/>
	<polygon class="st2" points="182.3,53.6 206.2,53.5 221.4,24.5 198.4,24.5 	"/>
	<polygon class="st3" points="182.3,53.6 206.2,53.5 221.4,24.5 198.4,24.5 	"/>
	<polygon class="st2" points="176.7,90.1 198.2,90.2 200.2,65.3 179.3,65.3 	"/>
	<polygon class="st3" points="176.7,90.1 198.2,90.2 200.2,65.3 179.3,65.3 	"/>
	<polygon class="st2" points="315.7,90.1 337.2,90.2 339.2,65.3 318.4,65.3 	"/>
	<polygon class="st3" points="315.7,90.1 337.2,90.2 339.2,65.3 318.4,65.3 	"/>
	<path class="st2" d="M311.1,105l-48.6,85.5H145.9l48.6-85.5h-22.8l-58.6,103.5h65l-49.3,110.2L108.4,296l1.1,26.7l-32.9,1.8
		l26.5,18.6l-18.9,28.1l30.4-9.9l12.5,30.1l9.6-32.8l33.9,8.7L148.7,342l27-22.3l-41.6,1.8l76.7-113.2h65.1l57.6-103.5h-22.4V105z
		 M120.4,349.7c-5.5,0-9.9-4.4-9.9-9.9s4.4-9.9,9.9-9.9s9.9,4.4,9.9,9.9S125.8,349.7,120.4,349.7"/>
	<path class="st3" d="M311.1,105l-48.6,85.5H145.9l48.6-85.5h-22.8l-58.6,103.5h65l-49.3,110.2L108.4,296l1.1,26.7l-32.9,1.8
		l26.5,18.6l-18.9,28.1l30.4-9.9l12.5,30.1l9.6-32.8l33.9,8.7L148.7,342l27-22.3l-41.6,1.8l76.7-113.2h65.1l57.6-103.5h-22.4V105z
		 M120.4,349.7c-5.5,0-9.9-4.4-9.9-9.9s4.4-9.9,9.9-9.9s9.9,4.4,9.9,9.9S125.8,349.7,120.4,349.7z"/>
</g>
</svg>
