<?xml version="1.0" encoding="UTF-8" standalone="no"?>
<svg width="500px" height="500px" viewBox="0 0 500 500" version="1.1" xmlns="http://www.w3.org/2000/svg" xmlns:xlink="http://www.w3.org/1999/xlink">
    <!-- Generator: Sketch 39.1 (31720) - http://www.bohemiancoding.com/sketch -->
    <title>TOR</title>
    <desc>Created with Sketch.</desc>
    <defs></defs>
    <g id="NBA" stroke="none" stroke-width="1" fill="none" fill-rule="evenodd">
        <g id="TOR" fill="#BB1C3F">
            <g id="TRaptors_P_cmyk_Red" transform="translate(0.000000, 1.000000)">
                <path d="M334.126736,480.913568 C334.527778,481.382937 334.77691,481.997195 335.039931,481.978108 C336.338542,481.935596 338.927083,481.507871 338.927083,481.507871 L341.499132,480.400819 L348.789062,477.561178 C348.789062,477.561178 366.991319,468.886087 367.032118,468.843575 C367.116319,468.781108 370.227431,467.143087 370.227431,467.143087 L371.90191,466.403895 L373.866319,465.061725 L377.088542,463.086209 L380.920139,460.984892 L385.871528,457.74876 L394.462674,451.693808 L398.653646,448.383063 L404.68316,444.021659 L410.174479,439.943091 L412.789062,438.036115 L416.399306,434.655094 L420.203125,430.894934 L426.262153,424.390568 L433.34375,417.588617 L441.532118,408.174334 L446.013889,402.18185 L447.590278,400.017199 L452.404514,394.087181 L461.768229,380.614286 L464.438368,376.197355 L470.704861,363.782059 L474.301215,357.029561 L480.358507,344.704495 L483.650174,337.225819 L487.219618,325.750997 C487.219618,325.750997 491.4375,310.577613 493.706597,302.65039 C493.983507,301.736812 494.06684,300.928213 493.5,300.120481 C492.199653,298.295059 491.244792,295.958624 490.02691,293.912833 C489.391493,292.855233 488.479167,291.769003 487.883681,290.898805 C487.289062,290.006916 485.698785,287.988021 485.075521,287.263578 C484.412326,286.474934 483.609375,285.818164 482.80816,285.203906 C480.842882,283.378484 479.127604,281.54699 477.482639,280.357516 C476.680556,279.914174 475.973958,279.362383 475.268229,278.808857 C470.178819,274.876045 464.992188,271.730143 459.153646,269.201101 C456.733507,268.164324 454.202257,267.265495 451.671007,266.373606 C449.914931,265.779303 447.065104,265.100843 445.211806,264.784171 C444.132812,264.589829 443.276042,264.589829 442.446181,265.100843 C441.642361,265.654369 441.616319,266.88462 441.491319,268.094916 C441.145833,271.239084 441.020833,274.723348 440.771701,277.897014 C440.467014,281.186937 440.231771,284.456038 439.982639,287.752902 C439.721354,290.726153 439.581597,293.705477 439.222222,296.656171 C438.751736,300.569028 438.199653,304.453254 437.466146,308.345289 C436.096354,315.590582 434.533854,322.791627 433.025174,329.994408 C432.596354,331.992481 432.320312,334.032199 431.545139,335.905338 C430.217882,338.967084 429.263021,342.112986 428.654514,345.361265 C427.327257,352.224815 424.822917,358.688404 422.486111,365.165007 C420.5625,370.459944 418.681424,375.852052 415.680556,380.655063 C415.445312,380.97347 415.334201,381.38124 415.210069,381.699648 C413.784722,385.038157 412.443576,388.411369 410.936632,391.708233 C409.967882,393.852063 408.584201,395.808491 407.685764,397.957526 C406.537326,400.673969 405.001736,403.163101 403.439236,405.603648 C400.907118,409.51477 398.251736,413.337397 396.052951,417.422906 C394.544271,420.312 392.802083,422.987666 390.907118,425.620819 C390.395833,426.305352 389.980903,426.982077 389.510417,427.660537 C388.002604,429.892861 386.619792,432.187652 384.931424,434.269014 C381.764757,438.28338 378.47309,442.299481 375.111979,446.191516 C373.036458,448.660693 370.711806,450.906031 368.5,453.250275 C366.480035,455.372415 364.488715,457.501495 362.46875,459.622767 C362.039931,460.086063 361.486111,460.431366 361.015625,460.853017 C359.813368,461.855958 358.513021,462.829401 357.40625,463.936453 C354.791667,466.548784 352.094618,469.058739 349.010417,471.118411 C347.681424,472.0103 346.354167,472.880498 345.150174,473.904261 C341.887153,476.703125 338.221354,478.791429 334.126736,480.913568" id="Fill-1"></path>
                <path d="M496.722222,286.309223 C496.861111,286.309223 496.90191,286.094927 496.916667,285.798209 C496.998264,285.182216 497.109375,284.055209 497.109375,284.055209 L498.87934,268.246746 L499.932292,253.454237 L500,238.710314 L499.959201,236.457167 L498.217014,219.756815 C498.217014,219.756815 496.168403,204.750878 494.62066,197.015394 C494.052083,194.298951 492.365451,192.896049 490.137153,191.809819 C489.391493,191.450634 488.58941,191.063686 487.773438,190.814686 C486.154514,190.303672 484.328993,189.494206 482.697049,189.093376 C478.934028,188.13208 475.366319,186.901829 471.547743,186.266749 C467.065972,185.498927 462.473958,185.02869 457.951389,184.607038 C454.202257,184.268676 450.46875,184.136801 446.704861,184.075202 C443.717882,184.033557 441.920139,183.99278 438.917535,183.99278 C437.327257,183.99278 435.625868,184.053512 434.87934,185.02869 C434.174479,186.031631 434.685764,187.793718 434.961806,189.597449 C435.515625,193.234411 436.137153,195.058965 436.746528,198.674237 C438.55816,209.381237 440.467014,220.053533 440.855035,230.954007 C441.0625,235.842909 441.338542,240.708387 441.560764,245.616376 C441.601563,246.997589 441.601563,247.889477 441.616319,249.29238 C441.642361,250.143491 441.836806,251.056202 442.237847,251.67046 C442.666667,252.34892 443.34375,252.438282 444.132813,252.694223 C445.087674,252.991808 445.97309,253.07423 446.884549,253.289394 C447.825521,253.543599 449.569444,253.883697 450.758681,254.262836 C455.101563,255.665739 459.707465,257.194443 463.927083,258.914885 C466.900174,260.125181 469.680556,261.825669 472.557292,263.359578 C472.889757,263.505334 473.207465,263.740453 473.512153,263.975571 C475.185764,265.205822 476.873264,266.462969 478.532986,267.694955 C482.461806,270.584049 486.528646,273.389854 489.544271,277.343488 C490.110243,278.104369 490.802083,278.808857 491.521701,279.444805 C492.68316,280.48939 494.661458,284.227861 496.113715,285.928348 C496.362847,286.225934 496.59809,286.309223 496.722222,286.309223" id="Fill-2"></path>
                <path d="M385.125868,108.530164 C386.619792,108.446875 387.975694,108.40523 389.122396,108.274223 C389.980903,108.191801 390.768229,108.149289 391.142361,107.257401 C391.528646,106.367247 390.852431,105.432847 390.631076,105.025077 C390.3125,104.278944 387.462674,99.2260662 387.462674,99.2260662 L384.682292,94.8915575 L372.938368,77.977777 L370.505208,75.0878153 L368.250868,72.0260697 L354.888021,57.3637003 L350.795139,53.3475993 L336.077257,39.7445645 L324.029514,30.4413345 L319.671875,28.1248537 L305.480035,19.4983484 L295.576389,14.1418118 L293.668403,13.3332125 L285.58941,10.4007387 L273.611111,5.89531359 L272.684896,5.68188502 L268.811632,4.74748432 L267.788194,4.55487805 L264.427083,3.68294425 L257.303819,2.39022648 L253.887153,2.28004181 L247.552083,1.09056794 L239.929688,0.579554007 L237.260417,0.288909408 L232.473958,0.198679443 L224.520833,0.413843206 L216.609375,1.30573171 L210.510417,1.45756098 L205.12934,2.05186411 L199.582465,3.15024042 L195.377604,4.44989895 L188.585069,5.77037979 L187.03559,5.72266202 L180.6875,8.01745296 L176.925347,9.04121603 L174.62934,10.4432509 L169.068576,11.9502648 L166.399306,13.5058641 L163.052083,14.7985819 L154.821181,18.2195122 L144.363715,22.2980801 L140.90625,23.9577909 L133.58941,27.9114251 L127.212674,32.0724146 L121.250868,35.1749373 L119.106771,36.4121289 L112.606771,39.8556167 L111.541667,40.5332091 L104.140625,46.3530418 L98.0138889,50.4801951 L96.8098958,51.2879268 L89.8524306,56.7693972 L87.3480903,58.8715819 C87.3480903,58.8715819 83.6006944,62.078216 83.5043403,62.507676 L86.1310764,61.7181638 C86.1310764,61.7181638 90.9175347,59.9560767 90.9869792,59.9985889 C91.0833333,60.0393659 91.9131944,60.0810105 91.9131944,60.0810105 L98.7881944,57.2752056 L99.7986111,57.2752056 L107.336806,54.3236446 C107.336806,54.3236446 111.278646,52.9884146 111.278646,53.0933937 C111.278646,53.1966376 115.289931,51.6280244 115.289931,51.6280244 L120.891493,49.6290836 L134.434028,44.4451986 L135.678819,44.3757909 L142.621528,41.9578014 L148.112847,39.7037875 L148.90191,40.2772683 C148.90191,40.2772683 159.413194,40.5332091 159.552083,40.5332091 L166.302951,41.0659129 L166.523438,41.1691568 L180.189236,42.2744739 L180.342014,42.1504077 L199.22309,43.1255854 L199.333333,43.5958223 L206.028646,49.3314983 L206.539931,49.3115436 L213.358507,55.9200209 L213.981771,55.6233031 L223.374132,55.8775087 L223.84375,55.5599686 L247.467882,56.9368432 L247.606771,57.4686794 L258.119792,63.544453 L258.575521,63.4828537 L277.138889,72.5162613 L277.276042,73.5122613 L287.81684,69.4128711 L303.253472,74.618446 L305.868056,78.8696655 L311.539063,79.2488049 L316.987847,85.415676 L317.541667,85.4347631 L321.940104,90.4468641 L322.009549,90.7652718 L322.618056,90.7652718 L334.804688,93.5294321 L339.286458,100.456317 L350.559896,104.534885 C350.559896,104.534885 362.661458,107.638275 368.81684,108.40523 C374.322917,109.124467 380.850694,108.827749 385.125868,108.530164" id="Fill-3"></path>
                <path d="M490.221354,179.976679 C489.861979,178.185962 488.58941,174.577631 488.58941,174.577631 L487.883681,172.620334 L487.261285,170.223167 L485.269097,164.27146 L483.414931,159.086707 L477.633681,146.208983 L474.992188,139.857314 L471.700521,132.543481 L467.743924,126.066878 L466.817708,124.192871 L464.174479,118.905742 L461.727431,114.910463 L443.814236,90.681115 C443.814236,90.681115 442.196181,88.7463763 441.366319,87.7920209 C440.978299,87.281007 440.855035,86.9018676 440.315972,86.9018676 C440.273438,86.9018676 440.231771,86.9426446 440.190972,86.9426446 C440.190972,86.9426446 435.00434,95.4025714 432.831597,97.8222962 C430.674479,100.200376 426.331597,104.195655 426.331597,104.195655 C426.331597,104.195655 422.679688,107.194934 422.042535,107.659098 C421.421007,108.129334 418.640625,109.973843 418.640625,109.973843 L414.780382,112.186213 C414.780382,112.186213 411.876736,113.527516 411.407118,113.714049 C410.936632,113.90839 410.382813,114.100997 410.064236,114.481871 C409.788194,114.867951 409.703993,115.157728 409.815104,115.802352 C409.912326,116.306425 410.064236,116.817439 410.299479,117.287676 C411.848958,120.535955 413.273438,123.875331 414.974826,127.041188 C417.575521,131.776526 419.165799,136.836345 421.296007,141.764289 C422.015625,143.382355 422.721354,145.041199 423.273438,146.700042 C424.698785,151.054505 426.053819,155.450613 427.452257,159.785122 C428.032986,161.719861 428.668403,163.655467 429.249132,165.611895 C429.802951,167.539693 430.259549,169.496122 430.798611,171.47424 C431.117188,172.793854 431.988715,173.368202 433.289063,173.34738 C434.560764,173.34738 435.834201,173.298794 437.105903,173.236328 C441.616319,173.090571 446.124132,172.960432 450.675347,172.877143 C451.975694,172.856321 460.980903,173.685742 460.980903,173.685742 C460.980903,173.685742 464.217014,174.024972 465.794271,174.280045 C469.210069,174.915993 472.640625,175.682948 476.057292,176.402185 C478.934028,176.996488 481.894097,177.977739 484.564236,179.209725 C485.864583,179.804028 487.289062,180.162345 488.726563,180.590937 C489.15625,180.715871 489.861979,180.826056 489.986111,180.756648 C490.096354,180.715871 490.262153,180.211798 490.221354,179.976679" id="Fill-4"></path>
                <path d="M431.185764,79.2488049 C431.047743,78.6128571 429.858507,76.7883031 429.858507,76.7883031 L428.986979,75.2535261 L426.538194,72.4477213 L424.892361,70.0696411 L421.822049,67.0347909 C421.822049,67.0347909 421.144965,66.4543693 420.826389,66.1776063 C415.430556,61.8023206 404.670139,53.1133484 404.642361,53.0717038 C404.642361,53.0508815 401.669271,50.7361359 401.669271,50.7361359 L396.09375,45.8420279 L368.139757,29.0583868 L346.076389,18.6203415 C346.076389,18.6203415 334.375868,14.0307596 334.361979,14.0576551 C334.361979,14.0576551 330.100694,12.5662578 330.059896,12.5662578 C329.990451,12.5931533 315.646701,7.61662369 315.646701,7.61662369 L305.480035,5.04420209 L295.617188,2.92206272 L294.069444,2.77110105 L293.197917,3.64129965 L293.585069,4.07075958 C293.585069,4.07075958 294.580729,4.57483275 295.065104,4.74748432 C298.107639,5.97773519 301.206597,7.08478746 304.27691,8.32197909 C306.269097,9.12277003 308.164062,10.1873101 310.224826,10.7824808 C311.650174,11.2110732 312.96441,11.7151463 314.222222,12.4621463 C318.925347,15.1647073 323.572917,17.8811498 328.234375,20.6461777 C331.000868,22.3180348 333.586806,24.2545087 335.966146,26.5067875 C337.806424,28.1664983 339.672743,29.7559338 341.858507,30.9731707 C342.840278,31.4772439 343.643229,32.3760732 344.514757,33.0953101 C344.984375,33.4961394 345.483507,33.9039094 345.966146,34.325561 C348.690972,36.5795749 351.679688,38.5151812 354.113715,41.1474669 C356.699653,43.9341847 359.425347,46.6098502 362.190972,49.2430035 C364.764757,51.7937352 367.392361,54.2611777 369.605903,57.1502718 C371.431424,59.5283519 373.3125,61.8647875 375.428819,63.9938676 C379.46875,67.9882787 382.579861,72.7453066 386.260417,77.0373031 C386.730035,77.5483171 386.992188,78.2337178 387.380208,78.8271533 C389.758681,82.5673589 391.903646,86.4724077 394.752604,89.9141603 C396.758681,92.2991812 398.584201,94.8507805 399.898438,97.6990976 C400.71441,99.4186725 401.904514,100.967331 402.969618,102.51599 C403.577257,103.434774 404.627604,103.878115 405.196181,103.857293 C405.735243,103.794826 406.772569,103.346279 406.772569,103.346279 L408.750868,102.535944 C408.750868,102.535944 411.337674,101.38985 412.263889,100.989021 C413.107639,100.567369 414.878472,99.6060732 415.486111,99.0325923 C416.123264,98.4591115 418.736979,96.6345575 420.24566,95.2923868 C421.697049,93.9302613 424.698785,90.4269094 424.698785,90.4269094 L426.871528,87.5369477 L430.578125,81.3301672 C430.578125,81.3301672 431.324653,79.9342056 431.185764,79.2488049" id="Fill-5"></path>
                <path d="M419.526042,172.303662 C418.018229,167.651613 416.855903,163.247697 415.195312,158.658115 C413.813368,154.897955 412.789062,151.033683 411.00434,147.419279 C409.981771,145.254627 409.414062,142.890429 408.59809,140.617328 C408.169271,139.469498 407.602431,138.411899 407.216146,137.264937 C405.153646,131.395652 402.374132,126.660314 399.565972,121.151948 C399.440972,120.83354 399.289931,120.605362 399.026042,120.094348 C398.75,119.582467 398.528646,119.11223 397.835938,118.733091 C397.144965,118.332261 396.550347,118.601216 395.292535,118.753913 C392.913194,119.029808 389.882812,119.327394 388.652778,119.327394 C387.532118,119.327394 382.815104,119.706533 379.067708,120.004118 L378.195312,119.749045 L373.631944,119.749045 L361.569444,118.179564 C357.171007,117.543617 347.046007,115.013707 347.046007,115.013707 L339.644965,112.462976 L330.544271,109.359585 L329.851562,109.726578 L315.619792,108.618659 L315.177083,108.875467 L307.182292,102.792753 L306.25434,102.730286 L301.276042,98.2439477 L301.081597,97.3112822 L295.53559,96.4818606 L295.024306,96.7161115 L290.47309,95.1474983 L289.960069,94.6781289 L279.50434,95.4450836 L270.042535,91.5946934 L237.233507,93.3160035 L236.708333,92.9776411 L230.511285,93.4678328 L229.861111,93.9302613 L213.717882,95.1474983 L213.276042,94.7596829 L190.24566,108.046045 L189.969618,109.021223 L188.931424,109.973843 L188.378472,109.594704 L176.815104,108.508474 L176.177951,108.786105 L155.706597,108.916244 L155.291667,108.702815 L149.427951,108.508474 L147.657118,107.472564 L126.188368,124.04885 L126.12066,124.470502 L118.595486,130.421341 L110.186632,126.425195 L109.6875,126.660314 L106.588542,125.74153 C106.588542,125.74153 91.1111111,129.654387 91.2630208,129.786261 C91.4288194,129.867815 76.8229167,127.46284 76.8229167,127.46284 L75.7986111,126.660314 L73.0607639,129.460045 L67.2916667,132.225073 L67.1545139,132.716132 L55.6032986,141.536111 L39.2274306,153.328474 L20.8029514,167.014798 L12.4895833,173.071484 L12.0607639,176.617348 L8.57465278,184.690328 L7.08159722,191.664063 L4.74392361,205.731261 L3.38802083,211.807902 L2.890625,219.113927 L0.870659722,234.286443 L0,267.56308 L0.897569444,269.560286 L1.49305556,278.698672 C1.49305556,278.698672 1.64583333,280.295049 2.00520833,280.357516 C2.046875,280.39916 2.046875,280.357516 2.046875,280.39916 L42.8645833,238.1993 L56.2534722,232.800251 L67.4861111,232.22677 L74.2916667,224.429686 L74.9548611,222.984272 L75.7847222,223.365146 L94.1536458,221.304606 L94.9288194,220.731993 L101.803819,220.731993 L102.826389,221.111132 L105.040799,218.202084 L113.255208,213.121443 L122.06684,207.086446 L146.813368,207.431749 L146.979167,207.937557 L156.675347,208.856341 L164.242188,207.342387 L178.115451,193.192767 L178.391493,193.212721 L189.401042,182.733899 L205.959201,180.612627 L206.595486,180.162345 L207.341146,180.888523 L215.932292,184.945401 L216.553819,184.39361 L224.161458,183.460944 L224.549479,183.051439 L231.686632,181.842878 L232.322917,181.442049 L240.110243,188.069613 L240.552951,187.558599 L256.473958,187.282704 L257.84375,186.287571 L270.65191,186.901829 L271.357639,187.158638 L273.334201,186.666711 L273.680556,186.09323 L278.784722,183.799307 L279.37934,183.840084 L285.286458,181.20693 L285.769097,180.653404 L292.063368,178.275324 L292.533854,177.550014 L310.018229,170.87907 L310.141493,170.623129 L313.225694,169.649686 L313.904514,168.964286 L314.776042,169.925582 L319.852431,172.406906 L321.414062,172.448551 L327.059028,175.620481 L327.473958,175.088645 L329.216146,174.260091 L329.381944,174.320822 L332.231771,173.002077 L332.355903,172.814676 L336.436632,171.85338 L346.880208,174.577631 L349.092014,174.066617 L351.001736,175.344585 L358.678819,176.492415 L366.189236,179.382376 C366.189236,179.382376 370.518229,179.084791 370.560764,179.084791 C370.628472,179.084791 371.985243,180.017456 371.985243,180.017456 L373.077257,179.382376 C373.077257,179.382376 387.863715,177.529192 395.263889,176.914934 C400.077257,176.554882 404.877604,176.042132 409.703993,175.552808 C412.402778,175.296 415.126736,175.047 417.851562,174.743341 C419.317708,174.577631 420.065104,173.98246 419.526042,172.303662" id="Fill-6"></path>
                <path d="M430.328993,248.055188 C430.328993,247.040101 430.134549,246.403286 430.078993,245.381258 C429.927951,242.532941 429.775174,239.684624 429.623264,236.838042 C429.582465,235.883686 429.457465,234.929331 429.388021,233.968035 C429.167535,230.422171 429.069444,226.890188 428.737847,223.323502 C428.267361,218.816341 427.631944,214.399411 426.953125,209.934763 C426.44184,206.492143 425.763889,203.007878 425.15625,199.60777 C424.477431,196.020261 423.91059,192.723397 423.136285,189.134153 C422.361111,185.498927 421.572049,184.987913 417.824653,185.45815 C417.533854,185.498927 417.215278,185.539704 416.896701,185.602171 C415.528646,185.879801 413.592014,186.09323 412.208333,186.266749 C404.947049,187.199415 398.113715,187.580289 390.866319,188.450488 L370.047743,195.701854 L339.992188,194.893254 L336.712674,193.828714 L336.698785,194.361418 L327.846354,200.885739 L326.601562,201.010672 L319.602431,207.515038 L319.216146,208.448571 L301.206597,210.826652 L284.773438,223.497021 L283.072049,223.448436 L274.315972,228.589808 L270.844618,228.999314 L267.427951,231.908362 L266.528646,231.189125 L249.763889,230.042164 L246.860243,233.311265 L246.928819,233.864791 L232.43316,249.652432 L232.28125,250.565143 L231.713542,250.697017 L213.248264,271.730143 L208.171875,271.8143 L207.770833,272.325314 L192.611111,274.958467 L191.434896,274.896 C191.434896,274.896 191.116319,275.595282 191.061632,275.643868 C190.950521,275.684645 166.079861,289.495902 166.079861,289.495902 L154.876736,288.174554 L152.484375,289.004843 L141.321181,288.328118 L130.255208,300.293132 L123.643229,301.626627 L119.895833,301.460916 L115.967882,303.11976 L113.62934,302.863819 L113.768229,303.347937 L99.9765625,313.999411 L98.6779514,314.248411 L77.1684028,330.977394 L77.3480903,331.950836 L64.0694444,364.129098 L64.5946181,365.483415 L42.6579861,367.481488 L35.4513889,373.689136 L34.7595486,376.003014 L44.5529514,389.558331 L51.7725694,400.590679 L57.96875,408.560415 L68.1076389,419.545045 C68.1076389,419.545045 68.1640625,420.312 68.3854167,420.373599 C68.5651042,420.457756 69.7265625,420.520223 69.7673611,420.567941 C69.8229167,420.609585 75.8394097,422.606791 75.8819444,422.649303 C75.9088542,422.69008 83.3506944,424.984871 83.3506944,424.984871 C83.3506944,424.984871 83.4348958,425.344923 83.5164931,425.344923 C83.5590278,425.344923 84.2647569,425.240812 84.2647569,425.240812 L96.6579861,430.04469 L97.5989583,430.003045 L98.2760417,430.804704 L99.3836806,430.804704 C99.4652778,430.847216 102.315104,432.761132 102.315104,432.761132 L107.501736,429.912815 L107.751736,429.934505 L110.074653,428.447446 L128.887153,433.189725 L142.690972,426.131833 L173.301215,423.111732 L185.846354,402.906293 C187.853299,400.929909 191.421007,397.293815 191.421007,397.293815 L191.905382,397.273861 C191.905382,397.273861 196.221354,393.276847 196.303819,393.195293 C196.346354,393.112003 196.303819,392.662589 196.303819,392.662589 L204.201389,385.459808 L207.881076,381.638049 C207.881076,381.638049 208.697049,381.146122 208.807292,381.1253 C208.919271,381.1253 213.040799,376.722251 213.040799,376.722251 L216.457465,373.197209 L217.356771,373.032366 L216.484375,369.907286 L220.039931,356.940199 L226.900174,354.900481 L227.162326,354.643672 L229.196181,354.181244 L229.237847,353.034282 L238.450521,338.117707 L239.294271,337.729892 L243.084201,330.382223 L249.336806,326.829418 L250.166667,325.812596 L251.411458,325.999997 C251.411458,325.999997 255.048611,323.836213 255.158854,323.877857 L255.588542,323.877857 L262.351562,320.904606 L262.920139,320.096875 L285.409722,309.769014 L286.751736,309.638007 L287.028646,308.407756 L287.899306,307.750986 L290.223958,299.905317 L297.320312,296.849645 L305.549479,295.827617 L313.005208,290.641997 L323.68316,291.112233 L324.720486,292.004122 L325.274306,291.320456 L340.143229,284.671202 L340.059896,282.755551 L343.643229,275.940585 L350.946181,273.984157 L351.306424,273.51392 L361.320312,271.412603 L365.165799,266.865533 L365.650174,266.760554 C365.650174,266.760554 367.97309,264.508275 368.029514,264.465763 C368.111979,264.465763 374.917535,265.398429 374.917535,265.398429 L375.27691,265.654369 L379.025174,266.187073 L381.348958,266.462969 C381.348958,266.462969 391.460938,261.721557 395.720486,260.084404 C397.505208,259.405944 399.248264,258.957397 400.907118,258.363094 C403.24566,257.511983 405.582465,256.710324 407.921007,255.922547 C409.138021,255.535599 410.257812,255.245822 411.434028,254.878829 L416.150174,254.007763 L421.627604,253.095052 L424.976562,252.900711 C424.976562,252.900711 426.59375,252.694223 427.202257,252.603993 C427.797743,252.479059 428.737847,252.479059 429.457465,251.864801 C430.175347,251.201091 430.163194,250.524366 430.244792,249.929195 C430.300347,249.29238 430.328993,248.975707 430.328993,248.055188" id="Fill-7"></path>
                <path d="M430.078993,267.735732 C430.12066,266.947087 430.244792,265.633547 429.582465,264.928192 C428.97309,264.251467 428.114583,264.12046 427.58941,264.12046 C427.049479,264.12046 424.463542,264.465763 424.463542,264.465763 L420.106771,265.143355 C419.609375,265.205822 419.125,265.268289 418.654514,265.420118 C416.039931,266.035244 413.425347,266.567948 410.853299,267.285449 C408.003472,268.114871 405.071181,268.882693 402.374132,270.0713 C399.496528,271.351003 396.274306,272.366091 393.397569,273.728216 C392.373264,274.219275 382.704861,278.933791 378.305556,281.125338 L372.662326,287.117822 L372.455729,288.431362 L371.708333,288.093 L368.181424,288.306429 L367.986979,288.604014 L356.533854,292.384997 L356.631944,293.663833 L355.44184,294.831617 L355.427951,295.571676 L350.046875,305.00678 L349.300347,305.048425 L349.190104,306.030544 C349.190104,306.030544 348.096354,307.812585 346.880208,309.810659 L322.6875,325.364049 L322.175347,325.323272 L318.496528,328.385017 L315.9375,338.581003 L313.585938,340.83415 L304.138021,375.727118 L305.397569,379.68162 L291.413194,386.373387 L289.158854,386.373387 L286.474826,398.551829 L286.046875,398.932704 L282.587674,409.985007 L282.782118,410.57931 L281.371528,420.076882 L280.845486,420.733652 L281.329861,421.62554 L267.871528,442.922415 L266.875868,443.22 L263.582465,448.383063 L263.486111,449.420707 C263.486111,449.420707 252.033854,465.594429 252.033854,465.553652 C252.005208,465.484244 239.915799,472.714787 239.915799,472.714787 L240.579861,473.73161 C240.579861,473.861749 239.929688,478.618777 239.929688,478.618777 L240.994792,480.421641 L239.280382,480.954345 L230.511285,486.13823 L229.583333,485.931742 L216.733507,493.535352 L215.212674,495.940328 C215.212674,496.126861 220.233507,496.679519 220.233507,496.679519 L228.546875,497.364052 L234.244792,497.639948 L240.829861,497.744059 L243.886285,497.868125 L248.866319,498 L253.817708,497.868125 L271.784722,495.705209 L282.477431,493.83207 L290.555556,491.626641 L299.311632,489.075909 L310.488715,484.652038 L311.289931,484.188742 L314.429688,482.39976 C314.429688,482.39976 323.434028,477.642732 327.528646,474.580986 C334.458333,469.312944 341.484375,464.129059 347.834201,458.114885 C350.006076,456.048272 352.136285,453.968645 354.280382,451.86646 C356.313368,449.847564 358.318576,447.809582 360.365451,445.790686 C360.697917,445.424561 361.168403,445.086199 361.334201,444.663679 C362.011285,443.004836 363.311632,441.879564 364.529514,440.669268 C365.360243,439.77738 366.244792,438.928003 366.908854,437.90424 C368.264757,435.741324 370.325521,434.164035 372.096354,432.381993 C373.519097,430.957401 374.861979,429.361024 376.009549,427.728209 C378.125868,424.708976 380.104167,421.604718 382.124132,418.521282 C384.835069,414.42276 387.78125,410.469125 390.077257,406.155439 C392.552951,401.565857 394.973958,396.955453 397.588542,392.42747 C399.774306,388.584021 402.027778,384.692854 403.730035,380.614286 C406.565972,373.861787 409.456597,367.143125 412.069444,360.340307 C414.835938,353.075927 417.03559,345.638028 419.014757,338.137662 C420.506944,332.546007 421.351562,326.807728 423.412326,321.36877 C423.688368,320.650401 423.800347,319.882578 423.91059,319.163341 C424.698785,314.57376 425.486979,310.025822 426.178819,305.43624 C426.871528,301.100864 427.479167,296.76115 428.101562,292.425774 C428.517361,289.474213 429.013889,286.522652 429.263021,283.544195 C429.609375,279.444805 429.802951,275.30377 429.96875,271.177484 C429.982639,270.735878 430.024306,269.817094 430.024306,269.817094 C430.024306,269.817094 430.052083,268.522641 430.078993,267.735732" id="Fill-8"></path>
            </g>
        </g>
    </g>
</svg>