<?xml version="1.0" encoding="utf-8"?>
<!-- Generator: Adobe Illustrator 21.1.0, SVG Export Plug-In . SVG Version: 6.00 Build 0)  -->
<!DOCTYPE svg PUBLIC "-//W3C//DTD SVG 1.1//EN" "http://www.w3.org/Graphics/SVG/1.1/DTD/svg11.dtd">
<svg version="1.1"
	 id="Layer_1" xmlns:cc="http://creativecommons.org/ns#" xmlns:dc="http://purl.org/dc/elements/1.1/" xmlns:rdf="http://www.w3.org/1999/02/22-rdf-syntax-ns#"
	 xmlns="http://www.w3.org/2000/svg" xmlns:xlink="http://www.w3.org/1999/xlink" x="0px" y="0px" width="300px" height="200.3px"
	 viewBox="0 0 300 200.3" style="enable-background:new 0 0 300 200.3;" xml:space="preserve">
<style type="text/css">
	.st0{fill:#FFFFFF;}
	.st1{fill:#C60C3D;}
	.st2{fill:#00338D;}
</style>
<g transform="matrix(1.25 0 0 -1.25 -283.99 554.65)">
	<g transform="matrix(.25 0 0 .25 227.19 294.87)">
		<path class="st0" d="M101.3,140.5c66.7,42.6,87.7,90.6,87.7,90.6L0,204l80.3,142.6l161.4,13.6c0,0,62.8,56,160,96.2
			c0,0,10.1,17.7,65.7,49.6c0,0,50.9,30,108.9,49.2c0,0,39.3,13.5,50.9,14.2l-3.4,12.5l74.1,6.3l1.9,7.1c0,0,38.7-2.6,60.9-12.4
			l4.4,5.8c0,0,51.8-23.8,90.3-82.3c0,0,37.4,2.1,70.8-13.9c0,0,35.5-14.1,33.9-55.2c0,0-0.2-52.5-15.9-104.5c0,0-2.4-8.1-4.6-13
			c0,0-3.3-6.6-9.5-15c0,0-17.6-18.1-24.4-34c0,0-3.7-10.6-11-29.8c0,0-5.6-26.5-44.1-27.9c0,0-37.4-47.3-53-60.9l-1.3,11.5
			c0,0-26.1-24.2-48.7-38.5l7.6,67c0,0,1.9,12-5.7,12.8l-19.5,0.5c0,0,6.4-40.3-1.3-59c0,0-4.9-29.3-50.3-43.2
			c0,0-35.1-11.2-75.2-14.3l-8.6,1.4L531,64.5l18.5,66.3c0,0-23.7-2.4-25.7,0.6l-70.4-30.2l27.7,79.3l19,10.5l-6,8.2l-38.9-0.3
			l-14.3-11.1c-33.1,8.6-65.2,6.3-65.2,6.3L211.9,61.2l-41-90.6L122,36l15.3,20l-5.8,4.4L109.3,43L76.5-45.5L28.1,22.8l12.4,27.7
			l-2.7,17c14.4,9.5,23.7,15.9,31,24.1c4,5.1,6.2,6.9,10.8,15.5c4.3,10.5,4.5,21.9,9.4,25.5C95,136.7,99.6,139.5,101.3,140.5"/>
		<path class="st1" d="M89.5,332.4L27,222.2l806.9,120.3c0,0-28,21.3,12.6,55L89.5,332.4"/>
		<g>
			<path class="st2" d="M908.6,412.8c0,0-63-43.1-41.2-80.2c0,0-22.9-12.7,2.4-30.5c0,0-39.1-17.6-28.7,30.7l-634.4-96
				c0,0-13.6-57.4-103.5-111.8c0,0-6.6-3.9-7.2-11.1c0,0,0.6-9-7.5-19.9c0,0-10.1-17.7-33.7-32.7l1.7-11.8l-11-25.3l27-38.7
				l24.4,65.8l48.3,37.1c0,0,47.2,73.9,124.9,102.9c0,0,68.6,29.3,168.6,12.7l9.1,8.8l115.9,2.6c0,0,4.4-1,1.4-3.4
				c0,0-22.8-17.6-47.8-19.8l2.3-7.1c0,0,0.7-2.5-1.2-3.1l-24.3-9.6l-16.1-44.5l45.5,19.8l2.5-1.9c0,0,39.6-2.5,99.3,9.6
				c0,0,41.4,8.2,52.9,61.8l78.7,3.4c0,0,16.4-3.5,14.3-18.7l-5.6-44.6l36,32.1l2.5-8.4c0,0,27.3,29.5,34.3,46.4
				c0,0,30-0.6,37.3,11.5c0,0,3.4,3.4,13,29.8c0,0,4.5,18.5,23,36.7c0,0,14.3,13.4,22.3,48.6c0,0,9.6,51,9.5,60.8
				c0,0,10.3,50.5-24.3,65.4c0,0-25.7,14.2-73.9,10.2c0,0-9.6,33.5-76,79.4l-4.8-7.2c0,0-22.7,15.6-54.8,15.2l-1.6-4.5
				c0,0-19.5,0.1-62.1-4.3l4-11.8c0,0-87.7-4.1-212.2-87.4l-2.3-6.8l-15.8-7.4l8.4-4.6c0,0-95.1-34.3-164.3-91L908.6,412.8"/>
			<path class="st2" d="M686.3,207.1l27.2,0.3c0,0,5.4-35.9,2.2-52c0,0-5.4-23.8-29.7-33.1c0,0-35.8-15.2-89.6-18.6l-2.6,2.2
				l-40.7-17.2l13.4,47.4c0,0,54.6,4.2,71.1,9.2C637.6,145.3,680,153.6,686.3,207.1"/>
			<path class="st2" d="M350.9,193c0,0-96.6,1.2-162.8-76.8c0,0-0.2-28.3-34.5-47.4l1.3-8.9l-16.3-22.4l28.9-38.7l32.6,72.2
				L350.9,193"/>
		</g>
	</g>
</g>
</svg>
