<?xml version="1.0" encoding="utf-8"?>
<!-- Generator: Adobe Illustrator 21.1.0, SVG Export Plug-In . SVG Version: 6.00 Build 0)  -->
<!DOCTYPE svg PUBLIC "-//W3C//DTD SVG 1.1//EN" "http://www.w3.org/Graphics/SVG/1.1/DTD/svg11.dtd">
<svg version="1.1"
	 id="Layer_1" xmlns:cc="http://creativecommons.org/ns#" xmlns:dc="http://purl.org/dc/elements/1.1/" xmlns:rdf="http://www.w3.org/1999/02/22-rdf-syntax-ns#"
	 xmlns="http://www.w3.org/2000/svg" xmlns:xlink="http://www.w3.org/1999/xlink" x="0px" y="0px" width="300px" height="163px"
	 viewBox="0 0 300 163" style="enable-background:new 0 0 300 163;" xml:space="preserve">
<style type="text/css">
	.st0{fill:#BFC0BF;}
	.st1{fill:#0085CA;}
</style>
<g transform="matrix(1.25 0 0 -1.25 -285.41 544.79)">
	<g transform="matrix(.25 0 0 .25 228.66 295.73)">
		<path d="M877.9,507.2c0.2,0.5,0.4,1,0.5,1.4c0.1,0.4,0.2,0.8,0.3,1.2c0,0,0,0,0,0.1c-1.4,4-4.2,4.3-10,3.8
			c-8.5-1.6-16.4-2.6-23-3.3l0,0c-0.4,0-0.7-0.1-1.1-0.1c-0.3,0-0.5,0-0.8-0.1c-1-0.1-1.9-0.2-2.9-0.3c-0.1,0-0.3,0-0.4,0
			c-8.5-0.7-13.9-0.7-13.9-0.7c21.8-16.5,24.3-42,24.3-42l1.1,0.9C868.9,480.3,877.9,507.2,877.9,507.2"/>
		<g>
			<path class="st0" d="M651.6,371.8c10.8-31.8-7.4-74.4-7.4-74.4c23.9,20.5,42.6,62.5,42.6,62.5c39.2,8,60.8,0,60.8,0
				c5.1-30.7-6.3-55.7-6.3-55.7c22.7,18.2,33,66.5,33,66.5s-9.1,8.5-49.4,11.4C684.6,384.8,651.6,371.8,651.6,371.8"/>
			<path class="st0" d="M681.1,250.1c0,0-11.8-33-24-45.2c0,0,15.7-8.6,43.1-6.1c27.4,2.5,34,12.7,36.5,22.8c2.5,10.1,0,24.4-4.6,35
				c0,0,2-26.9-16.7-40.6c0,0-20.2-4.2-33.4-0.2C681.9,215.9,687.1,226.7,681.1,250.1"/>
			<path class="st0" d="M616.5,506.4c0.3-0.1,0.6-0.1,0.8-0.2C617,506.3,616.7,506.3,616.5,506.4c-16.5,3.1-23.5-9.3-23.5-9.3
				c-5.2-7.7-3.2-11.5-3.2-11.5c51,0.9,78.4-7.3,78.4-7.3s-19,20.7-49.6,27.7L616.5,506.4"/>
			<path class="st0" d="M820.1,480.2c-6.7,6.3-21,14.3-36.7,11.2c-15.6-3.1-16.5-20.1-16.5-20.1
				C783.9,486.9,820.1,480.2,820.1,480.2"/>
		</g>
		<g>
			<path class="st1" d="M440.8,446.8c0,0,84,16.1,180-6.6c3.5,3.1,7.4,6.2,12,9.4C632.9,449.6,544.8,474,440.8,446.8"/>
			<path class="st1" d="M441.3,414c0,0,73.6,18.3,163.3,6c1.7,3.4,4,7,7.1,10.7C579.3,434.3,513.5,437.3,441.3,414"/>
			<path class="st1" d="M443.1,382.2c0,0,69.5,21.5,157.3,15.4c-0.4,3.1-0.5,6.9,0.3,11.1C565.6,409.7,506.4,406.5,443.1,382.2"/>
			<path class="st1" d="M238,163.2L238,163.2c0.1,0,0.2,0,0.5,0c1.5-0.1,6.4-0.6,6.7-0.6c0.7-0.1,9.1-0.9,9.2-1
				c12-1.3,24.1-3,36.3-5.1C318.1,257.2,395.5,311,395.5,311C290.8,260.4,246.8,177.9,238,163.2"/>
			<path class="st1" d="M731.8,302.7c-6.5,30.4,10.8,51.2,10.8,51.2c-39.4-34.5-15.5-69-3.6-95.8c11.9-26.8,7.1-46.5-4.8-60.1
				c-11.9-13.7-44.7-14.9-66.7-10.7c-22,4.2-33.4,27.4-39.3,54.8c-6,27.4,4.8,75.6,4.8,75.6c-16.1-24.4-16.1-74.4-3.6-115
				c12.5-40.5,45.3-50.6,69.1-50.6s66.7,20.2,60.1,68.5C751.9,268.7,738.3,272.3,731.8,302.7"/>
			<path class="st1" d="M475.6,278.1c-41.1,41.6-42.3,88.7-42.3,88.7s-14.1-54.9,19.4-96s115-45.6,115-45.6S516.7,236.5,475.6,278.1
				"/>
			<path class="st1" d="M683.4,458.1c48.3-18.8,47.7-47.7,47.7-47.7c7.4,27.8,41.5,42.6,41.5,42.6s-17.6,8.5-42,10.2
				C706.2,465,683.4,458.1,683.4,458.1"/>
			<path class="st1" d="M616.5,506.4c-29.1,5.8-57-5.9-58.4-6.5c0,0,0,0,0,0c0,0,0,0,0,0l0,0c26.8-0.5,35-2.8,35-2.8
				S599.9,509.5,616.5,506.4"/>
			<path class="st1" d="M711.1,128.4L711.1,128.4c-0.3-0.1-17.4-6.1-38.6-2.3c0,0,28-27.1,56.4-86.3c0,0,0-0.1,0-0.1l1.1,0.1
				c-2.8,27-14.3,72.2-16.9,80.5L711.1,128.4"/>
		</g>
		<path d="M741.4,304.1c0,0,11.4,25,6.3,55.7c0,0-21.6,8-60.8,0c0,0-18.8-42-42.6-62.5c0,0,18.2,42.6,7.4,74.4
			c0,0,33,13.1,73.3,10.2c40.3-2.8,49.4-11.4,49.4-11.4S764.1,322.3,741.4,304.1L741.4,304.1z M715.4,216.1
			c18.8,13.7,16.7,40.6,16.7,40.6c4.6-10.7,7.1-24.9,4.6-35c-2.5-10.1-9.1-20.3-36.5-22.8c-27.4-2.5-43.1,6.1-43.1,6.1
			c12.2,12.2,24,45.2,24,45.2c6.1-23.3,0.9-34.2,0.9-34.2C695.1,211.8,715.4,216.1,715.4,216.1L715.4,216.1z M758.5,220.5
			c6.6-48.2-36.3-68.5-60.1-68.5c-23.8,0-56.6,10.1-69.1,50.6c-12.5,40.5-12.5,90.5,3.6,115c0,0-10.7-48.2-4.8-75.6
			c6-27.4,17.3-50.6,39.3-54.8c22-4.2,54.8-3,66.7,10.7c11.9,13.7,16.7,33.3,4.8,60.1c-11.9,26.8-35.7,61.3,3.6,95.8
			c0,0-17.3-20.8-10.8-51.2C738.3,272.3,751.9,268.7,758.5,220.5L758.5,220.5z M604.6,419.9c-89.7,12.4-163.3-6-163.3-6
			c72.3,23.3,138,20.4,170.4,16.7C608.6,426.9,606.3,423.3,604.6,419.9L604.6,419.9z M600.4,397.6c-87.7,6.1-157.3-15.4-157.3-15.4
			c63.2,24.3,122.4,27.5,157.6,26.6C599.9,404.5,600,400.8,600.4,397.6L600.4,397.6z M452.7,270.8c-33.5,41.1-19.4,96-19.4,96
			s1.2-47.1,42.3-88.7c41.1-41.6,92.1-52.9,92.1-52.9S486.2,229.7,452.7,270.8L452.7,270.8z M632.9,449.6c-4.6-3.2-8.6-6.4-12-9.4
			c-96,22.7-180,6.6-180,6.6C544.8,474,632.9,449.6,632.9,449.6L632.9,449.6z M558,499.9C558,499.9,558,499.9,558,499.9
			C558,499.9,558,499.9,558,499.9c1.5,0.6,30.7,12.9,60.6,6.1c30.6-7,49.6-27.7,49.6-27.7s-27.5,8.2-78.4,7.3c0,0-2,3.7,3.2,11.5
			C593,497.1,584.8,499.4,558,499.9L558,499.9L558,499.9z M783.4,491.4c15.6,3.1,29.9-4.9,36.7-11.2c0,0-36.2,6.7-53.2-8.9
			C766.9,471.3,767.8,488.3,783.4,491.4L783.4,491.4z M834.9,412c-0.6,3.2-1.5,6-2.6,8.4c0,0-0.9,2.3-3.7,5.9c-2.3,3-5,5.3-7.4,7.6
			c-5.2,4.9-14.6,7.9-14.6,7.9s0,0,0,0c6.6-5,11.6-12.1,12.1-22.4c1.5-31.7-31.2-44.5-31.2-44.5c7.7,5.1,21.5,22.5,17.9,45
			c-3.6,22.5-32.7,33.2-32.7,33.2s-34.1-14.8-41.5-42.6c0,0,0.6,29-47.7,47.7c0,0,22.7,6.8,47.2,5.1c24.4-1.7,42-10.2,42-10.2
			s4.5,11.9,28.5,16c24,4.1,49.9-1.8,49.9-1.8c-4.8,8.7-10.3,21.5-34.4,31.3c-24.1,9.9-45.7,0.9-45.7,0.9s-1.6,11.6-19.1,23
			c-28.5,18.4-103.8,29.4-118.3,30.2c-14.5,0.8,10.9-8.6,21.1-14.4c11.6-6.6,24.5-17.8,25.6-28.4c0.3-2.9-0.4-5.4-1.7-7.4
			c-1,3-3.2,6.8-6.9,11.6c-20.6,26.5-73,38-112.2,35.3c-39.3-2.6-70.5-17.5-70.5-17.5c0.4-3.6-14.5-16.3-55.7-20.8
			c-39.2-4.3-66.9,2.9-76.9,4.3c-0.3,0.1-0.5,0.1-0.7,0.2c-4,0.5-7.1,0.3-8.3-2.6c-0.1-0.1-0.1-0.3-0.1-0.4c0-0.2-0.1-0.3-0.1-0.5
			c-0.2-2,1.1-4.8,1.1-4.8c-0.2,0.4-0.4,0.8-0.6,1.1c2.8-5.4,19.5-36.1,41.5-51.9c0,0,13.1,2.8,28.7,4.5c0,0-241-117.3-338.6-300.5
			c42.6,5,98.5,8.2,159.3,2.8c-0.2,0-0.3,0-0.4,0h0c8.8,14.7,52.8,97.2,157.5,147.8c0,0-77.4-53.8-104.9-154.5
			c35-5.9,70.8-15.2,105.8-28.8C508.9,83.8,603.8,38,710.7,38.9l18.2,0.8c0,0,0,0.1,0,0.1c-28.4,59.2-56.4,86.3-56.4,86.3
			c21.1-3.8,38.2,2.2,38.5,2.3c1.6,0.6,3,1.2,4.1,1.7c35,18.9,40.8,50.8,43.7,73.6c3.3,26.4-1.4,43.4-1.4,43.4s60.5,79.5,75.9,142
			C833.4,389.1,836.9,400.5,834.9,412"/>
		<path class="st1" d="M956,371.9c-35.4,19.3-75.5,25.3-106.3,26.5c0,0-0.1,0-0.2,0c0.1,0,0.2,0,0.2,0c1.2,3.9,2.6,8.9,3.9,14.2
			c0.7,0,1.2,0.1,1.2,0.1c61.7,2,94.3-14.3,94.3-14.3l-3.1,2.4c-30.1,13.9-61.8,19-89.3,19.8l-1.1,0c1,4.3,2.2,13,2.4,12.9l0.6,0
			c47.5-0.5,73.4-11.7,73.4-11.7l-3.1,2.4c-23.6,10-47.6,14.6-70.2,16.1c0.1,8.8-1.3,16-4.7,22.3c17.4,15.1,23.8,38.1,24.8,47.2
			c0,0,0,0,0,0v0c0.1,0.3,0.2,1.1,0.2,1.3c0,0.2,0,0.4,0.1,0.5c0,0.3,0.1,0.6,0.1,0.9c0,0.2,0,0.3,0,0.5c0,0.3,0,0.5-0.1,0.8
			c0,0.1,0,0.3-0.1,0.4c-0.1,0.2-0.1,0.5-0.2,0.7c0,0.1-0.1,0.2-0.1,0.3c-0.1,0.2-0.2,0.4-0.3,0.6c-0.1,0.1-0.1,0.2-0.2,0.3
			c-0.1,0.2-0.2,0.3-0.4,0.5c-0.1,0.1-0.1,0.2-0.2,0.2c-0.1,0.2-0.3,0.3-0.4,0.4c-0.1,0.1-0.1,0.1-0.2,0.2c-0.2,0.1-0.3,0.2-0.5,0.4
			c-0.1,0.1-0.2,0.1-0.2,0.2c-0.2,0.1-0.3,0.2-0.5,0.3c-0.1,0-0.2,0.1-0.2,0.1c-0.2,0.1-0.3,0.2-0.5,0.2c-0.1,0-0.1,0.1-0.2,0.1
			c-0.2,0.1-0.3,0.1-0.5,0.2c-0.1,0-0.1,0-0.2,0.1c-0.2,0.1-0.3,0.1-0.5,0.1c0,0-0.1,0-0.2,0c-0.2,0-0.3,0.1-0.4,0.1
			c0,0-0.1,0-0.1,0c-0.1,0-0.2,0-0.3,0.1c0,0-0.1,0-0.1,0c-0.2,0-0.4,0-0.4,0c-30-0.3-54.8,9.9-54.8,9.9c-0.7,0.2-1.3,0.5-2,0.7
			c-66.9,24.5-136.3,31.5-198,30.3l0,0.1c-27.6-0.2-47.7-2.5-47.7-2.5c-88.7-7.5-152.3-28.7-152.3-28.7s-24.1-6.8-56.3-5.2
			c0,0-11.9,0.2-14.3-7.4c-2-4.8-2.3-10.6,2.3-23.2c5.2-14.5,26.2-41.9,26.4-42.1C311.9,425.5,146.7,332.8-1.3,146.4
			c0,0,31.3,8.1,80.5,13.9v0c97.6,183.3,338.6,300.5,338.6,300.5c-15.6-1.7-28.7-4.5-28.7-4.5c-22,15.8-38.7,46.5-41.5,51.9
			c0.2-0.3,0.3-0.7,0.6-1.1c0,0-1.2,2.8-1.1,4.8c0,0.2,0,0.4,0.1,0.5c0,0.1,0.1,0.3,0.1,0.4c1.3,2.9,4.3,3.1,8.3,2.6
			c0.2,0,0.5-0.1,0.7-0.2c10-1.5,37.7-8.6,76.9-4.3c41.2,4.5,56.1,17.2,55.7,20.8c0,0,31.2,14.9,70.5,17.5
			c39.3,2.6,91.6-8.8,112.2-35.3c3.8-4.8,5.9-8.6,6.9-11.6c1.3,2.1,2,4.6,1.7,7.4c-1.1,10.6-14.1,21.8-25.6,28.4
			c-10.2,5.8-35.6,15.2-21.1,14.4c14.5-0.8,89.8-11.7,118.3-30.2c17.5-11.3,19.1-23,19.1-23s21.6,8.9,45.7-0.9
			c24.1-9.9,29.6-22.6,34.4-31.3c0,0-2.5,25.5-24.3,42c0,0,5.4,0,13.9,0.7c0.1,0,0.3,0,0.4,0c0.9,0.1,1.9,0.2,2.9,0.3
			c0.3,0,0.5,0,0.8,0.1c0.4,0,0.7,0.1,1.1,0.1l0,0c6.6,0.7,14.5,1.7,23,3.3c5.8,0.5,8.6,0.2,10-3.8c0,0,0,0,0-0.1
			c-0.1-0.4-0.2-0.8-0.3-1.2c-0.1-0.5-0.3-0.9-0.5-1.4c0,0-9-26.9-25.7-39.1l-1.1-0.9c0,0-25.9,5.9-49.9,1.8
			c-24-4.1-28.5-16-28.5-16s29.1-10.7,32.7-33.2c3.6-22.5-10.2-39.9-17.9-45c0,0,32.7,12.8,31.2,44.5c-0.5,10.3-5.5,17.4-12.1,22.4
			c0,0,0,0,0,0s9.4-2.9,14.6-7.9c2.4-2.3,5-4.6,7.4-7.6c2.7-3.6,3.7-5.9,3.7-5.9c1.1-2.4,2-5.2,2.6-8.4c2-11.6-1.5-22.9-1.5-22.9
			c-15.4-62.5-75.9-142-75.9-142c0,0,0,0,0,0c45.8,39,76.3,108.1,89.6,142.9c72.2-0.8,111.6-20.9,111.6-20.9L956,371.9"/>
	</g>
</g>
</svg>
