<?xml version="1.0" encoding="utf-8"?>
<!-- Generator: Adobe Illustrator 21.1.0, SVG Export Plug-In . SVG Version: 6.00 Build 0)  -->
<!DOCTYPE svg PUBLIC "-//W3C//DTD SVG 1.1//EN" "http://www.w3.org/Graphics/SVG/1.1/DTD/svg11.dtd">
<svg version="1.1"
	 id="Layer_1" xmlns:cc="http://creativecommons.org/ns#" xmlns:dc="http://purl.org/dc/elements/1.1/" xmlns:rdf="http://www.w3.org/1999/02/22-rdf-syntax-ns#"
	 xmlns="http://www.w3.org/2000/svg" xmlns:xlink="http://www.w3.org/1999/xlink" x="0px" y="0px" width="300px" height="231.6px"
	 viewBox="0 0 300 231.6" style="enable-background:new 0 0 300 231.6;" xml:space="preserve">
<style type="text/css">
	.st0{clip-path:url(#SVGID_2_);}
	.st1{fill:#FFFFFF;}
	.st2{fill:#FF3C00;}
	.st3{clip-path:url(#SVGID_4_);}
	.st4{fill:#2B1D14;}
	.st5{clip-path:url(#SVGID_6_);}
	.st6{fill:#311D00;}
</style>
<g>
	<g>
		<g>
			<defs>
				<rect id="SVGID_1_" x="0" y="0" width="300" height="231.6"/>
			</defs>
			<clipPath id="SVGID_2_">
				<use xlink:href="#SVGID_1_"  style="overflow:visible;"/>
			</clipPath>
			<g class="st0">
				<path class="st1" d="M291.5,219.8l-0.1,0.1c0.1-0.1,0.2-0.2,0.4-0.3L291.5,219.8L291.5,219.8z M171.5,206.1
					c0,0-7.8,1.1-14.1-0.2c-15.7,24-58.5,22.4-84.1,2.1c-0.5-0.4-1-0.7-1.5-1.1c-1.8,1.4-9.4,6.7-24.1,9
					c-12.3,2.4-17.4-5.6-15.9-11.1c-3.6-8-4.7-10.8-5.9-15.3c-0.7-3.2-0.3-5.6,0-6.9c-3.6-7-7.5-15.7-10.6-25.6
					C-29,15.3,155.5-43.7,215.5,63c1.2,0.1,1.9,0.4,2.2,1.1l1.6-0.7l7.2,16.3c-0.9-0.2-3.4-0.4-4-0.4c0,0,0,0.1,0,0.1
					c-0.4,0-0.8-0.1-1.2-0.1l-0.6,0c-1.6-4.8-3.6-11-5-14.6c-0.8-0.2-2.2-0.2-2.6-0.2c0,0,0,0.1,0.1,0.1c1.1,2,4.4,12.3,5.6,15.2
					c1.5,3.9,1.4,6.1,1.4,6.1l-7.2-0.1c-0.1-2.1-2.1-6-2.1-6l-2.7-5.4l-0.7-1.5l-2.8-5.9l0,0c-0.3-0.7-0.8-2.1-0.9-3.2
					c-0.5-3.8,3.2-3.8,3.3-3.8c1.9,0,3.5,0.7,5.1,2.9c0.3,0,0.7,0,1,0c-2.2-4.5-3.5-5.8-5-8.3C180.5,14.9,134.1,3,93.3,13.1
					c51.6-7.6,91,14.7,110.7,47.9c-1.6,0.8-4.4,2.2-5.7,2.9c-0.6,0-2.7-0.1-3.4,0c-1.2,0.1-2.4,0.2-1.5,3.1c0.6,2.2,0.9,2.7,1.3,4
					c0.6,1.6,2.5,6.4,3.8,10.6c-0.5,0.1-1,0.2-1.4,0.3c-0.2-0.7-0.5-1.5-0.8-2.3c-1.6-4.1-3.5-9.4-4.1-11.2
					c-0.3-0.9-0.7-2.7-0.2-4.2c0,0-2,1.5-0.2,5.7l4.4,12.2c-0.6,0.1-1.2,0.2-1.8,0.4c-13.4,2.7-26.5,6.2-33.9,9.3c0,0-5.5,2-9.4,5.2
					c-0.1,0.1-0.2,0.2-0.2,0.3c-1.1,0.3-2.2,1.1-2.9,2.1c-0.6,0.4-1.8,1.5-2.4,2.1c-1.5,1.8-2.9,3.4-4.6,5.8
					c-1.5,2.3-6.9,10.9-11.8,18.7c-0.4,0.2-0.8,0.4-1.2,0.7c-1.3,1-2.1,2.7-1.8,4.5c-3.9,6.3-6.2,10.1-7.2,11.6
					c-2.2,0.2-3.3,1.9-3.4,2.1c-0.9,1.9-5.1,8.7-5.8,9.4c-0.4,0.4-1.4,2.2-1,4.3l-0.4,0.7c0,0-9.1,13.5-9,13.5
					c-0.8,1.1-0.9,2.3-0.4,3.5c0.7,1.6,2.6,2.8,4.5,2.9c1,0.1,2-0.2,2.7-0.7c3.7,0.6,29.1,4.8,48.2,8c0.8,0.1,1.6,0.3,2.4,0.4
					c1.3,0.2,2.6,0.4,3.8,0.6c1.1,0.2,2.1,0.3,3.1,0.5c-0.5,5.6-1.9,10.4-4,14.6l0.8,0.1c13.3,1.1,22.8-1.3,29.4-5.8
					c0.6,1.1,1.2,2.1,1.8,3.1c-5.1,3.4-11.7,5.6-19.8,6.1L171.5,206.1z M225.1,91.5c0.2,2.7,0,6-1.3,8.5c-1.6,2.9-3.8,4.8-8,5.6
					c-0.1,0-0.3,0-0.6,0.1v0c-0.2,0-0.3,0-0.4,0.1c-0.3,0-0.6,0-0.9,0.1c4.2,10,18.2,43.1,18.2,43.1c-2.7,0.5-5.6,0.7-5.6,0.7
					l-17.6-41.3c-0.4,0.4-0.7,0.8-0.9,1.1c-0.2,0.2-0.3,0.4-0.5,0.6c-2.7,3.4-4.4,7.8-5.3,12.5c-0.1,0.3-0.2,0.8-0.3,1.4
					c8.3,12.8,19.5,17.6,19.5,17.6l2.8,6.8c-11.1-3.2-20.4-13.3-23-16.3c0,0.3,0,0.6,0,0.8c0,5.6,0.6,10.9,1.6,14.7
					c0.5,1.7,1,3.3,1.4,5c-1.3,0.1-2.5,0.3-3.8,0.4c-0.9-3.3-1.9-6.5-3.1-9.3c-6.3-14.9-23.4-8.1-22.2,0.9l-14.5-32
					c1.5-1.7,4.6-4.8,9.6-8c-3.5,1.5-6.2,4-6.2,4c-1.4,1.1-2.6,2.1-3.7,3.3c-0.3-0.7-0.6-1.3-0.9-1.9c-1-2.2-1.9-4.2-2.7-5.9
					c2.6-1.6,5.2-3.3,8.5-4.5c9.5-3.9,20.5-6.5,31-8.7c0.6-0.1,1.2-0.2,1.8-0.4c0.3,5.3-2.3,7.2-6.9,8.2c-3,0.6-5.4,0.7-6.6,1.1
					l2.8,0.1c0.1,0,3.3,0,7.6-1.5c2.9-1.1,5-3,4.1-8.2c0.5-0.1,1-0.2,1.5-0.3c0.8,4.9,0.1,9.6-9.4,10.6c1.6,1.1,16.4-1.6,25.3,0.4
					c0.2,0.1,3.9,1.4-0.3,3.3c8.3-1.8,8.7-10.1,7.1-16.2l0.3,0c1.5,0.1,2.9,0.3,3.9,0.5c0,0,0,0,0,0c0.8,0.1,1.8,0.2,2.7,0.3
					c6.1,0.6,5.6-6.7,2.4-7.6c-2.5-0.7-3.1-0.7-3.7-0.8l-0.9-0.1l-7.7-17.1l4.3-2l11,19.8c5.1,8.1-3.4,11.5-8,9
					c-1.1,0.5-1.6,1.1-2.1,1.7L225.1,91.5z M245.7,146.6c-3.7,0.9-12.2,1.9-12.2,1.9l-1.8-4c9,1.2,15.6,0.5,15.6,0.5
					C245.8,145.1,245.7,146.6,245.7,146.6L245.7,146.6z M253.7,145.4c-1-0.8-1.9-0.9-2.2-0.9c0,0,0,0-0.1,0c0,0,0,0,0.1,0
					c2.7,0.2,10.9-0.6,10.9-0.6C260.9,144.5,253.7,145.4,253.7,145.4L253.7,145.4z M272,146.2c0.1,0.5-0.2,2.2-2,2.5l-0.7,0.1
					c-1.7,0.5-5.1,1.3-8.4,2c-2.1,0.4-4,0.8-3.8,0.7c-0.4-1-0.8-2-2-4.5c3.7-0.6,8.5-1.6,11.8-2.6c1-0.3,3-0.6,3-0.6
					C271.2,144.1,271.8,145,272,146.2L272,146.2z M289.2,207.2c0-1.2-1.9-3.5-5.2-4.2c0,0,0.1-1.3,0-2.8c-0.8-8.4-3.8-23.6-3.8-23.6
					c4.7-1.5,4.2-11-3.7-11c-1.9-8.6-4.7-15.5-4.7-15.5c4.3-2.4,2.3-6.3-0.1-7.1c0,0,4.3-0.9,6.3,6.5
					C285.2,169.8,290.8,197.6,289.2,207.2L289.2,207.2z M279.2,175.1c0,0-2.4,1.2-13.2,3.1c0,0-0.9-3.4-1.3-5.1
					c0,0,9.2-1.9,12.8-3.3c0,0-0.1-1.2-1.8-1.2c0,0-9.3,2.4-11.5,2.6l-0.5-1.4c0,0,8-1.5,10.7-2.2c0,0,5.7-1.9,6.9,2.4
					C281.2,170,282.4,173.8,279.2,175.1L279.2,175.1z M281.8,213.1c-2.9,0.8-12.3,3.3-12.3,3.3c0.5-2.3,0.4-5.9,0.4-5.9
					c18.2-3.9,0.9-5.6,0.9-5.6c4,1.2,3.9,2.7,3.9,2.7c-1.7,0.1-4.8-0.8-4.8-0.8c0.1-1.1-0.2-5.8-0.2-5.8c4.7,2.1,5.5,1.5,10.4,2.6
					c5,1.1,2.6,3.2,2.6,3.2c-2.6,3.2-12,4.5-12,4.5c15.8-2.1,14.4-6.3,14.4-6.3C291.4,209.2,285.1,212.2,281.8,213.1L281.8,213.1z
					 M155.4,121.1l14.8,32.6c-6.8-0.8-11.3-2.8-16-6C152.5,138.7,152,129.7,155.4,121.1L155.4,121.1z M153.5,117l1,2.2
					c-4.5,8.4-4.4,17.8-2.7,26.7c-0.1-0.1-0.3-0.2-0.4-0.3c-0.5-0.5-1.1-1.1-1.7-1.6c-4-3.9-9.3-9.3-13-13.1
					c5.1-8.2,9.9-16,9.9-15.9c1.3-2.1,2.7-4.2,3.5-5.4L153.5,117L153.5,117z M151.9,98.4c0.7,0,1.3,0.2,1.3,0.3l25,55.6
					c0,0-3.5,0.2-6.1-0.4c-10.7-23.3-23.2-50.7-23.2-50.7c-0.5-0.9-0.5-1.8,0-2.7c0.7-1.2,2.1-1.9,3-1.8L151.9,98.4z M210.4,90.7
					c0,0,1.9-1.3,2-2.6c0,0,4.3,0,6.5,0C218.9,88.1,217.2,91.2,210.4,90.7L210.4,90.7z M231.6,82.2L231.6,82.2l0.1,0
					c1.1,0.2,1.7,1.5,1.6,2.7c-0.1,0.6-0.4,2-2.6,2c-1.9-0.4-6.9-0.9-9.5-1.1c0-2.2-1.3-5.3-1.3-5.3
					C222.8,80.8,230.1,81.6,231.6,82.2L231.6,82.2z M200.5,63.6l1.8-1c0,0,0.2-0.1,0.1-0.1c-0.1,0.2-0.1,0.7-0.1,0.7
					c0,0.6,0,1,0.7,2.9c1.1,2.9,6.8,14.7,7.4,16.4c3.3,8.5-5.2,10.1-6.1,6.3c9-0.7,5.4-10.1,0.2-8.8c-2-4.8-3.5-9.6-3.5-9.6
					S199.1,65.2,200.5,63.6L200.5,63.6z M199,64.3c-0.8,2.5,0.7,6.2,0.7,6.2l3.5,9.8l-1.8,0.3c0,0-2.3-6.3-3.7-10.7
					c-1.1-3.3-0.3-4.9-0.3-4.9L199,64.3L199,64.3z M204.9,81.9c1.7-0.2,3.2,1,3.4,2.2c0.2,1.1-0.4,2.4-2.5,2.7l-1,0.2
					c-13.1,2.6-27.8,5.6-40.2,10.6c-3.9,1.4-6,2.6-8.2,4.2c0,0-1.2-2.6-1.6-3.4c-0.7-1.2-0.8-1.3-1.4-1.7c1.8-1.2,4.1-2.3,7.2-3.6
					C169.7,89.4,188.6,84.5,204.9,81.9L204.9,81.9z M146.9,101.1c0,0-0.1,1.4,0.6,2.8c0.6,1.2,1.8,4.1,1.8,4.1
					c0.2-0.2-2.6,3.3-4.2,5.8l-9.5,15.6l-2.6-2.8c0,0-1.1-1.3-2.1-1.3c5-8.1,9.5-15.3,11.1-17.6C143.5,105,147.4,100.4,146.9,101.1
					L146.9,101.1z M190.7,182.2c0,0-2.3,0.4-6.2,0.1c-1.8-3.5-3.9-8.3-9.1-19.7c3.5,0.4,6.2,0,6.2,0L190.7,182.2L190.7,182.2z
					 M206,164.1c0,0.3,0,0.6,0,0.9l26.9,4.6c0.5,1.5,2.4,5.9,2.4,5.9l-29.3-5c0,0.3,0,0.6,0,0.9c-0.2,3.4-0.7,6.6-1.5,9.6
					c-1.3,0.1-2.6,0.3-3.9,0.4c1.9-6.3,2.1-13.4,1.3-20.2c1.2-0.1,2.5-0.3,3.7-0.4C205.8,161.9,205.9,163,206,164.1L206,164.1z
					 M244.5,175.2l-2.1-4.7c6.9,0.1,11.9,0,11.9,0c0.8,3-2,3.2-2,3.2l-7.4,1.5L244.5,175.2z M243.2,175.6c-0.9,0.4-5.4,1.1-5.4,1.1
					c-1.1-2.1-7.9-18.8-7.9-18.8c0.8-0.1,5.4-0.9,5.4-0.9C238.7,166.7,243.2,175.6,243.2,175.6L243.2,175.6z M115.3,164.6
					c5.3,3.2,12.9,7.9,12.9,7.9c5.2,3.3,9.2-1.5,10.5-3.1c1-1.3,4-5.4,3.9-8.9c-0.1-3.4-2.7-5.2-5-6.7l-10.8-7.1
					c1-1.6,2.6-4.2,5.1-8.2c4.9,4.9,10.5,10.2,10.5,10.2c3.3,3.6,6.7,6.2,10.1,8.2c0.8,0.5,1.6,0.9,2.4,1.3
					c2.2,6.6,4.5,12.4,5.5,16.7c-0.8-5-2.3-10.4-3.8-15.9c5.8,2.5,11.4,3.3,16.6,3.5c0.2,0,0.5,0,0.7,0l0.3,0.8
					c-2,5.5-5.9,11.3-10.8,14.9c0,0.3,0,0.6,0,0.9c-1.4-0.2-2.9-0.5-4.5-0.7c-1.1-0.2-2.3-0.4-3.5-0.6c-0.6-0.1-1.1-0.2-1.7-0.3
					c-17.5-2.8-38.7-6.1-42.6-6.8L115.3,164.6L115.3,164.6z M117.3,150.3c4,2.5,12.5,7.6,14.9,9c2.6,1.5,3.1,2.2,3.1,2.2
					c3,2.9,2.5,5.8,1,7.8c-1.7,2.3-4.9,3.7-7.6,1.9l-3.6-2.3l0,0l-1.3-0.8l-11.3-6.9l0,0l0,0c0,0-1.9-0.9-2.4-2.6
					c-0.3-1.2,0.1-2.5,1.1-4c2.4-3.4,3.6-5.3,4.1-6.2C115.8,149.4,117.4,150.3,117.3,150.3L117.3,150.3z M124.1,149.8l12.1,8.1
					c1.8,1.3,3.6,3.5,2.5,6.5c-0.2-2.8-3.7-5.1-3.7-5.1s-13-7.7-17-10.1c-2.3-1.4-2-3.4-0.9-4.4
					C117.1,147.9,121.8,150.4,124.1,149.8L124.1,149.8z M136.9,156.8c-2.4-1.6-11.6-7.7-11.6-7.7l1-0.9c4.2,2.7,9.6,6.3,12,8.1
					c4.2,3.2,2,7.1,2,7.1C140.7,161,139.6,158.7,136.9,156.8L136.9,156.8z M126.3,132.8c1.6,2.3,4.3,4.6,4.3,4.6l-6.6,10.5
					c-0.9,0.7-2.8,0-3.9-1.1c-0.3-0.3-1.5-1.6-0.8-2.5l0,0l0-0.1C119.5,144,120.9,141.7,126.3,132.8L126.3,132.8z M103.3,177.2
					c-1.3-0.1-2.7-0.9-3.2-2c-0.3-0.6-0.2-1.2,0.2-1.9l8.6-13.2c0.5,1,4.9,3.6,4.9,3.6c-1.8,2.7-8.3,12.3-8.3,12.3
					C104.9,177.1,103.9,177.3,103.3,177.2L103.3,177.2z M198.7,194c-0.4-0.7-0.8-1.4-1.2-2.2l-0.6-1.2c1-0.1,1.5-0.2,1.5-0.2
					c1-0.1,2.1-0.2,3.1-0.3C200.6,191.5,199.7,192.8,198.7,194L198.7,194z M242.4,184.8c1.1-0.2,5.8-1.2,5.8-1.2
					c4.9,7.4,12.8,12.7,12.8,12.7c0.2,1.9,0.4,6.6,0.4,6.6C248.9,196.8,242.4,184.8,242.4,184.8L242.4,184.8z M261,218
					c-13.3,3.4-27.5,3.6-39.5,0.4c-10.9-2.9-23.8-9.2-30.9-25c0,0-0.9-1.7-1.1-2.5c0,0,3.7,0.1,6-0.1c11.1,23.8,39.7,28.2,64.4,21.9
					c0,0,2.2-0.4,2.9-1.1c0.5-1.2,0.5-4.2,0.5-4.2c0-0.7-0.6-15.3-3.3-25.1c-0.2-1-0.6-1.7-0.8-1.9c0,0-0.7-0.3-1.3-0.3
					c-1.3,0-3,0.3-3,0.3c-15.1,3.6-38.5,6.6-57,8.5c0,0-1.5,0.2-3.9,0.3l-2,0.1c-3.5,0-8.5-0.2-14.7-1.2c0,0-68.9-11.2-68.4-11.2
					l3.7-5.1l66.4,10.9c10.1,1.5,14.8,0.8,15,0.8c17.9-1,50.7-5.9,59-8c0,0,4.3-1,4.9-1.6c0.4-0.4-0.5-3.6-0.5-3.6
					c0-0.1-3.3-10.7-4.9-14.8l0,0.1c0-0.2-0.7-2.4-1.5-2.8l-0.5,0c0,0-1,0.2-2.1,0.4c-15.6,2.8-44,6.8-60.5,7.8
					c1.4-0.1-6.8,0.3-13.1-0.2c-9.1-0.5-19.2-2.8-29.2-13.7c-0.1-0.1-11.2-10.7-15.7-15.6c-1.1-1.6-0.5-3.3,0.6-4.2
					c0.8-0.7,2.5-1,3.4,0.1c2,2.6,13.2,14.2,18.7,19.4c6.1,4.8,10.6,7.3,19.1,8.3c4.6,0.6,10.1,0.5,10.4,0.5
					c11.3,0.3,52.6-4.8,64.4-7.1c1.5-0.2,2.5-0.6,2.5-0.6l0-0.2l0.1-0.5c0-0.2,0.7-0.7,1.3-1c1.1-0.5,2.6-0.5,3.8,0.5
					c8.7,15.9,17.2,45.5,15.2,67.9c-0.1,1.2-0.6,2.1-1.5,2.6c0,0-2,0.9-4-0.1c0,0,0.1,0.2-2.1,0.9L261,218z M300.5,202.4l0-0.3
					c-1.3-18.2-5.4-36.7-12.5-56.6l-0.1-0.2l-0.1-0.2l-0.8-2l0.1,0.2c-2.9-7.6-9-10.9-18.1-9.8c0,0-4.2,0.5-4.1,0.4l-1.7,0.1
					c-6.9,0.6-17,1.5-25.8,0.7l-11-25.9c2.3-1.5,4.2-3.2,5.4-5.4c1-1.8,1.6-3.6,2-5.5c3.4-0.5,6.5-2,8.8-4.4
					c3.3-3.6,5.2-10.2,0.5-17.7l0.2,0.4L228.8,50l-8.7,3.7C184.7-1.9,118.3-10.7,69.6,10.4c-44.5,19.2-87.5,69.8-62.5,149
					c2.6,8.4,6,16.6,10,24.5c-0.2,2.5-0.1,4.9,0.5,7.4l0,0.1l0,0.1c1.3,4.8,2.4,8,5.4,14.6c-0.2,4.3,1.4,8.8,4.6,12.1
					c4.9,5.3,12.6,7.3,21.2,5.7l-0.4,0.1c11.4-1.6,18.8-5,22.7-7.2c17.1,12,39.4,17.3,59.5,14c12.9-2.1,23.4-7.7,30.6-16.3
					c5.5,0.4,10.5-0.2,11.5-0.3c6.1-0.4,11.7-1.7,16.6-3.8c7.3,8.6,17.3,14.7,29.2,17.9c13.9,3.7,29.7,3.4,44.7-0.6
					c2.9,0.3,5.8-0.5,7.8-1.5c15.7-3.6,19.3-5.1,21.6-7.1c0,0,0.1,0,0.1-0.1c5.6-3.8,7.4-11.1,7.2-16.4"/>
			</g>
		</g>
	</g>
	<g>
		<path class="st2" d="M143,216.4c4.9-2.6,9.1-6.1,12.3-10.9c0,0,0,0,0,0c1.5-2.1,2.5-4.2,3.3-6.3C155.4,207,149.9,212.7,143,216.4"
			/>
		<path class="st2" d="M136.6,130.8c3.6,3.8,9,9.3,13,13.1c-0.9-5.8-1.1-11.7,0.1-17.2c0.8-3.7,2.2-6.9,3.8-9.7l-3.4-7.5
			c-0.8,1.2-2.2,3.3-3.5,5.4C146.6,114.8,141.7,122.6,136.6,130.8"/>
		<path class="st2" d="M149.4,159.3c2.3,5.1,4.8,11.5,6.1,18.5c1.2,0.2,2.4,0.4,3.5,0.6c-0.4-1.8-0.8-3.4-1.1-4.8
			c-0.6-2.9-3.2-9.1-5.5-16.6c-3.4-2-6.8-4.6-10.1-8.2c-0.1-0.1-5.7-5.4-10.5-10.2c-2.5,4-4.1,6.6-5.1,8.2l10.8,7.1
			c2.3,1.5,4.9,3.4,5,6.7c0.1,3.5-2.9,7.6-3.9,8.9c-1.3,1.7-5.3,6.4-10.5,3.1c0,0-7.6-4.7-12.9-7.9l-4.1,6.1
			c3.9,0.6,25.2,4,42.6,6.8c-0.9-6.7-3.1-12.9-4.5-18.2"/>
	</g>
	<g>
		<g>
			<defs>
				<rect id="SVGID_3_" x="0" y="0" width="300" height="231.6"/>
			</defs>
			<clipPath id="SVGID_4_">
				<use xlink:href="#SVGID_3_"  style="overflow:visible;"/>
			</clipPath>
			<g class="st3">
				<path class="st2" d="M167.1,103.8c6.2-3.4,10-5.2,19.9-6.4c0,0,2.5-0.3,2.5-0.3c1.7-0.3,4.9-0.9,5.8-2.6
					c0.5-0.9,0.7-2.2,0.7-3.7c-10.5,2.2-21.5,4.8-31,8.7c-3.3,1.2-5.9,2.9-8.5,4.5c0.8,1.7,1.7,3.6,2.7,5.9c2.5-2.4,5-4.1,6.8-5.3
					C166.3,104.3,167.1,103.8,167.1,103.8"/>
				<path class="st2" d="M95.3,174.1c-1.1,0.4-2.4,0.6-3.6,0.6c-3.5,0-6.9-1.6-9.5-4.3c-5.1-5.3-5.4-13.4-0.7-18.1
					c2.1-2.1,4.9-3.3,8-3.3c3.5,0,6.9,1.6,9.5,4.3c2.6,2.7,3.9,6.2,4,9.6L95.3,174.1L95.3,174.1z M112.5,186
					c-9.5,10.1-28.4,10-39.1-3.7C91.6,199.1,108.5,188,112.5,186z M84.6,201.3c-0.8,0.7-1.9,0.9-3.1,0.8c-1.3,0.8-3.3,0.4-4.7-1.1
					c-1.3-1.4-1.7-3.2-1.1-4.5c-0.3-2,0.3-4,1.8-5c2.1-1.5,5.4-0.6,7.3,2.1C86.7,196.3,86.6,199.6,84.6,201.3L84.6,201.3z
					 M129.2,183.3c3.1,0,5.7,2.6,5.7,5.7c0,2.3-1.4,4.3-3.4,5.2c-0.7,0.7-1.6,1.2-2.7,1.2c-1.5,0-2.7-0.9-3.3-2.2
					c-1.2-1-1.9-2.5-1.9-4.2C123.6,185.9,126.1,183.4,129.2,183.3L129.2,183.3z M189.7,63.8c0.3-0.5,0.7-0.8,1.2-1.1
					C174.7,35.2,135.8,6.7,84.7,15.1C35.8,30.8-2.4,79,14.4,146.9c7.1,25.9,15.4,39.6,24.5,52.6c0,0-0.4,6.2,10.4,3
					c9.8-3,15.7-3.2,25.9,4.4c17.8,13.2,48.3,19.2,67.9,9c6.8-3.7,12.4-9.3,15.6-17.3c1.4-3.9,1.8-7.9,1.6-11.6
					c-1.2-0.2-2.5-0.4-3.8-0.6c-0.8,16.1-16.8,31.6-45.4,29.9c-11.9-0.4-24.6-6.2-32.2-10.4c-3.5-2.3-13.3-7.9-18-8.9
					c4.1,0.2,14.4,5.6,18.6,8.1c8.8,4.5,21.1,8.9,31.6,9.3c19.1,1.8,40.7-8,43-28.4c-19.1-3.2-44.5-7.4-48.2-8
					c-0.7,0.5-1.7,0.8-2.7,0.7c-1.9-0.1-3.8-1.3-4.5-2.9c-0.6-1.2-0.4-2.4,0.4-3.5c0,0,9-13.5,9-13.5l0.4-0.7
					c-0.4-2.1,0.6-3.9,1-4.3c0.7-0.7,4.9-7.5,5.8-9.4c0.1-0.2,1.2-1.9,3.4-2.1c1-1.5,3.3-5.2,7.2-11.6c-0.3-1.8,0.5-3.5,1.8-4.5
					c0.4-0.3,0.8-0.5,1.2-0.7c4.8-7.9,10.3-16.4,11.8-18.7c1.7-2.4,3.1-4,4.6-5.8c0.6-0.6,1.8-1.7,2.4-2.1c0.7-1,1.8-1.7,2.9-2.1
					c0-0.1,0.1-0.2,0.2-0.3c3.9-3.2,9.4-5.2,9.4-5.2c7.4-3.1,20.5-6.6,33.9-9.3c-0.9-2.7-3.9-11.3-3.9-11.3
					c-0.1-0.4-2.2-4.6-0.6-7.1"/>
			</g>
		</g>
	</g>
	<g>
		<g>
			<path class="st4" d="M153.8,177.5c0.6,0.1,1.1,0.2,1.7,0.3c-1.4-7-3.8-13.5-6.1-18.5C150.7,164.6,152.9,170.8,153.8,177.5"/>
			<path class="st4" d="M111,214.9c-10.5-0.4-22.8-4.8-31.6-9.3c-4.3-2.5-14.6-7.9-18.6-8.1c4.7,1,14.6,6.5,18,8.9
				c7.6,4.1,20.3,9.9,32.2,10.4c28.6,1.8,44.6-13.7,45.4-29.9c-0.8-0.1-1.6-0.3-2.4-0.4c-2.5,20.2-24.1,30-43.3,28.5"/>
			<path class="st4" d="M89.4,149c-3.1,0-5.9,1.1-8,3.3c-4.6,4.7-4.3,12.9,0.7,18.1c2.6,2.7,6,4.3,9.5,4.3c1.3,0,2.5-0.2,3.6-0.6
				l7.6-11.3c-0.1-3.4-1.4-6.9-4-9.6C96.4,150.6,92.9,149,89.4,149"/>
			<path class="st4" d="M73.7,182c10.7,13.7,29.6,13.8,39.1,3.7C108.7,187.7,91.8,198.8,73.7,182"/>
			<path class="st4" d="M129.2,184.4c3.7,0,6.2,4.7,3.2,7.9c1.3-2.9,0.2-6.5-3.3-6.7c-3.7-0.1-4.9,3.5-4.2,5.5
				C123.7,189.9,124.1,184.4,129.2,184.4L129.2,184.4z M131.1,188.5c-0.8-0.9-2.8-1.3-4-0.5c-0.5,0.3-1.1-0.1-0.4-0.8
				c1.3-1.1,3.7-1.1,4.8,0.6C132.1,188.6,131.5,189.2,131.1,188.5z M128.6,194.8c-1.7,0-3.1-1.4-3.1-3.1c0-1.7,1.4-3.1,3.1-3.1
				c1.7,0,3.1,1.4,3.1,3.1C131.7,193.4,130.3,194.8,128.6,194.8z M125.3,193.3c0.6,1.3,1.9,2.2,3.3,2.2c1.1,0,2-0.4,2.7-1.2
				c2-0.9,3.4-2.9,3.4-5.2c0-3.1-2.5-5.7-5.7-5.7c-3.1,0-5.7,2.5-5.7,5.7C123.4,190.7,124.1,192.2,125.3,193.3"/>
		</g>
		<g>
			<path class="st1" d="M126.8,186.9c-0.7,0.7-0.1,1.1,0.4,0.8c1.2-0.8,3.2-0.4,4,0.5c0.4,0.7,1,0.1,0.5-0.7
				C130.5,185.8,128.1,185.7,126.8,186.9"/>
			<path class="st1" d="M129.2,185.4c3.5,0.2,4.6,3.8,3.3,6.7c3.1-3.2,0.5-7.9-3.2-7.9c-5.2,0-5.6,5.5-4.3,6.7
				C124.4,188.9,125.6,185.3,129.2,185.4"/>
			<path class="st1" d="M128.8,193.8c-1.4,0-2.5-1.1-2.5-2.5c0-1.4,1.1-2.5,2.5-2.5c1.4,0,2.5,1.1,2.5,2.5
				C131.2,192.7,130.1,193.8,128.8,193.8z M131.9,191.3c0-1.7-1.4-3.1-3.1-3.1c-1.7,0-3.1,1.4-3.1,3.1c0,1.7,1.4,3.1,3.1,3.1
				C130.5,194.5,131.9,193.1,131.9,191.3"/>
		</g>
		<path class="st4" d="M126.8,191.8c0.1-0.3,0.2-0.2,0.3,0.1c0.7,1.1,2.5,1.1,3.1,0.3c0.3-0.4,0.3,0.2,0.3,0.2
			C129.3,194.7,126.6,193.2,126.8,191.8L126.8,191.8z M128.6,189.3c-1.4,0-2.5,1.1-2.5,2.5c0,1.4,1.1,2.5,2.5,2.5
			c1.4,0,2.5-1.1,2.5-2.5C131.1,190.4,130,189.3,128.6,189.3"/>
		<path class="st1" d="M130.2,191.8c-0.6,0.8-2.4,0.7-3.1-0.3c-0.1-0.2-0.2-0.4-0.3-0.1c-0.2,1.4,2.5,2.9,3.7,0.6
			C130.5,192,130.5,191.4,130.2,191.8"/>
		<path class="st4" d="M83.5,201.1c3.8-4.9-3.6-10.7-6.5-6.1C79.4,187.6,89.2,197,83.5,201.1z M82.6,197.3c-0.4-0.8-1.6-1.8-2.3-2
			c-0.7-0.1-0.4-1.2,0.4-1c0.8,0.3,2,1.3,2.2,1.8C83.7,197.3,82.9,198,82.6,197.3L82.6,197.3z M77.5,200.6c-1.3-1.4-1.6-3.3-0.5-4.3
			c1-1,3-0.7,4.3,0.7c1.3,1.4,1.6,3.3,0.5,4.3C80.8,202.4,78.8,202,77.5,200.6L77.5,200.6z M77.9,191.6c-1.4,1-2,3-1.8,5
			c-0.6,1.2-0.3,3.1,1.1,4.5c1.4,1.5,3.4,1.9,4.7,1.1c1.1,0.1,2.2-0.2,3.1-0.8c2-1.7,2.1-5,0.3-7.7C83.3,191.1,80,190.2,77.9,191.6"
			/>
		<g>
			<path class="st1" d="M80.6,194.3c-0.8-0.3-1.1,0.8-0.4,1c0.7,0.1,1.9,1.2,2.3,2c0.3,0.7,1.1,0.1,0.4-1.2
				C82.5,195.5,81.3,194.5,80.6,194.3"/>
			<path class="st1" d="M76.6,194.8c2.9-4.6,10.3,1.2,6.5,6.1C88.8,196.6,79.1,187.3,76.6,194.8"/>
			<path class="st1" d="M81,200.7c-0.9,0.6-2.3,0.1-3.4-0.9c-1.2-1.1-1.3-2.7-0.5-3.5c0.9-0.9,2.5-0.3,3.4,0.8
				C81.4,198,82,199.9,81,200.7L81,200.7z M81.1,196.6c-1.3-1.4-3.2-1.7-4.3-0.7c-1,1-0.8,2.9,0.5,4.3c1.3,1.4,3.2,1.7,4.3,0.7
				C82.6,200,82.4,198,81.1,196.6"/>
		</g>
		<path class="st4" d="M80.6,200.7c-1.8,0.2-3.4-2-2.7-2.9c0,0,0.5-0.7,0.6,0c0.2,1.1,1.3,2.2,2.3,2.4
			C81,200.2,81.1,200.6,80.6,200.7L80.6,200.7z M77.4,196.7c-0.8,0.8-0.7,2.4,0.5,3.5c1.1,1,2.5,1.5,3.4,0.9c1-0.8,0.3-2.7-0.4-3.6
			C79.9,196.4,78.3,195.9,77.4,196.7"/>
		<path class="st1" d="M78.1,197.2c-0.1-0.6-0.6,0-0.6,0c-0.7,1,0.9,3.1,2.7,2.9c0.5-0.1,0.5-0.5,0.2-0.5
			C79.4,199.4,78.3,198.3,78.1,197.2"/>
		<path class="st1" d="M69.2,206.6c0.4-0.2,0.7-0.5,1-0.7c-4.9-3.1-10.9-5.1-20.7-1.9c-0.2,0.1-0.3,0.1-0.4,0.1
			c2.4-0.5,5.6-1,7.6-0.9c2.6,0.2,6.4,0.6,10,2.8l-1.8,1c-8.6,4.1-15.7,5.3-19.8,5.6c-4,0.3-3.2-2.1-0.6-3.4
			c1.5-0.7,2.7-2.1,3.2-4.7c-0.4,0.2-0.4,0.1-1.1,0.3c0,0,0,0-0.1,0c-0.9,6.3-13.2,5.7-11.9-2.9c0,0-1.8-3.6-2.8-5.8
			c0,0.1-0.3-1.3-0.1-1.4c0,0,3,4.9,4.2,6.4c-1.7,5.9,6.9,8.3,9.2,3.9c-7.5,1.4-7.8-2.4-7.7-3.7c-0.1-0.2-0.1-0.4-0.2-0.6
			c-1.3-1.3-5.6-7-10.4-15.9c-0.7,5.2,5.2,17.2,5.7,18.4l0.5,1.2c-1.8,4.9,3.3,11.4,12.5,9.9C54.7,213.5,64.9,209.7,69.2,206.6"/>
		<g>
			<path class="st4" d="M196.1,190.8l0.6,1.2c0.4,0.7,0.8,1.5,1.2,2.2c1-1.2,2-2.5,2.8-3.8c-1,0.1-2.1,0.2-3.1,0.3
				C197.6,190.6,197.1,190.7,196.1,190.8"/>
			<path class="st4" d="M200.6,181.5c1.3-0.1,2.6-0.3,3.9-0.4c0.8-3.1,1.3-6.3,1.5-9.6c0-0.3,0-0.6,0-0.9l29.3,5
				c0,0-1.9-4.4-2.4-5.9l-27-4.9c0-0.3,0-0.6,0-0.9c-0.1-1.1-0.2-2.2-0.3-3.3c-1.3,0.1-2.5,0.3-3.7,0.4c0.9,6.8,0.7,13.9-1.3,20.2"
				/>
			<path class="st4" d="M149.4,144.1c0.6,0.6,1.2,1.1,1.7,1.6c0.1,0.1,0.3,0.2,0.4,0.3c-1.7-8.9-1.8-18.3,2.7-26.7l-1-2.2
				c-1.6,2.8-3,6-3.8,9.7C148.3,132.4,148.5,138.3,149.4,144.1"/>
			<path class="st4" d="M159.2,178.5c1.5,0.2,3.1,0.5,4.5,0.7c0-0.3,0-0.6,0-0.9c4.9-3.6,8.8-9.4,10.8-14.9l-0.3-0.8
				c-0.2,0-0.5,0-0.7,0c-5.2-0.3-10.8-1.1-16.6-3.5c1.5,5.6,3,10.9,3.8,15.9c-1-4.3-3.4-10.1-5.5-16.7c-0.8-0.4-1.6-0.8-2.4-1.3
				c2.3,7.5,4.9,13.7,5.5,16.6C158.5,175.1,158.9,176.7,159.2,178.5"/>
		</g>
		<path class="st1" d="M199.1,137.2c-1.8-8.3,0.1-23.6,6.1-28C196.6,110.3,194.2,131.9,199.1,137.2"/>
		<path class="st4" d="M170.1,153.9l-14.8-32.6c-3.4,8.6-2.9,17.7-1.2,26.6C158.8,151.2,163.2,153.2,170.1,153.9"/>
		<path class="st4" d="M199.1,137.2c-4.9-5.4-2.5-27,6.1-28C199.2,113.6,197.3,129,199.1,137.2z M227.6,89.7c4.7,2.4,13.1-0.9,8-9
			l-11-19.8l-4.3,2l7.7,17.1l0.9,0.1c0.6,0.1,1.2,0.1,3.7,0.8c3.2,0.9,3.8,8.2-2.4,7.6c-1-0.1-2-0.2-2.7-0.3c0,0,0,0,0,0
			c-1.1-0.2-2.4-0.4-3.9-0.5l-0.3,0c1.6,6.1,1.1,14.4-7.1,16.2c4.3-1.9,0.5-3.2,0.3-3.3c-8.9-2-23.7,0.7-25.3-0.4
			c9.5-0.9,10.2-5.7,9.4-10.6c-0.5,0.1-1,0.2-1.5,0.3c0.9,5.2-1.2,7.1-4.1,8.2c-4.4,1.5-7.5,1.5-7.6,1.5l-2.8-0.1
			c1.2-0.4,3.7-0.5,6.6-1.1c4.6-1,7.2-3,6.9-8.2c-0.6,0.1-1.2,0.2-1.8,0.4c0.1,1.5-0.1,2.8-0.7,3.7c-0.9,1.7-4.1,2.3-5.8,2.6
			c0,0-2.5,0.3-2.5,0.3c-9.9,1.3-13.7,3.1-19.9,6.4c0,0-0.8,0.5-1.1,0.8c-1.9,1.1-4.3,2.8-6.8,5.3c0.3,0.6,0.6,1.3,0.9,1.9
			c1.1-1.1,2.4-2.2,3.7-3.3c0,0,2.8-2.4,6.2-4c-5,3.2-8.1,6.3-9.6,8c4,8.8,9.3,20.5,14.5,32c-1.2-9,15.9-15.7,22.2-0.9
			c1.2,2.8,2.3,6,3.1,9.3c1.2-0.1,2.5-0.3,3.8-0.4c-0.4-1.7-0.9-3.3-1.4-5c-0.9-3.8-1.6-9.1-1.6-14.7c0-0.3,0-0.6,0-0.8
			c2.6,3,11.9,13.1,23,16.3l-2.8-6.8c0,0-11.2-4.8-19.5-17.6c0.1-0.6,0.2-1.1,0.3-1.4c0.9-4.7,2.6-9.1,5.3-12.5
			c0.2-0.2,0.4-0.4,0.5-0.6c0.2-0.2,0.4-0.6,0.9-1.1l17.6,41.3c0,0,2.9-0.2,5.6-0.7l-18.2-43.1c0.3,0,0.6-0.1,0.9-0.1
			c0.1,0,0.3,0,0.4-0.1v0c0.3,0,0.5,0,0.6-0.1c4.2-0.8,6.4-2.6,8-5.6c1.4-2.5,1.6-5.8,1.3-8.5C225.8,90.7,226.4,90.2,227.6,89.7"/>
		<path class="st1" d="M120.4,159.8c-0.4,5.1,4.3,5.9,6.9,4.9c0.6,4.2,4.2,4.3,6,4c-2.2,1.4-6.4,0.5-7.2-3.5
			C122.7,166.3,119,163.6,120.4,159.8L120.4,159.8z M121.3,158.7c0.8-0.7,1.4-1,2.6-0.9c-0.5,0.8-0.7,2-0.8,3.2
			c-0.2-0.2-0.4-0.2-0.7-0.5l0,0.9c0.2,0.3,0.4,0.4,0.7,0.6c0,0.8,0,1.3,0.2,1.8c-0.2-0.1-0.3-0.2-0.4-0.3
			C120.5,162.1,121.3,158.7,121.3,158.7L121.3,158.7z M125.4,158c1.8,0.6,3,2.1,3,3.7l0.2,0c-0.1,1.2-1.4,2.7-3.8,2.4
			c-0.1-0.5-0.1-1-0.2-1.6c0.4,0.1,0.9,0.2,1.3,0.2c0-0.2,0-0.7,0-0.7c-0.5,0-0.9-0.2-1.4-0.4C124.6,160.2,124.9,159,125.4,158
			L125.4,158z M129.6,161.8c3.6-0.1,6.3,3.5,4.5,6l-0.6,0.1c-3.1,0.4-4.8-0.8-5.4-3.6C128.6,164,129.4,163,129.6,161.8L129.6,161.8z
			 M125.4,166.4c0,0,0.2,0.5,0.6,1.3l0,0c0.3,0.6,0.9,1.2,1.6,1.6c4.8,2.8,7.4-0.8,7.4-0.8c0,0,2.2-2.9-1-6c-0.1-0.1-2-1.8-4.6-1.5
			c-0.3-1.1-1.7-4.1-5.6-4h0l0,0c-3.2,0.2-3.9,1.9-4.3,2.9c0,0-0.8,2.2,0.4,4C119.8,164,121.4,167,125.4,166.4"/>
		<g>
			<path class="st4" d="M208.9,68.9c-1-0.7-2.6-3-2.4-4.8C209,64.1,209.7,67.6,208.9,68.9"/>
			<path class="st4" d="M211.4,75.2c-1.2-1.2-1.9-2.6-2-4.5C211.3,71.1,212.5,73.5,211.4,75.2"/>
			<path class="st4" d="M201,70.3c0,0,1.5,4.8,3.5,9.6c5.1-1.3,8.8,8.1-0.2,8.8c0.9,3.8,9.4,2.2,6.1-6.3c-0.7-1.7-6.3-13.5-7.4-16.4
				c-0.7-1.9-0.7-2.2-0.7-2.9c0,0,0-0.5,0.1-0.7c0,0-0.1,0.1-0.1,0.1l-1.8,1C199.1,65.1,201.1,70.3,201,70.3"/>
			<path class="st4" d="M197.6,70.3c1.4,4.4,3.7,10.7,3.7,10.7l1.8-0.3l-3.5-9.8c0,0-1.4-3.8-0.7-6.2l-1.7,0.8
				C197.3,65.4,196.5,67,197.6,70.3"/>
			<path class="st4" d="M210.4,91c6.8,0.5,8.5-2.6,8.5-2.6c-2.2,0-6.5,0-6.5,0C212.3,89.7,210.4,91,210.4,91"/>
			<path class="st4" d="M130.7,125.4c1,0,2.1,1.3,2.1,1.3l2.6,2.8l9.5-15.6c1.6-2.5,4.4-6,4.2-5.8c0,0-1.2-2.9-1.8-4.1
				c-0.7-1.5-0.6-2.8-0.6-2.8c0.5-0.6-3.4,4-5,6.6C140.3,110.1,135.7,117.3,130.7,125.4"/>
			<path class="st4" d="M251.7,144.6c0.3,0,1.2,0.1,2.2,0.9c0,0,7.2-0.9,8.8-1.5C262.6,144,254.5,144.8,251.7,144.6"/>
			<path class="st4" d="M251.7,144.6C251.7,144.6,251.6,144.6,251.7,144.6C251.7,144.6,251.7,144.6,251.7,144.6"/>
			<path class="st4" d="M254.2,170.7c0,0-5,0.1-11.9,0l2.1,4.7l7.8-1.5C252.1,173.8,255,173.7,254.2,170.7"/>
			<path class="st4" d="M235.5,156.9c0,0-4.6,0.8-5.4,0.9c0,0,6.8,16.7,7.9,18.8c0,0,4.5-0.7,5.4-1.1
				C243.4,175.5,238.9,166.6,235.5,156.9"/>
			<path class="st4" d="M247.3,183.9c0,0-4.7,1-5.8,1.2c0,0,6.6,12,19,18.1c0,0-0.2-4.7-0.4-6.6
				C260.1,196.7,252.2,191.3,247.3,183.9"/>
			<path class="st4" d="M284.7,205.1c0,0,1.4,4.3-14.4,6.3c0,0,9.4-1.3,12-4.5c0,0,2.5-2.1-2.6-3.2c-4.9-1.1-5.7-0.5-10.4-2.6
				c0,0,0.3,4.6,0.2,5.8c0,0,3.1,0.9,4.8,0.8c0,0,0.1-1.4-3.9-2.7c0,0,17.3,1.6-0.9,5.6c0,0,0.1,3.6-0.4,5.9c0,0,9.4-2.5,12.3-3.3
				C284.8,212.2,291.1,209.3,284.7,205.1"/>
			<path class="st4" d="M175.5,162.8c5.2,11.4,7.2,16.2,9.1,19.7c3.9,0.3,6.2-0.1,6.2-0.1l-9-19.5
				C181.7,162.8,179,163.2,175.5,162.8"/>
			<path class="st4" d="M148.9,100.3c-0.5,0.9-0.5,1.8,0,2.7c0,0,12.5,27.4,23.2,50.7c2.7,0.6,6.1,0.4,6.1,0.4l-25.6-55.6
				c0-0.1-0.6-0.3-1.3-0.3c-0.9,0-2.3,0.7-3,1.8"/>
			<path class="st4" d="M266.5,217.4c0.9-0.5,1.4-1.4,1.5-2.6c2-22.3-6.5-52.1-15.2-67.9c-1.2-1-2.7-1-3.8-0.5
				c-0.6,0.3-1.3,0.8-1.3,1l-0.1,0.5l0,0.2c0,0-0.9,0.4-2.5,0.6c-12.1,2.4-53.1,7.4-64.4,7.1c-0.3,0-5.8,0.1-10.4-0.5
				c-8.6-1-13-3.5-19.1-8.3c-5.6-5.2-16.8-16.8-18.7-19.4c-0.9-1.1-2.6-0.8-3.4-0.1c-1.2,0.9-1.8,2.7-0.6,4.2
				c4.5,4.9,15.5,15.4,15.7,15.6c10,10.9,20.1,13.1,29.2,13.7c6.4,0.4,14.6,0.1,13.1,0.2c16.7-1,45.1-5,60.5-7.8
				c1.2-0.3,2.1-0.4,2.1-0.4l0.5,0c0.7,0.3,1.4,2.6,1.5,2.8l0-0.1c1.6,4.1,4.9,14.7,4.9,14.8c0,0,0.9,3.2,0.5,3.6
				c-0.5,0.6-4.9,1.6-4.9,1.6c-8,2.1-41,7-59,8c-0.1,0-4.8,0.8-15-0.8c0,0-66.4-10.9-66.4-10.9l-3.7,5.1c-0.3,0,68.4,11.2,68.4,11.2
				c6.2,1,11.2,1.2,14.7,1.2l2-0.1c2.5-0.1,3.9-0.3,3.9-0.3c18.4-1.9,41.9-4.9,57-8.5c0,0,1.7-0.4,3-0.3c0.5,0,1.3,0.3,1.3,0.3
				c0.3,0.2,0.6,0.9,0.8,1.9c2.7,9.7,3.3,24.4,3.3,25.1c0,0,0.1,3-0.5,4.2c-0.6,0.7-2.9,1.1-2.9,1.1c-24.5,6.3-53.1,1.8-64.4-21.9
				c-2.4,0.2-6,0.1-6,0.1c0.2,0.8,1.1,2.5,1.1,2.5c7.1,15.8,20,22.1,30.9,25c12,3.2,26.3,3,39.5-0.4c2.1-0.7,2.1-0.9,2.1-0.9
				c2,1,4,0.1,4,0.1"/>
			<path class="st4" d="M119.4,159.8c0.4-1,1.1-2.7,4.3-2.9l0,0h0c3.9-0.1,5.3,2.9,5.6,4c2.6-0.3,4.6,1.4,4.6,1.5c3.2,3.1,1,6,1,6
				c0,0-2.6,3.6-7.4,0.8c-0.6-0.4-1.2-1-1.6-1.6l0,0c-0.4-0.7-0.6-1.3-0.6-1.3c-4,0.6-5.6-2.4-5.6-2.4
				C118.6,162,119.4,159.8,119.4,159.8L119.4,159.8z M115.3,148.4c-0.5,0.9-1.7,2.8-4.1,6.2c-1,1.5-1.4,2.8-1.1,4
				c0.5,1.7,2.3,2.6,2.4,2.6l0,0l0,0l11.3,6.9l1.3,0.8l0,0l3.6,2.3c2.7,1.8,5.9,0.3,7.6-1.9c1.5-2,2.1-4.9-1-7.8
				c0,0-0.5-0.7-3.1-2.2c-2.4-1.4-10.9-6.5-14.9-9C117.4,150.4,115.8,149.5,115.3,148.4"/>
			<path class="st4" d="M138.6,156.4c-2.4-1.8-7.8-5.4-12-8.1l-1,0.9l11.6,7.7c2.7,1.8,3.8,4.2,3.3,6.5
				C140.6,163.5,142.8,159.6,138.6,156.4"/>
			<path class="st4" d="M118.4,149c4,2.5,17,10.1,17,10.1s3.5,2.2,3.7,5.1c1.1-3-0.7-5.3-2.5-6.5l-12.1-8.1c-2.3,0.6-7-1.9-6.9-5
				C116.3,145.6,116.1,147.6,118.4,149"/>
			<path class="st4" d="M128.3,164.3c0.5,2.8,2.3,4,5.4,3.6l0.6-0.1c1.8-2.6-1-6.1-4.5-6C129.5,163,128.7,163.9,128.3,164.3"/>
			<path class="st4" d="M126.3,165.2c0.8,3.9,5,4.8,7.2,3.5c-1.8,0.3-5.4,0.2-6-4c-2.6,1-7.3,0.2-6.9-4.9
				C119.2,163.6,123,166.2,126.3,165.2"/>
			<path class="st4" d="M267,144.6c-3.3,1-8.1,1.9-11.8,2.6c1.3,2.5,1.6,3.5,2,4.5c-0.2,0.1,1.8-0.3,3.8-0.7c3.4-0.6,6.7-1.4,8.4-2
				l0.7-0.1c1.9-0.4,2.1-2.1,2-2.5c-0.2-1.2-0.8-2.1-2.3-2.3C269.9,144,268,144.3,267,144.6"/>
			<path class="st4" d="M274.3,167.7c-2.7,0.6-10.7,2.2-10.7,2.2l0.5,1.4c2.2-0.2,11.5-2.6,11.5-2.6c1.8,0,1.8,1.2,1.8,1.2
				c-3.6,1.3-12.8,3.3-12.8,3.3c0.4,1.7,1.3,5.1,1.3,5.1c10.9-1.9,13.2-3.1,13.2-3.1c3.2-1.3,2-5.1,2-5.1
				C280,165.7,274.3,167.7,274.3,167.7"/>
			<path class="st4" d="M277.8,149.5c-2-7.5-6.3-6.5-6.3-6.5c2.4,0.7,4.4,4.7,0.1,7.1c0,0,2.8,6.9,4.7,15.5c7.9-0.1,8.4,9.4,3.7,11
				c0,0,3,15.2,3.8,23.6c0.1,1.5,0,2.8,0,2.8c3.3,0.7,5.2,3,5.2,4.2C290.6,197.5,285,169.8,277.8,149.5"/>
			<path class="st4" d="M232,144.6l1.8,4c0,0,8.6-0.9,12.2-1.9c0,0,0.1-1.4,1.6-1.6C247.7,145.1,241,145.8,232,144.6"/>
			<path class="st4" d="M114,163.8c0,0-4.3-2.6-4.9-3.6l-8.6,13.2c-0.4,0.6-0.5,1.3-0.2,1.9c0.5,1,1.8,1.9,3.2,2
				c0.7,0,1.6-0.1,2.2-1C105.7,176.1,112.2,166.5,114,163.8"/>
			<path class="st4" d="M153.3,96.9c0.6,0.3,0.7,0.4,1.4,1.7c0.4,0.8,1.6,3.4,1.6,3.4c2.2-1.7,4.3-2.8,8.2-4.2
				c12.4-5,27.1-8,40.2-10.6l1-0.2c2.1-0.3,2.7-1.6,2.5-2.7c-0.2-1.3-1.6-2.4-3.4-2.2c-16.3,2.6-35.2,7.5-44.3,11.3
				C157.4,94.5,155.1,95.7,153.3,96.9"/>
			<path class="st4" d="M119.4,144.1L119.4,144.1c-0.8,1,0.5,2.3,0.7,2.6c1.2,1.1,3,1.8,3.9,1.1l6.6-10.5c0,0-2.6-2.4-4.3-4.6
				C120.9,141.5,119.5,143.9,119.4,144.1L119.4,144.1"/>
			<path class="st4" d="M219.7,80.7c0,0,1.3,3.1,1.3,5.3c2.6,0.2,7.6,0.7,9.5,1.1c2.1,0,2.5-1.4,2.6-2c0.1-1.2-0.5-2.5-1.6-2.7
				l-0.1,0l-0.1,0C229.9,81.8,222.6,81,219.7,80.7"/>
			<path class="st4" d="M125.8,162.3c-0.5,0-0.9-0.1-1.3-0.2c0,0.6,0,1.1,0.2,1.6c2.5,0.4,3.7-1.2,3.8-2.4l-0.2,0
				c0.1-1.6-1.2-3.1-3-3.7c-0.5,1-0.8,2.2-0.9,3.6c0.5,0.2,0.9,0.4,1.4,0.4C125.9,161.6,125.8,162.1,125.8,162.3"/>
		</g>
	</g>
	<g>
		<g>
			<defs>
				<rect id="SVGID_5_" x="0" y="0" width="300" height="231.6"/>
			</defs>
			<clipPath id="SVGID_6_">
				<use xlink:href="#SVGID_5_"  style="overflow:visible;"/>
			</clipPath>
			<g class="st5">
				<path class="st4" d="M122.9,163.3c0.2,0.1,0.3,0.2,0.4,0.3c-0.1-0.5-0.2-1.1-0.2-1.8c-0.3-0.2-0.6-0.3-0.7-0.6l0-0.9
					c0.2,0.3,0.4,0.3,0.7,0.5c0.1-1.2,0.3-2.4,0.8-3.2c-1.2-0.1-1.8,0.2-2.6,0.9C121.2,158.5,120.4,161.9,122.9,163.3"/>
				<path class="st4" d="M213.8,73.8c0.7,2.8-1.4,4.4-3.5,2c-0.9-1-1.3-1.9-1.6-3.1l-0.1-0.2c-0.3-1.5-0.2-2.7-0.2-2.7
					c-1.3-1.1-1.8-2.2-2.2-3c-1.2-3.6,0-4.4,0.5-4.6c2-0.5,4.7,2.5,4.5,6.9C212.5,70.2,213.3,71.3,213.8,73.8L213.8,73.8z M27,184.9
					c4.9,8.9,9.1,14.6,10.4,15.9c0,0.2,0.1,0.4,0.1,0.6c-0.1,1.3,0.2,5.2,7.7,3.7c-2.3,4.4-10.9,2-9.2-3.9c-1.2-1.5-4.2-6.4-4.2-6.4
					c-0.1,0,0.1,1.5,0.1,1.4c1,2.1,2.8,5.8,2.8,5.8c-1.4,8.6,11,9.2,11.8,2.9c0,0,0,0,0.1,0c0.6-0.1,0.7,0,1.1-0.2
					c-0.5,2.6-1.8,4-3.2,4.7c-2.7,1.3-3.4,3.7,0.6,3.4c4.1-0.3,11.3-1.4,19.8-5.6l1.8-1c-3.6-2.3-7.4-2.7-10-2.8
					c-2-0.1-5.3,0.4-7.6,0.9c0.1,0,0.3-0.1,0.4-0.1c9.8-3.2,15.8-1.2,20.7,1.9c-0.3,0.2-0.7,0.5-1,0.7c-4.3,3.1-14.5,6.9-23.5,7.8
					c-9.2,1.5-14.3-5-12.5-9.9l-0.5-1.2C32.2,202.1,26.3,190.1,27,184.9L27,184.9z M226.1,79.7l-7.2-16.3l-1.6,0.7
					c-0.4-0.7-1.1-1-2.2-1.1C155-44.3-29.4,15.2,14.9,156.8c3.1,10,7,18.6,10.6,25.6c-0.3,1.3-0.8,3.7,0,6.9
					c1.2,4.5,2.2,7.3,5.9,15.3c-1.5,5.5,3.6,13.4,15.9,11.1c14.7-2.3,22.3-7.6,24.1-9c0.5,0.3,1,0.7,1.5,1.1
					c26,20.3,68.4,21.9,84.1-2.1c6.2,1.3,14.1,0.2,14.1,0.2c8.2-0.5,14.7-2.7,19.8-6.1c-0.6-1-1.2-2-1.8-3.1
					c-6.6,4.5-16,6.8-29.4,5.8l-0.9-0.1c2.1-4.2,3.5-9,4-14.6c-1-0.2-2-0.3-3-0.5c0.1,3.7-0.2,7.7-1.6,11.6
					c-0.8,2.1-1.8,4.3-3.3,6.3c0,0,0,0,0,0c-3.2,4.7-7.4,8.3-12.3,10.9c-19.7,10.3-50.2,4.3-67.9-9c-10.2-7.6-16.2-7.4-25.9-4.4
					c-10.8,3.3-10.4-3-10.4-3c-9-12.9-17.4-26.6-24.5-52.6C-3.2,78.8,35.2,31.1,84.2,15.3c50.7-8.7,90,19.9,106.2,47.5
					c-0.5,0.3-0.9,0.6-1.2,1.1c-1.6,2.5,0.4,6.7,0.6,7.1l3.9,11.3c0.6-0.1,1.2-0.2,1.8-0.3l-4.4-12.2c-1.8-4.1,0.2-5.7,0.2-5.7
					c-0.5,1.5-0.1,3.3,0.2,4.2c0.6,1.8,2.5,7.1,4.1,11.2c0.3,0.8,0.6,1.6,0.9,2.3c0.5-0.1,0.9-0.2,1.4-0.3c-1.4-4.1-3.3-9-3.8-10.5
					c-0.5-1.3-0.7-1.8-1.3-4c-0.8-2.9,0.3-3,1.6-3.1c0.7-0.1,2.8,0,3.4,0c1.3-0.7,4-2,5.7-2.9c-19.7-33.2-59-55.6-110.7-48
					c40.8-9.9,87,1.8,115.1,41.6c1.5,2.5,2.7,3.8,5,8.3h-1c-1.6-2.2-3.1-2.9-5-2.9c-0.1,0-3.8,0-3.3,3.8c0.1,1.2,0.6,2.6,0.9,3.2
					l0,0l2.8,5.8l0.7,1.6l2.7,5.4c0,0,2,3.9,2.1,6l7.2,0.1c0,0,0.1-2.2-1.4-6.1c-1.1-2.8-4.5-13.1-5.6-15.2c0,0,0-0.1,0-0.1
					c0.4,0,1.8,0,2.6,0.2c1.4,3.6,3.5,9.7,5,14.6l0.6,0c0.4,0,0.8,0.1,1.2,0.1c0,0,0-0.1,0-0.1C222.8,79.3,225.2,79.5,226.1,79.7"/>
			</g>
		</g>
	</g>
	<g>
		<path class="st1" d="M211.4,75.2c-1.2-1.2-1.9-2.6-2-4.5C211.3,71.1,212.5,73.5,211.4,75.2z M208.8,68.6c-1-0.7-2.6-3-2.4-4.8
			C208.9,63.8,209.6,67.4,208.8,68.6z M213.7,73.6c-0.6-2.5-1.4-3.6-2.5-4.6c0.2-4.4-2.6-7.4-4.5-6.9c-0.5,0.2-1.8,1-0.5,4.6
			c0.4,0.8,0.9,1.8,2.2,3c0,0-0.2,1.2,0.2,2.7l0.1,0.2c0.4,1.2,0.8,2.1,1.6,3.1C212.3,77.9,214.4,76.4,213.7,73.6"/>
	</g>
	<g>
		<path class="st6" d="M88.9,173.9c-6.2-1.7-10.3-7-10.4-13.4c0-2.6,0.2-3.5,1.1-5.4c2.7-5.5,9.1-7.6,14.9-4.9
			c4.2,2,7.4,6.1,8.1,10.5c0.3,1.6,0.1,1.9-3.6,7.4c-3.7,5.4-4,5.7-5.5,6C91.6,174.5,91.2,174.5,88.9,173.9L88.9,173.9z"/>
		<path class="st6" d="M109,222.7c-12.8-1.9-25.1-7-35.6-14.9c-1.3-1-1.4-1-2.5-0.3c-7.4,4.8-19.5,8.5-27.5,8.5
			c-3.3,0-3.9-0.1-6.2-1.3c-3.6-1.9-4.9-3.8-5.3-7.8c-0.2-2.3-0.7-4.1-2.2-7.5c-3-6.8-4.1-10.9-3.8-14.4c0.2-2.8,0.1-3-1.8-6.9
			c-2.2-5.1-5-11.8-6.9-17.3c-13.2-39-10.2-75.1,8.8-103.5C36.1,42,50,29.7,67.6,20.9c36.6-18.3,80.7-16.5,113.3,4.7
			c12.5,8.1,24,20,31.9,33c2.7,4.3,3.7,5.3,5.9,5.4c0.6,0,1.5,1.6,4.2,7.6c1.8,4.2,3.3,7.6,3.2,7.7c-0.1,0.1-1.2,0-2.6-0.2l-2.5-0.3
			l-2.3-6.8c-1.3-3.7-2.5-7-2.7-7.3c-0.2-0.3-1-0.5-1.7-0.5c-1,0-1.2,0.1-0.9,0.7c1.1,2.7,6.3,17.9,6.6,19.1l0.3,1.5h-3.5h-3.5
			l-0.3-1.3c-0.1-0.7-2.1-5.2-4.4-9.9c-4.6-9.6-5.2-11.7-3.6-13.3c0.6-0.5,1.5-0.9,2.4-0.9c1.5,0,3.9,1.3,4.3,2.3
			c0.1,0.3,0.6,0.6,1.1,0.6c0.8,0,0.8-0.1-0.5-2.4c-5.2-9.2-15-20.6-23.7-27.7c-23.4-18.9-53.5-26.7-84.6-22.2
			c-2.4,0.3-5.7,1-7.4,1.4L93.7,13l2.3-0.2c1.2-0.1,4.1-0.4,6.3-0.6c5.4-0.5,17.1-0.5,22.4,0c10,1,19.9,3.2,28.4,6.3
			c9.2,3.4,20.5,9.8,28.2,15.9c3.9,3.1,10.3,9.5,14,13.8c2.7,3.2,8.7,11.8,8.7,12.4c0,0.6-5.1,2.7-6.6,2.7c-2.8,0.1-3.8,0.5-3.9,1.7
			c-0.1,0.6,1.1,4.4,2.6,8.5c1.5,4.1,2.7,7.6,2.7,7.6c0,0.1-0.2,0.2-0.5,0.2c-0.8,0-5.3-12.4-5.5-15.3c-0.2-2.2-0.3-2.3-0.8-1.7
			c-1,1.3-0.6,3.2,1.9,10.2c1.4,3.8,2.4,6.9,2.3,7c-0.7,0.7-1.6-0.9-3.6-7c-2.6-7.5-2.9-9.7-1.5-11.2l0.9-0.9l-2.9-4.2
			c-13.8-19.4-34.2-34.2-57-40.9c-11.4-3.1-24.4-4.6-35.4-3.7c-9.4,0.7-12.2,1.3-18.9,3.9C52,27.8,32.4,45.4,21,68.8
			c-8.4,16.9-12,36.4-10.2,56.3c2,23.2,10.8,48.4,24,68.5c2.3,3.5,4.2,6.6,4.2,7c0,0.8,1.5,2.4,2.7,2.8c1.7,0.6,3.5,0.4,8.6-0.9
			c3.9-1.1,5.7-1.3,9.1-1.3c6.1,0,8.7,1,17.8,7.4c6.8,4.8,18,9.4,27,11.2c12.8,2.6,24.3,2.1,34.1-1.4c13.3-4.8,21.2-14.5,22.4-27.8
			l0.3-3.2l1.1,0.3c0.6,0.1,1.2,0.3,1.2,0.4c0.3,0.3-1,6.5-2.1,9.6c-0.7,1.9-1.3,3.8-1.4,4.1c-0.5,1.6,12.6,1.3,19.7-0.5
			c1.8-0.5,4.9-1.6,6.8-2.6l3.5-1.8l0.7,1.4c0.4,0.8,0.6,1.5,0.6,1.5c-0.7,0.6-6.5,3.2-8.6,3.8c-5.7,1.8-15.6,2.8-21.2,2.1l-3.5-0.4
			l-1.2,1.5c-8.7,10.9-21.3,16.1-38.2,16c-3.1,0-7.4-0.3-9.4-0.6L109,222.7z M50.8,213.9c7.1-1.4,16-4.7,19.1-7.2l1-0.8l-2.7-1.3
			c-3.4-1.6-5.4-2.1-9.2-2.1c-3,0-8.5,1-9.3,1.7c-0.2,0.2,0.2,0.2,1,0.1c2.8-0.6,9.9-0.4,12.4,0.5c3.6,1.2,3.7,1.6,0.5,3.1
			c-5.9,2.7-15.8,5.2-19.2,4.9c-2.1-0.2-1.9-1.3,0.5-3c1.4-1,2.3-2,2.7-3.1c0.4-0.9,0.6-1.8,0.5-1.8c-0.4-0.4-1.4,0.4-2,1.7
			c-1.1,2.4-4.6,3.4-7.4,2.1c-2.1-0.9-3.2-2.4-3.5-4.8c-0.2-1.2-0.6-2.9-1-3.8c-0.9-2.1-0.6-2.3,0.6-0.4c0.6,0.9,1.1,2.4,1.2,3.6
			c0.2,1.6,0.5,2.3,1.5,3.2c2.2,2,5.2,2,7.3,0.1l1.1-1l-2.6,0c-3.7,0-5.4-1.1-5.4-3.3c0-0.4-1.1-2.2-2.4-4c-1.3-1.8-3.7-5.5-5.4-8.2
			c-1.6-2.7-3.1-5-3.2-5c-0.5,0,0.3,4.6,1.3,7.7c0.6,1.8,1.8,5.1,2.9,7.4c1.4,3.3,1.8,4.7,1.8,6.5c0,2.5,0.6,3.9,2.3,5.5
			C38.4,214.8,42.9,215.4,50.8,213.9L50.8,213.9z M213.2,76.6c1.3-0.9,0.9-4.1-0.8-6.7c-0.5-0.8-1.1-2.2-1.2-3.2
			c-0.4-3-3.1-5.7-4.7-4.7c-1.2,0.7-0.9,4.2,0.4,6.2c0.6,0.9,1.2,2.4,1.4,3.2C209,75.1,211.5,77.7,213.2,76.6L213.2,76.6z"/>
		<path class="st6" d="M94.8,193.2c0.5-0.1,1.2-0.1,1.6,0c0.4,0.1,0,0.2-0.9,0.2C94.6,193.4,94.3,193.3,94.8,193.2z"/>
		<path class="st6" d="M78.3,186.5c-0.3,0.3,5.1,3.6,7.3,4.4c1.2,0.5,3.3,1.1,4.6,1.4c6.1,1.3,13.1,0.1,18.3-3.2
			c1.1-0.7,1.9-1.3,1.8-1.4c-0.1-0.1-1.7,0.5-3.6,1.3c-9,3.6-17.2,3.3-25.3-1.1C79.8,187.1,78.4,186.4,78.3,186.5L78.3,186.5z
			 M80.4,191c-0.3,0-0.6,0-0.9,0.1c-1.8,0.5-2.9,2-3.2,4.3c-0.2,1.8-0.2,1.8,0.5,0.9c0.4-0.6,1.1-0.9,1.8-0.9c0.8,0,1.2-0.3,1.6-1
			c0.4-0.9,0.4-1-0.3-1c-0.4,0-1.2,0.4-1.8,0.8c-1.3,1.1-1.4,0.4-0.1-1.1c2.3-2.6,6.9,0,7.5,4.2c0.2,1.4,0,1.8-0.9,2.8
			c-0.8,0.9-1,1-0.8,0.4c0.6-1.7,0.6-3.4,0-4.6c-0.4-0.7-0.9-1.3-1.1-1.3s-0.1,0.4,0.2,0.9c0.8,1.1,0.8,2,0,2
			c-0.4,0-0.5,0.4-0.4,1.4c0.2,1.1,0,1.7-0.5,2.3c-0.7,0.8-0.7,0.8,0.3,0.8c0.6,0,1.7-0.5,2.4-1.2c1.2-1,1.3-1.5,1.3-3.2
			C86.2,194,83.3,191,80.4,191L80.4,191z M78.4,196.2c-0.4,0-1.4,1.3-1.4,1.8c0,0.3,0.3,0.1,0.7-0.3c0.5-0.6,0.7-0.7,0.9-0.2
			c0.1,0.3,0.8,1.2,1.5,1.9c1.1,1.2,1.3,1.2,1.4,0.5c0.2-1.1-0.7-2.6-1.8-3.1C79,196.4,78.5,196.2,78.4,196.2L78.4,196.2z"/>
		<path class="st6" d="M121.2,166c-9.2-5.6-10.8-6.9-10.8-8.5c0-0.5,1.1-2.7,2.5-4.9l2.5-4l1.1,1c0.6,0.5,4.9,3.3,9.6,6.1
			c4.7,2.8,9.1,5.7,9.8,6.3c2.7,2.9,1.9,7-1.8,8.9C131.6,172.3,130.7,171.9,121.2,166L121.2,166z M134.6,168.8
			c2.4-2.4,1.3-6.2-2.2-7.6c-0.9-0.4-1.9-0.7-2.2-0.7c-0.3,0-0.9-0.5-1.3-1.2c-1-1.6-2.9-2.6-4.9-2.6c-2.2,0-3.7,1-4.5,2.9
			c-1.3,3,1.1,6.6,4.4,6.6c0.9,0,1.6,0.2,1.6,0.4c0,0.2,0.5,0.9,1.1,1.6C128.6,170.6,132.5,170.9,134.6,168.8L134.6,168.8z"/>
		<path class="st6" d="M101.5,176.3c-0.7-0.5-0.9-1-0.8-1.7c0.2-1.2,8.1-13.6,8.7-13.6c0.2,0,0.8,0.4,1.4,0.8
			c0.6,0.5,1.5,1.2,2.1,1.6l1,0.7l-4.4,6.4c-4.1,6.1-4.4,6.4-5.7,6.4C103,176.9,102,176.6,101.5,176.3L101.5,176.3z"/>
		<path class="st6" d="M124.7,163.3c-0.2-0.4,0-0.6,0.6-0.6c1.1,0,1-0.8,0-1.1c-0.6-0.2-0.8-0.4-0.6-1.3c0.5-2.2,0.8-2.3,2.1-1
			c0.7,0.7,1.3,1.7,1.3,2.1C128.1,163.2,125.3,164.8,124.7,163.3L124.7,163.3z"/>
		<path class="st6" d="M122.4,162.5c-0.8-1-1.1-3.6-0.4-4c1.5-0.9,2.2,0.2,0.9,1.5c-0.6,0.6-0.6,0.8-0.1,1.7
			C123.4,162.8,123.1,163.4,122.4,162.5L122.4,162.5z"/>
		<path class="st6" d="M129.4,166.4c-0.6-0.7-1-1.4-0.9-1.6c0.1-0.1,0.4-0.9,0.7-1.6c0.7-1.5,1.3-1.6,3.1-0.5c1.6,1,2.3,2.1,2.1,3.6
			c-0.1,1-0.3,1.1-2,1.2C130.7,167.7,130.4,167.6,129.4,166.4L129.4,166.4z"/>
		<path class="st6" d="M230.6,220.3c-6.9-0.8-15.3-3.1-20.3-5.6c-9.2-4.6-17.1-12.9-20.9-21.9l-0.6-1.5h2.9h2.9l1,2
			c1.6,3.2,5.8,8.5,8.6,10.9c6.9,5.8,15.1,9.4,25.4,10.9c4.6,0.7,15.1,0.6,20.2-0.2c5.3-0.8,11.1-2.2,11.8-2.8
			c1.6-1.4-0.6-25-2.9-30.5c-0.5-1.2-0.7-1.4-2.2-1.4c-0.9,0-4.2,0.6-7.5,1.2c-10.7,2.3-25.1,4.4-43.7,6.5
			c-12.1,1.4-18,1.5-25.2,0.6c-6.9-0.9-71.2-11.4-71.6-11.8c-0.4-0.4,2.8-4.4,3.4-4.4c0.3,0,15.8,2.5,34.4,5.6l33.8,5.6l8.6,0
			c4.7,0,10.8-0.2,13.5-0.5c22.3-2.4,44.9-5.9,52.3-8.1l2.2-0.7l-0.2-1.8c-0.3-2.5-5.5-18-6.3-19c-0.7-0.8-0.7-0.8-4.8,0
			c-10.2,2-35.1,5.4-49.6,6.8c-8,0.8-22.1,0.9-27,0.2c-6.9-1-14.2-4.1-19.2-8.1c-4-3.2-21.3-20.7-21.6-21.7
			c-0.3-1.4,0.9-3.1,2.4-3.3c0.9-0.1,1.6,0.4,3.8,2.9c6.4,7,16.9,17.3,19.6,19.2c7.9,5.4,14.3,6.8,29.8,6.4
			c11.7-0.3,28.9-2.1,49.2-5c13.5-2,15-2.2,15-2.9c0-0.3,0.6-0.9,1.3-1.2c2.8-1.4,4.2,0.3,8.3,10.4c6.7,16.6,10.5,34.7,10.6,50.4
			c0,6.7,0,7.7-0.7,8.7c-0.7,1-1,1.1-2.9,1.1c-1.2,0-3.9,0.4-6.1,1c-7.6,2-19.2,2.8-27.4,1.9L230.6,220.3z"/>
		<path class="st6" d="M265.6,175.9l-0.6-2.4l6.1-1.5c3.4-0.8,6.2-1.6,6.3-1.7c0.5-0.5-0.3-1.5-1.1-1.5c-0.5,0-3.3,0.6-6.2,1.3
			c-3.7,0.9-5.5,1.1-5.7,0.8c-0.2-0.2-0.3-0.5-0.3-0.6c0.6-0.5,13.1-2.7,14.2-2.5c2.6,0.5,3.9,4.1,2.4,6.3c-0.8,1.2-6,2.8-12.9,4
			l-1.5,0.3L265.6,175.9L265.6,175.9z"/>
		<path class="st6" d="M287.6,204.6c-0.7-0.5-1.7-1.1-2.4-1.2c-1.1-0.2-1.1-0.4-1.1-2.4c0-2.2-1.4-12-2.9-19.5l-0.8-4.3l1-1
			c3.5-3.3,1.8-9-3.1-10.4c-1.7-0.5-1.8-0.6-2.3-2.8c-0.3-1.2-1.3-4.6-2.2-7.5c-1.7-5.2-1.7-5.3-0.8-5.8c1.3-0.9,1.7-2.6,1.1-4.4
			c-0.6-1.8-0.3-1.9,1.1-0.4c1.5,1.6,2,2.8,4.4,10c3.8,11.8,7,24.9,8.6,35.9c1,6.5,1.6,14.8,1,14.7
			C289,205.6,288.3,205.1,287.6,204.6L287.6,204.6z"/>
		<path class="st6" d="M256.5,149.9c-0.4-1-0.8-2-0.8-2.2c0-0.3,0.9-0.6,1.9-0.7c1.1-0.1,4.2-0.8,7-1.5c5.4-1.3,6.1-1.2,7,0.4
			c0.6,1.1-0.4,2.6-1.7,2.9c-0.5,0.1-3.2,0.7-5.9,1.3c-2.7,0.6-5.4,1.2-5.9,1.3C257.5,151.6,257.2,151.4,256.5,149.9L256.5,149.9z"
			/>
		<path class="st6" d="M232.9,146.8c-0.4-0.9-0.6-1.6-0.5-1.6c0.1,0,3.2,0,7,0.2c5.5,0.2,6.8,0.4,6.5,0.8c-0.3,0.5-4.9,1.5-9.6,2
			l-2.7,0.3L232.9,146.8L232.9,146.8z"/>
		<path class="st6" d="M199.5,149.5c-2.1-7.1-5.1-11.8-8.9-13.7c-2.3-1.2-6.5-1.4-9.2-0.5c-3,1-5.9,3.9-6.4,6.3l-0.3,1.7l-7-15.5
			l-7-15.5l1.5-1.5c0.8-0.8,2.9-2.6,4.6-3.9c1.7-1.3,3.1-2.4,3-2.5c-0.3-0.3-3.7,1.7-6.6,4.1c-2.5,2-3.2,2.4-3.5,2
			c-1.2-1.9,10.8-9.3,18.5-11.4c1.7-0.5,5.4-1.2,8.2-1.6c6.5-1,8.5-1.8,9.2-3.6c0.3-0.7,0.6-1.8,0.6-2.4c0-0.6,0.2-1,0.6-1
			c0.9,0,0.8,2.8-0.2,4.4c-1.1,1.8-3.5,2.9-8.2,3.7c-2.3,0.4-4.1,0.8-4.1,1.1c0,0.5,5.3,0.1,8.4-0.7c4.7-1.2,6.4-3.1,6.4-6.9
			c0-1.4,0.1-1.9,0.7-1.9c0.6,0,0.6,0.4,0.5,2.5c-0.3,3.9-2.5,6.1-6.9,7c-4.3,0.9-2.6,1.2,4.2,0.9c15.7-0.8,22.4,0.2,19.1,2.8
			l-1,0.8l1-0.3c1.9-0.5,4.1-2,5.1-3.4c1.5-2.2,2-4.4,1.8-8.6l-0.1-3.8l2.7,0.3c4.7,0.6,6.4,0.5,7.6-0.6c0.8-0.8,1.1-1.4,1.1-2.9
			c0-2.6-1.1-3.8-4.4-4.4l-2.5-0.5l-2.7-6c-1.5-3.3-3.2-7-3.7-8.3l-1-2.3l1.6-0.8c0.9-0.5,1.8-0.8,2-0.8c0.2,0,3.1,4.9,6.5,10.9
			c5.4,9.6,6.1,11.2,6.1,12.9c0,1.6-0.2,2.2-1.2,3.2c-1.6,1.7-4,2.3-6.3,1.7c-1.6-0.4-1.9-0.4-2.9,0.3c-0.9,0.7-1.1,1.1-1.3,4.3
			c-0.2,2.8-0.5,3.9-1.3,5.4c-1.8,3.1-4.3,4.8-8,5.4c-0.9,0.2-1.7,0.4-1.7,0.6c0,0.1,4,9.8,8.9,21.4c7.4,17.4,8.8,21.1,8.3,21.3
			c-0.4,0.1-1.5,0.3-2.6,0.5l-1.9,0.2l-7.9-18.5c-4.3-10.2-8.3-19.5-8.9-20.7l-1-2.3l-1.2,1.4c-1.8,2.1-3.9,6.4-4.8,9.6
			c-1.5,5.2-1.6,4.6,1.5,8.7c4.1,5.2,8.1,8.8,14.3,12.6c2.5,1.5,2.7,1.8,3.8,4.5c0.6,1.6,1.1,2.9,1,3c-0.1,0.1-2.1-0.8-4.4-2
			c-5.2-2.6-9.4-5.7-14.2-10.5c-1.9-1.9-3.6-3.5-3.8-3.5c-0.7,0,0.6,11.6,1.9,16.7c0.5,1.9,0.8,3.5,0.7,3.5
			c-0.1,0.1-0.8,0.2-1.6,0.4l-1.5,0.2L199.5,149.5L199.5,149.5z M198.9,136.4c-0.6-1.9-0.7-6.9-0.3-10.6c0.8-6.9,2.3-11.6,5-15
			c1.3-1.6,1-1.9-0.8-1c-3.7,1.9-6.6,9.6-6.6,17.5c0,4.5,1.3,9.7,2.5,9.7C198.9,137.1,199,136.8,198.9,136.4L198.9,136.4z"/>
		<path class="st6" d="M165.2,152.7c-3.9-1-4.8-1.4-8.3-3.4l-2.9-1.7l-0.5-3.1c-0.8-5.2-1-11.2-0.5-14.6c0.6-4.1,1.7-8.1,2.1-7.7
			c0.3,0.3,13.1,28.1,13.9,30.3C169.6,153.7,169.2,153.7,165.2,152.7L165.2,152.7z"/>
		<path class="st6" d="M172.3,153.4c-0.9-0.7-23.7-50.8-23.7-51.9c0-1.2,1.8-2.9,3.1-2.9c0.6,0,1.1,0.4,1.5,1.1
			c0.3,0.6,5.8,12.7,12.2,26.9c6.4,14.2,11.8,26.1,12,26.5c0.4,0.7,0.2,0.8-2,0.8C174.1,153.9,172.7,153.7,172.3,153.4L172.3,153.4z
			"/>
		<path class="st6" d="M161.7,178.6c-2.3-0.4-2.4-0.5-2.8-2.5c-0.1-1-1.5-5.4-3-9.8c-1.5-4.4-2.6-8.2-2.5-8.3c0.8-0.8,1.7,1.1,4,8.1
			c2.4,7.2,3.6,10.2,3.1,7.7c-0.6-2.6-3.1-13-3.3-13.6c-0.2-0.6,0.1-0.6,2.9,0.3c3.6,1.1,9.4,2.2,11.9,2.2c1,0,1.9,0.2,2,0.4
			c0.7,1.2-4.6,9.8-8,12.9c-1.2,1.1-2.3,2.2-2.4,2.5C163.5,178.8,162.8,178.8,161.7,178.6L161.7,178.6z"/>
		<path class="st6" d="M109.4,216.4c-4.5-0.4-11.1-1.9-15.8-3.7c-6.3-2.3-16.3-7.2-15.9-7.6c0.1-0.1,1.9,0.7,4.1,1.7
			c20.5,9.7,39.7,11,54.7,3.7c6.5-3.2,11-7.2,14.3-12.7c1.5-2.5,3.5-8.1,3.5-9.8c0-0.8,0.2-1,1-1c0.9,0,1,0.2,1,1.3
			c0,3.2-2.2,8.9-4.9,12.9C143.8,212.1,127.6,218,109.4,216.4L109.4,216.4z"/>
		<path class="st6" d="M127.9,192c-0.6-0.4-1.1-0.7-1.2-0.8c-0.4-0.3,1.4-1.8,2.1-1.8c1.4,0,3.3,2.7,1.9,2.8c-0.3,0-0.8,0.1-1.1,0.3
			C129.2,192.6,128.4,192.4,127.9,192L127.9,192z"/>
		<path class="st6" d="M125.1,190.4c-0.4-0.6,0.4-3.2,1.1-3.6c0.3-0.2,0.4,0,0.2,0.4c-0.2,0.6-0.1,0.7,1.5,0.5
			c1.2-0.2,2-0.1,2.5,0.3c0.7,0.6,0.6,0.6-1.1,0.4c-2.1-0.2-3,0.2-3.6,1.7C125.5,190.7,125.3,190.8,125.1,190.4L125.1,190.4z"/>
		<path class="st6" d="M124.3,191.2c-0.7-1.4-0.8-2.8-0.2-4.4c0.6-1.6,0.9-1,0.3,0.8c-0.4,1.3-0.4,1.8,0.3,3
			c0.4,0.8,0.6,1.5,0.5,1.6C125.1,192.3,124.7,191.9,124.3,191.2L124.3,191.2z"/>
		<path class="st6" d="M131.8,192.4c0.1-0.9,0-2-0.3-2.5c-0.3-0.6-0.3-0.9,0-0.9c0.2,0,0.4-0.4,0.4-0.9c0-0.8,0-0.9,0.4-0.2
			c0.2,0.4,0.4,1.6,0.3,2.6c-0.2,1.9,0.2,2.3,0.9,1c0.6-1,0.5-3.5,0-4.6c-0.2-0.5-0.3-0.9-0.2-1.1c0.5-0.5,1.5,2.9,1.3,4.2
			c-0.2,1.3-2,3.8-2.7,3.8C131.7,194,131.7,193.3,131.8,192.4L131.8,192.4z"/>
		<path class="st6" d="M180.2,173.1l-4.4-9.6c-0.1-0.2,1.2-0.3,2.8-0.2l3,0.1l3.1,6.6c1.7,3.6,3.7,7.9,4.4,9.5l1.4,3h-3h-3
			L180.2,173.1L180.2,173.1z"/>
		<path class="st6" d="M201,181c0-0.2,0.3-1.8,0.6-3.7c0.5-2.4,0.6-5.2,0.5-9.5l-0.1-6.1l1.2-0.2c2.2-0.4,2.3-0.4,2.3,1.8
			c0,2,0,2,1.3,2.3c0.7,0.1,6.8,1.2,13.6,2.4l12.2,2.1l1,2.4c0.5,1.3,0.9,2.5,0.8,2.6c-0.1,0.1-6.4-0.8-14-2.1
			c-7.6-1.3-14-2.3-14.3-2.3c-0.3,0-0.5,1.3-0.7,3.2c-0.1,1.7-0.4,4.1-0.7,5.3c-0.5,2.1-0.5,2.1-2.1,2.1
			C201.8,181.2,201.1,181.1,201,181L201,181z"/>
		<path class="st6" d="M197.1,192.4l-0.7-1.4l1.8-0.1c1-0.1,1.8,0,1.8,0.1s-0.5,0.8-1.1,1.6l-1.1,1.4L197.1,192.4L197.1,192.4z"/>
		<path class="st6" d="M237.2,175.5c-0.2-0.6-2-4.7-3.8-9.1c-3.4-8.1-3.5-8.6-1.6-8.6c0.4,0,1.2-0.1,1.9-0.3c1.2-0.2,1.2-0.2,3,4.2
			c1,2.4,2.8,6.6,3.9,9.2l2.2,4.7l-2.3,0.5c-1.3,0.3-2.4,0.5-2.6,0.5C237.8,176.6,237.5,176.1,237.2,175.5L237.2,175.5z"/>
		<path class="st6" d="M243.9,173.1c-0.5-1-0.8-2-0.8-2c0-0.1,2.6-0.2,5.7-0.2c6,0,6.4,0.1,5.2,1.8c-0.4,0.6-7.2,2.3-8.9,2.3
			C245,175,244.4,174.2,243.9,173.1L243.9,173.1z"/>
		<path class="st6" d="M257.3,201c-3.8-2.3-9.4-7.6-12.7-12c-1.5-1.9-2.6-3.6-2.5-3.7c0.1-0.1,1.3-0.4,2.8-0.7
			c2.2-0.5,2.6-0.5,2.9,0c1.3,2.4,7.6,8.7,11.5,11.4c1.1,0.8,1.1,1,1,3.7l-0.1,2.9L257.3,201L257.3,201z"/>
		<path class="st6" d="M269.9,213.6c0.1-1.4,0.4-2.7,0.5-2.8c0.1-0.1,1.2-0.5,2.3-0.7c3.1-0.7,5.5-1.9,5.5-2.7
			c0-0.9-2.2-1.8-5.2-2.1l-2.4-0.2l1.7,0.9c2.1,1.1,2.3,1.8,0.4,1.4c-2.7-0.6-2.7-0.5-2.8-3.2c-0.1-1.4-0.1-2.6-0.1-2.7
			c0-0.1,0.5,0.1,1,0.3c0.5,0.3,3.1,0.9,5.8,1.5c2.7,0.5,5.2,1.2,5.5,1.4c2,1.6-1.1,3.9-7.8,5.7l-2.9,0.8l2.2-0.2
			c1.2-0.1,3.7-0.7,5.5-1.3c2.6-0.8,3.7-1.4,4.8-2.6l1.5-1.6l0.9,1c0.5,0.5,0.9,1.4,0.9,2c0,2.3-2.3,3.5-10.8,5.7
			c-3,0.8-5.8,1.6-6.2,1.7C269.7,216.2,269.7,216,269.9,213.6L269.9,213.6z"/>
		<path class="st6" d="M155,99.1l-1.3-2.4l2.9-1.4c8-3.9,22.5-8.2,39.3-11.5c9-1.8,10.3-1.9,11.3-0.6c1.9,2.3,0.6,3.1-8.5,5
			c-11.3,2.3-21.7,5-28.6,7.4c-6.3,2.2-12.6,4.8-13,5.7C156.6,101.9,156.3,101.6,155,99.1L155,99.1z"/>
		<path class="st6" d="M199.5,74.4c-2.4-6.9-2.6-8.6-1.3-9.3c0.8-0.4,0.8-0.3,0.8,1.6c0,1.4,0.6,3.8,2,7.7c1.9,5.4,2,6.3,0.8,6.3
			C201.7,80.6,200.7,77.8,199.5,74.4L199.5,74.4z"/>
		<path class="st6" d="M205.8,90.5c-1.3-0.5-1-1.2,1-1.8c2.2-0.7,3.1-1.9,3.1-4.1c0-2.4-1.5-4.2-3.7-4.5c-0.9-0.1-1.7-0.5-1.8-0.9
			c-1.2-3-3.8-11.3-4.1-12.6c-0.2-1.4-0.1-1.8,0.6-2.6l0.9-0.9l0.9,2.6c0.5,1.4,2.4,5.8,4.2,9.8c4.6,10.1,4.8,10.8,3.6,13.1
			c-0.5,1-2.8,2.5-3.5,2.4C206.8,90.9,206.3,90.7,205.8,90.5L205.8,90.5z"/>
		<path class="st6" d="M211.7,89.7c0.7-0.9,1-1,3.5-1c1.9,0,2.7,0.1,2.5,0.4c-0.5,0.8-3,1.6-4.9,1.6H211L211.7,89.7L211.7,89.7z"/>
		<path class="st6" d="M225.8,86.2c-2.2-0.3-4.1-0.6-4.1-0.7c-0.3-0.4-1.1-4.2-0.9-4.4c0.1-0.1,2.7,0.1,5.7,0.5
			c4.5,0.6,5.5,0.8,6.1,1.6c0.9,1.1,0.9,2.1,0,3C231.7,86.8,231.5,86.8,225.8,86.2L225.8,86.2z"/>
		<path class="st6" d="M210.5,73.2c-0.4-0.8-0.6-1.6-0.4-1.7c0.4-0.4,1.4,0.7,1.7,2C212.2,75.1,211.3,74.9,210.5,73.2L210.5,73.2z"
			/>
		<path class="st6" d="M207.7,67.3c-1-1.6-1.2-2.8-0.5-2.8c0.7,0,1.7,2,1.6,3.1l-0.1,1.2L207.7,67.3L207.7,67.3z"/>
		<path class="st6" d="M133.4,127.1l-2-2l0.9-1.6c2.2-3.9,10.7-17,12.4-19.2l1.8-2.3l0.5,1.6c0.3,0.9,0.8,2.2,1.3,3.1l0.8,1.5
			l-1.5,2c-0.8,1.1-3.9,5.8-6.8,10.6c-2.9,4.8-5.3,8.6-5.4,8.6C135.4,129.1,134.5,128.2,133.4,127.1L133.4,127.1z"/>
		<path class="st6" d="M121.2,147.1c-2.1-1.5-2-1.8,1.8-8.1c2-3.2,3.6-5.9,3.6-5.9c0,0,0.9,0.9,2,2.1l2,2.2l-3.2,5.1
			c-2.7,4.3-3.4,5.1-4.2,5.1C122.5,147.8,121.7,147.5,121.2,147.1L121.2,147.1z"/>
		<path class="st6" d="M138.1,161.7c-1-1.5-1.9-2.1-11.4-7.8c-4.3-2.5-8.2-5-8.7-5.4c-0.6-0.5-0.9-1.3-0.9-2.1v-1.2l0.9,1.4
			c1.2,1.8,3.4,3.2,5,3.2c0.9,0,3,1.2,7.6,4.2c6.4,4.2,8.1,5.7,8.5,7.6C139.4,163.1,139.1,163.1,138.1,161.7L138.1,161.7z"/>
		<path class="st6" d="M140.5,160.5c-0.5-1.7-2.5-3.5-8.5-7.5c-3.3-2.2-6-4.2-5.9-4.4c0.3-0.6,10,5.7,12.8,8.3
			c1.2,1.2,2.5,3.8,2,4.2C140.8,161.3,140.6,161,140.5,160.5L140.5,160.5z"/>
		<path class="st6" d="M153.8,175.9c-0.1-0.8-0.7-3.3-1.2-5.5c-1.8-7.2-0.9-6.3,1.3,1.3c1.6,5.7,1.6,5.7,0.8,5.7
			C154.3,177.4,154,176.8,153.8,175.9L153.8,175.9z"/>
		<path class="st6" d="M150.3,144.4c-0.5-0.4-0.8-1.6-1.1-5.1c-0.4-5-0.1-9.9,1-14c0.8-3,2.6-7.5,3.1-7.5c0.8,0,0.8,1.7,0,3.3
			c-2.3,4.4-3.3,13.1-2.5,19.8c0.2,2,0.4,3.7,0.3,3.8C151,144.8,150.7,144.7,150.3,144.4L150.3,144.4z"/>
		<path class="st6" d="M124.7,186.5c-0.1-0.6,0-0.7,0.6-1.3c1.1-1.1,2.1-1.5,3.9-1.5c1.3,0,1.7,0.1,2.3,0.4c1,0.5,2.1,1.5,1.9,1.6
			c-0.1,0-0.2,0.2-0.2,0.4c0,0.3-0.1,0.2-0.6-0.3c-0.9-0.9-1.7-1.3-3.1-1.3c-1.9-0.1-3.5,0.7-4.4,2.2l-0.3,0.5L124.7,186.5
			L124.7,186.5z"/>
		<path class="st6" d="M131.8,187.7c0-0.4-1.4-1.2-2.1-1.3c-1-0.1-1.7,0-2.5,0.5c-0.5,0.3-0.6,0.3-0.6,0.2c0-0.1-0.1-0.2-0.2-0.2
			c-0.5,0,1-0.8,1.7-1c1.1-0.3,2.2-0.1,3.1,0.4c0.7,0.4,1.3,1.1,0.9,1.1C132,187.3,131.9,187.4,131.8,187.7
			C131.9,187.7,131.8,187.8,131.8,187.7L131.8,187.7z"/>
		<path class="st6" d="M127.9,194c-0.2-0.1-0.6-0.4-0.9-0.8c-0.4-0.5-0.5-0.7-0.5-1.5c0-0.8,0-0.8,0.2-0.5c0.1,0.2,0.2,0.5,0.2,0.8
			c0,1,0.8,1.6,2,1.6c0.6,0,0.8-0.1,1.4-0.8c0.4-0.4,0.7-0.7,0.7-0.6c0,0.3-0.5,1.1-1,1.4C129.7,194,128.4,194.2,127.9,194
			L127.9,194z"/>
		<path class="st6" d="M127.5,195.1c-0.6-0.3-1-0.7-2-2c-0.3-0.4-0.3-0.5-0.1-0.5c0.2,0,0.2-0.1,0.2-0.3c-0.1-0.1-0.1-0.5-0.2-0.9
			c-0.1-0.5-0.1-0.6,0.2-0.6c0.3,0,0.3,0.1,0.2,0.6c-0.2,1.2,0.8,2.8,1.9,3.2c1.3,0.5,3,0,3.8-1.1l0.4-0.6v0.5
			c0,0.2,0.1,0.5,0.2,0.5c0.1,0-0.3,0.3-0.8,0.7c-0.9,0.6-1.2,0.7-2.1,0.8C128.4,195.4,128,195.4,127.5,195.1L127.5,195.1z"/>
		<path class="st6" d="M131,189.2c-0.3-0.3-0.3-0.3-0.1-0.3c0.2,0,0.3-0.1,0.2-0.2c-0.1-0.1,0-0.2,0.1-0.2c0.2,0,0.4,0.4,0.3,0.8
			C131.4,189.6,131.4,189.6,131,189.2L131,189.2z"/>
		<path class="st6" d="M81.4,197.5c-0.7-1-1.7-1.7-2.8-1.8c-0.6-0.1-0.7-0.1-0.4-0.2c0.3,0,0.7-0.1,0.9-0.3c0.3-0.2,0.4-0.2,1,0.1
			c0.7,0.4,1.8,1.3,2,1.8c0.1,0.1,0,0.4-0.1,0.7l-0.2,0.4L81.4,197.5L81.4,197.5z"/>
		<path class="st6" d="M81.4,194.8c-0.4-0.3-0.9-0.6-1-0.6c-0.2,0-0.3-0.1-0.3-0.4c0-0.3,0.1-0.3,0.5-0.2c0.7,0.1,2.1,0.9,1.8,1.1
			c-0.1,0.1-0.2,0.2-0.2,0.4C82.2,195.3,82,195.2,81.4,194.8L81.4,194.8z"/>
		<path class="st6" d="M129.4,168.8c-1.5-0.5-2.7-1.7-3.2-3.1l-0.2-0.6l-1.4,0c-1.6,0-2.3-0.2-3.3-1.2c-0.8-0.7-1.3-1.8-1.3-2.8
			c0-0.6,0-0.6,0.2,0.2c0.4,1.5,1.1,2.5,2.3,3.1c0.8,0.4,3.2,0.6,4.1,0.3c0.5-0.2,0.5-0.2,0.6,0.4c0.4,1.9,1.9,3.2,4.2,3.5
			c0.8,0.1,0.9,0.1,0.6,0.2C131.4,169.1,130.2,169,129.4,168.8L129.4,168.8z"/>
		<path class="st6" d="M151.1,164.5c-1.2-4.1-1.1-4.3,0.1-1.1c0.5,1.3,0.8,2.1,0.7,2.2c-0.1,0.1-0.1,0.4-0.1,0.8
			c0.1,0.4,0.1,0.7,0,0.7C151.8,167,151.5,165.9,151.1,164.5L151.1,164.5z"/>
		<path class="st6" d="M78.3,205c-0.4-0.2-0.6-0.2-0.7-0.1c-0.1,0.1-0.9-0.3-2.3-1.1c-2.6-1.5-7.1-3.9-9.2-4.8
			c-0.8-0.4-1.4-0.7-1.4-0.7c0.2-0.2,4.7,1.8,8,3.4c2.5,1.2,6.1,3.2,6.3,3.4C79.2,205.3,79,205.3,78.3,205L78.3,205z"/>
		<path class="st6" d="M76.3,185.3c-0.8-0.7-1.3-1.3-1.3-1.4c0,0,0.5,0.3,1,0.7c0.5,0.4,1.4,1,1.8,1.4c0.5,0.3,0.9,0.6,0.9,0.6
			c0,0-0.2,0-0.5,0C77.8,186.6,77.4,186.3,76.3,185.3L76.3,185.3z"/>
		<path class="st6" d="M32.8,197.5c-1-2.3-1-2.7,0.2-0.9c0.5,0.8,0.8,1.4,0.7,1.5c-0.1,0.1-0.1,0.3-0.1,0.6c0.1,0.3,0.1,0.5,0.1,0.5
			C33.6,199.3,33.2,198.5,32.8,197.5L32.8,197.5z"/>
	</g>
</g>
</svg>
