<?xml version="1.0" encoding="utf-8"?>
<!-- Generator: Adobe Illustrator 21.1.0, SVG Export Plug-In . SVG Version: 6.00 Build 0)  -->
<!DOCTYPE svg PUBLIC "-//W3C//DTD SVG 1.1//EN" "http://www.w3.org/Graphics/SVG/1.1/DTD/svg11.dtd">
<svg version="1.1"
	 id="Layer_1" xmlns:cc="http://creativecommons.org/ns#" xmlns:dc="http://purl.org/dc/elements/1.1/" xmlns:rdf="http://www.w3.org/1999/02/22-rdf-syntax-ns#"
	 xmlns="http://www.w3.org/2000/svg" xmlns:xlink="http://www.w3.org/1999/xlink" x="0px" y="0px" width="300px" height="315.9px"
	 viewBox="0 0 300 315.9" style="enable-background:new 0 0 300 315.9;" xml:space="preserve">
<style type="text/css">
	.st0{fill:#FFFFFF;}
	.st1{fill:#002C5F;}
</style>
<g transform="matrix(1.25 0 0 -1.25 -284.55 598.03)">
	<g transform="translate(1.1786 1.1786)">
		<path class="st0" d="M346.5,224.5c-24.3-0.1-43,6.8-51.9,11.6c-17.5,9.2-31.9,21.3-44.3,38.2c-17.8,24.2-21.3,43.7-22.7,54.3
			c-0.8,5.5-1.8,18.8,0,30.7c2.1,17.2,6,25.7,8.8,34.1c2.2,6,9.2,20.3,13.3,26.9c3.5,5.2,10,14.6,12.6,18c0.7,1.1-0.2,0.6-0.6,0.5
			c-1-0.2-1.5-0.3-2.2-0.2c-0.6,0-1.7,0.2-2.3,0.4c-3.5,0.7-8.4,4.6-7.8,11.3c-0.1,1.5,1.5,14.3,2.7,18.2c1.6,5.6,5,8.2,10.9,8.7
			c3,0,15.5,0.2,21.2-0.6c11.4-1.1,19.7-4.5,24.7-14.5c4-8.8,2.6-22.6-2.8-33.1c-1.9-3.6-5.6-10.3-8.8-14.6c-3-4.3-4.2-6.6-6.8-11.4
			c-2.6-5.1-11.3-24.1-14.3-36.5c-5.7-23.2-2.5-36.5,8.4-54.6c8.1-12,17.5-20.7,24.8-24.7c12-7.6,28.5-9.7,37-9.7
			c8.6,0,25,2.1,37,9.7c7.3,4,16.8,12.7,24.8,24.7c10.9,18.1,14.1,31.4,8.4,54.6c-3,12.4-11.7,31.4-14.3,36.5
			c-2.6,4.8-3.8,7.1-6.8,11.4c-3.2,4.3-6.9,11-8.8,14.6c-5.5,10.5-6.8,24.3-2.8,33.1c5,10.1,13.3,13.4,24.7,14.5
			c5.7,0.9,18.2,0.6,21.2,0.6c6-0.5,9.3-3.1,10.9-8.7c1.2-4,2.9-16.8,2.7-18.2c0.6-6.7-4.3-10.6-7.8-11.3c-0.6-0.2-1.7-0.4-2.3-0.4
			c-0.7-0.1-1.2,0-2.2,0.2c-0.4,0-1.3,0.5-0.6-0.5c2.6-3.4,9.1-12.8,12.6-18c4.2-6.6,11.2-20.9,13.3-26.9c2.8-8.4,6.7-16.9,8.8-34.1
			c1.9-11.9,0.9-25.2,0-30.7c-1.4-10.6-4.9-30.1-22.7-54.3c-12.4-16.9-26.8-29-44.3-38.2C389.5,231.4,370.8,224.7,346.5,224.5"/>
		<path class="st1" d="M346.3,248.5c1.6,0,2.9,1.3,2.9,2.9c0,1.6-1.3,2.9-2.9,2.9c-1.6,0-2.9-1.3-2.9-2.9
			C343.4,249.8,344.7,248.5,346.3,248.5z M268.6,285.4c1.6,0,2.9,1.3,2.9,2.9c0,1.6-1.3,2.9-2.9,2.9c-1.6,0-2.9-1.3-2.9-2.9
			S267,285.4,268.6,285.4L268.6,285.4z M251.2,352.9c1.6,0,2.9,1.3,2.9,2.9c0,1.6-1.3,2.9-2.9,2.9c-1.6,0-2.9-1.3-2.9-2.9
			C248.3,354.2,249.6,352.9,251.2,352.9z M285.5,432.4c1.6,0,2.9,1.3,2.9,2.9c0,1.6-1.3,2.9-2.9,2.9c-1.6,0-2.9-1.3-2.9-2.9
			C282.5,433.7,283.9,432.4,285.5,432.4z M427.3,288.4c0,1.6-1.3,2.9-2.9,2.9c-1.6,0-2.9-1.3-2.9-2.9s1.3-2.9,2.9-2.9
			C426,285.4,427.3,286.7,427.3,288.4z M444.6,355.9c0,1.6-1.3,2.9-2.9,2.9s-2.9-1.3-2.9-2.9c0-1.6,1.3-2.9,2.9-2.9
			C443.3,352.9,444.6,354.2,444.6,355.9z M410.4,435.3c0,1.6-1.3,2.9-2.9,2.9c-1.6,0-2.9-1.3-2.9-2.9c0-1.6,1.3-2.9,2.9-2.9
			C409.1,432.4,410.4,433.7,410.4,435.3z M292,244.3c-15.9,9.4-30.3,21.3-44.2,44.3c-6.2,11.3-20.6,35.4-13.5,77.3
			c8.2,38.3,24.7,57.7,34.1,71c4.5,6.5-0.1,10.2-3.7,8.8c-3-1.1-5.1-1.2-5.1-1.2c-5.3,0.7-4.6,4.2-3.6,13.3l1.2,7.4
			c1.1,6.6,4.1,6.5,11.9,6.3c12.4-0.2,14.6-0.3,21.3-1.6c8.9-2,20.6-10.9,11.4-35.5c-5.7-13.2-11.7-17.6-18.1-31.3
			c-6.9-15.1-23.8-49.1-12.4-78.2c15.6-39,45.9-52.9,74.7-53.4c28.8,0.4,62,17.4,75.4,53.4c11.4,29-5.5,63-12.4,78.2
			c-6.5,13.7-12.4,18.1-18.1,31.3c-9.2,24.6,2.5,33.5,11.4,35.5c6.7,1.2,8.9,1.3,21.3,1.6c7.8,0.2,10.8,0.3,11.9-6.3l1.2-7.4
			c1-9.1,1.7-12.5-3.6-13.3c0,0-2.1,0.1-5.1,1.2c-3.6,1.4-8.2-2.4-3.7-8.8c9.4-13.3,25.9-32.6,34.1-71c7.1-41.9-7.3-66-13.5-77.3
			c-13.9-22.9-28.3-34.8-44.2-44.3c-21.7-15.1-62.4-14.3-54.6-13.8C354.5,229.9,316.4,228.9,292,244.3"/>
	</g>
</g>
</svg>
