<?xml version="1.0" encoding="utf-8"?>
<!-- Generator: Adobe Illustrator 21.1.0, SVG Export Plug-In . SVG Version: 6.00 Build 0)  -->
<!DOCTYPE svg PUBLIC "-//W3C//DTD SVG 1.1//EN" "http://www.w3.org/Graphics/SVG/1.1/DTD/svg11.dtd">
<svg version="1.1"
	 id="Layer_1" xmlns:cc="http://creativecommons.org/ns#" xmlns:dc="http://purl.org/dc/elements/1.1/" xmlns:rdf="http://www.w3.org/1999/02/22-rdf-syntax-ns#"
	 xmlns="http://www.w3.org/2000/svg" xmlns:xlink="http://www.w3.org/1999/xlink" x="0px" y="0px" width="300px" height="170.5px"
	 viewBox="0 0 300 170.5" style="enable-background:new 0 0 300 170.5;" xml:space="preserve">
<style type="text/css">
	.st0{fill:#FFFFFF;}
	.st1{fill:#001532;}
	.st2{fill:#0080C5;}
	.st3{fill:#EEAD1E;}
</style>
<g>
	<path class="st0" d="M3.4,170.5l-1.6-7.8c-8.2-39.6,14.6-78.9,27.5-95.3c-1.5,0-3.1,0-5.7-0.1L18.1,67l3.2-4.5
		c31-43.4,87.2-53.4,120.1-52.5l-7.8-9.7l5.8-0.2c39.4-1.6,61,8.3,71.4,13.2c1.5,0.7,2.8,1.3,3.9,1.7l0.2,0.1
		c25.4,12.5,45.5,29.4,59.9,50.4c25.3,32.5,26.3,74.6,24.6,96.7l-5.7,0.9c-9.3-22.5-27.7-52.5-49.8-73.6c0.8,2.3,1.5,4.9,2.4,7.8
		l2,7.2l-6.4-3.9c-43.7-26.8-89.4-39.3-136-37.3c1.9,2.2,3.9,4.9,5,6.9l1.5,2.8l-6,2.5c-28,11.7-66.4,27.6-99.3,87.9L3.4,170.5z
		 M31.8,61.4c1.1,0,2.3,0,3.9,0.1l6.4,0.3l-4.4,4.7C27.8,77,2.5,114.2,6.3,153.2C39.1,97.4,76.4,81.7,104,70.2
		c-2.1-2.8-5-6.1-6.3-7.5l-4.2-4.5l6.1-0.4c47.5-3.3,94.2,8.1,138.9,34c-1.4-4.4-2.8-7.8-4.4-11.1l4.5-3.6
		c23.2,18.5,43.4,47.8,55.5,72.4c0.1-22.4-3.9-54.7-24-80.4l-0.1-0.1c-13.8-20.1-33.2-36.4-57.6-48.4c-1.2-0.5-2.5-1.1-4-1.8
		c-9.4-4.4-28.6-13.2-62.8-12.8l8.9,11l-6.8-0.5c-18.8-1.5-41.6,1.4-61.1,7.7c-23.8,7.7-43.4,20.6-57,37.4c0.1,0,0.1,0,0.2,0
		C30.4,61.4,31,61.4,31.8,61.4z"/>
	<path class="st1" d="M272.5,67.2c21.4,27.5,26.3,64.3,24.1,94.8c-11.1-26.9-33.9-62-59.8-82.7c2.6,5.4,4.6,11.1,6.7,18.8
		C201.7,72.5,153.3,57,99.8,60.7c0,0,6.5,7,8.5,10.9C79.2,83.8,39.2,98.7,4.6,162C-4.5,118,25.9,74.7,35.5,64.4
		c-5.2-0.2-6.2,0.1-11.8-0.1c31.7-44.4,92.1-53.5,124.2-50.9l-8.3-10.3C184,1.3,205,14.3,213.6,17.8
		C248.1,34.7,265.1,56.6,272.5,67.2"/>
	<path class="st2" d="M153.5,8.3l-3.4,0.1c0,0,4.8,6.8,6.9,9.8c-16.2-1.3-78.4-3.3-120.2,38.3l-3,2.9c0,0,10.8,0.4,12,0.4
		c-1,1.3-2.1,2.6-2.1,2.6C31.1,77.6,14,98.4,8,138.7l-1.1,7.8l4.4-6.5c22.6-33.1,51.8-56.5,87-69.3l2.3-0.8l-1.4-1.9
		c-3.7-5.1-7.3-8.4-10.5-11.2c61.5-6.2,106.1,10.5,141.5,27.8l4.3,2.1l-1.9-4.4c-3.4-8.3-6.6-13.9-9.8-19.1
		c26.6,15.8,45.3,39,64.5,68.7l3.9,6.1l-0.6-7.3C283.6,50.3,205.1,7.3,153.5,8.3"/>
	<path class="st3" d="M162.2,19.4c0,0-3.1-4.4-5.2-7.4c25,0.5,54.6,11.4,78.3,29c20.2,15.1,44.8,41.4,50.8,82.5
		c-19.6-29.4-39.3-52.3-68.1-67.3l-6.2-3.2l3.9,5.9c4.1,6.2,7.7,11.8,11.6,20.3c-34.2-16.3-80.9-33-143.3-25.7L79.7,54l5,4.2
		c3.1,2.6,6.5,5.6,10,10c-32.5,12.4-60,33.8-81.8,63.5c6.7-34.4,22.1-53.1,33.6-67l6.7-8.3l-3.7-0.1c0,0-6.8-0.2-7-0.2
		c46.9-43.2,117.2-34,117.9-33.9l4.2,0.6L162.2,19.4"/>
</g>
</svg>
