<?xml version="1.0" encoding="utf-8"?>
<!-- Generator: Adobe Illustrator 21.1.0, SVG Export Plug-In . SVG Version: 6.00 Build 0)  -->
<!DOCTYPE svg PUBLIC "-//W3C//DTD SVG 1.1//EN" "http://www.w3.org/Graphics/SVG/1.1/DTD/svg11.dtd">
<svg version="1.1"
	 id="Layer_1" xmlns:cc="http://creativecommons.org/ns#" xmlns:dc="http://purl.org/dc/elements/1.1/" xmlns:rdf="http://www.w3.org/1999/02/22-rdf-syntax-ns#"
	 xmlns="http://www.w3.org/2000/svg" xmlns:xlink="http://www.w3.org/1999/xlink" x="0px" y="0px" width="300px" height="366.1px"
	 viewBox="0 0 300 366.1" style="enable-background:new 0 0 300 366.1;" xml:space="preserve">
<style type="text/css">
	.st0{fill:#FFFFFF;}
	.st1{fill:#D3BC8D;}
</style>
<g transform="matrix(1.25 0 0 -1.25 -285.69 611.52)">
	<g transform="matrix(.25 0 0 .25 229.57 296.66)">
		<path d="M855.7,306.2c-86.2,50.1-171,38.5-235.4,9.8c-2.8,21.2-8.4,44.4-17.6,71.5c-13.6,40.4-28.6,79-41.8,113.1
			c-17.3,44.8-30.5,83.1-37.8,108.8l-46.9,160.7l-48.7-160.8c-7.4-25.6-20.3-64.1-37.5-108.9c-13.1-34.1-27.9-72.8-41.5-113.2
			c-9.1-27.2-14.6-50.5-17.4-71.7c-64.4,28.5-149.3,40-235.4-10.3C25.4,264.2-12.3,192.6-2.6,118.7C6.3,51.4,52.3-1.5,117.5-19.4
			l48.6-13.3L178,16.1c1.7,6.6,19.2,67.9,74.4,66.8c38.3-0.8,70-34.6,85.9-56.5c-5.1-15.5-7.9-34-5.3-54L311.5,1.3l-39.1-29.1
			c-35.2-26.2-86.3-91-54.7-167.4c13.8-33.3,43.4-56,83.4-64c24.4-4.9,52.2-3.7,78,1.9c10.1-32.5,28.6-71.8,62.2-107l35.4-37
			l35.3,37.1c33.5,35.2,51.9,74.6,62,107.1c25.8-5.6,53.5-6.6,78-1.7c40,8,69.5,30.8,83.2,64.2c31.4,76.5-19.9,141.2-55.1,167.3
			l-39.2,29l-21.5-28.8c2.6,20-0.2,38.5-5.4,54c15.8,21.9,47.5,55.8,85.8,56.7c55.2,1.2,72.8-60,74.7-67l12-48.9
			c-0.1,0.4,48.5,13.8,48.5,13.8c65.2,18.1,111.1,71.1,119.8,138.4C964,193.8,926.1,265.2,855.7,306.2"/>
		<path class="st0" d="M460.1,602.5c-5.9-28-21.3-67.8-39-114c-13-33.8-27.7-72.1-41-111.8c-12.8-38.2-18-66.6-18-93.1
			c0-8.5,1-16.8,2-25.1c-49.1,33.7-145.9,79.8-251.5,18.1C54,242.3,22.5,183.5,30.4,123c7.1-53.8,43.8-96.1,95.9-110.4l15.5-4.2
			l3.8,15.6c1,3.8,24.2,93.9,107.4,92.2c67-1.3,110.7-66.5,122.6-86.5c-5.6-10.4-10.3-24.7-10.3-41.2c0-17.6,6-37.7,21.3-57.9
			c-6.1-8.3-16.1-18.4-27.8-19.4c-16.7-1.4-33.5,16.2-44.7,31.2l-9.4,12.5l-12.5-9.3c-25.6-19.1-67.7-70.4-43.9-128.1
			c9.5-23.1,30-38.3,59.1-44.1c30.1-6,68.2-0.5,95.2,11.8c5.2-30.5,20.1-82.1,62.5-126.4l11.3-11.9l11.3,11.9
			c42.4,44.5,57.1,96.1,62.2,126.6c27.1-12.2,65.1-17.6,95.3-11.5c29.1,5.9,49.5,21.2,59,44.2c23.7,57.8-18.5,109-44.2,128
			l-12.5,9.3l-9.3-12.5c-11.2-15-28-32.6-44.7-31.2c-11.7,1-21.7,11.1-27.8,19.3c15.2,20.1,21.2,40.1,21.2,57.7
			c0,16.6-4.7,31-10.4,41.4c11.8,20,55.4,85.3,122.4,86.8c83.2,1.9,106.7-88.1,107.6-92l3.9-15.6l15.5,4.2
			c52.1,14.4,88.7,56.8,95.7,110.6c7.8,60.5-23.8,119.3-82.5,153.4c-105.8,61.5-202.5,15.1-251.5-18.8c0.9,8.1,1.9,16.2,1.9,24.4
			c0,26.8-5.2,55.7-18.1,93.8c-13.4,39.7-28.2,77.9-41.3,111.6c-17.9,46.1-33.3,86-39.3,113.9l-15.4,71.8L460.1,602.5"/>
		<path d="M476.6-330.6c59.9,62.9,60.6,142.3,60.6,142.3c26.5-26.4,129.5-44.1,152.6,12.2c25.3,61.8-39,109.5-39,109.5
			c-62.4-83.6-104.2-1.8-104.2-1.8c47.5,51.3,11.9,97.6,11.9,97.6c3.1,9.3,55.8,101.2,140.1,103.1c97.2,2.2,123.1-103.8,123.1-103.8
			c101.9,28.2,121.6,170.3,9.4,235.5c-142.3,82.7-266.3-43.3-266.3-43.3c11.5,47.2,14.8,82.4-8.4,151.3
			c-31.5,93.4-70.2,176.9-81,227.3c-10.7-50.4-49.2-134-80.5-227.5c-23.1-69-19.7-104.2-8.1-151.3c0,0-124.3,125.7-266.3,42.7
			c-112-65.5-92-207.4,10-235.5c0,0,25.7,106.1,122.9,104.1c84.3-1.7,137.2-93.5,140.3-102.7c0,0-35.5-46.4,12.1-97.6
			c0,0-41.7-81.9-104.2,1.5c0,0-64.3-47.9-38.8-109.6c23.2-56.2,126.2-38.3,152.6-11.8c0,0,0.9-79.4,60.9-142.1"/>
		<path class="st1" d="M475.6,533.1l-0.2-1.3v1.3c0,0-9.1-46.6-53.6-162.4c-44.5-115.8,5.2-212.5,9.4-234c0,0-95.3,131.3-211,131.1
			C104.3,267.6,7.9,135.9,114.9,58.1c0,0,31.3,97.2,139.2,97.4c79.4,0.2,158.9-85,162.2-127.2c0,0-36.3-51.3,14.2-94.2
			c0,0-54.6-114.8-130.2-32.1c0,0-58.2-72.8,17.9-90.4c60.4-14,119.8,47.3,119.8,47.3s-6.5-96.7,38.2-149.6v0.5l0.2-0.5
			c44.6,53,37.9,149.7,37.9,149.7s59.6-61.1,120-47c76,17.8,17.7,90.5,17.7,90.5c-75.5-82.9-130.3,31.8-130.3,31.8
			c50.4,43.1,13.9,94.3,13.9,94.3C539,70.7,618.3,156,697.7,156c107.9,0,139.5-97.1,139.5-97.1c106.8,78.1,10.1,209.7-105.7,209.5
			c-115.8-0.1-210.7-131.6-210.7-131.6c4.1,21.5,53.6,118.3,8.8,234C484.7,486.5,475.6,533.2,475.6,533.1L475.6,533.1z"/>
	</g>
</g>
</svg>
