<?xml version="1.0" encoding="utf-8"?>
<!-- Generator: Adobe Illustrator 21.1.0, SVG Export Plug-In . SVG Version: 6.00 Build 0)  -->
<!DOCTYPE svg PUBLIC "-//W3C//DTD SVG 1.1//EN" "http://www.w3.org/Graphics/SVG/1.1/DTD/svg11.dtd">
<svg version="1.1"
	 id="Layer_1" xmlns:cc="http://creativecommons.org/ns#" xmlns:dc="http://purl.org/dc/elements/1.1/" xmlns:rdf="http://www.w3.org/1999/02/22-rdf-syntax-ns#"
	 xmlns="http://www.w3.org/2000/svg" xmlns:xlink="http://www.w3.org/1999/xlink" x="0px" y="0px" width="300px" height="175.8px"
	 viewBox="0 0 300 175.8" style="enable-background:new 0 0 300 175.8;" xml:space="preserve">
<style type="text/css">
	.st0{fill:#FFFFFF;}
	.st1{fill:#203731;}
	.st2{fill:#203731;fill-opacity:0.941;}
</style>
<g transform="matrix(1.25 0 0 -1.25 -286 551)">
	<g transform="matrix(.25 0 0 .25 228 297)">
		<g>
			<path class="st0" d="M899.6,429.5c-42.5,42.5-102.1,78.4-172,104.2c-74.5,27.1-157.8,41.5-243,41.5
				c-117.1,0-238.3-31.1-331.4-85.1C57.8,434.9,3.2,363.9,3.2,294.4c0-44.5,22.3-90.3,64.4-132.4c43.1-42.9,103.7-79.9,175.2-106.5
				c75.4-28.1,159.4-42.9,239.9-42.9c84.1,0,167.3,14.4,243,41.7c70.5,25.7,130.4,61.9,172,104.2c42.9,42.9,65.5,90,65.5,136
				s-22.7,93.1-65.5,136"/>
			<path class="st1" d="M937.5,293.8c0,122.8-200.4,254.1-452.9,254.1c-241.5,0-452.9-132.3-452.9-254.1
				c0-122,211.5-254.1,452.9-254.1C737,39.7,937.5,171.2,937.5,293.8"/>
			<path class="st0" d="M659.7,426.4v-26.7h42.6l0.3,0c2.3,0.2,6-0.4,6.8-1.8c0.8-1.3,0.5-5.9-5.4-15.1c-0.1-0.1-41-68.2-56.2-93.6
				l-60,95.8c-5,7.6-4.4,10.7-3.8,11.8c1.1,2,2.7,2.6,6.2,2.8h0.1c0,0,0.2,0,0.2,0h30.6v26.7l-230.4,0v-26.7h29.2
				c6,0,10-1.2,12.5-3.6c4.1-4.1,4.9-12.7,4.9-24.5v-98L320.7,426H205.5v-27.9h37.9c4,0,6.8-0.7,8.3-2.3c2.9-2.9,2.9-10.3,2.9-17.5
				l0-153.9c0-25.4-2.7-32.5-12.7-32.5h-36.8v-24.6h123.6v24.9h-34.9c-5.9-0.1-10.1,0.2-11.6,1.7c-3.3,3.2-3.5,17.5-3.5,30.6V360
				l159.4-192.5H463c0,0,0.2,214.6,0,217.8c-0.3,5.8,1.3,12.5,11.7,13.8h24.8c11.5,0,18.9-13.8,26.7-27c0,0,59.7-101.3,67.5-114.7
				v-48.9c0-16.6-7.4-16.6-10.5-16.6h-27.9v-24.9h146.6V192h-26.8c-10.4,0.6-14,3.6-13.6,18.9v50.5L733,381.5
				c10.3,15.9,11.3,17.5,25.4,17.4h24.3v26.8H660.1"/>
			<path class="st1" d="M666,418.5v-13.4h35.7c0,0,26.4,2.2,7.7-27.1l-61.7-102.7L582,380.3c-17,27,8.4,24.8,8.4,24.8h24v13.4
				l-217.8,0v-13.3H419c21.6,0,24.1-13.9,24.1-34.7V252.8L316.4,418.5H211.2v-14.6h31.2c19.9,0,17.7-15.6,18-30.9V223.7
				c0-20.8-0.9-39.1-19.4-39.1h-30.1v-11.3H321v11.6h-28.2c-18.9-0.1-21.8,2.7-21.8,39v155.6l168.9-206.7h13.8v198.8
				c0,20.8,0.4,32.4,19.7,33.1h27.5c14.6-1.1,22.4-18,32.8-35.8L599.2,258v-50.7c0-15.8-6.2-23.2-17.2-23.2h-21.3v-11.6H694v11.8
				h-20.4c-16.3,0.8-20.5,9.2-20,25.7v52.1L721,376.1c15.1,22.6,15.9,28.6,36.3,28.2h17.5v13.5H665.6"/>
		</g>
		<path class="st2" d="M587.1,170.7c0,30.1-45.6,62.5-102.6,62.5c-54.6,0-102.6-32.5-102.6-62.5s48-62.5,102.6-62.5
			C541.5,108.2,587.1,140.6,587.1,170.7"/>
		<g>
			<path class="st0" d="M579.2,173.9c-3.4,25.7-44.7,52.2-95.8,52.2c-48.9,0-92.2-26.5-95.6-52.2h191"/>
			<path class="st0" d="M388.3,167.6c3.5-25.7,46.7-52.2,95.6-52.2c51.1,0,92.5,26.4,95.8,52.2h-191"/>
			<path class="st1" d="M449.8,148.6c-13,0-23.5,10-23.5,22.3c0,12.3,10.5,22.3,23.5,22.3h69.3c13,0,23.5-10,23.5-22.3
				c0-12.3-10.5-22.3-23.5-22.3H449.8"/>
			<path class="st0" d="M522.4,180.2c-0.1,0.7-0.3,1.3-0.5,2l-6.5,0c0.2-0.7,0.4-1.4,0.6-2.1c0.5-2.1,0.9-4.2,1.1-6.5h-11.7
				c-0.2,2-0.5,4.1-1,5.9l-6.3-0.1c0.6-1.9,1-3.9,1.2-5.9h-11.8v5.6h-6.6v-5.6h-11.8c0.2,2,0.6,4,1.2,5.9l-6.3,0.1
				c-0.5-1.9-0.8-3.9-1-5.9h-11.7c0.2,2.2,0.6,4.4,1.1,6.5c0.2,0.7,0.4,1.4,0.6,2.1l-6.5,0c-0.2-0.6-0.3-1.3-0.5-2
				c-0.7-3.3-1.1-6.6-1.1-10.1c0-4,0.5-8,1.5-11.7l6.5-0.1c-0.9,2.8-1.4,5.7-1.7,8.7H463c0.2-2.1,0.5-4.2,1-6.1l6.2,0.1
				c-0.6,1.9-1,4-1.2,6.1h11.9v-5.8h6.6v5.8h11.9c-0.2-2.1-0.6-4.1-1.2-6.1l6.2-0.1c0.5,2,0.8,4,1,6.1h11.7c-0.2-3-0.8-5.9-1.7-8.7
				l6.5,0.1c1,3.8,1.5,7.7,1.5,11.7C523.5,173.5,523.1,176.9,522.4,180.2"/>
			<path class="st1" d="M782.8,338c-6.8,12.8-24.8,20.2-51.9,21.1c-19.9,0.7-35.5-0.4-48-3.6l-326.7-0.1l16.7,31.1h-80.5l-55.2-104
				c-4.5-6.6-5.1-6.9-9.7-6.5c-1.3,0.1-2.2,0.3-2.8,0.5c0.8,2.9,4.1,8.4,5.3,10.4c0-0.1,19.3,31.7,19.3,31.7h-75l-2.2-3.1
				c-22.3-28.4-28.2-52.1-19.7-67.9c8.3-16.1,28.6-24.1,60.3-24c32,0.2,52.1,1.7,68.2,12.2h162.6l42,78.3h36.1l-41.7-78.1h83
				l26,48.9h35.2l-1.8-4.5c-6.4-15.8-3-26.2,1.1-32.2c7.9-11.7,24.8-17.7,50.2-17.7c42.9,0.1,70.2,4,83.5,24
				c10.8,16.4,12.5,31.6,4.6,42.3c-2.2,3-5.6,5.7-9.7,8h23.7l2.2,3.6c8.3,13.4,6.2,23.5,3,29.5"/>
		</g>
		<path class="st2" d="M763.9,297C763.9,296.9,763.9,296.9,763.9,297c0-0.1,0.1-0.1,0.1-0.1L763.9,297"/>
		<g>
			<path class="st0" d="M235.2,311.2h-57.8c-38.8-53.5-19.7-80.3,36-80c50.8,0.3,68.7,3.6,89.8,42.3l56.5,105.7h-63.4l-53.3-100.4
				c-5-7.3-7.8-11-16.9-10c-14.4,1.5-10.5,9.9-3.2,22.3l12.3,20.4"/>
			<g>
				<path class="st0" d="M494,243.3h66.1l41.7,77.5h30.5l14.6,27H513.2l-14.3-26.4h36.9l-41.7-78.1"/>
				<path class="st0" d="M631.3,278c-10.1-24.8,5.2-39.6,44.3-39.6c42.5,0.1,66.3,4,77.2,20.7c7.4,11.3,11.7,24.3,4.8,33.8
					c-4.8,6.8-21.8,12.7-38,15.8c-10.3,2-13.9,4.5-13.2,10.6c0.7,5.5,7.5,6.8,12.7,5.3c4.2-1.2,6-6.4,5.3-11.8h49.1
					c13.3,21.5-2.1,37.7-42.8,39.3c-50.3,1.7-69.6-7.6-79.7-33.3c-5.1-11.9-4.2-21,3.2-25.9c9.2-6,34.7-9.9,42.3-12.7
					c4.6-1.7,5.3-7.4,2.6-10.7c-3-3.8-10.2-5.6-14.8-2.1c-3.2,2.4-2.7,5.5-3.7,10.7h-49.1"/>
				<path class="st0" d="M314.1,243.3h126.4l14.2,26.4h-69.1l6.7,12.7h61.4l14.5,27h-57.8l5.8,12.2h62.5l14.1,26.4H370l-56-104.6"/>
			</g>
		</g>
	</g>
</g>
</svg>
