<?xml version="1.0" encoding="utf-8"?>
<!-- Generator: Adobe Illustrator 21.1.0, SVG Export Plug-In . SVG Version: 6.00 Build 0)  -->
<!DOCTYPE svg PUBLIC "-//W3C//DTD SVG 1.1//EN" "http://www.w3.org/Graphics/SVG/1.1/DTD/svg11.dtd">
<svg version="1.1"
	 id="Layer_1" xmlns:cc="http://creativecommons.org/ns#" xmlns:dc="http://purl.org/dc/elements/1.1/" xmlns:rdf="http://www.w3.org/1999/02/22-rdf-syntax-ns#"
	 xmlns="http://www.w3.org/2000/svg" xmlns:xlink="http://www.w3.org/1999/xlink" x="0px" y="0px" width="300px" height="318.7px"
	 viewBox="0 0 300 318.7" style="enable-background:new 0 0 300 318.7;" xml:space="preserve">
<style type="text/css">
	.st0{fill:#FFFFFF;}
	.st1{fill:#A5ACAF;}
</style>
<g transform="matrix(1.25 0 0 -1.25 -284.77 594.21)">
	<g>
		<path d="M351.4,309.6c0.1-0.1,0-0.2,0-0.2c0.1,0,0.2,0,0.2,0c-0.1,0,0,0.1,0,0.1C351.6,309.7,351.5,309.6,351.4,309.6"/>
		<path class="st0" d="M348.1,475.4c-32.6-29.5-75.1-28.6-118.8-23.2c-9.4-107,27.2-212.7,118.1-231.8
			c91.8,18.4,128,123.8,119.1,230.9C425.9,447.2,383.7,445.6,348.1,475.4"/>
		<path d="M347.9,464.9c-27.2-22.1-70-27.6-110.9-21.6c-6.1-97.6,25.7-193,110.1-215c84.5,21.5,117.2,116.5,111.6,214.1
			C417,437.8,375,442.7,347.9,464.9"/>
		<g>
			<path class="st0" d="M380.4,296.7c-1-3-2.5-6-3.4-7.3c0,0,1.3-2.3,1.7-4.5c6.6-5,13.8-9.8,32.2-5.3c-3.3,1-23.8,11.2-29.1,16.2
				L380.4,296.7"/>
			<path class="st0" d="M312.6,293.9c0,0,3.1-4.9,4.2-5.5c0,0,1.3-1.2,0.8-5.3c-7.4-5.5-25.5-7.8-34.7-4.2c0,0,22.1,8.7,28.3,14.2
				L312.6,293.9"/>
			<path class="st0" d="M369.9,295.6c-0.4-0.5-0.8-0.9-1.3-1.4c-0.2-0.2-0.3-0.4-0.5-0.6c-0.5-0.4-1-0.8-1.5-1.1
				c-0.6-0.4-1-1.3-0.5-1.8c0.4-0.4,1.2-0.8,1.7,0c0.3,0.4,0.9,0.5,1.2,0.8c1,0.9,1.6,2,1.9,3.3c0.1,0.5-0.3,0.7-0.6,1
				c0.1-0.4-0.4-0.3-0.4-0.5C369.9,295.4,369.9,295.5,369.9,295.6"/>
			<path class="st0" d="M323,294.3c0.5-1.5,1.8-2.1,2.1-2.7c0.6-0.9,0.9-1.9,1.4-2.8c-1-0.5-1.7-2.1-2.7-1.6c-0.5,0.2-0.6,1.3-0.9,2
				C322.2,290.9,323.3,292.4,323,294.3C323,294.3,322.9,294.3,323,294.3"/>
		</g>
		<path class="st1" d="M340.6,398.1c-11.1,0-22.6-2.8-26-13.4c0,0-5.8-21.4-5.5-24.7c-3.1-0.9-9.4-4-7.5-21c0,0,6.7-30.6,9.7-36.6
			l1.9-0.1c0,0,1.8,1.9,1.4-4.2c0,0-1-3.6,2.2-5.7c0,0,1.3,5.1,2.1-2.6c0.2-7.5,2.5-15.4,13.5-23.2c0,0,5.2,3.3,5.7,3.6
			c0,0-7.6,2.9-11.6,7.3c0,0,1.1-5.3-3.3,0.7c0,0-2.1,2.1-3.3,16c0.1,1.9-0.2,2.2-1.7,4.3c-6.1,12.3-10.9,40.8,0.5,51.3
			c12,0.8,40.6,1.4,51.3-0.6c4.4-1.1,6.5-2.5,7.5-10c2.1-9.5,0.7-28.6-4.3-43.9c0,0-0.7-3.3-2.5-4.9c-1.4-0.8-6.6-4.4-9.1-9.8
			c-0.9-1.9-3-3.7-6.4-5.2c-3.4-2-16.1-5.3-11.1-10.8c0,0-1.4-0.7-4-1.4c0,0,0.7-3.1,2.1-2.6c0,0,2.5,1,3.5,2.6
			c7.4-0.9,17,0.8,22.8,6c2.3,1.5,6.6,3.6,7.1,7.6c0,0,2.5,4.6-1.6,12.3c1.5,2.7,4,7.8,3.7,11.8c0.1,0.2,13,15,14.6,35.3
			c0,0-1.8,12-1.3,0.6c0,0-0.2-2-1.3-7.8c0,0-2.4-8.9-1.1-0.4c0,0,0.5,13.5-1.1,25.5c0,0-0.4,4.5,2-2c0.3-1.2-0.4,1.5-0.4,1.5
			s1.2-8.2,1.5-2.4c-1.5,6.8-1.9,8.5-3.9,9.2c-1.3,10.1-5,19.8-5,19.8l-0.9-1.1c3.4-9.5,5.6-41,4.8-50.1c0,0-2.2-17.8-4.1-16.6
			c0,0,3,30.1,1.7,41.3c-0.6,14.2-2.7,17.6-3.5,23.2c0,0-4.5,11.7,0.2,5.4l0.6,0.4c-4,10.2-10,15.2-28.1,15.5l2.5-44.3l-16.3-0.1
			L340.6,398.1"/>
		<path class="st0" d="M320,340.3c-0.1,0,3.6,0.6,3.6,0.6c4,0,13.5,0,15.5-0.8c1-0.4,2.9,0.5,3.8,0.9c3.4,1.3,3.8,1.6,7.4,3.8
			c0.6,0.3,4.8,2.9,4,3c-9.8,1.1-29.8,1-33.7-0.2c0,0-1.7-0.3-2.1-0.8c-1.9-2.1-1.5-2.2-2.8-5.1c0.8,1.9-0.4-2.4-0.6-2.7
			c-0.3-1.1,1.5-1,1.9-0.5C317.7,339.4,317.9,340.5,320,340.3"/>
		<path class="st0" d="M374.7,310c-0.4-2.1-0.7-4.3-1.4-6.3c-0.7-1.9-1-3.1-3.3-5.1c-0.5,4-1.6,6.1-1.4,7.6
			c-1.6-0.6-1.3-2.9-1.5-5.1c-0.3-3.4,0.7-5.9,0.4-4.9c0.1-0.5-1.2-1.4-1.6-2.1c-1.4-2.3-3.1-4.4-5-6.3c-0.3-0.3-0.4-0.8-0.7-1
			c-1.1-0.5-1.4-1.2-2-1.9c-0.5-0.6-1.9-1.1-2.6-1.5c-0.4-0.3-1.8-0.6-2.2-0.7c-0.8-0.2-1.6-0.1-2.8-0.1c-1.2,0.1-2.8,1.5-4.1,1.9
			c-3.8,0.9-4.7-2.5-10.5-1.2c-2.4,0.5-2.9,2.1-4.4,3.8c-0.3,0.3-1.7,2.1-2,2.3c0.6-0.7-4,3.7-4.9,7.1c-1,3.8-0.5,4.1,0,7.2
			c0.2,1.2-0.1,4.2-1.2,4.4c-1-1.1-0.3-1.8-0.6-3.3c-0.3-1.5,1.1-1.5,0-4.9c-0.3-1-0.8-0.7-1.1-0.1c-1.1,2.4-0.5,7.5-3,9.5
			c-0.6,0.5-0.6,1.8-0.1,2.2c0.8,0.6,1.5-0.3,2.5-0.1c0.2,0,0.1,1.2-0.1,1.4c-0.8,1-2.6,0.6-2.6,0.7c0.2,1.9,0.2,3.7-0.5,4.6
			c-0.9,1.3-2.2,1.5-2.8,2.8c-1.1,2.7-0.8,4.2-0.9,4.9c-0.1,0.9-0.4,2.5-0.1,3.5c-0.3-0.1-0.2,2.2-0.2,2.4c0.2,1.7,0.5,1.6,0.7,3.2
			c0.1,1,2.4,1.5,2.5-0.7c-0.6-2.9,0.3-5.2,0.4-8.2c0-0.4,0.6-0.7,1-0.8c6.5-1.9,11.3-1.1,17.7-1c1.7,0,2.8,2.2,3.1,3.9
			c0.6,2.8,0.6,3.7,0.6,6.8c0.3,0.8,1.1,0.6,1.7-0.1c1.1-1.3,0.2-1.7,0.5-3.4c0.2-1.3-1.4-3.1-1.4-3.1c0.2,0-0.5-4.3-0.4-4.3
			c0.3,0-0.2-3.8-0.3-3.7c-0.2-2.1,1.2-1.3,1-2.8c0-0.7-0.4-1.7-0.4-1.8c0.2-1.4-2.9-1.1-2.4-1.1c-0.7,0-1.2,0.3-1.2,0.9
			c0,0.8-0.2,1.4-0.2,2.1c-1.5,0.1-0.9-1.1-1-2.7c0-0.7,0.4-1.3,1.6-1.5c1.2-0.2,1.4-0.3,1.9,0c0.3,0.2,1.3,0.4,1.4,0.9
			c0.6-2.3,1.3-2.6,2.9-2.5c0.7,0,2.3-0.3,3,1.4c0.2,0.4,1.3,0.3,1.4,0.8c2.9-0.6,1.1-1.7,4.6-0.6c1.1,0.3,1.9,1.9,1,3.1
			c-0.1,0.1-0.7,0.1-0.7,0.1c-0.4-3-1.6-2.1-2.7-2.1c-3.7,0.2-1.7,1.8-4.9,0c-0.4-0.2-1.5-1.7-2.9-0.5c-2,1.8,0.2,3,0.4,5
			c0.2,1.8,0.1,7.3,0.1,8.9c-0.2,3.8,0.8,1.5,1.4,3.1c-0.5-0.1-0.3,4.6-0.3,4.9c-0.3,1.7-2.3,1-2.8,1.7c0,0-0.2,1.3,0.1,1.4
			c2.2,0.4,5.1,1.7,7.1,2.7c4.7,2.3,7.4,3.8,9.7,5.2c0.7,0.4,1,1.3,1.3,1.3c4.3,0.1,8.5,0.9,12.3-1.2c2.7-1.5,3.3-2.9,4-5.5
			c-0.3,0,0.3-2.7,0.3-2.9c0.1-1.7,0-4.7,0-5.5c0.1-5.5,0.4-7.4-0.3-11.1c0,0-0.6-1.4-0.8-1.3c-0.5-0.7-1.2-1.7-2.2-2.4
			c-0.3-0.2-0.2-1.1,0-0.9c0.6,0.4,1.7,0.6,2.5,1C375.5,315.3,375.2,312.6,374.7,310"/>
		<g>
			<path d="M367.2,336.3c0.1,0-1.5,1.2-2.8,2c-0.6,0.3-3.2-1.4-3.8-1.5c-2.7-0.3-4.2-0.4-7-0.5c-0.7,0-1.7,0-2.1,0.6
				c-0.3,0.4-0.2,1.2,0.1,1.5c0.8,1.1,2.5-0.8,3.5,2c0,0,3.2,0.1,4.1,0.2c3.3,0.2,8.2,0.1,7.8-0.3c0.4,0.4,1-1.4,1.7-1.9
				c1.2-0.9,0.9,0.3,1.5-1.5c-0.4,0.4,0.3-1.1,0-0.7c0-0.2-0.2-1-0.3-1.1c-0.1-0.1-1.3,0.3-1.5,0.4
				C368.3,335.6,367.1,336.3,367.2,336.3"/>
			<path d="M351.2,334.1c1.9,1.1-1.5,1.5-0.9-1.9c-0.1,0.3,0.6,0.1,0.7,0.3C351.2,332.7,351.2,333.5,351.2,334.1"/>
			<path d="M349.3,326.6c0.4-2.2,0-1.9-0.2-4c-0.2-1.9,1.4-2.3,1.4-0.2C350.5,330.3,350,328.1,349.3,326.6"/>
			<path d="M371.3,315.2c-0.2-0.4-0.5-0.5-0.8-0.7c-0.3-0.2-0.6-0.6-0.4-0.9c0.1-0.2,0.4-0.3,0.6-0.3c0.2,0,0.5,0.3,0.5,0.5
				C371.4,314.3,371.3,314.8,371.3,315.2"/>
			<path d="M351.4,318.1c0.3,0,0.5,0.2,0.5,0.5c0,0.3-0.2,0.5-0.5,0.5c-0.3,0-0.5-0.2-0.5-0.5C351,318.4,351.2,318.1,351.4,318.1"/>
			<path d="M368.9,331.3c-0.7-0.4-1.3-0.3-2-0.7c1.1,0.6-5.8,1-3.2,0.7c-1.8,0.2-3.3,0.6-5.2,0.6c0,0.1-0.4-0.3-0.4-0.2
				c-1-0.2-1.4,0.5-2.2,1c-0.5,0.3-0.9,0-1.4,0c0.1,0.2-0.2,0.3-0.1,0.4c0.1,0.2,0.4,0.3,0.6,0.3c0.8,0.1,1.8,0,2.6,0.3
				c2.8,1,4.9-0.4,7.8-0.3c0.9,0,2.1,0.2,3-0.4c0.2-0.1,0.2-0.4,0.3-0.5c0.4-0.3,1-0.1,1.3-0.3C370.3,331.8,369.4,331.5,368.9,331.3
				"/>
			<path d="M366.2,327.3c-0.2,0-0.2,0.3-0.4,0.3c-1.6,0-3.1,0.4-4.5,1.1c-0.5,0.2-1-0.2-1.5-0.2c-0.7-0.1-1.4,0.2-2,0
				c-0.4-0.2-0.8-0.8-0.5-1c0.6-0.3,1.5-0.3,2.2,0.2c0.9,0.6,2,0.4,3,0.2c0.3-0.1,0.5-0.3,0.8-0.2
				C364.3,327.5,365.2,327.2,366.2,327.3"/>
			<path d="M355.9,329.9c0,0.2-0.4,0.2-0.3,0.4c-0.7,0.2-1.3-0.4-1.9-0.1c-0.4,0.1-0.6,0.5-0.9,0.7c0-0.5-0.2-1.3,0.2-1.5
				c0.9-0.4,1.9,0.8,2.9,0.2C355.9,329.7,355.9,329.8,355.9,329.9"/>
		</g>
		<path class="st0" d="M301.1,370.6l-6-5.9c0,0,5.3-8.2,5.9-8.5c1.1,2,2.9,4.8,5.3,5l0.4,3L301.1,370.6"/>
		<path class="st0" d="M278.9,394.3l3.2,0c4.2-4.7,14.6-18.3,14.6-18.3l-1.6-3.8c4.1,3.4,6.4,5.6,7.9,7.8c2.9,3.2,5.6,0.7,3.3-1.4
			c-1.5-3-8.9-9-13.7-13.2c-13.7-12.3-39.6,7.4-17.9,26.3L278.9,394.3"/>
		<path d="M274.7,387c2.4,2.9,4.5,1.3,2.6-0.4c-1.4-1.3,1.3-4.2,3-3.5c1.4,0.6,3.1-1.7,2.6-2.5c-1.1-2.2,1-4.5,2.6-3.7
			c0.9,0.4,2.7-1,2.1-2.3c-0.9-2,1-4.2,3.2-3.1c2.3,1.2,1-2,1-2C280.1,359.5,262.9,378.5,274.7,387"/>
		<path class="st0" d="M276,391.3c2.1-0.1,3.9,1.5,4,3.6c0.1,2.1-1.5,3.9-3.6,4c-2.1,0.1-3.9-1.5-4-3.6
			C272.3,393.2,273.9,391.4,276,391.3"/>
		<path d="M277.2,397.4c2.3-1.2,0.3-4.6-1.2-4.2c-1.6,0.4-0.4,0.7-0.4,0.7c1.5-0.2,2.9,2.2,1,3C275.9,397.2,277.2,397.4,277.2,397.4
			"/>
		<path class="st0" d="M413.5,394.1l-3.2-0.1c-4.1-4.8-14-18.7-14-18.7l1.7-3.8c-4.2,3.3-6.6,5.4-8.1,7.5c-3,3.1-5.6,0.5-3.2-1.5
			c1.6-2.9,9.2-8.7,14.2-12.7c14.1-11.9,39.4,9.8,17.1,28.1L413.5,394.1"/>
		<path d="M418.3,388.5c-2,2.1-3.6,0.9-3-0.8c0.6-1.9-1.8-5.6-2.9-4.8c-1.6,1-3.2-1.6-2.6-2.6c1-1.6-0.9-4.7-2.5-3.8
			c-0.9,0.5-2.6-1.2-2-2.4c1-1.9-1.1-3.7-3.1-3.2c-2.5,0.6-0.9-2-0.9-2C413.4,359.4,430.4,380.4,418.3,388.5"/>
		<path class="st0" d="M416.6,392.5c-2.1-0.2-4,0.2-4.1,2.2c-0.2,2.1,1.4,5.1,3.5,5.3c2.1,0.2,3.9-1.4,4.1-3.4
			S418.6,392.7,416.6,392.5"/>
		<path d="M415.1,398.6c-3-1.7-0.8-4.8,1.3-4.2c1.6,0.4,0.4,0.7,0.4,0.7c-2.1-0.4-3.7,1.8-1.1,3
			C416.4,398.4,415.1,398.6,415.1,398.6"/>
		<path class="st0" d="M392.6,369.6c0.8-0.5,5.7-4.9,6.9-5.6c-0.7-3-5.5-12.3-6.6-14c-0.1,5.6-0.9,11.8-4,11.9l-0.6,2.3L392.6,369.6
			"/>
		<path d="M372.9,281.2c0.2,1.7-1.2,3.3-2.3,1.9c-0.6-0.7-0.6-2.1-1.3-2.7c-1.8-1.9-3-2.2-4.1-3.4c-1.2-1.2-1.5-2-0.4-3.7
			c0.1-0.1,0.3-1.8,1.5-2.7c1.5-1.1,3.6,0.1,5.8,2.9c0.5,0.6,0.4,1.5,0.5,2.2C372.9,277.5,372.6,279.3,372.9,281.2"/>
		<path d="M363.4,270.7c-0.1-4.6-6.9-6.4-9.6-4.9c-0.5,0.3-1.9,1.5-1.6,2.4c0.3,0.9,1.3,1.4,2,1.7c0.8,0.3,1.5,0,2.3,0.7
			c1.1,1,1.9,1.2,3.1,2.4c0.7,0.7,2.2,0.6,2.8,0.1C363.2,272.5,363.6,272.1,363.4,270.7C363.4,271,363.3,270.8,363.4,270.7"/>
		<path class="st0" d="M370.9,277.6c-2.9-1.9-6.3-3.6-3.1-5.3c0.8-0.4,2.9,1.1,3.4,2.8C371.2,275,371,277.7,370.9,277.6"/>
		<path class="st0" d="M361.1,268.6c-0.5-0.4-2.3-1.3-2.1-1.2c-1.2-0.7-2.6-1.1-4-0.8c-1.2,0.2-0.7,1.3-0.5,1.3
			c3.5,0.5,4.2,2.5,6.4,3.3c0.7-0.2,0.8-1.1,0.7-1.4C361.6,269.6,361.4,269,361.1,268.6"/>
		<g>
			<path d="M334.7,310.3c-0.9-1.1,0-1.3-2.1-3.4c-0.6-0.6-1.7-1-2.3-1.8c-0.1-0.1-0.1-0.6-0.1-1c1.4-0.4,3.8,0.6,6.4,0.7
				c1.6,0,3.1-0.5,4.7-0.8c2.8-0.6,5.4,0,8.7,0.2c4,0.2,4.8-0.7,6.1-0.6c2.5,0.3,4,1.5,2.9,1.2c0.3,0.1-2.1-0.2-1.9,0.1
				c-0.7,0.1-1.1-0.3-1.7-0.3c-1.4-0.2-2.7-0.1-4.2,0.4c-2.1,0.7-4.4-0.3-6.6-0.3c-3.6,0-7.6,1.3-12,0.8c-0.4,0,3.7,3.3,3.3,2.9
				c1.2,1.5,1.4,3.5,1.7,2.8C337.6,311.4,336.5,312.5,334.7,310.3"/>
			<path d="M339.5,298.8c3.1,0.3,8.8-1.3,11.5-0.3c0-0.3,2.3,0.7,2.2-0.4c-0.1-1.5-3.8-1.2-4.8-1c-2.7,0.6-3.6-0.2-9.2-0.1
				c-0.2,0-2.8-0.4-3.5,1.6C335.6,299.1,337.2,299.2,339.5,298.8"/>
			<path d="M357.7,308.4c-0.3-0.7,0.4-1.2,0.8-0.8c0.3,0.3,0.2,1.1-0.4,1.3C358.2,308.5,357.8,308.6,357.7,308.4"/>
			<path d="M356.5,309.8c-0.3,0.2-0.6,0.4-0.8,0.5c-1,0.2-1.7,0.8-2.7,0.9c-0.2,0-0.3,0.5,0.1,0.7c0.6,0.3,1.3,0,1.9-0.2
				c0.8-0.3,0.9-1.3,1.6-1.7c0.2-0.1,0.7-0.2,0.6-0.5c-0.1-0.3-0.7-0.2-0.8,0.3C356.4,309.8,356.5,309.8,356.5,309.8"/>
		</g>
		<g>
			<path class="st0" d="M359.4,305.7c0.2,0,0.4,0.2,0.4,0.5c0,0.3-0.2,0.5-0.4,0.5c-0.2,0-0.4-0.2-0.4-0.5
				C359,306,359.2,305.7,359.4,305.7"/>
			<path class="st0" d="M420.3,419.3c2.2-1.5,3.9-2.3,5.6-2.3c1.2,0,1.8,0.4,1.8,1.2c0,1-1.1,1.2-3,1.6c-3.8,0.8-5.8,2.9-5.8,6.2
				c0,4.7,3.7,8.2,9.4,8.2c2.6,0,5-0.7,7.6-2l-2.5-5.9c-1.6,1.2-3.2,1.8-4.6,1.8c-1.1,0-1.8-0.4-1.8-1.1c0-1.1,1.5-1.3,4.2-1.9
				c3-0.7,5-2.9,5-6c0-4.8-3.8-8.4-9.7-8.4c-2.9,0-5.9,0.8-8.8,2.5L420.3,419.3"/>
			<path class="st0" d="M268.5,423.4h1.3c1.5,0,2.4,0.8,2.4,2.2c0,1.4-0.8,2.2-2.4,2.2h-1.3V423.4z M260.6,433.6h10.1
				c6,0,9.1-2.8,9.1-7.6c0-3.2-1.7-5.4-4.3-5.7l6-9.1h-9l-3.9,7.4v-7.4h-7.9V433.6"/>
			<path class="st0" d="M301.4,419.5l-0.7,2.5c-0.3,1.2-0.8,2.8-0.9,4.9h-0.2c-0.1-2.2-0.6-3.7-0.9-4.9l-0.7-2.5H301.4z
				 M295.4,433.7h9l7.8-22.4h-8.7l-0.7,2.8h-6.1l-0.7-2.8h-8.7L295.4,433.7"/>
			<path class="st0" d="M319.4,411.1h8.2v22.4h-8.2V411.1z"/>
			<path class="st0" d="M349.2,422.3c0,2.9-1.6,4.3-4.9,4.3H344V418C347.5,418,349.2,419.3,349.2,422.3z M337.1,433.6h6.5
				c3.9,0,6.8-0.4,8.9-1.4c3.9-1.9,6-5.6,6-9.8c0-3.7-1.7-6.9-4.6-9c-2.9-2-6.4-2.2-10.9-2.2h-5.9L337.1,433.6"/>
			<path class="st0" d="M366.1,433.6h15v-6.1H374v-2.2h6.4v-5.7H374v-2.4h7.3v-6.1h-15.2V433.6"/>
			<path class="st0" d="M398.3,423.4h1.3c1.5,0,2.4,0.8,2.4,2.2c0,1.4-0.8,2.2-2.4,2.2h-1.3V423.4z M390.4,433.6h10.1
				c6,0,9.1-2.8,9.1-7.6c0-3.2-1.7-5.4-4.3-5.7l6-9.1h-9l-3.9,7.4v-7.4h-7.9V433.6"/>
		</g>
	</g>
</g>
</svg>
