<?xml version="1.0" encoding="utf-8"?>
<!-- Generator: Adobe Illustrator 21.1.0, SVG Export Plug-In . SVG Version: 6.00 Build 0)  -->
<!DOCTYPE svg PUBLIC "-//W3C//DTD SVG 1.1//EN" "http://www.w3.org/Graphics/SVG/1.1/DTD/svg11.dtd">
<svg version="1.1"
	 id="Layer_1" xmlns:cc="http://creativecommons.org/ns#" xmlns:dc="http://purl.org/dc/elements/1.1/" xmlns:rdf="http://www.w3.org/1999/02/22-rdf-syntax-ns#"
	 xmlns="http://www.w3.org/2000/svg" xmlns:xlink="http://www.w3.org/1999/xlink" x="0px" y="0px" width="300px" height="206.5px"
	 viewBox="0 0 300 206.5" style="enable-background:new 0 0 300 206.5;" xml:space="preserve">
<style type="text/css">
	.st0{fill:#FFFFFF;}
	.st1{fill:#004C54;}
	.st2{fill:#FFFFFF;stroke:#FFFFFF;}
	.st3{fill:#A5ACAF;}
</style>
<g transform="matrix(1.25 0 0 -1.25 -285.85 559.43)">
	<g transform="matrix(.25 0 0 .25 228.68 296.3)">
		<path class="st0" d="M559.3,556.1l-46.8-49c76.7,31.9,243.8,86.5,243.8,86.5l-53.6-52.4C848.9,584.5,960,605,960,605
			s-32.2-74.9-80.3-149.9c9.3,1,70,8.1,70,8.1s-54.7-90.6-117.8-155.9l35.3-8.8c0,0-55.1-79.4-127.7-144.1
			C635,61.2,581.2,75.5,581.2,75.5c-77.6-56.2-139.8-27.7-139.8-27.7s26.9,67.8-0.9,75c-25,6.5-63.1-13.1-67.8-20.9
			C367.8,84.8,347,41.3,325.5,15c-41.2-50.4-86.9-71-86.9-71s-36,30.7-36.2,83c0,0-24.7-26.2-65-34.7c-28.2-6-66.6-1.1-106,31.8
			C5.1,46.1,0,120.3,0,120.3s24.8,47.5,72.8,89.1c-10.6,9.1-17.1,20.5-19.1,27.6C181,292.6,181.1,345.6,282.4,410.2
			C382.1,473.7,444.8,503,559.3,556.1"/>
		<path class="st1" d="M497.2,511.1l-40-41.9c79,35,245.9,91.8,245.9,91.8l-48.4-47.4c171.1,53,279.7,70.9,279.7,70.9
			s-35.5-79.1-82.7-146.2c22.9,2.2,70.5,7.7,70.5,7.7s-47.7-79.9-118.1-147.5c7.8-1.1,39.8-8.4,39.8-8.4s-42.5-63-116.3-127.7
			c-94.3-82.5-136.1-72.8-136.1-72.8s0.9,3.2,0.8,8.2c-0.1,2.8-0.7,5.3-0.7,5.5C519.1,35,458.6,58,458.6,58s26.8,65-14.3,78.1
			c-31.9,10.2-80.7-15.9-84.6-29.9c-4.2-15.2-24.5-57.4-44.6-82.1c-34.8-42.9-73.4-62.5-73.4-62.5s-35.1,27-22.9,105.9
			c2.7,17.2-0.8,23.9-2.6,26.8c-5.8,8.8-50.6-0.8-61.6-25.8c-7.7-17.7,36.9-32.6,36.9-32.6s-20.6-22.7-56.5-30
			c-22.6-4.6-57.6-3.2-94.4,28.7c-21.8,18.8-26.3,82.6-26.3,82.6s26.9,49.2,79.2,91.7c-10.3,6.8-18.2,18.2-20.2,22.7
			C178.7,277,193.2,341.2,312.3,413C367.8,446.4,426.2,479.4,497.2,511.1"/>
		<g>
			<path d="M777.5,289.4c4.2-0.9,21.6-4,31.2-8c-36.2-58.8-144.5-174.1-205-178.9c-0.7,10.1-4.6,18.8-9.4,24.7
				c-22.7-41.5-92.1-67-120.8-60.3c35,128.1-113.4,79.3-124.7,44.1C319.2,19.7,244.2-23.2,244.2-23.2s-24,27.3-13.7,88.8
				c7.6,45.3-21.1,43.9-21.1,43.9c-11.4,0.5-54.8-4.7-68.5-35c-11-24.4,27.6-41.5,27.6-41.5S112.8-11.6,48.3,43.6
				c-15.8,13.5-21.7,70.7-21.7,70.7c31,51.4,71.9,84.2,88.9,96.3c-18,6.9-23.6,16.2-23.6,16.2c86.6,39.7,120.6,105.8,194.4,154.8
				c81.3,54.1,143.5,80.6,143.5,80.6l-23.5-29.6c0,0,19.7,8.4,28.2,12.6c77.4,38,208.5,79.4,208.5,79.4l-40.9-39.6
				c0,0,67.8,23.2,153.2,41.5c45.5,9.7,140.5,29.7,140.5,29.7s-22.3-65.6-69.8-132.3c28.7,2,59.5,3.7,59.5,3.7
				S852.5,361,777.5,289.4"/>
			<path d="M425.2,378.4c-1-0.3-1.9-0.7-2.9-1c0.8,0.3,1.7,0.6,2.6,0.9C425,378.3,425.1,378.4,425.2,378.4"/>
			<path d="M421.8,377.2c0.2,0.1,0.3,0.1,0.5,0.2C422.1,377.3,422,377.3,421.8,377.2"/>
		</g>
		<path class="st2" d="M523.9,223.8c0,0-41.4,20.1-106.8-1.2c0,0,90.1,53.4,204.2,30.7c-74,24.9-140.7,13.1-180-0.2
			c-23.1-8.9-36.8-16.3-36.8-16.3s5.8,4.2,16.6,10.6c26.7,19.7,63.4,40.9,99.7,55.9c25.2,10.4,75.4,23.8,95.8,25
			c0,0-52.5,8.9-100.4-3.2c0,0,75.8,29.6,149.4,31.2c24.6,0.6,81-2.4,81-2.4C665.3,378,581,382.8,523.5,374
			c-32.7-8.1-58.5-16.2-58.5-16.2s4.5,2.3,13.2,6c20.8,12.3,105.9,58.1,264.2,82.8c0,0-20.2,2.4-45,2.4c-25.3,0-75.1-8.5-75.1-8.5
			c36,16.5,104,32.4,188,40.5c0,0-128.4,15.2-283.7-33.5c-1.3-0.6-2.1-0.9-2.1-0.9s16.4,11.9,34.9,24.2
			c13.6,9.1,33.4,23.2,33.4,23.2s-79.7-19.1-187.6-70.3c-30.4-14.4-46.5-23-46.5-23c4.7,5.4,26.3,24.4,31.6,31.1
			c-80.1-39.3-109.3-65.3-156.9-115.7c-42.5-45-40.5-52.9-105-87.7c0,0,47.5-19.5,95.6,11.8c8.3,5.4,16.2,13,23.6,21
			c17,19.7,11.4,40,34,54.5c-3.2-7.5-8.5-17-9-26.8c10.8,14.9,32.3,34.6,56.1,48.9c60.7,36.2,100.9,42.4,100.9,42.4
			c-1.6-0.5-3.1-1.1-4.6-1.6c-82.9-34.5-96.5-79.5-96.9-84.3c-0.9-10.2,30,12.6,55.2,15.7c-26.6-9.4-49.3-32-60.4-58
			c-4.7-11-6.1-23.6-19.2-33.5c-3.7-3.4-8.5-6.7-15-9.6c-17.4-7.9-29.5-3.9-33.6-1.2c-2.5,1.6-4,4.4-4,4.4
			c8.4-2.4,19.9-0.3,30.4,6.3c7.7,4.9,13.5,11.3,16.6,17.9c0,0,0,0,0,0c1.7,3.5,4.8,10.3,0.2,19c-2.4,4.4-7.2,6.8-12.8,7.7
			c0.3,0.9,3.3,8.3,12.4,19.2c-12.4-8.9-20.4-19.6-24.5-24.4c5.8-0.7,10.9-3.4,13.7-8.1c5.6-9.3,0.4-22.6-11.6-29.8
			c-12-7.2-26.2-5.4-31.8,3.9c-0.7,1.2-1.2,2.4-1.6,3.7c-0.6-0.4-1.3-0.7-1.9-1.1c-3.8-1.9-11.3-5.2-11.3-5.2
			c3.6-0.8,8.4-1.2,11.4-0.6c1-13.1,9.2-34.3,55.5-22.3c-13.2-13-45-12.1-64.3-2c2.6-2,5.7-4,9.3-6.3c58-36,124.8-2.1,141.1,7.3
			c4,2.6,8,4.9,12.1,6.9c0,0-16.9-14.9-28.4-38C385.7,191.7,444.7,233.4,523.9,223.8"/>
		<path class="st3" d="M311.8,281c2.2-8.6,17.1,0.3,17.1,0.3s-20.1-17-28.2-35.4c0-1,0-4.7-2.6-9.9c2-0.5,4-0.7,5.7-0.6
			c5.2,0.6,11.3,4.2,11.3,4.2s0.1-10.9-11.5-21.5c13.1,9.8,14.5,22.4,19.2,33.5c11,26.1,33.8,48.7,60.4,58
			c-25.2-3.1-56.1-25.8-55.2-15.7c0.4,4.7,14,49.8,96.9,84.3c-0.9-0.3-2.9-1-3-1.1C345.8,348.8,305.9,303.8,311.8,281"/>
		<path class="st1" d="M280.1,246.2c3.9-6.6,0-16.1-8.8-21.4c-8.8-5.2-19.1-4.2-23.1,2.4c-0.6,1-1,2.1-1.2,3.2
			c-1.7-1.2-3.4-2.3-5.2-3.3c0.4-1.3,0.9-2.5,1.6-3.7c5.6-9.3,19.8-11,31.8-3.9c12,7.1,17.2,20.5,11.6,29.8
			c-2.8,4.7-7.9,7.4-13.7,8.1c-1.3-1.7-2.8-3.6-4.5-5.6C273.6,251.8,277.9,249.9,280.1,246.2"/>
		<path d="M271.4,224.8c8.8,5.2,12.7,14.8,8.8,21.4c-2.2,3.7-6.5,5.6-11.4,5.7c-3.4-4.2-7.4-8.8-12-13.3c-0.2-3.7,0.6-8.4,5.2-11.9
			c0,0-5.2-0.4-8.6,2.1c-1.9,1.4-2.8,3.1-3.1,4.1c-1-0.8-2.1-1.6-3.1-2.4c0.2-1.1,0.6-2.2,1.2-3.2
			C252.3,220.6,262.6,219.6,271.4,224.8"/>
		<path class="st0" d="M253.4,228.7c3.4-2.5,8.6-2.1,8.6-2.1c-4.6,3.5-5.4,8.2-5.2,11.9c-2.1-2-4.2-3.9-6.5-5.7
			C250.6,231.8,251.4,230.2,253.4,228.7"/>
		<g>
			<path class="st3" d="M746.6,353.9c0,0-56.4,3-81,2.4c-73.6-1.6-149.4-31.2-149.4-31.2c47.9,12.1,100.4,3.2,100.4,3.2
				c-20.4-1.2-70.6-14.6-95.8-25c-36.3-14.9-73-36.2-99.7-55.9c42.8,25.4,164.4,85,318.8,52.1c0,0,10.1,7.8,37,37.2
				c28.5,31.2,34.6,50.5,34.6,50.5s-131.1,14.1-226-0.5c-20.5-3.1-42.5-8-62.1-12.8C581,382.8,665.3,378,746.6,353.9"/>
			<path class="st3" d="M444.2,198.3c107.1,26.6,181.6-5.6,190.5-39.5c0,0,0.4,0.2,1.1,0.6c4.3,2.4,21,9.5,46,34.1
				c26.3,25.9,42.8,46.7,49.3,60.7c-109.6,54.9-230.5,21.9-289.8-1c39.3,13.2,106,25.1,180,0.2c-114.1,22.7-204.2-30.7-204.2-30.7
				c65.3,21.4,106.8,1.2,106.8,1.2c-79.2,9.6-138.3-32.1-158.6-58.1c-1.6-3.2-3-6.5-4.3-10C379.3,173.1,398.9,187.1,444.2,198.3"/>
			<path class="st3" d="M810.2,480.9c-84-8.1-151.9-24.1-188-40.5c0,0,49.8,8.5,75.1,8.5c24.8,0,45-2.4,45-2.4
				c-158.3-24.7-243.5-70.5-264.2-82.8c21,8.9,66.6,26.1,131.8,39c61.5,12.2,133,15.2,161.8,18.1c41,39.6,57.1,89.7,57.1,89.7
				s-71.5-5.8-152.6-20.8C591.9,474,537.4,452,526.5,447.4C681.9,496.1,810.2,480.9,810.2,480.9"/>
			<path class="st3" d="M383.9,155.3c0,0,27,20.3,72.8,12.9c67.8-10.9,65.8-53.6,65.8-53.6s30.5,13.1,45.9,40
				c0,0-19.1,18.3-53.8,24.4C424.5,195,383.9,155.3,383.9,155.3"/>
			<path class="st3" d="M170.5,172.6c-6.7-2-21.2-4-14.3,6.3c0,0,8.7,4.7,20.4,10.7c5-4.1,10.2-7,23.8-8.3
				C200.4,181.4,175.9,174.3,170.5,172.6L170.5,172.6z M198.6,204.6c-17.4-5.3-39.5-3.8-51.7-0.5c-14-9.7-64.6-31.3-96.8-85.8
				c1.7-18.5,3.6-42.1,11.2-55c30.9-48.9,85-30.8,85-30.8s-82.1,36.4,5.7,89.5c28,17,105.5,29.7,151.8,14.8c3.9-1.4,8.8-4.9,8.5-5.8
				c-4.8-23.5-24.2-89.4-56.4-108.2c-17.8,26,29.2,85.6-18.7,87.9c0,0,11.9-18.5,6.8-43.3c-2.3-10.9-9.7-40,3.6-70.1
				c0,0,72.8,43.5,94.4,144c2.8,9.9,4.7,18.3,9,25.9C257.3,130.5,198.6,204.6,198.6,204.6"/>
		</g>
		<path d="M156.2,178.9c-6.9-10.3,7.6-8.3,14.3-6.3c5.4,1.6,29.9,8.7,29.9,8.7c-13.6,1.3-18.8,4.2-23.8,8.3
			C164.9,183.6,156.2,178.9,156.2,178.9"/>
	</g>
</g>
</svg>
