<?xml version="1.0" encoding="utf-8"?>
<!-- Generator: Adobe Illustrator 21.1.0, SVG Export Plug-In . SVG Version: 6.00 Build 0)  -->
<!DOCTYPE svg PUBLIC "-//W3C//DTD SVG 1.1//EN" "http://www.w3.org/Graphics/SVG/1.1/DTD/svg11.dtd">
<svg version="1.1"
	 id="Layer_1" xmlns:cc="http://creativecommons.org/ns#" xmlns:dc="http://purl.org/dc/elements/1.1/" xmlns:rdf="http://www.w3.org/1999/02/22-rdf-syntax-ns#"
	 xmlns="http://www.w3.org/2000/svg" xmlns:xlink="http://www.w3.org/1999/xlink" x="0px" y="0px" width="300px" height="266.8px"
	 viewBox="0 0 300 266.8" style="enable-background:new 0 0 300 266.8;" xml:space="preserve">
<style type="text/css">
	.st0{fill:#FFFFFF;}
	.st1{fill:#B1BABF;}
	.st2{fill:#D50A0A;stroke:#D50A0A;}
	.st3{fill:#D71E25;}
	.st4{fill:#FF7900;stroke:#FF7900;}
</style>
<g transform="matrix(1.25 0 0 -1.25 -286.73 580)">
	<g transform="matrix(.25 0 0 .25 229.39 297)">
		<g>
			<path class="st0" d="M734.5,104c-9-13.7-80.1-115.4-85-122c-0.4,0.3-12.6,10.8-13,11.1c18.1,25.2,69.4,101.7,70.4,103.2
				c9.1,2.2,18.1,4.6,26.9,7.4C734,103.8,734.3,103.9,734.5,104"/>
			<path class="st1" d="M768.3,116.3C755.5,95.9,685.2-10,668.5-34c-0.1,0.1-0.3,0.2-0.4,0.3c-2.4,2.2-5.6,4.9-9.1,7.8
				c5.7,8.1,70.7,104.7,89.7,134.7C755.5,111.1,761.9,113.6,768.3,116.3"/>
			<path class="st0" d="M585.7-73.1c-2.4-5.9-4.6-16-3.7-23.4c0.2-1.6,0.5-3.1,0.9-4.5v0c-5.6-25.5-16.3-25.9-19.2-25.6
				c-0.5,0.1-0.7,0.1-0.7,0.1c10.6,9.4,10.3,26.4,21.1,50.1c0.5,1.1,1,2.2,1.6,3.3C585.7-73,585.7-73,585.7-73.1"/>
			<path class="st1" d="M648.5-91.2c0.3-4.8-5.3-11.8-10.3-13.6c-3.6-1.5-8.4-2.2-13-2.2c-1.5,0-2.9,0.1-4.3,0.2
				c1.3,2.2,2.9,4.9,4.6,7.7c4,6.5,8.9,14,13.1,19.5c2.9-1.4,7.1-4.3,9-8.4C648.3-89,648.5-90,648.5-91.2"/>
			<path class="st1" d="M619.4-57.1c-3.6,3.3-5.9,6.9-7.4,10.4c0,0-13.7-17.9-25.9-44.7c0.3-1.3,0.7-2.6,1.3-3.7
				c3.8-8,7.1-10.2,13.7-9.8c0,0,15.5,26.5,26.5,40.6C625.4-62.5,622.7-60.1,619.4-57.1"/>
			<path class="st0" d="M612.1-46.7c-2.5,7.4-2,14.8-1.8,16.1c-0.2-0.3-0.4-0.6-0.6-0.9c-4.2-6.5-8.3-13-12.2-19.6
				c-3.8-6.4-11.1-20.6-11.4-21.2c0-0.3-1.8-10.9,0.1-19.1c0,0,0,0,0,0.1c0.1,0.2,0.2,0.4,0-0.1C598.4-64.6,612.1-46.7,612.1-46.7"
				/>
			<path class="st1" d="M680.5-77.5c-3.3,14.4-21.6,28.5-25.8,31.5c-9.1,8-32.5,26.3-34.7,30.2c-2.4,4.3-13.2,19-28,22
				c0,0-2.5,0.4-2.8-1.6c-0.2-1.2,0.3-2.3,2.1-2.7c1.7-0.5,7.2-1,13.3-6.8c6.1-5.8,8.3-13.3,8.2-19.7c-0.2-6.4,2.1-15.4,9.9-21.3
				c7.8-5.8,17-15.7,25.1-17.9c0.5-0.1,1-0.2,1.5-0.3c5.4-0.5,10.4,4.3,9.6,7.1c1.8-5.9,0.2-10.1-2.5-13.1c9-8.8,13.3-18.9,10.5-28
				c-3.6-11.7-16.6-27.3-40.4-27c-17,0.2-26.9,4.9-31.3,7.6c0,0,1.5,3.3,1.6,3.5c-9.9-2.4-13.6,12.3-13.7,13
				c-5.6-25.5-16.3-25.9-19.2-25.6c-0.5,0.1-0.7,0.1-0.7,0.1s2.1-8.3,10.4-12.3c-3.8,1.1-8-0.2-10.3-3.7c-2.8-4.2-1.6-9.9,2.6-12.7
				c4.2-2.8,9.9-1.6,12.8,2.6c2.8,4.2,1.6,9.9-2.6,12.7c-0.2,0.1-0.4,0.2-0.6,0.3c1.1-0.4,2.3-0.8,3.6-1c11.1-1.8,14.7,3.5,14.7,3.5
				s-0.7,1.5-1.3,3.7c0,0-10.9-7.7-23,4.5c0.4-0.1,4.4-1.5,11.3-0.4c10.3,1.5,11.7,4.7,12.4,5.3c0,0.1,0,0.2,0.1,0.3
				c8.9-4.8,18.7-7.1,32.6-7.4c15.7-0.3,30.6,4.6,39.4,12.3C673.9-111,684.4-94.7,680.5-77.5"/>
			<path class="st1" d="M740.3,42.8C718.5,9.9,697.8-20.5,681-44.8c19.5-16.1,18.3-36.4,18.3-40.3c-0.4-21.6-11.9-37.7-22.4-47.2
				c-13.1-11.2-31-16.6-49.9-16.7c-0.6,0-14.1,0.4-18.7,1.5c-2-2.9-5.8-6.5-12.1-9c-0.7-2-1.6-4-2.9-5.8
				c-5.2-7.7-13.7-12.1-22.4-12.1c0,0-8.8,0.3-14.9,4.5c-7.8,5.2-12.1,13.7-12.1,22.5v0.2c0,4.2,1,8.4,3,12.2
				c-0.9,2.2-4.1,15-4.1,15l8.3,7.3c0.7,0.4,2.7,3.5,5,11.4c2.5,7.7,5.4,19.2,11.5,32.6c7.8,17,18.6,34.6,26.5,46.8
				c-0.8,3.9-4.9,5.7-7.8,6.4c-3.3,0.9-7.4,2.8-10.6,6.6c-3.4,4-6,9.5-4.5,16.7c1.4,7.1,5.9,12.2,11.1,14.6v0
				c5.9,3.1,13.2,1.6,13.2,1.6c17.3-1.6,30.1-17.7,30.1-17.7c17.3,24.1,57.4,83.8,58.2,85.1c-52.6-10.1-107-11.4-152.1-3.9
				c-82.1,13.6-145.2,57.3-186,77.2C304.9,184.6,227.2,205,147,184.6C66.9,164.2,14,90.4,14,90.4c23.9,168.6,128.4,197,138.4,199.9
				c15.2,14.2,35.2,57.7-12.1,87.1c-16.1,10-29.7,22.7-29.7,22.7c9.9-1.2,33.1,1.9,46,7c15.5,6.1,29.7,8.1,29.7,8.1
				c-12.2,11.6-30.9,17.5-30.9,17.5c18.6,1.2,47.8,7.6,65.8,15.7c18,8.1,27.9,22.7,25,29.1c-2.9,6.4-19.2,2.9-19.2,2.9
				c5.8,8.7,19.8,12.2,19.8,12.2c-40.2,2.3-69.4-19.5-69.4-19.5c4.5,9.6,19.1,26.8,19.1,26.8c-5.6-1.8-21-6.7-22-7
				c62.9,48.6,133.1,91.3,231.5,91.9c98.4,0.7,194.2-43.4,258-63.9c63.9-20.4,97.8-30.8,166.8-20.6c33,4.9,61.9,18.4,83.1,31.1
				c0,0,14.8,37.7,16,91.8c0,0,17.8-31.9,17.8-81.5c0.2-170.2-82.3-294.5-108.7-339.8C813.9,157.5,780.8,104.2,740.3,42.8
				L740.3,42.8z M921.7,668c0,0,2.2-40.9-5.5-78.4c-7.5-36.2-11.6-50-11.6-50c-15.8-9.3-41.4-20.7-78.8-26.9
				c-69.8-11.6-133.2,7.1-202.4,34.3c-69.2,27.2-161.8,56.4-247.7,46.5c-83.3-9.6-142.9-43.3-174.5-65.3
				c-31.7-22-37.5-27.8-64.7-35.6c0,0,21.3-8.4,32.3-8.4c0,0-5.2-21.4-3.2-28.5c0,0,45.3,20.7,50.4,11c5.2-9.7-16.2-16.2-31-20
				c-14.9-3.9-53.7-3.2-53.7-3.2s18.2-14.1,24.6-23.9c0,0-34.3-14.9-72.5-9.8c0,0-1.3-14.1,30.1-37.3c-6.7-2.4-15.1-6.3-20.4-11.9
				c0,0,32.9,6.8,53.5-16.2c5.4-6.8,7.2-12.9,6.6-20.6c-1.1-14-6.5-19.3-19.6-28c-7.5-3.1-15.5-6.9-23.3-11.6
				c-36.3-22.3-62.9-56.3-81.6-95.2c-8.1-16.8-14.5-36.4-19.1-54.1c-4.6-17.8-6.2-33.6-7.3-43.5C1.4,81.6,0,50.5,0,50.5
				s16.3,22.8,24,33.8c7.6,10.9,55.8,71.5,126.1,89.1c22.5,5.7,44.8,8.1,66.2,8.1c51.4,0,97.3-13.9,124.5-27.2
				c39.4-19.1,104.2-64.2,189.2-78.2c20-3.3,41.6-4.9,63.9-4.9c21.4,0,43.6,1.6,65.8,4.6c-12.5-18.7-24.5-36.2-36-52.4
				c-11.6,11-27.3,12.2-27.3,12.2c-19.1,1.8-28.6-9.8-28.6-9.8c-3.9-4.2-6.7-9.6-7.9-16c-1.3-5.9,0.3-12.8,1.4-16.3
				c3.6-11.5,13.5-16.8,17.3-18.5c-27.8-37.1-35.9-79.8-35.9-79.8L530-116l4.6-18.6c-7.1-22.8,4-39.9,18.4-47
				c14.6-7.2,28.3-3,28.3-3c8.6,2.4,16.4,7.8,21.7,15.8c0.8,1.2,1.5,2.4,2.2,3.7c3,1.6,5.5,3.4,7.7,5.3c4-0.5,14.3-0.8,14.3-0.8
				c21.1,0.2,41.7,6.1,57.4,19.5c12.4,11.1,26,29.9,26.5,55.7c0,4.8,0.9,24.4-15.2,41.4c101.8,149.4,167.8,245.6,210,343.5
				C1017.4,558.9,922.1,667.1,921.7,668"/>
			<path d="M586.3-91.2c0,0,0-0.1-0.1-0.1c0,0,0,0,0-0.1L586.3-91.2C586.3-91.2,586.3-91.2,586.3-91.2z M789.5,142.7
				c-44.8-20.9-148.1-55.5-251-36.3c-35.8,6.7-82.9,17.9-145.3,55.7c-40.9,24.8-85,48.4-188,48c-85.3-0.4-140-39.1-157.5-53.4
				c46.3,150.9,183,128.9,183,128.9c-25,12-54.9,7.4-54.9,7.4c42.8,67.4-26.2,99-26.2,99c5.8,0,32,7.6,45.4,12.2
				c13.4,4.6,38,7.9,38,7.9c-8.6,7.9-35.1,14.2-35.1,14.2c25,0,47.7,12.1,63.5,28.6c5.5,5.7,20.5,34.3,3.5,45.4
				c-15.7,10.2-46.8-1.1-46.8-1.1c0,0,93.2,100.4,285.4,57.5c91.2-20.4,194-73.8,288.9-74.3c31.9-0.2,102.3,10.2,144.3,52.4
				C934.5,454.3,919.5,341.8,789.5,142.7L789.5,142.7z M668.5-34c-0.1,0.1-0.3,0.2-0.4,0.3c-2.4,2.2-5.6,4.9-9.1,7.8
				c5.7,8.1,70.7,104.7,89.7,134.7c6.7,2.4,13.1,4.9,19.5,7.6C755.4,95.9,685.1-10,668.5-34L668.5-34z M665.1-118.6
				c-8.8-7.7-23.8-12.6-39.4-12.3c-14,0.3-23.8,2.5-32.6,7.4c0-0.1-0.1-0.2-0.1-0.3c-0.7-0.6-2.1-3.8-12.4-5.3
				c-6.9-1.1-10.9,0.3-11.3,0.4c12.1-12.2,23-4.5,23-4.5c0.5-2.1,1.3-3.7,1.3-3.7s-3.6-5.3-14.7-3.5c-1.3,0.2-2.5,0.6-3.6,1
				c0.2-0.1,0.4-0.2,0.6-0.3c4.2-2.8,5.4-8.5,2.6-12.7c-2.8-4.2-8.5-5.4-12.8-2.6c-4.2,2.8-5.4,8.5-2.6,12.7
				c2.3,3.5,6.5,4.8,10.3,3.7c-8.3,4-10.4,12.3-10.4,12.3c10.6,9.4,10.3,26.4,21.1,50.1c0.5,1.1,1,2.2,1.6,3.3c0,0,0-0.1,0-0.1
				c-2.4-5.9-4.6-16-3.7-23.4c0.2-1.6,0.5-3.1,0.9-4.5v0c0.2-0.7,3.8-15.4,13.7-13c-0.1-0.2-1.5-3.5-1.6-3.5
				c4.3-2.7,14.3-7.4,31.3-7.6c23.8-0.3,36.8,15.4,40.4,27c2.8,9.1-1.5,19.1-10.5,28c2.6,3,4.2,7.3,2.5,13.1
				c0.8-2.7-4.3-7.5-9.6-7.1c-0.5,0-1,0.1-1.5,0.3c-8.1,2.3-17.3,12.1-25.1,17.9c-7.8,5.8-10,14.9-9.9,21.3c0.1,6.4-2.1,14-8.2,19.7
				C598.4,1,592.9,1.5,591.2,2c-1.8,0.5-2.3,1.6-2.1,2.7c0.4,1.9,2.8,1.6,2.8,1.6c14.8-3,25.7-17.6,28-22c2.2-4,25.6-22.2,34.7-30.2
				c4.2-3.1,22.5-17.1,25.8-31.5C684.3-94.7,673.9-111,665.1-118.6L665.1-118.6z M638.7-79.5c2.9-1.4,7.1-4.3,9-8.4
				c0.5-1.1,0.8-2.1,0.8-3.3c0.3-4.8-5.3-11.8-10.3-13.6c-3.6-1.5-8.4-2.2-13-2.2c-1.5,0-2.9,0.1-4.3,0.2c1.3,2.2,2.9,4.9,4.6,7.7
				C629.6-92.6,634.5-85.1,638.7-79.5L638.7-79.5z M597.5-51.1c3.9,6.6,8,13.2,12.2,19.6c0.2,0.3,0.4,0.6,0.6,0.9
				c-0.2-1.4-0.7-8.8,1.8-16.1c1.4-3.5,3.7-7.1,7.4-10.4c3.2-3,5.9-5.4,8.2-7.3c-10.9-14.2-26.5-40.6-26.5-40.6
				c-6.6-0.4-10,1.8-13.7,9.8c-0.5,1.1-1,2.4-1.3,3.7v0c-2,8.2-0.2,18.9-0.1,19.1C586.3-71.7,593.7-57.5,597.5-51.1L597.5-51.1z
				 M706.8,96.4c9.1,2.2,18.1,4.6,26.9,7.4c0.3,0.1,0.5,0.2,0.8,0.3c-9-13.7-80.1-115.4-85-122c-0.4,0.3-12.6,10.8-13,11.1
				C654.6,18.3,705.8,94.8,706.8,96.4L706.8,96.4z M929.9,623.3c-1.1-54.1-16-91.8-16-91.8c-21.2-12.7-50.1-26.2-83.1-31.1
				c-69-10.2-102.9,0.1-166.8,20.6c-63.9,20.4-159.7,64.5-258,63.9c-98.4-0.6-168.6-43.3-231.5-91.9c1,0.3,16.4,5.1,22,7
				c0,0-14.7-17.2-19.1-26.8c0,0,29.3,21.9,69.4,19.5c0,0-14-3.5-19.8-12.2c0,0,16.3,3.5,19.2-2.9c2.9-6.4-7-21-25-29.1
				c-18-8.2-47.2-14.6-65.8-15.7c0,0,18.7-5.8,30.9-17.5c0,0-14.2-2-29.7-8.1c-12.9-5.1-36.1-8.2-46-7c0,0,13.6-12.7,29.7-22.7
				c47.3-29.3,27.3-72.8,12.1-87.1c-10-2.8-114.5-31.3-138.4-199.9c0,0,52.9,73.8,133.1,94.2c80.2,20.4,157.9,0,198.7-19.9
				c40.8-19.9,103.9-63.6,186-77.2c45.1-7.5,99.5-6.1,152.1,3.9c-0.8-1.3-41-61-58.2-85.1c0,0-12.8,16.1-30.1,17.7
				c0,0-7.3,1.5-13.2-1.6v0c-5.2-2.4-9.6-7.5-11.1-14.6c-1.5-7.2,1.1-12.8,4.5-16.7c3.2-3.8,7.3-5.7,10.6-6.6c2.9-0.7,7-2.5,7.8-6.4
				c-7.9-12.2-18.7-29.8-26.5-46.8c-6.1-13.4-9.1-24.9-11.5-32.6c-2.3-7.9-4.4-11-5-11.4l-8.3-7.3c0,0,3.2-12.9,4.1-15
				c-2-3.8-3-8.1-3-12.2v-0.2c0-8.7,4.3-17.3,12.1-22.5c6.1-4.2,14.9-4.5,14.9-4.5c8.7,0,17.3,4.3,22.4,12.1
				c1.2,1.9,2.2,3.9,2.9,5.8c6.3,2.5,10.1,6.1,12.1,9c4.6-1.1,18.2-1.5,18.7-1.5c18.9,0.1,36.8,5.6,49.9,16.7
				c10.5,9.4,22,25.6,22.4,47.2c0,3.9,1.2,24.2-18.3,40.3c16.9,24.4,37.6,54.7,59.3,87.7c40.5,61.4,73.6,114.7,98.8,159.2
				c26.4,45.3,108.9,169.6,108.7,339.8C947.7,591.5,929.9,623.3,929.9,623.3L929.9,623.3z M586.2-91.3
				C586.2-91.4,586.2-91.4,586.2-91.3L586.2-91.3c0,0.1,0.1,0.1,0.1,0.1C586.3-91.2,586.2-91.3,586.2-91.3"/>
			<path class="st2" d="M721.9,252.2c-46-32.5-118-42.5-118-42.5c-0.8-3.1-5.6-6.4-5.6-6.4s7.4-2.7,25.5-16.3
				c18.1-13.6,13.2-12.9,19-16.8c5.8-3.9,9.1-2.8,9.1-2.8c1.7-3.5,2-8.7,2-8.7c2.4-2.3,14.2-13.5,3.2-25.2
				c-11-11.7-23.7-0.8-23.7-0.8c-4.5-0.9-8.9,0.5-8.9,0.5s-23.5-14.8-46.8,1.3c-19,13.1-17.8,28.6-16.7,34
				c-6.4-3.7-13.3-6.5-20.3-8.8c-19-6-43.3-8.4-67.5-0.4c-15.8,5.3-29,14.6-39.3,24.8c-10.4,10.3-18,21.6-23,31.8
				c-0.8,1.6-1.5,3.1-2.1,4.6c-1.7-4-9.6-19-34.2-17.9c-28.3,1.2-38.1,27.2-38.1,27.2s-4.4,1.5-7.4,4.9c0,0-16.6-1-18.4,14.9
				c-1.7,15.9,14.5,17.8,17.8,18.1c0,0,3.3,4,6.8,5.8c0,0,2-2.9,8.9-3.2c6.9-0.4,2.6,2.1,25.3,2c22.6,0,30.2-2.3,30.2-2.3
				s-1.8,5.5-0.6,8.5c0,0-51.4,51.4-68.5,105.1c-17.1,53.7-11.8,73.6,8.9,130.3c0,0,15.4-96.5,62.5-157.1
				c26.9-34.6,57.2-61.6,78.2-78.4c0.5,0,1,0,1.4,0c-4.5,5-7.9,10.9-9.6,17.6c-4.2,16.6-11.1,32-14.3,44.3
				c-3.2,12.3,3.9,36.9,3.9,36.9c-9.4,15.1-4.8,40.1-4.8,40.1s5.1,2.4,9,7.2c3.9,4.7,2.5,18.7,5.7,39.3c3.2,20.6,16.6,41.9,46.2,54
				c29.5,12.1,73.9-3.8,74.3-3.9c0.4-0.1,45.3-14.2,61.6-41.7c16.4-27.6,14.2-52.7,4.3-71c-9.9-18.3-19.4-28.7-19.2-34.8
				c0.2-6.1,2.9-11.1,2.9-11.1s-11.3-22.7-28-29.1c0,0-9.2-23.9-19.2-31.8c-9.9-7.9-24.7-16-38.1-26.8c-5.3-4.2-11.3-6.8-17.8-8.2
				c0.4-0.3,0.8-0.6,1.3-0.9c26.9,0.7,67.1,4,109.2,15.3c74.2,20,144.6,87.7,144.6,87.7C775.7,303.8,767.8,284.7,721.9,252.2
				L721.9,252.2z M792.4,482.2c-94.9,0.6-197.7,54-288.9,74.3c-192.2,42.9-285.3-57.5-285.4-57.5c0,0,31.1,11.3,46.8,1.1
				c17.1-11.1,2-39.7-3.5-45.4c-15.8-16.4-38.4-28.6-63.5-28.6c0,0,26.5-6.4,35.1-14.2c0,0-24.6-3.2-38-7.9
				c-13.4-4.7-39.6-12.2-45.4-12.2c0,0,69-31.6,26.2-99c0,0,30,4.6,54.9-7.4c0,0-136.8,22.1-183-128.9c17.4,14.4,72.2,53,157.5,53.4
				c102.9,0.5,147.1-23.2,188-48c62.3-37.8,109.5-49,145.3-55.7c102.9-19.2,206.3,15.4,251,36.3c130,199.2,144.9,311.6,147.2,392
				C894.7,492.4,824.3,482,792.4,482.2"/>
		</g>
		<g>
			<path d="M552.7,356.6l1.1,3.3c1.1,3.3-1.4,4.8-1.5,10.2c-0.2,2.8-0.4,5.5,0.7,8.7c0.9,2.6-0.6,5.5-3.3,6.7
				c-0.2,0.1-0.4,0.2-0.6,0.2c-0.2,0.1-0.3,0.1-0.5,0.1c-2.9,0.7-5.9-0.7-6.7-3.3c-1.1-3.2-2.9-5.3-4.7-7.4
				c-3.4-4.2-6.3-3.9-7.4-7.3l-1.1-3.3c-0.6-1.9,0-3.9,1.4-5.3c0.7-0.7,1.5-1.3,2.5-1.6c3.1-1,6.3,0.4,7.3,3.2
				c0.2,0.5,0.7,0.7,1.2,0.6c0.5-0.2,0.8-0.7,0.6-1.2c-0.9-2.8,0.8-5.9,3.8-6.9c1-0.3,2-0.3,2.9-0.2
				C550.3,353.5,552,354.7,552.7,356.6"/>
			<path d="M566.4,389.6c0-3.7,1.3-17.8,7.5-21.5h0c0,0,0.1,0,0.1-0.1c6.2-4.2,19.1-6.2,25.2-5.5c0.8,0.1,2.3,0.6,2.4,0.6l0,0
				c2.7,1.5,5.1,2.7,7.4,5c2.9,3.1,5.3,6.8,7,10.7c0.7,1.7,1.3,3.5,1.8,5.3c0,0,1.3,6,3.8,6.9c0.3,0,0.5,0.1,0.8,0.1l0.2,0l0,0.1
				c0,0-7.9,2-16.8,1c-0.9-0.1-1.7-0.2-2.6-0.4c-10-1.8-19.3-3.3-25.7-1.2c-2.1,0.7-3.9,1.9-5.5,3.2c0,0-0.1,0.1-0.1,0.1
				c-0.4,0.4-0.8,0.7-1.2,1.1v0c-2.1,2-3.5,4-3.8,4.4c0,0.1-0.1,0.2-0.1,0.2C566.8,399.3,566.4,393.2,566.4,389.6"/>
			<path d="M494.3,433.7c1.5-2.2-1.1-7.8-1.1-7.8c-0.7-1.6-1.2-3.3-1.6-5c-1.5-5.8-2-12.9,0.3-18.6c0.1-0.2,1.6-2.8,1.5-2.9
				c-0.1-0.1-0.3-0.2-0.4-0.3c0.2,0.1,0.3,0.2,0.4,0.3c0,0,0.9-1.3,1.5-1.9c4.4-4.3,15.9-10.5,23.4-10.9c0.1,0,0.1,0,0.2,0
				c7.2-0.8,16.6,9.7,18.9,12.7c2.2,2.9,5.6,8.1,5.6,8.1s-2.6-0.9-5.9-1.3v0c-0.5-0.1-1-0.1-1.6-0.1c0,0-0.1,0-0.1,0
				c-2-0.1-4.2,0.1-6.3,0.8c-6.4,2.1-12.9,9-19.8,16.4c-0.6,0.6-1.2,1.2-1.8,1.8c-6.3,6-13.5,9.2-14,9.3c0,0,0.1-0.1,0.1-0.1l0,0
				C493.9,434.1,494.1,433.9,494.3,433.7"/>
		</g>
		<g>
			<path class="st1" d="M511.5,273.8C511.5,273.8,511.6,273.8,511.5,273.8c0.1,0,0.1,0,0.1,0c3.9-1.3,7.5-2.3,11.4-2.7
				c3.9-0.4,7.9-0.3,12.6,0.5c9.5,1.7,20.3,11.4,24.4,14.3c4.1,2.9,19.5,13.1,23,15.5c3.5,2.5,6.4,4.5,10,10.6
				c3.6,6.1,9.7,20.2,9.7,20.2s-5.8,1.2-7.8,1.4c0,0,0-0.1-0.1-0.2c-0.9-1.5-7.8-13.8-10.3-16.4c0,0-0.1,0-0.2,0
				c1.5-0.9,5.9-3.6,6.7-6.9c0,0-7.4-6.8-16.5-10.8c-9.1-4-22.9-12.7-28.4-16.4c-2.1-1.4-4.9-2.6-8.4-3.2
				c-2.2,3.9-9.9,8.8-19.7,12.1c-10.3,3.5-19.7,4.1-23.6,2c-2.8,2.9-4.5,5.8-5.4,8.3c-2.1,6.2-7.9,21.5-12.8,30.2
				c-4.9,8.7-6.7,18.6-6.7,18.6c3.1,2.6,10.1,1.4,10.1,1.4c-0.1,0.5-0.1,1.1-0.1,1.9c0.1,5.2,1.5,15.9,1.7,17.4c0,0.1,0,0.2,0,0.2
				c-1.7,1-7,3.6-7,3.6s0-0.1,0-0.2c-0.4-1.7-3.7-15.2-4.4-21.8c-0.8-7,0.3-10.4,1.6-14.5c1.3-4.1,7.5-21.5,9-26.3
				c0.2-0.6,0.4-1.3,0.6-2.2c1.6-6,4.5-17.7,10.2-23.9C497.5,279.6,503.8,276.4,511.5,273.8"/>
			<path class="st1" d="M532.5,429c6.9-8,17.8-18,24.4-20.1c6.5-2.3,21.2-0.9,31.6,1.3c10.4,1.7,25.9-0.1,25.9,0.2
				c-6.4,7.9-28.1,5.7-40.4,5.1c-10.6-0.8-13.8,0.7-14.5,1c-0.7,0.2-4.2,0.9-12.2,7.9c-9.4,7.8-25.4,22.7-35.2,20.3
				C512,444.5,525.3,436.6,532.5,429"/>
			<path class="st1" d="M491.9,391.4c-0.3,0.4-3.5,5,0.6,7.4c0.2,0.1,0.3,0.2,0.5,0.3c0.2,0.1,0.3,0.2,0.4,0.3
				c0.1,0.1-1.4,2.7-1.5,2.9c-2.4,5.7-1.8,12.9-0.3,18.6c0.4,1.7,1,3.3,1.6,5c0,0,2.6,5.6,1.1,7.8c-0.2,0.2-0.4,0.4-0.6,0.6l0,0
				l-0.1,0.1c0,0-8.1-14.8-8.8-22.5C484.1,404.2,483.6,397,491.9,391.4"/>
			<path class="st1" d="M518.6,386.7c0,0,0.1-2.4-5-5.8c0,0,8.2-2.6,14.4,0.8c6.2,3.4,14.4,18.9,24.8,15.5
				c10.4-3.6,7.5-20.9,10.4-27.4c2.8-6.3,10.5-9.1,11-9.3c-2,5.8-0.4,7.6-0.4,7.6h0c-6.2,3.7-7.4,17.8-7.5,21.5
				c0,3.6,0.4,9.7,0.4,9.8c-4.6-2.4-21.6,3.3-23.8,8c0,0-3.4-5.2-5.6-8.1C535.2,396.4,525.7,385.9,518.6,386.7"/>
			<path class="st1" d="M621.6,391c-2.5-0.9-3.8-6.9-3.8-6.9c-0.5-1.8-1.1-3.6-1.8-5.3c-1.7-3.9-4-7.6-7-10.7
				c-2.2-2.3-4.6-3.5-7.4-5c0.1-0.4,0.2-0.7,0.3-1c1.9-4.6-4-6.3-4-6.3c10.1-0.6,14,5.5,18.1,12.1c4.1,6.5,6.5,23.2,6.5,23.2l-0.2,0
				C622.1,391.1,621.9,391,621.6,391"/>
			<path class="st1" d="M482.1,377.7c4-1.7,7.9-3.6,11.7-5.7c5.7-3.2,11.7-7,14.1-13.4c0-0.1,0-0.1,0.1-0.2c0.6-1.6,0.7-3.6,0.3-5.3
				c0,0.2-0.1,0.5-0.2,0.8c-0.5,1-1.4,1.7-2,2.7c0,0,0,0-0.1,0.1c-1.3,1.4-2.6,2.8-4.2,3.9v-0.1l0,0.1c0,0-1.2-4.3-3.1-7.4
				c-1.1-1.8-2.3-3.8-3.5-6.6c0,0,0-0.1,0-0.1c-2.4-6.2,0.4-12.8,1-12.8c0.8-0.1,2.4,0.7,5.5,9.4c0.1,0.2,0.2,0.6,0.3,1.1
				c0.1,0.4-0.1,1.2-0.2,1.8c0,0,0,0,0,0.1c0.4,1.4,2.2,1.3,3.3,1.2c0.4,0,0.8-0.1,1.2-0.2c0.7,1.7,1.6,4.1,2,6.1
				c1.3,4.8,1.1,11.7-4.5,18.1c-5.6,6.4-20.1,11.2-25.5,13.9c-5.4,2.7-10.3,15.8-9.7,24.9c0,0-0.5-5-0.5-10.1c0-2,0.1-4.1,0.3-5.8
				c0.1-0.9,0.3-1.7,0.5-2.3C470.3,386.2,470.5,382.8,482.1,377.7"/>
			<path class="st1" d="M562.5,326.2c0.4-0.2,1.1-0.5,1.3-0.9c0.6-0.8,0.8-1.2,0.8-1.2c-0.6-0.1-1.1-0.2-1.7-0.3
				c-0.3,0-1.7-0.5-1.7-0.9c-2.8-8.9-1.9-10.4-1.3-10.8c0.6-0.4,6.7,3.2,8.6,9.6c0,0,1,5.4,1.2,7.5c0.4,3.4,1.8,7.3,2,7.8l0,0
				c0,0,0,0.1,0,0.1c-6.3,0.3-9.8-2.2-9.8-2.2s-1.8-3.1-2.3-7.3C559.6,327.5,562,326.5,562.5,326.2"/>
			<path class="st1" d="M605.5,342.2c-6,1.1-20.4,6-28.8,4.3c-6.9-1.4-11-5.3-13.3-9.2c0,0,0,0.1,0.1,0.1c0,0,0.1,0,0.1,0.1
				c4.6,5.3,13,5.1,19.4,4.3c5-0.6,9.9-1.7,14.7-2.8c12.4-2.9,14.6-0.3,19,3c3.8,2.9,7,7.3,9.3,11.5c0.1,0.1,0.1,0.1,0.1,0.2
				C620.6,347,610.8,341.2,605.5,342.2"/>
			<path class="st1" d="M554.8,367.8L554.8,367.8l0,0.1c-0.2,2.7-0.4,4.8,0.5,7.4c1.3,4-1.1,8.5-5.6,10.3c2.7-1.2,4.2-4.1,3.3-6.7
				c-1.1-3.2-0.9-5.9-0.7-8.7c0.1-5.4,2.6-6.9,1.5-10.2l-1.1-3.3c-0.6-1.9-2.4-3.1-4.4-3.4c0,0,0-0.1,0-0.1
				c-1.1-3.1-4.3-3.9-4.3-3.9v0c4.8-1.6,9.9,0.5,11.3,4.7l1,3.1c0.8,2.3,0.2,4.5-0.4,5.9C555.4,364.4,554.9,365.6,554.8,367.8"/>
			<path class="st1" d="M528.6,364.7l1.1,3.3c1.1,3.3,4,3,7.4,7.3c1.8,2.1,3.7,4.1,4.7,7.4c0.9,2.6,3.8,4.1,6.7,3.3
				c-4.7,1.3-9.4-0.8-10.8-4.8c-0.8-2.6-2.3-4.1-4.1-6.1v0l-0.1-0.1c-1.4-1.7-2.5-2.3-3.8-3.2c-1.3-0.8-3.1-2.2-3.9-4.5l-1.1-3.1
				c-1.4-4.2,1.4-8.9,6.2-10.5c0,0-2.1,2.6-1,5.7c0,0,0,0.1,0,0.1C528.7,360.8,528,362.8,528.6,364.7"/>
		</g>
		<g>
			<path class="st0" d="M469.5,350.9c0,0,1.8-9.9,6.7-18.6c4.8-8.7,10.6-24,12.8-30.2c0.9-2.5,2.6-5.4,5.4-8.3
				c3.9,2.1,13.3,1.5,23.6-2c9.8-3.3,17.5-8.2,19.7-12.1c3.5,0.7,6.3,1.8,8.4,3.2c5.4,3.6,19.3,12.3,28.4,16.4
				c9.1,4,16.5,10.8,16.5,10.8c-0.7,3.3-5.2,6-6.7,6.9c-0.9-0.2-4.5-0.9-6.3-2.2c-2.1-1.5-9.6-12.7-19.4-16.9
				c0.9,5.5-2.6,8.4-3.6,8.3c-0.9-0.1-1.6-2.3-1.8-2.8c-0.2-0.6-2.1-4.3-2.7-6c-0.6-1.8-0.5-1.9-0.5-1.9c-1.6,0-3.2,0.1-4.7,0.3
				c1.5,2.8,2.8,5.7,4.1,8.5c0.9,2.3-1.6,2.9-1.6,2.9l0,0c-1.4,0.2-2.8,0.5-4.2,0.7c-0.1,0-0.1,0-0.2,0c-1.8,0.3-2.8-0.8-3-1.5
				c-0.2-0.4-0.3-0.9-0.5-1.3c-0.6-1.6-1.3-3.1-2-4.6c0-0.1-0.1-0.2-0.1-0.3c-0.8-2-0.1-3.6-0.1-3.6c-0.5,0-1.9,0-4,0.4
				c-1,0.2-2.4,0.8-2.4,0.8c0.8,0.6,1.2,1.8,1.2,1.8l0,0c1.4,3.4,3.6,8.7,3.6,8.7s0.9,2.3-0.6,2.7c-2,0.5-4,1.1-6,1.7
				c-1.5,0.3-2.2-0.9-2.3-1.3c-0.3-0.8-0.8-2-1-2.6c-0.8-2.2-1.5-4.4-2.3-6.5c0,0,0-0.1,0-0.1c-0.5-1.4-0.1-2.7-0.1-2.7
				s-1.9,0.4-3,0.7c-1,0.3-2.6,1.3-2.6,1.3c0.2,0.3,0.5,0.9,0.8,1.4c0.9,3.2,1.8,7.3,2.6,10.7c0.1,0.5,0.1,1.9-1.4,2.5
				c-1.7,0.6-3.4,1.3-5.1,2c-1.5,0.5-2.1-0.8-2.4-1.5c-0.7-3.1-1.5-6.7-2-9.4c-0.2-1.9,0.6-3.2,0.6-3.2c-0.8,0.2-2.4,0.9-3.6,1.4
				c-0.8,0.4-2.7,1.6-2.7,1.6c0.9,0.1,1.5,2.1,1.5,2.1c1.1,2.2,1.8,4.1,2.6,6.2c0,0.1,0.1,0.2,0.1,0.3c0,0.1,0,0.1,0.1,0.2
				c0.8,2.2-0.7,3.4-1,3.6c-2.2,1.1-4.7,2.4-4.7,2.4c-1.3,0.7-2.1-0.2-2.4-1.1c-0.9-2.5-2.2-4.7-2.7-7.4c-0.2-1.5-0.1-2.6-0.1-2.6
				c-3,1.4-4.1,3.7-4.1,3.7c0.7,0.9,1.7,3.9,1.7,6.7c0,2.8,0.2,5.5-1.1,6.4c-1.3,0.9-3.5-1.4-4.7-3.1c-1.1-1.7-1.4-2.7-1.4-2.7v-0.2
				c-5.3,9.3-4.6,22.8-5.3,25.2c-0.7,2.5-3.9,5.7-3.9,5.7S472.6,353.5,469.5,350.9"/>
			<path class="st0" d="M549.1,385.8c0.2-0.1,0.4-0.1,0.6-0.2C549.5,385.6,549.3,385.7,549.1,385.8"/>
			<path class="st1" d="M694.6,265.8l-0.4-0.3c0,0-50.7-30.2-127.6-35.7c2.5-3.7,4.6-7.3,6.5-10.8c23.9,1.3,48.2,4.7,71.1,11
				c14.6,4.1,29.1,9.2,42.8,15.7c13.8,6.5,27.4,14.3,39.3,24c7.8,6.3,15.1,13.1,21.8,20.5c9.2,10.2,17.6,22.4,22.2,35.5
				c0,0,0.4,1.1,0.4,1.1C770.2,325.9,755.5,292.3,694.6,265.8"/>
			<path class="st0" d="M553.3,246.2c3.1-3.2,5.9-6.4,8.5-9.7c0,0,8.2,0.6,9.3,0.7c14.1,1.2,28.2,2.9,42.2,5.4
				c34.5,6.2,60.6,15,73,19.7c2.9,1.1,5.7,2.3,8.4,3.5c60.9,26.4,75.6,60.1,76,61c-0.1-0.1-2.5-2.2-6.4-5.3
				c-1.7-1.4-3.5-2.9-5.6-4.5c-22.9-18.1-70.7-50.6-148.4-64.6C591.2,248.9,572,247.1,553.3,246.2"/>
			<path class="st3" d="M564.7,188c-15.7-9.9-50.9-19.1-84.7-7.8c-33.2,11.2-55.3,39.5-62.3,56.8c-0.8,1.8-1,6.6,3.8,8.9
				c0,0-3.1-0.4-5.8-2.7c0,0-0.2-0.4-0.5-1.1c-3.7-11.1,18.8-58.3,61.3-72.6c42.5-14.3,88.5,8.5,92.7,20.9c0.3,0.9,0.3,1.6,0.3,1.6
				c-1,3-2.8,4.9-2.8,4.9C569,192.5,566.6,189.3,564.7,188"/>
			<path class="st4" d="M532.5,218.3c0-0.5-0.1-1.1-0.1-1.6c-1.4,0.7-2.8,1.4-4.3,2.1c-0.5-3.2-1.3-6.4-2.4-9.5
				c-2.1,1.2-4.3,2.4-6.5,3.6c1,3,1.7,6,2.3,9c-2.3,1.1-4.7,2.1-7.2,3.1c-0.6-2.9-1.4-5.8-2.3-8.6c-2.2,1-4.5,2-6.8,3
				c0.9,2.8,1.7,5.6,2.4,8.4c-2.4,0.9-4.8,1.8-7.3,2.7c-0.8-2.7-1.7-5.4-2.6-8.2c-2.3,0.8-4.6,1.6-7,2.3c0.9,2.7,1.9,5.4,2.8,8.1
				c-2.5,0.8-5,1.5-7.4,2.2c-1.1-2.7-2.1-5.4-3.1-8.1c-2.4,0.6-4.8,1.2-7.2,1.7c1,2.8,2.1,5.6,3.3,8.3c-2.6,0.7-5.1,1.3-7.6,1.8
				c-1.4-2.8-2.6-5.6-3.6-8.5c-2.4,0.4-4.9,0.8-7.3,1.1c1,3.1,2.3,6.1,3.8,8.9c-1.6,0.3-3.1,0.6-4.7,0.9c0.3,0.5,0.7,1,1,1.5
				c-14.4,2.6-27.5,3.6-38.1,3.7c8.8,1.9,23.8,2.9,41.5,0.8c0.1,0.2,0.3,0.3,0.4,0.5c1.3-0.2,2.7-0.3,4.1-0.5
				c1.2,1.8,2.5,3.5,3.9,5.1c2.3-0.3,4.5-0.6,6.7-1c-1.2-1.7-2.4-3.5-3.6-5.3c2.4-0.4,4.9-0.9,7.4-1.5c1,1.9,2.1,3.7,3.2,5.4
				c2.1-0.4,4.1-0.9,6.2-1.4c-0.9-1.8-1.8-3.7-2.7-5.6c2.3-0.6,4.6-1.3,7-2c0.7,2,1.5,3.9,2.2,5.8c2-0.6,3.9-1.3,5.8-2
				c-0.6-2-1.1-3.9-1.7-5.9c2.3-0.8,4.6-1.7,6.8-2.6c0.4,2,0.8,4.1,1.2,6.1c1.9-0.8,3.9-1.7,5.8-2.6c-0.2-2-0.5-4.1-0.8-6.2
				c2.3-1,4.6-2.1,6.8-3.2c0.2,2.1,0.3,4.2,0.3,6.2c2-1,4-2.1,6-3.2c0.1-2.1,0.1-4.2,0-6.3c1.2-0.7,2.4-1.3,3.6-2c0-0.3,0-0.7,0-1
				c14.9-8.7,26-18.2,31.7-24.9C556,205,545.2,211.8,532.5,218.3L532.5,218.3z M507.8,263c-39.2,13.1-81.7-6.3-91-18.1
				c-0.4-0.5-0.7-1-1-1.5c0-0.1-0.1-0.2-0.1-0.2c2.8,2.3,5.8,2.7,5.8,2.7c-4.9-2.2-4.6-7.1-3.8-8.9c7.1-17.3,29.1-45.7,62.3-56.8
				c33.8-11.3,69-2.2,84.7,7.8c1.8,1.3,4.3,4.6,1.9,9c0,0,1.8-1.9,2.8-4.9c0.4,2.9-0.2,7.1-1.9,12
				C561.3,222.8,540.2,252.1,507.8,263"/>
			<path d="M422.8,246.1c10.6-0.1,23.7-1.2,38.1-3.7c1.1,1.5,2.2,3,3.3,4.5C446.5,249,431.5,248.1,422.8,246.1"/>
			<path d="M532.6,223.8c0-1.8,0-3.7-0.1-5.5c12.7-6.5,23.5-13.3,31.8-19.4C558.7,205.7,547.5,215.1,532.6,223.8"/>
			<path class="st0" d="M532.6,223.8c0,0.3,0,0.7,0,1c-1.2,0.7-2.3,1.3-3.6,2c0.1,2.1,0.1,4.2,0,6.3c-2,1.1-4,2.2-6,3.2
				c0-2.1-0.1-4.2-0.3-6.2c-2.2,1.1-4.5,2.2-6.8,3.2c0.3,2.1,0.6,4.1,0.8,6.2c-1.9,0.9-3.9,1.8-5.8,2.6c-0.4-2-0.8-4-1.2-6.1
				c-2.2,0.9-4.5,1.8-6.8,2.6c0.6,2,1.2,4,1.7,5.9c-1.9,0.7-3.9,1.3-5.8,2c-0.7-1.9-1.5-3.8-2.2-5.8c-2.3,0.7-4.7,1.4-7,2
				c0.9,1.9,1.8,3.8,2.7,5.6c-2,0.5-4.1,1-6.2,1.4c-1.1-1.8-2.1-3.6-3.2-5.4c-2.5,0.6-4.9,1.1-7.4,1.5c1.1,1.8,2.3,3.6,3.6,5.3
				c-2.2,0.4-4.4,0.7-6.7,1c-1.4-1.7-2.7-3.4-3.9-5.1c-1.4,0.2-2.7,0.4-4.1,0.5c-0.1-0.2-0.3-0.3-0.4-0.5c-1.2-1.4-2.3-2.9-3.3-4.5
				c-0.3-0.5-0.7-1-1-1.5c1.5-0.3,3.1-0.6,4.7-0.9c-1.5-2.9-2.8-5.8-3.8-8.9c2.4-0.3,4.9-0.7,7.3-1.1c1,2.9,2.2,5.8,3.6,8.5
				c2.5-0.6,5.1-1.2,7.6-1.8c-1.2-2.7-2.3-5.4-3.3-8.3c2.4-0.5,4.8-1.1,7.2-1.7c1,2.8,2,5.5,3.1,8.1c2.5-0.7,4.9-1.4,7.4-2.2
				c-1-2.7-1.9-5.4-2.8-8.1c2.4-0.7,4.7-1.5,7-2.3c0.9,2.7,1.8,5.5,2.6,8.2c2.5-0.9,4.9-1.8,7.3-2.7c-0.7-2.8-1.5-5.6-2.4-8.4
				c2.3-0.9,4.5-1.9,6.8-3c0.9,2.9,1.7,5.8,2.3,8.6c2.4-1,4.8-2.1,7.2-3.1c-0.6-3-1.3-6.1-2.3-9c2.2-1.1,4.4-2.3,6.5-3.6
				c1.1,3.1,1.9,6.3,2.4,9.5c1.4-0.7,2.9-1.4,4.3-2.1c0,0.5,0.1,1.1,0.1,1.6C532.6,220.1,532.7,222,532.6,223.8"/>
			<path class="st0" d="M361,377.1l2.2-3.9c1.4-2.3,3.2-5.4,5.5-9.2c11.1-17.7,25.8-36.8,45.4-56.6c0.1-0.1,24.5-24.2,35-33.4
				c4,1.1,8.3,2,12.7,2.7c-14.5,12-28.9,25.2-41.9,39.4c-66.2,71.7-78.8,138.4-83.1,156.3C336.8,472.4,330.5,433,361,377.1"/>
		</g>
		<g>
			<path class="st1" d="M422.7,272.9c0.7-0.6,6.5-6.4,7-6.1c3.6,1.7,7.5,3.3,11.7,4.7c-58.4,50.9-80.6,105.8-80.6,105.8l0.2-0.3
				c-30.5,55.9-24.2,95.2-24.2,95.2s-0.4-1.1-0.4-1.1c-2.6-7.5-3.5-15.8-3.9-23.7c-0.7-13.4,0.5-26.8,3.4-39.9
				c3-13.9,7.8-27.3,13.7-40.2c6-13.2,13.5-25.8,21.8-37.7c10.2-14.7,21.9-28.4,34.5-41C411.3,283.3,416.9,278,422.7,272.9"/>
			<path class="st1" d="M363.2,373.2l-2.2,3.9C361.7,375.8,362.5,374.5,363.2,373.2"/>
			<path class="st1" d="M354.7,251c-0.5-1.1-0.9-2-0.8-2.8c0-1.1,0.6-2.2,1.1-2.9c0,0,18.1-1,29.5-4.1c0.5,1.6,1,3.6,1.8,6
				c0.5,1.5,1.1,2.8,1.9,4c0,0-0.1-0.1-0.1-0.1C383.2,251.9,364.5,252.2,354.7,251"/>
		</g>
		<g>
			<path class="st0" d="M354.7,251c9.9,1.2,28.6,0.9,33.3,0.1c0,0,0.1,0.1,0.1,0.1c2.7,4.3,6.8,6.2,9.7,7.2
				c-4.9,0.8-10.6,1.4-15.6,1.9c-2.4,0.2-4.9,0.4-7.4,0.5c-1.6,0.1-3.1,0.1-4.7,0.2c-3.2-0.6-6.9-1.8-9.5-3.5
				C357.6,255.5,355.7,253.1,354.7,251"/>
			<path class="st0" d="M350.5,250.7c0.1,0.1,0.5,0.9,0.6,1c1.1,2.1,3.4,4.2,5.5,5.4c0,0,0,0,0.1,0c3.7,2.2,9.4,3.5,13,3.7
				c0.1,0-1.3,0-2,0c-4.5,0-9-0.5-13.5-1.1c-3.9-0.5-7.7-1.2-11.4-1.2c-1.2,0-2.3,0.1-3.4,0.3c0,0,0,0-0.1,0c0,0,0,0,0.1,0
				c-1,0.2-2,0.5-3,0.9C336.5,259.7,338.6,250.7,350.5,250.7"/>
			<path class="st1" d="M411,278c-0.6-0.2-1.1-0.7-0.9-1.7c0.2-1,1.2-4-0.3-8.6c-1.5-4.6-5-7.5-8.3-9c-3.4-1.5-7.5-4.8-8.7-10.3
				c-1.2-5.5-4.1-12.7-3.3-17.4c0.3-1.8,2.1-4.3,6.2-4.1c-2.8-2.3-5.5-2.2-7.6-1.2c-3.4-6.3-8.6-8.9-17.9-7.1
				c-9.6,1.9-21.7,11-24.2,26.5c0,0.3,4.6,0.3,5,0.3h0.1c-0.6,0.7-1.2,1.8-1.2,3c0,0.6,0.3,1.5,0.7,2.4c-11.9,0-14,9-14.1,9.2
				c0,0-3.8-3-3.9-8.2c-0.4,2.1-2.1,3.9-4.4,4.2c-2.9,0.4-5.6-1.5-6-4.4c-0.4-2.9,1.6-5.6,4.4-6c2.9-0.4,5.6,1.5,6,4.4
				c0,0.1,0,0.1,0,0.2c0.1-0.6,0.2-1.3,0.4-1.9c0.5-1.8,1.2-3.1,1.9-4.1c1.7-2.4,3.5-2.7,3.5-2.7c0,0,0.3,0.3,0.3,0.4
				c0.1,0.1,1.2,1.3,1.3,1.2c-1.2,0.8-6.3,4.7-3.2,13.2c0,0-0.2-7.7,6.2-11.7c0.7-3.2,5.7-22.1,24.3-28c20.3-6.4,28.1,3.2,29.9,6.9
				c0.8,1.7,2.9,6.8,2.9,6.8c1.8,5,6.2,24.7,7.9,26.9c1.7,2.3,6.7,11.5,4.7,19.9C412.5,276.9,412.1,278.2,411,278"/>
			<path class="st0" d="M592.9,192.9c1.7-2.5,3.8-6.7,3.4-11.8c4.2-2.2,19.3-13.3,26.5-20.2c0.4,2.3,0.4,5.4-0.9,8.8
				c-1,2.9-3.3,6.1-5.5,8.5c-0.3,0.2-0.6,0.4-0.9,0.6c-2.3,1.6-4.6,3.2-6.9,4.7c-3.3,2.1-6.6,4.1-10,6.1c-1.6,0.9-3.2,1.8-4.8,2.7
				C593.5,192.6,593.2,192.8,592.9,192.9"/>
			<path class="st0" d="M625,167.2c0.9-2.1,1.3-4.8,1.2-7.1c0-0.6-0.1-1.2-0.2-1.7c0,0,0,0,0-0.1c0.4-0.3,0.8-0.6,1.2-0.9
				c0.7-0.4,1.3-0.8,2-1.2c1.1-0.6,2.3-1,3.5-1.3c0.9-0.2,1.8-0.3,2.7-0.3c2.6,0,5,1,7.1,2.6c0,0,0.1,0,0.1,0.1c-1,0.2-2,0.6-2.9,1
				c-1,0.5-2,1.1-2.9,1.8c-1.3,0.9-5,4.4-5.9,5.3c-1.2,1.2-2.4,2.4-3.7,3.7c-1.5,1.5-4.7,4.5-6.3,5.6c-0.3,0.3-4.3,3.4-4.3,3.4
				C616.9,178,623.5,171,625,167.2"/>
		</g>
		<g>
			<path class="st1" d="M632.7,154.9c-1.2,0.3-2.4,0.7-3.5,1.3c-0.7,0.4-1.4,0.8-2,1.2c-0.4,0.3-0.8,0.6-1.2,0.9c0,0,0,0,0,0
				c-0.2-1-0.5-1.8-0.9-2.3c-0.7-0.9-1.9-1.4-2.7-1.6c0,0,0,0,0.1,0c1.3-1.1,2.7-2,3.8-3.3c-11.4-10.8-26.6-10.9-35.3-6.6
				c-8.6,4.2-11.1,9.4-10,16.5c-2.3,0.5-4.6,1.9-5.4,5.5c0.1-0.1,0.2-0.1,0.3-0.2c2-1.6,5.2-2.2,7.2-0.3c1.8,1.7,3.2,4.5,4.5,7.5
				c1.2,2.8,2.1,5.6,3.4,8.3c0.5,1.1,0.9,2.3,1.1,3.5c0.6,3.4-0.1,7-1.8,10c-1.8,3.2-2.8,7.6-1.2,12.2c1.6,4.6,4.2,6.3,4.9,7
				c0.8,0.7,0.7,1.4,0.3,1.9c-0.7,0.9-1.8,0-1.8,0c-6.7-5.5-8.2-15.9-8.3-18.7c0-2.8-8.3-21.2-10-26.2c-0.1-0.2-1.5-4.6-1.8-7.2
				c-0.5-4-0.3-16.4,19.7-23.5c18.4-6.5,33.7,5.7,36.2,7.8c5.2-0.4,8.9,2.3,10.7,4.1c0.8,0.8,1.3,1.5,1.3,1.5
				c-2-6.5-6.1-8.1-8.7-8.5c-0.8-0.1-1.5-0.1-1.8-0.1c0.1-0.2,0.1-0.3,0.1-0.4c0.3-1.1,0.2-1.7,0.2-1.7s0.6-0.3,1.6-0.4
				c1.5-0.1,3.8,0.3,6.8,2.6c0.5,0.4,0.9,0.8,1.3,1.2c-1.2-2.5-0.3-5.4,2.2-6.8c2.5-1.4,5.7-0.4,7,2.1c1.4,2.5,0.4,5.7-2.1,7
				c-1.9,1-4.1,0.8-5.6-0.4c1.5,2.5,1.7,5.1,1.6,6.7c0,0.3-0.2,1.5-0.2,1.5c0,0,0,0-0.1,0c-2.1-1.5-4.5-2.6-7.1-2.6
				C634.6,154.5,633.6,154.7,632.7,154.9"/>
			<path class="st1" d="M595.4,177c-0.9-2.4-1.6-4.3-2.2-5.9c10.1-4.5,19.7-10.2,26-14.5c0.9,0.3,1.9,0.8,2.6,1.7
				c0.5,0.6,0.8,1.6,1,2.7c-7.2,6.9-22.2,18-26.5,20.2C596.3,181.2,595.9,178.6,595.4,177"/>
			<path class="st1" d="M566.6,507.2c-56.3,9.6-67.1-32.6-67.3-42.9c-0.1-7.5,0.4-12.5,0.1-15.6c-8.2-3.4-16.9-4.7-16.9-4.7
				c0.5,4.7,0.5,15.2,2.5,23.5c1.9,7.8,14.9,41.7,60.5,41.9c4.7,0,9.8-0.3,15.2-1.1c2-0.3,3.9-0.7,5.7-1.1
				C566.4,507.2,566.5,507.2,566.6,507.2"/>
		</g>
		<g>
			<path d="M770.2,325.7c-4.5-13.1-12.9-25.3-22.2-35.5c-6.7-7.5-14-14.2-21.8-20.5c-11.9-9.6-25.5-17.5-39.3-24
				c-13.8-6.5-28.2-11.6-42.8-15.7c-22.9-6.3-47.1-9.7-71.1-11c-1.8,3.6-4,7.2-6.5,10.8c76.9,5.5,127.6,35.7,127.6,35.7l0.4,0.3
				c-2.7-1.2-5.5-2.4-8.4-3.5c-12.4-4.7-38.5-13.5-73-19.7c-14-2.5-28.1-4.2-42.2-5.4c-1.1-0.1-9.3-0.7-9.3-0.7
				c-2.6,3.3-5.4,6.5-8.5,9.7c18.7,0.8,37.9,2.7,56.8,6.1c77.8,14,125.5,46.5,148.4,64.6c2.1,1.7,4,3.2,5.6,4.5
				c3.9,3.2,6.4,5.2,6.4,5.4l0-0.1L770.2,325.7L770.2,325.7z M598.7,189.7c3.4-1.9,6.7-4,10-6c2.4-1.5,4.7-3,6.9-4.7
				c0.3-0.2,0.6-0.4,0.8-0.6c2.2-2.4,4.5-5.6,5.5-8.5c1.2-3.4,1.3-6.5,0.9-8.8c-0.2-1.1-0.5-2.1-1-2.7c-0.7-0.9-1.7-1.4-2.6-1.7
				c-6.3,4.3-15.9,10-26,14.5c0.6,1.6,1.3,3.5,2.2,5.9c0.5,1.5,0.9,4.2,0.9,4.2c0.4,5.1-1.7,9.2-3.4,11.8c0.3-0.2,0.6-0.3,1-0.5
				C595.5,191.5,597.1,190.6,598.7,189.7L598.7,189.7z M621.1,174.6c1.5-1.1,4.8-4.2,6.2-5.6c1.2-1.2,2.5-2.4,3.7-3.7
				c0.9-0.9,4.6-4.4,5.9-5.3c0.9-0.7,1.9-1.3,2.9-1.8c0.9-0.4,1.9-0.8,2.9-1l0,0c0,0,0.2-1.2,0.2-1.5c0.1-1.6-0.1-4.2-1.6-6.7
				c1.6,1.2,3.8,1.4,5.6,0.4c2.5-1.4,3.5-4.5,2.1-7.1c-1.4-2.5-4.5-3.5-7.1-2.1c-2.4,1.3-3.3,4.3-2.2,6.8c-0.4-0.4-0.8-0.8-1.3-1.2
				c-3-2.3-5.3-2.6-6.8-2.6c-1,0.1-1.6,0.4-1.6,0.4s0.1,0.7-0.2,1.7c0,0.2-0.1,0.3-0.1,0.5c0.4,0,1,0,1.8,0.1c2.5,0.4,6.7,2,8.6,8.5
				c-0.1-0.1-0.6-0.7-1.3-1.4c-1.8-1.8-5.6-4.5-10.7-4.1c-2.5-2.1-17.8-14.3-36.2-7.8c-20.1,7.1-20.2,19.5-19.7,23.6
				c0.3,2.6,1.7,7,1.8,7.2c1.6,5.1,9.9,23.4,9.9,26.2c0.1,2.8,1.6,13.2,8.3,18.7c0,0,1.1,0.8,1.8,0c0.4-0.5,0.5-1.2-0.3-1.9
				c-0.8-0.7-3.4-2.5-4.9-7c-1.5-4.6-0.6-9,1.2-12.2c1.7-3,2.4-6.6,1.8-10c-0.2-1.2-0.6-2.4-1.1-3.5c-1.3-2.7-2.3-5.6-3.4-8.3
				c-1.3-3-2.7-5.8-4.5-7.5c-2-1.9-5.2-1.3-7.2,0.3c-0.1,0.1-0.2,0.1-0.3,0.2c0.8-3.6,3.1-5,5.4-5.5c-1.1-7.1,1.4-12.3,10-16.5
				c8.8-4.3,24-4.3,35.3,6.5c-1.1,1.3-2.5,2.2-3.8,3.3c0,0,0,0-0.1,0c0.9,0.3,2,0.7,2.7,1.6c0.4,0.5,0.7,1.3,0.9,2.3c0,0,0,0,0.1,0
				c0,0,0,0,0,0c0.1,0.5,0.2,1.1,0.3,1.8c0.1,2.3-0.4,5-1.2,7.1c-1.3,3.6-7.2,9.9-8.1,10.8C617.5,177.5,620.8,174.9,621.1,174.6
				L621.1,174.6z M569.4,192.1c0,0-0.1-0.7-0.4-1.6c-4.2-12.4-50.1-35.2-92.6-20.9c-42.5,14.3-65,61.5-61.3,72.6
				c0.3,0.7,0.5,1.1,0.5,1.1c0.1,0,0.1,0.2,0.1,0.2c0.3,0.5,0.7,1,1,1.5c9.3,11.8,51.8,31.2,91,18.1c32.4-10.9,53.5-40.2,59.8-59
				C569.2,199.2,569.9,195,569.4,192.1L569.4,192.1z M407.9,256.9c-1.7-2.3-6.1-21.9-7.9-26.9c0,0-2.1-5.2-2.9-6.8
				c-1.8-3.7-9.6-13.3-29.9-6.9c-18.6,5.9-23.6,24.9-24.3,28c-6.3,4.1-6.2,11.7-6.2,11.7c-3.1-8.4,2-12.3,3.2-13.1
				c-0.2,0-1.2-1-1.3-1.2c0,0-0.3-0.4-0.3-0.4c0,0-1.8,0.4-3.5,2.7c-0.7,1-1.4,2.3-1.9,4.1c-0.2,0.7-0.3,1.3-0.4,1.9
				c0-0.1,0-0.1,0-0.2c-0.4-2.9-3.1-4.8-6-4.4c-2.9,0.4-4.9,3.1-4.4,6c0.4,2.9,3.1,4.8,6,4.4c2.3-0.3,4-2.1,4.4-4.2
				c0.2,5.2,3.9,8.2,3.9,8.2c1-0.4,2-0.7,3-0.9c1.1-0.2,2.2-0.3,3.4-0.3c3.6,0,7.4,0.7,11.4,1.2c4.5,0.6,9,1.1,13.5,1.1
				c0.7,0,2.1,0,2,0c-3.6-0.2-9.4-1.5-13-3.7c0,0,0,0-0.1,0c-2.1-1.2-4.3-3.3-5.5-5.4c-0.1-0.1-0.5-0.9-0.6-1
				c-0.4-0.9-0.7-1.7-0.7-2.4c0-1.1,0.7-2.2,1.2-3H351c-0.4,0-5,0-5-0.3c2.5-15.5,14.6-24.7,24.2-26.5c9.4-1.8,14.5,0.8,17.9,7.1
				c2.2-1,4.8-1.2,7.6,1.2c-4.1-0.2-5.9,2.3-6.2,4.2c-0.8,4.7,2.1,11.9,3.3,17.4c1.2,5.5,5.3,8.8,8.7,10.3c3.4,1.5,6.8,4.4,8.3,9
				c1.5,4.6,0.5,7.5,0.3,8.6c-0.2,1,0.3,1.6,0.9,1.7c1.1,0.3,1.5-1.1,1.5-1.1C414.6,268.4,409.5,259.2,407.9,256.9L407.9,256.9z
				 M374.8,260.8c2.5-0.1,4.9-0.3,7.4-0.5c4.9-0.4,10.7-1.1,15.6-1.9c-2.9-1-7-2.9-9.7-7.2c-0.7-1.2-1.4-2.5-1.9-4
				c-0.8-2.4-1.4-4.4-1.8-6c-11.4,3.1-29.5,4.1-29.5,4.1c-0.5,0.8-1,1.8-1.1,2.9c0,0.7,0.3,1.7,0.8,2.8c1,2.1,3,4.5,6,6.5
				c2.6,1.7,6.3,2.9,9.5,3.5C371.7,260.9,373.3,260.9,374.8,260.8L374.8,260.8z M371.4,329.7c-8.3,11.9-15.8,24.5-21.8,37.7
				c-5.9,12.9-10.7,26.3-13.7,40.2c-2.8,13.1-4.1,26.5-3.4,39.9c0.4,7.9,1.4,16.1,3.9,23.7l0.4,1.1c4.2-17.9,16.9-84.6,83.1-156.3
				c13.1-14.2,27.4-27.3,42-39.3c-4.4-0.7-8.6-1.6-12.7-2.7c-10.4,9.2-34.9,33.3-35,33.4c-19.7,19.8-34.4,38.9-45.5,56.6
				c-2.3,3.8-4.1,6.9-5.5,9.2c-0.8,1.3-1.5,2.6-2.2,3.9l-0.2,0.3c0.7-1.7,23.1-55.7,80.5-105.8c-4.2-1.5-8.1-3-11.7-4.8
				c-0.6-0.3-6.3,5.5-7,6.1c-5.8,5.1-11.4,10.4-16.8,15.8C393.3,301.4,381.6,315.1,371.4,329.7L371.4,329.7z M480.9,310.5
				c-0.2,0.8-0.5,1.6-0.7,2.2c-1.5,4.7-7.6,22.2-9,26.2c-1.2,3.6-2.1,6.6-1.8,12c0,0.8,0.1,1.6,0.2,2.5c0.8,6.6,4,20.1,4.4,21.8
				c0,0.1,0,0.2,0,0.2s5.4-2.6,7-3.6c0,0,0-0.1,0-0.2c-0.2-1.5-1.6-12.2-1.7-17.4c0-0.8,0-1.4,0.1-1.9c0,0,3.1-3.3,3.9-5.8
				c0.7-2.5,0-15.9,5.3-25.2v0.2c0,0,0.3,1,1.4,2.7c1.1,1.7,3.4,4.1,4.7,3.1c1.3-0.9,1.1-3.6,1.1-6.4c0-2.8-1-5.9-1.7-6.7
				c0,0,1.1-2.3,4.1-3.7c0,0-0.1,1.1,0.1,2.6c0.5,2.7,1.8,5,2.7,7.5c0.3,0.9,1.1,1.8,2.4,1.1c0,0,2.5-1.3,4.7-2.4
				c0.3-0.2,1.8-1.3,1-3.5c0-0.1-0.1-0.1-0.1-0.2c0-0.1-0.1-0.2-0.1-0.3c-0.8-2.1-1.5-4-2.6-6.2c0,0-0.5-2-1.5-2.1
				c0,0,1.8-1.2,2.7-1.6c1.3-0.5,2.8-1.2,3.6-1.4c0,0-0.8,1.3-0.6,3.2c0.5,2.7,1.3,6.3,2,9.4c0.2,0.7,0.9,1.9,2.4,1.5
				c1.7-0.7,3.4-1.3,5.1-2c1.4-0.6,1.4-2,1.4-2.5c-0.8-3.4-1.7-7.5-2.6-10.7c-0.2-0.5-0.5-1.2-0.8-1.4c0,0,1.5-1.1,2.6-1.3
				c1-0.3,2.9-0.7,2.9-0.7s-0.4,1.3,0.1,2.7c0,0,0,0.1,0,0.1c0.8,2.2,1.5,4.3,2.3,6.5c0.2,0.6,0.7,1.8,1,2.6
				c0.2,0.4,0.8,1.7,2.3,1.3c2-0.6,4-1.1,6-1.6c1.5-0.4,0.6-2.7,0.6-2.7s-2.2-5.3-3.6-8.7c0,0-0.5-1.2-1.2-1.8c0,0,1.4-0.6,2.4-0.8
				c2.2-0.4,3.5-0.4,4.1-0.4c0,0-0.7,1.6,0.1,3.6c0.1,0.1,0.1,0.2,0.1,0.3c0.7,1.5,1.4,3.1,2,4.6c0.2,0.4,0.4,0.9,0.5,1.3
				c0.2,0.7,1.3,1.8,3,1.5h0.1c1.4-0.3,2.8-0.5,4.2-0.7l0,0c0,0,2.5-0.5,1.6-2.9c-1.3-2.8-2.6-5.6-4.1-8.5c1.6-0.1,3.1-0.2,4.7-0.3
				c0,0-0.2,0.1,0.5,1.9c0.6,1.8,2.5,5.5,2.7,6c0.2,0.6,0.9,2.7,1.8,2.8c0.9,0.1,4.5-2.8,3.6-8.3c9.8,4.2,17.3,15.4,19.4,16.9
				c1.8,1.3,5.4,2.1,6.3,2.2c0.1,0,0.2,0,0.2,0c2.5,2.6,9.5,14.8,10.4,16.4c0.1,0.1,0.1,0.2,0.1,0.2c1.9-0.2,7.8-1.4,7.8-1.4
				s-6.1-14.1-9.7-20.2c-3.6-6.1-6.5-8.1-10-10.6c-3.5-2.5-18.9-12.6-23-15.5c-4.1-2.9-14.9-12.6-24.4-14.3
				c-4.7-0.8-8.8-0.9-12.6-0.5c-3.9,0.4-7.5,1.4-11.4,2.7c0,0,0,0-0.1,0c0,0-0.1,0-0.1,0c-7.7,2.6-14,5.8-20.5,12.7
				C485.4,292.7,482.5,304.4,480.9,310.5L480.9,310.5z M468.3,393.9c-0.2,1.7-0.3,3.8-0.3,5.8c0,5.1,0.5,10.1,0.5,10.1
				s6.8,4.4,10.3,10.8c3.5,6.4,6.4,19.1,6.4,19.1c13.1,1.5,25.4,15.5,26.2,16.3c-3.3-3.1-7.5-5.5-12-7.3c-8.2-3.4-16.9-4.7-16.9-4.7
				c0.5,4.7,0.5,15.2,2.5,23.5c1.9,7.8,14.9,41.7,60.5,41.9c4.7,0,9.8-0.3,15.2-1.1c2-0.3,3.9-0.7,5.7-1.1c0.1,0,0.2,0,0.3-0.1
				c10.4-2.2,18.7-4.7,20.9-5.4c0.2-0.1,0.4-0.1,0.6-0.2c1.1-0.3,2.5-0.8,4.3-1.5c0.5-0.2,1-0.4,1.6-0.6c0.7-0.3,1.5-0.6,2.3-0.9
				c1.1-0.4,2.2-0.9,3.4-1.4c1.2-0.5,2.4-1.1,3.7-1.7l2.3-1c58.9-28.3,45.9-73.1,42.5-81.7c-3.1-7.7-9.2-15.3-11.8-19.6
				c-3.1,3.4-7.3,8.5-10.5,14.2c-2.1,3.7-3.7,7.7-4.3,11.6c0,0,1.1-19.5,11-28.9c0,0-5.3-11.9-6.4-19.1c-1.1-7.2,1.7-14.8,1.7-14.8
				s-0.7-1.1-1.7-2.7c0-0.1-0.1-0.1-0.1-0.2c-2.3-4.2-5.5-8.6-9.3-11.5c-4.5-3.4-6.6-5.9-19.1-3c-4.9,1.2-9.8,2.2-14.7,2.8
				c-6.3,0.8-14.7,1-19.4-4.3c0,0,0,0-0.1-0.1c-0.6-0.7-1.2-1.5-1.6-2.5c0,0,3.5,2.5,9.8,2.2c0,0,0,0,0-0.1l0,0
				c-0.2-0.5-1.6-4.4-2-7.8c-0.2-2.1-1.2-7.5-1.2-7.5c-1.8-6.4-8-9.9-8.6-9.6c-0.7,0.4-1.5,2,1.3,10.8c0,0.4,1.4,0.9,1.7,0.9
				c0.6,0.1,1.1,0.2,1.7,0.3c0,0-0.2,0.3-0.8,1.2c-0.3,0.4-0.9,0.7-1.3,0.9c-0.5,0.3-2.9,1.3-2.9,1.3c-1.2,0.5-2.3,0.9-2.3,0.9
				c0-0.2,0-0.5,0-0.8c-0.1-0.6-0.4-1.6-0.4-1.7c0-0.2,0-0.4-0.1-0.4c-0.1-0.6-0.3-1.1-0.4-1.7c-0.6-2-1-3.7-1.7-5.6
				c0,0-0.1-0.1-0.1-0.1c-0.6-1.9-2.5-1.3-2.5-1.3c0,0-0.2,0.1-0.2,0.1c-1.4,0.7-2.9,1.4-4.5,2.2c0,0-1.8,0.9-1.5,2.8
				c0,0,0,0.1,0,0.1c0,0.1,0,0.1,0,0.2c0.1,0.2,0.1,0.4,0.2,0.5c0.5,1.8,1.5,5.6,1.7,6.5c0.2,1,0.9,3,1.3,3.7
				c-0.3,0.3-1,1.1-1.7,1.4c-0.6,0.3-1.1,0.4-2,0.3c-0.3-0.3-0.8-1-0.8-1.4c0-0.2-0.7-2.2-1.3-4.4c-0.7-2.2-1.5-4.6-1.9-5.7
				c-0.4-1.2-1.2-1.4-1.9-1.4c-0.6,0-1,0.2-1,0.2c-1.4,0.6-3.3,1.2-4.7,1.8c-0.1,0-0.2,0.1-0.3,0.1c-1.8,0.7-1.7,2.2-1.5,2.8
				c0.8,2.3,1.8,5.2,2.5,7.5c0.2,0.5,0.4,1.1,0.5,1.6c0,0,0,0,0,0.1c0.1,0.2,0.7,1.9,1.8,2.5c-0.7,0.5-2,1-3,1.4
				c-1.2,0.4-3.4,0.8-3.5,0.8c0.4-0.8,0.4-2.1,0.3-2.8c-0.3-0.9-2.6-9.2-2.7-9.5c-0.1-0.3-0.5-1.3-1.2-1.5c-0.6-0.2-2.4,0.3-2.4,0.3
				c-0.1,0-0.2,0-0.3,0.1c-1.5,0.5-3.6,0.8-5.1,1.2c0,0-2.3,0.7-1.6,2.8c0,0,1.5,5.6,2.3,8.2c0,0.1,0,0.2,0,0.2
				c0.1,0.2,0.4,1.3,0.5,3c0.1,1.7-1,2.1-1.8,2.1c-0.8,0-1.7-1.4-1.9-2.3c-0.2-0.9-0.7-2.4-0.7-2.4l-0.1-0.1v0
				c-0.1-0.1-0.1-0.3-0.2-0.4c-0.8-2.2-1.4-3.9-2.2-6.1c-0.8-2-3-1.6-3-1.6c-1.7,0.4-3.3,0.7-4.9,1c0,0-0.2,0.1-0.2,0.1
				c0,0-1.9,0.7-1.3,2.5c0,0.1,0,0.1,0,0.2c0.7,2,1.2,3.5,2,5.5c0.2,0.5,1,2.4,1.5,3.1c0.5,0.7,1.1,1.1,1.1,1.1
				c0,0.4-0.6,1.2-1.8,1.7c-0.1,0-0.3,0.1-0.5,0.1c-0.4,0.1-0.8,0.2-1.2,0.2c-1.1,0.1-3,0.3-3.3-1.2c0-0.1,0-0.1,0-0.1
				c0.2-0.6,0.3-1.4,0.2-1.8c-0.1-0.5-0.3-0.9-0.3-1.1c-3.1-8.7-4.7-9.5-5.5-9.4c-0.7,0-3.4,6.6-1,12.8c0,0,0,0.1,0,0.1
				c1.2,2.8,2.4,4.8,3.5,6.6c1.9,3.2,3.1,7.5,3.1,7.5l0-0.1v0.1c1.6-1.1,3-2.4,4.2-3.9c0,0,0.1-0.1,0.1-0.1c0.6-0.9,1.5-1.7,2-2.7
				c0.1-0.3,0.2-0.6,0.2-0.8c0.4,1.7,0.4,3.7-0.3,5.3c0,0.1,0,0.1-0.1,0.2c-2.4,6.4-8.4,10.2-14.1,13.4c-3.8,2.1-7.7,4-11.7,5.7
				c-11.6,5.1-11.8,8.5-13.4,13.9C468.5,392.2,468.4,393,468.3,393.9L468.3,393.9z M648.7,273.8c-42.1-11.3-82.4-14.6-109.2-15.3
				c-0.4,0.3-0.8,0.6-1.3,0.9c6.5,1.3,12.5,3.9,17.8,8.2c13.4,10.7,28.2,18.9,38.1,26.8c10,7.9,19.2,31.8,19.2,31.8
				c16.7,6.4,28,29.1,28,29.1s-2.6,5-2.9,11.1c-0.3,6.1,9.3,16.5,19.2,34.8c9.9,18.3,12.1,43.4-4.3,71
				c-16.3,27.4-61.2,41.6-61.6,41.7c-0.4,0.1-44.7,15.9-74.3,3.9c-29.7-12.1-43.1-33.4-46.2-54c-3.2-20.6-1.8-34.6-5.7-39.3
				c-3.9-4.7-9-7.2-9-7.2s-4.6-24.9,4.8-40.1c0,0-7-24.6-3.9-36.9c3.2-12.3,10.1-27.7,14.3-44.3c1.7-6.7,5.1-12.6,9.6-17.6
				c-0.5,0-1,0-1.4,0c-21,16.8-51.3,43.8-78.2,78.4c-47.1,60.6-62.5,157.1-62.5,157.1c-20.7-56.6-25.9-76.6-8.9-130.3
				c17.1-53.7,68.5-105.1,68.5-105.1c-1.2-3,0.6-8.5,0.6-8.5s-7.5,2.3-30.2,2.3c-22.6,0.1-18.3-2.4-25.3-2c-6.9,0.4-8.9,3.2-8.9,3.2
				c-3.5-1.7-6.8-5.8-6.8-5.8c-3.3-0.4-19.5-2.2-17.8-18.1c1.7-15.9,18.4-14.9,18.4-14.9c3-3.4,7.4-4.9,7.4-4.9s9.8-25.9,38.1-27.2
				c24.6-1.1,32.5,13.9,34.2,17.9c0.6-1.5,1.3-3,2.1-4.6c5-10.2,12.7-21.6,23-31.8c10.4-10.3,23.5-19.5,39.3-24.8
				c24.1-8,48.4-5.6,67.5,0.4c7.1,2.2,13.9,5.1,20.3,8.8c-1.1-5.4-2.3-20.9,16.7-34c23.3-16.1,46.8-1.3,46.8-1.3s4.4-1.5,8.9-0.5
				c0,0,12.7-10.8,23.7,0.8c11,11.7-0.8,22.9-3.2,25.2c0,0-0.2,5.2-2,8.7c0,0-3.3-1.1-9.1,2.8c-5.8,3.9-0.9,3.2-19,16.8
				c-18.1,13.6-25.5,16.3-25.5,16.3s4.8,3.3,5.6,6.4c0,0,72,9.9,118,42.5c46,32.6,53.9,51.6,71.5,109.3
				C793.3,361.4,722.9,293.7,648.7,273.8"/>
			<path class="st1" d="M648.2,412.9c-3.1-7.7-9.2-15.3-11.8-19.6c-3.1,3.4-7.3,8.5-10.5,14.2c1.7,2.6,5.1,6.2,8.9,11.4
				c2.7,3.7,7.5,13.9,7.5,26.2c0,14.1-6.3,31.1-29.2,45c-0.1,0.1-0.2,0.1-0.3,0.2c-0.3,0.2-0.6,0.4-0.9,0.5
				c-2.9,1.8-5.9,3.3-8.6,4.7l2.3-1C664.6,466.2,651.6,421.4,648.2,412.9"/>
			<path class="st0" d="M622.5,391.2L622.5,391.2c0-0.1-2.5-16.7-6.5-23.3c-4.1-6.6-7.9-12.6-18.1-12.1c0,0,5.9,1.7,4,6.3
				c-0.1,0.3-0.2,0.7-0.3,1l0,0c0,0-1.6-0.5-2.4-0.6c-6.1-0.8-19,1.2-25.2,5.5c-0.1,0-0.1,0-0.1,0.1c0,0-1.5-1.8,0.4-7.6
				c-0.5,0.2-8.2,3-11,9.3c-2.9,6.4-0.1,23.8-10.4,27.4c-10.4,3.4-18.6-12.1-24.8-15.5c-6.2-3.4-14.4-0.8-14.4-0.8
				c5.1,3.4,5,5.8,5,5.8c-0.1,0-0.1,0-0.2,0c-7.5,0.4-19,6.6-23.4,10.8c-0.6,0.6-1.5,1.9-1.5,1.9c-0.1-0.1-0.3-0.2-0.4-0.3
				c-0.2-0.1-0.3-0.2-0.5-0.3c-4.1-2.4-0.9-7-0.6-7.4c-8.4,5.6-7.9,12.8-7.1,20.5c0.7,7.7,8.8,22.5,8.8,22.5l0.1-0.1
				c0,0,0,0-0.1,0.1c0.5-0.2,7.6-3.3,14-9.3c0.6-0.6,1.2-1.2,1.8-1.8c6.9-7.5,13.4-14.3,19.8-16.4c2.1-0.7,4.3-0.8,6.3-0.8
				c0,0,0.1,0,0.1,0c0.6,0,1.1,0.1,1.6,0.1v0c3.3,0.4,5.9,1.3,5.9,1.3c2.2-4.7,19.1-10.4,23.8-8c0,0,0.1-0.1,0.1-0.2
				c0.3-0.4,1.7-2.4,3.8-4.4v0c0.4-0.4,0.8-0.7,1.2-1.1c0,0,0.1,0,0.1-0.1c1.5-1.3,3.4-2.5,5.5-3.2c6.4-2.2,15.7-0.6,25.7,1.2
				c0.9,0.1,1.7,0.3,2.6,0.4C614.7,393.1,622.5,391.2,622.5,391.2L622.5,391.2z M556.3,357l-1-3.1c-1.4-4.2-6.5-6.3-11.3-4.7v0
				c0,0,3.2,0.8,4.3,3.9c0,0,0,0.1,0,0.1c-0.9-0.1-1.9-0.1-2.9,0.2c-3.1,1-4.8,4.2-3.8,6.9c0.2,0.5-0.1,1-0.6,1.2
				c-0.5,0.2-1-0.1-1.2-0.6c-0.9-2.8-4.2-4.2-7.3-3.2c-1,0.3-1.8,0.9-2.5,1.6c0,0,0-0.1,0-0.1c-1-3.1,1-5.7,1-5.7
				c-4.8,1.6-7.6,6.3-6.2,10.5l1,3.1c0.7,2.3,2.6,3.7,3.9,4.5c1.3,0.9,2.4,1.5,3.8,3.2l0.1,0.1v0c1.8,2,3.3,3.6,4.1,6.1
				c1.4,4,6,6.1,10.8,4.8c0.2,0,0.4-0.1,0.5-0.1c0.2-0.1,0.4-0.1,0.6-0.2c4.5-1.8,6.9-6.3,5.6-10.3c-0.8-2.6-0.7-4.6-0.5-7.4l0-0.1
				v0c0.1-2.2,0.6-3.4,1.1-4.9C556.5,361.5,557.1,359.3,556.3,357z M547.2,424.5c8-7.1,11.5-7.7,12.2-7.9c0.7-0.3,3.9-1.9,14.5-1
				c12.3,0.6,34,2.8,40.4-5.1c0-0.2-15.5,1.5-25.9-0.2c-10.4-2.2-25.1-3.6-31.6-1.3c-6.6,2.1-17.5,12.1-24.4,20.1
				c-7.3,7.6-20.5,15.5-20.5,15.7C521.8,447.2,537.8,432.3,547.2,424.5L547.2,424.5z M634.8,418.9c2.7,3.7,7.5,13.9,7.5,26.2
				c0,14.1-6.3,31.1-29.2,45c-0.1,0.1-0.2,0.1-0.3,0.2c-0.3,0.2-0.6,0.4-0.9,0.5c-2.9,1.8-5.9,3.3-8.6,4.7c-1.3,0.6-2.5,1.2-3.7,1.7
				c-1.2,0.5-2.3,1-3.4,1.4c-0.8,0.3-1.6,0.6-2.3,0.9c-0.6,0.2-1.1,0.4-1.6,0.6c-1.8,0.7-3.2,1.1-4.3,1.5c-0.2,0.1-0.4,0.1-0.6,0.2
				c-2.2,0.7-10.5,3.2-20.9,5.4c-56.3,9.6-67.1-32.6-67.3-42.9c-0.1-7.5,0.4-12.5,0.1-15.6c4.4,1.8,8.7,4.2,12,7.3
				c-0.8-0.9-13-14.9-26.2-16.3c0,0-2.9-12.7-6.4-19.1c-3.5-6.4-10.3-10.8-10.3-10.8c-0.7-9.1,4.2-22.2,9.7-24.9
				c5.4-2.7,19.9-7.5,25.5-13.9c5.6-6.4,5.8-13.2,4.5-18.1c-0.4-2-1.3-4.4-2-6.1c0.2,0,0.3-0.1,0.5-0.1c1.2-0.4,1.8-1.2,1.8-1.7
				c0,0-0.6-0.4-1.1-1.1c-0.5-0.7-1.2-2.6-1.5-3.1c-0.8-2-1.4-3.5-2-5.5c0-0.1,0-0.1,0-0.2c-0.6-1.9,1.3-2.5,1.3-2.5
				c0,0,0.2-0.1,0.2-0.1c1.5-0.3,3.2-0.6,4.9-1c0,0,2.3-0.4,3,1.6c0.7,2.2,1.4,3.9,2.2,6.1c0,0.1,0.1,0.3,0.2,0.4v0l0.1,0.1
				c0,0,0.5,1.5,0.7,2.4c0.2,0.8,1.1,2.3,1.9,2.3c0.8,0,2-0.4,1.8-2.1c-0.1-1.7-0.5-2.8-0.5-3c0-0.1,0-0.2,0-0.2
				c-0.8-2.6-2.3-8.2-2.3-8.2c-0.7-2.1,1.6-2.8,1.6-2.8c1.4-0.4,3.6-0.7,5.1-1.2c0.1,0,0.2,0,0.3-0.1c0,0,1.8-0.6,2.4-0.3
				c0.7,0.2,1.1,1.2,1.2,1.5c0.1,0.3,2.5,8.6,2.7,9.5c0.2,0.7,0.1,2-0.3,2.8c0.1,0,2.3-0.4,3.5-0.8c1-0.4,2.3-0.9,3-1.4
				c-1-0.5-1.7-2.2-1.8-2.5c0,0,0-0.1,0-0.1c-0.2-0.6-0.4-1.1-0.5-1.6c-0.8-2.3-1.7-5.2-2.5-7.5c-0.1-0.6-0.2-2.1,1.5-2.8
				c0.1,0,0.2-0.1,0.3-0.1c1.5-0.6,3.4-1.2,4.7-1.8c0,0,0.5-0.2,1-0.2c0.7,0,1.5,0.3,1.9,1.4c0.4,1.1,1.2,3.5,1.9,5.7
				c0.7,2.2,1.3,4.2,1.3,4.4c0,0.4,0.5,1.2,0.8,1.4c0.8,0.1,1.4-0.1,2-0.3c0.7-0.3,1.4-1.1,1.7-1.4c-0.4-0.8-1.1-2.7-1.3-3.7
				c-0.1-0.9-1.2-4.7-1.7-6.5c-0.1-0.1-0.1-0.3-0.2-0.5c0-0.1,0-0.1,0-0.2c0-0.1,0-0.1,0-0.1c-0.3-1.8,1.5-2.8,1.5-2.8
				c1.6-0.8,3.1-1.5,4.5-2.2c0,0,0.2-0.1,0.2-0.1c0,0,1.9-0.6,2.5,1.3c0,0.1,0.1,0.1,0.1,0.1c0.6,2,1.1,3.6,1.7,5.6
				c0.1,0.6,0.3,1.1,0.4,1.7c0,0.1,0.1,0.2,0.1,0.4c0,0.1,0.3,1.1,0.4,1.7c0.1,0.3,0.1,0.6,0,0.8c0,0,1-0.4,2.3-0.9
				c0.5,4.2,2.3,7.3,2.3,7.3c0.4,0.9,1,1.8,1.6,2.5c0,0,0,0,0,0c2.3,3.9,6.4,7.8,13.3,9.2c8.4,1.7,22.8-3.2,28.8-4.3
				c5.3-1,15.1,4.8,20.7,11.4c1,1.6,1.7,2.7,1.7,2.7s-2.8,7.6-1.7,14.8c1.1,7.2,6.4,19.1,6.4,19.1c-9.9,9.4-11,28.9-11,28.9
				c0.6-4,2.2-7.9,4.3-11.6C627.6,410.1,631,413.7,634.8,418.9"/>
		</g>
		<path class="st2" d="M489.1,166.7c-24.1,4.4-45.9,19.2-61.4,42c-9.5,14-15.1,31.1-11.4,34.6c1.7,1.5,2.4,1.4,1.5-0.2
			c-1.4-2.7-0.8-6.3,2.1-11.6c15.2-27.9,42.4-48.7,71.3-54.6c22.8-4.6,49.6-1.4,69.1,8.4c5.4,2.7,7.5,4.9,7.5,8
			c0,1.1,0.1,1.1,0.7,0.1c1.6-2.7-3.3-8.8-11.2-13.8c-9-5.7-22-10.4-34.9-12.6C513.4,165.4,497.1,165.2,489.1,166.7L489.1,166.7z"/>
	</g>
</g>
</svg>
