<?xml version="1.0" encoding="utf-8"?>
<!-- Generator: Adobe Illustrator 21.1.0, SVG Export Plug-In . SVG Version: 6.00 Build 0)  -->
<!DOCTYPE svg PUBLIC "-//W3C//DTD SVG 1.1//EN" "http://www.w3.org/Graphics/SVG/1.1/DTD/svg11.dtd">
<svg version="1.1"
	 id="Layer_1" xmlns:cc="http://creativecommons.org/ns#" xmlns:dc="http://purl.org/dc/elements/1.1/" xmlns:rdf="http://www.w3.org/1999/02/22-rdf-syntax-ns#"
	 xmlns="http://www.w3.org/2000/svg" xmlns:xlink="http://www.w3.org/1999/xlink" x="0px" y="0px" width="300px" height="212.5px"
	 viewBox="0 0 300 212.5" style="enable-background:new 0 0 300 212.5;" xml:space="preserve">
<style type="text/css">
	.st0{fill:#FFFFFF;}
	.st1{fill:#002244;}
	.st2{fill:#4B92DB;}
	.st3{fill:#16243E;}
	.st4{fill:#A5ACAF;}
	.st5{fill:#C60C30;}
</style>
<g transform="matrix(1.25 0 0 -1.25 -286.97 561.47)">
	<g transform="translate(.59976 .79968)">
		<path class="st0" d="M306.5,349.2c0.2-2.8,1.2-8.4,4.5-14.7c4-7.7,12.4-18,29.7-23.9c2.7-4.3,6-8.3,9.6-12
			c13.2-13.1,30.6-20.3,49.2-20.3c18.6,0,36,7.3,49.2,20.4C461.8,312,469,329.4,469,348c0,18.6-7.3,36-20.4,49.2
			c-10.4,10.4-23.5,17.1-37.9,19.4c-19.5,17.6-42.2,11.3-43.2,11c-0.3-0.1-0.8-0.2-1.4-0.4c-7-2.3-10.6,0.3-13,2.2
			c-2.6,2-5.4,4.1-8.2,5.6c-9.3,5.2-22.5,5.4-33.6,0.9c-7.3-2.5-11,0.7-13.2,2.2c-14.5,10-32.3,12.4-51.3,8.2
			c-12.7-2.8-17.8-5.4-17.8-5.4s8.7-1.3,17.8-5.1c7.5-3.1,13.4-7.1,17.9-14.4c0,0,2.8-4.2,1-5.4c-2.1-1.4-4.2,2-4.2,2
			c-0.1-2.4-0.1-4.8,0.1-6.7c1-19.2,5-30.8,14.2-39.6c4.2-4,11.3-7.9,22.3-12.2C303.3,357.6,306,355.1,306.5,349.2"/>
		<path class="st1" d="M445.4,394c-10.1,10.1-22.9,16.4-36.8,18.4c-18.1,17.3-39.9,11-39.9,11c4.6-0.7,7.7-3.5,6.5-6.5
			c-0.8-2-4.2-2.1-5.7-2.1c-4.9-0.1-9.1,2.9-12.5,5.7c-3.5,2.8-9.2,7.9-14.3,10.8c-9.5,5.4-24.6,4.7-35.6-2.3
			c6.5-0.4,14.4-2.3,19.1-6.2c2.6-2.2,6-6.5,3.2-8.6c-2.4-1.8-8.3-0.9-11.3,0.9c-4.8,2.8-9.1,6.9-11.6,10
			c-17.3,20.4-41.9,21.5-62.1,16.6c13.3-3.7,22.2-11.3,27.6-24.3c5.5-13,9.7-18.6,18.8-22.1c5.6-2.2,7.2-2.6,6.7-5.1
			c-0.6-3.7-7.3-1.9-12.4,0.1c-6.2,2.4-14.4,9.1-19.3,21.7c0.9-16.3,4-27.8,13.2-36.5c3.9-3.7,11.1-7.5,22.3-11.8
			c7.1-2.8,12.8-4.4,18.1-9.2c6.2-5.6,3.6-9.2-0.6-8.5c-4.7,0.8-8,5.5-8,5.5s0-26.5,32.8-36.7c2.7-4.5,6-8.7,9.9-12.6
			c12.3-12.3,28.7-19,46.1-19c17.4,0,33.7,6.8,46,19.1c12.3,12.3,19,28.7,19,46.1C464.5,365.4,457.7,381.8,445.4,394"/>
		<path class="st2" d="M441.9,390.7c-9.8,9.8-22.3,15.8-35.9,17.2c-11.7,11.6-23.3,11.1-23.3,11.1c5.1-3.2,2.5-10.3-8.9-11.9
			c-11.2-1.6-25.5,2.3-32.5,10.4c-7.2,8.3-12.6,8.7-12.6,8.7c6.2-3.9,6.7-8.5,10.4-15.6c3.8-7.1,11.5-9.7,18.3-10.1
			c7.1-0.5,7.3-3.7,1.6-7.1c-6.3-3.7-11.8-0.2-15.8,3.8c-6.4,6.3-12.7,7.5-21.5,7.4c-8.8-0.1-20.3-1.3-30.1,2.4
			c-9.8,3.7-16.2,16.5-16.2,16.5c4.8-17.1,15.6-25.2,25.6-27.1c13.2-2.6,22.3-5.7,27.9-10.2c5.4-4.4,8.3-8.8,10.4-14.9
			c1.6-4.7,1.9-10.9,0.3-11.3c-1.8-0.4-2.2,2.1-4.3,6.4c-2.4,4.8-5.2,8.6-10.9,11.6c-7.7,4.1-15.3,3.9-23,3.8
			c-6.1-0.1-9.7,0.6-9.7,0.6s0.3-0.8,10.2-3.1c11.1-2.5,21.8-8.7,28.9-23.9c6.1-12.9,2.9-22-10.5-17.9c0,0,6.3-14,26.8-18.9
			c2.6-4.7,5.9-9,9.8-12.9c11.4-11.4,26.5-17.6,42.5-17.6c16.1,0,31.2,6.3,42.5,17.6c11.4,11.4,17.6,26.5,17.6,42.5
			C459.5,364.3,453.3,379.4,441.9,390.7"/>
		<path class="st0" d="M399.4,405.4c15.3,0,29.6-5.9,40.4-16.8c10.8-10.8,16.8-25.2,16.8-40.4c0-31.5-25.7-57.2-57.2-57.2
			c-15.3,0-29.6,6-40.4,16.8c-10.8,10.8-16.8,25.2-16.8,40.4c0,15.3,5.9,29.6,16.8,40.4C369.8,399.5,384.1,405.4,399.4,405.4"/>
		<path class="st3" d="M399.5,296c-28.9,0-52.3,23.3-52.3,52.2c0,28.9,23.3,52.3,52.2,52.3c28.9,0,52.3-23.3,52.3-52.2
			C451.7,319.4,428.4,296,399.5,296"/>
		<path class="st0" d="M386.6,358.8h-15.5l-5.1-9.1l-6.9,19.5h80.3l-6.9-19.5l-5.1,9.1h-15.2l-12.9-56.4L386.6,358.8"/>
		<path class="st4" d="M439.5,369.2h-80.3l1.3-3.7h38.3l-12.1-6.7l12.8-56.4v63.1h38.7L439.5,369.2"/>
		<path class="st5" d="M267.6,440.6c-2.3,0-4.6-0.2-7.1-0.6c0,0,10.9,0.3,20.4-16.8c8-14.4,23.3-17.2,34.5-14.1
			c0,0-14.7,0.4-22.8,14.7C286,435.6,277.5,440.5,267.6,440.6L267.6,440.6z M327.9,432.4c-4,0.1-7.7-0.7-10.2-2.2
			c0,0,9.8,2,18.7-5.1c7.2-5.8,12-10.4,23.6-10.8c-5.4,2-9.1,5.6-16.5,12.1C338.8,430.5,333.1,432.2,327.9,432.4L327.9,432.4z
			 M399.3,398.1l-2.9-9.2l-9.7-0.1l7.9-5.6l-2.9-9.2l7.8,5.8l7.9-5.6l-3.1,9.2l7.8,5.6h-9.7L399.3,398.1L399.3,398.1z M272.4,394.2
			c0,0,0.2-17.1,19.8-22.4c13.7-3.7,23.7-5.8,30.1-14.6c0,0-1.5,15.9-24.2,20.5C275.3,382.3,272.4,394.2,272.4,394.2z M372.8,341.8
			l-6.4-7.2l-8.8,3.9l4.9-8.3l-6.4-7.2l9.4,2.1l4.9-8.3l0.9,9.6l9.4,2.1l-8.9,3.8L372.8,341.8L372.8,341.8z M425.8,341.7l1.1-9.6
			l-8.8-4l9.5-1.9l1.1-9.6l4.7,8.4l9.5-2l-6.5,7.1l4.8,8.4l-8.8-4L425.8,341.7L425.8,341.7z"/>
	</g>
</g>
</svg>
