<?xml version="1.0" encoding="utf-8"?>
<!-- Generator: Adobe Illustrator 21.1.0, SVG Export Plug-In . SVG Version: 6.00 Build 0)  -->
<!DOCTYPE svg PUBLIC "-//W3C//DTD SVG 1.1//EN" "http://www.w3.org/Graphics/SVG/1.1/DTD/svg11.dtd">
<svg version="1.1"
	 id="Layer_1" xmlns:cc="http://creativecommons.org/ns#" xmlns:dc="http://purl.org/dc/elements/1.1/" xmlns:rdf="http://www.w3.org/1999/02/22-rdf-syntax-ns#"
	 xmlns="http://www.w3.org/2000/svg" xmlns:xlink="http://www.w3.org/1999/xlink" x="0px" y="0px" width="300px" height="323.2px"
	 viewBox="0 0 300 323.2" style="enable-background:new 0 0 300 323.2;" xml:space="preserve">
<style type="text/css">
	.st0{fill:#FFB612;}
	.st1{fill:#FFFFFF;}
	.st2{fill:#5B2B2F;}
	.st3{fill:#FFB612;stroke:#FFB612;}
</style>
<g transform="matrix(1.25 0 0 -1.25 -189.5 700.4)">
	<g transform="matrix(.5 0 0 .5 153.4 198.11)">
		<g>
			<path class="st0" d="M286.7,724.4c-78.4,0-145.7-47.6-174.6-115.4L84,609v-6.2h25.6c-8.1-21.1-12.6-44.1-12.6-68
				C97,430,182,345.1,286.7,345.1c104.8,0,189.7,84.9,189.7,189.7C476.4,639.5,391.5,724.4,286.7,724.4"/>
			<path class="st1" d="M286.7,371.5c90.1,0,163.2,73.1,163.2,163.2c0,90.1-73.1,163.2-163.2,163.2s-163.2-73.1-163.2-163.2
				C123.5,444.6,196.6,371.5,286.7,371.5"/>
			<path d="M184,550.2c0,0-13.3-32.3-12.8-57.8c0,0,4.2,9.6,5.6,7.9c0,0-12-40.2-2.9-63.2c0,0,1.9,6.4,5.2,10.3c0,0,5,7.9,7,14.3
				c0,0,1-2.7,1.6-7.5c0,0,4.4,5.6,5.4,9.5c0.8,3,2.7,6.4,4.1,10.2l1.6-0.8c0,0,9.1,11,12.6,21.1c0,0,2.7,0.4,1.4-7.5
				c0,0,7.5,7.3,7.7,18.8l1.5-1.7c6.4-7.9,6.4-20.1,6.2-27.6c-1.6-24.2-13.9-37.1-29.4-51.2l1.4-1.2c23,4.3,38.2,6.7,61.5,0
				c8.9-2.6,30.4-12.4,40.8-19c0,0,23.2-10.1,39.4-10.1c0,0,0.8-0.4,0.8,0.5c0,0-1.7,6-0.2,28.5c0,0,1.7,10.4,3.1,17.6
				c0,0,1.7,4.8,1.9,14.7c0,0.8-0.8,6.8,3.3,6.2c8.8-1.3,13.7,0.8,20.5,1.9c0,0,7.2,2.1,10.1,2.3c0,0,6.8-1.1,8.9-0.4
				c2.3,0.8,4.8,2.7,7.9,5.6c0,0,3.5,3.7,1.2,12c0,0-2.3,7.5-1,9.9c0,0,2,5.1,5,8.1c0,0,2.1,3.5-0.8,5.2c0,0-1.5,1.7,1.1,2.4
				c0,0,1.9-0.2,3.2,0.5c0,0,0.7,0.3,0.8,1.7c0.1,1.6,0.8,9.1-4.3,15.7c0,0,1.4-0.4,2.5-0.8c0,0,6.2-0.6,9.4,1
				c2.8,1.5,6.9,3.5,6.3,12.8c-1.5,7.7-4.6,12.4-7.7,21.1c-3.7,9.3-4.3,13.9-12,20.3c-4.6,2.1-6.8,5.6-3.3,9.1
				c2.7,4.1,1.7,11.4-3.1,16.4c-4.6,4.6-8.1,11.8-9.9,15.5c-2.3,3.9-4.8,8.1-7.2,10.6c-2.3,2.9-5.8,4.6-12,12c0,0-3.7,3.3-4.3,6.8
				c-5.2,8.1-19.7,19.5-36.4,20.7c-4.8,0.6-4.8,0.6-8.3,1c-5.8,2.1-24,2.7-36.4-0.8c-4-0.9-12-2.3-12-2.3
				c-4.3-1.4-10.3-2.5-16.8-6.6c-4.8-2.5-12-8.5-17.4-12.4c-5.8-5.8-18.8-14.3-25.9-19.1c-13.9-10.3-25.9-23.8-32.9-32.3
				c0,0-17.6-22-26.3-60.1c-0.6-5.8-2.1-11.4-1.2-17.8c0,0,7.7,16.8,14.9,22c0,0-1-3.1-1.5-8.1c0,0,3.7,6.8,5.2,7.9
				c0,0,2.7,2.9,6.6,7.5c0,0,8.1,10.6,10.4,11.8c-3-5.6-3.7-9.3-4-15.1c1.3,1.2,2,2,2.4,2.7c0,0,0.8,1.5,1.5,1.2
				C184.6,551,184,550.2,184,550.2"/>
			<path class="st2" d="M304.6,656.8c-0.5,0-1-0.1-1.9-0.2c-0.3-0.1-1.2-1-1.5-1c-1.4,0.1-3,0.4-3.7-0.3c-1.1-1.2,0.2-1.1,1.6-1.7
				c0.8-0.4,2.4-1.2,3.3-1.2c3.9,0.1,6.4,0.1,9.5-1.6c0.3-0.2,1.7-1.5,1.8-2c-2.9,0.1-7.5,1.2-10.9,0.9c5.7,0.5-5.8-0.2-8.3-0.1
				c-0.7,0-0.7-1.5,0.4-2.4c0.3-0.2,2,0.1,2.3-0.4c1,0.5,3.9,0.3,4.8,0c1.4-0.5,0.6-0.3,1.9-1c0.8-0.4,1.5-1,2.4-0.9
				c1.2,0.1,1.3,1.9,2.4,1.3c0.4-0.2,1.3-0.7,1.5-0.7c6.7,0.1,6.8-2,10-1.9c0.8,0,2,0.3,2.6-0.1c1.3-0.9,2.5-1,4.4-0.2
				c0,0,4.4-12,3.3-33.8c-1.2-9.3-1.7-11-3.9-18.6c0,0-3.1-12-1.9-20.3c1.2-28-7.3-51.2-16.6-66.7c-3.5-4.3-5.4-6.6-1.9-9.7
				c7.3-6.8,13.3-8.3,23.8-10.6c3.7-1.2,6-1.5,9.5-1.5c5.4,0,13.9-2.3,17.8-5.2c3.7-1.9,13.5-5.6,19.5-4.6c5.2-0.4,6.8-0.8,9.3-1.7
				c1.7-0.8,3.5-0.8,5.4-0.2c1.6,1.2,0.9,0.7,3,2.2c0.4,1,3.2,2.2,2.6,6.1c-0.2,2.9-1.4,5.9-1.9,8.6c-1.7,2.4-1.5,4.2-1,6.7
				c1.7,3.5,3.8,5.2,4.8,7c2.3,2.6,1,4.4-2.2,5.3c-1.5,0.7-4.5,0.4-7.6,0.7c-1.6,0-3,0.7-5.3,0.2c0,0-1.5-1.1-2.4-1.8l-1.2,0.7
				c0,0,1.1,3.1,3.3,4.9c2.2-0.4,5.5-0.6,7.1-0.2c2,0.9,4.3,1.3,6,1.9c2.9,0.3,4.3,0.1,7.7-0.1c0,0,1.7,7.5-4.3,13.2
				c-1.5,1.4-2.6,3.1-4.7,3.2c-7.3-0.9-11.4,2.1-12.6,2.9c-1.8,0.1-2.4-0.7-3.4-1.8c-2.5-4.3-5.5-5.7-5.5-5.7l-1.6,0.2
				c0,0,1.4,2.3,4.4,6.2c1.4,3.1,3.3,7,5,8.9c1.1,1.8,1.4,6,4,7.2c1.3,0,1.5,0.3,2.4-0.3c-1.9-1.8-7.3-8.4-1.7-12.5
				c2.3-1.9,5.8-1.9,6.7,0.1c0.4,1.1,1.4,1.8,1.8,2.2c2.9,0.6,5.3-0.9,6.3-1.6c2.3-2.7,3.7-4,4.8-4.5c1.3-1,3.6-0.8,4.7-0.8
				c3.8,0.7,5.8,2.8,6.5,4.2c2,4.3,1.6,8.4-1.3,13.4c-1.7,2.9-2.9,6.2-4.3,10.3c-0.6,1.6-1.7,5-3.1,7.9c-0.1,1.2-2.5,6.6-4.1,8.7
				c-3.9,5.6-7.1,6.1-9.2,8.4c0,0-0.8,0.1-0.8,0c-2.3-1.5-2.3-4.8-4.2-7.3c-0.2-0.3-0.9-0.6-1.3-0.4c-0.6,0.3-0.9,0.8-1.6,1.8
				c-0.6,0.9-1.1,0.3-1.8-0.5c-0.5,0-0.8-0.4-1.1-0.7c-0.6-0.6-0.1-1,0.3-1.7c0.5-0.7,0-0.7,0.3-1.1c-0.1-0.3-0.2-0.4-0.3-0.5
				c-0.2-0.4-0.9-0.3-1.3-0.2c-1.3,0.2-1,0.1-2.1,0.7c-1.4,0.7-2.1,2.5-3.2,3.1c-0.3,0.2-1.4,0.4-2.3-0.2c-0.6-0.4-0.9-1.3-0.4-1.8
				c0.9-0.8,1.6-1.8,2.6-2.5c1.3-1,2.7-1.7,2.9-3.1c0.2-1.8-2.4-2.4-3.6-1.5c-0.6,0.5-1.4,1-2.1,1.7c-0.1,0.1-0.2,0.7-0.4,0.8
				c-0.6,0.4-1.2,0.9-1.5,1.4c-0.5,0.8-1.3,1.7-2.3,2.1c-0.2,0.1-0.4,0.4-0.6,0.7c-0.5,0.8,0,1.7-0.3,2.5c-0.3,0.6-0.4,1.6-1.3,1.2
				c-0.8-0.8-0.7-0.8-1.6-0.7c-1.1,0.1-0.2,2.2-0.2,1.9c0-0.1-0.1,0,0.3,0.7c-0.8,0.2-2,0.9-1.1,2c0.8,1,1.5-0.5,1.8,0.1
				c0.1,0.2,0.8,1.4,1,1.6c0.9,0.5,1.1-0.2,1.2-0.4c-0.4-1.1,0.7-1.8,1.8-1.2c0.1,0.1,0.1,0.9,0.2,1.1c1,1.7,2.5,2.6,4.1,3.8
				c0.1,0.1,0.6,0.2,0.6,0.3c0.5,0.9,1,2.3,0,2.7c-0.8,0.4-2.5,0-2.2,1.5c0.2,0.7,1.1,1,1.6,1.2c1.8,0.9,3.7,1.7,5.7,2.5
				c0.5,0.2,1.2,0.9,1.8,0.9c2.4,0.2,1.9,0.1,4.8-0.4c0.5-0.1,1.5-0.6,2-0.8c1.6-0.6,3.8-0.4,4.8,1.3c1,1.7,0.7,4.5-0.3,6.4
				c-1.2,2.3-3.1,4.4-4.7,6c-2.1,2.1-4.8,3.1-5.3,6c-0.6,3.5-3.4,8.1-4.9,10.9c-1.6,2.9-3,4.8-5.1,7.4c-0.5,0.6-3.5,3.6-4,4.1
				c-3.4,3.3-4.9,4.4-8.5,5.7c-1.9,0.7-9.1,0.2-12.9,0.7c-1.2,0.1-4.8,0.2-5.8,2.2c-0.9,1.8-2,4.3-3.9,5.5c-0.7,0.4-1.7,0.9-2.4,1.2
				c-3.4,1.7-6.9,4.6-10.6,4.4c-1.3-0.1,0-1.5,0.3-1.7c1.6-0.9,2.4-1.8,3.3-2.9c0.9-1.1,3-1.2,4.8-1.9c1.7-0.7,3.1-1.8,4.7-2.6
				c1.5-0.8,3.5-3.4,1.8-4.4c-1.5-1-3.1,0.2-5-0.3c-0.4-0.1-1-0.4-3.3-0.4c-3-0.4-4.1,1-6.4,2.7c-2.3,1.7-3.8,4.3-6.1,5.8
				c-2.8,2-5.6,3.6-8.8,4.7c-0.7,0.2-1.6-0.1-2.2,0.2c-1.1,0.6-1.9,1.9-3.3,2C305.9,656.7,305.4,656.8,304.6,656.8L304.6,656.8z
				 M384.1,587.3c-0.1,0-0.3,0-0.4-0.1c-0.2-0.1-2.1-1.6-2.2-1.7c-1.1-2-2.7-2.3-3.4-3.6c-0.6-1.2-1-1.5-1.4-2.3
				c-0.2-0.3-0.3-0.7,0.2-1c1.1-0.6,1.6-0.4,4-0.8c0,0,2.1-0.3,4,1.3c0.3,0.3,1.9,1.1,1.8,1.7c0,0.4,0,0.4,0,0.5c0,0-0.1,0.3-0.3,2
				c-0.1,0.9-0.1,1.8-0.5,2.8C385.7,586.6,385.1,587.4,384.1,587.3L384.1,587.3z M386.6,581.4C386.7,581.5,386.6,582,386.6,581.4z
				 M230.2,492.8c3.1-23.8-1.2-44.1-24.8-65.4c43.7,8.1,62.8-2.1,94-18c2.5-1.3-0.4,1.6-0.4,1.6c-1,0.7-3.2,4.2-3.7,5
				c-1.1,1.9-1.9,3.3-2.5,4.8c-1,2.3-2.8,4-6,7c-1.6,1.5-4,4.2-5,6.1c-1.5,3-2.4,8.5-6.1,11c-2.8,2-2.1,4.2-4.6,8
				c-0.9,1.5-2.8,1.6-4.3,3c-3.5,3.6-1.3,5-4.4,8.2c-1.4,1.4-1.9,1.7-3.1,3.9c-1.5,2.8-0.4,6.5-3,7.8c-2.3,1.1-4.1,1.6-5.7,2.1
				c-2.4,0.8-6.3,2.8-8.5,4.5C240,484.4,235.3,488.4,230.2,492.8L230.2,492.8z M303.1,476.9c0-2.7,0.4-4.6-1.6-7.3
				c1.4-3.3,2.5-10.5,4.1-12.3c3.4-3.2,6.1-5.7,8.3-13.3c0.5-1.8,2-2.8,2.1-4.2c0.1-1.9,0.8-1.6,1.9-4.3c0.5-1.3,2.1-3.7,2.8-4.3
				c4.5-3.7,7.6-9.5,7.3-15.5c0.2-2.9,0.4-2.7,3.2-4.8c0.5-0.3,0.8-0.4,2.3-1.8c0.6-0.5,4.7-4.9,5.3-5.4c-0.1,1.7,0.2,4.7,0.1,5.6
				c-0.3,9.1,1.5,18.6-1.6,26.5c-2.3,6-7.5,12.7-9.6,18.9l-1,3.4c-1.1,4.9-1.2,9.9-1.2,9.9l-6.5,3.1
				C314,473.2,308.2,475,303.1,476.9L303.1,476.9z"/>
		</g>
		<g>
			<path d="M394.7,549.5c3.3,1.1,4.9-0.5,8.6-3c0.6-0.4,1.1-1.6,0.2-2.2c-0.3-0.2-1-0.2-1.2,0c-3.2,3.1-4.3,3.1-7.8,3.7
				C394.4,548.1,393.8,549.2,394.7,549.5"/>
			<path d="M374.9,515.5c-0.5-1.5-1-2.9-1.6-4.3c-0.7-1.5-0.3-3.3-1.4-4.7c-0.4-0.6-1.7-0.4-1.9,0.3c-0.7,2.6-0.3,5.4,0.9,7.8
				c0.7,1.3,2.4,1.9,3.8,1.4c-0.1-0.3,0.3-0.5,0.2-0.8V515.5"/>
			<path d="M341.7,533.3c-1.1,0.4-1.7,1.4-1.6,2.5c0.4-0.1,0.1,0.4,0.4,0.4c2.3-0.2,4.5-1.1,6.8-1.1c2.6-0.1,5.3,0.4,7.7,1.6
				c3,1.4,5.6,2.9,8.4,4.8c1.3,0.9,3.1,1.4,4.7,1.7c2.5,0.6,2.3,2,4.2,3.1c2.7,1.6,2.5,2.8,4.1,2.2c0.4-0.2-0.4-1.1-0.9-1.6
				c-1-0.9-2.4-1.9-3.3-3.5c-0.2-0.3-1.6-1.9-1.9-2.1c-3.1-2.3-3.8-4.3-6.1-7.2c-1.3-1.6-1.7-3.7-2.6-5.6c-0.5-1.1-0.9-2.3-1.5-3.3
				c-0.3-0.4-1.3-0.2-1.7-0.6c-1.9-1.9-3.8-3.6-5.2-6c-0.2-0.4-1.1-0.4-1.2-0.2c-1.3,2.4-3,4.2-5.9,4.3c-0.5,0-1.1,1.2-1.1,2.3
				c0,0.2-0.2,0.7-0.5,0.7c-0.4,0.1-0.6,0.5-1.1,0.5c-0.5,0-0.9,0.8-1,1.1c-0.6,1.9-0.4,4-0.8,5.9L341.7,533.3"/>
			<path d="M89.4,587.3c-6.4-9.1-11-23.4-13.3-33.6c2.9,1.5,3.1,1.4,5.8,2.3C82.9,560.8,90.5,588.8,89.4,587.3L89.4,587.3z
				 M126.9,272.1c3.9-9.5,4.4-18.6,1-36.2c-3.9,3.7-4.1,7-7,8.7c-0.4-10.1-0.8-13.2-2.7-17.6c-4.1-7.9-5.2-12-5.4-19.7
				c-6.8,5.6-8.5,13.3-13.1,17.8c-3.3,3.3-9.9,9.5-12.2,13.5c-0.4-4.8,0-6.6-1.9-11.2c-1.6,5.4-1.7,7-5.4,11.4
				c-4.8,6.8-15.7,21.9-18.2,37.9c-0.6,2.7-2.1,10.6-3.9,21.5c-1.4-3.7-3.7-6.6-6-7.2c-1.2-0.6-1.2,1-1.2,1c1,3.5,1.4,7.3,1,10.2
				c-0.6,4.3-1.7,13.7-3.9,16h-1c0.2-6.4-2.3-9.3-3.9-11.4c-0.2,5,0,8.9-1.2,11.4c-0.6,1.7-1.9,3.3-2.3,1.5c-1-5-1.4-6-1.4-10.6
				c-0.4-7-0.4-9.3-1.2-15.1c-0.4-4.3-1.7-9.5-5.6-14.7c-0.8,4.6-3.7,8.3-3.7,8.3c0-5.6,1.2-13.9-2.3-18.4c-4.3-5.8-4.8-8.7-6.2-13
				c-0.6,5-2.1,3.5-2.9,6.2c-3.1-13.2-12.8-23.2-16.2-25.5c2.3,5.4,4.3,11.6,4.6,15.5c0,0-0.6,14.3-2.7,22.4
				c-5.3,25.3-7.8,83.8-3.9,106C8,460.1,48.8,532.7,83.5,598.1h-4.3v15.3h4.6l6.3,14.1l4.2-3.2l8.6,26.2l3.8-19.2l16.4,12.9
				l-13.3-30.4h4.6c-0.7-1.6-1.5-3.2-2.2-4.8L84,609v-6.2h25.6c-0.6-1.5-1.1-3.1-1.6-4.6h-9.2l7.5-4.8c-0.5-1.5-1-3-1.4-4.5
				l-3.3,2.2c-1.4-6.2-5.8-27.3-4.8-39.8c11.8-11.4,20.5-22.4,19.1-47.2c0,0,0.8-0.6-4.3,1c2.5-2.7,3.3-4.8,5.4-9.5
				c1-7.5,1.5-14.3,1-21.3c0,0,0.6-17.2,1.2-22.6c2.3-0.8,1-7,1.2-15.1c0,0-0.2-5-1-8.9c-4.8,3.9-4.4,3.7-5.8,3.3
				c1.2-3.9,1.9-3.9,4.3-7c0-23,0.8-46.8,2.3-57.2c0.8-7.5,2.1-16.2,2.7-19c1.2-3.5,1.2-6.6,4.6-13.9c-1.2,0-4.4-0.1-6.6,2.7
				c3.1-5.8,3.1-4.6,5-6.6l2.7-20.1l-3.1-3.5l4.3-2.7c0,0-1-9.1,0.2-17.4c0.6-3.9,1.7-7.7,4.5-13.2c-5.6-0.2-6.6,4.4-6.6,4.4
				c-1.6,1.7-4.3,5.6-5,5.6C122.5,277.5,125.6,275.4,126.9,272.1"/>
		</g>
		<g>
			<path class="st3" d="M122.1,267.8c-2.7,6.2-7.2,14.7-4.1,27.3c1.9-4.4,3.3-4.3,6.4-5c0.6,4.6-0.2,11.2,0,12
				c-1.2,2.1-3.9,4.6-3.9,4.6l2.9,5.6c1.4,5.6-1.4,10.1-1.1,10.9c-1.5,3.2-2.5,5.9-3.1,8c-0.5,1.8-3.7,0-4.8,1.1
				c-1,1-2.2,1.9-2.4,3.4c-0.8-1.8-0.2-3.7,0.7-5.4c0.5-0.9,1.6-1.4,2.3-2.2c0.8-0.9,1.1-2.1,1.6-3.2c0.6-1.5-0.8-2.3-1.7-2.5
				c-2.8-0.5-2.9,3.5-3.8,5.5c-0.6,1.4-2.4,2-3.4,3.3c-0.2,0.3-0.6,0.6-0.9,1c-0.8,1.4-2.4,2.4-3.1,4c-0.1-0.7,0.1-1.3,0.3-1.9
				c1.4-4.3,3.5-8,5.4-12.1c0.5-1.1,1.1-2.2,1.4-3.4c0.3-1,0.1-2.3-0.5-2.9c-0.6-0.7-2,0.8-2.3,0.3c-1-1.8,0.6-4,1.5-5.8
				c0.6-1.2,1.8-2.5,1.3-3.9c-0.1-0.3-0.5-0.7-0.9-0.8c-1.4-0.4-2.6,0.5-3.3,1.3c-2.8,3-5.3,6-7.6,9.6c-0.9,1.4-0.4,3.2-1.4,4.5
				c-0.6,0.8-1.6,2-2.6,1.2c-0.3-0.3-0.7-0.7-0.8-1.1c-0.3-1.8-0.7-3.4-1.7-4.7c-0.3-0.4-0.9-1-1-1.2c-1.5-2.7-1.8-5.8-2.3-8.9
				c-0.1-0.8-0.3-1.7-1.1-2.1c-0.7-0.4-1.2,0.2-1.6,0.7c0.4-1.2,0.7-2.3,1-3.5c0-0.1,0.1-0.3,0.1-0.4c0.3-1.1,0.6-2.1,0.9-3.1
				c0-0.2,0.1-0.3,0.1-0.5c0.3-1,0.5-1.8,0.7-2.6c0-0.1,0-0.2,0.1-0.3c0.2-0.8,0.3-1.5,0.4-2c-0.3,0.5-0.6,1.2-0.9,1.9
				c-0.1,0.2-0.2,0.5-0.3,0.8c-0.2,0.5-0.4,1-0.6,1.6c-0.1,0.3-0.3,0.7-0.4,1.1c-0.1,0.4-0.3,0.8-0.4,1.1c-1.8,4.5-3.4,9.1-4.9,14
				c-0.1-0.1-0.1-0.2-0.2-0.3c-0.8-1.3-2-2-3.4-2.5c-0.8-0.3-1.6,0.3-1.8,0.9c-0.9,3.8-3.5,6.4-4.6,10c-1.6,0-3.2-0.4-4.2,1.2
				c-2.3,3.4-1.8,7.2-2.2,11c-0.5-0.5-1.1-0.8-1.5-1.4c-3.7-5.9-5.1-12.1-6.6-18.7c-0.3-1.3-0.5-1.8-0.9-3.1c-0.9-2.6,0.5-3,1.8-1.3
				c2.4,3.1,1.9,0.5,2.1-0.2c0.6-4.4,2.9-8.9,3.9-16.4c0.8-7.3,2.3-14.7,3.1-18.4c2.1-12.1,10.1-24.4,14.9-27.4
				c-0.6,5,1.2,6.9,0.8,10.8l1,0.2c0.2-6.8,5.2-15.5,11-20.3c4.6-5.4,7.2-6.6,11.1-12.2c1.2-1.9,2.1-2.8,3.1-4.4
				c2.1,4.4,6,12.1,6,20.6c0,6.5-0.2,13.9-1.9,19.7c3.5-1.6,7.3-7.2,10.2-12C125.8,252.5,124.9,262.8,122.1,267.8"/>
			<path class="st3" d="M1.2,364.7c0.2-1.7,0.2-0.7,1-2.1c0.8-1.3,0.3-3.1,0.9-4.6c0.5,0.6,1.5,0.9,1.6,1.9c0.7-3-1.5-5.9-0.4-8.9
				c1.2,1.1,2.9,1.3,3.9,2.7c-0.1-1.2-0.4-2.3-0.6-3.5c-0.3-2,0.5-4,0.7-6.1c0.3-2.7,3.6-4.7,2.6-7.3c-1.5-4.2-2.3-8.8-1-12.8
				c0.3-0.8,0.7-2.2,1.7-2.7c0.8-0.3,1.9-0.4,2.6,0c0.4,0.2,0.7,0.8,0.8,1.4c0.3,1.9-0.5,3.6-0.2,5.4c0.4,2.3,0.8,4.6,2.3,6.5
				c0.3,0.4,1.4,0.3,1.7-0.3c1-2.2,0.6-4.8,1.9-6.8c0.4-0.7,2-1.2,2.8-0.4c1.8,1.7,1.1,4.3,1.4,6.5c0.4,3.6-1.3,5.6-1.8,9.3
				c-0.4,3.5,0.2,4,1.3,5.4c1.2-3.2,1.2-6.8,3.5-9.6c0.5-0.6,1.4-0.6,1.8-0.3c1.7,1.5,1.4,4.6,0.1,6.7c-1.9,3.1-3.4,8.1,0,11
				c-0.2-1.6-0.2-3.4,0.6-4.6c1.1-1.6,3.2-5,3.5-8.2c0.1-1.2,1.7-1.6,2.8-0.7c0.2,0.2,0,0.9,0.5,1c1.6,0.2,2.4-1.7,2.3-3
				c0.6,0,1.5-0.2,1.8,0.1c1.6,1.6,1.2,5.4,1.3,7.6c0.2,4.1,1.2,2.5,1.8,2.9c0,0,0.3-1.9-0.1-7.5c0.6-7-0.2-16-2.1-18.2
				c-1.7,1.7-1.9,3.3-4.3,3.9c-6.2-2.9-5.8-29.4-5.4-33.5c-0.1-1-1.5,0-1.5,0c-3.5,3.5-5,7.7-6,10.1c0,0-1.4,1.5-1.4,0
				c-1.7-5.6-1.2-20.9-0.4-24.6c0.8-4.4,0.2-7-1.9-11.2c-0.4-1.2-1.2-1.4-1.2,0.2c-0.2,1.7-1.4,2.5-1.9,4.3c0,0-1.4,2.5-1.7,0
				c-1.2-6.6-4.8-14.5-6.2-17l-1-0.6c0.4,6.2-1.5,15.9-2.9,23c-3.1,18.6-6.2,36-6.2,61.3c0,11.4,0.6,23.7,0.6,23.7L1.2,364.7"/>
		</g>
		<g>
			<path class="st1" d="M306.1,657.2c-1.2,0-2.4-0.3-3.5-0.5c-0.4-0.1-0.9-0.5-1.3-0.9c-0.7-0.6-1.8,0.5-2.8,0.2
				c-0.8-0.3-1.7-1.2-0.9-2c0.8-0.8,1.9-1.4,3.1-1.7c3.3-0.8,6.8,0,10-1.4c0.9-0.4,2-0.9,2.4-2c-0.3-0.1-0.6-0.4-0.9-0.2
				c-0.8,0.6-1.6,0.5-2.4,0.6c-5.3,0.4-10.6,0.9-15.8,0.1c0-1.3,0.5-2.8,1.8-2.9c1.6-0.2,3.4,0.3,5,0.2c1.7-0.1,3.5-1.2,5.3-2.2
				c0.3-0.1,0.6-0.1,0.9,0c0.8,0.3,1.4,1.4,2.3,1c0.5-0.2,1.1-0.5,1.6-0.6c1.2-0.2,2.1,0,3.2-0.2c2.4-0.4,4.5-2,6.9-1.6
				c1.8,0.3,2.6-0.3,3.5-1.2c-0.5,0.5,3.3-2.3,3.7-1.6c0.1,0.3,4,0.5,4.1,1.1l-5.7,3.3c-0.3,0.6-0.8,1.2-1.3,1.8
				c-1.3,1.2-2,2.6-3.4,3.5c-2,1.3-3.6,2.9-5.8,3.7c-0.2,0.1-0.5,0-0.8,0.1c-0.2,0-0.3,0.2-0.2,0.4c-0.2,0-0.5-0.1-0.6,0
				c-0.3,0.3-0.8,0.5-1,0.6c-1.1,0.4-2.4-0.3-3.4,0.6c-0.6,0.5-1.2,0.8-1.8,1.2C307.5,657,306.8,657.1,306.1,657.2L306.1,657.2z
				 M328.6,655.7c-0.2,0-0.4,0-0.7,0c-1.1-0.1-1.5-1.2-0.9-1.8c1.2-1.1,3.2-1.5,3.4-3.4c4.5-2.3,12.5-3.8,12.1-8.7
				c0-0.5,2.9,1,3.7,0.9c-1.5,1-1.7,2.9-2.6,4.4c-0.6,1.1-1.5,2-2.5,2.5C336.9,651.7,332,655.5,328.6,655.7L328.6,655.7z
				 M290.2,647.8c-0.6,0-1.2-0.4-1.9-0.5c-1.2-0.2-2.5,0.1-3.7,0.5c-2.1-2.4-7.6-0.8-10.2-1c-0.3,0,1.6-1.1,2-1.4
				c1.8-1.6,4.9-1.4,7.1-1.5c0.4,0,1.1,0.4,1.4,0.4c2.4,0.3,4.8-0.5,7.3-0.9c0.8-0.1,3.3,0.7,2.5,1.5c-0.6,0.6-2.7,0.3-3,1.2
				c-0.3,0.6-0.6,1.3-0.9,1.6C290.5,647.7,290.4,647.8,290.2,647.8L290.2,647.8z M240.6,646.4c-0.9,0-2-0.2-3.2-0.7
				c0,0-3.9,0.4-13-6.6c-10.1-6.2-23.4-15.1-33.1-26.9c-7.1-7.1-17-17.8-20.7-25.3c0,0-6-9.5-9.9-24.9c0,0,1.4-5,5.2,1.5
				c6.8,11.5,32.5,50.2,69.2,78.4l1.7,0.1c-18.2-15.7-41.8-36.7-64.7-72.6c-0.9-1.3-2-3.7-2.1-3.9c-0.6-1.2,0.1-1.7,0.5-1.9
				c1.9-0.3,2.7,2.4,4,3c0.8,0.4,1.2-2.1,2.5-1.5c4.7,2.3,8.2,7.1,10.1,10c0.1-0.8,1.2-3.3,1.2-3.3c2.1-0.6,8.7,8.5,12.2,14.7
				c1-1.2-0.2-4,1-2.8c4,3.8,7.5,7.8,9.6,11.5c2.5,4.3,5.2,6.2,6.1,13.8c1.6-1,1.5-1.4,1.9-1.7c1,1.2,1,2.4,2.6,4.1
				c1.7,1.9,2,3.3,4,4.7c0.7,0.5,2.3,3.5,2.7,5.1c0.3,1.5,3.6,6.4,3.9,8c2.7,5,7.3,7.7,10.6,11.6
				C245.7,642.9,244.6,646.5,240.6,646.4L240.6,646.4z M170.7,563.6c-0.1,0-0.1,0-0.2,0C171,563.5,170.9,563.5,170.7,563.6z
				 M101.7,633.8l-3.6-12.8l6.1-5.2L101.7,633.8L101.7,633.8z M239.9,633c-0.3,0-0.6-0.3-0.6-0.3s-5-1.2-12.6-22.4
				c-11-35.4-20.5-73.1-30.7-103.6c3.1,16,19.5,72.7,24.4,93.2c0,0-0.7,1.5-1.7-0.2c-1.3-1.4-2.5-3.3-3.2-4.5
				c0.1,0.1-0.6-0.1-1.4-0.5l-2.4-3.7c0,0-4.8-6.8-18.1-20.5c-2.2-3.5-3.2-5.1-5.6-10.6c-0.9-2,0.5-2.3,1.9-1.2
				c3.6,3.5,3.8,3.5,8.7,7.3c0.2,0.2,4.2,1.6,4.2,1.7c-0.6-0.8-1.4-1.3-1.8-1.6c-1.4-1.3-4.7-5.1-5.6-6.7c-2.2-3.9-4.7-8.7-7.9-14.6
				c-4-7.3-7.1-15.8-7.1-15.8c-2.1-6-1.6-6.6-1.6-6.6c2.9-1.2,1.3-2.6,1.3-2.6c-1.3-2.4-1.9-4.3,0.3-3.5c1.4,0.3,2.2,1,2.8,1.8
				c1.1,1.4,2.1,2.4,2.9,3.4c1.3,1.6,1.1,2.1,2.4,3.7c1.8,2.1,3,3.8,4.8,4.7c-3.2-4.3-3.4-7.4-3.4-7.4l0.8-1l0.6-0.4
				c0,0-3.3-4.1-4.8-13.3c-0.7-4.4-0.6-4.9-1.3-7.3c0.3,0.3,2.2,0,3.9,1.7c-0.7-2.7-0.9-4.1-0.9-4.1c-0.3-2.2-0.3-1.8-0.3-4.3
				c0-2.3,0-1.3,0.8-4.1c3.5,1.5,4.3,1.3,7.5,5.2c1.6,1.5,2.7,5,3.2,4.7c0.9-0.4,0.1-2.4-0.2-3.2c-0.5-1.2-1-2.1-1.2-3
				c-0.1-0.4-0.5-1.1,0.2-1.7c0.3-0.3,0.1-0.2,1.1-0.2c0.6,0,1.1,0.9,1.1,0.9s0.3,0.1,0.6,0.7c0.2,0.6,0.7,0.9,1.1,1.2
				c0,0,0.6,0.6,1.3,0.4c1.4-1.5,2.5,0.5,2.5,0.5c2.2,3.4,2.7,4.3,4.3,8.8c1,3,2.1,4.1,3.1,16.6c2.7-4.1,3.1-11.8,3.1-11.8l0.8,0.2
				c0,0,2.5,7.2,6.8,9.5c0,0,0.4,4.8,4.6,9.7c-0.6,2.9-1,5.2-1.5,9.9c-1.7,7.7-2.7,20.7-1,29.6c3.5-18.6,5.5-21.3,5.5-21.3l0.8-0.3
				c1.5,2.2,1.8,6.1,2.2,9.6c1.7,7.3,4.8,6.6,4.8,8.1c-1,6-2.5,15.5-1.5,23.6c1.9-8.9,2.9-8.3,4.3-11.6c1.7-4.1,1.9,1,1.9,1
				c-0.4,5.2,3.3,10.4-0.2,22.6c-1.4,8.3-5.2,26.1-3.7,30.2C240.6,632.3,240.3,633,239.9,633L239.9,633z M113.6,631.5l-6-5.2l1-4.5
				L113.6,631.5L113.6,631.5z M91.9,620.4l-2.7-6.7h10.4L91.9,620.4L91.9,620.4z M98.8,598.1l7.5-4.8l1.7,4.8H98.8L98.8,598.1z
				 M87.7,598c-4.8-6.6-38.1-69.2-41.4-80.6c-25.5-51.2-42-102.3-45.1-152.7c0.2-1.7,0.2-0.6,1.1-2.1c0.8-1.3,0.3-3.1,0.9-4.6
				c0.5,0.6,1.5,0.9,1.6,1.9c0.7-3-1.5-5.9-0.4-8.9c1.2,1.1,2.9,1.3,3.9,2.7c-0.1-1.2-0.4-2.3-0.6-3.5c-0.3-2,0.5-4,0.7-6.1
				c0.3-2.7,3.6-4.7,2.6-7.3c-1.5-4.2-2.3-8.8-1-12.8c0.3-0.8,0.7-2.2,1.7-2.7c0.8-0.3,1.9-0.4,2.6,0c0.4,0.2,0.7,0.8,0.8,1.4
				c0.3,1.9-0.5,3.6-0.2,5.4c0.4,2.3,0.8,4.6,2.3,6.5c0.3,0.4,1.4,0.3,1.7-0.3c1-2.2,0.6-4.8,1.9-6.8c0.4-0.7,2-1.2,2.8-0.4
				c1.8,1.7,1.1,4.3,1.4,6.5c0.4,3.6-1.3,5.6-1.8,9.3c-0.4,3.5,0.2,4,1.3,5.4c1.2-3.2,1.2-6.8,3.5-9.6c0.5-0.6,1.4-0.6,1.8-0.3
				c1.7,1.5,1.4,4.6,0.1,6.7c-1.9,3.1-3.4,8.1,0,11c-0.2-1.6-0.2-3.4,0.6-4.6c1.1-1.6,3.2-5,3.5-8.2c0.1-1.2,1.7-1.6,2.8-0.7
				c0.2,0.2,0,0.9,0.5,1c1.6,0.2,2.4-1.7,2.3-3c0.6,0,1.5-0.2,1.8,0.1c1.6,1.6,1.2,5.4,1.3,7.6c0.2,4.1,1.1,2.5,1.7,2.9
				c-0.4,8.3-1.6,16-2.3,21.3c-0.8,2.1,0,2.5,1.2,2.9c0.3,0.2,4.6,5.6,4.6,8.5c-3.7-2.5-4.6-3.1-8.1-5.4c-0.4,8.3-4.1,21.5-8.1,31.7
				c4.3-3.9,7-8.3,8.3-12c1.6,8.5,2.1,13.5,2.3,17.6c-2.1,7.5-6.2,24-5.8,36.2c2.5-8.9,4.8-18.6,7.3-24.4c1.2,4.3,2.1,11.8,3.7,18.2
				c2.1,1.5,4.6,3.1,5.4,4.4c-0.8,1.4-4.1-1.2-4.6-1.4c0.4,6,1.4,17.6-2.7,36.5l0.6,0.6c1.7-0.8,3.9-4.3,4.6-7.9
				c3.5,4.1,5.8,24.2,6.8,32.1c-3.7,0-5.4-4.1-7.9-3.7c0.4,2.5,0.6,1.4,1.6,3.7c1,2.7,3.3,5.4,4.3,9.1c2.1,3.1,2.1,6.8,2.3,10.3
				c0,3.3-0.4,8.1,2.3,12.4c0.6-1.7,0.2-2.9,1.5-6.6c0,0,5.4,11.8,8.3,14.5c3.9,16.8,13.2,35.8,21.9,48.2L87.7,598L87.7,598z
				 M94.6,595.2c-15.1-62.7-22-99.8-23.6-146.2c-1.7-47.8,2.8-94.9,14.2-139.1c0.5-1.6,1-3.4,1.5-5.1c0.4-0.5,0.9-1.1,1.6-0.7
				c0.8,0.4,1,1.3,1.1,2.1c0.5,3.2,0.8,6.3,2.3,8.9c0.1,0.2,0.7,0.8,1,1.2c1.1,1.3,1.4,3,1.7,4.7c0.1,0.4,0.4,0.8,0.8,1.1
				c1,0.9,2-0.4,2.6-1.2c1-1.4,0.5-3.1,1.4-4.5c2.3-3.6,4.8-6.6,7.6-9.6c0.7-0.8,1.9-1.6,3.3-1.3c0.4,0.1,0.8,0.5,0.9,0.8
				c0.6,1.4-0.6,2.7-1.3,3.9c-0.9,1.8-2.5,3.9-1.5,5.8c0.3,0.5,1.7-1,2.3-0.3c0.6,0.7,0.8,1.9,0.5,2.9c-0.3,1.2-0.9,2.3-1.4,3.4
				c-1.9,4-4,7.8-5.4,12.1c-0.2,0.6-0.4,1.2-0.3,1.9c0.7-1.5,2.3-2.5,3.1-4c0.2-0.4,0.6-0.7,0.9-1c0.9-1.3,2.8-1.9,3.4-3.3
				c0.9-2,1-6,3.8-5.5c0.9,0.2,2.3,1,1.7,2.5c-0.5,1.1-0.8,2.4-1.6,3.2c-0.7,0.8-1.8,1.3-2.3,2.2c-0.9,1.6-1.5,3.5-0.7,5.4
				c0.2-1.6,1.4-2.4,2.4-3.4c1.1-1,3.8,0.4,4.6-0.8c-0.1,0.7-0.3,1.3-0.8,1.9c-7.2,8.5-13.9,17.4-13.5,24.2
				c4.8-7,8.9-11.2,12.8-13.9l0.2,1.4c-2.7,17.4-2.7,25.1-4.2,41.7c-4.3,3.5-13.8,13.9-12.1,22.8c3.2-6.2,7-10.9,10.4-13.1l1.4-1.1
				c-0.3,3,0.1,20.7,0.1,26c-2.3,3.3-5.2,7.2-7.3,11c-1.8,3.9-4.1,7.6-9.4,14c-4.4,6.7-11.4,12.6-11.4,12.6s1.3-0.2,2-0.2
				c2.1-0.7,4.6-1.6,8.3-4.2c1.4-0.6,3.4-3.3,6.9-6.5c2.3-2.2,2.5-3.9,3.8-4.5c2-1.9,4.7-4.3,7.4-6.2h0.8c0.6-2.3,0.3,14.4,0.3,14.4
				c-3,4.7-5.1,10.4-7.6,16.9c-0.4,2.3,1.4-1.5,4.6-3.1c1,3.4-0.8,20.5-1,32.3c-1,3.7-14.6,22.6-15.3,27.4
				c4.6-7.5,10.8-8.5,13.1-11.5c0.6-0.5,0.7-0.7,1.4-0.4c-0.4,19.5-9.1,29-17.2,36c-1.2,18,4.8,43.7,4.8,43.7L94.6,595.2L94.6,595.2
				z M81.5,551c0,0-2.5-1-3.9-1.5c-2.7-1.4-3.9-2.7-6.8-6.4c-1.2-2.5-2.7-3.7-3.7-6.6c-3.5-7-4.1-12.4-5.8-17.4l1.2,0.2
				c3.7,5,9.7,9.5,11,10.8l1.9,1c-2.7-7-6.4-8.7-10.1-15.1c-5.1-10.5-9.9-49.5-12.2-60.3l2.3,0.8c1.6,0.8,4.1,3.5,11.6,6.2
				c3.9,3.1-12.8-14.3-14.9-20c-2.1-15.2-5.2-39.9-5.7-51.1l0.9,0.1c1.2,0.8,10.3,11.9,13.9,13.2l1.3,1.2
				c-1.9-2.9-8.4-15.5-9.6-19.5c-1.3-4-3.1-8.1-4.6-11.8c-0.6-1.2-1.2-2-0.8-3.5c0-7.9,0.8-15.5,1.6-19.3l1-1.3c0.8,2.1,4.6,6,7,7.1
				l0.2-1.2c-2.1-5-4.8-9.7-5.8-12.2c0-9.7,1.2-21.5,3.3-30.9c0.2-1.4,1.9-1.2,2.7-0.6l0.5,0.4c1.6,6.7,3,12.8,6.6,18.7
				c0.4,0.6,1,0.9,1.5,1.4c0.3-3.8-0.2-7.6,2.2-11c1.1-1.6,2.6-1.2,4.2-1.2c1-3.6,3.6-6.3,4.6-10c0.2-0.7,1-1.2,1.8-0.9
				c1.4,0.5,2.7,1.2,3.4,2.5c0,0.1,0.1,0.2,0.2,0.3c-12.6,41.6-15.7,97.8-13.8,145.5C71,493.5,73.8,519.3,81.5,551L81.5,551z
				 M288.2,489.4c-2.2,0-3.4-0.6-5.1-1c-7.7-2-15.2-7.7-19.4-13.3c-1.2-1.6-0.8-3.3-0.6-3.7c0.8-1.1,2-4,2.3-3.6
				c3.1,3.4,6.9,6.5,10.9,5.5c-1.7-0.6-7.8-3.7-9.8-8.1c-0.1-0.3,0.8-1.9,1.9-2.8c1.5-2.6,2.1-3.7,3-4.2c0.6,0,1.7,1.2,2,1.7
				c4.3,5.7,8.5,9.2,20.3,10.7c3.4,0.6,5.3,1.5,5.6,4.6c0,0,0.7,1.5-0.7,4.6l0-0.2c-0.5,1.9-3.6,1.8-5.8,1.5
				c-3.4-0.4-6.5-0.9-9.8-2.7c2.2,3.3,4.8,3.5,9.9,5.4c1.2,0.4,0.9,2.5,0.1,3.7c-0.9,1.4-2,1.4-2.4,1.5
				C289.8,489.3,288.9,489.3,288.2,489.4L288.2,489.4z M284.7,461.6L284.7,461.6c0.2-2.9-0.2-4.2,0.6-6.1c0.8-1.8,2.4-3.3,3.1-5.2
				c0.5-1.4,2.2-3.2,2.2-4.2c0.8-0.8,0.9-1.5,0.9-1.5c1-1.3,4.1-3,3-3.8c-1.3-1-5-0.3-7.3,0.1c-2.9,0.5-1.2-2.2-0.6-2.4
				c3-1.2,9.2-1.6,11.2-2.8c1.2-0.7,2.8-1.7,3.4-2.9c0.4-0.9,1.1-1.7,1.7-2.5c2-2.6,2.7-3.8,4.7-5.4c1-0.8,2.2-2.2,1.8-3.5
				c-0.4-1.5-1.4-1.8-2.8-1.6c-0.5,0.1-1.9,0.5-3.2,1.1c-2.7,0.9-3.3,1.9-5.2,0.9c-1.1-0.5,0.5-2.3,1.7-3c4.9-2.6,10.7-2.6,15.4-5.4
				c4-2.4,6.5-5.2,6.3-11.2c0-0.1,1.4-0.9,1.5-0.8c1.4,2.2,4.9-0.5,6.6,0c0.2,0,0.2,1,0,1.3c-0.8,1.2-2.5,1.3-3.3,2.5
				c-0.8,1.2,0.3,2.6,0,3.7c-0.4,1.1-2.3-0.8-3-0.1c-3.1,3.2-5.1,7-9.3,8.9c1.7,4.8,2.5,10.3,2.1,12.8c-1.2,1-1.6-0.6-1.9-0.8
				c-1-0.9-0.6-2.9-1.7-4.4c-0.2-0.3-1.7,0.1-2.1,0.4c-2.8,2.4-5.5,5.3-6.8,8.8c-0.1,0.1-0.6,0.8-0.7,1c-2.1,2.9-2,7,0.5,10
				c0.3,0.3,0.6,2.1,0.4,2.3c-0.4,0.3-1.4-0.4-1.8-0.8c-1.3-1.4-2.4-4-4.7-3.8c-2.5,0.3-3.5,2.8-5,4.5c-0.5,1.6-1.4,2.7-1.2,2.9
				c-2.1,3.1-2.3,5.6-4.3,9.5C286.2,460.9,285.6,461.4,284.7,461.6L284.7,461.6z"/>
		</g>
		<path class="st0" d="M12.9,388.9c-2.1,0-1.5-2.7-1.4-4.7l-0.2,0.2c-1-1.1-1.5-1.7-2.2-3c-0.8-1.6,0.3-3.3,1.2-4.4
			c1.5-1.9,4.2-0.8,5.5,1.1c0.5,0.7,1.3,1.6,0.8,2.6c-0.9,1.8-1.3,3.4-1.4,5.4c0,0.7-0.3,2.3-1.3,2.6
			C13.6,388.9,13.2,389,12.9,388.9L12.9,388.9z M26.1,376.9c-0.5,0.1-1.1-0.7-1.1-1.1c0-1.3,0.9-2.5,0.8-3.9c0-2.1-1-2.7-0.4-5.4
			c0.1-0.6,1-0.2,0.5-0.8c1.2,0,2.4-0.2,3.4,0.1c0.5,0.2,0.9,1,1,1.5c0.3,1.6,1.1,3.7-0.3,4.8c-1.3,1-1.1,2.7-2,3.5
			c-0.4,0.4-1.3,0.6-1.9,1.2C26.2,376.9,26.1,376.9,26.1,376.9L26.1,376.9z M9.1,373.2c-0.4,0-1-0.4-1.4-1c-1.4-2.1-2.1-4.2-2.3-7.3
			c0.4-1.7,2.9-2.1,4.1-1.3c2.8,1.7,0.8,8.4,0.6,7.5c0.1,0.6-0.5,1.5-0.5,1.4C9.6,373,9.4,373.2,9.1,373.2L9.1,373.2z M17.5,368.1
			c-0.5,0-1-0.1-1.5-0.5c-2.1-1.5-2.9-3.8-1.1-6.4c1-1.4,0.9-3.8,2.4-4.6c2.1-1.1,5.1,1.2,4.3,3.6c-0.7,2.3-1.6,4.3-2.3,6.6
			C19,367.5,18.3,368,17.5,368.1L17.5,368.1z M87.3,366.1c-0.4,0-0.7-0.1-1.1-0.2c-0.5-0.1-1.1,0-1.3-0.4c-0.6-1.2,0.5-2.1,1-3.3
			c0.3-0.7,0.5-0.9,0.9-1.5c0.5-0.6,0.5-2.5,0.8-3.2c0.3-0.5,0.7-1.8,1.3-2.1c1.6-0.7,2.1-0.1,3.2,0.5c0.9,0.6,1.4,1.9,1,3.1
			c-0.4,1.1-0.5,2.3-1.2,3.3c-0.6,1-1.1,1.9-1.8,2.6C89.5,365.9,88.4,366.2,87.3,366.1L87.3,366.1z M33.6,359.7
			c-0.3,0-0.7-0.1-0.9-0.3c-0.7-0.5-0.7-1.7-0.1-2.5c1-1.3,0.7-2.9,1.5-4.3c0.5-0.9,1.4-0.9,2.1-1.4c0.9-0.6,2.1,0,2.4,0.7
			c1.1,2.5-0.1,4.7-2.2,6.4c-0.2,0.2-0.9,0.6-1.1,0.8C34.8,359.4,34.2,359.7,33.6,359.7L33.6,359.7z M83.3,356.2
			c-0.2,0-0.9-0.1-0.9-0.5c0.2-2.3-2.6-3.4-3.4-5.3c-0.8-1.9,0.9-3.7,2.3-5c1.1-1,2.9-0.3,4.3,0.1c2.2,0.7,2.5,3.8,2,5.9
			c-0.4,1.6-1.4,3.1-2.7,4.3C84.4,356.2,83.8,356.2,83.3,356.2L83.3,356.2z M63.1,353.5c-0.5,0-1-0.3-1.1-0.9
			c-0.2-2-0.2-5.7,2.8-5.1c1.1,0.2,1.8,1.3,1.5,2.4c-0.4,1.6-1.6,2.5-2.7,3.4C63.4,353.5,63.2,353.5,63.1,353.5L63.1,353.5z
			 M16.4,352.1c-0.6,0-0.7-0.6-1.1-0.9c-0.9-0.7-0.9-2.3-1.6-3.4c-1.4-1.9-1-4.6-0.4-6.4c0.4-1.2,2.2-3.1,3.8-2.9
			c2.5,0.2,4.4,4.9,2.4,6c-2.5,1.5-1.6,5.2-2.5,7.2c-0.1,0.1-0.7,0-1.1,0l0.7,0.3C16.5,352.1,16.5,352.1,16.4,352.1L16.4,352.1z
			 M97.6,348.6c0.2,0,0.3,0,0.5,0c0.1,0,0.2,0,0.3,0H97.6z M98.1,348.6c-0.5,0-1-0.1-1.2-0.4c-1.1-1.7,0.1-3.7,1.5-4.4
			c1.5-0.8,3.4,1.8,2.3,3.2C100.2,347.7,99.2,348.4,98.1,348.6L98.1,348.6z M69.4,346.8c-0.5,0-0.9-0.1-1.2-0.3
			c-1.1-0.9-1.5-2.7-1.1-4c0.4-1.5,0.9-3.1,2-4.2c0.7-0.7,2.2-1.6,2.6-1.1c0.9,1.3,1.8,3,1.4,4.8c-0.4,1.6-1.1,3.1-2.3,4.3
			C70.4,346.7,69.9,346.8,69.4,346.8L69.4,346.8z M86.4,335.5c-0.9,0-1.9-0.4-2.3-1.4c-0.4-1.2,0.4-3,1-3.3c-0.1,0,0.3-0.6,0.1-0.6
			c0.6-1.5,0-2.6,0.9-4c0.7-1.1,2.4-1.3,3.3-0.5c2.3,1.9,1.8,5.5,0,7.7c-0.7,0.9-1.5,1.7-2.6,1.9C86.7,335.4,86.5,335.5,86.4,335.5
			L86.4,335.5z M96.9,334.9c-0.6,0-1.1-0.1-1.6-0.5c-0.9-0.8-0.9-2-1.2-3.2c-0.1-0.7,0.3-1.3,0.6-1.9c1.3-2.6,4.4-2.7,6.8-4.2
			c0.3-0.2,0.9,0.5,1.2,0.9c0.7,1.3-0.5,2.7-1.6,3.5c-1.6,1.2-0.9,3.7-2.7,4.8C98.1,334.7,97.5,334.9,96.9,334.9L96.9,334.9z
			 M74.1,332.6c-0.6,0-1.1-0.3-1.5-0.5c-0.3-0.2-0.6-0.7-0.6-1.1c0-2.5-0.9-5.1,0.1-7.5c0.6-1.4,1.8-3.2,3.5-2.4
			c1.2,0.5,1.9,2,1.5,3.3c-0.7,2.6,0.3,5.4-1.4,7.6C75.2,332.5,74.7,332.7,74.1,332.6L74.1,332.6z"/>
	</g>
</g>
</svg>
