<?xml version="1.0" encoding="utf-8"?>
<!-- Generator: Adobe Illustrator 21.1.0, SVG Export Plug-In . SVG Version: 6.00 Build 0)  -->
<!DOCTYPE svg PUBLIC "-//W3C//DTD SVG 1.1//EN" "http://www.w3.org/Graphics/SVG/1.1/DTD/svg11.dtd">
<svg version="1.1"
	 id="svg2" xmlns:cc="http://creativecommons.org/ns#" xmlns:dc="http://purl.org/dc/elements/1.1/" xmlns:rdf="http://www.w3.org/1999/02/22-rdf-syntax-ns#"
	 xmlns="http://www.w3.org/2000/svg" xmlns:xlink="http://www.w3.org/1999/xlink" x="0px" y="0px" width="300px" height="257.6px"
	 viewBox="0 0 300 257.6" style="enable-background:new 0 0 300 257.6;" xml:space="preserve">
<style type="text/css">
	.st0{fill:#E3D4AD;}
	.st1{fill:#A71930;}
</style>
<g>
	<path id="path16" class="st0" d="M109.9,218.6l39.6-66.4c1.1,4.1,3,12.2,3.4,13.5c-1.9,3.4-32.6,56.6-32.6,56.6s45.2-37.3,47.4-39
		c0.8,0.9,33.4,40.5,33.4,40.5s-15.4-51.4-16.5-54.9c0.9-1.3,6-9.4,9.2-14.6l13.9,64.7l-28.1,38.6H300L242.6,0h-79.9L0,257.1h128.1
		L109.9,218.6z M150.9,149.6l25.3-42.4h7.5l9.2,42.4H150.9z"/>
	<path id="path18" d="M174.4,10.1H234l52.7,237H201l19.3-25.9l-27.6-123h-22.7L96.6,218.8l13.7,28.1H25.5l-8.4,5.1h102.4l-16.3-33.4
		l69.6-115.9h15l26.4,117.2L190.7,252h102.6L238.5,4.9H171L174.4,10.1z"/>
	<path id="path20" d="M85.9,203.8l8.8-5.6l-15.8-37.7l50.4-31.5l-17.4-30.8l48.7-23.6l-15.6-27.6l37.5-16.7l-13.7-20.1l-3.2-4.5
		L9.2,252L85.9,203.8z"/>
	<path id="path22" class="st1" d="M158.4,166.3c-1.5,2.6-19.3,33.2-19.3,33.2s25.3-21,28.9-23.8c2.6,3,20.4,24.6,20.4,24.6
		s-8.8-29.6-9.6-32.4c1.3-2.1,8.1-13.1,8.1-13.1h-31.3C155.6,154.9,157.9,164.1,158.4,166.3"/>
	<path id="path24" class="st1" d="M96.6,218.8l73.3-120.6h22.7l27.6,123L201,247.1h85.7L234,10.1h-59.6l14.8,22.5l-37.1,16.7
		L168,76.9l-48.7,23.4l16.3,30L85.3,162l15.6,38.1l-75.4,46.7h84.9L96.6,218.8z"/>
</g>
</svg>
