<?xml version="1.0" encoding="utf-8"?>
<!-- Generator: Adobe Illustrator 21.1.0, SVG Export Plug-In . SVG Version: 6.00 Build 0)  -->
<!DOCTYPE svg PUBLIC "-//W3C//DTD SVG 1.1//EN" "http://www.w3.org/Graphics/SVG/1.1/DTD/svg11.dtd">
<svg version="1.1" id="Layer_1" xmlns="http://www.w3.org/2000/svg" xmlns:xlink="http://www.w3.org/1999/xlink" x="0px" y="0px"
	 width="300px" height="280px" viewBox="0 0 300 280" style="enable-background:new 0 0 300 280;" xml:space="preserve">
<style type="text/css">
	.st0{fill:#CE1141;}
</style>
<path class="st0" d="M191.3,86.5c-20.5,18.1-36.9,52.3-53,87c0.3,0,0.6-0.1,0.9-0.1c19.3-2.1,35.9-4.7,50.6-8.2
	C187.2,141.3,187.5,114.7,191.3,86.5 M193.4,188.5c-28.2,5.2-43.6,4.9-67.6,11.6c-20.5,42.6-42.5,79.5-73.9,79.9
	c-41.4,0.6-56.6-32.7-50.7-52.5c4.3-14.6,8.2-14.2,8.2-6c0,4.4,11.6,29.8,40.8,28.4c14.6-0.7,26.6-15,39-36.5
	c-7.7,3.2-16.1,7-25.7,11.6c-6.8,3.2-7.3,2.1-6-3.4c0.9-4.1,10.9-28.3,49-41.2c28.7-57.5,66-135.8,142.3-175.5
	c3.8-2,17.9-12.2,7.3,5.2c-35.3,58-45.8,108.7-44.1,148.6c28.1-10.2,43.3-25.1,45.8-47.1c1-8.6,3.4-8.8,8.2-3.4
	c5.6,6.2,17.6,54.7-51.2,75.5c8.6,45.9,33.5,71.6,46.9,69.4c13.9-2.3,24.5-17.2,22.4-38.3c-1.2-12.2,3.4-7.7,7.7-3.4
	c12.9,12.5,11.8,52.6-13.8,63.7C241.2,290.8,206.3,252.9,193.4,188.5z"/>
</svg>
