<?xml version="1.0" encoding="utf-8"?>
<!-- Generator: Adobe Illustrator 21.1.0, SVG Export Plug-In . SVG Version: 6.00 Build 0)  -->
<!DOCTYPE svg PUBLIC "-//W3C//DTD SVG 1.1//EN" "http://www.w3.org/Graphics/SVG/1.1/DTD/svg11.dtd">
<svg version="1.1" id="Layer_1" xmlns="http://www.w3.org/2000/svg" xmlns:xlink="http://www.w3.org/1999/xlink" x="0px" y="0px"
	 width="300px" height="284.4px" viewBox="0 0 300 284.4" style="enable-background:new 0 0 300 284.4;" xml:space="preserve">
<style type="text/css">
	.st0{fill:#DF4601;}
	.st1{fill:#FFFFFF;}
</style>
<title>Baltimore Orioles Primary logo</title>
<g>
	<path class="st0" d="M127.5,282.6c-33.4,0-64.7-12.1-85.8-33.4c-19-19-28.9-44.6-29.2-74l-9.5,1.7l-0.5-1.7
		c-0.2-1.2-6.9-30.1,24.9-55.7C19,99.6,10.9,63.1,44.1,34.8c3.6-3.6,5.9-5,7.6-6.4c0.9-0.7,1.7-1.2,2.4-1.7c1.9-5.2,5.7-10,7.6-11.9
		C72.1,4,85.3,2.4,85.8,2.1c1.9-0.2,3.8-0.5,5.7-0.5c10.2,0,16.1,4.3,18.7,6.2c0.2,0.2,0.2,0.2,0.5,0.2c1.2,0.2,2.6,0.5,4.5,0.5
		c1.9,0,4.5,0.2,7.8,0.5c18.7,2.4,34.6,11.1,47.4,25.6c4.3-0.5,21.3-2.8,29.9-4.7c4.3-0.9,8.8-1.9,13-2.8
		c20.9-4.5,40.5-8.8,54.8-8.8c2.1,0,4,0,5.7,0.2h0.2c10.2,1.9,18,7.3,21.3,15.4C302.5,51,298,64.2,280,78.7
		C258.4,96,227.6,105,210,109c0.2,1.4,0.7,4,1.9,8.3c4.3-0.5,8.8-0.5,13-0.5c35.1,0,57.6,12.8,59,25.4c0.2,4.3-2.8,9.2-10.2,11.4
		c-31.5,8.3-37.9,23.7-46.2,59.7c-5,21.3-17.5,39.1-37,51.4C173.3,276.4,150.8,282.6,127.5,282.6"/>
	<path class="st1" d="M91.5,3.6c10.4,0,16.4,5,18.5,6.4c2.8,0.9,5.9,0.2,12.8,1.2c11.9,1.7,30.6,6.6,46.9,25.8
		c0,0,21.1-2.8,31.1-4.7c25.1-5.2,50.5-11.4,67.3-11.4c1.9,0,3.8,0,5.5,0.2c10.7,1.9,17.3,7.8,19.9,14.5
		c7.3,17.5,1.4,29.6-14.7,42.7c-20.1,16.1-49.5,25.6-70.6,30.6c0,0,0.2,3.3,2.6,11.6c5-0.5,9.7-0.7,14.2-0.7
		c34.1,0,55.9,12.3,57.1,23.7c0.2,3.3-2.4,7.6-9,9.5c-32.5,8.5-39.3,24.9-47.6,61.2c-10.2,44.6-53.3,67.3-98.1,67.3
		c-55.7,0-113.5-35.1-113.3-107.6l-10,1.7c0,0-7.1-29.4,25.4-54.8C23.5,107.4,8.8,67.6,44.8,37c5.7-5.5,7.8-6.2,10.4-8.3
		c1.7-5,5.2-9.7,7.3-11.6C72.8,6.6,85.6,5,85.6,5C87.9,3.8,89.8,3.6,91.5,3.6 M91.5,0c-1.9,0-4,0.2-5.9,0.5
		c-1.2,0.2-14.5,2.1-25.1,13.3c-1.9,1.9-5.7,6.6-7.8,12.1c-0.5,0.5-1.2,0.9-1.9,1.4c-1.9,1.2-4,2.8-7.8,6.4
		c-16.4,13.7-24.7,30.8-24.7,51c0,10.9,2.4,22.5,7.1,34.4c-16.1,13.3-22,27.3-24.2,37.2c-2.4,11.1-0.5,19.2-0.5,19.4l0.7,3.3
		l3.3-0.5l5.9-0.9c0.7,28.9,10.9,54,29.9,73c21.6,21.6,53.3,33.9,87,33.9c23.5,0,46.2-6.2,64-17.5c19.7-12.6,32.7-30.8,37.7-52.6
		c8.3-36,14.2-50.5,44.8-58.3c8.5-2.4,12.1-8.3,11.6-13.3c-0.7-7.1-7.6-14-18.5-19c-7.8-3.6-21.8-7.8-42.4-7.8
		c-3.8,0-7.6,0.2-11.6,0.5c-0.5-2.1-0.9-3.6-1.2-5c18-4.3,47.6-13.5,68.7-30.3c18.7-14.9,23.5-28.9,15.9-46.9
		c-3.6-8.5-11.9-14.7-22.8-16.6h-0.5c-1.9-0.2-3.8-0.2-5.9-0.2c-14.5,0-34.1,4.3-55,8.8c-4.3,0.9-8.8,1.9-13,2.8
		c-8.1,1.7-23.5,3.8-28.7,4.5C158.4,18.5,142.2,10,123.3,7.3c-3.3-0.5-5.9-0.5-8.1-0.5c-1.7,0-2.8,0-3.8-0.2c0,0-0.2,0-0.2-0.2
		C108.6,4.5,102.2,0,91.5,0"/>
	<path d="M240.1,142.9c-35.1,19.4-32.7,44.6-72.1,55c-44.6,11.6-80.6-18.3-54.5-24.2c6.2-1.2,6.9-5,0.2-3.8
		c-15.6,0.9-35.8,9-16.8,40.3c0,0,2.6,1.2,3.8,0c0,0-7.1-15.9-1.7-20.4c25.1,23.9,81.1,28.2,116.2-18.5
		c11.9-15.6,25.6-24.7,38.9-30.1c-21.3-5.2-45.5-5.7-58.8-1.7c-1.7-21.1-2.8-27-6.9-36c-1.9-4-2.1-6.4,7.1-9
		c5.7-1.7,29.4-7.1,49.8-16.4c14.5-6.6,24.4-14,27-16.6c2.1-1.9,9.7-10.4,6.9-17.3c-2.8-6.9-9.7-7.3-18-6.6
		c-7.1,0.7-10.4,0.9-54.8,10.7c-23.2,4.7-36.5,5-44.8,7.6c0,0-10.9-26.5-47.2-27.7c-4.7,0-12.3-0.9-16.1-4.7
		c-4-3.1-11.1-2.6-17.1,0.7c-4.5,2.4-8.3,6.2-9,9.7c-1.7,6.2-3.8,5.7-12.3,12.8c-10.7,8.8-35.1,28.2-8.1,77.7
		c-24.7,14.2-28.2,30.8-28.2,30.8l11.4-0.7c-1.7,3.1-3.1,13.3-3.1,17.8c-0.2,25.8,7.6,47.2,23.5,63.3c17.3,17.5,43.6,27.7,71.6,27.7
		c19.7,0,38.6-5.2,53.3-14.5c6.6-4.3,12.6-9.5,17.1-15.4c-56.4,35.1-108.1,5.2-118.5-24.7c-10.2-29.2,8.1-51.7,31.3-46.2
		c32.5,7.8,49.5,3.3,54.5-12.3c4,1.4,13.3,1.2,19-1.7C192.2,144.8,211.9,137.7,240.1,142.9"/>
	<path class="st0" d="M78.7,38.6L96.5,32C96.5,32,83.2,21.8,78.7,38.6 M120.4,86.3c0,0,27.3-21.1,57.8-24.7
		c28.4-3.6,73.7-13.5,73.7-13.5s-22,13.3-44.1,28.7C184,91,166.4,96.9,138.7,96.2C120.7,93.9,108.8,93.9,120.4,86.3 M224.2,76.1
		c0,0,44.6-31.1,46-28.7C274.3,52.9,252,66.8,224.2,76.1"/>
	<path class="st1" d="M48.4,117.8c0,0,18.5-2.1,37.7-11.1l-34.4,18C51.7,124.7,48.4,117.8,48.4,117.8z M152,131.1
		c4,12.6,1.2,24.9-6.4,27.3c-7.6,2.6-17.3-5.7-21.3-18.3s-1.2-24.9,6.4-27.3C138.4,110.2,147.9,118.5,152,131.1"/>
	<path d="M138.4,136.8c3.3,5.7,2.6,12.3-1.2,14.5c-3.8,2.1-9.5-0.9-12.8-6.6c-3.3-5.7-2.6-12.3,1.2-14.5
		C129.4,128,135.1,130.8,138.4,136.8"/>
	<path class="st1" d="M184,119c3.3,12.8-0.2,24.9-8.1,27c-7.8,2.1-16.8-6.6-20.4-19.4c-3.1-12.8,0.5-24.9,8.3-27
		C171.6,97.4,180.6,106.2,184,119"/>
	<path d="M169,125.4c2.6,5.5,1.9,11.4-1.9,13.3c-3.6,1.7-8.8-1.2-11.4-6.9c-2.6-5.5-1.9-11.4,1.9-13.3
		C161.2,116.9,166.4,119.9,169,125.4"/>
	<path class="st0" d="M119.7,52.1c3.6,2.1,6.9,2.1,10.9,0c0.7,2.6,1.4,6.2,1.4,9c0,2.4-0.2,5.5-1.4,7.3c-0.7,1.2-1.4,1.7-2.6,1.9
		c-3.8,0.7-7.1-5-8.3-9.2C119,58.3,119,55,119.7,52.1 M130.1,50.5c-2.1,0.9-3.8,0.9-5.5,0.2c-1.9-0.7-3.6-2.4-4.5-4.3
		c-0.7-1.7-0.7-3.6,0.2-5c0.5-0.7,1.7-1.2,2.8-1.2C126.1,40.3,128.7,45.7,130.1,50.5 M135.6,45.7c-0.5,0.9-0.9,1.9-1.7,2.6
		c-2.8-7.8-6.9-11.9-10.9-11.6c-2.4,0.2-4.5,1.2-5.7,3.1c-1.4,1.9-1.9,4.7-0.9,7.1c-2.1,5.2-1.9,11.4-0.5,16.1c1.7,5,4,8.5,7.3,10.2
		c1.9,1.2,4.3,1.2,5.9,0.7c2.4-0.7,4-2.4,5.2-5c2.6-5.5,2.1-13.5,0.2-19c0.9-0.7,2.1-2.4,2.6-3.8C137.3,46.2,135.6,45.7,135.6,45.7z
		 M140.1,49.8c0-0.5,0-0.7,0.2-1.4h-0.2c-0.2,0-0.5,0.5-0.7,0.9c-0.5,0.9-0.7,2.4-0.2,3.1c0,0.2,0.5,0.2,1.2,0
		c0.2,0,0.5-0.2,0.5-0.5c0.5-0.5,0.5-1.4,0.2-1.9C140.8,49.8,140.6,49.8,140.1,49.8 M147.4,54l-1.7-1.4l-0.5-0.5
		c-0.5-0.2-0.7-0.7-0.7-1.2v-0.2h-0.2l-1.9,1.4c-0.2,0.7-0.5,2.1-0.5,3.3l-0.2,3.8c-0.2,2.4-0.7,4.3-1.9,5l-0.5,2.1h0.2
		c1.4-0.7,2.4-2.1,3.1-4.5l0.2-2.1l0.2-1.9v-0.5l0.2-1.9c0-0.5,0.2-0.9,0.2-1.4v-0.2l0.2,0.2c0.5,0.7,1.9,1.9,2.6,2.4l0.2,0.2h-0.2
		c-2.4,0.9-2.8,2.6-2.4,3.3c0.2,0.5,0.7,0.9,0.9,1.2c0.5,0.2,1.2,0.2,1.9-0.2c1.4-0.7,2.4-2.4,1.9-4v-0.2l-0.2-0.7
		C148.4,55.2,148.2,54.8,147.4,54 M147.2,58.8c-0.2,0.5-0.5,0.7-0.9,0.9c-0.5,0.2-0.9,0-1.2-0.2c-0.5-0.2-0.5-0.7-0.2-1.2
		c0.2-0.5,0.9-0.9,2.1-1.4h0.2c0,0,0,0.2,0.2,0.2C147.4,57.8,147.4,58.5,147.2,58.8"/>
</g>
</svg>
