<?xml version="1.0" encoding="utf-8"?>
<!-- Generator: Adobe Illustrator 21.1.0, SVG Export Plug-In . SVG Version: 6.00 Build 0)  -->
<!DOCTYPE svg PUBLIC "-//W3C//DTD SVG 1.1//EN" "http://www.w3.org/Graphics/SVG/1.1/DTD/svg11.dtd">
<svg version="1.1" id="Layer_1" xmlns="http://www.w3.org/2000/svg" xmlns:xlink="http://www.w3.org/1999/xlink" x="0px" y="0px"
	 width="296.8px" height="281px" viewBox="0 0 296.8 281" style="enable-background:new 0 0 296.8 281;" xml:space="preserve">
<style type="text/css">
	.st0{fill:#DF4601;}
	.st1{fill:#FFFFFF;}
</style>
<title>Baltimore Orioles Primary logo</title>
<path class="st0" d="M125.7,281c-33.4,0-64.7-12.1-85.8-33.4c-19-19-28.9-44.6-29.2-74l-9.5,1.7l-0.5-1.7
	c-0.2-1.2-6.9-30.1,24.9-55.7C17.2,98,9.1,61.5,42.3,33.2c3.6-3.6,5.9-5,7.6-6.4c0.9-0.7,1.7-1.2,2.4-1.7c1.9-5.2,5.7-10,7.6-11.9
	C70.3,2.4,83.5,0.8,84,0.5C85.9,0.3,87.8,0,89.7,0c10.2,0,16.1,4.3,18.7,6.2c0.2,0.2,0.2,0.2,0.5,0.2c1.2,0.2,2.6,0.5,4.5,0.5
	s4.5,0.2,7.8,0.5c18.7,2.4,34.6,11.1,47.4,25.6c4.3-0.5,21.3-2.8,29.9-4.7c4.3-0.9,8.8-1.9,13-2.8c20.9-4.5,40.5-8.8,54.8-8.8
	c2.1,0,4,0,5.7,0.2h0.2c10.2,1.9,18,7.3,21.3,15.4c7.2,17.1,2.7,30.3-15.3,44.8c-21.6,17.3-52.4,26.3-70,30.3c0.2,1.4,0.7,4,1.9,8.3
	c4.3-0.5,8.8-0.5,13-0.5c35.1,0,57.6,12.8,59,25.4c0.2,4.3-2.8,9.2-10.2,11.4c-31.5,8.3-37.9,23.7-46.2,59.7
	c-5,21.3-17.5,39.1-37,51.4C171.5,274.8,149,281,125.7,281"/>
<path d="M238.3,141.3c-35.1,19.4-32.7,44.6-72.1,55c-44.6,11.6-80.6-18.3-54.5-24.2c6.2-1.2,6.9-5,0.2-3.8
	c-15.6,0.9-35.8,9-16.8,40.3c0,0,2.6,1.2,3.8,0c0,0-7.1-15.9-1.7-20.4c25.1,23.9,81.1,28.2,116.2-18.5
	c11.9-15.6,25.6-24.7,38.9-30.1c-21.3-5.2-45.5-5.7-58.8-1.7c-1.7-21.1-2.8-27-6.9-36c-1.9-4-2.1-6.4,7.1-9
	c5.7-1.7,29.4-7.1,49.8-16.4c14.5-6.6,24.4-14,27-16.6c2.1-1.9,9.7-10.4,6.9-17.3c-2.8-6.9-9.7-7.3-18-6.6
	c-7.1,0.7-10.4,0.9-54.8,10.7c-23.2,4.7-36.5,5-44.8,7.6c0,0-10.9-26.5-47.2-27.7c-4.7,0-12.3-0.9-16.1-4.7
	c-4-3.1-11.1-2.6-17.1,0.7c-4.5,2.4-8.3,6.2-9,9.7c-1.7,6.2-3.8,5.7-12.3,12.8C47.4,53.9,23,73.3,50,122.8
	c-24.7,14.2-28.2,30.8-28.2,30.8l11.4-0.7c-1.7,3.1-3.1,13.3-3.1,17.8c-0.2,25.8,7.6,47.2,23.5,63.3c17.3,17.5,43.6,27.7,71.6,27.7
	c19.7,0,38.6-5.2,53.3-14.5c6.6-4.3,12.6-9.5,17.1-15.4c-56.4,35.1-108.1,5.2-118.5-24.7c-10.2-29.2,8.1-51.7,31.3-46.2
	c32.5,7.8,49.5,3.3,54.5-12.3c4,1.4,13.3,1.2,19-1.7C190.4,143.2,210.1,136.1,238.3,141.3"/>
<path class="st0" d="M76.9,37l17.8-6.6C94.7,30.4,81.4,20.2,76.9,37 M118.6,84.7c0,0,27.3-21.1,57.8-24.7
	c28.4-3.6,73.7-13.5,73.7-13.5s-22,13.3-44.1,28.7c-23.8,14.2-41.4,20.1-69.1,19.4C118.9,92.3,107,92.3,118.6,84.7 M222.4,74.5
	c0,0,44.6-31.1,46-28.7C272.5,51.3,250.2,65.2,222.4,74.5"/>
<path class="st1" d="M46.6,116.2c0,0,18.5-2.1,37.7-11.1l-34.4,18C49.9,123.1,46.6,116.2,46.6,116.2z M150.2,129.5
	c4,12.6,1.2,24.9-6.4,27.3c-7.6,2.6-17.3-5.7-21.3-18.3s-1.2-24.9,6.4-27.3C136.6,108.6,146.1,116.9,150.2,129.5"/>
<path d="M136.6,135.2c3.3,5.7,2.6,12.3-1.2,14.5c-3.8,2.1-9.5-0.9-12.8-6.6c-3.3-5.7-2.6-12.3,1.2-14.5
	C127.6,126.4,133.3,129.2,136.6,135.2"/>
<path class="st1" d="M182.2,117.4c3.3,12.8-0.2,24.9-8.1,27c-7.8,2.1-16.8-6.6-20.4-19.4c-3.1-12.8,0.5-24.9,8.3-27
	C169.8,95.8,178.8,104.6,182.2,117.4"/>
<path d="M167.2,123.8c2.6,5.5,1.9,11.4-1.9,13.3c-3.6,1.7-8.8-1.2-11.4-6.9c-2.6-5.5-1.9-11.4,1.9-13.3
	C159.4,115.3,164.6,118.3,167.2,123.8"/>
<path class="st0" d="M117.9,50.5c3.6,2.1,6.9,2.1,10.9,0c0.7,2.6,1.4,6.2,1.4,9c0,2.4-0.2,5.5-1.4,7.3c-0.7,1.2-1.4,1.7-2.6,1.9
	c-3.8,0.7-7.1-5-8.3-9.2C117.2,56.7,117.2,53.4,117.9,50.5 M128.3,48.9c-2.1,0.9-3.8,0.9-5.5,0.2c-1.9-0.7-3.6-2.4-4.5-4.3
	c-0.7-1.7-0.7-3.6,0.2-5c0.5-0.7,1.7-1.2,2.8-1.2C124.3,38.7,126.9,44.1,128.3,48.9 M133.8,44.1c-0.5,0.9-0.9,1.9-1.7,2.6
	c-2.8-7.8-6.9-11.9-10.9-11.6c-2.4,0.2-4.5,1.2-5.7,3.1c-1.4,1.9-1.9,4.7-0.9,7.1c-2.1,5.2-1.9,11.4-0.5,16.1c1.7,5,4,8.5,7.3,10.2
	c1.9,1.2,4.3,1.2,5.9,0.7c2.4-0.7,4-2.4,5.2-5c2.6-5.5,2.1-13.5,0.2-19c0.9-0.7,2.1-2.4,2.6-3.8C135.5,44.6,133.8,44.1,133.8,44.1z
	 M138.3,48.2c0-0.5,0-0.7,0.2-1.4h-0.2c-0.2,0-0.5,0.5-0.7,0.9c-0.5,0.9-0.7,2.4-0.2,3.1c0,0.2,0.5,0.2,1.2,0c0.2,0,0.5-0.2,0.5-0.5
	c0.5-0.5,0.5-1.4,0.2-1.9C139,48.2,138.8,48.2,138.3,48.2 M145.6,52.4l-1.7-1.4l-0.5-0.5c-0.5-0.2-0.7-0.7-0.7-1.2v-0.2h-0.2
	l-1.9,1.4c-0.2,0.7-0.5,2.1-0.5,3.3l-0.2,3.8c-0.2,2.4-0.7,4.3-1.9,5l-0.5,2.1h0.2c1.4-0.7,2.4-2.1,3.1-4.5l0.2-2.1l0.2-1.9v-0.5
	l0.2-1.9c0-0.5,0.2-0.9,0.2-1.4v-0.2l0.2,0.2c0.5,0.7,1.9,1.9,2.6,2.4l0.2,0.2h-0.2c-2.4,0.9-2.8,2.6-2.4,3.3
	c0.2,0.5,0.7,0.9,0.9,1.2c0.5,0.2,1.2,0.2,1.9-0.2c1.4-0.7,2.4-2.4,1.9-4v-0.2l-0.2-0.7C146.6,53.6,146.4,53.2,145.6,52.4
	 M145.4,57.2c-0.2,0.5-0.5,0.7-0.9,0.9c-0.5,0.2-0.9,0-1.2-0.2c-0.5-0.2-0.5-0.7-0.2-1.2c0.2-0.5,0.9-0.9,2.1-1.4h0.2
	c0,0,0,0.2,0.2,0.2C145.6,56.2,145.6,56.9,145.4,57.2"/>
</svg>
