<?xml version="1.0" encoding="utf-8"?>
<!-- Generator: Adobe Illustrator 21.1.0, SVG Export Plug-In . SVG Version: 6.00 Build 0)  -->
<!DOCTYPE svg PUBLIC "-//W3C//DTD SVG 1.1//EN" "http://www.w3.org/Graphics/SVG/1.1/DTD/svg11.dtd">
<svg version="1.1" id="Layer_1" xmlns="http://www.w3.org/2000/svg" xmlns:xlink="http://www.w3.org/1999/xlink" x="0px" y="0px"
	 width="300px" height="293.3px" viewBox="0 0 300 293.3" style="enable-background:new 0 0 300 293.3;" xml:space="preserve">
<style type="text/css">
	.st0{fill:#FFFFFF;}
	.st1{fill:#C62033;}
</style>
<g>
	<path class="st0" d="M270.2,173.7c-10.6-7.5-23.5-9.2-35.9-10.9c-23.7-3.1-42.4-5.5-45.1-44.4c-3.9-56.4-5.3-69.4-19.5-79.7
		c-0.5-3.9-3.4-26.5-3.4-26.5c-0.9-7.6-8-13.1-15.6-12.1l-43.3,5.4c-3.7,0.4-7,2.3-9.3,5.3c-1.5,2-2.5,4.3-2.8,6.7
		c-6-0.3-11.9,3.3-14,9.2c0,0-7.5,21-8.9,25C63.7,55.6,56.8,67.9,49,92.5l-4.4,14.3c-8.5,28-15.3,50.1-27.9,63.8
		C5.9,182.2,0,195,0,206.6c0,3.5,0.5,7,1.6,10.1c3.3,9.7,13,22.4,41.2,27.5c15.4,2.7,33.4,13.8,50.6,24.5
		c11.9,7.4,24.7,15.3,36.1,20c7.4,3.1,20,8.6,55.3-0.3c1.8-0.4,5.7-2,7-8.1c0.3-1.3,0.4-2.8,0.4-4.4c0-11.9-8.3-32.6-30.8-51.8
		c16,1.6,34,5.4,47.3,10.1c22,7.7,63.2,13,86.9-4.2c1.9-1.3,4.1-4.1,4.3-9.3C300,209.9,290.9,188.4,270.2,173.7"/>
	<path class="st1" d="M267.1,178c-28.4-20.2-78.6,5.8-83.3-59.2c-4.1-59-5.6-68.1-19.2-77.1L161,12.8c-0.6-4.7-4.9-8.1-9.6-7.5
		L108,10.8c-4.2,0.5-7.3,3.9-7.5,8c1.5,0.6,4.3,1.5,7.6,2.7l-0.3-2.8c-0.1-0.8,0.4-1.4,1.2-1.5c0.8-0.1,1.4,0.4,1.5,1.2l0.5,4.1
		c1.8,0.7,3.9,1.3,5.9,2.1l-0.8-6.5c-0.1-1,0.6-1.8,1.5-1.9c0.9-0.1,1.8,0.6,1.9,1.5l1,8.2c1.8,0.6,3.4,1.3,5.1,1.8l-1.3-10.2
		c-0.2-1.2,0.7-2.3,1.8-2.3c1.2-0.2,2.3,0.7,2.4,1.8l1.5,12.3c1.7,0.6,3.3,1.2,4.6,1.7l-1.8-14.5c-0.2-1.2,0.7-2.3,1.8-2.3
		c1.2-0.2,2.3,0.7,2.3,1.8l2.1,16.7c0.6,0.3,1,0.3,1,0.3c1.6,0.6,3,1.4,4.2,2.4L141.8,15c-0.1-0.9,0.6-1.8,1.5-1.9
		c0.9-0.1,1.8,0.6,1.9,1.5l3.4,27.1c0.5,1.4,0.8,2.9,0.8,4.4c0,1.5-0.3,3.1-0.8,4.7c0,0-7.5,21.3-9,25.2c1.7,3.4,2.4,6.8,2.4,10.4
		c0,10.6-6.3,22.1-12.1,32.7c-2.4,4.4-4.8,8.7-6.5,12.7c-8.9,21.7-13.2,35.1-13.2,44.3c0,4.9,1.2,8.5,3.6,11.6
		c0.1-5.8,1.2-10.2,1.8-12.4c5.7,1.8,22.6,7.1,31.1,9c0,0-0.7,17.4,1.4,29.9c1,0.8,1.8,1.5,2.4,2c1.1,0.8,2.2,1.5,3.3,2.3
		c19.1,1.1,41.8,5.9,56.5,11c22.8,8,61.3,11.7,82.3-3.6C298.7,222.1,291.2,195.1,267.1,178 M156.2,44.9c-0.8,0.1-1.4-0.4-1.5-1.2
		l-3.8-30.4c-0.1-0.8,0.4-1.4,1.2-1.5s1.4,0.4,1.5,1.2l3.8,30.4C157.5,44.1,157,44.8,156.2,44.9 M287.1,220.3
		c-7.3,4.9-17.1,7.3-27.5,8c-2.3,0.1-3.7-0.8-4.2-2.5l-7.5-20.5c-0.8-1.7-0.8-3.3,1.5-4.4c0,0,15.4-6.7,17.2-7.6s3.9-2.6,6-0.5
		C282.8,203.7,287.1,215.6,287.1,220.3C287.2,220.1,287.1,220.2,287.1,220.3"/>
	<path class="st1" d="M148.2,220.6c-2.1-1.7-14.3-12.2-31.7-24c-17.4-11.7-13.3-29.3,2.3-67.3c7.6-17.2,25.1-38.7,15.2-53.2
		l9.7-27.4c1.6-4.5-0.8-9.5-5.3-11.1L97.3,23.1c-4.5-1.6-9.5,0.8-11.1,5.3l-9.6,27.5C69,57.6,62.1,68.6,54.2,94
		c-10.8,34.7-17.8,63.1-33.5,80.1c-22.4,24.1-24.9,56.3,23,65c27.5,4.8,59.9,33.2,87.5,44.7c6.6,2.8,17.4,8.4,52.5-0.4
		C191.3,281.8,188.3,248.5,148.2,220.6 M40.9,230.7c-14.9-3.4-24.2-9.6-27.1-18c-2.9-8.6,0.9-20,10.1-30.9
		c10.5,4,19.3,8.9,25.8,13.3C45.2,204.9,42,217.2,40.9,230.7 M136.2,44c0.7,0.3,1.1,1,0.8,1.8l-10.3,28.8c-0.3,0.7-1,1.1-1.8,0.8
		c-0.7-0.3-1.1-1-0.8-1.8l10.3-28.8C134.7,44.1,135.5,43.7,136.2,44 M128,41c0.9,0.3,1.4,1.3,1.1,2.3l-10.1,28
		c-0.3,0.9-1.3,1.4-2.3,1.1c-0.9-0.3-1.3-1.3-1.1-2.3L125.8,42C126.1,41.2,127.1,40.7,128,41 M119.8,38.1c1.1,0.4,1.7,1.6,1.3,2.8
		l-9.8,27.3c-0.4,1.1-1.6,1.7-2.8,1.3c-1.1-0.4-1.7-1.6-1.3-2.8l9.7-27.3C117.5,38.3,118.7,37.7,119.8,38.1 M84.1,60.7
		c-0.7-0.3-1.1-1-0.8-1.8l10.2-28.8c0.3-0.7,1-1.1,1.8-0.8c0.7,0.3,1.1,1,0.8,1.8L85.8,59.8C85.5,60.6,84.8,60.9,84.1,60.7
		 M92.3,63.6c-0.9-0.3-1.4-1.3-1.1-2.3l10-28c0.3-0.9,1.3-1.4,2.3-1.1c0.9,0.3,1.3,1.3,1.1,2.3L94.5,62.6
		C94.2,63.4,93.2,63.9,92.3,63.6 M100.4,66.5c-1.1-0.4-1.7-1.6-1.3-2.8l9.7-27.3c0.4-1.1,1.6-1.7,2.8-1.3c1.1,0.4,1.7,1.6,1.3,2.8
		l-9.7,27.3C102.8,66.4,101.6,66.9,100.4,66.5 M179.3,276.5c-13,3.1-22.1,4-28.7,3.9c-2.3,0.3-4.3-0.8-4.7-3.6l-2.4-21.4
		c0.1-2.2,0.8-4,3.4-4.1c6.4,0.1,14-0.6,16.3-1.3c3.5-1.2,4.4-0.8,4.9-0.2c8.6,11.6,11.2,21.5,11.2,26.1
		C179.4,276.1,179.3,276.3,179.3,276.5"/>
</g>
</svg>
