<?xml version="1.0" encoding="utf-8"?>
<!-- Generator: Adobe Illustrator 21.1.0, SVG Export Plug-In . SVG Version: 6.00 Build 0)  -->
<!DOCTYPE svg PUBLIC "-//W3C//DTD SVG 1.1//EN" "http://www.w3.org/Graphics/SVG/1.1/DTD/svg11.dtd">
<svg version="1.1" id="Layer_1" xmlns="http://www.w3.org/2000/svg" xmlns:xlink="http://www.w3.org/1999/xlink" x="0px" y="0px"
	 width="419.1px" height="600px" viewBox="0 0 419.1 600" style="enable-background:new 0 0 419.1 600;" xml:space="preserve">
<style type="text/css">
	.st0{fill:#FFFFFF;}
	.st1{fill:#E0393E;}
</style>
<title>BOS</title>
<desc>Created with Sketch.</desc>
<g>
	<path id="Fill-3" class="st0" d="M282.7,211.1c0,25.9-25,46.9-55.8,46.9c-19.8,0-37.2-8.7-47.1-21.8V116.6
		c9.9-13.1,27.3-21.8,47.1-21.8c30.7,0,55.8,21.1,55.8,46.9c0,13.7-7,26.1-18.2,34.7C275.7,185,282.7,197.4,282.7,211.1 M227,76.4
		c-28.4,0-53,14-65.5,34.6v130.7c12.5,20.6,37.1,34.6,65.5,34.6c40.9,0,74.1-29.2,74.1-65.3c0-12.7-4.1-24.6-11.3-34.7
		c7.2-10,11.3-21.9,11.3-34.7C301.1,105.7,267.9,76.4,227,76.4"/>
	<path id="Fill-5" class="st0" d="M348.2,486.1c-6.5,19.2-12.8,37.4-35.8,60.4c-46.9,46.8-124.6,45.2-171.4-1.6
		c-10.1,21.8-33.6,35.4-59.1,35.4c-31,0-56.9-22.3-62.4-51.7c8.1,3.9,17.1,6.1,26.5,6.1c35.8,0,64.9-31,64.9-69.2v-92.9
		c0-16.2-6.2-48.9-38.1-72.7c31.9-23.8,38.1-56.5,38.1-72.7v-92.9c0-38.1-29.1-69.2-64.9-69.2c-9.4,0-18.5,2.2-26.5,6.1
		C25,41.9,50.8,19.6,81.8,19.6c25.5,0,49.1,13.6,59.1,35.4c46.9-46.8,124.6-48.3,171.4-1.5c23.1,23,29.3,41.2,35.8,60.4
		c7.1,20.7,14.3,41.9,40.9,62.9c-10.7,13.3-16.2,29.3-22.2,47c-1.3,3.8-2.4,8-3.5,12.3c-3.2,12.7-16,46.3-43.5,63.9
		c27.5,17.6,40.3,51.2,43.5,63.9c1.1,4.4,2.2,8.5,3.5,12.3c6,17.7,11.5,33.7,22.2,47C362.6,444.2,355.3,465.4,348.2,486.1
		 M384.3,370.3c-5.6-16.5-7.6-48.3-39.3-70.3c31.8-22,33.7-53.8,39.3-70.3c9.2-26.8,15.3-43.2,34.8-54.8
		c-69.6-40.2-36-76.8-93.7-134.4C275.6-9.2,197.3-13.2,142.9,28.7c-15-16.8-36.8-27.4-61.1-27.4C36.6,1.3,0,37.9,0,82.9
		c0,9.8,1.7,19.1,4.8,27.8C12.6,94.6,28.1,83.6,46,83.6c25.7,0,46.5,22.7,46.5,50.8v92.9c0,9.7-3.3,53-59,72.7
		c55.8,19.7,59,62.9,59,72.7v92.9c0,28.1-20.8,50.8-46.5,50.8c-17.9,0-33.4-11-41.2-27.1C1.7,497.9,0,507.3,0,517
		c0,45.1,36.6,81.7,81.8,81.7c24.3,0,46.1-10.6,61.1-27.4c54.3,41.9,132.6,37.9,182.4-11.8c57.7-57.6,24.1-94.2,93.7-134.4
		C399.5,413.6,393.5,397.1,384.3,370.3"/>
	<path id="Fill-7" class="st0" d="M282.7,458.3c0,25.9-25,47-55.8,47c-19.8,0-37.2-8.7-47.1-21.8V363.8
		c9.9-13.1,27.3-21.8,47.1-21.8c30.7,0,55.8,21.1,55.8,46.9c0,13.7-7,26.1-18.2,34.7C275.7,432.2,282.7,444.5,282.7,458.3
		 M227,323.6c-28.4,0-53,14-65.5,34.6V489c12.5,20.6,37.1,34.6,65.5,34.6c40.9,0,74.1-29.2,74.1-65.3c0-12.7-4.1-24.6-11.3-34.7
		c7.2-10.1,11.3-21.9,11.3-34.7C301.1,352.8,267.9,323.6,227,323.6"/>
	<path id="Fill-9" class="st1" d="M301.1,211.1c0,36.1-33.2,65.3-74.1,65.3c-28.4,0-53-14-65.5-34.6V111
		C174,90.5,198.6,76.4,227,76.4c40.9,0,74.1,29.2,74.1,65.3c0,12.8-4.1,24.7-11.3,34.7C297,186.5,301.1,198.4,301.1,211.1
		 M301.1,458.2c0,36.1-33.2,65.3-74.1,65.3c-28.4,0-53-14-65.5-34.6V358.2c12.5-20.6,37.1-34.6,65.5-34.6
		c40.9,0,74.1,29.2,74.1,65.3c0,12.8-4.1,24.6-11.3,34.7C297,433.6,301.1,445.5,301.1,458.2 M363.4,363.9
		c-3.2-12.7-16-46.2-43.5-63.9c27.5-17.6,40.3-51.1,43.5-63.9c1.1-4.4,2.2-8.5,3.5-12.3c6-17.6,11.5-33.7,22.2-47
		c-26.6-21-33.8-42.2-40.9-62.9c-6.5-19.2-12.8-37.4-35.8-60.4C265.5,6.7,187.8,8.3,141,55c-10.1-21.8-33.6-35.4-59.2-35.4
		c-31,0-56.9,22.3-62.4,51.7c8.1-3.9,17.1-6.1,26.6-6.1c35.8,0,64.9,31.1,64.9,69.2v92.9c0,16.1-6.2,48.9-38.1,72.7
		c31.9,23.8,38.1,56.5,38.1,72.7v92.9c0,38.1-29.1,69.2-64.9,69.2c-9.4,0-18.5-2.1-26.6-6.1c5.5,29.4,31.4,51.7,62.4,51.7
		c25.5,0,49.1-13.6,59.2-35.4c46.8,46.8,124.6,48.3,171.4,1.6c23.1-23,29.3-41.2,35.8-60.4c7.1-20.7,14.3-41.9,40.9-62.9
		c-10.7-13.3-16.2-29.3-22.2-47C365.6,372.4,364.5,368.2,363.4,363.9"/>
</g>
</svg>
