<?xml version="1.0" encoding="utf-8"?>
<!-- Generator: Adobe Illustrator 21.1.0, SVG Export Plug-In . SVG Version: 6.00 Build 0)  -->
<!DOCTYPE svg PUBLIC "-//W3C//DTD SVG 1.1//EN" "http://www.w3.org/Graphics/SVG/1.1/DTD/svg11.dtd">
<svg version="1.1"
	 id="Layer_1" xmlns:cc="http://creativecommons.org/ns#" xmlns:dc="http://purl.org/dc/elements/1.1/" xmlns:rdf="http://www.w3.org/1999/02/22-rdf-syntax-ns#"
	 xmlns="http://www.w3.org/2000/svg" xmlns:xlink="http://www.w3.org/1999/xlink" x="0px" y="0px" width="300px" height="300px"
	 viewBox="0 0 300 300" style="enable-background:new 0 0 300 300;" xml:space="preserve">
<style type="text/css">
	.st0{fill:#FFFFFF;}
	.st1{fill:#0E3386;}
	.st2{fill:#CC3433;}
</style>
<g>
	<path class="st0" d="M0,150C0,67.1,67.1,0,150,0c82.9,0,150,67.1,150,150c0,82.9-67.1,150-150,150S0,232.9,0,150z"/>
	<path class="st1" d="M9.8,149.5C9.8,72.1,72.6,9.3,150,9.3s140.2,62.9,140.2,140.2S227.4,289.8,150,289.8
		C72.4,289.8,9.8,226.9,9.8,149.5z M150,253.1c57.1,0,103.6-46.4,103.6-103.6S207.1,46,150,46S46.4,92.4,46.4,149.5
		S92.6,253.1,150,253.1z"/>
	<g>
		<path class="st2" d="M195.5,178.8c-9.8,15-26.4,25-45.7,25c-30,0-54.3-24.3-54.3-54.3c0.2-30,24.5-54.3,54.5-54.3
			c19.8,0,36.9,10.5,46.4,26.2l26.7-26C206.4,73.1,180,58.6,150,58.6c-50.2,0-90.9,40.7-90.9,91c0,50.2,40.7,90.9,90.9,90.9
			c29.8,0,56-14.3,72.6-36.2L195.5,178.8z"/>
		<path class="st2" d="M133.8,158.3v-32.9h16.4v33.3c0,11.9-2.8,14.8-12.4,14.8H121c-7.9,0-10.5-5-10.5-15.7v-32.4h16.4v32.9
			C126.9,162.9,133.8,162.9,133.8,158.3"/>
		<path class="st2" d="M156.2,173.6v-48.1h25.7c9.8,0,13.8,2.4,13.8,13.6c0,6-1.2,9-4.5,10.7c4.5,2.6,4.5,7.4,4.5,11.4
			c0,10.7-4.8,12.4-13.8,12.4L156.2,173.6L156.2,173.6z"/>
	</g>
	<path class="st0" d="M180.2,138.6c0-1.9-1.9-1.9-6.9-1.9v6.7c2.9,0,6.9,0.3,6.9-2.1V138.6z"/>
	<path class="st0" d="M180,158.1c-1-2.4-1.4-1.9-6.9-1.9v6.7c3.6,0,6.9,0.2,6.9-2.1C180,160,180.2,158.6,180,158.1z"/>
	<path class="st2" d="M228.3,173.6c8.8,0,13.3-2.4,13.3-10.2v-10.7c0-5.7-4-9.3-9.8-9.3h-11.7c-3.1,0-2.4-4.5-2.4-6
		c0-2.1,6.7-2.9,6.7,0.7v2.1h17.4c0-11.2-2.1-14.8-13.3-14.8h-15.2c-7.1,0-11.2,2.9-11.4,11.2c-0.3,8.3,0,4.8,0,7.8
		c0,3.1-0.5,10,9,10h11.9c3.3,0,2.6,4,2.6,4v2.6c0,2.9-5.7,2.9-6.9,0.7c-1-1.4-0.5-4-0.5-4h-16.2c0,3.3-1.9,15.9,8.1,15.9
		C218.6,173.6,228.3,173.6,228.3,173.6L228.3,173.6z"/>
</g>
</svg>
