<?xml version="1.0" encoding="utf-8"?>
<!-- Generator: Adobe Illustrator 21.1.0, SVG Export Plug-In . SVG Version: 6.00 Build 0)  -->
<!DOCTYPE svg PUBLIC "-//W3C//DTD SVG 1.1//EN" "http://www.w3.org/Graphics/SVG/1.1/DTD/svg11.dtd">
<svg version="1.1" id="Layer_1" xmlns="http://www.w3.org/2000/svg" xmlns:xlink="http://www.w3.org/1999/xlink" x="0px" y="0px"
	 width="300px" height="428.3px" viewBox="0 0 300 428.3" style="enable-background:new 0 0 300 428.3;" xml:space="preserve">
<style type="text/css">
	.st0{fill:#FFFFFF;}
	.st1{fill:none;stroke:#000000;stroke-width:0.267;}
</style>
<g>
	<path d="M292.3,400.1c0,1.4-1.3,2.5-3.2,4.4c-2.3,2.4-19.7,16-27.8,21.9c-8.2,5.9-10.4-3.6-12.1-6.2c-3.5-5.5-27.9-43-27.9-43
		s-33.7,43.4-36.3,46.7c-2.6,3.4-7.2,3.9-12.2-1.1c-4.9-4.9-23.2-22.2-23.2-22.2s0-32.4,0-39.7c0-7.1,4.3-9.6,9.5-4.8l17.5,15.5
		l24.2-29.6l-5.3-8.8l-20.5,15.7l-70.1-42.6c-1.2-0.1-2-3.1-0.6-4.5c1.6-1.6,7.4-6.8,7.4-6.8l0-26.2c-2-1.3-12.4-7.3-15.4-7.3
		c-1.2-1.3-22.3-5.1-40.1-2.5C37.6,261.8,23,270.7,14,276.4C-0.1,285.1-2,277.6,1.6,266c2.8-8.9,12-20.4,22.3-29.4
		c11.1-9.7,26.8-17.4,43.7-21.4c6.6-1.6,27.5-3.8,39.7,0.6l26.1-19c0-3.2-13.8-9.5-16.5-10.6c-2.7-1.1-27.4-12.2-45.3-20.4
		c-17.9-8.3-32.8-24.6-38.4-33.1c-5.3-8-11.2-25.7-8.8-50.6c1.4-14.8,11.9-37.2,21.8-47.7C64,15.2,81.8,0,116,0
		c27.8,0,61.2,17.6,68.7,19c7.4,1.5,8.3,1.5,15.4-5.6l26.9,18l-39.8,51.3l-22.6-15.4l0.2-2.6c0-15.1-15.5-21.4-23.7-24.2
		c-11.5-3.8-18.2-4.3-27.1-4.2c-13.6,0-21.2,10.6-21.4,16.4c-0.3,8.7,4.5,16.1,19.9,23.9l20.6,10.2c0,0,58.2,29.5,67.2,36.2
		c7.6,5.7,13.7,9.3,21.5,21.5c6.8,6.8,9.4,33.7,9.4,33.7s-0.4,13.7-5.5,29.3l5.8,0c14.8,0,7.4,10,6,11.3c-3.9,3.5-6,6.1-6,6.1
		l0.1,57c0,0,8.8,2.6,11.3,6c0,0,27.4-34.1,29-36.6c1.6-2.5,5.6-4.1,8.5-0.8c3,3.3,19.7,20.4,19.7,20.4l0,31.7c0,0,0.6,11.8-8,6
		l-10-7.8l-34.9,44.1l17.3,27.6l21.1-16c4.4-4.2,6.7-0.4,6.7,1.9"/>
	<path class="st0" d="M63,112c9.1,7.5,28,19,33.8,21.8c13.6,6.7,29.3,16.1,36.4,21.1c10.4,7.4,11.5,19.3,11.9,20.8
		c0.4,1.5,0,19.3-2.9,24.5c0-4.1-7.6-13-13.4-15.1c-0.6-0.2-16.3-8.3-18.6-9.4c-2.2-1.1-26.7-11.4-29.3-13.3
		c-0.7-0.5-10.2-4.1-19.6-10.4c-7.7-5.1-15.1-12.3-19.7-18.6c-10.6-14.3-12.3-31.2-12.3-40.8c0-5.8,1.3-14.3,3.3-20.8
		c4.1-13.4,10-20,10-20c-2.4,2.4-2.2,26.5,2.5,36.8C47.4,97.5,63,112,63,112"/>
	<path class="st0" d="M163.3,180.1c7.4,7.4,31.2,21.1,35.6,23.3c4.4,2.2,17.1,9.9,20.4,10.9c4,1.2,12.6-0.1,12.6-0.1l-7,7.8
		l0.1,65.7c12.2,0,16.5,7.4,14.9,7.4c-1.9,0-5.6,2.2-7,3c-1.5,0.8-22.6,16.7-22.6,16.7l-36.5,26.8c0,0-57.8-34.8-59.3-35.9
		c-0.6-0.6-2.8-1.4-2.8-1.4c1.8-1.2,2.2-1.3,2.7-1.7c1.3-1.1,3.1-1.8,3.1-7.7c0-1.5-0.1-72.7-0.1-72.7c0-3.2-1.1-5.2-1.1-5.2
		l42.1-31.6C160.2,183.4,163.3,180.1,163.3,180.1"/>
	<path d="M150.5,223.2l13.2-9.7c12.3,10.2,32.1,17.2,32.3,20c0.2,3.5,0.1,56,0.1,56l-22.4,18.2l-23.1-14.1"/>
	<path class="st1" d="M150.5,223.2l13.2-9.7c12.3,10.2,32.1,17.2,32.3,20c0.2,3.5,0.1,56,0.1,56l-22.4,18.2l-23.1-14.1L150.5,223.2z
		"/>
	<path class="st0" d="M167.4,51.1c3.6,3.6,4.3,14,4.3,14l14.5,9.2l31.5-41.2l-17.1-11.5c-4.8,5.2-14.1,5.6-17.8,3.7
		s-35.6-13.4-40.1-14.9c-8.5-2.7-27.1-4.7-37.1-3.3c-10,1.5-26.5,4.5-39.3,18.2c-15,16-15.2,28.8-15.2,35.6c0,10.8,2.8,25,14.9,37
		c17.4,17.4,43.8,28.2,49.8,31.5c10.6,5.8,43.8,23.2,48.6,26c20.4,11.9,28.2,24.5,26,40.4c-2,14.8-15.2,26-15.2,26
		s-16.9,14.5-26.1,14.5c-6.7,0-24.6-11.8-42.1-14.7c-16.7-2.8-26.9-2.6-40.1,0.6c-14.7,3.6-30.1,9.6-44.5,24.1
		C6,262.8,6.2,273.8,6.2,273.8l16.3-9.7c13.6-7.7,31.6-12.3,44.3-12.3c33,0,48.8,10.3,51.4,14.8c2.7,4.6,30.1-7.6,30.1-7.6
		c7.7,0,34.4-12.2,47.7-25.5c6.8-6.8,19.5-15.7,25.2-33.8c8.3-26.4,2.4-51.8-17.1-66.3c-14.1-10.5-71.7-39.7-71.7-39.7
		S97.6,76.7,93.8,72.9c-2.7-2.7-8.2-6.9-8.2-20c0-7.8,8.7-16.5,12.5-18.3c6-2.9,8-4.2,20.2-4.4c6.9-0.1,13.3,1.6,14.2,1.7
		C140.1,32.6,158.2,38.5,167.4,51.1"/>
	<polyline class="st0" points="160.4,267.8 181.9,252.5 262.6,380.8 285.2,363.7 285.3,399.3 257.1,422 172.3,287.4 160.4,295.3 	
		"/>
	<polyline class="st0" points="276.2,256.8 294.8,273.5 294.8,303.2 281.1,292.1 179.5,419.8 155.4,397.6 155.3,361.6 176.5,380.9 	
		"/>
</g>
</svg>
