<?xml version="1.0" encoding="utf-8"?>
<!-- Generator: Adobe Illustrator 21.1.0, SVG Export Plug-In . SVG Version: 6.00 Build 0)  -->
<!DOCTYPE svg PUBLIC "-//W3C//DTD SVG 1.1//EN" "http://www.w3.org/Graphics/SVG/1.1/DTD/svg11.dtd">
<svg version="1.1" id="CLEVELAND_INDIANS" xmlns="http://www.w3.org/2000/svg" xmlns:xlink="http://www.w3.org/1999/xlink" x="0px"
	 y="0px" width="300.3px" height="389px" viewBox="0 0 300.3 389" style="enable-background:new 0 0 300.3 389;"
	 xml:space="preserve">
<style type="text/css">
	.st0{fill:#FFFFFF;stroke:#FFFFFF;stroke-width:0.262;}
	.st1{fill:#091336;}
	.st2{fill:#ED1D33;}
	.st3{fill:#FFFFFF;}
	.st4{fill:none;}
</style>
<g>
	<g>
		<g>
			<g>
				<g>
					<path class="st0" d="M212.3,32c0.5-0.5,7-7,14.5-12c8.7-5.8,37.7-19.9,37.7-19.9l32.6,43c0,0,4.2,5.2,2.8,11.4
						c-2,8.8-15.6,65.4-15.6,65.4s-3.3,20.6-10.6,33.1c-13.8,23.5-26.3,44.2-26.3,44.2l0.4,5.2c0,0,4.6-4.2,8-7.1
						c3.4-2.9,8,1.7,17.2,8c9.2,6.3,15.6,22.8,16,25.7c0.5,2.9-0.5,14.6-2.9,21.9c-2.4,7.3-10.8,22-10.8,22s8.3,10.2,3.4,25.3
						c-4.9,15.1-17.5,25.7-18.5,26.7c-1,1-16.3,8.7-23.7,8c-3.1-0.3-14.2,12-18.9,17c-6,6.2-21,17.7-25.9,22
						c-9.2,8.2-34.4,17.6-55.3,17c-15.6-0.5-30.1-2.9-36-4.4c-5.8-1.5-20.4-7.3-27.2-14.6c-6.8-7.3-24.8-29.6-29.1-37.4
						c-4.4-7.8-16.6-18-17.5-19c-5.7-6.2-15-15.5-15-15.5C1.2,286,0.1,274.3,0.1,263c0-5.9,2.4-9.2,14.3-21
						c5.2-5.2,12.4-8.4,16.7-12.2c6-5.3,8.6-11,11-15.9c5.6-11.5,9.7-20.9,17-47.1c0,0,9.8-26.2,15.7-33.9
						c5.8-7.8,28.6-22.8,58.3-25.7c29.6-2.9,40.3-3.9,46.1-2.4c5.8,1.5,6.2,1.6,6.2,1.6l1.2,0.5l6.2,3.1L212.3,32z"/>
				</g>
			</g>
			<g>
				<path class="st1" d="M218.8,43c0.4-0.4,3.9-9.8,11-13.7c7.2-4,32.7-17.7,32.7-17.7l25.2,36.2c0,0,3,3.4,1.8,9.1
					c-1.8,8-19.2,76.8-19.2,76.8s-4.3,17.5-11.6,28.4c-13.7,20.5-24.8,34.9-24.8,34.9l0.9,31.6c0,0,10.6-16.6,13.7-19.3
					c3.1-2.7,7.5-7.5,15.9-1.8c8.4,5.7,14.1,20.8,14.6,23.4c0.4,2.6-0.4,13.2-2.6,19.9c-2.2,6.6-10.6,23.4-10.6,23.4s7.5,9.3,3.1,23
					c-4.4,13.7-18.5,22.1-19.4,23c-0.9,0.9-8.8,3.7-15.5,3.1c-2.8-0.3-19,16.2-23.3,20.6c-5.4,5.7-19.1,16.1-23.6,20
					c-8.3,7.4-31.3,16-50.3,15.4c-14.2-0.5-27.4-2.6-32.7-4c-5.3-1.3-18.5-6.6-24.7-13.2c-6.2-6.6-22.5-26.9-26.5-34
					c-4-7.1-15.1-16.4-15.9-17.3c-5.2-5.6-13.7-14.1-13.7-14.1C13.8,286,7.2,275.5,9.5,265.1c1.1-5.2,1.3-12.3,15.4-19.4
					c14.1-7.1,21.4-17.8,25.2-25.6c5.1-10.4,8.8-19,15.4-42.9c0,0,11-30.9,16.3-38c5.3-7.1,26-20.8,53-23.4
					c26.9-2.7,36.7-3.5,42-2.2c5.3,1.3,18.1,8.8,18.1,8.8l1,0.7l3.5,2.1L218.8,43z"/>
			</g>
			<g>
				<path class="st2" d="M236.5,228.9c0,0,13.2-17.2,18.6-19.9c0,0,2-1.3,4.2,1.1c2.2,2.4,10.2,12.8,11.9,18.1
					c1.8,5.3,4.6,7.5,1.3,17.7c-3.3,10.2-8.8,21-9.7,22.1c-1.9,2.3-2.8,3.6-6.2,0.6c0,0,7.3,9.5,7.3,21c0,11.5-6.4,17.2-8.8,19.4
					c-2.4,2.2-9.2,6.6-14.4,7.7c-3.9,0.9-9.3,0.9-9.3,0.9s-29.4,28.7-36.2,33.8c-6.8,5.1-18.5,15.2-30.9,18.8
					c-12.4,3.5-26.5,5.3-44.2,3.1c-9.6-1.2-28-5.4-35.5-12.5c-4.9-4.6-16.4-16.6-24.6-29.2c-8.2-12.6-12.6-15.7-17.9-21.9
					c-5.3-6.2-16.3-14.8-19.7-19.7c-3.3-4.9-9.9-15.7-9.5-22.3c0.9-13.2,10.2-17.2,12.4-18.5c2.2-1.3,11.9-6.2,15.5-10.2
					c3.5-4,11-12.4,12.6-17c1.6-4.6,4.9-10.2,8.2-21c3-9.9,11.4-38.4,21.6-55.6c0,0,4-6.2,11-6.2s26.1-1.3,26.1-1.3
					s9.9-14.6,16.2-18.4c0,0,3.5-2.7,5.1-2c1.5,0.7-2.4,4.3-2.4,4.3s-9.7,10-11.5,14.2c0,0-0.9,2,1.8,2c2.7,0,26.8-0.6,33-0.3
					c6.2,0.2,9.7,2.9,11.9,5.1c0,0,29.1,37.2,39.5,48.1c10.6,11,20.8,31.5,20.8,31.5C234.7,223.8,234.9,230.7,236.5,228.9z"/>
			</g>
			<g>
				<g>
					<path class="st3" d="M233.8,232.9c0,0,2.8-6.4,0.9-10.4c-2.8-6.1-8.8-16.3-15.9-25.7c-1.7-2.3-22.6-26.5-22.6-26.5l-20.7-25.9
						c0,0-3.5-6.3-13.1-6.6c-5.9-0.2-30.8,0.3-30.8,0.3s-5.6,0.7-3.6-2.5c2.3-3.6,4.7-6.6,7.9-10.1c2-2.2,10.1-9.7,3.6-7.7
						c-4.3,1.3-11.4,8.8-19.3,20.2L97,139.1c0,0-9-1.4-14.1,6.9c-6.7,10.9-12.9,28.5-12.9,28.5l16.2-25.4l3.9,16.1l60.9,0.3
						l8.2-14.9c0,0,6.9-0.5,14.6,21.3c2.4,6.9,2.8,4.8,18.2,18.8C207.4,204.8,233.8,232.9,233.8,232.9z"/>
					<path class="st1" d="M67,180.5l18.3-34.2c0,0,2.1-3.7,3.2,0.3c1.1,4,8.4,36.4,8.6,38.6c0,0,0.9,7.3-2,0.7
						c-2.9-6.6-8.4-21.4-9.3-27.2c0,0-1.1-6.4-2.9-0.4c0,0-12.4,25.6-15,29.4c-2.7,3.8-4.9,7.5-4,3.3C64.9,186.7,67,180.5,67,180.5z
						"/>
				</g>
				<g>
					<path class="st1" d="M141.1,181c3.8-6.4,6.8-17,17-34.2c1.6-2.7,2.5-3.5,5.1-0.2c9.7,12.4,21.7,45.8,21.4,48.8c0,0,0.4,6-2,2.9
						c-4.5-5.7-15.2-39.1-19.4-43.9c0,0-2.4-1.5-5.5,4.9c0,0-12.4,24.7-15,28.5c-2.7,3.8-4.9,7.5-4,3.3
						C139.6,186.7,140.4,182.1,141.1,181z"/>
				</g>
				<g>
					<polygon class="st1" points="91.2,167.5 90.8,164.4 152.2,163.1 149.9,166.6 					"/>
				</g>
			</g>
			<g>
				<path class="st1" d="M75.3,231.5c4.4-0.4,1.3,2.7,1.3,2.7c-5.3,4-7.1,15.9-7.5,21.6c-0.4,6-0.7,13.9-0.7,13.9
					s-10.3-2.8-19.7-7.3c-2.3-1.1-8.6-1.5-12,1.6c-2.3,2.2-4.7,9-3.4,19.1c1.3,10.2,5.3,2.2,5.3,2.2c7.1,11,23.8,37.5,34.4,52.6
					c9.5,13.4,20.4,15.6,24.3,17.7c7.9,4.1,30,6.6,44.2,4.9c11.4-1.4,19.4-4.9,23-8.4c3.5-3.5,32.2-19.4,40.2-31.8
					c8-12.4,4.4-23.8,1.8-33.6c-2.6-9.7-12.8-9.3-12.8-9.3c-14.6,0.4-51.2-4.9-51.2-4.9c-0.4-1.8-3.1-8-9.7-12.4
					c-6.6-4.4-2.6,4-2.6,4c-0.4,0,5.7,10.2,5.7,10.2s-7.5,5.3-9.3,5.7c-1.8,0.4-6.6-0.9-15,3.5c-8.4,4.4-15,3.5-21.2,4.4
					c-6.2,0.9-11.5,0.4-14.2-4.4c-1.8-3.3-5.6-5.8-3.9-24.3c1.3-15.1,2-16.3,3.5-19.4c1.6-3.3,6.2-7.1,15-12.8
					c10.8-7,16.3-16.8,16.3-16.8c-1.3,1.8-9.7,8.4-9.7,8.4l-5.7-19l-8.8-26.5c-3.5,1.8-7.9,7.9-10.2,15.5
					c-2.2,7.5-7.6,24.1-11.5,34.4c-3,8.6-4.4,10.3-4.9,10.8C58.9,233,70,231.8,75.3,231.5z"/>
			</g>
			<g>
				<path class="st1" d="M132.7,235.1c0,0,14.1-23,15.9-28.7c1.8-5.7,7.5-25.2,12.8-30c0,0,3.5-2.7,5.7-0.4
					c2.2,2.2,12.8,17.7,17.7,34.4c4.9,16.8,8,37.1,14.6,48.6c0,0-27-14.7-35.4-17.5C150,236.8,132.7,235.1,132.7,235.1z"/>
			</g>
			<g>
				<path class="st3" d="M89.9,203.7c-1.3-4.8-8.4-25.6-8.4-25.6c-4,4.4-19.4,49.5-20.3,52.1l17.1-2c-0.1-2.8,1-13.1,3.9-15.5
					l6.3,0.4l-1.8-6.6C87.4,205.3,88.9,204.1,89.9,203.7z"/>
			</g>
			<path class="st3" d="M180.2,209.4c-3.3-15-15.7-30.4-15.7-30.4c-7.1,5.3-13.2,30.5-14.1,33.1c-0.9,2.6-11.5,20.7-11.5,20.7
				s6.9,0.7,12.4,1.8c5.2,1,16.3,4.9,16.3,4.9c-1.5-3.4-0.4-16.3,3.2-20l8,0.7l-4.4-6.3C175,213.1,175.8,210.8,180.2,209.4z"/>
			<g>
				<path class="st3" d="M183.5,285.4c0,0,12.8-0.4,14.1-0.9c0,0,6.2-1.3,6.6,4c0.4,5.3,1.8,19.4-0.9,24.7c0,0,3.1,3.5-21.2,21.7
					c-24.3,18.1-26.5,21.6-44.2,22.5c-17.7,0.9-36.7-3.1-40.2-4.9c0,0-14.3-7.1-23.4-18.6c-11.9-15-17.7-27.4-34.9-53.4
					c-2-3-0.3-10.3,1.3-11.5c1.9-1.4,5.9,0.1,9.3,1.8c2.8,1.4,19,6.6,19,7.1c0,0.5,2.6,8.4,7.1,11.5c4.4,3.1,16.8,9.7,36.7,2.7
					c0,0,7.9-6.2,18.6-7.5c1.4-0.6,5.8-2.6,8.4-5.9C141.9,283.2,168.3,285.6,183.5,285.4z"/>
			</g>
			<g>
				<path class="st1" d="M57.2,304.6c0,5.9-4.2-23.4-2.4-28.7c0,0,1.8,6.6,2.2,14.1C57.4,297.6,57.2,303.3,57.2,304.6z"/>
			</g>
			<g>
				<g>
					<path class="st1" d="M78,330.9c0,5.9-7.1-25.4-4.4-36.2c0,0,1.8,6.6,2.2,14.1C76.2,316.3,78,329.6,78,330.9z"/>
				</g>
			</g>
			<g>
				<g>
					<g>
						<path class="st1" d="M100.5,340.1c0.5,6.6-5.9-23.9-3.1-41.9c0,0,1.5,12.2,1.7,19.7C99.3,325.5,100.4,338.8,100.5,340.1z"/>
					</g>
				</g>
			</g>
			<g>
				<g>
					<g>
						<path class="st1" d="M129.6,346.6c0,5.9-6.8-30.9-4.2-41.7c0,0,1.8,6.6,2.2,14.1C128.1,326.5,129.6,345.3,129.6,346.6z"/>
					</g>
				</g>
			</g>
			<g>
				<path class="st1" d="M183.3,305.1c0,5.9-3.7-9.5-2-14.8c0,0,1.3-7.3,1.8,0.2C183.5,298,183.3,303.8,183.3,305.1z"/>
			</g>
			<path class="st1" d="M110.6,291.6c0,0,28.9,4.4,37.3,4c0,0,1.8-0.9,2.2,3.5c0.4,4.4,3.8,28.5,4.6,31.6c0.9,3.1-1.7-29.9-2.4-32
				c-1-3,2-3.3,2-3.5c0,0,25.6-4,30-6c4.4-2,11.3-5.5,12.4-6l-9.1,1.3c0,0-26.1,7.9-36.9,8c-12.8,0.2-28.7-1.7-37-4L110.6,291.6z"/>
			<path d="M180.9,183.9"/>
			<path class="st1" d="M178.6,182.5c0,0,27.8,22.5,39.3,39.3c0,0,9.7,27.8,13.2,32.7c0,0,2.7,6.6,3.1,0c0.4-6.6-0.4-21.6-0.4-21.6
				s-57.4-63.2-60.9-64L178.6,182.5z"/>
			<g>
				<path class="st1" d="M240.9,245.2c1.1-8.6,11.9-17.2,16.3-19.4c0,0,6.2-3.1,3.1,3.5c-3.1,6.6-3.5,5.3-3.5,5.3s7.1,16.8,6.6,20.8
					c-0.4,4-3.5,11.5-11.5,2.6c0,0,4,2.7,6.6-0.4c2.6-3.1-4-15.2-4-19c0-0.4-5.7,4.9-7.1,12.8C247.5,251.4,238.7,263.4,240.9,245.2z
					"/>
			</g>
			<g>
				<path class="st2" d="M224.1,44.7c0,0,2.3-9.3,9.3-12.9c6.9-3.6,6.9-3.7,6.9-3.7l7.2,10.9l-4.1-12.5l4.3-2.2l4.4,5.9l-1.7-7.2
					l11.4-6.1l14.8,21.9l-9.7,7.1c0,0,9-3.8,11.7-4l2.3,3.2l-11.1,7.6c0,0,10.9-3.6,13.6-4l2,2.9L282,64.8l-14.8,10l13.7-5
					l-3.3,14.3l-14.8,11.6c0,0,13.9-7.5,13.9-7.1c0,0.4-14.1,12.6-14.1,12.6l12.7-7.5l-2,8.2l-7.2,7.3l5.9-2.1l-4.9,20.4
					c0,0-22.7,15.7-22.7,16.1c0,0.4,5.7-2.2,7.3-3.1c0,0-2.2,3.3-2.2,2.9c0-0.4,8.8-2.9,8.8-2.9s-13.7,10.1-13.7,9.7
					c0-0.4,18.3-9.1,18.3-9.1s-2.6,8-4.6,12c-2,3.9-8.7,13.7-8.7,13.7l-13.8,5.7l10-0.4l-1.7,2.4l-8.2,2.7l6.7-0.9l-10.5,14.1
					c0,0-8.6-14.3-7.9-17.7c0,0,2.9-11.9,2-16.3c0,0-2,8.4-4.6,10.4l-19.2-36L224.1,44.7z"/>
			</g>
			<line class="st4" x1="254.8" y1="45.4" x2="253.5" y2="44.7"/>
			<g>
				<g>
					<path class="st1" d="M215.5,117c0,0,0,8.4,5.1,12.6C220.6,129.5,218.4,118.5,215.5,117z"/>
				</g>
				<g>
					<path class="st1" d="M218,105.7c0,0,1.8,10.8,6.8,15C224.8,120.7,220.8,107.2,218,105.7z"/>
				</g>
			</g>
			<g>
				<g>
					<path class="st1" d="M226.1,66.2c0,0,5.3,20.3,10.4,24.5C236.5,90.7,229,67.7,226.1,66.2z"/>
				</g>
			</g>
			<g>
				<g>
					<path class="st1" d="M242.5,36.8c0,0-0.7,5.1,3.1,8.6C245.6,45.4,244.4,38.6,242.5,36.8z"/>
				</g>
			</g>
			<g>
				<path class="st1" d="M253.5,44.1c-0.5,0.9-20.3,79.5-22.5,94.1c0,0,21.9-79.7,23.9-92.7L253.5,44.1z"/>
			</g>
			<path class="st1" d="M227.9,150.5c0,0,0.2-4.6,1.8-6.6C229.7,143.9,229.7,147.6,227.9,150.5z"/>
			<g>
				<path class="st1" d="M238.9,131.5c-5.9,1.4,22.5-14.6,27.4-14.4C266.3,117.2,243.8,130.4,238.9,131.5z"/>
			</g>
			<g>
				<path class="st1" d="M252.3,69c-5.9,1.4,22.5-14.6,27.4-14.4C279.7,54.7,257.2,67.9,252.3,69z"/>
			</g>
			<g>
				<path class="st1" d="M256,92.2c-3,0.7,11.3-7.3,13.7-7.2C269.7,85.1,258.5,91.7,256,92.2z"/>
			</g>
			<g>
				<path class="st1" d="M183.4,313.9c0.4,0,2.6,5.2,2.6,6.5c0,1.3-1.7,4.8-1.7,4.8l-1.3-4.4L183.4,313.9z"/>
			</g>
			<path class="st2" d="M117,289.3c0,0,7.3-3.9,13-4.6c4.7-0.6,9.8-6.1,9.8-6.1s-0.3,3,16.3,5.1c16.5,2.1,28.5,1.8,28.5,1.8
				s-20.2,6.7-35,7.4C135.8,293.4,119,289.9,117,289.3z"/>
		</g>
	</g>
</g>
</svg>
