<?xml version="1.0" encoding="utf-8"?>
<!-- Generator: Adobe Illustrator 21.1.0, SVG Export Plug-In . SVG Version: 6.00 Build 0)  -->
<!DOCTYPE svg PUBLIC "-//W3C//DTD SVG 1.1//EN" "http://www.w3.org/Graphics/SVG/1.1/DTD/svg11.dtd">
<svg version="1.1" id="Layer_1" xmlns="http://www.w3.org/2000/svg" xmlns:xlink="http://www.w3.org/1999/xlink" x="0px" y="0px"
	 width="300px" height="437.2px" viewBox="0 0 300 437.2" style="enable-background:new 0 0 300 437.2;" xml:space="preserve">
<style type="text/css">
	.st0{fill:#FFFFFF;}
</style>
<g>
	<path class="st0" d="M10.1,4.9c62.7,55.2,145.5,55.2,219.8,17c14.9,29.7,42.5,57.9,66.6,66.9c-10.8,10.1-14.5,14.9-15.6,29.7v174.2
		c0.5,19.1,4.2,26.6,19.1,43.5c-44.1,7.5-81.8,28.7-104.1,65.9c-36.1-31.3-78.5-41.7-113-37.6c-59.6,7.1-79.7,73.5-80,72.7
		c-5.6-11.8,0-64.9,36.3-93.1c34.8-27.1,89-31.3,145.1-3.6c15.9-13.8,34-24.4,48.8-28.7V97.3l-21.2-21.2
		C139.6,101.5,35.6,80.8,1.6,7C-3.2-3.4,3.8-0.6,10.1,4.9"/>
	<path class="st0" d="M92.9,141.9c0-19.6,11.7-43.9,29.7-58.4c5.3-4.3-14.5-12.9-23.9-4.8c-24.7,21.4-39.2,33.4-42.3,60.1
		c-20.3,1.5-42.1,16.4-49,30.2c-7.9,15.7,3.8,16,11.7,10.6c10.1-6.9,24.4-9.5,36.6-9l0,19.7c-20.3,1.5-40.3,16.4-47.2,30.2
		c-7.9,15.7,3.8,16,11.7,10.6c10.1-6.9,23.4-10.6,35.6-10.1v59.5c0,23.4-11.7,35-18.6,41.4c-6.9,6.4-3.1,13,6.9,9
		c23.9-9.6,48.9-34,48.9-71.7"/>
	<path class="st0" d="M116.3,280.5c0,23.4-11.7,35-18.6,41.4c-6.9,6.4-5.2,12,4.8,8c23.9-9.5,51-35.6,51-73.3V141.9
		c0-19.6,1.6-45,19.6-59.5c5.3-4.3-2.8-11.9-12.2-3.7c-24.7,21.4-44.6,37.2-44.5,67.5"/>
	<path class="st0" d="M149.2,165.3c22.8,10.1,65.9,10.1,90.8,0v-18.1c-25,10.1-68,10.1-90.8,0"/>
	<path class="st0" d="M149.2,220.5c22.8-10.1,65.9-10.1,90.8,0v18.1c-25-10.1-68-10.1-90.8,0"/>
	<path class="st0" d="M126.9,116.4c-12.2-4.3-22.8-6.1-33.5-5.6l-6.9,16.7c12.2-3.2,26-2.6,36.1,2.1"/>
	<path class="st0" d="M89.6,272c10.1,1.6,23.9,1.6,30.8-0.5l-2-15.4c-6.9,2.1-20.7,2.1-30.8,0.5"/>
</g>
</svg>
