<?xml version="1.0" encoding="utf-8"?>
<!-- Generator: Adobe Illustrator 21.1.0, SVG Export Plug-In . SVG Version: 6.00 Build 0)  -->
<!DOCTYPE svg PUBLIC "-//W3C//DTD SVG 1.1//EN" "http://www.w3.org/Graphics/SVG/1.1/DTD/svg11.dtd">
<svg version="1.1" id="Layer_1" xmlns="http://www.w3.org/2000/svg" xmlns:xlink="http://www.w3.org/1999/xlink" x="0px" y="0px"
	 width="300px" height="284.3px" viewBox="0 0 300 284.3" style="enable-background:new 0 0 300 284.3;" xml:space="preserve">
<style type="text/css">
	.st0{fill:#F48412;}
	.st1{fill:#EA5B18;}
	.st2{fill:#EC6E1C;}
	.st3{fill:#072854;}
	.st4{fill:#FFFFFF;}
	.st5{fill:#CAC9C9;}
</style>
<g>
	<path class="st0" d="M149.1,0l-35.5,108.4H0l92.8,67.3L57,284.2l92.1-67.4l92.4,67.4L206.1,176l93.9-67.6H183.8L149.1,0z"/>
	<path class="st1" d="M275.1,116.5h-93.6l2.4-8.1L149.1,0v157.4L57,284.2l92.1-67.4l92.4,67.4L206.1,176l93.9-67.6L275.1,116.5z"/>
	<path class="st2" d="M92.8,175.7l9.9-3.2l-77.2-55.2L0,108.4L92.8,175.7z"/>
	<path class="st3" d="M218.2,212.3l-4.7-14.6v13L218.2,212.3z"/>
	<path class="st3" d="M80.1,213.9l4.7-14.6v13L80.1,213.9z"/>
	<path class="st4" d="M64.2,217.7v25.8H138v-25.8l-20.4-7.3v-31.3h62.9v31.3l-20.4,7.3v25.8h73.8v-25.8l-20.4-7.3v-95.7l20.4-7.3
		V81.7h-73.8v25.8l20.4,7.3v31.3h-63v-31.3l20.3-7.3V81.7h-15.8h-58v25.8l20.4,7.3v44.4v9.9v41.3L64.2,217.7z"/>
	<g>
		<path class="st5" d="M234.1,107.5V81.6l-6.6,6.6v14.6l-20.4,7.3v105l6.6-4.6v-41.3v-53.6v-0.8L234.1,107.5z"/>
		<path class="st5" d="M234.1,217.7l-6.6,4.6v14.6h-60.7l-6.6,6.6h73.8V217.7z"/>
		<path class="st5" d="M117.7,179.1H132h48.7l6.6-6.6h-76.1V215l6.6-4.6v-11.6C117.7,198.9,117.7,179.1,117.7,179.1z"/>
		<path class="st5" d="M138.1,224.1v-6.4l-6.6,4.6V237H70.8l-6.5,6.6h5.4h15.8h25.9h26.7V224.1L138.1,224.1z"/>
		<path class="st5" d="M91.2,110.2l-20.4-7.3l-6.5,4.6l20.4,7.3C84.6,114.8,91.2,110.2,91.2,110.2z"/>
		<path class="st5" d="M166.9,102.9l-6.6,4.6l20.4,7.3l6.6-4.6C187.2,110.2,166.9,102.9,166.9,102.9z"/>
		<path class="st5" d="M138.1,107.5V81.7l-6.6,6.6v14.6l-20.4,7.3v42.5l6.6-6.6v-31.3C117.8,114.8,138.1,107.5,138.1,107.5z"/>
	</g>
</g>
</svg>
