<?xml version="1.0" encoding="utf-8"?>
<!-- Generator: Adobe Illustrator 21.1.0, SVG Export Plug-In . SVG Version: 6.00 Build 0)  -->
<!DOCTYPE svg PUBLIC "-//W3C//DTD SVG 1.1//EN" "http://www.w3.org/Graphics/SVG/1.1/DTD/svg11.dtd">
<svg version="1.1" id="Layer_1" xmlns="http://www.w3.org/2000/svg" xmlns:xlink="http://www.w3.org/1999/xlink" x="0px" y="0px"
	 width="300px" height="306.5px" viewBox="0 0 300 306.5" style="enable-background:new 0 0 300 306.5;" xml:space="preserve">
<style type="text/css">
	.st0{fill:#FFFFFF;}
</style>
<g>
	<path class="st0" d="M28.8,39.8c0-21.6-13.1-28.5-24.9-28.4L0,11.3V0.1h44.3h32.4l0,11.4c-11,0.9-22.2,8.3-22.2,28.3l0,67.3
		l5.3-3.3c11-17.3,40-63,46.1-76.2c7.4-16.2-3.9-16.2-14.8-16.2V0h68v11.3h-4.8c-7.4,0-16.6,0-28.8,16.7
		c-15.6,21.4-46.6,73.2-46.6,73.2c47.5,3.9,65.4,76.2,77.6,86c-7-51.6,27.4-115.9,78-113.5c5.7,0.3,12.6-0.5,28.8,4.4
		c16.1,4.9,17.6-3.9,19.8-13.8H295v85h-10.4c-0.9-14.7-7.5-63.4-50-64.8c-43.3-1.5-51.4,54-52,91.9c-2.2,140,85.9,135.6,102,90.4
		c2.4-6.6,1.3-8.4-1.3-9.8c-19.2-10.3,3.1-37.8,15.4-13.8c5.7,11-4.5,63.4-57.2,63.4c-81.9,0-105.9-126.8-136.4-168
		c-23.8-32.1-43.1-17.7-50.4-9.8l-0.3,22.1l0.2,39.3c0,21.6,13.1,28.5,24.9,28.4l3.9,0.1v11.2H41.6H0v-11.2l3.9-0.1
		c11.8,0.1,24.9-6.8,24.9-28.4V39.8"/>
</g>
</svg>
