<?xml version="1.0" encoding="utf-8"?>
<!-- Generator: Adobe Illustrator 21.1.0, SVG Export Plug-In . SVG Version: 6.00 Build 0)  -->
<!DOCTYPE svg PUBLIC "-//W3C//DTD SVG 1.1//EN" "http://www.w3.org/Graphics/SVG/1.1/DTD/svg11.dtd">
<svg version="1.1" id="Layer_1" xmlns="http://www.w3.org/2000/svg" xmlns:xlink="http://www.w3.org/1999/xlink" x="0px" y="0px"
	 width="300px" height="310.8px" viewBox="0 0 300 310.8" style="enable-background:new 0 0 300 310.8;" xml:space="preserve">
<style type="text/css">
	.st0{fill:#FFFFFF;}
	.st1{fill:#0078C8;}
	.st2{fill:#A7A9AC;}
	.st3{fill:#FF6600;}
	.st4{fill:#FFD100;}
	.st5{fill:#F26531;}
</style>
<title>Miami Marlins primary logo</title>
<g>
	<path class="st0" d="M206.8,67.1L150,171.3l-41.7-77.4c20.8-13.3,41.6-23.8,52.5-29l7.6-3.7l-19.2-9L249,0c0,0-8.5,2.4-36.4,11.8
		c-21.4,7.1-63.5,23.1-67.7,24.4c0,0-15.2,5.6-33.8-2.5c-19.3-8.4-39.9-18.4-39.9-18.4c3.5,19.1-7.4,35.9-17.5,48.8
		C43.9,76.6,9.5,112,9.9,144.4c0.5,37.7,34.4,44.8,34.4,44.8L0,300.2h71.8l30.2-77.3l48,87.9l48-87.9l30.2,77.3H300L206.8,67.1z
		 M53.2,167.1c-0.8-1.4-1.3-2.5-1.6-3.2c-0.4-1.3-0.7-2.8-0.9-4.5c-1.7-12.4,8.5-26.1,20.6-37.6C71.3,121.8,53.2,167.1,53.2,167.1z"
		/>
	<path class="st1" d="M101.1,89c13.9-8.9,31.1-18.6,53.5-29.8h0l-6.7-3.2l-3.2-1.5c-13.1,6.6-31.5,16.6-47.7,26.7L101.1,89
		 M70.7,188.4c-0.4-0.2-0.8-0.4-0.8-0.4c-8.8-3.5-19-10.5-24.2-19.2c-4.8-9.1-4.8-21,5.7-36.2c0-0.1,0.1-0.1,0.1-0.1
		c0.9-1.3,1.8-2.5,2.7-3.7c0.1-0.1,0.2-0.3,0.3-0.4c1-1.2,2-2.4,3-3.6c0.2-0.2,0.4-0.4,0.6-0.6c2.4-2.7,4.9-5.3,7.5-7.8
		c4.4-4.2,9.2-8.4,14.7-12.7c1.2-0.9,2.4-1.8,3.6-2.8L90,85.6c-2.2,1.4-4.3,2.8-6.3,4.2c-61.4,42.2-56.7,70.7-39.3,85.3
		c3,2.6,6.5,5,10,6.7c4.8,2.3,9.4,4.5,14.3,6c0.6,0.2,1.1,0.3,1.7,0.5L70.7,188.4L70.7,188.4"/>
	<path class="st2" d="M206.2,76.5L150,179.7l-47-87.2c22.1-14.4,44.8-25.8,56-31.2l-4.4-2.1C132.2,70.3,115,80.1,101.1,89L94,75.8
		l-10,25.1c-1.2,0.9-2.4,1.8-3.6,2.8c-5.5,4.3-10.3,8.5-14.7,12.7c-2.6,2.5-5.1,5.1-7.5,7.8c-0.2,0.2-0.4,0.4-0.6,0.6
		c-1,1.2-2,2.4-3,3.6c-0.1,0.1-0.2,0.3-0.3,0.4c-0.9,1.2-1.9,2.5-2.7,3.7c0,0-0.1,0.1-0.1,0.1C41,147.7,41,159.7,45.8,168.8
		C51,177.5,61.2,184.5,70,188c-0.1-0.1-0.2-0.1-0.3-0.2c-0.3-0.1-1-0.5-1-0.5c-0.2-0.1-0.3-0.2-0.5-0.3c-0.2-0.1-0.3-0.2-0.5-0.3
		c-4.8-2.6-8.5-5.8-9-6.5L94,90.1l0,0L150.1,194l56.1-103.8l78,199.2h-48.6l-36-92l-49.6,91.7l-49.6-91.7l-0.5,1.2v0l-35.5,90.9
		H15.9l39.9-101.8c0.6,0.1,1.3,0.2,1.9,0.3c-2.5-0.4-4.8-0.9-6.7-1.3c0,0-0.1,0-0.1,0c-44.1-22.8-32.6-79.2,90.7-136.4
		c46-21.8,77.3-37.9,77.3-37.9l-13.2,5.1c1.1-0.4,1.8-0.7,1.8-0.7s-25.4,11.6-29.7,13.5c-25.2,11.1-59,26-73,33.2
		c-2.8,1.4-7.3,3.9-12.4,6.8c-47.8,30.1-82.9,63.7-65.1,102.4C6.8,148.8,24.7,114,46.3,89.9c14.4-16.1,21.2-22.7,28.6-34.7
		c5.8-9.4,9.5-19.2,9.2-29.1c0.3,0.1,0.7,0.3,1,0.5l-8.7-4.4c1,3.2-1.1,22.5-13.6,39.5c-13.6,18.6-60.5,59.6-46.3,98.2
		c7.9,21.4,28.2,25.7,33.2,26.5c0,0,0,0,0,0L5.9,296.2h63.2l32.4-82.7l48.6,89l48.6-89l32.3,82.7h63.2L206.2,76.5 M54.1,175.6
		c-0.1-0.1-0.2-0.2-0.3-0.3c-3.7-4.6-5.5-8.7-6-10.1c-0.5-1.5-0.8-3.3-1.1-5.3c-2.3-17,13.5-35.4,34.4-51.8
		C81.1,108.1,54.1,175.6,54.1,175.6z"/>
	<path class="st2" d="M62.2,188.4c0.5,0,1,0.1,1.6,0.1C63.2,188.4,62.7,188.4,62.2,188.4 M70,188.4c0.1,0,0.2,0,0.2,0
		c-1.4,0.1-2.7,0.2-4.1,0.2C67.5,188.6,68.8,188.5,70,188.4"/>
	<path class="st3" d="M74.9,55.2c-7.3,11.9-14.2,18.6-28.6,34.7C24.7,114,6.8,148.8,27.3,172.5C9.4,133.8,44.5,100.1,92.4,70.1
		c5-2.9,9.6-5.4,12.4-6.8c14-7.2,47.8-22.1,73-33.2c4.4-1.9,29.7-13.5,29.7-13.5s-0.7,0.3-1.8,0.7c-8.9,3.4-50.5,19.2-59.6,22.8
		c-0.1,0.1,0,0,0,0c-4.8,1.2-11.7,2.4-16.6,2.2c-3.9-0.1-10.5-0.9-17.9-4.1c-2.2-1-15.4-6.4-26.4-11.5c-0.3-0.2-0.7-0.3-1-0.5
		C84.4,36,80.7,45.9,74.9,55.2"/>
	<path class="st4" d="M95.8,120.7l52.3,96l2,3.8l2.1-3.8l52-95.8v0l2-30.8L150.1,194L94,90.1l1.4,23.6L95.8,120.7L95.8,120.7z"/>
	<path class="st1" d="M247.2,279.2l-45.5-115.4l-51.6,95.4l-51.5-95.2L53.2,279H33.9l-0.1,0.3l-17.9,10.1h48.6l36-92l49.6,91.7
		l49.6-91.7l36,92h48.6l-17.9-10.2H247.2z"/>
	<path class="st3" d="M95.8,120.7l-0.4-7L94,90.1l-35.3,90.2c0.5,0.7,4.2,3.9,9,6.5c0.2,0.1,0.3,0.2,0.5,0.3
		c0.2,0.1,0.3,0.2,0.5,0.3L95.8,120.7"/>
	<path class="st5" d="M15.9,289.4l17.9-10.1l0.1-0.3h0l34.3-90.5c0.5,0,1.3-0.1,1.9-0.1c-1.3,0.1-2.6,0.2-3.9,0.2
		c-0.8,0-1.6,0-2.4-0.1c-0.5,0-1-0.1-1.6-0.1c-1.5-0.1-3-0.3-4.5-0.5c-0.6-0.1-1.3-0.2-1.9-0.3L15.9,289.4"/>
	<path class="st3" d="M266.3,279.2l17.9,10.2l-78-199.2l-2,30.8L266.3,279.2z"/>
	<path class="st0" d="M68.2,188.6L33.9,279h19.3l45.4-114.9l51.5,95.2l51.6-95.4l45.5,115.4h19.1l-62.1-158.3v0l-52,95.8l-2.1,3.8
		l-2-3.8l-52.3-96l0,0l-27.2,66.6c0,0,0.6,0.3,1,0.5c0.4,0.2,0.7,0.4,1.1,0.5h0c0,0-0.2,0-0.4,0c-0.1,0-0.2,0-0.2,0
		C69.5,188.5,68.7,188.5,68.2,188.6"/>
</g>
</svg>
