<?xml version="1.0" encoding="utf-8"?>
<!-- Generator: Adobe Illustrator 21.1.0, SVG Export Plug-In . SVG Version: 6.00 Build 0)  -->
<!DOCTYPE svg PUBLIC "-//W3C//DTD SVG 1.1//EN" "http://www.w3.org/Graphics/SVG/1.1/DTD/svg11.dtd">
<svg version="1.1" id="Layer_1" xmlns="http://www.w3.org/2000/svg" xmlns:xlink="http://www.w3.org/1999/xlink" x="0px" y="0px"
	 width="300px" height="324.9px" viewBox="0 0 300 324.9" style="enable-background:new 0 0 300 324.9;" xml:space="preserve">
<style type="text/css">
	.st0{fill:#B99764;}
	.st1{fill:#001850;}
	.st2{fill:#FFFFFF;}
</style>
<g>
	<path class="st0" d="M117.8,267.2c-5,1.4-9.9,2.8-14.8,4.4l16.1,8c4.6-1.3,9.3-2.5,14-3.6L117.8,267.2"/>
	<path class="st0" d="M156.2,259.2c-5.1,0.7-10.2,1.6-15.2,2.6l15,9.9c4.7-0.7,9.5-1.3,14.3-1.8L156.2,259.2"/>
	<path class="st0" d="M149.6,244.7l-9.3,14.1c5.1-1,10.2-1.9,15.4-2.6l10.3-13.7C160.5,243.1,155,243.8,149.6,244.7"/>
	<path class="st0" d="M80.6,279.8c-4.8,2-9.5,4-14.1,6.2l17,5.9c4.4-1.9,8.9-3.6,13.5-5.3L80.6,279.8"/>
	<path class="st0" d="M62.7,287.9c-4.6,2.2-9.2,4.6-13.7,7.1l17.3,4.9c4.3-2.1,8.7-4.2,13.1-6.1L62.7,287.9"/>
	<path class="st0" d="M99,272.9c-4.9,1.7-9.7,3.4-14.4,5.3l16.6,7c4.5-1.6,9.1-3.1,13.8-4.4L99,272.9"/>
	<path class="st0" d="M121,263.1c5-1.3,10.1-2.5,15.2-3.6l9.4-14.3c-5.5,0.9-10.9,2-16.2,3.2L121,263.1"/>
	<path class="st0" d="M136.8,262.6c-5.1,1-10.1,2.2-15,3.5l15.6,8.9c4.7-1,9.4-1.9,14.2-2.7L136.8,262.6"/>
	<path class="st0" d="M176.1,241.5c-2,0.2-4.1,0.4-6.1,0.5l-10.1,13.5c5.1-0.7,10.3-1.2,15.5-1.7l11.1-13.1
		C183,241,179.6,241.2,176.1,241.5"/>
	<path class="st0" d="M160.4,258.6l14.4,10.8c1.2-0.1,2.3-0.2,3.5-0.3c3.7-0.3,7.3-0.5,11-0.6L175.7,257
		C170.6,257.4,165.4,257.9,160.4,258.6"/>
	<path class="st0" d="M101.9,268.7c4.9-1.6,9.9-3.1,15-4.5l8.5-14.9c-5.4,1.3-10.7,2.7-16,4.2L101.9,268.7"/>
	<path class="st0" d="M281.9,264.1c-23.8-6.5-48.5-10.9-74-11.3l2.7,1.6l-2.6,1.5c25.2,0.4,50.1,2.9,73.9,8.5L281.9,264.1"/>
	<path class="st0" d="M47.4,292.3c4.6-2.5,9.2-4.9,13.9-7.2L67,269c-5.1,2.2-10,4.6-15,7.1L47.4,292.3"/>
	<path class="st0" d="M83.3,275.4c4.8-1.9,9.7-3.7,14.7-5.4l7.5-15.3c-5.3,1.6-10.5,3.3-15.7,5.2L83.3,275.4"/>
	<path class="st0" d="M65.1,283.3c4.7-2.2,9.5-4.3,14.3-6.3l6.6-15.8c-5.2,1.9-10.3,3.9-15.4,6.1L65.1,283.3"/>
	<path class="st0" d="M267.9,248.6c-25.8-4.8-52.7-5.9-80-4.7l2.6-3.2c26.6-1,52.4,2.2,77.5,7.6L267.9,248.6"/>
	<path class="st0" d="M263.2,272.5c-23.6-5.1-48-8.2-73.2-7.1l3.5,3c23.7-0.7,47.1,0.4,69.5,4.5L263.2,272.5"/>
	<polyline class="st0" points="186.6,245.3 178.1,255.2 188.4,263.9 204.5,254.3 186.6,245.3 	"/>
	<path class="st0" d="M85.9,251.7l24.2-88.6l6.5,69.7l7.7,7.5c6.5-1.7,21.2-4.4,29.1-5.4l42.2-74c-2.3,8.4-3.9,14-3.9,14
		c-5.7,20.1-1.4,41.4,11,54.3c1.4,1.5,6.5,6.4,7.5,7.5c10.2,10.7,25,14.4,41.5,10.5l4-1l-0.5-8l-7.5-7.5l-4.1-0.4
		c-1.1-0.1-2.1-0.4-3.1-0.8c-5-9.4-5.5-23.8-2.7-33.2l44.6-160.4c0.8-2.7,2.2-3.7,4.7-5.5c3.5-2.5,8.3-5.9,10.8-14.9l2.2-7.9
		L292.5,0L237,13.6l-79.7,139.8c-1.9-20-4-41.8-4-41.8c-1.7-18.3-8.6-33.8-20.1-45.4c-1.4-1.4-6.9-6.9-8.3-8.4
		c-1.7-1.7-3.5-3.3-5.4-4.8c-14.3-11.3-33.1-16.5-53-14.6c-18.1,1.7-34.9,10.2-47.4,24C6.8,76.1,0,93.5,0,111.5
		c0,17.7,5.7,33.2,15.9,43.4c1.3,1.3,6.3,6.3,7.5,7.5c7.2,7.1,16.1,11.2,24.4,11.2c2.7,0,5.3-0.4,7.8-1.2l-15.9,57.8
		c-0.8,2.6-1.9,9.8-5,11.8c-3.6,2.3-9.9,7.3-12.4,16.4l-3.9,14L26,280C41.9,270.6,64.2,258.9,85.9,251.7 M65.8,138.3
		c-1.3-1.3-7-13.1-8.3-14.4c-4.8-4.8-10.5-8.2-17.2-8.2c-2.5,0-4.9,0.4-7.2,1.1c-0.6-2-0.9-4.2-0.9-6.3c0-20,15.8-37.1,36.1-39
		c6.4-0.6,12.8,0.4,18.5,2.7l-16.3,4l-0.7,2.7c-2.7,9.9,3.9,12.6,6.5,13.6c0.3,0.1,1.8-0.6,0.6,0.8l-10.1,36.6
		C67,133,66.2,138.7,65.8,138.3z"/>
	<path class="st1" d="M78.5,244l29.2-107l9,95.8c7.5-2,19.7-4.3,29.2-5.5l60.9-106.8c-7,25.3-15,54.3-15,54.3
		c-5.7,20.1-1.4,41.4,11,54.3c10.2,10.7,25,14.4,41.5,10.5l4-1l-0.5-8l-4.1-0.4c-3.7-0.4-6.9-2.5-9.5-6.3c-6.2-9.2-6.9-25.1-4-35.2
		l44.6-160.4c0.8-2.7,2.2-3.7,4.7-5.5c3.5-2.5,8.3-5.9,10.8-14.9l2.2-7.9L237,13.6l-85.5,150c-2.1-21.8-5.7-59.6-5.7-59.6
		c-2-21.4-11.1-39-26.3-51c-14.3-11.3-33.1-16.5-53-14.6c-18.1,1.7-34.9,10.2-47.4,24C6.8,76.1,0,93.5,0,111.5
		c0,17.7,5.7,33.2,15.9,43.4c7.2,7.2,16,11.3,24.4,11.3c7.9,0,15-3.7,19.6-9.4l-20.2,73.5c-0.8,2.6-2.5,9.4-5.4,11.4
		c-3.5,2.3-9.6,7.8-12.1,16.9l-3.9,14C32.2,264.2,56.8,251.4,78.5,244 M70.6,78.1l-0.7,2.7c-2.7,9.9,3.9,12.6,6.5,13.6
		c0.2,0.1,0.5,0.2,0.7,0.3C77,95,65.3,137.3,65.3,137.3c-0.8-5.4-3.2-10.3-7.1-14.2c-4.8-4.8-11.1-7.4-17.9-7.4
		c-3.6,0-7.1,0.8-10.3,2.2c-3.4-4.2-5.4-9.5-5.4-15c0-20,15.8-37.1,36.1-39c10.9-1,21.5,2.4,29.6,9.4L70.6,78.1z"/>
	<path class="st2" d="M74.5,240.3L110,110.4l10.9,116.5c3.9-0.8,13.3-2.8,21.9-4l78.8-138.1l-25.3,91.4
		c-8.7,30.7,8.1,67.9,46.8,58.7c-17.8-1.9-22.5-30.5-17.5-47.6L270.2,27c2.8-9.5,11.8-6.8,15.5-20.3l-45.5,11.1l-92,161.4l-7.1-74.7
		c-3.9-41.9-36.7-64.8-74-61.3C32,46.5,4.8,77,4.8,111.5c0,33.3,20.5,49.9,35.6,49.9c11.3,0,20.4-9.2,20.4-20.4
		c0-11.3-9.2-20.4-20.4-20.4c-4.1,0-8,1.2-11.2,3.3c-5.7-5.2-9.2-12.6-9.2-20.9c0-22.5,17.5-41.6,40.4-43.8
		c15.6-1.5,30.2,5.3,39.2,16.8l-25.1,6.2c-3.1,11.1,9.7,4.9,7.1,14.4L43.3,235c-4.3,15.6-11.8,7.8-17.2,27.4
		C39.9,254.7,57.2,246.6,74.5,240.3"/>
	<path class="st0" d="M3.9,324.9c13-10.3,26.9-19.7,41.5-27.9l-1.6-2.6c-14.7,8.3-28.6,17.7-41.7,28.1L3.9,324.9"/>
</g>
</svg>
