<?xml version="1.0" encoding="utf-8"?>
<!-- Generator: Adobe Illustrator 21.1.0, SVG Export Plug-In . SVG Version: 6.00 Build 0)  -->
<!DOCTYPE svg PUBLIC "-//W3C//DTD SVG 1.1//EN" "http://www.w3.org/Graphics/SVG/1.1/DTD/svg11.dtd">
<svg version="1.1" id="Layer_1" xmlns="http://www.w3.org/2000/svg" xmlns:xlink="http://www.w3.org/1999/xlink" x="0px" y="0px"
	 width="300px" height="380.9px" viewBox="0 0 300 380.9" style="enable-background:new 0 0 300 380.9;" xml:space="preserve">
<style type="text/css">
	.st0{fill:#FFFFFF;}
	.st1{fill:#A12C56;}
</style>
<g>
	<path class="st0" d="M26,335.2c0,0,59.6,13.6,75.1,36.2l7,9.5l7.1-9.4c42.9-66.5,173.5-92.1,173.5-92.1
		C137.7,215.2,26,335.2,26,335.2L26,335.2z"/>
	<path class="st0" d="M193.7,14.5c-7.4,7.7-10.4,16.8-11.7,23.4c-4.9-12-18.4-36.5-45.5-36.5c-27.5,0-42.7,19.9-49.3,35.8V5.7H0
		v46.6l10.3-1.8c1.2-0.2,4.9-0.4,7.1,1.1c0.4,0.3,1.6,1.2,2.1,4.1v192.2c-0.3,4.9-2.6,13-5.5,16.1c-1.7,1.8-13.5,5.3-13.5,5.3
		L16.2,317l9.5-6.2c21.6-14.1,56.8-33.9,62.7-34.6c0,0,0.4-192.8,0.4-196.3c1.2-2.5,4.6-8.4,10.6-8.4c6.4,0,11.7,6.4,14,9.6v128.5
		l0,0.3c0,0.3,0,0.6,0,1c0,3-0.6,9.1-3.4,12.2c-0.8,0.9-2.2,1.9-5.3,1.9h-8.7v47.1l11.6-4c0.5-0.2,54.1-18.4,82.9-13.6l10.2,1.7
		v-42.6l-7.9-0.8c-1.2-0.1-11.3-1.4-11.3-8.8V76.7c1.3-2.9,5.6-10.3,15.8-10.4c9.4-0.1,14.2,9,15.6,12.2v168.4l7.8,0.8
		c26.7,2.7,59.4,8.2,65.8,12.5l13.6,9.2v-41.5l-5.5-2.2c-0.8-0.3-19.2-8.1-18.9-26.7V41.6l0-0.2C274.8,27.1,265.1,0.1,233.8,0
		C216.5-0.1,203,4.8,193.7,14.5L193.7,14.5z"/>
	<path class="st1" d="M46.5,329.1c0,0,47.7,4.7,62.8,32.6c32.6-38.4,62.8-66.3,150.7-83C198.9,266.4,127.9,261.6,46.5,329.1
		L46.5,329.1z"/>
	<path class="st1" d="M11,273.2l9.9,30.3c0,0,48.7-31.8,59.2-31.8V78.1c0,0,5.4-15.3,19.3-15.3c14,0,22.7,15.7,22.7,15.7v130.8
		c0,0,1.7,24.4-17.4,24.4v26.2c0,0,55.8-19.2,87.2-14v-24.4c0,0-19.2-1.7-19.2-17.4V75c0,0,5.5-17.2,24.4-17.4
		c17.8-0.2,24.4,19.2,24.4,19.2V239c0,0,57.7,5.8,69.8,14v-19.2c0,0-24.7-9.8-24.4-34.9v-157c0,0-1.7-33-33.1-33.1
		c-45.4-0.2-43.8,37.9-43.8,37.9h-14c0,0-10.5-36.6-39.5-36.6c-35.6,0-44,38.8-44,38.8h-14V14.4H8.7v27.5c0,0,17-3.4,19.6,12.9
		v193.6C28.3,248.3,26.7,269.8,11,273.2L11,273.2z"/>
</g>
</svg>
