<?xml version="1.0" encoding="utf-8"?>
<!-- Generator: Adobe Illustrator 21.1.0, SVG Export Plug-In . SVG Version: 6.00 Build 0)  -->
<!DOCTYPE svg PUBLIC "-//W3C//DTD SVG 1.1//EN" "http://www.w3.org/Graphics/SVG/1.1/DTD/svg11.dtd">
<svg version="1.1" id="Layer_1" xmlns="http://www.w3.org/2000/svg" xmlns:xlink="http://www.w3.org/1999/xlink" x="0px" y="0px"
	 width="300px" height="438.6px" viewBox="0 0 300 438.6" style="enable-background:new 0 0 300 438.6;" xml:space="preserve">
<style type="text/css">
	.st0{fill:#FF5910;}
</style>
<g>
	<path class="st0" d="M219.1,173.7v41.5l-19.4-23.5C205.6,184.8,212.1,178.7,219.1,173.7 M150,216.4c-19.3-50.9-49.8-73.6-70.5-84.1
		v-30.6l78.4,96.4C155.1,203.8,152.5,209.9,150,216.4z M258.5,272.8V163.6c17,7,21.4,32.6,8,45c0,0,33.5-3.5,33.5-38.1
		c0-27.3-22.2-43.1-41.5-46.8V47.1c0.1-8.8,22.7-19.6,32.4-1.6c16.5-21.6-7.3-64.2-52.1-36.4c-44.8-27.8-68.5,14.9-52,36.4
		c9.7-18,32.2-7.2,32.4,1.6V133c-11.8,6.1-26.5,16.2-40.5,33l-99-120c1.9-8.6,23-17.8,32.2-0.5c16.5-21.6-7.3-64.2-52-36.4
		C15-18.7-8.7,24,7.8,45.5c9.7-18,32.2-7.2,32.4,1.6v76.8C21.2,128.1,0,143.8,0,170.5c0,34.6,33.5,38.1,33.5,38.1
		c-13-12-9.3-36.6,6.7-44.4v108.6c-0.1,8.8-22.7,19.6-32.4,1.6C-8.7,296,15,338.6,59.9,310.8c44.8,27.8,68.6-14.9,52-36.4
		c-9.7,18-32.2,7.2-32.4-1.6V172.7c28.4,19.4,48.3,57.8,50.7,80.1v126.5c0,20.5-22.7,35.2-32.4,17.2c-16.5,21.6,7.2,60,52,32.3
		c44.8,27.8,68.5-10.7,52-32.3c-9.7,18-32.4,1.5-32.4-17.2V254.7c0.5-8.4,3.8-19.3,9.3-30.8l40.2,49.4c-0.9,8.7-22.8,18.9-32.3,1.2
		c-16.5,21.5,7.3,64.2,52,36.4c44.8,27.8,68.6-14.9,52.1-36.4C281.2,292.4,258.7,281.6,258.5,272.8z"/>
</g>
</svg>
