<?xml version="1.0" encoding="utf-8"?>
<!-- Generator: Adobe Illustrator 21.1.0, SVG Export Plug-In . SVG Version: 6.00 Build 0)  -->
<!DOCTYPE svg PUBLIC "-//W3C//DTD SVG 1.1//EN" "http://www.w3.org/Graphics/SVG/1.1/DTD/svg11.dtd">
<svg version="1.1" id="Layer_1" xmlns="http://www.w3.org/2000/svg" xmlns:xlink="http://www.w3.org/1999/xlink" x="0px" y="0px"
	 width="301.1px" height="346.5px" viewBox="0 0 301.1 346.5" style="enable-background:new 0 0 301.1 346.5;" xml:space="preserve"
	>
<style type="text/css">
	.st0{fill:#FFFFFF;stroke:#FFFFFF;}
</style>
<g>
	<path class="st0" d="M0.4,92.9c4.8,0.2,30-27.1,33.7-29.9c27,37,27.8,49.8,90,105.9C120.4,143.3,76,67.4,52.9,43.8
		C64.2,32.4,87.6,9.6,94.2,1.9c6.9,19.9,31.5,97.4,57,144.3l0,0c19.5-37,53.6-130.8,53.2-145c11.1,10.3,28.2,32.7,40.5,43.4
		c-24,18.5-65.3,103.1-80.3,142.9c-4.3,11.5-0.7,18.5-0.7,18.5c13.4,10.3,58.5,52.6,66.8,60.4c-16.5-106.6,18-177.7,42-203.3
		c3.8,4.1,15.5,13.8,27.8,26.3c-12.7,17.1-38,61.6-39,108.1c-1.5,66.8,9.7,96,27.7,122.3c-8.1,9.9-14.1,9.2-25.5,22.7
		c-18.1-16.6-86.9-78.7-99-89.6l0,0l2.3,50.5c0.6,2.9,1.2,29.4,12.7,41.9c-25.3,0-30.2,0-55.5,0.7c8.5-11.4,11.1-36.3,11.3-44.1
		l-0.8-80.3c-10-9.6-59.4-54.4-63.7-59l0,0c5.2,27,6,110.9-31.5,174.2c-3.1-4.4-34.4-41.7-33.8-42.7c11.5-18.1,31.9-58.7,32.2-96.7
		C38.6,128.1,11.6,109.8,0.4,92.9"/>
</g>
</svg>
