<?xml version="1.0" encoding="utf-8"?>
<!-- Generator: Adobe Illustrator 21.1.0, SVG Export Plug-In . SVG Version: 6.00 Build 0)  -->
<!DOCTYPE svg PUBLIC "-//W3C//DTD SVG 1.1//EN" "http://www.w3.org/Graphics/SVG/1.1/DTD/svg11.dtd">
<svg version="1.1" id="Layer_1" xmlns="http://www.w3.org/2000/svg" xmlns:xlink="http://www.w3.org/1999/xlink" x="0px" y="0px"
	 width="300px" height="406.4px" viewBox="0 0 300 406.4" style="enable-background:new 0 0 300 406.4;" xml:space="preserve">
<style type="text/css">
	.st0{fill:#FFFFFF;}
	.st1{fill:#E81828;}
</style>
<g transform="matrix(19.151 0 0 -19.151 79.462 100.95)">
	<path class="st0" d="M1.9-15.9c-0.2,0-0.3,0-0.5,0c-0.8,0.1-1.3,0.6-1.5,1.2c-0.1,0.2-0.1,0.4-0.1,0.7c0,1,0.6,2.1,1.6,3.1V0.8
		c-0.6-0.4-1-1.1-1-1.4c0,0,0,0,0,0l0,0l0,0c0-0.1,0.3-0.1,0.4-0.1l0.5,0L1.2-1.2c0-0.1-0.3-1.9-1.6-2.6c-0.3-0.2-0.6-0.2-1-0.2
		c-0.4,0-0.8,0.1-1.3,0.3c-0.7,0.3-1.2,1-1.4,1.9c-0.3,1.5,0.5,3.4,2,4.9c1.5,1.5,3.9,2.3,6.5,2.3c1.4,0,2.8-0.3,3.9-0.8
		c0.4-0.2,0.8-0.4,1.2-0.7c0.9-0.7,1.5-1.6,1.8-2.6c0.1-0.5,0.2-1.1,0.2-1.7c-0.1-0.8-0.2-1.5-0.6-2.2C9.9-4.9,7.6-5.9,5.5-6.6v-6
		c0-0.9-0.4-1.8-1.2-2.5C3.6-15.6,2.8-15.9,1.9-15.9C1.9-15.9,1.9-15.9,1.9-15.9z M5.5-3.1l0.1,0c1.6,0.3,2.6,1.4,2.4,2.7
		C7.9,1,7.2,1.6,5.9,1.6c-0.1,0-0.2,0-0.3,0l-0.1,0V-3.1z"/>
	<path class="st1" d="M5.7-3.3L5.2-3.4v5.3l0.4,0C7.3,2,8.2,1.3,8.4-0.3C8.5-1.8,7.5-3,5.7-3.3 M9.3,3.5C9,3.8,8.7,4,8.2,4.2
		C5.1,5.6,0.5,5-1.8,2.7C-3.3,1.3-4-0.4-3.8-1.9c0.1-0.8,0.6-1.4,1.2-1.7c0.8-0.3,1.4-0.4,2-0.1C0.5-3,0.8-1.3,0.8-1.2l0,0.1H0.8
		c-0.3,0-0.6,0.1-0.7,0.4c0,0,0,0.1,0,0.1c0,0.6,0.7,1.5,1.7,1.9V-11c-1-1-1.6-2.1-1.6-3c0-0.2,0-0.4,0.1-0.6c0.2-0.5,0.6-0.9,1.3-1
		c0.9-0.1,1.8,0.1,2.6,0.8c0.7,0.6,1.1,1.4,1.1,2.2v6.2c2.3,0.8,4.5,1.8,5.5,3.8c0.3,0.6,0.5,1.3,0.5,2.1c0,0.6,0,1.1-0.2,1.6
		C10.8,2.1,10.2,2.9,9.3,3.5"/>
</g>
</svg>
