<?xml version="1.0" encoding="utf-8"?>
<!-- Generator: Adobe Illustrator 21.1.0, SVG Export Plug-In . SVG Version: 6.00 Build 0)  -->
<!DOCTYPE svg PUBLIC "-//W3C//DTD SVG 1.0//EN" "http://www.w3.org/TR/2001/REC-SVG-20010904/DTD/svg10.dtd">
<svg version="1.0" id="Layer_1" xmlns="http://www.w3.org/2000/svg" xmlns:xlink="http://www.w3.org/1999/xlink" x="0px" y="0px"
	 width="300px" height="407.822px" viewBox="0 0 300 407.822" style="enable-background:new 0 0 300 407.822;" xml:space="preserve"
	>
<path style="fill:#E81828;" d="M188.988,163.513l-9.912,1.982V60.43h7.929c33.7-1.982,51.541,11.894,55.506,43.612
	C244.494,133.778,224.67,157.566,188.988,163.513 M260.353,28.712c-5.947-5.947-11.894-9.912-21.806-13.877
	C177.094-12.917,85.905-1.023,40.311,44.571C10.575,72.324-3.301,106.025,0.664,135.76c1.982,15.859,11.894,27.753,23.788,33.7
	c15.859,5.947,27.753,7.929,39.647,1.982c21.806-13.877,27.753-47.577,27.753-49.559v-1.982l0,0c-5.947,0-11.894-1.982-13.877-7.929
	v-1.982c0-11.894,13.877-29.735,33.7-37.665v243.83c-19.824,19.824-31.718,41.63-31.718,59.471c0,3.965,0,7.929,1.982,11.894
	c3.965,9.912,11.894,17.841,25.771,19.824c17.841,1.982,35.682-1.982,51.541-15.859c13.877-11.894,21.806-27.753,21.806-43.612
	V224.966c45.594-15.859,89.206-35.682,109.03-75.33c5.947-11.894,9.912-25.771,9.912-41.63c0-11.894,0-21.806-3.965-31.718
	C290.088,56.466,278.194,40.607,260.353,28.712"/>
</svg>
