<?xml version="1.0" encoding="utf-8"?>
<!-- Generator: Adobe Illustrator 21.1.0, SVG Export Plug-In . SVG Version: 6.00 Build 0)  -->
<!DOCTYPE svg PUBLIC "-//W3C//DTD SVG 1.1//EN" "http://www.w3.org/Graphics/SVG/1.1/DTD/svg11.dtd">
<svg version="1.1"
	 id="svg2" xmlns:cc="http://creativecommons.org/ns#" xmlns:dc="http://purl.org/dc/elements/1.1/" xmlns:rdf="http://www.w3.org/1999/02/22-rdf-syntax-ns#" xmlns:svg="http://www.w3.org/2000/svg"
	 xmlns="http://www.w3.org/2000/svg" xmlns:xlink="http://www.w3.org/1999/xlink" x="0px" y="0px" width="300px" height="421.8px"
	 viewBox="0 0 300 421.8" style="enable-background:new 0 0 300 421.8;" xml:space="preserve">
<style type="text/css">
	.st0{fill:#FDB827;}
</style>
<g>
	<path id="path14" class="st0" d="M281.2,140c0-21.5,3-44.8,16.5-68c-35.6-8.8-63-42.3-71.9-72c-14.8,14.4-29.2,17.8-52.1,17.8
		L20.8,17.6L0,69.6C12.6,75,20.8,87,20.8,101.3v238.4c0,14.3-8.2,26.2-20.8,31.7l20.8,50.5h58.4l20.8-50.5
		c-12.6-5.2-20.8-17.6-20.8-31.7v-94l94.5,0.1c22.9,0,37.3,5.6,52.1,20c9.6-29.6,38.6-51.8,74.2-60.6
		C286.5,182,281.2,161.5,281.2,140 M200.5,194h-121V67.8h121c19.2,0,31.2,12.1,31.2,28.1V168C231.7,184.8,222.2,194,200.5,194"/>
</g>
</svg>
