<?xml version="1.0" encoding="utf-8"?>
<!-- Generator: Adobe Illustrator 21.1.0, SVG Export Plug-In . SVG Version: 6.00 Build 0)  -->
<!DOCTYPE svg PUBLIC "-//W3C//DTD SVG 1.1//EN" "http://www.w3.org/Graphics/SVG/1.1/DTD/svg11.dtd">
<svg version="1.1" id="Layer_1" xmlns="http://www.w3.org/2000/svg" xmlns:xlink="http://www.w3.org/1999/xlink" x="0px" y="0px"
	 width="300px" height="418.1px" viewBox="0 0 300 418.1" style="enable-background:new 0 0 300 418.1;" xml:space="preserve">
<style type="text/css">
	.st0{fill:#FD5A1E;}
</style>
<g>
	<path class="st0" d="M3.2,35.5c16.4-7.9,34-24.4,40.2-35.5C59.2,7.5,205.1,6.3,222,0c10.2,14.8,21.1,23.1,36.5,28.1
		c-1.4,14.3-0.9,19.3,3.7,30.8H222l-16.9-18.8H62L43.3,56.5v75.9l18.6,18.1l23.7,0.9c0-28.2,0.3-33.5-20.4-39.1
		c6.9-13.8,8.3-15.4,10.1-32.7c17.7,5.9,201,2.7,209-1.9c-1.3,18,8.8,52,15.7,64.7h-40.2c-2-13.9-10.8-24.7-24.8-27.3H125.8v36.1
		c0,0,84.9,2.3,96.2-1.5c5.6,14.5,25.6,35.7,40.2,41.6c-4.9,29.6-4,80.2,0,111c-15.9,7.8-32,23.9-40.2,40.1
		c-20-5.5-96.2-2.7-96.2-2.7v22.7c3.9,15.5,12.2,19.3,26.9,20.5c0,0-11.7,22.1-12.2,35H71.9c-0.3-12.6-12.3-35-12.3-35
		c13.2-0.6,24-8.4,26-20.5V340c0,0-24.1-1-42.3,2.7c-5.5-12.3-25.6-34.5-40.2-40.1c3.4-8.9,1.8-64.4-3.1-76.1h43.3v56.4l16.9,19.7
		h25.4V186.1c0,0-22.3-1.1-42.3,0.4c-5.7-11.1-22.9-29.2-40.2-37.7C8.5,128.4,9,54.8,3.2,35.5 M125.8,186.1v42.2
		c0,0,53.5,3.4,69.9-6.6c-2.9,9.4-2,39.8,0,44.8c-20.7-10.6-69.9-6.5-69.9-6.5v42.5h79.3l16.9-19.7v-72.6l-19.6-22.7
		C190.7,186.3,149.2,186.1,125.8,186.1L125.8,186.1z"/>
</g>
</svg>
