<?xml version="1.0" encoding="utf-8"?>
<!-- Generator: Adobe Illustrator 21.1.0, SVG Export Plug-In . SVG Version: 6.00 Build 0)  -->
<!DOCTYPE svg PUBLIC "-//W3C//DTD SVG 1.1//EN" "http://www.w3.org/Graphics/SVG/1.1/DTD/svg11.dtd">
<svg version="1.1" id="Layer_1" xmlns="http://www.w3.org/2000/svg" xmlns:xlink="http://www.w3.org/1999/xlink" x="0px" y="0px"
	 width="300px" height="277.7px" viewBox="0 0 300 277.7" style="enable-background:new 0 0 300 277.7;" xml:space="preserve">
<style type="text/css">
	.st0{filter:url(#Adobe_OpacityMaskFilter);}
	.st1{fill:#FFFFFF;}
	.st2{mask:url(#mask-2);fill:#79BDE8;}
	.st3{fill:#002D62;}
	.st4{filter:url(#Adobe_OpacityMaskFilter_1_);}
	.st5{mask:url(#mask-4);fill:#002D62;}
</style>
<title>TB</title>
<desc>Created with Sketch.</desc>
<g id="MLB">
	<g id="TB">
		<g id="Page-1" transform="translate(0.000000, 16.000000)">
			<g id="Group-3" transform="translate(0.000000, 5.416500)">
				<g id="Clip-2">
				</g>
				<defs>
					<filter id="Adobe_OpacityMaskFilter" filterUnits="userSpaceOnUse" x="0" y="-21.4" width="300" height="277.7">
						<feColorMatrix  type="matrix" values="1 0 0 0 0  0 1 0 0 0  0 0 1 0 0  0 0 0 1 0"/>
					</filter>
				</defs>
				<mask maskUnits="userSpaceOnUse" x="0" y="-21.4" width="300" height="277.7" id="mask-2">
					<g class="st0">
						<polygon id="path-1" class="st1" points="0,256.3 300,256.3 300,-21.4 0,-21.4 						"/>
					</g>
				</mask>
				<path id="Fill-1" class="st2" d="M286.4,161.4c-9.9-9.7-23-13.6-32.7-15.3c13.6-6.7,33.7-21.2,33.7-48.6
					c0-32.3-21.8-47.3-68.5-47.3h-2.6c43.1,0.1,65,13,65,44.3c0,39.2-43.5,50.4-43.5,50.4v0c0,0,56.1-1.3,56.1,48.7
					c0,38.1-24.4,56.6-66.2,56.6h-95.7h-4.7v-8.7c0,0,0,0,0,0l0,2.6v12.2h103.4c44.7,0,69.3-21.2,69.3-59.6
					C300,182.1,295.4,170.2,286.4,161.4L286.4,161.4z M159.1,64.6c0,0-29.9-4.9-31.8-5.2v-9.2h0V65c0,0,27.4,4.5,31.8,5.2
					L159.1,64.6z M147.7,167.2c0,0-26.2-4.8-30.5-5.5V1.4h42.4c13.9,5.7,20,30.6,21.5,38.2l0.5,2.6l13-0.7l-7.4-62.9h-5.5l6.7,56.9
					l-0.7,0l-1.3,0.1l-5.1,0.3c-1.1-5.1-7.2-34-23.6-40.5l-0.2-0.1l0,0h-46.2v165.8c0,0,28.6,5.2,30.5,5.6v9.1H46.5l0,6.1h101.1
					V167.2z M205.9,146l0,11.6l2.8,0.2c5.2,0.4,50,5,50.9,39.3c0-0.7,0-1.4,0-2c0-38.4-49.5-43.1-53.8-43.4L205.9,146L205.9,146z
					 M193.3,61.1v177.4h0.1c1.4,0,9.1,0,18.7,0c-4,0-10,0-12.7,0V67c2.7-0.1,7.8-0.2,7.8-0.2c0.3,0,17.7-0.8,29.3,10.2
					c6.9,6.5,10.4,15.9,10.6,28c0-0.6,0-1.3,0-2c0-44.8-43-42.3-43-42.3c-2.3,0-7.2,0-9.8,0.3L193.3,61.1z M76.8-4.7H31l-0.2,0.1
					C14.5,1.9,9,24.3,7.9,29.6c0,0,0,0.1,0,0.1l-7.1-0.4l-0.7,6L13,36l0.5-2.6c0.9-4.3,6-25.9,20.9-32h42.3V-4.7z"/>
			</g>
			<path id="Fill-4" class="st3" d="M247.1,108.4c0,0.7,0,1.3,0,2c-1.4,36.6-41.2,40.7-41.2,40.7v0.3v5.7c4.3,0.3,53.8,5,53.8,43.4
				c0,0.7,0,1.4,0,2c-0.8,20.8-14.3,41.4-46.6,41.4h-1c-9.6,0-17.3,0-18.7,0h-0.1V66.5l1.1-0.1c2.6-0.3,7.5-0.3,9.8-0.3
				C204.1,66.1,247.1,63.6,247.1,108.4L247.1,108.4z M127.3,255.6h4.7h95.7c41.8,0,66.2-18.5,66.2-56.6c0-50-56.1-48.7-56.1-48.7v0
				c0,0,43.5-11.3,43.5-50.4c0-31.3-21.9-44.2-65-44.3c-0.2,0-0.3,0-0.5,0h-83.8h-4.7v0v4.6v4.5c1.9,0.3,31.8,5.2,31.8,5.2v170.9
				c0,0,0,0,0,0c-0.8,0.1-29.9,5.2-31.8,5.5v0.5v4V255.6z"/>
			<g id="Group-8" transform="translate(0.000000, 5.416500)">
				<g id="Clip-7">
				</g>
				<defs>
					<filter id="Adobe_OpacityMaskFilter_1_" filterUnits="userSpaceOnUse" x="0.7" y="-21.4" width="187.8" height="197.2">
						<feColorMatrix  type="matrix" values="1 0 0 0 0  0 1 0 0 0  0 0 1 0 0  0 0 0 1 0"/>
					</filter>
				</defs>
				<mask maskUnits="userSpaceOnUse" x="0.7" y="-21.4" width="187.8" height="197.2" id="mask-4">
					<g class="st4">
						<polygon id="path-3" class="st1" points="188.5,-21.4 0.7,-21.4 0.7,175.8 188.5,175.8 						"/>
					</g>
				</mask>
				<path id="Fill-6" class="st5" d="M46.5,166.7v9.1h6.1h88.9h0.3v-9.1c-1.9-0.3-30.5-5.6-30.5-5.6V-4.7v0h46.2l0,0l0.2,0.1
					c16.4,6.5,22.5,35.4,23.6,40.5l5.1-0.3l1.3-0.1l0.7,0l-6.7-56.9l0,0l-175,0.1L0.7,29.4l7.1,0.4c0,0,0-0.1,0-0.1
					c1.1-5.4,6.7-27.8,23-34.2L31-4.7h45.8l0,0v6.1v159.7C76.8,161.1,48.7,166.3,46.5,166.7"/>
			</g>
		</g>
	</g>
</g>
</svg>
