<?xml version="1.0" encoding="utf-8"?>
<!-- Generator: Adobe Illustrator 21.1.0, SVG Export Plug-In . SVG Version: 6.00 Build 0)  -->
<!DOCTYPE svg PUBLIC "-//W3C//DTD SVG 1.1//EN" "http://www.w3.org/Graphics/SVG/1.1/DTD/svg11.dtd">
<svg version="1.1" id="Layer_1" xmlns="http://www.w3.org/2000/svg" xmlns:xlink="http://www.w3.org/1999/xlink" x="0px" y="0px"
	 width="300px" height="342.9px" viewBox="0 0 300 342.9" style="enable-background:new 0 0 300 342.9;" xml:space="preserve">
<style type="text/css">
	.st0{fill:#C0111F;}
	.st1{fill:#FFFFFF;}
</style>
<g>
	<g>
		<path class="st0" d="M103.5,50.3v-6.4h-0.6c-45.8,0-64.5,15.9-64.5,55.3l-0.1,9H0l20.6,19.4h36.1l0-7.2
			C56.8,80,60.7,54.6,103.5,50.3z"/>
		<path class="st0" d="M206.4,145.1l-10.1,2.9c-0.2,0.1-22.2,6.4-22.2,21.4v88.1c0,6,2.5,10,14.4,10h6.2c0-0.6,0-1.1,0-1.7v-88.1
			c0-18,25-24.9,25-24.9S212.9,150,206.4,145.1L206.4,145.1z"/>
		<path class="st0" d="M174,44.2v74c0,13.9,22.4,22.8,22.6,22.9l9.2,3.6c-5.7-4.4-11.1-10.5-11.1-18.2V51.5l3.5,0.2
			c13.7,1.2,23.6,4.8,30.7,10.1C217.5,50.5,199.1,44.2,174,44.2L174,44.2z"/>
		<polygon class="st0" points="280.3,0 280.3,108.2 249.6,108.2 271.4,128.8 300,128.8 300,18.4 		"/>
		<polygon class="st0" points="211,321.4 73.8,321.4 96.5,342.9 228.5,342.9 228.5,291.1 211,274.8 		"/>
	</g>
	<path class="st1" d="M31.1,98.8c0-43,22.2-62.2,71.8-62.2h7.9v81.6c0,14-10.1,21.9-17.4,26.1c7.3,3.7,17.4,11.1,17.4,25.1v87.3
		c0,11.3-7.8,18.1-20.9,18.1H73.8v39.3h129.9v-39.3h-15.2c-14.4,0-21.8-5.8-21.8-17.3v-88.1c0-13.8,11.8-21.4,19.9-25.3
		c-8.1-4.5-19.9-13.1-19.9-26V36.4l3.9,0.2c0,0,3.5,0.2,3.3,0.2c48.2,0,75.8,21.8,75.8,59.7c0,0,0,2.2,0,4.3H273V0H0v100.9h31.3"/>
</g>
</svg>
