<?xml version="1.0" encoding="utf-8"?>
<!-- Generator: Adobe Illustrator 21.1.0, SVG Export Plug-In . SVG Version: 6.00 Build 0)  -->
<!DOCTYPE svg PUBLIC "-//W3C//DTD SVG 1.1//EN" "http://www.w3.org/Graphics/SVG/1.1/DTD/svg11.dtd">
<svg version="1.1"
	 id="TOR" xmlns:cc="http://creativecommons.org/ns#" xmlns:dc="http://purl.org/dc/elements/1.1/" xmlns:rdf="http://www.w3.org/1999/02/22-rdf-syntax-ns#" xmlns:svg="http://www.w3.org/2000/svg"
	 xmlns="http://www.w3.org/2000/svg" xmlns:xlink="http://www.w3.org/1999/xlink" x="0px" y="0px" width="300px" height="259.4px"
	 viewBox="0 0 300 259.4" style="enable-background:new 0 0 300 259.4;" xml:space="preserve">
<style type="text/css">
	.st0{fill:#FFFFFF;}
	.st1{fill:#134A8E;}
	.st2{fill:#1D2D5C;}
	.st3{fill:#E8291C;}
</style>
<g>
	<path class="st0" d="M300,111.3l-10.7-3.3l0,0l1.6-19.6L273,91.3l-4.2-10.4l-4.9,4.7c-0.3,0.3-4.7,4.6-8,7.8
		c0.7-6.8,1.9-18.8,1.9-18.9l0.7-7.5l-7.4,3c0.2-0.9,0.5-1.9,0.7-2.8c3.7-18,9.1-22.5,20.2-32.1c-6.3-2.5-18.2,0.8-18.2,0.8
		c1.6-2.1,3.3-4.2,5.3-6.5l12.2-13.9L253,18.2c-3.1,0.4-6.1,1.1-8.9,1.9c0-0.5,0-0.8,0.1-1L244.8,0l-12.6,14.3
		c-19.5,22.2-67.1,28.4-98.6,32.6c-13.2,1.7-23.6,3.1-30,5.2c-15.2,4.9-23,13.1-28,20.2l-3.1,1.3c-5.8,2.5-9,5.6-12.4,10.3
		C27.7,89.6,8.8,95.6,2.3,102.4l-0.4,0.4l-0.3,0.5c-1.3,1.9-1.5,3.7-1.4,5c-0.5,1.7-0.7,5.1,3.2,8.3l0.2,0.2l0.2,0.2
		c7.8,5.5,30.3,14,56.6,18.9c11.4,2.1,16.1,5.1,24.7,11.1c23.5,16.5,48.2,61.5,60.5,97.3l5.2,15.1l7.4-14.2
		c31.5-60.6,67.9-89,68.3-89.3l3.2-2.4l3.5,7.1l4.8-9.5l0.2-0.3l2,0.2l33.2,2.8l-9.4-11.4L300,111.3z"/>
	<path id="path12595" class="st1" d="M80,78.1c-0.5,7.7,5.2,15,11.7,15c0,0-1.6-4.5,0.5-8.7c0.9-1.6,2.3-3.3,4.5-4.5
		c16.2-11,51.1,0.2,51.1,0.2c-8.2-0.7-15-0.7-20.6,0.2c9.6,3,19.9,7,26.9,8.7c8.7,2.1,14.3,3.3,23,3.7l-0.5-3.7l4.7,0.7l12.6,2.1
		l1.9-4.7l2.1-5.2l4,4c0,0,6.3,6.1,9.6,9.4c-0.5-6.1-2.1-21.1-2.1-21.3l-0.5-6.1l5.6,2.3l6.3,2.6l9.4-15.2l3.3-5.2l3.3,5.2l7.5,12.4
		c2.6-10.8,4.5-22,10.1-27.4c-5.6,0.2-9.4,1.9-15.5,6.1c3.5-9.1,8.4-16.2,15.2-23.9c-6.6,0.9-12.9,2.8-19.2,6.6
		c2.3-5.6,2.6-12.6,2.6-12.6c-29.3,33.3-110.5,32.8-131.6,39.8C91.9,63.1,84.9,70.6,80,78.1L80,78.1z"/>
	<path id="path12597" class="st2" d="M222.6,150.5l-18.5,1.4l-8.9,0.7l5.6-6.8l3-3.7l-11.9-10.3c-6.6,9.8-12.9,20.6-15.9,29h13.1
		c-6.8,8.4-19.7,22.3-28.6,37.5c-8.7-21.5-29.3-49.2-66.3-64.2c-10.8-4.5-20.8-10.3-19.4-18.7c-18.5-2.6-38.9-4.7-62.1-5.6
		c-1.6,0-3.3,0-4.5,0c-1.4,0-1.6,0.5-0.2,1.6c6.3,4.5,27.6,12.9,53.9,17.8c12.6,2.3,18.3,5.9,27.4,12.2
		c19.7,13.8,46.6,52.7,63,100.7C183.7,181.6,219.8,152.6,222.6,150.5L222.6,150.5z"/>
	<path id="path12599" class="st2" d="M71.8,107.8c2.6,0,5.4,0,7.7,0.2c1.6-2.1,4.7-4,10.3-4h0.5h1.2c10.5,0.2,12.4,11,23.4,11
		s13.1-10.5,23.2-10.8c0.5,0,0.7,0,0.9,0h38.4l-0.5-6.3h-38.2c-10.8,0-12.6-11-23.7-11c-11,0-13.1,10.8-23.4,10.8l0,0
		c-11-0.7-15.2-10.1-16.2-17.8c-4.9,2.1-7.3,4.5-11,10.3c-39.6,6.6-53.2,12.9-56.9,16.9c-0.5,0.7-0.2,0.9,0.2,1.2
		C20.9,107.6,39.5,106.9,71.8,107.8z M110.9,91.7c-0.7,3-0.2,5.9-0.2,7.3h-3.7C106.9,96.1,108.5,93.3,110.9,91.7z"/>
	<path id="path12601" class="st0" d="M110.9,91.7c-2.3,1.6-4,4.5-4,7.3h3.7C110.4,97.5,109.9,95,110.9,91.7z"/>
	<path id="path12659" class="st3" d="M284.4,110.9l1.4-17.1l-15.7,2.6l-3-7.5c0,0-9.4,9.1-11.2,11c0,0,0,0-0.2,0.2
		c-0.9,0.9-1.9,1.4-2.6,1.4c-0.2,0-0.2,0-0.5,0c-1.2-0.2-1.9-1.4-1.6-4c0-0.5,0.2-1.4,0.2-2.8c0.7-6.3,2.1-20.6,2.1-20.6l-9.1,3.7
		l-11-18l0,0l-7.3,11.9l-3.7,6.1l-9.1-3.7c0,0,2.1,20.6,2.3,23.4c0,0.5,0,0.9,0,1.4c0,0.7-0.2,1.2-0.5,1.6c-0.5,0.7-0.9,0.9-1.6,0.9
		c-0.2,0-0.2,0-0.5,0c-0.2,0-0.7-0.2-0.9-0.5c-0.5-0.2-0.7-0.5-1.2-0.9c0,0,0,0-0.2-0.2c-1.9-1.6-11.2-11-11.2-11l-3,7.5l-15.7-2.6
		l1.4,17.1l-3.5,1.2l-2.6,0.9l33.3,28.6l-5.4,6.6l1.9-0.2l25.3-2.1l2.3,4.7l0.7-1.4l1.6-3l4.9,0.5l5.6,0.5l16.9,1.4l-5.4-6.6
		l33.3-28.6l-3-0.9L284.4,110.9L284.4,110.9z"/>
</g>
</svg>
