<?xml version="1.0" encoding="utf-8"?>
<!-- Generator: Adobe Illustrator 21.1.0, SVG Export Plug-In . SVG Version: 6.00 Build 0)  -->
<!DOCTYPE svg PUBLIC "-//W3C//DTD SVG 1.1//EN" "http://www.w3.org/Graphics/SVG/1.1/DTD/svg11.dtd">
<svg version="1.1" id="Layer_1" xmlns="http://www.w3.org/2000/svg" xmlns:xlink="http://www.w3.org/1999/xlink" x="0px" y="0px"
	 width="335.7px" height="186.2px" viewBox="0 0 335.7 186.2" style="enable-background:new 0 0 335.7 186.2;" xml:space="preserve"
	>
<style type="text/css">
	.st0{fill:#A4A9AD;}
	.st1{fill:#111111;}
	.st2{fill:#F95602;}
	.st3{fill:#FFFFFF;}
	.st4{fill:#B5985A;}
</style>
<g>
	<path class="st0" d="M118.9,186.2c-58.6,0-95.6-16.9-96-17.1L0,158.8l24.4-6.5c0,0,0.3-0.1,0.6-0.2c8.1-2.2,29.2-8.2,49.8-15.7
		c29.7-10.8,40.1-17.9,43.7-21.3c-2.8-1.1-8.2-2.6-18-3.9c-10.6-1.4-20.7-1.7-20.8-1.7l-46.6-1.2l43.6-16.2c0.3-0.1,0.7-0.3,1.4-0.5
		c4-1.6,16.1-6.3,28.2-12.1C122.1,72,129,67,131.9,64.3c-4.2-1.4-13.8-3.3-35.2-3.3c-14.1,0-27.1,0.9-32,1.3
		c-0.1,0-33.8,2.6-33.8,2.6l27.9-19.2C65.7,41,129.3,0,208.5,0c30.9,0,62.2,7.2,85.9,19.7c26.6,14.1,41.3,33.8,41.3,55.5
		c0,25-26.6,53.3-71,75.8C220.4,173.4,167.3,186.2,118.9,186.2z"/>
	<path class="st0" d="M118.9,183.2c-57.1,0-93.2-16.1-94.7-16.8l-15.3-6.9l16.2-4.3c0.3-0.1,25.6-6.8,50.6-15.9
		c40.2-14.6,46.4-23,47.3-25.1c-1.3-1-6.2-3.8-22.2-5.9c-10.8-1.4-21-1.7-21.1-1.7l-31-0.8L77.8,95c0.1-0.1,14.9-5.6,29.8-12.7
		c23.8-11.4,28.3-17.4,29.1-19c-1.5-1.2-8.8-5.3-40-5.3c-16.9,0-32.4,1.3-32.5,1.3L41.7,61l18.6-12.8C63,46.4,127,3,208.5,3
		c59.7,0,124.2,27.6,124.2,72.2c0,23.8-26,51.2-69.4,73.1C219.4,170.5,166.8,183.2,118.9,183.2z"/>
	<path class="st0" d="M208.5,9C128,9,63.7,53.2,63.7,53.2s79.2-6.5,79.2,9.7c0,14.3-63,37.7-63,37.7s49.4,1.3,49.4,13
		c0,20.1-102.6,47.4-102.6,47.4s35.7,16.2,92.2,16.2c100.6,0,207.8-57.1,207.8-101.9C326.7,35.6,266.9,9,208.5,9z"/>
	<path class="st1" d="M208.5,12.2c-58.4,0-108.4,24-130.5,36.4c0,0,68.2-4.5,68.2,14.3c0,12.3-29.2,26.6-50,35.1
		c16.9,1.9,37,5.8,37,16.2c0,18.8-63,39-94.8,48.1c14.3,4.5,42.9,12.3,80.5,12.3c101.3,0,204.5-57.1,204.5-98.1
		C323.4,36.9,263.7,12.2,208.5,12.2z"/>
	<path class="st2" d="M100,161.6l-11.7,3.2c0,0,10.4,1.3,27.3,1.3c120.1,0,200-73.4,200-85.1c0-1.3-0.6-2.6-0.6-2.6
		C272.8,129.1,188.4,164.2,100,161.6z"/>
	<path class="st3" d="M209.8,22.6c-44.8,0-93.5,17.5-93.5,17.5s50-2.6,50,18.8c0,19.5-35.7,33.8-35.7,33.8s21.4,5.2,21.4,17.5
		c0,28.6-70.1,46.1-70.1,46.1c146.8,7.1,230.5-71.4,230.5-85.7C313,56.4,272.1,22.6,209.8,22.6z"/>
	<path class="st4" d="M209.8,25.2c-27.9,0-58.4,7.1-76,12.3c0,0,35.7,1.3,35.7,20.8c0,15.6-20.1,27.9-30.5,33.8
		c7.1,2.6,16.9,8.4,16.9,18.2c0,21.4-33.8,36.4-55.2,43.5c133.1,0,209.7-70.8,209.7-83.1S270.8,25.2,209.8,25.2z"/>
	<path class="st3" d="M185.8,46.7c0,0,39.6,9.1,57.1,20.8L165.6,87l72.7-2.6c-16.2,12.3-75.3,40.3-75.3,40.3s72.7-11,118.2-52.6
		C241,35.6,185.8,46.7,185.8,46.7z"/>
	<path class="st1" d="M202,48c0,0,30.5,7.8,46.8,20.1L191,83l55.8-1.9c-15.6,13-61.7,35.1-61.7,35.1c24-6.5,62.3-19.5,90.9-44.8
		C251.3,50.6,220.8,47.3,202,48z"/>
</g>
</svg>
