<?xml version="1.0" encoding="utf-8"?>
<!-- Generator: Adobe Illustrator 26.1.0, SVG Export Plug-In . SVG Version: 6.00 Build 0)  -->
<svg version="1.1" id="Layer_1" xmlns="http://www.w3.org/2000/svg" xmlns:xlink="http://www.w3.org/1999/xlink" x="0px" y="0px"
	 viewBox="0 0 201.6 221.3" style="enable-background:new 0 0 201.6 221.3;" xml:space="preserve">
<style type="text/css">
	.st0{fill:#EDE1C6;}
	.st1{fill:#791026;}
	.st2{fill:#035130;}
	.st3{fill:#B95B27;}
	.st4{fill:#4A3291;}
	.st5{fill:#010101;}
</style>
<g>
	<path class="st0" d="M144.8,221.3c-0.8,0-1.6-0.5-1.9-1.3l-3.2-8.1c-0.1-0.2-0.1-0.5-0.1-0.7l0-11l-16.4-17.8l-3.5,3.1l1,5.1
		c0.1,0.7-0.1,1.5-0.7,1.9l-12.8,10.5c-0.4,0.3-0.8,0.5-1.3,0.5c-0.1,0-0.1,0-0.2,0l-6.3-0.6l-20.5,17.6c-0.4,0.3-0.8,0.5-1.3,0.5
		c0,0-75.6,0-75.6,0c-0.7,0-1.3-0.3-1.6-0.9c-0.4-0.5-0.5-1.2-0.2-1.8L4,207.5l0-10.1c0-0.7,0.4-1.4,1-1.7l15.3-9.1l-14-20
		c-0.6-0.9-0.4-2.1,0.5-2.8l33.6-24.1l-13.2-22c-0.5-0.9-0.3-2.1,0.6-2.7l20.4-13.7l4.7-39.5c0-0.3,0.1-0.5,0.3-0.8l7.7-13l-17.6-23
		c-0.6-0.8-0.5-1.8,0.1-2.5c0.4-0.4,0.9-0.7,1.5-0.7c0.3,0,0.7,0.1,1,0.3l22.9,12.9l1.2-2.2L67.1,2.2c-0.1-0.9,0.5-1.8,1.4-2.1
		C68.7,0,68.9,0,69.1,0c0.7,0,1.4,0.4,1.7,1l19,33.5c0.2,0.3,0.3,0.7,0.3,1.1l-0.7,16.8l20.3-24.2c0.4-0.5,1-0.7,1.5-0.7
		c0.2,0,0.4,0,0.6,0.1c0.8,0.3,1.3,1,1.4,1.8l2.3,37.7c0,0.3,0,0.6-0.1,0.9L134,81.8c0.7,0.5,1,1.5,0.7,2.3c-0.3,0.8-1,1.3-1.9,1.3
		c-0.1,0-0.1,0-0.2,0l-10.9-1l41.2,17.7c0.7,0.3,1.2,1,1.2,1.7l0.8,13.4l6.9-5.6c0.4-0.3,0.8-0.4,1.3-0.4c0.5,0,1.1,0.2,1.5,0.7
		l18.9,20.9c0.3,0.3,0.5,0.7,0.5,1.1l4.4,40.4c0.1,0.9-0.5,1.8-1.4,2.1c-0.2,0.1-0.4,0.1-0.6,0.1c-0.7,0-1.4-0.4-1.7-1l-14.3-25
		l-8.4,20.5c-0.3,0.8-1,1.2-1.9,1.2c-0.1,0-0.2,0-0.3,0c-0.9-0.1-1.6-0.9-1.7-1.8l-2.3-20.9l-5.8,5.2c-0.4,0.3-0.9,0.5-1.3,0.5
		c-0.3,0-0.7-0.1-1-0.3l-1.9-1.1l-1.6,1.4l13.7,17.3c0.1,0.2,0.2,0.4,0.3,0.6l3.8,10.4l22.9,12.2c0.7,0.3,1.1,1,1.1,1.8l0,9.8
		l5.3,11.2c0.3,0.6,0.3,1.3-0.1,1.9c-0.4,0.6-1,0.9-1.7,0.9C199.6,221.3,144.8,221.3,144.8,221.3z M79.4,202l6-8.5l2.1-6.7
		c-0.4-0.6,1.6-3.8,1.9-4.4l-4.7-6.6L63.4,165l-15.3,8.9l10.2,24.1L79.4,202z M134.1,149l10.9-5.9l-4-20.6l-17.7,24.1L134.1,149z
		 M126.7,130.8l15.3-6.7l-15.3-2.7L126.7,130.8z M120.1,132l4.1-10.6l-10.8-2.1L120.1,132z"/>
	<path class="st0" d="M194.1,207.7l0-10.2l-23.5-12.5l-4-11.1L151.6,155l4.1-3.6l3.1,1.8l8.7-7.8l2.8,24.8l9.9-24.3l16.3,28.6
		L192,134l-18.9-20.9l-9.3,7.6l-0.7-0.6l-1-16.2l-43.6-18.7l-4.3-3.5l18.5,1.8l-20.3-15.1l1.1-1.1l-2.3-37.7L89.1,55.8l-1.9,0
		l0.9-20.3L69.1,2l2.8,31l-2.6,4.4L44.8,23.6l18.4,24.1l-8.4,14.1L50,102.3l-21.2,14.3L43,140.1L7.9,165.4l15.2,21.8L6,197.4l0,10.5
		L2,219l75.6,0l21.2-18.1l7.2,0.7l12.8-10.5l-1.2-6.2l5.8-5.2l18.2,19.8l0,11.7l3.2,8.1l54.9,0.1L194.1,207.7z M79.2,195.4l-17.6,0
		l-10.7-20.2l11.3-6.8l21,13.3l-2.6,4.7l3.4,4.8L79.2,195.4z M120,129.6l-5.2-9.2l8.2,1.6L120,129.6z M127.5,122.8l11.5,1.8
		l-10.8,4.8L127.5,122.8z M136.3,147l-6.8-2l12.3-17.3l1.1,13.7L136.3,147z"/>
	<polygon class="st1" points="82.4,54.5 83.3,36.6 75.9,23.7 76.9,33.5 	"/>
	<path class="st1" d="M79.4,140.4l32.5,0l0-26.5l0-26.9l-13.3-1l7.9,11.1L88.3,93l-22.2,24.4l-14.8-7.2l0.3-3.3l-16.3,11l2.6,4.3
		l36.3,3.3L79.4,140.4z M79,113.9c2.5-4.3,7.1-7.1,12.3-7.1c0.4,0,0.8,0,1.2,0.1c0.1,0,0.2,0,0.3,0v0c4.6,0.5,8.6,3.2,10.8,7
		c1.2,2.1,1.9,4.5,1.9,7.1c0,7.9-6.4,14.2-14.2,14.2c-7.9,0-14.2-6.4-14.2-14.2C77.1,118.4,77.8,116,79,113.9z"/>
	<polygon class="st1" points="134.9,121.4 141,122.4 156.1,106.6 142.1,100.6 	"/>
	<polygon class="st1" points="120.4,118.9 125.6,93.4 114.7,88.8 114.7,117.8 	"/>
	<polygon class="st1" points="63.4,165 81.5,154.5 76.7,140.9 49,140.9 39.6,125 39.5,125 	"/>
	<polygon class="st1" points="99.4,160.1 111.9,160.1 111.9,160.1 111.9,157.7 111.9,157.7 99.4,157.7 	"/>
	<polygon class="st1" points="99.4,164.8 111.9,164.8 111.9,164.8 111.9,162.4 111.9,162.4 99.4,162.4 	"/>
	<polygon class="st1" points="171.5,134.8 172.2,142.4 176.1,143.1 178,138.3 178.1,130.6 182.3,139.6 184.4,143.5 188.3,142 
		187.5,135.9 179.7,127.7 	"/>
	<path class="st1" d="M86.4,80.8c1.7,0,3.2-1.4,3.2-3.2c0-1.7-1.4-3.2-3.2-3.2s-3.2,1.4-3.2,3.2C83.3,79.3,84.7,80.8,86.4,80.8z"/>
	<polygon class="st1" points="68.7,197.9 68.7,197.9 58.3,197.9 52.9,214.2 63.5,214.2 	"/>
	<polygon class="st2" points="161.7,175.6 146.5,156.4 125.4,174.9 132.3,182.4 	"/>
	<polygon class="st2" points="114.4,143.3 114.4,165.4 134.1,149 	"/>
	<polygon class="st2" points="48.1,173.8 61,165.9 47.3,142.9 14.4,166.6 21,175.8 	"/>
	<polygon class="st2" points="184.4,143.5 189.5,152.7 188.3,142 	"/>
	<polygon class="st2" points="172.2,142.4 173.1,150.4 176.1,143.1 176.1,143.1 	"/>
	<polygon class="st2" points="81,32.6 75.9,23.7 76.9,33.5 	"/>
	<polygon class="st2" points="68.7,42.9 61.4,38.2 67.2,45.3 	"/>
	<polygon class="st3" points="189.3,208.2 189.3,200.4 166.6,188.3 162.9,178 134.2,184.5 146.2,197.6 146.2,208.2 	"/>
	<polygon class="st3" points="143.8,123.2 145.5,140.4 158.2,147.3 168.9,137.7 168.3,131 158.5,122.5 157.5,108.9 	"/>
	<polygon class="st3" points="126.7,144.2 139,127.3 126.1,132.9 125,124 120.2,135 114.5,125.1 114.5,140.6 	"/>
	<polygon class="st3" points="90.5,185.4 102.5,175.4 82.2,157.1 64.9,167.1 86.6,180.8 83.6,186.1 92.6,199.8 95.7,197.1 	"/>
	<polygon class="st3" points="107.9,180.3 95.6,190.2 98.1,196 104.3,196.6 113.4,189.1 112.2,183.6 	"/>
	<polygon class="st3" points="58.7,195.4 48.6,176.4 22.6,178.2 30.1,188.6 10.9,200 10.9,208.3 33.7,208.3 38.1,195.4 	"/>
	<path class="st3" d="M76.4,67.9l1.7,5.9l-13.8,31.8l1.4,8.3l21.7-23.8l0,0l13.2,3l-7.1-10l16.4,1.2l-10.9-9L116,77l-10.9-8.1
		l3.5-3.5l-1.4-23.5L91.4,60.7l-7.2-0.3L76.4,67.9z M86.4,71.8c3.2,0,5.8,2.6,5.8,5.8c0,3.2-2.6,5.8-5.8,5.8c-3.2,0-5.8-2.6-5.8-5.8
		C80.6,74.4,83.2,71.8,86.4,71.8z"/>
	<polygon class="st4" points="134.8,113.9 132.5,121 135,121.4 137.5,113.9 142.1,100.5 139.5,99.4 	"/>
	<polygon class="st4" points="120.4,118.9 122.9,119.3 128.1,94.5 125.6,93.4 	"/>
	<polygon class="st4" points="76,138.6 47.7,138.6 49,140.9 76.7,140.9 76.8,140.9 76,138.6 76,138.6 76,138.6 	"/>
	<polygon class="st4" points="111.7,142.9 101.2,142.9 106.4,150 	"/>
	<polygon class="st4" points="83.4,94.5 83.4,94.5 87.4,90.1 87.4,90.1 81.9,89.3 	"/>
	<polygon class="st4" points="77.2,93.7 78.6,99.9 78.6,99.9 83.4,94.6 83.3,94.6 	"/>
	<polygon class="st4" points="71.1,99.1 72.4,106.6 64.3,105.6 64.3,105.6 64.3,105.6 64.6,107.6 65.7,113.9 78.5,99.9 78.5,99.9 	
		"/>
	<path class="st4" d="M95.1,128.3c5.6,0,8.1-2.7,8.1-8.6c-0.1-0.5-0.1-1-0.3-1.5c-0.4-1.6-1.1-3.1-2-4.3c-1.6-2.2-4-3.8-6.7-4.5
		c-0.6-0.2-1.2-0.3-1.8-0.3c-3.8,0.1-6.4,1.8-7.5,4.8c-0.4,1.1-0.6,2.3-0.6,3.7C84.4,123.5,89.2,128.3,95.1,128.3z"/>
	<polygon class="st4" points="90.7,142.9 95.9,150.1 101.2,142.9 90.9,142.9 90.7,142.9 90.6,142.9 80.2,142.9 85.5,150.1 	"/>
	<polygon class="st4" points="151.1,190.6 143.4,182.4 140.5,183.1 148.1,191.3 	"/>
	<polygon class="st4" points="156.9,189.3 149.2,181.1 146.3,181.8 153.9,190 	"/>
	<polygon class="st4" points="162.8,187.9 155,179.8 152.1,180.4 159.8,188.6 	"/>
	<polygon class="st4" points="71.1,197.9 68.7,197.9 63.4,214.3 65.8,214.3 	"/>
	<g>
		<polygon class="st4" points="52.9,214.2 55.6,206.1 47.5,209 		"/>
		<polygon class="st4" points="50.1,200.9 55.6,206.1 58.3,197.9 		"/>
	</g>
	<polygon class="st4" points="37.1,186.8 30.6,177.6 27.6,177.9 34,187 	"/>
	<polygon class="st4" points="43.1,186.3 36.6,177.2 33.6,177.4 40.1,186.6 	"/>
	<polygon class="st4" points="49.2,185.9 42.7,176.8 39.7,177 46.2,186.2 	"/>
	<polygon class="st4" points="105.2,51 96.7,60.9 105.7,61 	"/>
	<path class="st5" d="M191.9,208.2l0-9.4l-23.1-12.3l-4.2-11.6l-16-20.2l6.9-6l3.1,1.8l10.7-9.6l2.3,20.4l8.4-20.4l13.2,23.2
		l-3.2-29l-17-18.8l-9.1,7.4l-2.8-2.4l-1-15.8l-42.6-18.3l-10.1-8.4l17.8,1.7l-16-11.9l2.2-2.2l-1.9-31.2L90.2,58l-5.3,0l1-21.9
		l-13.6-24l2,21.5l-4,6.9l-17.1-9.6l12.8,16.7l-8.9,15l-4.8,41l-20.3,13.6l14.1,23.6L11,165.9l15.4,21.9L8.2,198.6l0,9.6l-3.1,8.5
		l71.6,0L98,198.6l7.2,0.7l11-9.1L115,184l8.4-7.5l20.3,22.1l0,12.2l2.5,6.3l49.8,0.1L191.9,208.2z M179.7,127.7l7.8,8.1l1.9,16.7
		l-0.1,0l-7.1-12.9l-4.2-9l-0.1,7.7l-5,12l-1.6-15.6L179.7,127.7z M172.6,119.7l5.4,6l-5.9,5.1l-6.5-5.4L172.6,119.7z M157.5,108.9
		l1,13.7l9.8,8.5l0.7,6.7l-10.7,9.6l-12.7-6.9l-1.7-17.2L157.5,108.9z M114.7,88.8l41.4,17.8l-15,15.8l-26.3-4.6L114.7,88.8z
		 M143.1,141.4l-6.7,5.6l-6.8-2l12.3-17.3L143.1,141.4z M139,124.6l-10.8,4.8l-0.7-6.6L139,124.6z M122.9,122l-2.9,7.6l-5.2-9.2
		L122.9,122z M120.2,135L125,124l1.2,8.9l12.9-5.6l-12.2,16.9l-12.2-3.6l0-15.5L120.2,135z M114.4,143.3l19.7,5.7l-19.7,16.4
		L114.4,143.3z M91.4,60.7l15.8-18.8l1.4,23.5l-3.5,3.5L116,77l-17.1-1.7l10.9,9l-16.4-1.2l7.1,10l-13.2-3l-21.7,23.8l-1.4-8.3l0,0
		l0,0l0,0l13.8-31.8l-1.7-5.9l7.8-7.4L91.4,60.7z M83.3,36.6l-0.8,17.9l-5.6-21.1l-0.9-9.8L83.3,36.6z M61.4,38.2l7.3,4.6l-1.4,2.4
		L61.4,38.2z M59.4,63.4L75.2,37l6,22.7l-8.1,7.4l2,6.5l-13.6,30.9l-7.4,4.1L59.4,63.4z M37.9,122.2l-2.6-4.3l16.3-11l-0.3,3.3
		l14.8,7.2L88.3,93l18.2,4.2l-7.9-11.1l13.3,1l0,26.9l0,26.5l-32.5,0l-5.2-14.8L37.9,122.2z M111.9,167.6l-7.4,6.2l-19.9-17.9
		l-4.4-12.9l0,0h0l0,0l31.7,0L111.9,167.6z M39.5,125L39.5,125l32.7,3l9.3,26.6L63.4,165L39.5,125z M84.1,191.2l-4.8,4.2l-17.6,0
		l-10.7-20.2l11.3-6.8l21,13.3l-2.6,4.7L84.1,191.2z M21,175.8l-6.5-9.2l32.9-23.6l13.7,23l-12.9,7.9L21,175.8z M31.8,214.2l-22.8,0
		l1.2-3.3l22.6,0L31.8,214.2z M10.9,208.3l0-8.3l19.1-11.4l-7.4-10.4l26-1.9l10,19.1l-20.6,0l-4.4,12.9L10.9,208.3z M75.9,214.2
		H34.5l5.4-16.3l40.3,0l5.2-4.4l5.3,8L75.9,214.2z M92.6,199.8l-9-13.7l3-5.3l-21.7-13.8l17.2-10l20.3,18.3l-12,10l5.2,11.7
		L92.6,199.8z M104.3,196.6l-6.2-0.6l-2.5-5.8l12.3-9.9l4.3,3.3l1.2,5.5L104.3,196.6z M113.8,181.6l-5.9-4.6l-13.4,10.8l-0.8-1.8
		l13-10.7l38.4-32.2l7.9,4.3L113.8,181.6z M132.3,182.4l-6.9-7.5l21.1-18.5l15.2,19.2L132.3,182.4z M146.2,208.2v-10.6l-12.1-13
		l28.7-6.5l3.7,10.3l22.7,12v7.8L146.2,208.2z M146.4,210.8l44.1,0l1.8,3.7H148L146.4,210.8z"/>
	<path class="st5" d="M91.4,135.3c7.9,0,14.2-6.4,14.2-14.2c0-2.6-0.7-5-1.9-7.1c-2.2-3.8-6.2-6.5-10.8-7v0c-0.1,0-0.2,0-0.3,0
		c-0.4,0-0.8-0.1-1.2-0.1c-5.3,0-9.9,2.9-12.3,7.1c-1.2,2.1-1.9,4.5-1.9,7.1C77.1,128.9,83.5,135.3,91.4,135.3z M85,113.9
		c1.1-3,3.6-4.7,7.5-4.8c0.6,0.1,1.2,0.2,1.8,0.3c2.7,0.7,5.1,2.3,6.7,4.5c0.9,1.3,1.6,2.7,2,4.3c0.1,0.5,0.2,1,0.3,1.5
		c0,6-2.5,8.6-8.1,8.6c-5.9,0-10.7-4.8-10.7-10.7C84.4,116.2,84.6,115,85,113.9z M81.7,113.9c0.5-0.6,1-1.2,1.6-1.8
		c-0.3,0.6-0.5,1.1-0.7,1.8c-0.3,1.1-0.5,2.4-0.5,3.7c0,7.1,5.8,12.9,12.9,12.9c1.6,0,3-0.2,4.2-0.6c-2.1,1.9-4.9,3-8,3
		c-6.6,0-12-5.4-12-12C79.4,118.4,80.2,115.9,81.7,113.9z"/>
	<polygon class="st5" points="71.3,71 63.2,68.3 62.1,71.3 70,73.9 	"/>
	<polygon class="st5" points="72.9,45.6 64.7,59.6 69.4,59.6 	"/>
	<path class="st5" d="M60.5,100.3c-0.6,0-1.2,0.5-1.2,1.2c0,0.6,0.5,1.2,1.2,1.2c0.6,0,1.1-0.5,1.1-1.2
		C61.6,100.8,61.1,100.3,60.5,100.3z"/>
	<path class="st5" d="M61,98.8c0.6,0,1.1-0.5,1.1-1.2c0-0.6-0.5-1.2-1.1-1.2c-0.6,0-1.2,0.5-1.2,1.2S60.4,98.8,61,98.8z"/>
	<path class="st5" d="M61.5,95c0.6,0,1.1-0.5,1.1-1.2s-0.5-1.2-1.1-1.2c-0.6,0-1.2,0.5-1.2,1.2C60.4,94.5,60.9,95,61.5,95z"/>
	<path class="st5" d="M57.2,102c-0.6,0-1.2,0.5-1.2,1.2c0,0.6,0.5,1.2,1.2,1.2s1.2-0.5,1.2-1.2C58.4,102.5,57.9,102,57.2,102z"/>
	<path class="st5" d="M57.8,98.2c-0.6,0-1.2,0.5-1.2,1.2c0,0.6,0.5,1.1,1.2,1.1c0.6,0,1.1-0.5,1.1-1.1
		C58.9,98.7,58.4,98.2,57.8,98.2z"/>
	<path class="st5" d="M58.3,94.4c-0.6,0-1.1,0.5-1.1,1.2c0,0.6,0.5,1.2,1.1,1.2c0.6,0,1.2-0.5,1.2-1.2C59.5,94.9,59,94.4,58.3,94.4z
		"/>
	<path class="st5" d="M80.6,77.6c0,3.2,2.6,5.8,5.8,5.8c3.2,0,5.8-2.6,5.8-5.8c0-3.2-2.6-5.8-5.8-5.8C83.2,71.8,80.6,74.4,80.6,77.6
		z M86.4,74.4c1.7,0,3.2,1.4,3.2,3.2c0,1.7-1.4,3.2-3.2,3.2s-3.2-1.4-3.2-3.2C83.3,75.9,84.7,74.4,86.4,74.4z"/>
</g>
</svg>
