<?xml version="1.0" encoding="utf-8"?>
<!-- Generator: Adobe Illustrator 21.1.0, SVG Export Plug-In . SVG Version: 6.00 Build 0)  -->
<!DOCTYPE svg PUBLIC "-//W3C//DTD SVG 1.1//EN" "http://www.w3.org/Graphics/SVG/1.1/DTD/svg11.dtd">
<svg version="1.1" id="Layer_1" xmlns="http://www.w3.org/2000/svg" xmlns:xlink="http://www.w3.org/1999/xlink" x="0px" y="0px"
	 width="76.7px" height="79.6px" viewBox="0 0 76.7 79.6" style="enable-background:new 0 0 76.7 79.6;" xml:space="preserve">
<style type="text/css">
	.st0{fill:#0A0602;}
	.st1{fill:#AF1B3B;}
	.st2{fill:#EAD9B6;}
</style>
<title>Untitled-11</title>
<path class="st0" d="M73.8,37.9c0.6-2.3,0-4.7-1.6-6.4c-0.3,1.7-1.1,3.2-2.3,4.5l-1.7-0.8l-1.4-3.8l6.2-12.9
	c0.3,0.6,0.5,1.1,0.7,1.7c0.8-1.6,1.1-3.3,0.9-5l1.2-2.4L75,3.2c-0.5-1.4-1.6-2.6-3.1-3c-1.4-0.5-2.9-0.2-4,0.7L46.9,17.2
	c-10.7,0.3-18.7,5-23.5,13.2L0,49.2c2.9,5,8.5,7.8,14.3,7.2l6.4-1.2c0.7,3,4.5,20.2,19.4,24.4c-2.5-4.9-5.8-13.5-2.6-20.6
	c4.3,13.7,10.5,13.3,10.5,13.3c-6.1-8.6-1.1-17.7-1.1-17.7c2.5,4.2,6,6.1,8.9,6.1c-2.6-3.8-3.3-8.6-2-13l13.2,0.5l5.9-2.5l3.7-6.6
	L73.8,37.9z"/>
<polygon class="st1" points="64,30.5 66.2,33.6 64.9,30.6 66.2,27.4 "/>
<path class="st2" d="M43.3,21.2c0.2-0.7-1.1-0.5-1.1-0.5c0.7-0.5,1.5-0.8,2.3-1.1c0.3-0.4,0.6-0.7,0.7-0.9c-0.7,0.1-2.3,0.4-5.7,2.8
	C40.9,21.2,42.1,21.1,43.3,21.2"/>
<path class="st2" d="M72.7,38.2c0.4-1.5,0.4-3.1-0.1-4.7c-0.4,1.4-1.2,2.6-2.3,3.5l-2.9-1.4l0,0l6,3.9l-3.7,0.9l0,0l0,0l-3.3-1.2
	l0,0l0,0c0.4-1.6,0.3-3.2-0.2-4.7c-0.5,1.5-1.3,2.8-2.5,3.8L60.6,37l-2.7-6.9l9.6-15.6c0.7,0.7,1.2,1.5,1.6,2.4
	c0.3-1.5,0.2-3.1-0.3-4.5l1.2-1.9l2.7-2l0.5,2.6l-4.6,12.7l3.6-7.8c0.2,0.1,0.5,0.4,1.2,1.9c0.2-1.3,0.1-2.7-0.2-3.9l1.1-2L72.9,8
	l-4.4,2.5L53.8,27c0.6-0.1-5,1.8-6.8,4.2c0,0,3.8,0.7,4.2,3.3C49.7,35,22.5,53.5,34.1,72.4c1.1,1.7,2.4,3.4,3.9,4.8
	c-2.4-4.5-3.3-9.6-2.8-14.7c0.5-4.2,1.9-8.3,4.2-11.9c0,0-0.1,10.5,4.2,16.5c0.5,0.7,1,1.3,1.6,1.8c0,0-2.4-4.3-0.6-12.1
	c0.8-3.3,2-6.5,3.7-9.5c-1.2,5.7,4,9.8,5.2,10.9c-1.8-3.9-2-8.4-0.4-12.5c0,0,13.9,0.5,14,0.5l4.8-4.7l0.4,2.6l2.7-4.9L72.7,38.2
	L72.7,38.2z M55.8,29.9l4.5-5.4l-3.2,5.4l2.6,7.1L55.8,29.9z"/>
<path class="st2" d="M5.1,49.4c1.5,2.7,5,3.4,7,3.6c-0.6-0.6-2.6-2.7-2-4.2c1.2,0.8,2.5,1.4,3.9,1.5c0,0-1.9-5.2,1.3-9.2
	C10.8,44.9,5.1,49.4,5.1,49.4"/>
<path class="st1" d="M74,4c-0.4,0.9-0.8,1.8-1,2.7c-0.9-6.1-3.2-1.6-3.8-5.2l-2,1.5c-0.3,1.5-0.4,3.1-0.4,4.6
	c-0.8-0.8-1.4-1.8-1.8-2.8c-0.3,1.7-0.5,3.4-0.5,5.1c-0.9-0.9-1.5-2-2-3.1c-0.3,1.8-0.5,3.7-0.5,5.5c-0.9-1-1.7-2.1-2.2-3.4
	c-0.4,2-0.6,4-0.6,6.1c-1.1-1.1-1.9-2.4-2.4-3.9L47,18.6c-2.3,2.4-3.9,5.3-4.8,8.5c0-1.4,0.1-2.9,0.3-4.3c-2,1.5-4,3.2-5.8,4.9
	c0.1-1.8,0.7-3.6,1.6-5.2c-2.5,2-5,4.2-7.2,6.5c3.6-6.2,6.5-8.1,8-9.3C31.2,22,25,28,22.6,35.8c0-1.1,0.1-2.1,0.3-3.2L2.2,49
	c0,0,3.2,5.9,12.1,5.6l11.7-1.9c-0.6-1.7-1-3.5-1-5.3c1.4,4.9,3.9,6.8,3.9,6.8s-6.6,0.9-6.6,0.9c1.2,4.3,3.8,16.5,15.7,22.2
	c-1.5-1.5-2.8-3.1-3.9-4.8c-4.4-6.5-4.8-14.8-1.1-21.7c0,0-4.2,1.4-5.3-2c5.6,4.4,18.8-12.2,16.1-17.5c5.5-4.4,9.4-5,9.4-5
	l15.4-15.7L72.9,8l1.6,3.9L74,4z M13.7,53.1c-0.5,0-1,0-1.6-0.1c-2-0.2-5.5-0.9-7-3.6c0,0,5.6-4.5,10.3-8.2c2.6-2.1,4.9-4,5.8-4.7
	c-12,11.6,2.4,14.9,2.4,14.9L13.7,53.1z"/>
<polygon class="st1" points="67.1,46.3 72.3,44.2 72,41.6 "/>
<path class="st1" d="M39.4,50.7c-2.3,3.6-3.8,7.6-4.2,11.9c0.4-3,1.6-5.8,3.3-8.1c0.4,4.7,2.2,9.1,5.1,12.8
	C39.3,61.2,39.4,50.7,39.4,50.7"/>
<path class="st1" d="M48.3,47.4c-1.7,3-2.9,6.2-3.7,9.5c0.2-0.4,1.5-4.2,2.9-5.5c1.1,3,3.3,5.5,6.1,6.9
	C52.3,57.2,47.1,53.1,48.3,47.4"/>
<polygon class="st0" points="60.3,24.5 55.8,29.9 59.7,37.1 57.1,29.9 "/>
</svg>
