<?xml version="1.0" encoding="utf-8"?>
<!-- Generator: Adobe Illustrator 21.1.0, SVG Export Plug-In . SVG Version: 6.00 Build 0)  -->
<!DOCTYPE svg PUBLIC "-//W3C//DTD SVG 1.1//EN" "http://www.w3.org/Graphics/SVG/1.1/DTD/svg11.dtd">
<svg version="1.1" id="Layer_8" xmlns="http://www.w3.org/2000/svg" xmlns:xlink="http://www.w3.org/1999/xlink" x="0px" y="0px"
	 width="231.6px" height="231.6px" viewBox="0 0 231.6 231.6" style="enable-background:new 0 0 231.6 231.6;" xml:space="preserve"
	>
<style type="text/css">
	.st0{fill:#FFFFFF;}
	.st1{fill:#FFC422;}
	.st2{fill:#231F20;}
</style>
<g id="Layer_7">
	<g>
		<path class="st0" d="M115.8,218.9c-27.6,0-53.5-10.7-72.9-30.2c-19.5-19.5-30.3-45.4-30.3-72.9c0-27.6,10.7-53.5,30.2-72.9
			s45.4-30.3,73-30.3s53.5,10.7,72.9,30.2c19.5,19.5,30.2,45.4,30.2,72.9c0,27.6-10.7,53.5-30.2,72.9
			C169.2,208.2,143.3,218.9,115.8,218.9L115.8,218.9z"/>
		<path class="st1" d="M115.8,23c51.3,0,92.8,41.6,92.8,92.8c0,51.3-41.6,92.8-92.8,92.8C64.5,208.6,23,167,23,115.8
			C23,64.5,64.5,23,115.8,23 M115.8,0C100.2,0,85,3,70.7,9.1C56.9,15,44.6,23.3,33.9,33.9s-19,23-24.8,36.8C3,85,0,100.1,0,115.8
			c0,15.6,3,30.8,9.1,45.1c5.9,13.8,14.2,26.2,24.8,36.8c10.6,10.6,23,19,36.8,24.8c14.3,6.1,29.5,9.1,45.1,9.1s30.8-3,45.1-9.1
			c13.8-5.9,26.2-14.2,36.8-24.8c10.6-10.6,19-23,24.8-36.8c6.1-14.3,9.1-29.5,9.1-45.1s-3-30.8-9.1-45.1
			c-5.9-13.8-14.2-26.2-24.8-36.8c-10.6-10.6-23-19-36.8-24.8C146.6,3,131.4,0,115.8,0L115.8,0z"/>
	</g>
</g>
<g id="Layer_2">
	<g>
		<g>
			<polygon class="st1" points="124.4,75.5 107.1,75.5 107.1,13.8 124.4,13.8 			"/>
			<path class="st2" d="M127,11.2v66.9h-22.5V11.2H127 M121.8,16.4h-12.2V73h12.2V16.4L121.8,16.4z"/>
		</g>
		<g>
			<polygon class="st1" points="124.4,217.9 107.1,217.9 107.1,156.4 124.4,156.4 			"/>
			<path class="st2" d="M127,153.8v66.8h-22.5v-66.8H127 M121.8,158.9h-12.2v56.4h12.2V158.9L121.8,158.9z"/>
		</g>
		<g>
			<path class="st1" d="M181.8,194.2l-42.5-42.5l3.5-3.5l0.8-0.8v-1.1v-15l50.5,50.5L181.8,194.2L181.8,194.2z M49.7,194.2
				l-12.3-12.3l53-53l3.7-3.7v24.5L49.7,194.2L49.7,194.2z M217.8,124.5h-74.9h-5l-2.5-2.5l-0.8-0.8h-1H96.7h-2.6v2.6v0.7h-5.5H13.7
				v-17.3h74.9h5.6v0.8v2.6h2.6h36.9h1.1l0.8-0.8l2.6-2.6h4.8h74.9v17.3H217.8z M94.2,106.5l-3.7-3.7l-53-53l12.3-12.3l44.4,44.4
				L94.2,106.5L94.2,106.5z M143.6,100.2V85.4v-1.1l-0.8-0.8l-3.6-3.6l42.5-42.5L194,49.7L143.6,100.2L143.6,100.2z"/>
			<path class="st2" d="M181.8,33.9l15.9,15.9l-54.8,54.8h77.5v22.5h-77.5l54.8,54.8l-15.9,15.9l-46.1-46.1l5.3-5.3v-15.1l-7.4-7.4
				H96.7v27l-47,47L33.8,182l54.8-54.9H11.1v-22.5h77.5L33.8,49.8l15.9-15.9l47,47V108h36.9l7.4-7.4V85.5l-5.4-5.4L181.8,33.9
				 M181.8,41.2l-38.9,38.9l1.8,1.8l1.5,1.5v2.1V94l44.2-44.2L181.8,41.2L181.8,41.2z M49.7,41.2l-8.6,8.6l50.5,50.5V83.1L49.7,41.2
				L49.7,41.2z M215.3,109.8H143h-3.7l-1.9,1.9l-1.5,1.5h-2.1H96.7h-5.1v-3.4h-3H16.3V122h72.3h2.9v-3.3h5.2h36.9h2.1l1.5,1.5
				l1.7,1.7h3.9h72.3L215.3,109.8L215.3,109.8z M91.5,131.5l-50.4,50.4l8.6,8.6l41.8-41.8L91.5,131.5L91.5,131.5z M146.2,137.7v8.7
				v2.1l-1.5,1.5l-1.7,1.7l38.8,38.8l8.6-8.6L146.2,137.7L146.2,137.7z"/>
		</g>
	</g>
</g>
<g id="Layer_3_copy">
	<g>
		<g>
			<path class="st2" d="M144.3,174.4h-1.8H72.4H68V170v-11.4v-1.9l1.4-1.3l6.7-6.4V83l-6.8-6.4l-1.4-1.3v-1.9V61.8v-4.4h4.4h70.1
				h1.8l1.3,1.3l16.6,16.2l1.3,1.3v1.9v28.1v1.9l-1.4,1.3l-6.8,6.6l6.8,6.6l1.4,1.3v1.9v28.1v1.9l-1.3,1.3l-16.5,16.1L144.3,174.4
				L144.3,174.4z M101.1,149.3h30.7l4.8-4.8V133l-4.8-4.8h-30.7V149.3L101.1,149.3z M101.2,103.6h30.7l4.8-4.8V87.3l-4.8-4.8h-30.7
				L101.2,103.6L101.2,103.6z"/>
			<path class="st2" d="M142.5,61.8L159.1,78v28.1l-10.2,9.8l10.2,9.8v28.1L142.5,170H72.4v-11.4l8.1-7.7V81l-8.1-7.8V61.8H142.5
				 M96.7,108h36.9l7.4-7.4V85.5l-7.4-7.4H96.7V108 M96.7,153.8h36.9l7.4-7.4v-15.1l-7.4-7.4H96.7V153.8 M146.1,53h-3.6H72.4h-8.9
				v8.9v11.5v3.8l2.7,2.6l5.4,5.1v62.2l-5.4,5.1l-2.7,2.6v3.8V170v8.9h8.9h70.1h3.6l2.6-2.5l16.6-16.2l2.7-2.6v-3.7v-28.1V122
				l-2.7-2.6l-3.5-3.4l3.5-3.4l2.7-2.6v-3.8V78.1v-3.7l-2.7-2.6l-16.6-16.2L146.1,53L146.1,53z M105.6,99.1V86.9H130l2.2,2.2v7.8
				l-2.2,2.2H105.6L105.6,99.1z M105.6,144.9v-12.2H130l2.2,2.2v7.8l-2.2,2.2H105.6L105.6,144.9z"/>
		</g>
		<g>
			<path class="st2" d="M143.3,172h-0.8H72.4h-2v-2v-11.4v-0.9l0.6-0.6l7.5-7.1V82L71,74.8l-0.6-0.6v-0.9V61.8v-2h2h70.1h0.8
				l0.6,0.6l16.7,16.2l0.6,0.6v0.9v28.1v0.9l-0.6,0.6L152,116l8.6,8.3l0.6,0.6v0.9v28.1v0.9l-0.6,0.6L144,171.6L143.3,172L143.3,172
				z M98.7,151.7h34.1l6.2-6.2V132l-6.2-6.2H98.7V151.7L98.7,151.7z M98.8,106h34.1l6.2-6.2V86.3l-6.2-6.2H98.8L98.8,106L98.8,106z"
				/>
			<path class="st1" d="M142.5,61.8L159.1,78v28.1l-10.2,9.8l10.2,9.8v28.1L142.5,170H72.4v-11.4l8.1-7.7V81l-8.1-7.8V61.8H142.5
				 M96.7,108h36.9l7.4-7.4V85.5l-7.4-7.4H96.7V108 M96.7,153.8h36.9l7.4-7.4v-15.1l-7.4-7.4H96.7V153.8 M144.2,57.8h-1.7H72.4h-4.1
				v4.1v11.5v1.7l1.3,1.2l6.9,6.6v66.3l-6.9,6.4l-1.3,1.2v1.7v11.4v4.1h4.1h70.1h1.7l1.2-1.2l16.6-16.2l1.2-1.2v-1.7v-28.1v-1.7
				l-1.2-1.2l-7.1-6.9l7.1-6.8l1.2-1.2v-1.7v-28v-1.7l-1.2-1.2L145.4,59L144.2,57.8L144.2,57.8z M100.8,103.9V82.1H132l5,5v11.8
				l-5,5H100.8L100.8,103.9z M100.8,149.7v-21.8H132l5,5v11.8l-5,5H100.8L100.8,149.7z"/>
		</g>
	</g>
</g>
<g id="Layer_6">
	<g>
		<path class="st2" d="M115.8,23c51.3,0,92.8,41.6,92.8,92.8c0,51.3-41.6,92.8-92.8,92.8C64.5,208.6,23,167,23,115.8
			C23,64.5,64.5,23,115.8,23 M115.8,6.7c-14.7,0-29,2.9-42.5,8.6c-13,5.5-24.6,13.4-34.7,23.4c-10,10-17.9,21.7-23.4,34.7
			c-5.7,13.5-8.6,27.7-8.6,42.5c0,14.7,2.9,29,8.6,42.5c5.5,13,13.4,24.6,23.4,34.7c10,10,21.7,17.9,34.7,23.4
			c13.5,5.7,27.7,8.6,42.5,8.6c14.7,0,29-2.9,42.5-8.6c13-5.5,24.6-13.4,34.7-23.4s17.9-21.7,23.4-34.7c5.7-13.5,8.6-27.7,8.6-42.5
			c0-14.7-2.9-29-8.6-42.5c-5.5-13-13.4-24.6-23.4-34.7c-10-10-21.7-17.9-34.7-23.4C144.8,9.6,130.5,6.7,115.8,6.7L115.8,6.7z"/>
	</g>
</g>
</svg>
