<?xml version="1.0" encoding="utf-8"?>
<!-- Generator: Adobe Illustrator 21.1.0, SVG Export Plug-In . SVG Version: 6.00 Build 0)  -->
<!DOCTYPE svg PUBLIC "-//W3C//DTD SVG 1.1//EN" "http://www.w3.org/Graphics/SVG/1.1/DTD/svg11.dtd">
<svg version="1.1"
	 id="Layer_1" inkscape:version="0.48.2 r9819" sodipodi:docname="AJAX.svg" xmlns:cc="http://creativecommons.org/ns#" xmlns:dc="http://purl.org/dc/elements/1.1/" xmlns:inkscape="http://www.inkscape.org/namespaces/inkscape" xmlns:rdf="http://www.w3.org/1999/02/22-rdf-syntax-ns#" xmlns:sodipodi="http://sodipodi.sourceforge.net/DTD/sodipodi-0.dtd" xmlns:svg="http://www.w3.org/2000/svg"
	 xmlns="http://www.w3.org/2000/svg" xmlns:xlink="http://www.w3.org/1999/xlink" x="0px" y="0px" width="262.6px" height="262.6px"
	 viewBox="0 0 262.6 262.6" style="enable-background:new 0 0 262.6 262.6;" xml:space="preserve">
<style type="text/css">
	.st0{fill:#FFFFFF;}
	.st1{fill:#B0B7BB;}
	.st2{fill:#FDBB30;}
	.st3{fill:#E31837;}
	.st4{fill:#002D62;}
</style>
<sodipodi:namedview  bordercolor="#666666" borderopacity="1" fit-margin-bottom="0" fit-margin-left="0" fit-margin-right="0" fit-margin-top="0" gridtolerance="10" guidetolerance="10" id="namedview310" inkscape:current-layer="Layer_1" inkscape:cx="118.83563" inkscape:cy="113.72156" inkscape:pageopacity="0" inkscape:pageshadow="2" inkscape:window-height="1004" inkscape:window-maximized="1" inkscape:window-width="1280" inkscape:window-x="-8" inkscape:window-y="-8" inkscape:zoom="2.5419125" objecttolerance="10" pagecolor="#ffffff" showgrid="false">
	</sodipodi:namedview>
<path id="path236" inkscape:connector-curvature="0" class="st0" d="M233.2,79.6c-0.2-1.3-1.1-0.3-1.1-0.3s-38.5,42.8-100.8,89.8
	C69,122.1,30.5,79.3,30.5,79.3s-0.9-1-1.1,0.3c0,0-1.4,7.1,4.1,12.8c0,0,38.2,42.4,90.7,82c-4.9,3.6-9.9,7.2-15.1,10.9l1.7,8.8
	c7-4.7,13.9-9.5,20.6-14.4c6.7,4.9,13.6,9.7,20.6,14.4l1.6-8.8c-5.2-3.6-10.2-7.3-15.1-10.9c52.4-39.6,90.6-82,90.6-82
	C234.6,86.7,233.2,79.6,233.2,79.6"/>
<path id="path238" inkscape:connector-curvature="0" class="st0" d="M51.6,86.1c7.8,6.3,10.2,10.3,12,12.1c1.5,1.5,3.1,1.7,4.7,3.3
	c2.5,2.5,3.2,5.5,5.6,5.5c2.4,0,5.1-5.3,10.3-5.3c3.5,0-2.2,2.4-2.2,4.6c0,2,4.3-0.7,5.2-0.7c1.6,0,7.6,2.7,11.2-2.1
	c-1.6-1.6-6.4-1-6.4-7.3c0-1.7,1.5-5.2,5.3-5.2c3.1,0,5.4,2.7,4.4,5.8c-0.3,1,1.3,2.1,1.3,3.9c0,5.3-3.7,5.9-3.7,8.2
	c0,4.7,3.3,4.3,5.2,4.2c4.3,0,10.9,3.6,13.1,3.6c2.7,0,4.9-1.2,4.9-2.5c0-1.4-3.2-7.4-5-7.4c-1,0-2.1,1.9-3.6,1.9
	c-1.7,0-2.7-1.1-2.1-2.1c0.3-0.6-0.6-1.6-0.6-3.2c0-1.9,2.7-6.1,7.9-6.1c4.3,0,8.8,3.7,8.8,9.8c0,5-1.4,7.9-1.4,8.9
	c0,1.8,3.5,4,5.8,4c2.2,0,10.7-3.1,13.4-3.1c2.7,0,5.8,0.2,5.8-2.3c0-2.5-1.7-7.3-3.5-7.3c-1.8,0-6,5.9-11.3,5.9
	c-0.6,0-1.3-0.1-1.3-1c0-0.9,1.4-2.9,2.2-3.4c0.7-0.4,4.7-2.1,4.7-3.5c0-0.8-3.6-1.8-3.6-3.4c0-1.6,3.6-0.3,3.6-1.9
	c0-1.4-3.3-2.7-3.3-6.5c0-2.7,1.9-5.5,5.4-5.5c6.8,0,11,5.1,17.4,5.1c5.4,0,11.3-2.9,13.9-2.9c7.9,0,7.7,8.9,15.5,8.9
	c3.7,0,5-1.4,5-5.7c0-2.3-1.1-2.1-2.5-2.1c-1.4,0-1.6-1-3.6-1c-3,0-6.3-1.5-6.3-3.1c0-1.5,11.1-5.1,12.7-5.1
	c5.7,0,6.2,11.3,15.3,11.3c2.3,0,4-0.5,4-4.5c0-4-0.6-3.7-1.4-3.6c-0.7,0.1-4.4,1.1-4.4,0c0-1.2,1.8-2.3-0.4-2.7
	c-9.7-1.6-6.9-10.7-10.6-10.7c-1.8,0-8.1,3.4-8.1-0.5c0-2.2,1.5-5.1,1.5-9.7c0-5.1-2.9-8.2-0.1-8.2c6.2,0,17,3.1,17,4.6
	c0,1.1-6.1,0.5-6.1,3.2c0,1.6,3.5,3.5,8.8,3.5c5.3,0,7.4-1.6,4.8-1.6c-2.6,0-6.7-0.1-6.7-1.9c0-1.8,4.7-1,4.7-2.9
	c0-2.8-4.8-2.6-13.6-5.1c-43.7-12.4-58.8-28.6-86.2-28.6c-33.7,0-28.3,23-48.8,28.2C50.1,57,48.6,65.3,48.6,75.1
	C48.6,80.7,50.5,85.3,51.6,86.1 M67,94.7c-1.8,0-1.3-1.3-1.3-1.3c2.3-3.2,1.1-10.7,4-10.7c1.6,0-0.7,1.7-0.7,3.6
	c0,2.2,3.2,1.5,3.2,4.1C72.3,92.1,69.6,94.7,67,94.7 M74,105.4c0,0-1.3-1-1.3-1.7c0-1.6,2.7-2.1,2.7-1.6
	C75.4,103.5,74,105.4,74,105.4 M76.2,76.2c0,1.1-2.3,3.8-3.7,3.8c-1.1,0-2.8-4.3-2.8-4.6c0-0.4,0.5-1.1,2.1-1.1
	C73.4,74.3,76.2,75.1,76.2,76.2 M63.1,59.3c6.5,0,9.8,3.8,9.8,8c0,4.2-3.5,7.2-7.4,7.2c-2.5,0-3.2-2.1-3.2-3.1
	c0-1.4,2.1-2.7,2.1-4.4c0-2.1-2.6-3.6-5.2-3.6c-4.4,0-7.3,3.8-7.3,1.9C51.9,63.1,56.4,59.3,63.1,59.3"/>
<path id="path240" inkscape:connector-curvature="0" class="st0" d="M141.4,128.9c-11.1,4.1-15.6,5.8-15,7.5
	c0.3,0.9,2.6,3.6,17.7-1.9c15-5.6,44.5-19.1,43.5-21.9C187.2,111.3,166.3,119.7,141.4,128.9"/>
<path id="path242" inkscape:connector-curvature="0" class="st0" d="M165.6,31.5c18.3,5,28.8,9.7,29.3,8c0.5-1.7-14.1-6.9-27.5-10.6
	c-13.4-3.7-27.4-5.5-26.9-5.1C141.9,25.1,147.3,26.5,165.6,31.5"/>
<path id="path244" inkscape:connector-curvature="0" class="st1" d="M131.3,0C58.9,0,0,58.9,0,131.3c0,72.4,58.9,131.3,131.3,131.3
	c72.4,0,131.3-58.9,131.3-131.3C262.6,58.9,203.7,0,131.3,0 M131.3,261C59.8,261,1.6,202.8,1.6,131.3C1.6,59.8,59.8,1.6,131.3,1.6
	C202.8,1.6,261,59.8,261,131.3C261,202.8,202.8,261,131.3,261"/>
<path id="path246" inkscape:connector-curvature="0" class="st1" d="M131.3,14.1c-64.6,0-117.1,52.6-117.1,117.1
	c0,64.6,52.6,117.2,117.1,117.2c64.6,0,117.2-52.5,117.2-117.2C248.4,66.7,195.9,14.1,131.3,14.1 M163.2,192.2
	c1,0.2,1.7,0.9,2.2,2.1c0,0,1.9-0.7,2.9,2c0,0,1.9-0.6,2.9,2c0,0,1.9-0.6,2.9,2c0,0,1.8-0.7,2.9,2c0,0,1.9-0.6,2.9,2
	c0,0,1.9-0.6,2.9,2c0,0,1.9-0.6,2.9,2c0,0,1.8-0.6,2.8,2c0.2,0,0.5-0.1,0.7-0.1c1.9,0.3,3,2.8,2.4,5.8c0,0.2-0.1,0.3-0.1,0.5
	c3.1-3.2,5.8-5.8,9.2-3.6c3,1.9,3.6,6,1.4,9.4c-2.8,4.4-6.3,2.1-8,0.8c-3.5,2.7-12.7,13.5-29.5,2.9c-22-13.9-6.9-38-9.7-41.6
	c-0.8-1-2.7-2.3-1.7-3.9c0.8-1.3,3.3-1.7,5.5-0.3c4.3,2.7,3.8,7.2,2.8,12.6C161.9,192.3,162.6,192.1,163.2,192.2 M155,184.8
	l-2.1,11.5c-6.8-4.5-15.1-10.2-21.5-14.9c-6.5,4.7-14.7,10.4-21.5,14.9l-2.1-11.5c4.7-3.3,9.9-7.1,14.4-10.3
	c-51.3-39-89-80.7-89.5-81.1c-5.9-6.1-4.5-13.6-4.4-13.8c0.2-1.6,1.9-2.4,3.3-1c0.4,0.5,38.8,42.8,99.9,89.1
	c61.1-46.2,99.5-88.6,99.9-89.1c1.4-1.5,3.1-0.6,3.3,1c0.1,0.3,1.5,7.7-4.4,13.8c-0.4,0.5-38.2,42.1-89.5,81.1
	C145,177.7,150.3,181.5,155,184.8 M60.6,222.2c-2.2-3.4-1.6-7.6,1.4-9.4c3.5-2.2,6.2,0.4,9.2,3.6c0-0.2-0.1-0.3-0.1-0.5
	c-0.5-3,0.5-5.4,2.4-5.8c0.2,0,0.5,0,0.7,0.1c1-2.6,2.9-2,2.9-2c0.9-2.6,2.9-2,2.9-2c1-2.6,2.9-2,2.9-2c0.9-2.6,2.9-2,2.9-2
	c1.1-2.7,2.9-2,2.9-2c1-2.6,2.9-2,2.9-2c0.9-2.6,2.9-2,2.9-2c1-2.7,2.9-2,2.9-2c0.4-1.1,1.2-1.9,2.2-2.1c0.6-0.1,1.3,0,1.9,0.4
	c-1.1-5.3-1.5-9.9,2.8-12.6c2.2-1.4,4.7-1,5.5,0.3c1,1.6-0.9,2.9-1.7,3.9c-2.9,3.6,12.3,27.8-9.8,41.6c-16.8,10.6-25.9-0.2-29.4-2.9
	C66.9,224.3,63.3,226.6,60.6,222.2 M143.6,99.9c0,1.5-1.1,2-3.3,2.2c1.2,1,3.2,1.5,3.2,3.1c0,1.8-2.1,3.1-5.3,4.6
	c-0.4,0.2-1.2,1.4-1.5,2.1c4.9,0,8.7-5.9,11.3-5.9c3,0,4.8,5.9,4.8,8.5c0,2.9-2.4,3.5-6.5,3.5c-3.8,0-11.1,3.1-13.9,3.1
	c-2.6,0-7-2.5-7-5.3c0-1.1,1.4-4.2,1.4-8.9c0-5.3-3.9-8.5-7.6-8.5c-4.6,0-6.6,3.7-6.6,4.9c0,1.6,1.3,2.4,0.5,3.8
	c0,0.1,0.4,0.3,1,0.3c0.9,0,2.1-1.9,3.7-1.9c2.8,0,6.2,6.9,6.2,8.6c0,2.2-2.6,3.8-6.1,3.8c-2.8,0-9.2-3.6-13.1-3.6
	c-2.4,0.2-6.5,0.1-6.5-5.5c0-3.1,3.7-3.4,3.7-8.2c0-1.3-1.8-2.5-1.3-4.2c0.8-2.7-1.5-4.1-3.2-4.1c-3.1,0-4,2.9-4,4
	c0,5.4,3.6,4.2,6,6.4c0.4,0.4,0.5,1.1,0.1,1.6c-2,2.5-4.7,4.6-12.2,2.6c-3.3,1.6-6.6,2.3-6.6-0.5c0-1.2,0.8-2.3,1.8-3.2
	c-3.8,1.1-5.9,5.1-8.7,5.1c-3.2,0-4.1-3.5-6.5-5.8c-1.1-1.1-3.8-2.3-4.7-3.3c-5.1-6.3-7.9-8.6-11.9-12c-1.6-1.3-3.4-6.7-3.4-12
	c0-9.9,1.4-19.1,18.6-23.5c19.5-4.9,15.1-28.2,49.1-28.2c28,0,45.7,17.4,86.6,28.7c9.1,2.5,14.5,2.3,14.5,6.3c0,2.4-2.9,2.5-4.5,3
	c0.5,0.3,1.8,0.6,5.2,0.6c3.3,0,4.3,4.1-4.8,4.1c-5.6,0-10-2.1-10-4.8c0-2.5,2.8-3.2,4.7-3.5c-3-1.3-9.6-3-14.2-3
	c0,0,1.3,3.7,1.3,6.9c0,4.9-1.5,7.8-1.5,9.7c0,1.8,5-0.7,6.8-0.7c5.3,0,1.7,9.3,10.8,10.7c2.2,0.4,2.5,1.7,1.7,3.1
	c0,0,1.3-0.2,2.8-0.5c1.9-0.3,2.7,0.9,2.7,4.8c0,5.1-2.6,5.8-5.3,5.8c-9.7,0-10.8-11.3-15.3-11.3c-1.5,0-9.5,2.7-11.3,4
	c0.5,0.6,2.5,1.6,4.8,1.6c2,0,2.9,1,3.6,1c1.8,0,3.7,0.1,3.7,3.4c0,4.9-1.8,6.9-6.2,6.9c-8.6,0-8.5-8.9-15.5-8.9
	c-2.3,0-8.3,2.9-13.9,2.9c-6.7,0-11.1-5.1-17.4-5.1c-2.7,0-4.1,2.2-4.1,4.3C140.3,96.7,143.6,97.7,143.6,99.9 M124.9,112.7
	c-0.9-2.9-3.8-8.4-7.1-8.4c-1.7,0-3.2,1.5-3.2,1.5c-0.1-0.9-0.6-1.8-0.6-2.5c0-0.6,1.6-3.6,5.4-3.6c3,0,6.3,2.8,6.3,7.3
	C125.6,109.4,125.2,111.3,124.9,112.7 M100.6,102.2c-2.2-3-5.9-1-5.9-5.9c0-0.7,0.6-2.7,2.8-2.7c1.1,0,2.2,0.7,2.2,1.9
	c0,0.4-0.3,1-0.3,1.6C99.3,99.3,101.4,100.1,100.6,102.2 M131.3,15.8c43.9,0,82.1,24.6,101.6,60.7c-0.9-0.1-1.9,0.3-2.7,1.2
	c-0.1,0.1-4.3,4.7-11.8,12.3c0-0.4,0.1-0.7,0.1-1.1c0-6.2-2.1-6.4-5.2-5.8c0,0,0.1-2.3-3.1-2.9c-8.2-1-4.4-10.7-11-10.7
	c-1.5,0-3.5,1-5.5,1.3c0.4-2.5,1.4-4.6,1.4-9c0-2.3-0.5-4.2-0.9-5.6c2.8,0.2,6.1,0.9,8.8,1.7c-1.2,0.7-2.1,1.8-2.1,3.5
	c0,3.5,4.7,6,11.3,6c11.5,0,9.6-7,4.2-6.6c0.6-0.6,1-1.3,1-2.4c0-4.9-6-5.1-15.4-7.5c-26.7-7.6-42.4-16.5-56.8-22.3
	c4.6,1.5,11.4,3,19.7,5.3c20.7,5.7,30.9,11.6,32.4,6.3c1.2-4.5-12.2-9-29.3-13.7c-28.3-7.8-29.5-4.9-29.9-3.4
	c-0.4,1.6,0.6,2.8,2.8,3.9c-8.1-2.9-16-4.7-25.8-4.7c-34.5,0-31,23.6-49.4,28.3C47.7,55,46.2,65.2,46.2,75.1c0,5.4,1.8,11.3,3.8,13
	c7.5,6,9.6,9.7,11.8,11.9c1.3,1.5,3.8,2.4,4.7,3.3c2.3,2.2,3.4,6.2,7.4,6.2c2.5,0,4.3-2.1,5.7-3.2c0,1.4,1,5.3,7.9,1.9
	c0,0,5.6,1.8,9.7-0.3c-0.1,0.3-0.1,0.7-0.1,1.1c0,6.6,5,7,7.8,6.7c3.6,0,9.8,3.6,13,3.6c2.9,0,5.3-1.1,6.5-2.7
	c0.5,3.3,5.1,5.9,8.2,5.9c3.1,0,10.5-3.1,13.9-3.1c3.7,0,7.8-0.4,7.8-4.8c0-2.7-1.9-9.8-6-9.8c-1.3,0-2.4,0.7-3.7,1.8
	c0.2-0.4,0.3-0.8,0.3-1.3c0-1.2-0.7-2-1.5-2.6c1.2-0.7,1.6-1.7,1.6-2.7c0-2.9-3.3-3.8-3.3-6.5c0-1,0.6-3,2.9-3
	c5.9,0,10.4,5.1,17.4,5.1c5.5,0,12-2.9,13.9-2.9c6.2,0,6.4,8.9,15.5,8.9c6.7,0,7.4-4.6,7.4-8.2c0-3.5-2.1-4.9-5-4.6
	c-2.2-1.4-3.9-0.8-5.8-1.4c2.8-1.2,7.5-2.7,8.7-2.8c3.1,0,5.4,11.3,15.3,11.3c0.2,0,0.4,0,0.6,0c-16.9,16.6-45,42.6-81.3,70.1
	c-60.5-45.9-98.5-87.9-99-88.3c-0.8-0.9-1.8-1.2-2.7-1.2C49.2,40.4,87.4,15.8,131.3,15.8 M139.3,23.4c0-1,7.6-1.5,28.4,4.3
	c15.3,4.2,29.2,9.1,28.4,12.2c-1,3.5-11.3-1.8-30.8-7.1C147.4,27.8,139.4,26.4,139.3,23.4 M15.8,131.3c0-17.5,3.9-34.1,10.9-49
	c0.1,3,1,7.6,4.9,11.8c0.4,0.5,37.6,41.5,88.3,80.3c-2.6,1.9-5.9,4.3-9,6.5c-0.1-0.4-0.2-0.8-0.4-1.2c-1.1-1.8-4.3-2.5-7.2-0.7
	c-4.5,2.8-4.6,7.1-3.8,11.9c-0.1,0-0.3,0-0.4,0c-1.2,0.2-2,0.9-2.7,2c0,0-1.5-0.2-2.9,2c0,0-1.6-0.1-2.9,2c0,0-1.5-0.2-2.9,2
	c0,0-1.6-0.1-2.9,2c0,0-1.6-0.2-2.9,2c0,0-1.5-0.2-2.9,2c0,0-1.6-0.2-2.9,2c0,0-1.5-0.2-2.9,2c-0.1,0-0.1,0-0.2,0
	c-2,0.3-3.3,2.1-3.5,4.5c-2.6-2.4-5.2-3.7-8.5-1.6c-2.3,1.5-4.4,5-2.7,9.2C32.5,199.8,15.8,167.4,15.8,131.3 M131.3,246.8
	c-24.6,0-47.4-7.7-66.1-20.8c1.3-0.2,2.5-0.8,3.4-1.4c3.4,2.7,13.5,12.9,30.2,2.4c13.6-8.6,13.6-20.6,12.1-29.8
	c6.4-4.3,14.8-10.1,20.5-14.3c5.7,4.1,14.1,10,20.5,14.3c-1.6,9.3-1.5,21.3,12.1,29.8c16.7,10.5,26.8,0.3,30.2-2.4
	c0.8,0.6,2,1.2,3.4,1.4C178.7,239.1,155.9,246.8,131.3,246.8 M204,221c1.6-4.2-0.4-7.8-2.7-9.2c-3.3-2.1-5.9-0.8-8.5,1.6
	c-0.3-2.4-1.6-4.1-3.5-4.5c-0.1,0-0.1,0-0.2,0c-1.4-2.2-2.9-2-2.9-2c-1.3-2.1-2.9-2-2.9-2c-1.3-2.1-2.9-2-2.9-2
	c-1.3-2.1-2.9-2-2.9-2c-1.3-2.1-2.9-2-2.9-2c-1.4-2.2-2.9-2-2.9-2c-1.3-2.1-2.9-2-2.9-2c-1.4-2.1-2.9-2-2.9-2
	c-0.6-1.1-1.5-1.8-2.7-2c-0.1,0-0.3,0-0.4,0c0.8-4.9,0.7-9.1-3.8-11.9c-2.9-1.8-6.1-1.1-7.2,0.7c-0.3,0.4-0.4,0.8-0.4,1.2
	c-3.1-2.2-6.3-4.5-9-6.5c50.7-38.8,87.9-79.8,88.3-80.3c3.9-4.1,4.8-8.8,4.9-11.8c7,14.9,10.9,31.5,10.9,49
	C246.8,167.4,230.1,199.8,204,221"/>
<path id="path248" inkscape:connector-curvature="0" class="st1" d="M159.7,201.5c-0.7,6.6,0.4,13.6,9.3,19.2
	c8.4,5.3,13.8,3.2,18-0.2c-0.9-0.2-1.6-1-2-2c0,0-1.9,0.7-2.9-2c0,0-1.9,0.6-2.9-2c0,0-1.9,0.6-2.9-2c0,0-1.8,0.7-2.9-2
	c0,0-1.9,0.6-2.9-2c0,0-1.8,0.6-2.9-2c0,0-1.9,0.6-2.9-2c0,0-1.9,0.6-2.9-2c-0.2,0-0.5,0.1-0.7,0.1
	C160.7,202.5,160.2,202.1,159.7,201.5 M160.8,203.8c0.1,0,0.3,0.1,0.4,0.1c0.1,0,0.1,0,0.2,0c1.4,2.1,2.9,2,2.9,2
	c1.3,2.1,2.9,2,2.9,2c1.3,2.1,2.9,2,2.9,2c1.3,2.1,2.9,2,2.9,2c1.3,2.1,2.9,2,2.9,2c1.4,2.2,2.9,2,2.9,2c1.3,2.1,2.9,2,2.9,2
	c1.4,2.2,2.9,2,2.9,2c0.2,0.3,0.4,0.6,0.6,0.8c-3.8,2.5-8.4,3.4-15.2-0.9C162.3,214.9,160.6,209.4,160.8,203.8"/>
<path id="path250" inkscape:connector-curvature="0" class="st1" d="M93.5,220.7c8.9-5.6,10.1-12.5,9.3-19.2c-0.4,0.6-1,1-1.7,1.1
	c-0.2,0-0.5,0-0.7-0.1c-1,2.6-2.9,2-2.9,2c-0.9,2.6-2.9,2-2.9,2c-1,2.6-2.9,2-2.9,2c-0.9,2.6-2.9,2-2.9,2c-1,2.7-2.9,2-2.9,2
	c-1,2.6-2.9,2-2.9,2c-0.9,2.6-2.9,2-2.9,2c-1,2.7-2.9,2-2.9,2c-0.4,1.1-1.1,1.8-2,2C79.7,223.9,85.1,226,93.5,220.7 M78.2,219.7
	c0,0,1.5,0.2,2.9-2c0,0,1.6,0.1,2.9-2c0,0,1.5,0.2,2.9-2c0,0,1.6,0.1,2.9-2c0,0,1.6,0.2,2.9-2c0,0,1.5,0.2,2.9-2c0,0,1.6,0.1,2.9-2
	c0,0,1.5,0.2,2.9-2c0.1,0,0.1,0,0.2,0c0.1,0,0.3-0.1,0.4-0.1c0.2,5.6-1.5,11.2-8.9,15.9c-6.8,4.3-11.5,3.4-15.2,0.9
	C77.8,220.3,78.1,220,78.2,219.7"/>
<path id="path252" inkscape:connector-curvature="0" class="st1" d="M145,136.8c28.4-10.5,46.8-20.3,45-25c-1.8-4.8-15,2-49.4,14.8
	c-16.6,6.1-17.6,7.7-16.5,10.7C125,139.7,128,143.1,145,136.8 M141,127.7c29.7-11,46.7-18.6,47.9-15.5c1.4,3.7-22.6,15.4-44.3,23.5
	c-16,5.9-18.7,2.9-19.3,1.2C124.4,134.5,127.1,132.9,141,127.7"/>
<path id="path254" inkscape:connector-curvature="0" class="st2" d="M131.3,3.3c-70.7,0-128,57.3-128,128c0,70.7,57.3,128,128,128
	c70.7,0,128-57.3,128-128C259.3,60.6,202,3.3,131.3,3.3 M131.3,250.1c-65.6,0-118.8-53.2-118.8-118.8c0-65.6,53.2-118.8,118.8-118.8
	c65.6,0,118.8,53.2,118.8,118.8C250.1,196.9,196.9,250.1,131.3,250.1"/>
<path id="path256" inkscape:connector-curvature="0" class="st2" d="M161.6,201.4c0.5,0.1,0.9-0.1,1.4-0.5c0.4,3.2,2.2,2.8,2.9,2
	c0.4,3.2,2.2,2.8,2.9,2c0.4,3.2,2.2,2.8,2.9,2c0.4,3.2,2.2,2.8,2.9,2c0.4,3.2,2.2,2.8,2.9,2c0.4,3.2,2.2,2.8,2.9,2
	c0.4,3.2,2.2,2.8,2.9,2c0.4,3.2,2.2,2.8,2.9,2c0.1,1.4,0.7,2.4,1.5,2.5c1.2,0.2,2.4-1.4,2.8-3.6c0.4-2.2-0.3-4.1-1.4-4.3
	c-0.5-0.1-0.9,0.1-1.4,0.5c-0.4-3.2-2.2-2.8-2.9-2c-0.4-3.2-2.2-2.8-2.9-2c-0.4-3.2-2.2-2.8-2.9-2c-0.4-3.2-2.2-2.8-2.9-2
	c-0.4-3.2-2.2-2.8-2.9-2c-0.4-3.2-2.2-2.8-2.9-2c-0.4-3.2-2.2-2.8-2.9-2c-0.4-3.2-2.2-2.8-2.9-2c-0.1-1.4-0.7-2.4-1.5-2.5
	c-1.1-0.2-2.4,1.4-2.8,3.6C159.8,199.3,160.5,201.2,161.6,201.4"/>
<path id="path258" inkscape:connector-curvature="0" class="st2" d="M75.1,219.3c0.8-0.1,1.4-1.2,1.5-2.5c0.7,0.8,2.5,1.3,2.9-2
	c0.7,0.8,2.5,1.2,2.9-2c0.7,0.8,2.5,1.2,2.9-2c0.7,0.8,2.5,1.2,2.9-2c0.7,0.8,2.5,1.2,2.9-2c0.7,0.8,2.5,1.3,2.9-2
	c0.7,0.8,2.5,1.2,2.9-2c0.7,0.8,2.5,1.2,2.9-2c0.4,0.4,0.9,0.6,1.4,0.6c1.2-0.2,1.8-2.1,1.4-4.3c-0.4-2.2-1.6-3.8-2.8-3.6
	c-0.8,0.1-1.4,1.2-1.5,2.5c-0.7-0.8-2.5-1.2-2.9,2c-0.7-0.8-2.5-1.2-2.9,2c-0.7-0.8-2.5-1.2-2.9,2c-0.7-0.8-2.5-1.2-2.9,2
	c-0.7-0.8-2.5-1.2-2.9,2c-0.7-0.8-2.5-1.2-2.9,2c-0.7-0.8-2.5-1.2-2.9,2c-0.7-0.8-2.5-1.2-2.9,2c-0.4-0.4-0.9-0.6-1.4-0.6
	c-1.2,0.2-1.8,2.1-1.4,4.3C72.7,217.8,74,219.5,75.1,219.3"/>
<path id="path260" inkscape:connector-curvature="0" class="st2" d="M200,213.8c-7.2-4.6-12.1,20.2-31.6,7.9
	c-21.4-13.5-0.4-34.2-10.5-40.6c-1.7-1.1-3.4-0.7-3.8-0.1c-0.4,0.6,0.7,1.3,1.6,2.4c3.7,4.7-12.2,27.7,9.4,41.4
	c18.5,11.7,27.5-4.2,29-3.2c1.2,0.8,4.2,3.9,6.8,0C203.2,218,201.7,214.9,200,213.8"/>
<path id="path262" inkscape:connector-curvature="0" class="st2" d="M106.8,183.5c0.9-1.1,2-1.8,1.6-2.4c-0.4-0.6-2-1-3.8,0.1
	c-10.1,6.4,11,27.1-10.5,40.6c-19.4,12.3-24.3-12.5-31.5-7.9c-1.7,1.1-3.2,4.1-1,7.7c2.5,4,5.5,0.8,6.8,0c1.5-1,10.5,14.9,29,3.2
	C119,211.2,103.1,188.2,106.8,183.5"/>
<path id="path264" inkscape:connector-curvature="0" class="st3" d="M69.1,89.7c-0.4,0-0.9,0.7-0.9,1c0,0.3,0.7,1.2,1.2,1.2
	c0.3,0,0.7-0.1,0.7-0.4C70.2,90.5,70.1,89.7,69.1,89.7"/>
<path id="path266" inkscape:connector-curvature="0" class="st4" d="M131.3,1.6C59.8,1.6,1.6,59.8,1.6,131.3
	C1.6,202.8,59.8,261,131.3,261c71.5,0,129.7-58.2,129.7-129.6C261,59.8,202.8,1.6,131.3,1.6 M131.3,259.3c-70.7,0-128-57.3-128-128
	c0-70.7,57.3-128,128-128c70.7,0,128,57.3,128,128C259.3,202,202,259.3,131.3,259.3"/>
<path id="path268" inkscape:connector-curvature="0" class="st4" d="M131.3,12.5c-65.6,0-118.8,53.2-118.8,118.8
	c0,65.6,53.2,118.8,118.8,118.8c65.6,0,118.8-53.2,118.8-118.8C250.1,65.7,196.9,12.5,131.3,12.5 M131.3,248.5
	c-64.6,0-117.1-52.5-117.1-117.2c0-64.6,52.6-117.1,117.1-117.1c64.6,0,117.2,52.6,117.2,117.1C248.4,195.9,195.9,248.5,131.3,248.5
	"/>
<path id="path270" inkscape:connector-curvature="0" class="st4" d="M235.9,82.3c-0.1,3-1,7.6-4.9,11.8
	c-0.5,0.5-37.6,41.5-88.4,80.3c2.6,1.9,5.9,4.3,9,6.5c0.1-0.4,0.2-0.8,0.4-1.2c1.1-1.8,4.3-2.5,7.2-0.7c4.5,2.8,4.6,7.1,3.8,11.9
	c0.1,0,0.3,0,0.4,0.1c1.1,0.2,2,0.9,2.7,2c0,0,1.5-0.2,2.9,2c0,0,1.6-0.1,2.9,2c0,0,1.5-0.2,2.9,2c0,0,1.6-0.1,2.9,2
	c0,0,1.6-0.2,2.9,2c0,0,1.5-0.1,2.9,2c0,0,1.6-0.1,2.9,2c0,0,1.5-0.2,2.9,2c0.1,0,0.1,0,0.2,0c2,0.3,3.2,2.1,3.5,4.5
	c2.6-2.4,5.2-3.7,8.5-1.6c2.3,1.5,4.4,5,2.7,9.2c26.1-21.2,42.8-53.5,42.8-89.7C246.8,113.8,242.9,97.2,235.9,82.3"/>
<path id="path272" inkscape:connector-curvature="0" class="st4" d="M119.2,99.8c-3.8,0-5.3,3-5.4,3.6c0,0.7,0.6,1.5,0.7,2.5
	c0,0,1.5-1.5,3.2-1.5c3.3,0,6.2,5.4,7.1,8.4c0.3-1.4,0.7-3.2,0.7-5.6C125.6,102.5,122.3,99.8,119.2,99.8"/>
<path id="path274" inkscape:connector-curvature="0" class="st4" d="M163.9,226.9c-13.6-8.6-13.6-20.6-12-29.9
	c-6.4-4.3-14.8-10.1-20.5-14.2c-5.7,4.1-14.1,10-20.5,14.2c1.6,9.3,1.5,21.3-12,29.9c-16.7,10.5-26.8,0.3-30.2-2.4
	c-0.8,0.6-2,1.2-3.4,1.4c18.7,13.1,41.6,20.8,66.1,20.8c24.6,0,47.4-7.7,66.1-20.8c-1.3-0.2-2.5-0.8-3.4-1.4
	C190.7,227.3,180.5,237.5,163.9,226.9"/>
<path id="path276" inkscape:connector-curvature="0" class="st4" d="M97.4,93.5c-2.1,0-2.8,2.1-2.8,2.7c0,4.9,3.7,2.9,5.9,5.9
	c0.8-2-1.2-2.9-1.2-5.1c0-0.6,0.3-1.2,0.3-1.6C99.6,94.2,98.5,93.5,97.4,93.5"/>
<path id="path278" inkscape:connector-curvature="0" class="st4" d="M61.3,211.7c3.3-2.1,5.9-0.8,8.5,1.6c0.3-2.4,1.6-4.1,3.5-4.5
	c0.1,0,0.1,0,0.2,0c1.4-2.1,2.9-2,2.9-2c1.3-2.1,2.9-2,2.9-2c1.3-2.1,2.9-2,2.9-2c1.3-2.1,2.9-2,2.9-2c1.3-2.1,2.9-2,2.9-2
	c1.3-2.2,2.9-2,2.9-2c1.3-2.1,2.9-2,2.9-2c1.4-2.1,2.9-2,2.9-2c0.6-1.1,1.5-1.8,2.7-2c0.1,0,0.3,0,0.4-0.1
	c-0.8-4.9-0.7-9.1,3.8-11.9c2.9-1.8,6.1-1.1,7.2,0.7c0.2,0.4,0.4,0.8,0.4,1.2c3.1-2.2,6.3-4.5,9-6.5c-50.7-38.8-87.9-79.8-88.3-80.3
	c-4-4.1-4.9-8.8-4.9-11.8c-7,14.9-10.9,31.5-10.9,49c0,36.2,16.7,68.5,42.8,89.7C56.9,216.7,59,213.2,61.3,211.7"/>
<path id="path280" inkscape:connector-curvature="0" class="st4" d="M131.3,166c36.2-27.5,64.4-53.5,81.2-70.1c-0.2,0-0.4,0-0.6,0
	c-9.9,0-12.2-11.3-15.3-11.3c-1.2,0.1-5.9,1.6-8.7,2.8c1.9,0.6,3.6,0,5.8,1.4c2.8-0.3,5,1.1,5,4.6c0,3.5-0.8,8.1-7.4,8.1
	c-9.1,0-9.3-8.9-15.5-8.9c-1.9,0-8.4,2.9-13.9,2.9c-7,0-11.5-5.1-17.4-5.1c-2.3,0-2.9,2-2.9,3c0,2.7,3.3,3.6,3.3,6.5
	c0,0.9-0.4,2-1.6,2.7c0.8,0.6,1.6,1.4,1.6,2.6c0,0.5-0.2,0.9-0.4,1.3c1.3-1,2.4-1.7,3.7-1.7c4.2,0,6,7.1,6,9.8
	c0,4.4-4.1,4.8-7.8,4.8c-3.4,0-10.9,3.1-13.9,3.1c-3.1,0-7.7-2.6-8.2-5.9c-1.2,1.6-3.6,2.7-6.5,2.7c-3.2,0-9.4-3.6-13-3.6
	c-2.8,0.3-7.8-0.1-7.8-6.7c0-0.4,0.1-0.7,0.1-1.1c-4.1,2.1-9.7,0.4-9.7,0.4c-6.9,3.4-7.9-0.4-7.9-1.9c-1.4,1.1-3.3,3.2-5.7,3.2
	c-4,0-5-4-7.4-6.2c-0.9-0.9-3.4-1.9-4.7-3.3c-2.2-2.2-4.3-5.9-11.8-11.9c-2.1-1.7-3.8-7.6-3.8-13c0-10,1.5-20.1,19.6-24.7
	c18.5-4.7,15-28.3,49.4-28.3c9.7,0,17.7,1.8,25.8,4.7c-2.2-1.1-3.2-2.3-2.7-3.9c0.4-1.5,1.6-4.3,29.9,3.4
	c17.1,4.7,30.5,9.2,29.3,13.7c-1.5,5.3-11.6-0.6-32.4-6.3c-8.3-2.3-15-3.8-19.6-5.3c14.4,5.8,30,14.6,56.8,22.3
	c9.4,2.4,15.4,2.6,15.4,7.5c0,1.1-0.5,1.8-1,2.4c5.4-0.4,7.3,6.6-4.3,6.6c-6.5,0-11.3-2.5-11.3-6c0-1.8,0.9-2.8,2.1-3.5
	c-2.7-0.8-6-1.5-8.8-1.7c0.4,1.4,0.9,3.3,0.9,5.6c0,4.5-1,6.5-1.4,9.1c2-0.4,4-1.3,5.5-1.3c6.6,0,2.9,9.7,11,10.7
	c3.1,0.6,3.1,2.9,3.1,2.9c3.1-0.6,5.2-0.3,5.2,5.8c0,0.4,0,0.8-0.1,1.1c7.6-7.6,11.7-12.2,11.8-12.3c0.8-0.9,1.8-1.2,2.7-1.2
	c-19.6-36.1-57.8-60.7-101.6-60.7c-43.9,0-82.1,24.6-101.7,60.7c0.9,0,1.9,0.3,2.7,1.2C32.8,78.1,70.8,120,131.3,166 M140.6,126.6
	c34.5-12.8,47.7-19.6,49.4-14.8c1.7,4.7-16.6,14.5-45,25c-17,6.3-20,2.9-20.9,0.5C123,134.2,123.9,132.7,140.6,126.6"/>
<path id="path282" inkscape:connector-curvature="0" class="st4" d="M181.5,217.7c0,0-1.6,0.1-2.9-2c0,0-1.5,0.2-2.9-2
	c0,0-1.6,0.1-2.9-2c0,0-1.6,0.2-2.9-2c0,0-1.5,0.2-2.9-2c0,0-1.6,0.1-2.9-2c0,0-1.5,0.2-2.9-2c-0.1,0-0.1,0-0.2,0
	c-0.1,0-0.3-0.1-0.4-0.1c-0.2,5.6,1.5,11.2,8.9,15.9c6.8,4.3,11.5,3.4,15.2,0.9c-0.2-0.3-0.4-0.5-0.6-0.8
	C184.4,219.7,182.9,219.9,181.5,217.7"/>
<path id="path284" inkscape:connector-curvature="0" class="st4" d="M98.3,205.8c-1.3,2.1-2.9,2-2.9,2c-1.3,2.1-2.9,2-2.9,2
	c-1.3,2.1-2.9,2-2.9,2c-1.3,2.1-2.9,2-2.9,2c-1.4,2.2-2.9,2-2.9,2c-1.3,2.1-2.9,2-2.9,2c-1.4,2.2-2.9,2-2.9,2
	c-0.2,0.3-0.4,0.6-0.6,0.8c3.8,2.5,8.4,3.4,15.2-0.9c7.4-4.7,9.1-10.3,8.9-15.9c-0.1,0-0.3,0.1-0.4,0.1c-0.1,0-0.1,0-0.2,0
	C99.8,206,98.3,205.8,98.3,205.8"/>
<path id="path286" inkscape:connector-curvature="0" class="st4" d="M71.7,74.3c-1.6,0-2.1,0.7-2.1,1.1c0,0.4,1.8,4.6,2.8,4.6
	c1.4,0,3.7-2.7,3.7-3.8C76.2,75.1,73.4,74.3,71.7,74.3"/>
<path id="path288" inkscape:connector-curvature="0" class="st4" d="M72.7,103.7c0,0.7,1.3,1.7,1.3,1.7s1.4-1.9,1.4-3.2
	C75.4,101.7,72.7,102.1,72.7,103.7"/>
<path id="path290" inkscape:connector-curvature="0" class="st4" d="M72.9,67.3c0-4.2-3.4-8-9.8-8c-6.7,0-11.2,3.8-11.2,6
	c0,1.8,3-1.9,7.3-1.9c2.6,0,5.2,1.5,5.2,3.6c0,1.7-2.1,3-2.1,4.4c0,1,0.7,3.1,3.2,3.1C69.4,74.5,72.9,71.5,72.9,67.3"/>
<path id="path292" inkscape:connector-curvature="0" class="st4" d="M144.4,89.1c6.4,0,10.8,5.1,17.4,5.1c5.6,0,11.7-2.9,13.9-2.9
	c7.1,0,7,8.9,15.6,8.9c4.4,0,6.2-2,6.2-6.9c0-3.3-2-3.4-3.7-3.4c-0.7,0-1.5-1-3.6-1c-2.3,0-4.3-1-4.8-1.6c1.7-1.3,9.8-4,11.3-4
	c4.6,0,5.6,11.3,15.3,11.3c2.6,0,5.3-0.7,5.3-5.8c0-3.9-0.7-5.1-2.7-4.8c-1.5,0.3-2.8,0.5-2.8,0.5c0.7-1.4,0.5-2.7-1.7-3.1
	c-9.1-1.4-5.5-10.7-10.8-10.7c-1.8,0-6.8,2.5-6.8,0.7c0-1.9,1.5-4.8,1.5-9.7c0-3.2-1.3-6.9-1.3-6.9c4.6,0,11.3,1.7,14.2,3
	c-1.9,0.4-4.7,1-4.7,3.5c0,2.7,4.4,4.8,10,4.8c9.1,0,8.1-4.1,4.8-4.1c-3.5,0-4.7-0.3-5.2-0.6c1.6-0.6,4.5-0.7,4.5-3.1
	c0-4-5.3-3.8-14.5-6.3c-40.9-11.2-58.6-28.7-86.6-28.7c-34,0-29.6,23.3-49.1,28.2C48.8,56,47.4,65.3,47.4,75.1
	c0,5.3,1.8,10.7,3.4,12c4,3.4,6.8,5.7,11.9,12c0.9,1.1,3.6,2.2,4.7,3.3c2.3,2.3,3.3,5.8,6.5,5.8c2.8,0,4.9-4,8.7-5.1
	c-0.9,0.9-1.8,1.9-1.8,3.2c0,2.8,3.2,2.1,6.6,0.5c7.5,1.9,10.1-0.1,12.2-2.6c0.4-0.5,0.3-1.2-0.1-1.6c-2.4-2.2-6-1-6-6.4
	c0-1.1,0.9-4,4-4c1.7,0,4,1.4,3.2,4.1c-0.5,1.7,1.3,2.9,1.3,4.2c0,4.9-3.7,5.2-3.7,8.2c0,5.5,4.1,5.7,6.5,5.5
	c3.8,0,10.3,3.6,13.1,3.6c3.5,0,6.1-1.6,6.1-3.8c0-1.7-3.4-8.6-6.2-8.6c-1.6,0-2.7,1.9-3.7,1.9c-0.7,0-1-0.2-1-0.3
	c0.8-1.4-0.4-2.2-0.4-3.8c0-1.1,2.1-4.9,6.6-4.9c3.7,0,7.6,3.3,7.6,8.5c0,4.7-1.4,7.8-1.4,8.9c0,2.8,4.4,5.3,7,5.3
	c2.9,0,10.1-3.1,13.9-3.1c4.1,0,6.5-0.6,6.5-3.5c0-2.6-1.8-8.5-4.8-8.5c-2.6,0-6.4,5.9-11.3,5.9c0.2-0.6,1.1-1.8,1.5-2.1
	c3.1-1.5,5.3-2.8,5.3-4.6c0-1.5-2.1-2.1-3.2-3.1c2.1-0.2,3.3-0.7,3.3-2.2c0-2.2-3.3-3.1-3.3-6.5C140.3,91.3,141.7,89.1,144.4,89.1
	 M139.1,93.4c0,3.8,3.3,5.1,3.3,6.5c0,1.6-3.6,0.3-3.6,1.9c0,1.6,3.6,2.6,3.6,3.4c0,1.4-3.9,3.1-4.7,3.5c-0.7,0.4-2.2,2.5-2.2,3.4
	c0,0.9,0.7,1,1.3,1c5.3,0,9.5-5.9,11.3-5.9c1.8,0,3.5,4.8,3.5,7.3c0,2.5-3.1,2.3-5.8,2.3c-2.7,0-11.1,3.1-13.4,3.1
	c-2.3,0-5.8-2.2-5.8-4c0-1,1.4-3.9,1.4-8.9c0-6-4.5-9.8-8.8-9.8c-5.2,0-7.9,4.2-7.9,6.1c0,1.6,1,2.6,0.6,3.2
	c-0.6,1.1,0.4,2.1,2.1,2.1c1.5,0,2.6-1.9,3.7-1.9c1.8,0,5,6,5,7.4c0,1.4-2.2,2.5-4.9,2.5c-2.2,0-8.9-3.6-13.1-3.6
	c-1.8,0.1-5.1,0.5-5.1-4.2c0-2.3,3.7-2.9,3.7-8.2c0-1.8-1.6-2.9-1.3-3.9c1-3.1-1.3-5.8-4.4-5.8c-3.8,0-5.3,3.5-5.3,5.2
	c0,6.3,4.8,5.7,6.4,7.3c-3.6,4.8-9.7,2.1-11.2,2.1c-0.9,0-5.2,2.7-5.2,0.7c0-2.3,5.7-4.6,2.2-4.6c-5.2,0-7.9,5.3-10.3,5.3
	c-2.4,0-3.1-3-5.6-5.5c-1.7-1.7-3.2-1.8-4.7-3.3c-1.8-1.8-4.2-5.8-12-12.1c-1-0.8-2.9-5.5-2.9-11c0-9.9,1.5-18.1,17.7-22.3
	c20.5-5.2,15.1-28.2,48.8-28.2c27.4,0,42.6,16.2,86.2,28.6c8.8,2.5,13.6,2.3,13.6,5.1c0,1.9-4.7,1.1-4.7,2.9c0,1.8,4,1.9,6.7,1.9
	c2.6,0,0.5,1.6-4.8,1.6c-5.3,0-8.8-1.9-8.8-3.5c0-2.7,6.1-2.1,6.1-3.2c0-1.5-10.8-4.6-16.9-4.6c-2.8,0,0.1,3,0.1,8.2
	c0,4.6-1.5,7.6-1.5,9.7c0,3.9,6.3,0.5,8.1,0.5c3.8,0,0.9,9.1,10.6,10.7c2.1,0.3,0.4,1.5,0.4,2.7c0,1.2,3.7,0.1,4.4,0
	c0.7-0.1,1.4-0.5,1.4,3.6c0,4-1.7,4.5-4,4.5c-9.1,0-9.6-11.3-15.3-11.3c-1.6,0-12.7,3.6-12.7,5.1c0,1.5,3.3,3.1,6.3,3.1
	c2,0,2.2,1,3.6,1c1.4,0,2.5-0.2,2.5,2.1c0,4.3-1.3,5.7-5,5.7c-7.8,0-7.7-8.9-15.6-8.9c-2.6,0-8.5,2.9-13.9,2.9
	c-6.4,0-10.6-5.1-17.4-5.1C140.9,87.9,139.1,90.7,139.1,93.4"/>
<path id="path294" inkscape:connector-curvature="0" class="st4" d="M69.1,86.3c0-1.9,2.3-3.6,0.7-3.6c-2.9,0-1.7,7.5-4,10.7
	c0,0-0.5,1.3,1.3,1.3c2.6,0,5.2-2.6,5.2-4.2C72.3,87.9,69.1,88.5,69.1,86.3 M69.5,92c-0.5,0-1.2-1-1.2-1.2c0-0.3,0.4-1,0.9-1
	c1,0,1,0.8,1,1.8C70.1,91.8,69.8,92,69.5,92"/>
<path id="path296" inkscape:connector-curvature="0" class="st4" d="M200.6,212.8c-3.5-2.2-6.1,0.4-9.2,3.5c0-0.1,0.1-0.3,0.1-0.4
	c0.5-3-0.5-5.5-2.4-5.8c-0.2,0-0.5,0-0.7,0.1c-1-2.6-2.9-2-2.9-2c-0.9-2.6-2.9-2-2.9-2c-1-2.6-2.9-2-2.9-2c-0.9-2.6-2.9-2-2.9-2
	c-1-2.7-2.9-2-2.9-2c-1-2.6-2.9-2-2.9-2c-0.9-2.6-2.9-2-2.9-2c-1-2.7-2.9-2-2.9-2c-0.4-1.1-1.2-1.9-2.2-2.1
	c-0.6-0.1-1.3,0.1-1.8,0.4c1.1-5.3,1.5-9.9-2.8-12.6c-2.2-1.4-4.7-1-5.5,0.3c-1,1.5,0.9,2.9,1.7,3.9c2.9,3.7-12.3,27.8,9.8,41.6
	c16.8,10.6,25.9-0.2,29.4-2.9c1.7,1.3,5.3,3.6,8-0.8C204.2,218.8,203.6,214.7,200.6,212.8 M163,193.5c0.8,0.1,1.4,1.2,1.5,2.5
	c0.6-0.8,2.5-1.2,2.9,2c0.7-0.8,2.5-1.2,2.9,2c0.7-0.8,2.5-1.2,2.9,2c0.7-0.8,2.5-1.2,2.9,2c0.7-0.8,2.5-1.2,2.9,2
	c0.7-0.8,2.5-1.2,2.9,2c0.7-0.8,2.5-1.3,2.9,2c0.7-0.8,2.5-1.2,2.9,2c0.4-0.4,0.9-0.6,1.4-0.6c1.2,0.2,1.8,2.1,1.4,4.3
	c-0.4,2.2-1.6,3.8-2.8,3.6c-0.8-0.1-1.4-1.2-1.5-2.5c-0.7,0.8-2.5,1.2-2.9-2c-0.7,0.8-2.5,1.2-2.9-2c-0.7,0.8-2.5,1.2-2.9-2
	c-0.7,0.8-2.5,1.3-2.9-2c-0.7,0.8-2.5,1.2-2.9-2c-0.7,0.8-2.5,1.3-2.9-2c-0.7,0.8-2.5,1.2-2.9-2c-0.7,0.8-2.5,1.2-2.9-2
	c-0.4,0.4-0.9,0.6-1.4,0.6c-1.2-0.2-1.8-2.1-1.4-4.3C160.6,194.9,161.8,193.3,163,193.5 M187.1,220.5c-4.2,3.5-9.6,5.6-18,0.2
	c-8.9-5.6-10.1-12.5-9.3-19.2c0.4,0.6,1,1,1.7,1.1c0.2,0,0.5,0,0.7-0.1c1,2.6,2.9,2,2.9,2c0.9,2.6,2.9,2,2.9,2c1,2.6,2.9,2,2.9,2
	c0.9,2.6,2.9,2,2.9,2c1.1,2.7,2.9,2,2.9,2c1,2.6,2.9,2,2.9,2c0.9,2.6,2.9,2,2.9,2c1,2.7,2.9,2,2.9,2
	C185.5,219.5,186.2,220.2,187.1,220.5 M201,221.5c-2.5,4-5.5,0.8-6.8,0c-1.5-1-10.5,14.9-29,3.2c-21.6-13.6-5.7-36.6-9.4-41.4
	c-0.9-1.1-2-1.8-1.6-2.4c0.4-0.6,2-1,3.8,0.1c10.1,6.4-11,27.1,10.5,40.6c19.4,12.3,24.3-12.5,31.6-7.9
	C201.7,214.9,203.2,218,201,221.5"/>
<path id="path298" inkscape:connector-curvature="0" class="st4" d="M98.1,225.9c22-13.9,6.9-38,9.8-41.6c0.8-1,2.7-2.3,1.7-3.9
	c-0.8-1.3-3.3-1.7-5.5-0.3c-4.3,2.7-3.8,7.2-2.8,12.6c-0.6-0.4-1.2-0.5-1.9-0.4c-1,0.2-1.7,0.9-2.2,2.1c0,0-1.9-0.7-2.9,2
	c0,0-1.9-0.6-2.9,2c0,0-1.9-0.6-2.9,2c0,0-1.8-0.7-2.9,2c0,0-1.9-0.6-2.9,2c0,0-1.9-0.6-2.9,2c0,0-1.9-0.6-2.9,2c0,0-1.8-0.6-2.8,2
	c-0.2,0-0.5-0.1-0.7-0.1c-1.9,0.3-2.9,2.8-2.4,5.8c0,0.1,0.1,0.3,0.1,0.5c-3.1-3.2-5.8-5.8-9.2-3.6c-3,1.9-3.6,6-1.4,9.4
	c2.8,4.4,6.3,2.1,8,0.8C72.2,225.6,81.3,236.5,98.1,225.9 M73.8,211.3c0.5-0.1,0.9,0.1,1.4,0.6c0.4-3.2,2.2-2.8,2.9-2
	c0.4-3.2,2.2-2.8,2.9-2c0.4-3.2,2.2-2.8,2.9-2c0.4-3.2,2.2-2.8,2.9-2c0.4-3.2,2.2-2.8,2.9-2c0.4-3.2,2.2-2.8,2.9-2
	c0.4-3.2,2.2-2.8,2.9-2c0.4-3.2,2.2-2.8,2.9-2c0.1-1.4,0.7-2.4,1.5-2.5c1.2-0.2,2.4,1.4,2.8,3.6c0.4,2.2-0.3,4.1-1.4,4.3
	c-0.5,0.1-0.9-0.1-1.4-0.6c-0.4,3.2-2.2,2.8-2.9,2c-0.4,3.2-2.2,2.8-2.9,2c-0.4,3.2-2.2,2.8-2.9,2c-0.4,3.2-2.2,2.8-2.9,2
	c-0.4,3.2-2.2,2.8-2.9,2c-0.4,3.2-2.2,2.8-2.9,2c-0.4,3.2-2.2,2.8-2.9,2c-0.4,3.2-2.2,2.8-2.9,2c-0.1,1.4-0.7,2.4-1.5,2.5
	c-1.2,0.2-2.4-1.4-2.8-3.6C72,213.5,72.6,211.5,73.8,211.3 M102.9,201.5c0.7,6.6-0.4,13.6-9.3,19.2c-8.5,5.3-13.8,3.2-18-0.2
	c0.9-0.2,1.6-1,2-2c0,0,1.9,0.7,2.9-2c0,0,1.9,0.6,2.9-2c0,0,1.9,0.6,2.9-2c0,0,1.8,0.7,2.9-2c0,0,1.9,0.6,2.9-2c0,0,1.8,0.6,2.9-2
	c0,0,1.9,0.6,2.9-2c0,0,1.9,0.6,2.9-2c0.2,0,0.5,0.1,0.7,0.1C101.9,202.5,102.4,202.1,102.9,201.5 M68.4,221.6
	c-1.2,0.8-4.3,3.9-6.8,0c-2.2-3.6-0.7-6.6,1-7.7c7.2-4.6,12.1,20.2,31.6,7.9c21.4-13.5,0.4-34.2,10.5-40.6c1.7-1.1,3.4-0.7,3.8-0.1
	c0.4,0.6-0.7,1.3-1.6,2.4c-3.8,4.7,12.2,27.7-9.4,41.4C78.9,236.5,69.9,220.6,68.4,221.6"/>
<path id="path300" inkscape:connector-curvature="0" class="st4" d="M122.1,174.4c-4.5,3.3-9.7,7-14.4,10.4l2.1,11.5
	c6.8-4.5,15-10.2,21.5-14.9c6.5,4.7,14.7,10.4,21.5,14.9l2.1-11.5c-4.7-3.3-9.9-7.1-14.4-10.4c51.3-39,89.1-80.6,89.5-81.1
	c5.9-6.1,4.5-13.6,4.4-13.8c-0.2-1.6-1.9-2.4-3.3-1c-0.4,0.5-38.8,42.8-99.9,89c-61.1-46.2-99.5-88.6-99.9-89
	c-1.4-1.5-3.1-0.6-3.3,1c0,0.3-1.5,7.7,4.4,13.8C33,93.8,70.7,135.4,122.1,174.4 M29.4,79.6c0.2-1.3,1.1-0.3,1.1-0.3
	s38.5,42.8,100.8,89.8c62.3-47,100.8-89.8,100.8-89.8s1-1,1.1,0.3c0,0,1.4,7.1-4.1,12.8c0,0-38.2,42.4-90.6,82
	c4.9,3.6,9.9,7.2,15.1,10.9l-1.6,8.8c-7.1-4.7-14-9.5-20.7-14.4c-6.7,4.9-13.6,9.7-20.6,14.4l-1.6-8.8c5.2-3.6,10.2-7.3,15.1-10.9
	c-52.4-39.6-90.6-82-90.6-82C28,86.7,29.4,79.6,29.4,79.6"/>
<path id="path302" inkscape:connector-curvature="0" class="st4" d="M144.6,135.7c21.7-8,45.7-19.7,44.3-23.5
	c-1.1-3.1-18.2,4.6-47.8,15.5c-13.8,5.1-16.6,6.8-15.7,9.1C125.9,138.5,128.5,141.6,144.6,135.7 M141.4,128.9
	c24.8-9.2,45.7-17.6,46.2-16.3c1,2.8-28.5,16.3-43.5,21.9c-15.1,5.6-17.4,2.9-17.7,1.9C125.8,134.7,130.3,133,141.4,128.9"/>
<path id="path304" inkscape:connector-curvature="0" class="st4" d="M196.1,39.8c0.8-3.1-13.1-8-28.4-12.2
	c-20.9-5.7-28.4-5.2-28.4-4.3c0.1,3,8,4.4,26,9.3C184.8,38.1,195.2,43.3,196.1,39.8 M167.4,28.9c13.4,3.7,28,8.9,27.5,10.6
	c-0.5,1.7-11-3-29.3-8c-18.3-5-23.7-6.4-25.1-7.7C140,23.3,154,25.2,167.4,28.9"/>
</svg>
