<?xml version="1.0" encoding="utf-8"?>
<!-- Generator: Adobe Illustrator 21.1.0, SVG Export Plug-In . SVG Version: 6.00 Build 0)  -->
<!DOCTYPE svg PUBLIC "-//W3C//DTD SVG 1.1//EN" "http://www.w3.org/Graphics/SVG/1.1/DTD/svg11.dtd">
<svg version="1.1" id="Layer_1" xmlns="http://www.w3.org/2000/svg" xmlns:xlink="http://www.w3.org/1999/xlink" x="0px" y="0px"
	 width="232.6px" height="144.9px" viewBox="0 0 232.6 144.9" style="enable-background:new 0 0 232.6 144.9;" xml:space="preserve"
	>
<style type="text/css">
	.st0{fill:#FFFFFF;}
	.st1{fill:#231F20;}
	.st2{fill:#E13A3E;}
</style>
<g id="Layer_7">
</g>
<g id="Layer_6">
	<g id="Layer_2">
		<g>
			<path class="st0" d="M63.5,138c-9.5,0-18-0.7-25.3-2l-3.5-0.6l3-2l6.7-4.3c-3.9-0.4-9.9-1.5-16-4.2c-9.4-4.2-20.5-13-20.5-31.6
				c0-13.3,5.6-25.9,16.7-37.3c9.8-10.1,23.6-19,41-26.7C96,16,136.1,7.7,170.1,7.7c9.9,0,18.7,0.7,26.2,2.1l3.5,0.7l-3,1.9
				l-6.6,4.3c3.8,0.5,9.8,1.7,15.8,4.5c9.3,4.3,20.3,13.2,20.3,31.6c0,13.4-5.7,26-17,37.4c-9.9,10-23.8,19-41.4,26.6
				C137.5,129.9,97.4,138,63.5,138L63.5,138z"/>
			<path class="st0" d="M170.1,9.1c9.6,0,18.5,0.7,25.9,2.1l-10.1,6.5c0,0,38.9,0.9,38.9,35c-0.2,55.2-99.3,83.9-161.4,83.9
				c-9.3,0-17.8-0.6-25-1.9l10.2-6.6c0,0-39.4-0.2-39.4-34.7C9.3,38.5,107.3,9.1,170.1,9.1 M170.1,6.2c-34.2,0-74.4,8.4-105.1,21.8
				c-17.6,7.7-31.5,16.8-41.4,27C12.2,66.7,6.5,79.6,6.5,93.3c0,15.3,7.4,26.7,21.4,32.9c4.5,2,9,3.1,12.6,3.8l-3.5,2.3l-6,3.9
				l7,1.3c7.3,1.3,15.9,2,25.5,2c34.1,0,74.4-8.2,105-21.5c17.7-7.7,31.8-16.7,41.8-26.9c11.5-11.7,17.3-24.6,17.4-38.4
				c0-15.1-7.3-26.5-21.1-32.9c-4.5-2.1-8.9-3.3-12.6-4l3.6-2.3l6-3.9l-7-1.3C188.9,7,180,6.2,170.1,6.2L170.1,6.2z"/>
		</g>
	</g>
	<g id="Layer_3">
		<path class="st1" d="M181.8,14.2c0,0-5-0.8-14.6-0.8c-50.8,0-152.4,26.5-152.4,78.9c0,28.6,28.2,32.1,43.6,32.1
			c26.7,0,58.5-10,71.2-17.2c0,0-47.7,18.9-88,5.3c7.9,1.3,26.1-1.2,33.3-4.3c0,0-20.1-3.3-20.1-23.9C54.9,32.7,169,14.2,181.8,14.2
			z"/>
		<path class="st1" d="M69.5,85.9C74.8,76.3,74.9,70.2,81,63c10.6-12,44-21.1,62.1-21.1c18.3,0,24.8,11.8,24.9,19.3
			c0,21.2-44.2,38.4-44.1,38.4c42.6-28.6,41.1-45,16.6-45C120.2,54.6,82.6,67.9,69.5,85.9z"/>
	</g>
	<g id="Layer_4">
		<path class="st2" d="M52.4,131.7c0,0,5,0.8,14.6,0.8c50.8,0,152.4-26.5,152.4-78.9c0-28.6-28.2-32.1-43.6-32.1
			c-26.7,0-58.4,10-71.2,17.2c0,0,47.7-18.9,88-5.3c-7.9-1.3-26.1,1.2-33.3,4.3c0,0,20.1,3.3,20.1,23.9
			C179.3,113.2,65.2,131.7,52.4,131.7z"/>
	</g>
	<g id="Layer_5">
		<path class="st2" d="M158.1,62.1c-3-8.5-26.7-7.4-48.9,0.3C85.4,70.9,68.5,84.5,71.6,93c3,8.5,26.7,7.8,48.6-0.2
			C144,84.2,161.1,70.6,158.1,62.1z"/>
		
			<ellipse transform="matrix(0.9486 -0.3164 0.3164 0.9486 -18.724 40.1271)" class="st1" cx="114.2" cy="77.7" rx="19.1" ry="6.3"/>
	</g>
</g>
</svg>
