<?xml version="1.0" encoding="utf-8"?>
<!-- Generator: Adobe Illustrator 21.1.0, SVG Export Plug-In . SVG Version: 6.00 Build 0)  -->
<!DOCTYPE svg PUBLIC "-//W3C//DTD SVG 1.1//EN" "http://www.w3.org/Graphics/SVG/1.1/DTD/svg11.dtd">
<svg version="1.1" id="Layer_1" xmlns="http://www.w3.org/2000/svg" xmlns:xlink="http://www.w3.org/1999/xlink" x="0px" y="0px"
	 width="53.8px" height="45.8px" viewBox="0 0 53.8 45.8" style="enable-background:new 0 0 53.8 45.8;" xml:space="preserve">
<style type="text/css">
	.st0{fill:#F5BD47;}
	.st1{fill:#E31837;}
</style>
<title>Untitled-1</title>
<path class="st0" d="M53.2,19.2C55.9,9.5,49.5,0,37.9,0c-7,0-12,4.8-15,4.8c-1.2,0-2.6-2.4-2.6-2.4c-1.2,0.7-1.8,2-1.6,3.4
	c-1.3-0.6-2.8-0.9-4.3-0.9c-1.6,0.1-3.1,0.6-4.4,1.5C9.1,6.8,8.5,7.6,8.1,8.5c-1.2,0.5-2.3,1.1-3.2,2c-0.4,0.4-0.6,0.5-0.6,0.5
	c-0.7,0.5-1.5,0.8-2.4,0.8c0.1,0.8,0.4,1.5,0.7,2.2c0.7,1,1.8,1.6,2.9,1.9c-0.7,0.7-1.6,1.2-2.6,1.5C1.9,17.7,1,18,0,18.1
	c0,0.2,0.1,0.5,0.2,0.7c1.7,2.8,5.6,2.6,5.6,2.6c0.6,0,1.2,0,1.8-0.1c-0.4,0.9-0.8,1.8-1,2.7c-0.1,0.5-0.4,1-0.7,1.4
	c-0.5,0.4-1.9,1.3-1.9,1.3c0.6,0.6,1.4,1,2.2,1.2C6.2,29,6.4,30,6.7,31.1c-1.1-0.3-2.3-0.2-3.4,0.2c0.4,0.4,0.8,0.8,1.1,1.3
	c0.5,0.8,0.8,1.8,0.9,2.7c0.1,1.6,0.5,3.1,1.4,4.5c0.4,0.6,1,1.1,1.6,1.6c0.6,0.4,1.3,0.7,2.1,0.9c0.6,0.2,1.2,0.2,1.8,0.1
	c-0.7,0.5-1.5,0.8-2.3,1.1c0.4,0.7,1.1,1.3,1.8,1.6c0.9,0.4,1.9,0.7,3,0.7c1.4-0.1,2.7-0.7,3.7-1.7c1.8-1.6,2.9-2.2,4.7-2
	c2.6,0.2,4.5,2.4,9.5,2.4c10.2,0,18.4-9.7,19.7-18.2H38.8c0,0-1.4,5-4.9,5c-2.7,0-4.4-2.1-4.4-5.6c0-4.6,3.8-12.5,9.3-12.5
	c2.6,0,2.5,3.1,1.5,6.1L53.2,19.2z M11.1,28.3c-0.6-0.2-1.1-0.5-1.5-1c0.6-0.2,0.8-1,1.2-1.1c0.6-0.2,0.4,0.5,2.1,1.3
	c0.4,0.2,0.8,0.3,1.2,0.4C13.3,28.6,12.2,28.7,11.1,28.3"/>
<path class="st1" d="M15,12.2c-0.7-0.2-1.5-0.3-2.3-0.2c-1.4,0.2-2.3,1.6-3.7,1.9c-1.5,0.6-3.8,0.7-5-0.7C4,13.1,3.9,13,3.9,13
	c2-0.2,3-2.4,4.9-2.8c2.2-0.7,4.6,0,6.1,1.9C14.9,12.1,14.9,12.2,15,12.2"/>
<path class="st1" d="M10.7,37.1c2.3,1.4,4.1-1.3,6.5-0.4v0.1c-1.9,0.7-2.7,2.7-4.4,3.6c-1,0.4-2.1,0.4-3,0c-2.1-1.1-2.7-3.6-2.8-5.9
	c-0.1-0.5-0.3-1.1-0.5-1.6C8.6,33.5,8.6,36.4,10.7,37.1"/>
<path class="st1" d="M51.6,17.3C53.3,10,47.9,1.8,37.9,1.7c-6.1,0-11.1,4.8-15.1,4.8c-1-0.1-1.9-0.6-2.4-1.4c0.2,2.2,2.2,4,4.1,4.7
	c-0.9,0-1.8-0.2-2.7-0.5c-2.6-0.7-4.4-3.2-7.4-2.9c-2.1,0-3.9,1.1-4.9,2.9c0.5-0.4,1.1-0.8,1.8-0.9c1.5-0.2,2.9,0.3,3.9,1.5
	c1.2,2.1,2.7,3.9,4.7,5.3c-1.4-0.1-2.8-0.4-4-1c-2.6-0.8-5.8-0.4-7.8,1.5c-1,1.7-2.7,2.9-4.6,3.4v0.1l0.6,0.2c2.2,0.9,4.6,0,6.4-1.1
	c1.3-0.5,2.7-0.1,3.7,0.8c0.7,1.1,1.7,2.1,2.8,2.9c-0.3,0.1-0.5-0.1-0.8-0.1c-1.8-0.9-4.4-2-6.2-0.4c-1.7,1.3-0.8,3.7-2.6,4.9
	c1.2,0.1,2-0.8,2.7-1.7c1.8-1.3,2.9,1,4.3,1.6c1.5,0.7,3.5,0.5,4.6,2c-1.2,0.1-2.3,0.5-3.3,1c-1.7,1-3.7,1.1-5.4,0.3
	c-0.8-0.5-1.5-1.1-2-1.9c0,0,0,0.1,0,0.1c0.1,3.3,1.3,6.8,4.7,8c2.3,1.1,4.8-0.7,7,0.4c-1.2,0.2-2.3,0.9-3,2
	c-1.2,1.5-1.2,3.6-2.6,4.9c-0.3,0.2-0.6,0.4-0.9,0.6c0.3,0.1,0.6,0.2,0.9,0.2c1.6,0.1,3.1-0.7,3.9-2c1.3-1.3,3.1-1.9,4.9-1.9
	c3.2,0.2,5.6,2.5,9.8,2.5c8.4,0,15.8-8,17.4-14.5h-9.9c0,0-1.8,5-6.2,5c-5.4,0-6.4-5.1-6.4-7.6c0-5.9,4.7-14.4,11.2-14.4
	c3.1,0,5,3.2,3.9,6.2L51.6,17.3z"/>
</svg>
