<svg id="Layer_1" data-name="Layer 1" xmlns="http://www.w3.org/2000/svg" viewBox="0 0 53.76977 45.81"><title>Untitled-1</title><path d="M53.153,19.154C55.851,9.489,49.505,0,37.88,0,30.873,0,25.866,4.759,22.878,4.759c-1.228,0-2.648-2.44-2.648-2.44a3.2515,3.2515,0,0,0-1.626,3.364,10.06636,10.06636,0,0,0-4.288-.94A8.66763,8.66763,0,0,0,9.917,6.258,5.75117,5.75117,0,0,0,8.052,8.504,9.95836,9.95836,0,0,0,4.83,10.53c-.414.414-.574.542-.574.542a4.765,4.765,0,0,1-2.405.829,6.69524,6.69524,0,0,0,.716,2.2A4.7484,4.7484,0,0,0,5.5,15.966a6.46724,6.46724,0,0,1-2.598,1.515A26.47683,26.47683,0,0,1,0,18.119a2.0276,2.0276,0,0,0,.224.701c1.706,2.79,5.628,2.631,5.628,2.631a8.41641,8.41641,0,0,0,1.8-.112,12.94479,12.94479,0,0,0-1.036,2.694,2.48027,2.48027,0,0,1-.748,1.387c-.527.43-1.946,1.276-1.946,1.276a4.71251,4.71251,0,0,0,2.249,1.179,17.45219,17.45219,0,0,0,.518,3.19,4.85648,4.85648,0,0,0-3.357.238A6.93662,6.93662,0,0,1,4.448,32.61a6.04656,6.04656,0,0,1,.925,2.742,9.64928,9.64928,0,0,0,1.354,4.495,7.86493,7.86493,0,0,0,1.58,1.578,5.83922,5.83922,0,0,0,2.056.91,4.22684,4.22684,0,0,0,1.807.064A11.64915,11.64915,0,0,1,9.917,43.53a3.93259,3.93259,0,0,0,1.817,1.578,8.06732,8.06732,0,0,0,2.965.702,6.20486,6.20486,0,0,0,3.747-1.675c1.812-1.643,2.934-2.186,4.73-2.048,2.632.203,4.472,2.399,9.52,2.399,10.184,0,18.408-9.749,19.684-18.237H38.77s-1.423,4.982-4.901,4.982c-2.652,0-4.415-2.146-4.415-5.63,0-4.557,3.798-12.517,9.275-12.517,2.562,0,2.545,3.105,1.541,6.076ZM11.144,28.337A2.75622,2.75622,0,0,1,9.65,27.301c.559-.157.829-.961,1.232-1.054.648-.151.386.486,2.108,1.343a3.76287,3.76287,0,0,0,1.207.416,3.60829,3.60829,0,0,1-3.053.331" fill="#231f20"/><path d="M52.70761,18.59454c2.359-10.131-4.584-18.068-14.804-18.068-6.52,0-11.743,4.681-14.899,4.822-1.317.058-2.902-2.168-2.902-2.168-1.784,1.339-.479,3.794-.479,3.794a8.83791,8.83791,0,0,0-5.614-1.641c-4.429.43-5.513,3.618-5.513,3.618a7.1836,7.1836,0,0,0-3.475,2.327,4.08283,4.08283,0,0,1-2.518,1.037c.606,3.332,4.081,3.172,4.081,3.172-1.371,2.647-5.835,3.061-5.835,3.061,1.594,2.551,5.388,2.328,5.388,2.328a8.90311,8.90311,0,0,0,3.933-.957,4.644,4.644,0,0,0-.854.545c-1.675,1.178-1.637,3.326-2.5,4.856-.333.688-1.297,1.016-1.829,1.437a7.04351,7.04351,0,0,0,1.855.642,21.081,21.081,0,0,0,.846,4.685,4.46991,4.46991,0,0,0-3.172-.508c2.137,2.66,1.133,4.301,2.204,6.777a6.13377,6.13377,0,0,0,2.601,3.02106,4.7105,4.7105,0,0,0,4.92-.412c-.334,1.611-3.364,2.822-3.364,2.822a6.22036,6.22036,0,0,0,3.492,1.431c4.111.27,4.323-4.20294,8.881-3.737,2.643.27106,5.065,2.491,9.475,2.491,11.034,0,18.201-11.169,19.069-17.178h-12.507s-1.534,5.015-5.251,5.015c-3.85,0-5.068-3.302-5.068-6.277,0-4.525,3.757-13.072,9.888-13.072,2.889,0,3.334,3.17,2.313,6.137Zm-41.621,10.306a3.558,3.558,0,0,1-2.142-1.621l-.08-.135c.745-.242,1.179-1.094,1.829-1.503,1.026-.318,1.343,1.134,3.297,1.751.559.27905.891.326,1.468.606a4.98014,4.98014,0,0,1-4.372.902" fill="#f5bd47"/><path d="M14.97041,12.235a5.53272,5.53272,0,0,0-2.283-.244c-1.419.2-2.328,1.596-3.701,1.862-1.532.576-3.792.664-4.989-.71,0-.066-.109-.11-.088-.177,1.95-.221,2.97-2.416,4.876-2.77a5.53378,5.53378,0,0,1,6.073,1.883c0,.067.089.089.112.15594" fill="#e31837"/><path d="M10.714,37.0816c2.349,1.35205,4.1-1.26294,6.494-.377v.089c-1.861.688-2.681,2.727-4.388,3.613a3.52906,3.52906,0,0,1-2.993-.046c-2.083-1.12805-2.703-3.633-2.815-5.939a9.68112,9.68112,0,0,0-.51-1.573c2.107.687,2.129,3.546,4.212,4.233" fill="#e31837"/><path d="M51.63972,17.32977c1.637-7.305-3.751-15.543-13.719-15.59094-6.084-.02905-11.093,4.838-15.052,4.838a3.20467,3.20467,0,0,1-2.445-1.368c.177,2.172,2.194,3.989,4.122,4.721a8.85913,8.85913,0,0,1-2.682-.51c-2.593-.709-4.435-3.192-7.404-2.948a5.66115,5.66115,0,0,0-4.943,2.926,3.67845,3.67845,0,0,1,1.752-.887,4.281,4.281,0,0,1,3.856,1.463,16.73431,16.73431,0,0,0,4.655,5.254,12.2568,12.2568,0,0,1-4.033-.998c-2.639-.754-5.765-.422-7.76,1.462a7.454,7.454,0,0,1-4.609,3.41394v.067l.553.243c2.174.93195,4.566.022,6.384-1.108a3.51145,3.51145,0,0,1,3.658.821,11.20423,11.20423,0,0,0,2.792,2.903c-.266.111-.532-.111-.842-.111-1.751-.863-4.389-2.039-6.162-.421-1.661,1.264-.82,3.702-2.594,4.898,1.242.111,1.951-.798,2.661-1.683,1.773-1.309,2.903,1.041,4.322,1.595,1.508.731,3.502.488,4.588,2.039a9.97927,9.97927,0,0,0-3.325,1.02,5.94713,5.94713,0,0,1-5.431.31006,5.98933,5.98933,0,0,1-2.037-1.906.12753.12753,0,0,1-.024.089c.112,3.28,1.33,6.848,4.722,8.001,2.305,1.063,4.786-.666,7.048.443a4.86706,4.86706,0,0,0-3.015,1.95c-1.173,1.53-1.152,3.636-2.615,4.944a10.66772,10.66772,0,0,1-.929.576,3.02631,3.02631,0,0,0,.908.244,4.19661,4.19661,0,0,0,3.9-1.996,6.92412,6.92412,0,0,1,4.877-1.928c3.195.216,5.576,2.535,9.794,2.55,8.399.033,15.813-7.971,17.388-14.532h-9.909s-1.803,5.019-6.165,5.019c-5.447,0-6.398-5.085-6.398-7.61,0-5.93005,4.65-14.407,11.22-14.407,3.117,0,4.952,3.184,3.936,6.214Z" fill="#e31837"/></svg>