<?xml version="1.0" encoding="utf-8"?>
<!-- Generator: Adobe Illustrator 21.1.0, SVG Export Plug-In . SVG Version: 6.00 Build 0)  -->
<!DOCTYPE svg PUBLIC "-//W3C//DTD SVG 1.1//EN" "http://www.w3.org/Graphics/SVG/1.1/DTD/svg11.dtd">
<svg version="1.1"
	 id="svg3166" inkscape:output_extension="org.inkscape.output.svg.inkscape" inkscape:version="0.48.2 r9819" sodipodi:docname="AJAX.svg" sodipodi:version="0.32" xmlns:cc="http://creativecommons.org/ns#" xmlns:dc="http://purl.org/dc/elements/1.1/" xmlns:inkscape="http://www.inkscape.org/namespaces/inkscape" xmlns:rdf="http://www.w3.org/1999/02/22-rdf-syntax-ns#" xmlns:sodipodi="http://sodipodi.sourceforge.net/DTD/sodipodi-0.dtd" xmlns:svg="http://www.w3.org/2000/svg"
	 xmlns="http://www.w3.org/2000/svg" xmlns:xlink="http://www.w3.org/1999/xlink" x="0px" y="0px" width="550.6px" height="490.9px"
	 viewBox="0 0 550.6 490.9" style="enable-background:new 0 0 550.6 490.9;" xml:space="preserve">
<style type="text/css">
	.st0{fill:#FFFFFF;}
	.st1{clip-path:url(#SVGID_2_);}
	.st2{fill:#FEE011;}
	.st3{fill:#E7A908;}
	.st4{fill:#F57215;}
	.st5{fill:#007F55;}
	.st6{fill:#E32739;}
	.st7{fill:#1C418C;}
	.st8{fill:none;}
	.st9{clip-path:url(#SVGID_4_);}
	.st10{fill:#231F20;}
</style>
<path class="st0" d="M153.8,490.9c-7.4,0-25.2-3.1-31.8-32c-0.4-1.4-1.6-3.7-3.1-6.3l-0.3-0.5c-2.7-4.5-5.8-10-8.5-17.4
	c-1.6-4.4-3-9.3-4.2-14.7c-6.3,0.6-13.8,1.3-21.6,1.3c-23,0-39.3-5.8-49.9-17.6C24.8,393.2,21,378.8,22.9,361
	c0.6-4.7,2.1-8.4,3.1-11.2l0.2-0.5c0.3-0.7,0.7-1.6,0.9-2.2c-0.1-0.2-0.3-0.5-0.6-1c-6.7-10.3-7.9-21.2-3.7-31.2
	c-1.5-6.9-1.2-14.8-0.4-21.3c-7.8-3.9-14.2-9.8-18-17c-7.8-14.6-5.2-32.6,7.6-51.9c13.2-19.8,18.5-30.5,21.1-35.7l0.6-1.2
	c1.6-3.1,2.8-5.5,4.8-7.8c0.5-1.6-0.1-6.5-1.9-14.8c-4-18.6,14-38.8,42.4-63.5c18.8-16.3,39.1-31.4,50.4-39.6
	c-0.7-10.8,2.1-22.4,7.9-32.1c10-16.5,27.4-26.4,49.1-28c4.6-0.4,8.7-0.5,12.4-0.5c9.7,0,16.8,0.9,22.8,1.7l1.3,0.2
	c1.3,0.2,3,0.4,3.6,0.4h0.2c1-0.1,3.2-0.4,5.1-0.6L233,3l1.6-0.2C242.4,1.7,254.3,0,267,0c23.6,0,42.4,5.5,56.1,16.3
	c18.8,14.6,32,26,38.1,31.4h54.3v7.5c1.8-1.2,14.3-9.9,14.3-9.9l23.8,81l-6.5,1.5c16.8,15.1,38.5,36.3,56.3,61.3
	c29.2,41.1,41.7,83.4,37.1,125.8c-0.1,1.9,1,8.2,1.7,11l8.5,21.4l-23.7,2.3c-3.9,0.4-7.3,0.5-10.4,0.5c-18.7,0-35.5-5.6-51-17
	c-2.1,12.6-5.6,25-10.1,35.8c-8.8,20.6-21.3,35.1-36.3,41.7l-22.6,10.6l-2.3-25.3c-0.2-1.7-0.6-3.6-1.3-5.8
	c-4.5,18.5-11.3,36.8-20.9,49c-0.2,0.3-0.4,0.7-0.7,1.1c-0.2,0.4-0.5,0.8-0.7,1.2l0,0c-2,3.4-4.7,8-9.7,11.4l-3.4,2.3l-3.8,0.6
	c-1.9,0.4-3.6,0.4-4.8,0.4c-7.5,0-13.1-3-16.5-4.9c-3-1.6-4.2-2.2-6.8-2.2c-0.4,0-1.3,0.1-1.7,0.1l-0.1,0c-3.8,0.4-7.7,0.5-11.9,0.5
	c-12.6,0-31.1-1.6-43.6-4.6c-26.4,15.9-70.2,35.7-107,44.8C158.9,490.5,156.4,490.9,153.8,490.9z M150.5,412.2
	c0.6,2.8,1.3,5.3,2,7.4c1.2,3.5,3,6.9,5.1,10.6l0.2,0.3c1.9,3.4,3.8,6.9,5.2,10.7l0.1,0.2l0.1,0.2c0.1,0.4,0.2,0.7,0.4,1
	c23-7.3,47.8-17.9,68.9-29.4c-4-8.8-9.4-20.8-15.9-35.7l-6.1-13.8l2.9-7c2.9-7.3,3.7-12.4,3.5-15.5l-9,6.6l-10.3-16.4
	c-38.3-61.7-29.7-111.6-25.1-138.3c0.6-3.4,1.1-6,1.3-8.2l0-0.1c7.8-58.6-8.6-74.7-21.8-83.7c-15.8,10.8-42.4,32.9-61.5,50.3
	c-6.9,6.3-8.7,9.4-9.1,10.8c-0.3,0.9-0.2,1.6,0.5,4.9c0.4,1.9,0.9,4,1.3,6.5c2.8,18.7-7.9,34.1-12,39.9c-1.3,1.9-2.3,3.5-4.4,7.2
	c0,0-1.8,3.1-2.2,3.8c2.9-0.9,6.1-1.4,9.4-1.4c1.5,0,2.9,0.1,4.2,0.2l0.5,0l0.3,0c12.2,1.6,22.6,7.7,29.3,17.1
	c3.4,4.8,5.6,10,6.6,15.4c5.6,4.2,12.6,10.8,15.8,19.5c1.5,4,6,16.3-0.9,26.2c-1.8,2.6-4.1,4.7-6.8,6.1c1.9,4.4,2.6,8.5,2.9,10.4
	c1.6,11.3-2.5,18-5.3,21.1c-3.9,4.5-9.5,7.1-15.6,7.1c-6,0-11.7-2.6-15.7-7.1c-0.9-1-1.7-2-2.4-3.1c-5.2,0.9-10.9,1.5-16.1,1.8
	c2.2,8.9,2.1,20.4-2,29.8c-1,2.4-1.1,3.8-1.1,4.2l0.1,0.2c1,1.7,6.2,4,9.3,4.2c5.1,0.3,9.4,0.5,13.3,0.5c22.5,0,43.5-3.9,66.1-12.4
	c8.3-3.8,14.5-11.6,20.6-20l4.8-6.6l29.1,13l-1.8,8c-3.4,15.2-11.1,27.8-22.2,36.6l-0.4,0.4l-0.7,0.5
	C177.7,402.1,165.8,407.4,150.5,412.2z M348.8,222.8c-2.1,9.1-4.1,19-5.9,29.4c-11.8,69-4.8,114.7,6.1,143.9
	c6.7-18.7,12.8-46.7,8.5-71.1C353.7,303.2,350.6,261.8,348.8,222.8z M399.5,315.9c1.3,2.4,3.4,6,5.5,9.4c3.9,6.7,9.2,15.9,12.3,21.8
	c0.5,1,1.1,2.1,1.6,3.1c6.2-14.5,10.4-35.1,7.1-63.2c-5.9-9.6-12.5-22.5-17.5-34.4l-0.6-1.1l-0.5-1.8l-0.1-0.2
	c-1.9-7.9-3.6-14.4-5.4-20.5l-2.7-9.2l33.1-11.4l3.6,8.8c19.6,48.2,42.7,79.8,64.8,89.4l0-0.7c0.3-7.7,0.6-16.5-0.5-23.8
	c-9.4-62.2-69-115.5-97.5-139.5c-1.3,1-2.7,2-4.1,2.8c-2.8,1.7-5.7,2.9-9,3.8c-0.6,26.7-0.3,79.7,1.3,99c1.1,12,3,25.9,4.8,39.2
	C397.5,298.4,398.9,308.3,399.5,315.9z M272.7,266c1.6,4.4,4.7,10.8,7.9,16.8c1.1-1.1,2.2-2.2,3.3-3.2l3.7-3.6
	c3.8-3.7,6.5-6.4,8.9-8.2c1.3-1.1,1.7-2.1,1.7-2.3c0.4-7.4,7.2-42.1,17.4-77.6c-14.8,20.1-30,45-42.7,74.9c0,0-0.5,1.2-0.7,1.7
	C272.4,265,272.5,265.5,272.7,266z"/>
<path class="st0" d="M153.8,480.9c-6.2,0-17.3-3.2-22.1-24.3c-0.7-2.9-2.4-5.8-4.5-9.5c-2.4-4-5.3-9-7.7-15.7
	c-2.7-7.5-4.4-15.4-5.5-22.1c-1.7,0.1-3.5,0.3-5.5,0.5c-6.9,0.7-15.4,1.6-24.2,1.6c-20,0-33.9-4.7-42.5-14.3
	c-7.6-8.4-10.6-20.2-9-35c0.4-3.4,1.6-6.3,2.6-8.8c2-4.7,3-7.1-0.5-12.5c-7.3-11.3-4.2-20-1.4-24.7c-2.9-7.8-1.7-20.9,0.2-28.7
	c-7.9-2.2-16.1-7.2-20.5-15.4c-7.6-14.2-0.3-30.5,7.1-41.7C33.4,210.6,39,199.6,42,193.6c1.7-3.3,2.7-5.4,4.1-7
	c3.7-4.2,3-10.9,0.3-23.4c-3.2-14.7,18-35.4,39.2-53.8c21-18.2,44.1-35.1,54.5-42.5c-2.1-10.1,0-21.9,5.8-31.6
	c8.2-13.5,22.9-21.8,41.3-23.2c3.9-0.3,7.8-0.5,11.6-0.5c9.4,0,16.4,0.9,21.5,1.6c2.6,0.3,4.8,0.6,6.2,0.6c0.1,0,0.3,0,0.4,0h0.2
	c1.3-0.1,4.2-0.5,7.2-0.9c7.9-1.1,19.8-2.9,32.7-2.9c21.2,0,38,4.7,49.9,14.1c21.2,16.5,35.2,28.8,40.5,33.6h48.1v16.5
	c5.1-3.5,18.6-12.8,18.6-12.8L441,119l-15.2,3.5c19.3,16.7,47.3,41.4,69.4,72.5c27.7,39,39.6,79,35.3,118.9
	c-0.4,3.5,1.4,12.7,2.1,15.2l3.8,9.6l-10.5,1c-3.2,0.3-6.4,0.5-9.5,0.5l0,0c-22.2,0-41-8.6-58.9-27.4c-1.4,33.2-14.9,76.5-42.7,88.8
	l-9.8,4.6l-1-11.1c-0.9-9.6-8.3-24.1-15.8-37.6c-2.8,26.9-11,58.9-24.4,75.7c-0.5,0.7-1.2,1.9-1.9,3c-1.7,2.9-3.6,6.2-6.8,8.4
	l-1.5,1l-1.8,0.3c-1,0.2-2,0.2-3,0.2c-4.8,0-8.5-1.9-11.8-3.7c-3.4-1.8-6.4-3.4-11.5-3.4c-0.9,0-1.9,0.1-2.8,0.2
	c-3.1,0.3-6.8,0.5-10.9,0.5c-13,0-33.9-1.9-45.2-5.4c-25.5,16-71.3,36.9-108.2,45.9C156.9,480.7,155.3,480.9,153.8,480.9z
	 M139,405.2c0.8,5.1,2.2,12,4,17.5c1.5,4.5,3.7,8.5,5.9,12.4c1.8,3.3,3.5,6.4,4.7,9.6c0.3,0.9,0.6,1.7,0.9,2.6
	c0.8,2.4,2.2,6.2,3.2,7.3c0.2,0,0.6-0.1,1.2-0.2c33.9-9.8,65.8-25,86.4-37.1c-3.2-6.9-9-19.7-19.7-43.9l-4.4-9.9l1.3-3.1
	c6.8-16.9,4-25,1.8-28.3c-2-2.9-4.7-3.9-6.4-3.9c-0.3,0-0.5,0-0.6,0.1l-6.8,5l-4.6-7.3c-36.2-58.3-28.1-105.8-23.7-131.3
	c0.6-3.3,1.1-6.2,1.4-8.7c9.4-70.5-15.3-86.3-30-95.8c-0.6-0.4-1.2-0.7-1.7-1.1c-15.1,9.1-45.8,34.3-68.3,54.8
	c-14.4,13.2-13.3,18-11.6,25.3c0.4,1.7,0.8,3.5,1.1,5.6c2.2,14.8-6.9,27.9-10.3,32.8c-1.6,2.3-2.8,4.3-4.9,8
	c-3,5.1-7.4,12.7-16.7,27.6c-5.9,9.5-6.7,15.3-5.4,17.6c1,1.8,4.1,2.7,6.7,2.7c4.2,0,11-0.9,18.4-1.9c-3.4-4.1-5.1-9.7-4.3-15.2
	c1.3-8.2,8-13.5,17.2-13.5c1.2,0,2.4,0.1,3.7,0.2c9.3,1.2,17.3,5.8,22.4,13c3.3,4.7,5.2,10,5.4,15.3c5.5,3.5,13,9.7,15.8,17.3
	c2.9,7.8,3,13.2,0.3,17.1c-1.8,2.6-4.6,4.1-7.7,4.1c-2.7,0-5.3-1.1-7.6-3.2c0.8,2.2,1.1,4.5,0.7,6.7c6.8,3.4,8.7,13.8,9,16
	c1,7-1,11.1-2.9,13.2c-2,2.4-5,3.7-8,3.7c-3.1,0-6.1-1.4-8.2-3.8c-2-2.2-3.2-5.1-3.4-8.3c-7.3,2.6-22.7,4-32.2,4
	c-1.7,0-3.3,0-4.8-0.1c-0.2,1.3,0.2,3,2,5.4c4.6,6.3,5.2,21.2,1.3,30.2c-3.6,8.3-1.2,12.2-0.4,13.5c3.4,5.7,12.4,8.8,17.3,9.1
	c4.7,0.3,9.4,0.5,13.9,0.5c23.9,0,46.1-4.2,69.9-13.1c10.8-4.8,18.2-14.2,24.9-23.4l14.3,6.4c-2.9,13.1-9.5,23.9-19.1,31.2l-0.2,0.2
	C169.4,395.6,152.9,401.3,139,405.2z M357.4,159.5c-8.5,22.3-18.1,54.1-24.4,91c-15.2,88.7-0.1,140.8,15.9,169.4
	c9.2-13.9,25-59.2,18.4-96.7C361.5,289.6,356.9,205,357.4,159.5z M276.4,359.9c-0.1,0.6-0.2,1.6-0.2,3.2c0.2,5.1,3.4,9.7,7.2,13.4
	c-0.1-2.7-0.4-5.6-0.9-8.6C281.9,364.3,278.8,360.7,276.4,359.9z M389.6,318.7c1.2,2.3,4.2,7.5,6.7,11.7c4.4,7.5,9.3,16.1,12.1,21.4
	c0.8,1.5,1.6,3.1,2.4,4.7c2.5,4.8,5.3,9.9,7.5,15.2c10.8-15.1,23.1-42.9,17.3-88.1c-5.9-9.3-12.9-22.9-18.1-35.2l-0.3-0.6l-0.2-0.7
	c-1.6-6.7-3.4-13.8-5.5-21l15.1-5.2c24.7,60.7,54.3,95.4,83.8,98.5c-0.1-3.7,0.1-7.8,0.3-12.4c0.3-8.4,0.7-18-0.6-26.5
	C499.4,210,429.6,151.9,403.4,130c-0.5-0.4-1-0.9-1.5-1.3c-0.8,1.3-1.8,2.5-2.8,3.6c-1.6,1.7-3.4,3.2-5.5,4.4
	c-2.3,1.4-4.7,2.3-7.2,2.9c-1.9,0.4-3.8,0.7-5.7,0.7c-0.3,0-0.5,0-0.8,0c-0.9,21.1-0.8,86.1,1.1,108.6c1.1,12.5,3.1,27,4.9,39.8
	C387.7,300.9,389.2,311.5,389.6,318.7z M56.5,303.3c0.4,0.1,1.5,0.3,3.6,0.3c3.2,0,6.9-0.4,10.6-1c-0.4-1-0.7-2-0.8-3.1
	c-0.4-4.9,2.7-11.2,12.8-13c1.7-0.3,3.4-0.4,5.1-0.4c5.4,0,10.3,1.6,13.8,4.5c-0.3-0.7-0.6-1.3-0.9-2.1c-1.6-4.3-4.7-8.2-16.1-8.2
	c-4.9,0-10.1,0.7-15.2,1.4c-2.9,0.4-5.7,0.8-8.3,1c-0.4,0-0.8,0.1-1.2,0.1c-0.1,0.4-0.2,0.8-0.4,1.3C55.2,298.2,56,302.3,56.5,303.3
	z M261.3,264c0.2,0.5,0.4,1.2,0.7,1.9c0.4,1,0.8,2.1,1.3,3.5c3.1,8.6,11,23.2,14.7,29.6c5.7-5.1,10.7-10.1,15-14.3
	c4.3-4.2,7.4-7.3,9.6-9c3.3-2.6,5.4-6.1,5.6-9.6c0.6-10,15.4-81.8,34.1-124.7c-21.9,22-54.8,61.5-78.6,117.5c-0.9,2-1.6,3.5-2.1,4.6
	C261.4,263.6,261.4,263.8,261.3,264z M380.6,108.2c-3,0-5.4,2.6-5.4,5.8c0,3.2,2.4,5.8,5.4,5.8s5.4-2.6,5.4-5.8
	C386.1,110.8,383.6,108.2,380.6,108.2z M408.7,102.3l3.9-0.9l-0.9-3.1c-1.2,1-2.4,2-3.4,3L408.7,102.3z M382.4,84v-2.7H380L382.4,84
	z"/>
<path id="path3426" inkscape:connector-curvature="0" d="M419.3,223.9c2.2,7.5,4,14.6,5.6,21.3c5.1,12,12.3,26.2,18.5,35.6
	c5,36.8-0.2,80.2-28.5,107.1c-1.6-11.2-8.7-23-13.6-32.5c-5-9.8-18.5-31.9-19.6-34.7c-0.5-13.4-6.5-45.9-8.7-71.1
	s-2.2-108.7-0.5-117.1l3.3-1c0.4,0.1,0.8,0.2,1.2,0.3c1.2,0.3,2.4,0.4,3.7,0.4c1.3,0,2.7-0.2,3.9-0.5c1.8-0.4,3.4-1.1,4.9-2
	c1.4-0.8,2.7-1.8,3.8-3c1-1.1,1.9-2.3,2.7-3.7c1.2-2.2,2-4.7,2.3-7.4l0.3-0.5C410,126.9,505,193,518.1,279.3
	c2.8,18.5-1.6,40.3,1.6,48.2C509.1,327.9,463.6,333.2,419.3,223.9 M352,428.7c-2,2.6-6.4,2-8.6-2.2c-58-98,1.6-273.9,22.2-302.8
	c0.9,1.5,2,2.8,3.3,4c-0.5,1.4-1.1,3.3-1.9,6c-4.4,14.6,0.2,142.4,8.1,188.2C382.7,365,362.6,418.4,352,428.7 M307.4,282
	c-4.3,3.4-15.2,15.3-28.8,27c-3.8,2.8-3.4,1.1-6.1-3.4s-13-23-16.8-33.6s-3.5-6.8,0.5-16.2c37.4-88.2,97.2-136.1,102.1-140
	c2.2-1.8,3.7-2.3,4.6-2.2c0,0.1,0,0.3,0,0.4c0,2.1,0.4,4.1,1,6c-0.1,0.1-0.1,0.1-0.2,0.2c-23.4,24.1-47,134-47.7,146.3
	C315.8,272.8,312.1,278.3,307.4,282 M305.2,386.8c-4,4.9-10.5,7.3-14.2,5.2c-0.4-0.2-0.8-0.5-1.3-0.7c-1.4,5.1-3.7,9.2-7,11.7
	c-3.9,3-8.7,3.6-13.1,1.5c-9.4-4.5-15.6-19.4-16.7-39.8c-1.5-29.6-6.7-36.6-19.3-53.5c-3.5-4.8-7.5-10.2-12.2-17
	c-22.2-32.6-20.4-57.7-9.8-121.2c7.5-44.5,1-57.1-7.1-73c-2.9-5.7-6.2-12.1-9.1-20.5c-4.5-13-3.7-22.1,2.2-27.1
	c7.8-6.6,21-2.2,27.5,1.8c1.2,0.7,2.4,1.5,3.7,2.4c11,7.2,27.6,18.1,45.3,4c7.9-6.3,14.6-8.4,20.4-6.6c9.9,3.2,14.1,16.5,18.2,29.9
	l0.2,0.7c1.8,5.8,4.9,10.4,9.5,12.8c6.9,3.5,15.5,0.6,19-1.5c1.6-0.9,3.6-0.4,4.4,1.3c0.9,1.6,0.3,3.2-1.2,4.1
	c-5.5,3.2-16.8,5.9-25.1,1.7c-6.2-3.2-10.5-8.6-12.8-16.2l-0.2-0.7c-3.6-11.8-7.3-23.9-13.9-26c-3.6-1.2-8.5,0.7-14.4,5.5
	c-21.3,17-41,4.1-52.8-3.6c-1.3-0.8-2.5-1.6-3.5-2.3c-6.2-3.8-15.7-5.5-20-1.8c-3.5,3-3.6,9.9-0.2,19.7c2.7,7.9,5.8,13.9,8.7,19.6
	c4.9,9.7,9.3,18.3,10.7,32.4c28.1-6.2,75.4-10.6,106.8-9.8c1.8-0.1,3.3,1.4,3.4,3.2c0.1,1.9-1.3,3.4-3.1,3.5V126
	c-35.8-1.1-78.4,3-106.6,9.8c0.3,9.8-0.6,22.1-3.3,38.6c-10.3,61.5-12.1,85.8,8.7,116.2c4.6,6.7,8.6,12.1,12,16.8
	c13,17.5,19,25.6,20.6,57.2c1.1,21.1,7.6,31.6,12.9,34.1c2.3,1.1,4.4,0.9,6.4-0.7c2.1-1.6,4.1-5,5.2-10.2
	c-7.4-5.4-15.4-13.5-15.8-24c-0.4-9,3.5-11.3,6.3-11.6c7.3-0.8,14.6,7.2,15.9,14.8c1,6.4,1.3,12.4,0.7,17.6c1.1,0.7,2.1,1.3,3,1.8
	c0.9,0.2,4.6-0.8,7-4.8c4.9-8,0.5-21.6-12.1-37.1c-5.2-6.4-10.9-12.4-16.5-18.2c-6.3-6.5-12.7-13.3-18.3-20.5
	C244,292.2,230,273.9,234,228l2.2-26.1c1.5-18.6,1.6-20.1,3.3-27c1.9-7.7,5.4-17,11.8-17.9c6.1-0.9,10.2,6.8,11.6,9.2
	c3.5,6.1,6.3,8.6,7.3,8.9c0.3-0.4,1.4-2.2,1.9-8c1.4-17.3,4.1-24.9,9.4-26.5c5.2-1.5,9.8,3.8,12.7,8c1.3,1.8,4.4,6.1,6.1,7.6
	c1.1-2.1,2.6-7.9,4.2-14l0.8-3.1c0.5-1.8,2.3-3.4,4-2.9s2.8,2.3,2.3,4.1l-0.8,3.1c-3.5,13.5-4.8,18.5-9.2,19.4
	c-4.1,0.8-7.5-3.5-12.6-10.7c-4-5.6-5.7-5.5-5.7-5.5c-0.1,0-3.1,1-4.7,20.6c-0.4,5.5-1.6,12.9-6.9,14.1c-4.4,1-9.3-3-14.4-12.1
	c-2.5-4.5-4.3-5.5-5-5.4c-1.4,0.2-4.3,4.4-6.4,12.9c-1.5,6.4-1.6,7.5-3.2,26l-2.2,26.2c-3.7,43.3,8.8,59.6,18.9,72.7
	c5.3,6.9,11.4,13.3,17.8,19.9c5.7,5.9,11.6,12,16.9,18.6C316.2,367.2,309.3,381.8,305.2,386.8 M161.1,462c-10,2.9-12-6.2-15-14.5
	c-2.3-6.3-7.7-13.2-10.7-22.4c-3.4-10.6-5.3-25.9-5.3-25.9c12.6-3.2,33.4-9.3,45.4-17.8c8.6-6.5,13.8-16.1,16.2-26.6
	c-7.3,10-15.7,20.5-28.4,26.1c-24.9,9.4-52.5,15.5-87.4,13.2c-9.9-0.6-34.3-9.6-23.7-33.8c3.2-7.3,2-18.9-0.4-22.3s-6.9-11,0.4-18.5
	c10.6,1.7,34.4-0.8,39.3-3.4c4.9-2.5,10.1,2.5,9.8,5.9c-0.8,7.6,8.1,9.2,6.5-1.7c-0.5-3.3-2.4-9.2-4.9-10.1
	c-2.4-0.8-4.9-4.2-4.1-8.4c0.8-4.2-4.9-9.2-14.7-7.6c-9.8,1.7-6.5,8.4,0,7.6s7.3,4.2,0.8,5.9c-6.5,1.7-23.4,5.1-30.6,3.1
	c-9-2.5-6.4-15.7-2.4-29.2c1.5-5.1-0.6-6.3,8.5-7.1c15.4-1.3,40.2-8.6,47.8,10.9c3.2,8.3,10.3,9.3,5.3-4.3
	c-2.9-7.7-14.2-14.7-16.6-15.5c2.1-9.9-5.2-23-20.5-25c-16.6-2.2-13.7,15.6-5.5,18.2c11.7,3.7,10.8-5.6,4.1-4.2
	c-7.8-1.9-5.9-8.6-0.6-9c6-0.4,11.2,3.2,15.3,9.3c4.1,6.1-1.2,11.1-6.2,11.5c-15.2,1.3-32.1,4.5-41,4.5c-9,0-24.3-6.5-8-32.5
	s17.8-30,21.8-35.9c4.1-5.9,10.6-16.1,9-27.1c-1.6-10.9-8.1-18.6,13-38s58.7-50.7,74.2-58.3c13,10.1,50.6,21.7,39.2,107.4
	c-3,22.9-17.9,71.7,21.2,134.7c7.4-5.5,32.3,3.8,17.1,41.7c4.9,10.9,24.2,54.4,25.8,57C237,432,201.6,450.3,161.1,462 M394.1,114
	c0,7.6-6,13.8-13.4,13.8s-13.4-6.2-13.4-13.8s6-13.8,13.4-13.8S394.1,106.4,394.1,114 M390.4,73.3v20.2h-10.2l-18.1-20.2
	C362.1,73.3,390.4,73.3,390.4,73.3z M416.7,86l5.8,21.2l-19,4.6l-4.2-12.2C403.4,93.8,410.4,88.8,416.7,86 M522.8,313
	C533.2,217,443,148.6,409,118.2l22.2-5.1l-11.4-38.8c0,0-14.7,10.1-22,15.1V65.9h-43.2c0,0-15.5-14.3-42.4-35.3s-74.6-9.1-84.6-8.6
	c-5.9,0.4-17.7-3.4-39.7-1.7c-37.5,2.9-45,34.9-38.4,50c-25.3,17.6-99.3,72.9-95.2,91.4c2.7,12.4,4.5,22.7-2,30.3
	c-2.4,2.8-5.7,13.4-25.3,42.9c-23.3,35,4.6,46,15.9,45.8c0,0,0.5,3.4-0.4,5.4c-2.7,6.6-4.1,24.4-0.8,28.6c0.7,1,1.3,1.5,1.6,1.7
	c-0.2,0.1-0.5,0.3-0.8,0.8c-1.6,2.5-7.7,8.7-0.8,19.3c8.2,12.7-0.1,18.9-0.9,26.5c-6.2,57.2,66.3,36.5,80.2,38.1
	c0.7,6.5,2.4,17.4,6.1,27.6c4.4,12.2,10.6,18,12.5,26.2c2.2,9.9,7.2,20.1,17.1,17.7c38.3-9.3,86.4-31.9,109.2-47.1
	c8.1,4.2,39.9,7.6,56.2,5.9s20.1,8.1,28.5,6.7c2.8-1.9,4.6-6.8,7-9.8c17.9-22.5,25.8-75.5,23.3-100.4c9.5,18.7,29.5,48.2,31.1,66.5
	c31.8-14.1,43.1-78.8,36-106.5c26.9,38.6,51.4,46.5,77.4,43.9C525,330.7,522.2,318.8,522.8,313"/>
<defs>
	
	
		<inkscape:perspective  id="perspective3174" inkscape:persp3d-origin="320 : 160 : 1" inkscape:vp_x="0 : 240 : 1" inkscape:vp_y="0 : 1000 : 0" inkscape:vp_z="640 : 240 : 1" sodipodi:type="inkscape:persp3d">
		</inkscape:perspective>
	
		<inkscape:perspective  id="perspective2450" inkscape:persp3d-origin="372.04724 : 350.78739 : 1" inkscape:vp_x="0 : 526.18109 : 1" inkscape:vp_y="0 : 1000 : 0" inkscape:vp_z="744.09448 : 526.18109 : 1" sodipodi:type="inkscape:persp3d">
		</inkscape:perspective>
</defs>
<sodipodi:namedview  bordercolor="#666666" borderopacity="1.0" fit-margin-bottom="0" fit-margin-left="0" fit-margin-right="0" fit-margin-top="0" id="base" inkscape:current-layer="g2452" inkscape:cx="432.04417" inkscape:cy="216.74342" inkscape:document-units="px" inkscape:pageopacity="0.0" inkscape:pageshadow="2" inkscape:window-height="1000" inkscape:window-maximized="0" inkscape:window-width="1280" inkscape:window-x="-8" inkscape:window-y="-8" inkscape:zoom="2.191254" pagecolor="#ffffff" showgrid="false">
	</sodipodi:namedview>
<g id="g3200" transform="matrix(3.9713672,0,0,3.9383213,-1710.9148,-2138.9472)">
	<g>
		<g>
			<defs>
				<rect id="SVGID_1_" x="237.5" y="378" width="523.4" height="454.9"/>
			</defs>
			<clipPath id="SVGID_2_">
				<use xlink:href="#SVGID_1_"  style="overflow:visible;"/>
			</clipPath>
			<g id="g3202" class="st1">
				<g id="g3208" transform="translate(472.4966,659.60361)">
					<path id="path3210" inkscape:connector-curvature="0" class="st0" d="M-11-67.8c1.2-0.4,1.2-0.3,0.1-0.9s-5.3-2-5.3-2
						s-0.3,1.3-0.1,1.7c0.1,0.4,0.1,1.5,0,2C-16.3-66.9-12.2-67.3-11-67.8"/>
				</g>
				<g id="g3212" transform="translate(476.114,652.8625)">
					<path id="path3214" inkscape:connector-curvature="0" class="st0" d="M-11-54c-1.6,1-3.2,1.3-6.1,1.5c0.3,0.6,0.9,1.1,1.9,1
						c-1,0.9-1.5,1.7-1.6,2.2c2.3-1.1,4-1.6,7.1-1.4c5.1,0.3,5.2-2,3.9-4C-6.9-56.7-9.7-54.8-11-54"/>
				</g>
				<g id="g3216" transform="translate(518.44099,656.093)">
					<path id="path3218" inkscape:connector-curvature="0" class="st0" d="M-11-60.6l-4.5,2.2c-0.3,0.5-0.6,1-0.9,1.6l4.9-2.4
						c-1,2.6-2,5.4-2.9,8c-1.6,1.1-5,2.4-6.3,2.9c-0.1,0.4-0.3,0.7-0.4,1.1c1.3-0.5,4.8-1.7,6.3-2.7c-1.4,4.3-2.5,7.9-2.8,9.3
						c-0.1,0.2,0.1,0.5,0.3,0.5c0.2,0.1,0.4-0.1,0.5-0.3c0.3-1.4,1.3-4.6,2.6-8.5c0.6,1.8,2,4,3.2,5.4c0.3-0.3,0.5-0.4,0.6-0.5
						c0,0,0,0,0-0.1c-1.3-1.5-2.7-4.4-3.3-6.4c0.8-2.4,1.7-4.9,2.6-7.2c0.5,1.3,1.9,3.5,2.5,4.5c0.1-0.5,0.2-0.9,0.3-1.4
						c-0.6-0.9-2-3.1-2.3-4.3c1.5-3.8,2.9-7.2,4-8.8c0.3-0.5,0.8-1.8,0.4-2C-7.6-68.2-9.3-64.6-11-60.6"/>
				</g>
				<g id="g3220" transform="translate(568.79739,630.5822)">
					<path id="path3222" inkscape:connector-curvature="0" class="st0" d="M-10.9-8.5c-0.2-0.1-0.5-0.1-0.7-0.2
						c-2.1-0.5-4.6-1-8.1-5.6l1.8-5.8c1.3,2.4,2.3,4.2,2.7,5c0.1,0.2,0.3,0.3,0.5,0.2c0.2-0.1,0.3-0.4,0.2-0.6
						c-0.4-0.9-1.4-2.8-2.8-5.2l5.2,1C-11.1-16.1-10.6-12.4-10.9-8.5 M-26.7-26.4l1.9-5.4c2.3,3.8,4.5,7.7,6.3,10.8l-1.9,5.9
						C-22.1-17.7-24.2-21.3-26.7-26.4 M-31.8-38.3l0.7-4.1c1.7,2.8,3.7,6.2,5.8,9.6l-1.9,5.3C-28.6-30.5-30.1-34.1-31.8-38.3
						 M-37.5-53.6c0-0.2,0.1-0.4,0.4-0.2c0.7,0.7,1.5,1.5,2.5,2.4c2.4,2.3,5.4,5.2,8.5,8.6L-31-44c-1.8-2.9-3-4.9-3.2-5.2
						c-0.1-0.2-0.4-0.2-0.6-0.1c-0.2,0.1-0.2,0.4-0.1,0.6c0.3,0.5,1.6,2.6,3.3,5.4l-0.7,3.8C-33.9-43.8-35.7-48.4-37.5-53.6
						 M-17.1-31l-7.5-2.3c-2.1-3.5-4.2-7-5.9-9.8l5.3,1.3C-22.3-38.5-19.5-34.9-17.1-31 M-16.5-29.9c1.7,2.9,3.2,6.1,4.2,9.3l-5.5-1
						c-1.7-3.1-4-6.8-6.2-10.6L-16.5-29.9L-16.5-29.9 M-34.1-52.1c-1.8-1.7-3.2-3.1-4.2-4.1c-0.2,0.3-0.4,0.7-0.7,0.9
						C-23.3-10.4-16.9-9-11.8-7.9c0.4,0.1,0.8,0.2,1.1,0.3l0.5,0.1l0.1-0.5C-8.2-27.2-25.1-43.4-34.1-52.1"/>
				</g>
				<g id="g3224" transform="translate(461.58971,623.103)">
					<path id="path3226" inkscape:connector-curvature="0" class="st0" d="M-11,6.7c-0.2-0.1-0.5,0-0.4,0.3c0,0,0.5,2.3,0.5,3.3
						c0,0.4,0,0.8-0.1,1.2c1.8,6.1,7.4,2.7,3.3-2C-9.1,8.8-10.2,7.1-11,6.7"/>
				</g>
				<g id="g3228" transform="translate(545.46609,627.2133)">
					<path id="path3230" inkscape:connector-curvature="0" class="st2" d="M-10.9-1.7c-0.5-1.1-1.1-4.2-1.9-8.4l-2.8,3.7
						c0.8,2.7,1.8,5.3,3.1,7.8L-10.9-1.7z"/>
				</g>
				<g id="g3232" transform="translate(542.92059,644.0497)">
					<path id="path3234" inkscape:connector-curvature="0" class="st2" d="M-10.9-36c0.5,2.9,0.9,5.6,1.3,8.1l5.6,3.2
						c-0.1-2.2-0.3-4.7-0.7-7.5L-10.9-36z"/>
				</g>
				<g id="g3236" transform="translate(537.5025,648.66991)">
					<path id="path3238" inkscape:connector-curvature="0" class="st2" d="M-11-45.4c0.2,2.5,0.5,5,0.9,7.5l3.5-3.6
						c-0.4-2.3-0.7-4.7-1.1-7.1L-11-45.4z"/>
				</g>
				<g id="g3240" transform="translate(539.81821,674.7614)">
					<path id="path3242" inkscape:connector-curvature="0" class="st2" d="M-11-98.7c-0.4,0.2-0.8,0.4-1.2,0.5
						c1.4,3.2,2.7,6.3,3.9,9.2C-9.2-92-10.1-95.2-11-98.7"/>
				</g>
				<g id="g3244" transform="translate(539.0657,668.399)">
					<path id="path3246" inkscape:connector-curvature="0" class="st2" d="M-11-85.7c0.6,3.9,1.3,8.6,2.1,13.5
						c0.1,1,0.3,1.9,0.4,2.9l5.5,3.2c-1.5-5.7-3.8-12.3-7-20.1C-10.4-87.2-11.2-86.7-11-85.7"/>
				</g>
				<g id="g3248" transform="translate(541.7191,651.62711)">
					<path id="path3250" inkscape:connector-curvature="0" class="st2" d="M-10.9-51.5c0.3,2.3,0.7,4.6,1,6.8l6.2,3.7
						c-0.4-2.2-0.9-4.6-1.6-7.2L-10.9-51.5z"/>
				</g>
				<g id="g3252" transform="translate(540.70911,652.7756)">
					<path id="path3254" inkscape:connector-curvature="0" class="st2" d="M-11-53.8c-0.1-0.9-0.3-1.8-0.4-2.7
						c-0.7-4.8-1.4-9.5-2.1-13.4c-0.1-0.9-1.1-0.9-1.1,0.3c-0.2,5.1-0.3,11.8,0.3,19L-11-53.8z"/>
				</g>
				<g id="g3256" transform="translate(543.3951,636.31149)">
					<path id="path3258" inkscape:connector-curvature="0" class="st2" d="M-10.9-20.2c-0.4-2.4-0.8-5.1-1.3-8l-3.5,3.6
						c0.5,2.7,1.1,5.5,1.9,8.1L-10.9-20.2z"/>
				</g>
				<g id="g3260" transform="translate(553.3694,637.9032)">
					<path id="path3262" inkscape:connector-curvature="0" class="st2" d="M-10.9-23.5c-1.5-2.4-3.4-6-4.7-9
						c4.1,17.6,0.9,25.5-0.6,29.2l-0.3,0.8l-0.3,0.7l-0.4-0.6c-13.1-16.8-11.1-47.9-10.5-58.2c0-0.2,0-0.5,0-0.7
						c-0.1,0-0.2,0-0.3-0.1l-0.8,0.2c-0.4,2.1-0.4,23.3,0.1,29.7s2.1,14.6,2.2,18.1c0.3,0.7,3.7,6.3,4.9,8.8c1.2,2.4,3,5.4,3.4,8.2
						C-11-3.1-9.7-14.1-10.9-23.5"/>
				</g>
				<g id="g3264" transform="translate(549.8862,632.29559)">
					<path id="path3266" inkscape:connector-curvature="0" class="st2" d="M-10.9-12l-5.5-3.1c0.7,4.2,1.4,7.2,1.8,8.1l3,2.8
						C-11.2-6.3-10.9-8.9-10.9-12"/>
				</g>
				<g id="g3268" transform="translate(547.3669,618.8177)">
					<path id="path3270" inkscape:connector-curvature="0" class="st2" d="M-10.9,15.5c0.5-1.2,1.2-2.9,1.7-5.3l-3-2.8l-1.8,3.3
						C-13.1,12.4-12.1,14-10.9,15.5L-10.9,15.5z"/>
				</g>
				<g id="g3272" transform="translate(533.8441,618.66879)">
					<path id="path3274" inkscape:connector-curvature="0" class="st2" d="M-11,15.8c-1.7-0.8-3.6-2-4.8-3.3
						c-0.2-2.3-0.3-6-0.3-10.3c1.5,1.4,4.3,3.2,5.3,3.8C-10.5,9.7-10.6,12.9-11,15.8 M-11.8,21.2c-1,1.1-3-1.3-3.8-2.9l-0.3,0.9
						c-1.3,2.6-2.2,2.3-2.9,1.4c-0.4-1.7-0.7-3.4-1-5.1c0.8-0.5,2.8-1.6,3.6-2.3c1.1,1.2,4.3,3.1,5.1,3.5
						C-11.3,18.4-11.5,19.9-11.8,21.2 M-20.7,4.3l3.7-2.6c0,4.3,0.1,8,0.4,10.6c-0.9,0.9-2.6,1.9-3.4,2.3
						C-20.4,11.2-20.6,7.8-20.7,4.3 M-20-7.2c0.7-0.5,2.6-1.9,3.4-2.8c-0.2,3.7-0.3,7.3-0.4,10.6c-0.8,0.8-2.7,2.1-3.7,2.8
						C-20.6,0-20.4-3.6-20-7.2 M-19.5-11.4c0.8-5.1,1.8-9.5,3.2-14c0.3-1.2,1.2-1.3,1.1-0.1c-0.6,4.4-1.1,9.3-1.4,14.2
						c-0.5,0.8-2.5,2.4-3.3,3C-19.8-9.3-19.6-10.4-19.5-11.4 M-13.1-25.1c0.2,5.9,0.7,12.7,1.1,17.6c-1-0.6-2.6-1.8-3.6-2.8
						c0.3-5.3,0.7-10.6,1.3-15.2C-14-27.1-13.2-26.6-13.1-25.1 M-11.4-1.4c0.3,2.3,0.6,4.4,0.7,6.5c-1.4-0.8-3.9-2.6-5.2-4
						c0-3.2,0.1-6.7,0.3-10.3c1.1,1,2.8,2.3,3.7,2.9C-11.7-4.1-11.6-2.3-11.4-1.4 M-12.3-39.5c-3.6,9.4-6.6,18.7-8,28
						c-2.5,16.3-1.2,30.6,3.9,42.6c0,0.2,0.4,0.6,0.8,0.8c0.5,0.2,0.6-0.3,0.9-0.8c0.7-1.1,7.2-11.4,4-32.6
						C-11.2-5.8-13.1-35.8-12.3-39.5"/>
				</g>
				<g id="g3276" transform="translate(510.9424,617.80479)">
					<path id="path3278" inkscape:connector-curvature="0" class="st2" d="M-11,17.5c0-0.8,0.2-1.1,0.2-1.2c0.9-0.3,1.6,0.8,2.1,2.4
						c0.2,1.1,0.2,2.1,0.2,3C-9.7,20.7-10.9,19.2-11,17.5 M2.5-42.8L2.5-42.8c0.5,0.1,0.8-0.3,0.8-0.8s-0.4-0.8-0.9-0.8
						c-7.9-0.2-19.8,0.9-26.9,2.5c-0.4-3.6-1.4-5.8-2.7-8.2c-0.7-1.5-1.5-3-2.2-5c-0.8-2.5-0.8-4.2,0.1-5c1.1-0.9,3.5-0.5,5,0.5
						c0.3,0.2,0.6,0.4,0.9,0.6c3,2,7.9,5.3,13.3,0.9c1.5-1.2,2.7-1.7,3.6-1.4c1.7,0.5,2.6,3.6,3.5,6.6l0.1,0.2
						c0.6,1.9,1.7,3.3,3.2,4.1c2.1,1.1,4.9,0.4,6.3-0.4c0.4-0.2,0.5-0.6,0.3-1s-0.7-0.6-1.1-0.3c-0.9,0.5-3,1.3-4.8,0.4
						c-1.1-0.6-1.9-1.8-2.4-3.2l0-0.3c-1-3.4-2.1-6.8-4.6-7.6c-1.5-0.5-3.1,0.1-5.1,1.7c-4.5,3.6-8.6,0.8-11.4-1
						c-0.3-0.2-0.6-0.4-0.9-0.6c-1.6-1-5-2.1-6.9-0.5c-1.5,1.3-1.7,3.6-0.6,6.9c0.7,2.1,1.6,3.8,2.3,5.2c2,4,3.7,7.2,1.8,18.5
						C-29.5-14.7-29.9-8.3-24.3,0c1.2,1.7,2.2,3.1,3.1,4.3c3.2,4.3,4.5,6.1,4.9,13.6c0.3,5.2,1.8,9,4.2,10.1
						c1.1,0.5,2.3,0.4,3.3-0.4c0.8-0.6,1.4-1.7,1.8-3c0.1,0.1,0.2,0.1,0.3,0.2c0.9,0.5,2.6-0.1,3.6-1.3c1-1.3,2.8-5-2.8-11.9
						c-1.3-1.7-2.8-3.2-4.3-4.7c-1.8-1.7-3.3-3.3-4.6-5.1c-2.5-3.3-5.7-7.5-4.8-18.5l0.6-6.6c0.4-4.7,0.4-5,0.8-6.6
						c0.5-2.2,1.3-3.2,1.6-3.3c0.2,0,0.6,0.2,1.3,1.4c1.3,2.3,2.5,3.3,3.6,3.1c1.3-0.3,1.6-2.2,1.7-3.6c0.4-5,1.2-5.2,1.2-5.2
						s0.4,0,1.4,1.4c1.3,1.8,2.1,2.9,3.2,2.7s1.4-1.5,2.3-4.9l0.2-0.8c0.1-0.5-0.1-0.9-0.6-1c-0.4-0.1-0.9,0.3-1,0.7l-0.2,0.8
						c-0.4,1.5-0.8,3-1.1,3.6c-0.4-0.4-1.2-1.5-1.5-1.9c-0.8-1.1-1.9-2.4-3.2-2s-2,2.3-2.4,6.7c-0.1,1.5-0.4,1.9-0.5,2
						c-0.2-0.1-1-0.7-1.8-2.3c-0.3-0.6-1.4-2.6-2.9-2.3c-1.6,0.2-2.5,2.6-3,4.6c-0.4,1.8-0.5,2.1-0.8,6.9l-0.6,6.6
						C-22.3-5-18.8-0.4-16.2,3c1.4,1.8,3,3.5,4.6,5.2c1.4,1.5,2.9,3,4.2,4.6c3.2,3.9,4.3,7.4,3,9.4c-0.6,1-1.5,1.3-1.8,1.2
						c-0.2-0.1-0.5-0.3-0.7-0.5c0.1-1.3,0.1-2.8-0.2-4.5c-0.3-1.9-2.2-4-4-3.8c-0.7,0.1-1.7,0.7-1.6,2.9c0.1,2.7,2.1,4.7,4,6.1
						c-0.3,1.3-0.8,2.2-1.3,2.6s-1,0.5-1.6,0.2c-1.3-0.6-3-3.3-3.3-8.7c-0.4-8-1.9-10.1-5.2-14.5C-21,2-22,0.7-23.1-1.1
						c-5.2-7.7-4.8-13.9-2.2-29.5c0.7-4.2,0.9-7.3,0.8-9.8C-17.3-42-6.5-43.1,2.5-42.8"/>
				</g>
				<g id="g3280" transform="translate(494.50639,616.0168)">
					<path id="path3282" inkscape:connector-curvature="0" class="st3" d="M-11,21.2c-1.9-0.6-2.8-3.6-2-6.8
						c0.8-3.2,3.1-5.4,5.1-4.8c1.9,0.6,2.8,3.6,2,6.8C-6.8,19.6-9,21.7-11,21.2 M-18.8,4.3c-9.7-3-3.5-15.5,1-14.2
						C-23.7-4.4-20.7,2-18.8,4.3 M-30.1-12.1c3.5-1.7,4.5,1.8,1.2,2.8c-9.4,2.8-10.1-2.1-7.9-4.3c-5.7-3.6,1.6-6.5,4.8-7.5
						c3.1-1,3,2.1,1.2,2.6c-1.8,0.4-2.5,0.9-4,1.3c-0.8,0.2-1,0.9-0.7,1.6c2.9-0.2,4.4-0.5,6.1-1.5c1.3-0.8,4.1-2.7,5.3-0.8
						c1.2,2,1.1,4.3-3.9,4c-3.1-0.2-4.8,0.4-7.1,1.4C-35.4-10.9-32.7-10.8-30.1-12.1 M-41.1-18.6c-1.1,0.2-0.3-2.4-0.4-3
						c-1.2,0.2-3.4-0.1-3.6-0.6c-0.3-0.6,1.1-1,3.8-1.1c-0.2-1.4-0.7-3.8,0.2-5.1c-2-0.7-4.3-1.2-2.5-2.6c1.6-1.2,1.2-2,1.2-2
						c-1-0.8-2.2-2.6,0.4-3.7c2.6-1.1,6.2-0.5,8,1c2.2,1.8,5.2,3.8,7.6,3.5c3.8-0.5,2.9,1.3,0.7,2.3c-2.7,1.1-6.6-1-7.5-1.5
						c-0.9-0.6-3.6-2-4-0.8s-1.2,2.1-0.2,2.7c2,1.4,5.2,3.4,7,4.3c1.3,0.7,1.2,1.6-1.2,2.2c-2.8,0.7-7,1.4-7,1.4
						C-39.1-20.2-40-18.8-41.1-18.6 M-30.4-46c2.2-1.6,3.4-2.6,3.4-2.6c1.5-1,1.4-0.5,2.5,0.3c1.2,0.9,3.4,3,4.2,3.8
						c1.4,1.4,0.2,2.5-0.8,1.1c-1.9-2.6-4.5-4.2-4.5-4.2l-1.3,0.9c2.1,1.8,6.7,5.9,8.5,9c0.5,0.9-0.5,1.5-1.3,0.5
						c-2.5-3.4-8.5-8.5-8.5-8.5l-1.3,0.9c1.5,1.6,3.7,3.2,4.5,4.6c0.8,1.4,0.2,2.5-1,0.9c-1.4-1.9-3.3-3.3-3.3-3.3
						C-30.7-43.7-32.6-44.4-30.4-46 M-40.2,16.7c-0.2,0-0.3-0.1-0.5-0.2c4.1,4.8-1.5,8.1-3.3,2c-0.6,3.2-3.8,2.1-3.3-0.1
						c0.2-1.3,0.3-3.6,0.3-4.7c0-0.5-0.6-1.5,0.2-1.8c0.9-0.3,1.5-0.4,2.1-0.9c0.9-0.6,1.3,0.3,1.6,0.5c1.2,0.8,2.4,1.2,3.8,1.7
						C-35.9,14.6-38.1,17.2-40.2,16.7 M-5.8,19.4c3.8-9.6-2.4-12-4.3-10.6c-9.8-16-6.1-28.4-5.3-34.2c2.9-21.8-6.6-24.7-9.9-27.3
						c-3.9,1.9-13.3,9.9-18.7,14.8c-5.3,4.9-3.7,6.9-3.3,9.6c0.4,2.8-1.2,5.4-2.3,6.9c-1,1.5-1.4,2.5-5.5,9.1s-0.2,8.3,2,8.3
						c2.3,0,6.5-0.8,10.3-1.1c1.3-0.1,2.6-1.4,1.6-2.9s-2.3-2.4-3.8-2.4c-1.3,0.1-1.8,1.8,0.1,2.3c1.7-0.4,1.9,2-1,1.1
						c-2.1-0.7-2.8-5.2,1.4-4.6c3.8,0.5,5.7,3.8,5.1,6.3c0.6,0.2,3.5,2,4.2,3.9c1.3,3.4-0.5,3.2-1.3,1.1c-1.9-5-8.1-3.1-12-2.8
						c-2.3,0.2-1.7,0.5-2.1,1.8c-1,3.4-1.7,6.8,0.6,7.4c1.8,0.5,6.1-0.4,7.7-0.8c1.6-0.4,1.4-1.7-0.2-1.5c-1.6,0.2-2.5-1.5,0-1.9
						s3.9,0.9,3.7,1.9c-0.2,1.1,0.4,1.9,1,2.1c0.6,0.2,1.1,1.7,1.2,2.6c0.4,2.8-1.8,2.3-1.6,0.4c0.1-0.8-1.2-2.1-2.5-1.5
						c-1.2,0.6-7.2,1.3-9.9,0.9c-1.8,1.9-0.7,3.9-0.1,4.7c0.6,0.9,0.9,3.8,0.1,5.7c-2.7,6.1,3.5,8.4,6,8.6c8.8,0.6,15.7-1,22-3.4
						c3.2-1.4,5.3-4.1,7.1-6.6c-0.6,2.7-1.9,5.1-4.1,6.8c-3,2.2-8.3,3.7-11.4,4.5c0,0,0.5,3.9,1.3,6.6c0.7,2.3,2.1,4.1,2.7,5.7
						c0.8,2.1,1.3,4.4,3.8,3.7C-13,41.6-4.1,37,0.6,34C0.3,33.2-4.6,22.1-5.8,19.4"/>
				</g>
				<g id="g3284" transform="translate(497.0006,625.1422)">
					<path id="path3286" inkscape:connector-curvature="0" class="st3" d="M-11,2.6c-1.2-0.3-2.4,0.9-3,2.9c-0.5,2-0.2,4.1,1,4.4
						c1.2,0.4,2.3-1.2,2.9-3.2C-9.5,4.7-9.7,2.9-11,2.6"/>
				</g>
				<g id="g3288" transform="translate(466.6418,668.4057)">
					<path id="path3290" inkscape:connector-curvature="0" class="st3" d="M-11-85.7c-1.3,0.2-2.8,0.7-3.1,1.1
						c-0.2,0.3,1.7,1.3,2.3,1.5c0.6,0.3,0.7-0.4,1-1C-10.5-84.8-9.7-85.9-11-85.7"/>
				</g>
				<g id="g3292" transform="translate(540.05659,688.5518)">
					<path id="path3294" inkscape:connector-curvature="0" class="st4" d="M-11-126.8h-7.1l4.6,5.1h2.6v-5.1H-11z"/>
				</g>
				<g id="g3296" transform="translate(561.3011,642.6256)">
					<path id="path3298" inkscape:connector-curvature="0" class="st4" d="M-10.9-33.1c-1.8-3.1-4-6.9-6.3-10.8l-1.9,5.4
						c2.4,5.1,4.5,8.7,6.3,11.3L-10.9-33.1z"/>
				</g>
				<g id="g3300" transform="translate(547.9776,659.1409)">
					<path id="path3302" inkscape:connector-curvature="0" class="st4" d="M-10.9-66.8c1.7,4.2,3.2,7.7,4.6,10.8l1.9-5.3
						c-2-3.4-4.1-6.8-5.8-9.6L-10.9-66.8z"/>
				</g>
				<g id="g3304" transform="translate(563.17571,651.1433)">
					<path id="path3306" inkscape:connector-curvature="0" class="st4" d="M-10.9-50.5l-7.4-2.3c2.2,3.8,4.4,7.5,6.2,10.6l5.5,1
						C-7.7-44.4-9.1-47.5-10.9-50.5L-10.9-50.5"/>
				</g>
				<g id="g3308" transform="translate(572.17841,638.2766)">
					<path id="path3310" inkscape:connector-curvature="0" class="st4" d="M-10.9-24.2C-14.2-46.1-38.1-62.9-41-65.9l-0.1,0.1
						c-0.1,0.7-0.3,1.3-0.6,1.9c1,1.1,2.4,2.4,4.2,4.1c9.1,8.7,25.9,24.9,24,44.1l-0.1,0.5l-0.5-0.1c-0.4-0.1-0.7-0.2-1.1-0.3
						c-5.1-1.1-11.5-2.6-27.2-47.4c-0.3,0.3-0.6,0.6-1,0.8c0.9,3.5,1.7,6.7,2.6,9.7c2.1,5.3,3.7,10,4.9,14.2
						C-24.6-10.6-13.2-11.9-10.5-12C-11.3-14-10.2-19.6-10.9-24.2"/>
				</g>
				<g id="g3312" transform="translate(545.04269,671.8156)">
					<path id="path3314" inkscape:connector-curvature="0" class="st4" d="M-10.9-92.7c-0.9-0.9-1.7-1.7-2.5-2.4
						c-0.3-0.2-0.4,0-0.4,0.2c1.9,5.2,3.6,9.9,5.2,13.9l0.7-3.8c-1.7-2.9-3-4.9-3.3-5.4c-0.1-0.2-0.1-0.5,0.1-0.6
						c0.2-0.1,0.4-0.1,0.6,0.1c0.2,0.3,1.4,2.3,3.2,5.2l4.9,1.2C-5.5-87.5-8.5-90.3-10.9-92.7"/>
				</g>
				<g id="g3316" transform="translate(549.2486,663.7896)">
					<path id="path3318" inkscape:connector-curvature="0" class="st4" d="M-10.9-76.3c1.7,2.8,3.8,6.3,5.9,9.8l7.5,2.3
						c-2.4-3.9-5.2-7.5-8.1-10.7L-10.9-76.3z"/>
				</g>
				<g id="g3320" transform="translate(568.10159,630.744)">
					<path id="path3322" inkscape:connector-curvature="0" class="st4" d="M-10.9-8.9c0.2,0.1,0.5,0.1,0.7,0.2
						c0.3-3.8-0.1-7.6-1.1-11.2l-5.2-1c1.4,2.5,2.4,4.3,2.8,5.2c0.1,0.2,0,0.5-0.2,0.6s-0.5,0-0.5-0.2c-0.4-0.8-1.4-2.6-2.7-5
						l-1.8,5.8C-15.5-9.9-13-9.3-10.9-8.9"/>
				</g>
				<g id="g3324" transform="translate(528.79269,632.8503)">
					<path id="path3326" inkscape:connector-curvature="0" class="st5" d="M-11-13.2c1.3,1.4,3.9,3.2,5.2,4c-0.1-2-0.3-4.2-0.7-6.5
						c-0.1-0.8-0.3-2.6-0.5-5c-1-0.6-2.7-1.8-3.7-2.9C-10.8-19.9-10.9-16.4-11-13.2"/>
				</g>
				<g id="g3328" transform="translate(528.7821,631.6763)">
					<path id="path3330" inkscape:connector-curvature="0" class="st5" d="M-11-10.8c0,4.3,0.1,7.9,0.3,10.3c1.2,1.2,3,2.4,4.8,3.3
						C-5.6-0.1-5.5-3.3-5.6-7C-6.6-7.6-9.5-9.4-11-10.8"/>
				</g>
				<g id="g3332" transform="translate(530.134,604.00121)">
					<path id="path3334" inkscape:connector-curvature="0" class="st5" d="M-11,45.7c-0.3,0.5-0.4,0.9-0.9,0.8
						c-0.4-0.1-0.8-0.5-0.8-0.8c-5.1-12-6.4-26.3-3.9-42.6c1.4-9.2,4.4-18.6,8-28C-9.4-21.2-7.6,8.8-7,13
						C-3.8,34.3-10.2,44.6-11,45.7 M-6.9-26.9c0.2-0.7,0.4-1.2,0.5-1.5c-0.3-0.3-0.6-0.6-0.8-1c-5.2,7.3-20.2,52-5.6,76.9
						c0.6,1.1,1.7,1.2,2.2,0.6c2.7-2.6,7.7-16.2,5.8-27.1C-6.9,9.2-8-23.2-6.9-26.9"/>
				</g>
				<g id="g3336" transform="translate(532.76891,641.0865)">
					<path id="path3338" inkscape:connector-curvature="0" class="st5" d="M-11-30c-0.4-4.9-0.8-11.6-1.1-17.6c-0.1-1.5-1-2-1.2-0.5
						c-0.6,4.6-1,9.9-1.3,15.2C-13.5-31.8-11.9-30.6-11-30"/>
				</g>
				<g id="g3340" transform="translate(527.8054,632.22211)">
					<path id="path3342" inkscape:connector-curvature="0" class="st5" d="M-11-11.9l-3.7,2.6c0,3.5,0.3,7,0.7,10.3
						c0.9-0.4,2.6-1.4,3.5-2.3C-10.8-3.9-11-7.6-11-11.9"/>
				</g>
				<g id="g3344" transform="translate(524.99541,618.92619)">
					<path id="path3346" inkscape:connector-curvature="0" class="st5" d="M-11,15.2c0.3,1.7,0.6,3.5,1,5.1c0.7,0.8,1.6,1.2,2.9-1.4
						l0.3-0.9c0.8,1.6,2.9,3.9,3.8,2.9c0.3-1.4,0.6-2.9,0.8-4.5c-0.8-0.4-4-2.3-5.1-3.5C-8.2,13.6-10.1,14.8-11,15.2"/>
				</g>
				<g id="g3348" transform="translate(528.2495,644.7063)">
					<path id="path3350" inkscape:connector-curvature="0" class="st5" d="M-11-37.4c0.3-4.9,0.8-9.8,1.4-14.2
						c0.1-1.3-0.8-1.1-1.1,0.1c-1.4,4.6-2.4,8.9-3.2,14c-0.2,1-0.3,2.1-0.4,3.1C-13.5-35-11.4-36.6-11-37.4"/>
				</g>
				<g id="g3352" transform="translate(528.1721,643.45261)">
					<path id="path3354" inkscape:connector-curvature="0" class="st5" d="M-11-34.8c-0.8,0.9-2.7,2.3-3.4,2.8
						c-0.4,3.6-0.6,7.2-0.7,10.6c1-0.7,2.8-2,3.7-2.8C-11.3-27.5-11.2-31.1-11-34.8"/>
				</g>
				<g id="g3356" transform="translate(537.5912,676.4427)">
					<path id="path3358" inkscape:connector-curvature="0" class="st5" d="M-11-102.1c-1.2,0-2.2-1-2.2-2.3s1-2.3,2.2-2.3
						s2.2,1,2.2,2.3S-9.8-102.1-11-102.1 M-11-107.9c-1.9,0-3.4,1.6-3.4,3.5s1.5,3.5,3.4,3.5s3.4-1.6,3.4-3.5S-9.1-107.9-11-107.9"
						/>
				</g>
				<g id="g3360" transform="translate(546.66479,685.4415)">
					<path id="path3362" inkscape:connector-curvature="0" class="st5" d="M-10.9-120.5c-1.6,0.7-3.3,2-4.4,3.4l1.1,3.1l4.8-1.2
						L-10.9-120.5z"/>
				</g>
				<g id="g3364" transform="translate(520.8015,649.17599)">
					<path id="path3366" inkscape:connector-curvature="0" class="st5" d="M-11-46.5c-0.9,4-1.5,7.4-1.8,9.2c0,0,0,0,0,0.1
						c-0.1,0.1-0.3,0.3-0.6,0.5c-0.3,0.3-0.7,0.8-1.3,1.4c-1.7,1.7-3.9,4-5.3,5.1c-0.8-1.5-3.5-6.9-4-8.9c0.1-0.4,0.3-0.9,0.5-1.3
						c0.1-0.4,0.3-0.7,0.4-1.1c1.2-2.8,2.6-5.7,4.3-8.5c0.3-0.5,0.6-1,0.9-1.6c4.8-7.7,10.7-14.8,14.4-19
						c-2.9,5.9-5.4,15.3-7.1,22.8C-10.8-47.4-10.9-46.9-11-46.5 M-24.8-39.3L-24.8-39.3v0.2c0.4,2.3,4.1,9.4,4.3,9.7l0.2,0.4
						l0.4-0.2c1.5-1,4-3.6,5.8-5.5c0.9-0.9,1.7-1.8,1.9-1.9l0.2-0.1v-0.2c0.7-5.6,6-30.4,11.2-37.8C-4.5-70.8-19.9-53.5-24.8-39.3"
						/>
				</g>
				<g id="g3368" transform="translate(497.9229,621.1568)">
					<path id="path3370" inkscape:connector-curvature="0" class="st6" d="M-11,10.7c-0.5,2-1.6,3.6-2.9,3.2c-1.2-0.4-1.6-2.4-1-4.4
						c0.5-2,1.7-3.3,3-2.9C-10.7,6.9-10.4,8.7-11,10.7 M-11.3,4.4c-1.9-0.6-4.2,1.6-5.1,4.8c-0.8,3.2,0.1,6.3,2,6.8
						c1.9,0.6,4.2-1.6,5.1-4.8C-8.5,8-9.4,5-11.3,4.4"/>
				</g>
				<g id="g3372" transform="translate(475.3889,647.9832)">
					<path id="path3374" inkscape:connector-curvature="0" class="st6" d="M-11-44c-2.6,1.3-5.3,1.2-5-0.3c0.1-0.5,0.6-1.3,1.6-2.2
						c-1,0.1-1.7-0.4-1.9-1c-0.3-0.6-0.1-1.3,0.7-1.6c1.5-0.4,2.2-0.9,4-1.3c1.8-0.4,1.9-3.6-1.2-2.6s-10.5,4-4.8,7.5
						c-2.2,2.1-1.4,7.1,7.9,4.3C-6.5-42.2-7.5-45.7-11-44"/>
				</g>
				<g id="g3376" transform="translate(517.9183,654.8282)">
					<path id="path3378" inkscape:connector-curvature="0" class="st6" d="M-11-58l-4.9,2.4c-1.6,2.8-3.1,5.7-4.3,8.5
						c1.3-0.5,4.7-1.8,6.3-2.9C-13-52.6-12-55.4-11-58"/>
				</g>
				<g id="g3380" transform="translate(523.1981,665.0643)">
					<path id="path3382" inkscape:connector-curvature="0" class="st6" d="M-11-78.9c0.4,0.2-0.1,1.5-0.4,2c-1.1,1.6-2.5,5-4,8.8
						c0.3,1.3,1.7,3.5,2.3,4.3c1.7-7.5,4.3-16.8,7.1-22.8c-3.6,4.3-9.5,11.5-14.2,19.2l4.5-2.2C-14.1-73.6-12.4-77.2-11-78.9"/>
				</g>
				<g id="g3384" transform="translate(519.8149,639.9991)">
					<path id="path3386" inkscape:connector-curvature="0" class="st6" d="M-11-27.8v0.2l-0.2,0.1c-0.2,0.1-1.1,1-1.9,1.9
						c-1.8,1.9-4.3,4.5-5.8,5.5l-0.4,0.2l-0.2-0.4c-0.2-0.3-3.9-7.3-4.3-9.7v-0.1v-0.1c4.9-14.1,20.3-31.4,24.1-35.3
						C-4.9-58.2-10.2-33.3-11-27.8 M2.4-68c-0.2,0-0.6,0.1-1.2,0.5C0-66.5-15.1-54.3-24.5-32c-1,2.4-1.1,1.4-0.1,4.1
						s3.6,7.4,4.2,8.5c0.7,1.1,0.6,1.6,1.5,0.9c3.4-3,6.2-6,7.2-6.9c1.2-0.9,2.1-2.3,2.2-3.9c0.2-3.1,6.1-31,12-37.2l0,0
						c-0.2-0.5-0.3-1-0.3-1.5C2.4-68,2.4-68,2.4-68"/>
				</g>
				<g id="g3388" transform="translate(515.759,646.5099)">
					<path id="path3390" inkscape:connector-curvature="0" class="st6" d="M-11-41c0.6,2,1.9,4.9,3.3,6.4c0.3-1.8,0.9-5.2,1.8-9.2
						c-0.6-0.9-2-3.2-2.5-4.5C-9.3-45.9-10.2-43.4-11-41"/>
				</g>
				<g id="g3392" transform="translate(517.09509,638.4393)">
					<path id="path3394" inkscape:connector-curvature="0" class="st6" d="M-11-24.6c0.6-0.6,1-1.1,1.3-1.4
						c-1.3-1.4-2.6-3.6-3.2-5.4c-1.3,3.9-2.3,7.2-2.6,8.5c-0.1,0.2-0.3,0.4-0.5,0.3s-0.4-0.3-0.3-0.5c0.3-1.4,1.4-5,2.8-9.3
						c-1.6,1.1-5,2.3-6.3,2.7c-0.2,0.4-0.3,0.9-0.5,1.3c0.4,2,3.2,7.3,4,8.9C-14.8-20.6-12.6-22.9-11-24.6"/>
				</g>
				<g id="g3396" transform="translate(537.5912,680.7686)">
					<path id="path3398" inkscape:connector-curvature="0" class="st6" d="M-11-110.9c-1.2,0-2.2,1-2.2,2.3s1,2.3,2.2,2.3
						s2.2-1,2.2-2.3S-9.8-110.9-11-110.9"/>
				</g>
				<g id="g3400" transform="translate(466.1642,623.57539)">
					<path id="path3402" inkscape:connector-curvature="0" class="st6" d="M-11,5.8c-1.3-0.5-2.6-1-3.8-1.7
						c-0.3-0.2-0.7-1.1-1.6-0.5c-0.6,0.5-1.1,0.5-2.1,0.9c-0.9,0.3-0.2,1.3-0.2,1.8c0,1.1-0.1,3.5-0.3,4.7c-0.4,2.2,2.7,3.4,3.3,0.1
						c0.1-0.3,0.1-0.7,0.1-1.2c0-1-0.5-3.3-0.5-3.3c-0.1-0.3,0.2-0.4,0.4-0.3c0.8,0.4,1.9,2.1,3.2,2.7c0.2,0.1,0.3,0.1,0.5,0.2
						C-9.8,9.6-7.5,7.1-11,5.8"/>
				</g>
				<g id="g3404" transform="translate(546.25909,627.4594)">
					<path id="path3406" inkscape:connector-curvature="0" class="st7" d="M-10.9-2.2c-0.5-0.9-1.1-3.9-1.8-8.1l5.5,3.1
						c0,3.1-0.2,5.7-0.6,7.8L-10.9-2.2z M-9.8,6.8L-9.8,6.8C-11,5.4-12,3.7-12.9,2l1.8-3.3l3,2.8C-8.7,3.9-9.3,5.6-9.8,6.8
						 M-16.4-6.6l2.8-3.6c0.7,4.1,1.4,7.2,1.9,8.4l-1.6,3.1C-14.6-1.3-15.6-3.9-16.4-6.6 M-18.6-15.7l3.5-3.6c0.4,2.9,0.9,5.6,1.3,8
						l-2.9,3.8C-17.5-10.3-18.1-13-18.6-15.7 M-19.7-24.2l3.4-3.3c0.4,2.4,0.7,4.8,1.1,7.1l-3.5,3.6C-19.2-19.3-19.5-21.8-19.7-24.2
						 M-20.1-44.3c0.1-1.3,1-1.2,1.1-0.3c0.6,3.9,1.3,8.6,2.1,13.4c0.1,0.9,0.3,1.8,0.4,2.7l-3.3,3.2
						C-20.4-32.5-20.3-39.2-20.1-44.3 M-17.1-45.2c3.2,7.7,5.5,14.4,7,20.1l-5.5-3.2c-0.1-1-0.3-2-0.4-2.9
						c-0.7-4.8-1.4-9.5-2.1-13.5C-18.4-45.8-17.5-46.3-17.1-45.2 M-9.8-24c0.7,2.6,1.2,5,1.6,7.2l-6.2-3.7c-0.3-2.2-0.7-4.5-1-6.8
						L-9.8-24z M-7.3-8.2l-5.6-3.2c-0.4-2.4-0.9-5.2-1.3-8.1l6.2,3.7C-7.6-12.9-7.4-10.4-7.3-8.2 M-8.5-22.1
						c-0.4-1.7-0.9-3.5-1.4-5.4c-1.2-4.2-2.8-9-4.9-14.2c-1.1-2.9-2.4-5.9-3.9-9.2c-0.3,0.1-0.6,0.1-1,0.1c-0.3,0-0.6,0-0.9-0.1
						c0,0.2,0,0.5,0,0.7C-21.2-40-23.2-8.8-10.1,8l0.4,0.6l0.3-0.7l0.3-0.8C-7.6,3.4-4.4-4.5-8.5-22.1"/>
				</g>
			</g>
		</g>
	</g>
</g>
<rect x="18" y="18.2" class="st8" width="507.4" height="454.7"/>
<g id="g3428" transform="matrix(3.9713672,0,0,3.9383213,-1710.9148,-2138.9472)">
	<g>
		<g>
			<defs>
				<rect id="SVGID_3_" x="237.5" y="378" width="523.4" height="454.9"/>
			</defs>
			<clipPath id="SVGID_4_">
				<use xlink:href="#SVGID_3_"  style="overflow:visible;"/>
			</clipPath>
			<g id="g3430" class="st9">
				<g id="g3436" transform="translate(511.16541,618.9659)">
					<path id="path3438" inkscape:connector-curvature="0" class="st10" d="M-11,15.2c-0.1,0.1-0.3,0.4-0.2,1.2
						c0.1,1.7,1.3,3.1,2.6,4.2c0-0.9,0-1.9-0.2-3C-9.4,16-10.1,14.9-11,15.2"/>
				</g>
				<g id="g3440" transform="translate(486.7356,632.2623)">
					<path id="path3442" inkscape:connector-curvature="0" d="M-11-12c-2-2.2-4.9-8.7,1-14.2C-14.5-27.4-20.7-15-11-12"/>
				</g>
				<g id="g3444" transform="translate(476.15421,677.3123)">
					<path id="path3446" inkscape:connector-curvature="0" d="M-11-103.9c0,0,1.9,1.4,3.3,3.3c1.2,1.6,1.8,0.4,1-0.9
						c-0.8-1.4-3-3-4.5-4.6l1.3-0.9c0,0,6,5.2,8.5,8.5c0.7,1,1.8,0.3,1.3-0.5c-1.8-3-6.5-7.1-8.5-9l1.3-0.9c0,0,2.6,1.5,4.5,4.2
						c1,1.4,2.2,0.3,0.8-1.1c-0.8-0.8-2.9-3-4.2-3.8c-1-0.7-1-1.3-2.5-0.3c0,0-1.2,1-3.4,2.6C-14.3-105.7-12.4-105-11-103.9"/>
				</g>
				<g id="g3448" transform="translate(472.6335,660.42329)">
					<path id="path3450" inkscape:connector-curvature="0" d="M-11-69.4c1.1,0.6,1.1,0.4-0.1,0.9c-1.2,0.4-5.3,0.9-5.3,0.9
						c0.1-0.6,0.1-1.6,0-2s0.1-1.7,0.1-1.7S-12.1-70-11-69.4 M-17.8-75.1c-0.6-0.3-2.6-1.2-2.3-1.5c0.3-0.4,1.8-0.9,3.1-1.1
						c1.3-0.2,0.5,1,0.2,1.6C-17.1-75.5-17.1-74.8-17.8-75.1 M-4.6-76.7c-2.4,0.3-5.4-1.7-7.6-3.5c-1.8-1.5-5.4-2.1-8-1
						s-1.4,2.9-0.4,3.7c0,0,0.4,0.8-1.2,2c-1.8,1.4,0.5,1.9,2.5,2.6c-0.8,1.3-0.4,3.7-0.2,5.1c-2.7,0.1-4,0.5-3.8,1.1
						c0.2,0.5,2.4,0.8,3.6,0.6c0.1,0.7-0.6,3.2,0.4,3c1.1-0.2,2-1.5,2.3-3.1c0,0,4.2-0.7,7-1.4c2.4-0.6,2.6-1.6,1.2-2.2
						c-1.8-0.9-5-2.9-7-4.3c-0.9-0.7-0.2-1.5,0.2-2.7c0.4-1.2,3.1,0.3,4,0.8c0.9,0.6,4.8,2.6,7.5,1.5C-1.7-75.4-0.9-77.3-4.6-76.7"
						/>
				</g>
			</g>
		</g>
	</g>
</g>
</svg>
