<?xml version="1.0" encoding="utf-8"?>
<!-- Generator: Adobe Illustrator 21.1.0, SVG Export Plug-In . SVG Version: 6.00 Build 0)  -->
<!DOCTYPE svg PUBLIC "-//W3C//DTD SVG 1.1//EN" "http://www.w3.org/Graphics/SVG/1.1/DTD/svg11.dtd">
<svg version="1.1"
	 id="svg2" inkscape:version="0.48.2 r9819" sodipodi:docname="AJAX.svg" xmlns:cc="http://creativecommons.org/ns#" xmlns:dc="http://purl.org/dc/elements/1.1/" xmlns:inkscape="http://www.inkscape.org/namespaces/inkscape" xmlns:rdf="http://www.w3.org/1999/02/22-rdf-syntax-ns#" xmlns:sodipodi="http://sodipodi.sourceforge.net/DTD/sodipodi-0.dtd" xmlns:svg="http://www.w3.org/2000/svg"
	 xmlns="http://www.w3.org/2000/svg" xmlns:xlink="http://www.w3.org/1999/xlink" x="0px" y="0px" width="310.1px" height="282.2px"
	 viewBox="0 0 310.1 282.2" style="enable-background:new 0 0 310.1 282.2;" xml:space="preserve">
<style type="text/css">
	.st0{fill:#A7B1B7;}
	.st1{fill:#00285D;}
	.st2{fill:#E13A3E;}
	.st3{fill:#FFFFFF;}
</style>
<sodipodi:namedview  bordercolor="#666666" borderopacity="1" fit-margin-bottom="0" fit-margin-left="0" fit-margin-right="0" fit-margin-top="0" gridtolerance="10" guidetolerance="10" id="namedview73" inkscape:current-layer="svg2" inkscape:cx="202.13572" inkscape:cy="90.028402" inkscape:pageopacity="0" inkscape:pageshadow="2" inkscape:window-height="1004" inkscape:window-maximized="1" inkscape:window-width="1280" inkscape:window-x="-8" inkscape:window-y="-8" inkscape:zoom="1.7831441" objecttolerance="10" pagecolor="#ffffff" showgrid="false">
	</sodipodi:namedview>
<g id="Layer_9" transform="translate(-7.9510065,-6.912)">
</g>
<g id="Layer_8" transform="translate(-7.9510065,-6.912)">
	<g id="Silver_BG">
		<path class="st0" d="M186.3,224.6c-13.3,2.1-32,3.4-49.4,3.4c-13.5,0-25.8-0.7-36.7-2.2l-69.3,54.8l26.5-65.4
			c-6.2-2.6-17.6-7.8-27.8-17C15.2,185.2,8,168.4,8,148.6c0-17,6.4-33.5,19.1-48.9C37.9,86.5,53.1,74.5,71,65
			c25.5-13.5,53-20.3,71.3-22.4l17-35.7l11.4,33.4c0.8,0,1.6,0,2.4,0c25.3,0,44.7,4.9,56.5,8.9c9.4,3.2,15.7,6.5,18.5,8.2l69.8-11.9
			l-61.9,46c13.8-6.7,30.1-15.1,46.9-24.9l13.2-7.7l-63.7,146.6l-1.5,0.8c-3.8,2.1-11.5,5-16.6,6.8l25.2,75.9L186.3,224.6z"/>
		<path id="path7" inkscape:connector-curvature="0" class="st0" d="M158.6,20.1l-13,27.2c-19.3,1.8-47.3,8.9-72.3,22.2
			C40.8,86.7,13,114.8,13,148.6c0,48.2,46.2,61.5,51,64.1L42.7,265l56.1-44.4c30.3,4.3,69.1,2.2,89.1-1.4l61.4,53.9l-20.9-63.1
			c0,0,15.2-5.1,20.5-8.1L305.6,71c-46.4,27.1-88.2,43.2-88.2,43.2L298.4,54l-51.1,8.7c0,0-28.6-18.8-80-17.2L158.6,20.1z"/>
	</g>
	<g id="Blue_BG">
		<path id="path10" inkscape:connector-curvature="0" class="st1" d="M295.1,82.8c-42.4,23.6-71.5,35.6-101.5,46.5l-1.8-5.2
			l91.5-63.6l-101.7,26l56.8-22.9c0,0-27.4-15.6-74.9-13.2l-5.8-17.3l-31.7,65.7l-48.1,13.6l44.5-18.2l20.5-41.9
			c-5.7,0.9-11.8,1.9-18,3.3C64.6,69.6,17.8,107.9,17.8,148.2c0,42.7,37.6,56.2,52.7,61.4l-19.8,43.6l46.6-37.8
			c32,4.8,70.9,3,92.2-1.3l51.7,45.9l-19.3-53.2c0,0,11.4-2.9,23.2-8.4L295.1,82.8L295.1,82.8z M100.7,144.4
			c-15.5-2.1-20.2-7.4-20.2-11.7c0-1.6,0.8-3.4,0.8-3.4l23.4,6.5L100.7,144.4z"/>
	</g>
	<g id="Red">
		<path id="Banner" inkscape:connector-curvature="0" class="st2" d="M244.5,114.9c-52.8,27.4-98.9,38.3-128.5,38.3
			c-39.2,0-56.7-18.7-56.7-30.4c0-28,41.8-49.9,78-58.6l3-6.1c-30.3,5.5-64.5,18.1-84.1,36c-19.1,12.8-31,32-31,54
			c0,32.4,26.9,62.9,110.1,62.9c53,0,89.7-11.3,102.2-17.5c-52.2-0.3-105.5-15.9-105.5-15.9S199.8,151.5,244.5,114.9L244.5,114.9z"
			/>
		<path id="Banner_Tip" inkscape:connector-curvature="0" class="st2" d="M167,60.1C167,60.1,167,60.1,167,60.1
			c5.4-0.4,10.9-0.7,16.3-0.7c23.1,0,38.5,3.7,38.5,3.7s-16.4-8.2-50-8.2c-2.1,0-4.2,0.1-6.4,0.2L167,60.1L167,60.1z"/>
	</g>
	<g id="White">
		<path id="Low_Stripe" inkscape:connector-curvature="0" class="st3" d="M167.3,185.8L167.3,185.8c0,0-18.8,3-41.9,3
			c-91,0-97.3-45.8-97.3-59.4c-2,5.9-3,12.1-3,18.6c0.1,1,3.6,53.1,104.1,53.1c41.3,0,75.8-9.6,75.8-9.6l0,0
			C191.3,190.1,178.4,188,167.3,185.8z"/>
		<path id="Top_Stripe" inkscape:connector-curvature="0" class="st3" d="M204.8,142.1c-0.2,0.1-55.4,21.9-93.6,21.9
			c-44,0-64-25.1-64-44.8c0-13.7,9.1-25,9.1-25c-0.3,0.2-0.6,0.4-0.9,0.6c-0.1,0.1-16,12.1-16,31.1c0,30.8,30.4,47.7,65.8,47.7
			c20.1,0,40.3-3.5,52.2-6.8C170.5,160.6,187.6,152.2,204.8,142.1z"/>
	</g>
	<g id="Star">
		<g id="Grey">
			<path id="path20" inkscape:connector-curvature="0" class="st0" d="M205.9,221.4L205.9,221.4l17.2,13.5l-8.8-23.2
				C205.8,213.9,205.9,221.4,205.9,221.4L205.9,221.4z"/>
			<path id="path22" inkscape:connector-curvature="0" class="st0" d="M110.7,145.1c1.5,0.1,3.1,0.1,4.8,0.1
				c25.1,0,54.5-8.2,69-12.8l-4.3-11.5l63.4-41.6l-74.4,18.1L156,56.4L135.2,106l-56.6,14.3l39.7,9.6L110.7,145.1L110.7,145.1z"/>
			<path id="path24" inkscape:connector-curvature="0" class="st0" d="M77.1,212.1L77.1,212.1l-9.4,18.8l17.5-13.2
				C85.3,217.7,83.6,212.1,77.1,212.1z"/>
		</g>
		<g id="White_1_">
			<polygon id="polygon27" class="st3" points="156,63.4 166.2,98.3 145.3,111.8 			"/>
			<polygon id="polygon29" class="st3" points="90.1,119.4 136.3,106.9 145.3,111.8 			"/>
			<g id="g31">
				<path id="path33" inkscape:connector-curvature="0" class="st3" d="M78.6,212.2l-7.1,13.8l8.7-13.5
					C79.7,212.4,79.2,212.3,78.6,212.2z"/>
				<path id="path35" inkscape:connector-curvature="0" class="st3" d="M115.5,145.2c2.8,0,5.6-0.1,8.4-0.3l21.4-33.1l-24.9,18.4
					l-7.6,15C113.7,145.2,114.6,145.2,115.5,145.2z"/>
			</g>
			<g id="g37">
				<path id="path39" inkscape:connector-curvature="0" class="st3" d="M218,227.8l-8.6-13.7c-1.7,1.4-2.5,3.1-3,4.5L218,227.8z"/>
				<path id="path41" inkscape:connector-curvature="0" class="st3" d="M162.1,138.7l-16.8-26.9v30.4
					C151.1,141.2,156.8,140,162.1,138.7z"/>
			</g>
			<polygon id="polygon43" class="st3" points="145.3,111.8 178.5,118.9 232.1,85.5 			"/>
		</g>
	</g>
	<g id="Stars">
		<polygon id="polygon46" class="st3" points="161.3,170.7 159.3,173.1 156.2,173.5 158.2,174.5 156.3,177 159.6,175.3 161.8,177 
			161.5,174.3 164.4,172.6 161.4,172.9 		"/>
		<polygon id="polygon48" class="st3" points="178.2,174.4 176.4,176.5 173.4,176.8 175.3,177.9 173.4,180.2 176.4,178.7 
			178.6,180.3 178.3,177.7 181.1,176.2 178.2,176.3 		"/>
		<polygon id="polygon50" class="st3" points="184.6,159.5 182.5,162.1 179.4,162.5 181.4,163.6 179.5,166.1 182.8,164.4 
			185.1,166.1 184.7,163.3 187.6,161.6 184.6,161.9 		"/>
		<polygon id="polygon52" class="st3" points="201.5,161.5 199.6,163.9 196.7,164.2 198.6,165.3 196.8,167.6 199.9,166 202,167.6 
			201.6,165 204.4,163.4 201.6,163.7 		"/>
		<polygon id="polygon54" class="st3" points="194.9,176.8 193,179 190.3,179.1 191.9,180.3 190.1,182.5 193.2,180.9 195.3,182.6 
			194.9,180.1 197.6,178.5 195,178.7 		"/>
		<polygon id="polygon56" class="st3" points="216.2,178.5 213.9,181.1 210.7,181.4 212.7,182.5 210.7,185.1 214.1,183.3 
			216.5,185.1 216.2,182.3 219.4,180.6 216.1,180.7 		"/>
		<polygon id="polygon58" class="st3" points="208.6,144.8 206.5,147.6 202.8,148.1 205,149.3 202.8,152.2 206.6,150.1 209.3,152.1 
			208.8,149 212.3,146.9 208.7,147.3 		"/>
		<polygon id="polygon60" class="st3" points="239.5,177.6 236.6,181 232.1,181.5 234.9,182.9 232.1,186.5 236.8,184 240,186.6 
			239.5,182.7 243.9,180.4 239.5,180.6 		"/>
		<polygon id="polygon62" class="st3" points="247.9,157 245.3,160.3 241.2,160.7 243.8,162.1 241.2,165.5 245.5,163.1 248.5,165.2 
			247.9,161.8 252.1,159.4 247.9,159.9 		"/>
		<polygon id="polygon64" class="st3" points="255,136.4 252.3,139.8 247.8,140.4 250.6,141.8 247.8,145.4 252.6,142.9 255.8,145.3 
			255.1,141.5 259.4,139 255.2,139.4 		"/>
		<polygon id="polygon66" class="st3" points="235.1,127.8 233,131.6 228.4,132.5 231.6,133.9 229.5,137.6 233.9,134.7 237.9,136.8 
			236.5,133 240.2,130.1 235.8,130.9 		"/>
		<polygon id="polygon68" class="st3" points="262.1,111.7 259,116.1 253.4,116.8 257.2,118.6 254,123.3 259.7,120 264,123 
			262.9,118.1 268.1,115 262.6,115.7 		"/>
	</g>
	<g id="Dot">
		<path id="White_2_" inkscape:connector-curvature="0" class="st3" d="M209.8,163c0,2.5,1.8,9.8,10.6,9.8c9.5,0,19.6-9.2,19.6-18.4
			c0-5.7-4-10.3-10.3-10.3C217.4,144.1,209.8,155.8,209.8,163L209.8,163z"/>
		<path id="Red_1_" inkscape:connector-curvature="0" class="st2" d="M212.7,161.8c0,4.3,2.8,8.3,8.1,8.3c8.4,0,16.2-7.9,16.2-15.6
			c0-4-3.1-8.1-8.2-8.1C219.7,146.4,212.7,155.8,212.7,161.8L212.7,161.8z"/>
	</g>
</g>
</svg>
