<?xml version="1.0" encoding="utf-8"?>
<!-- Generator: Adobe Illustrator 21.1.0, SVG Export Plug-In . SVG Version: 6.00 Build 0)  -->
<!DOCTYPE svg PUBLIC "-//W3C//DTD SVG 1.1//EN" "http://www.w3.org/Graphics/SVG/1.1/DTD/svg11.dtd">
<svg version="1.1"
	 id="svg3075" inkscape:version="0.48.2 r9819" sodipodi:docname="Dallas Stars 2013 crest.svg" xmlns:cc="http://creativecommons.org/ns#" xmlns:dc="http://purl.org/dc/elements/1.1/" xmlns:inkscape="http://www.inkscape.org/namespaces/inkscape" xmlns:rdf="http://www.w3.org/1999/02/22-rdf-syntax-ns#" xmlns:sodipodi="http://sodipodi.sourceforge.net/DTD/sodipodi-0.dtd" xmlns:svg="http://www.w3.org/2000/svg"
	 xmlns="http://www.w3.org/2000/svg" xmlns:xlink="http://www.w3.org/1999/xlink" x="0px" y="0px" width="781.1px" height="653.2px"
	 viewBox="0 0 781.1 653.2" style="enable-background:new 0 0 781.1 653.2;" xml:space="preserve">
<style type="text/css">
	.st0{fill:#07A367;}
	.st1{fill:#A7AAAC;}
	.st2{fill:#FFFFFF;fill-opacity:0;stroke:#000000;stroke-width:5.9269;stroke-opacity:0;}
	.st3{fill:#FFFFFF;stroke:#000000;stroke-width:4.1909;stroke-opacity:0;}
	.st4{fill:#FFFFFF;stroke:#000000;stroke-width:8.3819;stroke-opacity:0;}
</style>
<sodipodi:namedview  bordercolor="#666666" borderopacity="1" gridtolerance="10" guidetolerance="10" id="namedview3109" inkscape:current-layer="svg3075" inkscape:cx="365.17562" inkscape:cy="137.30269" inkscape:pageopacity="0" inkscape:pageshadow="2" inkscape:window-height="768" inkscape:window-maximized="0" inkscape:window-width="1186" inkscape:window-x="0" inkscape:window-y="0" inkscape:zoom="3.374452" objecttolerance="10" pagecolor="#ffffff" showgrid="false">
	</sodipodi:namedview>
<g id="_x23_0b714cff">
	<path class="st0" d="M40.4,637.7c13.9-23.2,28.2-46.8,41.9-69.5c12.2-20.3,24.9-41.1,37.3-61.8l-28.6,0c-8.3,0-16.6,0-24.8,0
		l-8.8,0l4.5-7.5c24-40.3,48.4-81.1,72.1-120.7l10.7-17.9c-21.8-17.5-43.6-35.1-65.3-52.6c-22.8-18.3-45.5-36.7-68.3-55l-11-8.9
		l142.2,0c24,0,48.1,0,72.1,0c5.1-8.6,10.3-17.2,15.3-25.6l6.5-10.9l2.8,0c7.6,0,15.2,0,22.8,0l38.7,0c17-28.2,34.1-56.5,51.1-84.7
		c21.9-36.3,44.6-73.8,66.8-110.7l7-11.7l2.2,13.5c0.8,5.1,1.3,10.3,1.8,15.2c0.3,2.9,0.5,5.8,0.9,8.7c2.3,22.2,4.5,44.3,6.7,66.5
		c3.4,34.3,7,69.8,10.6,104.7c31.6,3.8,59,16.1,77.7,35c25.5,0,51,0,76.5,0l79.1,0c23,0,46.1,0,69.1,0c3.7-0.2,7.8-0.3,12.8-0.3
		c2.7,0,5.4,0,8,0.1c1.8,0,3.6,0,5.3,0l5,0v8.2l-2.6,1.4c-44.2,23.6-89.2,47.7-132.7,71c-35.4,19-70.9,38-106.4,56.9
		c-16.1,33.5-39,61.5-66.4,81.3c3,29.6,6,59.1,8.9,88.7c2.6,25.4,5.1,50.7,7.7,76.1l1.2,11.9l-9.3-7.5
		c-30.1-24.2-60.7-48.8-90.3-72.6c-21.6-17.4-43.9-35.4-65.9-53.1c-3,0.2-6,0.2-9,0.3c-3.9,0.1-7.7,0.1-11.3,0.5
		c-38.7,20.7-78.1,41.8-116.1,62.2c-46.5,24.9-94.6,50.7-141.9,75.9l-15.9,8.5L40.4,637.7z M135.6,483.1c6.2,0,11.3,0,16.1,0.1
		l7.9,0.1l-3.4,7.1c-1.2,2.6-2.7,4.9-4.1,7.2c-0.9,1.4-1.7,2.7-2.5,4.1l-0.1,0.1c-9.4,15.7-18.9,31.3-28.4,47
		c-9,14.8-17.9,29.7-26.9,44.6c28.2-15,56.5-30.2,84-45c39.5-21.2,80.3-43.1,120.5-64.4l1-0.6l1.2,0c2.7-0.1,5.4-0.1,8.2-0.2
		c6.3-0.1,12.9-0.2,19.3-0.7c0.5-0.1,1-0.1,1.5-0.1c3.6,0,6,2.1,7.6,3.5c0.4,0.3,0.7,0.6,1,0.9l0.2,0.1
		c15.1,12.2,30.2,24.3,45.3,36.5c15.9,12.8,31.8,25.6,47.7,38.5c5.4,4.3,10.9,8.7,16.2,13c4.7,3.8,9.5,7.7,14.3,11.6
		c-1-9.9-2-19.9-3-29.8c-3.4-33.7-6.9-68.6-10.3-102.9l-0.3-3.1l2.6-1.6c29.2-18.4,53.1-46.7,69.1-82l0.1-0.2c1.4-2.8,3.9-4,5.5-4.8
		c0.4-0.2,0.8-0.4,1-0.5l0.1-0.1l0.2-0.1c37.7-20.2,75.5-40.4,113.2-60.6c21.2-11.4,42.4-22.7,63.6-34.1c-13.3,0-26.7,0-40,0
		c-19.6,0-39.3,0-58.9,0c-34.4,0-62.4,0-88.2-0.1l-2.3,0l-1.5-1.7c-7.9-9.1-17.2-16.3-27.4-21.3c-14.8-7.6-32.8-11.9-55.3-13.2
		l-4.2-0.3l-0.4-4.2c-3.4-32.3-6.6-65.1-9.8-96.8c-1.9-19.4-3.9-39.3-6-59.1c-13,21.5-26.1,43.2-38.8,64.3
		c-18.5,30.5-37.6,62.1-56.2,93.3l-1.4,2.4l-2.7,0.1c-6.1,0.2-12.7,0.2-21,0.2c-4.1,0-8.2,0-12.4,0c-4.1,0-8.2,0-12.3,0
		c-6.2,0-11.4,0-16.2,0.1c-3.2,5.4-6.4,10.8-9.5,16c-3,5-6.1,10.2-9.2,15.4l-0.1,0.1l-0.1,0.1c-0.1,0.1-0.2,0.3-0.2,0.4
		c-0.7,1.2-2.6,4.4-6.5,4.4c-0.3,0-0.5,0-0.8,0c-11.3,0-22.5,0-33.8,0c-12,0-60,0-72,0c-20,0-36.4,0-51.6,0
		c21.7,17.6,43.6,35.2,64.9,52.3c13.3,10.7,26.6,21.4,39.9,32.1c1.3,0.9,2.2,2.2,2.5,3.6c0.6,2.6-0.7,4.7-1.3,5.7
		c-0.1,0.1-0.1,0.2-0.1,0.2l-0.1,0.2l-0.2,0.4c-12.1,20.2-24.4,40.7-36.3,60.6c-12,20.1-24.3,40.8-36.6,61.2c3.8,0,7.9,0,12.5,0
		c4.1,0,8.3,0,12.5,0C127.2,483.1,131.4,483.1,135.6,483.1z"/>
	<path id="path3091" class="st0" d="M422.6,14.3c1.3,7.8,1.7,15.8,2.6,23.7c5.9,58.4,11.7,116.8,17.7,175.1
		c29.5,2.8,59.4,13.6,80.1,35.5c75.7-0.1,151.3,0,227,0c8.7-0.5,17.3-0.3,26-0.2v0.3c-80.2,42.9-160.3,85.9-240.5,128.8
		c-15.4,32.5-38.2,61.8-67.9,82.5c5.7,55.9,11.2,111.8,16.9,167.7C432,585.4,379.6,542.9,327,500.6c-7.8,0.7-15.7,0.1-23.4,1.1
		C217.2,547.8,131,594.2,44.7,640.3c27.9-46.3,56-92.6,83.8-138.9c-20.8,0-41.5,0-62.3,0c28.3-47.5,56.7-94.9,85-142.3
		c-45.7-36.8-91.3-73.6-137-110.4c67.6,0,135.3,0,202.9,0c7.3-12.2,14.6-24.3,21.8-36.5c21.4,0,42.9,0,64.3,0
		C343,146.1,382.9,80.3,422.6,14.3 M411.7,57.8c-33.5,55.8-67.4,111.3-100.8,167.1c-21.5,0.6-43.1-0.2-64.6,0.4
		c-6.6,11.3-13.5,22.5-20.1,33.8c-0.7,1.1-1.4,2.9-3.1,2.5c-57.3-0.1-114.6,0.1-171.9-0.1c38.6,31.3,77.3,62.4,116,93.6
		c1.5,0.9-0.2,2.5-0.6,3.6c-25.9,43.1-51.5,86.3-77.4,129.3c20.8,0.3,41.5,0,62.3,0.2c-1.8,3.8-4.4,7.3-6.5,11
		c-19.5,32.5-39.2,64.9-58.7,97.3c-1.8,3.1-4,6.1-5.4,9.5c73.4-39.1,146.6-78.7,220-117.7c9.3-0.2,18.7-0.2,28-0.9
		c2.8-0.6,4.6,1.9,6.6,3.3c31,25,62,49.9,93,75c13.3,10.5,26.2,21.4,39.6,31.7c0-0.8-0.1-2.4-0.1-3.2c-4.7-47-9.5-93.9-14.1-140.9
		c31.7-19.9,55.7-50.4,71-84.2c0.9-1.8,3.2-2.3,4.8-3.3c64.1-34.3,128.2-68.7,192.3-103c0.3-0.3,0.8-0.8,1-1.1
		c-68.7,0-137.3,0.1-206-0.1c-8.1-9.3-17.9-17.1-29-22.5c-17.7-9-37.5-12.6-57.2-13.7c-5.9-56.7-11.4-113.5-17.2-170.2
		C413,55.9,412.3,56.8,411.7,57.8z"/>
</g>
<g id="_x23_231f1fff">
	<path id="path3094" d="M411.7,57.8c0.6-1,1.3-1.8,2.1-2.7c5.8,56.7,11.3,113.5,17.2,170.2c19.6,1.2,39.5,4.7,57.2,13.7
		c11.1,5.5,20.9,13.2,29,22.5c68.6,0.1,137.3,0.1,206,0.1c-0.3,0.3-0.8,0.8-1,1.1c-64.1,34.3-128.2,68.7-192.3,103
		c-1.6,1-3.9,1.5-4.8,3.3c-15.3,33.8-39.4,64.3-71,84.2c4.6,47,9.4,94,14.1,140.9c0,0.8,0.1,2.4,0.1,3.2
		c-13.5-10.2-26.4-21.2-39.6-31.7c-31-25-62-49.9-93-75c-2-1.5-3.8-3.9-6.6-3.3c-9.3,0.6-18.7,0.6-28,0.9
		c-73.4,39-146.6,78.6-220,117.7c1.4-3.4,3.5-6.4,5.4-9.5c19.5-32.5,39.2-64.9,58.7-97.3c2.1-3.7,4.6-7.1,6.5-11
		c-20.8-0.2-41.5,0.1-62.3-0.2c25.9-43.1,51.5-86.3,77.4-129.3c0.4-1.1,2.1-2.6,0.6-3.6c-38.7-31.2-77.4-62.3-116-93.6
		c57.3,0.2,114.6,0,171.9,0.1c1.7,0.4,2.3-1.4,3.1-2.5c6.6-11.3,13.5-22.5,20.1-33.8c21.5-0.5,43.1,0.2,64.6-0.4
		C344.3,169.1,378.2,113.5,411.7,57.8 M388.7,146.7c-21.1,34.9-42.1,69.8-63.3,104.7c-21.4-0.1-42.7,0-64.1,0
		c-7.2,12.1-14.5,24.3-21.8,36.5c-37.2,0.1-74.4-0.2-111.6,0.1c-0.4-0.1-1.3-0.3-1.8-0.4c1,2.1,3.2,3.2,4.9,4.7
		c23.8,19.2,47.7,38.4,71.5,57.7c-14.6,23.9-28.8,48.2-43.3,72.2c-7.7,13.2-15.9,26.1-23.3,39.4l-0.6,0.3c33.5,0.1,67.1,0,100.6,0
		c2.3,0.1,4.7-0.5,6.8,0.6c-4.1,0.9-8.1,2.3-12.2,3.1l-0.2,0.2c-13.8,3.5-27.4,7.4-41.2,11c-6.2,10.3-12.4,20.5-18.6,30.9
		c-5.9,9.9-12.3,19.6-17.7,29.7c1.1-0.6,2.2-1.3,3.3-1.8c2.9-1.1,5.5-2.7,8.2-4.1c35.4-19,70.8-37.9,106.1-56.9
		c8.1-4.1,16-9,24.3-12.7c15,0,30-0.2,44.9-1.5c31.2,25.3,62.5,50.4,93.8,75.6l-0.1,0.3c0.8,0.5,1.6,1.1,2.4,1.7
		c-2.9-27.1-5.4-54.2-8.6-81.2c-11.1,1.4-22.4,1.4-33.6,1.4c-9-0.1-18-0.5-27-1.1c24.4-4.2,48.7-11.4,70.1-24.2
		c18.6-11,34.5-26.4,46.8-44.2c11.5-16.7,21.2-35,25.2-55c2.3-10.6,1.9-21.5,0.2-32.1c2.9,3.7,5.5,7.6,7.7,11.7
		c4.2,8,6.6,16.9,7.7,25.8c30.2-16.3,60.4-32.7,90.6-49c0.4-0.4,1.2-1.1,1.6-1.4c0.4,0,1.1-0.1,1.5-0.2c-0.2-0.2-0.5-0.5-0.6-0.7
		c-38-0.1-76-0.1-114,0l-0.1-0.2c-7.5-13.6-20.7-23.4-35.1-28.8c-19.4-7.5-40.5-7.9-61-7.5c-4-37.5-7.3-75-11.6-112.4
		c-0.1-1-0.2-2-0.3-3C392.8,139.4,391,143.2,388.7,146.7z"/>
	<path id="path3096" d="M281.1,308.2c33.3-0.3,66.7,0,100.1-0.1c11.2,0.5,23,1.3,32.8,7.1c5.1,2.9,8.6,8.2,9.8,13.9
		c1.9,9.9-1.4,19.9-6,28.5c-10.6,19-29,33.5-49.9,39.2c-11.6,3.3-23.7,4.3-35.7,4.7c-24.4,0.1-48.7-0.1-73.1,0.1
		c0.8-2.2,2.2-4.1,3.5-6.1c13.9-22.9,28-45.6,41.9-68.5C296.7,320.7,288.9,314.5,281.1,308.2z"/>
</g>
<g id="_x23_a7aaacff">
	<path id="path3099" class="st1" d="M394.4,139.9c0.3-0.2,1-0.6,1.3-0.8c4.3,37.4,7.6,75,11.6,112.4c-13,0.4-26.1,0-39.1,0.2
		c0.6-4.3,1.8-8.4,2.8-12.7C378.7,205.9,386.4,172.9,394.4,139.9z"/>
	<path id="path3101" class="st1" d="M282.8,287.7c1.6-2.8,3.2-5.7,5.2-8.2c38.7,0.2,77.4,0,116.1,0.1c14.5,0.2,29.5,2,42.3,9.3
		c7.4,4.2,13.2,10.8,16.8,18.4c13.4-6.5,26.8-13,40.2-19.6l0.1,0.2c2.2,4.4,3.7,9.1,5.6,13.7c1.8,10.6,2.1,21.5-0.2,32.1
		c-4,20-13.8,38.3-25.2,55c-12.3,17.8-28.1,33.2-46.8,44.2c-21.4,12.8-45.6,20-70.1,24.2c-9,1.2-18,2.2-27,3.3
		c-14.9,1.4-29.9,1.6-44.9,1.5c-8.3,3.7-16.1,8.6-24.3,12.7c-35.4,19-70.8,37.9-106.1,56.9c-2.7,1.4-5.3,3-8.2,4.1
		c-0.3-1.2,0.5-2.1,1.3-2.8c21.8-19.9,43.6-39.8,65.4-59.8c2.5-2.4,5.3-4.5,7.4-7.3l0.2-0.2c4.1-0.8,8.1-2.2,12.2-3.1
		c-2.1-1-4.6-0.5-6.8-0.6c-33.5,0-67.1,0.1-100.6,0l0.6-0.3c20.2-9.9,40.6-19.7,60.7-29.9c10.2-16.2,19.7-32.9,29.6-49.3
		C245.1,350.8,264,319.3,282.8,287.7 M281.1,308.2c7.8,6.2,15.6,12.5,23.3,18.8c-13.9,22.9-28,45.7-41.9,68.5
		c-1.2,2-2.6,3.9-3.5,6.1c-20.3,10.1-40.7,19.7-60.9,29.9c40.3-0.1,80.6,0,120.9,0c26.1,0.4,52.7-3.3,76.9-13.7
		c28.5-12.1,52.6-35.2,63.9-64.2c5.7-14.4,8.5-30.8,3.2-45.8c-13.2,6.3-26.2,12.8-39.4,19.1c0.1,0.5,0.1,1.6,0.2,2.1
		c-1.2-5.7-4.7-11-9.8-13.9c-9.8-5.9-21.6-6.7-32.8-7.1C347.8,308.2,314.4,307.9,281.1,308.2z"/>
	<path id="path3103" class="st1" d="M126.2,287.6c0.5,0.1,1.4,0.3,1.8,0.4c0.8,0.4,2.3,1,3.1,1.4c30.3,9.5,60.7,18.8,90.9,28.4
		c-6.5,10.7-12.6,21.6-19.5,32.1c-23.8-19.3-47.7-38.5-71.5-57.7C129.4,290.7,127.2,289.7,126.2,287.6z"/>
	<path id="path3105" class="st1" d="M603.5,291.6c4.4-1,8.7-2.5,13.2-2.9c-0.4,0.4-1.2,1.1-1.6,1.4c-30.2,16.3-60.4,32.7-90.6,49
		c-1.1-9-3.5-17.8-7.7-25.8C545.7,306,574.6,298.9,603.5,291.6z"/>
	<path id="path3107" class="st1" d="M393.9,458.1c11.2,0,22.4,0.1,33.6-1.4c3.2,27,5.7,54.1,8.6,81.2c-0.8-0.6-1.6-1.1-2.4-1.7
		l0.1-0.3c0.3-1,0.2-2-0.3-3C420.2,508.1,406.8,483.2,393.9,458.1z"/>
</g>
<path id="path3000" inkscape:connector-curvature="0" class="st2" d="M137.9,458.9c0.5-0.8,3.8-6.4,7.3-12.4
	c5.9-10.1,50.9-85.1,69.2-115.4c4.3-7.2,7.7-13.2,7.5-13.3c-0.2-0.2-20.6-6.6-45.4-14.4c-24.8-7.7-45.5-14.2-46-14.5
	c-0.6-0.3,7.5-0.5,21.8-0.5c12.5-0.1,37.4-0.2,55.2-0.4l32.4-0.3l10.7-17.9l10.7-17.9h32h32l32.4-53.7
	c37.8-62.5,37.2-61.6,37.4-60.4c0.1,0.5-0.1,1.1-0.5,1.4c-0.7,0.5-26.9,109.6-26.9,112c0,0.4,8.5,0.6,34.7,0.8
	c36.9,0.2,37.6,0.3,49.7,2.7c21.9,4.5,39.5,15.4,49.1,30.6c0.8,1.3,1.5,2.4,1.4,2.4c-0.2,0.2-39.3,19.1-39.5,19.1
	c-0.1,0-0.9-1.3-1.8-2.9c-8.7-14.8-24.5-22.5-49.3-24.2c-3.9-0.3-33.2-0.5-65.8-0.5l-58.7,0l-1.4,2c-0.8,1.1-18.9,31.4-40.3,67.2
	s-41.3,69.2-44.3,74.1l-5.4,8.9l-22.3,11c-24,11.9-36.6,18-37,18C137,460.4,137.3,459.7,137.9,458.9L137.9,458.9z"/>
<path id="path3002" inkscape:connector-curvature="0" class="st2" d="M515.6,310.7c-0.7-1.2-2.4-3.9-3.8-5.8c-2-2.9-4.4-8-7.4-15.5
	l-0.4-1.1l56.3,0.1c31,0,55.7,0.2,54.9,0.3c-0.8,0.1-23.1,5.6-49.6,12.3c-26.5,6.6-48.3,12.1-48.4,12.1
	C517,313,516.3,311.9,515.6,310.7L515.6,310.7z"/>
<path id="path3004" inkscape:connector-curvature="0" class="st2" d="M209.3,426.4c5.5-2.8,18.9-9.4,29.8-14.7L259,402l39.2-0.2
	c45.2-0.2,52.1-0.6,65-3.6c28.1-6.4,51.1-26.4,59.6-51.8c1.2-3.6,1.3-4.5,1.4-11.7l0.1-7.8l19.3-9.4c12.1-5.9,19.4-9.2,19.5-8.8
	c3.2,9.8,3.3,21.1,0.2,33.2c-7.4,29.2-29.4,56.1-58.4,71.2c-17,8.9-36.6,14.4-60.5,17.2c-6.2,0.7-14.8,0.8-76,1l-69,0.1L209.3,426.4
	L209.3,426.4L209.3,426.4z"/>
<path id="path3006" inkscape:connector-curvature="0" class="st2" d="M386.9,497.9c-25.4-20.5-46-37.3-45.7-37.4
	c0.3-0.1,6.2-0.9,13.2-1.7c10.8-1.3,13.6-1.5,18.2-1.2c3,0.2,8,0.4,11.2,0.4c3.2,0,6.7,0.2,7.9,0.3l2.1,0.3l7.7,14.8
	c4.2,8.1,13.2,25,19.8,37.6c6.6,12.6,12,23.1,11.9,23.5C433.2,534.9,415.1,520.6,386.9,497.9L386.9,497.9z"/>
<path id="path3008" inkscape:connector-curvature="0" class="st2" d="M155.8,533.1c1-1.8,7.1-12.1,13.7-22.9
	c6.6-10.8,13.7-22.7,15.9-26.3c2.2-3.7,4-6.7,4-6.8c0.2-0.3,39.3-10.6,39.7-10.4c0.3,0.1-0.5,1-1.6,2
	c-18.7,16.8-71.1,65.1-71.3,65.9c-0.3,1-1,1.7-1.8,1.7C154.2,536.3,154.8,534.8,155.8,533.1L155.8,533.1L155.8,533.1z"/>
<path id="path3005" inkscape:connector-curvature="0" class="st3" d="M416.8,522.2c-9.1-7.4-30-24.2-46.4-37.4
	c-16.4-13.2-29.8-24.1-29.8-24.2s6-0.9,13.3-1.8l13.3-1.6l6.5,0.4c3.6,0.2,9.5,0.5,13.2,0.6l6.7,0.2l8.5,16.3
	c4.7,8.9,13.6,25.8,19.7,37.5c9.5,17.9,12.3,23.7,11.5,23.5C433.5,535.6,425.9,529.6,416.8,522.2L416.8,522.2z"/>
<path id="path3775" inkscape:connector-curvature="0" class="st4" d="M395.7,504.9c-20.5-16.5-41.2-33.2-46-37.2l-8.8-7.2l12.3-1.5
	c10.9-1.3,13.9-1.5,26.4-1l14.1,0.5l4.3,8.1c28.3,53.8,35.3,67.2,35.1,67.7C432.9,534.7,416.1,521.4,395.7,504.9L395.7,504.9z"/>
<path id="path3777" inkscape:connector-curvature="0" class="st4" d="M156.3,533.1c0-0.3,0.8-1.9,1.8-3.6c1.7-3,31.1-51.8,31.5-52.2
	c0.4-0.5,39.2-10.6,39.1-10.1c-0.1,0.3-13.5,12.7-29.7,27.5c-16.2,14.8-32.4,29.7-36,33C159.2,530.9,156.3,533.4,156.3,533.1
	L156.3,533.1z"/>
<path id="path3779" inkscape:connector-curvature="0" class="st4" d="M137.5,459.9c0-0.6,18.8-32.2,47.6-80
	c37-61.5,37.2-61.7,36.5-62.3c-0.3-0.3-20.7-6.8-45.2-14.5s-45-14.2-45.6-14.5c-0.6-0.3,23.3-0.6,54.1-0.6l55.1,0l10.7-17.9
	l10.7-17.9l32.2-0.2l32.2-0.2l33.8-56c18.6-30.8,33.9-55.7,34-55.4c0.1,0.3-5.4,24.3-12.3,53.2c-6.9,28.9-12.7,53.8-13,55.4
	l-0.5,2.8l30.3,0c32.2,0,42.3,0.5,53.2,2.7c7.3,1.4,18.5,5.1,24,7.8c9.7,4.9,20.9,14.4,25.5,21.6c1.9,3,2.1,3.8,0.9,4.3
	c-0.5,0.2-9.2,4.4-19.4,9.4l-18.6,9.1l-2.7-4.2c-7.5-11.5-19-18.2-37.2-21.6c-5.4-1-13.7-1.2-71.1-1.3c-61.9-0.2-65.1-0.2-65.8,1
	c-0.4,0.7-19,31.8-41.3,69.3c-54.4,91.2-47.9,81-53.3,83.8C178.1,440.5,137.5,460.2,137.5,459.9L137.5,459.9z"/>
<path id="path3781" inkscape:connector-curvature="0" class="st4" d="M137.5,460c0-0.6,8.8-15.4,47.1-79.3
	c21-34.9,37.3-62.8,37-63.1c-0.3-0.3-20.7-6.8-45.2-14.5s-45-14.2-45.6-14.5c-0.6-0.3,23.5-0.6,54.1-0.6l55.1,0l10.7-17.9l10.7-17.9
	l32.2-0.2l32.2-0.2l33.9-56c18.6-30.8,33.9-55.7,34.1-55.4c0.1,0.3-5.2,23.6-11.9,51.7c-6.7,28.1-12.5,53-13,55.4l-0.9,4.4l30.3,0
	c41,0,51.3,1,66.9,6.4c12.9,4.5,21.9,10.1,29.9,18.7c4.9,5.3,8.2,10,7.5,10.8c-0.5,0.5-37.4,18.5-38.3,18.6
	c-0.4,0.1-1.5-1.2-2.4-2.9c-2.7-4.8-11.1-12.8-16.5-15.6c-6.1-3.2-13.4-5.6-21.2-7c-5.6-1-13.5-1.2-71.1-1.4
	c-61.8-0.2-64.8-0.2-65.8,1c-0.6,0.7-19.3,31.8-41.6,69.3s-42.4,71.1-44.7,74.8l-4.1,6.7l-5.8,3C175.4,441.9,137.5,460.3,137.5,460
	L137.5,460z"/>
<path id="path3783" inkscape:connector-curvature="0" class="st4" d="M513.3,307c-3.1-4.6-8.9-16.7-8.9-18.6
	c0-0.2,25.4-0.3,56.5-0.3c48.6,0.1,55.9,0.2,52.1,0.9c-3.7,0.7-91.4,22.5-94.6,23.5C517.5,312.8,516.1,311.2,513.3,307L513.3,307z"
	/>
<path id="path3785" inkscape:connector-curvature="0" class="st4" d="M229,416.8l29.5-14.6l37.3,0c46.3-0.1,58-0.9,73-5.2
	c30.7-8.8,56.8-38.7,55.5-63.6l-0.3-6.1l19.1-9.2c10.5-5.1,19.3-9,19.6-8.7c0.3,0.3,1,2.9,1.6,5.7c5.6,27.2-12.9,64.8-42.9,87.4
	c-18,13.6-41.2,22.6-68.5,26.7c-12.9,1.9-30.3,2.4-91.8,2.3l-61.7,0L229,416.8L229,416.8L229,416.8z"/>
<path id="path3787" inkscape:connector-curvature="0" class="st4" d="M399,507.6c-18.6-15-39.3-31.7-46-37.1
	c-6.7-5.4-12.1-9.8-12.1-9.9c0.1-0.1,5.5-0.8,12.2-1.6c10.6-1.3,13.8-1.4,26.3-1l14.3,0.5l3.6,6.8c16.4,30.9,35.9,68.5,35.8,69
	C432.9,534.6,417.6,522.6,399,507.6z"/>
<path id="path3789" inkscape:connector-curvature="0" class="st4" d="M156.3,533.1c0-0.3,0.8-1.9,1.8-3.6
	c1.9-3.3,31.1-51.9,31.4-52.2c0.5-0.6,39.2-10.6,39.1-10.1c-0.2,0.4-19.6,18.4-66.4,61.1C158.9,531.2,156.3,533.4,156.3,533.1
	L156.3,533.1z"/>
</svg>
