<?xml version="1.0" encoding="utf-8"?>
<!-- Generator: Adobe Illustrator 21.1.0, SVG Export Plug-In . SVG Version: 6.00 Build 0)  -->
<!DOCTYPE svg PUBLIC "-//W3C//DTD SVG 1.1//EN" "http://www.w3.org/Graphics/SVG/1.1/DTD/svg11.dtd">
<svg version="1.1" id="Layer_1" xmlns="http://www.w3.org/2000/svg" xmlns:xlink="http://www.w3.org/1999/xlink" x="0px" y="0px"
	 width="304px" height="226.1px" viewBox="0 0 304 226.1" style="enable-background:new 0 0 304 226.1;" xml:space="preserve">
<style type="text/css">
	.st0{fill:#FFFFFF;}
	.st1{fill:#E21936;stroke:#FFFFFF;stroke-width:2;stroke-miterlimit:10;}
	.st2{fill:#E21936;}
</style>
<title>Untitled-4</title>
<g>
	<path class="st0" d="M278,76.7c-19.6,16.3-44.6,24.7-70,23.7l-4.1-3.6L199,96l-0.3-1.5c2.7-0.5,5.4-0.9,8.2-1l2.3-2.2
		c3.8-1.1,7.8-1.6,11.8-1.5l1.2-2.2l4.6,0.9l2.1-1.6c2.1,0.8,4.5,0.2,6.1-1.5l1.9,0.1l2-0.3c2.2-5.3,7.9-0.2,11.2-1.2l0.2-2.2
		l7.4-0.6l0.5-2.3l3.1-0.2l2.5-0.7l7.2-1.8l1.1-0.9l6,0.3L278,76.7 M260.4,98.9l3.3,1.1c-20.8,14.7-46,21.9-71.5,20.3
		c-2.8-2.9-6.3-5.1-10-6.6v-1.2c3-0.9,6.1-1.4,9.3-1.4l2.6-2.2c3.5-1.4,7.3-2.2,11.1-2.4c3.2,0.2,6.4,0.4,9.7,0.3l1.5-2.2
		c3.6-0.6,7.1,0.8,10.7,0l1.2-1.7c4-1.6,8.7-0.2,12.9-1.7l-0.6-1.3l2.8-0.2l5.2-0.8h4.1l4-0.8L260.4,98.9 M187.1,135.3
		c-7-0.1-13.9-1.1-20.7-2.9l2.1-1.9c3.2-1.1,6.7-1.4,9.9-2.5l1.7-1.8l5.3-2.3c5.5-0.8,11.1-0.5,16.4,1l6.5,1.2l1.3-0.9l0.8-1.6h5.3
		l6.6-0.6l0.7-1.1l6.6-0.4l5.6,2.2C220.5,131.7,203.9,135.6,187.1,135.3 M206.9,145.3c-17.8,4.5-36.6,3.7-53.9-2.5l-0.3-1l4.2-0.9
		l1.5-1.6l3.5-0.9l2.7-2.2l3.9,0.1c3.1-0.6,5.3,2.1,8.2,2.9l3.2-0.5l3.2,1.6l2.6-0.2l4.2,0.8l1.1-1.2l6.5,2.3l0.7-0.6l4,0.2l4.9,2.4
		L206.9,145.3 M178.9,158.3l1,1.8c-17.1,2.6-34.5-0.7-49.5-9.4l-2.5-2.1l0.3-0.6l6.4-0.2l1.9-1.5l4.5-0.5l3.6,0.3l5.5,3.5l4-0.4
		c3.1,2.4,6.7,4.1,10.5,5.2l1.8-1.4l4.7,2.7l2-0.6l3.1,1.9L178.9,158.3 M155.9,170.1c-20.4-0.8-39.4-10.6-51.7-26.9l0.3-0.9l6.2,2.6
		l7.1,2.3l0.7-1c2.9,1.2,5.4,3.1,7.4,5.5l5.3,5.7l2.7-1.2l5.1,4.7l1.6-1.4l3.9,2.4l4.2,3.3l2.2-0.4l3.6,1.5l2.1,2.7L155.9,170.1
		 M79.9,216.1c-38.2,0-69.3-30.6-69.8-68.8l2,2l1.6-1.2l1.7,0.8l1-0.6l0.4,0.1l2.5-1.5l2.8,3.2c3,0,2.5-4.2,4.1-6.7l-0.1,2.8
		c0,29.7,24.1,53.8,53.8,53.8c17.8,0,34.4-8.8,44.4-23.5c3.9,1.3,8,1.7,12.1,1.1c-3.3-3.2-5.7-7.1-7.1-11.4c4.9,2.6,10,4.7,15.3,6.4
		C133.9,198.9,108.3,216.1,79.9,216.1 M79.9,76.5c9.7,0,19.3,2,28.1,5.9l-2,4.3c-33-14.4-71.3,0.7-85.7,33.6c-0.7,1.5-1.3,3-1.8,4.6
		l-1.5-5.3l-1.9,0.6C25.7,93.8,51.4,76.5,79.9,76.5 M162.4,40.7h27.5c65.1,0,81-16.7,91.7-26.3l1,0.3c-8.5,15.6-30,33.1-79,33.1
		h-38.4c-37.8,0-52.5,13.5-60.1,27.4l-6.4-1.9C102.9,60.3,119.1,40.7,162.4,40.7 M97,155l-0.6-7l3.8-2l2.1,3.7l2.1,1.8l2,3.2
		l1.9,1.3l0.9,1.5l1.5,0.8l2.2,2.5l1.8-0.2l2.1,1.8l1.9,2.3l2,2.1l2.1-0.2l1.4,2l2.4,0.9l2.5,4.7C116.5,171.7,105.2,164.9,97,155
		 M102.5,107.7c-21.3-12.5-48.7-5.4-61.2,16s-5.4,48.7,16,61.2c19.6,11.5,44.6,6.5,58.3-11.6l5.8,2.4c-16.2,22.9-48,28.3-70.9,12.1
		s-28.3-48-12.1-70.9c14.5-20.5,41.7-27.3,64.2-16.1L102.5,107.7 M91.1,122.7l11.1-10.9l0.5,0.3l0.1,3.2c-0.3,4.8-1.3,9.4-3.2,13.8
		C97.2,126.4,94.3,124.3,91.1,122.7 M84.9,161.2l3.9-1.9v4.8L84.9,161.2z M71.1,170.9l0.8,0.3l2.3,15.8c-5.1-0.7-10-2.3-14.5-4.9
		L71.1,170.9z M58,160.6c2.6,4,6.3,7.2,10.7,9.3l-11.1,10.9c-3.3-2.1-6.3-4.7-8.8-7.7L58,160.6z M56.3,157.5l0.4,0.8l-9.6,12.8
		c-3.1-4.1-5.4-8.8-6.8-13.7L56.3,157.5z M54.3,141l-0.6,5.3c0,3,0.5,6,1.5,8.8l-15.6-0.2c-0.6-2.8-0.9-5.7-0.9-8.6l0.1-3.1
		L54.3,141z M55.3,137.6l-0.3,0.8l-15.9,2.3c0.7-5.1,2.4-10,4.9-14.5L55.3,137.6z M65.6,124.5c-4,2.6-7.2,6.3-9.3,10.7L45.4,124
		c2.1-3.3,4.7-6.3,7.7-8.8L65.6,124.5z M68.6,122.7l-0.7,0.4l-12.8-9.6c4.1-3.1,8.8-5.4,13.7-6.8L68.6,122.7z M64.2,146.6l0.1,1.5
		l-5.2,7h-0.9c-1.1-2.8-1.7-5.8-1.7-8.8l0.7-5.7l0.8-0.1L64.2,146.6z M59,137.8l-0.6-0.6c2-4.6,5.3-8.4,9.6-11l0.7,0.5l-0.1,8.7
		l-1,1.1L59,137.8z M64.4,143.4l-3.3-3.4l4.7-0.7L64.4,143.4 M65,151.3l1.9,3.9l-4.8-0.1L65,151.3z M71.4,167.2l-0.6,0.6
		c-4.6-1.9-8.4-5.3-11-9.6l0.5-0.7l8.7,0.1l1.1,1L71.4,167.2z M74.9,131.4l-3.9,1.9v-4.8L74.9,131.4z M87.8,121.4l-2.3-15.8
		c5.1,0.7,10,2.3,14.5,4.9l-11.4,11.2L87.8,121.4 M82.8,130.8l3.4-3.3l0.7,4.7L82.8,130.8 M77,161.7l-3.4,3.4l-0.7-4.7L77,161.7
		 M71.4,146.3c0-4.7,3.8-8.5,8.5-8.5s8.5,3.8,8.5,8.5s-3.8,8.5-8.5,8.5C75.2,154.8,71.4,151,71.4,146.3L71.4,146.3 M71.1,121.7
		l0.1-15.6c2.8-0.6,5.7-0.9,8.7-0.9l3.1,0.1l2.2,15.4l-5.3-0.6C76.9,120.2,73.9,120.7,71.1,121.7 M79.9,122.9l5.7,0.7l0.1,0.8
		l-6.2,6.1l-1.5,0.1l-7-5.2v-0.9C73.9,123.5,76.9,122.9,79.9,122.9 M88.6,170.9l-0.1,15.6c-2.8,0.6-5.7,0.9-8.6,0.9l-3.1-0.1
		l-2.3-15.4l5.3,0.6C82.9,172.4,85.8,171.9,88.6,170.9 M79.9,169.7l-5.8-0.7l-0.1-0.8l6.2-6.1l1.5-0.1l7,5.2v0.8
		C85.9,169.1,82.9,169.7,79.9,169.7 M90.8,135l-1.1-1l-1.2-8.6l0.6-0.6c3.7,1.6,7,4.1,9.4,7.3l-1.3,3L90.8,135z M92.9,137.4h3
		l-1.5,2.8L92.9,137.4 M91.8,166.4l-0.7-0.5l0.1-8.7l1-1.1l0.6-0.1l4.7,5.7L91.8,166.4 M104.7,179.1c-4.1,3.1-8.8,5.4-13.7,6.8
		l0.1-16l0.8-0.4L104.7,179.1z M94.2,168.2l5.3-4.7c4,3.1,8.2,5.9,12.7,8.2l-5.5,5.8L94.2,168.2z M294.7,31.4l0.4,0.3
		c-2.2,5.7-17.3,34.6-80.1,34.6c-11.8,0-35.7-0.2-56.3-0.2c-24.5,0.4-44.7,19.4-46.5,43.9c0,26.8-14.7,33.4-14.7,33.4
		c6.4-10.2,9.5-22.1,8.6-34.1c-0.1-28.6,22.9-51.9,51.5-52c2.2,0,4.4,0.1,6.5,0.4c7.2,0,17.3,1.4,49.3,1.4
		C263.3,59.2,281.6,49.1,294.7,31.4 M175,71.9l6.3,0.1l5.2,1.4L191,72l4.2,0.8l1-1.5l5.5,0.8l2.1-1.9l2.7,0.1l5.5-0.7l0.3,1.8
		c-12,7.4-26.9,8.7-40,3.6L175,71.9 M161.3,93.8l-1.2-1.9l-2.6-1.5l-1.1-1.6l-3-0.8l-0.3-1.5l6.2-0.8l7-1.6l0.9-1.6
		c0,0,1.1-2.9,11.4-2.9c14.6,0,30.7,6.6,29.1,9.2C192.7,93.9,176.9,95.5,161.3,93.8 M178.5,109.8c-7.5,1.6-15.2,1.5-22.6-0.5l-3.7-3
		l-1.6-0.3l-2.2-3.2l0.3-1.2l5.7-0.6l1.9-2.2c6.7-1.4,13.5-2.2,20.3-2.3c6.5,0,22.5,3.6,20.8,5.7l-3.6,2l-5.5,2.1l-7.6,2.5
		L178.5,109.8 M140.5,124.9l1-1.1l-3.1-2.3l0.3-1.2l5.7,0.1l1.3-1.3l2.3-0.2l1.6-0.8l0.2-1.7l2.4-0.9l1.6-1.7
		c10.8-1.6,21.9,0.2,31.6,5.3c-2.2,3-5.9,3.2-9,4.8l-7.7,2.2C153.4,131.2,141.7,127.6,140.5,124.9 M112.7,136.9l2.8-0.2l2.6,0.9
		l1.8-0.6l5.4,0.4l1.5-2.2l8.2-0.1l1.2-2.3l3.2-0.6l0.7-1.2l16.4,5.1c-7,6.4-16.5,9.4-25.9,8.3c-16.9,0-20.6-3.4-22.8-4.9l1.7-3.6
		L112.7,136.9 M135.7,128.2c-7.3,4.1-15.7,5.9-24.1,5c1.3-4.6,3-9.1,4.7-13.7C123.3,121,130,123.9,135.7,128.2 M137.2,80.5l3.6-3.5
		l1.4-0.9l3.9-0.6l2.3-1.9c2.8-2,6.4,0,9.1-1.2l3.6-0.2c2.8,1.6,6.8,2.3,7.7,5.6c-10.1,5.3-21.4,7.8-32.7,7.2L137.2,80.5
		 M155.2,95.4c-10.4,5.1-22,7.4-33.5,6.5l1.4-4.6c0.5-2.1,3.7-2.6,3.7-5.5l4.1-2.7l1.3-1.5C141.2,86.4,157.9,94.2,155.2,95.4
		 M119,108.8l1.9-3c1.9-1.1,4-1.6,6.2-1.6c11.4,0,25.1,7.1,22.3,8.3c-10,4.6-21,6.5-31.9,5.3l-0.1-3.8l1.7-2.7L119,108.8 M296.7,33
		c-14.7,32.4-47.8,52.4-83.3,50.4l-5.5-2.4l-3-0.7l0.6-1.9l3.8-0.3l8-1.7l1.2-3l4.6-1.1l1.2-2.1c2.8-0.2,5.7-0.1,8.5,0.2l1.4-1.6
		c3.5-0.1,3.2,0.4,5.5-1.2c2.2-1.5,7.4,0.6,7.4-2.8c4.4-0.7,9.1,0.6,13.1-2.3L263,62l1.1-1.4l5-1.2l1.2-2.2
		c11.3-4.8,20.5-13.5,25.9-24.5L296.7,33 M272,70.9c16.2-11.4,26.3-29.4,27.6-49.2l-0.6-0.3C277.1,51.3,257.2,51,257.2,51l-0.4-1.7
		c16.5-9.8,28.3-25.9,32.7-44.5l-0.6-0.3c-24.8,24-59,35.7-93.3,31.8c-17.6,0-26.9-0.4-38.8-0.4c-26.8-2.4-52.3,11.8-64.2,35.9
		c-4.2-0.7-8.4-1-12.7-1.1c-41.7,0-75.4,33.8-75.4,75.4s33.8,75.4,75.4,75.4c31,0,58.8-19,70.2-47.8l4,0.4c7.7,0,9.6-1.7,9.6-2.9
		l-2.5-6.2c9.1,0.8,18.3-0.1,27.1-2.8c-3-4.7-13.9-10.8-8.3-10.8c27,0,35.9-5.2,35.9-6.3l-8.6-7.5c12.5-2.2,24.4-7.2,34.6-14.7
		l-5.3-5.6c13.3-3.7,25.3-11.2,34.4-21.6l-11.6-1.6v-1.2c9.8-5,18.4-12,25.2-20.5C284.6,70.8,270.3,73.8,272,70.9"/>
	<path class="st0" d="M79.8,226.1c-21.3,0-41.4-8.3-56.4-23.4C8.3,187.6,0,167.6,0,146.3c0-44,35.8-79.8,79.8-79.8
		c3.4,0,6.9,0.3,10.2,0.7c12.5-22.1,35.9-35.8,61.3-35.8c1.8,0,3.7,0.1,5.5,0.2c4.6,0,10.4,0.1,16.5,0.2c7.4,0.1,15,0.2,22.2,0.2
		h0.1h0.1c4.3,0.5,8.7,0.8,13,0.8c28.9,0,56.3-11.1,76.9-31.3c0.9-0.9,2.1-1.4,3.4-1.4c0.3,0,0.6,0,0.8,0.1c2.6,0.5,4.3,2.9,3.8,5.5
		c-2.7,11.8-8.2,22.7-16,31.7c6.9-5,12.8-11.2,17.5-18.4v-0.1v-0.1c0.9-1.2,2.3-1.8,3.8-1.8c2.7,0.1,4.8,2.2,4.7,4.8
		c-1,17.5-8.7,33.9-21.3,45.9c5.2,0.1,6.3,2.8,6.3,5c0,5.1-11.5,13.9-17.9,18.4c2.2,0.7,4.2,2.2,4.2,5c0,5.7-15.2,16.9-31.4,23.6
		l2.4,2.9v0.7c0,6.8-20.8,14-29.3,16.6c2.8,2.5,3.3,3.9,3.3,5.5c0,7.9-21.2,10-32,10.5c2.7,2.5,4.4,4.6,4.4,6.6v0.6l-2.4,3.3
		l-0.6,0.2c-6.7,2.1-13.7,3.2-20.7,3.2l0,0c-0.5,0-1,0-1.5,0l0.6,1.2v0.5c0,3.3-2.4,7.3-13.9,7.3h0.2l-1.2-0.1
		C140,207.5,111.5,226.1,79.8,226.1L79.8,226.1z M79.9,72.9c-30.4,0-57.2,18.3-68.3,46.5c-7.2,18.2-6.8,38.2,1,56.2
		s22.2,31.8,40.4,39c8.6,3.4,17.7,5.1,26.9,5.1c30.4,0,57.2-18.3,68.3-46.6l0.6-1.4l5.4,0.5c4.7,0,6.6-0.7,7.2-1.1l-3.4-8.3l3.3,0.3
		c2.1,0.2,4.2,0.3,6.3,0.3c5.8,0,11.6-0.7,17.2-2.2c-1.1-1.1-2.4-2.2-3.6-3.2c-3.3-2.8-5.3-4.6-4.6-6.7c0.4-1.2,1.6-1.8,3.4-1.8
		c19.6,0,29.2-2.8,32.7-4.4l-10-8.7l4.1-0.7c11.4-2,22.4-6.5,31.9-13l-6-6.3l3.2-0.9c11.8-3.3,22.3-9.6,30.8-18.3l-9.5-1.3v-4.2
		l1.1-0.6c8.5-4.3,16-10.2,22.3-17.3c-0.6,0-1.2,0.1-1.9,0.1c-1.3,0.1-2.6,0.1-3.7,0.1c-2.5,0-4.2-0.3-5-1.7
		c-0.5-0.8-0.4-1.8,0.1-2.7l0.2-0.4l0.4-0.3c14.2-10,23.5-25,26.2-42C276.4,52.7,258,53,257.2,53h-1.6l-0.4-1.6l-0.7-3.1l1.2-0.7
		c14.3-8.5,25.1-22,30.2-37.7c-21.4,18.9-48.7,29.2-77.5,29.2c-4.3,0-8.7-0.2-13.1-0.7c-9.6,0-16.8-0.1-23.2-0.2
		c-5.2-0.1-10.1-0.2-15.5-0.2h-0.1h-0.1c-1.9-0.2-3.8-0.3-5.8-0.3c-24.1,0-45.8,13.5-56.5,35.1l-0.7,1.3l-1.5-0.2
		C88.2,73.2,84,72.9,79.9,72.9L79.9,72.9z"/>
	<path class="st0" d="M259.4,93.1v1.2L271,96c-9.1,10.4-21.1,17.9-34.4,21.6l5.3,5.6c-10.3,7.4-22.1,12.4-34.6,14.6l8.6,7.5
		c0,1.1-8.9,6.3-35.9,6.3c-5.6,0,5.3,6.1,8.3,10.8c-8.8,2.7-18,3.7-27.1,2.8l2.5,6.2c0,1.2-1.9,2.9-9.6,2.9l-4-0.4
		c-15.3,38.8-59,57.8-97.8,42.6c-38.8-15.3-57.8-59-42.6-97.8c11.4-28.8,39.2-47.8,70.2-47.8c4.3,0,8.5,0.4,12.7,1.1
		c11.9-24.2,37.4-38.5,64.2-36c12,0,21.2,0.4,38.8,0.4c34.3,3.9,68.5-7.8,93.3-31.9l0.6,0.3c-4.4,18.7-16.2,34.7-32.7,44.5l0.4,1.7
		c0,0,19.9,0.3,41.8-29.6l0.6,0.3c-1.3,19.7-11.5,37.8-27.6,49.2c-1.6,2.9,12.6-0.1,12.6,1.7C277.8,81.2,269.2,88.1,259.4,93.1
		 M277.2,69.8C291.9,58,300.9,40.5,302,21.7c0-1.5-1.2-2.8-2.7-2.8c-0.9,0-1.7,0.4-2.2,1.1c-7.9,12.1-19.3,21.6-32.7,27
		c13.9-10.2,23.7-25,27.5-41.8c0.3-1.5-0.7-2.9-2.2-3.2c-0.9-0.2-1.8,0.1-2.5,0.8C263,26.5,229.3,38,195.6,34
		c-13.5,0-28.9-0.4-38.8-0.4c-27-2.2-52.8,11.9-65.7,35.8c-3.7-0.5-7.5-0.8-11.3-0.9c-43,0-77.9,34.8-77.9,77.8s34.8,77.9,77.8,77.9
		c31.3,0,59.6-18.8,71.8-47.6l2.5,0.2c9.9,0,11.9-2.9,11.9-5.3l-1.9-3.8c8.4,0.6,16.9-0.4,25-2.9l1.6-2.3c0-2.1-4.4-5.7-7.5-8.4
		c20.2-0.3,35.1-4,35.1-8.7c0-0.9-0.1-2.1-5.5-6.3c11.4-3.1,31.5-10.8,31.5-15.8l-3.6-4.5c17.7-6.7,32.7-18.5,32.7-22.7
		c0-3.4-5-3.7-7.5-3.9c8.8-5.7,21.2-15.3,21.2-19.5C287,68.3,280.3,70,277.2,69.8"/>
	<g>
		<path class="st1" d="M98.4,132.1c-2.5-3.2-5.7-5.7-9.4-7.3l-0.6,0.6l1.2,8.6l1.1,1l6.3,0.1L98.4,132.1"/>
		<path class="st1" d="M71.1,125.5l7,5.2l1.5-0.1l6.2-6.1l-0.1-0.9l-5.7-0.7c-3,0-6,0.6-8.8,1.7L71.1,125.5L71.1,125.5z"/>
		<polygon class="st1" points="86.2,127.5 82.8,130.8 86.9,132.2 		"/>
		<polygon class="st1" points="88.7,159.3 84.9,161.2 88.7,164.1 		"/>
		<path class="st1" d="M57.6,180.8l11.1-10.9c-4.3-2-8-5.3-10.7-9.3l-9.3,12.5C51.3,176.1,54.3,178.7,57.6,180.8"/>
		<polygon class="st1" points="92.9,137.5 94.4,140.3 95.9,137.5 		"/>
		<path class="st1" d="M72,171.2l-0.8-0.3l-11.4,11.2c4.5,2.5,9.4,4.2,14.5,4.9L72,171.2z"/>
		<polygon class="st1" points="92.8,156 92.2,156.1 91.2,157.2 91.1,165.9 91.8,166.4 97.4,161.7 		"/>
		<polygon class="st1" points="71,133.3 74.9,131.4 71,128.5 		"/>
		<path class="st1" d="M56.7,158.3l-0.4-0.8l-16-0.1c1.4,5,3.7,9.6,6.8,13.7L56.7,158.3z"/>
		<path class="st1" d="M88.7,167.1l-7-5.2l-1.5,0.1l-6.2,6.1l0.1,0.9l5.7,0.7c3,0,6-0.6,8.8-1.7L88.7,167.1L88.7,167.1z"/>
		<polygon class="st1" points="73.5,165.1 76.9,161.7 72.9,160.4 		"/>
		<path class="st1" d="M91.1,169.9l-0.1,16c5-1.4,9.6-3.7,13.7-6.8l-12.8-9.6L91.1,169.9"/>
		<polygon class="st1" points="66.9,155.2 65,151.3 62.1,155.1 		"/>
		<path class="st1" d="M69,157.6l-8.7-0.1l-0.5,0.7c2.6,4.3,6.4,7.6,11,9.6l0.6-0.6l-1.3-8.6L69,157.6"/>
		<path class="st1" d="M68.5,135.4l0.1-8.7l-0.7-0.5c-4.3,2.6-7.6,6.4-9.6,11l0.6,0.6l8.6-1.3L68.5,135.4"/>
		<polygon class="st1" points="61.1,140 64.5,143.4 65.8,139.3 		"/>
		<path class="st1" d="M57.2,140.5l-0.7,5.7c0,3,0.6,6,1.7,8.8h0.9l5.2-7l-0.1-1.5l-6.1-6.2L57.2,140.5z"/>
		<path class="st1" d="M74.5,171.9l2.3,15.4l3.1,0.1c2.9,0,5.8-0.3,8.6-0.9l0.1-15.6c-2.8,1-5.8,1.5-8.7,1.5L74.5,171.9"/>
		<path class="st1" d="M102.7,115.3l-0.1-3.2l-0.5-0.3L91,122.7c3.2,1.5,6.1,3.7,8.5,6.4C101.4,124.8,102.5,120.1,102.7,115.3"/>
		<path class="st1" d="M67.9,123.1l0.8-0.4l0.1-16c-5,1.4-9.6,3.7-13.7,6.8L67.9,123.1z"/>
		<path class="st1" d="M85.2,120.7L83,105.3l-3.1-0.1c-2.9,0-5.8,0.3-8.6,0.9l-0.1,15.6c2.8-1,5.8-1.5,8.7-1.5L85.2,120.7"/>
		<path class="st1" d="M112.2,171.7c-4.5-2.3-8.7-5-12.7-8.2l-5.3,4.6l12.5,9.3L112.2,171.7"/>
		<path class="st1" d="M100,110.5c-4.5-2.5-9.4-4.2-14.5-4.9l2.3,15.8l0.8,0.3L100,110.5z"/>
		<path class="st1" d="M38.8,146.3c0,2.9,0.3,5.8,0.9,8.6l15.6,0.2c-1-2.8-1.5-5.8-1.5-8.8l0.6-5.3L39,143.3L38.8,146.3"/>
		<path class="st1" d="M39.2,140.7l15.8-2.3l0.3-0.8L44,126.2C41.5,130.7,39.9,135.6,39.2,140.7"/>
		<path class="st1" d="M45.4,124l10.9,11.1c2.1-4.3,5.3-8,9.3-10.7l-12.5-9.3C50.1,117.7,47.5,120.7,45.4,124"/>
	</g>
	<path class="st2" d="M88.3,146.3c0-4.7-3.8-8.5-8.5-8.5s-8.5,3.8-8.5,8.5s3.8,8.5,8.5,8.5C84.6,154.8,88.3,151,88.3,146.3"/>
	<path class="st2" d="M79.9,95.5c-28.1,0-50.8,22.8-50.8,50.8s22.8,50.8,50.8,50.8c16.5,0,32-8,41.5-21.5l-5.8-2.4
		c-14.9,19.7-43,23.5-62.6,8.6s-23.5-43-8.6-62.6c13.7-18,38.7-23,58.2-11.6l0.1-6.9C95.5,97.3,87.8,95.4,79.9,95.5"/>
	<path class="st2" d="M136.4,177.6c-4.1,0.6-8.2,0.3-12.1-1c-16.8,24.5-50.2,30.8-74.8,14.1c-14.7-10-23.5-26.6-23.5-44.4l0.1-2.8
		c-1.7,2.5-1.2,6.7-4.1,6.7l-2.8-3.2l-2.5,1.5l-0.4-0.1l-1,0.6l-1.7-0.8l-1.6,1.2l-2-2c0.6,38.6,32.3,69.4,70.9,68.8
		c28-0.4,53.1-17.5,63.6-43.5c-5.3-1.7-10.4-3.8-15.3-6.4C130.7,170.6,133.1,174.5,136.4,177.6"/>
	<path class="st2" d="M17,119.6l1.5,5.3c11.9-33.9,49-51.8,83-39.9c1.5,0.5,3,1.1,4.5,1.8l2-4.3C72.7,67,31.4,83,15.9,118.4
		c-0.3,0.6-0.6,1.3-0.8,1.9L17,119.6"/>
	<path class="st2" d="M165.1,47.8h38.4c49.1,0,70.6-17.6,79-33.1l-1.1-0.3c-10.7,9.6-26.6,26.3-91.7,26.3h-27.5
		c-43.2,0-59.5,19.5-63.7,32.5l6.4,1.9C112.7,61.3,127.3,47.8,165.1,47.8"/>
	<path class="st2" d="M164.2,57.7c-28.4-3.5-54.2,16.7-57.7,45.1c-0.3,2.2-0.4,4.4-0.4,6.5c0.8,12-2.2,23.9-8.7,34.1
		c0,0,14.7-6.6,14.7-33.4c1.8-24.4,22-43.5,46.5-43.8c20.6,0,44.4,0.1,56.3,0.1c62.8,0,78-29,80.1-34.6l-0.4-0.3
		c-13.1,17.7-31.5,27.8-81.2,27.8C181.5,59.2,171.4,57.7,164.2,57.7"/>
	<path class="st2" d="M178.6,79.7c-10.4,0-11.4,2.9-11.4,2.9l-0.9,1.6l-7,1.6l-6.2,0.7l0.3,1.5l3,0.7l1.1,1.6L160,92l1.2,1.9
		c15.6,1.7,31.4,0,46.4-4.9C209.3,86.3,193.1,79.7,178.6,79.7"/>
	<path class="st2" d="M117.3,114.1l0.1,3.9c10.9,1.1,21.9-0.7,31.9-5.4c2.8-1.2-10.9-8.3-22.3-8.3c-2.2,0-4.3,0.5-6.2,1.6l-1.9,3
		l0.1,2.7L117.3,114.1"/>
	<path class="st2" d="M132.2,87.7l-1.3,1.5l-4.1,2.7c0,2.9-3.2,3.4-3.7,5.5l-1.4,4.6c11.6,0.8,23.1-1.4,33.5-6.5
		C157.9,94.1,141.2,86.4,132.2,87.7"/>
	<path class="st2" d="M168.8,77.8c-0.8-3.3-4.9-4-7.6-5.6l-3.6,0.2c-2.8,1.2-6.3-0.8-9.1,1.2l-2.3,1.9l-3.9,0.6L141,77l-3.6,3.5
		l-1.1,4.5C147.4,85.6,158.7,83.1,168.8,77.8"/>
	<path class="st2" d="M111.6,133.2c8.4,0.9,16.8-0.9,24.1-5c-5.8-4.3-12.4-7.2-19.4-8.6C114.7,124,112.9,128.5,111.6,133.2"/>
	<path class="st2" d="M109.5,135.8l-1.7,3.6c2.2,1.5,5.9,4.9,22.8,4.9c9.4,1.1,18.9-1.9,25.9-8.3l-16.5-5.1l-0.7,1.2l-3.2,0.6
		L135,135l-8.2,0.2l-1.5,2.2l-5.4-0.4l-1.8,0.6l-2.6-0.9l-2.8,0.2L109.5,135.8"/>
	<path class="st2" d="M176.4,123.9c3-1.6,6.7-1.7,8.9-4.8c-9.7-5.1-20.7-6.9-31.6-5.3l-1.6,1.7l-2.4,0.9l-0.2,1.7l-1.6,0.8l-2.3,0.2
		l-1.3,1.3l-5.7-0.1l-0.3,1.2l3.1,2.3l-1,1.1c1.3,2.7,12.9,6.2,28.3,1.1L176.4,123.9"/>
	<path class="st2" d="M193.8,104.2l3.6-2c1.6-2.1-14.3-5.7-20.8-5.7c-6.8,0.2-13.7,0.9-20.4,2.3l-1.9,2.2l-5.7,0.6l-0.3,1.2l2.2,3.2
		l1.6,0.2l3.7,3c7.4,2,15.1,2.2,22.6,0.5l2.2-1l7.7-2.5L193.8,104.2"/>
	<path class="st2" d="M212.2,71.5l-0.3-1.8l-5.5,0.7l-2.7-0.1l-2.1,1.9l-5.5-0.8l-1,1.5l-4.2-0.8l-4.5,1.4l-5.2-1.4l-6.3-0.1
		l-2.8,3.2C185.3,80.3,200.2,78.9,212.2,71.5"/>
	<path class="st2" d="M126.5,169.6l-2.4-0.9l-1.5-2l-2,0.2l-2-2.1l-2-2.3l-2.1-1.8l-1.8,0.2l-2.2-2.5l-1.5-0.8l-0.9-1.5l-1.9-1.3
		l-2-3.2l-2.1-1.8l-2-3.7l-3.9,2l0.7,7c8.2,9.9,19.5,16.7,32,19.3L126.5,169.6"/>
	<path class="st2" d="M154.4,166.5l-3.6-1.5l-2.2,0.4l-4.2-3.3l-3.8-2.4l-1.6,1.4l-5.1-4.7l-2.7,1.2l-5.3-5.7
		c-1.9-2.5-4.4-4.4-7.3-5.5l-0.7,1l-7.1-2.3l-6.2-2.6l-0.3,0.9c12.3,16.3,31.3,26.1,51.7,26.9l0.6-0.9L154.4,166.5"/>
	<path class="st2" d="M173.1,155.1l-2,0.6l-4.7-2.7l-1.8,1.4c-3.8-1-7.3-2.8-10.5-5.2l-4,0.4l-5.5-3.5l-3.6-0.3l-4.5,0.5l-1.8,1.5
		l-6.4,0.2l-0.3,0.6l2.5,2.1c14.9,8.7,32.4,12,49.4,9.4l-1-1.8l-2.7-1.3L173.1,155.1"/>
	<path class="st2" d="M202.3,141.7l-4-0.2l-0.7,0.6l-6.5-2.3L190,141l-4.2-0.8l-2.6,0.2l-3.3-1.6l-3.2,0.5c-2.9-0.8-5.1-3.6-8.2-2.9
		l-3.9-0.1l-2.7,2.2l-3.5,0.9l-1.5,1.6l-4.2,0.9l0.3,0.9c17.3,6.2,36.1,7,53.9,2.5l0.3-1.3L202.3,141.7"/>
	<path class="st2" d="M229.7,121.6l-6.6,0.4l-0.7,1.1l-6.6,0.6h-5.3l-0.8,1.6l-1.3,0.9l-6.5-1.2c-5.3-1.5-10.9-1.9-16.4-1l-5.3,2.3
		l-1.7,1.8c-3.2,1.2-6.7,1.4-9.9,2.5l-2.1,1.9c6.7,1.8,13.7,2.8,20.7,2.9c16.8,0.3,33.4-3.6,48.2-11.4L229.7,121.6"/>
	<path class="st2" d="M252.5,98.8h-4.1l-5.2,0.8l-2.8,0.2l0.6,1.3c-4.2,1.4-8.8,0.1-12.9,1.7l-1.2,1.7c-3.6,0.7-7.1-0.7-10.7,0
		l-1.5,2.2c-3.2,0.2-6.4-0.1-9.7-0.2c-3.8,0.1-7.6,0.9-11.1,2.3l-2.6,2.3c-3.1,0-6.3,0.4-9.3,1.3v1.2c3.8,1.5,7.2,3.7,10,6.6
		c25.4,1.6,50.7-5.5,71.5-20.2l-3.3-1.1l-3.9-0.8L252.5,98.8"/>
	<path class="st2" d="M278,75.7l-6-0.3l-1.1,0.9l-7.2,1.8l-2.5,0.8l-3.1,0.2l-0.5,2.3l-7.4,0.6l-0.2,2.2c-3.3,1-9-4.1-11.2,1.2
		l-2,0.3l-1.9-0.2c-1.5,1.7-3.9,2.3-6.1,1.5l-2.1,1.6l-4.6-0.9l-1.2,2.2c-4-0.2-8,0.3-11.8,1.4l-2.3,2.3c-2.8,0.1-5.5,0.5-8.2,1
		L199,96l4.9,0.8l4.1,3.6c25.5,1,50.4-7.5,70-23.8V75.7"/>
	<path class="st2" d="M270.3,57.2l-1.2,2.2l-5,1.2L263,62l-2.7,0.6c-4,2.9-8.7,1.6-13.2,2.3c0.1,3.3-5.2,1.3-7.4,2.8
		c-2.3,1.6-2,1.1-5.6,1.2l-1.4,1.6c-2.8-0.3-5.7-0.4-8.5-0.2l-1.2,2.1l-4.6,1l-1.1,3l-8,1.7l-3.8,0.3l-0.6,1.9l3,0.7l5.5,2.4
		c35.5,2,68.6-18,83.3-50.4l-0.5-0.3C290.8,43.7,281.6,52.4,270.3,57.2"/>
</g>
</svg>
