<svg id="Layer_1" data-name="Layer 1" xmlns="http://www.w3.org/2000/svg" viewBox="0 0 396.60001 396.59998"><title>Edmonton Oilers</title><path d="M198.36,396.6A198.144,198.144,0,0,0,396.6,198.36C396.6,88.8,307.92,0,198.36,0S0,88.8,0,198.36,88.8,396.6,198.36,396.6Z" fill="#fff"/><path d="M209.4,9.47992c22.56,35.52,32.76,48.6,32.76,68.4,0,23.88-20.04,43.2-43.8,43.2-23.88,0-43.92-19.32-43.92-43.08,0-19.92,10.2-33,32.76-68.52-99.24,5.76-178.08,88.08-178.08,188.88,0,104.4,84.72,189.12,189.24,189.12,104.4,0,189.12-84.72,189.12-189.12C387.48,97.55994,308.64,15.23993,209.4,9.47992Z" fill="#00205b"/><path d="M198.36,370.31995c94.92,0,171.96-77.04,171.96-171.96,0-79.68-54.24-146.64-127.68-166.2,3.84,4.92,16.8,22.8,16.8,45.84,0,33.36-27.36,60.36-61.08,60.36s-61.08-27.12-61.08-60.36c0-23.04,12.96-40.92,16.8-45.84A172.00947,172.00947,0,0,0,26.4,198.36C26.4,293.28,103.44,370.31995,198.36,370.31995Z" fill="#fff"/><path d="M234.12,218.99994H221.76v19.68a7.14025,7.14025,0,0,1-14.28,0v-25.08h14.28v-18.6H207.48V180.48a7.04487,7.04487,0,0,1,7.08-7.2,7.22115,7.22115,0,0,1,7.2,7.2v9H234v-41.76H181.92v25.56a9.21906,9.21906,0,0,1,9.24,9.12v58.2a5.22451,5.22451,0,0,1-5.28,5.16V351.12c0,7.56-3.96,11.04-5.76,12.24a156.83326,156.83326,0,0,0,40.44-.48s13.56-2.76,13.56-14.64v-129.24Z" fill="#00205b"/><path d="M181.92,218.99994H169.56v21.6a5.16,5.16,0,0,1-10.32,0v-62.16a5.19838,5.19838,0,0,1,5.16-5.16v-25.56H137.64v25.56a5.19838,5.19838,0,0,1,5.16,5.16v62.16a5.12181,5.12181,0,0,1-5.16,5.16v91.8c0,7.68-4.2,10.2-6.24,10.92a148.15292,148.15292,0,0,0,38.16,13.2s12.36,1.8,12.36-10.56Z" fill="#00205b"/><path d="M340.8,189.48v-28.08a13.64886,13.64886,0,0,0-13.56-13.68H311.16a13.67392,13.67392,0,0,0-13.68,13.68v37.56a9.02823,9.02823,0,0,0,2.76,6l21.48,19.2a9.64056,9.64056,0,0,1,2.76,6.12v8.28a7.325,7.325,0,0,1-7.32,7.2,7.24752,7.24752,0,0,1-7.32-7.2v-19.56H297.48V325.92c26.64-24.72,43.32-59.4,43.32-97.8v-5.52a9.02823,9.02823,0,0,0-2.76-6l-21.48-19.2a9.64037,9.64037,0,0,1-2.76-6.12v-12.72a5.34033,5.34033,0,0,1,10.68,0v10.92Zm-207.12,148.08v-91.8a5.12181,5.12181,0,0,1-5.16-5.16v-62.16a5.19838,5.19838,0,0,1,5.16-5.16v-25.56H106.8v25.56a5.22482,5.22482,0,0,1,5.28,5.16v62.16a5.12181,5.12181,0,0,1-5.16,5.16v62.52c0,13.08-6.72,15.12-10.2,15.36a140.4588,140.4588,0,0,0,27.72,21S133.68,348.24,133.68,337.55994Z" fill="#00205b"/><path d="M288.36,240.6V210.12c0-5.16-5.88-7.56-5.88-7.56s5.88-2.4,5.88-7.68V161.4a13.674,13.674,0,0,0-13.68-13.68h-36.6v25.56a5.1984,5.1984,0,0,1,5.16,5.16V240.6a5.12181,5.12181,0,0,1-5.16,5.16V348.12a16.72989,16.72989,0,0,1-5.04,12.24,144.4101,144.4101,0,0,0,27.6-9.6s6.36-3.12,6.36-14.52V245.76a7.30019,7.30019,0,0,1-7.44-7.32v-22.8a5.6413,5.6413,0,0,1,11.28,0V337.32a31.14479,31.14479,0,0,1-1.2,8.88,143.313,143.313,0,0,0,20.52-13.92s3.36-2.76,3.36-16.08V245.76a5.22451,5.22451,0,0,1-5.28-5.16Zm-185.4,67.68V161.4a13.674,13.674,0,0,0-13.68-13.68H69.48A13.674,13.674,0,0,0,55.8,161.4v66.72c0,33.48,12.72,64.08,33.6,87.84C93.48,321.24,102.96,322.8,102.96,308.28Z" fill="#00205b"/><path d="M265.8,194.88a6.17215,6.17215,0,0,0,6.24-6.12v-9.24a6.1973,6.1973,0,0,0-6.24-6.24,6.097,6.097,0,0,0-6.12,6.24v9.24A6.06927,6.06927,0,0,0,265.8,194.88ZM79.44,173.28a7.22119,7.22119,0,0,0-7.2,7.2v58.2a7.2,7.2,0,0,0,14.4,0v-58.2A7.22119,7.22119,0,0,0,79.44,173.28Z" fill="#fff"/><path d="M230.28,78.59991c0-22.43994-19.44-34.43994-31.92-65.64-12.6,31.2-32.04,43.2-32.04,65.64,0,15.24005,12.72,30.24,32.04,30.24S230.28,93.84,230.28,78.59991Z" fill="#cf4520"/></svg>