<?xml version="1.0" encoding="utf-8"?>
<!-- Generator: Adobe Illustrator 21.1.0, SVG Export Plug-In . SVG Version: 6.00 Build 0)  -->
<!DOCTYPE svg PUBLIC "-//W3C//DTD SVG 1.1//EN" "http://www.w3.org/Graphics/SVG/1.1/DTD/svg11.dtd">
<svg version="1.1" id="Layer_1" xmlns="http://www.w3.org/2000/svg" xmlns:xlink="http://www.w3.org/1999/xlink" x="0px" y="0px"
	 width="406.6px" height="406.6px" viewBox="0 0 406.6 406.6" style="enable-background:new 0 0 406.6 406.6;" xml:space="preserve"
	>
<style type="text/css">
	.st0{fill:#FFFFFF;}
	.st1{fill:#00205B;}
	.st2{fill:#CF4520;}
</style>
<title>Edmonton Oilers</title>
<path class="st0" d="M203.4,406.6c-54.3,0-105.4-21.1-143.8-59.5C21.2,308.7,0,257.7,0,203.4C0,91.2,91.2,0,203.4,0
	c54.3,0,105.4,21.2,143.7,59.6c38.4,38.4,59.5,89.5,59.5,143.8v0.2c0,54.3-21.2,105.2-59.5,143.6c-38.4,38.3-89.4,59.5-143.6,59.5
	C203.5,406.6,203.4,406.6,203.4,406.6z"/>
<path class="st0" d="M203.4,401.6c109.4,0.1,198.2-88.6,198.2-198c0-0.1,0-0.1,0-0.2C401.6,93.8,312.9,5,203.4,5S5,93.8,5,203.4
	S93.8,401.6,203.4,401.6z"/>
<path class="st1" d="M214.4,14.5C237,50,247.2,63.1,247.2,82.9c0,23.9-20,43.2-43.8,43.2c-23.9,0-43.9-19.3-43.9-43.1
	c0-19.9,10.2-33,32.8-68.5C93,20.2,14.1,102.6,14.1,203.4c0,104.4,84.7,189.1,189.2,189.1c104.4,0,189.1-84.7,189.1-189.1
	C392.5,102.6,313.6,20.2,214.4,14.5z"/>
<path class="st0" d="M203.4,375.3c94.9,0,172-77,172-172c0-79.7-54.2-146.6-127.7-166.2c3.8,4.9,16.8,22.8,16.8,45.8
	c0,33.4-27.4,60.4-61.1,60.4s-61.1-27.1-61.1-60.4c0-23,13-40.9,16.8-45.8C83.8,57.2,31.4,125.4,31.4,203.4
	C31.4,298.3,108.4,375.3,203.4,375.3z"/>
<path class="st1" d="M239.1,224h-12.4v19.7c0,3.9-3.3,7.1-7.2,7.1c-3.9,0-7-3.2-7.1-7.1v-25.1h14.3V200h-14.3v-14.5
	c-0.1-3.9,3-7.1,6.9-7.2c0.1,0,0.1,0,0.2,0c4,0,7.2,3.2,7.2,7.2v9H239v-41.8h-52.1v25.6c5.1,0,9.2,4.1,9.2,9.1v58.2
	c0,2.9-2.4,5.2-5.3,5.2v105.4c0,7.6-4,11-5.8,12.2c13.4,1.6,27,1.4,40.4-0.5c0,0,13.6-2.8,13.6-14.6L239.1,224L239.1,224z"/>
<path class="st1" d="M186.9,224h-12.4v21.6c0,2.8-2.3,5.2-5.2,5.2s-5.2-2.3-5.2-5.2v-62.2c0-2.8,2.3-5.1,5.2-5.2v-25.6h-26.8v25.6
	c2.8,0,5.1,2.3,5.2,5.2v62.2c0,2.8-2.3,5.1-5.1,5.2c0,0-0.1,0-0.1,0v91.8c0,7.7-4.2,10.2-6.2,10.9c12.1,6.1,24.9,10.6,38.2,13.2
	c0,0,12.4,1.8,12.4-10.6V224z"/>
<path class="st1" d="M345.8,194.5v-28.1c0-7.5-6-13.6-13.6-13.7h-16.1c-7.6,0-13.7,6.1-13.7,13.7c0,0,0,0,0,0V204
	c0.1,2.3,1.1,4.4,2.8,6l21.5,19.2c1.6,1.6,2.6,3.8,2.8,6.1v8.3c-0.1,4-3.3,7.2-7.3,7.2c-4,0-7.3-3.2-7.3-7.2c0,0,0,0,0,0V224h-12.4
	v106.9c26.6-24.7,43.3-59.4,43.3-97.8v-5.5c-0.1-2.3-1.1-4.4-2.8-6l-21.5-19.2c-1.6-1.6-2.6-3.8-2.8-6.1v-12.7
	c0-2.9,2.5-5.3,5.4-5.3c2.9,0,5.2,2.4,5.3,5.3v10.9L345.8,194.5z M138.7,342.6v-91.8c-2.8,0-5.1-2.3-5.2-5.1c0,0,0-0.1,0-0.1v-62.2
	c0-2.8,2.3-5.1,5.2-5.2v-25.6h-26.9v25.6c2.9,0,5.2,2.3,5.3,5.2v62.2c0,2.8-2.3,5.1-5.1,5.2c0,0-0.1,0-0.1,0v62.5
	c0,13.1-6.7,15.1-10.2,15.4c8.3,8.1,17.6,15.2,27.7,21C129.4,349.6,138.7,353.2,138.7,342.6L138.7,342.6z"/>
<path class="st1" d="M293.4,245.6v-30.5c0-5.2-5.9-7.6-5.9-7.6s5.9-2.4,5.9-7.7v-33.5c0-7.6-6.1-13.7-13.7-13.7c0,0,0,0,0,0h-36.6
	v25.6c2.8,0,5.1,2.3,5.2,5.2v62.2c0,2.8-2.3,5.1-5.1,5.2c0,0-0.1,0-0.1,0v102.4c0.1,4.6-1.7,9-5,12.2c9.5-2.3,18.7-5.5,27.6-9.6
	c0,0,6.4-3.1,6.4-14.5v-90.5c-4,0.1-7.4-3.1-7.4-7.2c0-0.1,0-0.1,0-0.2v-22.8c0.1-3.1,2.6-5.6,5.8-5.5c3,0.1,5.5,2.5,5.5,5.5v121.7
	c0,3-0.4,6-1.2,8.9c7.2-4,14.1-8.7,20.5-13.9c0,0,3.4-2.8,3.4-16.1v-70.4c-2.9,0-5.2-2.3-5.3-5.2L293.4,245.6z M108,313.3V166.4
	c0-7.6-6.1-13.7-13.7-13.7c0,0,0,0,0,0H74.5c-7.6,0-13.7,6.1-13.7,13.7c0,0,0,0,0,0v66.7c0,33.5,12.7,64.1,33.6,87.8
	C98.5,326.2,108,327.8,108,313.3z"/>
<path class="st0" d="M270.8,199.9c3.4,0,6.2-2.7,6.2-6.1c0,0,0,0,0,0v-9.2c0-3.4-2.7-6.2-6.2-6.2c0,0-0.1,0-0.1,0
	c-3.4,0-6.1,2.7-6.1,6.1c0,0.1,0,0.1,0,0.2v9.2c0,3.4,2.7,6.1,6,6.1C270.7,199.9,270.8,199.9,270.8,199.9z M84.4,178.3
	c-4,0-7.2,3.2-7.2,7.2v58.2c0,4,3.2,7.2,7.2,7.2c4,0,7.2-3.2,7.2-7.2v-58.2C91.6,181.5,88.4,178.3,84.4,178.3z"/>
<path class="st2" d="M235.3,83.6c0-22.4-19.4-34.4-31.9-65.6c-12.6,31.2-32,43.2-32,65.6c0,15.2,12.7,30.2,32,30.2
	S235.3,98.8,235.3,83.6z"/>
</svg>
