<svg id="Layer_1" data-name="Layer 1" xmlns="http://www.w3.org/2000/svg" viewBox="0 0 111.439 124.601"><title>Untitled-2</title><path d="M110.593,12.505C94.878,4.323,75.903,0,55.719,0,35.532,0,16.557,4.324.846,12.505L0,12.945V36.881A102.31017,102.31017,0,0,0,9.334,78.296c9.451,20.48,23.107,34.217,45.661,45.928l.724.377.725-.377c22.554-11.713,36.21-25.45,45.661-45.928a102.30983,102.30983,0,0,0,9.334-41.415V12.945Zm-.726,24.376a100.683,100.683,0,0,1-9.189,40.757c-10.181,22.058-25.163,34.91-44.959,45.192-19.96-10.365-34.842-23.274-44.958-45.192A100.68282,100.68282,0,0,1,1.572,36.881V13.899C18.421,5.126,37.624,1.571,55.719,1.571c18.265,0,37.407,3.613,54.148,12.328Z" fill="#fff"/><path d="M77.78918,58.6489a39.02616,39.02616,0,0,0,5.669-4.384c1.738-5.14,3.24-12.03,3.24-12.03a4.33994,4.33994,0,0,0-.822-1.786,12.19194,12.19194,0,0,0-2.721-.708c-2.806.453-6.462,3.202-9.373,5.486a30.7283,30.7283,0,0,0,4.158-.489c-.529,1.361-2.419,4.914-2.419,4.914a17.65817,17.65817,0,0,0,3.553-.454,51.60635,51.60635,0,0,1-2.645,6.201Z" fill="#041e41"/><path d="M8.20209,40.6367c.876,17.271,8.03,48.464,37.529,68.835a21.39523,21.39523,0,0,0,8.143-8.437,17.581,17.581,0,0,1,3.432,9.01c3.326-15.57-11.262-27.587-11.262-27.587s10.525,5.117,17.781,13.431a12.071,12.071,0,0,0-.227-3.684,24.64186,24.64186,0,0,0-1.304-4.535,46.5986,46.5986,0,0,1,11.675,15.332l.277-.247c10.404-10.763,10.701-26.894,10.701-26.894-2.267-9.41-6.251-12.677-6.251-12.677.794,4.305,1.285,9.029,1.285,9.029a29.059,29.059,0,0,1-7.067,9.335c-4.081.453-7.317.046-12.981-1.871a36.77567,36.77567,0,0,1-8.56-4.252,27.344,27.344,0,0,0-4.025.114c-1.823.192-4.025.68-4.025.68a35.66073,35.66073,0,0,0,4.147-10.676,38.201,38.201,0,0,0-5.288-4.746c-4.037.188-7.248.422-7.248.422l1.36-5.518s-.928.774-1.966,1.811c-1.114,1.114-2.342,2.498-2.342,2.498a31.58934,31.58934,0,0,1-5.82,1.511,12.74656,12.74656,0,0,1-3.401-1.587,24.52443,24.52443,0,0,1,10.732-8.465,3.99129,3.99129,0,0,1-1.133-2.57c1.695-1.121,3.245-2.044,4.614-2.799a5.9578,5.9578,0,0,0-.382,1.511,45.25063,45.25063,0,0,1,3.745-2.727c1.587-.953,3.133-1.767,3.133-1.767a19.15345,19.15345,0,0,1,3.241-6.371,7.08427,7.08427,0,0,1,1.408-.091,9.23721,9.23721,0,0,0,1.828,3.468,18.86634,18.86634,0,0,0-4.79,2.509,55.84037,55.84037,0,0,1,10.633-1.672,31.5894,31.5894,0,0,1,10.933,1.298,37.29335,37.29335,0,0,1-2.392,3.013c11.19-3.793,12.358-6.692,18.423-7.996a26.95913,26.95913,0,0,1,4.214,1.077,7.17271,7.17271,0,0,1,1.776,3.061,77.134,77.134,0,0,1-3.439,13.722,28.31524,28.31524,0,0,1-5.555,4.761,67.99472,67.99472,0,0,0,8.73-2.044c3.242,2.367,7.499,7.51,9.266,9.724a94.93041,94.93041,0,0,0,5.487-26.939c-1.477-.744-19.843-9.709-47.518-9.709-27.674,0-46.04,8.965-47.517,9.709m22.197,41.364a11.62188,11.62188,0,0,1-3.628-5.291,6.529,6.529,0,0,1,1.134-3.549,76.087,76.087,0,0,0,12.471,6.575,37.87952,37.87952,0,0,0-9.977,2.265m-1.078-17.091c.399-.312.942-.743,1.298-1.011,0,0,2.145-.306,4.484-.463a32.11569,32.11569,0,0,1,3.496-.066l1.498,1.757a17.43245,17.43245,0,0,0-3.368.721,19.91887,19.91887,0,0,1,5.025,2.224c-.031.272-.068.543-.115.81a19.33226,19.33226,0,0,0-4.413.075,21.81992,21.81992,0,0,1,3.787,2.339c-.103.303-.209.596-.319.874a17.34917,17.34917,0,0,0-3.909-.35,22.49447,22.49447,0,0,1,3.02,2.318c-.367.712-.639,1.139-.639,1.139a95.8385,95.8385,0,0,1-11.227-4.452l-.073-4.318a10.405,10.405,0,0,1,1.455-1.597m-6.36-1.706c.305.485.683,1.044,1.126,1.621a14.13749,14.13749,0,0,0,1.587,1.719l1.574,4.428a23.37436,23.37436,0,0,0-2.594,3.398,49.88852,49.88852,0,0,1-3.25-7.105Z" fill="#041e41"/><path d="M55.7193,115.47139q3.966-2.05949,7.511-4.348Q59.68129,113.4064,55.7193,115.47139Z" fill="#041e41"/><path d="M57.57059,49.08521c-.378-.161-.769-.321-1.143-.469-1.121-.447-2.088-.798-2.088-.798s-.231.002-.684.054c-.114.013-.242.029-.383.049-.283.04-.623.095-1.017.173a40.44978,40.44978,0,0,0-8.646,2.928l-.342-.701-.454-.935-4.555,6.268h.001a24.84464,24.84464,0,0,0,4.621.376,35.0517,35.0517,0,0,0,5.847-.521,46.56034,46.56034,0,0,0,4.225-4.104c.342-.376.632-.704.859-.965.303-.348.493-.577.546-.638,1.059-.302,1.891-.453,3.213-.717m-9.977,4.802a5.887,5.887,0,0,1-4.762.227s.321-.542.605-1.024a2.28164,2.28164,0,0,0,2.192.495,2.18043,2.18043,0,0,0,1.164-1.494,25.38165,25.38165,0,0,1,2.766-.358,3.75583,3.75583,0,0,1-1.965,2.154" fill="#041e41"/><path d="M1.57208,13.89909v22.982a100.68282,100.68282,0,0,0,9.189,40.757c10.116,21.918,24.998,34.827,44.958,45.192,19.796-10.282,34.778-23.134,44.959-45.192a100.68282,100.68282,0,0,0,9.189-40.757v-22.982c-16.741-8.716-35.883-12.328-54.148-12.328-18.095,0-37.298,3.554-54.147,12.328m105.356,22.982a97.62651,97.62651,0,0,1-8.918,39.525c-9.374,20.309-23.597,33.403-42.291,43.113-18.619-9.671-32.884-22.733-42.29-43.113a97.60914,97.60914,0,0,1-8.918-39.525V15.6821c14.797-7.705,34.173-11.172,51.208-11.172,16.977,0,36.382,3.453,51.209,11.172Z" fill="#041e41"/><path d="M52.95239,51.40469a46.43582,46.43582,0,0,1-4.225,4.104,35.11088,35.11088,0,0,1-5.847.522,35.11088,35.11088,0,0,0,5.847-.522,46.43582,46.43582,0,0,0,4.225-4.104" fill="#be955b"/><path d="M4.51047,15.68159v21.2a97.612,97.612,0,0,0,8.919,39.524c9.406,20.38,23.671,33.443,42.29,43.113,18.694-9.709,32.917-22.803,42.29-43.113a97.61149,97.61149,0,0,0,8.919-39.524v-21.2c-14.827-7.719-34.232-11.172-51.209-11.172-17.036,0-36.411,3.468-51.209,11.172m93.239,51.894c-1.766-2.214-6.023-7.357-9.266-9.723a68.07882,68.07882,0,0,1-8.729,2.043,28.34676,28.34676,0,0,0,5.555-4.761,77.10673,77.10673,0,0,0,3.439-13.722,7.169,7.169,0,0,0-1.777-3.061,26.92681,26.92681,0,0,0-4.213-1.077c-6.065,1.304-7.234,4.203-18.423,7.996a37.18531,37.18531,0,0,0,2.392-3.012,31.57206,31.57206,0,0,0-10.933-1.299,55.85859,55.85859,0,0,0-10.634,1.672,18.88352,18.88352,0,0,1,4.791-2.509,9.23908,9.23908,0,0,1-1.829-3.468,7.09152,7.09152,0,0,0-1.408.091,19.179,19.179,0,0,0-3.24,6.371s-1.546.814-3.134,1.767a45.16582,45.16582,0,0,0-3.744,2.727,5.97753,5.97753,0,0,1,.381-1.511c-1.369.755-2.918,1.678-4.614,2.799a3.99664,3.99664,0,0,0,1.134,2.57,24.539,24.539,0,0,0-10.733,8.465,12.74744,12.74744,0,0,0,3.401,1.587,31.59142,31.59142,0,0,0,5.821-1.511s1.228-1.384,2.342-2.498c1.037-1.037,1.966-1.81,1.966-1.81l-1.361,5.517s3.212-.234,7.249-.422a38.19331,38.19331,0,0,1,5.287,4.746,35.67945,35.67945,0,0,1-4.146,10.676s2.202-.488,4.025-.68a27.24407,27.24407,0,0,1,4.024-.113,36.8227,36.8227,0,0,0,8.56,4.251c5.665,1.917,8.9,2.324,12.982,1.871a29.04817,29.04817,0,0,0,7.066-9.335s-.491-4.724-1.284-9.029c0,0,3.983,3.267,6.251,12.677,0,0-.298,16.131-10.701,26.894-.093.082-.185.165-.278.247a87.41864,87.41864,0,0,1-10.738,8.122q-3.549,2.283-7.511,4.348a18.902,18.902,0,0,0,1.587-5.427,17.57664,17.57664,0,0,0-3.433-9.01,21.40038,21.40038,0,0,1-8.142,8.438c-29.499-20.372-36.653-51.565-37.53-68.836,1.477-.744,19.843-9.709,47.518-9.709s46.041,8.965,47.518,9.709a94.97034,94.97034,0,0,1-5.488,26.939m-22.228-17.924s1.889-3.553,2.419-4.913a30.7887,30.7887,0,0,1-4.158.488c2.911-2.283,6.567-5.032,9.373-5.486a12.21271,12.21271,0,0,1,2.721.709,4.33383,4.33383,0,0,1,.822,1.785s-1.502,6.891-3.241,12.03a38.99588,38.99588,0,0,1-5.668,4.384l-1.361-3.25a51.52845,51.52845,0,0,0,2.645-6.201,17.65665,17.65665,0,0,1-3.552.454m-21.163.151a10.54353,10.54353,0,0,1,0,1.209,28.40317,28.40317,0,0,1-4.667,5.593,29.22946,29.22946,0,0,1-8.106.605l-3.326-1.556h-.001l4.555-6.268s6.251-2.498,11.526-1.567c0,0,.967.351,2.088.797.374.149.765.308,1.143.469-1.322.264-2.154.416-3.213.718-.053.061-.243.29-.546.638.303-.348.493-.577.547-.638m5.861,4.671a22.919,22.919,0,0,0,.072-3.847,15.80121,15.80121,0,0,1,4.235,2.595s-.333,1.891-.85,3.798l-8.933,4.095a84.20711,84.20711,0,0,0,5.476-6.641m43.117-36.612v18.919c-14.285-6.499-31.975-9.445-47.617-9.445-15.694,0-33.361,2.955-47.617,9.442v-18.916s18.744-9.76,47.617-9.76,47.617,9.76,47.617,9.76" fill="#be955b"/><path d="M45.6286,53.58469a2.28145,2.28145,0,0,1-2.192-.494c-.284.481-.605,1.023-.605,1.023a5.8829,5.8829,0,0,0,4.762-.227,3.75283,3.75283,0,0,0,1.965-2.154,25.37492,25.37492,0,0,0-2.766.359,2.181,2.181,0,0,1-1.164,1.493" fill="#cf0a2c"/><path d="M55.7193,8.10149c-28.873,0-47.617,9.76-47.617,9.76v18.916c14.256-6.487,31.923-9.442,47.617-9.442,15.642,0,33.332,2.946,47.617,9.445V17.8615s-18.744-9.76-47.617-9.76" fill="#cf0a2c"/><path d="M34.62878,23.26219q-2.03252.37951-4.055.828v-9.862q-1.242.276-2.48.579v12.355q3.252-.79651,6.535-1.407Z" fill="#fff"/><path d="M55.2356,19.05931c.2,0,.399,0,.598.002q1.005,2.47048,2.008,4.959,1.34248.03,2.686.09-1.002-2.50951-2.006-5.004c.276.008.553.016.829.026q.58951-1.047,1.177-2.088v-3.156q-.58653-1.092-1.175-2.179-3.32249-.11549-6.648-.048v12.354q1.266-.0255,2.531-.025Zm0-4.931q1.38148.00151,2.763.034v2.438q-1.38148-.033-2.763-.034Z" fill="#fff"/><path d="M18.20731,24.8967q1.413-.47548,2.834-.914v-2.493q-1.42049.4395-2.834.914v-2.438q1.977-.66449,3.971-1.259v-2.493q-3.219.96-6.394,2.102,0,6.177-.001,12.355,1.209-.435,2.424-.844Z" fill="#fff"/><path d="M91.0314,24.2955q1.335.414,2.662.86v4.93q1.21349.40949,2.423.844v-10.22q-.5625-1.2705-1.126-2.534-2.619-.91349-5.268-1.703-.5685.897-1.14,1.799v10.222q1.227.3525,2.449.732Zm0-4.931q1.335.414,2.662.86v2.438q-1.32751-.4455-2.662-.86Z" fill="#fff"/><path d="M45.63129,24.4032q.58649-1.11449,1.174-2.222v-8.086q-.58649-1.026-1.174-2.046-2.7285.216-5.448.558-.585,1.14-1.17,2.285v8.089q.585.987,1.17,1.98,2.718-.34048,5.448-.558m-4.102-9.464q1.37549-.15749,2.752-.283v7.368q-1.377.126-2.752.283Z" fill="#fff"/><path d="M69.00879,12.37589q-1.25853-.14548-2.52-.265v12.355q1.26151.12,2.52.265Z" fill="#fff"/><path d="M82.68646,24.93881q-.01648-4.04251-.033-8.086-.58049-1.2-1.164-2.394-3.2655-.717-6.558-1.25l.05,12.354q3.291.534,6.557,1.25.57449-.939,1.148-1.874m-2.488-.903q-1.36052-.28349-2.724-.533l-.03-7.368q1.36354.25049,2.724.533Z" fill="#fff"/><path d="M24.65439,74.37009a23.363,23.363,0,0,1,2.594-3.399l-1.574-4.427a14.14012,14.14012,0,0,1-1.587-1.72c-.443-.576-.821-1.135-1.126-1.62l-1.557,4.061a49.88465,49.88465,0,0,0,3.25,7.105" fill="#fff"/><path d="M26.77081,76.71a11.6218,11.6218,0,0,0,3.628,5.291,37.8329,37.8329,0,0,1,9.977-2.265,76.12889,76.12889,0,0,1-12.471-6.576,6.53992,6.53992,0,0,0-1.134,3.55" fill="#fff"/><path d="M48.72751,55.50879a35.10893,35.10893,0,0,1-5.847.522,24.76189,24.76189,0,0,1-4.621-.377l3.325,1.556a29.23329,29.23329,0,0,0,8.107-.605,28.43308,28.43308,0,0,0,4.667-5.593,10.55189,10.55189,0,0,0,0-1.209c-.054.061-.244.289-.547.637-.227.261-.517.59-.859.965a46.43107,46.43107,0,0,1-4.225,4.104" fill="#fff"/><path d="M38.25909,55.654Z" fill="#fff"/><path d="M39.1662,75.277s.272-.428.639-1.14a22.59367,22.59367,0,0,0-3.02-2.318,17.33421,17.33421,0,0,1,3.909.351c.11-.279.216-.571.319-.874a21.81883,21.81883,0,0,0-3.787-2.339,19.27279,19.27279,0,0,1,4.413-.075c.047-.267.084-.538.115-.81a19.918,19.918,0,0,0-5.026-2.224,17.36218,17.36218,0,0,1,3.369-.721l-1.498-1.757a32.11626,32.11626,0,0,0-3.496.066c-2.339.157-4.484.463-4.484.463-.357.268-.899.699-1.298,1.011a10.30912,10.30912,0,0,0-1.455,1.597l.073,4.318a95.83785,95.83785,0,0,0,11.227,4.452" fill="#fff"/><path d="M64.52649,53.22119a15.80171,15.80171,0,0,0-4.235-2.595,22.9311,22.9311,0,0,1-.072,3.848,84.30259,84.30259,0,0,1-5.476,6.64l8.933-4.095c.517-1.906.85-3.798.85-3.798" fill="#041e41"/><path d="M62.29449,87.66949a24.67485,24.67485,0,0,1,1.304,4.535,12.07647,12.07647,0,0,1,.227,3.685c-7.256-8.314-17.781-13.432-17.781-13.432s14.587,12.017,11.262,27.587a18.88984,18.88984,0,0,1-1.587,5.427q3.966-2.0595,7.511-4.348a87.31539,87.31539,0,0,0,10.738-8.122,46.58835,46.58835,0,0,0-11.674-15.332" fill="#fff"/><path d="M43.60928,51.0219h0a40.44893,40.44893,0,0,1,8.646-2.928c.395-.077.734-.133,1.017-.173.142-.02.269-.036.383-.049.454-.052.683-.053.683-.053h.001c-5.274-.931-11.526,1.567-11.526,1.567l.455.935Z" fill="#fff"/></svg>