<?xml version="1.0" encoding="utf-8"?>
<!-- Generator: Adobe Illustrator 21.1.0, SVG Export Plug-In . SVG Version: 6.00 Build 0)  -->
<!DOCTYPE svg PUBLIC "-//W3C//DTD SVG 1.1//EN" "http://www.w3.org/Graphics/SVG/1.1/DTD/svg11.dtd">
<svg version="1.1" id="Layer_1" xmlns="http://www.w3.org/2000/svg" xmlns:xlink="http://www.w3.org/1999/xlink" x="0px" y="0px"
	 width="119.4px" height="133.1px" viewBox="0 0 119.4 133.1" style="enable-background:new 0 0 119.4 133.1;" xml:space="preserve"
	>
<style type="text/css">
	.st0{fill:#FFFFFF;}
	.st1{fill:#041E41;}
	.st2{fill:#BE955B;}
	.st3{fill:#CF0A2C;}
</style>
<title>Untitled-2</title>
<path class="st0" d="M57.1,131.8C33.7,119.6,19.6,105.3,9.7,84C3.5,70.4,0.2,55.9,0,40.9l0-26.4L3,13C19.3,4.5,38.9,0,59.7,0
	c20.8,0,40.4,4.5,56.7,13l3,1.6v26.4c-0.2,15-3.5,29.5-9.7,43.1c-9.9,21.4-24,35.7-47.5,47.8l-2.6,1.3L57.1,131.8z M9.6,40.9
	c0.2,13.6,3.1,26.7,8.8,39.1c8.6,18.7,21.1,31.5,41.3,42.3C80,111.4,92.4,98.7,101,80c5.7-12.4,8.6-25.5,8.8-39.1V20.4
	C95.4,13.3,78.1,9.6,59.7,9.6c-18.4,0-35.7,3.7-50.1,10.8V40.9z"/>
<path class="st0" d="M114.6,16.5C98.9,8.3,79.9,4,59.7,4C39.5,4,20.6,8.3,4.8,16.5L4,16.9v23.9c0.2,14.3,3.4,28.4,9.3,41.4
	c9.5,20.5,23.1,34.2,45.7,45.9l0.7,0.4l0.7-0.4c22.6-11.7,36.2-25.4,45.7-45.9c6-13,9.2-27.1,9.3-41.4V16.9L114.6,16.5z M113.9,40.9
	c-0.2,14.1-3.3,28-9.2,40.8c-10.2,22.1-25.2,34.9-45,45.2c-20-10.4-34.8-23.3-45-45.2C8.9,68.8,5.8,55,5.6,40.9v-23
	C22.4,9.1,41.6,5.6,59.7,5.6c18.3,0,37.4,3.6,54.1,12.3V40.9z"/>
<path class="st1" d="M81.8,62.6c2-1.3,3.9-2.8,5.7-4.4c1.7-5.1,3.2-12,3.2-12c-0.1-0.7-0.4-1.3-0.8-1.8c-0.9-0.3-1.8-0.6-2.7-0.7
	c-2.8,0.5-6.5,3.2-9.4,5.5c1.4-0.1,2.8-0.2,4.2-0.5c-0.5,1.4-2.4,4.9-2.4,4.9c1.2,0,2.4-0.2,3.6-0.5c-0.7,2.1-1.6,4.2-2.6,6.2
	L81.8,62.6z"/>
<path class="st1" d="M12.2,44.6c0.9,17.3,8,48.5,37.5,68.8c3.4-2,6.3-4.9,8.1-8.4c2,2.6,3.1,5.7,3.4,9C64.6,98.5,50,86.5,50,86.5
	s10.5,5.1,17.8,13.4c0.1-1.2,0-2.5-0.2-3.7c-0.3-1.5-0.7-3.1-1.3-4.5c4.9,4.2,8.9,9.5,11.7,15.3l0.3-0.2
	C88.7,96,88.9,79.9,88.9,79.9c-2.3-9.4-6.3-12.7-6.3-12.7c0.8,4.3,1.3,9,1.3,9c-1.7,3.6-4.1,6.7-7.1,9.3c-4.1,0.5-7.3,0-13-1.9
	c-3-1-5.9-2.5-8.6-4.3c-1.3-0.1-2.7,0-4,0.1c-1.8,0.2-4,0.7-4,0.7c1.9-3.3,3.3-6.9,4.1-10.7c-1.6-1.7-3.4-3.3-5.3-4.7
	c-4,0.2-7.2,0.4-7.2,0.4l1.4-5.5c0,0-0.9,0.8-2,1.8C37.2,62.6,36,64,36,64c-1.9,0.7-3.8,1.2-5.8,1.5c-1.2-0.4-2.4-0.9-3.4-1.6
	c2.7-3.8,6.4-6.7,10.7-8.5c-0.7-0.7-1.1-1.6-1.1-2.6c1.7-1.1,3.2-2,4.6-2.8c-0.2,0.5-0.3,1-0.4,1.5c1.2-1,2.5-1.9,3.7-2.7
	c1.6-1,3.1-1.8,3.1-1.8c0.7-2.3,1.8-4.5,3.2-6.4c0.5-0.1,0.9-0.1,1.4-0.1c0.4,1.3,1,2.5,1.8,3.5c-1.7,0.6-3.3,1.4-4.8,2.5
	c3.5-0.9,7-1.5,10.6-1.7c3.7-0.2,7.4,0.2,10.9,1.3c-0.7,1-1.5,2.1-2.4,3c11.2-3.8,12.4-6.7,18.4-8c1.4,0.2,2.8,0.6,4.2,1.1
	c0.8,0.9,1.4,1.9,1.8,3.1c-0.7,4.7-1.9,9.3-3.4,13.7c-1.6,1.8-3.5,3.4-5.6,4.8c3-0.5,5.9-1.2,8.7-2c3.2,2.4,7.5,7.5,9.3,9.7
	c3.1-8.7,5-17.7,5.5-26.9c-1.5-0.7-19.8-9.7-47.5-9.7C32,34.9,13.7,43.9,12.2,44.6 M34.4,86c-1.7-1.4-2.9-3.2-3.6-5.3
	c0-1.3,0.4-2.5,1.1-3.5c3.9,2.6,8.1,4.8,12.5,6.6C41,84,37.6,84.8,34.4,86 M33.3,68.9c0.4-0.3,0.9-0.7,1.3-1c0,0,2.1-0.3,4.5-0.5
	c1.2-0.1,2.3-0.1,3.5-0.1l1.5,1.8c-1.1,0.1-2.3,0.4-3.4,0.7c1.8,0.5,3.5,1.3,5,2.2c0,0.3-0.1,0.5-0.1,0.8c-1.5-0.1-2.9-0.1-4.4,0.1
	c1.3,0.6,2.6,1.4,3.8,2.3c-0.1,0.3-0.2,0.6-0.3,0.9c-1.3-0.3-2.6-0.4-3.9-0.3c1.1,0.7,2.1,1.5,3,2.3c-0.4,0.7-0.6,1.1-0.6,1.1
	c-3.8-1.2-7.6-2.7-11.2-4.5l-0.1-4.3C32.3,69.9,32.8,69.4,33.3,68.9 M27,67.2c0.3,0.5,0.7,1,1.1,1.6c0.5,0.6,1,1.2,1.6,1.7l1.6,4.4
	c-1,1.1-1.8,2.2-2.6,3.4c-1.3-2.3-2.4-4.7-3.2-7.1L27,67.2z"/>
<path class="st1" d="M59.7,119.5c2.6-1.4,5.1-2.8,7.5-4.3C64.9,116.6,62.4,118.1,59.7,119.5z"/>
<path class="st1" d="M61.6,53.1c-0.4-0.2-0.8-0.3-1.1-0.5c-1.1-0.4-2.1-0.8-2.1-0.8s-0.2,0-0.7,0.1c-0.1,0-0.2,0-0.4,0
	c-0.3,0-0.6,0.1-1,0.2c-3,0.6-5.9,1.6-8.6,2.9l-0.3-0.7l-0.5-0.9l-4.6,6.3h0c1.5,0.3,3.1,0.4,4.6,0.4c2,0,3.9-0.2,5.8-0.5
	c1.5-1.3,2.9-2.6,4.2-4.1c0.3-0.4,0.6-0.7,0.9-1c0.3-0.3,0.5-0.6,0.5-0.6C59.4,53.5,60.2,53.3,61.6,53.1 M51.6,57.9
	c-1.5,0.7-3.2,0.8-4.8,0.2c0,0,0.3-0.5,0.6-1c0.6,0.5,1.4,0.7,2.2,0.5c0.6-0.3,1-0.8,1.2-1.5c0.9-0.2,1.8-0.3,2.8-0.4
	C53.2,56.7,52.5,57.5,51.6,57.9"/>
<path class="st1" d="M5.6,17.9v23c0.2,14.1,3.3,28,9.2,40.8c10.1,21.9,25,34.8,45,45.2c19.8-10.3,34.8-23.1,45-45.2
	c5.9-12.8,9-26.7,9.2-40.8v-23C97.1,9.2,78,5.6,59.7,5.6C41.6,5.6,22.4,9.1,5.6,17.9 M110.9,40.9c-0.2,13.7-3.2,27.1-8.9,39.5
	c-9.4,20.3-23.6,33.4-42.3,43.1c-18.6-9.7-32.9-22.7-42.3-43.1C11.7,68,8.7,54.5,8.5,40.9V19.7C23.3,12,42.7,8.5,59.7,8.5
	c17,0,36.4,3.5,51.2,11.2V40.9z"/>
<path class="st2" d="M57,55.4c-1.3,1.5-2.7,2.8-4.2,4.1c-1.9,0.3-3.9,0.5-5.8,0.5c2,0,3.9-0.2,5.8-0.5C54.2,58.2,55.6,56.9,57,55.4"
	/>
<path class="st2" d="M8.5,19.7v21.2c0.2,13.7,3.2,27.1,8.9,39.5c9.4,20.4,23.7,33.4,42.3,43.1c18.7-9.7,32.9-22.8,42.3-43.1
	c5.7-12.4,8.7-25.9,8.9-39.5V19.7C96.1,12,76.7,8.5,59.7,8.5C42.7,8.5,23.3,12,8.5,19.7 M101.7,71.6c-1.8-2.2-6-7.4-9.3-9.7
	c-2.9,0.9-5.8,1.6-8.7,2c2-1.3,3.9-2.9,5.6-4.8c1.6-4.5,2.7-9.1,3.4-13.7c-0.3-1.2-0.9-2.2-1.8-3.1c-1.4-0.5-2.8-0.8-4.2-1.1
	c-6.1,1.3-7.2,4.2-18.4,8c0.8-1,1.6-2,2.4-3c-3.5-1.1-7.2-1.5-10.9-1.3c-3.6,0.2-7.2,0.8-10.6,1.7c1.5-1.1,3.1-1.9,4.8-2.5
	c-0.9-1-1.5-2.2-1.8-3.5c-0.5,0-0.9,0-1.4,0.1c-1.5,1.9-2.6,4.1-3.2,6.4c0,0-1.5,0.8-3.1,1.8c-1.3,0.8-2.5,1.8-3.7,2.7
	c0.1-0.5,0.2-1,0.4-1.5c-1.4,0.8-2.9,1.7-4.6,2.8c0.1,1,0.5,1.9,1.1,2.6c-4.3,1.7-8,4.7-10.7,8.5c1,0.7,2.2,1.2,3.4,1.6
	c2-0.3,3.9-0.8,5.8-1.5c0,0,1.2-1.4,2.3-2.5c1-1,2-1.8,2-1.8l-1.4,5.5c0,0,3.2-0.2,7.2-0.4c1.9,1.4,3.7,3,5.3,4.7
	c-0.8,3.8-2.2,7.4-4.1,10.7c0,0,2.2-0.5,4-0.7c1.3-0.1,2.7-0.2,4-0.1c2.7,1.8,5.5,3.2,8.6,4.3c5.7,1.9,8.9,2.3,13,1.9
	c3-2.6,5.4-5.8,7.1-9.3c0,0-0.5-4.7-1.3-9c0,0,4,3.3,6.3,12.7c0,0-0.3,16.1-10.7,26.9c-0.1,0.1-0.2,0.2-0.3,0.2
	c-3.4,3-7,5.7-10.7,8.1c-2.4,1.5-4.9,3-7.5,4.3c0.8-1.7,1.3-3.5,1.6-5.4c-0.3-3.3-1.5-6.4-3.4-9c-1.9,3.5-4.7,6.4-8.1,8.4
	C20.2,93.1,13.1,61.9,12.2,44.6c1.5-0.7,19.8-9.7,47.5-9.7s46,9,47.5,9.7C106.7,53.8,104.9,62.9,101.7,71.6 M79.5,53.7
	c0,0,1.9-3.6,2.4-4.9c-1.4,0.3-2.8,0.4-4.2,0.5c2.9-2.3,6.6-5,9.4-5.5c0.9,0.1,1.8,0.4,2.7,0.7c0.4,0.5,0.7,1.1,0.8,1.8
	c0,0-1.5,6.9-3.2,12c-1.8,1.6-3.6,3.1-5.7,4.4l-1.4-3.2c1-2,1.9-4.1,2.6-6.2C81.9,53.5,80.7,53.6,79.5,53.7 M58.4,53.8
	c0,0.4,0,0.8,0,1.2c-1.3,2.1-2.9,3.9-4.7,5.6c-2.7,0.6-5.4,0.8-8.1,0.6l-3.3-1.6h0l4.6-6.3c0,0,6.3-2.5,11.5-1.6c0,0,1,0.4,2.1,0.8
	c0.4,0.1,0.8,0.3,1.1,0.5C60.2,53.3,59.4,53.5,58.4,53.8c-0.1,0.1-0.2,0.3-0.5,0.6C58.1,54.1,58.3,53.9,58.4,53.8 M64.2,58.5
	c0.1-1.3,0.2-2.6,0.1-3.8c1.5,0.6,3,1.5,4.2,2.6c0,0-0.3,1.9-0.8,3.8l-8.9,4.1C60.7,63,62.5,60.8,64.2,58.5 M107.3,21.9v18.9
	c-14.3-6.5-32-9.4-47.6-9.4c-15.7,0-33.4,3-47.6,9.4V21.9c0,0,18.7-9.8,47.6-9.8S107.3,21.9,107.3,21.9"/>
<path class="st3" d="M49.6,57.6c-0.8,0.2-1.6,0-2.2-0.5c-0.3,0.5-0.6,1-0.6,1c1.5,0.6,3.3,0.5,4.8-0.2c0.9-0.4,1.6-1.2,2-2.2
	c-0.9,0.1-1.9,0.2-2.8,0.4C50.7,56.7,50.2,57.3,49.6,57.6"/>
<path class="st3" d="M59.7,12.1c-28.9,0-47.6,9.8-47.6,9.8v18.9c14.3-6.5,31.9-9.4,47.6-9.4c15.6,0,33.3,2.9,47.6,9.4V21.9
	C107.3,21.9,88.6,12.1,59.7,12.1"/>
<path class="st0" d="M38.6,27.3c-1.4,0.3-2.7,0.5-4.1,0.8v-9.9c-0.8,0.2-1.7,0.4-2.5,0.6v12.4c2.2-0.5,4.3-1,6.5-1.4V27.3z"/>
<path class="st0" d="M59.2,23.1c0.2,0,0.4,0,0.6,0c0.7,1.6,1.3,3.3,2,5c0.9,0,1.8,0.1,2.7,0.1c-0.7-1.7-1.3-3.3-2-5
	c0.3,0,0.6,0,0.8,0c0.4-0.7,0.8-1.4,1.2-2.1v-3.2c-0.4-0.7-0.8-1.5-1.2-2.2c-2.2-0.1-4.4-0.1-6.6,0V28c0.8,0,1.7,0,2.5,0L59.2,23.1z
	 M59.2,18.1c0.9,0,1.8,0,2.8,0v2.4c-0.9,0-1.8,0-2.8,0V18.1z"/>
<path class="st0" d="M22.2,28.9c0.9-0.3,1.9-0.6,2.8-0.9v-2.5c-0.9,0.3-1.9,0.6-2.8,0.9V24c1.3-0.4,2.6-0.9,4-1.3v-2.5
	c-2.1,0.6-4.3,1.3-6.4,2.1c0,4.1,0,8.2,0,12.4c0.8-0.3,1.6-0.6,2.4-0.8V28.9z"/>
<path class="st0" d="M95,28.3c0.9,0.3,1.8,0.6,2.7,0.9v4.9c0.8,0.3,1.6,0.6,2.4,0.8V24.7c-0.4-0.8-0.8-1.7-1.1-2.5
	c-1.7-0.6-3.5-1.2-5.3-1.7c-0.4,0.6-0.8,1.2-1.1,1.8v10.2c0.8,0.2,1.6,0.5,2.4,0.7V28.3z M95,23.4c0.9,0.3,1.8,0.6,2.7,0.9v2.4
	c-0.9-0.3-1.8-0.6-2.7-0.9V23.4z"/>
<path class="st0" d="M49.6,28.4c0.4-0.7,0.8-1.5,1.2-2.2v-8.1c-0.4-0.7-0.8-1.4-1.2-2c-1.8,0.1-3.6,0.3-5.4,0.6
	c-0.4,0.8-0.8,1.5-1.2,2.3V27c0.4,0.7,0.8,1.3,1.2,2C46,28.7,47.8,28.5,49.6,28.4 M45.5,18.9c0.9-0.1,1.8-0.2,2.8-0.3V26
	c-0.9,0.1-1.8,0.2-2.8,0.3V18.9z"/>
<path class="st0" d="M73,16.4c-0.8-0.1-1.7-0.2-2.5-0.3v12.4c0.8,0.1,1.7,0.2,2.5,0.3V16.4z"/>
<path class="st0" d="M86.7,28.9c0-2.7,0-5.4,0-8.1c-0.4-0.8-0.8-1.6-1.2-2.4c-2.2-0.5-4.4-0.9-6.6-1.2L79,29.6
	c2.2,0.4,4.4,0.8,6.6,1.2C85.9,30.2,86.3,29.6,86.7,28.9 M84.2,28c-0.9-0.2-1.8-0.4-2.7-0.5l0-7.4c0.9,0.2,1.8,0.3,2.7,0.5L84.2,28z
	"/>
<path class="st0" d="M28.7,78.4c0.8-1.2,1.6-2.3,2.6-3.4l-1.6-4.4c-0.6-0.5-1.1-1.1-1.6-1.7c-0.4-0.6-0.8-1.1-1.1-1.6l-1.6,4.1
	C26.3,73.7,27.4,76.1,28.7,78.4"/>
<path class="st0" d="M30.8,80.7c0.7,2.1,1.9,3.9,3.6,5.3c3.2-1.2,6.6-2,10-2.3c-4.4-1.8-8.5-4-12.5-6.6
	C31.2,78.2,30.8,79.4,30.8,80.7"/>
<path class="st0" d="M52.7,59.5c-1.9,0.3-3.9,0.5-5.8,0.5c-1.5,0-3.1-0.1-4.6-0.4l3.3,1.6c2.7,0.2,5.4,0,8.1-0.6
	c1.8-1.7,3.4-3.5,4.7-5.6c0-0.4,0-0.8,0-1.2c-0.1,0.1-0.2,0.3-0.5,0.6c-0.2,0.3-0.5,0.6-0.9,1C55.6,56.9,54.2,58.2,52.7,59.5"/>
<path class="st0" d="M42.3,59.7"/>
<path class="st0" d="M43.2,79.3c0,0,0.3-0.4,0.6-1.1c-0.9-0.9-1.9-1.6-3-2.3c1.3,0,2.6,0.1,3.9,0.4c0.1-0.3,0.2-0.6,0.3-0.9
	c-1.2-0.9-2.4-1.7-3.8-2.3c1.5-0.2,2.9-0.2,4.4-0.1c0-0.3,0.1-0.5,0.1-0.8c-1.6-1-3.3-1.7-5-2.2c1.1-0.4,2.2-0.6,3.4-0.7l-1.5-1.8
	c-1.2,0-2.3,0-3.5,0.1c-2.3,0.2-4.5,0.5-4.5,0.5c-0.4,0.3-0.9,0.7-1.3,1c-0.5,0.5-1,1-1.5,1.6l0.1,4.3C35.6,76.5,39.3,78,43.2,79.3"
	/>
<path class="st1" d="M68.5,57.2c-1.3-1.1-2.7-2-4.2-2.6c0.1,1.3,0.1,2.6-0.1,3.8c-1.7,2.3-3.5,4.5-5.5,6.6l8.9-4.1
	C68.2,59.1,68.5,57.2,68.5,57.2"/>
<path class="st0" d="M66.3,91.7c0.6,1.5,1,3,1.3,4.5c0.3,1.2,0.3,2.5,0.2,3.7C60.6,91.6,50,86.5,50,86.5s14.6,12,11.3,27.6
	c-0.3,1.9-0.8,3.7-1.6,5.4c2.6-1.4,5.1-2.8,7.5-4.3c3.8-2.4,7.4-5.1,10.7-8.1C75.2,101.1,71.2,95.9,66.3,91.7"/>
<path class="st0" d="M47.6,55L47.6,55c2.8-1.3,5.7-2.3,8.6-2.9c0.4-0.1,0.7-0.1,1-0.2c0.1,0,0.3,0,0.4,0c0.5-0.1,0.7-0.1,0.7-0.1h0
	c-5.3-0.9-11.5,1.6-11.5,1.6l0.5,0.9L47.6,55z"/>
</svg>
