<?xml version="1.0" encoding="utf-8"?>
<!-- Generator: Adobe Illustrator 17.1.0, SVG Export Plug-In . SVG Version: 6.00 Build 0)  -->
<!DOCTYPE svg PUBLIC "-//W3C//DTD SVG 1.1//EN" "http://www.w3.org/Graphics/SVG/1.1/DTD/svg11.dtd">
<svg version="1.1" id="Layer_1" xmlns="http://www.w3.org/2000/svg" xmlns:xlink="http://www.w3.org/1999/xlink" x="0px" y="0px"
	 viewBox="0 0 100.5 120" enable-background="new 0 0 100.5 120" xml:space="preserve">
<polygon fill="#111111" points="100.5,0 0,0 0,83.7 0.8,84.2 49.1,119.2 50.3,120 51.4,119.2 99.7,84.3 100.5,83.7 "/>
<polygon fill="#FFFFFF" points="1.9,82.9 50.3,117.8 98.6,82.9 98.6,2.2 1.9,2.2 "/>
<path fill="#ACAEA9" d="M5.1,58.6h90.2V5.4H5.1V58.6z M5.1,81.3l45.2,32.6l45.1-32.6V61.4H5.1V81.3z"/>
<path fill="#111111" d="M8,54.4h84.5V8.2H8V54.4z M8,79.8l42.3,30.5l42.3-30.5V66.4H8V79.8z"/>
<path fill="#ACAEA9" d="M50.8,15.5c0,0,2.7,4.1,2.7,15.8c0,11.6-2.7,15.8-2.7,15.8h7.8V35.3h23.6v11.8H90c0,0-2.7-4.1-2.7-15.8
	c0-11.6,2.7-15.8,2.7-15.8H50.8z M18.3,41.4v-10c0-11.6,2.7-15.8,2.7-15.8H10.5c0,0,2.7,4.1,2.7,15.8c0,11.6-2.7,15.8-2.7,15.8h34.4
	c0,0,2.9-3.9,2.9-9.8c0,0-3.9,4.1-13.1,4.1H18.3z"/>
<path fill="#FFFFFF" d="M17.6,42.1V31.3c0-8.5,1.5-13.1,2.3-15.1h-8.2c0.8,1.9,2.3,6.5,2.3,15.1c0,8.5-1.5,13.1-2.3,15.1h32.8
	c0.5-0.9,2.1-3.6,2.4-7.6c-1.9,1.3-5.8,3.3-12.3,3.3H17.6z M52,16.3c0.8,1.9,2.2,6.5,2.2,15.1c0,8.5-1.4,13.1-2.2,15h5.9V34.6h25
	v11.8c1,0,4.4,0,5.9,0c-0.8-1.9-2.2-6.5-2.2-15.1c0-8.5,1.4-13.1,2.2-15.1C86.7,16.3,54.1,16.3,52,16.3z"/>
<rect x="57.9" y="20.6" fill="#ACAEA9" width="25" height="9.7"/>
<rect x="58.6" y="21.3" width="23.6" height="8.3"/>
<path fill="#FFFFFF" d="M63,95.7l3.1-18l-0.7-0.3c0,0-2.5,3.4-3,4.1c-1-1.3-3.1-2.9-5.7-3.8c0.2-0.5,1.2-2.9,1.2-2.9
	s-1.5,0.6-2.2,0.9c0.1-0.1,0.1-0.3,0.1-0.3s-2.3,0.1-2.7,0.1c-0.2-0.3-1.5-2.6-1.6-2.9c0.1-0.2,0.6-1.1,0.7-1.2
	c0.1-0.1,0.7-0.6,0.7-0.6l-0.8-1.5l-1.6,0.1c0,0,0,0.7,0,0.9l-0.2,0.3l-0.2-0.3c0-0.1,0-0.9,0-0.9l-1.6-0.1L47.6,71
	c0,0,0.6,0.5,0.7,0.6c0.1,0.1,0.5,0.9,0.7,1.2c-0.2,0.3-1.5,2.5-1.6,2.9c-0.4,0-2.7-0.1-2.7-0.1s0.1,0.1,0.1,0.3
	c-0.6-0.3-2.2-0.9-2.2-0.9s1,2.4,1.2,2.9c-2.7,0.9-4.7,2.5-5.7,3.8c-0.5-0.6-3.1-4.1-3.1-4.1l-0.6,0.3l3.1,18c0,0,4.4,1.2,12.7,1.2
	C58.5,96.9,63,95.7,63,95.7z"/>
<path fill="#111111" d="M47.7,96c0,0-4.1-0.4-6.5-1.3c1.7,0.3,4.4,0.6,6.8,0.6c0,0-3.3-0.3-5.5-1.2c1.6,0.2,4,0.5,6.2,0.5
	c0,0-3.2-0.3-5.4-1.2c2-0.4,4.4-0.7,7.1-0.7c2.7,0,5.1,0.3,7.1,0.7c-2.2,0.8-5.4,1.2-5.4,1.2c2.2,0,4.6-0.3,6.2-0.5
	c-2.2,0.8-5.5,1.2-5.5,1.2c2.4,0,5.1-0.3,6.8-0.6C57,95.7,52.9,96,52.9,96c6-0.1,9.6-1,9.6-1l2.8-16l-2.8,3.7
	c-1.2-2-3.6-3.6-6.7-4.5l0.9-2.1L52.3,78v-1l-2-3.4l-2,3.4v1.1l-4.3-1.9l0.9,2.1c-3.1,0.9-5.4,2.5-6.7,4.5l-2.8-3.7l2.8,16
	C38.1,95,41.7,95.9,47.7,96z"/>
<path fill="#ACAEA9" d="M51.9,78.3l-1.6-2.1l-1.6,2.1l1.6,1.9L51.9,78.3z M52.3,78.5v7.2l3.7-8.9L52.3,78.5z M48.3,78.5l-3.7-1.6
	l3.7,8.9V78.5z"/>
<path fill="#ACAEA9" d="M63,89.4c-0.7-0.1-1.3-0.8-1.3-1.6c0-0.9,0.7-1.6,1.5-1.6c0.1,0,0.2,0,0.3,0l1-5.9l-4.4,5.9
	c0.1,2.8-0.6,4-0.6,4s-1.5-0.6-3.1-0.9l-0.6-2.8c-0.3,0-0.5-0.1-0.7-0.2h0l-1.5,2.7c0,0-1.8-0.2-2.7-0.2l0.8-2.5l-1.5-4l-1.5,4
	l0.8,2.5c-0.9,0-2.8,0.2-2.8,0.2l-1.3-2.4c-0.1,0-0.1,0-0.3,0c-0.2,0-0.4,0-0.5-0.1l-0.6,3c-1.6,0.3-3.1,0.9-3.1,0.9s-0.7-1.2-0.6-4
	l-4.4-5.9l1,5.9c0.1,0,0.2,0,0.3,0c0.8,0,1.5,0.7,1.5,1.6c0,0.8-0.6,1.5-1.3,1.6l0.9,5.1c1.4-0.6,6.1-2.2,11.9-2.2
	s10.5,1.6,11.9,2.2L63,89.4z"/>
<path fill="#111111" d="M47.4,78.9c-0.1-0.1-0.3-0.3-0.6-0.3c-0.4,0-0.7,0.3-0.7,0.7c0,0.3,0.2,0.6,0.5,0.6c0.1,0.1,0.2,0.1,0.3,0.1
	c0.4,0,0.7-0.3,0.7-0.6C47.7,79.3,47.6,79.1,47.4,78.9z M54,78.9c-0.1-0.1-0.3-0.3-0.6-0.3c-0.4,0-0.7,0.3-0.7,0.7
	c0,0.3,0.2,0.6,0.5,0.6c0.1,0.1,0.2,0.1,0.3,0.1c0.4,0,0.7-0.3,0.7-0.6C54.3,79.3,54.1,79.1,54,78.9z M50.9,78.2
	c0-0.4-0.3-0.7-0.7-0.7c-0.4,0-0.7,0.3-0.7,0.7c0,0.4,0.3,0.7,0.7,0.7C50.6,78.9,50.9,78.6,50.9,78.2z"/>
<path fill="#FFFFFF" d="M54.8,86.1c-0.4-0.3-0.6-0.7-0.6-1.2c0-0.7,0.6-1.3,1.3-1.3c0.4,0,0.8,0.2,1,0.5c0.4,0.2,0.6,0.6,0.6,1
	c0,0.6-0.4,1-0.9,1.2l0.6,2.6c0.4,0.1,0.7,0.2,1,0.3c0.7-2.3,1.1-5.8-2.7-7.8c0,0,5.4,1.3,3.7,8.1c0.2,0,0.4,0.1,0.6,0.2
	c0.5-1.1,0.4-3.7,0.4-3.7l0.7-0.9c-0.4-1.8-1.8-3.7-5-4.9c0,0,3.7,0.4,5.6,4l0.8-1c-1.1-1.9-3.5-3.6-6.5-4.5l-3.9,9.5
	c0.7,0,1.3,0.1,2,0.1L54.8,86.1z M38.6,83.3l0.7,1c1.9-3.7,5.6-4.1,5.6-4.1c-3.2,1.2-4.5,3.1-4.9,4.9l0.7,0.9c0,0-0.1,2.6,0.4,3.7
	c0.2-0.1,0.3-0.1,0.6-0.2c-1.6-6.8,3.7-8.1,3.7-8.1c-3.8,2-3.4,5.5-2.7,7.8c0.3-0.1,0.7-0.1,1-0.3l0.6-2.8c-0.5-0.1-0.8-0.6-0.8-1.2
	c0-0.7,0.6-1.3,1.3-1.3c0.4,0,0.8,0.2,1,0.5c0.3,0.2,0.6,0.6,0.6,1c0,0.5-0.2,0.9-0.6,1.1l1.2,2.2c0.6,0,1.3-0.1,2-0.1l-3.9-9.5
	C42.1,79.8,39.7,81.4,38.6,83.3z"/>
<path fill="#FFFFFF" d="M37.7,87.8c0-0.3-0.2-0.5-0.5-0.5c0,0-0.1,0-0.1,0l0.1,1C37.5,88.3,37.7,88.1,37.7,87.8z M56.6,84.9
	c0-0.6-0.5-1.1-1.1-1.1c-0.6,0-1.1,0.5-1.1,1.1c0,0.6,0.5,1.1,1.1,1.1C56.1,86.1,56.6,85.6,56.6,84.9z M44.8,83.8
	c-0.6,0-1.1,0.5-1.1,1.1c0,0.6,0.5,1.2,1.1,1.2c0.6,0,1.1-0.5,1.1-1.2C45.9,84.4,45.4,83.8,44.8,83.8z"/>
<path fill="#FFFFFF" d="M62.8,87.8c0,0.3,0.1,0.4,0.4,0.5l0.1-1c0,0-0.1,0-0.1,0C63,87.3,62.8,87.6,62.8,87.8z M37.2,86.4
	c-0.1,0-0.2,0-0.3,0l0,0.2c0.1,0,0.2,0,0.3,0c0.6,0,1.1,0.6,1.1,1.2c0,0.6-0.4,1.1-1,1.2l0,0.2c0.6-0.1,1.1-0.7,1.1-1.4
	C38.6,87,38,86.4,37.2,86.4z"/>
<path fill="#FFFFFF" d="M46.8,79.9c0.3,0,0.6-0.3,0.6-0.6c0-0.3-0.3-0.6-0.6-0.6c-0.3,0-0.6,0.3-0.6,0.6
	C46.2,79.7,46.5,79.9,46.8,79.9z M53.4,79.9c0.3,0,0.6-0.3,0.6-0.6c0-0.3-0.3-0.6-0.6-0.6c-0.3,0-0.6,0.3-0.6,0.6
	C52.8,79.7,53.1,79.9,53.4,79.9z M50.8,78.2c0-0.3-0.3-0.6-0.6-0.6c-0.3,0-0.6,0.3-0.6,0.6c0,0.3,0.3,0.6,0.6,0.6
	C50.6,78.8,50.8,78.6,50.8,78.2z M63.1,89.2l0-0.2c-0.6-0.1-1-0.6-1-1.2c0-0.7,0.5-1.2,1.1-1.2c0.1,0,0.1,0,0.3,0l0-0.1
	c-0.1,0-0.2-0.1-0.3-0.1c-0.7,0-1.3,0.6-1.3,1.4C62,88.5,62.4,89.1,63.1,89.2z"/>
<path fill="#111111" d="M45.8,84.9c0,0.6-0.4,1-1,1c-0.6,0-1-0.4-1-1c0-0.6,0.4-1,1-1C45.4,84,45.8,84.4,45.8,84.9z"/>
<path fill="#111111" d="M56.5,84.9c0,0.6-0.4,1-1,1c-0.6,0-1-0.4-1-1c0-0.6,0.4-1,1-1C56.1,84,56.5,84.4,56.5,84.9z"/>
<path fill="#111111" d="M50.2,86.6c0.1,0,0.1,0,0.2,0c0.3,0,0.6-0.3,0.6-0.6c0-0.2-0.1-0.4-0.3-0.5c0.1,0.1,0.1,0.3,0.1,0.4
	C50.9,86.3,50.6,86.6,50.2,86.6z"/>
<path fill="#111111" d="M50.8,86c0,0.3-0.3,0.5-0.5,0.5c-0.3,0-0.5-0.2-0.5-0.5c0-0.3,0.2-0.5,0.5-0.5C50.5,85.4,50.8,85.7,50.8,86z
	"/>
<path fill="#111111" d="M50.8,78.2c0,0.3-0.3,0.5-0.5,0.5c-0.3,0-0.5-0.2-0.5-0.5c0-0.3,0.2-0.5,0.5-0.5
	C50.5,77.7,50.8,78,50.8,78.2z"/>
<path fill="#111111" d="M53.9,79.4c0,0.3-0.2,0.5-0.5,0.5c-0.3,0-0.5-0.2-0.5-0.5c0-0.3,0.2-0.5,0.5-0.5
	C53.7,78.9,53.9,79.1,53.9,79.4z"/>
<path fill="#111111" d="M47.3,79.4c0,0.3-0.2,0.5-0.5,0.5c-0.3,0-0.5-0.2-0.5-0.5c0-0.3,0.2-0.5,0.5-0.5
	C47.1,78.9,47.3,79.1,47.3,79.4z"/>
<path fill="#111111" d="M58.1,92.1c0.1,0,0.1,0.1,0.2,0.1c0.3,0,0.6-0.3,0.6-0.6c0-0.2-0.1-0.4-0.3-0.5c0.1,0.1,0.1,0.2,0.1,0.4
	C58.7,91.8,58.4,92.1,58.1,92.1z M53,91.2L53,91.2c0.1,0,0.1,0.1,0.3,0.1c0.3,0,0.6-0.3,0.6-0.6c0-0.2-0.1-0.4-0.3-0.5
	c0.1,0.1,0.1,0.3,0.1,0.4C53.7,90.9,53.4,91.2,53,91.2z M42.1,92.1L42.1,92.1c0.1,0,0.1,0.1,0.3,0.1c0.3,0,0.6-0.3,0.6-0.6
	c0-0.2-0.1-0.4-0.3-0.5c0.1,0.1,0.1,0.2,0.1,0.4C42.7,91.8,42.4,92.1,42.1,92.1z M47.2,91.2C47.1,91.2,47.1,91.2,47.2,91.2
	c0,0,0.1,0.1,0.2,0.1c0.3,0,0.6-0.3,0.6-0.6c0-0.2-0.1-0.4-0.3-0.5c0.1,0.1,0.1,0.3,0.1,0.4C47.8,90.9,47.5,91.2,47.2,91.2z"/>
<path fill="#111111" d="M47.7,90.5c0,0.3-0.3,0.6-0.5,0.6c-0.3,0-0.6-0.3-0.6-0.6c0-0.3,0.3-0.5,0.6-0.5
	C47.4,90,47.7,90.2,47.7,90.5z"/>
<path fill="#111111" d="M42.6,91.4c0,0.3-0.3,0.5-0.6,0.5s-0.5-0.2-0.5-0.5c0-0.3,0.2-0.5,0.5-0.5S42.6,91.1,42.6,91.4z"/>
<path fill="#111111" d="M53.5,90.5c0,0.3-0.2,0.6-0.5,0.6c-0.3,0-0.5-0.3-0.5-0.6c0-0.3,0.2-0.5,0.5-0.5
	C53.3,90,53.5,90.2,53.5,90.5z"/>
<path fill="#111111" d="M58.6,91.4c0,0.3-0.3,0.5-0.5,0.5c-0.3,0-0.6-0.2-0.6-0.5c0-0.3,0.3-0.5,0.6-0.5
	C58.4,90.9,58.6,91.1,58.6,91.4z"/>
<path fill="#111111" d="M48.1,76.9l2.2-3.7l2.1,3.7h1.7l0.2-0.4h-1.7l-2.1-3.7l1-1.8l0.3-0.2l-0.2-0.3l-0.4,0l0,0.3l-0.9,1.6
	l-0.9-1.6l0-0.3l-0.4,0l-0.1,0.3L49,71l1,1.8l-2.1,3.7h-1.7l0.2,0.4H48.1z M62.3,89.3v0.9l0.6-0.6L62.3,89.3z M61.1,89.2l0.9-0.2
	l-0.3-0.6L61.1,89.2z M61.5,87.7L60.7,88l0.9,0.2L61.5,87.7z M61.8,86.7l-0.9,0l0.6,0.6L61.8,86.7z M62.6,86.2l-0.7-0.5l0.2,0.9
	L62.6,86.2z M63.2,85.2l-0.3,0.9l0.6,0L63.2,85.2z M37.7,89.6l0.6,0.6l0-0.9L37.7,89.6z M38.9,88.5l-0.4,0.6l0.9,0.2L38.9,88.5z
	 M39,88.3l0.8-0.2L39,87.7L39,88.3z M39.6,86.7l-0.9,0l0.3,0.6L39.6,86.7z M38.5,86.5l0.2-0.9L38,86.2L38.5,86.5z M37,86l0.6,0
	l-0.3-0.9L37,86z"/>
</svg>
