<?xml version="1.0" encoding="utf-8"?>
<!-- Generator: Adobe Illustrator 21.1.0, SVG Export Plug-In . SVG Version: 6.00 Build 0)  -->
<!DOCTYPE svg PUBLIC "-//W3C//DTD SVG 1.1//EN" "http://www.w3.org/Graphics/SVG/1.1/DTD/svg11.dtd">
<svg version="1.1"
	 id="svg2403" inkscape:output_extension="org.inkscape.output.svg.inkscape" inkscape:version="0.46" sodipodi:docname="Minnesota Wild.svg" sodipodi:version="0.32" xmlns:cc="http://creativecommons.org/ns#" xmlns:dc="http://purl.org/dc/elements/1.1/" xmlns:inkscape="http://www.inkscape.org/namespaces/inkscape" xmlns:rdf="http://www.w3.org/1999/02/22-rdf-syntax-ns#" xmlns:sodipodi="http://sodipodi.sourceforge.net/DTD/sodipodi-0.dtd" xmlns:svg="http://www.w3.org/2000/svg"
	 xmlns="http://www.w3.org/2000/svg" xmlns:xlink="http://www.w3.org/1999/xlink" x="0px" y="0px" width="239.8px" height="158.9px"
	 viewBox="0 0 239.8 158.9" style="enable-background:new 0 0 239.8 158.9;" xml:space="preserve">
<style type="text/css">
	.st0{clip-path:url(#SVGID_2_);}
	.st1{fill:#EEE3C6;}
	.st2{fill:#015836;}
	.st3{fill:#BF2B37;}
	.st4{fill:#EFB410;}
	.st5{fill:#FFFFFF;}
</style>
<defs>
	
	
		<inkscape:perspective  id="perspective2410" inkscape:persp3d-origin="372.04724 : 350.78739 : 1" inkscape:vp_x="0 : 526.18109 : 1" inkscape:vp_y="0 : 1000 : 0" inkscape:vp_z="744.09448 : 526.18109 : 1" sodipodi:type="inkscape:persp3d">
		</inkscape:perspective>
</defs>
<sodipodi:namedview  bordercolor="#666666" borderopacity="1.0" gridtolerance="10.0" guidetolerance="10.0" id="base" inkscape:current-layer="g2412" inkscape:cx="143.75" inkscape:cy="9.1911765" inkscape:pageopacity="0.0" inkscape:pageshadow="2" inkscape:window-height="904" inkscape:window-width="1280" inkscape:window-x="-4" inkscape:window-y="-4" inkscape:zoom="1.8921739" objecttolerance="10.0" pagecolor="#ffffff" showgrid="false">
	</sodipodi:namedview>
<g id="g2412" transform="matrix(1.25,0,0,-1.25,-1.8748749,147.38625)" inkscape:groupmode="layer" inkscape:label="Minnesota Wild">
	<g id="g2414" transform="matrix(0.7929515,0,0,0.7929515,1.1105567,-0.3624418)">
		<g>
			<defs>
				<rect id="SVGID_1_" x="5.7" y="-3.5" width="228" height="148.7"/>
			</defs>
			<clipPath id="SVGID_2_">
				<use xlink:href="#SVGID_1_"  style="overflow:visible;"/>
			</clipPath>
			<g id="g2416" class="st0">
				<g id="g2422" transform="translate(130.8809,1.7646)">
					<path class="st1" d="M2.9-12.9L0-6.1c-0.5,1-9.8,19.7-50,10.8l-1.1-0.3l-1.1,0.3c-22,5.2-27.2,15.8-27.7,16.9l-1.9,4.2l2.2,1.2
						c-0.5,1.1-0.8,2.3-1,3.5c-0.8,0.2-1.6,0.4-2.2,0.6c-1.2-0.5-2.8-1.1-4-1.3l-1.4-0.3l-1.4,0.5c-9.8,3.4-22.2,10-25.9,12.5
						l-0.6,0.4l-0.4,0.5c-0.1,0.1-10.3,13-12.9,23.8l-0.8,3.1l2.5,2c11.9,9.4,21.4,15.7,27.4,19.4l-6,4.6l6,3.9
						c25.3,16.4,52.3,23.8,60.7,25.9c1.1,2.4,3.2,5.9,6.6,9.5c5.2,5.4,14.7,11.9,30.3,11.9c20.1,0,29.2-11.4,32.6-17.4
						c26.5,1.3,52.2-2.4,66.5-6.1l9.8-2.5l-7.8-6.2c2.7-0.8,4.9-1.4,5.4-1.6l7.8-2.3L65.1,61.8l13.8,0L2.9-12.9z M-30.2,17.1
						c20.1,0,30.6-7.8,35.5-13.5l48.9,48.1l-12.5,0l51.1,54.4c-2.7,0.7-5.3,1.4-6.6,1.6l-11.1,1.9l8.3,6.6
						c-14.8,2.7-35.5,4.7-56.5,3.4l-3.8-0.3l-1.3,3.6c-0.2,0.5-5.4,14.2-24.8,14.2c-22.8,0-28.4-16.9-28.4-17.1l-0.9-2.8l-2.9-0.6
						c-0.3-0.1-27.3-5.8-53.7-21.3l6.9-5.2l-7.1-3.7c-0.1-0.1-11.9-6.2-29.8-20.1c2.5-6.5,7.8-14,9.4-16.1
						c3.7-2.3,13.5-7.4,21.3-10.3c1,0.3,2.2,0.8,2.9,1.1l1.9,0.8l1.9-0.8c0.9-0.3,5.2-1.5,6.2-1.6l5.1-0.7l-0.8-5.1
						c-0.4-2.6,1.2-4.2,1.5-4.5l6.6-4.6l-4.8-2.5c2.9-2.3,7.9-5.3,16.4-7.4C-43.1,16.4-36.2,17.1-30.2,17.1z"/>
					<path id="path2424" class="st1" d="M4.7-4.1l62,60.9l-13.1,0l48.8,52c0,0-11.4,3.4-15.1,4L95,119c-13,3.3-39.8,7.6-68.3,5.7
						c0,0-6.1,17.6-29.6,17.6c-26.8,0-33.2-20.7-33.2-20.7s-32.2-6.7-61.6-25.8l6.4-4.8c0,0-13.3-6.8-33.4-22.7
						c2.2-9,11-20.7,11.8-21.7c3.5-2.4,15.4-8.7,24.7-11.9c1.7,0.4,5,1.8,5,1.8c1.1-0.4,6.1-1.8,7.4-2c-1-5.9,3.4-9.3,3.4-9.3
						l-3-1.7c0,0,4.1-9.3,24.3-14.1C-5.4,19.7,4.7-4.1,4.7-4.1"/>
				</g>
				<g id="g2426" transform="translate(6.1792,72.7002)">
					<path id="path2428" class="st2" d="M4.7-4.1c2.1-5.7,6.1-12.1,9.8-17.2c1.2-1,12.9-7.2,22.1-10.6c1,0.1,4,1.5,4.6,1.9
						c0.5,0,7.3-3,16-3c3.1,0,5.5,0.3,5.5,1c0,0.5-1.3,1.2-1.9,1.5c-1.8,0.8-4.1,1.5-4.1,3.4c0,1.9,3.5,4.5,19.4,4.5
						c10,0,16.6-0.6,16.6-0.6v-1.1c-5.1,0-10.5-0.8-14-1.6c-2.3-0.6-5.8-1.6-5.8-2.7c0-2.1,9.2-2.1,9.2-6.2c0-3.3-3.4-7-16.1-7
						c-6.8,0-12.4,2.2-12.8,2.2c-0.5,0-0.6-0.2-0.6-0.3c0-0.2,0.4-1,1.1-2c1-1.3,2.7-3,5.8-4.1l-4.1-2.3c4.6-4.7,15.9-8,18.2-8.7
						c0,0,38.6,10.1,56.5-11.8l49,50.9L167.6-18l46.5,52.9c0,0-8.9,3.2-17.9,5l6.1,4.8c0,0-31,6.5-56.1,4.4c0,0-4.7,17.7-26.7,17.7
						c-21.3,0-28.1-19.6-28.1-19.6s-25.3-4.1-57.3-22.6l6.8-5.2C41,19.4,26.3,12.5,4.7-4.1"/>
				</g>
				<g id="g2430" transform="translate(30.7095,58.96)">
					<path id="path2432" class="st3" d="M4.7-4.1c0,0,4.2-1.3,15.6-0.6l13,8L43.1,0l3,4.2h-3.3L49.5,15l5.6-10.7h-2.5l1.7-3.7
						l7.1,1.3l2.9,3.8h-2.6l4,6.1h-3.1l6.2,10.7l5.4-10.9h-2.5L75.6,5h-3l5.9-10.6l5.7,8.2h-3.9l5.9,9h-3.8l8.6,15l7.5-15h-3.1l5-9
						h-3.5l4.9-10.9l8.4,13.6h-4.6l6.8,11.2h-4.3l9.3,18.6l9.6-19.6h-3.4l6.1-10.3h-4.2l4.9-10l7.7,11.8H134l9,13h-4.9l14.4,19.8
						l7.7-13.7l16,19.8c0,0-27.9,11.7-69.2,11.7c-54.7,0-85.8-19.2-85.8-19.2s35.9,12.5,75.4,12.5c28.8,0,45.9-6.6,45.9-6.6
						s-36.9,0.2-96.1-15.9c9.6,0,15.4-2.8,15.4-2.8S37.9,21.4,4.3,7l4.3-6.4L4.7-4.1z"/>
				</g>
				<g id="g2434" transform="translate(107.0884,99.71)">
					<path id="path2436" class="st4" d="M4.7-4.1c3.7-3.2,8.5-5.1,13.7-5.1C26-9.2,32.8-5,36.4,1.2C27.6,0,16.9-1.7,4.7-4.1"/>
				</g>
				<g id="g2438" transform="translate(99.9761,118.1895)">
					<path id="path2440" class="st4" d="M4.7-4.1C4.5-5,4.5-5.9,4.5-6.7c0-1,0.1-2,0.2-2.9c7.3,0.8,15,1.3,22.8,1.3
						c6.9,0,13.2-0.4,18.7-1c0.1,0.8,0.2,1.7,0.2,2.6c0,1.7-0.2,3.4-0.6,4.9c-2.6,0.1-5.2,0.1-7.9,0.1C25.6-1.6,14.5-2.6,4.7-4.1"/>
				</g>
				<g id="g2442" transform="translate(139.125,125.7051)">
					<path id="path2444" class="st4" d="M4.7-4.1C1.1,2.3-5.8,6.7-13.7,6.7c-10.7,0-19.5-8-20.8-18.4C-25.2-8.2-9.6-5.2,4.7-4.1"/>
				</g>
				<g id="g2446" transform="translate(122.7559,107.8613)">
					<path id="path2448" class="st5" d="M4.7-4.1C-4.2-4.4-20.5-5.2-47-11.8c0,0,0,0,0,0c-0.3,2-0.6,3.7-0.6,3.7s-1.1-1.7-2.4-4.2
						c-6.7-2.4-15-5.9-20.5-8.9c3.4,1.2,10.1,3.4,18.9,5.9c-0.9-1.8-1.8-3.7-2.5-5.4l4.6,4.1c0,0,3.2-1.8,3.3-1.8
						c-0.1,1.1-0.2,2.5-0.4,3.9C-32.4-10.6-14.1-6.3,4.7-4.1"/>
				</g>
			</g>
		</g>
	</g>
</g>
</svg>
