<svg id="Layer_1" data-name="Layer 1" xmlns="http://www.w3.org/2000/svg" viewBox="0 0 75.1812 51.49704"><title>Untitled-6</title><path d="M66.87722,25.4l5.382-5.654-3.057-14.092-13.596-4.037-1.223,1.134A76.06172,76.06172,0,0,0,36.19721,0C15.96122.036.06222,11.288.00121,25.617a21.80094,21.80094,0,0,0,6.594,15.739c6.511,6.539,17.086,10.141,29.775,10.141,15.308,0,30.891-8.057,37.685-12.817l1.126-.79" fill="#fff"/><path d="M66.8772,25.4l5.382-5.653-3.057-14.094-13.596-4.037-1.223,1.136A75.91972,75.91972,0,0,0,36.19721.001C15.9612.036.06222,11.288.0002,25.616a21.80087,21.80087,0,0,0,6.595,15.74c6.511,6.539,17.085,10.141,29.775,10.141,15.308,0,30.891-8.058,37.685-12.818l1.126-.789m-38.811,12.198c-21.443,0-35.02-10.466-34.96-24.466.057-13.353,15.053-24.177,34.789-24.213a73.31185,73.31185,0,0,1,18.543,2.93l1.233-1.142,12.026,3.571,2.722,12.548-5.643,5.926,8.166,12.283c-6.497,4.552-21.871,12.563-36.876,12.563" fill="#fff"/><path d="M60.8122,27.892a57.03851,57.03851,0,0,1-14.866,6.089l-.882.132V17.615l.725.097a28.26564,28.26564,0,0,1,15.509,7.851l6.793-7.021-2.181-9.849-9.283-2.715-1.178,1.284a60.49608,60.49608,0,0,0-20.153-3.38c-17.248,0-31.335,9.773-31.36,21.834-.025,11.746,11.931,21.915,31.229,21.915,17.829,0,30.697-8.494,34.728-10.77l-6.924-10.312c-.264.175-.981.609-2.157,1.343M34.4452,45.759c-16.825,0-28.679-8.891-28.679-20.23,0-10.855,13.614-19.822,29.138-19.822a54.23834,54.23834,0,0,1,20.934,3.78l1.31-1.482,7.22,2.11,1.672,7.92-4.896,4.991c-5.88-5.798-16.891-8.244-26.025-8.244-13.572,0-20.216,5.207-20.216,10.67,0,6.06,7.242,11.147,19.96,11.267,9.048.086,16.465-1.186,27.609-7.73l4.837,7.303c-5.786,3.035-15.801,9.467-32.864,9.467m-.9-22.318V16.683a43.69833,43.69833,0,0,1,6.828.225v6.533Zm6.828,4.47v6.804a41.296,41.296,0,0,1-6.828.14V27.911Zm-11.728-10.835V34.389l-.664-.092c-5.588-.83-11.249-4.734-11.249-8.498,0-5.333,6.615-7.779,10.85-8.555Z" fill="#fff"/><path d="M62.4722,28.989c-11.144,6.544-18.56,7.816-27.609,7.73-12.717-.12-19.96-5.207-19.96-11.267,0-5.463,6.645-10.67,20.217-10.67,9.133,0,20.144,2.446,26.024,8.244l4.896-4.991-1.671-7.92-7.221-2.11-1.31,1.482a54.23834,54.23834,0,0,0-20.934-3.78c-15.524,0-29.137,8.967-29.137,19.822,0,11.339,11.854,20.23,28.678,20.23,17.063,0,27.078-6.432,32.864-9.467" fill="#c41130"/><path d="M65.08021,25.242l5.643-5.927L68.0022,6.767l-12.026-3.57-1.234,1.142a73.22168,73.22168,0,0,0-18.542-2.93c-19.737.035-34.732,10.859-34.789,24.213-.062,13.999,13.516,24.465,34.959,24.465,15.005,0,30.379-8.01,36.875-12.562M35.1662,47.631c-19.3,0-31.255-10.169-31.229-21.915.024-12.061,14.11-21.834,31.359-21.834a60.48208,60.48208,0,0,1,20.154,3.38l1.177-1.284,9.284,2.715,2.18,9.848-6.792,7.022a28.27309,28.27309,0,0,0-15.51-7.851l-.726-.097V34.113l.882-.132a57.03532,57.03532,0,0,0,14.867-6.09c1.175-.733,1.893-1.167,2.157-1.342l6.924,10.312c-4.031,2.276-16.899,10.77-34.727,10.77m23.367-21.334a48.84322,48.84322,0,0,1-10.957,4.669V20.561a26.05516,26.05516,0,0,1,10.957,5.736" fill="#001e61"/><path d="M16.7322,25.8c0,3.763,5.661,7.667,11.248,8.497l.665.092V17.076l-1.063.168c-4.235.776-10.85,3.222-10.85,8.556m9.424,5.574c-3.822-1.163-6.907-3.575-6.907-5.574,0-2.918,3.651-4.761,6.907-5.703Z" fill="#001e61"/><path d="M33.5452,16.683v6.758h6.828V16.908a43.69826,43.69826,0,0,0-6.828-.225m1.838,2.004,3.188.129v2.641h-3.188Z" fill="#001e61"/><path d="M33.5452,34.855a41.30859,41.30859,0,0,0,6.829-.14V27.911h-6.829m1.765,2.081h3.28v2.776l-3.28.004Z" fill="#001e61"/></svg>