<?xml version="1.0" encoding="utf-8"?>
<!-- Generator: Adobe Illustrator 21.1.0, SVG Export Plug-In . SVG Version: 6.00 Build 0)  -->
<!DOCTYPE svg PUBLIC "-//W3C//DTD SVG 1.1//EN" "http://www.w3.org/Graphics/SVG/1.1/DTD/svg11.dtd">
<svg version="1.1" id="Layer_1" xmlns="http://www.w3.org/2000/svg" xmlns:xlink="http://www.w3.org/1999/xlink" x="0px" y="0px"
	 width="311.9px" height="215.5px" viewBox="0 0 311.9 215.5" style="enable-background:new 0 0 311.9 215.5;" xml:space="preserve"
	>
<style type="text/css">
	.st0{fill:#FFFFFF;}
	.st1{fill:#C41130;}
	.st2{fill:#001E61;}
</style>
<title>Untitled-6</title>
<g>
	<path class="st0" d="M271.9,106.4l21.5-22.6l-12.2-56.2l-54.3-16.1L222,16c-23.7-6.6-48-10.3-72.6-11C68.7,5.1,5.2,50,5,107.2
		c-0.1,23.6,9.4,46.3,26.3,62.8c26,26.1,68.2,40.5,118.8,40.5c61.1,0,123.3-32.2,150.4-51.1l4.5-3.2"/>
	<path class="st0" d="M150.1,215.5c-52,0-95.4-14.9-122.4-41.9C10,156.3-0.1,132.1,0,107.2C0.3,47.2,65.9,0.1,149.4,0l0.2,0
		c24,0.7,47.9,4.2,71.1,10.4l4.9-4.6l59.8,17.8l13.4,61.7l-20.5,21.6l33.6,50.6l-8.5,5.9C275.8,182.8,212.5,215.5,150.1,215.5z
		 M149.4,15.6C74.6,15.8,15.8,56,15.6,107.3c-0.1,20.8,7.9,39.9,23.2,55.3c24,24.1,63.5,37.3,111.3,37.3c55.6,0,112.4-28,140.2-46.5
		l-32.1-48.2l23.4-24.6L272.1,36l-42.4-12.6l-4.9,4.5l-2.7-0.8C198.4,20.2,174,16.3,149.4,15.6z"/>
	<path class="st0" d="M271.9,106.4l21.5-22.6l-12.2-56.2l-54.3-16.1L222,16c-23.7-6.6-48-10.3-72.6-11C68.7,5.1,5.2,50,5,107.2
		c-0.1,23.6,9.4,46.3,26.3,62.8c26,26.1,68.2,40.5,118.8,40.5c61.1,0,123.3-32.2,150.4-51.1l4.5-3.1 M150.1,204.9
		c-85.6,0-139.7-41.8-139.5-97.6C10.9,54,70.7,10.8,149.4,10.6c25.1,0.7,49.9,4.6,74,11.7l4.9-4.6l48,14.2l10.9,50.1l-22.5,23.6
		l32.6,49C271.4,172.9,210,204.9,150.1,204.9"/>
	<path class="st0" d="M247.7,116.3c-18.5,10.9-38.5,19-59.3,24.3l-3.5,0.5V75.3l2.9,0.4c23.4,3.7,45.1,14.6,61.9,31.3l27.1-28
		L268,39.7l-37-10.8l-4.7,5.1c-25.8-9-53-13.6-80.4-13.5c-68.8,0-125,39-125.1,87.1c-0.1,46.9,47.6,87.4,124.6,87.4
		c71.1,0,122.5-33.9,138.6-43l-27.6-41.1C255.2,111.6,252.4,113.4,247.7,116.3 M142.4,187.6C75.3,187.6,28,152.1,28,106.9
		c0-43.3,54.3-79.1,116.3-79.1c28.6-0.5,57,4.6,83.5,15.1l5.2-5.9l28.8,8.4l6.7,31.6L249,96.9C225.5,73.7,181.6,64,145.1,64
		C91,64,64.5,84.8,64.5,106.6c0,24.2,28.9,44.5,79.6,45c36.1,0.3,65.7-4.7,110.2-30.8l19.3,29.1
		C250.5,161.9,210.5,187.6,142.4,187.6 M138.9,98.5v-27c9.1-0.4,18.2-0.1,27.2,0.9v26.1L138.9,98.5z M166.1,116.4v27.2
		c-9.1,0.9-18.2,1.1-27.2,0.6v-27.7L166.1,116.4z M119.3,73.1v69.1l-2.6-0.4c-22.3-3.3-44.9-18.9-44.9-33.9
		c0-21.3,26.4-31,43.3-34.1L119.3,73.1z"/>
	<path class="st1" d="M254.3,120.7c-44.5,26.1-74.1,31.2-110.2,30.8c-50.7-0.5-79.6-20.8-79.6-45C64.5,84.8,91,64,145.1,64
		c36.4,0,80.4,9.8,103.8,32.9L268.5,77l-6.7-31.6L233,36.9l-5.2,5.9c-26.6-10.5-55-15.6-83.5-15.1C82.3,27.8,28,63.6,28,106.9
		c0,45.2,47.3,80.7,114.4,80.7c68.1,0,108.1-25.7,131.1-37.8"/>
	<path class="st2" d="M264.7,105.7l22.5-23.7L276.4,32l-48-14.2l-4.9,4.6c-24.1-7.1-48.9-11-74-11.7C70.7,10.8,10.9,53.9,10.6,107.2
		c-0.2,55.9,53.9,97.6,139.5,97.6c59.9,0,121.2-32,147.1-50.1 M145.3,195.1c-77,0-124.7-40.6-124.6-87.4
		C20.8,59.5,77,20.5,145.8,20.5c27.4-0.1,54.6,4.5,80.4,13.5l4.7-5.1l37,10.8l8.7,39.3l-27.1,28c-16.8-16.7-38.5-27.6-61.9-31.3
		l-2.9-0.4v65.8l3.5-0.5c20.8-5.3,40.8-13.4,59.3-24.3c4.7-2.9,7.6-4.7,8.6-5.4l27.6,41.1C267.8,161.2,216.5,195.1,145.3,195.1
		 M238.6,109.9c-13.8,8-28.4,14.2-43.7,18.6V87C211,91.1,226,98.9,238.6,109.9"/>
	<path class="st2" d="M71.8,107.9c0,15,22.6,30.6,44.9,33.9l2.7,0.4V73.1l-4.2,0.7C98.2,76.9,71.8,86.7,71.8,107.9 M109.4,130.2
		c-15.3-4.6-27.6-14.3-27.6-22.2c0-11.6,14.6-19,27.6-22.8V130.2z"/>
	<path class="st2" d="M138.9,71.6v27h27.2V72.5C157.1,71.5,147.9,71.2,138.9,71.6 M146.2,79.6l12.7,0.5v10.5h-12.7V79.6z"/>
	<path class="st2" d="M138.9,144.1c9.1,0.6,18.2,0.4,27.3-0.6v-27.2h-27.3 M145.9,124.7H159v11.1l-13.1,0V124.7z"/>
</g>
</svg>
