<svg id="Layer_1" data-name="Layer 1" xmlns="http://www.w3.org/2000/svg" viewBox="0 0 594.96002 608.52002"><title>123</title><path d="M594.96,84.24C594.96,0,500.16,0,487.32,0H464.4s32.4,32.64,32.4,44.4a4.8141,4.8141,0,0,1-4.8,4.8H409.32a4.81409,4.81409,0,0,1-4.8-4.8c0-11.76,32.52-44.4,32.52-44.4-31.56,0-76.68,7.08-108,29.4a244.4706,244.4706,0,0,0-26.64-1.32c-145.8,0-263.88,118.08-263.88,263.76a262.872,262.872,0,0,0,13.2,82.32C32.16,398.04,0,446.76,0,509.04c0,53.76,26.52,99.48,26.52,99.48S73.8,539.28,179.88,539.28c8.04,0,10.2-7.08,10.56-8.52A262.48765,262.48765,0,0,0,302.4,555.72C448.08,555.72,566.16,437.52,566.16,291.84a261.71776,261.71776,0,0,0-33.6-128.88C561.72,154.08,594.96,130.8,594.96,84.24Z" fill="#fff"/><path d="M584.04,84.24c0-52.2-48-75.12-96.24-73.31995,0,0,19.92,19.2,19.92,33.48,0,7.56-5.64,15.72-21.6,15.72h-71.4c-16.08,0-25.68-5.52-25.68-14.75995,0-15.24005,23.88-32.88,23.88-32.88s-48.36,2.88-80.76,28.32A244.63109,244.63109,0,0,0,302.4,39c-139.68-.12-252.96,113.16-252.96,252.84A251.535,251.535,0,0,0,86.28,423.36a27.23713,27.23713,0,0,1-12.96,3.24c-17.76,0-17.88-39.24-17.88-39.24s-44.64,52.08-44.64,121.68c0,42.84,18.12006,79.68,18.12006,79.68s50.16-60.36,150.96-60.36c0,0-47.88-19.2-47.88-42.36a16.33853,16.33853,0,0,1,1.92-5.52A251.98863,251.98863,0,0,0,302.4,544.8c139.68,0,252.96-113.28,252.96-252.96a251.5456,251.5456,0,0,0-39.84-136.08C539.99994,151.92,584.04,135.24,584.04,84.24Z"/><path d="M509.28,22.08s9.36,8.76,9.36,22.32-10.68,26.64-32.52,26.64h-71.4c-27.84,0-36.6-14.28-36.6-25.68,0-11.52,6.48-17.64,6.48-17.64s-70.2,13.68-70.2,70.8c0,48,53.64,47.76,53.64,47.76h15.72l-43.8,115.8-66.48-84.24c-4.08-5.28-20.28-25.68-44.4-25.68-33.48,0-48.12,37.68-53.16,50.76l-70.56,186.84s26.16-9.48,60.72-9.48a259.08218,259.08218,0,0,1,53.88,5.88l32.76-86.64L294.24,375l-29.4,30.84c-19.32,20.16-59.76,9-98.76,9-72.6,0-65.64,22.68-92.76,22.68-19.2,0-24.24-23.4-24.24-23.4S21.6,459.48,21.6,509.04c0,32.16,11.4,60.48,11.4,60.48s56.52-48.24,113.64-48.24c0,0-25.44-12.24-25.44-35.28,0-6.6,8.64-27.72,36.84-27.72,43.44,0,61.56,25.8,114,25.8,73.56,0,114.36-45.48,128.76-83.4l96.24-254.4s76.2.12,76.2-62.04C573.23993,27.24,509.28,22.08,509.28,22.08Z" fill="#ce1126"/><path d="M410.88,404.52C394.32,448.2,349.2,495,272.04,495,219.6,495,199.2,470.88,162,469.32a224.74392,224.74392,0,0,0,140.4,48.84c124.92,0,226.32-101.28,226.32-226.32a225.00822,225.00822,0,0,0-31.56-115.2ZM229.08,141.36c13.44,0,33.48,5.16,52.92,29.76l54.6,69.12,31.44-83.04s-64.32-.6-64.32-58.8a71.696,71.696,0,0,1,7.44-32.76c-2.88,0-5.76-.12-8.76-.12C177.36,65.52,76.08,166.8,76.08,291.84a224.76007,224.76007,0,0,0,19.8,92.4l70.08-185.16C180.36,160.8,201.6,141.36,229.08,141.36Z" fill="#fff"/><path d="M257.04,398.28l23.88-24.96-26.28-47.88L226.8,398.88s-28.8-7.8-60.6-7.8c-24.84,0-47.28,5.52-61.92,10.32,1.92,3.24,3.72,6.48,5.76,9.72,11.4-3.96,28.32-7.08,56.16-7.08C206.16,404.04,242.4,413.52,257.04,398.28Z" fill="#fff"/></svg>