<?xml version="1.0" encoding="utf-8"?>
<!-- Generator: Adobe Illustrator 21.1.0, SVG Export Plug-In . SVG Version: 6.00 Build 0)  -->
<!DOCTYPE svg PUBLIC "-//W3C//DTD SVG 1.1//EN" "http://www.w3.org/Graphics/SVG/1.1/DTD/svg11.dtd">
<svg version="1.1" id="Layer_1" xmlns="http://www.w3.org/2000/svg" xmlns:xlink="http://www.w3.org/1999/xlink" x="0px" y="0px"
	 width="615px" height="637.2px" viewBox="0 0 615 637.2" style="enable-background:new 0 0 615 637.2;" xml:space="preserve">
<style type="text/css">
	.st0{fill:#FFFFFF;}
	.st1{fill:#CE1126;}
</style>
<title>123</title>
<path class="st0" d="M27.9,623.5C26.7,621.6,0,574.8,0,519c0-61.9,30.2-111,50.6-136.9c-8-26-12.1-53-12-80.3
	c0-73.1,28.5-141.9,80.2-193.6c51.7-51.7,120.5-80.2,193.7-80.2l1.2,0c7.6,0,15.2,0.3,22.7,1C376.8,2.1,431,0,447,0h50.3
	c29.2,0,50.1,6.1,62.5,11.3C595.9,26.3,615,55,615,94.2c0,23.8-7.7,44.1-23,60.3c-11,11.7-23.9,19.2-35.2,23.9
	c19.3,38.2,29.4,80.6,29.3,123.4c0,73.1-28.5,141.9-80.2,193.6c-51.7,51.7-120.5,80.2-193.6,80.2h-0.2c-36.8,0-73.9-7.7-107.8-22.2
	c-3.4,3.4-8.2,5.8-14.5,5.8c-41.6,0-78.6,10.9-110,32.3c-23.5,16.1-35,32.4-35.1,32.6l-9,13L27.9,623.5z M494.2,49.2
	c-4.8-7.8-15.5-20.7-26.9-32.2l-6.6-6.6l-6.6,6.6c-11.4,11.4-22.1,24.4-27,32.1H494.2z"/>
<path class="st0" d="M605,94.2C605,10,510.2,10,497.3,10h-22.9c0,0,32.4,32.6,32.4,44.4c0,2.6-2.2,4.8-4.8,4.8h-82.7
	c-2.6,0-4.8-2.2-4.8-4.8C414.5,42.6,447,10,447,10c-31.6,0-76.7,7.1-108,29.4c-8.8-0.9-17.7-1.4-26.6-1.3
	c-145.8,0-263.9,118.1-263.9,263.8c0,28,4.4,55.8,13.2,82.3C42.2,408,10,456.8,10,519c0,53.8,26.5,99.5,26.5,99.5
	s47.3-69.2,153.4-69.2c8,0,10.2-7.1,10.6-8.5c35,16.5,73.3,25,112,25c145.7,0,263.8-118.2,263.8-263.9
	c0.1-45.1-11.5-89.5-33.6-128.9C571.7,164.1,605,140.8,605,94.2z"/>
<path d="M594,94.2c0-52.2-48-75.1-96.2-73.3c0,0,19.9,19.2,19.9,33.5c0,7.6-5.6,15.7-21.6,15.7h-71.4c-16.1,0-25.7-5.5-25.7-14.8
	c0-15.2,23.9-32.9,23.9-32.9s-48.4,2.9-80.8,28.3c-9.9-1.2-19.8-1.8-29.8-1.8c-139.7-0.1-253,113.2-253,252.8
	c-0.1,46.4,12.7,91.9,36.8,131.5c-4,2.1-8.4,3.3-13,3.2c-17.8,0-17.9-39.2-17.9-39.2S20.8,449.4,20.8,519
	c0,42.8,18.1,79.7,18.1,79.7s50.2-60.4,151-60.4c0,0-47.9-19.2-47.9-42.4c0.3-1.9,1-3.8,1.9-5.5c46.3,41.5,106.3,64.4,168.5,64.3
	c139.7,0,253-113.3,253-253c0-48.2-13.8-95.5-39.8-136.1C550,161.9,594,145.2,594,94.2z"/>
<path class="st1" d="M519.3,32.1c0,0,9.4,8.8,9.4,22.3S518,81,496.1,81h-71.4c-27.8,0-36.6-14.3-36.6-25.7c0-11.5,6.5-17.6,6.5-17.6
	s-70.2,13.7-70.2,70.8c0,48,53.6,47.8,53.6,47.8h15.7L350,272.1l-66.5-84.2c-4.1-5.3-20.3-25.7-44.4-25.7
	c-33.5,0-48.1,37.7-53.2,50.8l-70.6,186.8c0,0,26.2-9.5,60.7-9.5c18.1,0.1,36.2,2,53.9,5.9l32.8-86.6l41.5,75.5l-29.4,30.8
	c-19.3,20.2-59.8,9-98.8,9c-72.6,0-65.6,22.7-92.8,22.7c-19.2,0-24.2-23.4-24.2-23.4S31.6,469.5,31.6,519
	c0,32.2,11.4,60.5,11.4,60.5s56.5-48.2,113.6-48.2c0,0-25.4-12.2-25.4-35.3c0-6.6,8.6-27.7,36.8-27.7c43.4,0,61.6,25.8,114,25.8
	c73.6,0,114.4-45.5,128.8-83.4L507,156.3c0,0,76.2,0.1,76.2-62C583.2,37.2,519.3,32.1,519.3,32.1z"/>
<path class="st0" d="M420.9,414.5C404.3,458.2,359.2,505,282,505c-52.4,0-72.8-24.1-110-25.7c39.9,31.7,89.4,49,140.4,48.8
	c124.9,0,226.3-101.3,226.3-226.3c0.1-40.5-10.9-80.3-31.6-115.2L420.9,414.5z M239.1,151.4c13.4,0,33.5,5.2,52.9,29.8l54.6,69.1
	l31.4-83c0,0-64.3-0.6-64.3-58.8c-0.1-11.4,2.4-22.6,7.4-32.8c-2.9,0-5.8-0.1-8.8-0.1c-125,0-226.3,101.3-226.3,226.3
	c0,31.9,6.7,63.4,19.8,92.4L176,209.1C190.4,170.8,211.6,151.4,239.1,151.4z"/>
<path class="st0" d="M267,408.3l23.9-25l-26.3-47.9l-27.8,73.4c0,0-28.8-7.8-60.6-7.8c-24.8,0-47.3,5.5-61.9,10.3
	c1.9,3.2,3.7,6.5,5.8,9.7c11.4-4,28.3-7.1,56.2-7.1C216.2,414,252.4,423.5,267,408.3z"/>
</svg>
