<?xml version="1.0" encoding="utf-8"?>
<!-- Generator: Adobe Illustrator 21.1.0, SVG Export Plug-In . SVG Version: 6.00 Build 0)  -->
<!DOCTYPE svg PUBLIC "-//W3C//DTD SVG 1.1//EN" "http://www.w3.org/Graphics/SVG/1.1/DTD/svg11.dtd">
<svg version="1.1"
	 id="Layer_1" inkscape:version="0.48.2 r9819" sodipodi:docname="AJAX.svg" xmlns:cc="http://creativecommons.org/ns#" xmlns:dc="http://purl.org/dc/elements/1.1/" xmlns:inkscape="http://www.inkscape.org/namespaces/inkscape" xmlns:rdf="http://www.w3.org/1999/02/22-rdf-syntax-ns#" xmlns:sodipodi="http://sodipodi.sourceforge.net/DTD/sodipodi-0.dtd" xmlns:svg="http://www.w3.org/2000/svg"
	 xmlns="http://www.w3.org/2000/svg" xmlns:xlink="http://www.w3.org/1999/xlink" x="0px" y="0px" width="455.9px" height="271.4px"
	 viewBox="0 0 455.9 271.4" style="enable-background:new 0 0 455.9 271.4;" xml:space="preserve">
<style type="text/css">
	.st0{fill:#FFFFFF;}
	.st1{fill:#FDBB30;}
	.st2{fill:#002D62;}
</style>
<sodipodi:namedview  bordercolor="#666666" borderopacity="1" fit-margin-bottom="0" fit-margin-left="0" fit-margin-right="0" fit-margin-top="0" gridtolerance="10" guidetolerance="10" id="namedview304" inkscape:current-layer="Layer_1" inkscape:cx="268.60382" inkscape:cy="21.846749" inkscape:pageopacity="0" inkscape:pageshadow="2" inkscape:window-height="1004" inkscape:window-maximized="1" inkscape:window-width="1280" inkscape:window-x="-8" inkscape:window-y="-8" inkscape:zoom="2.0798019" objecttolerance="10" pagecolor="#ffffff" showgrid="false">
	</sodipodi:namedview>
<g id="g236" transform="translate(-0.00110587,-0.00100621)">
	<path id="path244" inkscape:connector-curvature="0" class="st0" d="M147.7,72.8c0,0-16.9,6.9-28.6,24.4c5.3-1.4,11.1-2.9,17.5-4.4
		C141.8,80.8,147.7,72.8,147.7,72.8"/>
	<path id="path246" inkscape:connector-curvature="0" class="st0" d="M388.2,109.4c10.6,2.9,18.8,6.6,18.8,6.6s14.3,9.1,20.7-2.6
		l-21.9-10.3C399.7,106.8,393.7,108.6,388.2,109.4"/>
	<path id="path248" inkscape:connector-curvature="0" class="st0" d="M91.9,72.3l77.6-17.4c0,0,3.1,10,16.3,18l-0.2,2.5
		c-6.1,1.2-15.8,5.2-25,12.4c13.9-2.6,29.2-4.9,45.8-6.5l3.9-9.2C186,75.7,175,55,175,55l-1.9-6.3L31.9,80.2
		c15.2,1.1,32,5.9,47.4,13.7C82.9,81.8,91.9,72.3,91.9,72.3"/>
	<path id="path250" inkscape:connector-curvature="0" class="st0" d="M328.5,111c-6.5,3.2-12.1,7.7-18.5,13.1l7.3-13.8
		c0,0-19.3-0.8-37.9-0.4l-12.1,13.3c-4.5-1.4-9.3-2.1-14.2-2.2c-0.3-6.7,2.4-14.4,8.3-21.7c-7.8,5.9-12.6,13.5-13.6,21.9
		c-3.4,0.3-6.8,0.9-10.1,1.8c-1.7-5.6-1.5-12.5,1.1-20c-4.6,7-6.4,14.3-5.5,21.4c-3.2,1.2-6.3,2.8-9.3,4.6c-2.9-4.3-4.6-10.1-4.7-17
		c-1.6,7.1-1.2,13.7,1.3,19.3c-10.3,7.7-15,17-15,17c-32.8-5.9-52.7,21.6-53.4,40.8c-2.1-13.4,2.2-37,28.6-48.3l8.8-20.5
		c0.6-1.3,1.3-2.5,2.1-3.5c-29.5,5.5-47.8,17.2-47.8,17.2s-7.9,14.2-4.5,28.8c0,0-5.2-7.1-8.2-19.1c-1.3,1.3-2.5,2.4-3.3,3.4
		c1.1,4.3,1.7,8.6,1.7,13.2c0,21.5-9,35-9,35l30.1,6.1c0,0,11.4,16.6,35.8,16.6c7.7,0,17.9-0.9,17.9-5.8c0-3.7-9.1-8.8-9.1-19.6
		c0-17.5,22-35.7,45.6-43.4c27.6-9.1,69.7-19.7,90.9-19.7c60.1,0,58.1,39.7,58.1,39.7l2.9-0.1c13.4-7.5,25.2-8.9,28.7-9.2
		C427.2,138.2,416.2,118.7,328.5,111"/>
	<path id="path252" inkscape:connector-curvature="0" class="st0" d="M255,69c-12.7,0.5-22.7,5.1-30.3,10.9
		c10-0.6,20.3-0.9,30.8-0.9c5.2-6.8,8.3-14.3,8.3-22.1c0-13.5-6.9-21.4-6.9-21.4l33.4-7.4l10.4,5.1c0,0-24.6,9.4-24.6,36.1
		c0,3.8,0.6,7.2,1.4,10.3c17.7,0.9,35.9,2.8,54.5,6.2c0,0,6,14.6,22.5,14.6c8,0,14.1-4.4,14.1-4.4c17.9,13.5,34.3,6.1,34.3,6.1
		l-6.1-5.1l-5.9,3.1l3.6-5.5l-2.2-2.6l-7.9,4.1l5-7.5l-1.7-2l-6.7,2.9l3.8-6.5l-2.7-4.1c-2.5,11-12.4,12.3-20.8,11.7l-0.4-4.9
		c-1.8,1.1-4,1.8-6.3,1.8c-6.6,0-11.9-5.3-11.9-11.9c0-3.8-18.6-20.4-18.6-20.4l24.1,7.4c20.2,6.2,19.3,16.2,19.5,21.7
		c3.4,1.5,11.1,2.6,14.5-5.4l-2.5-13.3l-16-7.8l-11-10.3l-61.7-24.9l-60.7,13.5c14.3,3.4,26.1,10.9,26.1,10.9S260.9,57.3,255,69
		 M375.8,71l-3,11.6c0-8.8-5.2-13.8-20.6-22.9L375.8,71z"/>
	<path id="path254" inkscape:connector-curvature="0" class="st0" d="M87.4,98.5c3,1.8,5.8,3.7,8.6,5.7c2.5-0.8,5.5-1.8,8.9-2.8
		c5.2-20,15.9-33.2,15.9-33.2C98.7,76.4,89.3,94.5,87.4,98.5"/>
	<path id="path256" inkscape:connector-curvature="0" class="st0" d="M179.4,52.9c0,0,8.9,15.1,24.7,15.1l16.4-1.1l13.5-14.1
		l18.4-2.8c-6.8-4.1-14.5-7.1-22.4-9.2l-15.4,21.5l9.8-22.9c-2.9-0.6-5.7-1.1-8.5-1.6l-13.3,18.5l8.2-19.2c-3.5-0.4-6.8-0.7-10-0.9
		l-10.1,14.1l6.1-14.4c-14.3-0.6-24.8,0.6-24.8,0.6l3.5,3L179.4,52.9L179.4,52.9z"/>
	<path id="path258" inkscape:connector-curvature="0" class="st0" d="M200.1,194.5c1.9,8.8,7.8,11.2,8.4,14.5
		c0,0,15.2-3.1,25.3-18.2C214.1,200.8,200.1,194.5,200.1,194.5"/>
</g>
<g id="g260" transform="translate(-0.00110587,-0.00100621)">
	<path class="st0" d="M198,260.6l32.2-16.5c57-29.1,79.5-61.2,94.4-82.5c10.7-15.2,18.4-26.2,32.5-26.2c9,0,26.9,9.9,26.9,22.8
		c0,14.2-17.3,35.7-44.1,54.7c-17.9,12.7-55.5,35.2-106.2,42.5L198,260.6z M357.2,147.5c-7.5,0-12.7,6.9-22.7,21.1
		c-12.2,17.4-29.4,41.8-64.9,66.3c29.3-9.5,51.2-23,63.5-31.7c25.6-18.2,39-36.4,39-44.9c0-1.4-1.7-4.1-5.4-6.7
		C362.7,148.7,358.7,147.5,357.2,147.5z"/>
	<path id="path268" inkscape:connector-curvature="0" class="st0" d="M378.1,158.3c0-8.6-14.2-16.8-20.9-16.8
		c-27.5,0-27.2,58.5-124.2,108.1C315.6,237.6,378.1,181.3,378.1,158.3"/>
	<path class="st1" d="M204.9,271.4c-6.8,0-12.6-4.7-14-11.5c-1.4-6.7,2-13.3,8.3-16l1.3-0.6c0.1-1.2,0.4-2.3,0.8-3.4
		c-5.2,1-10.3,1.3-14.4,1.3c-19.8,0-34.1-8.3-40.7-13.2l-50.6-9.1c-4.9-0.9-8.9-4.1-10.7-8.6c-1.9-4.6-1.3-9.9,1.5-13.9
		c0.1-0.2,12.8-18.6,12.8-36.4c0-48.5-85.7-60.5-86.6-60.7c-5.1-0.7-9.4-3.9-11.4-8.7c-2-4.7-1.3-10.2,1.8-14.3l13.7-18
		c2.1-2.8,5.2-4.7,8.7-5.4l121.4-24.3c0-0.1,0.1-0.3,0.1-0.4c1.6-5.1,5.9-8.7,11.4-9.6c0.1,0,0.1,0,0.2,0c2.3-0.3,14.3-1.9,30.3-1.9
		c5.3,0,10.4,0.2,15.4,0.5l85.1-17c0.9-0.2,1.9-0.3,2.8-0.3c2,0,3.9,0.4,5.7,1.2L361,28.7c1.7,0.7,3.2,1.8,4.5,3.1l9.3,9.3l15.1,8.6
		c3.5,2,6.1,5.4,6.9,9.4l2.9,13.2l8.3,10.4l5.5,4.2l22.2,10.7c3.2,1.5,5.7,4.2,7.1,7.5l11.9,29.2c2.2,5.5,1,11.4-3.2,15.6
		c0,0,0,0,0,0c-0.3,0.3-7.6,7.9-14.4,21.7c-2.4,4.9-7.5,8-13,8l0,0c-0.2,0-0.4,0-0.5,0c-0.4,0-8.8,0.1-21.5,7.2
		c-2.2,1.2-4.6,1.8-7,1.8h-11.7c-41.1,48.9-99.2,76-177.4,82.6C205.7,271.4,205.3,271.4,204.9,271.4z M253,233.2
		c0.3,0.5,0.6,1,0.8,1.6c0.7,1.8,0.7,3.7,0.3,5.4c17.3-4.2,33.1-9.7,47.6-16.7c27.6-13.3,50.2-31.7,69.1-56.1
		c1.8-2.3,4.4-3.5,7.1-3.5c1.5,0,2.9,0.4,4.3,1.1l0.7,0.4h10c11.1-5.8,20.1-7.9,25.7-8.7c4.6-8.6,9.2-14.8,12.4-18.7l-8.5-20.8
		l-20.4-9.9c-0.6-0.3-1.1-0.6-1.6-1l-8-6.2c-0.6-0.4-1.1-0.9-1.5-1.5l-11.5-14.3c-0.9-1.1-1.5-2.3-1.8-3.7l-2.8-12.6l-13.3-7.6
		c-0.7-0.4-1.4-0.9-1.9-1.5l-9.5-9.5l-59.2-25.7l-84.2,16.8c-0.6,0.1-1.2,0.2-1.8,0.2c-0.2,0-0.5,0-0.7,0
		c-4.9-0.4-10.1-0.6-15.4-0.6c-4.4,0-8.5,0.1-12.1,0.3c0,0.3-0.1,0.7-0.2,1c-0.9,3.3-3.6,5.9-6.9,6.5L33.1,75.3l-2.8,3.7
		c9.9,2.2,23.5,6,37.2,12.1c35.9,15.9,54.9,39.8,54.9,69c0,14.7-5.5,28.7-10.2,38.1l41.5,7.5c1.7,0.3,3.2,1.1,4.5,2.2
		c0.1,0.1,11.4,9.9,28.6,9.9c8.6,0,17.2-1.7,17.2-5.3c0-3.9,2.5-7.4,6.2-8.6c4.7-1.5,9.7-4.7,13.4-7.8c-0.7-0.4-1.4-0.9-2-1.5
		c-0.6-0.6-1-1.2-1.4-1.9c-3.6,1.5-8.6,3.2-15.3,3.9c-0.3,0-0.6,0-0.8,0c-2.8,0-5.4-1.3-7.2-3.5c-1.9-2.5-2.4-5.7-1.3-8.6
		c0.4-1.1,10.1-26.1,44-37.3c30.7-10.2,72.8-18,74.6-18.3c0.5-0.1,1.1-0.1,1.6-0.1c2.5,0,4.9,1,6.6,2.9c2.1,2.2,2.9,5.4,2.1,8.4
		C313.4,183.9,279.6,214.9,253,233.2z M225.3,223c1.3-0.8,2.6-1.6,4-2.4c-1.3,0.8-2.7,1.5-3.9,2.2
		C225.3,222.8,225.3,222.9,225.3,223z M239.1,172.5c7.9,2.3,13.7,9.5,13.7,18c0,11-10.2,21.3-20.4,28.1
		c19.1-12.3,45.3-32.9,60.4-61.4c-14.1,3.2-31.4,7.4-45.7,12.2C244.3,170.2,241.6,171.3,239.1,172.5z"/>
	<path id="path270" inkscape:connector-curvature="0" class="st1" d="M434.6,108.6c-0.5-1.2-1.4-2.2-2.6-2.8l-23-11.1l-7.1-5.5
		l-10.3-12.8L388,61.1c-0.3-1.5-1.3-2.8-2.6-3.5l-16.2-9.2l-10.2-10.2c-0.5-0.5-1-0.9-1.7-1.1L294.1,9.4c-1-0.4-2.1-0.6-3.2-0.3
		l-86.3,17.2c-23.5-1.8-44.1,1.1-45,1.2c-5.3,0.9-5.3,6.6-3.5,8.4L27,61.8c-1.3,0.3-2.4,1-3.2,2l-13.7,18c-2.4,3.2-0.6,8.1,3.6,8.6
		c0.9,0.1,94.4,12.9,94.4,69.6c0,20.9-14.3,41.4-14.5,41.6c-2.1,2.9-0.8,7.7,3.4,8.4l52.8,9.5c4,3.2,17.4,12.6,37,12.6
		c23.1,0,29.7-8.8,31.2-15.9c11.5-4.9,25.9-16.5,25.9-25.8c0-5.8-5.2-9.7-10.1-9.7c-0.6,0-1.1,0.2-1.6,0.3c0,0-2.5-4.6-8.4-4.6
		c-2.5,0-5.3,1.3-7.5,2.2c5.3-6.1,14-13.3,28-18c21.6-7.2,49.7-13.2,63.8-16c-21.4,62.2-94.7,94.9-95.5,95.2
		c-4.4,1.9-3.6,7.4-1.8,8.6l-8,3.6c-5.7,2.5-3.3,10.8,2.6,10.3c77.4-6.6,134.3-33.7,173.9-82.6h15.9c0.9,0,1.8-0.2,2.6-0.7
		c15.6-8.7,26.1-8.4,26.2-8.4c2.1,0.1,4.2-1.1,5.1-3c7.7-15.7,16-24,16.1-24.1c1.1-1.2,2.3-3.3,1.2-5.9L434.6,108.6z M424.3,165.4
		c0,0-11.6-0.7-29.1,9h-14.6l-2.7-1.5c-39.5,50.9-95.7,77.5-173,84.1c0,0,26.2-11.5,40.4-19l-30.7,6.9c0,0,83.1-36,101.2-107.2
		c0,0-42.9,7.9-73.4,18c-30.2,10-38.4,31.9-38.4,31.9c10.8-1,16.3-5.6,19.6-5.6c3.9,0,5.4,4,4.4,6.3c1.8-0.8,4-2.1,5.7-2.1
		c2,0,4.7,1.7,4.7,4.3c0,6.6-14.7,18.5-25.5,22c0,4-1.6,14.3-26.2,14.3c-21.2,0-34.6-12.3-34.6-12.3L98,204.7
		c0,0,15.5-21.8,15.5-44.7c0-62.2-99.1-74.9-99.1-74.9l13.7-18l139.7-27.9l-7.3-6.3c0,0,21.1-3.1,44.6-1.1l87-17.4l63.3,27.5
		L366,52.7l16.8,9.5l3.7,16.5L398,93.1l8,6.2l23.5,11.4l11.9,29.2C441.5,139.8,432.6,148.5,424.3,165.4"/>
</g>
<g id="g272" transform="translate(-0.00110587,-0.00100621)">
	<path id="path280" inkscape:connector-curvature="0" class="st1" d="M407,116.1c0,0-8.3-3.8-18.8-6.6c-16.4,2.3-28.9-4.5-28.9-4.5
		c-13.6,0-22.9,2.2-30.8,6.2c87.7,7.7,98.7,27.1,92.9,48.7c0.7-0.1,1-0.1,1-0.1s5.9-11.1,12.8-19.1c0,0-8.9-18.7-40.3-20.3
		L407,116.1L407,116.1z"/>
	<path id="path282" inkscape:connector-curvature="0" class="st1" d="M136.6,92.8c-6.3,1.5-12.2,3-17.5,4.4
		c-3.6,5.5-6.7,12-8.7,19.6c8.4,8.9,14.6,19.1,17.4,30.2c0.8-0.9,2-2.1,3.3-3.4c-1.3-5-2.2-10.9-2.2-17.5
		C129.1,113.8,132.6,102.1,136.6,92.8"/>
	<path id="path284" inkscape:connector-curvature="0" class="st1" d="M332.1,85.7c-18.6-3.4-36.8-5.3-54.5-6.2
		c3.5,12.4,12.2,19.2,12.2,19.2l-10.3,11.3c18.5-0.4,37.9,0.4,37.9,0.4l-7.3,13.8l19.1-21L332.1,85.7z"/>
	<path id="path286" inkscape:connector-curvature="0" class="st1" d="M204.9,104.5l-9.4,2.2l10.9-25.4c-16.5,1.6-31.9,3.9-45.8,6.5
		c-13.1,10.3-25.3,27.1-25.3,52.1c0,12.5,4.2,22.8,4.2,22.8c-3.4-14.5,4.5-28.8,4.5-28.8s18.3-11.7,47.8-17.2
		c2.1-2.5,5.1-4.2,9.4-5.3c21.2-5.5,42.8-17.4,54.2-32.5c-10.6,0-20.9,0.3-30.8,0.9C210.8,90.3,204.9,104.5,204.9,104.5"/>
	<path id="path288" inkscape:connector-curvature="0" class="st1" d="M103.1,109.8c0.5-2.9,1.1-5.8,1.8-8.5c-3.4,1-6.4,2-8.9,2.8
		C98.5,106,100.9,107.9,103.1,109.8"/>
	<path id="path290" inkscape:connector-curvature="0" class="st1" d="M356.3,83.7c2.5,0,4.4-1.2,4.4-1.2c-0.2-0.9-0.4-1.7-0.6-2.5
		c-0.6,0.4-1.5,0.8-2.5,0.8c-2.7,0-4.4-2.1-4.4-4.4c0-2,1.3-3.7,3.3-4.2c-2.4-3.4-4.8-4.8-4.8-4.8s-4.2,2.3-4.2,7.5
		C347.4,80,351.7,83.7,356.3,83.7"/>
	<path id="path292" inkscape:connector-curvature="0" class="st2" d="M406,99.2l-8-6.2l-11.5-14.3l-3.7-16.5L366,52.7l-10.7-10.7
		L292,14.4l-87,17.4c-23.5-1.9-44.5,1.2-44.5,1.2l7.3,6.3L28,67.1l-13.7,18c0,0,99.1,12.8,99.1,74.9c0,22.9-15.5,44.7-15.5,44.7
		l54.2,9.8c0,0,13.5,12.3,34.6,12.3c24.6,0,26.2-10.3,26.2-14.3c10.8-3.5,25.5-15.4,25.5-22c0-2.6-2.7-4.3-4.7-4.3
		c-1.6,0-3.9,1.3-5.7,2.1c1-2.3-0.4-6.3-4.4-6.3c-3.3,0-8.8,4.6-19.6,5.6c0,0,8.2-21.9,38.4-31.9c30.5-10.1,73.4-18,73.4-18
		c-18.2,71.2-101.2,107.2-101.2,107.2l30.7-6.9c-14.2,7.5-40.4,19-40.4,19c77.3-6.6,133.5-33.2,173-84.1l2.7,1.5h14.6
		c17.4-9.7,29.1-9,29.1-9c8.3-16.9,17.2-25.6,17.2-25.6l-11.9-29.2L406,99.2z M196.7,36l-6.1,14.4l10.1-14.1c3.2,0.2,6.6,0.5,10,0.9
		l-8.2,19.2l13.3-18.5c2.8,0.4,5.7,1,8.5,1.6l-9.8,22.9L230,40.7c7.8,2.1,15.5,5.1,22.4,9.2l-18.4,2.8l-13.5,14.1L204,68
		c-15.8,0-24.7-15.1-24.7-15.1l-3.9-13.4l-3.5-3C172,36.5,182.4,35.4,196.7,36 M103.1,109.8c-2.3-2-4.6-3.8-7.1-5.6
		c-2.8-2-5.6-3.9-8.6-5.7c1.8-4,11.2-22.1,33.4-30.4c0,0-10.7,13.2-15.9,33.2C104.2,104.1,103.6,106.9,103.1,109.8 M233.8,190.9
		c-10.1,15-25.3,18.2-25.3,18.2c-0.6-3.3-6.4-5.7-8.3-14.5C200.1,194.5,214.1,200.8,233.8,190.9 M232.9,249.5
		C330,200,329.6,141.5,357.2,141.5c6.7,0,20.9,8.2,20.9,16.8C378.1,181.3,315.6,237.6,232.9,249.5 M435.2,140.6
		c-6.9,8-12.8,19.1-12.8,19.1s-0.4,0-1,0.1c-3.5,0.3-15.3,1.7-28.7,9.2l-2.9,0.1c0,0,2-39.7-58.1-39.7c-21.2,0-63.3,10.6-90.9,19.7
		c-23.6,7.8-45.6,25.9-45.6,43.4c0,10.8,9.1,15.8,9.1,19.6c0,4.9-10.1,5.8-17.9,5.8c-24.4,0-35.8-16.5-35.8-16.5l-30.1-6.1
		c0,0,9-13.5,9-35c0-4.5-0.6-8.9-1.7-13.2c-2.8-11.1-9.1-21.3-17.4-30.2c1.9-7.6,5-14.1,8.7-19.6c11.6-17.6,28.6-24.4,28.6-24.4
		s-5.9,8-11.1,20c-4,9.3-7.5,21-7.5,33.3c0,6.6,0.9,12.5,2.2,17.5c3.1,12,8.2,19,8.2,19s-4.2-10.3-4.2-22.8
		c0-25,12.2-41.9,25.3-52.1c9.2-7.2,18.8-11.2,25-12.4l0.2-2.5c-13.2-8-16.3-18-16.3-18L91.9,72.3c0,0-9.1,9.5-12.7,21.7
		c-15.3-7.8-32.1-12.7-47.4-13.7l141.3-31.6L175,55c0,0,11,20.7,35.3,17.1l-3.9,9.2l-10.9,25.4l9.4-2.2c0,0,5.9-14.2,19.8-24.7
		c7.6-5.7,17.6-10.3,30.3-10.9c5.9-11.6,1.4-22.1,1.4-22.1s-11.8-7.5-26.1-10.9l60.7-13.5l61.7,24.9l11,10.3l16,7.8l2.5,13.3
		l2.7,4.1l-3.8,6.5l6.7-2.9l1.7,2l-5,7.5l7.9-4.1l2.2,2.6l-3.7,5.5l5.9-3.1l6.1,5.1c0,0-16.4,7.5-34.3-6.1c0,0-6.1,4.4-14.1,4.4
		c-16.5,0-22.5-14.6-22.5-14.6l-3,17.4l-19.1,21c6.4-5.4,12-9.8,18.5-13.1c8-4,17.2-6.2,30.8-6.2c0,0,12.5,6.9,28.9,4.5
		c5.5-0.8,11.5-2.7,17.7-6.2l21.9,10.3c-6.4,11.6-20.7,2.6-20.7,2.6l-12.1,4.3C426.3,121.9,435.2,140.6,435.2,140.6"/>
	<path id="path294" inkscape:connector-curvature="0" class="st2" d="M367.7,84.1c-0.2-5.4,0.6-15.4-19.5-21.7L324.1,55
		c0,0,18.6,16.6,18.6,20.4c0,6.6,5.3,11.9,11.9,11.9c2.3,0,4.5-0.7,6.3-1.8l0.4,4.9c8.5,0.7,18.3-0.7,20.8-11.7
		C378.7,86.7,371.1,85.6,367.7,84.1 M356.3,83.7c-4.5,0-8.9-3.7-8.9-8.9c0-5.2,4.2-7.5,4.2-7.5s2.4,1.4,4.8,4.8
		c-1.9,0.5-3.3,2.3-3.3,4.2c0,2.3,1.7,4.4,4.4,4.4c1,0,1.9-0.4,2.5-0.8c0.2,0.8,0.4,1.6,0.6,2.5C360.6,82.5,358.8,83.7,356.3,83.7"
		/>
	<path id="path296" inkscape:connector-curvature="0" class="st2" d="M372.8,82.6l3-11.6l-23.6-11.3
		C367.6,68.8,372.8,73.8,372.8,82.6"/>
	<path id="path302" inkscape:connector-curvature="0" class="st2" d="M300.7,33.1L290.3,28l-33.4,7.4c0,0,6.9,7.9,6.9,21.4
		c0,7.8-3.1,15.3-8.3,22.1c-11.4,15.1-33.1,27-54.2,32.5c-4.4,1.1-7.4,2.9-9.4,5.3c-0.9,1-1.6,2.2-2.1,3.5l-8.8,20.5
		c-26.4,11.3-30.7,34.9-28.6,48.3c0.7-19.3,20.6-46.8,53.4-40.8c0,0,4.7-9.3,15-17c-2.5-5.7-3-12.3-1.3-19.3
		c0.1,6.9,1.9,12.7,4.7,17c2.9-1.8,6-3.4,9.3-4.6c-0.9-7.1,0.9-14.4,5.5-21.4c-2.6,7.5-2.8,14.4-1.1,20c3.2-0.9,6.6-1.5,10.1-1.8
		c1-8.4,5.7-16,13.6-21.9c-5.9,7.3-8.6,15-8.3,21.7c4.9,0.1,9.7,0.9,14.2,2.2l12.1-13.3l10.3-11.3c0,0-8.7-6.8-12.2-19.2
		c-0.9-3.1-1.4-6.5-1.4-10.3C276.1,42.5,300.7,33.1,300.7,33.1"/>
</g>
</svg>
