<svg id="Layer_1" data-name="Layer 1" xmlns="http://www.w3.org/2000/svg" viewBox="0 0 594.96002 573.96002"><title>NY Islanders</title><path d="M297.48,0C133.2,0,0,128.52,0,287.04c0,158.4,133.2,286.92,297.48,286.92S594.96,445.44,594.96,287.04C594.96,128.52,461.76,0,297.48,0Z" fill="#fff"/><path d="M297.48,21.12c-152.64,0-276.36,119.04-276.36,265.92,0,146.76,123.72,265.8,276.36,265.8,152.52,0,276.24-119.04,276.24-265.8C573.72,140.16,450,21.12,297.48,21.12Z" fill="#f47d30"/><path d="M555.96,271.32c-.36-4.44-.6-8.76-1.08-13.08H555c-7.8-65.04-41.76-122.4-91.44-162.24-5.4-4.32-10.92-8.4-16.68-12.36A267.2143,267.2143,0,0,0,131.52,95.76c-57,45.6-93.36,114.36-93.36,191.28,0,137.4,116.04,248.76,259.32,248.76,143.16,0,259.32-111.36,259.32-248.76,0-5.28-.24-10.56-.6-15.84Z" fill="#00539b"/><path d="M271.92,427.68l35.4-8.4a11.39521,11.39521,0,0,0,7.2-5.88l21.96-46.8,19.44-41.4,13.68-29.16,6.72-14.28,13.92-29.64L463.56,96.12006a208.27216,208.27216,0,0,0-16.8-12.36L400.8,177,345.72,58.2a3.94517,3.94517,0,0,0-3.6-2.28H246.36a3.99514,3.99514,0,0,0-3.96,3.96v77.76L200.28,56.28a263.19293,263.19293,0,0,0-68.76,39.48V240.48a3.91826,3.91826,0,0,0,3.96,3.96h54.36a4.02173,4.02173,0,0,0,4.08-3.96V175.8L233.88,242.52a4.13842,4.13842,0,0,0,3.48,2.04H298.2a3.91825,3.91825,0,0,0,3.96-3.96V114.96l62.76,135-7.56,15.24-44.04,89.64-7.56,15.24a10.46908,10.46908,0,0,1-8.16,5.88L178.56,392.4a3.94214,3.94214,0,0,0-3.36,4.56l7.2,47.52a4.14094,4.14094,0,0,0,4.92,3.36l11.76-2.76Z" fill="#fff"/><path d="M234.84,436.44l-2.04-13.08a1.6592,1.6592,0,0,0-1.32-1.44l-23.16-5.64a1.71718,1.71718,0,0,0-2.16,1.2l-6.96,27.48L186.96,492.6a1.64511,1.64511,0,0,0,1.2,2.04l13.56,4.44a1.54418,1.54418,0,0,0,1.44-.12,1.52661,1.52661,0,0,0,.84-1.08l3.48-13.92,18.72,6L228.84,507a1.88708,1.88708,0,0,0,1.2,1.32L244.32,513a1.723,1.723,0,0,0,1.68-.36,1.76365,1.76365,0,0,0,.6-1.68Zm83.28-91.32,22.92,11.76L343.8,351l-22.92-11.64Zm30.24-3.72-22.68-11.64-2.88,5.76,22.92,11.64Zm-9.12,19.44L316.2,349.08l-2.88,5.76,23.16,11.76Z" fill="#f47d30"/><path d="M395.88,270.72c6.48-8.52,22.92,1.68,24.96-11.4,2.52-6.96,10.32-4.32,15.12-7.68,1.44-2.52-1.2-4.32-1.68-6.6,6.24-6.84,14.76-11.64,21.48-18.72,4.92-4.68,12.36-3.6,18.6-3.72,2.88-1.8,7.08-4.32,7.68-7.68l-.84-1.08c-8.76-1.32-18.36.24-26.4,3-9.24,8.16-19.32,14.16-30.24,17.52-7.56,9.48-23.16,13.92-34.32,17.76l-13.92,29.52C383.4,279.84,392.76,274.8,395.88,270.72Zm-38.4-5.52c-16.08-2.52-35.88,8.04-49.92.6-16.08-.48-34.8.6-48.96-6.96-9.36-1.44-19.2-1.32-27.72-4.68-4.44,8.4-9.6-2.76-15-1.08a7.75152,7.75152,0,0,0-5.28,8.4c-1.68,8.64-12.36,3.6-17.76,7.32-10.08,5.64-15.72-8.76-25.32-8.64-6.48-1.8-14.28-.96-18,5.76-5.64,1.44-8.52-6-14.88-3.6-4.44-2.76,2.04-4.68.24-8.04-3.6-3.96-10.44-6.84-15.6-3.48-.96,6.84,6.48,12.72,2.52,20.04-3.84.72-3.6-4.92-6.84-6.24-3.6-1.68-3.84,2.76-5.76,4.56-7.2-.36-5.64-8.4-8.04-12.72-8.28-1.32-15,3.84-21.84,6.84-4.8,3.72-1.68,11.52-5.76,15.36-3.24-2.4-2.88-7.08-6.12-9.96-2.64-1.8-5.88-3-9.24-1.92-3.12.84-3.96,3.36-4.56,6.12a2.64845,2.64845,0,0,0,3.36,2.4c2.04.48,3.72,2.88,2.76,4.92-1.08,1.44-1.8,4.32-4.32,3.84-2.64-2.64-6.6-6.24-10.44-4.68-1.56,1.44,0,3.36,0,4.92-1.68,6,2.64,9.36,5.76,13.56,1.08,4.56,1.56,11.28-1.92,14.64-4.8.96-6,6.24-6.48,10.2,1.2,3.96,5.64,3.72,7.2,7.08.84,2.64-2.16,4.8-4.56,6.36.96,4.44,2.04,9,3.24,13.44,2.88-1.08,6.24-2.16,8.16-1.92a4.58389,4.58389,0,0,1,2.64,3.84c1.56,3.12,4.8,6.12,8.52,4.32,3.72-1.56,6.96-6.72,11.04-4.56v45.84l12.12,17.4c3,4.44,4.92,3.36,4.92-.36V350.16c6.48-.12,13.68.48,19.56-1.8,11.64.72,25.56,3.96,35.76-2.64,8.88-1.56,17.16-4.68,26.76-4.56,6.6-.48,12.36,2.4,18.48,1.92,9.6-10.8,23.16,2.04,34.44-4.8,8.88-4.56,16.32,3.36,25.8,1.92,5.88-.12,14.88-6.72,20.04,1.2a14.60214,14.60214,0,0,0,14.04-1.44c2.28-8.28,11.88-5.04,18.12-6.96,4.2-.96,12.36-5.16,17.88-4.8l1.08-2.28,22.68,11.52,2.76-5.76-22.56-11.52Z" fill="#f47d30"/><path d="M311.04,431.76l-12.72-1.56a2.08861,2.08861,0,0,0-1.8.6,2.01356,2.01356,0,0,0-.72,1.68v44.4l-23.4-48.72c-.12-.12-.36-.36-.48-.48a1.8289,1.8289,0,0,0-1.32-.72l-18.36-2.16a2.2951,2.2951,0,0,0-1.8.48,2.36917,2.36917,0,0,0-.72,1.68V511.8a2.10126,2.10126,0,0,0,1.92,2.16l12.6,1.8a2.29557,2.29557,0,0,0,1.8-.48,2.55209,2.55209,0,0,0,.84-1.8V462l27.6,54.12006a2.40752,2.40752,0,0,0,2.16,1.2l14.28-.84a2.12887,2.12887,0,0,0,2.04-2.16v-80.4A2.11108,2.11108,0,0,0,311.04,431.76Zm67.2-115.8c7.68,5.88,9-5.52,15.36-6.12,3.96-.84,7.32,2.64,9.84,5.52,9.48,3.96,20.88,1.32,28.56-5.04,8.16-3.6,18.72-2.16,27.12-5.76,5.64-3.72,11.04-8.04,18.96-6.72,23.4-8.16,56.76-19.68,81.12-28.2-.23993-4.32.6-7.08,0-11.4l-9.72,1.92c-3.36,12.24-17.52,4.08-23.4,12.84-7.68.48-15.96,1.08-20.04,8.76-2.4.72-5.88.72-6.84-2.28,1.68-6.96-9.84-9.48-4.56-16.92-.36-3.24-4.2-3.6-6.6-2.64-5.16,1.92-5.4,7.32-6.12,11.76-6.84,1.32-7.44-10.8-15-8.04-7.68,7.44-17.4,10.8-28.56,8.76-19.56-1.44-26.04,24.12-42.84,29.52-7.2,1.08-18-3.12-25.92-5.88L355.92,325.2l8.04-2.04C369.24,321.96,373.32,318.48,378.24,315.96Zm6.36,28.8c-20.16,0-36.48,5.52005-36.48,12.36v20.16c0,6.84,16.32,12.36,36.48,12.36,20.04,0,36.48-5.52,36.48-12.36V357C421.08,350.28,404.64,344.76,384.6,344.76Zm112.8-10.8-17.28,19.08c-4.44,5.04-5.4,10.32-5.4,16.32v8.16c0,5.64,1.2,10.8,8.52,12.36l9.48,2.04c3,.72,4.68,1.56006,4.68,3.72v2.16c0,3.36-.72,4.2-2.16,5.52-1.44,1.44-4.68,4.8-4.68.6v-3.6c0-2.87994-1.2-2.87994-3.12-.96l-10.8,11.16a5.75459,5.75459,0,0,0-1.92,4.8v7.2c0,12.84,6.6,15.36,13.44,6.48l16.32-21.6c6.72-8.88,6.72-17.76,6.72-22.92,0-6-5.28-8.52-9-9.24005l-8.04-1.32c-2.76-.6-3.6-2.52-3.6-5.28v-4.32c0-1.32,0-4.8,2.28-7.2l1.68-1.68c1.68-1.68005,2.88-1.68005,2.88,1.44v6.24c0,1.32.72,2.04,1.8.84l10.08-10.32c1.68005-1.8,1.8-4.44,1.8-6.36V336.84C511.2,326.04,503.76,327,497.4,333.96ZM459.96,426a27.62665,27.62665,0,0,0,10.08-21.12v-21c0-11.28-7.2-12.24-15.36-6.6l-26.76,18.36a1.87526,1.87526,0,0,0-.72,1.44v79.68a1.60778,1.60778,0,0,0,.96,1.56,1.654,1.654,0,0,0,1.8-.12l13.56-9.24a1.66471,1.66471,0,0,0,.84-1.44V436.8l2.76-1.92L462,454.44006a1.85533,1.85533,0,0,0,2.4.36l9.96-6.72a1.59125,1.59125,0,0,0,.72-1.2,1.35424,1.35424,0,0,0-.36-1.32Zm-38.64-26.16a1.92393,1.92393,0,0,0-1.8-.12l-32.04,15.72A1.6077,1.6077,0,0,0,386.52,417v80.52a1.6279,1.6279,0,0,0,.84,1.56,2.029,2.029,0,0,0,1.68.12l32.04-14.52a1.45513,1.45513,0,0,0,.96-1.55994v-11.4a1.71055,1.71055,0,0,0-.72-1.44,1.69149,1.69149,0,0,0-1.68-.12l-13.56,6a1.66365,1.66365,0,0,1-2.4-1.56006V459.36a1.91515,1.91515,0,0,1,.96-1.68005L421.08,450.36a1.60689,1.60689,0,0,0,.96-1.68005v-11.4a1.93482,1.93482,0,0,0-.72-1.56,1.68055,1.68055,0,0,0-1.68,0L406.2,442.2a1.6765,1.6765,0,0,1-1.68,0,1.74877,1.74877,0,0,1-.84-1.56V424.32a1.87266,1.87266,0,0,1,.96-1.56l16.44-8.04a2.03215,2.03215,0,0,0,1.08-1.68V401.28A1.82977,1.82977,0,0,0,421.32,399.84ZM360,423.72l-35.52,7.08a2.28157,2.28157,0,0,0-1.8,2.16V513a3.01509,3.01509,0,0,0,.72,1.68,2.25044,2.25044,0,0,0,1.92.48L360,508.92c17.16-3,17.16-13.32,17.16-15.6V430.68S377.16,420.36,360,423.72ZM183.96,476.76l-13.56-8.04V401.04a2.03563,2.03563,0,0,0-1.08-1.92L156.6,391.56a1.79781,1.79781,0,0,0-2.16,0,2.13767,2.13767,0,0,0-1.2,1.92v80.04a2.27223,2.27223,0,0,0,1.08,1.92L181.68,491.76a2.54137,2.54137,0,0,0,2.28,0,2.30584,2.30584,0,0,0,1.08-1.92V478.68A2.1623,2.1623,0,0,0,183.96,476.76Zm-41.76-95.4-24.84-22.32c-9.6-8.64-16.2-1.08-16.2,4.44v23.16a14.36806,14.36806,0,0,0,3.48,9.6l22.44,29.28a8.07192,8.07192,0,0,1,1.68,5.16v3.24c0,2.64-2.28,2.4-4.08.84l-4.8-4.2c-1.8-1.32-1.68-4.08-1.68-6.36v-3c0-1.56-1.68-4.44-3.36-5.75995l-11.16-10.32c-1.68-1.56006-2.52-.24005-2.52,4.08v13.32c0,3.6,2.28,10.56,7.56,15.24l25.56,23.16c6.24,5.52008,11.64.12006,11.64-12.72V433.56c0-7.32-3.24-14.75995-7.08-19.68L120,389.28a9.65425,9.65425,0,0,1-1.68-5.16V381.6s.6-3.72,3.6-.96l4.8,4.2a7.24779,7.24779,0,0,1,2.16,5.04v3.48a6.24774,6.24774,0,0,0,2.4,5.28l9,8.16c3.84,3.36,5.64.96,5.64-2.16v-13.8A12.76108,12.76108,0,0,0,142.2,381.36Z" fill="#f47d30"/><path d="M95.64,350.16v-17.4l-17.16-15v33.48C83.76,349.8,90.24,351.6,95.64,350.16Zm127.8,122.76L218.4,441l-7.08,27.96ZM450.6,397.2l-5.52,3.84a1.57118,1.57118,0,0,0-.72,1.44v14.16a1.87257,1.87257,0,0,0,.96,1.56,1.64418,1.64418,0,0,0,1.8-.12l3.84-2.64a10.30311,10.30311,0,0,0,3.72-7.68v-8.28C454.68,397.08,452.88,395.64,450.6,397.2Zm-98.04,44.4-12.72,2.52v53.76l13.56-2.4c6.72-1.2,6.72-8.76,6.72-8.76V447C360,447,360,440.04,352.56,441.6Z" fill="#00539b"/><path d="M421.08,357.12c0,6.72-16.32,12.24-36.48,12.24s-36.48-5.52-36.48-12.24c0-6.84,16.32-12.36,36.48-12.36S421.08,350.28,421.08,357.12Z" fill="#fff"/></svg>