<?xml version="1.0" encoding="utf-8"?>
<!-- Generator: Adobe Illustrator 21.1.0, SVG Export Plug-In . SVG Version: 6.00 Build 0)  -->
<!DOCTYPE svg PUBLIC "-//W3C//DTD SVG 1.1//EN" "http://www.w3.org/Graphics/SVG/1.1/DTD/svg11.dtd">
<svg version="1.1" id="Layer_1" xmlns="http://www.w3.org/2000/svg" xmlns:xlink="http://www.w3.org/1999/xlink" x="0px" y="0px"
	 width="140.8px" height="135.7px" viewBox="0 0 140.8 135.7" style="enable-background:new 0 0 140.8 135.7;" xml:space="preserve"
	>
<style type="text/css">
	.st0{fill:#FFFFFF;}
	.st1{fill:#0069AA;}
	.st2{fill:#D31245;}
</style>
<title>Untitled-30</title>
<path class="st0" d="M94.8,0l5.5,5.1l5-4.8h35.5l-10.6,18.8v92c0,8.6-7,15.6-15.6,15.6c0,0,0,0,0,0H85.4c-6.3,0.1-12,3.5-15,9.1
	c-3-5.5-8.8-9-15-9.1H26.2c-8.6,0-15.6-7-15.6-15.6c0,0,0,0,0,0v-92L0,0.2h35.5l5,4.8L46,0H94.8z"/>
<path class="st0" d="M129.3,18.9l10-17.7h-33.6l-5.3,5.2l-5.8-5.4H46.3l-5.8,5.4l-5.3-5.2H1.5l10,17.7v92.2
	c0,8.1,6.6,14.7,14.7,14.7c0,0,0,0,0,0h29.1c6.1,0.1,11.7,3.2,15,8.2c3.3-5.1,9-8.2,15-8.2h29.1c8.1,0,14.7-6.6,14.7-14.7V18.9z"/>
<path class="st1" d="M125.4,18.9v-1l0.5-0.9L132.6,5h-25.4L103,9.1l-2.7,2.6l-2.7-2.5l-4.7-4.4H47.8l-4.7,4.4l-2.7,2.5l-2.7-2.6
	L33.6,5H8.2l6.7,11.9l0.5,0.9v93.2c0,6,4.8,10.8,10.8,10.8c0,0,0,0,0,0h29.1c5.6,0,11.2,1.8,15,7c3.8-5.1,9.5-7,15-7h29.1
	c6,0,10.8-4.8,10.8-10.8L125.4,18.9z"/>
<rect x="18.4" y="39.4" class="st0" width="103.9" height="2.5"/>
<polygon class="st0" points="53,45.6 49.4,45.6 122.4,97.8 122.4,95.3 "/>
<polygon class="st2" points="122.4,90.1 122.4,45.6 60.2,45.6 "/>
<polygon class="st0" points="18.4,57.8 102.6,118.8 106.1,118.8 18.4,55.2 "/>
<path class="st0" d="M87.9,118.8c0,0-0.1,0-0.1,0h-0.1L87.9,118.8z"/>
<path class="st0" d="M101.9,17.4H95v18.8h3V27h1.8l3.2,9.2h3l-3.3-9.3c1.7-0.4,2.8-1.8,2.8-3.5v-2.2
	C105.5,19.1,103.9,17.5,101.9,17.4 M101.3,24.2h-3.3v-3.7h3.2c0,0,1.4,0,1.4,1.2v1.3C102.7,23.6,102.1,24.2,101.3,24.2
	C101.4,24.2,101.4,24.2,101.3,24.2"/>
<path class="st0" d="M106.2,91.1l-3.1-2.3l-0.8-0.6l-1.7-1.2l-11.1,15.2L92,104l5-6.8l1.5,1.1l-2.3,8.7l2.4,1.8l2.4-8.8
	c1.5,0.7,3.4,0.2,4.4-1.2l1.8-2.4C108.2,94.6,107.8,92.3,106.2,91.1 M101.3,96.8l-2.6-1.9l2.7-3.7l2.6,1.9c0.6,0.4,0.8,1.2,0.4,1.8
	c0,0,0,0,0,0l-1.2,1.7C102.7,97.2,101.9,97.3,101.3,96.8C101.4,96.9,101.3,96.8,101.3,96.8"/>
<path class="st0" d="M86.5,36.2h1.1c0,0,4.1-0.6,4.2-4.1V21.7c0.1-2.3-1.7-4.2-3.9-4.3h-1.4c-4,0-4.2,4-4.2,4v10.3
	C82.4,35.9,86.5,36.2,86.5,36.2 M87.3,33.2H87c-0.9,0-1.6-0.7-1.6-1.6c0,0,0,0,0,0v-9.5c0-0.9,0.7-1.6,1.6-1.6h0.4
	c0.8,0.1,1.4,0.8,1.5,1.7v9.4C88.8,32.4,88.2,33.1,87.3,33.2"/>
<polygon class="st0" points="42.2,20.5 42.2,17.4 37.7,17.4 36,17.4 34.7,17.4 34.7,36.2 36,36.2 37.7,36.2 42.2,36.2 42.2,33.2 
	37.7,33.2 37.7,28.3 42.2,28.3 42.2,25.2 37.7,25.2 37.7,20.5 "/>
<polygon class="st0" points="95.3,86.9 97.1,84.5 93.5,81.8 92.1,80.8 91.1,80 79.9,95.1 80.9,95.8 82.3,96.8 85.9,99.5 87.7,97.1 
	84.1,94.4 87,90.4 90.7,93.1 92.4,90.7 88.8,88 91.7,84.2 "/>
<polygon class="st0" points="27.6,17.4 27.6,29.2 22.5,17.4 19.5,17.4 19.5,36.2 22.5,36.2 22.5,24.4 27.6,36.2 30.6,36.2 
	30.6,17.4 "/>
<polygon class="st0" points="77.6,17.4 75,24.4 72.5,17.4 69.5,17.4 73.5,28.4 73.5,36.2 76.5,36.2 76.5,28.4 80.6,17.4 "/>
<polygon class="st0" points="121.4,36.2 115.8,23.4 119.5,17.4 116.5,17.4 112.5,23.8 112.5,17.4 109.5,17.4 109.5,36.2 112.5,36.2 
	112.5,28.6 114,26.2 118.4,36.2 "/>
<polygon class="st0" points="58.8,17.4 56.9,28.9 54.9,17.4 51.9,17.4 50,28.9 48.1,17.4 45.1,17.4 48.2,36.2 48.7,36.2 51.2,36.2 
	51.7,36.2 53.4,26.3 55.1,36.2 55.7,36.2 58.1,36.2 58.7,36.2 61.8,17.4 "/>
<polygon class="st0" points="73.4,67.4 66.5,77 69.3,64.4 66.8,62.7 55.9,77.9 58.3,79.7 65.2,70.1 62.5,82.6 64.9,84.4 75.8,69.1 
	"/>
<path class="st0" d="M84.4,75.3l-1.4-1l-0.1-0.1c-3.2-2.3-5.8,0.8-5.8,0.8l-6,8.4c-2.4,3.4,0.8,6.1,0.8,6.1l1.3,1
	c0.7,0.3,1.4,0.5,2.1,0.6l-0.1,0.8l1.3,0.9l2-2.7c0.2-0.2,0.3-0.3,0.4-0.5l2-2.7l1.4-1.9l-2.4-1.7l-2.4-1.7l-1.4,1.9l2.4,1.7
	l-1.7,2.3c-0.5,0.7-1.4,0.9-2.2,0.5L74,87.2c-0.7-0.5-0.9-1.5-0.3-2.3c0,0,0,0,0,0l5.5-7.7c0.5-0.7,1.5-0.9,2.3-0.4l0.8,0.6
	c0.6,0.6,0.7,1.5,0.2,2.2l-1.2,1.7l2.4,1.8l1.5-2.1C86.5,79.3,86.1,76.7,84.4,75.3"/>
<path class="st0" d="M60.6,58.1l-2.4-1.8L43,68.5l2.4,1.8l3.2-2.5l4.1,3l-1.3,3.8l2.4,1.8L60.6,58.1z M56.6,61.3l-2.9,7l-3-2.1
	L56.6,61.3z"/>
<path class="st0" d="M116.5,97.3c2.1,1.7,2.8,3.5,1.7,5.8c-0.4,0.8-0.9,1.5-1.5,2.2l-2.4-1.8c0,0,2.4-2.2,0.5-3.9
	c-0.7-0.7-1.7-0.9-2.6-0.6c-1.6,0.9-1.6,2.5-1.1,4.3c1,2.8,2.5,6.7,0.2,9.4c-1.3,1.3-3.4,2.1-4.9,1.4c-2-0.7-3.7-2.2-4.6-4
	c-1-2.8,2.1-5.9,2.1-5.9l2,1.4c0,0-2.2,2.6-1.3,3.8c0.3,0.9,2.6,2.5,4.1,1.8c3.5-2.7-3.6-8.6-0.1-13c0.8-1,2-1.8,3.2-2.1
	C113.8,95.7,115.1,96.5,116.5,97.3"/>
<path class="st0" d="M70.4,124.6c-5.3-6.4-14.9-5.9-17.3-5.8H27.8c-10.5,0-9.4-9.8-9.4-9.8V63l77,55.8h-9.9
	C83.1,118.8,76.1,118.4,70.4,124.6"/>
<path class="st0" d="M49.2,50l-3.1-2.3l-0.8-0.6l-1.7-1.2L32.6,61.1l2.4,1.8l5-6.8l1.5,1.1l-2.3,8.7l2.4,1.8l2.4-8.8
	c1.5,0.7,3.4,0.2,4.4-1.2l1.8-2.5C51.2,53.5,50.8,51.2,49.2,50 M44.3,55.7l-2.6-1.9l2.7-3.7L47,52c0.6,0.4,0.8,1.2,0.4,1.8
	c0,0,0,0,0,0l-1.2,1.7C45.7,56.1,45,56.2,44.3,55.7C44.4,55.7,44.4,55.7,44.3,55.7"/>
<path class="st1" d="M81.7,79.8c-0.3,0.4-1.1,0.3-1.8-0.2c-0.7-0.5-1-1.2-0.7-1.6l0.8-1.1c0.3-0.4,1.1-0.3,1.8,0.2
	c0.7,0.5,1,1.2,0.7,1.6L81.7,79.8z"/>
<path class="st1" d="M76,87.8c-0.3,0.4-1.1,0.3-1.8-0.2c-0.7-0.5-1-1.2-0.7-1.6l0.8-1.1c0.3-0.4,1.1-0.3,1.8,0.2
	c0.7,0.5,1,1.2,0.7,1.6L76,87.8z"/>
<path class="st0" d="M74.6,90.7c-0.2,0.3-1.2,0-2.2-0.8c-1-0.7-1.6-1.6-1.4-1.9l0.7-0.9c0.2-0.3,1.2,0,2.2,0.8
	c1,0.7,1.6,1.6,1.4,1.9L74.6,90.7z"/>
<path class="st0" d="M84.6,77.7c-0.2,0.3-1.3-0.1-2.5-1c-1.1-0.9-1.9-1.8-1.7-2.1l0.7-0.9c0.2-0.3,1.4,0.1,2.5,1
	c1.1,0.9,1.9,1.8,1.7,2.1L84.6,77.7z"/>
</svg>
