<?xml version="1.0" encoding="utf-8"?>
<!-- Generator: Adobe Illustrator 21.1.0, SVG Export Plug-In . SVG Version: 6.00 Build 0)  -->
<!DOCTYPE svg PUBLIC "-//W3C//DTD SVG 1.1//EN" "http://www.w3.org/Graphics/SVG/1.1/DTD/svg11.dtd">
<svg version="1.1" id="Layer_1" xmlns="http://www.w3.org/2000/svg" xmlns:xlink="http://www.w3.org/1999/xlink" x="0px" y="0px"
	 width="615px" height="732.7px" viewBox="0 0 615 732.7" style="enable-background:new 0 0 615 732.7;" xml:space="preserve">
<style type="text/css">
	.st0{fill:#FFFFFF;}
	.st1{clip-path:url(#SVGID_2_);}
	.st2{fill:#CE1126;}
	.st3{fill:#BF910C;}
</style>
<title>Ottawa Senators</title>
<g>
	<path class="st0" d="M369.4,732.7c-63.8,0-108.8-25.2-110.7-26.3l-1.8-1l-1.2-1.7c-15.3-20.5-60.9-36.8-105-52.6
		C89,629,25.2,606.1,5.8,563.9c-7.6-16.5-7.7-34.8-0.3-54.2l1.7-4.5l4.6-1.5c7.5-2.4,19.6-7.6,24.3-12c7.5-26.5,30.4-30.9,49-34.4
		c10-1.9,19.5-3.7,26.9-8.3l-2.3-66.9l7.9-11.1c-11-27.5-3.9-53.9-0.9-62.7c-0.9-5.4-0.9-10.8-0.6-15.6l-8.8,3.3l-1.9-12.2
		c-0.4-2.4-9.2-60.1-2.3-123.8c4.1-37.9,13-70,26.4-95.3c17.3-32.7,42.1-54.3,73.8-64.3l1.5-0.5H430l-37.3,18.9
		c-52.5,26.6-53.6,53-54.6,76.2c-0.1,3.5-0.3,6.9-0.6,10.3h4.3v60.3c1.2,0.3,2.4,0.7,3.6,1l30.2-13.9l75.2,102.7
		c98.6,34.3,164.5,127,164.2,231.7C615,622.5,504.8,732.7,369.4,732.7z"/>
	<path class="st0" d="M444.6,263.9l-72.2-98.6L346,177.4c-6.6-2.1-13.3-3.8-20.2-5.2l5.9-6v-50.9h-6.6c9.2-23.3-13.9-66.4,63-105.4
		h-182c-127.3,40-91,272.3-91,272.3l13.7-5.2c0,0-5.3,16.4-1.9,32c0,0-13.2,31.8,2,63l-9.2,13l2.4,68.8c-24,20.9-68.2,5-76.9,42.6
		c-7.1,9.5-30.4,16.8-30.4,16.8C-27.3,623.6,218,636.5,263.7,697.7c0,0,43.8,25,105.7,25c129.8,0,235.6-105.6,235.6-235.6
		C605.2,385.9,540.6,295.9,444.6,263.9z"/>
</g>
<g>
	<defs>
		<rect id="SVGID_1_" x="10" y="19.7" width="585.5" height="693.5"/>
	</defs>
	<clipPath id="SVGID_2_">
		<use xlink:href="#SVGID_1_"  style="overflow:visible;"/>
	</clipPath>
	<g class="st1">
		<path d="M438.4,272l-69.2-94.6l-22.4,10.4c0,0-15-5.8-40.9-9.2l16.3-16.3v-37.2h-11.5c20-32.5-11.5-66.1,46.2-105.4H207.7
			C95.1,57.6,123.2,269,123.2,269l21.5-8.2c0,0-13.4,28.2-7.7,49.4c0,0-14.9,32.2,3.1,62.9L129.6,388l2.3,68.9
			c-15,26.2-71.9,11.9-77.2,41.3C52.5,510.6,22.5,521,22.5,521C-9,614.8,230.8,632.4,270.3,690.3c30.9,15,64.8,22.8,99.1,22.8
			c124.8,0,226-101.2,226-226C595.4,386.4,529.5,301.1,438.4,272z"/>
	</g>
</g>
<path class="st2" d="M452.2,490.7c0,0,21.5,18.5,21.5,24.8s-44.9,32.9-44.9,32.9c15-20.8,27.2-30.8,27.2-39.8
	c0-8.9-16-11.4-20.3-28.3c-16.2,26.2-17,43-17,43l8,54.8l-21.8-2.6c-45.6,45.5-40.4,95.5-40.4,95.5C393.1,588,490,586.8,490,508.5
	C482.8,502.7,452.2,490.7,452.2,490.7z M193.4,600.2c32.4,7.2,75.7,34.7,75.7,34.7c-3.1-11.5-12.4-22.4-12.4-22.4
	c-54.5-17.3-87.1-51.1-87.1-51.1l-83-45.6c0,0,49.6,0.2,45.1-36.4c-21.5,15.7-62.6,9.6-62.6,26.5c0,18.7,32.6,37.7,97,78.5
	l-99.5-45.6l6-6.5l-6.8-13.3c-0.7,5-26,5.2-26,22.2c0,60,212.4,82.3,251.3,139.1C295.6,650.7,237.6,622.6,193.4,600.2L193.4,600.2z
	 M218,115.1l-11.2-71.6c-79.1,33.7-68.5,195.8-68.5,195.8l80.4-116.8H293c12.8-25.4-2.9-65.9,25.6-83.3h-97.9L218,115.1z"/>
<path class="st0" d="M363.8,493.5l13.6-6.6L362.5,429l6-17.9l40.9-15.7l11.8,5.2l-1.6-18.6c0,0-11.6-11.3-25.3-11.3
	c-13.2,0-18.5,9.5-36.6,31.4c0,0-10.4-27.4-52.9-27.4c-35.9,0-79,16.7-79,16.7c-7.7,10.4-6.6,32.4,45.2,28.6l-7.4,34.1l28.8,4.1
	c0,0-36.6,80.6-16.6,100.1c19.1,18.4,38.6,38,45.5,38c26.6,0,43.6-7,46.8-10.3c1.6-1.4,2.5-4.8,2.5-9c0-14.9-14.8-16.6-26.5-16.6
	c-25.2,0-34.2,8.8-34.2,8.8l4.8-16.2c3.1-12,54-5.6,54-5.6l-1.2-15.8l-10.1,1.6l-21.4-3.4l-50.4,1.4l-2.4-1.9l60-10.6l13.1,2.6
	l11.3-2.8l-6.1-5.5l-6.6,2.5l-1.2-13.2l-35.9-6.1l28.3-9.7L363.8,493.5z"/>
<path class="st0" d="M304.5,627.2l32,21.8l8.4-29l-28-4.1L304.5,627.2z M415.3,416.8l-11.4,2.2c-4.7,18.8-18,11-20.2,6.5l-5.4,19.7
	l9,29.4l7.6,16.1l-13,10.9l10.1,11.3l3.5,8.2l14.5-48l11.8-19.2c2-3.2-9.6-26.3-9.6-26.3L415.3,416.8z"/>
<path class="st3" d="M287.1,179.9l10.9-11.5h-56.4l-47.2,38l41.8-49h68.4v-19.9h-74.4l-66.6,90.2l3.1,15.5
	C166.8,243.3,203.5,179.9,287.1,179.9z M426.3,367.4l-64.9-37.2l-130,44.3c0,0,48.1-12.5,83.6-12.5c38.5,0,45.2,20.8,45.2,20.8
	s11.9-21.5,29.9-21.5c13.3,0.1,26.1,4.6,36.7,12.6L426.3,367.4z"/>
<path class="st3" d="M460.2,302.1v73.2c61.8,50.2,71.2,141,21,202.8c-16.6,20.4-38.4,35.9-63.2,44.8c-23.5,38.4-17,61-14,67.6
	c97.2-16.4,171.6-101.3,171.6-203.3C575.6,406,528.4,335.7,460.2,302.1z M404.2,538.2l-8.3,22.1l12.8,2.2L404.2,538.2z M243.4,519.6
	c0-43.8,10.7-89.2,10.7-89.2s-65,4.6-53.5-50.4c0,0-14.2,11.6-27,6.6c0,0,24.5-6.5,24.5-33.1l6.4,19.3l168.8-67.4l66.5,57.8l-1.4-26
	c-7.4,2.8-23.5-8.3-23.5-8.3l2.5-2c0,0,10.8,5.5,20.4,1.6l-1.4-25.6l-73.2-101.8l-16.6,6.2c0,0-35.8-15.1-70.6-15.1
	c-53,0-119,52.4-119,110.4l35.5,2.6l97-72L192,328.7c0,0-8.6-16.9-21-16.9c-8.6,0-21.7,10.2-21.7,35.3c0,19.7,9.6,29.3,9.6,29.3
	l-11.4,15.4c8.4,123.2-5.5,135.8-30.8,128.9l49.4,23.9c0-86.3-3.2-112.6,5.3-112.6c13.8,0,12.4,85.8,16.1,126.1
	c0,0,35.6,41.4,106.7,48.2C294.1,606.2,243.4,574.1,243.4,519.6L243.4,519.6z"/>
<path d="M290,323.1l-5-3.1c-34.1,6.5-28.3-5.2-36.6-5.2c3.2-3.2,0.2-9.6,9-18.2l-0.8-1.1c-21.1,12.6-8.9,20.3-23.4,27.8l0.6,1.3
	C251.1,318.8,244.8,339.9,290,323.1z"/>
<path d="M183.1,329c10.1,25.1-7.9,42.6-15.2,42.6s-11.8-9.1-11.8-9.1s5.5,17.9,16.6,17.9S204.7,353.9,183.1,329z M245.7,338.6
	c-1.9-1.8-4.2-3.2-6.6-4.2c-19.3,1.9-16.4-5.6-23.2-5.4c6-4.6-0.4-8.3,4.3-13l-0.8-1c-17.3,9.7-6.8,16-16.9,20.2l0.5,1.2
	C212.7,333.5,211.6,349.4,245.7,338.6z M312.6,301.2l-2.8-1.1c-24.6,11.5-24.6,0.4-29.5,1.8c2.5-4.2-4.8-9.4,11.9-25.3l-0.2-1.6
	c-28.9,19.2-15.1,26.6-24.2,35.8l1,1.2C278.5,305.7,279.2,323.6,312.6,301.2z"/>
<path d="M400.6,307.6l-2,1.1c20.5,22.1,20.6,6.7,27.8,13l1-1.6c-5.9-9,2.4-17.2-16.4-36.6v1.9c10.4,13.8,5.6,21.1,8.8,26.9
	C414.8,309.9,413.8,319.1,400.6,307.6z M378.7,283.7c-35.2,9.7-38-41.9-28.2-52.6C311.7,256,359.4,314.8,378.7,283.7z M228.9,214.1
	c-65.5,32.5-63.1,78-63.1,78l21.4,1l40.4-26.4C198.8,274.6,152.6,271,228.9,214.1L228.9,214.1z M333.6,279.4l-1.8-0.6
	c-19.2,10.2-20.4,2.4-23.3,3.2c2-4.2-6.6-5.3,5.8-21.1l-0.5-2.9c-27,23.9-7.7,24.6-19.3,34.3l1.3,0.5
	C306.1,284.4,304.2,301.8,333.6,279.4L333.6,279.4z"/>
<path d="M544.4,504.4c-2.4,12.5-12.6,0.8-18.2,30c4.4,0.8,8.3-9,14-7.9c5.6,1.2,5.6,11.8,10,12.6C555.8,509.9,542,516.9,544.4,504.4
	z M407.2,301.2l0.8-1.1c-5.9-10.2,5.8-12.4-10.3-35.4l-0.6,3c7.2,15.1,1,18.4,2.6,21.8c-2.6-0.7-5.2,4.7-14.2-5.9l-1.4,0.5
	C398.4,307.1,401.5,293,407.2,301.2L407.2,301.2z"/>
<path d="M555.2,487.1c0,5.9-4.8,10.7-10.7,10.7c-5.9,0-10.7-4.8-10.7-10.7c0-5.9,4.8-10.7,10.7-10.7
	C550.4,476.5,555.2,481.2,555.2,487.1z"/>
<path d="M528.7,561.8c-6.5,10.9-12.2-3.5-27.2,22.2c3.8,2.3,10.7-5.6,15.8-2.8c5,3,1.3,13,5.2,15.2
	C537.6,570.8,522.2,572.7,528.7,561.8z M460.3,623.3c2.9,3.4,12.1-1.7,15.8,2.8c3.7,4.6-3.1,12.6-0.2,16.1
	c22.9-19,7.8-22.3,17.6-30.5C483.7,619.8,483.3,604.4,460.3,623.3L460.3,623.3z"/>
<path d="M500.5,389.1c15.4,25.6,21,11.2,27.5,22.1c-6.6-10.9,8.8-9.1-6.5-34.7c-3.8,2.3-0.2,12.2-5.2,15.2
	C511.4,394.7,504.3,386.8,500.5,389.1z M525.3,437.1c6.1,29.2,16.1,17.4,18.8,29.9c-2.8-12.5,11.3-5.8,5-34.9
	c-4.4,1-4.1,11.6-9.8,12.7C533.7,446.1,529.6,436.2,525.3,437.1L525.3,437.1z M482.5,605.4c3.5,2.9,11.8-3.7,16.1,0
	c4.4,3.8-0.8,13,2.6,16c19.3-22.7,3.8-23.4,12.1-33.1C505,598,501.9,582.8,482.5,605.4z"/>
<path d="M432.6,638.1c2.2,4,12.2,0.7,15.1,5.9c2.8,5-5.5,11.8-3.4,15.7c26.2-14.2,12-20.4,23.2-26.5
	C456.3,639.2,458.8,623.9,432.6,638.1z M489.8,358.8c7.1-9.4-27.6-21.2-27.6-21.2S482.6,368.1,489.8,358.8L489.8,358.8z M513.3,386
	c-8.3-9.6,7.2-10.3-12.1-33c-3.5,2.9,1.8,12.1-2.5,16c-4.6,3.7-12.7-2.9-16.2,0C501.9,391.5,505,376.4,513.3,386L513.3,386z
	 M539.2,533c-4.6,12-12.6-1.2-23,26.6c4.1,1.6,9.6-7.6,15.1-5.5c5.4,2.2,3.6,12.6,7.8,14.2C549.6,540.3,534.7,545,539.2,533z
	 M514.9,412.1c10.9,27.7,18.8,14.4,23.5,26.3c-4.7-11.9,10.2-7.6-0.7-35.3c-4.2,1.7-2.2,12.1-7.6,14.3S519.1,410.4,514.9,412.1
	L514.9,412.1z"/>
<path d="M229.4,402.8l57.1,7.9c1.8,9.6,16.7,18.6,27,4.2l15.6,4.4l-12.5,9.8l24,3.2l9.5-18.5l-54.4-22.1L229.4,402.8z M405.2,659.4
	c0,0,36.7,0.7,33.2-10.4C434.8,637.8,405.2,659.4,405.2,659.4z"/>
</svg>
