<?xml version="1.0" encoding="utf-8"?>
<!-- Generator: Adobe Illustrator 26.1.0, SVG Export Plug-In . SVG Version: 6.00 Build 0)  -->
<svg version="1.1" id="Layer_1" xmlns="http://www.w3.org/2000/svg" xmlns:xlink="http://www.w3.org/1999/xlink" x="0px" y="0px"
	 viewBox="0 0 197.6 158" style="enable-background:new 0 0 197.6 158;" xml:space="preserve">
<style type="text/css">
	.st0{fill:#FFFFFF;}
	.st1{fill:#B79257;}
	.st2{fill:#DA1A32;}
</style>
<path class="st0" d="M97.2,158c-2.2,0-4.3-1.3-5.3-3.3c-1-2.2-0.7-4.7,0.9-6.5l0.1-0.1c0.5-0.6,1-1.1,1.4-1.5l1.5,1.3l-1.4-1.4
	c0.4-0.4,1-1,1.2-1.2c0.2-0.4,0.4-1,0.4-1.2c0-0.1-0.1-0.6-1-1.8c-1.5,0.1-2.9,0.2-4.2,0.2c-8.9,0-14.6-2.4-16.7-3.3l-0.3-0.1
	c-2.9-1.2-8-4.4-10.9-7.4c-4.5-4.5-7.5-9.8-7.9-10.6l-2.5-5.4c-2.2-1.3-4.3-2.7-6.2-4.2c-1.5-1.2-3.6-3.1-5.6-5.2
	c-3.5-3.8-6.7-8.6-9.9-14.5l-5.1-9.4c-5.3-4.2-9.9-9.2-13.9-15.5c-1.6-2.5-3.7-6.5-6-11.3L0.2,44.4c-0.4-0.8-0.3-1.7,0.3-2.3
	c0.6-0.6,1.5-0.8,2.3-0.5l11.6,5.2c1.7,0.7,3.4,1.4,5,2c2.3,0.9,13.1,4.5,19.6,5.5c7.2,1.1,13.5,1.7,18.8,1.8
	c0.2-0.9,0.4-1.7,0.6-2.5c2.5-9.9,7-17.7,10.4-22.4C76.9,19.6,88.2,11,102.3,5.7C115.5,0.7,128,0,134.2,0c0.8,0,1.5,0,2.3,0l0.1,0
	c1.9,0.1,3.7,1,4.8,2.7c1.1,1.6,1.3,3.6,0.5,5.4l0,0.1c-2.1,5-3.7,9.8-4.8,14.4c15.9,0.7,30.7,7.3,42,18.6v0c12,12,18.6,28,18.6,45
	c0,17-6.6,33-18.6,45c-12,12-28,18.6-45,18.6c-6.5,0-12.8-1-18.9-2.8c-0.6,1-1.3,2-2.1,3c-4.7,5.8-11.8,7.8-15.2,8l-0.2,0
	C97.4,158,97.3,158,97.2,158z M96,138.2c0.6,0,1.2,0.3,1.6,0.8c1.6,2,2.3,3.4,2.5,4.7c0.1,1.2-0.3,2.2-0.8,3.3
	c-0.4,0.9-1.1,1.6-2,2.4c0,0-0.1,0.1-0.1,0.1c-0.4,0.4-0.8,0.8-1.3,1.3l-0.1,0.2c-0.5,0.6-0.6,1.4-0.3,2.1c0.3,0.6,1,1.1,1.7,1.1
	l0.3,0c2.8-0.2,8.5-1.7,12.3-6.5c1-1.2,1.8-2.5,2.5-3.8c0.5-0.9,1.5-1.3,2.4-1c6.1,2.1,12.6,3.1,19.2,3.1c15.9,0,30.9-6.2,42.2-17.5
	c11.3-11.3,17.5-26.2,17.5-42.2c0-15.9-6.2-30.9-17.5-42.2c-11.1-11.1-25.9-17.3-41.7-17.5c-0.6,0-1.2-0.3-1.5-0.8
	c-0.4-0.5-0.5-1.1-0.4-1.7c1.2-5.5,3.1-11.3,5.5-17.4l0-0.1c0.2-0.6,0.2-1.2-0.2-1.8c-0.3-0.5-0.9-0.8-1.5-0.8l-0.1,0
	c-0.7,0-1.5,0-2.2,0c-6,0-17.9,0.7-30.5,5.5c-13.3,5-23.9,13.1-31.6,24c-3.2,4.5-7.4,11.8-9.8,21.1c-0.3,1.3-0.6,2.6-0.9,3.9
	c-0.2,0.9-1,1.6-1.9,1.6c-0.5,0-0.9,0-1.4,0c-5.5,0-12.1-0.6-19.7-1.8c-6.8-1.1-18-4.8-20.4-5.7c-1.7-0.6-3.5-1.4-5.2-2.1l-6.5-2.9
	l3.2,6.3c2.2,4.7,4.2,8.6,5.7,10.9c3.9,6,8.2,10.8,13.3,14.8c0.2,0.2,0.4,0.4,0.5,0.6l5.3,9.8c3,5.6,6.1,10.1,9.3,13.7
	c1.8,2,3.8,3.7,5.1,4.8c1.8,1.5,3.9,2.9,6.1,4.1c0.4,0.2,0.7,0.5,0.9,0.9l2.7,6c0.3,0.6,3.1,5.4,7.1,9.4c2.5,2.5,7.2,5.5,9.7,6.5
	l0.3,0.1c1.9,0.8,7,3,15.1,3c1.5,0,3.1-0.1,4.7-0.2l0.2,0C95.9,138.2,96,138.2,96,138.2z"/>
<path class="st0" d="M177.6,42.6c-11.5-11.5-26.8-17.9-43.1-18c1.2-5.4,3-11.1,5.4-17.1l0-0.1c0.5-1.2,0.3-2.5-0.3-3.6
	c-0.7-1.1-1.9-1.7-3.1-1.8l-0.1,0c-0.7,0-1.5,0-2.2,0c-6.1,0-18.3,0.7-31.2,5.6c-13.7,5.1-24.6,13.5-32.5,24.7
	c-3.3,4.6-7.7,12.2-10.1,21.8c-0.3,1.3-0.6,2.7-0.9,4c-0.5,0-0.9,0-1.4,0c-5.4,0-11.9-0.6-19.4-1.8c-6.6-1.1-17.6-4.7-20-5.6
	c-1.7-0.6-3.4-1.3-5.1-2.1l-2-0.9L2,43.5l5.8,11.3c2.3,4.8,4.3,8.7,5.8,11.1C17.6,72,22.1,77,27.4,81.1l5.3,9.8
	c3.1,5.8,6.2,10.4,9.6,14.1c1.9,2.1,3.9,3.9,5.4,5c1.9,1.6,4.1,3.1,6.4,4.3l2.7,6c0.3,0.6,3.2,5.7,7.5,10c2.8,2.7,7.7,5.9,10.3,7
	l0.3,0.1c2,0.9,7.4,3.1,15.9,3.1c1.6,0,3.2-0.1,4.9-0.3l0.2,0c1.3,1.6,1.9,2.8,2,3.7c0.1,0.6-0.2,1.2-0.6,2.2
	c-0.2,0.5-0.9,1.1-1.6,1.8l0,0c-0.4,0.4-0.9,0.9-1.4,1.4l-0.1,0.2c-1.1,1.2-1.3,2.9-0.6,4.3c0.6,1.3,2,2.2,3.5,2.2
	c0.1,0,0.2,0,0.2,0l0.2,0c3.1-0.2,9.5-1.9,13.8-7.2c1.1-1.3,2-2.7,2.7-4.2c6.3,2.2,13,3.2,19.8,3.2c16.5,0,31.9-6.4,43.6-18.1
	c11.6-11.6,18.1-27.1,18.1-43.6C195.6,69.7,189.2,54.2,177.6,42.6"/>
<path d="M176.1,44.1c-11.2-11.2-26.2-17.4-42-17.4c-0.7,0-1.4,0-2.1,0c1.4-7.4,3.8-14.6,6.1-20.1l0-0.1c0.2-0.5,0.2-1.1-0.2-1.6
	c-0.3-0.5-0.8-0.8-1.4-0.8l-0.1,0c-0.7,0-1.4,0-2.1,0c-6,0-17.8,0.7-30.5,5.5c-13.3,5-23.9,13-31.5,23.9c-3.2,4.5-7.4,11.8-9.7,21
	c-0.5,1.9-0.9,3.8-1.2,5.6l-0.2,0c-1,0-1.9,0.1-2.9,0.1c-5.5,0-12.2-0.6-19.7-1.8c-6.8-1.1-18-4.8-20.4-5.7
	c-1.9-0.7-3.9-1.5-5.9-2.4l-0.9-0.4L6.8,48l2.5,5.2c2.2,4.8,4.5,9,6.1,11.5c5.9,9.2,13.2,15.9,22.4,20.3c5.4,2.6,11.7,3.8,14.9,4.2
	c2.4,0.3,6.6,0.7,8.5,0.7h0l0.4,0c0.2,0.7,0.4,1.3,0.6,2c-0.1,0-0.2,0-0.3,0c-3.7,0-7.1-0.3-11.2-0.9c-3.4-0.5-6.6-1.2-9.8-2.2
	c-1.4-0.4-2.8-0.9-3.9-1.4l-4.8-2.1l2.5,4.6c3,5.6,6.1,10.1,9.3,13.6c1.8,2,3.8,3.7,5.1,4.8c1.9,1.5,4,2.9,6.2,4.2
	c6.1,3.3,11.9,4.8,18.7,4.8c0.1,0,0.2,0,0.3,0l1.2,0c0.5,0.7,1,1.3,1.6,1.9c-0.6,0-1.2,0.1-1.9,0.1c-0.9,0-1.9,0-3.2-0.1
	c-3.5-0.2-9.1-1.5-10.7-2.2l-4.5-2.2l2.1,4.5c0.3,0.6,3,5.4,7,9.4c2.5,2.5,7.2,5.5,9.6,6.5l0.3,0.1c1.9,0.8,7,3,15.1,3h0
	c1.5,0,3.1-0.1,4.7-0.2l1.3-0.1c0.3,0.3,0.6,0.6,0.8,0.8c3.4,4.4,2.8,5.9,1.7,8.3c-0.4,0.8-1.1,1.6-2,2.4l0,0
	c-0.4,0.4-0.9,0.9-1.3,1.3l-0.1,0.2c-0.5,0.5-0.6,1.3-0.3,1.9c0.3,0.6,0.9,1,1.5,1c0,0,0.1,0,0.1,0l0.2,0c2.7-0.2,8.4-1.7,12.2-6.4
	c1.6-1.9,2.6-3.8,3.3-5.5c6.6,2.5,13.7,3.8,21,3.8c15.9,0,30.8-6.2,42-17.4s17.4-26.2,17.4-42C193.5,70.3,187.3,55.4,176.1,44.1"/>
<path class="st1" d="M191.8,86.2c0,15.4-6,29.9-16.9,40.8c-10.9,10.9-25.4,16.9-40.8,16.9c-7.1,0-14-1.2-20.4-3.7
	c0.3-0.8,0.5-1.6,0.7-2.4c0.3-1.2,0.5-2.6,0.6-4c0.6-0.2,1.4-0.5,3-1.2c1.9-0.9,3.2-1.5,3.4-1.5c4.1,1.2,8.4,1.8,12.7,1.8
	c12.5,0,24.2-4.9,33-13.7c8.8-8.8,13.7-20.5,13.7-33c0-13.2-5.6-25.8-15.4-34.7c0-0.2,0-0.9,0.3-1.9c0.1-0.2,0.1-0.5,0.2-0.7
	c0.1-0.3,0.1-0.5,0.2-0.7c3.5,3.5,5.6,2.9,5.6,2.8c0.1-0.1,0.3-0.1,0.4-0.1c0.7,0,1.5,0.8,1.6,0.9l0,0l0,0l0,0l0.1-0.1l0.1-0.1v0
	c-0.1-0.1-0.9-1.1-0.5-1.9c0-0.1,0.9-2.2-2.9-6.1l-0.1-0.1l-0.1,0.1c0,0-0.3,0.9,0,2.3l0,0.1c0,0,0.1,0.8-0.4,1.4
	c-0.3,0.3-0.6,0.4-1.1,0.4l-0.4,0c-0.6-0.2-1.2-0.3-1.8-0.3l-0.4,0c0.1-0.2,0.1-0.3,0.2-0.5c0.2-0.3,0.3-0.7,0.4-1l0.2,0
	c0.7,0,1.4,0.6,1.5,0.7l0,0l0,0l0,0l0.1-0.1l0.1-0.1c-0.1-0.1-1.1-1-0.8-1.8c0-0.1,0.6-2.3-3.7-5.7L164,39l0,0.1
	c0,0-0.2,0.9,0.3,2.3l0,0.1c0,0,0.2,0.9-0.2,1.5c-0.3,0.4-0.8,0.5-1.4,0.5c-0.4-0.1-0.8-0.1-1.1-0.1c-1,0-1.5,0.3-1.5,0.3l-0.1,0.1
	l0.1,0.1c0.9,0.7,1.6,1.2,2.3,1.6l-0.2,0.1c-0.2,0.1-0.4,0.2-0.6,0.2c-0.5,0.2-1.1,0.4-1.4,0.6c-0.5,0.2-0.9,0.4-1,0.5
	c-7.5-4.8-16.2-7.3-25.1-7.3c-1,0-2.1,0-3.1,0.1c-0.2-3.6,0.1-7.4,0.7-11.1c0.8,0,1.6-0.1,2.4-0.1c15.4,0,29.9,6,40.8,16.9
	C185.8,56.2,191.8,70.8,191.8,86.2"/>
<path class="st1" d="M121.3,102.6c2.7,2.9,5.1,5.4,6,7.5c0,0.1,0.1,0.2,0.1,0.3c0,0.1,0.1,0.2,0.1,0.4c0,0.1,0.1,0.2,0.1,0.3
	c0.1,0.3,0.1,0.7,0.2,1s0.1,0.6,0.1,0.9c0,0.3,0,0.6,0,0.8c0,0.3,0,0.6,0,0.8c0,0.2,0,0.4-0.1,0.6c0,0.1,0,0.1,0,0.2
	c-0.1,0.6-0.2,1.2-0.3,1.7c0.9-0.7,2.2-1.9,3.2-2.8c0.1-0.1,0.2-0.2,0.3-0.2c0.3-0.3,0.6-0.6,0.9-0.8c0.1-0.1,0.2-0.2,0.4-0.3
	c0.1-0.1,0.3-0.2,0.4-0.3c0.3-0.2,0.5-0.5,0.8-0.7c1-0.9,2.1-1.8,2.9-2.7c0.5-0.5,0.9-1,1.1-1.5l0.1-0.1c0.3-0.5,0.5-0.9,0.5-1.6
	c0-0.1,0-0.3,0-0.5c0-0.3-0.1-0.6-0.3-0.9c-0.2-0.5-0.5-0.9-0.9-1.5c-0.4-0.6-0.9-1.1-1.3-1.6c-0.3-0.4-0.6-0.8-1-1.1
	c-0.2-0.2-0.4-0.4-0.6-0.7c-0.2-0.2-0.4-0.5-0.7-0.7c-0.1-0.1-0.3-0.3-0.4-0.4c-0.1-0.1-0.2-0.2-0.3-0.3c-0.1-0.1-0.3-0.3-0.4-0.4
	c0,0,0,0-0.1-0.1c-0.1-0.1-0.2-0.2-0.2-0.3c-0.1-0.1-0.2-0.2-0.3-0.3c-1.8-1.9-3-3.2-3.5-4.8c-0.1-0.3-0.2-0.5-0.2-0.8
	c0-0.1,0-0.1,0-0.2c0,0,0,0,0-0.1c-0.1-0.4-0.1-0.8,0-1.2c0.6-3.9,5.4-6.5,8.8-2.2l1.3,1.7c0,0,6.3,7.9,9.7,12l1.7,2
	c0.1,0.1,0.1,0.1,0.2,0.2c2.8,3.3,8,6,9.3,6.5c-0.1-0.1-0.2-0.2-0.3-0.4c-0.6-0.8-1.5-2-2.3-3.3c-0.2-0.4-0.4-0.7-0.6-1.1
	c0-0.1-0.1-0.1-0.1-0.2c-0.1-0.3-0.2-0.5-0.3-0.8c-0.1-0.2-0.1-0.3-0.2-0.5c-0.4-0.9-0.7-1.9-1-3c-0.1-0.4-0.2-0.8-0.2-1.2
	c0-0.2-0.1-0.4-0.1-0.6c0,0,0-0.1,0-0.1c0-0.2-0.1-0.4-0.1-0.6c0-0.1,0-0.3,0-0.4c0-0.2,0-0.4,0-0.6c0,0,0,0,0,0c0-0.2,0-0.4,0-0.6
	c0-0.3,0-0.6,0-0.9c0-0.3,0-0.5,0-0.8c0-0.6,0.1-1.2,0.1-1.6c0,0,0,0,0,0c0-0.3,0.1-0.5,0.1-0.6c-0.1,0-0.4-0.1-0.7-0.2
	c-0.6-0.2-1.6-0.7-2.4-1.5c-0.4-0.4-0.8-0.9-1.1-1.5c-0.8-1.5-1.6-3.2-1.8-6.2c-0.2,0.1-0.4,0.3-0.6,0.4c-0.9,0.7-1.8,1.3-2.9,1.9
	c-0.6,0.3-1.7,0.7-3,0.9c-0.3,0-0.6,0.1-0.9,0.1c-0.3,0-0.5,0-0.8,0c-0.2,0-0.5-0.1-0.7-0.1c-3.1-0.7-5.1-2.2-6.1-4.6
	c-0.2-0.6-0.4-1.1-0.5-1.7c0-0.1,0-0.3-0.1-0.4c0-0.1,0-0.3,0-0.4c0-0.3,0-0.6,0-0.9c0.1-0.7,0.2-1.4,0.4-2.1c0-0.2,0.1-0.3,0.1-0.5
	s0.1-0.3,0.2-0.5c0.2-0.5,0.4-0.9,0.7-1.3c0.1-0.1,0.2-0.3,0.3-0.4c0.3-0.3,0.6-0.6,0.9-0.9c0.2-0.2,0.4-0.3,0.7-0.5
	c0.1,0,0.2-0.1,0.2-0.1c0.2-0.1,0.3-0.2,0.5-0.2c0.1-0.1,0.3-0.1,0.4-0.1c0.4-0.1,0.8-0.2,1.3-0.2c1.6,0,3.1,0.8,3.8,1.9
	c0-0.1,0-0.1,0.1-0.2c0.2-0.5,0.4-1.4,0.7-2.3c0.6-2.2,1.4-5.2,2.6-8.1c0.2-0.4,0.3-0.8,0.5-1.3c0.1-0.3,0.3-0.7,0.4-1
	c0.9-2.3,1.9-4.7,3.5-6.5c-2.1-1.5-4.1-2.5-5.8-3.1c-0.1-0.1-0.3-0.1-0.4-0.1c-2.7-0.8-4.7-0.8-5.6-0.8l-0.3,0
	c-3.5,0-6.5,0.5-9.4,1.5c-0.2,0.1-0.4,0.1-0.6,0.2c-0.8,0.3-1.7,0.7-2.5,1.1c-0.3,0.1-0.5,0.3-0.8,0.4c-0.1,0.1-0.3,0.1-0.4,0.2
	c-2.3,1.2-4.4,2.8-6.3,4.7c0,0,0,0,0,0c-2.6,2.6-4.6,5.6-6.1,9c-0.6,1.3-1.1,2.7-1.4,4.2c-0.4,1.5-0.8,3.2-0.9,4.9
	c-0.1,0.7-0.1,1.4-0.1,2.2c0,1,0.1,2,0.2,3c0.1,0.4,0.1,0.8,0.2,1.3c0.1,0.6,0.3,1.2,0.5,1.9c0,0.1,0.1,0.2,0.1,0.4
	c0.5,1.8,1.3,3.7,2.5,5.8c0.5,0.9,1.1,1.9,1.7,2.8C116,96.9,118.8,99.9,121.3,102.6"/>
<path class="st0" d="M169.1,98.6l-0.6,2.7l1.7,7.4c0,0-5.1,0.8-7.4,1.1c-0.7,2.4-4.2,11.6-4.2,11.6l-0.7-0.3c-0.5-5-3.1-7.6-6.1-9.5
	c-1.7-1.1-3.6-1.8-5.4-2.4c-2.5-0.8-5-1.3-7.6-1.6c0.4-1.1,0.3-2.3,0-3.1c-0.5-1.3-1.3-2.2-2.1-3.1c3.2-0.5,3.6-2.8,3.4-4.2
	c-0.4,0.7-2.1,3.6-4.6,3c-5.2-6.1-6.1-6.4-6.6-8.4c-0.4-1.4,0.3-3.2,1.8-4.2c2.7-1.7,4.4,0,7.1,3.5c1.5,1.8,6.7,8.8,10.2,12.7
	c2.6,3,5.3,4.9,8.6,6.7c1.8,0.9,3.9,1.7,3.9,1.7l0.4-0.7c0,0-2.6-2.6-4.2-5.8c-0.8-1.6-1.4-3.3-1.8-4.9c-1-4.1,0-8.4,0-8.4
	s-2.4,0.4-4.7-2.9c-0.6-0.9-1.1-2.9-1.3-4.2c-0.1-0.9-0.2-1.6-0.2-2.4c4.2-3.8,9.8-10.6,12-11.1c0.7,1.4,10.1,21.4,10.1,21.4l-2.1,1
	l0,2.3l-5.5,4.1L169.1,98.6z"/>
<path class="st2" d="M104.9,145.5c0-0.2,0-0.3,0-0.4c0.3-2.7-0.5-4.6-1.2-6.1c-0.7-1.4-1.6-2.6-2.5-3.6c-1.6-1.8-3.7-3.4-4.7-4.2
	c-0.2-0.1-18.9-13.7-26.9-33.3c-6.2-15-5.4-28.4-3.7-37c0.6-2.8,1.3-5.5,2.2-8.4l0-0.1c3.4-10.3,8.4-17.4,12.1-21.5
	c11.8-13.4,30.8-21.4,52.1-22.2c-1.5,3.9-3,8.6-4.2,14.1c-0.2,1-2.3,10.1-1.8,17.5c-6.6,1.9-12.5,5.1-17.5,9.5
	c-3.5,3-6.6,7-8.8,11.1c-2.7,5.2-3.3,9.5-3.6,12.6c0,0.4-0.1,0.7-0.1,1.1c-0.6,4.5,0.9,15.8,7.1,23.1c1.7,2,4.1,4.9,7.1,8.6l0,0
	c2,2.5,4.2,5.3,6.8,8.4c-0.9,0.9-2.9,3.1-4.7,7.3c-0.9,2.1-1.5,4.2-1.7,6.1c-0.1,0.8-0.2,1.5-0.2,2.4c-0.2,2.3-0.4,4.8-1.2,7.4
	c-0.5,1.7-1.1,3.1-1.9,4.3C106.8,143.6,105.8,144.7,104.9,145.5"/>
<path class="st1" d="M136.4,5.9l-0.1,0c-0.7,0-1.4,0-2.1,0c-5.8,0-17.5,0.7-29.9,5.4C91.4,16.1,81,23.9,73.6,34.5
	C70.5,38.9,66.4,46,64.1,55c-3.7,14.9-2.5,26.2-1.4,31.7c1,5.3,3.4,11.8,6.1,17c0.5,1.1,3.3,5.9,5.1,8.6c1.9,2.7,3.9,5.3,6.1,7.8
	c2.9,3.3,4.8,5.1,6.2,6.5c0.5,0.5,0.9,0.9,1.4,1.3c2.1,2.1,4.4,3.9,6.5,5.5c2.1,1.6,3.9,3,4.9,4.3c4.1,5.2,3.1,7.4,1.9,10.1
	c-0.5,1.1-1.4,2-2.4,2.9c-0.4,0.4-0.8,0.8-1.2,1.3l-0.1,0.2l0.2,0c2.5-0.2,7.5-1.6,11-5.8c2.6-3.2,3.6-6.2,4.2-8.7
	c0.4-1.6,0.6-3.5,0.8-5.4c0.1-1.2,0.2-2.4,0.4-3.5c0.3-1.9,0.8-3.9,1.6-5.5c1.2-2.6,2.5-4.6,4-6c-0.4-0.5-0.9-0.9-1.3-1.4
	c-1.6,1.6-3.4,4.4-4.3,6.5c-1.6,3.8-1.8,6-1.9,7.6c0,0.4-0.1,0.8-0.1,1.2c-0.1,0.4-0.1,0.9-0.1,1.5c-0.2,2.2-0.4,5.9-2.6,9.9
	c-1.5,2.8-3.6,4.8-6.3,6.3c0.7-0.9,1.4-2.8,1.2-5.2c-0.4-4.5-3.9-8-6.8-10.1c-8.7-6.5-15.9-13.9-21.5-22c-5.5-8-9.1-16.3-10.8-24.7
	c-2.1-10.2-1.7-20.9,1-30.9c2.6-9.7,7.4-18.6,13.9-25.7C92.3,15.9,111,8.2,133.9,7.8l-0.3,0.7c-1.2,3.5-2.5,7.1-3.5,11
	c-0.8,3.1-1.5,6.2-2,9.5c-0.6,3.9-0.9,8-0.6,11.2l1.8-0.4c-0.7-11.9,3.5-24.9,7.2-33.8L136.4,5.9z"/>
<polygon class="st1" points="157.2,132.7 157.2,132.6 157.2,132.7 "/>
<polygon points="167,92.1 162.8,94.6 162.9,94.9 169.9,93.2 "/>
<path d="M162.3,82.5c0,0-0.1-1.1-0.4-1.5c-0.3-0.4,1.3-1.1,1.3-1.1l-0.8-0.4l-0.2,0.3l-3.6,1.3l-3,2.5l2.6-0.8l5.3,0.7L162.3,82.5z"
	/>
<path d="M147.7,36.6c0.2-0.3,0.6-0.5,1.1-0.5c0.5,0,0.9,0.1,1,0.1l0,0l0-0.1l0-0.1c-0.1,0-1.4-0.5-1.5-1.3c0-0.1-0.4-2.3-5.7-3.7
	l-0.1,0l0,0.1c0,0,0.2,0.9,1.2,2l0.1,0.1c0,0,0.6,0.7,0.4,1.4c-0.1,0.4-0.5,0.8-1.1,1.1c-1.7,0.4-2.3,1.2-2.4,1.2l-0.1,0.1l0.1,0
	c1.3,0.3,2.5,0.5,3.6,0.5C146.9,37.6,147.7,36.6,147.7,36.6"/>
<path d="M155.3,38.5c0.6,0,1.1,0.2,1.3,0.3l0,0l0-0.1l0-0.1c-0.1-0.1-1.3-0.6-1.3-1.5c0-0.1-0.1-2.3-5.1-4.5l-0.1-0.1l0,0.1
	c0,0,0,0.9,0.9,2.2l0,0.1c0,0,0.5,0.8,0.2,1.5c-0.2,0.4-0.6,0.7-1.2,0.9c-1.7,0.2-2.5,0.9-2.5,0.9l-0.1,0.1l0.1,0.1
	c1.7,0.7,3.3,1.1,4.5,1.1c1.6,0,2.2-0.6,2.2-0.6C154.6,38.7,154.8,38.5,155.3,38.5"/>
<path d="M161.8,40.5c0-0.1,0.2-2.3-4.4-5.1l-0.1-0.1l0,0.1c0,0-0.1,0.9,0.6,2.3l0,0.1c0,0,0.4,0.8,0,1.5c-0.2,0.4-0.7,0.6-1.3,0.7
	l-0.2,0c-1.6,0-2.3,0.5-2.4,0.5l-0.1,0.1l0.1,0.1c2.5,1.5,4.2,1.8,5.1,1.8c1,0,1.5-0.3,1.5-0.3c0.2-0.2,0.4-0.3,0.7-0.3
	c0.6,0,1.3,0.4,1.4,0.5l0,0l0-0.1l0-0.1C162.8,42.1,161.7,41.4,161.8,40.5"/>
<path d="M176.1,56.5l0.3-0.1c0.8,0,1.5,1,1.5,1.1l0,0l0.1,0l0.1-0.1c-0.1-0.1-0.8-1.2-0.3-2c0-0.1,1.2-2-2-6.5l-0.1-0.1l-0.1,0.1
	c0,0-0.5,0.8-0.3,2.3l0,0.1c0,0.1,0,1.6-1.4,1.6c-0.2,0-0.4,0-0.7-0.1c-1.1-0.5-1.9-0.6-2.3-0.6c-0.2,0-0.3,0-0.3,0l-0.1,0l0.1,0.1
	c2.6,3.6,4.5,4,5.3,4L176.1,56.5z"/>
<path d="M179.7,62.5l0.2,0c0.8,0,1.4,1.2,1.5,1.3l0,0l0.1,0l0.1-0.1c-0.1-0.1-0.6-1.3,0-2c0.1-0.1,1.4-1.9-1.1-6.7l-0.1-0.1
	l-0.1,0.1c0,0-0.6,0.7-0.7,2.2l0,0.1c0,0.1-0.2,1.4-1.4,1.4c-0.3,0-0.6-0.1-0.9-0.2c-1.3-0.9-2.3-0.9-2.5-0.9l-0.2,0l0.1,0.1
	C177.2,62.4,179.4,62.5,179.7,62.5L179.7,62.5z"/>
<path d="M182.5,69l0.1,0c0.9,0,1.3,1.4,1.4,1.5l0,0l0.1,0l0.1,0c0-0.1-0.4-1.4,0.3-2c0.1-0.1,1.7-1.7-0.1-6.8l0-0.1l-0.1,0.1
	c0,0-0.7,0.7-1,2.1l0,0.1c0,0-0.4,1.2-1.4,1.2c-0.3,0-0.7-0.1-1.1-0.3c-1.3-1.1-2.3-1.2-2.3-1.2l-0.1,0l0,0.1
	C180.1,68.8,182.4,69,182.5,69"/>
<path d="M183.2,71.5c-1.1-1.3-2.1-1.5-2.1-1.6l-0.1,0l0,0.1c1.1,5.3,3.3,5.8,3.4,5.9c1,0,1.2,1.5,1.3,1.7l0,0l0.1,0l0.1,0
	c0-0.1-0.2-1.4,0.5-1.9c0.1-0.1,1.9-1.4,0.8-6.7l0-0.1l-0.1,0.1c0,0-0.7,0.6-1.3,2l0,0.1c0,0-0.5,1-1.4,1
	C184,72,183.6,71.8,183.2,71.5"/>
<path d="M141.5,34.4c0.2-2.8-8.5-0.6-8.5-0.6S141.3,37.1,141.5,34.4"/>
<path d="M136.4,138L136.4,138L136.4,138L136.4,138L136.4,138L136.4,138c-0.3-0.1-1.7-0.1-1.9-1c0-0.1-1-2.1-6.4-2.2h-0.1l0.1,0.1
	c0,0,0.4,1,1.9,1.8c0.5,0.4,0.8,0.9,0.8,1.3c0,0.7-0.8,1.3-0.8,1.3l0,0c-1.3,0.8-1.7,1.6-1.7,1.6l-0.1,0.1l0.2,0
	c5.4,0,6.3-2,6.4-2.1C134.9,138.1,136.2,138.1,136.4,138L136.4,138z"/>
<path d="M143.6,137.3L143.6,137.3L143.6,137.3L143.6,137.3L143.6,137.3l0-0.2l0,0l0,0.1L143.6,137.3l0-0.2c-0.1,0-0.3,0-0.6,0
	c-0.6,0-1.2-0.1-1.5-0.7c0-0.1-0.9-1.4-4.4-1.4c-0.7,0-1.4,0.1-2.2,0.2l-0.1,0l0.1,0.1c0,0,0.6,0.9,2.2,1.5c0.6,0.3,0.9,0.7,0.9,1.2
	c0.1,0.7-0.6,1.4-0.6,1.4l-0.1,0.1c-1.2,1-1.4,1.8-1.5,1.8l0,0.1l0.1,0c5.4-0.7,6.1-2.9,6.1-3C142.1,137.5,143.4,137.3,143.6,137.3
	L143.6,137.3L143.6,137.3z"/>
<path d="M150.5,135.3L150.5,135.3c-0.1,0-0.6,0.2-1,0.2c-0.6,0-0.9-0.2-1.1-0.5c0,0-0.8-0.9-3.1-0.9c-1.1,0-2.3,0.2-3.7,0.6l-0.1,0
	l0.1,0.1c0,0,0.7,0.8,2.4,1.2c0.6,0.3,1,0.6,1.1,1.1c0.2,0.7-0.4,1.4-0.4,1.4l-0.1,0.1c-1,1.1-1.2,2-1.2,2l0,0.1l0.1,0
	c5.2-1.5,5.6-3.7,5.6-3.8c0.1-0.9,1.3-1.3,1.4-1.3L150.5,135.3l0,0.2l0,0l0,0L150.5,135.3z"/>
<path d="M157.2,132.6L157.2,132.6L157.2,132.6L157.2,132.6L157.2,132.6c-0.1,0.1-0.7,0.3-1.3,0.3c-0.4,0-0.7-0.1-0.9-0.4
	c0,0-0.6-0.6-2.1-0.6c-1.3,0-2.8,0.4-4.6,1.2l-0.1,0.1l0.1,0.1c0,0,0.8,0.7,2.5,0.9c0.6,0.2,1.1,0.5,1.2,0.9
	c0.3,0.7-0.2,1.5-0.2,1.5l0,0.1c-0.9,1.3-0.9,2.2-0.9,2.2l0,0.1l0.1-0.1c5-2.2,5-4.4,5-4.5c-0.1-0.9,1.1-1.5,1.3-1.5L157.2,132.6
	l0.1,0.2l0,0l0,0L157.2,132.6z"/>
<path d="M163.4,129L163.4,129L163.4,129L163.4,129L163.4,129c-0.1,0.1-0.8,0.5-1.5,0.5c-0.3,0-0.5-0.1-0.7-0.3c0,0-0.5-0.3-1.4-0.3
	c-1,0-2.7,0.3-5.2,1.8l-0.1,0.1l0.1,0.1c0,0,0.8,0.5,2.3,0.5l0.3,0c0.7,0.1,1.1,0.3,1.3,0.7c0.4,0.6,0,1.5,0,1.5l0,0.1
	c-0.7,1.4-0.6,2.3-0.6,2.3l0,0.1l0.1-0.1c4.6-2.8,4.4-5.1,4.4-5.2c-0.2-0.9,0.9-1.6,1-1.7L163.4,129l0.1,0.1l0,0l0,0L163.4,129z"/>
<path d="M169.1,124.6L169.1,124.6L169.1,124.6c-0.1,0.1-0.9,0.7-1.5,0.7c-0.2,0-0.4-0.1-0.6-0.2c0,0-0.3-0.2-0.9-0.2
	c-1,0-2.8,0.4-5.4,2.6l-0.1,0.1l0.1,0.1c0,0,0.5,0.2,1.5,0.2c0.4,0,0.8,0,1.2-0.1h0c0.6,0,1.1,0.2,1.4,0.5c0.5,0.6,0.2,1.5,0.2,1.5
	l0,0.1c-0.5,1.4-0.3,2.3-0.3,2.4l0,0.1l0.1-0.1c4.2-3.5,3.6-5.6,3.6-5.7c-0.3-0.8,0.7-1.7,0.8-1.8L169.1,124.6l0.1,0.1l0,0l0,0
	L169.1,124.6z"/>
<path d="M174.1,119.4L174.1,119.4c-0.1,0.1-0.8,0.9-1.6,0.9c-0.2,0-0.3,0-0.4-0.1c0,0-0.2-0.1-0.5-0.1c-0.9,0-2.8,0.4-5.4,3.3
	l-0.1,0.1l0.1,0c0,0,0.3,0.1,0.8,0.1c0.6,0,1.2-0.1,1.8-0.3c0.7-0.1,1.2,0,1.5,0.4c0.5,0.5,0.4,1.4,0.4,1.4l0,0.1
	c-0.3,1.5,0,2.3,0,2.3l0.1,0.1l0.1-0.1c3.7-4,2.8-6.1,2.8-6.2c-0.4-0.8,0.4-1.8,0.5-1.9L174.1,119.4l0.1,0.1l0,0l0,0L174.1,119.4z"
	/>
<path d="M178.4,113.6L178.4,113.6c-0.1,0.1-0.8,1.2-1.5,1.2l-0.3-0.1l-0.2,0c-0.6,0-2.6,0.3-5.2,4.1l-0.1,0.1l0.1,0c0,0,0.1,0,0.3,0
	c0.4,0,1.2-0.1,2.3-0.6c0.3-0.1,0.5-0.1,0.7-0.1c1.4,0,1.4,1.5,1.4,1.6l0,0.1c-0.1,1.5,0.4,2.3,0.4,2.3l0.1,0.1l0.1-0.1
	c3.1-4.5,1.9-6.4,1.9-6.5c-0.5-0.7,0.2-1.8,0.3-2h0L178.4,113.6l0.1,0.1l0,0l0,0L178.4,113.6z"/>
<path d="M181.9,107.4L181.9,107.4L181.9,107.4L181.9,107.4L181.9,107.4l-0.2-0.1l0,0c-0.1,0.1-0.7,1.3-1.5,1.3l-0.2,0h0
	c-0.2,0-2.4,0.1-4.8,4.8l0,0.1h0.1c0.2,0,1.1,0,2.4-0.9c0.3-0.2,0.7-0.2,0.9-0.2c1.1,0,1.4,1.3,1.4,1.4l0,0.1
	c0.1,1.5,0.7,2.2,0.7,2.2l0.1,0.1l0.1-0.1c2.4-4.9,1-6.6,1-6.7C181.3,108.7,181.8,107.5,181.9,107.4"/>
<path d="M184.4,100.9L184.4,100.9L184.4,100.9L184.4,100.9L184.4,100.9L184.4,100.9L184.4,100.9l-0.2-0.1l0,0
	c-0.1,0.2-0.5,1.5-1.4,1.5l-0.1,0c-0.1,0-2.3,0.2-4.1,5.4l0,0.1l0.1,0c0,0,1-0.1,2.3-1.3c0.4-0.2,0.7-0.4,1.1-0.4
	c1,0,1.4,1.2,1.4,1.2l0,0.1c0.3,1.5,1,2.1,1,2.2l0.1,0.1l0-0.1c1.8-5.1,0.2-6.7,0.1-6.8C184,102.3,184.3,101.1,184.4,100.9"/>
<path d="M186.5,96.1c-0.7-0.5-0.6-1.8-0.5-1.9l-0.1,0l0.1,0l0,0l0,0h0l-0.2,0l0,0h0c0,0.2-0.3,1.7-1.3,1.7c-0.1,0-2.3,0.5-3.4,5.9
	l0,0.1l0.1,0c0,0,1-0.2,2.1-1.6c0.4-0.3,0.8-0.5,1.2-0.5c0.9,0,1.4,1,1.4,1l0,0.1c0.5,1.4,1.2,2,1.3,2l0.1,0.1l0-0.1
	C188.3,97.5,186.5,96.1,186.5,96.1"/>
<path d="M119.5,135.8c0,0,7.8,4.5,8.4,1.7C128.4,134.8,119.5,135.8,119.5,135.8"/>
<path d="M186.4,83.1c-1.5,0-2.6,1.2-2.6,2.6c0,1.5,1.2,2.6,2.6,2.6s2.6-1.2,2.6-2.6C189.1,84.3,187.9,83.1,186.4,83.1"/>
<path class="st1" d="M164.5,49.3c0.3-1.1,0.7-2.1,1-2.7c0.2-0.5,0.4-0.7,0.3-0.9l0,0l0,0l-0.2,0c-1.4,0-7.1,1.6-12.6,6.5
	c-3.6,3.2-5,6.7-5.9,8.9l-0.1,0.4c-2.3,5.7-4.4,13.4-4.9,16.4c-0.3-1.3-0.8-2.8-1.3-3.4c-0.5-0.6-1.4-1.4-2.8-1.4
	c-0.2,0-0.5,0-0.7,0.1c-1.4,0.2-2.6,1.3-3.1,2.8l0,0c-0.4,1-0.7,1.9-0.7,3.6c0,0.9,0.3,1.9,0.7,2.5c1.4,2.3,3.5,3.5,6.3,3.5
	c0.4,0,0.7,0,1.1-0.1c1.1-0.1,2.2-0.6,3.3-1.3c2.5-1.7,4.6-3.9,6.8-6.2c1.2-1.3,2.5-2.7,3.9-3.9c0.8-0.8,2.8-2.6,4.9-3.8
	c1.5-0.9,3-1.5,4.5-1.8l0.2-0.1l0-0.3l-0.1-0.1c-0.5-1.3-0.9-3-1.3-5.1c-0.3-1.8-0.5-3.5-0.4-6.3C163.4,54.9,163.8,51.8,164.5,49.3"
	/>
<path class="st1" d="M122.4,126.5c1.6-0.7,3.3-1.5,5.1-2.3c3.9-1.7,6.8-2.7,10.4-3.6c3.6-1,7.2-1.8,11.9-1.8h0.1
	c1.3,0,3.1,0.2,4.2,0.5c-1.6-4.8-7.3-6.5-9.5-7.1c-2-0.6-6.8-1.4-8.3-1.5l-0.2,0l0.2-0.1c0.5-0.4,0.8-0.7,1.2-1.2l0.3-0.4l0,0l0,0
	c2.7,0.3,5.7,0.9,8.1,1.7c2.6,0.8,4.7,1.9,6.5,3.2c1,0.7,1.8,1.6,2.6,2.9c1,1.5,1.4,4,1.4,5.6v0.2l-0.1-0.1
	c-1.2-0.8-2.5-1.3-3.7-1.5c-0.9-0.1-1.8-0.2-2.8-0.2c-2.5,0-5.2,0.4-8.5,1.1c-3,0.7-5.9,1.6-9,2.7c-3.4,1.3-6.1,2.4-9.9,4.1
	c-0.6,0.3-1.1,0.5-1.7,0.8c-1.8,0.8-3.6,1.6-5.5,2.3c0.1-0.7,0.1-1.4,0.2-2.1C117.8,128.6,120.1,127.5,122.4,126.5"/>
<path class="st1" d="M90.9,136.6L90.9,136.6c-7.7,0-12.6-2.1-14.4-2.8l-0.3-0.1c-2.3-0.9-6.8-3.8-9.1-6.1c-3.8-3.7-6.5-8.4-6.7-8.9
	l-0.1-0.2l0.2,0.1c1.9,0.9,7.9,2.2,11.4,2.4c1.3,0.1,2.4,0.1,3.3,0.1c1.3,0,2.3-0.1,3.5-0.2c0.1,0.1,0.2,0.2,0.2,0.3
	c0.5,0.6,0.9,1.1,1.4,1.5c-1.2,0.1-2.6,0.2-4.4,0.2l-0.3,0c-2.3,0-8.7-0.5-10.6-1c3.6,4.7,6.9,7.9,12.6,10.3
	c2.1,0.9,4.3,1.5,6.5,1.9c2.2,0.4,4.8,0.6,7.9,0.6c0.4,0,0.9,0,1.4,0c0.8,0.6,1.5,1.2,2.2,1.7C93.9,136.5,92.4,136.6,90.9,136.6"/>
<path class="st1" d="M63.6,95.4c-0.4,0-0.9,0-1.3,0c-3.8,0-8.9-0.5-13.5-1.2c-4.2-0.7-7.2-1.4-8.7-2.1c0.1,0.2,0.2,0.4,0.4,0.6
	c1.4,2.3,4.7,7.7,9,11.2c3.8,3.1,8.4,6.5,14.6,8.3c2.9,0.8,5.4,1.3,9.1,1.5c0.4,0.6,0.9,1.2,1.3,1.8c-0.1,0-0.3,0-0.4,0
	c-6.5,0-12-1.4-17.9-4.6c-2.2-1.2-4.2-2.5-6-4c-1.3-1.1-3.2-2.8-4.9-4.6c-3.2-3.5-6.1-7.8-9.1-13.3L36,88.8l0.2,0.1
	c1.2,0.5,2.7,1,4.1,1.5c3.2,1,6.5,1.7,10,2.3c4.2,0.6,7.7,0.9,11.5,0.9c0.4,0,0.7,0,1.1,0C63.2,94.2,63.4,94.8,63.6,95.4"/>
<path class="st1" d="M47,63.3l-0.1,0C39,62.5,30.2,60.4,25,58.8c-3.8-1.1-7.3-2.4-10.6-3.7l-0.1-0.1c1.1,2.5,2.5,4.9,4,7.3
	c4,6.4,8.8,11.5,14.2,15.3c7,4.9,14.9,7,17.2,7.4l0,0h0.1l0,0l0.3,0.1c1,0.2,6,1.1,10.1,1.1c0.3,0,0.7,0,1,0c0,0.2,0.1,0.5,0.1,0.7
	c0.1,0.4,0.2,0.8,0.3,1.2c-0.1,0-0.1,0-0.2,0c-1.9,0-5.9-0.3-8.3-0.6c-3.2-0.4-9.2-1.6-14.4-4.1c-8.9-4.3-16-10.7-21.7-19.7
	c-1.6-2.5-3.9-6.5-6-11.7l-0.1-0.2l0,0l0,0l-0.1-0.2l0.2,0.1h0l0,0c2.2,1,4.4,1.9,6.5,2.7c2.4,0.9,13.8,4.7,20.7,5.8
	c7.6,1.2,14.4,1.8,20,1.8c1,0,2.1,0,3-0.1c-0.1,0.6-0.2,1.2-0.3,1.8c-1.5,0.2-3,0.3-4.6,0.3C52.9,63.9,49.8,63.6,47,63.3"/>
<path class="st0" d="M182.9,130.6c-1.8,0-3.2,1.4-3.2,3.2c0,1.8,1.4,3.2,3.2,3.2c1.8,0,3.2-1.4,3.2-3.2
	C186.1,132.1,184.7,130.6,182.9,130.6z M182.9,136.4c-1.4,0-2.5-1.1-2.5-2.5s1.1-2.5,2.5-2.5c1.4,0,2.5,1.1,2.5,2.5
	C185.4,135.2,184.3,136.4,182.9,136.4z"/>
<path class="st0" d="M184.2,133.1c0-0.6-0.5-1.1-1.1-1.1l-1.6,0v3.7h0.7v-1.5h0.5l0.7,1.5h0.8l-0.7-1.6
	C183.9,134,184.2,133.6,184.2,133.1z M183.1,133.5h-0.9v-0.8h0.9c0.2,0,0.4,0.2,0.4,0.4C183.5,133.3,183.4,133.5,183.1,133.5z"/>
</svg>
