<?xml version="1.0" encoding="utf-8"?>
<!-- Generator: Adobe Illustrator 21.1.0, SVG Export Plug-In . SVG Version: 6.00 Build 0)  -->
<!DOCTYPE svg PUBLIC "-//W3C//DTD SVG 1.1//EN" "http://www.w3.org/Graphics/SVG/1.1/DTD/svg11.dtd">
<svg version="1.1" id="Layer_1" xmlns="http://www.w3.org/2000/svg" xmlns:xlink="http://www.w3.org/1999/xlink" x="0px" y="0px"
	 width="625px" height="742.8px" viewBox="0 0 625 742.8" style="enable-background:new 0 0 625 742.8;" xml:space="preserve">
<style type="text/css">
	.st0{fill:#FFFFFF;}
	.st1{clip-path:url(#SVGID_2_);}
	.st2{fill:#CE1126;}
	.st3{fill:#BF910C;}
</style>
<title>Ottawa Senators</title>
<g>
	<path class="st0" d="M374.4,742.8c-65.8,0-112.7-26.7-113.2-27l-2.7-1.5l-1.8-2.6c-14.4-19.2-59.1-35.2-102.3-50.7l-0.3-0.1
		C91.4,638.5,26.6,615.3,6.3,571.1c-8.2-17.8-8.3-37.3-0.4-58.1l2.5-6.7l6.9-2.2c7.3-2.3,17.1-6.7,21.5-10.1
		c8.8-28.3,34-33,52.4-36.5c8.4-1.6,16.4-3.1,22.7-6.3l-2.3-65.5l7.3-10.3c-9.7-26.7-3.9-51.6-0.4-62.4c-0.4-2.5-0.6-5.1-0.6-7.9
		l-7.6,2.9l-2.8-18.3c-0.1-0.5-9.4-59.6-2.3-125.1c4.2-38.5,13.2-71.2,27-97.1c17.9-33.9,43.7-56.3,76.7-66.7L209,0h226l2.3,9.5
		L400,28.4c-49.9,25.3-50.9,49-51.9,71.9c0,1.7-0.1,3.4-0.2,5.1h3.9v60.2l30.4-14l76.7,104.7c48.8,17.3,90.3,48.7,120.1,90.8
		c30.2,42.6,46.1,92.8,45.9,145.2C625,630.4,512.6,742.8,374.4,742.8z"/>
	<path class="st0" d="M374.4,737.8c-63.8,0-108.8-25.2-110.7-26.3l-1.8-1l-1.2-1.7c-15.3-20.5-60.9-36.8-105-52.6
		C94,634.1,30.2,611.2,10.8,569c-7.6-16.5-7.7-34.8-0.3-54.2l1.7-4.5l4.6-1.5c7.5-2.4,19.6-7.6,24.3-12c7.5-26.5,30.4-30.9,49-34.4
		c10-1.9,19.5-3.7,26.9-8.3l-2.3-66.9l7.9-11.1c-11-27.5-3.9-53.9-0.9-62.7c-0.9-5.4-0.9-10.8-0.6-15.6l-8.8,3.3l-1.9-12.2
		c-0.4-2.4-9.2-60.1-2.3-123.8c4.1-37.9,13-70,26.4-95.3c17.3-32.7,42.1-54.3,73.8-64.3l1.5-0.5H435l-37.3,18.9
		c-52.5,26.6-53.6,53-54.6,76.2c-0.1,3.5-0.3,6.9-0.6,10.3h4.3v60.3c1.2,0.3,2.4,0.7,3.6,1l30.2-13.9l75.2,102.7
		c98.6,34.3,164.5,127,164.2,231.7C620,627.6,509.8,737.8,374.4,737.8z"/>
	<path class="st0" d="M449.6,269l-72.2-98.6L351,182.5c-6.6-2.1-13.3-3.8-20.2-5.2l5.9-6v-50.9h-6.6c9.2-23.3-13.9-66.4,63-105.4
		h-182c-127.3,40-91,272.3-91,272.3l13.7-5.2c0,0-5.3,16.4-1.9,32c0,0-13.2,31.8,2,63l-9.2,13l2.4,68.8c-24,20.9-68.2,5-76.9,42.6
		c-7.1,9.5-30.4,16.8-30.4,16.8C-22.3,628.7,223,641.6,268.7,702.8c0,0,43.8,25,105.7,25c129.8,0,235.6-105.6,235.6-235.6
		C610.2,391,545.6,301,449.6,269z"/>
</g>
<g>
	<g>
		<defs>
			<rect id="SVGID_1_" x="15" y="24.8" width="585.5" height="693.5"/>
		</defs>
		<clipPath id="SVGID_2_">
			<use xlink:href="#SVGID_1_"  style="overflow:visible;"/>
		</clipPath>
		<g class="st1">
			<path d="M443.4,277.1l-69.2-94.6l-22.4,10.4c0,0-15-5.8-40.9-9.2l16.3-16.3v-37.2h-11.5c20-32.5-11.5-66.1,46.2-105.4H212.7
				c-112.6,37.9-84.5,249.3-84.5,249.3l21.5-8.2c0,0-13.4,28.2-7.7,49.4c0,0-14.9,32.2,3.1,62.9l-10.5,14.9l2.3,68.9
				c-15,26.2-71.9,11.9-77.2,41.3c-2.2,12.4-32.2,22.8-32.2,22.8C-4,619.9,235.8,637.5,275.3,695.4c30.9,15,64.8,22.8,99.1,22.8
				c124.8,0,226-101.2,226-226C600.4,391.5,534.5,306.2,443.4,277.1z"/>
		</g>
	</g>
</g>
<path class="st2" d="M457.2,495.8c0,0,21.5,18.5,21.5,24.8s-44.9,32.9-44.9,32.9c15-20.8,27.2-30.8,27.2-39.8
	c0-8.9-16-11.4-20.3-28.3c-16.2,26.2-17,43-17,43l8,54.8l-21.8-2.6c-45.6,45.5-40.4,95.5-40.4,95.5c28.6-83,125.5-84.2,125.5-162.5
	C487.8,507.8,457.2,495.8,457.2,495.8z M198.4,605.3c32.4,7.2,75.7,34.7,75.7,34.7c-3.1-11.5-12.4-22.4-12.4-22.4
	c-54.5-17.3-87.1-51.1-87.1-51.1l-83-45.6c0,0,49.6,0.2,45.1-36.4c-21.5,15.7-62.6,9.6-62.6,26.5c0,18.7,32.6,37.7,97,78.5
	l-99.5-45.6l6-6.5l-6.8-13.3c-0.7,5-26,5.2-26,22.2c0,60,212.4,82.3,251.3,139.1C300.6,655.8,242.6,627.7,198.4,605.3L198.4,605.3z
	 M223,120.2l-11.2-71.6c-79.1,33.7-68.5,195.8-68.5,195.8l80.4-116.8H298c12.8-25.4-2.9-65.9,25.6-83.3h-97.9L223,120.2z"/>
<path class="st0" d="M368.8,498.6l13.6-6.6l-14.9-57.9l6-17.9l40.9-15.7l11.8,5.2l-1.6-18.6c0,0-11.6-11.3-25.3-11.3
	c-13.2,0-18.5,9.5-36.6,31.4c0,0-10.4-27.4-52.9-27.4c-35.9,0-79,16.7-79,16.7c-7.7,10.4-6.6,32.4,45.2,28.6l-7.4,34.1l28.8,4.1
	c0,0-36.6,80.6-16.6,100.1c19.1,18.4,38.6,38,45.5,38c26.6,0,43.6-7,46.8-10.3c1.6-1.4,2.5-4.8,2.5-9c0-14.9-14.8-16.6-26.5-16.6
	c-25.2,0-34.2,8.8-34.2,8.8l4.8-16.2c3.1-12,54-5.6,54-5.6l-1.2-15.8l-10.1,1.6l-21.4-3.4l-50.4,1.4l-2.4-1.9l60-10.6l13.1,2.6
	l11.3-2.8l-6.1-5.5l-6.6,2.5l-1.2-13.2l-35.9-6.1l28.3-9.7L368.8,498.6z"/>
<path class="st0" d="M309.5,632.3l32,21.8l8.4-29l-28-4.1L309.5,632.3z M420.3,421.9l-11.4,2.2c-4.7,18.8-18,11-20.2,6.5l-5.4,19.7
	l9,29.4l7.6,16.1l-13,10.9L397,518l3.5,8.2l14.5-48l11.8-19.2c2-3.2-9.6-26.3-9.6-26.3L420.3,421.9z"/>
<path class="st3" d="M292.1,185l10.9-11.5h-56.4l-47.2,38l41.8-49h68.4v-19.9h-74.4l-66.6,90.2l3.1,15.5
	C171.8,248.4,208.5,185,292.1,185z M431.3,372.5l-64.9-37.2l-130,44.3c0,0,48.1-12.5,83.6-12.5c38.5,0,45.2,20.8,45.2,20.8
	s11.9-21.5,29.9-21.5c13.3,0.1,26.1,4.6,36.7,12.6L431.3,372.5z"/>
<path class="st3" d="M465.2,307.2v73.2c61.8,50.2,71.2,141,21,202.8c-16.6,20.4-38.4,35.9-63.2,44.8c-23.5,38.4-17,61-14,67.6
	c97.2-16.4,171.6-101.3,171.6-203.3C580.6,411.1,533.4,340.8,465.2,307.2z M409.2,543.3l-8.3,22.1l12.8,2.2L409.2,543.3z
	 M248.4,524.7c0-43.8,10.7-89.2,10.7-89.2s-65,4.6-53.5-50.4c0,0-14.2,11.6-27,6.6c0,0,24.5-6.5,24.5-33.1l6.4,19.3l168.8-67.4
	l66.5,57.8l-1.4-26c-7.4,2.8-23.5-8.3-23.5-8.3l2.5-2c0,0,10.8,5.5,20.4,1.6l-1.4-25.6l-73.2-101.8l-16.6,6.2
	c0,0-35.8-15.1-70.6-15.1c-53,0-119,52.4-119,110.4l35.5,2.6l97-72L197,333.8c0,0-8.6-16.9-21-16.9c-8.6,0-21.7,10.2-21.7,35.3
	c0,19.7,9.6,29.3,9.6,29.3l-11.4,15.4c8.4,123.2-5.5,135.8-30.8,128.9l49.4,23.9c0-86.3-3.2-112.6,5.3-112.6
	c13.8,0,12.4,85.8,16.1,126.1c0,0,35.6,41.4,106.7,48.2C299.1,611.3,248.4,579.2,248.4,524.7L248.4,524.7z"/>
<path d="M295,328.2l-5-3.1c-34.1,6.5-28.3-5.2-36.6-5.2c3.2-3.2,0.2-9.6,9-18.2l-0.8-1.1c-21.1,12.6-8.9,20.3-23.4,27.8l0.6,1.3
	C256.1,323.9,249.8,345,295,328.2z"/>
<path d="M188.1,334.1c10.1,25.1-7.9,42.6-15.2,42.6s-11.8-9.1-11.8-9.1s5.5,17.9,16.6,17.9S209.7,359,188.1,334.1z M250.7,343.7
	c-1.9-1.8-4.2-3.2-6.6-4.2c-19.3,1.9-16.4-5.6-23.2-5.4c6-4.6-0.4-8.3,4.3-13l-0.8-1c-17.3,9.7-6.8,16-16.9,20.2l0.5,1.2
	C217.7,338.6,216.6,354.5,250.7,343.7z M317.6,306.3l-2.8-1.1c-24.6,11.5-24.6,0.4-29.5,1.8c2.5-4.2-4.8-9.4,11.9-25.3l-0.2-1.6
	c-28.9,19.2-15.1,26.6-24.2,35.8l1,1.2C283.5,310.8,284.2,328.7,317.6,306.3z"/>
<path d="M405.6,312.7l-2,1.1c20.5,22.1,20.6,6.7,27.8,13l1-1.6c-5.9-9,2.4-17.2-16.4-36.6v1.9c10.4,13.8,5.6,21.1,8.8,26.9
	C419.8,315,418.8,324.2,405.6,312.7z M383.7,288.8c-35.2,9.7-38-41.9-28.2-52.6C316.7,261.1,364.4,319.9,383.7,288.8z M233.9,219.2
	c-65.5,32.5-63.1,78-63.1,78l21.4,1l40.4-26.4C203.8,279.7,157.6,276.1,233.9,219.2L233.9,219.2z M338.6,284.5l-1.8-0.6
	c-19.2,10.2-20.4,2.4-23.3,3.2c2-4.2-6.6-5.3,5.8-21.1l-0.5-2.9c-27,23.9-7.7,24.6-19.3,34.3l1.3,0.5
	C311.1,289.5,309.2,306.9,338.6,284.5L338.6,284.5z"/>
<path d="M549.4,509.5c-2.4,12.5-12.6,0.8-18.2,30c4.4,0.8,8.3-9,14-7.9c5.6,1.2,5.6,11.8,10,12.6C560.8,515,547,522,549.4,509.5z
	 M412.2,306.3l0.8-1.1c-5.9-10.2,5.8-12.4-10.3-35.4l-0.6,3c7.2,15.1,1,18.4,2.6,21.8c-2.6-0.7-5.2,4.7-14.2-5.9l-1.4,0.5
	C403.4,312.2,406.5,298.1,412.2,306.3L412.2,306.3z"/>
<path d="M560.2,492.2c0,5.9-4.8,10.7-10.7,10.7s-10.7-4.8-10.7-10.7c0-5.9,4.8-10.7,10.7-10.7C555.4,481.6,560.2,486.3,560.2,492.2z
	"/>
<path d="M533.7,566.9c-6.5,10.9-12.2-3.5-27.2,22.2c3.8,2.3,10.7-5.6,15.8-2.8c5,3,1.3,13,5.2,15.2
	C542.6,575.9,527.2,577.8,533.7,566.9z M465.3,628.4c2.9,3.4,12.1-1.7,15.8,2.8c3.7,4.6-3.1,12.6-0.2,16.1
	c22.9-19,7.8-22.3,17.6-30.5C488.7,624.9,488.3,609.5,465.3,628.4L465.3,628.4z"/>
<path d="M505.5,394.2c15.4,25.6,21,11.2,27.5,22.1c-6.6-10.9,8.8-9.1-6.5-34.7c-3.8,2.3-0.2,12.2-5.2,15.2
	C516.4,399.8,509.3,391.9,505.5,394.2z M530.3,442.2c6.1,29.2,16.1,17.4,18.8,29.9c-2.8-12.5,11.3-5.8,5-34.9
	c-4.4,1-4.1,11.6-9.8,12.7C538.7,451.2,534.6,441.3,530.3,442.2L530.3,442.2z M487.5,610.5c3.5,2.9,11.8-3.7,16.1,0
	c4.4,3.8-0.8,13,2.6,16c19.3-22.7,3.8-23.4,12.1-33.1C510,603.1,506.9,587.9,487.5,610.5z"/>
<path d="M437.6,643.2c2.2,4,12.2,0.7,15.1,5.9c2.8,5-5.5,11.8-3.4,15.7c26.2-14.2,12-20.4,23.2-26.5
	C461.3,644.3,463.8,629,437.6,643.2z M494.8,363.9c7.1-9.4-27.6-21.2-27.6-21.2S487.6,373.2,494.8,363.9L494.8,363.9z M518.3,391.1
	c-8.3-9.6,7.2-10.3-12.1-33c-3.5,2.9,1.8,12.1-2.5,16c-4.6,3.7-12.7-2.9-16.2,0C506.9,396.6,510,381.5,518.3,391.1L518.3,391.1z
	 M544.2,538.1c-4.6,12-12.6-1.2-23,26.6c4.1,1.6,9.6-7.6,15.1-5.5c5.4,2.2,3.6,12.6,7.8,14.2C554.6,545.4,539.7,550.1,544.2,538.1z
	 M519.9,417.2c10.9,27.7,18.8,14.4,23.5,26.3c-4.7-11.9,10.2-7.6-0.7-35.3c-4.2,1.7-2.2,12.1-7.6,14.3S524.1,415.5,519.9,417.2
	L519.9,417.2z"/>
<path d="M234.4,407.9l57.1,7.9c1.8,9.6,16.7,18.6,27,4.2l15.6,4.4l-12.5,9.8l24,3.2l9.5-18.5l-54.4-22.1L234.4,407.9z M410.2,664.5
	c0,0,36.7,0.7,33.2-10.4C439.8,642.9,410.2,664.5,410.2,664.5z"/>
</svg>
