<?xml version="1.0" encoding="utf-8"?>
<!-- Generator: Adobe Illustrator 21.1.0, SVG Export Plug-In . SVG Version: 6.00 Build 0)  -->
<!DOCTYPE svg PUBLIC "-//W3C//DTD SVG 1.1//EN" "http://www.w3.org/Graphics/SVG/1.1/DTD/svg11.dtd">
<svg version="1.1" id="Layer_1" xmlns="http://www.w3.org/2000/svg" xmlns:xlink="http://www.w3.org/1999/xlink" x="0px" y="0px"
	 width="595px" height="417.1px" viewBox="0 0 595 417.1" style="enable-background:new 0 0 595 417.1;" xml:space="preserve">
<style type="text/css">
	.st0{fill:#FFFFFF;}
	.st1{fill:#F74902;}
</style>
<title>Untitled-1</title>
<path class="st0" d="M405.5,0H0v19.1c-0.1,29,11.1,56.9,31.3,77.6H0v19.2c-0.1,28.9,11.1,56.8,31.3,77.5H0v19.1
	c-0.1,29,11.1,56.9,31.3,77.6H0v19.2c0,59.4,45.4,107.8,101.3,107.8h94.1l63.8-107.9c35.9,43.7,89.6,69.8,146.2,69.8
	C509.9,379.1,595,294,595,189.5S509.9,0,405.5,0z"/>
<path class="st0" d="M405.5,6.4H6.1v12.5C6.1,54,23,85,48.4,103.1H6.1v12.7c0,35,16.9,66,42.2,84.2H6.1v12.5
	c0,35.2,16.9,66.1,42.2,84.2H6.1v12.7c0,55.8,42.6,101.3,95,101.3h90.4l66.7-112.7c34.5,46.8,89.1,74.5,147.2,74.6
	c101,0,183.2-82.2,183.2-183.2S506.5,6.4,405.5,6.4z"/>
<path d="M405.5,18.8h-383c0,49.1,37,88.8,82.3,88.8h144.4c2.2,0,4.1,1.8,4.1,4.1c-0.1,2.2-1.9,4-4.1,4.1H22.4
	c0,49,37,88.7,82.3,88.7h87c2.2,0,4,1.7,4.1,4s-1.7,4-4,4.1c0,0-0.1,0-0.1,0H22.4c0,49.1,37,88.7,82.3,88.7h29.8
	c2.3,0,4.1,1.9,4.1,4.2c0,2.2-1.8,4-4.1,4.1H22.4c0,49,37,88.7,82.3,88.7h79.6L333,146.8c23.6-40.1,75.2-53.4,115.3-29.8
	s53.4,75.2,29.8,115.3c-23.6,40.1-75.2,53.4-115.3,29.8c-25.1-14.8-40.8-41.6-41.4-70.8l-56.3,95.2c31.8,46.2,84.3,73.7,140.4,73.7
	c94.2,0,170.6-76.4,170.6-170.6S499.7,18.8,405.5,18.8z"/>
<path class="st1" d="M454,189.5c0,26.7-21.7,48.4-48.5,48.4c-26.7,0-48.4-21.7-48.4-48.5c0-26.7,21.7-48.3,48.4-48.4
	C432.3,141,453.9,162.7,454,189.5z"/>
</svg>
