<?xml version="1.0" encoding="utf-8"?>
<!-- Generator: Adobe Illustrator 21.1.0, SVG Export Plug-In . SVG Version: 6.00 Build 0)  -->
<!DOCTYPE svg PUBLIC "-//W3C//DTD SVG 1.1//EN" "http://www.w3.org/Graphics/SVG/1.1/DTD/svg11.dtd">
<svg version="1.1" id="Layer_1" xmlns="http://www.w3.org/2000/svg" xmlns:xlink="http://www.w3.org/1999/xlink" x="0px" y="0px"
	 width="618.3px" height="590.3px" viewBox="0 0 618.3 590.3" style="enable-background:new 0 0 618.3 590.3;" xml:space="preserve"
	>
<style type="text/css">
	.st0{fill:#FFFFFF;}
	.st1{fill:#FCB514;}
</style>
<title>Untitled-2</title>
<path class="st0" d="M211.9,453c-4.3,1.5-9.3,2.7-14.5,2.7h-181l45.3-81.4h105L0,84.4h108.3c9.8-10,12-13.8,12.4-14.7l0.1-0.1
	c5.8-15.4,11.8-31.4,33.5-44.5c2-1.2,3.9-2.4,5.8-3.5C179,10,195.4,0,212.9,0c24.3,0,41.8,21.2,53.5,35.1c2.8,3.4,6.6,8,8.6,9.6
	c4-0.8,13.5-5.1,21.2-8.6c19-8.6,42.7-19.4,63.2-19.4c14.9,0,38.7,4.9,68.9,27.5c4.7-1.7,9.7-2.7,14.7-2.7c20.6,0,30.3,17.1,36.1,29
	c0.3,0.2,0.7,0.3,1,0.5c0.4-0.4,0.7-0.8,1.1-1.2c5.1-5.1,12-7.9,19.5-7.9c9.4,0,19.1,4.4,26.8,12.1c3.1,3.1,5.6,6.6,7.6,10.4h46.9
	l-63.2,109.9l99.6,32.9l-1.7,7.1c-5,21.3-15,31.8-19.9,35.9c-4.9,13.9-19.2,23.5-35.7,23.5c-5.6,0-11.8-1.1-16.3-2.1
	c-5,4.5-10.1,6.7-13.8,7.8c-5.2,13.2-14,22.4-25.6,26.6l-79.2,29.2l-11.2,19.5l0.1,0.4c5.5,7.3,11.5,17.1,13.7,27.3h5.1v51.9h-64.7
	l-78.2,136.1L211.9,453z"/>
<path class="st0" d="M568,92.4h-38.3c-1.7-4.8-4.5-9.1-8-12.7c-11.2-11.2-26.2-13-34.9-4.2c-1.8,1.8-3.2,4.1-4.1,6.5
	c-3-2.1-6.2-3.9-9.6-5.2c-5.4-11.3-13-27.2-30.1-27.2c-5.5,0.1-10.9,1.4-15.8,4c-12.7-10-40-28.7-67.8-28.7
	c-30.6,0-73.1,28.1-85.4,28.1c-9.1,0-29.4-44.9-61-44.9c-16.9,0-34.1,11.5-54.6,23.9c-19.4,11.8-24.6,25.8-30.2,40.8
	c-2,4.8-10.4,13.7-16.4,19.7H13.8l166.7,289.9H66.4L30,447.7h167.4c5.8,0,12.1-1.9,17.9-4.9l75.6,131.5l73.6-128h61.3v-35.9h-4.2
	c0-12.5-9.5-26-14.2-32l-0.8-5.2l14-24.5l82-30.2c13.3-4.9,19.4-16.9,22.3-26.2c0,0,9.1-0.1,17.3-9.6c5.8,1.6,13.2,3,18.8,3
	c12.4,0,25.4-7,28.8-20.3c0,0,13.1-8,19-32.9l-102-33.7L568,92.4z"/>
<path d="M488.5,217.9l12.8,4.3l-0.1,8.2c-6.8-0.2-12.4-1.6-12.4,18.5c0,14.9,2.9,19.7,2.9,23.9c0,7.1-0.6,8.8-23,8.8
	c0,0-3.5-4.2-15.7-9c0,0-0.2-1.1-0.7-3.1l94.8-164.9h-28.8c2.2-4.1,0.1-10.9-5.2-16.2c-6.1-6.1-14-8-17.8-4.3
	c-1.7,1.7-2.3,4.2-1.7,7.1l-11.8,12.4c0.2-1.8,0.8-11.6-17.6-16.9c-5.5-11-10.2-24.8-21.4-24.8c-9,0-16.9,6.8-16.9,6.8
	s-33.8-31.6-66.7-31.6c-28.7,0-68,28.1-85.4,28.1c-18.5,0-34.9-44.9-60.8-44.9c-14,0-30.6,11.3-48.4,22.2
	c-17.8,10.7-21.1,24-25.4,34.8c-2.9,7.2-12,16.8-22.6,27.2h-82l166.6,289.6c-1.2,0.2-2.5,0.4-3.7,0.5H73.5l-22.9,41.2h147
	c6.2,0,14.8-3.7,19-8.3l2.4-2.5l72,125.3l66.6-115.8h56.2v-11.8h-13.4l-2.4-7.4h2l9.7-4.6c0-11.2-13.6-27-13.6-27l-2.2-12.6l18.5-32
	l86-31.8c15.2-5.5,16.9-27.8,16.9-27.8s14,6.6,21.7-10.4c0,0,15.6,4.9,24,4.9c7.3,0,17.6-4,17.6-14.9c0,0,11.2-6.8,14.9-18.4
	l-101.3-33.6L488.5,217.9z"/>
<path class="st1" d="M236.3,336.2c-5.3-12.8-3-15.7-3-15.7s-17-14-12-31.4c0,0-43.9-63.7-43.9-101.5c0-19.6,9.4-17.6,9.4-33.7
	c0-13.1-8.9-22.9-15.4-22.9c-7.4,0-30.5,15.2-64.1,35.2l12.7-29.3l-30.7,31.4c0,0-6-30.7,10.6-47.3c2.6-2.6,5.4-5.4,8.2-8H49.3
	l160.1,278.4c2.8-1.2,5.3-2.9,7.4-5l25.3-25.4C238.1,351.4,236.3,341.6,236.3,336.2z M497.2,112.9l-2.3,2.6
	c9.4,11.2,5.5,22.4,5.5,22.4c0,8.6-4.6,8.5-4.6,8.5c0,20-10.6,16.4-10.6,16.4c0,26.4-29,15.7-29,15.7c-4.1-0.5-8.1-1.7-11.9-3.5
	l-19.7,22c10,19.4,18.2,39.7,24.5,60.6l83.3-144.8L497.2,112.9z M355.2,421l3.5-6h-5.6L355.2,421z M429,141.2l-3-6.7
	c-15.5,2.6-29.4-5.3-33.4-7.3s0.4-10.7,0.4-10.7c-0.9-1.4-2.1-2.7-3.5-3.6h-16.2c-3.1,2.8-3.8,7-1.3,9.5
	c16.1,16.8,30.2,35.5,42,55.6l18-18.8L429,141.2z M386.2,367.3L399,345l-14.3,7L386.2,367.3z M360,325.8c0-1.8-26.4-8.8-36.7-12.7
	c-9.5,3.7,2.8,5.5,2.8,17.9c0,7.3-3.5,15.8-3.5,15.8l-5.3,1.4c0,0-10.6,19.4-17.3,16.6c-9.6,16.9-13.6,20.8-28.8,20.8
	c-4.6,0-9.2-1.3-13.1-3.7l-33.4,36.4L290.9,533l56.8-98.8h-40.8c0-10.6,6.6-19.2,6.6-19.2c0-16.8,10.4-20.3,18.1-21
	c16.2-1.4,22.9-0.1,22.9-8c0-5.6-0.5-12.4-0.5-12.4h6c0-21.8-6.1-27.2-6.1-38.4C353.9,330.9,360,329.1,360,325.8L360,325.8z"/>
<polygon class="st1" points="330.7,422.5 336.3,422.5 338.7,415 326.5,415 "/>
<path class="st0" d="M518.7,227.8l-4.1,6.1l29,9.7l-0.1-7.6L518.7,227.8z M562,242.2l-4.4,6l11.3,3.7l-1.6-7.9L562,242.2z
	 M368.5,415l-4.3,7.4h17.6l2.2-7.4H368.5z"/>
<path class="st0" d="M567.6,261.8c0.5,2-2,4.4-5.6,5.3c-3.7,0.8-7-0.1-7.4-2.2c-0.5-1.9,2-4.3,5.6-5.2S567.1,259.8,567.6,261.8z"/>
<path class="st0" d="M331,399.6c1.2,1.7-0.1,4.8-3,7.1c-3,2.3-6.4,2.9-7.7,1.2c-1.3-1.6,0-4.8,3-7.1
	C326.2,398.5,329.7,397.9,331,399.6z"/>
<path class="st0" d="M453.9,78.9l-5.4-11.5c-0.5-1.1-4.2-1-4.2,1.3C444.1,70.3,448.1,78.9,453.9,78.9z M453.6,91.2l-17-23.2
	c-2.4-0.1-4.5,1.4-5.2,3.7l18.5,19.7C452.3,93.9,453.6,91.2,453.6,91.2z M448.2,99.8l-20.3-23.2c-2.6-3-7.3,2.8-7.3,2.8l22.8,22.4
	C445.6,103.9,449.3,100.9,448.2,99.8z M441,106.3c0-5-21.7-21.7-25.1-21.7c-3.5,0-5,4.2-5,4.2l27.7,19.7
	C439.5,109,441,106.9,441,106.3L441,106.3z M433.6,117.8c1.6,0.8,4.1-4.1,2.5-5.2c-9.6-6.5-19.1-12.5-29.8-17.3
	c-2.6,3.6-1.8,6.7-1.8,6.7L433.6,117.8z M428.9,126.7c1.1,0.5,4.1-2.8,2-4.2c-2.5-1.6-22-12.4-27.8-14c-3.4,3.4-1.4,5.4-1.4,5.4
	L428.9,126.7z M422.5,129.9c0,0-13.8-7.3-24.7-10.4l-0.7,2.3C397.1,121.8,403.1,130.9,422.5,129.9z M486.9,116.8l11,19.4
	c-0.6-7.8-3.6-15.1-8.6-21.1C489.3,115.2,486.9,114.8,486.9,116.8z M496.3,142.9c0-7.7-12.2-21.1-12.2-21.1l-2.9,5.9l11.8,17.8
	C493,145.4,496.3,147.1,496.3,142.9L496.3,142.9z M474.9,138.8c0,0,5.4,15.7,11.3,15.7c0,0,2.3-10.4-7.7-19
	C475.3,135.6,474.9,138.8,474.9,138.8z M466.3,146.1c0,0,3.4,21.2,12.8,21.2C480.1,164.1,476.3,146.1,466.3,146.1L466.3,146.1z
	 M469.8,178.4c3.2-13.7-10.8-27.8-10.8-27.8c-9.8-0.7-10.1,2.8-10.1,2.8S455.9,178.4,469.8,178.4z M435.5,155.8
	c2.1-1.3,4.5-1.9,7-1.7c-2.8-8.6-7.7-6.6-7.7-6.6C432.9,150.4,435.5,155.8,435.5,155.8z M486.3,110.4c9.1,0,16.2-9.4,16.2-11.4
	c0-1.9-1.9-3.2-5.5-3.2c-3.5,0-13,10.1-13,13C484,109.3,484.5,110.4,486.3,110.4z M452.9,140.5c0.5,1.9,2.3,3.2,4.3,3
	c7.2,0,21.8-15.5,21.8-28.2c0-2.5-3.8-2.6-3.8-2.6C461.9,121.3,452.9,140.5,452.9,140.5L452.9,140.5z M472.6,108
	c8.6-4.3-0.4-15.5-6.5-12c-25.3,16.4-28,41.6-28,41.6s2.3,3.6,8.3,2.6C446.4,140.2,460,114.1,472.6,108z M291,287
	c-1.9,12,2.2,18.4,2.2,18.4c1.6-0.8,2.6-0.4,2.6-10.4S291,287,291,287z M277.2,279.9c-1.2,7.7,1.2,21.5,1.2,21.5s5,2,6.7-0.5
	c-0.4-2.8-0.4-8.9-0.4-12.6C284.8,279.1,277.2,279.9,277.2,279.9L277.2,279.9z M267.6,276.7c-2.8,6-0.8,14.8-0.8,20.9
	c0,6.4,4.2,6.1,6.2,5C270.6,297.8,277.1,281.2,267.6,276.7L267.6,276.7z M260.4,292.5c0-21.7-7.4-18-7.4-10.2
	C253,291.1,257.9,295,260.4,292.5L260.4,292.5z M250.8,299.6c0-1.8-2.6-1.7-2.6-15.2c0-10.8-12.1-6.7-12.1-1
	c0,5.6,9.8,12.7,9.8,16.9C245.9,300.3,250.8,302.2,250.8,299.6z M228.6,287.7c-9.2,12.8,5.9,26.2,5.9,26.2s5.6,0.5,8.6-2.6
	C243.1,311.2,238.5,293.7,228.6,287.7z M286.1,338.5c1.4,32.8-3.8,32.2-3.8,37.2c0,8.2,13.9-2.3,13.9-22.9
	C296.2,328.4,286.1,338.5,286.1,338.5z M255,326.5c7.8,31.9,17.4,50.6,21.4,51.7c0,0,2.8-4.7,2.8-32.3
	C279.1,345.9,272.3,316.9,255,326.5z M242.7,338.5c2.6,29.8,20.5,42.5,20.5,42.5l3.5-1.9c0,0-9-17-18.8-48.6L242.7,338.5z
	 M316.6,327.7l-0.7,7l4.7,0.7l1.3-4C320.5,330.7,319.3,327,316.6,327.7L316.6,327.7z M307.6,324.7c-5.3,0-3.4,11.6-3.4,15.5
	c0.1,2-0.4,4-1.4,5.8c1.1,2,1,7.4,4.4,7.4c2,0,4.9-3,4.9-10.6C312.1,331.4,312.4,324.7,307.6,324.7L307.6,324.7z M296.5,318.6
	c-3.1,0-4.8,3.7-4.8,10c0,2,2.5,3.6,4.1,3.6c1,0,3.4-2.3,3.4-9.4C299.2,320.6,298.3,318.6,296.5,318.6L296.5,318.6z M289,316.8
	c0-5.2-4.6-6.1-9.5-6.1s-7.6,3.4-7.6,5.5c0,5.4,5.5,11.3,7.9,11.3C281.3,327.4,289,323.2,289,316.8L289,316.8z M265.3,317.1
	c0,0,2-7.6-3.8-7.6c-12,0-23.5,10-23.5,15.1c0,1.7,0.4,3.4,1.1,4.9C239.1,329.6,254.8,314.6,265.3,317.1L265.3,317.1z M437.4,160.5
	l-137.9,145c-5,5.2,8.2,14.4,12.8,9l132-147.2C449.3,161.8,442.5,155.5,437.4,160.5z M166.9,71.5c0-5.3,7.4-10.7,8.4-13.2
	c0,0-4.9-6.6-11.8-3.2c-1,14.9-4.8,22-6.5,31.1c5.5,4.7,3.7-7,11.8-7c2.6,0,6.6,3.2,6.6,7.1c0.1,2.5-0.8,5-2.5,6.8l5.6-0.5
	c0,0,2.4-2.4,2.4-7.2c0.1-10.8-14.2-11-14.2-13.9H166.9z M99.7,127.8c-5.9,6.7-6.7,26.2-6.7,26.2l48.8-41.9l-19.6,35.9
	c0,0,33-15,36-22.4c-5.4-11.7-12.7-22.4-21.8-31.6C136.5,93.9,105.9,121,99.7,127.8z M331.8,300.9c28.8,12.4,55.6,19,69.5,19
	c13,0,30.6-3.6,30.6-31.6c0-18.4-10-44.3-25.9-70.3L331.8,300.9z M307.9,289.5l85.7-90.1c-31.3-43.4-77-82.7-118.3-82.7
	c-36.7,0-61.6,27.1-61.6,55.8C213.7,224.1,260.1,264.2,307.9,289.5L307.9,289.5z M505.1,231l5.5,1.8l6.5-9.6l30.2,10.1l0.4,11.8
	l6,1.9l6.7-9.4l10.2,3.4l2.5,12.5l4.2,1.4c4.5-3.2,8.3-7.3,11-12.1l-93.7-31l-1.2,3.6l11.9,4l-0.1,11.6H505.1z M388.1,415l-3.2,11.4
	h-31.8l-4.2-11.4h-6l-3.7,11.4h-10.7L322,415h-3.5c-3.7,4.4-6.3,9.6-7.4,15.2h98.6v-3.8h-12.5l-3.6-11.4L388.1,415z M59.3,430.5
	h19.9l17.3-31h-20L59.3,430.5z M220.6,390c-5.4,5.3-15.5,9.6-23,9.6h-0.7l-14,31h14.6c4.9,0,12-3.1,15.2-6.7l40.9-44.5l-9.4-13.2
	L220.6,390z"/>
</svg>
