<?xml version="1.0" encoding="utf-8"?>
<!-- Generator: Adobe Illustrator 26.1.0, SVG Export Plug-In . SVG Version: 6.00 Build 0)  -->
<svg version="1.1" id="Layer_1" xmlns="http://www.w3.org/2000/svg" xmlns:xlink="http://www.w3.org/1999/xlink" x="0px" y="0px"
	 viewBox="0 0 229.4 288" style="enable-background:new 0 0 229.4 288;" xml:space="preserve">
<style type="text/css">
	.st0{fill:#001425;}
	.st1{fill:#96D8D8;}
	.st2{fill:#C8102E;}
	.st3{fill:#639FB6;}
</style>
<g>
	<g>
		<path class="st0" d="M0,234.5c56.1,4.9,91.7,20.7,109,53.5c59.3-9.6,114.2-47.6,114.2-96.7c0-65.3-79.2-75.6-81.3-94.6
			c33.3,12.1,69.9-0.6,87.4-42.2C177.7,50.7,139.8,31.8,123.4,0C60,11.3,9.3,52.3,9.3,96.7c0,64.8,83.2,81.9,92.6,95.7
			C56.4,175.1,17.2,194.8,0,234.5z"/>
		<path class="st1" d="M98.4,93.3C91.3,86.1,88.4,80.5,88.4,73c0-8.5,4.1-12.7,4.1-17.5c0-4.1-2.6-7.3-7.5-8.3
			c2.9-3.2,6.9-5.1,10.6-5.1c21.2,0,27.4,46.8,71.6,45.1c15.7-1.5,30.6-9.2,40-22.6c-38.6-5-73.8-21.4-91-49.3l0,0
			c-17.8,3.2-92.7,29.1-90.8,83.1c2,56.3,85.2,71.9,108.5,96.1c18.4,19.1,5.4,38.3-6.4,45.2c-18.3-47.6-78.4-50.9-102.3-16.6
			c38.6,5,73.8,21.4,91,49.3c42.6-8.9,63.1-46.2,55.3-73.1c-12.9-44.5-96.9-52.4-119.2-94.1c-11.9-23.5-2.1-48.5,19.6-63.1
			c-8.5,11-12.6,23.7-12.4,35.6c1.9,2.1,2.8,7,2.8,7.1c0.3,1.7,0.8,5.4-0.1,7.6c0.9,2.5,2.2,4.9,3.6,7.2c2.9,0.7,6.2,4.5,6.2,4.6
			c3.2,3.7,3.7,6,3.8,6.9c2,1.8,4.1,3.5,6.3,5.1c1.9-0.2,4.7,0.7,7.6,2.5c3.3,2.2,5,4.4,5.5,6c2.3,1.4,4.7,2.7,7.2,4
			c1.9-0.5,4.9,0.1,8,1.7c3.1,1.6,5.4,3.8,6.1,5.6c2.4,1.2,4.9,2.4,7.4,3.7c1.9-0.5,5,0,8.1,1.6c3.1,1.6,5.3,3.7,6,5.5
			c2.5,1.3,5,2.6,7.5,4c2.3-0.5,6,0.9,8,2.1c2.9,1.8,5,4.1,5.6,5.9c2.5,1.6,4.9,3.3,7.2,5c1.9-0.1,4.8,1,7.5,3.3
			c2.9,2.5,4.4,5.3,4.4,7.2c2,2.1,3.8,4.4,5.5,6.7c2.4,0.6,4.8,3.3,6.1,6.1c1.8,4,1.6,6.8,1.1,8.3c3.2,10,4.1,22.5-1.1,36.9
			c-0.1,0.1-0.1,0.3-0.2,0.5c10.7-11.7,18-26.1,17.4-43.4C205,133.2,121.7,117.5,98.4,93.3z"/>
		<path class="st2" d="M130.4,99.2c-9.5-10.9-15.6-30.3-26.1-37.9C99.6,78,109.4,96.3,130.4,99.2z"/>
		<path class="st3" d="M122.9,256.2c-3.4,10.1-6.7,16.3-6.7,16.3c-17.2-27.9-52.4-44.2-91-49.3C65,203.3,106.3,224.3,122.9,256.2z
			 M207.1,64.7c-39.9,20-81.1-1-97.7-33c3.4-10.1,6.7-16.3,6.7-16.3C99.3,18.5,23.4,44,25.3,98.5c2,56.3,85.2,71.9,108.5,96.1
			c18.4,19.1,5.4,38.3-6.4,45.2c-1.4,6.1-3,11.6-4.6,16.4c8.7-1.5,35-15.4,35.1-42.2c0.2-36.9-47.5-46.7-83.6-69.1
			c-29.8-18.4-35.5-36.7-37-48.3C33.8,69.4,53,44.5,80.9,32.7c-4,3.4-7.1,6.8-9,9.4c-8.5,11-12.6,23.7-12.4,35.6
			c1.9,2.1,2.8,7,2.8,7.1c0.3,1.7,0.8,5.4-0.1,7.6c0.9,2.5,2.2,4.9,3.6,7.2c2.9,0.7,6.2,4.5,6.2,4.6c3.2,3.7,3.7,6,3.8,6.9
			c2,1.8,4.1,3.5,6.3,5.1c1.9-0.2,4.7,0.7,7.6,2.5c3.3,2.2,5,4.4,5.5,6c2.3,1.4,4.7,2.7,7.2,4c1.9-0.5,4.9,0.1,8,1.7
			c3.1,1.6,5.4,3.8,6.1,5.6c2.4,1.2,4.9,2.4,7.4,3.7c1.9-0.5,5,0,8.1,1.6c3.1,1.6,5.3,3.7,6,5.5c2.5,1.3,5,2.6,7.5,4
			c2.3-0.5,6,0.9,8,2.1c2.9,1.8,5,4.1,5.6,5.9c2.5,1.6,4.9,3.3,7.2,5c1.9-0.1,4.8,1,7.5,3.3c2.9,2.5,4.4,5.3,4.4,7.2
			c2,2.1,3.8,4.4,5.5,6.7c2.4,0.6,4.8,3.3,6.1,6.1c1.8,4,1.6,6.8,1.1,8.3c3.2,10,4.1,22.5-1.1,36.9c13.7-23.3,12.4-46.4-2.9-65.9
			C154.7,125.6,74,120.7,74.3,73.9c0.1-11.1,4.7-20,10.7-26.7c2.9-3.2,6.9-5.1,10.6-5.1c21.2,0,27.4,46.8,71.6,45.1
			C182.9,85.8,197.8,78.1,207.1,64.7L207.1,64.7L207.1,64.7z"/>
	</g>
</g>
</svg>
