<?xml version="1.0" encoding="utf-8"?>
<!-- Generator: Adobe Illustrator 21.1.0, SVG Export Plug-In . SVG Version: 6.00 Build 0)  -->
<!DOCTYPE svg PUBLIC "-//W3C//DTD SVG 1.1//EN" "http://www.w3.org/Graphics/SVG/1.1/DTD/svg11.dtd">
<svg version="1.1" id="Layer_1" xmlns="http://www.w3.org/2000/svg" xmlns:xlink="http://www.w3.org/1999/xlink" x="0px" y="0px"
	 width="320.1px" height="272.1px" viewBox="0 0 320.1 272.1" style="enable-background:new 0 0 320.1 272.1;" xml:space="preserve"
	>
<style type="text/css">
	.st0{fill:#FFFFFF;}
	.st1{fill:#F4901D;}
	.st2{fill:#00788A;}
</style>
<title>Untitled-1</title>
<g>
	<path class="st0" d="M135.5,233.3c-7.8,8.2-14.1,17.8-18.4,28.3l-1.5,3.6l-3.9,0.1c-17.8,0.6-32.5,1.5-32.6,1.5l-3.8,0.2l-6.5-11.9
		l1.8-3c12-19.5,27.1-36.8,44.7-51.3l-4.9-8C60,180.2,22.4,165.2,9.8,152.6L0,142.8l13.8-0.4c0.4,0,36.7-1.2,63.9-2.6L28.3,59.9
		L42.2,63c29.4,6.6,59.5,11.5,89.6,14.7c-7.3-28.4-29.1-64.2-29.3-64.6L94.5,0l14.8,4.2c1.6,0.5,40,12,82.5,73.1
		c38-4.1,84.6-14.3,85.1-14.4l13.8-3L268,96.6c3.6-1.7,7.4-3.6,11.1-5.4l11.6-5.7L287.6,98c-4.2,17-10.2,33.6-17.7,49.5
		c4.7-8.2,10.5-18.5,16-29.2l-0.7-4.3l6.4-11.3l2.5-0.6c2.9-0.7,6-1.1,9-1.1c4.5,0,8.9,0.8,13.1,2.4l3.9,1.5l0,4.2
		c0,4-0.3,8.1-0.8,12.1c-0.6,5-4,9.2-8.6,10.9c-6.9,13.6-15.1,26.5-24.4,38.5l2.4,1.9l-1.3,3.7l5.7,4.7l-13.1,9.5
		c3.5,9.9,5.9,20.1,7.4,30.4l0.1,0.4v0.4c0,10.6-12.7,10.7-17.8,10.7c-1.4,0.1-2.8,0.2-4.2,0.2c-6,0-12-1-17.7-2.8
		c-3.1,0.9-6.3,1.4-9.5,1.4c-3.1,0-6.2-0.4-9.2-1.3c-2.7,0.4-5.4,0.7-8.1,0.7c-3.1,0-6.2-0.3-9.2-0.9c-1.5,0.6-3.1,0.9-4.7,0.9
		c-1.9,0-3.6-0.4-5.3-1.2l-1.4-0.6c-1,0.2-1.9,0.2-2.9,0.2c-1.7,0-3.3-0.2-4.9-0.7l-4.2-1.2l0-1.1l-28.6,46.3L135.5,233.3z
		 M130.6,207.7c-16.3,12.4-30.4,27.1-41.9,43.9c4.8-0.3,11.1-0.6,17.2-0.8c6.6-13.6,16.1-25.9,27.5-35.7l5.3-4.6l20.8,33.7
		l22.1-35.8l-3.5,0c-1.9,0-4,0-6.2,0c-14.3,0-25.3-0.7-34.1-1.4l-3-0.2l-1-1.6L130.6,207.7z M249.7,214.7c4.9,2,10,3,15.3,3
		c1.2,0,2.4-0.1,3.6-0.2l0.3,0h0.3c1.1,0,1.9,0,2.7-0.1c-2.1-11.9-5.7-23.4-10.7-34.4l-0.2-0.5l-0.2-1c-3.2-13.2-3.3-13.2-7.9-15.6
		l-1.2-0.6l-4.5-5.8l2-3.5c7.8-13.8,14.2-28.3,19.1-43.3c-6.7,3.2-13.2,6.2-18.8,8.8c-8,3.7-15.7,7.2-18.7,9L226,137l-5-4.4
		c-7.8-7-16.1-13.6-24.7-19.7l-1.2-0.9l-0.7-1.3c-13.3-26.1-38-59.1-65.3-79c7.2,14.6,17,35.8,19.3,55l0.9,7.3l-7.4-0.7
		c-27.8-2.5-55.7-6.5-83.1-11.9l44.2,71.5l-10,0.6c-18.4,1.1-35.8,1.9-48.8,2.4c17.8,7.4,47.3,17.8,83.5,26
		c7.9,1.7,16.1,2.6,24.3,2.6c0.6,0,1.2,0,1.8,0l2.6-3.2c8.9,5.4,17.2,10.9,24.4,15.8l12.2,8.1l0.2,0l1.8,1.1c2,1.3,3.7,2.3,5.2,3.1
		l2.1,1.2l1.5,0.8c1.7,0.9,3.2,1.6,4.5,2.1l1.3,0.5l2.1,0.6c2.9,0.8,5.8,1.2,8.8,1.2c2.5,0,5-0.3,7.4-0.8l1.8-0.4l1.8,0.7
		c2,0.8,4.2,1.3,6.4,1.3c2.5,0,4.9-0.5,7.1-1.6l2.4-1.1L249.7,214.7z M300.8,118.5l0.2-0.5l3.7,0.1c0.1-0.9,0.2-1.8,0.2-2.6
		c-0.6-0.1-1.3-0.1-1.9-0.1c-0.7,0-1.3,0-2,0.1l-0.6,1.1L300.8,118.5z"/>
	<path class="st0" d="M311.4,110.8c0,1.8-0.3,4.8-0.7,9.2c-0.4,4.4-5.8,4.2-5.8,4.2c-8.5,18.2-19.7,35-33.1,49.9l-1.5-0.1l-2.2,1.5
		l-1.9-4.6c0,0,15.2-24.3,28.9-51.2l-0.7-4.2l3-5.4C302,109.1,306.8,109.3,311.4,110.8 M278.6,175.7c-0.2,1.4,0.1,2.9,0.9,4.1
		l-2.2,1.6c-2.4-0.9-4.6-2-6.7-3.4l-0.4-1.6C270.1,176.4,275.7,173.8,278.6,175.7 M278.6,221.5c0,1.2-2.3,2-9.4,2
		c-7.4,0.7-14.9-0.5-21.7-3.3c-5.8,2.7-12.4,2.8-18.3,0.4c-6.3,1.4-12.9,1.3-19.1-0.4c-1,1.1-2.4,1.6-3.8,1.3
		c-0.2-0.9-0.3-1.7-0.2-2.6c-1.6-0.6-3.2-1.4-5-2.3c-0.5,1.1-1.1,2.2-1.8,3.2c-0.9,0.2-1.8,0.3-2.7,0.2c-0.1-1.2-0.7-2.4-1.7-3.2
		c0.5-1,1.3-1.8,2.3-2.3c-1.7-1-3.5-2.1-5.4-3.3c-1.8,0.2-3.6,0.4-5.3,0.6l-27,43.6l-22.2-36c-11.8,10.1-21.3,22.8-27.6,37.1
		C96.3,257,80.4,258,80.4,258l-1.4-2.7c12.7-20.3,28.9-38,48-52.5l-9.5-15.3c1.9,0.5,4.6,1.1,7.5,1.8c0.6,0.1,1.3,0.3,1.9,0.4
		c1.7,0.4,3.4,0.7,4.9,1l6.5,10.4c7.2,0.5,18.6,1.3,33.6,1.3c2.2,0,4.3,0,6.2,0c-7.5-5-15.7-10.5-24.8-16c1.2,1.3,2.5,2.6,3.7,4
		c-10.3,0.4-20.5-0.5-30.6-2.6c-62.6-14.2-105-34.4-105-37.1c0,0,33.3-0.8,71.3-3.1L46.5,72.8c31.7,6.8,63.8,11.7,96.1,14.6
		c-3.6-30.3-27-66.3-27-71.2C139.2,28,175.9,61,199.8,108c8.8,6.3,17.2,13,25.2,20.1l1.4-1.9c5.2-3.6,28.7-13.3,50.1-24.2
		c0.5-0.3,0.9,0,0.9,0.8c-5.4,19.6-13.2,38.5-23.2,56.3l1.2,1.5c7.3,3.7,7.8,6.2,11.1,19.9C272.5,193.6,276.6,207.4,278.6,221.5
		 M272.5,72.8L247,114.1c-2.8,1.3-5.5,2.5-8.1,3.7c-0.8,0.4-1.6,0.7-2.3,1.1c-2.1,1-4,1.9-5.7,2.7l22.4-35.5
		c-15.7,3-37.2,6.6-58.2,8.9c-0.6-1-1.2-2-1.8-3c-0.3-0.5-0.5-0.9-0.8-1.4c-0.9-1.5-1.8-3-2.8-4.4C229.1,82.3,272.5,72.8,272.5,72.8
		 M295.6,107.8l-4.1,7.3l0.7,4.2c-10.8,21.1-22.5,40.7-26.7,47.6c-1.5-3.6-4.4-6.5-8-8.1c10.7-19.6,18.9-40.5,24.3-62.2
		c-14.5,7.2-29.6,14.3-29.6,14.3l25.9-41.9c0,0-49.9,10.9-89.3,14.8C146.3,21,107.6,10,107.6,10s26.8,43.8,31.8,74.5
		c-33.1-3.1-66-8.4-98.4-15.7l47.2,76.4c-27.6,1.6-74.1,3.1-74.1,3.1c11.8,11.8,50,26.9,100.3,39.3l9,14.6
		c-18.8,14.8-34.9,32.7-47.5,53.1l3,5.5c0,0,14.7-0.9,32.8-1.5c5.5-13.6,14.1-25.7,25.1-35.5l22.8,36.9l28.6-46.2l3.1-0.4l1.7,1
		c-0.6,0.8-1,1.6-1.5,2.5c2.4,1.6,2.4,1.9,2.6,4.7c2.3,0.7,4.8,0.6,7-0.2l1.1-2l1.3,0.6c0.1,1,0.3,1.9,0.6,2.9
		c2.2,1,4.7,0.8,6.7-0.6c6.1,1.4,12.3,1.5,18.4,0.3c6,2,12.5,1.9,18.4-0.3c6.9,2.6,14.3,3.6,21.7,3c5.8,0,12.1-0.4,12.1-4.7
		c-2-14.2-5.9-28-11.8-41c2.5,1.7,5.3,3,8.3,3.9l5.4-3.9c-1.7-1.5-2.4-3.8-1.7-6c-1.4-1-3-1.7-4.6-2c11.6-14,21.5-29.4,29.6-45.7
		c3.5-0.2,6.4-2.9,6.8-6.4c0.5-3.8,0.7-7.6,0.8-11.4C308.1,106.6,301.7,106.3,295.6,107.8"/>
	<path class="st0" d="M159.5,234.7l13.6-21.5c-11.9,1-21.3,1.3-26.3,1.3L159.5,234.7z"/>
	<path class="st0" d="M215.7,216.5c2-1.2,3.9-2.4,5.7-3.8c-5,0.5-10,0.2-15-0.8c1.9-1.9,4.4-3.6,5.9-5.2c-1.2,0.2-2.4,0.3-3.5,0.4
		c0,0.5-0.6,1.1-2.2,2.1c-3.2,0.5-6.5,1-9.6,1.4c0.9,1,1.9,1.9,2.9,2.8c0.7-0.2,1.5-0.5,2.4-0.8c0,0.8-0.2,1.5-0.4,2.2
		c1.4,0.9,2.9,1.7,4.4,2.3c0.2-1.1,0.5-2.2,1.1-3.2c0.5,0.2,0.8,1.8,1.2,2.2c0.8,1.2,1.9,1.4,2.1,2.3c5.9,1.2,12,1.3,18,0.4l2.1-1.7
		C225.6,217.5,220.6,217.3,215.7,216.5"/>
	<path class="st0" d="M197.7,200.2c-2.2,1-4.7,1.2-7,0.5c0.7-0.8,1.2-1.8,1.6-2.8c-4.3,1.2-5.6,0-5.6,0c0.6-0.6,1.1-1.3,1.4-2.1
		c-2.9-0.1-5.8,0.2-8.7,0.9c4,0.5,7.6,2.3,10.3,5.3c3.6-0.3,5.9-0.6,7.4-0.8L197.7,200.2z"/>
	<path class="st0" d="M188.2,197.3c1.7,0,3.5-0.2,5.1-0.8c0,1.2-0.4,2.5-1.1,3.5c2.4-0.1,4.8-0.5,7.1-1.1c0,0-0.4,0.9-1,2
		c0.7-0.1,1.5-0.2,2.2-0.2c1.5,0,1.7,0.3,3.1,0.3c2.5,0,2.8,0.5,3.2,3.5c0.5,0.6,1,1.2,1.5,1.7c1.9-0.1,4-0.3,6.2-0.7
		c-1.7,2.2-3.7,4.2-6.1,5.8c5.1,0.5,10.2,0.6,15.3,0.3c-1.5,1.8-3.3,3.2-5.4,4.3c0,0,7,0.4,14.5,0.3c-0.9,1-1.9,1.9-2.9,2.8
		c5.2,1.2,10.6,1.3,15.9,0.5c-23.8-9.5-36.9-23.8-56.9-23.8C188.7,196.3,188.5,196.8,188.2,197.3"/>
	<path class="st0" d="M92.1,240.2l-5.4,6.9c8.3-1.3,16.8-1.7,25.2-1l2.6-4.5C107.2,239.9,99.6,239.5,92.1,240.2"/>
	<path class="st0" d="M94.5,237.2l-1.7,2.1c7.4-0.7,14.9-0.2,22.2,1.5l3.9-5.8C110.7,235,102.6,235.7,94.5,237.2"/>
	<path class="st0" d="M97.3,233.7l-1.9,2.3c8-1.4,16-2,24.1-1.9l0.3-0.5C112.4,232.8,104.8,232.9,97.3,233.7"/>
	<path class="st0" d="M103.9,226.2l-5.7,6.5c7.4-0.9,14.9-0.8,22.3,0.2l6.6-7.6C119.3,224.9,111.6,225.2,103.9,226.2"/>
	<path class="st0" d="M112.4,217.6l-7.5,7.4c7.6-1,15.3-1.3,22.9-0.7l3.6-4C125.3,218.3,118.8,217.4,112.4,217.6"/>
	<path class="st0" d="M113.8,216.4l-0.4,0.4c6.4-0.2,12.7,0.8,18.6,3l0.8-0.8C126.6,217.1,120.2,216.3,113.8,216.4"/>
	<path class="st0" d="M121.2,209.9l-6.4,5.5c6.3-0.1,12.6,0.9,18.7,2.8l5.5-5.5C133.3,210.8,127.3,209.8,121.2,209.9"/>
	<polygon class="st0" points="112.6,246.7 112.8,248 115,244.3 114.8,243 	"/>
	<polygon class="st0" points="115.5,241.8 115.7,243.1 119.3,237.8 119.1,236.3 	"/>
	<polygon class="st0" points="119.9,235.2 120.1,236.8 120.5,236.3 120.2,234.8 	"/>
	<polygon class="st0" points="120.9,233.8 121.2,235.4 127.4,228.5 127.1,226.6 	"/>
	<polygon class="st0" points="127.9,225.7 128.2,227.6 131.9,223.6 131.4,221.8 	"/>
	<polygon class="st0" points="132.2,221 132.6,222.9 133.4,222.1 133.1,220 	"/>
	<polygon class="st0" points="133.9,219.1 134.2,221.3 139.1,216.5 139,214 	"/>
	<path class="st1" d="M142.6,214.9c-0.4,0.3-0.7,0.6-1,0.9l18,28.7l20-31.9c-0.6,0.1-1.2,0.1-1.7,0.2L159.5,242L142.6,214.9z"/>
	<path class="st1" d="M259.8,81.6l-23.3,37.3c0.8-0.4,1.6-0.7,2.4-1.1l23.9-38.2c-15,3-43.3,8.3-70.5,11.1c0.3,0.4,0.5,0.9,0.8,1.3
		C218.7,89.3,245.1,84.5,259.8,81.6"/>
	<path class="st1" d="M133.7,200.8l-6.9-11c-0.6-0.1-1.3-0.3-1.9-0.4l7.1,11.3C132.5,200.7,133.1,200.7,133.7,200.8"/>
	<path class="st1" d="M197.5,219c1.3-1.5,2.5-3.2,3.4-5.1c-1.6,0.7-3.7,1.1-4.8,2.8C196.6,217.4,197.1,218.2,197.5,219"/>
	<path class="st1" d="M206.9,220.7c0.9-0.2,1.7-0.6,2.3-1.2c-0.7-1.1-1.3-2.2-1.8-3.4C206.9,217.5,206.8,219.1,206.9,220.7"/>
	<path class="st1" d="M201.3,177.2c0.3,3.9,1.3,7.6,2.9,11.1c2.7,1.9,5.5,3.4,8.6,4.6C209.7,187.1,205.8,181.8,201.3,177.2"/>
	<path class="st1" d="M139.8,212.1l2.3-1.3c0,0,9.3,1.5,64.9-4.2c-1.3-1-2-0.8-2-3c0-0.7,0.1-0.8-1.1-0.8s-1.7-0.3-3.2-0.3
		c-10.5,1.7-21.1,2.3-31.7,1.8c-21.7,0-36.9-1.8-37.9-1.8c-1,0-2.9,1.9-8.8,6.5C128.3,208.8,134.3,209.9,139.8,212.1"/>
	<path class="st1" d="M111.5,246.9c-8.6-0.6-17.2-0.2-25.6,1.3l-4.6,6.7l27-1.3L111.5,246.9z"/>
	<path class="st1" d="M297.3,118.7c-8.6,17.7-18.5,34.8-29.6,51l3.1-1.9l0.7-0.7l-0.6,1.8l1.3-0.6l-2,3.5l1.8-1.5
		c12.3-16.5,23.2-34,32.4-52.3C302.1,117.4,299.5,117.6,297.3,118.7"/>
	<path class="st1" d="M298.2,112.4l-1.9,3c3.5-0.6,7.1-0.7,10.6-0.4l2.2-3.1C305.5,111.2,301.8,111.3,298.2,112.4"/>
	<path class="st1" d="M269.6,170.1c-0.7,0.5-1.4,0.9-2.2,1.1l1.1,2.4l0.7-0.5l-0.3-0.9l1.2-2.2L269.6,170.1z"/>
	<path class="st1" d="M277.6,176.3c-1.9-1-5.6,0.5-5.6,0.5c2,0.5,3.9,1.1,5.8,1.8C277.6,177.9,277.5,177.1,277.6,176.3"/>
	<path class="st2" d="M133.7,200.8c1.3,0.1,2.8,0.2,4.6,0.3l-6.5-10.4c-1.5-0.3-3.2-0.6-4.9-1L133.7,200.8z"/>
	<path class="st2" d="M146.8,214.6c-2.5,0-3.8,0-3.8,0c-0.1,0.1-0.3,0.2-0.4,0.3l16.9,27l18.2-29.2c-1.6,0.2-3.2,0.3-4.7,0.4
		l-13.5,21.5L146.8,214.6z"/>
	<path class="st2" d="M253.2,86.2l-22.4,35.5c1.7-0.8,3.6-1.8,5.7-2.7l23.3-37.3c-14.8,2.9-41.2,7.7-66.7,10.4c0.6,1,1.2,2,1.8,3.1
		C215.9,92.8,237.4,89.2,253.2,86.2"/>
	<path class="st2" d="M143,94.8c0-1.7-0.1-3.3-0.2-5c-9.1,0.7-18.1,2.9-26.6,6.5C125.1,94.7,134.1,94.2,143,94.8"/>
	<path class="st2" d="M253.6,161.9c-14.8-19-32.2-35.8-51.7-49.9c2.9,6,5.6,12.2,8,18.5c0.3,0.9,0.3,1.7-0.5,1.7
		c-7.5,0-33.8-14.5-59.6-11.9c13.4,12.8,26.8,30.7,13.8,24.2c10.7,7.2,20.6,15.6,29.4,25.1c11.8,0,14.2,2,14.9,3.7
		c2.6,6.6,6.3,12.7,11,18c3.6,0,4.2-0.2,5.5-3.4c0.5,2.4,0.3,4.9-0.8,7.1c15.8,11.5,33.5,20.1,52.2,25.6c1.9,0-2-17.5-11.1-38.6
		C261.8,168.5,260.1,164.7,253.6,161.9"/>
	<path class="st2" d="M106.5,146.7c4.2,2.6,8.3,5.4,12.2,8.4c-3.3-4.2-7.4-7.6-12.1-10L94.8,146l0.9,1.4
		C99.3,147.2,102.9,146.9,106.5,146.7"/>
	<path class="st2" d="M176,167.4c-1.1,6-1.1,12.2,0.1,18.2c0.4-5,1.1-9.9,2.3-14.7L176,167.4z"/>
	<path class="st2" d="M170.1,161.6c-1.1,6.9-0.9,14,0.8,20.8c0.1-5.6,0.6-11.2,1.7-16.8L170.1,161.6z"/>
	<path class="st2" d="M164.2,156.4c-1.2,7.4-0.8,15,1.1,22.3c-0.1-6.3,0.4-12.5,1.4-18.7L164.2,156.4z"/>
	<path class="st2" d="M150.9,135.9c-14.9-11.7-32.4-19.8-51-23.6c-1,0-3.1,4.3-3.1,4.3s3-2.7,3.9-2.7
		C118.5,118.4,135.5,125.9,150.9,135.9"/>
	<path d="M262.8,79.6l-23.9,38.2c2.6-1.2,5.4-2.5,8.1-3.7l25.5-41.3c0,0-43.4,9.5-83,13.5c0.9,1.5,1.9,2.9,2.8,4.4
		C219.4,87.9,247.8,82.6,262.8,79.6"/>
	<path d="M106.5,146.7c-3.6,0.3-7.3,0.5-10.9,0.7l-0.9-1.4l11.8-0.9c4.7,2.4,8.9,5.8,12.1,10C114.8,152.1,110.7,149.3,106.5,146.7
		 M143,94.8c-9-0.6-18-0.1-26.8,1.5c8.4-3.6,17.4-5.8,26.6-6.5C142.9,91.5,143,93.2,143,94.8 M209.4,132.2c0.8,0,0.8-0.8,0.5-1.7
		c-2.4-6.4-5.1-12.6-8-18.5c19.5,14.1,37,30.9,51.7,49.9c6.5,2.8,8.2,6.6,11.1,19.9c9.1,21.1,13,38.6,11.1,38.6
		c-18.8-5.4-36.4-14.1-52.3-25.6c1.1-2.2,1.3-4.7,0.8-7.1c-1.3,3.2-1.9,3.4-5.5,3.4c-4.7-5.3-8.5-11.4-11-18
		c-0.7-1.7-3-3.6-14.9-3.6c-8.8-9.5-18.6-17.9-29.4-25.1c12.9,6.5-0.4-11.4-13.8-24.2C175.6,117.7,201.9,132.2,209.4,132.2
		 M201.3,177.2c4.6,4.6,8.4,10,11.4,15.8c-3-1.2-5.9-2.7-8.6-4.6C202.5,184.8,201.6,181,201.3,177.2 M230,219.1c1-0.9,2-1.8,2.9-2.8
		c-7.5,0.1-14.5-0.3-14.5-0.3c2-1.1,3.9-2.6,5.4-4.3c-5.1,0.3-10.2,0.2-15.3-0.3c2.3-1.6,4.4-3.6,6.1-5.8c-2.2,0.3-4.3,0.5-6.2,0.7
		c-0.6-0.5-1.1-1.1-1.5-1.7c-0.4-2.9-0.7-3.5-3.2-3.5c-1.3,0-1.5-0.3-3.1-0.3c-0.7,0-1.5,0.1-2.2,0.2c0.6-1.1,1-2,1-2
		c-2.3,0.6-4.7,1-7.1,1.1c0.7-1,1.1-2.2,1.1-3.5c-1.6,0.6-3.4,0.9-5.1,0.8c0.3-0.5,0.5-1,0.7-1.6c19.9,0,33.1,14.3,56.9,23.8
		C240.6,220.4,235.2,220.2,230,219.1 M228.5,218.9c-6,0.9-12,0.8-18-0.4c-0.2-1-1.3-1.2-2.1-2.3c-0.3-0.4-0.6-2.1-1.1-2.2
		c-0.6,1-1,2.1-1.1,3.2c-1.5-0.6-3-1.4-4.4-2.3c0.3-0.7,0.4-1.4,0.4-2.2c-0.8,0.3-1.6,0.5-2.4,0.8c-1-0.9-2-1.8-2.9-2.8
		c3.1-0.4,6.4-0.9,9.6-1.4c1.7-1,2.2-1.6,2.3-2.1c1.2-0.1,2.4-0.2,3.5-0.4c-1.5,1.5-4,3.2-5.9,5.2c4.9,1,10,1.3,15,0.8
		c-1.8,1.4-3.7,2.6-5.7,3.8c4.9,0.8,9.9,1,14.9,0.7L228.5,218.9z M206.9,220.7c-0.2-1.6,0-3.1,0.5-4.6c0.5,1.2,1.1,2.3,1.8,3.4
		C208.6,220.1,207.8,220.5,206.9,220.7 M197.5,219c-0.3-0.8-0.8-1.6-1.5-2.2c1.1-1.7,3.2-2.1,4.8-2.8
		C199.9,215.7,198.8,217.4,197.5,219 M142.1,210.8l-2.3,1.3c-5.5-2.2-11.5-3.3-17.4-3.1c5.8-4.7,7.8-6.5,8.8-6.5
		c1,0,16.2,1.8,37.9,1.8c10.6,0.5,21.2-0.1,31.7-1.8c1.4,0,1.9,0.3,3.2,0.3c1.2,0,1.1,0.1,1.1,0.8c0,2.2,0.7,2,2,3
		C151.3,212.3,142.1,210.8,142.1,210.8 M159.5,244.6l-18-28.7c0.4-0.3,0.7-0.6,1-0.9c0.1-0.1,0.3-0.2,0.4-0.3c0,0,1.4,0,3.8,0
		c4.9-0.1,14.3-0.4,26.3-1.3c1.5-0.1,3.1-0.3,4.7-0.4c0.6-0.1,1.1-0.1,1.7-0.2L159.5,244.6z M134.2,221.3l-0.3-2.1l5.1-5.1l0.1,2.5
		L134.2,221.3z M114.8,215.4l6.4-5.5c6-0.1,12.1,0.9,17.8,2.8l-5.5,5.5C127.5,216.3,121.1,215.4,114.8,215.4 M132.6,222.8l-0.5-1.8
		l0.9-1l0.3,2.1L132.6,222.8z M113.4,216.7l0.4-0.4c6.4-0.1,12.8,0.8,19,2.6l-0.8,0.8C126.1,217.5,119.8,216.5,113.4,216.7
		 M128.2,227.6l-0.3-1.9l3.5-3.9l0.5,1.8L128.2,227.6z M104.9,225.1l7.5-7.4c6.5-0.3,12.9,0.7,19,2.8l-3.6,4
		C120.2,223.8,112.5,224.1,104.9,225.1 M121.2,235.4l-0.3-1.6l6.2-7.2l0.3,1.9L121.2,235.4z M98.2,232.7l5.7-6.5
		c7.7-1,15.4-1.3,23.2-0.9l-6.6,7.6C113.1,231.8,105.6,231.8,98.2,232.7 M120.1,236.8l-0.3-1.6l0.3-0.4l0.3,1.5L120.1,236.8z
		 M95.4,236l1.9-2.3c7.5-0.9,15-0.9,22.5-0.1l-0.3,0.5C111.5,234,103.4,234.6,95.4,236 M115.7,243.1l-0.2-1.3l3.6-5.5l0.2,1.5
		L115.7,243.1z M92.9,239.2l1.7-2.1c8.1-1.4,16.2-2.2,24.4-2.2l-3.9,5.8C107.8,239,100.3,238.5,92.9,239.2 M112.8,248l-0.2-1.4
		l2.1-3.7l0.2,1.3L112.8,248z M86.7,247.1l5.4-6.9c7.5-0.8,15.1-0.3,22.5,1.3l-2.6,4.5C103.5,245.4,95,245.8,86.7,247.1
		 M108.2,253.6l-27,1.3l4.6-6.7c8.5-1.5,17.1-1.9,25.6-1.3L108.2,253.6z M179.3,196.7c2.8-0.7,5.7-1,8.7-0.9
		c-0.3,0.8-0.8,1.5-1.4,2.1c0,0,1.3,1.2,5.7,0c-0.3,1-0.9,2-1.6,2.8c2.3,0.7,4.8,0.5,7-0.5l-0.6,0.9c-1.6,0.3-3.8,0.6-7.4,0.8
		C186.9,199,183.3,197.1,179.3,196.7 M176.1,185.5c-1.2-6-1.2-12.2-0.1-18.2l2.4,3.5C177.2,175.7,176.4,180.6,176.1,185.5
		 M170.8,182.4c-1.6-6.8-1.9-13.9-0.8-20.8l2.4,4C171.4,171.2,170.9,176.8,170.8,182.4 M165.3,178.6c-1.9-7.3-2.2-14.8-1.1-22.3
		l2.4,3.5C165.7,166.1,165.2,172.3,165.3,178.6 M100.7,114c-0.9,0-3.9,2.7-3.9,2.7s2-4.3,3.1-4.3c18.6,3.8,36.1,11.9,51,23.6
		C135.5,125.9,118.5,118.4,100.7,114 M157,190.4c-1.3-1.4-2.5-2.7-3.7-4c9.1,5.5,17.4,11.1,24.8,16c-1.9,0-3.9,0-6.2,0
		c-15.1,0-26.4-0.8-33.6-1.3c-1.8-0.1-3.3-0.3-4.6-0.3c-0.6,0-1.2-0.1-1.7-0.1l-7.1-11.3c-2.9-0.6-5.6-1.3-7.5-1.8l9.5,15.3
		c-19,14.5-35.3,32.2-48,52.5l1.4,2.7c0,0,15.9-1,29.3-1.4c6.3-14.3,15.7-26.9,27.6-37.1l22.2,36l27-43.6c1.7-0.2,3.5-0.4,5.3-0.6
		c1.9,1.2,3.7,2.3,5.4,3.3c-1,0.6-1.8,1.4-2.3,2.3c1,0.8,1.6,1.9,1.7,3.2c0.9,0.1,1.8,0.1,2.7-0.2c0.7-1,1.3-2.1,1.8-3.2
		c1.8,0.9,3.4,1.7,5,2.3c0,0.9,0.1,1.8,0.2,2.6c1.4,0.2,2.8-0.3,3.8-1.3c6.2,1.7,12.8,1.9,19.1,0.4c5.9,2.4,12.5,2.2,18.3-0.4
		c6.9,2.8,14.3,3.9,21.7,3.3c7.1,0,9.4-0.9,9.4-2c-2-14.1-6.1-27.9-12-40.9c-3.3-13.7-3.8-16.3-11.1-19.9l-1.2-1.5
		c10-17.7,17.8-36.6,23.2-56.3c0-0.8-0.4-1.1-0.9-0.8c-21.4,10.9-44.9,20.5-50.1,24.2l-1.4,1.9c-8-7.2-16.4-13.9-25.2-20.1
		c-23.9-47-60.6-79.9-84.3-91.8c0,4.9,23.4,40.9,27,71.2c-32.3-2.9-64.4-7.8-96.1-14.6l46.2,74.8c-38,2.3-71.3,3.1-71.3,3.1
		c0,2.6,42.4,22.9,105,37.1C136.5,189.9,146.8,190.8,157,190.4"/>
	<path d="M272,176.8c0,0,3.7-1.5,5.6-0.5c-0.1,0.8,0,1.6,0.3,2.3C276,177.9,274,177.2,272,176.8 M270.1,176.4l0.4,1.6
		c2.1,1.4,4.3,2.6,6.7,3.4l2.2-1.6c-0.8-1.2-1.1-2.7-0.9-4.1C275.7,173.8,270.1,176.4,270.1,176.4"/>
	<path d="M309.1,112l-2.2,3.1c-3.5-0.3-7.1-0.2-10.6,0.4l1.9-3C301.8,111.3,305.5,111.2,309.1,112 M272.1,170.4l-1.8,1.5l2-3.5
		l-1.3,0.6l0.6-1.8l-0.7,0.7l-3.1,1.9c11.1-16.2,21-33.3,29.6-51c2.2-1.1,4.8-1.4,7.2-0.7C295.2,136.4,284.4,153.9,272.1,170.4
		 M269.2,173l-0.7,0.5l-1.1-2.4c0.8-0.2,1.5-0.6,2.2-1.1l0.5-0.2l-1.2,2.2L269.2,173z M297.3,110.1l-3,5.4l0.7,4.2
		c-13.7,26.9-28.9,51.2-28.9,51.2l1.9,4.6l2.2-1.5l1.5,0.1c13.5-14.9,24.6-31.7,33.1-49.9c0,0,5.4,0.2,5.8-4.2
		c0.4-4.4,0.7-7.5,0.7-9.2C306.8,109.3,302,109.1,297.3,110.1"/>
</g>
</svg>
