<?xml version="1.0" encoding="utf-8"?>
<!-- Generator: Adobe Illustrator 21.1.0, SVG Export Plug-In . SVG Version: 6.00 Build 0)  -->
<!DOCTYPE svg PUBLIC "-//W3C//DTD SVG 1.1//EN" "http://www.w3.org/Graphics/SVG/1.1/DTD/svg11.dtd">
<svg version="1.1"
	 id="Layer_3" inkscape:version="0.48.2 r9819" sodipodi:docname="AJAX.svg" xmlns:cc="http://creativecommons.org/ns#" xmlns:dc="http://purl.org/dc/elements/1.1/" xmlns:inkscape="http://www.inkscape.org/namespaces/inkscape" xmlns:rdf="http://www.w3.org/1999/02/22-rdf-syntax-ns#" xmlns:sodipodi="http://sodipodi.sourceforge.net/DTD/sodipodi-0.dtd" xmlns:svg="http://www.w3.org/2000/svg"
	 xmlns="http://www.w3.org/2000/svg" xmlns:xlink="http://www.w3.org/1999/xlink" x="0px" y="0px" width="240px" height="192.4px"
	 viewBox="0 0 240 192.4" style="enable-background:new 0 0 240 192.4;" xml:space="preserve">
<style type="text/css">
	.st0{fill:#0F1F48;}
	.st1{fill:#FFFFFF;}
	.st2{fill:#FFC325;}
	.st3{fill:#0447A0;}
</style>
<sodipodi:namedview  bordercolor="#666666" borderopacity="1" fit-margin-bottom="0" fit-margin-left="0" fit-margin-right="0" fit-margin-top="0" gridtolerance="10" guidetolerance="10" id="namedview13" inkscape:current-layer="g3" inkscape:cx="120" inkscape:cy="96.2" inkscape:pageopacity="0" inkscape:pageshadow="2" inkscape:window-height="1004" inkscape:window-maximized="1" inkscape:window-width="1280" inkscape:window-x="-8" inkscape:window-y="-8" inkscape:zoom="1.1028037" objecttolerance="10" pagecolor="#ffffff" showgrid="false">
	</sodipodi:namedview>
<g id="g3" transform="translate(-5,-10.8)">
	<path id="path5" inkscape:connector-curvature="0" class="st0" d="M47.3,10.8c0,0,9.2,13.8,11.9,20.8c0.1,0.2,0.2,0.6,0.2,0.8
		c0.6,1.7,0.6,3.2,0.1,3.8c-1,1.4-2.6,2-6.6,1.9L35.9,10.8H5l72.2,117.3c-0.9,0-1.8,0-2.7,0c-13.7,0-26.4,3.5-36,9.9
		c-11.2,7.5-16.8,16.8-16.8,27.8c0,10.6,6,20.4,16.9,27.7c9.5,6.3,22.2,9.8,35.9,9.8c13.3,0,26-3.6,35.7-10
		c10.8-7.2,16.8-17,16.8-27.4c0-4.7-1.3-9.3-3.9-14.3l-0.1-0.2l-16.8-26.9c3.3,0.5,6.5,0.6,8.8,0.6c4.7,0,8.5-0.7,8.6-0.7
		c1.3-0.3,5-1.1,5-1.1l-4.7-6.8c1.8,0.1,11.2,0.6,19.5,0c5.8-0.4,11-1.7,12.8-2.2c1.5-0.4,5.9-2,5.9-2l-6-6c6.5-0.1,13.2-1.7,22-5.7
		c14.4-6.5,22.5-16,25.5-19.9h-1.6c2.2-1.3,4.8-2.9,6.9-4.7c4.1-3.4,7.1-6.7,9.3-10.3c0.9-1.4,1.8-2.9,2.4-4.1c0.9-1.7,1.3-3,1.3-3
		h-1.7c1.3-1.1,5.3-4.8,8.1-9.9c1.3-2.4,2.4-5.1,3.1-7.3c0.7-2.1,1-3.6,1-3.6h-2.6c2.9-2,7.3-6.3,10.7-12.6c1.6-3,2.9-6.3,3.7-9.1
		c0.8-2.8,1-5,1-5S47.3,10.8,47.3,10.8z"/>
	<path id="path7" inkscape:connector-curvature="0" class="st1" d="M53.1,14.3l2.4,3.5c0,0.1,5,7.3,7.2,13.5c1,2.9,0.6,5.7,0.2,6.5
		c-1.8,3.2-8.1,3.6-10.7,3.6c-0.4,0-0.8,0-1.1,0L33.9,14.3H11.2l72.5,117.9c-3-0.4-6.2-0.6-9.3-0.6c-13,0-25.1,3.3-34,9.3
		c-10.1,6.8-15.3,15.1-15.3,24.9c0,9.4,5.4,18.2,15.3,24.8c8.9,5.9,21,9.2,34,9.2c12.6,0,24.6-3.4,33.8-9.5
		c9.8-6.6,15.2-15.3,15.2-24.5c0-4.1-1.1-8.2-3.5-12.7l-0.1-0.1l-21.3-34.1c2.6,0.7,12,2.5,16.4,2.5s7.6-0.8,7.6-0.8l-6.2-8.7
		c2.5,0.2,12.4,1.3,21.4,0.9c9.7-0.4,13.4-1.4,17.6-2.4l-7.3-7.6c6.2-0.1,16.2-0.3,28.3-5.8c11.1-5.1,17.8-12,20.9-16H191
		c6.1-1.7,10.8-4.1,15.6-8c6.9-5.6,9.7-12.3,9.7-12.3l-6.6,0c1.1-0.7,3.5-1.9,6.2-4c2.5-1.9,5.2-4.5,7.2-7.1
		c1.3-1.7,3.8-5.9,4.3-9.8l-6.7,0c2.8-2,9.8-7.3,14.4-13.7c1.7-2.5,3.2-5.3,4-7.6c0.9-2.5,1.1-4.4,1.1-4.4L53.1,14.3z"/>
	<path class="st2" d="M74.5,200.5c-13.2,0-25.4-3.3-34.4-9.3c-10.1-6.7-15.7-15.8-15.7-25.4c0-10,5.3-18.6,15.6-25.5
		c9.1-6.1,21.3-9.4,34.5-9.4c2.6,0,5.2,0.1,7.8,0.4L9.9,13.5h24.5l17.1,27.1c0.2,0,0.5,0,0.7,0c5.2,0,8.9-1.2,10-3.2
		c0.2-0.5,0.8-3-0.2-5.9c-2.1-6-7-13.2-7.1-13.3l-3.2-4.7l188.6,0l-0.1,3.1c0,0.3-0.1,2.2-1.2,4.6c-1.1,2.4-3.1,5.5-5.3,8.2
		c-2.6,3.1-6,6.3-10.2,9.5h3.1l0.4,2.6c0,0.3,0.2,1.7-0.4,3.5c-0.9,2.9-2.9,6-5.6,8.6c-2.2,2.2-4.9,4.3-7.6,6.1h3.6l-2.2,4.3l0,0.1
		c-0.1,0.3-0.4,1-0.8,1.7c-0.9,1.7-2.8,4.9-6.1,7.6c-3,2.4-6,4.4-9.1,6l-3.1,4.5c-0.1,0.1-2,2.8-5,5.5c-3.7,3.2-9.1,6.5-14.7,9
		c-8.3,3.7-17.7,5-25.4,5.4l6.9,7.4l-5.1,1.2c-0.1,0-2.1,0.5-4.8,0.7c-4,0.4-9.3,0.6-12.3,0.6c-5.7,0-11.7-0.3-16.6-0.6
		c0.3,0.3,0.4,0.5,0.4,0.5l6.1,8l-10,0.5c-0.3,0-0.6,0-0.9,0c-3.7,0-8.8-1-13.6-2.1l20.1,32.6l0,0.1c2.5,4.7,3.7,8.9,3.7,13.1
		c0,9.5-5.5,18.4-15.6,25.1C99.4,197.1,87.3,200.5,74.5,200.5z"/>
	<path id="path9" inkscape:connector-curvature="0" class="st2" d="M57.3,16.5c0,0,5.2,7.5,7.5,14c1.2,3.5,0.8,7,0,8.3
		c-2.3,4.1-8.9,4.7-12.7,4.7c-1,0-1.8,0-2.4-0.1l-17-27H15.2l72.9,118.6c-4.3-0.8-9.2-1.3-13.7-1.3c-12.3,0-24,3-32.8,8.9
		c-9.5,6.4-14.3,14-14.3,23c0,8.7,5.3,16.9,14.3,22.9c8.8,5.9,20.4,8.8,32.7,8.8c12.3,0,23.8-3.2,32.5-9.1
		c9.1-6,14.3-13.9,14.3-22.6c0-3.7-1-7.5-3.3-11.7l0-0.1l-24-39c6.1,1.8,15.5,4.3,20.9,4l4.3-0.2l-2.6-3.4c0,0-2.2-2.8-4-5.8
		c5.2,0.4,14.3,1,22.6,1c3,0,8.2-0.2,12-0.6c2.6-0.2,4.5-0.7,4.5-0.7l-8-8.5c0.5,0,1,0,1.6,0c0,0,0,0,0,0c5.8,0,18.6-0.5,29.4-5.3
		c5.6-2.5,10.6-5.6,14-8.5c2.8-2.4,4.5-4.9,4.5-4.9h-9.4c8.2-2.6,15.4-5.7,22.1-11.2c2.7-2.2,4.5-5,5.4-6.7c0.4-0.8,0.6-1.5,0.7-1.6
		h-9.4c0.9-0.5,10.7-5.7,16.3-11.2c2.7-2.7,4.2-5.5,4.8-7.4c0.4-1.3,0.3-2.2,0.3-2.2h-10.2c4.5-2.8,12.4-8.1,17.6-14.4
		c2-2.4,3.9-5.3,4.9-7.5c0.9-2,1-3.5,1-3.5L57.3,16.5L57.3,16.5z"/>
	<path id="path11" inkscape:connector-curvature="0" class="st3" d="M234,18.7H61.4c20,31.1-13,26.9-13,26.9L31.5,18.7H19.2
		l73.3,119.7c-5.4-1.6-11.7-2.4-18.1-2.4c-24.6,0-44.6,13.3-44.6,29.7c0,16.4,20,29.7,44.6,29.7c24.6,0,44.6-13.3,44.6-29.7
		c0-3.8-1.2-7.2-3-10.6l-27.1-44c0,0,17.9,6.1,25.8,5.7c0,0-4.3-5.6-6.1-9.7c0,0,26.4,2.4,38.3,0.7l-8.7-9.3c0,0,32.8,4.8,49.6-12.7
		h-3.7H97.9l-1.4-3.5h79.2c10.8-2.8,27-7.3,32.2-16.2h-3.6H86.1l-1.4-3.3h113c7.6-3.8,21.8-10.8,23.4-17.6h-5.8H72.9l-1.4-3.3h137.9
		C216.5,37.7,230.8,28.3,234,18.7L234,18.7z"/>
</g>
</svg>
