<?xml version="1.0" encoding="utf-8"?>
<!-- Generator: Adobe Illustrator 21.0.2, SVG Export Plug-In . SVG Version: 6.00 Build 0)  -->
<!DOCTYPE svg PUBLIC "-//W3C//DTD SVG 1.1//EN" "http://www.w3.org/Graphics/SVG/1.1/DTD/svg11.dtd">
<svg version="1.1" id="Layer_1" xmlns="http://www.w3.org/2000/svg" xmlns:xlink="http://www.w3.org/1999/xlink" x="0px" y="0px"
	 width="300px" height="279.9px" viewBox="0 0 300 279.9" style="enable-background:new 0 0 300 279.9;" xml:space="preserve">
<style type="text/css">
	.st0{fill:#FFFFFF;}
</style>
<title>Tampa Bay Lightning Logo 2011</title>
<g>
	<path class="st0" d="M300,126.6c0-30.4-18.9-60.4-52.5-78.8l-12.9,10.2c22.9,14.4,36.4,36,36.4,60.5c0,57.1-70.6,108.9-149.2,108.9
		c-7.9,0-15.8-0.6-23.6-1.7l-26.5,19.6c17.7,5.9,36.3,8.8,55,8.7C220,253.9,300,190.9,300,126.6"/>
	<path class="st0" d="M181.4,147.8l-48,9.4l106.4-87.5l-49.6,6.6L286.6,0L174.4,29.5c-1.5,0-3-0.1-4.5-0.1C78.1,29.4,0,91.9,0,157.8
		c0,32.3,17.4,58,44.4,74.7L3,279.9L181.4,147.8z M12.8,148C12.8,89,86.7,39.2,162,39.2c0.5,0,1,0,1.6,0l-72.8,81.4l41.8-6.6
		l-82.4,79.7l33.4-6l-23.3,26.7C31.9,200.9,12.8,177.7,12.8,148"/>
</g>
</svg>
