<?xml version="1.0" encoding="utf-8"?>
<!-- Generator: Adobe Illustrator 21.0.2, SVG Export Plug-In . SVG Version: 6.00 Build 0)  -->
<!DOCTYPE svg PUBLIC "-//W3C//DTD SVG 1.1//EN" "http://www.w3.org/Graphics/SVG/1.1/DTD/svg11.dtd">
<svg version="1.1" id="Layer_1" xmlns="http://www.w3.org/2000/svg" xmlns:xlink="http://www.w3.org/1999/xlink" x="0px" y="0px"
	 width="500px" height="558.8px" viewBox="0 0 500 558.8" style="enable-background:new 0 0 500 558.8;" xml:space="preserve">
<style type="text/css">
	.st0{fill:#FFFFFF;}
	.st1{fill:#003976;}
</style>
<path class="st0" d="M499.9,219c0.2-0.4,0.1-1-0.3-1.2c0,0-0.1,0-0.1-0.1c-7-2.7-14.4-4.7-21.8-5.8c-0.5-0.1-0.8-0.5-0.7-1
	c0-0.1,0-0.2,0.1-0.2c6-12.7,10.2-26.2,12.5-40.1c0.1-0.5-0.2-1-0.7-1c-0.1,0-0.2,0-0.4,0c-14.1,4-27.8,9.2-41,15.7
	c-0.4,0.2-0.9,0-1.1-0.4c0-0.1,0-0.1-0.1-0.2c-1.6-8.8-4.5-17.4-8.6-25.4c-0.2-0.4-0.8-0.6-1.2-0.3c0,0-0.1,0-0.1,0
	c-13,9.3-25,20-35.6,31.9c-0.3,0.4-0.9,0.4-1.2,0.1c-0.1-0.1-0.1-0.1-0.2-0.2c-2.8-4.6-6.4-8.6-10.8-11.7c-0.4-0.3-0.9-0.2-1.2,0.2
	c-19.1,24.6-41.5,46.6-66.5,65.2c-0.3,0.2-0.8,0.2-1-0.2c-0.1-0.2-0.2-0.4-0.1-0.6c6.6-20.2,15-39.7,25.1-58.4
	c0.2-0.4,0.1-0.9-0.4-1.1c-0.1,0-0.1-0.1-0.2-0.1c-4.6-0.9-9.3-1.5-14-1.7c-0.5,0-0.8-0.4-0.8-0.9c0-0.2,0.1-0.3,0.1-0.4
	c11.6-17.8,20.4-37.2,26.4-57.6c0.1-0.4-0.1-0.9-0.5-1c-0.1,0-0.2,0-0.3,0c-10.7,0.6-21.3,2.6-31.4,6.1c-0.4,0.2-0.9-0.1-1-0.5
	c0-0.1-0.1-0.3,0-0.4c2.5-17.3,1.9-34.8-1.6-51.9c-0.1-0.5-0.5-0.8-1-0.7c0,0-0.1,0-0.1,0c-7.7,3-15,6.7-22,10.9
	c-0.4,0.2-0.9,0.1-1.1-0.3c-0.1-0.1-0.1-0.3-0.1-0.5c0.9-15.5-0.4-31.1-3.9-46.3c-0.1-0.4-0.5-0.7-1-0.6c0,0-0.1,0-0.1,0
	c-5.8,2.2-11.3,4.9-16.6,8.2c-0.4,0.2-0.9,0.1-1.2-0.3c0-0.1-0.1-0.1-0.1-0.2c-6-16-13.7-31.4-23-45.7c-0.2-0.4-0.8-0.5-1.2-0.3
	c-0.1,0.1-0.2,0.2-0.3,0.3c-9.3,14.4-17,29.7-23.1,45.7c-0.2,0.4-0.6,0.7-1.1,0.5c-0.1,0-0.1,0-0.2-0.1c-5.3-3.3-10.8-6-16.6-8.2
	c-0.4-0.1-0.9,0.1-1,0.5c0,0,0,0.1,0,0.1c-3.6,15.2-4.9,30.7-4,46.3c0,0.5-0.3,0.9-0.8,0.9c-0.2,0-0.3,0-0.5-0.1
	c-7-4.3-14.4-7.9-22-10.9c-0.4-0.2-0.9,0.1-1.1,0.5c0,0,0,0.1,0,0.1c-3.5,17.1-4.1,34.7-1.6,51.9c0.1,0.4-0.2,0.9-0.6,0.9
	c-0.1,0-0.3,0-0.4,0c-10.2-3.4-20.7-5.5-31.4-6.1c-0.4,0-0.8,0.3-0.9,0.8c0,0.1,0,0.2,0,0.3c5.9,20.4,14.8,39.8,26.4,57.6
	c0.3,0.4,0.2,0.9-0.2,1.2c-0.1,0.1-0.3,0.1-0.4,0.1c-4.7,0.2-9.4,0.8-14,1.7c-0.5,0.1-0.7,0.6-0.6,1c0,0.1,0,0.1,0.1,0.2
	c10.1,18.7,18.5,38.3,25.1,58.5c0.1,0.4-0.1,0.8-0.5,0.9c-0.2,0.1-0.4,0-0.6-0.1c-25-18.7-47.4-40.6-66.6-65.3
	c-0.3-0.3-0.8-0.4-1.1-0.2c-4.3,3.1-8,7.1-10.8,11.7c-0.2,0.4-0.8,0.5-1.2,0.3c-0.1,0-0.1-0.1-0.2-0.2
	c-10.7-11.9-22.6-22.6-35.6-31.9c-0.4-0.3-1-0.2-1.3,0.2c0,0,0,0,0,0.1c-4.1,8-7,16.5-8.6,25.4c-0.1,0.4-0.5,0.7-1,0.6
	c-0.1,0-0.1,0-0.2-0.1c-13.2-6.4-26.9-11.7-41-15.7c-0.5-0.1-1,0.2-1.1,0.7c0,0.1,0,0.3,0,0.4c2.4,13.9,6.6,27.3,12.5,40.1
	c0.2,0.4,0,0.9-0.4,1.1c-0.1,0-0.2,0.1-0.3,0.1c-7.5,1.1-14.8,3.1-21.8,5.8c-0.5,0.2-0.7,0.7-0.5,1.1c0,0,0,0.1,0.1,0.1
	c8,14.2,18.4,27,30.8,37.6c0.4,0.3,0.4,0.8,0.1,1.2c-0.1,0.1-0.1,0.1-0.2,0.2c-4.7,2.8-9.1,6.2-13,10c-0.3,0.4-0.3,0.9,0,1.3
	c14.9,14.7,31.3,27.8,48.8,39.2c0.4,0.3,0.5,0.8,0.3,1.2c-0.1,0.1-0.1,0.2-0.2,0.2c-6.3,4.7-12,10.2-17.2,16.1
	c-0.3,0.4-0.3,0.9,0.1,1.2c13.1,11.6,28.2,20.9,44.4,27.4c0.5,0.2,0.7,0.7,0.5,1.1c-0.1,0.2-0.2,0.3-0.3,0.4
	c-5.7,4.4-10.9,9.4-15.5,15c-0.3,0.4-0.3,0.9,0.1,1.2c0.1,0,0.1,0.1,0.2,0.1c13.3,6.4,27.5,10.7,42.1,13c0.4,0.1,0.6,0.4,0.6,0.8
	c0,0.3-0.2,0.5-0.5,0.5c-19,5.9-37.3,13.7-54.6,23.4c-0.4,0.2-0.6,0.8-0.3,1.2c0.1,0.1,0.1,0.2,0.2,0.3
	c12.3,9.6,25.9,17.4,40.3,23.3c0.4,0.2,0.7,0.7,0.5,1.1c-0.1,0.1-0.1,0.3-0.3,0.4C87.4,452.9,70,472,55.5,493.2
	c-0.3,0.4-0.2,1,0.2,1.2c0.2,0.1,0.4,0.2,0.6,0.2c19.2-2.2,38.1-5.7,56.8-10.5c0.4-0.1,0.9,0.1,1,0.5c0.1,0.2,0,0.4-0.1,0.6
	c-3.6,7.4-6.9,15-9.7,22.7c-0.2,0.5,0.1,1,0.5,1.1c0.1,0,0.3,0.1,0.4,0c16.6-1.6,33.1-4.1,49.4-7.5c0.5-0.1,0.9,0.2,1,0.7
	c0,0.2,0,0.5-0.1,0.7c-5.7,8.9-10.1,18.6-13.1,28.7c-0.1,0.5,0.1,1,0.6,1.1c0.1,0,0.3,0,0.4,0c30.9-5.6,60.9-15.1,89.3-28.4
	c0.6-0.3,1.2,0,1.5,0.5c0.1,0.1,0.1,0.3,0.1,0.4c0.9,19.9,9,38.7,22.8,53.1c0.4,0.5,1.2,0.5,1.7,0.1c0,0,0,0,0,0l17.2-15.8
	c0.5-0.5,0.6-1.3,0.1-1.8c-3.4-3.9-19-21.6-16.3-35.1c0.3-1.4,1.7-2.3,3.1-2c0.2,0,0.3,0.1,0.5,0.2c30,12.6,61.2,22.3,93.1,28.9
	c0.5,0.1,0.9-0.2,1-0.7c0-0.1,0-0.3,0-0.4c-3-10.1-7.4-19.8-13.1-28.7c-0.3-0.4-0.2-0.9,0.2-1.2c0.2-0.1,0.4-0.2,0.7-0.1
	c16.3,3.4,32.8,5.9,49.4,7.5c0.5,0.1,0.9-0.3,1-0.8c0-0.1,0-0.3,0-0.4c-2.8-7.7-6.1-15.3-9.7-22.7c-0.2-0.4-0.1-0.9,0.3-1.1
	c0.2-0.1,0.4-0.1,0.6-0.1c18.7,4.8,37.7,8.3,56.8,10.5c0.5,0.1,0.9-0.3,1-0.8c0-0.2,0-0.4-0.2-0.6c-14.5-21.2-31.9-40.2-51.6-56.6
	c-0.4-0.3-0.4-0.8-0.1-1.2c0.1-0.1,0.2-0.2,0.4-0.3c14.4-5.9,28-13.7,40.4-23.3c0.4-0.3,0.5-0.9,0.2-1.2c-0.1-0.1-0.2-0.2-0.3-0.2
	c-17.3-9.7-35.6-17.5-54.6-23.4c-0.4-0.1-0.5-0.5-0.4-0.8c0.1-0.2,0.3-0.4,0.5-0.5c14.6-2.3,28.8-6.7,42.2-13
	c0.4-0.2,0.6-0.7,0.4-1.2c0-0.1-0.1-0.1-0.1-0.2c-4.5-5.6-9.7-10.6-15.5-15c-0.4-0.3-0.5-0.8-0.2-1.2c0.1-0.1,0.2-0.2,0.4-0.3
	c16.3-6.5,31.3-15.8,44.4-27.4c0.4-0.3,0.4-0.8,0.1-1.2c0,0,0,0,0,0c-5.1-6-10.9-11.4-17.1-16.1c-0.4-0.3-0.5-0.8-0.2-1.2
	c0.1-0.1,0.1-0.2,0.2-0.2c17.5-11.4,33.9-24.6,48.8-39.2c0.3-0.3,0.4-0.9,0-1.3c0,0,0,0,0,0c-3.9-3.8-8.3-7.2-13-10
	c-0.4-0.2-0.5-0.8-0.3-1.2c0.1-0.1,0.1-0.2,0.2-0.2C481.5,246,491.9,233.3,499.9,219"/>
<title>Toronto Maple Leafs 2016 logo</title>
<path class="st1" d="M246.7,219.8c0.2,0.1,0.2,0.3,0.3,0.4c0.1,6.5,0.3,12.6,0.5,18.4c0,0.2,0.2,0.4,0.4,0.4l4.6,0h0
	c0.1,0,0.2,0,0.3-0.1c0.1-0.1,0.1-0.2,0.1-0.3c-0.2-4.1-0.3-8.3-0.5-12.4c0-0.2,0.1-0.4,0.3-0.6c19.8-14.1,36.1-32.4,47.9-53.6
	l-0.2-0.1c-12.4,19.4-28.7,36-47.8,48.9c-0.1,0.1-0.3,0-0.3-0.1c0,0,0-0.1,0-0.1c-0.8-26.2-0.8-47.9,0-66.1c0.1-2.5,0.1-5,0.2-7.9
	c0-0.3,0.2-0.6,0.4-0.7c9.8-5.6,18.7-12.7,26.4-21.1l-0.2-0.2c-7.9,7.2-16.7,13.2-26.2,18.1c-0.1,0-0.2,0-0.3-0.1l-0.1-0.2
	c0.6-32.4-0.2-70.2-1.8-87.9l-0.3,0c0.2,18.8,0,38.1-0.7,57.3c0,0.1-0.1,0.2-0.2,0.2l-0.1,0c-7.9-8.4-15.1-17.5-21.3-27.3l-0.2,0.1
	c5.9,11.1,13.1,21.6,21.2,31.1c0.3,0.3,0.4,0.8,0.4,1.2c-0.4,12.5-1,24.8-1.7,36.7c-0.2,4.1-0.4,8.4-0.6,13.6c0,0.1-0.1,0.2-0.2,0.2
	c0,0-0.1,0-0.1,0c-10.5-7.6-19.5-17.2-26.5-28.1l-0.2,0.1c6.4,12.1,15.4,22.7,26.3,31.1c0.4,0.3,0.6,0.8,0.6,1.2
	c-0.4,14.2-0.6,28.6-0.4,42.8l0,0.1l-0.2,0c-19.3-11.6-35.7-27.4-48.2-46.1l-0.2,0.1C210.1,189.6,226.8,207,246.7,219.8"/>
<path class="st1" d="M105.4,271.5l0.2,0l3.2-1.5c0.1-0.1,0.2-0.2,0.2-0.3c0-0.1,0-0.2-0.1-0.3c-1.1-1.2-2.3-2.4-3.5-3.6
	c-0.2-0.3-0.4-0.6-0.4-1c-0.1-12-4.4-23.5-12.3-32.6l-0.2,0.2c5.9,8.6,9,18.8,8.9,29.3l0,0c-7.6-7.5-15.8-15.3-24.6-23
	c-0.3-0.3-0.4-0.6-0.4-1c0.8-8.8-0.8-17.6-4.6-25.6l-0.2,0.1c2.7,7.5,3.3,15.6,2,23.5l-0.1,0c-9.6-8.9-20.3-19.4-32.5-32.2l-0.2,0.2
	C51,216,63.2,229,77.9,243.4c2.2,2,4.5,4.2,7,6.8c-1.4,0.1-2.9,0.2-4.3,0.2c-10.9-0.2-21.6-2.8-31.3-7.7l-0.1,0.2
	c11.2,7,24.1,10.6,37.2,10.5c0.4,0,0.9,0,1.4,0c0.2,0,0.4,0.1,0.6,0.2c4.9,5,10.4,10.8,16.9,17.8
	C105.2,271.5,105.3,271.5,105.4,271.5"/>
<path class="st1" d="M424.6,239.2c11.2-11.3,21.8-22.8,31.5-34.2l-0.2-0.2c-11.5,11.6-23.2,23-35.9,35l-0.1,0c-0.1,0-0.1,0-0.1-0.1
	c-1.2-8.4-0.9-17,0.8-25.4l-0.3-0.1c-3.1,8.8-4.2,18.2-3.3,27.6c0,0.4-0.1,0.8-0.4,1c-9.6,8.5-18.6,17.2-26.8,25.7
	c-0.1,0.1-0.1,0.2-0.1,0.3c0,0.1,0.1,0.2,0.2,0.3l3.2,1.7l0.2,0c0.1,0,0.3-0.1,0.4-0.1c3-3.3,6.4-6.9,10.3-11
	c0.3-0.3,0.7-0.5,1.1-0.5c12.5,0.1,24.9-3.2,35.6-9.7l-0.1-0.2c-8.9,4.2-18.6,6.4-28.5,6.6c-1.3,0-2.7,0-4-0.1c-0.1,0-0.1,0-0.1-0.1
	l0-0.1C413.5,250,419.1,244.5,424.6,239.2"/>
<path class="st1" d="M261.9,467c-8.7-0.9-17.3,2.5-23.1,9.1c-0.1,0.1-0.1,0.1-0.2,0c-7-4.7-15.1-7.3-23.5-7.6
	c-6.8,0.6-13.3,2.9-19,6.6c-0.1,0-0.2,0.1-0.3,0c-17.2-2.1-34.7,0.4-50.6,7.2c14.9-4.7,30.6-6.3,46.1-4.6c0,0,0.1,0.1,0.1,0.1
	c0,0,0,0,0,0.1c-6.9,4.7-14.2,8.7-21.9,12c13.9-1.6,32-17.4,46-17.4c7.6,0.6,15,3.1,21.3,7.5c0.1,0,0.1,0.1,0.1,0.2
	c-0.7,2.5-1,5-0.7,7.6c4.6-12.7,13.9-15.6,26.6-15.6c10.5,0.9,20.9,3,31,6.1c0.1,0,0.2,0.1,0.3,0.1c7.6,6.2,16.5,10.7,26,13.2
	l2.6,0.4l-2.5-1c-7-2.7-13.5-6.4-19.2-11.2c0,0,0-0.1,0.1-0.1c5.1,0.9,10.2,1.3,15.3,1.3c12,0.6,24.1-1.4,35.3-6
	c-10.6,2.5-21.5,3.6-32.4,3.2C300.5,478.2,277.1,467,261.9,467"/>
<path class="st1" d="M120,297.9c3.4-1.7,6.9-3.4,10.4-5.1l-4-7.8c-10.1,4.9-20.2,10.1-29.9,15.5l4,7.8c3.3-1.8,6.7-3.7,10.2-5.5
	l0.6-0.3l20.2,39c2.7-1.4,5.4-2.9,8.2-4.2l-20.2-39L120,297.9z"/>
<polygon class="st1" points="152,398.8 152,444.7 178.8,444.7 178.8,436 161,436 161,398.8 "/>
<polygon class="st1" points="186.1,338.7 179,338.7 169,361.7 159.1,338.7 151.9,338.7 151.9,384.6 160.9,384.6 160.9,363.4 
	169,381.8 177.1,363.4 177.1,384.6 186.1,384.6 "/>
<polygon class="st1" points="307.2,407.4 307.2,398.8 278.4,398.8 278.4,444.7 287.5,444.7 287.5,426 301.5,426 301.5,417.4 
	287.5,417.4 287.5,407.4 "/>
<path class="st1" d="M285.6,260.3l-8.8,51.9c3,0.4,6.1,0.9,9.1,1.4l5.1-29.8l0.9,2.6c3.4,9.9,6.8,20.1,10.2,30
	c2.4,0.4,4.8,0.9,7.2,1.4l8.8-51.9c-3-0.6-6-1.2-9.1-1.7l-5.1,29.9l-0.9-2.6c-3.4-10-6.8-20.1-10.2-29.9
	C290.5,261,288,260.6,285.6,260.3"/>
<path class="st1" d="M328.3,444.6h12.9c5,0,9.1-4,9.1-9.1V429c0.2-3.3-1.5-6.5-4.4-8.1c0,0-16.1-7.1-16.3-7.3
	c-0.9-0.5-1.4-1.4-1.5-2.5v-1c0-1.6,1.3-2.8,2.8-2.8c0,0,0,0,0,0h7.4c1.5,0,2.8,1.2,2.8,2.8v1.9h9.1v-4.2c0-5-4.1-9.1-9.1-9.1h-12.9
	c-5,0-9.1,4-9.1,9.1v4.7c-0.2,3.3,1.5,6.5,4.4,8.1c0,0,16.1,7.1,16.3,7.3c0.9,0.5,1.4,1.4,1.5,2.5v2.9c0,1.5-1.3,2.8-2.8,2.8
	c0,0,0,0,0,0H331c-1.5,0-2.8-1.2-2.8-2.8c0,0,0,0,0,0v-2h-9.1v4.3C319.1,440.6,323.2,444.7,328.3,444.6"/>
<polygon class="st1" points="350.3,375.9 332.8,375.9 332.8,365.9 344.7,365.9 344.7,357.3 332.8,357.3 332.8,347.4 350.3,347.4 
	350.3,338.7 323.8,338.7 323.8,384.6 350.3,384.6 "/>
<polygon class="st1" points="312.2,375.9 295.6,375.9 295.6,338.7 286.6,338.7 286.6,384.6 312.2,384.6 "/>
<path class="st1" d="M335.6,325.8l14-41.6l0.6,0.2c3.6,1.3,7.3,2.6,10.9,3.9l2.8-8.3c-10.5-3.9-21.3-7.5-32-10.7l-2.8,8.3
	c3.7,1.1,7.4,2.3,11,3.5l0.7,0.2l-14,41.6C329.8,323.8,332.7,324.8,335.6,325.8"/>
<polygon class="st1" points="219.4,407.4 219.4,398.8 190.7,398.8 190.7,444.7 219.4,444.7 219.4,436 199.8,436 199.8,426 
	213.8,426 213.8,417.4 199.8,417.4 199.8,407.4 "/>
<path class="st1" d="M182.9,310.3c0-0.1-0.1-0.2-0.1-0.3l-10.5-31c-1.4-4.1-5.3-6.9-9.7-7c-1,0-2.1,0.2-3.1,0.5
	c-4.1,1.3-8.2,2.7-12.2,4.1c-5.2,1.9-8,7.6-6.2,12.9l10.5,31c1.4,3.9,5.1,6.6,9.2,6.6c1.1,0,2.3-0.2,3.4-0.6c4-1.4,8.1-2.8,12.2-4.1
	C181.6,320.9,184.5,315.4,182.9,310.3z M172.7,313.3c-0.5,0.9-1.3,1.7-2.3,2c-0.6,0.2-1.2,0.4-1.8,0.6c-1.3,0.4-2.6,0.9-3.8,1.3
	c-0.4,0.1-0.7,0.2-1.1,0.2c-0.1,0-0.1,0-0.2,0h0c0,0,0,0,0,0c0,0,0,0,0,0h0c-0.4,0-0.6-0.2-1-0.3c-1.2-0.3-2.3-1.1-2.8-2.4L151,289
	c-0.4-1-0.3-2.1,0.2-3.1c0.4-0.9,1.2-1.7,2.3-2h0c0.4-0.1,0.8-0.3,1.2-0.4c1.5-0.5,3-1,4.5-1.5c0.4-0.1,0.8-0.2,1.3-0.2
	c1.7,0,3.2,1.1,3.8,2.7l0,0c0,0,0,0,0,0l8.7,25.7C173.2,311.2,173.1,312.3,172.7,313.3z"/>
<path class="st1" d="M216.4,298.3l-0.5-0.7l0.8-0.3c4.1-1.8,6.5-6.1,5.8-10.5l-2.7-16.7c-0.8-4.9-5-8.5-10-8.6c-0.5,0-1,0-1.5,0.1
	c-7.1,1.1-14.2,2.3-21.2,3.6l8.4,52c3-0.6,6.1-1.1,9.1-1.7h0l-2.5-15.6l0.7-0.1c1.3-0.2,2.5-0.4,3.8-0.6l0.4-0.1l0.2,0.4
	c3.3,4.7,6.6,9.3,10,14c3-0.4,6-0.9,9-1.3C222.9,307.5,219.6,302.9,216.4,298.3z M212.2,288.2c-0.1,0.1-0.3,0.1-0.4,0.2
	c-0.6,0.6-1.3,1.2-2.2,1.3c0,0,0,0-0.1,0c-2.8,0.4-5.5,0.9-8.3,1.4l-0.1,0l-0.6,0.1l0,0h0l-3.1-19.1l0,0v0l0.7-0.1
	c2.8-0.5,5.5-0.9,8.3-1.4c2.2-0.3,4.2,1.1,4.6,3.3l1.8,11.2c0,0,0,0,0,0c0,0.3-0.2,0.6-0.2,0.9C212.7,286.9,212.6,287.6,212.2,288.2
	z"/>
<path class="st1" d="M396.5,295.5c-3.8-2-7.6-4-11.5-5.9c-1.4-0.7-2.9-1.1-4.4-1.1c-3.8,0-7.3,2.2-9.1,5.5l-15,29.1
	c-1.2,2.3-1.4,5-0.6,7.5c0.8,2.5,2.7,4.6,5,5.8c3.8,1.9,7.7,3.9,11.5,5.9c1.5,0.8,3.1,1.2,4.7,1.2c3.6,0,7-2,8.7-5.3l15-29
	C403.2,304.2,401.4,298.1,396.5,295.5z M391.1,307l-9,17.4l-3.5,6.7c-0.2,0.4-0.6,0.7-1,1.1c-0.2,0.2-0.3,0.4-0.5,0.5
	c-0.5,0.3-1.1,0.4-1.7,0.5c-0.1,0-0.3,0.1-0.4,0.1c0,0,0,0,0,0c0,0,0,0,0,0c-0.1,0-0.2-0.1-0.2-0.1c-0.6,0-1.1-0.1-1.6-0.4
	c-1.8-0.9-3.5-1.8-5.3-2.7c0,0,0,0,0,0c-0.8-0.4-1.2-1.1-1.5-1.8c-0.1-0.2-0.3-0.3-0.4-0.5c0,0,0,0,0,0c-0.3-1-0.2-2,0.3-3
	l12.5-24.1c0.3-0.7,0.9-1.2,1.5-1.6c0.6-0.4,1.3-0.6,2.1-0.6c0.6,0,1.2,0.2,1.8,0.4c1.2,0.6,2.3,1.2,3.4,1.8c0.6,0.3,1.2,0.6,1.9,1
	C391.3,302.7,392.1,305.1,391.1,307z"/>
<path class="st1" d="M221.3,338.7H209l-11.3,45.8h9.2l1.9-8.6h12.5l1.9,8.6h9.2L221.3,338.7z M210.9,367.3L210.9,367.3L210.9,367.3
	l4.3-19.1l0,0l0,0l4.3,19.1H210.9z"/>
<path class="st1" d="M264,338.7C264,338.7,264,338.7,264,338.7h-19.8v45.8h9v-13.4H264c5,0,9.1-4.1,9.1-9.1v-14.3
	C273,342.8,269,338.7,264,338.7z M264.1,359.8C264.1,359.8,264.1,359.8,264.1,359.8c0,1.2-0.8,1.9-1.8,2.4c-0.3,0.1-0.6,0.4-1,0.4
	h-8.1v-15.2h8.1c1.3,0,2.3,1,2.6,2.3c0,0.2,0.2,0.3,0.2,0.5V359.8z"/>
<path class="st1" d="M255.1,398.8h-12.3l-12.4,45.8h9.3l2.2-8.6H256l2.2,8.6h9.3L255.1,398.8z M253.8,427.4h-9.7l4.9-19.1l0,0l0,0
	L253.8,427.4L253.8,427.4L253.8,427.4z"/>
<path class="st1" d="M257.6,258.6c-2.1,0-4.3,0-6.4,0c-2.1,0-4.3,0-6.4,0c-5.6,0.1-10,4.7-10,10.2v32.7c0,5.4,4.3,9.7,9.6,9.8
	c0.1,0,0.1,0,0.2,0c1.1,0,6-0.1,13,0c5.4,0.1,9.8-4.1,10-9.5c0-0.1,0-0.2,0-0.3v-32.7C267.6,263.2,263.1,258.7,257.6,258.6z
	 M258.1,298.5c0,2.2-1.8,3.9-4,3.9c0,0,0,0,0,0h-6c-2.2,0-4-1.8-4-3.9c0,0,0,0,0,0v-27.2c0-2.2,1.8-4,4-4h6c2.2,0,4,1.8,4,4V298.5z"
	/>
</svg>
