<?xml version="1.0" encoding="utf-8"?>
<!-- Generator: Adobe Illustrator 21.1.0, SVG Export Plug-In . SVG Version: 6.00 Build 0)  -->
<!DOCTYPE svg PUBLIC "-//W3C//DTD SVG 1.1//EN" "http://www.w3.org/Graphics/SVG/1.1/DTD/svg11.dtd">
<svg version="1.1" id="Layer_1" xmlns="http://www.w3.org/2000/svg" xmlns:xlink="http://www.w3.org/1999/xlink" x="0px" y="0px"
	 width="309px" height="298.1px" viewBox="0 0 309 298.1" style="enable-background:new 0 0 309 298.1;" xml:space="preserve">
<style type="text/css">
	.st0{fill:#99999A;}
	.st1{fill:#001F5B;}
	.st2{fill:#071C2C;}
	.st3{fill:#FFFFFF;}
</style>
<title>Vancouver Canucks light logo</title>
<g>
	<path class="st0" d="M168.3,298.1c-34.6,0-64.9-6.4-90.2-19c-20.4-10.1-37.5-24.3-50.9-42.1c-22.8-30.2-26.8-60.2-27-61.4L0,174.7
		l0.2-0.9c0.6-2.3,14.8-56.4,71.7-89.4L60.2,43.3l44,29.8c10.2-3.8,19.1-8.1,22.5-9.8c2.4-6.3,5.5-31.5,5.5-56V3l4.2-0.7
		C137,2.3,151.2,0,158.2,0c6.9,0,27.8,0,34.9,21l0.1,0.2c3.8,12.8,10.2,34,11.5,37.2c1.6,2.4,13.7,7,22.5,10.3
		c22.7,8.5,53.7,20,63.1,41.8c7.2,5.1,18.7,13.9,18.7,26.1c0,11.4-5.4,17.8-6.8,19.2l-28.8,32.6l-3.7-4.8c-0.1-0.1-12.4-15-52-26.5
		L155.8,188c-1.6,0.8-7.8,2.7-31.1,2.7c0,0,0,0,0,0c-2,0-4.1,0-6.3,0c8.7,10.9,26.1,23.3,60.2,23.3c47.4,0,85.1-19.2,85.5-19.4
		l4.7-2.4l29,64.7l-2.9,2.4C293.1,260.7,247.5,298.1,168.3,298.1z"/>
	<path class="st0" d="M153.6,183.5l63.6-31.7c43.6,12.3,56.4,28.8,56.4,28.8l24.9-28.2c1.4-1.4,5.5-6.6,5.5-15.8
		c0-10-10.4-17.7-17.8-22.9c-12.3-32.6-81-42-86.1-53.3c-1.6-3.9-11.7-37.8-11.7-37.8C182.4,5,164.8,5,158.2,5c-6.7,0-21,2.3-21,2.3
		c0,24.4-3.3,54.2-6.8,59.7c0,0-12.4,6.5-26.9,11.7L68.8,55.2l9.1,31.6C19.3,118.9,5.1,175,5.1,175s15,118.1,163.2,118.1
		c78.3,0,123.5-37.8,123.5-37.8l-25.3-56.4c0,0-38.5,20-87.8,20c-45.4,0-63.1-21.2-69.6-33.5C147.6,186.5,153.6,183.5,153.6,183.5
		L153.6,183.5z"/>
	<path class="st1" d="M151.3,177.3l65.2-32.7c44.2,12.5,56.9,26,56.9,26l20.2-22.7c0,0,3.7-3.5,3.7-11.4c0-7.3-10.9-14.7-16.8-18.8
		c-12-32.7-78.8-38.7-86.2-54.1c-3-6.2-6.7-21-12.3-39c-4.5-13-17.5-13-23.9-13c-6.3,0-14.4,1.3-14.4,1.3c0,13.3-2.5,52-8.7,58.7
		c-1.5,2-12.9,6.6-25.3,11.3l3.7,2.5l-3.8,3.8l-7.1,7.2l-7.8,24.4l-10.2-5.2l3.7,9l-18.2,3l10.3,3.6l-29.6,22.7l8,0.6l-10.6,19
		c15.3-6.9,19.8-8.2,19.8-8.2l-4.4-4.5l30.7-12.4c0,0-2.3,6.2-2.3,18.1c0,1.7,0.2,4.2,0.8,7.2c3.8,18.6,21.9,56.8,85.8,56.8
		c46.2,0,82-16.2,82-16.2l16.6,37.1c0,0-43.4,30.1-109,30.1c-134.3,0-151.3-105.6-151.3-105.6c18.5-49.5,49.6-71.2,69.4-80.3
		L80.3,95l-0.6-1.9c-52.4,28.9-67.9,82.3-67.9,82.3s15.9,111.1,156.4,111.1c71.9,0,115.3-33.3,115.3-33.3l-20.3-45.4
		c0,0-38,17.8-84.5,17.8c-69.3,0-79.5-47.3-79.5-47.3S138.7,180.7,151.3,177.3L151.3,177.3z M291.4,142.4c0.4-1.3,0.5-2.6,0.3-3.9
		C291.9,139.8,291.8,141.1,291.4,142.4c0.6-1.1,1.1-2.6,1.1-4.6C292.5,139.8,292,141.3,291.4,142.4L291.4,142.4z"/>
	<path class="st2" d="M276.5,120.9c-11.2-32-72.4-34.2-86.2-54.4c-3.8-5.6-10.1-41.4-16.5-46.3c-7-5.4-25-2.9-25-2.9
		c0,5-1.2,48.9-10.4,58c-6.1,5.2-16.4,7.5-28.7,13.9l-7.1,7.2l-7.8,24.4l-10.2-5.2l3.7,9l-18.2,3l10.3,3.6l-29.6,22.7l8,0.6
		l-10.6,19c15.3-6.9,19.8-8.2,19.8-8.2l-4.4-4.5l30.7-12.4c0,0-2.3,6.2-2.3,18.1c0,1.7,0.2,4.2,0.8,7.2c1.3-1.3,27.7-27.6,55.5-33.3
		l-42.9,33.2c0,0,35.3,1.5,44-1c27.3-12.7,49.2-24.6,66.4-33.2c39.9,10.6,56.9,24.4,56.9,24.4l4.2-4.7c-2-1.5-16.7-11.6-45.5-21.1
		c8.6-3.4,19-7.4,21.7-7.4c6.4,0,19.4,8.3,33.5,17.4l3.1-3.6c0,0,0.7-0.7,1.4-2c0.6-1.1,1.1-2.6,1.1-4.6
		C292.5,131.2,283.8,126.8,276.5,120.9L276.5,120.9z"/>
	<path class="st0" d="M122.1,116.1l-16.6,9.2l33,4.5L122.1,116.1L122.1,116.1z M100.7,142.1l2.8-20.6l-38.4,26L100.7,142.1z
		 M133,85.3l-27.7,15.4l7.2,17.3C112.5,118,133,85.3,133,85.3z"/>
	<path class="st3" d="M305.1,246.8c0-1.3-1-2.3-2.3-2.3h-3.3v7.8h1.5v-3.2h1l1.5,3.2h1.6l-1.5-3.3
		C304.4,248.7,305.1,247.8,305.1,246.8L305.1,246.8z M302.8,247.7H301V246h1.8c0.5,0,0.8,0.4,0.8,0.8
		C303.6,247.2,303.2,247.7,302.8,247.7L302.8,247.7z M74.5,143.9l23.6-3.7l2.4-13.9L74.5,143.9L74.5,143.9z M132.7,127.1l-12.7-7.4
		l-9,4.8L132.7,127.1z M111.8,112.4L127,91.8l-17.6,9.9L111.8,112.4L111.8,112.4z"/>
	<path class="st3" d="M178.8,236c-73.6,0-92.1-50.5-92.1-69.4c0-4.3,0.3-7.7,0.6-10.7l-16.9,5.6l2.2,4.8l-13.2,4.8L48,178.6
		l23.1,4.3l-4.8,16.5l9.9-2.9l9.5,24.2l11.4-1.5l3.8,16.9c0,0,21.5,14.9,57.7,18.1c48,4.3,90.9-12.1,90.9-12.1s-51.2,20-97.8,15.1
		c-35.5-3.8-58.8-18.2-58.8-18.2l-0.3-15.3l-14,0.2L72,200.4l-12.5,5.8l5.5-21l-23.9-3l4.9-14.6l5.7-11.5l-7.7,0.2l32.1-23.8
		L62.3,127l22.8-4.5l-7.9-16l14,8l5.5-17.4c-16.8,5.9-53.1,24.5-74.1,79.2c2.5,12.7,24.5,99.8,145.7,99.8
		c52.2,0,90.4-19.8,102.2-26.7l-12.6-28C246.4,225.8,216.1,236,178.8,236L178.8,236z M74.2,63.5L83.9,92l17.2,4.2l6.9-9.4L74.2,63.5
		z M169.2,65.6c-2.5-3.1-5.5-35-5.5-35s-0.5,32.5-2.4,35.4s-11.2,8.3-11.2,8.3s10.4-3.4,15.5-3.7c3.7-0.2,15.6,2.3,15.6,2.3
		S171.7,68.8,169.2,65.6L169.2,65.6z"/>
	<path class="st3" d="M170.1,123.7c-51.8,3.1-75.9,47.6-77.2,50.1c1.3-1.3,27.7-27.6,55.5-33.3L170.1,123.7z M276.5,120.9
		c-29.1-3.2-36.9-10.2-36.9-14.7c0-1.7,1.5-2.2,2.9-2.2c6.6,0,15.3,4.7,20.2,10c-3-7.6-20.3-16.5-31.7-16.5c-2.1,0-5.3,0.6-5.3,4.1
		c0,7.1,10.8,16.2,38.4,18.4c14.8,3.5,30.2,11.8,27.3,22.4c0.6-1.1,1.1-2.6,1.1-4.6C292.5,131.2,283.8,126.8,276.5,120.9
		L276.5,120.9z M238.1,137.8l10.8,3.8c2-0.8,4.1-1.9,4.3-2.2c0.1-0.3,0.1-0.5-0.4-0.9c-0.3-0.3-5.1-2.1-8.1-3.2L238.1,137.8
		L238.1,137.8z M247.1,134.4c2.9,1.1,6.9,2.7,7.2,2.8c0.5,0.1,1.2,0.1,1.6,0c0.4,0,2.7-1.3,4.5-2.2c-1.7-0.8-5.1-2.3-7.3-2.3
		C251,132.7,247.1,134.4,247.1,134.4L247.1,134.4z M257.8,138.1c-0.1,0.2,0,0.4,0.4,0.7c0.4,0.3,6,3.2,6.4,3.2c0.5,0,0.8,0,1.3,0
		c0.3-0.1,2.3-1.3,3.5-2.2l-7.5-4C260,136.7,258,137.8,257.8,138.1L257.8,138.1z M263.1,144c0.2-0.2,0.3-0.5,0.1-0.7
		c-0.3-0.4-5.9-3.3-6.5-3.4c-0.6-0.1-1-0.1-1.5,0.2c-0.5,0.2-3.3,1.7-4.4,2.3l8.7,3.9C261.2,145.4,262.9,144.2,263.1,144L263.1,144z
		 M273.7,147.1c0.2,0,0.7-0.1,1.4-0.3c0.3-0.1,1.6-1.1,2.5-1.9l-6.7-4.3c-1.6,1-3.3,2.2-3.5,2.4c0,0.1,0,0.2,0.4,0.7L273.7,147.1
		L273.7,147.1z M276.5,147.7c-0.2,0.4-0.2,0.6-0.1,0.6c0.2,0.2,3.7,2.6,6.1,4.1l2.6-2.6l-6.1-4C277.8,146.6,276.6,147.6,276.5,147.7
		z M272.7,148.9c0.1-0.2,0-0.5-0.2-0.7c-0.3-0.3-5.7-3.2-6.1-3.3s-1.2,0-1.7,0.1c-0.2,0-1.8,1.1-3.3,2.2l8.2,3.7
		C271,150.1,272.5,149.1,272.7,148.9L272.7,148.9z M274.1,150c-0.2,0.1-1.7,1.2-2.9,2.1l7.4,4.6l2.7-3.1c-2.2-1.5-5.5-3.8-5.7-3.8
		C275.3,149.7,274.5,149.8,274.1,150L274.1,150z"/>
	<path class="st3" d="M216,139.4c39.9,10.6,56.9,24.4,56.9,24.4l4.2-4.7c-2-1.5-16.7-11.6-45.5-21.1c8.6-3.4,19-7.4,21.7-7.4
		c6.4,0,19.4,8.3,33.5,17.4l3.1-3.6c-12.3-8.5-26.7-18.5-37-18.5C244.5,125.9,232.4,131.2,216,139.4L216,139.4z"/>
</g>
</svg>
