<?xml version="1.0" encoding="utf-8"?>
<!-- Generator: Adobe Illustrator 21.1.0, SVG Export Plug-In . SVG Version: 6.00 Build 0)  -->
<!DOCTYPE svg PUBLIC "-//W3C//DTD SVG 1.1//EN" "http://www.w3.org/Graphics/SVG/1.1/DTD/svg11.dtd">
<svg version="1.1"
	 id="Layer_1" xmlns:cc="http://creativecommons.org/ns#" xmlns:dc="http://purl.org/dc/elements/1.1/" xmlns:rdf="http://www.w3.org/1999/02/22-rdf-syntax-ns#"
	 xmlns="http://www.w3.org/2000/svg" xmlns:xlink="http://www.w3.org/1999/xlink" x="0px" y="0px" width="300px" height="406px"
	 viewBox="0 0 300 406" style="enable-background:new 0 0 300 406;" xml:space="preserve">
<style type="text/css">
	.st0{fill:#FFFFFF;}
	.st1{fill:#85714D;}
	.st2{fill:#27251F;}
	.st3{fill:#333F48;}
</style>
<g transform="translate(.91597 1.084)">
	<path class="st0" d="M172.8,21.1L149.1-1.1l-23.7,22.2H-0.9v277.4c47.2,52.3,86.8,77.2,150,106.4c63.1-29.1,102.8-54,150-106.4
		V21.1L172.8,21.1L172.8,21.1z"/>
	<path class="st1" d="M170.7,26.4c-0.2-0.2-21.6-20.3-21.6-20.3s-21.4,20.1-21.6,20.3H4.3v270.2c44.2,49,83.6,74.4,144.8,102.6
		c61.1-28.1,100.4-53.5,144.8-102.6V26.4L170.7,26.4L170.7,26.4z"/>
	<path class="st2" d="M283.4,36.8v255.8c-40.4,44.7-82.6,71.3-134.3,95.2c-51.7-23.8-94-50.4-134.3-95.2V36.8h90.4
		c-35.6,20.7-59,56.8-59,105.5v137.6c24.3,25.2,57.1,50.5,88.2,65.2L65.9,147.9l64.4,31l-7.8,7.8l23.1,74.7h6.9l23.1-74.7l-7.8-7.8
		l64.4-31l-68.4,197.2c30.9-14.6,63.7-39.8,88.2-65.2V142.3c0-48.7-23.4-84.7-59-105.5L283.4,36.8L283.4,36.8z"/>
	<path class="st3" d="M149.1,6.1v197.3l14.3-46.1l76.4-36.8C233,81,207.2,50.8,167,36.1c1.8-7.9,3.7-9.8,3.7-9.8
		c0,0-19.1-17.9-21.4-20.1L149.1,6.1L149.1,6.1z M134.7,60.5l-5.2,88l0,0l-60.8-23.1l66,31.8L134.7,60.5L134.7,60.5z M51.3,162
		l5.2,29.6l15.8,45.3l26.3,62L51.3,162L51.3,162z M246.9,162L190,326.5l9.8-12.7c0,0,25.9-19.8,41.8-38.1v-84L246.9,162L246.9,162z"
		/>
	<path class="st0" d="M127.5,26.4C79.6,43.8,46.1,84,46.1,142.3v137.6c1.7,1.8,3.5,3.5,5.2,5.3V142.3c0-48.9,23.5-88.2,74.6-109.6
		c2.6,1.3,5.2,3.4,5.2,3.4c-0.5-2-1.1-4.2-1.8-6.2C129.1,29.3,128,26.8,127.5,26.4L127.5,26.4z M238.9,144.7l-6.6,3.2l-68.4,197.2
		l9.2-10.6L238.9,144.7L238.9,144.7z M130.3,178.8l-7.8,7.8l23.1,74.7l3.4-6.6l-20.6-66.7L130.3,178.8L130.3,178.8z"/>
</g>
</svg>
