<?xml version="1.0" encoding="utf-8"?>
<!-- Generator: Adobe Illustrator 21.1.0, SVG Export Plug-In . SVG Version: 6.00 Build 0)  -->
<!DOCTYPE svg PUBLIC "-//W3C//DTD SVG 1.1//EN" "http://www.w3.org/Graphics/SVG/1.1/DTD/svg11.dtd">
<svg version="1.1"
	 id="Layer_1" xmlns:cc="http://creativecommons.org/ns#" xmlns:dc="http://purl.org/dc/elements/1.1/" xmlns:rdf="http://www.w3.org/1999/02/22-rdf-syntax-ns#"
	 xmlns="http://www.w3.org/2000/svg" xmlns:xlink="http://www.w3.org/1999/xlink" x="0px" y="0px" width="316px" height="425.8px"
	 viewBox="0 0 316 425.8" style="enable-background:new 0 0 316 425.8;" xml:space="preserve">
<style type="text/css">
	.st0{fill:#FFFFFF;}
	.st1{fill:#85714D;}
	.st2{fill:#333F48;}
</style>
<g transform="translate(.91597 1.084)">
	<path class="st0" d="M153.7,423.1C91.3,394.3,50.6,369.7,1.1,314.8l-2.1-2.3V24.1h131.1l26.9-25.2l26.9,25.2h131.1v288.5l-2.1,2.3
		c-49.1,54.6-91.5,80.2-152.6,108.3l-3.4,1.5L153.7,423.1z"/>
	<path class="st0" d="M180.8,32.1L157.1,9.9l-23.7,22.2H7.1v277.4c47.2,52.3,86.8,77.2,150,106.4c63.1-29.1,102.8-54,150-106.4V32.1
		H180.8L180.8,32.1z"/>
	<path class="st1" d="M178.7,37.4c-0.2-0.2-21.6-20.3-21.6-20.3s-21.4,20.1-21.6,20.3H12.3v270.2c44.2,49,83.6,74.4,144.8,102.6
		c61.1-28.1,100.4-53.5,144.8-102.6V37.4H178.7L178.7,37.4z"/>
	<path d="M291.4,47.8v255.8c-40.4,44.7-82.6,71.3-134.3,95.2c-51.7-23.8-94-50.4-134.3-95.2V47.8h90.4c-35.6,20.7-59,56.8-59,105.5
		v137.6c24.3,25.2,57.1,50.5,88.2,65.2L73.9,158.9l64.4,31l-7.8,7.8l23.1,74.7h6.9l23.1-74.7l-7.8-7.8l64.4-31l-68.4,197.2
		c30.9-14.6,63.7-39.8,88.2-65.2V153.3c0-48.7-23.4-84.7-59-105.5L291.4,47.8L291.4,47.8z"/>
	<path class="st2" d="M157.1,17.1v197.3l14.3-46.1l76.4-36.8C241,92,215.2,61.8,175,47.1c1.8-7.9,3.7-9.8,3.7-9.8
		s-19.1-17.9-21.4-20.1L157.1,17.1L157.1,17.1z M142.7,71.5l-5.2,88l0,0l-60.8-23.1l66,31.8V71.5L142.7,71.5z M59.3,173l5.2,29.6
		l15.8,45.3l26.3,62L59.3,173L59.3,173z M254.9,173L198,337.5l9.8-12.7c0,0,25.9-19.8,41.8-38.1v-84L254.9,173L254.9,173z"/>
	<path class="st0" d="M135.5,37.4C87.6,54.8,54.1,95,54.1,153.3v137.6c1.7,1.8,3.5,3.5,5.2,5.3V153.3c0-48.9,23.5-88.2,74.6-109.6
		c2.6,1.3,5.2,3.4,5.2,3.4c-0.5-2-1.1-4.2-1.8-6.2C137.1,40.3,136,37.8,135.5,37.4L135.5,37.4z M246.9,155.7l-6.6,3.2l-68.4,197.2
		l9.2-10.6L246.9,155.7L246.9,155.7z M138.3,189.8l-7.8,7.8l23.1,74.7l3.4-6.6L136.4,199L138.3,189.8L138.3,189.8z"/>
</g>
</svg>
