<?xml version="1.0" encoding="utf-8"?>
<!-- Generator: Adobe Illustrator 21.1.0, SVG Export Plug-In . SVG Version: 6.00 Build 0)  -->
<!DOCTYPE svg PUBLIC "-//W3C//DTD SVG 1.1//EN" "http://www.w3.org/Graphics/SVG/1.1/DTD/svg11.dtd">
<svg version="1.1" id="Layer_1" xmlns="http://www.w3.org/2000/svg" xmlns:xlink="http://www.w3.org/1999/xlink" x="0px" y="0px"
	 width="310px" height="310px" viewBox="0 0 310 310" style="enable-background:new 0 0 310 310;" xml:space="preserve">
<style type="text/css">
	.st0{fill:#B0B7BC;}
	.st1{fill:#00285E;}
	.st2{fill:#FFFFFF;}
	.st3{fill:#820024;}
	.st4{fill:#717073;}
	.st5{fill:#C41230;}
</style>
<title>Winnipeg Jets Logo 2011</title>
<g>
	<path class="st0" d="M155,310C155,310,155,310,155,310C69.5,310,0,240.5,0,155C0,69.5,69.5,0,155,0c0,0,0,0,0,0
		C240.5,0,310,69.5,310,154.9v0.1c0,41.4-16.1,80.3-45.4,109.6C235.3,293.9,196.4,310,155,310z M155,10c-80,0-145,65-145,145
		c0,80,65,145,145,145c0,0,0,0,0,0c38.7,0,75.1-15.1,102.5-42.5C284.9,230.2,300,193.7,300,155v-0.1C300,75,235,10,155,10
		C155,10,155,10,155,10z"/>
	<path class="st0" d="M305,155c0,82.8-67.2,150-150,150S5,237.8,5,155C5,72.1,72.2,5,155,5C237.8,5,305,72.1,305,155
		C305,155,305,155,305,155"/>
	<path class="st1" d="M294.9,155c0,77.3-62.7,139.9-139.9,139.9c-77.3,0-139.9-62.7-139.9-139.9C15.1,77.7,77.7,15.1,155,15.1
		C232.3,15.1,294.9,77.7,294.9,155C294.9,155,294.9,155,294.9,155"/>
	<path class="st2" d="M168.5,52.7L155,18.6l-14.4,34.1c-56.6,7.7-96.2,59.8-88.5,116.4s59.8,96.2,116.4,88.5
		c56.6-7.7,96.2-59.8,88.5-116.4C250.8,95.2,214.6,59,168.5,52.7"/>
	<polygon class="st3" points="91.9,135.7 100.4,156.4 139.5,137.7 141.6,113.7 144.5,100.3 124.8,87.4 132.8,134.4 111.8,113.5 
		111.2,130 80.6,118.4 91.9,148.5 91.9,145.9 	"/>
	<polygon class="st3" points="137.6,181.5 109.7,179.6 121,189.4 114.4,197.7 128.7,200 137.6,187.3 	"/>
	<polygon class="st3" points="155,231 146.4,211.4 146.2,211.8 155,254.5 163.9,211.5 163.9,211.4 	"/>
	<polygon class="st3" points="172.7,187.3 181.5,200 196.1,197.7 189.4,189.4 200.7,179.6 172.7,181.5 	"/>
	<path class="st3" d="M170.7,137.7l39.1,18.6l8.3-20.9l0.2,10.4v3.1l11.6-30.6L199.2,130l-0.6-16.5l-21,20.9
		c0.5-3.3,7.9-46.9,7.9-46.9l-19.8,13l2.9,13.3L170.7,137.7z"/>
	<polygon class="st3" points="235.2,149.5 218.3,149.4 218.3,164.2 	"/>
	<polygon class="st3" points="75.2,149.5 91.9,164.1 91.9,149.4 	"/>
	<polygon class="st4" points="218.2,135.5 209.8,156.3 170.7,137.7 168.6,113.7 155,51.5 141.7,113.7 139.5,137.7 100.4,156.3 
		91.9,135.7 91.9,145.9 91.9,181.9 98.2,178.8 137.6,181.5 137.6,187.3 119.7,213.1 119.7,228.7 144.3,216.5 146.4,211.4 155,231.1 
		163.9,211.4 165.9,216.5 190.6,228.7 190.6,213 172.7,187.3 172.7,181.5 212.1,178.8 218.3,181.9 218.3,145.9 	"/>
	<polygon class="st0" points="144.3,114.1 142.1,139.5 142.1,139.5 140.9,153.8 138.3,141.3 99,160 94.6,149.4 94.6,177.6 
		97.6,176.1 140.3,179 140.3,188.1 122.4,213.9 122.4,224.3 142.2,214.5 145.3,206.8 143.6,198.2 146.5,205 155,224.3 155,62.4 	"/>
	<path class="st5" d="M137.5,181.5l-25.5-1.7l10.8,9.4c-0.2,0.5-5.8,7.5-5.8,7.5l12.6,2.1l7.9-11.4V181.5z"/>
	<path class="st5" d="M144.2,101.8l-17.5-11.5c0,0.1,0,0.1,0,0.2l13.9,33.9l0.9-10.7L144.2,101.8z"/>
	<path class="st5" d="M132.8,136.3L132.8,136.3l-19.7-19.6l-0.6,15.2l-29.3-11l28.7,30.1l24.1-11.5L132.8,136.3z"/>
	<polygon class="st5" points="148.7,216.6 155,248.8 155,231.1 	"/>
	<polygon class="st5" points="78.9,150.9 91.9,162.2 91.9,150.8 	"/>
	<polygon class="st5" points="183.6,90.4 166.1,102 168,111 	"/>
	<polygon class="st5" points="227.5,120.8 198.2,131.9 189.6,146.7 195.5,149.5 	"/>
</g>
</svg>
