<svg xmlns="http://www.w3.org/2000/svg" viewBox="0 0 227.58 181.011"><title>Washington Capitals secondary light logo</title><path d="M140.787 77.94l-6.975 18.812-4.228-10.073s1.64 1.3 2.34 2.543c0 0 5.155-6.184 5.155-12.583 0-7.1-5.168-10.005-8.797-10.797-1.696-1.752-5.72-4.443-14.494-4.443-8.99 0-13.93 3.007-15.557 9.485l-5.687 22.61L86.78 77.94C75.68 47.958 16.067 47.268 6.457 0c-13.137 22.87-2.16 42.6-2.16 42.6-7.042 25.007 9.543 44.52 9.543 44.52-3.9 31.723 36.3 51.722 47.256 60.507 12.097 9.71 25.55 33.385 25.55 33.385s.712-8.592 5.924-11.08c0 0 2.623-20.835 17.433-24.7 0 0-.068-2.93 2.59-4.274l1.186-19.92 1.186 19.92c2.657 1.345 2.59 4.273 2.59 4.273 14.82 3.856 17.432 24.703 17.432 24.703 5.234 2.487 5.947 11.08 5.947 11.08s13.453-23.675 25.55-33.375c10.955-8.784 51.157-28.795 47.257-60.507 0 0 16.596-19.512 9.542-44.52 0 0 10.978-19.74-2.16-42.6-9.61 47.258-69.224 47.948-80.337 77.93zm58.008-8.84c19.93-13.387 22.16-23.324 22.16-23.324 5.267 22.667-10.255 40.36-10.255 40.36 3.878 31.508-35.103 50.377-46.08 59.173-10.98 8.806-22.77 28.398-22.77 28.398-.984-3.29-3.03-4.93-4.115-5.596-1.278-8.355-6.998-21.718-17.59-25.177-.204-.995-.815-2.51-2.41-3.663l-3.945-26.794-3.946 26.794c-1.594 1.153-2.205 2.668-2.408 3.663-10.593 3.46-16.314 16.822-17.59 25.177-1.086.667-3.133 2.306-4.116 5.596 0 0-11.792-19.604-22.77-28.4-10.977-8.806-49.958-27.663-46.08-59.172 0 0-15.522-17.693-10.254-40.36 0 0 2.227 9.937 22.16 23.323 0 0-36.348-28.468-22.725-60.553 12.64 39.705 68.15 43.99 77.95 70.42l9.102 24.545 8.004-31.915c1.097-4.364 4.08-7.235 12.673-7.235 10.513 0 12.898 4.228 12.898 4.228s7.416.622 7.416 8.05c0 4.16-3.086 8.648-3.086 8.648-3.414-3.912-6.037-1.888-6.037-1.888l9.01 21.435 9.588-25.867c9.802-26.432 65.3-30.717 77.95-70.42 13.614 32.084-22.733 60.55-22.733 60.55z" fill="#FFF"/><path d="M130.15 81.263s.71-2.578.71-4.307c0-5.71-6.353-5.234-6.353-5.234 0-1.47-2.453-4.013-10.706-4.013-8.048 0-9.077 2.86-9.473 4.42l-11.113 44.226 19.592-28.817 21.955 28.805-13.95-34.572c-.01.01 5.812-4.534 9.34-.51zm-14.404-8.253l-4.658-1.017s4.33-.916 9.338 1.413c-3.154 2.69-4.68-.396-4.68-.396zm38.98 98.188c0-1.402-1.13-2.532-2.53-2.532s-2.533 1.13-2.533 2.532a2.527 2.527 0 0 0 2.532 2.532 2.543 2.543 0 0 0 2.532-2.532zm-4.52 0c0-1.097.892-1.99 1.99-1.99 1.096 0 1.99.893 1.99 1.99s-.894 1.99-1.99 1.99a2 2 0 0 1-1.99-1.99z" fill="#FFF"/><path d="M153.234 172.634l-.577-1.22a.886.886 0 0 0 .577-.815.859.859 0 0 0-.86-.86h-1.22v2.883h.543v-1.176h.384l.544 1.176h.61v.01zm-.86-1.72h-.677v-.632h.678c.17 0 .317.136.317.317 0 .18-.136.315-.317.315z" fill="#FFF"/><path d="M36.88 70.286L24.013 38.732C15.467 32.9 8.82 26.737 6.106 19.965c.7 22.702 15.24 38.314 30.773 50.32zm-2.68-.045l3.358 8.243C24.432 70.896 12.403 62.847 8.695 53.6c.904 29.156 26.703 45.763 44.95 58.346L42.635 84.95c19.5 10.988 39.15 21.423 46.6 32.547C77.918 98.74 61.943 89.947 34.2 70.24zM19.604 90.456c.916 29.044 35.895 41.82 46.714 52.627l-7.654-18.8c9.146 5.403 17.49 10.762 23.46 16.21-21.38-29.54-54.617-32.695-62.52-50.037zm183.962-51.723L190.7 70.297c15.534-12.006 30.072-27.63 30.773-50.32-2.712 6.76-9.36 12.922-17.907 18.755zm-18.63 46.217l-11 26.985c18.246-12.583 44.045-29.19 44.95-58.347-3.71 9.248-15.75 17.297-28.864 24.883l3.358-8.24c-27.743 19.704-43.718 28.5-55.035 47.256 7.45-11.113 27.1-21.548 46.59-32.537zm23.04 5.505c-7.903 17.354-41.14 20.508-62.52 50.05 5.98-5.45 14.313-10.81 23.46-16.213l-7.655 18.8c10.82-10.83 45.8-23.605 46.715-52.637z" fill="#C8102E"/><path d="M111.088 71.993l4.658 1.017s1.526 3.086 4.68.396c-5.008-2.33-9.338-1.413-9.338-1.413z" fill="#002D62"/><path d="M143.58 78.968l-9.587 25.867-9.01-21.435s2.623-2.024 6.037 1.888c0 0 3.086-4.488 3.086-8.65 0-7.415-7.416-8.048-7.416-8.048s-2.385-4.228-12.9-4.228c-8.59 0-11.576 2.872-12.672 7.235l-8.016 31.915L84 78.968c-9.802-26.42-65.3-30.716-77.95-70.42-13.612 32.084 22.723 60.55 22.723 60.55C8.843 55.714 6.615 45.777 6.615 45.777 1.358 68.454 16.88 86.136 16.88 86.136c-3.878 31.508 35.103 50.377 46.08 59.173 10.98 8.806 22.77 28.398 22.77 28.398.984-3.29 3.03-4.93 4.115-5.596 1.278-8.355 6.998-21.718 17.59-25.177a5.982 5.982 0 0 1 2.41-3.663l3.945-26.794 3.946 26.794c1.594 1.153 2.205 2.668 2.408 3.663 10.593 3.46 16.314 16.822 17.59 25.177 1.086.667 3.133 2.306 4.116 5.596 0 0 11.792-19.604 22.77-28.4 10.977-8.806 49.958-27.663 46.08-59.172 0 0 15.522-17.693 10.254-40.36 0 0-2.227 9.937-22.16 23.323 0 0 36.348-28.468 22.725-60.553-12.64 39.705-68.15 44-77.94 70.42zM6.106 19.965c2.702 6.772 9.35 12.933 17.908 18.767L36.88 70.297C21.346 58.28 6.807 42.667 6.106 19.965zm52.56 104.315l7.653 18.8c-10.81-10.807-45.8-23.582-46.716-52.625 7.902 17.354 41.14 20.508 62.52 50.05-5.97-5.462-14.313-10.82-23.46-16.225zM42.633 84.95l11 26.985C35.398 99.363 9.588 82.755 8.694 53.6c3.71 9.247 15.75 17.296 28.864 24.882l-3.358-8.24c27.743 19.704 43.718 28.5 55.035 47.256-7.45-11.125-27.1-21.56-46.6-32.55zm70.16 2.588l-19.59 28.818 11.112-44.227c.396-1.56 1.424-4.42 9.474-4.42 8.253 0 10.706 2.53 10.706 4.012 0 0 6.354-.475 6.354 5.234 0 1.73-.712 4.307-.712 4.307-3.527-4.025-9.35.52-9.35.52l13.95 34.572-21.943-28.817zm48.467 55.532l7.655-18.8c-9.146 5.403-17.49 10.762-23.46 16.21 21.38-29.54 54.617-32.694 62.52-50.048-.915 29.055-35.894 41.83-46.714 52.638zm57.625-89.47c-.904 29.156-26.703 45.763-44.95 58.346l11-26.986c-19.502 10.978-39.14 21.412-46.59 32.548 11.317-18.756 27.29-27.55 55.035-47.257l-3.358 8.243c13.126-7.597 25.155-15.646 28.863-24.894zM190.7 70.285l12.867-31.565c8.558-5.82 15.194-11.994 17.908-18.766-.702 22.713-15.24 38.325-30.774 50.332z" fill="#041E42"/></svg>