<?xml version="1.0" encoding="utf-8"?>
<!-- Generator: Adobe Illustrator 21.1.0, SVG Export Plug-In . SVG Version: 6.00 Build 0)  -->
<!DOCTYPE svg PUBLIC "-//W3C//DTD SVG 1.1//EN" "http://www.w3.org/Graphics/SVG/1.1/DTD/svg11.dtd">
<svg version="1.1" id="Layer_1" xmlns="http://www.w3.org/2000/svg" xmlns:xlink="http://www.w3.org/1999/xlink" x="0px" y="0px"
	 width="233.7px" height="199.3px" viewBox="0 0 233.7 199.3" style="enable-background:new 0 0 233.7 199.3;" xml:space="preserve"
	>
<style type="text/css">
	.st0{fill:#FFFFFF;}
	.st1{fill:#C8102E;}
	.st2{fill:#002D62;}
	.st3{fill:#041E42;}
</style>
<title>Washington Capitals secondary light logo</title>
<path class="st0" d="M141,189.7c-0.2-1.8-1.3-7.2-4.2-8.6l-1.5-0.7l-0.2-1.6c0-0.2-2.6-18.9-15.2-22.2l-2.3-0.6l0.1-2.4
	c0-0.1-0.1-1-0.8-1.4c-0.7,0.5-0.8,1.3-0.8,1.5l0.1,2.4l-2.3,0.5c-12.7,3.3-15.2,22-15.2,22.2l-0.2,1.6l-1.5,0.7
	c-3,1.4-4.1,6.8-4.2,8.6l-0.8,9.7l-4.8-8.4c-0.1-0.2-13.3-23.3-24.8-32.5c-1.8-1.4-4.4-3.2-7.5-5.3c-15.2-10.2-43.4-29.2-41-56.7
	C10.4,91.9-1.7,74,4.1,51.3C1.9,46.6-5.3,28.1,6.9,6.9l4-6.9l1.6,7.8c5.2,25.6,25.6,36.7,45.4,47.4c15.2,8.3,29.6,16.1,34.8,30.1
	l2.4,6.5l3.3-13.2c2-7.9,8-11.8,18.5-11.8c8.7,0,13.4,2.4,16,4.7c4.3,1.2,8.6,4.3,9.9,10c6.2-11.6,19.3-18.7,33.1-26.2
	c19.8-10.7,40.2-21.9,45.4-47.4l1.6-7.8l4,6.9c12.2,21.2,5,39.7,2.8,44.4c5.8,22.7-6.2,40.6-9.6,45.1c2.5,27.5-25.7,46.4-41,56.7
	c-3.1,2.1-5.8,3.9-7.5,5.3c-11.5,9.2-24.7,32.3-24.8,32.5l-4.8,8.4L141,189.7z M143.5,174.8c0.5,0.4,1,0.9,1.5,1.5
	c4.2-6.4,12.6-18.3,20.7-24.9c2-1.6,4.8-3.5,8-5.6c14.9-10,39.9-26.6,36.9-50.8l-0.2-1.3l0.9-1c0.1-0.1,10.6-12.4,10.6-29
	c-3.4,4.3-9.1,10-18.6,16.4l-6.4,4.3l2.1-8.5l0.8-0.6c0.3-0.2,28.6-22.8,24.1-49.2c-9.2,17.9-27.4,27.9-43.6,36.9
	c-13.9,7.7-27.1,14.9-31.1,25.6l-12.2,33l-12.8-30.6l1.8-1.4c0.3-0.3,1.6-1.1,3.6-1.1c0.9,0,2,0.2,3.3,0.8c0.6-1.3,1-2.8,1-4.1
	c0-4.2-3.6-4.9-4.7-5.1l-1.7-0.2l-0.6-1.3c-0.4-0.4-2.8-2.8-10.3-2.8c-7.9,0-9.1,2.5-9.8,5L96.7,122L84.2,88.4
	c-4-10.7-17.1-17.9-31.1-25.6C36.9,53.8,18.8,43.9,9.6,25.9c-4.5,26.4,23.8,49,24.1,49.2L30.2,80c-9.5-6.4-15.2-12-18.6-16.4
	c0,16.6,10.5,28.8,10.6,29l0.9,1l-0.2,1.3c-3,24.2,22,40.9,36.9,50.8c3.2,2.2,6,4,8,5.6c8.2,6.5,16.5,18.5,20.7,24.9
	c0.5-0.6,1-1.1,1.5-1.5c1.5-7.7,6.8-21.2,17.9-25.8c0.4-0.9,1-1.9,2-2.9l6.8-45.8l6.7,45.8c1,1,1.6,2,2,2.9
	C136.7,153.6,142,167.1,143.5,174.8z"/>
<path class="st0" d="M143.8,86.3l-7,18.8l-4.2-10.1c0,0,1.6,1.3,2.3,2.5c0,0,5.2-6.2,5.2-12.6c0-7.1-5.2-10-8.8-10.8
	c-1.7-1.8-5.7-4.4-14.5-4.4c-9,0-13.9,3-15.6,9.5l-5.7,22.6l-5.8-15.6C78.7,56.3,19.1,55.7,9.5,8.4C-3.6,31.3,7.3,51,7.3,51
	c-7,25,9.5,44.5,9.5,44.5C13,127.2,53.2,147.2,64.1,156c12.1,9.7,25.5,33.4,25.5,33.4s0.7-8.6,5.9-11.1c0,0,2.6-20.8,17.4-24.7
	c0,0-0.1-2.9,2.6-4.3l1.2-19.9l1.2,19.9c2.7,1.3,2.6,4.3,2.6,4.3c14.8,3.9,17.4,24.7,17.4,24.7c5.2,2.5,5.9,11.1,5.9,11.1
	s13.5-23.7,25.6-33.4c11-8.8,51.2-28.8,47.3-60.5c0,0,16.6-19.5,9.5-44.5c0,0,11-19.7-2.2-42.6C214.5,55.7,154.9,56.3,143.8,86.3
	L143.8,86.3z M201.8,77.5C221.8,64.1,224,54.2,224,54.2c5.3,22.7-10.3,40.4-10.3,40.4c3.9,31.5-35.1,50.4-46.1,59.2
	c-11,8.8-22.8,28.4-22.8,28.4c-1-3.3-3-4.9-4.1-5.6c-1.3-8.4-7-21.7-17.6-25.2c-0.2-1-0.8-2.5-2.4-3.7l-3.9-26.8l-3.9,26.8
	c-1.6,1.2-2.2,2.7-2.4,3.7c-10.6,3.5-16.3,16.8-17.6,25.2c-1.1,0.7-3.1,2.3-4.1,5.6c0,0-11.8-19.6-22.8-28.4
	c-11-8.8-50-27.7-46.1-59.2c0,0-15.5-17.7-10.3-40.4c0,0,2.2,9.9,22.2,23.3c0,0-36.3-28.5-22.7-60.6c12.6,39.7,68.2,44,77.9,70.4
	l9.1,24.5l8-31.9c1.1-4.4,4.1-7.2,12.7-7.2c10.5,0,12.9,4.2,12.9,4.2s7.4,0.6,7.4,8.1c0,4.2-3.1,8.6-3.1,8.6c-3.4-3.9-6-1.9-6-1.9
	l9,21.4l9.6-25.9c9.8-26.4,65.3-30.7,77.9-70.4C238.2,49,201.8,77.5,201.8,77.5L201.8,77.5z"/>
<path class="st0" d="M133.2,89.6c0,0,0.7-2.6,0.7-4.3c0-5.7-6.4-5.2-6.4-5.2c0-1.5-2.5-4-10.7-4c-8,0-9.1,2.9-9.5,4.4l-11.1,44.2
	l19.6-28.8l22,28.8l-13.9-34.6C123.8,90.2,129.7,85.6,133.2,89.6L133.2,89.6z M118.8,81.4l-4.7-1c0,0,4.3-0.9,9.3,1.4
	C120.3,84.5,118.8,81.4,118.8,81.4z M157.8,179.6c0-1.4-1.1-2.5-2.5-2.5s-2.5,1.1-2.5,2.5c0,1.4,1.1,2.5,2.5,2.5c0,0,0,0,0,0
	C156.6,182.1,157.8,181,157.8,179.6L157.8,179.6z M153.2,179.6c0-1.1,0.9-2,2-2c1.1,0,2,0.9,2,2s-0.9,2-2,2
	C154.1,181.6,153.2,180.7,153.2,179.6z"/>
<path class="st0" d="M156.3,181l-0.6-1.2c0.3-0.1,0.6-0.5,0.6-0.8c0-0.5-0.4-0.9-0.9-0.9c0,0,0,0,0,0h-1.2v2.9h0.5v-1.2h0.4l0.5,1.2
	L156.3,181L156.3,181L156.3,181z M155.4,179.3h-0.7v-0.6h0.7c0.2,0,0.3,0.1,0.3,0.3C155.7,179.2,155.6,179.3,155.4,179.3
	L155.4,179.3z"/>
<path class="st1" d="M39.9,78.7L27,47.1c-8.5-5.8-15.2-12-17.9-18.8C9.8,51.1,24.4,66.7,39.9,78.7L39.9,78.7z M37.2,78.6l3.4,8.2
	C27.5,79.3,15.4,71.2,11.7,62c0.9,29.2,26.7,45.8,45,58.3l-11-27c19.5,11,39.2,21.4,46.6,32.5C81,107.1,65,98.3,37.2,78.6L37.2,78.6
	z M22.6,98.8c0.9,29,35.9,41.8,46.7,52.6l-7.7-18.8c9.1,5.4,17.5,10.8,23.5,16.2C63.8,119.3,30.5,116.2,22.6,98.8z M206.6,47.1
	l-12.9,31.6c15.5-12,30.1-27.6,30.8-50.3C221.8,35.1,215.1,41.3,206.6,47.1L206.6,47.1z M188,93.3l-11,27
	c18.2-12.6,44-29.2,44.9-58.3c-3.7,9.2-15.8,17.3-28.9,24.9l3.4-8.2c-27.7,19.7-43.7,28.5-55,47.3C148.8,114.8,168.5,104.3,188,93.3
	L188,93.3z M211,98.8c-7.9,17.4-41.1,20.5-62.5,50c6-5.4,14.3-10.8,23.5-16.2l-7.7,18.8C175.1,140.6,210.1,127.9,211,98.8z"/>
<path class="st2" d="M114.1,80.4l4.7,1c0,0,1.5,3.1,4.7,0.4C118.5,79.5,114.1,80.4,114.1,80.4z"/>
<path class="st3" d="M146.6,87.4l-9.6,25.9l-9-21.4c0,0,2.6-2,6,1.9c0,0,3.1-4.5,3.1-8.7c0-7.4-7.4-8-7.4-8s-2.4-4.2-12.9-4.2
	c-8.6,0-11.6,2.9-12.7,7.2l-8,31.9L87,87.4C77.2,60.9,21.7,56.6,9.1,16.9C-4.5,49,31.8,77.5,31.8,77.5C11.9,64.1,9.7,54.2,9.7,54.2
	C4.4,76.8,19.9,94.5,19.9,94.5C16,126,55,144.9,66,153.7c11,8.8,22.8,28.4,22.8,28.4c1-3.3,3-4.9,4.1-5.6c1.3-8.4,7-21.7,17.6-25.2
	c0.3-1.5,1.2-2.8,2.4-3.7l3.9-26.8l3.9,26.8c1.6,1.2,2.2,2.7,2.4,3.7c10.6,3.5,16.3,16.8,17.6,25.2c1.1,0.7,3.1,2.3,4.1,5.6
	c0,0,11.8-19.6,22.8-28.4c11-8.8,50-27.7,46.1-59.2c0,0,15.5-17.7,10.3-40.4c0,0-2.2,9.9-22.2,23.3c0,0,36.3-28.5,22.7-60.6
	C211.9,56.6,156.4,60.9,146.6,87.4L146.6,87.4z M9.1,28.3c2.7,6.8,9.4,12.9,17.9,18.8l12.9,31.6C24.4,66.7,9.8,51.1,9.1,28.3z
	 M61.7,132.7l7.7,18.8c-10.8-10.8-45.8-23.6-46.7-52.6c7.9,17.4,41.1,20.5,62.5,50.1C79.2,143.4,70.8,138.1,61.7,132.7L61.7,132.7z
	 M45.7,93.3l11,27c-18.2-12.6-44-29.2-44.9-58.3c3.7,9.2,15.8,17.3,28.9,24.9l-3.4-8.2c27.7,19.7,43.7,28.5,55,47.3
	C84.8,114.8,65.2,104.3,45.7,93.3L45.7,93.3z M115.8,95.9l-19.6,28.8l11.1-44.2c0.4-1.6,1.4-4.4,9.5-4.4c8.3,0,10.7,2.5,10.7,4
	c0,0,6.4-0.5,6.4,5.2c0,1.7-0.7,4.3-0.7,4.3c-3.5-4-9.3,0.5-9.3,0.5l13.9,34.6L115.8,95.9L115.8,95.9z M164.3,151.5l7.7-18.8
	c-9.1,5.4-17.5,10.8-23.5,16.2c21.4-29.5,54.6-32.7,62.5-50C210.1,127.9,175.1,140.6,164.3,151.5L164.3,151.5z M221.9,62
	c-0.9,29.2-26.7,45.8-44.9,58.3l11-27c-19.5,11-39.1,21.4-46.6,32.5c11.3-18.8,27.3-27.6,55-47.3l-3.4,8.2
	C206.2,79.3,218.2,71.2,221.9,62L221.9,62z M193.7,78.7l12.9-31.6c8.6-5.8,15.2-12,17.9-18.8C223.8,51.1,209.3,66.7,193.7,78.7
	L193.7,78.7z"/>
</svg>
