<?xml version="1.0" encoding="UTF-8" standalone="no"?>
<svg width="500px" height="500px" viewBox="0 0 500 500" version="1.1" xmlns="http://www.w3.org/2000/svg" xmlns:xlink="http://www.w3.org/1999/xlink">
    <!-- Generator: Sketch 39.1 (31720) - http://www.bohemiancoding.com/sketch -->
    <title>ATL</title>
    <desc>Created with Sketch.</desc>
    <defs>
        <polygon id="path-1" points="499.277873 500.14178 499.277873 0.637917123 0.000214769768 0.637917123 0.000214769768 500.14178 499.277873 500.14178"></polygon>
    </defs>
    <g id="NBA" stroke="none" stroke-width="1" fill="none" fill-rule="evenodd">
        <g id="ATL">
            <g id="Page-1">
                <g id="Group-3" transform="translate(0.000000, 0.220474)">
                    <mask id="mask-2" fill="white">
                        <use xlink:href="#path-1"></use>
                    </mask>
                    <g id="Clip-2"></g>
                    <path d="M433.000772,79.2648914 C386.256346,29.2970045 318.192024,0.637917123 246.240909,0.637917123 C240.0994,0.637917123 233.91072,0.838660274 227.800086,1.26073562 C111.713465,9.14719623 55.5951115,91.646626 49.776072,100.73154 C41.2220412,111.619712 -32.4709262,211.13341 16.8909949,348.656195 L17.8138079,351.626164 C18.2786449,353.112864 66.3403945,500.14178 238.127702,500.14178 L238.159434,500.14178 C247.352401,500.14178 256.924443,499.716273 266.56681,498.856681 C394.865266,487.595333 490.29494,392.769073 498.66801,268.310035 C503.438165,196.807727 480.11741,129.671153 433.000772,79.2648914" id="Fill-1" fill="#FEFEFE" mask="url(#mask-2)"></path>
                </g>
                <path d="M382.455832,307.031931 C399.879503,268.719157 391.112779,227.052085 361.759434,194.177391 C353.599914,185.053015 343.429245,178.846277 333.581904,172.829129 C327.18825,168.909491 320.557033,164.872323 314.635935,160.076792 C311.845197,157.821434 309.551029,154.777687 307.122213,151.547782 C304.118782,147.541497 300.704545,142.98703 295.809177,139.453436 C268.593053,119.765165 236.575901,112.557285 204.959262,103.208145 C190.027015,98.8072372 175.496141,95.5464478 161.810034,90.6762817 C178.689108,78.9413861 200.411235,71.3551824 224.102487,69.0440625 C231.545026,68.3140094 238.979846,67.9476961 246.240566,67.9476961 C316.078473,67.9476961 377.070755,103.12922 409.404374,162.051624 C441.783448,221.094131 439.65566,292.733699 403.798885,349.038722 C366.978988,406.881059 301.659091,437.641944 227.729417,431.542441 C183.498714,427.91448 136.375214,404.444689 121.876072,379.590285 C130.856346,374.066417 211.614494,331.250648 266.86578,348.494828 C282.705403,348.545443 257.373499,386.913121 257.373499,386.913121 C257.373499,386.913121 349.578473,379.298607 382.455832,307.031931 M420.733705,90.5664735 C372.600772,39.1230385 301.328045,12.7038673 228.588765,17.6443793 C113.117925,25.4999563 61.901801,111.381994 61.901801,111.381994 C61.901801,111.381994 153.388937,139.126585 165.996141,143.026492 C174.558748,145.696205 231.663379,159.808277 257.420669,173.988121 C262.78259,176.94608 268.057033,182.85685 273.252573,188.389297 C277.107633,192.482227 280.734563,196.353824 284.511578,199.449902 C291.275729,204.989211 297.89837,209.784742 304.299743,214.418134 C320.163379,225.888804 333.858062,235.793848 340.227702,250.865027 C345.755146,263.944215 345.967839,277.513251 340.843482,290.130902 C336.381218,301.10915 328.015009,310.892376 317.616209,317.583814 C318.672813,312.023915 320.092196,304.085982 312.586192,299.141181 C309.385506,297.035951 292.111921,292.962753 280.560463,291.807193 C275.033877,291.243568 213.222556,288.344802 127.39494,334.701886 C153.145369,300.363655 171.578473,294.654485 171.578473,294.654485 C170.883791,290.510083 32.7379931,346.479676 32.7379931,346.479676 C32.7379931,346.479676 80.3820755,499.179157 264.832333,482.960997 C384.821184,472.393672 474.227702,384.614011 482.07247,267.426336 C486.565609,200.490506 464.774014,137.675915 420.733705,90.5664735" id="Fill-4" fill="#E0393E"></path>
                <path d="M245.775986,190.904592 C216.124185,192.075593 188.860034,156.429958 165.980103,179.772783 C170.410635,180.904323 179.43036,177.44279 180.826587,181.630944 C169.078731,227.702355 245.271698,239.571937 245.775986,190.904592" id="Fill-6" fill="#E0393E"></path>
            </g>
        </g>
    </g>
</svg>