<?xml version="1.0" encoding="utf-8"?>
<!-- Generator: Adobe Illustrator 21.1.0, SVG Export Plug-In . SVG Version: 6.00 Build 0)  -->
<!DOCTYPE svg PUBLIC "-//W3C//DTD SVG 1.1//EN" "http://www.w3.org/Graphics/SVG/1.1/DTD/svg11.dtd">
<svg version="1.1" id="Layer_1" xmlns="http://www.w3.org/2000/svg" xmlns:xlink="http://www.w3.org/1999/xlink" x="0px" y="0px"
	 width="487.7px" height="498px" viewBox="0 0 487.7 498" style="enable-background:new 0 0 487.7 498;" xml:space="preserve">
<style type="text/css">
	.st0{filter:url(#Adobe_OpacityMaskFilter);}
	.st1{fill:#FFFFFF;}
	.st2{mask:url(#mask-2);}
</style>
<title>BKN</title>
<desc>Created with Sketch.</desc>
<g id="NBA">
	<g id="BKN">
		<g id="BKLN_Logo-Special" transform="translate(6.000000, 0.000000)">
			<g id="Group-3">
				<g id="Clip-2">
				</g>
				<defs>
					<filter id="Adobe_OpacityMaskFilter" filterUnits="userSpaceOnUse" x="-6" y="0" width="487.7" height="498">
						<feColorMatrix  type="matrix" values="1 0 0 0 0  0 1 0 0 0  0 0 1 0 0  0 0 0 1 0"/>
					</filter>
				</defs>
				<mask maskUnits="userSpaceOnUse" x="-6" y="0" width="487.7" height="498" id="mask-2">
					<g class="st0">
						<polygon id="path-1" class="st1" points="-6,497.9 481.7,497.9 481.7,0 237.8,0 -6,0 						"/>
					</g>
				</mask>
				<path id="Fill-1" class="st2" d="M380.6,377.3c-72.1,91.7-138.3,111-141.1,111.8l-1,0.3l-1-0.3c-7.2-2-72.2-22.5-142.4-111.8
					C8.3,266.9,1.4,124.5,2.5,68.3c-0.1-4.9-0.1-7.8-0.1-7.8v-2.1l1.9-1c4-2,98.7-49.1,230.4-49.1h6.2
					c131.8,0,226.4,47.1,230.4,49.1l1.9,1v2.1c0,0,0,2.9-0.1,8.1C474.3,124.6,467.4,266.9,380.6,377.3L380.6,377.3z M481.6,67.5
					c0-5.2,0-8.1,0-8.1V53l-5.8-2.9C471.8,48.1,375.2,0,241,0h-6.2C100.6,0,3.8,48.1-0.2,50.1L-5.9,53v6.4c0,0,0,2.9,0,7.8
					C-7,124.4,0,269.5,88.8,382.3c72,91.5,139.4,112.8,146.8,114.9l2.9,0.8l2.9-0.8c2.9-0.8,71.6-20.9,145.5-114.9
					C475.7,269.5,482.7,124.5,481.6,67.5L481.6,67.5z"/>
			</g>
			<path id="Fill-4" d="M411.2,219.9L411.2,219.9c-6.1,0-13.5-1.3-22.1-3.7c-30.5-8.7-46.6-23.7-46.6-43.4v-20.9
				c0-0.8,0.3-1.5,0.9-1.9c0.6-0.5,1.3-0.7,2.1-0.5c5.9,1.2,8.8,1.8,15,3.1c1.1,0.3,1.9,1.3,1.9,2.4v11.8c0,10.9,0,16.4,5.7,22.9
				c4.7,5.3,12.6,9.6,23.5,12.8c5,1.4,9.2,2.2,12.5,2.2c4.3,0,7.1-1.2,8.9-3.6c1.7-2.4,2.6-6.3,2.6-11.9c0-15.5-5-23.6-30-48
				l-4.2-4.2c-21-20.5-33.7-32.9-33.7-53.6c0-24.9,14.7-33.8,43.4-25.5c41.1,11.8,41.1,35.3,41.1,49.4v11.2c0,0.8-0.4,1.6-1.1,2
				c-0.7,0.5-1.5,0.6-2.3,0.3c-5.8-2.1-8.6-3.1-14.1-5c-1-0.3-1.7-1.3-1.7-2.4l0-13.3c0-9.3,0-21.8-23-28.4
				c-4.2-1.2-7.9-1.8-10.9-1.8c-5.7,0-11.6,1.8-11.6,15.2c0,13.5,3.6,18.8,35.4,51.7c21.1,21.8,32.1,34.2,32.1,55.9
				C435.1,200.6,435.1,219.9,411.2,219.9L411.2,219.9z M336.6,346c-0.3,0.2-0.5,0.4-0.8,0.6c0-8.1-0.9-16.3-2.8-24.5
				c7.1-6.8,11.2-14.4,12-22.7c0.1,0.4,0.2,0.7,0.3,1.1c2.3,9,3.4,17.9,3.4,26.8C348.4,328.9,346,339.5,336.6,346L336.6,346z
				 M336.8,376.9c0-0.1-0.1-0.2-0.1-0.3c-0.3-0.8-1.5-2.2-5.1-1c2-6.8,3.3-13.7,3.8-20.8c0.7-0.5,1.3-0.9,1.9-1.4
				c0.4-0.3,0.8-0.6,1.1-0.8c4.7-3.3,7.6-7.8,9.4-12C346.4,353.4,342.6,365.6,336.8,376.9L336.8,376.9z M318.9,402.5
				c4.2-6.2,7.9-13.1,10.6-20.5c0.2-0.2,0.5-0.3,0.8-0.5c0.3-0.2,0.6-0.4,0.9-0.6c1.6-1,2.3-1.2,2.7-1.2c0.2,0,0.3,0,0.4,0.5
				l0.2,0.9h0.2C330.3,388.8,325,396,318.9,402.5L318.9,402.5z M299.3,419.1c-10.3,6.8-21.9,12-34.5,15.1
				c-22.1,5.5-44.3,3.9-64.2-3.1c5.2,1,10.7,1.5,16.3,1.5l0.8,0c4.3,0,8.6-0.3,13.2-1c4.9-0.8,10-2,15.6-3.7
				c19.1-5.8,36.9-16,51.7-25.2c2.2-1.3,4.2-2.6,6.3-3.8c4.3-2.6,8.4-5.1,12.6-8c1.6-1.1,3-2.1,4.5-3.2c0.2-0.2,0.4-0.3,0.7-0.5
				C317.1,400.4,309.1,411.3,299.3,419.1L299.3,419.1z M179.4,420.7l-3.1-1.9l0.1,0.2c-22.3-14.7-39.4-37.4-46.4-65.3
				c-1.2-4.9-2.1-9.8-2.6-14.7c4.2,6.9,14.4,19.4,35.8,28.4c11.5,4.8,23.4,8.3,35.8,10.5l0-9.6c-8.5-1.8-17.8-4.5-29.4-8.3
				c-29.7-9.8-40.5-23.2-42.6-26.2c-1.5-22.7,4.2-44.8,15.5-63.5c4.8-1,22.7-3.2,54.2,12.4c0.7,0.3,1.4,0.8,2.1,1.1l0-8
				c-4.7-2.4-9.2-4.5-13.1-6.1c-11.5-4.9-21.4-7.3-29.3-7.3c-4.2,0-7.3,0.7-9.7,1.4c14-19.9,34.6-35.3,59.7-42.6
				c2.8-0.2,5.6-0.4,8.3-0.4c64.9,0,102.3,65.5,109.4,95.5c0.2,0.6,0.3,1.2,0.4,1.8c0,0.2,0.1,0.3,0.1,0.5
				c-8.4,4.2-20.5,4.6-35.1,0.9c-4.4-1.1-9.4-2.9-14.8-5.1c-0.7,2.1-1.5,4-2.5,5.8c1.8,1.7,3.2,3.6,4.4,5.5c1.9,0.6,3.8,1.2,5.5,1.6
				c13,3.1,21,4.4,27.6,4.4c6.6,0,11.9-1.3,16.6-4.2c1.4,7.8,2.1,15.6,2.1,23.3c-10.8,5.2-28,11.2-46.6,15.3l0,7.8
				c20.8-4.7,35.8-9.5,46.5-14.8c-0.5,7.1-1.6,13.8-3.3,19.9c-0.2,0.2-0.5,0.3-0.6,0.4c-1.9,1.2-3.8,2.2-5.9,3.3l-5.3,2.9
				c-4.5,2.6-9.1,5.2-13.8,7.7c-13.2,7.1-24.1,12.8-34.2,18.2c-1.5,0.7-2.9,1.5-4.4,2.2c-1.7,0.9-3.4,1.8-5.2,2.6
				c-11.9,6-22.4,9.2-35.1,10.7c-3.8,0.4-7.3,0.7-10.7,0.7c-7.2,0-14-1-21-3.1C185.1,423.5,181.9,422.2,179.4,420.7L179.4,420.7z
				 M108.4,207.3C94.2,170.8,79.3,132.6,64,93.6c0.3,6.6,0.4,11.8,0.4,21.1c0.2,35.3,0.4,70.7,0.6,106c0,1.1-0.7,2-1.7,2.4
				c-5.6,1.9-8.2,2.9-13.5,4.9c-0.3,0.1-0.6,0.2-0.9,0.2c-0.5,0-1-0.1-1.4-0.4c-0.7-0.5-1.1-1.2-1.1-2V76.3c0-1,0.6-2,1.6-2.3
				c8.5-3.2,12.7-4.7,21.4-7.6c1.3-0.4,2.6,0.2,3.1,1.4c15.6,39.4,30.9,78.2,45.6,115.8c-0.3-5.9-0.5-12.6-0.5-19.8l-1.2-108.7
				c0-1.2,0.8-2.2,1.9-2.4c5.8-1.4,8.7-2,14.6-3.2c0.7-0.2,1.5,0,2.1,0.5c0.6,0.5,0.9,1.2,0.9,1.9v149.4c0,1.2-0.8,2.2-2,2.4
				c-9.1,1.8-13.6,2.8-22.6,5.1C110.1,209.1,108.8,208.5,108.4,207.3L108.4,207.3z M152.4,48c0-1.2,0.9-2.3,2.1-2.5
				c25.5-4.1,51.5-6.4,77.3-6.8c0.6,0,1.3,0.2,1.8,0.7c0.5,0.5,0.7,1.1,0.7,1.8v9.3c0,1.4-1.1,2.5-2.4,2.5
				c-24.2,0.4-36.3,1.3-59.5,4.3v52.5c18.4-2.4,28.9-3.2,48.2-3.9c0.7,0,1.3,0.2,1.8,0.7c0.5,0.5,0.8,1.1,0.8,1.8v9.1
				c0,1.3-1.1,2.4-2.4,2.5c-19.8,0.7-29.8,1.5-48.7,4v59.1c22.8-3,35.6-3.9,59.4-4.3c0.6,0,1.3,0.2,1.8,0.7c0.5,0.5,0.7,1.1,0.7,1.8
				v9.3c0,1.4-1.1,2.5-2.4,2.5c-25.5,0.4-51.1,2.7-76.3,6.7c-0.1,0-0.3,0-0.4,0c-0.6,0-1.2-0.2-1.6-0.6c-0.6-0.5-0.9-1.2-0.9-1.9V48
				L152.4,48z M332.8,270.3c2.9,5.9,10,22.8,2.1,37.8c-1,2-2.4,4-4.1,5.7c-16.5-54.4-59.5-94.2-104-96.6
				C269.8,213.1,311,234.3,332.8,270.3L332.8,270.3z M244.5,41c0-0.7,0.3-1.3,0.7-1.8c0.5-0.5,1.1-0.7,1.8-0.7
				c30.8,0.3,61.8,3.3,92.1,8.9c1.2,0.2,2,1.2,2,2.4v9.5c0,0.7-0.3,1.4-0.9,1.9c-0.6,0.5-1.3,0.7-2.1,0.5c-14.4-2.7-22-3.8-35.7-5.3
				v137.3c0,0.7-0.3,1.4-0.8,1.9c-0.5,0.4-1.1,0.6-1.7,0.6c-0.1,0-0.2,0-0.3,0c-6.1-0.7-9-1-15-1.4c-1.3-0.1-2.3-1.2-2.3-2.5V54.6
				c-13.6-1.1-21.1-1.4-35.5-1.6c-1.4,0-2.5-1.1-2.5-2.5V41L244.5,41z M462.5,66.4c0,0-0.1,0-0.3-0.1v-0.3l-2-0.9
				c-4.8-2.2-15.5-6.9-30.9-12.4c-38.1-13.9-106.1-33.4-188.5-33.4h-6c-82.5,0-150.7,19.6-188.8,33.5C30.7,58.2,20.2,62.8,15.4,65
				l-2,0.9l0,0.3c-0.2,0.1-0.3,0.1-0.3,0.1s0,2.8,0.1,7.7c-0.7,35-0.3,183.6,89,297.2c67.8,86.2,130.9,105.6,136.3,107.2
				c5.2-1.4,67-20.8,134.9-107.2c89.4-113.5,89.7-262.2,89-297.2C462.5,69.2,462.5,66.4,462.5,66.4L462.5,66.4z"/>
			<path id="Fill-5" d="M225.6,265.2h9.4c4.2,0.2,8.8,0.3,11.8,2.1c1.4,0.8,2.2,1.8,2.7,3.2c0.4,1.4,0.8,3.8,1.1,8l0,18.2
				c0,0.3,0,0.8,0,1.4c-0.1,4.7-0.2,12.7-9.6,15.5c-2.6,0.7-3.8,1-9.5,1.1l-5.6,0c-1,0-1.2-0.4-1.2-1.2c0-0.4-0.1-47-0.1-47
				C224.5,265.7,224.8,265.3,225.6,265.2L225.6,265.2z M254.7,341.2c1,2.9,1.1,6.2,1.1,9.2l0.1,21.6c0,9.9-0.6,14.5-4.4,17.4
				c-2.3,1.6-5,2.6-12,2.8c0,0-12.1,0-13,0c-1.1,0-1.5-0.7-1.5-1.7c0-8.9-0.1-58-0.1-58.4c0-0.5,0.1-1.1,1.1-1.1c0.9,0,6.1,0,6.1,0
				c6.4,0.3,13.1,0.8,17.5,3.6C251.9,336.1,253.6,338.3,254.7,341.2L254.7,341.2z M242.5,408.7c3.4,0,13.9,0,22.6-7.5
				c7.7-7,8.5-15.2,8.7-24.5l-0.1-26.1c0-8.2,0-18.2-8.5-25.3c-1.8-1.5-3.9-2.8-6.4-3.8c4-2.7,6.7-6.3,8.2-10.9
				c1.3-4.1,1.3-9.2,1.2-11.2l-0.1-23.3c-0.2-6.4-0.9-13.8-6.1-19.7c-4.6-5.1-11.6-7.7-20.4-7.7l-31.5,0.1c-0.9,0-1.8,0.4-2.5,1.1
				c-0.7,0.7-1,1.6-1,2.5l0.3,152.7c0,1.2,0.6,2.4,1.7,3c0.6,0.4,1.3,0.6,2,0.6L242.5,408.7L242.5,408.7z"/>
			<path class="st1" d="M236.7,492c-7.3-2.1-73.1-22.7-143.9-112.8C5.3,268-1.6,124.7-0.5,68.2c-0.1-4.8-0.1-7.7-0.1-7.7v-4L3,54.8
				c4-2,99.1-49.4,231.7-49.4h6.2c132.8,0,227.7,47.4,231.7,49.4l3.6,1.8v4c0,0,0,2.9-0.1,8.1c1.1,56.2-5.7,199.2-93.2,310.5
				C310.1,471.7,243.1,491.2,240.3,492l-1.8,0.5L236.7,492z M16.2,68.2c0,1.3,0,3.3,0,5.8c-1,53.8,5.5,190,88.4,295.3
				c64.5,82.1,124,102.9,133.9,105.9c7.9-2.4,67.2-22.8,132.6-105.9c83-105.4,89.4-241.6,88.4-295.2c0-2.6,0-4.6,0.1-6l-0.3-0.1
				v-0.2l-0.3-0.1c-4.9-2.2-15.4-6.8-30.7-12.3c-41.5-15.2-107.7-33.2-187.5-33.2h-6C155,22.2,88.7,40.3,47.1,55.5
				c-15.1,5.4-25.6,10-30.4,12.2l-0.2,0.1l0,0.2L16.2,68.2z"/>
			<path id="Fill-6" class="st1" d="M373.4,371.2c-68,86.4-129.8,105.7-134.9,107.2c-5.4-1.5-68.5-21-136.3-107.2
				c-89.3-113.5-89.7-262.2-89-297.2c-0.1-4.9-0.1-7.7-0.1-7.7s0.1,0,0.3-0.1l0-0.3l2-0.9c4.7-2.2,15.3-6.8,30.6-12.3
				c38.1-13.9,106.2-33.5,188.8-33.5h6c82.4,0,150.4,19.5,188.5,33.4c15.5,5.6,26.2,10.2,30.9,12.4l2,0.9v0.3
				c0.2,0.1,0.3,0.1,0.3,0.1s0,2.8-0.1,7.7C463.2,109.1,462.8,257.7,373.4,371.2L373.4,371.2z M473.2,60.5v-2.1l-1.9-1
				c-4-2-98.6-49.1-230.4-49.1h-6.2C103.1,8.4,8.3,55.4,4.4,57.5l-1.9,1v2.1c0,0,0,2.9,0.1,7.8c-1.1,56.2,5.8,198.6,92.6,309
				c70.2,89.3,135.2,109.8,142.4,111.8l1,0.3l1-0.3c2.8-0.8,68.9-20.1,141.1-111.8c86.9-110.4,93.7-252.7,92.6-308.7
				C473.2,63.4,473.2,60.5,473.2,60.5L473.2,60.5z"/>
			<path id="Fill-7" class="st1" d="M246.9,53c14.4,0.2,21.8,0.5,35.5,1.6v137.8c0,1.3,1,2.4,2.3,2.5c6,0.5,9,0.8,15,1.4
				c0.1,0,0.2,0,0.3,0c0.6,0,1.2-0.2,1.7-0.6c0.5-0.5,0.8-1.2,0.8-1.9V56.5c13.7,1.5,21.2,2.7,35.7,5.3c0.7,0.1,1.5-0.1,2.1-0.5
				c0.6-0.5,0.9-1.2,0.9-1.9v-9.5c0-1.2-0.9-2.2-2-2.4c-30.3-5.6-61.3-8.6-92.1-8.9c-0.7,0-1.3,0.3-1.8,0.7
				c-0.5,0.5-0.7,1.1-0.7,1.8v9.5C244.5,51.9,245.6,53,246.9,53"/>
			<path id="Fill-8" class="st1" d="M367.6,84.8c0-13.4,5.9-15.2,11.6-15.2c3,0,6.6,0.6,10.9,1.8c23,6.6,23,19.1,23,28.4l0,13.3
				c0,1.1,0.7,2,1.7,2.4c5.6,1.9,8.3,2.9,14.1,5c0.8,0.3,1.6,0.2,2.3-0.3c0.7-0.5,1.1-1.2,1.1-2v-11.2c0-14.1,0-37.6-41.1-49.4
				c-28.7-8.2-43.4,0.6-43.4,25.5c0,20.7,12.7,33.1,33.7,53.6l4.2,4.2c24.9,24.5,30,32.5,30,48c0,5.6-0.8,9.5-2.6,11.9
				c-1.8,2.5-4.6,3.6-8.9,3.6c-3.3,0-7.5-0.7-12.5-2.2c-10.9-3.1-18.8-7.4-23.5-12.8c-5.7-6.5-5.7-12-5.7-22.9V155
				c0-1.2-0.8-2.2-1.9-2.4c-6.1-1.4-9.1-2-15-3.1c-0.7-0.1-1.5,0-2.1,0.5c-0.6,0.5-0.9,1.2-0.9,1.9v20.9c0,19.7,16.1,34.7,46.6,43.4
				c8.6,2.5,16,3.7,22.1,3.7c23.9,0,23.9-19.2,23.9-27.5c0-21.7-11-34.1-32.1-55.9C371.2,103.7,367.6,98.4,367.6,84.8"/>
			<path id="Fill-9" class="st1" d="M135.9,201.3V51.9c0-0.8-0.3-1.5-0.9-1.9c-0.6-0.5-1.3-0.7-2.1-0.5c-5.9,1.2-8.8,1.8-14.6,3.2
				c-1.1,0.3-1.9,1.3-1.9,2.4l1.2,108.7c0,7.2,0.2,13.8,0.5,19.8c-14.7-37.5-30-76.4-45.6-115.8c-0.5-1.2-1.8-1.9-3.1-1.4
				c-8.7,2.9-12.9,4.4-21.4,7.6c-1,0.4-1.6,1.3-1.6,2.3v149.4c0,0.8,0.4,1.6,1.1,2c0.4,0.3,0.9,0.4,1.4,0.4c0.3,0,0.6-0.1,0.9-0.2
				c5.3-2,7.9-3,13.5-4.9c1-0.4,1.7-1.3,1.7-2.4c-0.2-35.3-0.4-70.7-0.6-106c0-9.3-0.1-14.5-0.4-21.1c15.3,39,30.2,77.2,44.4,113.7
				c0.5,1.2,1.7,1.8,2.9,1.5c9.1-2.3,13.5-3.3,22.6-5.1C135.1,203.5,135.9,202.5,135.9,201.3"/>
			<path id="Fill-10" class="st1" d="M154.9,199.9c0.1,0,0.3,0,0.4,0c25.2-4,50.8-6.3,76.3-6.7c1.4,0,2.4-1.1,2.4-2.5v-9.3
				c0-0.7-0.3-1.3-0.7-1.8c-0.5-0.5-1.2-0.7-1.8-0.7c-23.9,0.4-36.6,1.3-59.4,4.3V124c18.9-2.5,28.9-3.3,48.7-4
				c1.3-0.1,2.4-1.1,2.4-2.5v-9.1c0-0.7-0.3-1.3-0.8-1.8c-0.5-0.5-1.1-0.7-1.8-0.7c-19.4,0.7-29.8,1.6-48.2,3.9V57.3
				c23.2-3,35.3-3.9,59.5-4.3c1.4,0,2.4-1.1,2.4-2.5v-9.3c0-0.7-0.3-1.3-0.7-1.8c-0.5-0.5-1.1-0.7-1.8-0.7
				c-25.8,0.4-51.8,2.7-77.3,6.8c-1.2,0.2-2.1,1.2-2.1,2.5v149.4c0,0.7,0.3,1.4,0.9,1.9C153.7,199.7,154.3,199.9,154.9,199.9"/>
			<path id="Fill-11" class="st1" d="M338.5,352.6c-0.4,0.3-0.8,0.6-1.1,0.8c-0.6,0.5-1.2,0.9-1.9,1.4c-0.5,7-1.8,14-3.8,20.8
				c3.5-1.2,4.7,0.2,5.1,1c0.1,0.1,0.1,0.2,0.1,0.3c5.7-11.3,9.5-23.6,11.1-36.4C346.1,344.8,343.3,349.3,338.5,352.6"/>
			<path id="Fill-12" class="st1" d="M321.5,387.6c-1.4,1-2.9,2.1-4.5,3.2c-4.2,2.9-8.3,5.4-12.6,8c-2,1.2-4.1,2.5-6.3,3.8
				c-14.9,9.2-32.6,19.4-51.7,25.2c-5.5,1.7-10.6,2.9-15.6,3.7c-4.6,0.7-8.9,1-13.2,1l-0.8,0c-5.6,0-11.1-0.6-16.3-1.5
				c19.9,7.1,42.1,8.6,64.2,3.1c12.7-3.1,24.2-8.3,34.5-15.1c9.8-7.7,17.8-18.7,22.9-31.9C322,387.3,321.7,387.5,321.5,387.6"/>
			<path id="Fill-13" class="st1" d="M334.3,380.2c-0.1-0.4-0.2-0.5-0.4-0.5c-0.3,0-1.1,0.2-2.7,1.2c-0.3,0.2-0.6,0.4-0.9,0.6
				c-0.3,0.2-0.5,0.4-0.8,0.5c-2.8,7.4-6.4,14.3-10.6,20.5c6.1-6.5,11.4-13.7,15.7-21.4h-0.2L334.3,380.2"/>
			<path id="Fill-14" class="st1" d="M345.1,299.3c-0.9,8.2-4.9,15.8-12,22.7c1.9,8.2,2.8,16.4,2.8,24.5c0.3-0.2,0.6-0.4,0.8-0.6
				c9.3-6.5,11.7-17,12.1-18.8c0-8.8-1.1-17.8-3.4-26.8C345.3,300,345.1,299.7,345.1,299.3"/>
			<path id="Fill-15" class="st1" d="M330.8,313.8c1.7-1.8,3-3.7,4.1-5.7c7.8-15.1,0.8-31.9-2.1-37.8c-21.8-36-63-57.2-105.9-53.1
				C271.3,219.6,314.4,259.4,330.8,313.8"/>
			<path id="Fill-16" class="st1" d="M206.8,405.2l-0.3-152.7c0-0.9,0.3-1.8,1-2.5c0.7-0.7,1.6-1.1,2.5-1.1l31.5-0.1
				c8.9,0,15.8,2.6,20.4,7.7c5.2,5.9,5.9,13.3,6.1,19.7l0.1,23.3c0,2,0.1,7.1-1.2,11.2c-1.5,4.6-4.2,8.3-8.2,10.9
				c2.5,1,4.7,2.3,6.4,3.8c8.5,7.1,8.5,17.1,8.5,25.3l0.1,26.1c-0.2,9.3-1,17.5-8.7,24.5c-8.7,7.4-19.2,7.5-22.6,7.5l-32.1,0.1
				c-0.7,0-1.4-0.2-2-0.6C207.4,407.6,206.8,406.4,206.8,405.2L206.8,405.2z M220.5,427c12.7-1.5,23.2-4.7,35.1-10.7
				c1.8-0.9,3.5-1.8,5.2-2.6c1.4-0.8,2.9-1.5,4.4-2.2c10.1-5.3,21-11.1,34.2-18.2c4.7-2.5,9.3-5.1,13.8-7.7l5.3-2.9
				c2-1.1,3.9-2.1,5.9-3.3c0.2-0.1,0.4-0.3,0.6-0.4c1.7-6.2,2.8-12.9,3.3-19.9c-10.6,5.3-25.6,10.1-46.5,14.8l0-7.8
				c18.7-4.1,35.8-10,46.6-15.3c0-7.7-0.7-15.6-2.1-23.3c-4.7,2.9-10,4.2-16.6,4.2c-6.6,0-14.6-1.3-27.6-4.4c-1.8-0.4-3.6-1-5.5-1.6
				c-1.2-1.9-2.6-3.7-4.4-5.5c1-1.8,1.9-3.7,2.5-5.8c5.4,2.2,10.4,4,14.8,5.1c14.6,3.6,26.7,3.3,35.1-0.9c0-0.2-0.1-0.3-0.1-0.5
				c-0.1-0.6-0.2-1.2-0.4-1.8c-7.1-30-44.6-95.5-109.4-95.5c-2.7,0-5.5,0.2-8.3,0.4c-25.1,7.3-45.7,22.7-59.7,42.6
				c2.4-0.8,5.5-1.4,9.7-1.4c7.9,0,17.8,2.5,29.3,7.3c4,1.7,8.4,3.7,13.1,6.1l0,8c-0.7-0.4-1.5-0.8-2.1-1.1
				c-31.6-15.6-49.5-13.4-54.2-12.4c-11.3,18.7-16.9,40.8-15.5,63.5c2.1,3,12.9,16.4,42.6,26.2c11.6,3.8,21,6.5,29.4,8.3l0,9.6
				c-12.3-2.2-24.3-5.7-35.8-10.5c-21.4-9-31.6-21.6-35.8-28.4c0.6,4.9,1.4,9.8,2.6,14.7c7,27.8,24.1,50.5,46.4,65.3l-0.1-0.2
				l3.1,1.9c2.5,1.5,5.7,2.8,9.4,3.9c7,2.1,13.8,3.1,21,3.1C213.2,427.7,216.7,427.4,220.5,427L220.5,427z"/>
			<path id="Fill-17" class="st1" d="M225.8,314.6l5.6,0c5.7-0.2,6.9-0.4,9.5-1.1c9.3-2.8,9.4-10.8,9.6-15.5c0-0.6,0-1.1,0-1.4
				l0-18.2c-0.2-4.1-0.6-6.6-1.1-8c-0.5-1.4-1.3-2.4-2.7-3.2c-3-1.8-7.6-2-11.8-2.1h-9.4c-0.8,0.1-1.1,0.5-1.1,1.3
				c0,0,0.1,46.6,0.1,47C224.6,314.2,224.8,314.7,225.8,314.6"/>
			<path id="Fill-18" class="st1" d="M231.9,331.1c0,0-5.2,0-6.1,0c-0.9,0-1.1,0.6-1.1,1.1c0,0.4,0.1,49.5,0.1,58.4
				c0,1,0.4,1.7,1.5,1.7c0.9,0,13,0,13,0c7-0.2,9.8-1.2,12-2.8c3.8-2.9,4.4-7.6,4.4-17.4l-0.1-21.6c0-3-0.2-6.3-1.1-9.2
				c-1.1-2.9-2.8-5-5.3-6.5C245,331.9,238.3,331.4,231.9,331.1"/>
		</g>
	</g>
</g>
</svg>
