<?xml version="1.0" encoding="utf-8"?>
<!-- Generator: Adobe Illustrator 21.1.0, SVG Export Plug-In . SVG Version: 6.00 Build 0)  -->
<!DOCTYPE svg PUBLIC "-//W3C//DTD SVG 1.1//EN" "http://www.w3.org/Graphics/SVG/1.1/DTD/svg11.dtd">
<svg version="1.1" id="Layer_1" xmlns="http://www.w3.org/2000/svg" xmlns:xlink="http://www.w3.org/1999/xlink" x="0px" y="0px"
	 width="235.8px" height="260px" viewBox="0 0 235.8 260" style="enable-background:new 0 0 235.8 260;" xml:space="preserve">
<style type="text/css">
	.st0{fill:#231F20;}
	.st1{fill:#FFFFFF;}
	.st2{fill:#061922;}
	.st3{fill:#008248;}
	.st4{fill:none;stroke:#008248;stroke-width:0.3058;}
	.st5{fill:#A63732;}
	.st6{fill:none;stroke:#A63732;stroke-width:0.3058;}
	.st7{fill:#BA9653;}
	.st8{fill:none;stroke:#BA9653;stroke-width:0.3058;}
	.st9{fill:#F9B282;}
	.st10{fill:none;stroke:#F9B282;stroke-width:0.3058;stroke-linecap:round;}
	.st11{fill:none;stroke:#F9B282;stroke-width:0.3058;}
	.st12{fill:none;stroke:#00A55C;stroke-width:0.3058;}
</style>
<path class="st0" d="M225.9,122.8c0-28.8-11.2-55.9-31.6-76.3c-17.6-17.6-40.2-28.4-64.6-31c-0.6-0.6-1.2-1.1-1.9-1.5
	c-8.6-5.6-15.9-1.4-20.9,1c-0.4,0.2-0.8,0.4-1.3,0.6c-9.4,1.1-18.5,3.4-27,6.7c-1-1.5-2.2-2.9-3.5-4.2C69.9,12.9,63,10,55.6,10
	C40.4,10,28,22.4,28,37.6c0,6.4,2.2,12.4,6.1,17.3C19,73.5,10,97.1,10,122.8c0,28.8,11.2,55.9,31.6,76.3c10,10,21.5,17.7,34.1,23.1
	c-0.7,5.7,0.2,9.6,1.3,11.2c-1.6,1.3-2.3,2.2-2.5,3.7c-2.5,3.4,3.6,7.8,6.1,9.7c5.1,3.9,7.8,3.3,11.8,3.1c4.9-0.2,9.6-6,12.3-9.8
	c5.3-0.8,6.3,0.1,6.5,0.8c1.7-0.2,4-0.7,7.2-2c7.2-3,5.2-6.8,4.4-7.4c-0.2-0.2-0.4-0.4-0.5-0.7c17.1-0.7,33.5-5.3,48.2-13.5
	c0.5,0.6,1.1,1.2,1.6,2c1.6,2.3,2.4,9.9,2.8,13.8c0.3,3.9,1,6.6,2.9,12.8s2.7,1.7,2.8,0s0.4-7.7,0.2-12s-0.3-10.6,0.5-13.3
	s-0.7-3.3-1.1-3.8c-0.4-0.5,0-0.7-1.1-4.1c-0.1-0.2-0.1-0.4-0.2-0.6c5.5-3.8,10.7-8.1,15.5-12.9
	C214.7,178.8,225.9,151.7,225.9,122.8"/>
<path class="st1" d="M89,260c-3.6,0-8.4-0.6-14.4-5.3l-0.4-0.3c-5.4-4-13.6-12.1-8.9-21.2c0.2-0.7,0.5-1.3,0.8-1.9
	c-0.1-0.9-0.2-1.8-0.3-2.8c-11.5-5.7-21.9-13.2-31-22.4C12.3,184.1,0,154.5,0,122.8c0-24.3,7.8-48.5,22-68.5c-2.6-5.2-4-10.9-4-16.8
	C18,16.8,34.9,0,55.6,0c9.8,0,19.1,3.8,26.2,10.6c6.6-2.2,13.6-3.8,20.7-4.8l1-0.5c3.5-1.7,8.9-4.3,15.4-4.3c4.9,0,9.6,1.5,14.1,4.3
	c0.2,0.1,0.5,0.3,0.7,0.5c25.6,3.4,48.9,14.9,67.6,33.4c22.3,22.3,34.6,51.9,34.6,83.4s-12.3,61.1-34.6,83.4
	c-3.4,3.4-6.9,6.5-10.5,9.4c0.6,2.1,0.8,4.7-0.1,7.8l0,0.1c-0.2,0.8-0.4,4.1-0.1,9.8c0.2,4.9,0,11.3-0.1,12.5v0.4l0,0.1
	c-0.5,10.1-6.9,12.2-9.6,12.6l-0.2,0c-0.5,0.1-0.9,0.1-1.4,0.1c-3.7,0-8.6-1.8-11.1-10.2c-2-6.5-3-9.8-3.3-14.8
	c-0.1-1-0.2-1.8-0.3-2.6c-10.3,4.4-21.2,7.4-32.5,8.7c-1.5,2.8-4.4,5.8-9.8,8.1c-4,1.7-7.1,2.3-9.6,2.6c-0.4,0.1-0.9,0.1-1.4,0.1
	c-0.7,0-1.4-0.1-2.1-0.2c-3.2,3.7-8.9,8.9-16.4,9.2c0,0-0.3,0-0.3,0l-0.1,0l-0.3,0C90.9,260,89.9,260,89,260z M86.5,238.8
	c1.5,1.2,1.8,1.2,2.3,1.2c0.5,0,0.9,0,1.5-0.1l0.2,0l0.1,0c0,0,0.5-0.1,0.7-0.1c0.6-0.4,2.3-1.7,5.1-5.6c1.6-2.2,4.1-3.7,6.7-4.1
	c1.7-0.3,3.3-0.4,4.8-0.4c1.6,0,3,0.2,4.4,0.5c0.1-1.5,0.5-3,1.2-4.4l0.1-0.2c1.8-2.9,4.7-4.7,8.1-4.9l0.1,0
	c15.4-0.6,30.1-4.7,43.6-12.3c1.4-0.8,2.9-1.2,4.5-1.3c0.7-1.4,1.8-2.5,3.1-3.5c5.1-3.4,9.7-7.3,14.1-11.8
	c18.5-18.5,28.7-43.1,28.7-69.3c0-26.1-10.2-50.7-28.7-69.3c-15.9-15.9-36.2-25.7-58.6-28.2c-2.2-0.2-4.4-1.2-6-2.8
	c-0.1-0.1-0.3-0.2-0.4-0.3c-1.6-1-2.6-1.1-3.3-1.1c-1.8,0-4.2,1.1-6.8,2.4l-0.8,0.3c-0.4,0.2-0.9,0.5-1.4,0.7
	c-1.1,0.6-2.3,0.9-3.5,1c-8.2,1-16.4,3-24.2,6.1c-1.1,0.5-2.4,0.7-3.7,0.7c-3.4,0-6.5-1.7-8.3-4.5c-0.6-0.9-1.4-1.8-2.2-2.7
	c-3.3-3.3-7.6-5.1-12.4-5.1C45.9,20,38,28,38,37.6c0,4.1,1.3,7.9,3.9,11.1c3,3.6,3,9-0.1,12.6C27.8,78.7,20,100.6,20,122.9
	c0,26.2,10.2,50.8,28.7,69.3c9.1,9.1,19.5,16.1,30.9,20.9c4.2,1.8,6.6,6,6,10.5c-0.3,2.5-0.1,4.2,0,4.9c1.8,3.1,1.8,6.8,0.1,9.8
	c0.1,0.1,0.3,0.2,0.4,0.3L86.5,238.8z"/>
<path class="st1" d="M89,255c-3.1,0-6.7-0.6-11.4-4.3l-0.4-0.3c-2.8-2.1-11.1-8.5-7.3-15.3c0.3-1.1,0.8-2.1,1.4-2.9
	c-0.5-2-0.7-4.3-0.7-6.9c-12-5.6-22.9-13.2-32.4-22.7C16.7,181.4,5,153,5,122.8c0-24.5,8.1-48.5,22.9-68.1c-3.2-5.1-4.9-11-4.9-17.2
	C23,19.6,37.6,5,55.6,5c8.7,0,16.9,3.4,23.1,9.6c0.6,0.6,1.1,1.2,1.7,1.8c7.6-2.8,15.6-4.7,23.7-5.7c0.2-0.1,0.4-0.2,0.5-0.3
	l0.8-0.4c5.4-2.6,14.4-7.1,24.9-0.3c0.5,0.3,0.9,0.6,1.3,1c25.2,3,48,14.2,66.1,32.2c21.3,21.3,33.1,49.7,33.1,79.9
	s-11.7,58.5-33.1,79.9c-4.1,4.1-8.6,8-13.3,11.4c0,0,0,0,0,0.1c2.3,2.7,2,5.7,1.4,7.9c-0.4,1.3-0.6,5.6-0.3,11.5
	c0.2,4.3,0,10-0.1,12.1v0.4c-0.3,6.3-3.5,7.6-5.4,7.9c-4.9,0.6-6.5-4.6-7.1-6.6c-2-6.4-2.8-9.4-3.1-13.8c-0.4-4.5-0.9-7.7-1.3-9.6
	c-12.5,6.3-25.9,10.1-40,11.4c-0.7,3.4-3.5,6.2-8.1,8.1c-3.5,1.5-6.2,2-8.4,2.3c-1.4,0.2-2.8-0.2-3.8-1c-0.2,0-0.4,0-0.7,0
	c-3.5,4.6-8.5,9.8-14.8,10c-0.4,0-0.8,0-1.2,0.1C90.6,255,89.8,255,89,255z M79.1,238.9c0.6,0.8,2,2,4,3.6l0.4,0.3
	c3.1,2.4,4.3,2.3,7.2,2.1c0.4,0,0.9-0.1,1.4-0.1c0.7,0,3.4-0.7,8.4-7.7c0.8-1.1,2-1.9,3.4-2.1c1.8-0.3,5.6-0.8,8.5,0.4
	c1.1-0.3,2.4-0.7,4-1.3c0.7-0.3,1.3-0.6,1.6-0.8c-0.1-0.1-0.2-0.3-0.2-0.4c-0.8-1.5-0.7-3.3,0.1-4.8c0.9-1.5,2.4-2.4,4.1-2.5
	c16.3-0.6,31.8-5,45.9-12.9c2-1.1,4.5-0.7,6.1,0.9c-0.1-0.2-0.1-0.5-0.2-0.7c-0.4-2,0.4-4,2.1-5.2c5.3-3.6,10.2-7.7,14.8-12.3
	c19.4-19.4,30.2-45.3,30.2-72.8s-10.7-53.3-30.2-72.8c-16.8-16.8-38.1-27-61.6-29.6c-1.1-0.1-2.2-0.6-3-1.4
	c-0.3-0.3-0.7-0.6-1.1-0.9c-5.4-3.5-9.6-1.8-15.1,0.9l-0.9,0.4c-0.3,0.2-0.7,0.4-1.2,0.6c-0.5,0.3-1.1,0.5-1.7,0.5
	c-8.8,1-17.5,3.2-25.7,6.4c-2.2,0.9-4.7,0.1-6-1.9c-0.8-1.2-1.8-2.4-2.9-3.5c-4.3-4.3-9.9-6.6-16-6.6C43.1,15,33,25.1,33,37.6
	c0,5.2,1.7,10.1,5,14.2c1.5,1.8,1.5,4.5,0,6.3c-14.8,18.3-23,41.3-23,64.8c0,27.5,10.7,53.4,30.2,72.8c9.4,9.4,20.4,16.9,32.5,22
	c2.1,0.9,3.3,3,3,5.2c-0.6,4.7,0.2,7.3,0.5,7.8c1.4,2.1,1,4.9-1,6.5c-0.5,0.4-0.7,0.6-0.8,0.7C79.3,238.3,79.3,238.6,79.1,238.9z
	 M119.4,235.1C119.4,235.1,119.5,235.1,119.4,235.1C119.5,235.1,119.4,235.1,119.4,235.1z"/>
<path class="st2" d="M225.9,122.8c0-28.8-11.2-55.9-31.6-76.3c-17.6-17.6-40.2-28.4-64.6-31c-0.6-0.6-1.2-1.1-1.9-1.5
	c-8.6-5.6-15.9-1.4-20.9,1c-0.4,0.2-0.8,0.4-1.3,0.6c-9.4,1.1-18.5,3.4-27,6.7c-1-1.5-2.2-2.9-3.5-4.2C69.9,12.9,63,10,55.6,10
	C40.4,10,28,22.4,28,37.6c0,6.4,2.2,12.4,6.1,17.3C19,73.5,10,97.1,10,122.8c0,28.8,11.2,55.9,31.6,76.3c10,10,21.5,17.7,34.1,23.1
	c-0.7,5.7,0.2,9.6,1.3,11.2c-1.6,1.3-2.3,2.2-2.5,3.7c-2.5,3.4,3.6,7.8,6.1,9.7c5.1,3.9,7.8,3.3,11.8,3.1c4.9-0.2,9.6-6,12.3-9.8
	c5.3-0.8,6.3,0.1,6.5,0.8c1.7-0.2,4-0.7,7.2-2c7.2-3,5.2-6.8,4.4-7.4c-0.2-0.2-0.4-0.4-0.5-0.7c17.1-0.7,33.5-5.3,48.2-13.5
	c0.5,0.6,1.1,1.2,1.6,2c1.6,2.3,2.4,9.9,2.8,13.8c0.3,3.9,1,6.6,2.9,12.8s2.7,1.7,2.8,0s0.4-7.7,0.2-12s-0.3-10.6,0.5-13.3
	s-0.7-3.3-1.1-3.8c-0.4-0.5,0-0.7-1.1-4.1c-0.1-0.2-0.1-0.4-0.2-0.6c5.5-3.8,10.7-8.1,15.5-12.9
	C214.7,178.8,225.9,151.7,225.9,122.8"/>
<path class="st3" d="M92.4,223.6c4-0.2,9.6-1.4,12.1-2.5c0.3,0.1,0.9,0.4,1.7,0.8c0.3-2.7-1.4-8.2-2.3-10.8c-0.6-1.7-1.2-2.8-2-4.6
	c-2.3-0.4-5-1.6-7.1-2.5c0,1.6,0.3,5.7,0.6,8.5c-0.8,0.1-2,0.2-3.4,0.2C92.3,215.6,92.6,221.1,92.4,223.6"/>
<path class="st4" d="M92.4,223.6c4-0.2,9.6-1.4,12.1-2.5c0.3,0.1,0.9,0.4,1.7,0.8c0.3-2.7-1.4-8.2-2.3-10.8c-0.6-1.7-1.2-2.8-2-4.6
	c-2.3-0.4-5-1.6-7.1-2.5c0,1.6,0.3,5.7,0.6,8.5c-0.8,0.1-2,0.2-3.4,0.2C92.3,215.6,92.6,221.1,92.4,223.6z"/>
<path class="st3" d="M167.9,214.7c-0.8-0.8,0.9-3.1,1.7-7.4c0.8-4.3,0.8-11.6-2.3-15.7c-1.5-2-2.3-3.2-2.6-4.1
	c-9.9,7.2-21.2,12-33.2,14c-0.1,0.3-0.3,0.5-0.4,0.6c-1.8,2.3-5.2,5.5-7.7,6.8s-5.4,2.3-7,2.8c-0.3,2.7-0.8,8.6-0.1,10.7
	c0.2,0.8,3.3,2.6,4.4,4.6c0.1,0.2,0.2,0.4,0.3,0.6c17-0.5,33-5.1,47.1-12.8C168.1,214.9,168,214.8,167.9,214.7"/>
<path class="st4" d="M167.9,214.7c-0.8-0.8,0.9-3.1,1.7-7.4c0.8-4.3,0.8-11.6-2.3-15.7c-1.5-2-2.3-3.2-2.6-4.1
	c-9.9,7.2-21.2,12-33.2,14c-0.1,0.3-0.3,0.5-0.4,0.6c-1.8,2.3-5.2,5.5-7.7,6.8s-5.4,2.3-7,2.8c-0.3,2.7-0.8,8.6-0.1,10.7
	c0.2,0.8,3.3,2.6,4.4,4.6c0.1,0.2,0.2,0.4,0.3,0.6c17-0.5,33-5.1,47.1-12.8C168.1,214.9,168,214.8,167.9,214.7z"/>
<path class="st3" d="M192.1,48.7c-16.5-16.4-37.4-26.8-60.1-29.8c1.8,3.6,2.1,7.7,2.3,10.4c3.3-1.4,5.8-2.2,7.1-4.3
	c1.3-2.2,3.2-1.8,4.3-0.2c1.2,1.6,1.2,3.6-1.9,5.5c-3.1,1.9-5.3,2.8-6,3.2c-0.7,0.3-0.1,0.9,0.7,2.2c0.7,1.3,2.7,4.3,3,10.8
	c0,0.1,0,0.1,0,0.2c12.3,3.8,23.5,10.5,32.8,19.8c15.1,15.1,23.4,35.1,23.4,56.4c0,12.2-2.7,24-7.9,34.7c0.7,0.4,1.6,2.8,1.9,6
	c0.2,1.7,0.1,3.5-0.4,4.7s-4.4,7.1-6.4,8.8c-0.7,0.7-2.5,0.6-3.3-0.5s-0.8-0.5-1.4,0.1c-0.6,0.6-2.6,3.5-3.1,4.3s-2.2,1.5-1.1,4.5
	c1.1,3,2.3,5.3,1.9,6.9c-0.4,1.7-0.6,2.2,1.7,4.1c2.3,1.9,2.2,4.3,1.2,5.8c-0.6,0.9-1.6,3.4-2,6c26.6-19,44.1-50.2,44.1-85.4
	C222.8,94.8,211.9,68.5,192.1,48.7"/>
<path class="st4" d="M192.1,48.7c-16.5-16.4-37.4-26.8-60.1-29.8c1.8,3.6,2.1,7.7,2.3,10.4c3.3-1.4,5.8-2.2,7.1-4.3
	c1.3-2.2,3.2-1.8,4.3-0.2c1.2,1.6,1.2,3.6-1.9,5.5c-3.1,1.9-5.3,2.8-6,3.2c-0.7,0.3-0.1,0.9,0.7,2.2c0.7,1.3,2.7,4.3,3,10.8
	c0,0.1,0,0.1,0,0.2c12.3,3.8,23.5,10.5,32.8,19.8c15.1,15.1,23.4,35.1,23.4,56.4c0,12.2-2.7,24-7.9,34.7c0.7,0.4,1.6,2.8,1.9,6
	c0.2,1.7,0.1,3.5-0.4,4.7s-4.4,7.1-6.4,8.8c-0.7,0.7-2.5,0.6-3.3-0.5s-0.8-0.5-1.4,0.1c-0.6,0.6-2.6,3.5-3.1,4.3s-2.2,1.5-1.1,4.5
	c1.1,3,2.3,5.3,1.9,6.9c-0.4,1.7-0.6,2.2,1.7,4.1c2.3,1.9,2.2,4.3,1.2,5.8c-0.6,0.9-1.6,3.4-2,6c26.6-19,44.1-50.2,44.1-85.4
	C222.8,94.8,211.9,68.5,192.1,48.7z"/>
<path class="st3" d="M71.6,200.3c-0.3-2.8-0.7-7.9,1.3-11.6c-4-2.8-7.8-5.9-11.4-9.4c-15.1-15.1-23.4-35.1-23.4-56.4
	c0-22.8,9.6-43.4,25-58c0.1-0.3,0.3-0.6,0.6-0.9c-2.6,0.8-5.3,1.2-8.2,1.2c-7.3,0-14.3-2.9-19.5-8c-15,18.6-23.1,41.5-23.1,65.6
	c0,28,10.9,54.4,30.7,74.2c9.5,9.5,20.5,16.9,32.5,22.1c0.5-2.2,1.2-4.7,2.2-7.3c0.9-2.4-0.5-8-2.8-10.9
	C74.3,200.5,72.7,200.4,71.6,200.3"/>
<path class="st4" d="M71.6,200.3c-0.3-2.8-0.7-7.9,1.3-11.6c-4-2.8-7.8-5.9-11.4-9.4c-15.1-15.1-23.4-35.1-23.4-56.4
	c0-22.8,9.6-43.4,25-58c0.1-0.3,0.3-0.6,0.6-0.9c-2.6,0.8-5.3,1.2-8.2,1.2c-7.3,0-14.3-2.9-19.5-8c-15,18.6-23.1,41.5-23.1,65.6
	c0,28,10.9,54.4,30.7,74.2c9.5,9.5,20.5,16.9,32.5,22.1c0.5-2.2,1.2-4.7,2.2-7.3c0.9-2.4-0.5-8-2.8-10.9
	C74.3,200.5,72.7,200.4,71.6,200.3z"/>
<path class="st3" d="M99.5,19.6c-6.6,1.2-13.1,3-19.3,5.4c2,3.9,3.1,8.2,3.1,12.7c0,5.9-1.9,11.6-5.3,16.3c5.8-3.4,12-6,18.6-7.9
	c0.4-0.4,0.9-0.8,1.3-1.2c-2.4-4-5.7-10.4-2.8-19.1C95.7,23.3,97.5,21.2,99.5,19.6"/>
<path class="st4" d="M99.5,19.6c-6.6,1.2-13.1,3-19.3,5.4c2,3.9,3.1,8.2,3.1,12.7c0,5.9-1.9,11.6-5.3,16.3c5.8-3.4,12-6,18.6-7.9
	c0.4-0.4,0.9-0.8,1.3-1.2c-2.4-4-5.7-10.4-2.8-19.1C95.7,23.3,97.5,21.2,99.5,19.6z"/>
<path class="st1" d="M141.4,51.2c2.3,1.2,4.9,3.7,3.9,8.4c-0.4,1.9-2,3.8-2.2,4.5c-0.3,1.3-2.9,3.4-3.7,5c-0.8,1.7-1,3.1-0.7,3.8
	l0,0c1.3,1.3,4.3,2.9,6,3.5c1.3,0.5,1.2,0.8,0.7,1.7c0.9,0.1,1.4,0.7,2.2,1.7c0.9,1.1,3.3,0.4,4.8-0.3c1.5-0.8,3.4-1,4.9,0.8
	s3.8,5.3,4.8,8.4c1.1,3.2,2.3,5.8,2.6,6.3s-1.2,9.7-1.6,13.3c-0.4,3.7-0.8,5.3-0.8,5.8c-0.1,0.6,2.3-2.1,2.4,1.1
	c0.1,2.5,1.2,10.6,2.6,16.6c0.3,1.5,0.7,2.9,1.1,4c1,0.2,1.8,2.2,2.4,5.3c0.6,3.1,1.8,5,1.9,6.5c0.1,1.5,0.5,1.8,1,2s0.3,1-1.2,2.8
	c0.3,0.2,0.8,0.7,1.2,1.1c0.4-0.4,1.6-1.8,1.6-1.8s4.6,1.8,5.6,2.2c1,0.3,2.2-2.1,5.2-0.8c0.8,0.4,1.7,1.5,2.4,2.6
	c4.7-10,7.3-21.1,7.3-32.9c0-20.8-8.1-40.4-22.8-55.1c-9-9-19.8-15.5-31.5-19.2C141.5,49.7,141.4,50.8,141.4,51.2"/>
<path class="st1" d="M165.5,182.4c-1.2-0.6-1.9,0.3-2.5-4.3c-0.2-1.3-1.3-3.1-2.1-3.9c-0.8-0.8-0.9-2.4-0.5-3.8
	c0.7-2.1,0.8-4,0.7-5.7s0.3-3.8,2.6-4.8c-0.8-0.9-1.3-2.1-1.5-3c-3.4-1.1-4.1-1.2-4.8-2.9c-1.2-2.8-1.9-6.8-2.2-9
	c-0.2-1.1-0.3-2.1-0.3-3c-1.1-2.1-3.5-6.7-5.4-10.1c-0.7-1.3-1.3-2.4-1.8-3.2c-1.7-2.9,0-6.8,0.8-9c0.8-2.3,1.5-4.3,0.7-6.5
	c-0.7-2.3-0.7-2.8-0.9-3.7s-0.9-2.1-1.9,1.1s-2.9,7.8-4,12.7c-0.6,2.8-1,5.7-0.9,8.6c0.1,2.2,0.5,4.4,1.5,6.3
	c2.2,4.5,4.8,8.7,4.4,11.2c-0.3,2.5-0.9,2.6-0.9,3c-0.4,4.8-2.5,14.1-3.6,16.8s-5.3,12.3-6.3,16.4c-0.7,3.1-2.6,9.8-4.3,13.8
	c12.5-2.4,23.9-7.7,33.6-15.3C166.3,183.4,166.2,182.8,165.5,182.4"/>
<path class="st1" d="M72.8,73c0.9,1.2,2.1,2.3,3.7,3.1c4.1,2.1,4.9,3.6,4.9,7.2s0.7,10.9,1.8,12.2c0.8-0.8,1.6-1.8,1.8-2.2
	c1.2,2.2,3.5,6.2,7.3,8.7c0.3,0.2,0.1,1.1,0.8,1.3c1.3,0.3,9.3,1.6,9.6,3.3c1.7-1.7,4.3-5.8,4.8-7.3c0.5-1.4,3.4-5.9,5.6-8.4
	c0-1,0-1.6,0.1-1.8c-0.6,0.5-1.5,1.8-2.8,2.3c-1.3,0.6-6,2.6-9.3,4.3c-1.2,0.6-3.3,1.3-4.1-4.8c-0.8-6.1,0-9.3,0.6-10.7
	c0.6-1.4,1.7-2.7,3.8-2.1c2.1,0.6,5.4,1.8,6.3,1.8c0.2-0.7,0.8-1.9-1.5-2.2c-1.6-0.2-5.8-1.4-8.2-4.6c-1-1.3-1.6-2.9-1.7-5
	c-4.8,0.8-15.7,2.2-18.1,2.8c-2.4,0.6-4.5,1.1-5.3-4.4c-0.3-2.3-0.9-5.6,0.8-4.4c1.3-1,3.2-2.2,6.4-1.7c0.6,0.1,1.3,0.6,1.6,1.1
	c0.2,0.8-0.2,2.1-0.6,3.4c-0.7,2.2-2.1,3.8,2.4,2.8c4.8-1.1,10.8-2,12.4-2.3c0.2-1.6,1.5-4.1,3.1-6c1.6-1.8,1.8-3.3,1.9-3.9
	c0.1-0.6-0.5-0.7-1.3,0c-0.9,0.8-3.7,2.5-6.3,1.8c-1-0.3-2.3-2.2-2.9-3.3c0.5-1.1,1.9-3.1,3.6-5.1c-8.9,2.8-17.2,7.3-24.6,13.2
	c0,0.9,0.1,3.1,0.7,5.4C70.6,68.9,71.3,71,72.8,73"/>
<path class="st1" d="M78.6,186.9c3.4-1.3,6.1-1.3,8.8,2.3c0.8,1,1.3,3.9,7.8,1.3c-3.4-4.1-5.5-8.9-7.3-15.4
	c-3-10.3-9.6-21.9-7.2-27.3c-1.4-1.3-3.1-6.5-4.8-5.9c-1.2,0.4-2.8,0.4-1.5-3.5c0.6-1.8,1.6-3.9,3.5-6.5c2.3-3.1,5.9-6.9,11.7-11.4
	c0.5-0.4,0.6-0.8,0.3-1.1c-0.6-0.6-1.2-1.3-1.8-1.6c-0.6-0.3-1.2-0.2-1.7,0.3s-1.3,1.1-1.8,1.4s-4.5-3.6-6.6-6.4s-4.3-3.8-4.9-4.1
	c0.8-0.9,2.7-2.9,2-2.7c-1.3,0.4-3.4,0.7-5.7-1.7c-2.8-2.9-1.7-4.4-2.3-4.8c-0.6-0.4-3.6,0.2-5.8-3.3C59,93,58.1,91.5,60,89
	c0.9-1.3,1.3-1.8,1-3.4C60.8,84,61,83,63.1,81c2.1-2,3.3-3.8,4.3-3.7c0.7,0.1-1.4-2.5-2.7-4.5c-0.3-0.5-0.6-1-0.8-1.4
	c-0.3-0.8-0.9-2.2-1-3.7C48.1,82.6,40,102.1,40,122.9s8.1,40.4,22.8,55.1c3.5,3.5,7.2,6.5,11.1,9.2
	C75.7,185.3,77.7,186.1,78.6,186.9"/>
<path class="st5" d="M34.2,22.4c6.8,1.8,12,7.3,14.2,10.4c0.6,0.8,1.2,0.7,1.4,0.1c0.5-1.2,1.5-5.3,1.5-8.3c0-7,1-9.8,2.7-13
	C45.9,11.9,38.7,16.1,34.2,22.4"/>
<path class="st6" d="M34.2,22.4c6.8,1.8,12,7.3,14.2,10.4c0.6,0.8,1.2,0.7,1.4,0.1c0.5-1.2,1.5-5.3,1.5-8.3c0-7,1-9.8,2.7-13
	C45.9,11.9,38.7,16.1,34.2,22.4z"/>
<path class="st5" d="M30.1,43.9C43,45,47,37.8,47.8,36.8c0.8-1.1-0.2-1.8-0.6-2.3c-2.2-3.1-7.2-8.6-14-10.4c-2.4,4-3.8,8.6-3.8,13.5
	C29.4,39.8,29.6,41.9,30.1,43.9"/>
<path class="st6" d="M30.1,43.9C43,45,47,37.8,47.8,36.8c0.8-1.1-0.2-1.8-0.6-2.3c-2.2-3.1-7.2-8.6-14-10.4c-2.4,4-3.8,8.6-3.8,13.5
	C29.4,39.8,29.6,41.9,30.1,43.9z"/>
<path class="st5" d="M81.1,43.4c-5.4-2.3-11.9-0.2-16.4,3.8c-4.6,4-6.9,7.1-8.5,16.6c-0.2,0-0.4,0-0.6,0c-6.8,0-13-2.6-17.6-6.8
	c7.8-2,14.5-5.6,21.9-12.6S71,29.2,72,25.4s-0.4-1.6-1.2,0.2c-1.2,2.7-5,10-12.6,17.1S44.8,53.3,36.8,56c-2.6-2.7-4.7-6-6-9.7
	c2.7,0.2,11.1-0.8,15.3-4.3c5.5-4.5,6.2-9.9,6.9-17.6c0.8-7.7,1.9-10,3.7-12.9c13.9,0.6,25,12.1,25,26.2
	C81.7,39.6,81.5,41.5,81.1,43.4"/>
<path class="st6" d="M81.1,43.4c-5.4-2.3-11.9-0.2-16.4,3.8c-4.6,4-6.9,7.1-8.5,16.6c-0.2,0-0.4,0-0.6,0c-6.8,0-13-2.6-17.6-6.8
	c7.8-2,14.5-5.6,21.9-12.6S71,29.2,72,25.4s-0.4-1.6-1.2,0.2c-1.2,2.7-5,10-12.6,17.1S44.8,53.3,36.8,56c-2.6-2.7-4.7-6-6-9.7
	c2.7,0.2,11.1-0.8,15.3-4.3c5.5-4.5,6.2-9.9,6.9-17.6c0.8-7.7,1.9-10,3.7-12.9c13.9,0.6,25,12.1,25,26.2
	C81.7,39.6,81.5,41.5,81.1,43.4z"/>
<path class="st5" d="M80.4,46c-1.3-1.8-5.7-2.6-12.8,1.8c-0.7,0.4-1.1,0.7-0.3,1.5c1.5,1.5,3.8,4.3,5.3,8.2
	C76.1,54.5,78.8,50.5,80.4,46"/>
<path class="st6" d="M80.4,46c-1.3-1.8-5.7-2.6-12.8,1.8c-0.7,0.4-1.1,0.7-0.3,1.5c1.5,1.5,3.8,4.3,5.3,8.2
	C76.1,54.5,78.8,50.5,80.4,46z"/>
<path class="st5" d="M70.5,59.1c-1.5-3.7-2.8-6.3-4.2-8.2c-0.8-1-0.9-1.4-2.3-0.2c-3.9,3.5-5.5,8.8-6.3,12.9
	C62.4,63.3,66.8,61.7,70.5,59.1"/>
<path class="st6" d="M70.5,59.1c-1.5-3.7-2.8-6.3-4.2-8.2c-0.8-1-0.9-1.4-2.3-0.2c-3.9,3.5-5.5,8.8-6.3,12.9
	C62.4,63.3,66.8,61.7,70.5,59.1z"/>
<path class="st7" d="M102.6,223.2c0.5-0.2,1.3-0.6,1.6-0.3c0.3,0.3,2.3,1.7,3.6,2.8c1.3,1.1,1.7,1.4,0.7,2s-1.9,1.2-1.8,0.7
	c0.2-0.5,0.4-1.3-0.3-1.9c-0.7-0.7-2.3-1.9-3-2.5C103.1,223.5,102.6,223.2,102.6,223.2"/>
<path class="st8" d="M102.6,223.2c0.5-0.2,1.3-0.6,1.6-0.3c0.3,0.3,2.3,1.7,3.6,2.8c1.3,1.1,1.7,1.4,0.7,2s-1.9,1.2-1.8,0.7
	c0.2-0.5,0.4-1.3-0.3-1.9c-0.7-0.7-2.3-1.9-3-2.5C103.1,223.5,102.6,223.2,102.6,223.2z"/>
<path class="st7" d="M97.9,224.6c-0.4,0.4-0.5,1,0,1.5s3.3,2.8,3.8,3.3s1.1,0.6,1.9,0.5c0.8-0.2-0.9,0.9-1.5,1s-1.3,0.1-2-0.5
	s-4.4-4.2-5.2-4.9c-0.8-0.7,0.2-0.7,0.9-0.8C96.4,224.7,97,224.7,97.9,224.6"/>
<path class="st8" d="M97.9,224.6c-0.4,0.4-0.5,1,0,1.5s3.3,2.8,3.8,3.3s1.1,0.6,1.9,0.5c0.8-0.2-0.9,0.9-1.5,1s-1.3,0.1-2-0.5
	s-4.4-4.2-5.2-4.9c-0.8-0.7,0.2-0.7,0.9-0.8C96.4,224.7,97,224.7,97.9,224.6z"/>
<path class="st7" d="M93.3,203.3c0.3,0.8,0.3,1.5-0.8,1.3c-1.2-0.2-6.1-0.6-7.5-0.6c-0.3,0-0.2-0.8-0.7-0.5s-0.3,1.1-0.3,1.9
	s-0.1,1.3,0,1.9c0,0.9,0.6,2.1,2.8,2.2c2.3,0.1,4.4-0.1,5-0.6c0.7-0.5,0-1.2-0.7-1.2c-0.6,0-4.4,0.3-5.2,0c-0.8-0.3-1.3-1.2-0.8-1.6
	c0.7-0.5,2,0.1,3.3,0.1s2.7-0.3,3-0.1s0.8,0.1,0.8,1.7c0,0.3,0.8,0.5,1.2,0.5s0.5,0.6,0.5,1.5c0,0.8,0,1-1.5,1s-8-0.1-8.9-0.1
	c-0.4,0-0.4-0.3-0.5-1c0-0.8-0.3-6-0.4-6.4s1-0.5,1.9-0.3s2,0.3,3.4,0.4c1.4,0.1,3.6,0.3,3.6,0.3s1.1,0.1,1.2-0.2
	C92.8,203.1,93.2,203,93.3,203.3"/>
<path class="st8" d="M93.3,203.3c0.3,0.8,0.3,1.5-0.8,1.3c-1.2-0.2-6.1-0.6-7.5-0.6c-0.3,0-0.2-0.8-0.7-0.5s-0.3,1.1-0.3,1.9
	s-0.1,1.3,0,1.9c0,0.9,0.6,2.1,2.8,2.2c2.3,0.1,4.4-0.1,5-0.6c0.7-0.5,0-1.2-0.7-1.2c-0.6,0-4.4,0.3-5.2,0c-0.8-0.3-1.3-1.2-0.8-1.6
	c0.7-0.5,2,0.1,3.3,0.1s2.7-0.3,3-0.1s0.8,0.1,0.8,1.7c0,0.3,0.8,0.5,1.2,0.5s0.5,0.6,0.5,1.5c0,0.8,0,1-1.5,1s-8-0.1-8.9-0.1
	c-0.4,0-0.4-0.3-0.5-1c0-0.8-0.3-6-0.4-6.4s1-0.5,1.9-0.3s2,0.3,3.4,0.4c1.4,0.1,3.6,0.3,3.6,0.3s1.1,0.1,1.2-0.2
	C92.8,203.1,93.2,203,93.3,203.3z"/>
<path class="st9" d="M63.3,88.4c-1.1-0.3-1.9,0.9-2.4,1.9s-1.1,2.1,0.5,4.3s2.6,3.6,5.3,3.4c1.3-0.1,2.5-1.1,2.9-1.7
	s0.5,0.4-0.2,1.4c-0.7,1-1.2,3.3,0.1,4.9s3.8,2.9,7.3,0.9c3.4-2,4.8-4.4,5.4-5.5s0.6-1.6,0-2.3c-0.6-0.7-2.5-3.8-2.9-10.1
	c-0.2-3.8,0.4-6.2-1.9-7.5s-7.7-4.5-8.3-10.7c-0.2-2.3-0.1-5.9-2.4-4c-2.3,1.9-2.3,3.3-2.6,4.7C63.8,69.7,65,71.6,66,73
	c1,1.3,2.2,4.3,3.1,5c0.9,0.8,1.5,1.3,2.3,1.4s3.8,0.1,4.5,0.3c0.8,0.3,1.2,1.2-0.7,1.2c-1.8,0-4.7,0.5-5.9,0.7
	c-1.3,0.2-2.4,0.3-3,2.8s-1.4,5.4-1.5,6.3s-0.6,1.4-0.6,1.9s1,2.9,3.3,0.5c2.3-2.4,3.2-4.8,3.6-6s0.9-1,0.5,0.8s-0.5,6.4,0.3,8
	c0.9,1.7,2.8,3.5,5.3,2.3c0.5-0.2,1.3-0.7,2-0.6s-0.1,1.3-0.7,1.8S76,102,72.6,99c-0.8-0.8-2-2.4-2.3-4.5c-0.1-0.7-1-0.9-1.4-0.3
	s-2.7,2.7-4.3,1.2c-1.6-1.5-2.2-2.3-1.3-5.5C63.4,89.2,63.7,88.5,63.3,88.4"/>
<path class="st10" d="M63.3,88.4c-1.1-0.3-1.9,0.9-2.4,1.9s-1.1,2.1,0.5,4.3s2.6,3.6,5.3,3.4c1.3-0.1,2.5-1.1,2.9-1.7
	s0.5,0.4-0.2,1.4c-0.7,1-1.2,3.3,0.1,4.9s3.8,2.9,7.3,0.9c3.4-2,4.8-4.4,5.4-5.5s0.6-1.6,0-2.3c-0.6-0.7-2.5-3.8-2.9-10.1
	c-0.2-3.8,0.4-6.2-1.9-7.5s-7.7-4.5-8.3-10.7c-0.2-2.3-0.1-5.9-2.4-4c-2.3,1.9-2.3,3.3-2.6,4.7C63.8,69.7,65,71.6,66,73
	c1,1.3,2.2,4.3,3.1,5c0.9,0.8,1.5,1.3,2.3,1.4s3.8,0.1,4.5,0.3c0.8,0.3,1.2,1.2-0.7,1.2c-1.8,0-4.7,0.5-5.9,0.7
	c-1.3,0.2-2.4,0.3-3,2.8s-1.4,5.4-1.5,6.3s-0.6,1.4-0.6,1.9s1,2.9,3.3,0.5c2.3-2.4,3.2-4.8,3.6-6s0.9-1,0.5,0.8s-0.5,6.4,0.3,8
	c0.9,1.7,2.8,3.5,5.3,2.3c0.5-0.2,1.3-0.7,2-0.6s-0.1,1.3-0.7,1.8S76,102,72.6,99c-0.8-0.8-2-2.4-2.3-4.5c-0.1-0.7-1-0.9-1.4-0.3
	s-2.7,2.7-4.3,1.2c-1.6-1.5-2.2-2.3-1.3-5.5C63.4,89.2,63.7,88.5,63.3,88.4z"/>
<path class="st9" d="M65,83.7c-0.4,1.1-0.7,2.5-0.8,3c-0.2,0.5-0.9,1.6-1.6,0.2c-0.7-1.4-0.6-2.5,0.4-3.6c0.3-0.3,0.8-1,1.2-0.7
	C64.5,83,65.1,83.5,65,83.7"/>
<path class="st10" d="M65,83.7c-0.4,1.1-0.7,2.5-0.8,3c-0.2,0.5-0.9,1.6-1.6,0.2c-0.7-1.4-0.6-2.5,0.4-3.6c0.3-0.3,0.8-1,1.2-0.7
	C64.5,83,65.1,83.5,65,83.7z"/>
<path class="st9" d="M68.7,79.9c-0.7,0.3-2.2,0.3-2.7,1.5c-0.3,0.8-1.7-0.1-1-1s1.2-0.8,1.6-1.1c0.4-0.3,0.6-1,1.4-0.6
	C68.9,79.1,69.1,79.7,68.7,79.9"/>
<path class="st10" d="M68.7,79.9c-0.7,0.3-2.2,0.3-2.7,1.5c-0.3,0.8-1.7-0.1-1-1s1.2-0.8,1.6-1.1c0.4-0.3,0.6-1,1.4-0.6
	C68.9,79.1,69.1,79.7,68.7,79.9z"/>
<path class="st9" d="M123.7,38.6c-2.3,0.3-4.5,1.7-6.7,3.2s-10,8.1-11.8,9.4c1.9,1,2.4,3,1.8,6.3c-0.1,0.7,0,1,0.5,0.5s2.8-3,2.8-5
	c-0.1-2-1-3.2-1.2-3.4c-0.2-0.3,0.7-1.3,1.6,0.8s0.7,5-2.1,8.3c-2.8,3.3-4.9,3.2-6.1,3.8s-2.3,1.5-1.3,3.3c1.1,1.8,3.2,1.1,4,0.5
	c0.8-0.6,2-1.3,4.7-1c2.7,0.2,3.6-1.4,1.8-3.3c-0.6-0.6-2.1-1.9-0.2-1.9c1.1,0,2.4,2.4,3.2,3.1c0.8,0.7,2.4,0.9,4.7,1.1
	c2.3,0.2,5.8,1,5.8,3.2c0,1.3-0.7,1.7-1.7,0.7c-0.4-0.4-0.9,0.2-1.3,0.7c-1.4,1.4-5,5.3-7.6,5.9c-2.6,0.7-3.5-0.1-7-1.9
	c-3.4-1.8-6.6-3.7-7.5-4.3c-0.9-0.6-2.8-1.9-1.9,0.8c0.9,2.7,3.2,5.4,7.7,6.9s5.2,2,6.2,2.5s0.4,1-0.9,0.8c-1.2-0.1-2.4-1.2-1.4,1.1
	c1,2.3,2.5,4.7,7.1,4.1s4.7-1.6,7.6-6.3c0.5-0.8,1-0.3,0.7,1.9c2.3-1.1,3.5-1.4,4.8-1.8c1.3-0.3,4.8-1.5,7.1-5.8
	c1.2-2.2,1.8-2.9,1.6-5.2c-0.1-0.8,1.2-2.5,2.4-3.7c1.2-1.2,4.7-5.6,2.9-8.8s-4.7-1.6-6.1,0.8c-1.4,2.3-3,4.9-3.1,8.9
	c-1-0.3-2,0-2.5,0.8c-0.2,0.4-3.9-0.1-5.2,0.3c-1.2,0.3-1.7-0.4-0.3-2.2c1.3-1.8,6-8.1,5.8-12.9c-0.1-1.4,0.1-1.7,0.3-2.8
	c0.3-1.4,0.4-1.4-1.3-2.3c-1.1-0.6-1.2-2.3-1.4-3.7c-0.2-1.4-0.5-1.4-2.1-1.1C126.6,41.3,124.6,40.1,123.7,38.6"/>
<path class="st11" d="M123.7,38.6c-2.3,0.3-4.5,1.7-6.7,3.2s-10,8.1-11.8,9.4c1.9,1,2.4,3,1.8,6.3c-0.1,0.7,0,1,0.5,0.5s2.8-3,2.8-5
	c-0.1-2-1-3.2-1.2-3.4c-0.2-0.3,0.7-1.3,1.6,0.8s0.7,5-2.1,8.3c-2.8,3.3-4.9,3.2-6.1,3.8s-2.3,1.5-1.3,3.3c1.1,1.8,3.2,1.1,4,0.5
	c0.8-0.6,2-1.3,4.7-1c2.7,0.2,3.6-1.4,1.8-3.3c-0.6-0.6-2.1-1.9-0.2-1.9c1.1,0,2.4,2.4,3.2,3.1c0.8,0.7,2.4,0.9,4.7,1.1
	c2.3,0.2,5.8,1,5.8,3.2c0,1.3-0.7,1.7-1.7,0.7c-0.4-0.4-0.9,0.2-1.3,0.7c-1.4,1.4-5,5.3-7.6,5.9c-2.6,0.7-3.5-0.1-7-1.9
	c-3.4-1.8-6.6-3.7-7.5-4.3c-0.9-0.6-2.8-1.9-1.9,0.8c0.9,2.7,3.2,5.4,7.7,6.9s5.2,2,6.2,2.5s0.4,1-0.9,0.8c-1.2-0.1-2.4-1.2-1.4,1.1
	c1,2.3,2.5,4.7,7.1,4.1s4.7-1.6,7.6-6.3c0.5-0.8,1-0.3,0.7,1.9c2.3-1.1,3.5-1.4,4.8-1.8c1.3-0.3,4.8-1.5,7.1-5.8
	c1.2-2.2,1.8-2.9,1.6-5.2c-0.1-0.8,1.2-2.5,2.4-3.7c1.2-1.2,4.7-5.6,2.9-8.8s-4.7-1.6-6.1,0.8c-1.4,2.3-3,4.9-3.1,8.9
	c-1-0.3-2,0-2.5,0.8c-0.2,0.4-3.9-0.1-5.2,0.3c-1.2,0.3-1.7-0.4-0.3-2.2c1.3-1.8,6-8.1,5.8-12.9c-0.1-1.4,0.1-1.7,0.3-2.8
	c0.3-1.4,0.4-1.4-1.3-2.3c-1.1-0.6-1.2-2.3-1.4-3.7c-0.2-1.4-0.5-1.4-2.1-1.1C126.6,41.3,124.6,40.1,123.7,38.6z"/>
<path class="st9" d="M113.9,64.7c-0.5,1-1.7,2-4.6,1.7c-1.5-0.2-2.9-0.2-3.1,1c-0.2,0.8-0.8,0.8-1.8,0.7c-1,0-2-0.3-2,0
	c0,0.3,4.1,2.8,5.5,3.4s3.4,2.1,5,2c2.2-0.2,4.1-1.3,7.3-4.7c1.3-1.4,2.4-2.1,1.1-2.7c-0.8-0.4-1.7-0.5-2.8-0.5
	C117.3,65.6,114.9,65.5,113.9,64.7"/>
<path class="st11" d="M113.9,64.7c-0.5,1-1.7,2-4.6,1.7c-1.5-0.2-2.9-0.2-3.1,1c-0.2,0.8-0.8,0.8-1.8,0.7c-1,0-2-0.3-2,0
	c0,0.3,4.1,2.8,5.5,3.4s3.4,2.1,5,2c2.2-0.2,4.1-1.3,7.3-4.7c1.3-1.4,2.4-2.1,1.1-2.7c-0.8-0.4-1.7-0.5-2.8-0.5
	C117.3,65.6,114.9,65.5,113.9,64.7z"/>
<path class="st9" d="M98.4,64.8c-1.1,0-1.3-0.9-0.5-2.1s1.5-2.4,2.5-3.2c0.2,0.5,0.5,1.2,1,1.5c-0.7,0.7-1.5,1.6-1.4,3.3"/>
<path class="st11" d="M98.4,64.8c-1.1,0-1.3-0.9-0.5-2.1s1.5-2.4,2.5-3.2c0.2,0.5,0.5,1.2,1,1.5c-0.7,0.7-1.5,1.6-1.4,3.3L98.4,64.8
	z"/>
<path class="st2" d="M117.1,52.5c0.2-1.2,0-2.1-1.7-0.8c-1.6-1.2-3-2.6-3.5-2.9c-0.5-0.3-0.8-0.8-0.2-1.4c0.6-0.6,1.6,0.4,1.4-1.3
	c-0.1-0.6,1.3-0.2,1.6-0.4c0.3-0.2-0.2-1,1.4-0.6c0.5,0.1,0.3-0.8,1.3-0.7c1,0.2,1.5,0.5,1.7-0.3s0.4-1.3,1.7-0.5
	c0.9,0.5,1.2,0.2,1.3-0.2c0.1-0.4,0.9-0.2,1.6,0.3c0.7,0.4,2.5,1.3,4.5,3.7c0.5,0.6,0.7,1.2,0.4,1.3c-0.3,0.1-0.7,0-0.8,0.7
	c-0.1,0.7-0.4,1.3-0.8,0.5s-0.5,0.1-0.7-0.7c-0.3-0.8-0.7,0.3-0.9-0.2c-0.3-0.7-0.5,0.1-0.8-0.5c-0.1-0.3-0.9,0.4-1.2-0.1
	c-0.2-0.5-0.8,0.5-1.2,0c-0.4-0.5-0.4,0.6-1.1,0.3c-0.7-0.2-0.4,0.6-1,0.3s-0.5,0.8-1.1,0.7c-0.6-0.2-0.6,0.1-0.7,0.8
	s-0.4,3.5-0.4,4.1c0,0.7,1.4,0.5,3.5,0.2s5.8-1.4,7.7-3c0.8-0.6,1.4-0.6,1.5-0.4c0.1,0.2-0.2,0.9-0.8,1.3c-0.5,0.5-2,1.9-5.2,2.5
	s-5.9,1.1-6.4,1s0.2,0.8,1.2,0.6c0.5-0.1,1.6,1.9,3.3,1.9c1.4,0,3.5-1.6,4.1-2c0.6-0.5,2.7-1.4,1.3,0c-1.4,1.4-2.9,3-4.4,3
	s-3.8-0.5-5.4-1.5c-1.6-1.1-2.2-1.7-1.9-3.3C117,53.2,117,52.9,117.1,52.5"/>
<path class="st11" d="M117.1,52.5c0.2-1.2,0-2.1-1.7-0.8c-1.6-1.2-3-2.6-3.5-2.9c-0.5-0.3-0.8-0.8-0.2-1.4c0.6-0.6,1.6,0.4,1.4-1.3
	c-0.1-0.6,1.3-0.2,1.6-0.4c0.3-0.2-0.2-1,1.4-0.6c0.5,0.1,0.3-0.8,1.3-0.7c1,0.2,1.5,0.5,1.7-0.3s0.4-1.3,1.7-0.5
	c0.9,0.5,1.2,0.2,1.3-0.2c0.1-0.4,0.9-0.2,1.6,0.3c0.7,0.4,2.5,1.3,4.5,3.7c0.5,0.6,0.7,1.2,0.4,1.3c-0.3,0.1-0.7,0-0.8,0.7
	c-0.1,0.7-0.4,1.3-0.8,0.5s-0.5,0.1-0.7-0.7c-0.3-0.8-0.7,0.3-0.9-0.2c-0.3-0.7-0.5,0.1-0.8-0.5c-0.1-0.3-0.9,0.4-1.2-0.1
	c-0.2-0.5-0.8,0.5-1.2,0c-0.4-0.5-0.4,0.6-1.1,0.3c-0.7-0.2-0.4,0.6-1,0.3s-0.5,0.8-1.1,0.7c-0.6-0.2-0.6,0.1-0.7,0.8
	s-0.4,3.5-0.4,4.1c0,0.7,1.4,0.5,3.5,0.2s5.8-1.4,7.7-3c0.8-0.6,1.4-0.6,1.5-0.4c0.1,0.2-0.2,0.9-0.8,1.3c-0.5,0.5-2,1.9-5.2,2.5
	s-5.9,1.1-6.4,1s0.2,0.8,1.2,0.6c0.5-0.1,1.6,1.9,3.3,1.9c1.4,0,3.5-1.6,4.1-2c0.6-0.5,2.7-1.4,1.3,0c-1.4,1.4-2.9,3-4.4,3
	s-3.8-0.5-5.4-1.5c-1.6-1.1-2.2-1.7-1.9-3.3C117,53.2,117,52.9,117.1,52.5z"/>
<path class="st2" d="M141.4,57.7c-1,0.7-1.5,0.9-1.6,2.1c-0.1,1.2-0.3,3.2-0.8,3.3c-0.6,0.2-0.5-1.1-0.7-0.7c-0.2,0.6-1,0.3-1.2-0.2
	c-0.1-0.2-2.2-0.2-0.5-2.6c1.5-2.2,2.7-3.3,3.8-3.8C141.6,55.3,143.4,56.3,141.4,57.7"/>
<path class="st11" d="M141.4,57.7c-1,0.7-1.5,0.9-1.6,2.1c-0.1,1.2-0.3,3.2-0.8,3.3c-0.6,0.2-0.5-1.1-0.7-0.7
	c-0.2,0.6-1,0.3-1.2-0.2c-0.1-0.2-2.2-0.2-0.5-2.6c1.5-2.2,2.7-3.3,3.8-3.8C141.6,55.3,143.4,56.3,141.4,57.7z"/>
<path class="st9" d="M182.2,156.9c-0.4-1,0.3-2.6,2.4-1.5c2.1,1.2,3.7,2.2,2.2,6.8s-2.6,7.3-3.2,9.2c-0.6,1.9-2.8,4.3-2.1,1.1
	c0.8-3.3,1.2-7.2,0.8-9.2c-0.6-3.7,0.6-3.5,0.2-5.1C182.5,157.6,182.4,157.2,182.2,156.9"/>
<path class="st10" d="M182.2,156.9c-0.4-1,0.3-2.6,2.4-1.5c2.1,1.2,3.7,2.2,2.2,6.8s-2.6,7.3-3.2,9.2c-0.6,1.9-2.8,4.3-2.1,1.1
	c0.8-3.3,1.2-7.2,0.8-9.2c-0.6-3.7,0.6-3.5,0.2-5.1C182.5,157.6,182.4,157.2,182.2,156.9z"/>
<path class="st9" d="M190.1,160.8c0.6,1.8,1.3,5.9,0.2,7.6c-1,1.7-4.1,6.3-5.3,7.4c-1.2,1.2-2.1,0.7-1.3-0.6s1.8-2.9,1.8-3.5
	s-0.1-1.3,0.9-3.2s2.8-8.3,2.9-8.8S190,160.3,190.1,160.8"/>
<path class="st10" d="M190.1,160.8c0.6,1.8,1.3,5.9,0.2,7.6c-1,1.7-4.1,6.3-5.3,7.4c-1.2,1.2-2.1,0.7-1.3-0.6s1.8-2.9,1.8-3.5
	s-0.1-1.3,0.9-3.2s2.8-8.3,2.9-8.8S190,160.3,190.1,160.8z"/>
<path class="st9" d="M168.6,176.3c-0.5-1.5-0.8-3.7-1.6-4.9c0.7-1.8,2.9-6.8,6.6-8.3c0.4-0.2,0.7-0.6,0.5-0.9
	c-0.2-0.3,0.5-0.6,0.8,0.6c0.3,1.2,0.9,4.5,0.9,4.5c0.2,0.8-0.2,1.3-0.3,2.3c-0.2,1-0.6,3.3-0.3,4.4c0.3,1.2,0.7,2,3,1.5
	c1.2-0.3,1.1-0.6,1.4-1.6c0.3-1,1.3-3.8,1.6-5.4c0.3-1.6,0-5.5-0.3-6.5s0.1-4.4-0.1-5c-0.3-0.7-0.4-1.7-2.5-2.3
	c-2.1-0.7-2.7-0.8-4.1,0.6c-1.4,1.4-1.9,2-2.6,2.7c-0.7,0.7-2.3,0.1-0.9-1.3c1.4-1.3,2.8-2.7,3.2-3.1l-0.4-1.1h-0.8
	c-2.3,2.3-5.3,3.6-7.3,4c-0.8,0.2-2.2,0.3-1.2,1.6c0.2,0.3,0.3,1.2,0.9,0.9c0.6-0.3,1.5-1.8,2.3-1.2c0.8,0.7-0.2,2.3-1.2,3
	c-1,0.8-2.1,1.5-2.8,1.9c-0.8,0.4-1.2,0.8-1.1,2.2c0.1,1.3,0.2,3.8-0.6,5.6s-0.3,2.3,0.3,3.6c0.7,1.3,1.8,2.3,2.1,4.3
	s0.5,2.5,1.8,2.3s1.8-0.8,2.3-1.6"/>
<path class="st10" d="M168.6,176.3c-0.5-1.5-0.8-3.7-1.6-4.9c0.7-1.8,2.9-6.8,6.6-8.3c0.4-0.2,0.7-0.6,0.5-0.9
	c-0.2-0.3,0.5-0.6,0.8,0.6c0.3,1.2,0.9,4.5,0.9,4.5c0.2,0.8-0.2,1.3-0.3,2.3c-0.2,1-0.6,3.3-0.3,4.4c0.3,1.2,0.7,2,3,1.5
	c1.2-0.3,1.1-0.6,1.4-1.6c0.3-1,1.3-3.8,1.6-5.4c0.3-1.6,0-5.5-0.3-6.5s0.1-4.4-0.1-5c-0.3-0.7-0.4-1.7-2.5-2.3
	c-2.1-0.7-2.7-0.8-4.1,0.6c-1.4,1.4-1.9,2-2.6,2.7c-0.7,0.7-2.3,0.1-0.9-1.3c1.4-1.3,2.8-2.7,3.2-3.1l-0.4-1.1h-0.8
	c-2.3,2.3-5.3,3.6-7.3,4c-0.8,0.2-2.2,0.3-1.2,1.6c0.2,0.3,0.3,1.2,0.9,0.9c0.6-0.3,1.5-1.8,2.3-1.2c0.8,0.7-0.2,2.3-1.2,3
	c-1,0.8-2.1,1.5-2.8,1.9c-0.8,0.4-1.2,0.8-1.1,2.2c0.1,1.3,0.2,3.8-0.6,5.6s-0.3,2.3,0.3,3.6c0.7,1.3,1.8,2.3,2.1,4.3
	s0.5,2.5,1.8,2.3s1.8-0.8,2.3-1.6L168.6,176.3z"/>
<path class="st5" d="M169.1,180.1c-0.6,1-1.6,2.6-1.6,4s-1.4,2.9-1.3,3.6c0.2,0.7,2,2.4,3.1,4.3c1.1,1.8,2.5,4.6,2.5,9.2
	s-1.5,10.8-1.7,11.7c-0.2,0.8-0.6,1.5,0.7,2.7s3.3,3.3,4,8.3c0.8,4.9,1.3,7.5,1.6,7.8c0.3,0.2,0.2,0.7,0.2,1.6s0.8,6.2,1.4,7.2
	c0.6,1,0.5-5.7,0.4-7.6s0.1-11.1,0.4-12.4c0.3-1.3,0.7-2.8-0.5-4.5s-3.2-4.6-1.7-9.4c1.5-4.8,3.9-4.8,3.2-6.7
	c-0.8-1.9-2.1-3.3-3.1-4.3c-1-1.1-0.2-3.7-0.3-4.8c-0.1-2-1.7-2.3-1.8-4.6c-0.2-2.3-0.3-4.1,1.3-6.3c1.7-2.3-0.6-2.2-1.3-3.6
	c-0.8-1.4-1.2-3.3-0.5-6.3c0.3-1.5,0.2-1.9-0.3-2.1c-0.4-0.2-2.2-0.5-2.2-0.5l-2.6,5.2c0.4,1,0.6,2.5,0.6,3.5"/>
<path class="st6" d="M169.1,180.1c-0.6,1-1.6,2.6-1.6,4s-1.4,2.9-1.3,3.6c0.2,0.7,2,2.4,3.1,4.3c1.1,1.8,2.5,4.6,2.5,9.2
	s-1.5,10.8-1.7,11.7c-0.2,0.8-0.6,1.5,0.7,2.7s3.3,3.3,4,8.3c0.8,4.9,1.3,7.5,1.6,7.8c0.3,0.2,0.2,0.7,0.2,1.6s0.8,6.2,1.4,7.2
	c0.6,1,0.5-5.7,0.4-7.6s0.1-11.1,0.4-12.4c0.3-1.3,0.7-2.8-0.5-4.5s-3.2-4.6-1.7-9.4c1.5-4.8,3.9-4.8,3.2-6.7
	c-0.8-1.9-2.1-3.3-3.1-4.3c-1-1.1-0.2-3.7-0.3-4.8c-0.1-2-1.7-2.3-1.8-4.6c-0.2-2.3-0.3-4.1,1.3-6.3c1.7-2.3-0.6-2.2-1.3-3.6
	c-0.8-1.4-1.2-3.3-0.5-6.3c0.3-1.5,0.2-1.9-0.3-2.1c-0.4-0.2-2.2-0.5-2.2-0.5l-2.6,5.2c0.4,1,0.6,2.5,0.6,3.5L169.1,180.1z"/>
<path class="st1" d="M145,78.6c-2.1,2.7-5.3,9.7-6.8,14s-4.9,14.7-2.5,21.5s7.2,2.5,8.3-0.1s2.8-7,3.3-8.2s0.8-1.8,1.7,0.9
	c0.9,2.8,2.3,9.3,2.3,9.9s-0.9,2.3-1.9,4.8c-1,2.6-1.6,4.4-0.6,6c1,1.6,4.9,8.3,6.2,11.3c0.8,1.8,1.4,2.1,3.4,1.6s6.8-2.2,8.3-2.8
	c1.4-0.7,0.7-1.8,0.3-3.3c-0.6-2.2-3.2-14.2-3.2-15.8c0-1.6,0.4-3.7-1.7-1.3c-0.8,0.8-1.8,0-1.5-1.2c0.2-1.2,2.8-17.4,2.9-19.4
	c-1.4-3.1-5.6-12.8-6.8-14.6c-1.2-1.8-1.6-1.8-3.3-0.9c-1.8,0.9-5.7,2.3-7.1-1c-0.2-0.6-0.7-1.9,0.3-2.1l-0.8-0.3
	C145.8,77.7,145.2,78.2,145,78.6"/>
<path class="st1" d="M166.8,138.6c-1.6,0.9-6.8,3.2-9,3.5s-1.7,0.9-1.3,2.6c0.4,1.7,1.7,6.7,2.3,8.4c0.7,1.8,1.6,1.7,3.3,1.7
	c2.7-0.1,7.2-1.3,10.4-4.3c-0.9-1.1-2.5-6.3-3-8.5C169.2,139.6,169.2,137.2,166.8,138.6"/>
<path class="st1" d="M119,90.4c-0.2,0.3-0.7,1.3-2.1,1.3c-1.3,0-2.4-0.4-3.3,0.8c-0.8,1.2-5.4,6.8-6.4,10.2c1,2.1,2.3,5.8,3.3,8.5
	c3.3-2.8,13.6-12.9,15.6-14.8c0.8-0.8,0.8-1.4-0.2-2.2c-1.1-0.8-5.1-3.3-5.8-3.7C119.5,90.1,119.2,90.1,119,90.4"/>
<path class="st1" d="M92.8,105.1c-0.6,2.6-1.9,7.1-4,10.6c0.8,1.3,1.5,2.5,2.5,2.9c2.3-1.7,6.8-5.8,8-7.3c1.3-1.5,2.8-3.8,2.8-4.3
	s-0.6-0.7-1.3-0.5c-0.8,0.2-3.8-1.1-6.8-1.7C93.1,104.8,92.8,104.8,92.8,105.1"/>
<path class="st1" d="M90.9,102.6c-0.9-0.2-4.1-3.6-5.2-5.4s-1.3-1.7-1.7-0.3c-0.4,1.3-2,4.3-3.1,5.7c-1.1,1.4-3.9,5.1-4.7,5.9
	s0,1.2,0.7,1.8c0.7,0.7,4.1,4.8,4.8,5.8c0.8,0.9,1.6,2.6,3.6,0.8s4.4-5.2,5.5-8.6s1.2-5.2,2.1-5v-0.7l-0.2-0.4l-0.5-0.4
	c0.1,0.3,0.1,0.5-0.1,0.9C92,102.8,91.3,102.7,90.9,102.6"/>
<path class="st1" d="M142,25.8c-2.2,2.7-6.8,5-14.3,6.9c-7.6,1.9-14.9,7.3-17.9,9.8c-3.1,2.6-10.9,9-14.6,10.5
	c-1,0.4-3.1,1.8-0.4,2.2c2,0.3,3.4-0.9,7.8-4.1c4.3-3.2,7.7-5.5,11-8.7c3.1-3,8.7-5.8,14.7-7.5c6-1.7,13.9-4.3,16.2-6.8
	c1.1-1.2,1.2-1.8,0.2-2.8C143.5,24.5,142.9,24.8,142,25.8"/>
<path class="st1" d="M103.7,52.1c-0.7,0.4-0.9,0.8-1.7,3.2c-0.8,2.4-0.7,3.8,0,4.4c0.5,0.4,1.1,0.5,1.5,0.5c0.3,0,0.5,0.1,0.5-0.6
	c0-0.7-0.1-3.7,2.2-5.1c0.4-0.2-0.1-2-1.5-1.8C104,52.7,104.5,51.6,103.7,52.1"/>
<path class="st1" d="M77.9,61.6c1.2,0,1.9,0,1.8,1.3s-0.7,3.2-0.8,4.4c-0.1,1.3-0.1,1.8,0.7,1.8c0.8,0-1.1,0.8-2.1,0.9
	c-1,0.2-2.5,0.7-3.3-3.5c-0.2-1.3-0.2-3.4-0.3-3.9C75,62.1,76.5,61.6,77.9,61.6"/>
<path class="st1" d="M100.1,65.2c0.3,1.7,0.8,1.7,0.4,1.9c-0.3,0.2-0.7-0.6-2-0.4c-1.3,0.2-11.8,1.8-12.6,1.9
	c-2.3,0.2-2.5-0.1-0.3-0.6s10.1-1.9,12.5-2.4"/>
<path class="st1" d="M87.4,192.8c1.1,0.7,3.7,1.4,8.1-0.4c4.4-1.8,9.3-0.6,10.1,2.6c0.8,3.2,0.8,7.3-0.6,9c-1.2,1.5-2.3,1.3-3.6,0.9
	c-2.4-0.8-8-3.3-9.6-4.1s-4.3-1.6-6.2-1.6c-0.8-1.6-0.7-4.3-0.2-5.3s0.5-2,0.9-1.8C86.8,192.4,87.4,192.8,87.4,192.8"/>
<path class="st1" d="M104.9,207.5c1.1,0,3,0.5,3.7,2.4c0.5,1.6,3.8,2,5.2,1.9c1.4-0.1,1.2,0.7,1.1,1.5s-0.3,3.3-0.3,4.3
	s0.2,4.5,0.4,5.2c0.2,0.7-0.4,1-1.2,1.3c-0.8,0.3-3.5,1.2-5.3-0.1c-0.9-0.7-2-1.6-0.9-1.7c1.1-0.1-1.3-9.5-2-11.2
	C104.9,209.6,103,207.5,104.9,207.5"/>
<path class="st1" d="M76.2,187.9c0.4,0.1,0.7,0.6,1,1.2c0.3,0.6,0.4,1.1-0.1,1.7c-0.9,1-2,5.6-1.8,8.8c-0.6-0.2-1.8-0.4-2.5-0.2
	c-0.2-1.8-0.1-7.6,0.8-9.4C74.4,188,75.2,187.5,76.2,187.9"/>
<path class="st1" d="M76.4,238.8c2.1,2.3,6,5.9,8.9,7.2s4.8,1.7,7.4,1.4c2.1-0.2,1.7,0.7,0,0.9s-5.5,0.2-8-1.1s-6.5-3.8-9-7.4
	C75.1,238.9,75.7,238,76.4,238.8"/>
<path class="st1" d="M119.9,232.9c-1.7,0.8-4.8,2.3-7.8,3.1c0.3,1.5,0.4,2.2,0.4,2.6c1.8,0,5.4-1.3,8.3-3.1c0.7-0.4,0.9-0.9,0.7-1.5
	C121.1,233.4,120.8,232.5,119.9,232.9"/>
<path class="st1" d="M100.1,226.1c-0.4-0.4,2-0.9,2.5-0.9c0.6,0.4,1.6,1.3,2,1.7c0.3,0.2,0.1,0.4-0.1,0.6c-0.3,0.2-1.7,0.5-2.4,0.6
	C101.3,227.4,100.3,226.3,100.1,226.1"/>
<path class="st1" d="M104.5,191.4c-0.7-0.5-0.6-0.8-0.2-1.3c0.3-0.5,0.7-0.8,1-1s0.8-0.2,1.4,0.6s3.8,6.1,4.4,7.5s1.5,0.5,1.2-0.3
	s-1-2.3-1.3-2.7c0.9-2.8,1.8-7.2,1.8-10s-0.7-5.7-1.2-6.7c2.3,0.1,7.2,0,9.1-0.6s0.3-0.8-0.4-0.7c-0.8,0.1-6.1,0.1-10.1-0.4
	c-6.8-0.8-13.6-4.7-15.7-7.3c-0.3-0.4-2.3-0.2-0.7,1.1s5.9,5.3,12.2,6.4c1.4,0.2,3.7,0.7,4,5.8c0.3,5.2-0.2,8.5-0.2,9
	s-0.3,0.7-0.8,0.1c-0.4-0.6-1.8-2.5-2.6-2.9c-0.8-0.4-1.3-0.3-1.9,0.2c-0.7,0.5-1.7,1.5-2.1,2"/>
<path class="st1" d="M91.1,207.7c-0.6,0-4.4,0.3-5.2,0c-0.8-0.3-1.3-1.2-0.8-1.6c0.7-0.5,2,0.1,3.3,0.1s2.7-0.3,3-0.1
	s0.8,0.1,0.8,1.7"/>
<path class="st1" d="M82,230.6c-1.1-0.7-2.3-3.8-2.6-9.9c-0.1-2.1,0.8-5.6,1.4-7.3c0.7-1.7-0.4-1-0.7-0.4c-0.2,0.6-1.1,2.9-1.3,4.7
	c-0.2,1.8-0.7,4.3,0,8.1s1,4.9,1.2,5.6"/>
<path class="st7" d="M116.2,25.7c0.2-0.4,0.3-0.9,0.5-1.2c-0.6,0.3-1.2,0.6-1.7,0.9C115.2,25.9,115.7,26.7,116.2,25.7"/>
<path class="st8" d="M116.2,25.7c0.2-0.4,0.3-0.9,0.5-1.2c-0.6,0.3-1.2,0.6-1.7,0.9C115.2,25.9,115.7,26.7,116.2,25.7z"/>
<path class="st7" d="M131.2,26.5c-0.2-0.9-1,0.5-2.1,1.8c-1,1.3-2.5,0.5-2.7-0.1s-0.5-1.3-1.4-2.5s0.9-2.9,1.6-3.1
	c0.8-0.2,1.7-0.4,2-0.6c0.2-0.2-0.2-1.4-0.4-2.4c-3,0.9-6.7,2.4-9.9,4c1,0.4,0.7,2.3,0.6,2.6c-0.1,0.3-0.5,2,0.3,1s1-1.4,1.8-1.6
	c0.8-0.3,1.7-0.2,1.7,1s-0.5,1.1-0.7,1.8c-0.2,0.8,0,0.7,0.4,0.9c0.4,0.2,0.6,0.7,0.3,1.5c-0.3,0.8-1.5,0.9-2.7,0.8
	c-1.1-0.1-1.2,0-0.9,0.4c0.3,0.3,0.7,1,0.9,1.7c2.7-1.3,6-2.4,11.1-3.5C131.4,29,131.4,27.2,131.2,26.5"/>
<path class="st8" d="M131.2,26.5c-0.2-0.9-1,0.5-2.1,1.8c-1,1.3-2.5,0.5-2.7-0.1s-0.5-1.3-1.4-2.5s0.9-2.9,1.6-3.1
	c0.8-0.2,1.7-0.4,2-0.6c0.2-0.2-0.2-1.4-0.4-2.4c-3,0.9-6.7,2.4-9.9,4c1,0.4,0.7,2.3,0.6,2.6c-0.1,0.3-0.5,2,0.3,1s1-1.4,1.8-1.6
	c0.8-0.3,1.7-0.2,1.7,1s-0.5,1.1-0.7,1.8c-0.2,0.8,0,0.7,0.4,0.9c0.4,0.2,0.6,0.7,0.3,1.5c-0.3,0.8-1.5,0.9-2.7,0.8
	c-1.1-0.1-1.2,0-0.9,0.4c0.3,0.3,0.7,1,0.9,1.7c2.7-1.3,6-2.4,11.1-3.5C131.4,29,131.4,27.2,131.2,26.5z"/>
<path class="st7" d="M104.9,43c-0.4-0.8-0.9-0.9-1.1-0.3c-0.2,0.6-0.6,2.5-1.9,3.1c-0.4,0.2-0.7,0.3-1,0.3c0.4,0.5,0.9,0.9,1.5,1.3
	c1-1.1,2-2.1,2.9-3C105.2,44,105.1,43.5,104.9,43"/>
<path class="st8" d="M104.9,43c-0.4-0.8-0.9-0.9-1.1-0.3c-0.2,0.6-0.6,2.5-1.9,3.1c-0.4,0.2-0.7,0.3-1,0.3c0.4,0.5,0.9,0.9,1.5,1.3
	c1-1.1,2-2.1,2.9-3C105.2,44,105.1,43.5,104.9,43z"/>
<path class="st7" d="M117.3,33c-0.5-0.2-0.8,0.5-1.1,1c-0.3,0.5-0.9,1.3-2,1.2c-1.1-0.1-1.3-0.5-1.6-1.4c-0.3-0.9-1-1.2-1.8-1.2
	s-1.3-1-0.5-2s1.7-0.5,2.3-0.5c0.7,0,1-0.7,0.5-1.1c-0.4-0.3-1.2-1.2-1.3-1.8c-2.4,1.6-5.8,4-8.8,6.7c0.5,0,1.2,0.2,1.5,0.4
	c0.4,0.2,1,0.7,1,1.4c-0.1,0.8,0.2,0.9,0.6,0.4c0.5-0.5-0.1-2,1.5-2.6c1.5-0.6,1.8,0.6,1.7,1.4c-0.1,0.8,0,1.5,0.8,1.9
	c0.8,0.3,1.7,1.6,0,2.4c-1.8,0.8-2.7,0.9-3.4,1.1c-0.7,0.2-0.5,0.9,0,1.4c0.4,0.3,0.6,0.6,0.8,0.8c2.2-2,4.3-3.7,6.6-5.3
	c1.3-0.9,2.5-1.6,3.7-2.4C117.9,34,118,33.3,117.3,33"/>
<path class="st8" d="M117.3,33c-0.5-0.2-0.8,0.5-1.1,1c-0.3,0.5-0.9,1.3-2,1.2c-1.1-0.1-1.3-0.5-1.6-1.4c-0.3-0.9-1-1.2-1.8-1.2
	s-1.3-1-0.5-2s1.7-0.5,2.3-0.5c0.7,0,1-0.7,0.5-1.1c-0.4-0.3-1.2-1.2-1.3-1.8c-2.4,1.6-5.8,4-8.8,6.7c0.5,0,1.2,0.2,1.5,0.4
	c0.4,0.2,1,0.7,1,1.4c-0.1,0.8,0.2,0.9,0.6,0.4c0.5-0.5-0.1-2,1.5-2.6c1.5-0.6,1.8,0.6,1.7,1.4c-0.1,0.8,0,1.5,0.8,1.9
	c0.8,0.3,1.7,1.6,0,2.4c-1.8,0.8-2.7,0.9-3.4,1.1c-0.7,0.2-0.5,0.9,0,1.4c0.4,0.3,0.6,0.6,0.8,0.8c2.2-2,4.3-3.7,6.6-5.3
	c1.3-0.9,2.5-1.6,3.7-2.4C117.9,34,118,33.3,117.3,33z"/>
<path class="st7" d="M101,40.8c0-0.8-0.6-1.1-1-1.3c-0.3-0.1-0.9-0.7-1.1-1.2c-0.4,0.6-0.8,1.1-1.1,1.7c0.2,0.6,0.4,1.1,0.5,1.6
	C99.3,41.6,100.9,41.5,101,40.8"/>
<path class="st8" d="M101,40.8c0-0.8-0.6-1.1-1-1.3c-0.3-0.1-0.9-0.7-1.1-1.2c-0.4,0.6-0.8,1.1-1.1,1.7c0.2,0.6,0.4,1.1,0.5,1.6
	C99.3,41.6,100.9,41.5,101,40.8z"/>
<path class="st7" d="M136.2,79.7c-2.7-0.2-6,0.4-9.1,1.6c0.5,0.3,1.1,1.1,2.2,0.7c1.6-0.5,2.1,1.1,1.4,1.6c-0.8,0.5-1,1.6,0.4,0.8
	c1.4-0.9,2.7,0.4,2.1,1.3c-0.6,0.9-1.3,0.2-1.2,1.5c0.2,1.3-0.1,2.5-1.3,2.7s-1.4-1.5-2-1.4c-0.5,0.1,0.1,3.1-0.1,3.1
	c-0.8,0.1-1.6,0.8-2,1.3c0,0,0.1,0,0.1,0.1c4.6,3.3,5.8,1.5,6.4-0.1c0.7-1.6,2.1-6.3,2.6-8.8C136.1,82.6,136.4,81.1,136.2,79.7"/>
<path class="st8" d="M136.2,79.7c-2.7-0.2-6,0.4-9.1,1.6c0.5,0.3,1.1,1.1,2.2,0.7c1.6-0.5,2.1,1.1,1.4,1.6c-0.8,0.5-1,1.6,0.4,0.8
	c1.4-0.9,2.7,0.4,2.1,1.3c-0.6,0.9-1.3,0.2-1.2,1.5c0.2,1.3-0.1,2.5-1.3,2.7s-1.4-1.5-2-1.4c-0.5,0.1,0.1,3.1-0.1,3.1
	c-0.8,0.1-1.6,0.8-2,1.3c0,0,0.1,0,0.1,0.1c4.6,3.3,5.8,1.5,6.4-0.1c0.7-1.6,2.1-6.3,2.6-8.8C136.1,82.6,136.4,81.1,136.2,79.7z"/>
<path class="st7" d="M126.3,88.8c0.2-0.6-0.4-1.2-1.1-0.7s-1.8,1.1-2.5-0.1s0.8-1.3,0.9-1.9s-0.5-0.7-0.2-1.6c0.3-1,1.3-0.7,2.1-0.2
	c0.9,0.6,0.6-0.8,0.5-1.3c-0.1-0.4-0.2-0.8-0.1-1.1c-0.9,0.4-1.8,0.9-2.6,1.4c-4.3,2.6-4.4,4.8-3.4,5.7c0.9,0.7,2.7,1.1,5.9,3.1
	C125.7,91,126.1,89.3,126.3,88.8"/>
<path class="st8" d="M126.3,88.8c0.2-0.6-0.4-1.2-1.1-0.7s-1.8,1.1-2.5-0.1s0.8-1.3,0.9-1.9s-0.5-0.7-0.2-1.6c0.3-1,1.3-0.7,2.1-0.2
	c0.9,0.6,0.6-0.8,0.5-1.3c-0.1-0.4-0.2-0.8-0.1-1.1c-0.9,0.4-1.8,0.9-2.6,1.4c-4.3,2.6-4.4,4.8-3.4,5.7c0.9,0.7,2.7,1.1,5.9,3.1
	C125.7,91,126.1,89.3,126.3,88.8z"/>
<path class="st7" d="M112.6,86.3c-1.8-0.9-3.5-2.8-4.7-5.1c0,0,0.1-0.3-0.4-0.3s-2.3-0.2-5.4-1.3c-3.1-1.1-3.5-0.4-3.9,0.9
	s-0.8,3.8-0.8,7.8c-0.1,4,1.7,6.5,2.8,6.1c0.5-0.2,1.9-0.9,3.4-1.6c0-0.8,0.1-2.2,0.2-2.8c0.1-1-0.9-0.6-1.3-0.1s-1.2,1.3-2,1.2
	s-1.3-1.5-1.1-2.7c0.1-1.3-1.3-1.8-0.4-3.4c0.9-1.7,1.7,0.4,2.5,0.2c0.8-0.2,0.4-0.6,0-1.9s1.2-1.7,2.2-0.8c0.6,0.6,0.9-0.7,1.8-0.5
	s1.5,0.8,0.9,1.7c-0.4,0.7-0.7,2.4,0.1,1.5c0.8-0.9,1.6-1.4,2.3-0.8c0.8,0.6,0.2,1.8,0,2.4s1.3,1.4,0.2,2.1
	c-1.1,0.8-2.3-0.5-2.9-0.4c-0.6,0.2-0.8,0.9,0.1,1.5c0.5,0.4,1.1,0.7,1.5,0.8c1.7-0.6,3.8-1.7,4.4-2.1l1.1,0.1
	C113.2,87.5,113.1,86.6,112.6,86.3"/>
<path class="st8" d="M112.6,86.3c-1.8-0.9-3.5-2.8-4.7-5.1c0,0,0.1-0.3-0.4-0.3s-2.3-0.2-5.4-1.3c-3.1-1.1-3.5-0.4-3.9,0.9
	s-0.8,3.8-0.8,7.8c-0.1,4,1.7,6.5,2.8,6.1c0.5-0.2,1.9-0.9,3.4-1.6c0-0.8,0.1-2.2,0.2-2.8c0.1-1-0.9-0.6-1.3-0.1s-1.2,1.3-2,1.2
	s-1.3-1.5-1.1-2.7c0.1-1.3-1.3-1.8-0.4-3.4c0.9-1.7,1.7,0.4,2.5,0.2c0.8-0.2,0.4-0.6,0-1.9s1.2-1.7,2.2-0.8c0.6,0.6,0.9-0.7,1.8-0.5
	s1.5,0.8,0.9,1.7c-0.4,0.7-0.7,2.4,0.1,1.5c0.8-0.9,1.6-1.4,2.3-0.8c0.8,0.6,0.2,1.8,0,2.4s1.3,1.4,0.2,2.1
	c-1.1,0.8-2.3-0.5-2.9-0.4c-0.6,0.2-0.8,0.9,0.1,1.5c0.5,0.4,1.1,0.7,1.5,0.8c1.7-0.6,3.8-1.7,4.4-2.1l1.1,0.1
	C113.2,87.5,113.1,86.6,112.6,86.3z"/>
<path class="st7" d="M106.4,104.7c-0.7-1.5-0.9-0.3-2.8,2.6c-0.9,1.5-3.3,4.2-6.3,7.3c2.1,0.4,6.5,1.5,3.8,3.7
	c-2.8,2.3-1.6,2.2-0.3,2c1.3-0.2,3.3,0.6,1.8,3.4c-1.6,2.8-2.7,4.8-4.2,5.8c-1.5,0.9-3.7,0.8-4.2-1.3c-0.5-2.2-1.9,0-2,1.4
	c-0.1,1.4-0.2,3.8-0.1,4.7l-3.2-0.2c-0.1-1.3-0.1-4,0.2-5.3c0.3-1.3,0.2-2.8-1.8-2.2c-1.3,0.4-2.1,0.1-2.6-0.2
	c-3.7,3.3-5.6,5.6-6.9,7.6c1,0.8,2.5,1.5,4.1,0.8c1.8-0.8,4.8,0.2,3,3s-1.8,4.3,0.1,2.5c1.8-1.8,4.8-4.8,5.7-1.6
	c0.6,2.1-1.3,2.8-1.3,4.4c0.1,1.7,1.8,3.3-0.6,5.3c-2.3,2-3.3-1.4-4.9-0.9c-1,0.3-1.2,1.2-1.1,2c2.1,2.9,5.1,7.1,6.2,8.9
	c1.7,2.8,1.7,6.1,2.3,5.6c0.7-0.5,2.2-2,2.8-2.4c0.5-0.4,1-0.9,0.8-1.8c-0.3-0.9-1.2-5.8-0.9-9.3c0.3-3.9,2.2-8.2,3.5-10.7
	c1.3-2.4,5.2-9.9,6.1-11.9c0.9-2,2.6-4.3,3-6.2c0.4-1.8,2-6.1,2.7-8.1C109.3,112,108.2,108.6,106.4,104.7"/>
<path class="st8" d="M106.4,104.7c-0.7-1.5-0.9-0.3-2.8,2.6c-0.9,1.5-3.3,4.2-6.3,7.3c2.1,0.4,6.5,1.5,3.8,3.7
	c-2.8,2.3-1.6,2.2-0.3,2c1.3-0.2,3.3,0.6,1.8,3.4c-1.6,2.8-2.7,4.8-4.2,5.8c-1.5,0.9-3.7,0.8-4.2-1.3c-0.5-2.2-1.9,0-2,1.4
	c-0.1,1.4-0.2,3.8-0.1,4.7l-3.2-0.2c-0.1-1.3-0.1-4,0.2-5.3c0.3-1.3,0.2-2.8-1.8-2.2c-1.3,0.4-2.1,0.1-2.6-0.2
	c-3.7,3.3-5.6,5.6-6.9,7.6c1,0.8,2.5,1.5,4.1,0.8c1.8-0.8,4.8,0.2,3,3s-1.8,4.3,0.1,2.5c1.8-1.8,4.8-4.8,5.7-1.6
	c0.6,2.1-1.3,2.8-1.3,4.4c0.1,1.7,1.8,3.3-0.6,5.3c-2.3,2-3.3-1.4-4.9-0.9c-1,0.3-1.2,1.2-1.1,2c2.1,2.9,5.1,7.1,6.2,8.9
	c1.7,2.8,1.7,6.1,2.3,5.6c0.7-0.5,2.2-2,2.8-2.4c0.5-0.4,1-0.9,0.8-1.8c-0.3-0.9-1.2-5.8-0.9-9.3c0.3-3.9,2.2-8.2,3.5-10.7
	c1.3-2.4,5.2-9.9,6.1-11.9c0.9-2,2.6-4.3,3-6.2c0.4-1.8,2-6.1,2.7-8.1C109.3,112,108.2,108.6,106.4,104.7z"/>
<path class="st7" d="M142.8,141.7c-2.2-3.6-2.6-5-2.9-8.7c-0.2-2.3,0-5.3,0.3-8.2c-0.6-0.1-1.5,0.1-1.6,1c-0.1,1.6-0.8,3.8-1.3,5
	s-2.2,1.1-3.2,1.2s-1-0.6-0.3-2.1s0.9-2.2,0.8-3.5c-0.2-1.3-0.8-0.2-1.4,1c-0.6,1.2-2.3,3.5-4.2,3.3c-1.9-0.2-1.4-3.2-1.3-4.2
	c0.2-1-0.4-1.2-1.2-1.3c-0.8-0.2-2.3-0.5-1.4-2.9c0.8-2.4,1.8-2.2,2.9-1.8c1.2,0.4,1.3-0.3,0.3-0.8c-1.1-0.4-2.3-1.3-2.2-2.5
	c0.2-3.1,2.2-2.8,3.7-2.5c1.3,0.3,3-0.5,4.1-1.7c0-0.1,0-0.2-0.1-0.2c-2.2-8.5,2-18.9,3.2-21.9c1.2-2.9,5.7-11.1,7.2-13.6
	c-0.8-0.4-3-1.5-4.3-2.2c-1.2-0.6-1.9-0.9-2.2-0.5c-0.3,0.5-0.8,0.7-1.3,1.5c-1.2,1.7-0.2,1.4,0.2,1.4c0.3,0,1.7,1.8,2,2.3
	c0.3,0.4,0,0.8-0.6,2.1c-0.8,1.7-1.3,5.8-1.9,8.2c-2,7.3-5.2,6.6-6.6,5.7c-1.4-0.9-1.8,0.5-3.3,2.5c-0.3,0.5-1.2,1.4-2.3,2.5
	c1.4,0.6,3.2,2.4,1,4.1c-2.6,2-3.1,3.1-1.8,2.8c1.2-0.2,2.5-2.2,3.9-0.8c1.4,1.3-0.5,2.8-1.3,3.3c-0.8,0.4-2.3,1.2-1.8,2.8
	c0.4,1.6,0.7,3.8-1.4,4.3s-2.9-0.4-3.5-1.5s-1.2-0.3-1.4,1c-0.3,1.3-0.4,2.3-0.4,2.8s-1.5-0.2-2.2-0.9s-1.5,1.2-2.3,0.2
	c-0.8-0.9,0.9-3.8,1.5-4.8c0.6-0.9,0.3-2.3-3-0.7c-1.1,1.8-1.9,4.4-3.3,8.5c-1.8,5.6-6,13.2-7.7,16c-4.5,7.2-5.3,14.1-4.6,18.3
	c0.7,4.2,1.3,3.9,2.2,3.9s3.2,2.8,4.7,4.6s2.1,1,2.8,0.4c2.4-1.9,7.3-5,14.1-8.3c2.9-1.4,6.8-2.9,10.6-4.1c0.1-1.6,0.4-3.5,0.6-4.2
	c0.2-0.8-0.7-1.1-1.5,0c-0.8,1.1-3.1,3.8-4.6,3.1s-2.8-2.3-1.9-3.8c0.8-1.4-0.3-1.8-0.9-2.6s-0.6-3.7,1.3-3.9
	c1.8-0.2,2.4,1.3,3.7,1.8c1.3,0.4,2.3,0.3,0.7-1.4c-1.6-1.8-3.5-1.1-2.5-3.5s2.4-2.3,4.1-1.8c1.7,0.5,2.5-0.4,3.6-1.2
	c1.1-0.7,3.3-1.8,4.8,0s-1.1,3.3-1.7,3.9c-1.1,1.1-1.3,3.3-0.1,2c1.3-1.3,3.4-5.8,4.8-2c0.8,2.2-0.8,3-0.5,4.3
	c0.2,1.3,2.5,3.2,0.7,4.8c-1.8,1.7-4.4,0.2-5.5-0.8s-2.3-1.5-1.8,0.3c0.4,1.3,0.6,2.8,0.6,3.6c3.6-1,6.8-1.6,8.4-1.5
	c2.4,0.2,4.2,0.9,4.1-1.3C146.2,146.8,145,145.3,142.8,141.7 M113.2,156.7c-2,0.6-2.3-0.3-3.7-0.8s-1.4,0.7-0.5,2.1
	c0.9,1.4,1.9,2.8,0.8,2.8s-1.9,0.2-2.1,1s-1.9-0.2-2.3-1.9c-0.4-1.8-0.8-5.1-1.8-3.4c-0.9,1.7-1.8,4.4-4.1,3.2
	c-2.3-1.3-0.8-2.9-1.9-4.1c-1.2-1.2-2.3-2.7-1.1-4.8c1.2-2.1,2.2-0.3,3.3-0.3c1.1,0,1.3-1,0.2-1.8c-1-0.8-2.3-4.3,2.3-4.1
	c1.8,0.1,3.7-0.5,5.2-1.6s5.4-0.5,3.8,2.3s-1.1,3.3-0.2,2.3s2.1-2.8,3.8-2.3c1.8,0.5,1,1.8-0.1,3.3s-0.4,2.5,0.4,3.1
	C116.3,152.1,117.8,155.3,113.2,156.7 M121.7,137c-1.5,0.1-3.3-0.3-3.3-0.3c-0.2,1.6-1.7,3.9-3.3,6.2c-0.2,0.2-1.1,0.2-1.5-0.1
	s-1.6-0.9-0.7-1.9s2.4-3.1,2.2-4c-0.2-0.9-0.9-1.8-1.9-0.5s-2.6,3.8-4.3,3.9c-1.8,0.1-3.5-1.5-2.7-3.1s1.1-2.4-0.1-3.8
	s-0.7-3.2,1.8-4.3c0.8-0.3,2.1,0,3,0.8s1.4,0,0.2-0.8c-1.3-0.8-2.3-1.7-2.4-3.3c-0.2-1.6,0.8-3.3,3-2.3c2.2,0.9,3.5,0.2,4.4-0.6
	c0.9-0.8,4.8-1.7,4.3,1.8c-0.4,2.5-1.6,2.6-1.9,3.9s0.7,0.5,1.3-0.5s1.9-5.1,4.7-2c0.7,0.8,0.4,2-0.4,3.4c-0.8,1.4-0.2,2.3,0.3,3
	C124.7,133,125.9,136.7,121.7,137"/>
<path class="st8" d="M121.7,137c-1.5,0.1-3.3-0.3-3.3-0.3c-0.2,1.6-1.7,3.9-3.3,6.2c-0.2,0.2-1.1,0.2-1.5-0.1s-1.6-0.9-0.7-1.9
	s2.4-3.1,2.2-4c-0.2-0.9-0.9-1.8-1.9-0.5s-2.6,3.8-4.3,3.9c-1.8,0.1-3.5-1.5-2.7-3.1s1.1-2.4-0.1-3.8s-0.7-3.2,1.8-4.3
	c0.8-0.3,2.1,0,3,0.8s1.4,0,0.2-0.8c-1.3-0.8-2.3-1.7-2.4-3.3c-0.2-1.6,0.8-3.3,3-2.3c2.2,0.9,3.5,0.2,4.4-0.6
	c0.9-0.8,4.8-1.7,4.3,1.8c-0.4,2.5-1.6,2.6-1.9,3.9s0.7,0.5,1.3-0.5s1.9-5.1,4.7-2c0.7,0.8,0.4,2-0.4,3.4c-0.8,1.4-0.2,2.3,0.3,3
	C124.7,133,125.9,136.7,121.7,137z"/>
<path class="st8" d="M113.2,156.7c-2,0.6-2.3-0.3-3.7-0.8s-1.4,0.7-0.5,2.1c0.9,1.4,1.9,2.8,0.8,2.8s-1.9,0.2-2.1,1
	s-1.9-0.2-2.3-1.9c-0.4-1.8-0.8-5.1-1.8-3.4c-0.9,1.7-1.8,4.4-4.1,3.2c-2.3-1.3-0.8-2.9-1.9-4.1c-1.2-1.2-2.3-2.7-1.1-4.8
	c1.2-2.1,2.2-0.3,3.3-0.3c1.1,0,1.3-1,0.2-1.8c-1-0.8-2.3-4.3,2.3-4.1c1.8,0.1,3.7-0.5,5.2-1.6s5.4-0.5,3.8,2.3s-1.1,3.3-0.2,2.3
	s2.1-2.8,3.8-2.3c1.8,0.5,1,1.8-0.1,3.3s-0.4,2.5,0.4,3.1C116.3,152.1,117.8,155.3,113.2,156.7z"/>
<path class="st8" d="M142.8,141.7c-2.2-3.6-2.6-5-2.9-8.7c-0.2-2.3,0-5.3,0.3-8.2c-0.6-0.1-1.5,0.1-1.6,1c-0.1,1.6-0.8,3.8-1.3,5
	s-2.2,1.1-3.2,1.2s-1-0.6-0.3-2.1s0.9-2.2,0.8-3.5c-0.2-1.3-0.8-0.2-1.4,1c-0.6,1.2-2.3,3.5-4.2,3.3c-1.9-0.2-1.4-3.2-1.3-4.2
	c0.2-1-0.4-1.2-1.2-1.3c-0.8-0.2-2.3-0.5-1.4-2.9c0.8-2.4,1.8-2.2,2.9-1.8c1.2,0.4,1.3-0.3,0.3-0.8c-1.1-0.4-2.3-1.3-2.2-2.5
	c0.2-3.1,2.2-2.8,3.7-2.5c1.3,0.3,3-0.5,4.1-1.7c0-0.1,0-0.2-0.1-0.2c-2.2-8.5,2-18.9,3.2-21.9c1.2-2.9,5.7-11.1,7.2-13.6
	c-0.8-0.4-3-1.5-4.3-2.2c-1.2-0.6-1.9-0.9-2.2-0.5c-0.3,0.5-0.8,0.7-1.3,1.5c-1.2,1.7-0.2,1.4,0.2,1.4c0.3,0,1.7,1.8,2,2.3
	c0.3,0.4,0,0.8-0.6,2.1c-0.8,1.7-1.3,5.8-1.9,8.2c-2,7.3-5.2,6.6-6.6,5.7c-1.4-0.9-1.8,0.5-3.3,2.5c-0.3,0.5-1.2,1.4-2.3,2.5
	c1.4,0.6,3.2,2.4,1,4.1c-2.6,2-3.1,3.1-1.8,2.8c1.2-0.2,2.5-2.2,3.9-0.8c1.4,1.3-0.5,2.8-1.3,3.3c-0.8,0.4-2.3,1.2-1.8,2.8
	c0.4,1.6,0.7,3.8-1.4,4.3s-2.9-0.4-3.5-1.5s-1.2-0.3-1.4,1c-0.3,1.3-0.4,2.3-0.4,2.8s-1.5-0.2-2.2-0.9s-1.5,1.2-2.3,0.2
	c-0.8-0.9,0.9-3.8,1.5-4.8c0.6-0.9,0.3-2.3-3-0.7c-1.1,1.8-1.9,4.4-3.3,8.5c-1.8,5.6-6,13.2-7.7,16c-4.5,7.2-5.3,14.1-4.6,18.3
	c0.7,4.2,1.3,3.9,2.2,3.9s3.2,2.8,4.7,4.6s2.1,1,2.8,0.4c2.4-1.9,7.3-5,14.1-8.3c2.9-1.4,6.8-2.9,10.6-4.1c0.1-1.6,0.4-3.5,0.6-4.2
	c0.2-0.8-0.7-1.1-1.5,0c-0.8,1.1-3.1,3.8-4.6,3.1s-2.8-2.3-1.9-3.8c0.8-1.4-0.3-1.8-0.9-2.6s-0.6-3.7,1.3-3.9
	c1.8-0.2,2.4,1.3,3.7,1.8c1.3,0.4,2.3,0.3,0.7-1.4c-1.6-1.8-3.5-1.1-2.5-3.5s2.4-2.3,4.1-1.8c1.7,0.5,2.5-0.4,3.6-1.2
	c1.1-0.7,3.3-1.8,4.8,0s-1.1,3.3-1.7,3.9c-1.1,1.1-1.3,3.3-0.1,2c1.3-1.3,3.4-5.8,4.8-2c0.8,2.2-0.8,3-0.5,4.3
	c0.2,1.3,2.5,3.2,0.7,4.8c-1.8,1.7-4.4,0.2-5.5-0.8s-2.3-1.5-1.8,0.3c0.4,1.3,0.6,2.8,0.6,3.6c3.6-1,6.8-1.6,8.4-1.5
	c2.4,0.2,4.2,0.9,4.1-1.3C146.2,146.8,145,145.3,142.8,141.7z"/>
<path class="st3" d="M120.2,31.3c1.1,0.1,2.4,0,2.7-0.8c0.3-0.8,0-1.3-0.3-1.5c-0.4-0.2-0.5-0.1-0.4-0.9c0.2-0.8,0.7-0.7,0.7-1.8
	c0-1.2-0.9-1.2-1.7-1c-0.8,0.2-1.1,0.6-1.8,1.6c-0.8,1-0.4-0.7-0.3-1s0.4-2.2-0.6-2.5c-0.6,0.3-1.2,0.6-1.7,0.9
	c-0.2,0.4-0.3,0.8-0.5,1.2c-0.4,1.1-0.9,0.3-1.3-0.2l0,0c-1.1,0.6-2.1,1.2-2.8,1.7c-0.1,0.1-0.2,0.1-0.2,0.2
	c0.1,0.7,0.9,1.5,1.3,1.8c0.5,0.4,0.2,1.1-0.5,1.1s-1.5-0.5-2.3,0.5s-0.3,2,0.5,2s1.5,0.3,1.8,1.2s0.5,1.3,1.6,1.4
	c1.1,0.1,1.7-0.7,2-1.2s0.7-1.2,1.1-1c0.7,0.2,0.6,1,0.4,1.7c0.8-0.5,1.6-0.9,2.4-1.3c-0.1-0.7-0.6-1.4-0.9-1.7
	C118.9,31.4,119,31.2,120.2,31.3"/>
<path class="st12" d="M120.2,31.3c1.1,0.1,2.4,0,2.7-0.8c0.3-0.8,0-1.3-0.3-1.5c-0.4-0.2-0.5-0.1-0.4-0.9c0.2-0.8,0.7-0.7,0.7-1.8
	c0-1.2-0.9-1.2-1.7-1c-0.8,0.2-1.1,0.6-1.8,1.6c-0.8,1-0.4-0.7-0.3-1s0.4-2.2-0.6-2.5c-0.6,0.3-1.2,0.6-1.7,0.9
	c-0.2,0.4-0.3,0.8-0.5,1.2c-0.4,1.1-0.9,0.3-1.3-0.2l0,0c-1.1,0.6-2.1,1.2-2.8,1.7c-0.1,0.1-0.2,0.1-0.2,0.2
	c0.1,0.7,0.9,1.5,1.3,1.8c0.5,0.4,0.2,1.1-0.5,1.1s-1.5-0.5-2.3,0.5s-0.3,2,0.5,2s1.5,0.3,1.8,1.2s0.5,1.3,1.6,1.4
	c1.1,0.1,1.7-0.7,2-1.2s0.7-1.2,1.1-1c0.7,0.2,0.6,1,0.4,1.7c0.8-0.5,1.6-0.9,2.4-1.3c-0.1-0.7-0.6-1.4-0.9-1.7
	C118.9,31.4,119,31.2,120.2,31.3z"/>
<path class="st3" d="M129.5,19.2c-0.4,0.1-0.8,0.2-1.2,0.3c0.2,1,0.6,2.2,0.4,2.4c-0.3,0.2-1.2,0.4-2,0.6s-2.5,1.9-1.6,3.1
	s1.2,1.9,1.4,2.5c0.2,0.6,1.7,1.4,2.7,0.1s1.8-2.6,2.1-1.8c0.2,0.7,0.2,2.5,0,3.5c0.2,0,0.4-0.1,0.7-0.1
	C132.3,25.2,131.1,21.8,129.5,19.2"/>
<path class="st12" d="M129.5,19.2c-0.4,0.1-0.8,0.2-1.2,0.3c0.2,1,0.6,2.2,0.4,2.4c-0.3,0.2-1.2,0.4-2,0.6s-2.5,1.9-1.6,3.1
	s1.2,1.9,1.4,2.5c0.2,0.6,1.7,1.4,2.7,0.1s1.8-2.6,2.1-1.8c0.2,0.7,0.2,2.5,0,3.5c0.2,0,0.4-0.1,0.7-0.1
	C132.3,25.2,131.1,21.8,129.5,19.2z"/>
<path class="st3" d="M106.6,41.6c-0.6-0.5-0.8-1.2,0-1.4c0.7-0.2,1.7-0.4,3.4-1.1c1.8-0.8,0.8-2,0-2.4c-0.8-0.3-0.9-1.1-0.8-1.9
	s-0.1-2-1.7-1.4c-1.5,0.6-1,2.1-1.5,2.6s-0.7,0.3-0.6-0.4c0.1-0.8-0.6-1.3-1-1.4c-0.3-0.1-0.9-0.3-1.5-0.3c-1.6,1.4-3.1,3-4.2,4.4
	c0.2,0.5,0.8,1.1,1.1,1.2c0.4,0.1,1,0.4,1,1.3c0,0.7-1.6,0.8-2.7,0.8c0.7,2,1.5,3.4,2.5,4.5c0.2-0.1,0.5-0.2,1-0.4
	c1.3-0.5,1.7-2.5,1.9-3.1c0.2-0.6,0.8-0.5,1.1,0.3c0.3,0.5,0.4,1,0.4,1.5c0.7-0.7,1.5-1.4,2.2-2.1C107.2,42.2,106.9,41.9,106.6,41.6
	"/>
<path class="st12" d="M106.6,41.6c-0.6-0.5-0.8-1.2,0-1.4c0.7-0.2,1.7-0.4,3.4-1.1c1.8-0.8,0.8-2,0-2.4c-0.8-0.3-0.9-1.1-0.8-1.9
	s-0.1-2-1.7-1.4c-1.5,0.6-1,2.1-1.5,2.6s-0.7,0.3-0.6-0.4c0.1-0.8-0.6-1.3-1-1.4c-0.3-0.1-0.9-0.3-1.5-0.3c-1.6,1.4-3.1,3-4.2,4.4
	c0.2,0.5,0.8,1.1,1.1,1.2c0.4,0.1,1,0.4,1,1.3c0,0.7-1.6,0.8-2.7,0.8c0.7,2,1.5,3.4,2.5,4.5c0.2-0.1,0.5-0.2,1-0.4
	c1.3-0.5,1.7-2.5,1.9-3.1c0.2-0.6,0.8-0.5,1.1,0.3c0.3,0.5,0.4,1,0.4,1.5c0.7-0.7,1.5-1.4,2.2-2.1C107.2,42.2,106.9,41.9,106.6,41.6
	z"/>
<path class="st3" d="M128.7,91.5c0.2,0-0.4-3,0.1-3.1s0.8,1.6,2,1.4c1.2-0.2,1.5-1.4,1.3-2.7c-0.2-1.3,0.6-0.6,1.2-1.5
	s-0.7-2.2-2.1-1.3c-1.4,0.9-1.2-0.3-0.4-0.8s0.2-2.1-1.4-1.6c-1.1,0.4-1.7-0.3-2.3-0.7c-0.4,0.2-0.8,0.3-1.3,0.5
	c-0.1,0.3,0,0.7,0.1,1.1c0.1,0.5,0.4,1.9-0.5,1.3c-0.8-0.5-1.8-0.8-2.1,0.2c-0.3,1,0.3,1,0.2,1.6c-0.1,0.6-1.6,0.7-0.9,1.9
	c0.7,1.2,1.8,0.5,2.5,0.1c0.7-0.5,1.4,0.1,1.1,0.7c-0.2,0.5-0.6,2.1-0.6,3.2c0.3,0.2,0.7,0.5,1.1,0.7
	C127.1,92.3,127.9,91.6,128.7,91.5"/>
<path class="st12" d="M128.7,91.5c0.2,0-0.4-3,0.1-3.1s0.8,1.6,2,1.4c1.2-0.2,1.5-1.4,1.3-2.7c-0.2-1.3,0.6-0.6,1.2-1.5
	s-0.7-2.2-2.1-1.3c-1.4,0.9-1.2-0.3-0.4-0.8s0.2-2.1-1.4-1.6c-1.1,0.4-1.7-0.3-2.3-0.7c-0.4,0.2-0.8,0.3-1.3,0.5
	c-0.1,0.3,0,0.7,0.1,1.1c0.1,0.5,0.4,1.9-0.5,1.3c-0.8-0.5-1.8-0.8-2.1,0.2c-0.3,1,0.3,1,0.2,1.6c-0.1,0.6-1.6,0.7-0.9,1.9
	c0.7,1.2,1.8,0.5,2.5,0.1c0.7-0.5,1.4,0.1,1.1,0.7c-0.2,0.5-0.6,2.1-0.6,3.2c0.3,0.2,0.7,0.5,1.1,0.7
	C127.1,92.3,127.9,91.6,128.7,91.5z"/>
<path class="st3" d="M106,88.6c0.6-0.2,1.8,1.1,2.9,0.4c1.1-0.8-0.5-1.5-0.2-2.1c0.2-0.6,0.7-1.8,0-2.4c-0.8-0.6-1.5,0-2.3,0.8
	c-0.8,0.9-0.5-0.8-0.1-1.5c0.5-0.9,0-1.5-0.9-1.7s-1.2,1.1-1.8,0.5c-1-0.9-2.5-0.5-2.2,0.8c0.4,1.3,0.8,1.7,0,1.9
	c-0.8,0.2-1.5-1.9-2.5-0.2c-0.9,1.7,0.5,2.2,0.4,3.4c-0.1,1.3,0.4,2.6,1.1,2.7c0.8,0.1,1.5-0.7,2-1.2c0.4-0.5,1.4-0.9,1.3,0.1
	c-0.1,0.7-0.1,2-0.2,2.8c1.5-0.7,3.2-1.5,4.1-1.8h0.1c-0.4-0.2-1-0.4-1.6-0.8C105.2,89.5,105.4,88.8,106,88.6"/>
<path class="st12" d="M106,88.6c0.6-0.2,1.8,1.1,2.9,0.4c1.1-0.8-0.5-1.5-0.2-2.1c0.2-0.6,0.7-1.8,0-2.4c-0.8-0.6-1.5,0-2.3,0.8
	c-0.8,0.9-0.5-0.8-0.1-1.5c0.5-0.9,0-1.5-0.9-1.7s-1.2,1.1-1.8,0.5c-1-0.9-2.5-0.5-2.2,0.8c0.4,1.3,0.8,1.7,0,1.9
	c-0.8,0.2-1.5-1.9-2.5-0.2c-0.9,1.7,0.5,2.2,0.4,3.4c-0.1,1.3,0.4,2.6,1.1,2.7c0.8,0.1,1.5-0.7,2-1.2c0.4-0.5,1.4-0.9,1.3,0.1
	c-0.1,0.7-0.1,2-0.2,2.8c1.5-0.7,3.2-1.5,4.1-1.8h0.1c-0.4-0.2-1-0.4-1.6-0.8C105.2,89.5,105.4,88.8,106,88.6z"/>
<path class="st3" d="M87.5,126.6c1.9-0.6,2,0.9,1.8,2.2c-0.2,1.3-0.2,3.9-0.2,5.3l3.2,0.2c-0.2-0.8,0-3.3,0.1-4.7
	c0.1-1.4,1.5-3.6,2-1.4c0.5,2.2,2.7,2.3,4.2,1.3c1.5-0.9,2.6-2.9,4.2-5.8c1.6-2.8-0.5-3.6-1.8-3.4s-2.5,0.3,0.3-2
	c2.6-2.2-1.8-3.3-3.8-3.7c-3.4,3.5-7.5,7.5-11.2,10.7c-0.5,0.4-0.9,0.8-1.3,1.2C85.4,126.7,86.2,127,87.5,126.6"/>
<path class="st12" d="M87.5,126.6c1.9-0.6,2,0.9,1.8,2.2c-0.2,1.3-0.2,3.9-0.2,5.3l3.2,0.2c-0.2-0.8,0-3.3,0.1-4.7
	c0.1-1.4,1.5-3.6,2-1.4c0.5,2.2,2.7,2.3,4.2,1.3c1.5-0.9,2.6-2.9,4.2-5.8c1.6-2.8-0.5-3.6-1.8-3.4s-2.5,0.3,0.3-2
	c2.6-2.2-1.8-3.3-3.8-3.7c-3.4,3.5-7.5,7.5-11.2,10.7c-0.5,0.4-0.9,0.8-1.3,1.2C85.4,126.7,86.2,127,87.5,126.6z"/>
<path class="st3" d="M84.2,147.6c1.6-0.5,2.6,2.9,4.9,0.9s0.7-3.7,0.6-5.3s1.8-2.3,1.3-4.4c-0.9-3.2-3.8-0.2-5.7,1.6
	c-1.8,1.7-1.9,0.3-0.1-2.5s-1.2-3.8-3-3c-1.6,0.7-3.1,0-4.1-0.8c-0.7,1.1-1.2,2.2-1.8,3.3c-1.6,3.3-0.5,3.3,0.7,3.3s3.7,4.9,4,5.8
	c0.1,0.3,1,1.6,2.1,3.2C83,148.9,83.2,148,84.2,147.6"/>
<path class="st12" d="M84.2,147.6c1.6-0.5,2.6,2.9,4.9,0.9s0.7-3.7,0.6-5.3s1.8-2.3,1.3-4.4c-0.9-3.2-3.8-0.2-5.7,1.6
	c-1.8,1.7-1.9,0.3-0.1-2.5s-1.2-3.8-3-3c-1.6,0.7-3.1,0-4.1-0.8c-0.7,1.1-1.2,2.2-1.8,3.3c-1.6,3.3-0.5,3.3,0.7,3.3s3.7,4.9,4,5.8
	c0.1,0.3,1,1.6,2.1,3.2C83,148.9,83.2,148,84.2,147.6z"/>
<path class="st3" d="M108.6,125.6c-0.2-1.6,0.8-3.3,3-2.3c2.2,0.9,3.5,0.2,4.4-0.6c0.9-0.8,4.8-1.7,4.3,1.8
	c-0.4,2.5-1.6,2.6-1.9,3.9c-0.3,1.3,0.7,0.5,1.3-0.5c0.6-1,1.9-5.1,4.7-2c0.7,0.8,0.4,2-0.4,3.4c-0.8,1.4-0.2,2.3,0.3,3
	c0.5,0.8,1.7,4.4-2.5,4.7c-1.5,0.1-3.3-0.3-3.3-0.3c-0.2,1.6-1.7,3.9-3.3,6.2c-0.2,0.2-1.1,0.2-1.5-0.1s-1.6-0.9-0.7-1.9
	s2.4-3.1,2.2-4c-0.2-0.9-0.9-1.8-1.9-0.5s-2.6,3.8-4.3,3.9s-3.5-1.5-2.7-3.1s1.1-2.4-0.1-3.8s-0.7-3.2,1.8-4.3c0.8-0.3,2.1,0,3,0.8
	s1.4,0,0.2-0.8C109.8,128.2,108.8,127.3,108.6,125.6"/>
<path class="st12" d="M108.6,125.6c-0.2-1.6,0.8-3.3,3-2.3c2.2,0.9,3.5,0.2,4.4-0.6c0.9-0.8,4.8-1.7,4.3,1.8
	c-0.4,2.5-1.6,2.6-1.9,3.9c-0.3,1.3,0.7,0.5,1.3-0.5c0.6-1,1.9-5.1,4.7-2c0.7,0.8,0.4,2-0.4,3.4c-0.8,1.4-0.2,2.3,0.3,3
	c0.5,0.8,1.7,4.4-2.5,4.7c-1.5,0.1-3.3-0.3-3.3-0.3c-0.2,1.6-1.7,3.9-3.3,6.2c-0.2,0.2-1.1,0.2-1.5-0.1s-1.6-0.9-0.7-1.9
	s2.4-3.1,2.2-4c-0.2-0.9-0.9-1.8-1.9-0.5s-2.6,3.8-4.3,3.9s-3.5-1.5-2.7-3.1s1.1-2.4-0.1-3.8s-0.7-3.2,1.8-4.3c0.8-0.3,2.1,0,3,0.8
	s1.4,0,0.2-0.8C109.8,128.2,108.8,127.3,108.6,125.6z"/>
<path class="st3" d="M129.8,114.8c-1.5-0.3-3.5-0.6-3.7,2.5c-0.1,1.2,1.1,2.1,2.2,2.5c1.1,0.4,0.9,1.2-0.3,0.8
	c-1.2-0.4-2.1-0.7-2.9,1.8c-0.8,2.4,0.7,2.8,1.4,2.9c0.8,0.2,1.3,0.3,1.2,1.3c-0.2,1-0.7,3.9,1.3,4.2c1.9,0.2,3.6-2.1,4.2-3.3
	c0.6-1.2,1.3-2.3,1.4-1c0.2,1.3-0.1,2-0.8,3.5s-0.7,2.2,0.3,2.1s2.7,0,3.2-1.2s1.2-3.4,1.3-5c0.1-1,0.9-1.1,1.6-1
	c0.2-1.7,0.4-3.3,0.7-4.8c-3.3,0.5-6.1-3.5-7-7C132.7,114.3,131.1,115.1,129.8,114.8"/>
<path class="st12" d="M129.8,114.8c-1.5-0.3-3.5-0.6-3.7,2.5c-0.1,1.2,1.1,2.1,2.2,2.5c1.1,0.4,0.9,1.2-0.3,0.8
	c-1.2-0.4-2.1-0.7-2.9,1.8c-0.8,2.4,0.7,2.8,1.4,2.9c0.8,0.2,1.3,0.3,1.2,1.3c-0.2,1-0.7,3.9,1.3,4.2c1.9,0.2,3.6-2.1,4.2-3.3
	c0.6-1.2,1.3-2.3,1.4-1c0.2,1.3-0.1,2-0.8,3.5s-0.7,2.2,0.3,2.1s2.7,0,3.2-1.2s1.2-3.4,1.3-5c0.1-1,0.9-1.1,1.6-1
	c0.2-1.7,0.4-3.3,0.7-4.8c-3.3,0.5-6.1-3.5-7-7C132.7,114.3,131.1,115.1,129.8,114.8z"/>
<path class="st3" d="M114.2,114.2c-0.6,1-2.3,3.8-1.5,4.8s1.6-0.9,2.3-0.2s2.2,1.4,2.2,0.9s0.2-1.5,0.4-2.8c0.2-1.3,0.8-2.1,1.4-1
	s1.4,2,3.5,1.5s1.8-2.7,1.4-4.3c-0.4-1.6,1.1-2.3,1.8-2.8c0.8-0.4,2.7-1.9,1.3-3.3c-1.4-1.3-2.7,0.6-3.9,0.8
	c-1.3,0.2-0.8-0.8,1.8-2.8c2.2-1.7,0.4-3.5-1-4.1c-3.6,3.6-10,9.5-11.4,10.8c-0.5,0.5-0.9,1-1.3,1.7
	C114.5,111.9,114.7,113.2,114.2,114.2"/>
<path class="st12" d="M114.2,114.2c-0.6,1-2.3,3.8-1.5,4.8s1.6-0.9,2.3-0.2s2.2,1.4,2.2,0.9s0.2-1.5,0.4-2.8c0.2-1.3,0.8-2.1,1.4-1
	s1.4,2,3.5,1.5s1.8-2.7,1.4-4.3c-0.4-1.6,1.1-2.3,1.8-2.8c0.8-0.4,2.7-1.9,1.3-3.3c-1.4-1.3-2.7,0.6-3.9,0.8
	c-1.3,0.2-0.8-0.8,1.8-2.8c2.2-1.7,0.4-3.5-1-4.1c-3.6,3.6-10,9.5-11.4,10.8c-0.5,0.5-0.9,1-1.3,1.7
	C114.5,111.9,114.7,113.2,114.2,114.2z"/>
<path class="st3" d="M134.9,147.7c1.1,1,3.7,2.4,5.5,0.8c1.8-1.7-0.4-3.5-0.7-4.8s1.3-2.2,0.5-4.3c-1.5-3.8-3.6,0.8-4.8,2
	c-1.2,1.3-1-0.9,0.1-2c0.6-0.6,3.2-2.2,1.7-3.9c-1.5-1.8-3.7-0.7-4.8,0c-1.1,0.8-1.9,1.7-3.6,1.2c-1.7-0.5-3.1-0.7-4.1,1.8
	c-1,2.4,0.9,1.8,2.5,3.5c1.6,1.7,0.6,1.8-0.7,1.4c-1.3-0.4-1.8-2-3.7-1.8c-1.8,0.2-1.8,3.2-1.3,3.9c0.6,0.8,1.8,1.2,0.9,2.6
	c-0.8,1.4,0.4,3.1,1.9,3.8s3.8-2,4.6-3.1c0.8-1.1,1.7-0.8,1.5,0c-0.1,0.7-0.5,2.6-0.6,4.2c1.3-0.4,2.5-0.8,3.7-1.1
	c0-0.9-0.2-2.3-0.6-3.6C132.6,146.2,133.8,146.7,134.9,147.7"/>
<path class="st12" d="M134.9,147.7c1.1,1,3.7,2.4,5.5,0.8c1.8-1.7-0.4-3.5-0.7-4.8s1.3-2.2,0.5-4.3c-1.5-3.8-3.6,0.8-4.8,2
	c-1.2,1.3-1-0.9,0.1-2c0.6-0.6,3.2-2.2,1.7-3.9c-1.5-1.8-3.7-0.7-4.8,0c-1.1,0.8-1.9,1.7-3.6,1.2c-1.7-0.5-3.1-0.7-4.1,1.8
	c-1,2.4,0.9,1.8,2.5,3.5c1.6,1.7,0.6,1.8-0.7,1.4c-1.3-0.4-1.8-2-3.7-1.8c-1.8,0.2-1.8,3.2-1.3,3.9c0.6,0.8,1.8,1.2,0.9,2.6
	c-0.8,1.4,0.4,3.1,1.9,3.8s3.8-2,4.6-3.1c0.8-1.1,1.7-0.8,1.5,0c-0.1,0.7-0.5,2.6-0.6,4.2c1.3-0.4,2.5-0.8,3.7-1.1
	c0-0.9-0.2-2.3-0.6-3.6C132.6,146.2,133.8,146.7,134.9,147.7z"/>
<path class="st3" d="M102.4,144.5c1.8,0.1,3.7-0.5,5.2-1.6s5.4-0.5,3.8,2.3s-1.1,3.3-0.2,2.3s2.1-2.8,3.8-2.3c1.8,0.5,1,1.8-0.1,3.3
	s-0.4,2.5,0.4,3.1s2.4,3.7-2.3,5.1c-2,0.6-2.3-0.3-3.7-0.8s-1.4,0.7-0.5,2.1c0.9,1.4,1.9,2.8,0.8,2.8s-1.9,0.2-2.1,1
	s-1.9-0.2-2.3-1.9c-0.4-1.8-0.8-5.1-1.8-3.4c-0.9,1.7-1.8,4.4-4.1,3.2c-2.3-1.3-0.8-2.9-1.9-4.1c-1.2-1.2-2.3-2.7-1.1-4.8
	c1.2-2.1,2.2-0.3,3.3-0.3c1.1,0,1.3-1,0.2-1.8C99.1,147.8,97.8,144.2,102.4,144.5"/>
<path class="st12" d="M102.4,144.5c1.8,0.1,3.7-0.5,5.2-1.6s5.4-0.5,3.8,2.3s-1.1,3.3-0.2,2.3s2.1-2.8,3.8-2.3
	c1.8,0.5,1,1.8-0.1,3.3s-0.4,2.5,0.4,3.1s2.4,3.7-2.3,5.1c-2,0.6-2.3-0.3-3.7-0.8s-1.4,0.7-0.5,2.1c0.9,1.4,1.9,2.8,0.8,2.8
	s-1.9,0.2-2.1,1s-1.9-0.2-2.3-1.9c-0.4-1.8-0.8-5.1-1.8-3.4c-0.9,1.7-1.8,4.4-4.1,3.2c-2.3-1.3-0.8-2.9-1.9-4.1
	c-1.2-1.2-2.3-2.7-1.1-4.8c1.2-2.1,2.2-0.3,3.3-0.3c1.1,0,1.3-1,0.2-1.8C99.1,147.8,97.8,144.2,102.4,144.5z"/>
<path class="st7" d="M119,86.1c-0.5,1.3-1.2,3-1.5,3.8s-1.9,0.5-1.8-0.1c0.2-1.3-1.5-0.4-1.3-1.4c0.2-0.8-0.2-2.2,0.8-2.2
	S117.8,86.1,119,86.1"/>
<path class="st8" d="M119,86.1c-0.5,1.3-1.2,3-1.5,3.8s-1.9,0.5-1.8-0.1c0.2-1.3-1.5-0.4-1.3-1.4c0.2-0.8-0.2-2.2,0.8-2.2
	S117.8,86.1,119,86.1z"/>
<path class="st7" d="M116.2,25.7c0.2-0.4,0.3-0.9,0.5-1.2c-0.6,0.3-1.2,0.6-1.7,0.9C115.2,25.9,115.7,26.7,116.2,25.7"/>
<path class="st7" d="M131.2,26.5c-0.2-0.9-1,0.5-2.1,1.8c-1,1.3-2.5,0.5-2.7-0.1s-0.5-1.3-1.4-2.5s0.9-2.9,1.6-3.1
	c0.8-0.2,1.7-0.4,2-0.6c0.2-0.2-0.2-1.4-0.4-2.4c-3,0.9-6.7,2.4-9.9,4c1,0.4,0.7,2.3,0.6,2.6c-0.1,0.3-0.5,2,0.3,1s1-1.4,1.8-1.6
	c0.8-0.3,1.7-0.2,1.7,1s-0.5,1.1-0.7,1.8c-0.2,0.8,0,0.7,0.4,0.9c0.4,0.2,0.6,0.7,0.3,1.5c-0.3,0.8-1.5,0.9-2.7,0.8
	c-1.1-0.1-1.2,0-0.9,0.4c0.3,0.3,0.7,1,0.9,1.7c2.7-1.3,6-2.4,11.1-3.5C131.4,29,131.4,27.2,131.2,26.5"/>
<path class="st7" d="M104.9,43c-0.4-0.8-0.9-0.9-1.1-0.3c-0.2,0.6-0.6,2.5-1.9,3.1c-0.4,0.2-0.7,0.3-1,0.3c0.4,0.5,0.9,0.9,1.5,1.3
	c1-1.1,2-2.1,2.9-3C105.2,44,105.1,43.5,104.9,43"/>
<path class="st7" d="M117.3,33c-0.5-0.2-0.8,0.5-1.1,1c-0.3,0.5-0.9,1.3-2,1.2c-1.1-0.1-1.3-0.5-1.6-1.4c-0.3-0.9-1-1.2-1.8-1.2
	s-1.3-1-0.5-2s1.7-0.5,2.3-0.5c0.7,0,1-0.7,0.5-1.1c-0.4-0.3-1.2-1.2-1.3-1.8c-2.4,1.6-5.8,4-8.8,6.7c0.5,0,1.2,0.2,1.5,0.4
	c0.4,0.2,1,0.7,1,1.4c-0.1,0.8,0.2,0.9,0.6,0.4c0.5-0.5-0.1-2,1.5-2.6c1.5-0.6,1.8,0.6,1.7,1.4c-0.1,0.8,0,1.5,0.8,1.9
	c0.8,0.3,1.7,1.6,0,2.4c-1.8,0.8-2.7,0.9-3.4,1.1c-0.7,0.2-0.5,0.9,0,1.4c0.4,0.3,0.6,0.6,0.8,0.8c2.2-2,4.3-3.7,6.6-5.3
	c1.3-0.9,2.5-1.6,3.7-2.4C117.9,34,118,33.3,117.3,33"/>
<path class="st7" d="M101,40.8c0-0.8-0.6-1.1-1-1.3c-0.3-0.1-0.9-0.7-1.1-1.2c-0.4,0.6-0.8,1.1-1.1,1.7c0.2,0.6,0.4,1.1,0.5,1.6
	C99.3,41.6,100.9,41.5,101,40.8"/>
<path class="st7" d="M136.2,79.7c-2.7-0.2-6,0.4-9.1,1.6c0.5,0.3,1.1,1.1,2.2,0.7c1.6-0.5,2.1,1.1,1.4,1.6c-0.8,0.5-1,1.6,0.4,0.8
	c1.4-0.9,2.7,0.4,2.1,1.3c-0.6,0.9-1.3,0.2-1.2,1.5c0.2,1.3-0.1,2.5-1.3,2.7s-1.4-1.5-2-1.4c-0.5,0.1,0.1,3.1-0.1,3.1
	c-0.8,0.1-1.6,0.8-2,1.3c0,0,0.1,0,0.1,0.1c4.6,3.3,5.8,1.5,6.4-0.1c0.7-1.6,2.1-6.3,2.6-8.8C136.1,82.6,136.4,81.1,136.2,79.7"/>
<path class="st7" d="M126.3,88.8c0.2-0.6-0.4-1.2-1.1-0.7s-1.8,1.1-2.5-0.1s0.8-1.3,0.9-1.9s-0.5-0.7-0.2-1.6c0.3-1,1.3-0.7,2.1-0.2
	c0.9,0.6,0.6-0.8,0.5-1.3c-0.1-0.4-0.2-0.8-0.1-1.1c-0.9,0.4-1.8,0.9-2.6,1.4c-4.3,2.6-4.4,4.8-3.4,5.7c0.9,0.7,2.7,1.1,5.9,3.1
	C125.7,91,126.1,89.3,126.3,88.8"/>
<path class="st7" d="M112.6,86.3c-1.8-0.9-3.5-2.8-4.7-5.1c0,0,0.1-0.3-0.4-0.3s-2.3-0.2-5.4-1.3c-3.1-1.1-3.5-0.4-3.9,0.9
	s-0.8,3.8-0.8,7.8c-0.1,4,1.7,6.5,2.8,6.1c0.5-0.2,1.9-0.9,3.4-1.6c0-0.8,0.1-2.2,0.2-2.8c0.1-1-0.9-0.6-1.3-0.1s-1.2,1.3-2,1.2
	s-1.3-1.5-1.1-2.7c0.1-1.3-1.3-1.8-0.4-3.4c0.9-1.7,1.7,0.4,2.5,0.2c0.8-0.2,0.4-0.6,0-1.9s1.2-1.7,2.2-0.8c0.6,0.6,0.9-0.7,1.8-0.5
	s1.5,0.8,0.9,1.7c-0.4,0.7-0.7,2.4,0.1,1.5c0.8-0.9,1.6-1.4,2.3-0.8c0.8,0.6,0.2,1.8,0,2.4s1.3,1.4,0.2,2.1
	c-1.1,0.8-2.3-0.5-2.9-0.4c-0.6,0.2-0.8,0.9,0.1,1.5c0.5,0.4,1.1,0.7,1.5,0.8c1.7-0.6,3.8-1.7,4.4-2.1l1.1,0.1
	C113.2,87.5,113.1,86.6,112.6,86.3"/>
<path class="st7" d="M106.4,104.7c-0.7-1.5-0.9-0.3-2.8,2.6c-0.9,1.5-3.3,4.2-6.3,7.3c2.1,0.4,6.5,1.5,3.8,3.7
	c-2.8,2.3-1.6,2.2-0.3,2c1.3-0.2,3.3,0.6,1.8,3.4c-1.6,2.8-2.7,4.8-4.2,5.8c-1.5,0.9-3.7,0.8-4.2-1.3c-0.5-2.2-1.9,0-2,1.4
	c-0.1,1.4-0.2,3.8-0.1,4.7l-3.2-0.2c-0.1-1.3-0.1-4,0.2-5.3c0.3-1.3,0.2-2.8-1.8-2.2c-1.3,0.4-2.1,0.1-2.6-0.2
	c-3.7,3.3-5.6,5.6-6.9,7.6c1,0.8,2.5,1.5,4.1,0.8c1.8-0.8,4.8,0.2,3,3s-1.8,4.3,0.1,2.5c1.8-1.8,4.8-4.8,5.7-1.6
	c0.6,2.1-1.3,2.8-1.3,4.4c0.1,1.7,1.8,3.3-0.6,5.3c-2.3,2-3.3-1.4-4.9-0.9c-1,0.3-1.2,1.2-1.1,2c2.1,2.9,5.1,7.1,6.2,8.9
	c1.7,2.8,1.7,6.1,2.3,5.6c0.7-0.5,2.2-2,2.8-2.4c0.5-0.4,1-0.9,0.8-1.8c-0.3-0.9-1.2-5.8-0.9-9.3c0.3-3.9,2.2-8.2,3.5-10.7
	c1.3-2.4,5.2-9.9,6.1-11.9c0.9-2,2.6-4.3,3-6.2c0.4-1.8,2-6.1,2.7-8.1C109.3,112,108.2,108.6,106.4,104.7"/>
<path class="st7" d="M142.8,141.7c-2.2-3.6-2.6-5-2.9-8.7c-0.2-2.3,0-5.3,0.3-8.2c-0.6-0.1-1.5,0.1-1.6,1c-0.1,1.6-0.8,3.8-1.3,5
	s-2.2,1.1-3.2,1.2s-1-0.6-0.3-2.1s0.9-2.2,0.8-3.5c-0.2-1.3-0.8-0.2-1.4,1c-0.6,1.2-2.3,3.5-4.2,3.3c-1.9-0.2-1.4-3.2-1.3-4.2
	c0.2-1-0.4-1.2-1.2-1.3c-0.8-0.2-2.3-0.5-1.4-2.9c0.8-2.4,1.8-2.2,2.9-1.8c1.2,0.4,1.3-0.3,0.3-0.8c-1.1-0.4-2.3-1.3-2.2-2.5
	c0.2-3.1,2.2-2.8,3.7-2.5c1.3,0.3,3-0.5,4.1-1.7c0-0.1,0-0.2-0.1-0.2c-2.2-8.5,2-18.9,3.2-21.9c1.2-2.9,5.7-11.1,7.2-13.6
	c-0.8-0.4-3-1.5-4.3-2.2c-1.2-0.6-1.9-0.9-2.2-0.5c-0.3,0.5-0.8,0.7-1.3,1.5c-1.2,1.7-0.2,1.4,0.2,1.4c0.3,0,1.7,1.8,2,2.3
	c0.3,0.4,0,0.8-0.6,2.1c-0.8,1.7-1.3,5.8-1.9,8.2c-2,7.3-5.2,6.6-6.6,5.7c-1.4-0.9-1.8,0.5-3.3,2.5c-0.3,0.5-1.2,1.4-2.3,2.5
	c1.4,0.6,3.2,2.4,1,4.1c-2.6,2-3.1,3.1-1.8,2.8c1.2-0.2,2.5-2.2,3.9-0.8c1.4,1.3-0.5,2.8-1.3,3.3c-0.8,0.4-2.3,1.2-1.8,2.8
	c0.4,1.6,0.7,3.8-1.4,4.3s-2.9-0.4-3.5-1.5s-1.2-0.3-1.4,1c-0.3,1.3-0.4,2.3-0.4,2.8s-1.5-0.2-2.2-0.9s-1.5,1.2-2.3,0.2
	c-0.8-0.9,0.9-3.8,1.5-4.8c0.6-0.9,0.3-2.3-3-0.7c-1.1,1.8-1.9,4.4-3.3,8.5c-1.8,5.6-6,13.2-7.7,16c-4.5,7.2-5.3,14.1-4.6,18.3
	c0.7,4.2,1.3,3.9,2.2,3.9s3.2,2.8,4.7,4.6s2.1,1,2.8,0.4c2.4-1.9,7.3-5,14.1-8.3c2.9-1.4,6.8-2.9,10.6-4.1c0.1-1.6,0.4-3.5,0.6-4.2
	c0.2-0.8-0.7-1.1-1.5,0c-0.8,1.1-3.1,3.8-4.6,3.1s-2.8-2.3-1.9-3.8c0.8-1.4-0.3-1.8-0.9-2.6s-0.6-3.7,1.3-3.9
	c1.8-0.2,2.4,1.3,3.7,1.8c1.3,0.4,2.3,0.3,0.7-1.4c-1.6-1.8-3.5-1.1-2.5-3.5s2.4-2.3,4.1-1.8c1.7,0.5,2.5-0.4,3.6-1.2
	c1.1-0.7,3.3-1.8,4.8,0s-1.1,3.3-1.7,3.9c-1.1,1.1-1.3,3.3-0.1,2c1.3-1.3,3.4-5.8,4.8-2c0.8,2.2-0.8,3-0.5,4.3
	c0.2,1.3,2.5,3.2,0.7,4.8c-1.8,1.7-4.4,0.2-5.5-0.8s-2.3-1.5-1.8,0.3c0.4,1.3,0.6,2.8,0.6,3.6c3.6-1,6.8-1.6,8.4-1.5
	c2.4,0.2,4.2,0.9,4.1-1.3C146.2,146.8,145,145.3,142.8,141.7 M113.2,156.7c-2,0.6-2.3-0.3-3.7-0.8s-1.4,0.7-0.5,2.1
	c0.9,1.4,1.9,2.8,0.8,2.8s-1.9,0.2-2.1,1s-1.9-0.2-2.3-1.9c-0.4-1.8-0.8-5.1-1.8-3.4c-0.9,1.7-1.8,4.4-4.1,3.2
	c-2.3-1.3-0.8-2.9-1.9-4.1c-1.2-1.2-2.3-2.7-1.1-4.8c1.2-2.1,2.2-0.3,3.3-0.3c1.1,0,1.3-1,0.2-1.8c-1-0.8-2.3-4.3,2.3-4.1
	c1.8,0.1,3.7-0.5,5.2-1.6s5.4-0.5,3.8,2.3s-1.1,3.3-0.2,2.3s2.1-2.8,3.8-2.3c1.8,0.5,1,1.8-0.1,3.3s-0.4,2.5,0.4,3.1
	C116.3,152.1,117.8,155.3,113.2,156.7 M121.7,137c-1.5,0.1-3.3-0.3-3.3-0.3c-0.2,1.6-1.7,3.9-3.3,6.2c-0.2,0.2-1.1,0.2-1.5-0.1
	s-1.6-0.9-0.7-1.9s2.4-3.1,2.2-4c-0.2-0.9-0.9-1.8-1.9-0.5s-2.6,3.8-4.3,3.9c-1.8,0.1-3.5-1.5-2.7-3.1s1.1-2.4-0.1-3.8
	s-0.7-3.2,1.8-4.3c0.8-0.3,2.1,0,3,0.8s1.4,0,0.2-0.8c-1.3-0.8-2.3-1.7-2.4-3.3c-0.2-1.6,0.8-3.3,3-2.3c2.2,0.9,3.5,0.2,4.4-0.6
	c0.9-0.8,4.8-1.7,4.3,1.8c-0.4,2.5-1.6,2.6-1.9,3.9s0.7,0.5,1.3-0.5s1.9-5.1,4.7-2c0.7,0.8,0.4,2-0.4,3.4c-0.8,1.4-0.2,2.3,0.3,3
	C124.7,133,125.9,136.7,121.7,137"/>
<polyline class="st1" points="198.5,65.4 196,67.2 201.7,75.2 198.5,77.5 192.9,69.3 190.4,71.1 195.4,78.8 192.2,81.1 184,69.5 
	198.8,59 207.8,71.6 204.5,73.9 "/>
<polyline class="st1" points="202.6,90.1 205.9,97.4 201.1,99.6 195.8,87.8 211.8,80.9 213.9,85.4 "/>
<polyline class="st1" points="204.5,111.7 204,107.2 214.7,106 214.3,99.5 219.1,99.1 220.4,114.7 215.6,115.1 215.2,110.4 "/>
<polyline class="st1" points="204.6,127.8 204.5,122.5 220.3,122.4 220.3,127.7 "/>
<path class="st1" d="M212.9,149.4c1.5-0.9,2.1-2,2.4-3.3c0.5-3.3-1.2-6-4.2-6.5c-2.8-0.4-5.1,0.9-6,3.7c-0.4,1.5-0.3,2.9,0.1,3.9
	l-4.2,1.4c-0.6-2-0.8-4.2-0.5-6c0.5-2.7,1.4-4.2,3.4-5.7c2.2-1.7,5.3-2.1,8-1.6c2.4,0.5,4.7,1.7,6.1,4.1c1.4,2.4,2.1,4.5,1.5,7.5
	c-0.3,1.8-1.9,4.3-4,5.6"/>
<path class="st1" d="M204.6,163.2c-2.4,2.3-6.6,5-8.2,5.1c-2.2,0.2-2.8-1-3.2-2.9c-0.3-1.5,0-3.8,0.7-5.8c0.6-1.7,2-3.4,3.3-4.5
	l2.6,1.2c-1.4,0.9-2.3,2.4-2.9,4.2c-0.4,1.2-0.8,3,0.4,3.4c1.3,0.5,4.3-2.5,5.1-3.3c1.4-1.4,4.4-3.8,6.6-3.2
	c1.5,0.4,4.1,3.4,3.1,8.4c-0.4,2.1-1.2,4.3-2.6,5.7l-3.6-2.4c1-0.7,1.6-2.6,2-3.9c0.3-0.9,0.4-2.4-0.5-2.9
	C206.9,161.9,205.8,162,204.6,163.2"/>
<path class="st1" d="M185.1,53.3c-0.2-1.7-0.6-2.9-1.7-3.6c-2.8-1.8-5.9-1.3-7.7,1.1c-1.4,2-1.3,5,0.9,7c1.2,1,2.6,1.5,3.6,1.5
	l-0.4,4.4c-2-0.3-4.2-1-5.7-2c-2.3-1.6-3.3-3-3.8-5.5c-0.6-2.7,0.3-5.7,1.8-7.9c1.4-2,3.9-3.8,6.7-4.1c2.7-0.3,5.2,0.1,7.3,2
	c1.4,1.2,2.7,4,3,6.4"/>
<path class="st1" d="M24,142.3c0.1-4.7,2.4-7,3.7-7.2c2.1-0.4,3.2-0.1,4.7,1.2s2.2,2.8,2.6,4.8c0.4,1.8,0.5,3.9,0,5.4l-3.4,0.3
	c0.7-1.5,0.2-2.9-0.2-4.8c-0.3-1.2-1.1-2.5-2.3-2.2c-1.3,0.3-1.2,2.5-1.3,3.6c-0.4,3.8-1.6,6.3-4,6.6c-2.2,0.2-5-1.2-5.9-5.8
	c-0.4-2.1-0.2-4.9,0.3-6.9h3.5c-0.5,1.1-0.9,4-0.6,5.3c0.2,1,1,2.2,2,2.1C23.8,144.8,24,143.1,24,142.3"/>
<polyline class="st1" points="33.2,120.3 33.2,124.2 20.8,124.4 20.8,130 16.8,130.1 16.7,115.2 20.6,115.2 20.7,120.5 "/>
<polyline class="st1" points="42.1,76.2 31.4,69.4 33.7,65.7 49.4,74.8 46.4,79.5 33.7,79.7 33.6,79.7 43.3,85.3 40.9,89.5 
	25.4,80.5 27.5,76.6 "/>
<path class="st1" d="M18,99.4c0-5.3,4.3-9.6,9.6-9.6s9.6,4.3,9.6,9.6c0,5.3-4.3,9.6-9.6,9.6C22.4,109.1,18,104.7,18,99.4
	 M27.7,104.4c2.8,0,5-2.2,5-5s-2.2-5-5-5s-5,2.2-5,5S24.9,104.4,27.7,104.4"/>
<path class="st1" d="M24.3,162.9c0-5.3,4.3-9.6,9.6-9.6s9.6,4.3,9.6,9.6s-4.3,9.6-9.6,9.6S24.3,168.2,24.3,162.9 M33.9,167.9
	c2.8,0,5-2.2,5-5s-2.2-5-5-5s-5,2.2-5,5C28.9,165.6,31.1,167.9,33.9,167.9"/>
<path class="st1" d="M44.7,180.4c-1.4-2.1-0.7-5.2,0.8-6.5c3-2.7,8,3.4,9.8,5.7l5.2,6l-12.8,10.6l-4.8-4.8
	c-3.5-3.5-7.7-7.8-4.2-10.8C40.1,179.4,43.2,179.7,44.7,180.4 M54.7,183.2l-0.4-0.5c-1-1.2-4.4-5.5-5.7-4.2
	c-1.5,1.4,2.1,5.2,3.2,6.5l0.3,0.4L54.7,183.2z M48.5,188.4c-0.5-0.6-4.3-5.2-5.8-3.8c-1.6,1.5,2.2,4.5,3.4,6L48.5,188.4z"/>
</svg>
