<?xml version="1.0" encoding="utf-8"?>
<!-- Generator: Adobe Illustrator 21.1.0, SVG Export Plug-In . SVG Version: 6.00 Build 0)  -->
<!DOCTYPE svg PUBLIC "-//W3C//DTD SVG 1.1//EN" "http://www.w3.org/Graphics/SVG/1.1/DTD/svg11.dtd">
<svg version="1.1" id="Layer_1" xmlns="http://www.w3.org/2000/svg" xmlns:xlink="http://www.w3.org/1999/xlink" x="0px" y="0px"
	 width="507.9px" height="533.1px" viewBox="0 0 507.9 533.1" style="enable-background:new 0 0 507.9 533.1;" xml:space="preserve"
	>
<style type="text/css">
	.st0{fill:#828382;}
	.st1{fill:#1C1060;}
	.st2{fill:#008CA8;}
	.st3{fill:#FEFEFE;}
</style>
<title>CHA</title>
<desc>Created with Sketch.</desc>
<g id="NBA">
	<g id="CHA">
		<g id="Page-1" transform="translate(9.000000, 0.000000)">
			<g id="Group-3">
				<path class="st0" d="M371.5,533.1c-53.1,0-92.8-20.1-116.7-36.9c-25.4-17.9-38.9-36-40.2-37.8c-27.7-35.1-23.7-86.7,9.3-117.6
					c9.2-8.6,20.2-15.2,32-19.2c-30.9-1.6-59.3-4.4-84.6-8.4c-29.5-4.6-56.6-15.1-78.3-30.2c-19.3-13.4-34.4-30.7-42.4-48.7
					c-27.6-57-46.3-121-49.8-133.2l-0.2-0.7v-0.1L-9,64.9l30.2,16.4c-2.5-10.8-5.5-24.6-8.5-40.2c0-0.1,0-0.2-0.1-0.3l-0.3-0.5v-0.8
					L5.1,0l32.4,23.9c1.4,1.1,147.3,108.5,256.6,205.8c6-3.5,12.1-5.2,18.1-5.2c1,0,2,0,2.9,0.1c9.9,0.8,19.4,3.2,28.3,7.3
					l-22.9-22.1l-73.7-111l191.1,159l1.1,0.7c33.4,21.6,53.7,57.3,58.8,103c3.5,31.4-1.1,59.1-3.2,69.8c0,0.1,0,0.1,0,0.2v0.2
					l-12.3,49.3l-18.3-46.4c-15.1-38.2-40-45.4-54.9-49.6c-0.7-0.2-1.3-0.4-2-0.6c-2.1-0.6-4-1.2-5.8-1.8
					c-12.5-4.6-26.4-14.4-37.9-26.6c-1.6,0.5-3.1,1-4.7,1.4c11,16.6,16.9,36.9,16.4,56.7c-0.6,19.3-7.3,37.2-19,51
					c13.9,15,43.1,30.3,53.8,35.2l49.7,22.3l-53.9,8C393.5,532.3,382.1,533.1,371.5,533.1z M230.9,446.8c1.5,2,13.7,17.7,35.6,33.1
					C288,495,323.7,513,371.4,513c6,0,11.9-0.3,17.8-0.8c-16.3-8.6-44.1-25.1-55-42.6l-4.2-6.8l5.9-5.9
					c11.7-10.9,18.4-26.4,18.8-43.6c0.7-20-7.2-40.6-21-55.2l-14.4-14.4l19.7-2.8c7.8-1.1,15.7-3.2,23.4-6.1l6.6-2.6l4.6,5.6
					c10,12,23,21.9,33.9,25.9c1.5,0.6,3.6,1.2,6.5,2c15.7,4.5,43.6,12.5,62.7,49.5c4.3-31.6,7.1-103.6-48.7-139.8l-1.9-1.2l-0.5-0.3
					l-74.7-62.1l52.1,50.2l-18.2,4c-4.4,1-8.3,2.5-11.7,4.8l-7,4.6l-5.8-6.2c-13.8-14.9-29.7-23.1-47.2-24.5c-0.4,0-0.7-0.1-1.1-0.1
					c-3.8,0-8.3,2-12.9,5.7l-6.6,5.2l-6.3-5.5C196.1,168.5,77.7,78.8,34.1,46.2c4.7,23.4,9.4,42.4,12,52.2l5.8,22.5l-20.3-11.2
					c-3.3-1.8-6.2-3.4-8.6-4.8c6.7,22.4,23.3,74.3,45.8,120.7l0.1,0.3l0,0.1c11.2,25.3,45.5,58.2,105.6,67.5
					c27.3,4.3,58.4,7.2,92.5,8.5l8.5,0.4l1,8.4c0.7,5,1.8,9.6,3.4,13.5l4.4,11.4l-11.9,2.2c-13.2,2.4-25.3,8.5-34.9,17.4
					c-25.4,23.8-28.6,63.5-7.3,90.4l0.6,0.6L230.9,446.8z M24,82.8L24,82.8z"/>
				<path class="st0" d="M371.5,528.1c-51.8,0-90.5-19.6-113.8-36c-24.6-17.3-37.9-35-39.1-36.7c-26.2-33.1-22.4-81.8,8.7-110.9
					c10.4-9.7,23-16.6,36.8-20c-0.7-2.4-1.3-4.9-1.8-7.5c-33.2-1.5-63.5-4.4-90.2-8.6c-28.7-4.5-55-14.6-76.2-29.4
					c-18.7-13-33.1-29.6-40.7-46.7C26.9,173.8,7.8,107.2,5.7,99.8v-0.1l-6.8-24.8l22.7,12.3c0,0,2.6,1.4,7.1,3.9
					c-3.3-13.5-7.3-31.2-11.1-51c-0.1-0.4-0.1-0.7-0.2-0.9v-0.1l-5.1-27.5L34.5,28c1.5,1.1,149.6,110.2,259,208
					c7.1-4.8,14.3-7,21.1-6.3c20.2,1.6,38.4,10.5,54.2,26.4c1.5-0.8,3-1.5,4.6-2.1l-49.1-47.3l-54.5-82.1L434.9,262l1.3,0.8
					c32.1,20.8,51.6,55.1,56.5,99.4c3.4,30.9-1.1,58.1-3.2,68.4c0,0.1-0.1,0.3-0.1,0.4v0.2l-8.4,33.6l-12.6-31.9
					c-16-40.5-42.5-48.1-58.2-52.6c-2.7-0.8-5.3-1.5-7.5-2.3c-12.5-4.6-26.8-15-38.1-27.7c-4.8,1.7-9.6,3.1-14.5,4.2
					c13.1,16.7,20.3,38.4,19.7,59.6c-0.6,19.8-7.9,37.8-20.6,51.1c13.1,16.9,46.1,34.2,58.4,39.8l34.1,15.3l-37,5.5
					C394,527.2,382.7,528.1,371.5,528.1z M14.7,94.8l0.6,2.2c2.1,7.4,20.9,73.2,48.9,130.9l0.1,0.2c11.7,26.5,47.4,60.8,109.4,70.4
					c27.4,4.3,58.7,7.2,93.1,8.6l4.2,0.2l0.5,4.2c0.7,5.3,1.9,10.3,3.7,14.8l2.2,5.7l-6,1.1c-14.1,2.6-27,9-37.4,18.7
					c-27.3,25.6-30.7,68.4-7.6,97.4l0.2,0.2c0.1,0.2,12.7,17.5,37,34.6c22.1,15.5,58.7,34,107.8,34c10.7,0,21.5-0.8,31.9-2.4
					l3.2-0.5l-2.9-1.3c-0.5-0.2-50.2-22.8-65.1-46.8l-2.1-3.4l3-3c12.6-11.8,19.9-28.5,20.4-47.1c0.7-21.3-7.7-43.3-22.4-58.8
					l-7.4-7.4l9.8-1.4c8.4-1.2,16.6-3.4,24.5-6.4l3.3-1.3l2.3,2.8c10.5,12.6,24.3,23.1,36.1,27.4c1.9,0.7,4.3,1.4,6.9,2.1
					c16.4,4.7,46.9,13.5,64.8,58.6l1.2,2.9l0.7-2.8c0-0.2,0.1-0.4,0.1-0.7c3.8-18.5,19.3-113.2-48.9-157.4L429,270l-0.3-0.2l-113-94
					l16.1,24.3l61.1,58.9l-9.1,2c-5,1.1-9.4,2.9-13.4,5.5l-3.5,2.3l-2.9-3.1c-14.7-15.8-31.7-24.6-50.5-26.1
					c-5.4-0.5-11.4,1.8-17.5,6.7l-3.3,2.6l-3.2-2.8C180.6,147.9,30.1,37.1,28.7,36l-2-1.4l0.4,2.3c0.1,0.2,0.1,0.6,0.3,1.3
					c4.9,25.5,10.2,47.6,13.8,61.5l2.9,11.3l-10.2-5.6c-10.6-5.9-17-9.3-17-9.4L14.7,94.8z"/>
				<path id="Fill-1" class="st0" d="M433.7,266.8c-0.5-0.3-1-0.6-1.5-0.9L293,150.1l35.3,53.2l54.8,52.8c-5.4,1.2-10.4,3.2-15,6.2
					c-15.6-16.8-33.7-26.1-53.8-27.7c-6.7-0.6-14,2.2-21,7.8C184.2,144.5,33.1,33.1,31.6,32l-12.1-8.9l2.7,14.8
					c0.1,0.3,5.1,28.1,14.1,63.1c-10.8-6-17.1-9.4-17.1-9.4L6.8,84.9l3.7,13.5c0.2,0.7,19.8,71.1,49.2,131.8
					c13.7,30.9,52.7,63.9,113.2,73.3c27.8,4.4,59.3,7.3,93.7,8.7c0.7,5.5,2,10.9,4,16c-14.9,2.7-28.8,9.6-39.9,20
					c-29.2,27.3-32.7,73.2-8.1,104.2c0.5,0.7,51.2,70.7,148.9,70.7c10.7,0,21.7-0.8,32.7-2.5l20.1-3l-18.5-8.3
					c-14.2-6.4-51.2-26.1-62.9-44.9l0.1-0.1c13.6-12.7,21.4-30.7,22-50.6c0.7-22.7-8.2-46-23.8-62.4c-0.1-0.1-0.3-0.3-0.4-0.4
					c9.1-1.3,17.6-3.6,25.6-6.7c11,13.2,25.6,24.3,38.2,28.9c2,0.7,4.4,1.4,7.2,2.2c16.7,4.8,44.6,12.9,61.5,55.6l6.9,17.4l4.5-18.1
					C484.8,428.9,511.5,317.2,433.7,266.8"/>
			</g>
			<path id="Fill-4" class="st1" d="M430.5,271.9c-0.5-0.3-1.1-0.7-1.7-1.1l-108.1-90l12.7,19.1l58.2,55.9l11.3,5.8
				c-11.7-1.8-24.8-0.5-35.5,8.7c-12.7-14.9-30.2-27.9-53.4-29.8c-6.5-0.5-13.8,3.3-20.5,9.9C182.9,150.8,28.1,36.8,28.1,36.8
				s6.2,34.9,17.5,76.2c-18.3-10.2-29.3-16.1-29.3-16.1s19.3,69.8,48.8,131c13.7,30.7,54.6,61.1,108.7,69.7
				c34.7,5.5,70.5,7.8,98.2,8.8c0.4,8.9,2.6,18,7.2,26.7c-16.1,1.1-31.9,7.6-44.5,19.4c-27.4,25.7-30.1,67.6-7.4,96.4
				c0,0,59.3,83.4,175.8,65.8c0,0-56.7-25.5-68-51.9c1.2-1,2.4-1.9,3.6-2.9c29-27.2,25.2-75.8-2.1-104.5c-3.3-3.5-7-6.6-10.8-9.3
				c13.1-0.4,28-2.8,42.1-9.3c10.9,14.5,26.1,26.1,38.4,30.6c14.3,5.2,51.5,9,72.2,61.2C478.7,428.5,505.6,320.4,430.5,271.9"/>
			<path id="Fill-6" class="st2" d="M360.1,278.4c-4.3-5.7-15.4-18.5-31.1-23.7c0,0,17.5,19.8,25,39.1
				C354.7,288.5,356.7,283.3,360.1,278.4"/>
			<path id="Fill-8" class="st2" d="M61.4,102.6c110.8,80.1,207.9,150.6,251.2,182.1c-35.1-32.3-138.4-124.6-259-205.9
				C61.2,104.8,61.4,102.6,61.4,102.6"/>
			<path id="Fill-10" class="st3" d="M103.6,166.4l211.5,129.3l21.5,6.5c0,0-125.1-91-275.2-199.6c0,0,8,20.3,18.6,49l-34.8-19.8
				l8.7,23.1c5.3,17.3,14.3,43,26.5,67c29.1,43.4,84.8,51.6,84.8,51.6l82.4,12.1l7.2,1.7L103.6,166.4z"/>
			<path id="Fill-12" class="st2" d="M308.9,430.6c0.3-4.5-1.6-9.3-6.4-13.9c-14.3-13.8-28.1-26.1-33.6-38.2
				c-7.3,5.8-13.4,13.5-17.5,23.6c-1.8,4.4-2.9,8.6-3.5,12.6c11.8,9.1,30.4,16.1,59.6,15.9C307.8,430.7,308.3,430.7,308.9,430.6"/>
			<path id="Fill-14" class="st2" d="M281.8,449.7c12-0.9,21.1-6.2,25.3-13.1c-14.2,0.5-38.9-0.1-59.8-12.4
				c0.1,3.4,0.6,10.8,4.9,19.6C257.9,447,267.9,450.8,281.8,449.7"/>
			<path id="Fill-16" class="st2" d="M307.3,484.1c7.6-9.2,17.9-10,25.2-9c-3.7-4.7-6.4-9.8-7.6-15.1c2.3-1.5,4.5-3.1,6.5-5
				c21.5-20.1,21.1-56.5,4.6-80.9c-4.4-2.8-9.4-4.9-14.7-6.3c31.7,48.5,4.3,84.9,4.3,84.9l-0.7-0.1c16.3-40.7,0.9-69.2-16.3-86.6
				c-12-0.5-23.6,2.1-34.3,9c7.9,20.5,46,37.6,42.6,58.8c-1.6,9.9-12.4,28.5-57.4,21.2c9.7,10.2,26.5,16.4,55.7,8.2
				c0,0-7.5,7.4-19.4,11.7C299.3,478,303.1,481.1,307.3,484.1"/>
			<path id="Fill-18" class="st3" d="M346.8,489.2c-0.8-0.3-1.8-0.6-2.9-1.1c-11.8-4.9-16.2,3.4-17.7,8.6
				c17.1,7.7,36.6,12.8,60.8,15.3C387,512.1,364.2,502.6,346.8,489.2"/>
			<path id="Fill-20" class="st2" d="M406,272.6L406,272.6L406,272.6"/>
			<path id="Fill-22" class="st2" d="M430.8,285.2c-4.3-3.2-12.4-8.4-21.4-11.5c-41-8.4-44.3,50.7,11.7,80.8
				c11,4.2,33.6,6.4,51.6,41C472.7,395.4,482.3,323.1,430.8,285.2"/>
			<path id="Fill-24" class="st1" d="M464.2,373.6c0,0-0.6-36.6-21.9-61.9c-20.9-24.8-45.4-30.9-47.3-21.7c0,0,11.6-1.9,26.3,14.3
				c0,0-19.1,33.8,28.3,45.5c0,0,3.3,0.7,5.9,0.4C459,357.6,462.2,365.6,464.2,373.6"/>
			<path id="Fill-26" class="st3" d="M441.7,325.8c0,0,4,5.4,8.4,14.4C450.1,340.2,432.7,344.9,441.7,325.8"/>
		</g>
	</g>
</g>
</svg>
