<?xml version="1.0" encoding="utf-8"?>
<!-- Generator: Adobe Illustrator 21.1.0, SVG Export Plug-In . SVG Version: 6.00 Build 0)  -->
<!DOCTYPE svg PUBLIC "-//W3C//DTD SVG 1.1//EN" "http://www.w3.org/Graphics/SVG/1.1/DTD/svg11.dtd">
<svg version="1.1" id="svg2506" xmlns:svg="http://www.w3.org/2000/svg"
	 xmlns="http://www.w3.org/2000/svg" xmlns:xlink="http://www.w3.org/1999/xlink" x="0px" y="0px" width="189.8px" height="172.4px"
	 viewBox="0 0 189.8 172.4" style="enable-background:new 0 0 189.8 172.4;" xml:space="preserve">
<style type="text/css">
	.st0{fill:#FFFFFF;}
	.st1{fill:#1C2524;}
	.st2{fill:#D2153A;}
</style>
<g id="g8" transform="matrix(1.25,0,0,1.25,282.28236,392.0761)">
	<path class="st0" d="M-150.1-175.8c-8.2,0-13.2-1.5-17-2.9c-0.6-0.2-1.2-0.6-1.8-1.2c0,0-0.2-0.2-0.3-0.3c-7.3-7.8-8-18.1-8-22.1
		v-0.3c0-1.1,0.4-2.2,1.2-3.2c0.1-0.1,0.1-0.1,0.2-0.2c0,0,0.2-0.2,0.2-0.2c-0.9-1.6-2.1-3.7-3.4-6.2c-2.4-4.7-8.2-16.7-10.6-22.9
		c0,0-0.5-1.3-0.6-1.6c-1.5,0.4-3.6,0.9-6.1,1.2c-1,0.1-1.9,0.1-2.7,0.1c-7,0-13.1-3.4-16.2-6.4c-1-1-1.8-2.1-2.2-2.6l-0.1-0.1
		c-0.1-0.1-0.3-0.3-0.4-0.5l-0.2-0.4c-0.7-1-1-2.3-0.8-3.5c0.2-1.3,1-2.5,2.1-3.2l0.4-0.2c0.3-0.2,0.6-0.3,0.7-0.4l0,0
		c1-0.6,3-1.4,4.3-1.9c-4.8-2.3-15.5-8.4-14.5-26.9v0c0-0.1,0-0.2,0-0.2c1.4-13,5.8-21.4,7.9-25.5l0.1-0.2c0.1-0.3,0.3-0.6,0.5-0.8
		l0.8-1.2c0.9-1.5,2.4-2.4,4.2-2.4c0.3,0,0.8,0,1.5,0.3c2,0.7,3.3,2.5,3.3,4.5v4.4c0,4.1,0,12.6,1.4,16.3c1.2,3.1,3.8,7.2,13.3,7.2
		c1.1,0,2.4-0.1,3.7-0.2c0.1,0,0.1,0,0.2,0h0.8c0.4,0,0.9-0.1,1.3-0.1c0.4,0,0.8,0,1.2-0.1c0,0,0.1,0,0.1,0c1.7-0.1,3.9-0.3,6.3-0.4
		l1-0.1c0.1,0,0.1,0,0.2,0h0.2c1.2-0.1,2.5-0.2,3.9-0.3c7.6-0.6,16.2-1.2,24.1-1.2c7.1,0,30.2,0.8,37.6,1.3h0.3c0.1,0,0.1,0,0.2,0
		c1.2,0.1,2.4,0.2,3.8,0.2c7.2,0,11.8-1.9,13.7-5.7c2.5-4.7,2.6-13.6,2-19.9l-0.2-2.8c-0.2-2.2,1.2-4.3,3.4-4.9
		c0.6-0.2,1.1-0.2,1.4-0.2c1.8,0,3.4,1,4.2,2.6l1.5,3l0.3,0.6c2.5,5.2,7.3,14.8,7.8,25.5c0.7,10.9-3.8,19.5-12.9,24.9
		c-0.8,0.5-1.7,1-2.6,1.4l2.8,0.9c0.1,0,0.2,0.1,0.3,0.1c0.1,0,0.2,0,0.3,0.1c0.3,0.1,0.5,0.2,0.7,0.3c0.7,0.2,1.1,0.5,1.4,0.7
		l0.5,0.3c2.3,1.4,2.9,4.4,1.5,6.6l-0.3,0.4c-0.1,0.1-0.1,0.2-0.2,0.3c-0.1,0.2-0.2,0.4-0.4,0.6l-0.7,0.7c-2.6,3.5-9.7,8.3-17.5,8.3
		c-0.6,0-1.4,0-2.2-0.1c-2.2-0.2-4.2-0.5-6.2-1.1c-0.3,0.7-0.6,1.4-0.9,2.2c-2.5,6.2-8.5,19.1-10.6,23.3c-0.1,0.3-0.3,0.6-0.5,0.8
		c0,0.1-0.1,0.1-0.1,0.2c-0.2,0.6-0.6,1.3-1,2c-0.5,0.9-1,2.1-1.6,3.2c0,0.1,0.2,0.2,0.2,0.2c0.2,0.2,0.4,0.3,0.5,0.5l0.1,0.1
		c0.9,0.8,1.5,2.1,1.5,3.5v0.3c0,0,0,0.1,0,0.1c-0.3,4.5-2.7,14-8.3,20.6c-0.2,0.3-0.4,0.5-0.6,0.6c-0.3,0.2-0.6,0.5-1.1,0.7
		C-135-177.5-142.1-175.8-150.1-175.8z"/>
	<path class="st0" d="M-150.1-178.2c-7.6,0-12.3-1.3-16.2-2.8c-0.3-0.1-0.6-0.3-0.9-0.6l-0.2-0.2c-6.7-7.2-7.4-16.8-7.4-20.5v-0.3
		c0-0.6,0.3-1.2,0.7-1.7l0.2-0.2c0.3-0.3,0.5-0.4,0.7-0.5l0.1-0.1c0.2-0.2,0.4-0.4,0.6-0.6c-1-1.7-2.4-4.2-4.4-7.9
		c-2.2-4.3-8-16.3-10.5-22.6c-0.4-1.1-0.9-2.4-1.2-3.5c0-0.1,0-0.1-0.1-0.2c-1.7,0.6-4.3,1.3-7.9,1.8c-0.8,0.1-1.6,0.1-2.4,0.1
		c-6.9,0-12.3-3.6-14.5-5.7c-1.1-1.1-2.1-2.5-2.2-2.6l-0.1-0.1l-0.3-0.5c-0.4-0.5-0.5-1.2-0.4-1.8s0.5-1.2,1-1.5l0.5-0.3
		c0.1-0.1,0.2-0.1,0.4-0.2c0.1-0.1,3-1.4,5.7-2.4c0.1,0,0.1,0,0.2-0.1c1.2-0.4,2.9-0.8,4.5-1.3c-1.7-0.5-3.5-1.1-5.2-2
		c-3.7-1.7-15-6.8-14-25.1v-0.1c1.3-12.5,5.4-20.4,7.6-24.6l0.2-0.4c0,0,0-0.1,0.1-0.1l1-1.6c0.4-0.7,1.2-1.2,2.1-1.2
		c0.2,0,0.4,0,0.6,0.1c1,0.3,1.8,1.2,1.8,2.3v4.4c0,4.5,0,13,1.5,17.1c2.2,5.9,7.3,8.8,15.6,8.8c1.2,0,2.6-0.1,3.9-0.2
		c0.1,0,0.2,0,0.2,0h0.7c0.8-0.1,1.6-0.1,2.6-0.2c2-0.1,4.6-0.3,7.3-0.5h0.3c8.3-0.6,18.6-1.5,27.9-1.5c7.1,0,30.2,0.8,37.5,1.3h0.2
		c0.1,0,0.1,0,0.2,0c1.2,0.1,2.5,0.2,4,0.2c8.2,0,13.5-2.4,15.8-7c2.7-5.1,2.9-14.3,2.2-21.2l-0.2-2.7c-0.1-1.1,0.7-2.2,1.8-2.5
		c0.2-0.1,0.4-0.1,0.6-0.1c0.9,0,1.7,0.5,2.1,1.3l1.5,3c2.5,5.1,7.3,14.5,7.8,25.1c0.6,10-3.3,17.7-11.7,22.7
		c-2.8,1.7-5.8,2.9-8.6,3.8c1,0.3,1.4,0.4,1.7,0.5l7.7,2.4c0.1,0,0.2,0.1,0.4,0.1c0.3,0.1,0.5,0.2,0.6,0.3c0.4,0,0.7,0.2,1,0.4
		l0.5,0.3c1.1,0.7,1.4,2.2,0.7,3.3l-0.3,0.5c-0.1,0.1-0.2,0.3-0.3,0.4l-0.8,0.8c-2.3,3.2-8.9,7.5-15.7,7.5l0,0c-0.6,0-1.3,0-1.9-0.1
		c-3.5-0.3-6.1-1-7.9-1.6c-0.4,1-1,2.5-1.7,4.3c-2.5,6.3-8.7,19.5-10.6,23.3c0,0.1-0.1,0.2-0.2,0.3s-0.2,0.4-0.3,0.6
		c-0.2,0.5-0.5,1.1-0.9,1.8c-0.6,1.1-1.2,2.4-1.7,3.5c-0.2,0.4-0.3,0.7-0.5,1c0.3,0.7,0.6,1.1,1,1.6c0,0.1,0.1,0.1,0.1,0.2
		c0.2,0.1,0.4,0.3,0.6,0.5l0.2,0.2c0.5,0.4,0.7,1.1,0.7,1.7c0,0,0,0.2,0,0.3c-0.2,3.5-2.3,12.8-7.8,19.2c-0.1,0.1-0.1,0.2-0.2,0.2
		c-0.2,0.2-0.4,0.4-0.7,0.5C-135.4-180-142-178.2-150.1-178.2z"/>
	<path id="path10" class="st1" d="M-78.7-281.7c-0.5-9.8-4.9-18.9-7.5-24.1l-1.5-3l0.2,2.6c0.3,3.4,1.1,15.6-2.5,22.5
		c-4.6,9.4-17.7,8.5-22.2,8.2h-0.3c-7.1-0.5-30.2-1.3-37.4-1.3c-9.4,0-19.7,0.8-28.1,1.5c-4.1,0.3-7.5,0.5-10,0.7
		c-0.2,0-0.5,0-0.8,0c-11.6,1.1-19-2.3-22-10.2c-1.8-4.9-1.6-14.4-1.6-19v-3.3l-1,1.6c-2.1,4.1-6.2,11.7-7.5,24.1
		c-0.8,14.9,6.9,20.2,12.6,22.8c6.1,3,12.5,3.3,14.4,3.4h0.2c0.3,0,0.8,0,1.3,0.2c0.7,0,1.3,0,2,0.2c-1,0.2-2.5,0.5-3.8,0.7
		s-2.6,0.5-3.3,0.7c-1.5,0.2-7.2,1.6-10.5,2.6c-2.6,1-5.6,2.3-5.6,2.3l-0.5,0.3l0.3,0.5c0,0,1,1.3,2,2.3c2.1,2.1,7.9,5.7,14.8,4.9
		c5.6-0.8,8.5-2,9.7-2.6c0.5,1.1,1.3,3.9,2.1,6.1c2.5,6.2,8.2,18.2,10.3,22.3c1.8,3.3,3.4,6.2,4.6,8.2l0.5,0.7
		c-0.3,1.3-1.3,2.1-2,2.8c-0.2,0.2-0.3,0.2-0.5,0.3l-0.2,0.2v0.2c0,1.1-0.3,11.5,6.7,19l0.2,0.2c3.6,1.3,8,2.6,15.4,2.6
		c7.5,0,13.8-1.6,16.1-2.8v-0.2h0.2c4.9-5.7,7.1-14.4,7.2-17.7v-0.2l-0.2-0.2c-0.2-0.2-0.3-0.2-0.5-0.3c-0.7-0.8-1.6-1.6-2.1-3.8
		c0.5-1,1.6-3.4,2.6-5.4c0.7-1.1,1-2.1,1.3-2.6c2-4.1,8-17.1,10.5-23.1c1.5-3.9,2.3-5.9,2.8-6.6c1,0.5,3.9,1.8,9.4,2.3
		c6.9,0.8,13.6-3.9,15.4-6.6c0.3-0.3,1-1,1-1l0.3-0.5l-0.4-0.3c-0.2,0-0.3,0-1.3-0.5l-7.9-2.5c-1-0.5-5.7-1.5-9.2-2.1l-2.6-0.7
		l0.8-0.2C-98.7-256.7-77.4-260.5-78.7-281.7z"/>
</g>
<g id="g12" transform="matrix(1.25,0,0,1.25,285.56486,399.2551)">
	<path id="path14" class="st2" d="M-216-308.8c-0.2,5.6-0.2,11.5,1.1,16.7c-1.1-1-2.5-2.3-3.6-3.3c-1.1,1.1-2.1,2.5-3.3,3.6
		C-220.6-297.6-218.7-303.3-216-308.8z"/>
</g>
<g id="g16" transform="matrix(1.25,0,0,1.25,450.67111,398.84485)">
	<path id="path18" class="st2" d="M-215.6-293.8l0.3,1.5l-2.8-2c-1.3,0.5-2.5,1.3-3.8,2c1-5.3,1.1-10.8,0.8-16.4
		C-218.5-304-217-298.9-215.6-293.8z"/>
</g>
<g id="g20" transform="matrix(1.25,0,0,1.25,348.94011,482.52698)">
	<path id="path22" class="st2" d="M-203.1-308.8c3,4.6,8.5,5.9,13.5,4.6c2-0.3,3.8-1.1,5.4-1.8c-1.5,4.8-2.6,10.2-2.5,15.6
		c0,4.8,0.8,9.4,2.1,13.6c-0.7-0.3-1.3-0.8-2.1-1.1c-10.2-5.1-24.3-4.9-34.3,0.3c0.5-1.6,1-3.3,1.3-4.9c1.6-7.7,0.5-15.8-2.1-22.6
		c5.4,2.3,13.1,2.8,17.6-2.3C-203.7-307.8-203.6-308.3-203.1-308.8z"/>
</g>
<g id="g24" transform="matrix(1.25,0,0,1.25,332.73773,487.24323)">
	<path id="path26" class="st2" d="M-212.6-308.8c-0.3,2.3-1,4.6-3.3,5.4c-1.8,0.5-3.6-0.5-4.8-1.8c-0.5-0.7-1-1.3-1.1-2.1
		c2.8,1.8,6.6,0.3,9-1.5H-212.6z"/>
</g>
<g id="g28" transform="matrix(1.25,0,0,1.25,400.62611,487.65323)">
	<path id="path30" class="st2" d="M-212.8-308.8c-0.7,2-2.3,3.9-4.4,4.3c-1.5,0.3-2.8-0.5-3.8-1.8c-0.5-0.7-0.7-1.5-0.8-2.3
		C-219.3-306.6-215.4-307.1-212.8-308.8z"/>
</g>
<g id="g32" transform="matrix(1.25,0,0,1.25,395.08861,489.90948)">
	<path id="path34" class="st2" d="M-213.9-305c1,0.2,2.1,0,3.1-0.3c-2.8,7.1-6.2,13.9-9.8,20.8c-1.1-3.4-1-7.2-0.7-11
		c0.5-4.6,1.6-9,3-13.3C-217.5-307-215.9-305.3-213.9-305z"/>
</g>
<g id="g36" transform="matrix(1.25,0,0,1.25,335.19861,489.70448)">
	<path id="path38" class="st2" d="M-211-284.3c-4.3-6.6-7.5-13.5-10.8-20.5c1.5,0.7,3.8,1.3,5.3,0.2c1.5-1,2.3-2.5,2.8-4.1
		C-210.1-301.7-209.3-292.4-211-284.3z"/>
</g>
<g id="g40" transform="matrix(1.25,0,0,1.25,345.45373,515.34323)">
	<path id="path42" class="st2" d="M-178.6-299.2c-0.8,6.1-3,11.5-6.9,16.2c-8.9,3.6-21,3.9-29.9,0.2c-4.4-4.9-6.1-11-6.4-17.6
		c9.5-6.9,24.4-8.4,35.3-3.4C-183.7-302.5-181.1-301.2-178.6-299.2z"/>
</g>
<g id="g44" transform="matrix(1.25,0,0,1.25,293.97298,433.50673)">
	<path id="path46" class="st2" d="M-100.7-283.2c-7.4-3-17.1-4.6-25.1-4.8c-0.8-9.2-1.8-14.8-3.6-19.9c-4.1-0.3-22.8-1-29.9-1
		c-7.2,0-25.4,1.1-29.7,1.3c-1.6,4.9-3.6,11-4.4,20c-8.2,0.5-19.4,2.8-26.7,5.6c-1.1,0.5-1.6,0.8-1.6,0.8c1.1,1.3,5.3,6.2,13,6.4
		c2.5,0,7.1-0.3,10.2-1.6c0.8-0.5,2.5-1.1,2.5-1.1s0.5,1,0.8,1.8c0.8,2.3,1.8,5.6,2.5,7.1c1.1,2.1,2.8,3.8,5.7,3.9
		c2.5,0,4.3-2.1,4.6-2.5c-7.2-0.5-10.2-4.3-10.7-10.2c-1.8-0.3-2.3-0.5-2.5-1.3c-0.2-1,0.2-2,0.8-3.1c0.8-1,2.1-2.1,5.6-1
		c2.3,0.7,4.1,2.1,5.3,3.3c1.6,1.3,5.9,5.7,8.5,7.4c2.8,1.6,8,3.1,11.5-0.3c3.4-3.3,3.8-6.1,4.3-7.7c-5.9-0.2-11.3-0.8-16.4-1.5
		c-1.5-0.2-0.8-1.6,0.3-1.3c0,0,9.5,1.3,16.2,1.3c0-0.8,0-2.1,0-3.6c-3.9-0.2-10.5-0.5-16.7-1.8c-1.3-0.3-1.1-1.8,0.2-1.5
		c0.8,0.3,11.2,1.8,16.7,1.8c0-1.3,0-3,0-4.6c-3.6,0.2-9-0.3-16.6-1.5c-1.3-0.2-1.1-1.3,0-1.3c0,0,9.5,1.5,16.6,1.3c0-1,0-2.3,0-3.6
		c0-1.3,1.1-1.5,1.1,0c0,0.5,0.2,1.8,0.2,3.6c6.7-0.2,12.8-1,15.6-1.5c1.6-0.3,1.5,1,0.7,1.1c-1,0.2-8.9,1.6-16.4,1.8
		c0,1.3,0.2,3.1,0.2,4.4c5.1-0.2,10.8-0.3,15.9-1.5c1.8-0.3,2,1.1,0.3,1.3c-4.9,0.8-12,1.6-16.2,1.8c0,1.1,0,2.6,0.2,3.6
		c8-0.2,15.6-1.3,16.9-1.5c1.3-0.3,1.6,1.1,0.2,1.3c-1.3,0.2-10.8,1.5-16.9,1.5c0.7,2.1,0.7,5.1,3.6,7.5c3,2.5,7.7,2.3,11.2,0.3
		c2.6-1.5,6.7-6.1,8.2-7.4c1.3-1.1,4.3-3.8,8.2-3.8c3.8,0,3.9,2.1,4.1,2.6c0.2,0.7,0.3,1.8-0.5,2.3c-0.7,0.5-1.3,0.3-2,0.7
		c-0.5,3.1-1.5,6.7-4.1,8.7c-2.6,2-6.9,2.3-6.9,2.3s0.7,0.7,0.8,0.8c0.3,0.3,1.8,1.1,3.8,1c1.6-0.2,3.8-1.5,4.6-2.5
		c1.3-1.6,2.5-5.3,3.4-7.5c0.3-0.8,1.1-2.3,1.3-3c0.8,0.3,1.1,0.5,2.6,1.1c3.1,1.1,7.1,1.6,9.5,1.6c3.9-0.2,8.5-2.6,11.3-5.1
		c0.5-0.5,1.3-1.6,1.3-1.6S-99.9-283-100.7-283.2z"/>
</g>
<g id="g48" transform="matrix(1.25,0,0,1.25,375.80898,524.36573)">
	<path id="path50" class="st1" d="M-209.3-305.6c0.7,1.5,0.2,3.1-0.7,4.3c-1.6,1.8-3.9,2.6-6.2,2c-1.3-0.3-2.6-1.1-3.4-2.6
		c-0.5,1.1,0.5,2.1,0.3,3.1c-0.2,0.3-0.5,0.3-0.7,0.2c-1.3-1.8-1.8-4.4-0.7-6.4c1.5-2.5,4.1-3.6,7.1-3.3
		C-211.9-308.1-210.1-307.3-209.3-305.6z"/>
</g>
<g id="g52" transform="matrix(1.25,0,0,1.25,352.01748,524.77573)">
	<path id="path54" class="st1" d="M-210.1-305c1.1,1.8,0.7,4.4-0.5,6.1c-0.2,0.3-0.3,0.7-0.7,0.3c-0.5-0.5,0.2-1,0.2-1.6
		c0.2-0.5,0.3-1,0.2-1.5c-1.6,2.1-3.9,3.1-6.4,2.6c-1.8-0.3-3.4-1.6-4.1-3.4c-0.3-1.1-0.2-2.5,0.5-3.4c1.6-2.1,4.8-2.8,7.4-1.8
		C-212.3-307.4-210.8-306.3-210.1-305z"/>
</g>
<g id="g56" transform="matrix(1.25,0,0,1.25,353.24798,539.54448)">
	<path id="path58" class="st1" d="M-191.4-304.3c-0.2,0.3-0.3,0.3-0.7,0.8c-0.8-0.3-1.8-0.7-2.8-1c-8.2-3.3-18.7-2.3-26.4,1
		c-0.2-0.3-0.3-0.5-0.5-0.8C-212.8-308.3-200.5-308.8-191.4-304.3z"/>
</g>
<g id="g60" transform="matrix(1.25,0,0,1.25,353.04286,490.11448)">
	<path id="path62" class="st1" d="M-189.8-308.4c-1.5,6.6-5.6,13.9-12.3,15.8c-5.4,1.5-11.6,0.3-15.3-4.1c-2.6-3.3-3.9-7.2-4.4-11.5
		c0.3-0.2,0.7-0.2,1-0.2c0.5,6.1,3.8,13,9.8,14.9c5.3,1.6,11.6,0,15.4-4.6c2.5-3.1,4.1-6.9,4.9-10.7
		C-190.3-308.8-190.1-308.8-189.8-308.4z"/>
</g>
<g id="g112" transform="matrix(1.25,0,0,1.25,283.51286,418.32973)">
	<path id="path114" class="st0" d="M-211.8-303c3.4,6.7,10.7,9,17.9,8.7c4.1,0,8-0.5,12-0.8v0.3c-2,5.7-3.4,11.6-4.3,17.7
		c-10.5,0.3-21.2-0.5-29-7.5c-5.3-5.2-6.6-12.6-5.4-19.9c1.3-1.5,2.6-2.8,3.8-4.3C-215.1-307-212.3-305.5-211.8-303z"/>
</g>
<g id="g116" transform="matrix(1.25,0,0,1.25,411.08611,418.94498)">
	<path id="path118" class="st0" d="M-183.2-306.6c0.3,1.1,0.3,2.1,0.5,3.1c0.5,8.2-3,15.6-10,19.7c-7.5,4.6-16.2,6.2-25.4,6.4
		c-0.2-0.8-0.3-2-0.3-2.8c-0.8-5.4-1.8-10.8-3.3-15.9c9.8,0,22,2.6,28.6-6.6c0.8-1.3,1.6-2.5,2.5-3.8c1.5-0.7,3-1.6,4.3-2.3
		C-185.4-308.3-184.4-307.3-183.2-306.6z"/>
</g>
<g id="g120" transform="matrix(1.25,0,0,1.25,402.06111,472.88698)">
	<path id="path122" class="st0" d="M-213.6-308.8c0,3.1-1,6.2-3.8,7.7c-1.3,0.7-2.8,1-4.3,1c-0.2-0.3-0.2-0.7,0-1
		c2.1,0,4.4-0.8,5.6-2.6c0.8-1.3,1.1-3,1.1-4.6C-214.6-308.6-214.1-308.8-213.6-308.8z"/>
</g>
<g id="g124" transform="matrix(1.25,0,0,1.25,331.30211,473.29698)">
	<path id="path126" class="st0" d="M-212.9-300.7c-0.5,0-0.7,0.2-1.5,0c-3.6,0-7.4-3-7.2-7.9c0.5-0.2,1-0.2,1.3,0
		c0,2.8,1.1,6.7,7.2,6.7C-212.8-301.2-213.1-301.2-212.9-300.7z"/>
</g>
</svg>
