<?xml version="1.0" encoding="utf-8"?>
<!-- Generator: Adobe Illustrator 21.1.0, SVG Export Plug-In . SVG Version: 6.00 Build 0)  -->
<!DOCTYPE svg PUBLIC "-//W3C//DTD SVG 1.1//EN" "http://www.w3.org/Graphics/SVG/1.1/DTD/svg11.dtd">
<svg version="1.1" id="Layer_1" xmlns="http://www.w3.org/2000/svg" xmlns:xlink="http://www.w3.org/1999/xlink" x="0px" y="0px"
	 width="2504.4px" height="2506.5px" viewBox="0 0 2504.4 2506.5" style="enable-background:new 0 0 2504.4 2506.5;"
	 xml:space="preserve">
<style type="text/css">
	.st0{fill:#FFFFFF;}
	.st1{fill:#3C5195;}
	.st2{fill:#848C99;}
</style>
<g>
	<path class="st0" d="M2408.4,809.7c-30.6-72.4-68.5-142.2-112.6-207.5c-43.7-64.7-93.9-125.5-149.1-180.7
		c-55.3-55.3-116.1-105.4-180.7-149.1c-65.3-44.1-135.1-82-207.5-112.6c-150.6-63.7-310.6-96-475.4-96c-22.5,0-44.9,0.6-67.1,1.8
		c9.3-11.3,11.7-26.9,6-40.6c-6.1-14.6-20.1-24.3-35.9-24.7c-6.8-0.2-13.7-0.3-20.5-0.3C1058,0,963.7,22.5,885,66.9
		c-65.9,37.2-106.3,81.3-130.5,107.7c-4.5,5-9.9,10.9-13.4,14.3c-14.1,4-39.4,15.6-101.7,53.6c-29,17.7-55.7,34.9-68.1,43l-44.1,6.8
		c-8.1,1.2-15.7,5-21.6,10.7l-97.1,93.1c-6.1,5.8-10.2,13.4-11.7,21.7c-2,10.9-7.1,27.5-10.8,33.2c-5.4,4.3-17,14.9-57.1,61.7
		c-16.9,19.7-32.7,38.7-38.6,45.8c-34.4,29.1-65.2,65.1-91.7,107.1c-21.4,34-40.1,72.1-55.4,113.1c-23.5,62.8-32.1,113.4-33.7,124.3
		l-17.6,73.7c-18.7,23.9-31.3,59.8-38.4,109.3c-2,13.9-3.3,27.1-4.1,38.3c-10.5,4.2-19.5,10.5-27,18.6
		c-27.1,29.5-23.6,71.7-20.1,112.6c1.7,20.4,3.5,41.4,1.5,59.5c-3.8,34.6,2.2,88.3,17.9,159.7c10.2,46.4,21.1,84.9,23.5,93.1
		c3.8,17.8,34.5,151.9,131.4,315.3c59.8,100.7,132.6,191.9,216.3,271c104.7,98.9,226.9,179,363.2,238.1
		c65.4,28.3,131.1,51.5,196.3,69.2c106.9,30,217.6,45.2,330.6,45.2c164.9,0,324.8-32.3,475.4-96c72.4-30.6,142.2-68.5,207.5-112.6
		c64.7-43.7,125.5-93.9,180.7-149.1c55.3-55.3,105.4-116.1,149.1-180.7c44.1-65.3,82-135.1,112.6-207.5
		c63.7-150.6,96-310.6,96-475.4C2504.4,1120.3,2472.1,960.3,2408.4,809.7z M1638.2,1308.5c19.2,33.1,35.9,70,50.4,111
		c33.9,96.3,49.7,200.8,59.8,281.1c11.9,95.6,6.1,182.9-0.8,239.3c-4.7,38.1-10.5,67.6-14.3,84.7c-53.3,10.9-92.8,14.8-100.7,15.5
		c-10,0-62.1-0.2-117.7-1.5c-37-0.9-64.4-2-84.6-3.2c26-22.3,74.9-64,92-78.4c22.1-18.5,29.2-37.6,31.1-50.4
		c1.7-11.2,0.2-20.5-1.7-26.9c-2-10.9-8.4-45.2-12.2-60.2l-0.7-2.9c-19-77-45.8-178.6-66.1-225.8c-11.7-27.3-0.5-65.8,8.6-96.8
		c0.5-1.7,1-3.4,1.5-5.2c7.3,35.1,10.5,64.9,10.5,65.2c1.9,17.4,14.9,31.6,32.1,35c2.6,0.5,5.2,0.8,7.7,0.8c14.5,0,28.1-7.9,35.2-21
		c2.5-4.6,60.6-113.3,69.3-201.2C1639.4,1349.1,1639.4,1328.8,1638.2,1308.5z M1895.5,1578.2c-7.3-56.1-18.5-109.8-33.2-159.5
		c-18.6-62.8-42.9-119.6-72.4-168.6c-26.7-44.5-50.4-81.7-71.3-112.6c0.4-0.1,0.7-0.3,1.1-0.5c15.2-7,24.5-22.7,23.2-39.4
		c-0.6-8.3-2.4-30.7-28-93.6c81.6,55.8,182.4,131.6,224.3,182.7c7,8.6,14.2,17.3,21.2,25.7c65,78.6,132.1,159.8,170.1,277
		c36.7,113.3,44.8,237.4,46.3,268.7c-51.2,57.6-101.8,106.4-150.5,145.1c-38,30.2-85.8,56.4-142.6,78.3
		c13.3-99.1,20.8-228.2,21.2-235c0-0.2,0-0.3,0-0.5C1905,1743.1,1907.9,1673.6,1895.5,1578.2z M1555.9,267.5
		c-4.8-0.3-9.9-0.5-15.1-0.5c-42.2,0-91,10.7-121.1,18.5c-13.9-16.9-32.4-34.8-55.6-53.9c72.2,5.4,143.1,18.2,212.1,38.1
		C1569.2,268.7,1562.4,267.9,1555.9,267.5z M2339.6,1285.1c0,93.6-12,185.4-35.9,274.2c-5.6-51-16.3-119.1-36.6-179.9
		c-60.6-181.8-148.8-276-162.3-289.6c-13.9-16.5-134.4-157.3-272.2-263.6c-55.3-42.7-112.6-78.6-162.7-106.8
		c0.2-2.8,0.1-5.7-0.2-8.5c64.9,14.7,151.5,29.2,191.1,29.2c56,0,122.5-12.4,185.9-25.1c38.1-7.6,78.5-21,105.5-30.7
		c41.1,59.3,75.9,122.7,104.3,189.7C2311.6,1004.1,2339.6,1142.5,2339.6,1285.1z M2030.1,538c13.6,13.6,26.8,27.6,39.7,41.9
		c-33.7,9.3-82.4,18.3-144.5,18.3c-19.9,0-40.4-0.9-60.9-2.8c-87.7-7.8-168.9-38.3-221.5-62.5c-24-11-44.4-21.8-60.2-30.7
		c15.2-20.5,31.2-41,39.2-49.1c9.8-9.7,63.8-41.9,108.2-66c13.5-7.3,21.7-21.8,20.9-37.2c-0.2-4.9-1.4-9.5-3.2-13.9
		C1852.3,387.2,1947.1,455,2030.1,538z"/>
	<path class="st1" d="M2422,1285.1c0,629-509.9,1139-1139,1139s-1139-509.9-1139-1139c0-629,509.9-1139,1139-1139
		C1912.1,146.2,2422,656.1,2422,1285.1L2422,1285.1z"/>
	<path d="M2464.4,1285.1c0,652.5-528.9,1181.4-1181.4,1181.4c-326.2,0-621.6-132.2-835.4-346s-346-509.1-346-835.4
		c0-652.5,528.9-1181.4,1181.4-1181.4c326.2,0,621.6,132.2,835.4,346C2332.2,663.6,2464.4,958.9,2464.4,1285.1L2464.4,1285.1z
		 M2379.6,1285.1c0-302.8-122.7-577-321.2-775.4C1860,311.3,1585.8,188.6,1283,188.6c-605.6,0-1096.6,491-1096.6,1096.6
		c0,302.8,122.7,576.9,321.2,775.4c198.4,198.5,472.6,321.2,775.4,321.2C1888.6,2381.7,2379.6,1890.7,2379.6,1285.1L2379.6,1285.1z"
		/>
	<path d="M1184.9,40.3c0,0-52.6,52.6-52.6,89.1c0,0,222.6,117.4,271.2,202.4c0,0,89-28.3,149.8-24.3c60.7,4,157.8,44.5,157.8,44.5
		s-97.1,52.6-117.4,72.9s-68.8,89.1-68.8,89.1s153.8,105.2,335.9,121.4c182.1,16.2,283.3-40.5,283.3-40.5l36.5,16.2l-12.2,24.3
		c0,0-68.8,28.3-129.5,40.5c-60.7,12.2-125.5,24.3-178.1,24.3s-198.3-28.3-242.9-44.5l12.1,60.7c0,0-56.7-60.7-121.4-60.7v28.3
		c0,0,157.8,64.8,299.5,174c141.7,109.3,267.1,259,267.1,259s91.8,89.1,153.8,275.2c36.4,109.3,40.5,246.9,40.5,246.9l36.4,20.2
		l-76.9,165.9l-12.1-60.7c0,0-4-149.8-48.6-287.4c-44.5-137.6-125.5-226.7-198.3-315.7c-72.9-89-299.5-238.8-348.1-263.1
		c0,0,76.9,149.7,80.9,202.4c0,0-64.7-64.8-125.5-76.9c0,0,56.7,44.5,178.1,246.9c121.4,202.4,109.3,473.6,109.3,473.6
		s-12.2,210.5-32.4,299.5c-20.3,89-44.5,109.3-44.5,109.3l-20.2-101.2c0,0,44.5-161.9,20.2-356.2
		c-24.3-194.3-68.8-400.7-214.5-530.2c0,0,32.4,117.4,24.3,198.3c-8.1,80.9-64.7,186.2-64.7,186.2s-20.2-190.2-76.9-194.3
		c0,0,0,52.6-4,89s-40.5,105.2-16.2,161.9c24.3,56.7,60.7,206.4,64.7,222.6c4,16.2,12.2,60.7,12.2,60.7s8.1,16.2-16.2,36.4
		c-24.3,20.2-109.3,93.1-109.3,93.1s-64.8,36.5-24.3,48.6c40.5,12.1,271.2,12.1,271.2,12.1s259-20.2,416.9-145.7
		c157.8-125.5,283.3-311.7,283.3-311.7l-52.6,230.7c0,0-81,234.8-299.5,372.4c-218.6,137.6-631.4,380.5-1210.2,129.5
		C193.3,2104.5,84,1558.1,84,1558.1s-48.6-165.9-40.5-238.8c8.1-72.9-32.4-161.9,44.5-161.9c0,0,0-121.4,40.5-161.9l20.2-85
		c0,0,28.3-206.4,170-323.8c0,0,76.9-93.1,93.1-105.2c16.2-12.1,24.3-56.7,24.3-56.7l97.1-93.1l52.6-8.1c0,0,141.7-93.1,170-97.1
		C784.2,222.4,869.2,32.1,1184.9,40.3L1184.9,40.3z"/>
	<path class="st0" d="M1290.2,2157.1c-153.8-24.3-182.1-40.5-279.3-105.2c-97.1-64.7-137.6-145.7-137.6-145.7
		c80.9,40.5,178.1,16.2,194.3,12.2c16.2-4,113.3-60.7,137.6-85c24.3-24.3,20.2-44.5,16.2-68.8c-4-24.3-12.2-109.3-12.2-153.8
		c0-44.5-16.2-105.2-16.2-105.2l-36.4,81l-12.2-28.4c-12.1-28.3-20.2-72.9-24.3-105.2c-4-32.4-24.3-101.2-32.4-141.7
		c-8.1-40.5-24.3-141.7-24.3-141.7s-52.6-198.3-56.7-210.5c-4-12.2,8.1-36.4,8.1-36.4s20.2,56.7,68.8,89
		c48.6,32.4,101.2,36.4,101.2,36.4S1059.4,922.6,1019,853.8C978.5,785,954.2,659.5,942.1,615c-12.2-44.5,8.1-60.7,8.1-60.7
		l24.3,44.5l68.8,12.1c-80.9-267.1-44.5-356.2-36.4-388.6c8.1-32.4,89.1-133.6,89.1-133.6l-36.4,4C982.5,109.1,881.3,190,881.3,190
		s-93.1,64.8-97.1,141.7S715.4,453.1,683,493.6S594,643.3,561.6,724.3c-32.4,80.9-36.4,222.6-12.2,307.6c24.3,85,89,170,117.4,198.3
		s12.2,32.4-24.3,20.2c-36.4-12.1-101.2-44.5-133.6-80.9c-32.4-36.4-32.4-12.2-32.4,8.1c0,20.2,72.9,174,89,202.4
		c16.2,28.3-12.1,16.2-40.5-8.1c-28.3-24.3-85-93.1-85-93.1s12.1,40.5,44.5,113.3c32.4,72.9,190.2,283.3,190.2,283.3
		s149.7,93.1-4,52.6c-153.8-40.5-234.8-97.1-234.8-97.1l52.6,97.1c0,0,230.7,315.7,441.2,408.8c210.5,93.1,412.9,85,501.9,85
		c89,0,259-44.5,259-44.5S1443.9,2181.4,1290.2,2157.1z M1027.1,1663.3c36.4-72.9,80.9-20.2,89,40.5c8.5,63.4,12.2,113.3,12.2,113.3
		c-76.9-202.4-68.8-36.4-68.8-36.4C962.3,1764.5,1027.1,1663.3,1027.1,1663.3L1027.1,1663.3z M889.5,250.7
		c4-16.2,56.7-72.9,56.7-72.9s85-56.7,72.9-40.5c-12.1,16.2-80.9,161.9-80.9,161.9h-20.2L853,360C853,360,885.4,266.9,889.5,250.7
		L889.5,250.7z M844.9,606.9c8.1-24.3,32.4-44.5,32.4-44.5s-8.1,60.7,8.1,133.6c16.2,72.9,72.9,157.9,72.9,157.9
		s-32.4,8.1-68.8-16.2c-36.4-24.3-64.8-64.8-64.8-101.2C824.7,700,836.8,631.2,844.9,606.9z M727.6,716.2
		c4-52.6,44.5-109.3,44.5-109.3s-32.4,81-12.2,149.7c20.2,68.8,76.9,157.9,89.1,161.9c12.1,4,28.3-4,28.3-4l44.5,36.4l36.4,133.6
		c0,0-89.1-48.6-153.8-129.5C739.7,874,723.5,768.8,727.6,716.2L727.6,716.2z M735.7,1517.6c-48.6-80.9-113.3-198.3-113.3-198.3
		l125.5,28.4c0,0,153.8,348.1,165.9,356.2c12.2,8.1,4,36.4,4,36.4l-24.3-16.2C893.5,1724,784.2,1598.5,735.7,1517.6L735.7,1517.6z"
		/>
	<path class="st2" d="M533.3,445c0,0-36.4,60.7-16.2,85c0,0,121.4-145.7,194.3-170c0,0-157.9,157.9-218.6,319.8
		c-60.7,161.9-76.9,372.4-64.8,505.9c0,0-85-222.6-36.4-384.5c0,0-105.2,97.1-72.9,344c32.4,246.9,222.6,469.5,222.6,469.5
		s-109.3-56.7-157.9-105.2c-48.6-48.6-89.1-133.6-89.1-133.6s12.2,295.5,238.8,566.6c226.7,271.2,497.8,348.1,688.1,376.4
		c190.2,28.3,514-16.2,801.4-206.4c0,0-295.5,255-688.1,263.1c-392.6,8.1-720.5-194.3-866.2-360.2
		c-145.7-165.9-352.1-505.9-311.7-781.2c0,0,16.2,214.5,105.2,311.7c0,0-85-360.2-76.9-505.9c8.1-145.7,81-295.5,125.5-327.8
		c0,0-68.8,149.8-40.5,218.6c0,0,68.8-210.5,121.4-255s48.6-76.9,56.7-101.2C456.4,550.2,472.6,489.5,533.3,445L533.3,445z"/>
	<path class="st2" d="M982.5,1529.7l-8.1-194.3c0,0,4-56.6-8.1-97.1c-12.1-40.5,0-117.4,0-117.4l24.3,60.7c0,0,8.1,36.4,8.1,52.6
		s8.1,64.7,28.3,105.2c20.2,40.5,56.7,210.5,56.7,210.5S1031.1,1505.4,982.5,1529.7z M1002.8,1707.8c0,0,8.1-81,20.2-93.1
		c12.1-12.1,60.7-52.6,89.1,4c28.3,56.7,36.4,113.3,20.2,182.1C1132.3,1800.9,1116.1,1521.6,1002.8,1707.8L1002.8,1707.8z
		 M1419.7,368.1l44.5,68.8c0,0,4-44.5,60.7-68.8c56.7-24.3,129.5-20.2,129.5-20.2s-80.9-24.3-129.5-16.2
		C1476.3,339.8,1419.7,368.1,1419.7,368.1L1419.7,368.1z M1330.6,627.1c0,0,60.7-93.1,60.7-121.4l20.2-60.7l8.1,56.7
		c12.1,64.8,8.1,206.4,8.1,206.4s-4,133.6-28.3,202.4s-64.7,117.4-64.7,117.4s28.3-56.7,48.6-230.7s8.1-174,8.1-174
		s-40.5,105.2-72.9,137.6c0,0-12.1-76.9-36.4-129.5c-24.3-52.6-80.9-93.1-80.9-93.1s32.4,93.1,56.7,194.3s16.2,283.3,16.2,283.3
		s-40.5-161.9-93.1-352.1c-52.6-190.2-125.5-315.7-125.5-315.7s129.5,89,170,133.6C1265.9,525.9,1330.6,627.1,1330.6,627.1
		L1330.6,627.1z M954.2,566.4c0,0,93.1,149.8,56.7-170c0,0,80.9,291.4,85,299.5s16.2,56.7-16.2,28.3S954.2,566.4,954.2,566.4z
		 M1488.5,809.3c0,0-8.1-64.8,4-36.4c12.1,28.3,24.3,125.5,12.1,182.1c-12.1,56.7-97.1,133.6-97.1,133.6s-4,4,12.2-32.4
		c16.2-36.4,28.4-64.8,40.5-117.4C1472.3,886.2,1488.5,809.3,1488.5,809.3L1488.5,809.3z M1282.1,2035.6l174.1-133.5
		c0,0,8.1-16.2,4-40.5c-4-24.3-81-287.4-81-287.4s-16.2-28.3-4-40.5c12.2-12.2,16.2-56.7,12.2-76.9c-4-20.2,4-64.8,12.1-76.9
		c8.1-12.1,20.2-64.8,20.2-105.2c0-40.5-8.1-109.3-8.1-109.3s-24.3,93.1-28.3,129.5c-4.1,36.4-24.3,60.7-20.2,121.4
		s-20.2,89-20.2,89s-20.2,36.4-4,64.7c16.2,28.4,76.9,271.2,76.9,271.2s16.2,28.3-8.1,52.6
		C1383.2,1918.3,1282.1,2035.6,1282.1,2035.6L1282.1,2035.6z"/>
</g>
</svg>
