<?xml version="1.0" encoding="utf-8"?>
<!-- Generator: Adobe Illustrator 21.1.0, SVG Export Plug-In . SVG Version: 6.00 Build 0)  -->
<!DOCTYPE svg PUBLIC "-//W3C//DTD SVG 1.1//EN" "http://www.w3.org/Graphics/SVG/1.1/DTD/svg11.dtd">
<svg version="1.1" id="Layer_1" xmlns="http://www.w3.org/2000/svg" xmlns:xlink="http://www.w3.org/1999/xlink" x="0px" y="0px"
	 width="2584.4px" height="2586.6px" viewBox="0 0 2584.4 2586.6" style="enable-background:new 0 0 2584.4 2586.6;"
	 xml:space="preserve">
<style type="text/css">
	.st0{fill:#FFFFFF;}
	.st1{fill:#3C5195;}
	.st2{fill:#848C99;}
</style>
<g>
	<path class="st0" d="M1323.1,2586.6c-116.1,0-230.9-15.7-341.3-46.6c-66.6-18.1-134.4-42-201.5-71
		c-140.6-61-266.7-143.6-374.8-245.7c-86.4-81.7-161.5-175.8-223.2-279.7c-96.8-163.2-129.5-297.1-135.8-325.9
		c-2.3-8-13.3-46.8-23.8-94.3c-16.9-76.6-22.9-133.1-18.6-172.7c1.5-14,0-32.8-1.5-51l-0.1-0.8c-3.8-44.7-8.6-100.4,30.5-143
		l0.1-0.1c5.6-6.1,11.8-11.5,18.4-16.1c0.7-6.5,1.5-13,2.4-19.3c7.5-52.1,20.9-91.7,41-120.7l15.3-64.2
		c2.1-13.7,11.2-65.6,35.5-130.7c16.2-43.4,36.1-83.9,59-120.4c28-44.4,60.6-82.7,97-114c6.8-8.2,21.3-25.6,36.8-43.6
		c30.1-35.1,45.3-51.3,54.6-60c1.5-4.4,3.4-11,4.3-16c3-16.7,11.1-31.8,23.4-43.5l97-93c11.8-11.4,27.2-19,43.3-21.4l35.5-5.5
		c12.5-8.1,35.9-23.1,61.9-38.9c56.5-34.5,83.7-47.9,100.5-54.3c1.5-1.7,3.4-3.7,5.7-6.3l0.2-0.3c25.8-28.2,68.9-75.2,140.3-115.5
		C990.2,24.2,1091.2,0,1205.7,0c7.2,0,14.4,0.1,21.5,0.3c31.4,0.8,59.6,20.1,71.8,49.3c2,4.7,3.4,9.5,4.5,14.4
		c6.6-0.1,13.2-0.2,19.7-0.2c170.2,0,335.4,33.4,491,99.2c74.7,31.6,146.8,70.7,214.3,116.3c66.9,45.3,129.7,97.1,186.6,154
		c57.1,57.1,108.9,119.9,154,186.6c45.6,67.5,84.7,139.6,116.3,214.3c65.8,155.6,99.2,320.9,99.1,491.2c0,170.2-33.4,335.4-99.2,491
		c-31.6,74.7-70.7,146.8-116.3,214.3c-45.3,66.9-97.1,129.7-154,186.6c-57.1,57.1-119.9,108.9-186.6,154
		c-67.5,45.6-139.6,84.7-214.3,116.3C1658.5,2553.2,1493.3,2586.6,1323.1,2586.6z M1574.6,2039c42.9,0.8,82.2,1.1,96.2,1.1
		c7.3-0.7,33-3.4,68.7-9.7c2.8-15.1,5.8-33.7,8.5-55.4c6.6-54.3,12.2-138.2,0.8-229.5c-9-71.8-22.8-163.3-49.9-248.9
		c-21.7,68.8-53.5,127.9-55.4,131.3c-14,25.8-41,41.9-70.3,41.9c-1.3,0-2.6,0-3.9-0.1c13.8,43.1,30,102.5,48.5,177.3l0.7,2.9
		c4,15.8,10.1,48.4,12.4,60.7c3.6,13.3,4.4,27.7,2.3,41.8l0,0c-2.9,19.5-13.1,48.4-44.9,75.2
		C1584.7,2030.5,1580.1,2034.4,1574.6,2039z M1985,1787.7l-0.1,1.4c-1,17.6-5.6,91.3-13.3,167.3c26.4-13.7,49.8-28.6,69.9-44.5
		c43.4-34.5,88.6-77.5,134.5-128.1c-2.9-43.1-12.8-147.6-43.4-242.1c-35.7-110-100.3-188.2-162.8-263.7c-8.2-9.8-15.2-18.3-21.4-26
		c-21.8-26.6-66.4-65.5-125.2-110c-0.3,14.9-4.7,29.2-12.5,41.4c17,26.1,35,55,53.7,86.1c31.1,51.6,56.8,111.4,76.5,177.8
		c15.3,51.9,27,107.6,34.5,165.7c11.8,91,10.2,159.6,9.7,173.7V1787.7z M2174.4,1102.8c9,9.2,35.5,37.9,67.4,86.8
		c38.2,58.6,70.5,124.4,96,196.2c1.2-20.2,1.8-40.4,1.8-60.7c0-137.2-26.9-270.3-79.9-395.5c-23.3-55.1-51.4-107.9-83.5-157.5
		c-30.1,9.9-57.5,17.3-81.6,22.1c-65.3,13.1-134.1,25.9-193.7,25.9c-7,0-15.2-0.4-24.4-1.1c7,5.2,13.9,10.3,20.6,15.6
		C2036.5,942.1,2156.7,1081.9,2174.4,1102.8z M1683.6,529c5.3,2.6,10.7,5.1,16,7.6c49.8,22.9,126.3,51.7,208.4,59l0.1,0
		c18.8,1.7,38.1,2.6,57.2,2.6c23.9,0,45.5-1.4,64.6-3.7c-64-62-135.3-114.9-212.5-158c-7.1,10.6-16.7,19.5-28.2,25.7
		c-49.3,26.8-91.2,52.8-99.3,59.5C1688.4,523.3,1686.3,525.7,1683.6,529z"/>
	<path class="st0" d="M2448.5,849.7c-30.6-72.4-68.5-142.2-112.6-207.5c-43.7-64.7-93.9-125.5-149.1-180.7
		c-55.3-55.3-116.1-105.4-180.7-149.1c-65.3-44.1-135.1-82-207.5-112.6c-150.6-63.7-310.6-96-475.4-96c-22.5,0-44.9,0.6-67.1,1.8
		c9.3-11.3,11.7-26.9,6-40.6c-6.1-14.6-20.1-24.3-35.9-24.7c-6.8-0.2-13.7-0.3-20.5-0.3c-107.6,0-201.9,22.5-280.6,66.9
		c-65.9,37.2-106.3,81.3-130.5,107.7c-4.5,5-9.9,10.9-13.4,14.3c-14.1,4-39.4,15.6-101.7,53.6c-29,17.7-55.7,34.9-68.1,43l-44.1,6.8
		c-8.1,1.2-15.7,5-21.6,10.7l-97.1,93.1c-6.1,5.8-10.2,13.4-11.7,21.7c-2,10.9-7.1,27.5-10.8,33.2c-5.4,4.3-17,14.9-57.1,61.7
		c-16.9,19.7-32.7,38.7-38.6,45.8c-34.4,29.1-65.2,65.1-91.7,107.1c-21.4,34-40.1,72.1-55.4,113.1c-23.5,62.8-32.1,113.4-33.7,124.3
		l-17.6,73.7c-18.7,23.9-31.3,59.8-38.4,109.3c-2,13.9-3.3,27.1-4.1,38.3c-10.5,4.2-19.5,10.5-27,18.6
		c-27.1,29.5-23.6,71.7-20.1,112.6c1.7,20.4,3.5,41.4,1.5,59.5c-3.8,34.6,2.2,88.3,17.9,159.7c10.2,46.4,21.1,84.9,23.5,93.1
		c3.8,17.8,34.5,151.9,131.4,315.3c59.8,100.7,132.6,191.9,216.3,271c104.7,98.9,226.9,179,363.2,238.1
		c65.4,28.3,131.1,51.5,196.3,69.2c106.9,30,217.6,45.2,330.6,45.2c164.9,0,324.8-32.3,475.4-96c72.4-30.6,142.2-68.5,207.5-112.6
		c64.7-43.7,125.5-93.9,180.7-149.1c55.3-55.3,105.4-116.1,149.1-180.7c44.1-65.3,82-135.1,112.6-207.5
		c63.7-150.6,96-310.6,96-475.4C2544.5,1160.3,2512.2,1000.3,2448.5,849.7z M1678.3,1348.5c19.2,33.1,35.9,70,50.4,111
		c33.9,96.3,49.7,200.8,59.8,281.1c11.9,95.6,6.1,182.9-0.8,239.3c-4.7,38.1-10.5,67.6-14.3,84.7c-53.3,10.9-92.8,14.8-100.7,15.5
		c-10,0-62.1-0.2-117.7-1.5c-37-0.9-64.4-2-84.6-3.2c26-22.3,74.9-64,92-78.4c22.1-18.5,29.2-37.6,31.1-50.4
		c1.7-11.2,0.2-20.5-1.7-26.9c-2-10.9-8.4-45.2-12.2-60.2l-0.7-2.9c-19-77-45.8-178.6-66.1-225.8c-11.7-27.3-0.5-65.8,8.6-96.8
		c0.5-1.7,1-3.4,1.5-5.2c7.3,35.1,10.5,64.9,10.5,65.2c1.9,17.4,14.9,31.6,32.1,35c2.6,0.5,5.2,0.8,7.7,0.8c14.5,0,28.1-7.9,35.2-21
		c2.5-4.6,60.6-113.3,69.3-201.2C1679.5,1389.1,1679.5,1368.8,1678.3,1348.5z M1935.6,1618.2c-7.3-56.1-18.5-109.8-33.2-159.5
		c-18.6-62.8-42.9-119.6-72.4-168.6c-26.7-44.5-50.4-81.7-71.3-112.6c0.4-0.1,0.7-0.3,1.1-0.5c15.2-7,24.5-22.7,23.2-39.4
		c-0.6-8.3-2.4-30.7-28-93.6c81.6,55.8,182.4,131.6,224.3,182.7c7,8.6,14.2,17.3,21.2,25.7c65,78.6,132.1,159.8,170.1,277
		c36.7,113.3,44.8,237.4,46.3,268.7c-51.2,57.6-101.8,106.4-150.5,145.1c-38,30.2-85.8,56.4-142.6,78.3
		c13.3-99.1,20.8-228.2,21.2-235c0-0.2,0-0.3,0-0.5C1945.1,1783.1,1948,1713.6,1935.6,1618.2z M1596,307.5
		c-4.8-0.3-9.9-0.5-15.1-0.5c-42.2,0-91,10.7-121.1,18.5c-13.9-16.9-32.4-34.8-55.6-53.9c72.2,5.4,143.1,18.2,212.1,38.1
		C1609.3,308.7,1602.5,307.9,1596,307.5z M2379.7,1325.1c0,93.6-12,185.4-35.9,274.2c-5.6-51-16.3-119.1-36.6-179.9
		c-60.6-181.8-148.8-276-162.3-289.6c-13.9-16.5-134.4-157.3-272.2-263.6c-55.3-42.7-112.6-78.6-162.7-106.8
		c0.2-2.8,0.1-5.7-0.2-8.5c64.9,14.7,151.5,29.2,191.1,29.2c56,0,122.5-12.4,185.9-25.1c38.1-7.6,78.5-21,105.5-30.7
		c41.1,59.3,75.9,122.7,104.3,189.7C2351.7,1044.1,2379.7,1182.5,2379.7,1325.1z M2070.2,578c13.6,13.6,26.8,27.6,39.7,41.9
		c-33.7,9.3-82.4,18.3-144.5,18.3c-19.9,0-40.4-0.9-60.9-2.8c-87.7-7.8-168.9-38.3-221.5-62.5c-24-11-44.4-21.8-60.2-30.7
		c15.2-20.5,31.2-41,39.2-49.1c9.8-9.7,63.8-41.9,108.2-66c13.5-7.3,21.7-21.8,20.9-37.2c-0.2-4.9-1.4-9.5-3.2-13.9
		C1892.4,427.2,1987.2,495,2070.2,578z"/>
	<path class="st1" d="M2462.1,1325.1c0,629-509.9,1139-1139,1139s-1139-509.9-1139-1139c0-629,509.9-1139,1139-1139
		C1952.2,186.2,2462.1,696.1,2462.1,1325.1L2462.1,1325.1z"/>
	<path d="M2504.5,1325.1c0,652.5-528.9,1181.4-1181.4,1181.4c-326.2,0-621.6-132.2-835.4-346s-346-509.1-346-835.4
		c0-652.5,528.9-1181.4,1181.4-1181.4c326.2,0,621.6,132.2,835.4,346C2372.3,703.6,2504.5,998.9,2504.5,1325.1L2504.5,1325.1z
		 M2419.7,1325.1c0-302.8-122.7-577-321.2-775.4c-198.4-198.4-472.6-321.1-775.4-321.1c-605.6,0-1096.6,491-1096.6,1096.6
		c0,302.8,122.7,576.9,321.2,775.4c198.4,198.5,472.6,321.2,775.4,321.2C1928.7,2421.7,2419.7,1930.7,2419.7,1325.1L2419.7,1325.1z"
		/>
	<path d="M1225,80.3c0,0-52.6,52.6-52.6,89.1c0,0,222.6,117.4,271.2,202.4c0,0,89-28.3,149.8-24.3c60.7,4,157.8,44.5,157.8,44.5
		s-97.1,52.6-117.4,72.9S1565,554,1565,554s153.8,105.2,335.9,121.4s283.3-40.5,283.3-40.5l36.5,16.2l-12.2,24.3
		c0,0-68.8,28.3-129.5,40.5s-125.5,24.3-178.1,24.3s-198.3-28.3-242.9-44.5l12.1,60.7c0,0-56.7-60.7-121.4-60.7V724
		c0,0,157.8,64.8,299.5,174c141.7,109.3,267.1,259,267.1,259s91.8,89.1,153.8,275.2c36.4,109.3,40.5,246.9,40.5,246.9l36.4,20.2
		l-76.9,165.9l-12.1-60.7c0,0-4-149.8-48.6-287.4c-44.5-137.6-125.5-226.7-198.3-315.7c-72.9-89-299.5-238.8-348.1-263.1
		c0,0,76.9,149.7,80.9,202.4c0,0-64.7-64.8-125.5-76.9c0,0,56.7,44.5,178.1,246.9s109.3,473.6,109.3,473.6s-12.2,210.5-32.4,299.5
		c-20.3,89-44.5,109.3-44.5,109.3l-20.2-101.2c0,0,44.5-161.9,20.2-356.2s-68.8-400.7-214.5-530.2c0,0,32.4,117.4,24.3,198.3
		S1573,1590,1573,1590s-20.2-190.2-76.9-194.3c0,0,0,52.6-4,89s-40.5,105.2-16.2,161.9c24.3,56.7,60.7,206.4,64.7,222.6
		s12.2,60.7,12.2,60.7s8.1,16.2-16.2,36.4c-24.3,20.2-109.3,93.1-109.3,93.1s-64.8,36.5-24.3,48.6s271.2,12.1,271.2,12.1
		s259-20.2,416.9-145.7c157.8-125.5,283.3-311.7,283.3-311.7l-52.6,230.7c0,0-81,234.8-299.5,372.4
		c-218.6,137.6-631.4,380.5-1210.2,129.5c-578.7-250.8-688-797.2-688-797.2s-48.6-165.9-40.5-238.8s-32.4-161.9,44.5-161.9
		c0,0,0-121.4,40.5-161.9l20.2-85c0,0,28.3-206.4,170-323.8c0,0,76.9-93.1,93.1-105.2c16.2-12.1,24.3-56.7,24.3-56.7l97.1-93.1
		l52.6-8.1c0,0,141.7-93.1,170-97.1C824.3,262.4,909.3,72.1,1225,80.3L1225,80.3z"/>
	<path class="st0" d="M1330.3,2197.1c-153.8-24.3-182.1-40.5-279.3-105.2c-97.1-64.7-137.6-145.7-137.6-145.7
		c80.9,40.5,178.1,16.2,194.3,12.2c16.2-4,113.3-60.7,137.6-85c24.3-24.3,20.2-44.5,16.2-68.8s-12.2-109.3-12.2-153.8
		s-16.2-105.2-16.2-105.2l-36.4,81l-12.2-28.4c-12.1-28.3-20.2-72.9-24.3-105.2c-4-32.4-24.3-101.2-32.4-141.7
		s-24.3-141.7-24.3-141.7s-52.6-198.3-56.7-210.5c-4-12.2,8.1-36.4,8.1-36.4s20.2,56.7,68.8,89c48.6,32.4,101.2,36.4,101.2,36.4
		s-125.4-125.5-165.8-194.3c-40.5-68.8-64.8-194.3-76.9-238.8c-12.2-44.5,8.1-60.7,8.1-60.7l24.3,44.5l68.8,12.1
		c-80.9-267.1-44.5-356.2-36.4-388.6s89.1-133.6,89.1-133.6l-36.4,4c-77.1,16.4-178.3,97.3-178.3,97.3s-93.1,64.8-97.1,141.7
		s-68.8,121.4-101.2,161.9s-89,149.7-121.4,230.7c-32.4,80.9-36.4,222.6-12.2,307.6c24.3,85,89,170,117.4,198.3s12.2,32.4-24.3,20.2
		c-36.4-12.1-101.2-44.5-133.6-80.9c-32.4-36.4-32.4-12.2-32.4,8.1c0,20.2,72.9,174,89,202.4c16.2,28.3-12.1,16.2-40.5-8.1
		c-28.3-24.3-85-93.1-85-93.1s12.1,40.5,44.5,113.3c32.4,72.9,190.2,283.3,190.2,283.3s149.7,93.1-4,52.6
		C557,1727.5,476,1670.9,476,1670.9l52.6,97.1c0,0,230.7,315.7,441.2,408.8c210.5,93.1,412.9,85,501.9,85s259-44.5,259-44.5
		S1484,2221.4,1330.3,2197.1z M1067.2,1703.3c36.4-72.9,80.9-20.2,89,40.5c8.5,63.4,12.2,113.3,12.2,113.3
		c-76.9-202.4-68.8-36.4-68.8-36.4C1002.4,1804.5,1067.2,1703.3,1067.2,1703.3L1067.2,1703.3z M929.6,290.7
		c4-16.2,56.7-72.9,56.7-72.9s85-56.7,72.9-40.5s-80.9,161.9-80.9,161.9h-20.2l-65,60.8C893.1,400,925.5,306.9,929.6,290.7
		L929.6,290.7z M885,646.9c8.1-24.3,32.4-44.5,32.4-44.5s-8.1,60.7,8.1,133.6c16.2,72.9,72.9,157.9,72.9,157.9s-32.4,8.1-68.8-16.2
		c-36.4-24.3-64.8-64.8-64.8-101.2C864.8,740,876.9,671.2,885,646.9z M767.7,756.2c4-52.6,44.5-109.3,44.5-109.3
		s-32.4,81-12.2,149.7c20.2,68.8,76.9,157.9,89.1,161.9c12.1,4,28.3-4,28.3-4l44.5,36.4l36.4,133.6c0,0-89.1-48.6-153.8-129.5
		C779.8,914,763.6,808.8,767.7,756.2L767.7,756.2z M775.8,1557.6c-48.6-80.9-113.3-198.3-113.3-198.3l125.5,28.4
		c0,0,153.8,348.1,165.9,356.2c12.2,8.1,4,36.4,4,36.4l-24.3-16.2C933.6,1764,824.3,1638.5,775.8,1557.6L775.8,1557.6z"/>
	<path class="st2" d="M573.4,485c0,0-36.4,60.7-16.2,85c0,0,121.4-145.7,194.3-170c0,0-157.9,157.9-218.6,319.8
		c-60.7,161.9-76.9,372.4-64.8,505.9c0,0-85-222.6-36.4-384.5c0,0-105.2,97.1-72.9,344c32.4,246.9,222.6,469.5,222.6,469.5
		s-109.3-56.7-157.9-105.2c-48.6-48.6-89.1-133.6-89.1-133.6s12.2,295.5,238.8,566.6c226.7,271.2,497.8,348.1,688.1,376.4
		c190.2,28.3,514-16.2,801.4-206.4c0,0-295.5,255-688.1,263.1s-720.5-194.3-866.2-360.2s-352.1-505.9-311.7-781.2
		c0,0,16.2,214.5,105.2,311.7c0,0-85-360.2-76.9-505.9s81-295.5,125.5-327.8c0,0-68.8,149.8-40.5,218.6c0,0,68.8-210.5,121.4-255
		s48.6-76.9,56.7-101.2C496.5,590.2,512.7,529.5,573.4,485L573.4,485z"/>
	<path class="st2" d="M1022.6,1569.7l-8.1-194.3c0,0,4-56.6-8.1-97.1s0-117.4,0-117.4l24.3,60.7c0,0,8.1,36.4,8.1,52.6
		s8.1,64.7,28.3,105.2c20.2,40.5,56.7,210.5,56.7,210.5S1071.2,1545.4,1022.6,1569.7z M1042.9,1747.8c0,0,8.1-81,20.2-93.1
		c12.1-12.1,60.7-52.6,89.1,4c28.3,56.7,36.4,113.3,20.2,182.1C1172.4,1840.9,1156.2,1561.6,1042.9,1747.8L1042.9,1747.8z
		 M1459.8,408.1l44.5,68.8c0,0,4-44.5,60.7-68.8s129.5-20.2,129.5-20.2s-80.9-24.3-129.5-16.2
		C1516.4,379.8,1459.8,408.1,1459.8,408.1L1459.8,408.1z M1370.7,667.1c0,0,60.7-93.1,60.7-121.4l20.2-60.7l8.1,56.7
		c12.1,64.8,8.1,206.4,8.1,206.4s-4,133.6-28.3,202.4s-64.7,117.4-64.7,117.4s28.3-56.7,48.6-230.7s8.1-174,8.1-174
		s-40.5,105.2-72.9,137.6c0,0-12.1-76.9-36.4-129.5s-80.9-93.1-80.9-93.1s32.4,93.1,56.7,194.3s16.2,283.3,16.2,283.3
		s-40.5-161.9-93.1-352.1S1095.6,388,1095.6,388s129.5,89,170,133.6C1306,565.9,1370.7,667.1,1370.7,667.1L1370.7,667.1z
		 M994.3,606.4c0,0,93.1,149.8,56.7-170c0,0,80.9,291.4,85,299.5s16.2,56.7-16.2,28.3S994.3,606.4,994.3,606.4z M1528.6,849.3
		c0,0-8.1-64.8,4-36.4c12.1,28.3,24.3,125.5,12.1,182.1c-12.1,56.7-97.1,133.6-97.1,133.6s-4,4,12.2-32.4s28.4-64.8,40.5-117.4
		C1512.4,926.2,1528.6,849.3,1528.6,849.3L1528.6,849.3z M1322.2,2075.6l174.1-133.5c0,0,8.1-16.2,4-40.5c-4-24.3-81-287.4-81-287.4
		s-16.2-28.3-4-40.5s16.2-56.7,12.2-76.9c-4-20.2,4-64.8,12.1-76.9s20.2-64.8,20.2-105.2c0-40.5-8.1-109.3-8.1-109.3
		s-24.3,93.1-28.3,129.5c-4.1,36.4-24.3,60.7-20.2,121.4s-20.2,89-20.2,89s-20.2,36.4-4,64.7c16.2,28.4,76.9,271.2,76.9,271.2
		s16.2,28.3-8.1,52.6C1423.3,1958.3,1322.2,2075.6,1322.2,2075.6L1322.2,2075.6z"/>
</g>
</svg>
