<?xml version="1.0" encoding="utf-8"?>
<!-- Generator: Adobe Illustrator 21.1.0, SVG Export Plug-In . SVG Version: 6.00 Build 0)  -->
<!DOCTYPE svg PUBLIC "-//W3C//DTD SVG 1.1//EN" "http://www.w3.org/Graphics/SVG/1.1/DTD/svg11.dtd">
<svg version="1.1" id="Layer_1" xmlns="http://www.w3.org/2000/svg" xmlns:xlink="http://www.w3.org/1999/xlink" x="0px" y="0px"
	 width="306px" height="213px" viewBox="0 0 306 213" style="enable-background:new 0 0 306 213;" xml:space="preserve">
<style type="text/css">
	.st0{fill:#FFFFFF;}
	.st1{fill:#6CADDF;}
	.st2{fill:none;stroke:#FDB927;stroke-width:0.398;}
	.st3{fill:#041E41;}
	.st4{fill:none;stroke:#041E41;stroke-width:5.700000e-02;}
	.st5{fill:#FDB927;}
	.st6{fill:none;stroke:#FFFFFF;stroke-width:0.343;}
</style>
<title>Untitled-1</title>
<g>
	<path class="st0" d="M73.9,56.9c22.2-13.5,35-13.6,35-13.6l0.9,1.1l49.4-40.4l47.5,39.6l1.6-1.6c10.2,2.1,20,6.1,28.8,11.8
		c13.1,8,25.2,17.4,36.3,28.1h-11.1l7.8,9.6l-0.5,2.1c5.7-0.1,11.4,0.1,17.1,0.8c3.4,0.8,6.7,2.3,9.6,4.2l6.6-2.3v45.6h-18.2
		c3.9,2.3,7.6,5,10.9,8.1c1.6,1.7,3,3.5,4.1,5.5c1.8,3.3,2.8,7.1,2.7,10.9v24c-0.3,3.3-1.2,6.6-2.8,9.6c-2.4,4.1-6.1,7.2-10.5,8.8
		c-5.7,1.6-11.7,1.7-17.4,0.2c-2.4-1-4.7-2.3-6.8-3.8l-3.9,3.4l-9.1-4.9v6.1H223l-8.7-6.8v6.8h-40.2c0,0-3.1-3.9-4.7-6.1
		c-3.1,2.8-6.8,4.9-10.8,5.9c-3,0.5-6,0.5-9,0.1c-3.3-0.6-6.4-1.9-9-4c-2-1.8-3.9-3.7-5.7-5.8c-5.5,3.4-12,8.1-16.4,9.5
		c-4.5,1-9.2,0.8-13.6-0.6c-4.2-2.3-7.9-5.3-11-9c0,0-13.1,9.1-17,10c-4,0.9-8.1,0.7-12-0.6c-2.9-1.1-5.5-2.8-7.7-4.9
		c-3.8,2.3-9.2,5.6-9.2,5.6H30l-0.9-1.1l-1.9,1.1H3.3v-23.1c0,0,3-0.1,3-2.7v-63.5c0-2.6-3.3-2.7-3.3-2.7V94.2h46.5l-3.1-6.4
		l5.8-6.1h-9.9C51.9,72.3,62.5,64,73.9,56.9"/>
	<path class="st1" d="M71.9,213c-2.7,0-5.4-0.4-8.1-1.3l-0.2-0.1c-2.5-1-4.8-2.3-7-4c-3.5,2.1-7.3,4.4-7.3,4.4l-0.7,0.4h-20
		l-0.2-0.2l-0.4,0.2H0.3v-28.9l2.9-0.1c0,0,0.1,0,0.1,0l0-62.8c-0.1,0-0.3-0.1-0.3-0.1l-3,0V91.2h44.7l-1.9-4l2.4-2.5H34.9l5.3-5.2
		c9.8-9.5,20.6-18,32.1-25.2l0,0c22.6-13.8,36-14.1,36.6-14.1l1.3,0L159.3,0l47.3,39.4l0.8-0.8l1.6,0.3c10.6,2.2,20.6,6.3,29.8,12.2
		c13.2,8.1,25.6,17.7,36.7,28.4l5.4,5.2h-12.3l4.6,5.6c4.6,0,9.3,0.3,13.9,0.9l0.4,0.1c3.3,0.8,6.4,2.1,9.3,3.9L306,92v52.8h-11.5
		c1.1,0.9,2.2,1.9,3.3,2.8l0.1,0.1c1.8,1.8,3.3,3.9,4.5,6.1c2.1,3.8,3.2,8.1,3.1,12.4l0,24.2c-0.3,3.8-1.4,7.4-3.1,10.7l-0.1,0.1
		c-2.7,4.7-7,8.2-12,10.1l-0.2,0.1c-6.2,1.8-12.8,1.9-19,0.2l-0.4-0.1c-1.9-0.8-3.7-1.7-5.4-2.8l-3.7,3.2l-6.5-3.5v4.1h-33.2
		l-4.7-3.7v3.7h-44.6l-0.9-1.1c-0.1-0.1-1.5-1.9-2.9-3.7c-2.9,2.1-6.1,3.6-9.5,4.5l-0.3,0.1c-3.3,0.5-6.7,0.6-10,0.1
		c-3.8-0.7-7.4-2.3-10.4-4.6l-0.1-0.1c-1.5-1.3-2.9-2.7-4.3-4.2c-0.9,0.6-1.8,1.2-2.7,1.7c-4.5,2.9-8.7,5.6-12.2,6.7l-0.3,0.1
		c-5,1.1-10.3,0.8-15.2-0.7l-0.3-0.1l-0.3-0.1c-3.7-2-7.1-4.6-10-7.7c-4.2,2.9-12.5,8.2-16,8.9C75.6,212.8,73.7,213,71.9,213z
		 M65.8,206c3.3,1.1,6.9,1.3,10.3,0.5c2.1-0.4,9.9-5.3,16-9.5l2.3-1.6l1.8,2.1c2.8,3.3,6.1,6,9.8,8.1c3.8,1.1,7.8,1.3,11.7,0.5
		c2.7-0.9,6.7-3.5,10.6-6c1.7-1.1,3.4-2.2,5-3.2l2.2-1.3l1.7,2c1.6,1.9,3.4,3.8,5.3,5.4c2.2,1.7,4.8,2.9,7.6,3.4
		c2.6,0.4,5.3,0.4,7.9,0c3.5-1,6.7-2.8,9.4-5.2l2.5-2.3l2,2.7c1,1.4,2.7,3.6,3.8,4.9h35.7v-9.9l12.8,9.9h25.1v-8.2l11.7,6.2l4.2-3.6
		l1.9,1.4c1.9,1.4,3.9,2.5,6,3.4c5.1,1.3,10.4,1.3,15.5-0.2c3.7-1.4,6.8-4,8.8-7.4c1.3-2.6,2.2-5.4,2.4-8.3v-23.8
		c0-3.3-0.8-6.6-2.4-9.4c-1-1.7-2.2-3.4-3.6-4.9c-3.1-2.9-6.6-5.5-10.3-7.6l-9.7-5.6H300v-38.4l-4,1.4l-1.2-0.8
		c-2.6-1.7-5.4-3-8.5-3.8c-5.5-0.6-11-0.9-16.5-0.8l-3.9,0.1l1-4.4l-10.9-13.3h9.8c-9.4-8.4-19.5-15.9-30.2-22.5
		c-8.1-5.2-16.9-8.9-26.3-11l-2.4,2.3L159.3,7.8l-49.8,40.7l-1.8-2.2C104,46.8,92.6,49,75.5,59.4c-9,5.7-17.6,12.1-25.6,19.3h9.3
		L50,88.4l4.3,8.8H6v18.1c1.9,0.9,3.3,2.6,3.3,5v63.5c0,2.4-1.3,4-3,4.9v17.8h20.1l3.3-1.9l1.7,1.9H47c1.6-1,5.6-3.4,8.5-5.1
		l1.9-1.1l1.6,1.5C61,203.6,63.3,205,65.8,206z"/>
	<path class="st1" d="M73.9,56.9c22.2-13.5,35-13.6,35-13.6l0.9,1.1l49.4-40.4l47.5,39.6l1.6-1.6c10.2,2.1,20,6.1,28.8,11.8
		c13.1,8,25.2,17.4,36.3,28.1h-11.1l7.8,9.6l-0.5,2.1c5.7-0.1,11.4,0.1,17.1,0.8c3.4,0.8,6.7,2.3,9.6,4.2l6.6-2.3v45.6h-18.2
		c3.9,2.3,7.6,5,10.9,8.1c1.6,1.7,3,3.5,4.1,5.5c1.8,3.3,2.8,7.1,2.7,10.9v24c-0.3,3.3-1.2,6.6-2.8,9.6c-2.4,4.1-6.1,7.2-10.5,8.8
		c-5.7,1.6-11.7,1.7-17.4,0.2c-2.4-1-4.7-2.3-6.8-3.8l-3.9,3.4l-9.1-4.9v6.1H223l-8.7-6.8v6.8h-40.2c0,0-3.1-3.9-4.7-6.1
		c-3.1,2.8-6.8,4.9-10.8,5.9c-3,0.5-6,0.5-9,0.1c-3.3-0.6-6.4-1.9-9-4c-2-1.8-3.9-3.7-5.7-5.8c-5.5,3.4-12,8.1-16.4,9.5
		c-4.5,1-9.2,0.8-13.6-0.6c-4.2-2.3-7.9-5.3-11-9c0,0-13.1,9.1-17,10c-4,0.9-8.1,0.7-12-0.6c-2.9-1.1-5.5-2.8-7.7-4.9
		c-3.8,2.3-9.2,5.6-9.2,5.6H30l-0.9-1.1l-1.9,1.1H3.3v-23.1c0,0,3-0.1,3-2.7v-63.5c0-2.6-3.3-2.7-3.3-2.7V94.2h46.5l-3.1-6.4
		l5.8-6.1h-9.9C51.9,72.3,62.5,64,73.9,56.9"/>
	<path class="st2" d="M265.2,91.4c0,0-7.3-10.3-25.1-23.7c-17.8-13.4-29.7-21-29.7-21l-3.1,3l3.1-3c0,0,11.3,1.7,28.3,12.8
		c8.5,5.5,16.6,11.5,24.3,18h-11.1 M51.2,88.4c7.5-7.5,15.5-14.3,24-20.6c11.7-8.1,31.3-20.6,31.3-20.6l2.8,3l-2.8-3
		c-12.3,2.8-24,7.9-34.3,15.3c-18.2,12.3-20,15.3-20,15.3h10.4"/>
	<polygon class="st3" points="159,8.5 67.4,82.2 254.3,87.2 	"/>
	<polygon class="st4" points="159,8.5 67.4,82.2 254.3,87.2 	"/>
	<polygon class="st0" points="114.1,48.5 159,12.2 205.2,51 177,39.6 176.9,51.5 166,41.4 159.7,57.7 151.8,40.9 142.6,47.8 
		139.3,38.7 	"/>
	<path class="st3" d="M8.2,98.2h57c0,0,56.1-13.4,91-13.4c34.9,0,96.6,10.3,96.6,10.3l30.2,2.2l0.8,40.9l-8.3-2.5l-5.7,2.1
		l21.3,26.5l-3.4,25.9l-20.2,8.1L261,203l-16.8-7.8L226.7,206l-2.8,0l-15.4-11.1l-33,11.1l-8.3-11.2l-25.2-4.7l-21.8,14.2
		l-19.5-13.4l-22.3,13.5L61,194.1L45.6,206L35,197.3L24.6,206l-9.7-12.8l-3.7-88.3L8.2,98.2z"/>
	<path class="st4" d="M8.2,98.2h57c0,0,56.1-13.4,91-13.4c34.9,0,96.6,10.3,96.6,10.3l30.2,2.2l0.8,40.9l-8.3-2.5l-5.7,2.1
		l21.3,26.5l-3.4,25.9l-20.2,8.1L261,203l-16.8-7.8L226.7,206l-2.8,0l-15.4-11.1l-33,11.1l-8.3-11.2l-25.2-4.7l-21.8,14.2
		l-19.5-13.4l-22.3,13.5L61,194.1L45.6,206L35,197.3L24.6,206l-9.7-12.8l-3.7-88.3L8.2,98.2z"/>
	<path class="st5" d="M6.4,98.2h15.5L34.8,158l0.2-35.9c0,0,0.1-4.2-1.1-5.3c-1.2-1.2-2.6-2.7-2.6-2.7V98.2h17.6V114
		c0,0-1.6,1.9-2.3,2.7c-0.8,0.8-0.9,5.3-0.9,5.3V206H32.6l-12.3-58.4v33.2c0.2,2,0.7,4,1.4,5.9c0.8,1.1,1.7,2.1,2.8,3V206H6.4v-16.4
		c0.9-0.5,1.7-1.2,2.5-1.9c1.1-1.1,1.2-5.3,1.2-5.3v-60.4c-0.2-1.8-0.7-3.6-1.4-5.3c-0.7-1-1.4-1.9-2.3-2.7L6.4,98.2z"/>
	<path class="st6" d="M6.4,98.2h15.5L34.8,158l0.2-35.9c0,0,0.1-4.2-1.1-5.3c-1.2-1.2-2.6-2.7-2.6-2.7V98.2h17.6V114
		c0,0-1.6,1.9-2.3,2.7c-0.8,0.8-0.9,5.3-0.9,5.3V206H32.6l-12.3-58.4v33.2c0.2,2,0.7,4,1.4,5.9c0.8,1.1,1.7,2.1,2.8,3V206H6.4v-16.4
		c0.9-0.5,1.7-1.2,2.5-1.9c1.1-1.1,1.2-5.3,1.2-5.3v-60.4c-0.2-1.8-0.7-3.6-1.4-5.3c-0.7-1-1.4-1.9-2.3-2.7L6.4,98.2z"/>
	<path class="st5" d="M50.4,123.6v15.9c0.8,0.1,1.6,0.4,2.2,0.9c0.9,1.5,1.2,3.3,0.9,5v42.8c0,0,1.4,17.9,17.4,17.9
		c16,0,17.4-18.2,17.4-18.2v-56.5c0,0-0.2-6.1,0.8-7.2c0.9-1.1,2.5-3.3,2.5-3.3v-16.5c0,0-4.2,1.2-10.9,4c-6.7,2.8-8.6,3.6-8.6,3.6
		v16.4c0,0,1.6,0.6,1.6,1.6v50c0,0,0.1,4.1-2.9,4.1c-3,0-2.9-2.9-2.9-4v-44.1c-0.2-1.5-0.1-2.9,0.3-4.4c0.5-0.9,0.9-1.8,1.2-2.8
		v-15.7c0,0-4.7,2-11.1,5.6C52.1,122.4,50.4,123.6,50.4,123.6"/>
	<path class="st6" d="M50.4,123.6v15.9c0.8,0.1,1.6,0.4,2.2,0.9c0.9,1.5,1.2,3.3,0.9,5v42.8c0,0,1.4,17.9,17.4,17.9
		c16,0,17.4-18.2,17.4-18.2v-56.5c0,0-0.2-6.1,0.8-7.2c0.9-1.1,2.5-3.3,2.5-3.3v-16.5c0,0-4.2,1.2-10.9,4c-6.7,2.8-8.6,3.6-8.6,3.6
		v16.4c0,0,1.6,0.6,1.6,1.6v50c0,0,0.1,4.1-2.9,4.1c-3,0-2.9-2.9-2.9-4v-44.1c-0.2-1.5-0.1-2.9,0.3-4.4c0.5-0.9,0.9-1.8,1.2-2.8
		v-15.7c0,0-4.7,2-11.1,5.6C52.1,122.4,50.4,123.6,50.4,123.6z"/>
	<path class="st5" d="M127.9,106.7l2.6-1.5v32.9h-15.2v-13.3c0,0,0.5-4-2.8-4c-1.8-0.1-3.4,1.4-3.4,3.2c0,0.2,0,0.4,0,0.5v54.7
		c0,0-0.3,4.9,3.3,4.9s3-4.9,3-4.9v-19H113v-12.5h17.5v44.5c0,0-5.7,13.9-18.3,13.9s-17.9-13.1-17.9-15.3v-74.3
		c0,0,2-17.4,18.8-17.4C119,99.2,124.4,102,127.9,106.7"/>
	<path class="st6" d="M127.9,106.7l2.6-1.5v32.9h-15.2v-13.3c0,0,0.5-4-2.8-4c-1.8-0.1-3.4,1.4-3.4,3.2c0,0.2,0,0.4,0,0.5v54.7
		c0,0-0.3,4.9,3.3,4.9s3-4.9,3-4.9v-19H113v-12.5h17.5v44.5c0,0-5.7,13.9-18.3,13.9s-17.9-13.1-17.9-15.3v-74.3
		c0,0,2-17.4,18.8-17.4C119,99.2,124.4,102,127.9,106.7z"/>
	<path class="st5" d="M172,100.9v37.3h-15.3v-17.3c0,0,0.3-5-3.3-5c-3.6,0-3.1,4.2-3.1,4.8v58.6c0,0-0.3,4.9,3.3,4.9
		c3.6,0,3.3-4.9,3.3-4.9v-19h-2.6v-12.5H172v44.5c0,0-5.5,13.8-18,13.8c-15.1,0-19.1-15.2-19.1-15.2v-80.4c0,0,1.6-16.4,18.8-16.4
		c5.9,0.3,11.4,3.2,14.9,8L172,100.9z"/>
	<path class="st6" d="M172,100.9v37.3h-15.3v-17.3c0,0,0.3-5-3.3-5c-3.6,0-3.1,4.2-3.1,4.8v58.6c0,0-0.3,4.9,3.3,4.9
		c3.6,0,3.3-4.9,3.3-4.9v-19h-2.6v-12.5H172v44.5c0,0-5.5,13.8-18,13.8c-15.1,0-19.1-15.2-19.1-15.2v-80.4c0,0,1.6-16.4,18.8-16.4
		c5.9,0.3,11.4,3.2,14.9,8L172,100.9z"/>
	<path class="st5" d="M175.5,95.6c5.8,0.3,11.6,1.1,17.2,2.5c5.8,1,11.5,2.3,17.1,4v36h-11.5c0,0,0.5-13.1-1.6-16.4
		c-0.8-1.3-1.9-2.4-3.3-3.1v29.1h8.4v12.5h-8.7v26.3c2.5-0.9,4.3-3.1,4.7-5.8c0.5-4,0.6-8.1,0.5-12.1h11.5V206h-34.4v-16.5
		c2.1-0.8,3.4-2.9,3.1-5.1v-66.2c-0.2-2.1-1.3-4-3.1-5.3L175.5,95.6z"/>
	<path class="st6" d="M175.5,95.6c5.8,0.3,11.6,1.1,17.2,2.5c5.8,1,11.5,2.3,17.1,4v36h-11.5c0,0,0.5-13.1-1.6-16.4
		c-0.8-1.3-1.9-2.4-3.3-3.1v29.1h8.4v12.5h-8.7v26.3c2.5-0.9,4.3-3.1,4.7-5.8c0.5-4,0.6-8.1,0.5-12.1h11.5V206h-34.4v-16.5
		c2.1-0.8,3.4-2.9,3.1-5.1v-66.2c-0.2-2.1-1.3-4-3.1-5.3L175.5,95.6z"/>
	<path class="st5" d="M214.4,103.4c7.7,1.9,15.2,4.7,22.3,8.3c14.6,6.9,19.8,10,19.8,10v16.6h-9.3c0.1-1.9-0.1-3.8-0.6-5.7
		c-0.6-1.7-1.7-3.2-3.1-4.4v52.8c0,1.9,0.4,3.8,1.2,5.5c0.8,1.1,1.7,2.1,2.6,3V206h-23.4v-16.4c1-0.5,2-1.3,2.6-2.2
		c0.8-2,1.4-4.2,1.7-6.4v-55.5c-2.3,0.9-3.7,3.2-3.6,5.6v6.9h-10.3V103.4z"/>
	<path class="st6" d="M214.4,103.4c7.7,1.9,15.2,4.7,22.3,8.3c14.6,6.9,19.8,10,19.8,10v16.6h-9.3c0.1-1.9-0.1-3.8-0.6-5.7
		c-0.6-1.7-1.7-3.2-3.1-4.4v52.8c0,1.9,0.4,3.8,1.2,5.5c0.8,1.1,1.7,2.1,2.6,3V206h-23.4v-16.4c1-0.5,2-1.3,2.6-2.2
		c0.8-2,1.4-4.2,1.7-6.4v-55.5c-2.3,0.9-3.7,3.2-3.6,5.6v6.9h-10.3V103.4z"/>
	<path class="st5" d="M295.1,102.7l3.6-1.4v36.4h-14.5v-15c0,0,0.2-6.4-4.5-6.4c-4.7,0-4,6.4-4,6.4v13.3c0.4,2.9,2,5.6,4.5,7.1
		c5,3.2,9.7,6.8,14.2,10.7c2.2,2.6,3.6,5.8,4,9.2v29.1c0,1.4-2.8,13.7-18.7,13.7c-5.5-0.3-10.7-2.4-14.8-5.9l-3.9,3v-31.9h14.3v10.4
		c0,0-0.5,5.2,4.2,5.2c4.7,0,4.2-5.2,4.2-5.2v-12.9c0,0-0.8-4.7-3.1-6.1c-5.6-3.2-10.8-6.9-15.6-11.2c-2.7-3.4-4.1-7.6-4.2-12v-24.5
		c0.1-4.4,1.7-8.6,4.5-11.8c4.1-4,9.7-6.1,15.4-5.9C286.1,97,291.2,99,295.1,102.7"/>
	<path class="st6" d="M295.1,102.7l3.6-1.4v36.4h-14.5v-15c0,0,0.2-6.4-4.5-6.4c-4.7,0-4,6.4-4,6.4v13.3c0.4,2.9,2,5.6,4.5,7.1
		c5,3.2,9.7,6.8,14.2,10.7c2.2,2.6,3.6,5.8,4,9.2v29.1c0,1.4-2.8,13.7-18.7,13.7c-5.5-0.3-10.7-2.4-14.8-5.9l-3.9,3v-31.9h14.3v10.4
		c0,0-0.5,5.2,4.2,5.2c4.7,0,4.2-5.2,4.2-5.2v-12.9c0,0-0.8-4.7-3.1-6.1c-5.6-3.2-10.8-6.9-15.6-11.2c-2.7-3.4-4.1-7.6-4.2-12v-24.5
		c0.1-4.4,1.7-8.6,4.5-11.8c4.1-4,9.7-6.1,15.4-5.9C286.1,97,291.2,99,295.1,102.7z"/>
	<path class="st1" d="M51.2,88.4C83.9,72.3,119.9,64,156.3,64.1c37.9,0.4,75.3,9.8,108.9,27.4l-14.5,21.2c0,0-37.8-23.2-94.4-23.2
		c-56.5,0-91.6,20.7-91.6,20.7L51.2,88.4"/>
	<path class="st2" d="M51.2,88.4C83.9,72.3,119.9,64,156.3,64.1c37.9,0.4,75.3,9.8,108.9,27.4l-14.5,21.2c0,0-37.8-23.2-94.4-23.2
		c-56.5,0-91.6,20.7-91.6,20.7L51.2,88.4"/>
	<path class="st0" d="M69.2,86.7c-0.1-0.3-0.3-0.4-1.1-0.2l-0.1-0.3l11.5-3.9c6.4-2.2,10.5,0.1,12,4.4c1.3,4-0.7,8.7-7.2,10.9
		l-11.1,3.8L73,101c0.8-0.4,0.9-0.6,0.8-0.8L69.2,86.7z M78.1,95.8l4.4-1.5c3.7-1.3,4.6-3.5,3.7-5.9c-0.8-2.5-2.9-3.7-6.6-2.4
		l-4.4,1.5L78.1,95.8z"/>
	<path class="st0" d="M117.4,83l-0.4,0.1c-0.2-0.4-0.5-0.6-1.2-0.5L109,84l0.6,2.8l11.5-2.3c0.4-0.1,0.5-0.3,0.5-1l0.4-0.1l1.1,5.2
		l-0.4,0.1c-0.2-0.5-0.4-0.6-0.8-0.5L104,91.7l-0.1-0.4c0.9-0.2,0.9-0.5,0.9-0.7l-2.8-13.9c-0.1-0.3-0.2-0.5-1.1-0.3l-0.1-0.4
		l17.9-3.6c0.4-0.1,0.5-0.3,0.5-1l0.4-0.1l1.1,5.2l-0.4,0.1c-0.2-0.7-0.4-0.8-0.8-0.7l-11.5,2.3l0.5,2.5l6.7-1.4
		c0.7-0.1,0.9-0.5,0.9-0.9l0.4-0.1L117.4,83z"/>
	<path class="st0" d="M134.6,71.1c0-0.3-0.1-0.5-1.1-0.5l0-0.4l8.8-0.5l0,0.4c-0.8,0.1-1,0.3-1,0.5c0,0.3,6.7,5.6,9.3,7.8l-0.5-8.1
		c0-0.4-0.3-0.5-0.8-0.5l0-0.4l6.7-0.4l0,0.4c-0.9,0.1-1,0.3-1,0.6l0.8,14.2c0,0.3,0.1,0.5,1.1,0.5l0,0.4l-6.9,0.4l0-0.4
		c0.7,0,0.8-0.2,0.8-0.4c0-0.4-1-0.7-11.1-9.2l0.5,9.6c0,0.3,0.1,0.5,1.1,0.5l0,0.4l-6.9,0.4l0-0.4c0.9-0.1,1-0.3,1-0.6L134.6,71.1z
		"/>
	<path class="st0" d="M174.1,86l0-0.4c0.4,0,0.6-0.1,0.6-0.2c0-0.3-5.2-13.2-5.8-14.9c-0.3-0.7-0.4-0.9-0.7-0.9l0-0.4l7.5,0.8l0,0.4
		c-0.6,0-0.7,0.1-0.8,0.3c0,0.2,0.4,1,4.1,9.8c2.1-2.8,4.1-5.7,5.9-8.7c0-0.2-0.1-0.3-0.5-0.4l0-0.4l6.3,0.7l0,0.4
		c-0.3,0-0.5,0.1-0.6,0.3c-0.5,0.9-8.8,13.3-8.9,13.8c0,0.1,0.1,0.3,0.5,0.3l0,0.4L174.1,86z"/>
	<path class="st0" d="M213.7,87.3l-0.4-0.1c0-0.4-0.2-0.8-0.9-0.9l-6.6-1.7l-0.7,2.8l11.4,2.8c0.4,0.1,0.6,0,0.9-0.7l0.4,0.1
		l-1.3,5.2l-0.4-0.1c0-0.5-0.1-0.7-0.5-0.8l-17.7-4.4l0.1-0.4c0.9,0.2,1.1,0,1.1-0.3l3.4-13.8c0.1-0.3,0-0.5-0.9-0.8l0.1-0.4
		l17.7,4.4c0.4,0.1,0.6,0,0.8-0.7l0.4,0.1l-1.3,5.2l-0.4-0.1c0.1-0.7,0-0.9-0.4-1l-11.4-2.8l-0.6,2.5l6.6,1.7c0.7,0.2,1-0.1,1.2-0.4
		l0.4,0.1L213.7,87.3z"/>
	<path class="st0" d="M232.7,98.7c-0.1,0.3-0.1,0.5,0.8,0.9l-0.1,0.3l-7-2.8l0.1-0.3c0.9,0.3,1.1,0.1,1.2-0.1l5.2-13.2
		c0.1-0.3,0.1-0.5-0.8-0.9l0.1-0.3l12.5,4.9c5,2,6.6,4.3,5.3,7.6c-1,2.6-3.6,3.2-6.7,2.7l2.2,6.3c0.1,0.4,0.4,0.7,0.8,0.9l-0.1,0.3
		l-7.1-2.8l0.1-0.3c0.5,0.2,0.8,0.1,0.9-0.2c0.1-0.3-2-5.6-2.2-6.4l-3.3-1.3L232.7,98.7z M235.8,90.9l5.7,2.3c2,0.8,2.9,0.3,3.2-0.5
		c0.3-0.8,0-1.8-2-2.6l-5.7-2.3L235.8,90.9z"/>
</g>
</svg>
