<?xml version="1.0" encoding="UTF-8"?>
<!-- Generator: Adobe Illustrator 25.4.1, SVG Export Plug-In . SVG Version: 6.00 Build 0)  -->
<svg xmlns="http://www.w3.org/2000/svg" xmlns:xlink="http://www.w3.org/1999/xlink" version="1.1" id="Layer_1" x="0px" y="0px" viewBox="0 0 70 70" style="enable-background:new 0 0 70 70;" xml:space="preserve">
<style type="text/css">
	.st0{fill:#B5B3B3;}
	.st1{fill:#0F4C92;}
	.st2{fill:#DE1E35;}
	.st3{fill:#FFFFFF;}
</style>
<g>
	<g>
		<path class="st0" d="M69.1,35c0,18.8-15.2,34-34,34c-18.8,0-34-15.2-34-34c0-18.8,15.2-34,34-34C53.8,1,69.1,16.2,69.1,35z"></path>
		<path class="st1" d="M68.1,35c0,18.2-14.8,33-33,33C16.8,68,2,53.2,2,35c0-18.2,14.8-33,33-33C53.3,2,68.1,16.8,68.1,35z"></path>
		<path class="st2" d="M63.2,35c0,15.6-12.6,28.2-28.2,28.2C19.5,63.2,6.9,50.6,6.9,35c0-15.6,12.6-28.2,28.2-28.2    C50.6,6.8,63.2,19.4,63.2,35z"></path>
		<path class="st3" d="M35.1,6.8C19.5,6.8,6.9,19.5,6.9,35c0,15.5,12.6,28.2,28.2,28.2c15.5,0,28.2-12.6,28.2-28.2    C63.2,19.5,50.6,6.8,35.1,6.8z M8.5,35.8h5.2v-1.7H8.5c0-0.6,0.1-1.3,0.1-1.9c1.8-9.2,13-16.4,26.4-16.4    c13.4,0,24.6,7.1,26.4,16.4c0.1,0.6,0.1,1.2,0.1,1.9h-5.2v1.7h5.2c0,0.6-0.1,1.3-0.1,1.9c-1.8,9.2-13,16.4-26.4,16.4    c-13.4,0-24.6-7.1-26.4-16.4C8.6,37.1,8.6,36.5,8.5,35.8z M35.1,8.5c11.2,0,20.9,7,24.7,16.9c-4.7-6.5-14-10.9-24.7-10.9    c-10.7,0-20,4.4-24.7,10.9C14.2,15.5,23.8,8.5,35.1,8.5z M35.1,61.5c-11.2,0-20.9-7-24.7-16.9c4.7,6.5,14,10.9,24.7,10.9    c10.7,0,20-4.4,24.7-10.9C55.9,54.5,46.3,61.5,35.1,61.5z"></path>
		<path class="st3" d="M36.2,30.2h0.3c0.3,0,0.9,0.1,0.9,0.7c0,0.3,0,1.2,0,1.5l0,0.1c0,0,0,0.5,0,0.6c0.1,0.5,0.5,0.8,1.2,0.9h0.6    v-3.2c0-0.3-0.1-0.7-0.4-0.9l0-0.1c0.3-0.4,0.4-0.7,0.4-1.3l0-0.3c0-2.5-0.1-3-1.2-3.1h-3.9v8.7h2V30.2z M36.2,26.6l0.3,0l0.1,0    c0.5,0,0.7,0,0.7,0.9c0,0.7,0,0.8,0,1.1l0,0.1c0,0.1,0,0.2-0.1,0.3c0,0-0.1,0.1-0.2,0.1h-0.8V26.6z"></path>
		<rect x="46.6" y="25.2" class="st3" width="1.9" height="8.7"></rect>
		<path class="st3" d="M29.9,33.9l2,0l0-7.4c0,0,0,0,0.1,0c0.4,0,0.6-0.1,0.8-0.3c0.4-0.4,0.3-1,0.3-1l0-0.1h-4.5v1.4h1.3V33.9z"></path>
		<path class="st3" d="M50.9,33.9l2,0v-7.4c0,0,0,0,0.1,0c0.4,0,0.6-0.1,0.8-0.3c0.4-0.4,0.3-1,0.3-1l0-0.1h-4.5v1.4h1.3V33.9z"></path>
		<polygon class="st3" points="27.6,32.5 25.5,32.5 25.5,30.4 26.9,30.4 26.9,28.5 25.5,28.5 25.5,26.5 27.6,26.5 27.6,25.2     23.5,25.2 23.5,33.9 27.6,33.9   "></polygon>
		<path class="st3" d="M21,25.2h-5l0,0.1c0,0-0.1,0.5,0.3,0.9c0.2,0.2,0.5,0.4,0.9,0.4v7.4h3.7c0.8,0,1.4-0.7,1.4-1.8l0-4    C22.3,25.8,22.3,25.2,21,25.2z M20.3,32.5h-1.1v-6c0.7,0,0.8,0,0.8,0c0.3,0.1,0.3,0.6,0.3,0.6C20.4,27.9,20.3,32,20.3,32.5z"></path>
		<rect x="23.2" y="35.7" class="st3" width="2" height="8.9"></rect>
		<path class="st3" d="M30.8,35.7L30.8,35.7c-0.6,0-2.7,0-3,0l-0.1,0c-0.6,0-1,0.3-1.1,0.8c0,0.1,0,0.1,0,0.1c0,0-0.1,1.7,0,2.2    c0.3,0.8,0.9,1.1,1.5,1.2c0,0,0,0,0.1,0c0,0,0.1,0,0.1,0c0.1,0,0.1,0.1,0.1,0.1l0,3.2l-1.6,0l0,1.2l2.2,0h0c0.8,0,1.3-0.4,1.5-0.9    c0.1-0.4,0.1-3.4,0-4.1c0-0.2-0.1-0.4-0.3-0.6c-0.1-0.1-0.2-0.1-0.3-0.2c-0.1-0.1-0.2-0.1-0.4-0.2c-0.5-0.2-1-0.5-1-1.1l0-0.5    l1.6,0c0.3,0,0.6-0.2,0.7-0.5c0.1-0.2,0.2-0.5,0.2-0.5C30.8,36,30.8,35.9,30.8,35.7L30.8,35.7z"></path>
		<path class="st3" d="M39.9,35.7c-0.4,0-0.9,0-1.3,0.1c-1,0.2-1.4,0.9-1.4,2v5.3c0,1.4,1,1.6,2.4,1.6c1.8,0,2.8-0.6,2.8-1.7l0-5.5    C42.4,35.7,41.2,35.7,39.9,35.7z M39.2,37.7c0-0.2,0-0.4,0.1-0.6l0,0c0.1,0,0.2,0,0.3,0l0,0c0.7,0,0.7,0.2,0.7,1.4v3.7    c0,0.1,0,0.2,0,0.3c0,0.1,0,0.2,0,0.3l0,0c-0.1,0-0.2,0-0.4,0c-0.2,0-0.4-0.1-0.5-0.2c-0.2-0.2-0.2-0.4-0.2-0.8v-3.8    C39.2,38.3,39.2,37.9,39.2,37.7z"></path>
		<path class="st3" d="M47,39.5c-1-3.4-2.5-3.8-3.1-3.8c-0.2,0-0.3,0-0.3,0l0,0l0,8.9l2,0v-3.6l1.4,3.6h2v-8.9h-2V39.5z"></path>
		<path class="st3" d="M20.7,35.7l-5,0l-0.1,0l0,0.1c0,0,0,1.1,1.1,1.3v7.6l2.1,0v-3.8h1.7c0.9,0,1.4-0.6,1.4-1.7l0-0.3    C22,36.4,21.9,35.9,20.7,35.7z M19.9,39.7l-1.1,0v-2.6c0,0,0.6,0,0.7,0c0.2,0,0.4,0.1,0.4,0.4C19.9,37.6,19.9,39.7,19.9,39.7z"></path>
		<path class="st3" d="M36.5,35.7h-4.7v1.4h1.3v7.5l2,0l0-7.6c0,0,0,0,0.1,0c0.4,0,0.7-0.1,0.9-0.3C36.6,36.4,36.5,35.8,36.5,35.7    L36.5,35.7z"></path>
	</g>
	<path class="st3" d="M54.5,35.7L54.5,35.7c-0.6,0-2.7,0-3,0l-0.1,0c-0.6,0-1,0.3-1.1,0.8c0,0.1,0,0.1,0,0.1c0,0-0.1,1.7,0,2.2   c0.3,0.8,0.9,1.1,1.5,1.2c0,0,0,0,0.1,0c0,0,0.1,0,0.1,0c0.1,0,0.1,0.1,0.1,0.1l0,3.2l-1.6,0l0,1.2l2.2,0h0c0.8,0,1.3-0.4,1.5-0.9   c0.1-0.4,0.1-3.4,0-4.1c0-0.2-0.1-0.4-0.3-0.6c-0.1-0.1-0.2-0.1-0.3-0.2c-0.1-0.1-0.2-0.1-0.4-0.2c-0.5-0.2-1-0.5-1-1.1l0-0.5   l1.6,0c0.3,0,0.6-0.2,0.7-0.5c0.1-0.2,0.2-0.5,0.2-0.5C54.5,36,54.5,35.9,54.5,35.7L54.5,35.7z"></path>
	<path class="st3" d="M43.1,25.2c-0.4,0-0.9,0-1.3,0.1c-1,0.2-1.4,0.9-1.4,1.9v5.2c0,1.3,1,1.6,2.4,1.6c1.8,0,2.8-0.6,2.8-1.7l0-5.4   C45.5,25.2,44.4,25.2,43.1,25.2z M42.4,27.2c0-0.2,0-0.4,0.1-0.5l0,0c0.1,0,0.2,0,0.3,0l0,0c0.7,0,0.7,0.2,0.7,1.4v3.7   c0,0.1,0,0.2,0,0.3c0,0.1,0,0.2,0,0.3l0,0c-0.1,0-0.2,0-0.4,0c-0.2,0-0.4-0.1-0.5-0.2c-0.2-0.2-0.2-0.4-0.2-0.7v-3.7   C42.4,27.7,42.4,27.3,42.4,27.2z"></path>
</g>
</svg>
