<?xml version="1.0" encoding="utf-8"?>
<!-- Generator: Adobe Illustrator 26.5.0, SVG Export Plug-In . SVG Version: 6.00 Build 0)  -->
<svg version="1.1" id="Layer_1" xmlns="http://www.w3.org/2000/svg" xmlns:xlink="http://www.w3.org/1999/xlink" x="0px" y="0px"
	 viewBox="0 0 272.9 272.8" style="enable-background:new 0 0 272.9 272.8;" xml:space="preserve">
<style type="text/css">
	.st0{fill:#1D428A;}
	.st1{fill:#FDB927;}
</style>
<path class="st0" d="M272.9,136.4c0,75.3-61.1,136.4-136.4,136.4S0,211.8,0,136.4S61.1,0,136.5,0S272.9,61.1,272.9,136.4"/>
<path class="st1" d="M225.7,47.2c-23.8-23.8-55.5-37-89.2-37s-65.4,13.1-89.2,37c-23.8,23.8-37,55.5-37,89.2s13.1,65.4,37,89.2
	c23.8,23.8,55.5,37,89.2,37s65.4-13.1,89.2-37c23.8-23.8,37-55.5,37-89.2S249.5,71,225.7,47.2 M52,52c22.5-22.5,52.5-35,84.4-35
	s61.9,12.4,84.4,35c22.5,22.5,35,52.5,35,84.4c0,17.1-3.6,33.7-10.4,48.9c-14.5-4.9-28.7-10.4-42.7-16.6c-1.8-0.8-3.7-1.6-5.5-2.5
	l-5.4-2.6l-2.7-1.3l-2.7-1.3l-5.4-2.7c-1.8-0.9-3.6-1.9-5.3-2.8l-2.7-1.4c-0.9-0.5-1.8-1-2.6-1.4l-5.3-2.9l-5.2-3
	c-13.8-8.1-27.2-17.1-39.8-27.1c-6.3-5-12.4-10.2-18.2-15.7c-2.9-2.8-5.7-5.6-8.5-8.5c-0.7-0.7-1.4-1.5-2-2.2
	c-0.7-0.7-1.3-1.5-2-2.2s-1.3-1.5-1.9-2.3l-0.1-0.1c-0.2-8.8-0.4-14-0.4-14l-6-1.4v8h-5.1v-8.4l-6.4,1.5v3.1l-3,1.6
	c0.1,2.5,0.1,5.8,0.2,9.7c-2.4,4.2-28.9,49.9-48.7,64c-0.7-5.4-1.1-10.8-1.1-16.3C17.1,104.6,29.5,74.6,52,52 M208.8,195l-12.3,0.4
	l-10-26l2,1l5.5,2.7c1.8,0.9,3.7,1.8,5.5,2.6c0.5,0.2,1,0.5,1.6,0.7L208.8,195z M205.9,178.7c5,2.3,9.9,4.4,15,6.5l4.1,9.2
	l-12.3,0.4L205.9,178.7z M192.8,195.5l-12.6,0.4l-13.1-37.1c0.8,0.5,1.6,1,2.5,1.4l2.7,1.5c1.8,1,3.6,2,5.4,3l4.1,2.2L192.8,195.5z
	 M176.5,196.1l-11.2,0.4l-16.4-48.8c2.5,1.6,5,3.2,7.6,4.8l5.2,3.2l0.7,0.4L176.5,196.1z M161.6,196.6l-11.8,0.4l-19.4-62.2
	c4.5,3.3,9,6.6,13.7,9.7L161.6,196.6z M146.1,197.1l-11.3,0.4l-23.1-77.7c1.6,1.4,3.3,2.8,4.9,4.2c2.9,2.4,5.9,4.8,8.9,7.1
	L146.1,197.1z M131.1,197.6l-12.5,0.4L91.1,99.7c2.4,2.7,4.9,5.3,7.4,7.8c2.7,2.7,5.4,5.3,8.2,7.8L131.1,197.6z M115,198.1
	l-10.8,0.4l-15.1-57.7c-0.5-14.9-0.9-28.7-1.2-39.7L115,198.1z M100.5,198.6l-9.4,0.3c-0.6-13.7-1.1-28.2-1.6-42.1L100.5,198.6z
	 M232.8,206.9c-0.8,1.1-1.6,2.2-2.5,3.3l-138.8-2.7l-0.1-1.3L232.8,206.9z M228.8,194.3l-3.2-7.1c5.3,2.1,10.6,4.2,15.9,6.1
	c-0.1,0.2-0.2,0.4-0.3,0.6L228.8,194.3z M81.1,107v7.3h-5.6v6.8h5.6v7.3h-5.6v6.8h5.6V149h-5.6v6.8h5.6V170h-5.6v6.8h5.6v22.3
	l-5.1,0.2V95.5h5.1v4.6h-5.6v6.8L81.1,107L81.1,107z M27.5,185.4L43.1,133c6.3-8.4,13.2-18.9,20.5-32l-27.9,99.6
	C32.6,195.7,29.9,190.7,27.5,185.4 M25.4,180.3c-2.7-7-4.8-14.2-6.2-21.6c4.4-3.5,10.6-9.2,18-18.1L25.4,180.3z M66.9,102.3
	c0,10.5-0.1,23.2-0.4,36.8l-16,61.1l-11.1,0.4L66.9,102.3z M66.1,154.5c-0.4,15.1-1,30.8-1.7,45.3l-10.3,0.3L66.1,154.5z M44.9,213
	l18.8,0.7c-0.4,5.8-0.8,11.3-1.2,16.4c-3.6-2.9-7.1-5.9-10.3-9.2C49.5,218.3,47.1,215.7,44.9,213 M136.5,255.8
	c-14.9,0-29.3-2.7-42.8-7.9c-0.6-8.2-1.1-17.9-1.6-28.6l-10.9-3.7v26.6c-1.7-0.9-3.5-1.9-5.1-2.9V214l5.1,0.2v0.2h5.6l10.1,0.4
	l125.6,4.4c-0.5,0.5-1,1-1.5,1.6C198.3,243.4,168.3,255.8,136.5,255.8"/>
</svg>
