<?xml version="1.0" encoding="UTF-8" standalone="no"?>
<svg width="500px" height="500px" viewBox="0 0 500 500" version="1.1" xmlns="http://www.w3.org/2000/svg" xmlns:xlink="http://www.w3.org/1999/xlink">
    <!-- Generator: Sketch 39.1 (31720) - http://www.bohemiancoding.com/sketch -->
    <title>GS</title>
    <desc>Created with Sketch.</desc>
    <defs>
        <polygon id="path-1" points="0 499.952456 499 499.952456 499 0.778129952 0 0.778129952"></polygon>
    </defs>
    <g id="NBA" stroke="none" stroke-width="1" fill="none" fill-rule="evenodd">
        <g id="GS">
            <g id="GSWarriors_P_pms" transform="translate(1.000000, 0.000000)">
                <g id="Group-3">
                    <mask id="mask-2" fill="white">
                        <use xlink:href="#path-1"></use>
                    </mask>
                    <g id="Clip-2"></g>
                    <path d="M249.514257,0.778129952 C111.676992,0.778129952 0,112.569731 0,250.409667 C0,388.242472 111.676992,500 249.514257,500 C387.309543,500 499,388.242472 499,250.409667 C499,112.569731 387.309543,0.778129952 249.514257,0.778129952" id="Fill-1" fill="#0060A0" mask="url(#mask-2)"></path>
                </g>
                <path d="M440.754027,340.657686 C402.806265,332.158479 367.639438,319.162441 335.570371,303.729794 C330.623143,301.343106 325.759081,298.893027 320.959176,296.400158 C297.481622,284.2187 275.836111,270.847068 256.138284,257.148177 C252.17163,254.391442 248.269133,251.618067 244.469605,248.836767 C244.232778,248.669572 244.003871,248.499208 243.773381,248.328051 C238.714471,244.63233 233.817143,240.928685 229.056841,237.229002 C221.298579,231.201268 213.90229,225.197306 206.924211,219.287639 C198.839619,212.430269 191.310263,205.710777 184.331392,199.229794 C178.200821,193.549128 172.495587,188.03962 167.24183,182.812995 C166.121852,181.70523 165.071576,180.630745 164.000706,179.547544 C155.713346,171.163233 148.574478,163.509509 142.749643,156.997623 C142.590438,152.045166 142.451035,147.70523 142.340146,143.931854 C142.055003,134.454834 141.902135,128.914422 141.902135,128.914422 L135.221871,125.903328 L130.581171,129.944532 L129.001797,131.308241 C129.001797,131.308241 129.077043,134.970681 129.224367,141.279715 C127.78994,139.522979 126.677883,138.133914 125.744832,136.967512 C125.695724,131.646593 125.653744,127.549921 125.633943,124.832013 C125.606221,122.416799 125.591963,121.079239 125.591963,121.079239 L116.351751,121.079239 L116.184625,126.588748 L110.610875,127.957211 C110.610875,127.957211 110.381968,139.648177 110.041381,158.257528 C96.7648127,188.625198 82.8625143,212.702853 70.3106841,231.315372 C63.9512063,240.751981 57.9386524,248.763074 52.532819,255.450079 C46.2842302,263.175911 40.8079032,269.190174 36.564027,273.51981 C35.7854286,268.07607 35.2286079,262.549128 34.8523778,256.980983 C34.5260476,252.178288 34.3098143,247.339937 34.3098143,242.446117 C34.3098143,237.518225 34.5323841,232.652139 34.8595063,227.808241 C38.2131032,178.009509 58.4329,132.847068 89.932473,98.0459588 C96.7711492,90.4793978 104.161102,83.4104596 112.009659,76.8819334 C145.93057,48.6687797 188.666356,30.7345483 235.466219,27.7377179 C240.085533,27.4484945 244.706432,27.2432647 249.389111,27.2432647 C254.836924,27.2432647 260.200778,27.5150555 265.545622,27.911252 C312.621916,31.4057052 355.449581,50.0475436 389.223168,78.9944532 C396.723217,85.4263074 403.778919,92.3549921 410.341165,99.748019 C440.5671,133.862916 460.104138,177.637084 463.777729,225.862124 C464.203067,231.340729 464.473952,236.857369 464.473952,242.446117 C464.473952,246.48019 464.334549,250.468304 464.1199,254.44691 C462.401122,285.381141 454.162078,314.561014 440.754027,340.657686 L440.754027,340.657686 Z M41.5738286,297.966719 C40.7184,294.750396 39.9461381,291.506339 39.2427857,288.235341 C41.4835333,285.081616 44.0086317,281.48336 46.8418429,277.375594 L41.5738286,297.966719 L41.5738286,297.966719 Z M64.0692238,254.572108 L51.3771984,326.58954 C48.9281381,320.79794 46.7364984,314.86767 44.7959429,308.832805 L54.3212984,266.273376 C56.7141222,262.660856 59.2471413,258.770206 61.8221397,254.739303 C62.8446937,253.14897 63.8458619,251.599842 64.8905937,249.942948 L64.0692238,254.572108 L64.0692238,254.572108 Z M104.607033,196.403328 L98.0582524,233.33439 L94.6507952,252.622821 L74.3185254,367.380349 C71.2358143,363.064976 68.2647841,358.672742 65.5028587,354.126783 L83.3844841,253.288431 L87.0652032,232.596672 L90.1685079,215.058637 L92.353019,202.793185 C98.428146,191.388273 104.321098,179.453249 109.768911,167.25832 L104.607033,196.403328 L104.607033,196.403328 Z M204.856925,237.122029 L242.327073,355.373217 C237.691917,355.672742 233.134384,355.979398 228.626751,356.298732 L191.094822,236.94374 L189.410103,231.55626 L177.840432,194.764659 C180.184148,197.061014 182.523111,199.298732 184.85257,201.540412 C189.04813,205.567353 193.209632,209.521395 197.315689,213.328843 L204.856925,237.122029 L204.856925,237.122029 Z M222.794787,237.22504 L259.936229,354.217908 L259.957614,354.307448 L259.936229,354.307448 C255.581463,354.544374 251.260757,354.795563 246.995495,355.060222 L204.238324,219.6458 C210.353846,225.197306 216.3664,230.529319 222.287075,235.645008 L222.794787,237.22504 L222.794787,237.22504 Z M297.280438,352.533281 C292.779141,352.707607 288.325368,352.902536 283.900902,353.096672 L256.318875,265.633122 L255.461862,262.932647 C255.734332,263.148177 255.99096,263.329635 256.26343,263.544374 C261.919556,267.936609 267.465584,272.141838 272.899932,276.137084 L297.280438,352.533281 L297.280438,352.533281 Z M335.068995,351.461173 C330.205725,351.558637 325.369386,351.662441 320.569481,351.788431 L303.306457,297.42393 C309.769695,301.698098 316.011948,305.66561 322.029254,309.340729 L335.068995,351.461173 L335.068995,351.461173 Z M372.475778,336.73851 C388.994262,344.486529 401.475598,349.087163 409.088121,351.572108 C398.344571,351.31458 387.658051,351.16878 377.053113,351.119651 L372.475778,336.73851 L372.475778,336.73851 Z M350.140379,325.482567 C356.053925,328.664025 361.620548,331.49683 366.832325,334.038035 L372.245287,351.119651 C370.617597,351.119651 368.982778,351.133122 367.355087,351.133122 C364.293762,351.133122 361.218179,351.133122 358.170319,351.147385 L352.541124,333.181458 L350.140379,325.482567 L350.140379,325.482567 Z M327.951513,312.90412 C333.642489,316.301109 339.13941,319.469097 344.365444,322.350238 L353.396552,351.202853 C350.926106,351.22504 348.47071,351.266244 345.992343,351.300317 C343.947235,351.31458 341.888662,351.342314 339.849098,351.370048 L331.597381,324.710777 L327.951513,312.90412 L327.951513,312.90412 Z M297.384198,293.455626 C297.648748,293.616482 297.885575,293.790016 298.143787,293.964342 L297.481622,293.762282 L315.858287,351.913629 C311.20333,352.05309 306.582432,352.206022 301.997176,352.373217 L279.572275,281.038035 C285.675124,285.429477 291.575205,289.529319 297.35014,293.427892 L297.4539,293.748811 L297.481622,293.762282 L297.384198,293.455626 L297.384198,293.455626 Z M228.612494,241.082409 C231.55501,243.573693 234.45713,245.982567 237.344202,248.362916 C239.737025,250.329635 242.104503,252.244057 244.461684,254.147385 C245.896111,255.310618 247.35034,256.507132 248.783975,257.641838 L279.196044,353.305864 C274.290795,353.528526 269.434654,353.778922 264.632373,354.043582 L230.950665,248.401743 L228.612494,241.082409 L228.612494,241.082409 Z M375.091963,389.725832 C349.833851,388.5 312.998146,387.442155 262.122324,387.48336 C255.461862,387.497623 248.547148,387.525357 241.400359,387.567353 C225.292956,387.679081 208.085376,387.87401 189.403767,388.229002 C206.909954,387.427892 224.374162,386.835975 241.442338,386.404913 C248.386359,386.230586 255.225827,386.084786 262.010643,385.965927 C303.827635,385.171949 342.2641,385.29794 371.52847,385.6458 C386.934105,385.840729 399.820186,386.098257 409.331284,386.31458 C407.731316,388.09588 406.075111,389.815372 404.419698,391.534865 C397.224594,390.978605 387.524984,390.337559 375.091963,389.725832 L375.091963,389.725832 Z M154.551389,395.843106 C179.565546,395.286846 209.581584,394.862124 241.059771,394.931854 C248.219233,394.945325 255.44206,394.987322 262.706867,395.057052 C304.899297,395.461173 348.178438,396.846276 384.624448,400.068938 C388.047746,400.368463 391.491638,400.681458 394.796919,401.001585 C393.181902,402.491284 391.513024,403.911252 389.84969,405.344691 C352.164894,437.908082 303.103689,457.649762 249.389111,457.649762 C217.013516,457.649762 186.328976,450.451664 158.788929,437.629952 C157.279256,426.09588 155.859086,411.888273 154.551389,395.843106 L154.551389,395.843106 Z M139.0214,427.160856 C137.350938,426.16561 135.723248,425.114105 134.080508,424.069731 C133.495965,415.564184 132.946273,406.250396 132.425095,396.386688 C133.996549,396.337559 135.640081,396.296355 137.266979,396.254358 C137.852314,408.366878 138.436857,418.848653 139.0214,427.160856 L139.0214,427.160856 Z M150.3487,333.968304 C149.548716,320.304279 148.810513,306.347861 148.12221,292.391442 L157.696673,322.538827 L169.991083,361.199683 C163.805859,361.79794 157.878056,362.403328 152.137179,363.009509 C152.059557,361.909667 151.989856,360.753566 151.913817,359.647385 C151.371254,351.280507 150.850076,342.697306 150.3487,333.968304 L150.3487,333.968304 Z M145.589983,235.729002 C145.478302,232.809033 145.353156,229.7813 145.234346,226.920761 L186.858075,359.633122 C182.710038,360.002377 178.640416,360.377179 174.653168,360.753566 L166.636694,335.249604 L160.903738,317.046751 L147.22401,273.51981 C146.869165,265.667987 146.52937,257.885895 146.201456,250.249604 C145.986014,245.304279 145.791167,240.538827 145.589983,235.729002 L145.589983,235.729002 Z M95.3525635,369.740887 L107.966967,298.509509 C107.696081,323.526941 107.535292,347.674326 107.549549,368.160856 C103.172606,368.702853 99.138627,369.239303 95.3525635,369.740887 L95.3525635,369.740887 Z M107.855286,404.419968 C105.253357,402.143423 102.706873,399.804279 100.216625,397.395404 C102.477967,397.312203 104.933363,397.229002 107.73806,397.131537 C107.772119,399.706815 107.814098,402.143423 107.855286,404.419968 L107.855286,404.419968 Z M102.651429,233.629952 L109.387137,195.599842 C109.184368,207.558637 108.975263,220.51664 108.788337,233.985737 C108.690913,239.860539 108.607746,245.850238 108.531708,251.878764 C108.420027,259.41046 108.322603,267.004754 108.231516,274.647385 L107.590737,274.529319 L90.5922619,370.38748 C85.840673,371.028526 81.6728349,371.61252 78.0824111,372.128368 L99.3192175,252.362124 L102.651429,233.629952 L102.651429,233.629952 Z M151.356997,168.038035 C154.189416,170.992868 157.006786,173.905705 159.817819,176.784469 C162.803106,179.850238 165.759879,182.861331 168.717444,185.805864 C169.093675,186.18859 169.48337,186.588748 169.8596,186.968304 L189.633465,249.011094 L189.786333,249.504754 L223.922686,356.633122 C219.448319,356.953249 215.04999,357.286846 210.709483,357.621236 L180.950073,262.591125 L172.823502,236.575277 L151.356997,168.038035 L151.356997,168.038035 Z M142.805087,159.012678 C143.16706,159.399366 143.529033,159.768621 143.891798,160.154517 L206.074327,357.990491 C201.120762,358.394612 196.285214,358.805071 191.513032,359.208399 L177.004805,312.501585 L171.612437,295.209984 L157.529548,249.863708 L153.215178,236.011094 L144.5104,207.986529 C144.03041,195.154517 143.612992,183.421553 143.272405,173.007924 C143.105279,168.038035 142.938154,163.276545 142.805087,159.012678 L142.805087,159.012678 Z M125.786811,140.487322 C126.970154,141.799525 128.132111,143.037242 129.300405,144.332805 C129.488916,152.007132 129.745544,162.786054 130.065538,175.687797 C130.503549,192.526149 131.032648,213.022979 131.645705,235.151347 C131.798573,240.288431 131.937976,245.509509 132.097181,250.799525 C133.057954,284.176704 134.191397,319.991284 135.388997,351.823296 C135.556122,356.215531 135.723248,360.544374 135.890373,364.763867 C134.219911,364.958796 132.626279,365.139461 130.998589,365.333597 C130.879779,362.452456 130.776019,359.500792 130.65721,356.577655 C129.341592,322.580032 128.347552,285.520602 127.595092,250.984152 C127.477867,245.564976 127.372522,240.226624 127.260841,234.956418 C126.851344,214.077655 126.531351,194.628368 126.27393,177.853407 C126.057697,162.938986 125.904829,150.082409 125.786811,140.487322 L125.786811,140.487322 Z M75.9881952,231.771791 C79.1477365,226.454041 82.3262873,221.014263 85.5072143,215.316165 L84.2121905,222.77813 L62.2253,348.419176 C59.4419889,343.525357 56.8463968,338.520602 54.452781,333.383518 L70.9300778,240.198098 C71.5288778,239.223455 72.1332222,238.16878 72.7391508,237.180666 C73.8100206,235.402536 74.8959397,233.595087 75.9881952,231.771791 L75.9881952,231.771791 Z M249.38119,12.8763867 C122.60034,12.8763867 19.822973,115.646593 19.822973,242.488114 C19.822973,369.35103 122.60034,472.141838 249.38119,472.141838 C313.839317,472.141838 372.044103,445.537242 413.735949,402.74168 C415.135525,401.990491 416.832917,399.971474 418.29269,397.959588 C455.922043,357.064976 478.912478,302.484152 478.912478,242.488114 C478.912478,115.646593 376.163625,12.8763867 249.38119,12.8763867 L249.38119,12.8763867 Z" id="Fill-4" fill="#F3B336"></path>
                <path d="M34.3098143,242.446117 C34.3098143,247.339937 34.5260476,252.178288 34.8523778,256.980983 C37.9279603,256.68859 43.9056635,256.131537 52.532819,255.450079 C57.9386524,248.763074 63.9512063,240.751981 70.3106841,231.315372 C51.1482921,229.732171 39.0479381,228.322504 34.8595063,227.808241 C34.5323841,232.652139 34.3098143,237.518225 34.3098143,242.446117 L34.3098143,242.446117 Z M464.473952,242.446117 C464.473952,236.857369 464.203067,231.340729 463.777729,225.862124 C412.539933,230.686212 364.807019,233.683043 321.154024,235.374802 C323.372594,201.725832 339.59247,171.417591 362.525084,142.018225 C381.075211,118.208399 400.600368,105.25832 410.341165,99.748019 C403.778919,92.3549921 396.723217,85.4263074 389.223168,78.9944532 C372.461521,95.5538827 317.661024,155.616482 313.764071,235.667195 C293.522889,236.39065 274.221094,236.835975 255.880071,237.058637 C254.745837,112.270206 264.563463,35.2765452 265.545622,27.911252 C260.200778,27.5150555 254.836924,27.2432647 249.389111,27.2432647 C244.706432,27.2432647 240.085533,27.4484945 235.466219,27.7377179 C236.524416,37.7749604 244.073573,114.328051 244.448219,237.163233 C239.25149,237.197306 234.101494,237.22504 229.056841,237.229002 C233.817143,240.928685 238.714471,244.63233 243.773381,248.328051 L244.469605,248.328051 L244.469605,248.836767 C248.269133,251.618067 252.17163,254.391442 256.138284,257.148177 C256.088384,254.16878 256.047197,251.234548 255.998881,248.300317 C274.270202,248.293185 293.475365,248.432647 313.589025,248.763074 C313.923276,264.045959 316.184617,279.973059 320.959176,296.400158 C325.759081,298.893027 330.623143,301.343106 335.570371,303.729794 C326.39986,284.337559 321.820941,266.155309 321.020957,248.902536 C364.793554,249.720285 412.684881,251.432647 464.1199,254.44691 C464.334549,250.468304 464.473952,246.48019 464.473952,242.446117 L464.473952,242.446117 Z M112.009659,76.8819334 C104.161102,83.4104596 96.7711492,90.4793978 89.932473,98.0459588 C95.4983032,100.938193 107.772119,108.087163 121.730654,121.079239 L125.591963,121.079239 C125.591963,121.079239 125.606221,122.416799 125.633943,124.832013 C127.260841,126.46038 128.917838,128.155309 130.581171,129.944532 L135.221871,125.903328 L141.902135,128.914422 C141.902135,128.914422 142.055003,134.454834 142.340146,143.931854 C151.989856,156.486529 160.396025,169.217116 166.993122,182.315372 L184.032784,198.091918 C167.931717,133.571315 123.358344,87.7337559 112.009659,76.8819334 L112.009659,76.8819334 Z" id="Fill-5" fill="#FFFFFF"></path>
            </g>
        </g>
    </g>
</svg>