<?xml version="1.0" encoding="utf-8"?>
<!-- Generator: Adobe Illustrator 21.1.0, SVG Export Plug-In . SVG Version: 6.00 Build 0)  -->
<!DOCTYPE svg PUBLIC "-//W3C//DTD SVG 1.1//EN" "http://www.w3.org/Graphics/SVG/1.1/DTD/svg11.dtd">
<svg version="1.1"
	 id="Layer_1" xmlns:cc="http://creativecommons.org/ns#" xmlns:dc="http://purl.org/dc/elements/1.1/" xmlns:rdf="http://www.w3.org/1999/02/22-rdf-syntax-ns#"
	 xmlns="http://www.w3.org/2000/svg" xmlns:xlink="http://www.w3.org/1999/xlink" x="0px" y="0px" width="225.3px" height="300px"
	 viewBox="0 0 225.3 300" style="enable-background:new 0 0 225.3 300;" xml:space="preserve">
<style type="text/css">
	.st0{fill:#CE1141;}
</style>
<path class="st0" d="M150.6,171.6l0.2-31.2c28.5,3.6,52,7.7,52,14.5C202.8,162.7,181.6,169,150.6,171.6z M128.4,173.1
	c-5.1,0-10.6,0.2-16,0.2c-5.8,0-11.1-0.2-16.7-0.2l0.2-6.8c-0.5-17.4,0.5-39.6,0.7-63.3c14.3,1.7,32.4,5.3,32.2,15.5L128.4,173.1z
	 M95.3,50.5c19.6,1.9,37.2,6.5,38.7,17.4c2.9,23-20.3,30.5-37.2,32.9C97.1,84,96.6,67.2,95.3,50.5z M73.7,171.6
	C43,169,22.2,162.7,22.2,155c0-6.8,25.9-10.6,51.7-14.5c0,8.2-0.2,17.4-0.5,27.3L73.7,171.6z M150.9,140.2l0.2-27.1
	c0-16.7-23-15-30.5-14c8.7-1.7,38.9-8.9,37.2-36.7c-1.2-18.1-24.2-27.3-62.1-23.7c-0.5,0-1.2,0.2-1.7,0.2
	C92.3,25.7,89.4,12.6,85.1,0c-4.5,13.5-7.9,27.3-10.2,41.3c-13.6,2.3-27,5.5-40.1,9.4c13.1-1.1,26.3-1.5,39.4-1.2
	c-2.4,24.2,0,46.9,0,90.7C34.3,139-0.5,146.5,0,158.3c0.2,10.4,31.2,19.8,74.2,23.4l1.7,58.7l3.1-39.9c0-4.8,3.6-4.6,3.6-0.2
	l1.5,52.2l3.1-42.5c0-5.8,3.9-5.6,3.9-0.2l1.5,54.4l2.7-81.2c5.6,0.2,11.1,0.2,16.9,0.2c5.3,0,10.9,0,16-0.2l2.4,82.9l2.4-43.5
	c0-5.3,3.6-5.3,3.6-0.2l2.4,60.7l2.2-52.5c0.2-5.1,4.4-4.8,4.4,0l1.9,69.6l2.7-118.2v-0.2c43.8-3.6,75.2-13.1,75.2-23.2
	C225.3,147.2,191,138.5,150.9,140.2z"/>
</svg>
