<?xml version="1.0" encoding="utf-8"?>
<!-- Generator: Adobe Illustrator 21.1.0, SVG Export Plug-In . SVG Version: 6.00 Build 0)  -->
<!DOCTYPE svg PUBLIC "-//W3C//DTD SVG 1.0//EN" "http://www.w3.org/TR/2001/REC-SVG-20010904/DTD/svg10.dtd">
<svg version="1.0" id="svg2" xmlns:svg="http://www.w3.org/2000/svg"
	 xmlns="http://www.w3.org/2000/svg" xmlns:xlink="http://www.w3.org/1999/xlink" x="0px" y="0px" width="300px" height="397.8px"
	 viewBox="0 0 300 397.8" style="enable-background:new 0 0 300 397.8;" xml:space="preserve">
<style type="text/css">
	.st0{fill:#261C02;}
	.st1{fill:#D31145;}
</style>
<g>
	<g id="g5839" transform="matrix(4.124781,0,0,4.124781,196.52828,533.06273)">
		<path id="path5841" class="st0" d="M-0.5-55.6L-0.5-55.6C-0.5-55.6-0.5-55.6-0.5-55.6C-0.5-55.7-0.5-55.7-0.5-55.6l0-0.1v0
			c0,0,0,0,0,0v0c0,0,0,0,0,0c0,0,0,0,0,0v0c0,0,0,0,0,0c0,0,0,0,0-0.1v0c0,0,0,0,0,0v0c0,0,0,0,0,0s0,0,0,0s0,0,0,0c0,0,0,0,0,0
			c0,0,0,0,0,0c0,0,0,0,0,0c0,0,0,0,0,0c0,0,0,0,0,0c0,0,0,0,0,0c0,0,0,0,0,0c0,0,0,0,0,0c0,0,0,0,0,0c0,0,0,0,0,0c0,0,0,0,0,0
			c0,0,0,0,0,0c0,0,0,0,0,0c0,0,0,0,0,0c0,0,0,0,0,0c0,0,0,0,0,0c0,0,0,0,0,0c0,0,0,0,0,0c0,0,0,0,0,0c0,0,0,0,0,0c0,0,0,0-0.1-0.1
			c0,0,0,0,0,0c0,0,0,0,0,0c0,0,0,0,0,0c0,0,0,0,0,0c0,0,0,0,0,0c0,0,0,0,0,0c0,0,0,0,0,0l0,0v0c0,0-0.1,0-0.1-0.1c0,0,0,0,0,0
			c0,0,0,0,0,0h0c0,0,0,0,0,0c0,0-0.1,0-0.1,0c0,0,0,0,0,0c0,0,0,0-0.1,0c0,0,0,0,0,0c0,0-0.1,0-0.1,0.1c0,0,0,0,0,0
			c0,0-0.1,0.1-0.1,0.1c0,0,0,0,0,0c0,0,0,0.1-0.1,0.1c0,0,0,0,0,0c0,0,0,0.1-0.1,0.1c0,0,0,0,0,0c0.4,0,0.8,0.3,0.8,1.2l0.6,22.2
			l0.5-0.5L-0.5-55.6L-0.5-55.6z"/>
	</g>
	<g id="g5843" transform="matrix(4.124781,0,0,4.124781,161.11332,549.91659)">
		<path id="path5845" class="st0" d="M-12.1-69.3L-12.1-69.3L-12.1-69.3L-12.1-69.3v-0.1c0,0,0,0,0,0v0c0,0,0,0,0,0c0,0,0,0,0,0
			c0,0,0,0,0,0c0,0,0,0,0,0c0,0,0,0,0,0c0,0,0,0,0,0c0,0,0,0,0,0c0,0,0,0,0,0c0,0,0,0,0,0v0c0,0,0,0,0,0c0,0,0,0,0,0c0,0,0,0,0,0
			c0,0,0,0,0,0c0,0,0,0,0,0c0,0,0,0,0,0c0,0,0,0,0,0c0,0,0,0,0,0c0,0,0,0,0,0h0c0,0,0,0,0,0c0,0,0,0,0,0c0,0,0,0,0,0c0,0,0,0,0,0
			c0,0,0,0,0,0c0,0,0,0,0,0c0,0,0,0,0,0c0,0,0,0,0,0c0,0,0,0,0,0c0,0,0,0,0,0c0,0,0,0,0,0c0,0,0,0,0,0c0,0,0,0,0,0c0,0,0,0,0,0
			c0,0,0,0,0,0c0,0,0,0,0,0c0,0,0,0,0,0c0,0,0,0,0,0s0,0,0,0c0,0,0,0,0,0c0,0,0,0,0,0c0,0,0,0,0,0c0,0,0,0,0,0l0,0c0,0,0,0,0,0l0,0
			h0c0,0-0.1,0-0.1,0h0c0,0,0,0,0,0h0c0,0,0,0,0,0c0,0-0.1,0-0.1,0c0,0,0,0,0,0c0,0,0,0-0.1,0c0,0,0,0,0,0c0,0-0.1,0-0.1,0
			c0,0,0,0,0,0c0,0,0,0-0.1,0.1c0,0,0,0,0,0c0,0,0,0,0,0.1c0,0,0,0,0,0c0,0,0,0.1-0.1,0.1c0,0,0,0,0,0c0.3,0,0.6,0.4,0.6,1l0.4,16.7
			l0.5-0.5L-12.1-69.3L-12.1-69.3z"/>
	</g>
	<g id="g5847" transform="matrix(4.124781,0,0,4.124781,165.83413,544.65584)">
		<path id="path5849" class="st0" d="M-10.5-65L-10.5-65L-10.5-65L-10.5-65v-0.1v0c0,0,0,0,0,0c0,0,0,0,0,0v0v0c0,0,0,0,0-0.1
			c0,0,0,0,0,0c0,0,0,0,0,0c0,0,0,0,0,0c0,0,0,0,0,0v0c0,0,0,0,0,0c0,0,0,0,0,0c0,0,0,0,0,0c0,0,0,0,0,0c0,0,0-0.1,0-0.1v0
			c0,0,0,0,0,0c0,0,0,0,0,0c0,0,0,0,0,0c0,0,0,0,0,0c0,0,0,0,0,0c0,0,0,0,0,0c0,0,0,0,0,0c0,0,0,0,0,0c0,0,0,0,0,0v0c0,0,0,0,0,0
			c0,0,0,0,0,0c0,0,0,0,0,0c0,0,0,0,0,0c0,0,0,0,0,0c0,0,0,0,0,0c0,0,0,0,0,0c0,0,0,0,0,0c0,0,0,0,0,0c0,0,0,0,0,0c0,0,0,0,0,0
			c0,0,0,0,0,0c0,0,0,0,0,0c0,0,0,0,0,0c0,0,0,0,0,0c0,0,0,0,0,0c0,0,0,0,0,0c0,0,0,0,0,0c0,0,0,0,0,0c0,0,0,0-0.1,0c0,0,0,0,0,0h0
			c0,0,0,0,0,0l0,0c0,0,0,0,0,0c0,0-0.1,0-0.1,0c0,0,0,0,0,0c0,0-0.1,0-0.1,0c0,0,0,0,0,0c0,0-0.1,0-0.1,0.1c0,0,0,0,0,0
			c0,0,0,0-0.1,0.1c0,0,0,0,0,0c0,0-0.1,0.1-0.1,0.1c0,0,0,0,0,0c0,0,0,0.1,0,0.1c0.3,0,0.6,0.4,0.6,1.2l0.5,17.4l0.5-0.5L-10.5-65
			L-10.5-65z"/>
	</g>
	<g id="g5851" transform="matrix(4.124781,0,0,4.124781,177.6809,559.40689)">
		<path id="path5853" class="st0" d="M-6.6-77c-1.9,0-3.7,0-5.4-0.1l0,0.5c1.6,0,3.3,0.1,5,0.1c1.7,0,3.5,0,5.1-0.1l0.8,26.5
			l0.5-0.5l-0.8-26.5C-3.2-77-4.9-77-6.6-77"/>
	</g>
	<g id="g5855" transform="matrix(4.124781,0,0,4.124781,191.53728,537.70311)">
		<path id="path5857" class="st0" d="M-2.1-59.4L-2.1-59.4L-2.1-59.4L-2.1-59.4c0-0.1,0-0.1,0-0.1v0c0,0,0,0,0,0v0c0,0,0,0,0,0
			s0,0,0,0c0,0,0,0,0-0.1v0c0,0,0,0,0,0v0v0c0,0,0,0,0,0c0,0,0,0,0,0c0,0,0,0,0,0v0c0,0,0,0,0,0c0,0,0,0,0,0c0,0,0,0,0,0
			c0,0,0,0,0,0c0,0,0,0,0,0c0,0,0,0,0,0c0,0,0,0,0,0c0,0,0,0,0,0c0,0,0,0,0,0c0,0,0,0,0,0c0,0,0,0,0,0c0,0,0,0,0,0c0,0,0,0,0,0
			c0,0,0,0,0,0c0,0,0,0,0,0c0,0,0,0,0,0c0,0,0,0,0,0c0,0,0,0,0,0c0,0,0,0,0,0c0,0,0,0,0,0c0,0,0,0,0,0c0,0,0,0,0,0c0,0,0,0,0,0
			c0,0,0,0,0,0c0,0-0.1-0.1-0.1-0.1c0,0,0,0,0,0c0,0-0.1,0-0.1,0c0,0,0,0,0,0c0,0-0.1,0-0.1,0c0,0,0,0,0,0c0,0-0.1,0-0.1,0.1
			c0,0,0,0,0,0c0,0-0.1,0.1-0.1,0.1c0,0,0,0,0,0.1c0,0,0,0.1-0.1,0.1c0,0,0,0,0,0.1c0,0,0,0,0,0c0.3,0,0.6,0.4,0.6,1.2l0.7,19.4
			l0.5-0.5L-2.1-59.4L-2.1-59.4z"/>
	</g>
	<g id="g5859" transform="matrix(4.124781,0,0,4.124781,156.23493,634.67177)">
		<path id="path5861" class="st0" d="M-13.6-138.1c-6.7-0.1-12.5,0.4-12.5,0.4l-0.5,0.5c0,0,5.9-0.5,12.5-0.4
			c-0.7,7.6,0,14.9,0,28.5h0c0.2,0,0.4,0,0.5,0C-13.6-123.1-14.4-130.4-13.6-138.1"/>
	</g>
	<g id="g5863" transform="matrix(4.124781,0,0,4.124781,199.13843,560.21617)">
		<path id="path5865" class="st0" d="M0.4-77.6l0,0.4c11.8-1,20.7-3.4,23-6.1C20.4-80.8,11.6-78.6,0.4-77.6L0.4-77.6z"/>
	</g>
	<g id="g5867" transform="matrix(4.124781,0,0,4.124781,162.43035,662.38122)">
		<path id="path5869" class="st0" d="M-11.6-160.6c-0.2,0.2-0.3,0.3-0.5,0.5c-1.6,5-2.6,9.1-3.2,12.8c0.2,0,0.3,0,0.4-0.1
			C-14.3-151.2-13.3-155.4-11.6-160.6"/>
	</g>
	<g id="g5871" transform="matrix(4.124781,0,0,4.124781,114.56434,573.43238)">
		<path id="path5873" class="st0" d="M-27.3-88.4c0-0.5,0.2-1,0.6-1.5c-0.7,0.6-1.1,1.3-1.1,2c0.1,3.3,9.9,6.3,23.7,7.5l0.6,18.7
			l0.5-0.5l-0.6-18.7C-17.3-82-27.2-85.1-27.3-88.4"/>
	</g>
	<g id="g5875" transform="matrix(4.124781,0,0,4.124781,186.29675,607.06337)">
		<path id="path5877" class="st0" d="M-3.8-115.7c2.1-0.7,4.8-1.9,6.7-3.9c0,0,0,0,0,0c-2.9,2.8-7.2,3.8-9,4.1
			C-5.5-115.6-4.7-115.6-3.8-115.7"/>
	</g>
	<g id="g5879" transform="matrix(4.124781,0,0,4.124781,188.95145,623.44164)">
		<path id="path5881" class="st0" d="M-3-129c0.4,2.7-0.4,4.7-1.8,6.3h0c0.1-0.1,0.1-0.1,0.2-0.2c0.1-0.1,0.2-0.2,0.3-0.3
			c0.1-0.1,0.1-0.1,0.2-0.2c0.1-0.1,0.1-0.2,0.2-0.3c0.1-0.1,0.1-0.1,0.2-0.2c0.1-0.1,0.1-0.2,0.2-0.3c0-0.1,0.1-0.2,0.1-0.2
			c0.1-0.1,0.1-0.2,0.2-0.3c0-0.1,0.1-0.2,0.1-0.2c0-0.1,0.1-0.2,0.2-0.3c0-0.1,0.1-0.2,0.1-0.2c0.1-0.1,0.1-0.3,0.1-0.4
			c0-0.1,0-0.1,0.1-0.2c0.1-0.2,0.1-0.4,0.2-0.6v0c0,0,0-0.1,0-0.1c0,0,0,0,0,0c0,0,0-0.1,0-0.1c0,0,0,0,0,0c0,0,0-0.1,0-0.1
			c0,0,0,0,0,0c0,0,0-0.1,0-0.1c0,0,0,0,0,0c0,0,0-0.1,0-0.1c0,0,0,0,0,0c0,0,0-0.1,0-0.1v0c0,0,0-0.1,0-0.1c0,0,0,0,0-0.1
			c0,0,0,0,0-0.1c0,0,0,0,0,0v-0.1v0c0-0.1,0-0.1,0-0.2v-0.1v-0.1c0,0,0-0.1,0-0.1v-0.1v-0.1c0,0,0,0,0-0.1v-0.1v-0.1c0,0,0,0,0-0.1
			c0,0,0,0,0-0.1v-0.1v-0.1c0,0,0,0,0-0.1c0,0,0,0,0-0.1c0,0,0-0.1,0-0.1c0,0,0,0,0-0.1c0,0,0-0.1,0-0.1c0,0,0,0,0-0.1
			c0,0,0-0.1,0-0.1c0,0,0,0,0,0c0,0,0-0.1,0-0.1c-0.5-3.4-6-4.9-12.4-5.6c0,0.2,0,0.4,0.1,0.5C-8.7-133.8-3.4-132.3-3-129"/>
	</g>
	<g id="g5883" transform="matrix(4.124781,0,0,4.124781,168.98009,604.65862)">
		<path id="path5885" class="st0" d="M-9.5-113.7c0,0.2,0,0.4,0,0.5c4.4,0.5,9.9,1.8,9.8,4.9l-0.2,17l0.5,0l0.2-17.5
			C0.9-112-5-113.3-9.5-113.7"/>
	</g>
	<g id="g5887" transform="matrix(4.124781,0,0,4.124781,199.42427,583.52695)">
		<path id="path5889" class="st0" d="M0.5-96.6l0,0.6c8.9,1.2,16.1,2.5,16.1,4.6c0,0.3-0.2,0.7-0.4,1c0,0,0,0,0,0
			c0.1-0.1,0.2-0.1,0.2-0.2c0,0,0,0,0,0c0.1-0.1,0.1-0.1,0.2-0.2c0,0,0,0,0,0c0.1-0.1,0.1-0.1,0.2-0.2c0,0,0,0,0,0
			c0-0.1,0.1-0.2,0.1-0.2v0c0,0,0,0,0,0c0,0,0,0,0,0c0,0,0,0,0,0c0,0,0,0,0,0l0,0c0,0,0,0,0,0c0,0,0,0,0,0v0c0,0,0,0,0,0
			c0,0,0,0,0,0c0,0,0,0,0,0c0,0,0,0,0,0c0,0,0,0,0,0c0,0,0,0,0,0v0c0,0,0,0,0,0v0c0,0,0,0,0,0c0,0,0,0,0,0v0v0
			C17.1-94.1,9.6-95.4,0.5-96.6"/>
	</g>
	<g id="g5891" transform="matrix(4.124781,0,0,4.124781,127.48232,576.34489)">
		<path id="path5893" class="st0" d="M-23.1-90.7c2.1-1.6,9-2.6,15.9-3.6c0,2.7,0,5.6-0.1,8.8l0,0.7h0c0.2,0,0.3,0,0.5,0l0-1.2
			c0.1-3.2,0.1-6.1,0.1-8.8C-14.3-93.7-21.8-92.6-23.1-90.7"/>
	</g>
	<g id="g5963" transform="matrix(4.124781,0,0,4.124781,228.60422,575.27327)">
		<path id="path5965" class="st1" d="M10-89.9L10-89.9C10-89.8,10-89.8,10-89.9C10-89.8,10-89.8,10-89.9L10-89.9c0,0.1,0,0.1,0,0.1
			v0c0,0,0,0,0,0c0,0,0,0,0,0c0,0,0,0,0,0c0,0,0,0,0,0c0,0,0,0,0,0c0,0,0,0,0,0v0c0,0,0,0,0,0c0,0,0,0,0,0c0,0,0,0,0,0c0,0,0,0,0,0
			c0,0,0,0,0,0c0,0,0,0,0,0c0,0,0,0,0,0v0c0,0.1-0.1,0.1-0.1,0.2c0,0,0,0,0,0c0,0.1-0.1,0.1-0.2,0.2c0,0,0,0,0,0
			c-0.1,0.1-0.1,0.1-0.2,0.2c0,0,0,0,0,0c-0.1,0.1-0.2,0.1-0.2,0.2c0,0,0,0,0,0C7.5-87.1,3.9-86-1.1-85.3c-0.1,0-0.1,0-0.2,0
			c-0.1,0-0.3,0-0.4,0.1c-0.1,0-0.2,0-0.3,0c-0.1,0-0.3,0-0.4,0.1c-0.1,0-0.3,0-0.5,0.1c-0.1,0-0.2,0-0.3,0c-0.2,0-0.5,0.1-0.8,0.1
			c-0.1,0-0.2,0-0.3,0c-0.2,0-0.4,0-0.6,0.1c-0.1,0-0.2,0-0.3,0c-0.2,0-0.4,0-0.6,0.1c-0.1,0-0.2,0-0.3,0c-0.3,0-0.6,0.1-0.8,0.1
			l0.1-9.4l0-0.6C2.5-93.4,10-92.1,10-89.9L10-89.9z M-13.8-84.2c-1.7,0.1-3.4,0.1-5.1,0.1c-1.8,0-3.6,0-5.3-0.1l0.1-2.2
			c0-0.3,0-0.7,0-1.1c0-0.2,0-0.4,0-0.5c0-0.2,0-0.4,0-0.6V-89c0-0.2,0-0.4,0-0.6v-0.5c0-0.2,0-0.4,0-0.7c0-0.1,0-0.3,0-0.4
			c0-0.3,0-0.5,0-0.8c0-0.1,0-0.1,0-0.2c0.1-4.2,0.2-8.9,0.3-13.9c0-0.2,0-0.4,0-0.5c4.5,0.5,10.3,1.7,10.3,5L-13.8-84.2z
			 M-24.5-123.3c6.3,0.6,11.9,2.1,12.4,5.6c0,0,0,0.1,0,0.1c0,0,0,0,0,0c0,0,0,0.1,0,0.1c0,0,0,0,0,0.1c0,0,0,0.1,0,0.1
			c0,0,0,0,0,0.1c0,0,0,0.1,0,0.1c0,0,0,0,0,0.1c0,0,0,0,0,0.1v0.1v0.1c0,0,0,0,0,0.1c0,0,0,0,0,0.1v0.1v0.1c0,0,0,0,0,0.1v0.1v0.1
			c0,0,0,0,0,0.1v0.1v0.1c0,0.1,0,0.1,0,0.2v0v0.1c0,0,0,0,0,0c0,0,0,0.1,0,0.1c0,0,0,0,0,0c0,0,0,0.1,0,0.1v0c0,0,0,0.1,0,0.1
			c0,0,0,0,0,0c0,0,0,0.1,0,0.1c0,0,0,0,0,0c0,0,0,0.1,0,0.1c0,0,0,0,0,0c0,0,0,0.1,0,0.1c0,0,0,0,0,0c0,0,0,0.1,0,0.1c0,0,0,0,0,0
			c0,0,0,0.1,0,0.1v0c0,0.2-0.1,0.4-0.2,0.6c0,0.1,0,0.1-0.1,0.2c0,0.1-0.1,0.3-0.1,0.4c0,0.1-0.1,0.2-0.1,0.2
			c0,0.1-0.1,0.2-0.2,0.3c0,0.1-0.1,0.2-0.1,0.2c-0.1,0.1-0.1,0.2-0.2,0.3c0,0.1-0.1,0.2-0.1,0.2c-0.1,0.1-0.1,0.2-0.2,0.3
			c0,0.1-0.1,0.1-0.2,0.2c-0.1,0.1-0.2,0.2-0.2,0.3c-0.1,0.1-0.1,0.1-0.2,0.2c-0.1,0.1-0.2,0.2-0.3,0.3c-0.1,0.1-0.1,0.1-0.2,0.2h0
			c-0.2,0.1-0.3,0.3-0.5,0.4c0,0,0,0-0.1,0c-0.1,0.1-0.3,0.2-0.4,0.3c0,0-0.1,0-0.1,0.1c-0.1,0.1-0.3,0.2-0.4,0.3c0,0-0.1,0-0.1,0
			c-0.2,0.1-0.3,0.2-0.5,0.3l0,0c-0.4,0.2-0.8,0.4-1.2,0.6c0,0,0,0-0.1,0c-0.2,0.1-0.3,0.1-0.5,0.2c0,0-0.1,0-0.1,0
			c-0.2,0.1-0.3,0.1-0.5,0.2c0,0-0.1,0-0.1,0c-0.2,0.1-0.3,0.1-0.5,0.2c0,0-0.1,0-0.1,0c-0.4,0.1-0.8,0.2-1.2,0.4c0,0,0,0,0,0
			c-0.2,0.1-0.4,0.1-0.6,0.1c0,0-0.1,0-0.1,0c-0.1,0-0.3,0.1-0.4,0.1c-0.1,0-0.1,0-0.2,0c-0.1,0-0.3,0.1-0.4,0.1c-0.1,0-0.1,0-0.2,0
			c-0.1,0-0.3,0-0.4,0.1c-0.1,0-0.1,0-0.2,0c-0.2,0-0.4,0.1-0.6,0.1c0.1-5.1,0-10.4-0.5-15.5C-24.4-123-24.4-123.2-24.5-123.3
			 M-31.3-84.6c-0.2,0-0.3,0-0.5,0h0c-5.6-0.5-10.2-1.4-13-2.6c0,0,0,0,0,0c-0.1-0.1-0.3-0.1-0.4-0.2c0,0,0,0,0,0
			c-0.1-0.1-0.2-0.1-0.4-0.2c0,0,0,0,0,0c-0.1-0.1-0.2-0.1-0.3-0.2c0,0,0,0-0.1,0c-0.1,0-0.2-0.1-0.3-0.2c0,0-0.1,0-0.1-0.1
			c-0.1,0-0.2-0.1-0.2-0.1c0,0-0.1,0-0.1-0.1c-0.1,0-0.1-0.1-0.2-0.1c0,0-0.1,0-0.1-0.1c-0.1,0-0.1-0.1-0.2-0.1c0,0,0-0.1-0.1-0.1
			c0,0-0.1-0.1-0.1-0.1c0,0,0-0.1-0.1-0.1c0,0-0.1-0.1-0.1-0.1c0,0,0-0.1-0.1-0.1c0,0,0-0.1-0.1-0.1c0,0,0-0.1-0.1-0.1
			c0,0,0-0.1,0-0.1c0,0,0-0.1,0-0.1c0,0,0-0.1,0-0.1c0-0.1,0-0.2,0-0.2c0-0.1,0-0.1,0-0.2c0,0,0,0,0-0.1c0,0,0-0.1,0-0.1
			c0-0.1,0.1-0.2,0.1-0.2l0,0c1.3-1.9,8.8-3,16.4-4.1c0,2.7,0,5.6-0.1,8.8L-31.3-84.6z M-6.6-94.6l0.1-8.6c0-0.2,0-0.3,0-0.4
			c0,0,0-0.1,0-0.1c0-0.1,0-0.2,0-0.3c0,0,0-0.1,0-0.1c0-0.1,0-0.2-0.1-0.3c0,0,0-0.1,0-0.1c0-0.1-0.1-0.2-0.1-0.4c0,0,0,0,0-0.1
			c0-0.1-0.1-0.2-0.1-0.3c0,0,0-0.1-0.1-0.1c0-0.1-0.1-0.2-0.1-0.2c0,0,0,0,0-0.1c-0.1-0.2-0.3-0.4-0.5-0.5c0,0,0,0-0.1-0.1
			c-0.1-0.1-0.1-0.1-0.2-0.2c0,0-0.1,0-0.1-0.1c-0.1-0.1-0.2-0.1-0.2-0.2c0,0,0,0-0.1,0c-0.1-0.1-0.2-0.1-0.3-0.2c0,0,0,0-0.1,0
			c-0.1,0-0.2-0.1-0.2-0.1c0,0-0.1,0-0.1-0.1c-0.1,0-0.1-0.1-0.2-0.1c0,0-0.1,0-0.1-0.1c-0.1,0-0.2-0.1-0.3-0.1
			c-0.1,0-0.1,0-0.2-0.1c-0.1,0-0.1,0-0.2-0.1c-0.1,0-0.1,0-0.2-0.1c0,0-0.1,0-0.1,0c-0.1,0-0.2,0-0.2-0.1c0,0,0,0-0.1,0
			c-1.1-0.2-2.3-0.3-3.4-0.3c-0.9,0-1.7,0.1-2.3,0.2c1.7-0.3,6-1.3,9-4.1c0.1-0.1,0.2-0.2,0.3-0.3c0,0,0,0,0,0
			c0.3-0.3,0.6-0.7,0.9-1c0,0,0-0.1,0.1-0.1c0.1-0.1,0.1-0.2,0.2-0.3c0-0.1,0.1-0.1,0.1-0.2c0.1-0.1,0.1-0.2,0.2-0.3
			c0-0.1,0.1-0.1,0.1-0.2c0.1-0.2,0.2-0.4,0.3-0.5c0-0.1,0.1-0.2,0.1-0.3c0-0.1,0.1-0.2,0.1-0.3c0-0.1,0.1-0.2,0.1-0.3
			c0-0.1,0.1-0.2,0.1-0.3c0-0.1,0.1-0.2,0.1-0.4c0-0.1,0-0.2,0.1-0.2c0-0.2,0.1-0.4,0.1-0.6c0-0.1,0-0.1,0-0.2c0-0.1,0-0.3,0.1-0.5
			c0-0.1,0-0.2,0-0.3c0-0.2,0-0.3,0-0.5c0-0.1,0-0.2,0-0.2c0-0.2,0-0.5,0-0.7c-0.4-5.9-7.7-8.8-19.9-7.6c-0.2,0-0.4,0-0.6,0.1
			c-0.6-4.3-1.5-8.5-2.8-12.4c-1.7,5.2-2.7,9.4-3.2,13.2c-0.1,0-0.3,0-0.4,0.1c-7.3,1.3-12.4,2.9-12.4,2.9s5.9-0.5,12.5-0.4
			c-0.8,7.7,0,15,0,29.1c-0.2,0-0.4,0-0.5,0c0,0,0,0,0,0c-2-0.1-3.9,0-5.8,0h0c-4.1,0.2-7.8,0.7-10.7,1.4h0c-2.9,0.7-5.1,1.7-6,2.9
			c-0.4,0.5-0.6,1-0.6,1.5c0.1,3.3,9.9,6.3,23.7,7.5l0.6,18.7l1-12.7c0-0.1,0-0.1,0-0.2c0-0.2,0-0.3,0.1-0.4c0,0,0,0,0,0
			c0-0.1,0-0.1,0.1-0.1c0,0,0,0,0,0c0,0,0-0.1,0.1-0.1c0,0,0,0,0,0c0,0,0-0.1,0.1-0.1c0,0,0,0,0,0c0,0,0,0,0.1,0c0,0,0,0,0,0
			c0,0,0,0,0.1,0c0,0,0,0,0,0c0,0,0.1,0,0.1,0c0,0,0,0,0,0h0c0,0,0,0,0,0h0c0,0,0.1,0,0.1,0h0l0,0c0,0,0,0,0,0l0,0c0,0,0,0,0,0
			c0,0,0,0,0,0c0,0,0,0,0,0c0,0,0,0,0,0c0,0,0,0,0,0c0,0,0,0,0,0c0,0,0,0,0,0c0,0,0,0,0,0c0,0,0,0,0,0c0,0,0,0,0,0c0,0,0,0,0,0
			c0,0,0,0,0,0c0,0,0,0,0,0c0,0,0,0,0,0c0,0,0,0,0,0c0,0,0,0,0,0c0,0,0,0,0,0c0,0,0,0,0,0c0,0,0,0,0,0c0,0,0,0,0,0c0,0,0,0,0,0
			c0,0,0,0,0,0c0,0,0,0,0,0h0c0,0,0,0,0,0c0,0,0,0,0,0c0,0,0,0,0,0c0,0,0,0,0,0c0,0,0,0,0,0c0,0,0,0,0,0c0,0,0,0,0,0c0,0,0,0,0,0
			c0,0,0,0,0,0v0c0,0,0,0,0,0c0,0,0,0,0,0c0,0,0,0,0,0c0,0,0,0,0,0c0,0,0,0,0,0c0,0,0,0,0,0c0,0,0,0,0,0c0,0,0,0,0,0c0,0,0,0,0,0v0
			c0,0,0,0,0,0v0v0v0v0v0.1l0.4,16.7l1-13.6c0-0.1,0-0.2,0-0.3c0-0.2,0.1-0.4,0.1-0.6c0,0,0-0.1,0-0.1c0,0,0,0,0,0
			c0,0,0-0.1,0.1-0.1c0,0,0,0,0,0c0,0,0,0,0.1-0.1c0,0,0,0,0,0c0,0,0.1,0,0.1-0.1c0,0,0,0,0,0c0,0,0,0,0.1,0c0,0,0,0,0,0
			c0,0,0.1,0,0.1,0c0,0,0,0,0,0l0,0c0,0,0,0,0,0h0c0,0,0,0,0,0c0,0,0,0,0.1,0c0,0,0,0,0,0c0,0,0,0,0,0c0,0,0,0,0,0c0,0,0,0,0,0
			c0,0,0,0,0,0c0,0,0,0,0,0c0,0,0,0,0,0c0,0,0,0,0,0c0,0,0,0,0,0c0,0,0,0,0,0c0,0,0,0,0,0c0,0,0,0,0,0c0,0,0,0,0,0c0,0,0,0,0,0
			c0,0,0,0,0,0c0,0,0,0,0,0c0,0,0,0,0,0c0,0,0,0,0,0c0,0,0,0,0,0v0c0,0,0,0,0,0c0,0,0,0,0,0c0,0,0,0,0,0c0,0,0,0,0,0c0,0,0,0,0,0
			c0,0,0,0,0,0c0,0,0,0,0,0c0,0,0,0,0,0c0,0,0,0,0,0v0c0,0,0,0.1,0,0.1c0,0,0,0,0,0c0,0,0,0,0,0c0,0,0,0,0,0c0,0,0,0,0,0v0
			c0,0,0,0,0,0c0,0,0,0,0,0c0,0,0,0,0,0c0,0,0,0,0,0c0,0,0,0,0,0.1v0v0c0,0,0,0,0,0c0,0,0,0,0,0v0v0v0v0v0v0.1l0.5,17.4l0.8-25.5
			l0-0.5c1.8,0.1,3.6,0.1,5.4,0.1c1.7,0,3.5,0,5.1-0.1l0.8,26.5l0.7-13.9c0-0.1,0-0.2,0-0.3c0-0.2,0.1-0.4,0.1-0.6c0,0,0,0,0,0
			c0,0,0,0,0-0.1c0,0,0-0.1,0.1-0.1c0,0,0,0,0-0.1c0,0,0.1-0.1,0.1-0.1c0,0,0,0,0,0c0,0,0.1-0.1,0.1-0.1c0,0,0,0,0,0
			c0,0,0.1,0,0.1,0c0,0,0,0,0,0c0,0,0.1,0,0.1,0c0,0,0,0,0,0c0,0,0.1,0.1,0.1,0.1c0,0,0,0,0,0c0,0,0,0,0,0c0,0,0,0,0,0c0,0,0,0,0,0
			c0,0,0,0,0,0c0,0,0,0,0,0c0,0,0,0,0,0c0,0,0,0,0,0c0,0,0,0,0,0c0,0,0,0,0,0c0,0,0,0,0,0c0,0,0,0,0,0c0,0,0,0,0,0c0,0,0,0,0,0
			c0,0,0,0,0,0c0,0,0,0,0,0c0,0,0,0,0,0c0,0,0,0,0,0c0,0,0,0,0,0c0,0,0,0,0,0c0,0,0,0,0,0c0,0,0,0,0,0c0,0,0,0,0,0c0,0,0,0,0,0v0
			c0,0,0,0,0,0c0,0,0,0,0,0c0,0,0,0,0,0v0v0c0,0,0,0,0,0v0c0,0,0,0,0,0.1c0,0,0,0,0,0c0,0,0,0,0,0v0c0,0,0,0,0,0v0c0,0,0,0,0,0v0v0
			v0v0.1l0.7,19.4l0.7-16.8c0-0.1,0-0.2,0-0.2c0-0.2,0.1-0.3,0.1-0.5c0-0.1,0-0.1,0.1-0.1c0,0,0,0,0,0c0,0,0-0.1,0.1-0.1
			c0,0,0,0,0,0c0,0,0.1-0.1,0.1-0.1c0,0,0,0,0,0c0,0,0.1,0,0.1-0.1c0,0,0,0,0,0c0,0,0.1,0,0.1,0c0,0,0,0,0,0c0,0,0.1,0,0.1,0
			c0,0,0,0,0,0h0c0,0,0,0,0,0c0,0,0,0,0,0c0,0,0.1,0,0.1,0.1v0l0,0c0,0,0,0,0,0c0,0,0,0,0,0c0,0,0,0,0,0c0,0,0,0,0,0c0,0,0,0,0,0
			c0,0,0,0,0,0c0,0,0,0,0,0c0,0,0,0,0.1,0.1c0,0,0,0,0,0c0,0,0,0,0,0c0,0,0,0,0,0c0,0,0,0,0,0c0,0,0,0,0,0c0,0,0,0,0,0c0,0,0,0,0,0
			c0,0,0,0,0,0c0,0,0,0,0,0c0,0,0,0,0,0c0,0,0,0,0,0c0,0,0,0,0,0c0,0,0,0,0,0c0,0,0,0,0,0c0,0,0,0,0,0c0,0,0,0,0,0c0,0,0,0,0,0
			c0,0,0,0,0,0c0,0,0,0,0,0c0,0,0,0,0,0c0,0,0,0,0,0c0,0,0,0,0,0c0,0,0,0,0,0v0c0,0,0,0,0,0v0c0,0,0,0,0,0.1c0,0,0,0,0,0v0
			c0,0,0,0,0,0c0,0,0,0,0,0v0c0,0,0,0,0,0v0v0c0,0,0,0,0,0c0,0,0,0,0,0v0v0.1l0.6,22.2l0.9-37.3l0-0.4v0c11.3-0.9,20-3.1,23-5.6
			c0.1-0.1,0.1-0.1,0.2-0.2c0,0,0.1-0.1,0.1-0.1c0.1-0.1,0.1-0.1,0.2-0.2c0,0,0.1-0.1,0.1-0.1c0-0.1,0.1-0.1,0.1-0.2
			c0-0.1,0.1-0.1,0.1-0.2c0-0.1,0.1-0.1,0.1-0.2c0-0.1,0.1-0.1,0.1-0.2c0,0,0-0.1,0-0.1c0-0.1,0-0.1,0-0.2c0,0,0-0.1,0-0.1
			c0-0.1,0-0.2,0-0.3C17.1-92.4,6.2-95.2-6.6-94.6"/>
	</g>
</g>
</svg>
