<?xml version="1.0" encoding="utf-8"?>
<!-- Generator: Adobe Illustrator 21.1.0, SVG Export Plug-In . SVG Version: 6.00 Build 0)  -->
<!DOCTYPE svg PUBLIC "-//W3C//DTD SVG 1.1//EN" "http://www.w3.org/Graphics/SVG/1.1/DTD/svg11.dtd">
<svg version="1.1" id="Layer_1" xmlns:sketch="http://www.bohemiancoding.com/sketch/ns"
	 xmlns="http://www.w3.org/2000/svg" xmlns:xlink="http://www.w3.org/1999/xlink" x="0px" y="0px" width="302.2px" height="280.3px"
	 viewBox="0 0 302.2 280.3" style="enable-background:new 0 0 302.2 280.3;" xml:space="preserve">
<style type="text/css">
	.st0{fill:#BEC0C2;}
	.st1{fill:#002D62;}
	.st2{fill:#FFC526;}
</style>
<title>indiana-pacers</title>
<desc>Created with Sketch.</desc>
<path class="st0" d="M118.4,280.3L0,280.2L61.8,0l132.4,0.1C227.7,0.2,257.6,14,278.4,39l0,0c28.9,34.8,35.7,95.8-2.9,137.8
	c-20.9,24.6-51.8,37.6-89.4,37.6c-0.4,0-0.9,0-1.3,0h-50.5L118.4,280.3z M10,272.2l102.2,0.1l15.8-65.9h56.9c0.4,0,0.8,0,1.3,0
	c35.2,0,64-12,83.4-34.8l0.1-0.1c35.7-38.7,29.4-95.2,2.7-127.3c-19.2-23.2-46.9-36-78-36.1L68.2,8L10,272.2z"/>
<path class="st0" d="M275.3,41.6c-20-24.1-48.8-37.4-81.1-37.5L65,4L5,276.2l110.3,0.1l15.8-65.9c14.8,0,53.8,0,53.7,0
	c36.9,0.3,67.3-12.2,87.7-36.2C309.6,133.9,303.1,75.1,275.3,41.6"/>
<path class="st1" d="M125.5,203.2L109.7,269H13.9L70.7,11.2l123.4,0.1c30.7,0.1,57,12.5,75.6,34.9c27.4,33,30,87.8-2.7,123.4
	c-20.1,23.5-49.5,33.9-82.2,33.6L125.5,203.2"/>
<path class="st2" d="M58,68.5h54.1c6.2,0,12.8,5.2,10,13.1c-1.8,4.9-3.1,10.5-3.7,15.8c-0.5,4.1,4.1,6.8,6.8,6.8l110.2,0.1
	c2.1,0,3.2-0.6,3.2-1.6s-0.1-4.6-0.5-7.2c-0.4-2.4-0.8-2.9-2.8-2.9c-13.7,0-19.3-6.1-33.7-15.4C187.1,68,166,62.6,147.8,62.6
	l-88.5-0.1L58,68.5 M124.8,139.8c-1.9-4.1-3.7-8.9-4.8-13.4c-1.4-5.7-6.2-10.4-14.5-10.4h-58l1.4-6.5l188,0.1c1.9,0,1.5,0.8,1.4,2.9
	s-0.6,5.9-0.9,8.2c-0.3,2.3-2.2,1.7-3.9,1.8c-4.2,0.1-12.1,1.1-16.7,4.5c-7.8,5.9-24.4,16.1-33.8,19.1c-10,3.2-47.5,14.6-58.4-6.5
	 M37.1,163.3l98.2,0.1c4.3,0,8.1,1,11,3.4c8.3,6.8,19,11.8,30.5,15.1c5.1,1.5,13.9-0.4,21.8-4.9c19.7-11.1,32.3-32.2,36.4-45.8
	c1.1-3.6-1-3.3-3.7-3.1c-8.3,0.6-17,8.1-28.4,15.3c-11.5,7.3-34.8,14.2-56.9,14.1H38.4L37.1,163.3 M181.2,31.9
	c1.4-0.3,6.4-0.6,9.1,0.5c18.6,7.3,36.3,26.7,43.7,47.4c1.4,4,1.8,6.5,0,6.7c-8.6,1-12.5-3.3-22.6-10.1c-10-6.8-19.3-11.4-32-15.5
	c-12.6-4-35.4-4.6-38.4-4.7c-3-0.1-2.6-1.3-1.3-2.6C150.6,42.7,165.3,34.8,181.2,31.9 M270.7,102.6c0.1,0.8-0.8,1.7-1.8,1.7h-21.5
	c-2.8,0-2.8-1.3-2.9-2.9c-0.1-1.6-0.6-4.7-0.7-6.6c-0.1-1.8-0.8-3.9,1.7-4.9c6-2.5,11.7-8.4,14.2-13.4c0.9-1.7,2.1-4.5,3.6-2.1
	C268.5,82.5,270,92.5,270.7,102.6 M263,141.2c-0.4,0.7-1.7,1.3-2.2,0.1c-3.1-8.4-10.6-14.1-15.7-17c-1.6-0.9-1.7-1.9-1.5-3.4
	s0.9-6.4,0.9-8.5c0.1-1.6,0.8-2.8,2-2.8h22.4c0.8,0,1.8,0.7,1.8,1.3C270.7,121.6,267.4,132.1,263,141.2 M204.7,183.2
	c-1.6,0.2-5-0.3,0.4-3.5c16.3-9.5,30.8-31.7,34.7-44.4c1.5-4.9,1.6-5.1,3.5-4.6c2.5,0.7,6.4,4.1,9.4,8.2s4.3,12.2,2.6,14.5
	C243.5,169.2,225,180.2,204.7,183.2 M246.1,82.8c-3.8,2-4.5,1.7-5.3-1.2c-7.1-24.8-27.9-43.1-36.5-48.6c-1.6-1-1.2-1.7,0-1.5
	c20.4,2.7,40.4,13.8,50.5,29.1C260.5,69.3,249.8,80.8,246.1,82.8"/>
</svg>
