<?xml version="1.0" encoding="utf-8"?>
<!-- Generator: Adobe Illustrator 18.1.1, SVG Export Plug-In . SVG Version: 6.00 Build 0)  -->
<svg version="1.1" id="Layer_1" xmlns="http://www.w3.org/2000/svg" xmlns:xlink="http://www.w3.org/1999/xlink" x="0px" y="0px"
	 viewBox="0 0 180.2 180.2" enable-background="new 0 0 180.2 180.2" xml:space="preserve">
<g>
	<g>
		<circle fill="#FFFFFF" cx="90.1" cy="90.1" r="90.1"/>
		<path d="M90.1,7.4C44.5,7.4,7.4,44.5,7.4,90.1s37.1,82.7,82.7,82.7s82.7-37.1,82.7-82.7S135.7,7.4,90.1,7.4z M149.9,44.2
			c9.5,12.3,14.8,26.9,15.6,42.3h-31.1C135,71.1,140.4,56.5,149.9,44.2z M30.4,44.2c9.5,12.3,14.9,26.9,15.6,42.3H14.8
			C15.5,71,20.9,56.4,30.4,44.2z M30.4,136c-9.5-12.3-14.8-26.9-15.6-42.3h31.1C45.2,109.1,39.8,123.7,30.4,136z M93.7,165.4v-21.6
			h-7.2v21.6c-19.6-0.9-37.8-9.3-51.3-23.7c11-13.8,17.3-30.4,18-48v-7.2c-0.8-17.6-7-34.2-18-48c13.5-14.4,31.7-22.8,51.3-23.7
			v21.4h7.2V14.8c19.6,0.9,37.8,9.3,51.3,23.7c-11,13.8-17.3,30.4-18,48v7.2c0.8,17.6,7,34.2,18,48
			C131.5,156.1,113.3,164.5,93.7,165.4z M149.9,136c-9.5-12.3-14.9-26.9-15.6-42.3h31.1C164.7,109.2,159.3,123.8,149.9,136z"/>
		<g>
			<polygon fill="#ED174C" points="71.7,55.5 71.7,124.4 108.5,124.4 108.5,115 81.6,115 81.6,55.5 			"/>
			<path fill="#006BB6" d="M121.1,78.6V50.2c0-4.3-1.7-6-5.9-6H65c-4.2,0-5.8,1.7-5.8,6V130c0,4.3,1.7,6,5.8,6h50.2
				c4.2,0,5.9-1.7,5.9-6v-28.4h-9.9v25.7H69V52.9h42.1v25.7H121.1z"/>
			<path fill="#ED174C" d="M108.5,112.3l0-56.8H84.6l-0.2,56.8h9.6l0.2-17.7H99l-0.1,17.7H108.5z M98.9,85.1h-4.8V65h4.8V85.1z"/>
		</g>
	</g>
</g>
</svg>
