<?xml version="1.0" encoding="utf-8"?>
<!-- Generator: Adobe Illustrator 21.1.0, SVG Export Plug-In . SVG Version: 6.00 Build 0)  -->
<!DOCTYPE svg PUBLIC "-//W3C//DTD SVG 1.1//EN" "http://www.w3.org/Graphics/SVG/1.1/DTD/svg11.dtd">
<svg version="1.1" id="Layer_1" xmlns="http://www.w3.org/2000/svg" xmlns:xlink="http://www.w3.org/1999/xlink" x="0px" y="0px"
	 width="266px" height="254.2px" viewBox="0 0 266 254.2" style="enable-background:new 0 0 266 254.2;" xml:space="preserve">
<style type="text/css">
	.st0{fill:#BBD1E4;}
	.st1{fill:#23375B;}
	.st2{fill:#FDB827;}
	.st3{fill:#6189B9;}
</style>
<g>
	<path class="st0" d="M126.8,245.8c-8.7-9.9-18.1-14.9-28.1-20.3c-6.9-3.7-14.6-7.8-22.8-14l-0.8,4.1l-12-7.2
		c-24.7-14.9-37.3-34.3-43.6-47.8l-2.3,2.3l-6.6-9.1c-1.1-1.6-28-39.4,7.8-93.9c0,0,0,0,0,0c-9.7-20.8,0-41.7,15.2-52
		C41.1,2.8,49.8,0,58.3,0c8.1,0,19.7,2.5,29.9,13.8c3.2-0.3,6.5-0.5,9.8-0.5c16,0,29.2,4.1,35.5,6.5c6.3-2.4,19.4-6.5,35.3-6.5
		c3.4,0,6.8,0.2,10.2,0.6c7.5-9,18-13.8,29.9-13.8c8.1,0,16.5,2.4,23.6,6.7c15.6,9.5,26.9,30.1,16.1,53.5
		c18.7,28.7,19,52.6,15.9,67.7c-3.4,16.5-11.2,26.2-12.7,27.7l0,0l-3.7,3c-4.7,14.2-16.3,37.6-43.9,50.9l-13.9,6.8V214
		c-7.9,5.8-15.7,9.8-22.4,13.2c-9.4,4.8-19.1,9.8-26.7,18.4l-7.1,8.6L126.8,245.8z M76.6,186.2c10.5,11.3,21,16.8,31.1,22.2l0.8,0.4
		c8.4,4.5,17,9.2,25.5,16.9c8-6.8,16.6-11.3,25-15.6l0.5-0.3c11.9-6.1,23.1-11.9,32.8-24.4l17.3-22.1v19.7
		c20.6-17.5,22.7-42,22.7-42.3l2.9-31.9l9.7,17.8c3.2-12.7,3-32.1-12.9-56.3c-0.9-1.4-1.9-2.8-2.5-3.6l-0.1-0.1l-3.8-5.3L229,56
		c6.1-10,7.6-23.9-6.7-32.6c-4.1-2.5-8.9-3.9-13.5-3.9c-5.1,0-12.3,1.7-17.4,10L188,35l-6.5-1.2c-4.2-0.8-8.5-1.2-12.9-1.2
		c-16.3,0-28.8,5.3-31.2,6.4l-4.1,1.8l-4.1-1.8c-2.4-1.1-14.9-6.4-31.2-6.4c-4.2,0-8.4,0.4-12.4,1.1l-6,1l-3.5-5
		C71.3,23,65.1,19.4,58.1,19.4c-4.6,0-9.3,1.6-13.5,4.4c-9.3,6.3-14.9,18.5-6.5,31.3l3.7,5.6l-4,5.4c-1.2,1.6-2.2,3.1-2.9,4.3
		c-17.7,26.9-16.9,48-13.2,61l7.7-7.8c0,0,3.7,17.5,3.7,17.5c0.7,2.6,6.6,24.4,28.4,42.5l2.1-11.4L76.6,186.2z"/>
	<path class="st0" d="M134.1,246.5l-3.5-4c-9.3-10.5-19.1-15.8-29.5-21.4c-9.2-4.9-18.6-10-28.5-18.9l-1,5.4l-5.8-3.5
		c-28.2-17-40-40.3-44.4-52.3l-3.4,3.4l-3.2-4.4c-1.1-1.5-25.9-36.7,8-88.3c0.5-0.8,1-1.5,1.6-2.3c-10.5-19.1-2.2-38.5,12.2-48.3
		c13.9-9.5,35-11,49.6,7.2c22.3-3.1,41.1,3.5,47.4,6.1c6.3-2.6,25.3-9.3,47.7-6C193.7,2,215.3,2,230,11c14.6,8.9,24.4,28,12.9,49.6
		c0.4,0.6,0.9,1.3,1.3,1.9c34.9,53.1,4.9,88.9,4.5,89.2l-4.4,3.6l-0.2-0.4c-4.3,14.3-15.1,37.1-42,50.1l-6.7,3.3v-4.9
		c-9.6,9-19.7,14.3-29.7,19.4c-10.4,5.3-20.2,10.4-28.2,19.6L134.1,246.5z M66.7,182.8l6.3,6.8c11.1,11.9,22,17.7,32.5,23.3
		c9.4,5.1,19.2,10.3,28.5,19.7c8.4-8.2,18.1-13.2,27.4-18c12-6.2,24.4-12.5,34.9-26l8.4-10.7V193c29.4-18.4,32.6-50.4,32.7-51.8
		l1.4-15.4l7.1,13c5.6-11.4,12.8-37-9.6-71.1l0,0c-1-1.5-2-3-2.8-4l-1.8-2.5l1.6-2.6c11.3-18.5,2.6-32.8-8.3-39.5
		c-11.9-7.3-28.7-7-37.7,7.7l-1.7,2.7l-3.2-0.6c-24.5-4.5-44.9,4.6-47.1,5.6l-2,0.9l-2-0.9c-2.2-1-22.4-10-46.6-5.7l-2.9,0.5
		l-1.7-2.4C69.3,11.3,53,12,41.8,19.6c-11,7.5-18.1,22.6-7.9,38.2l1.8,2.7l-1.9,2.6c-1.2,1.6-2.2,3.1-3.1,4.5
		c-23.4,35.6-15.8,62.2-11,72.8l6.7-6.8l1.8,8.5c0.1,0.3,6.5,29.2,36.7,50.3L66.7,182.8z"/>
	<path class="st1" d="M240.3,65.1c-1-1.5-1.9-2.9-2.9-4.2c24.4-39.9-33.1-70.6-53.9-36.7c-25.6-4.7-47,4.6-49.9,6
		c-2.9-1.3-24-10.6-49.4-6.1C59-11.2,7.1,25.3,30,60.4c-1.1,1.5-2.2,3-3.3,4.7c-32.5,49.5-8.1,83-8.1,83l5-5c0,0,7.1,34.5,44.6,57.1
		l1.4-7.4c23.1,24.7,44.5,24.1,64.4,46.6c18.4-21.4,45.2-21.4,66.1-48v9.5c38.6-18.8,42.1-59.3,42.1-59.3l3.6,6.6
		C245.8,148.1,272.8,114.5,240.3,65.1"/>
	<path class="st2" d="M158.6,100.1c1.8-0.7,5,1.2,6.7,4.6c7.8-2.3,7.4-12.8,7.3-13.5C166.4,93.6,161.3,97.7,158.6,100.1"/>
	<path class="st3" d="M133.9,151c2.1-0.3,36.4-1.6,15.4,19.7C163.9,151.4,137.4,151.2,133.9,151 M193.1,40.6c0,0,7.7-19.2,31.3-14.6
		c0,0-21.6-14.3-36.7,11.5c0,0-21.4-10.2-53.6,3.8c0,0-30.6-10.7-53.6-4.6c0,0-13.4-23.3-32.3-13.7s-9.1,31.8-5.8,37.5
		c0,0-31.4,31.9-19.6,71.4l6.3-7.9c0,0,9,43,32.2,56.5l1.4-10.6c0,0,24.3,29.3,52.8,41.7c2.7,1.3,17.8,8.8,18.3,12.5v-20.5
		c0,0-19.8,1.6-25-7.5c-3.5-6.2-26.3-46.8-15-89.3c0,0-10.9-1.6-13-20.1c0,0-8.2-4-18.3-3.1c0,0,18.1-5.7,35.2,0.9
		c17,6.6,21.5,23.3,33.1,15.9l3.4-47.2l3.2,47.2c11.5,7.4,16.1-9.3,33.1-15.9s35.1-0.9,35.1-0.9s-7.2-5.1-18.9-7.4
		c-9.7-2-24.1,4.3-24.1,4.3s2-13.4,8.5-20.5C176.6,53.9,189.2,52.6,193.1,40.6 M46.4,56.8C45.7,50.4,53.8,44,53.8,44
		c-3.3-3.5-9.2-0.5-9.2-0.5c5.3-10.4,17.2-5.3,17.2-5.3c-4.5-5.5-14-5.2-14-5.2c11.8-11.7,26,6.2,26,6.2
		C61.1,42.2,46.4,56.8,46.4,56.8 M172.7,91.1L172.7,91.1c-0.1,0-0.2,0.1-0.2,0.1C172.5,91.2,172.6,91.2,172.7,91.1 M163.2,106.4
		c18.9,51-5.2,83.7-5.2,83.7c14.9-38.9,5.3-71.2-1.2-83.3c-3.3,0.3-7.3,0.1-7.3,0.1s5-3.1,8.3-6.1c0.2-0.2,0.5-0.5,0.9-0.8l0,0
		c1.8-0.7,5,1.2,6.7,4.6c7.8-2.3,7.4-12.8,7.4-13.5c2.3-0.9,4.7-1.5,7.2-1.8C179.9,89.4,178.1,106.1,163.2,106.4"/>
	<path class="st2" d="M96.1,91.1c0,0.8-0.5,11.3,7.4,13.6c1.7-3.3,4.7-5.1,6.5-4.6C105.7,96.9,100.5,93.2,96.1,91.1"/>
	<path class="st0" d="M133.8,198.8c-23.9,0-20.7-5.3-20.7-5.3c2.6-1.6,19.3-1.9,20.6-1.9s18.1,0.3,20.7,1.9
		C154.4,193.6,157.7,198.8,133.8,198.8 M96.1,91.1L96.1,91.1L96.1,91.1 M133.8,176.7v9.7l-6.6,0.3c-6.9,0.2-15.9,3-15.9,3
		c-16.8-41.5-7.5-72.9-3-84.1C91.7,109.2,89,89.3,89,89.3c1.7-0.4,4.3,0.4,7.1,1.8c0,0.8-0.4,11.3,7.4,13.6c1.7-3.3,4.7-5.1,6.5-4.6
		c1.2,1,2.4,1.9,3.4,2.7c11.3,9.5,20.1,7.6,20.1,7.6s0.1,36.2,0.1,40.6c0,0-32.7-2.6-15.1,19.7c0,0,2.8-8.1,5.8-5.6
		C128.3,168.7,133.8,176,133.8,176.7"/>
</g>
</svg>
