<?xml version="1.0" encoding="UTF-8"?>
<svg xmlns="http://www.w3.org/2000/svg" id="Layer_1" data-name="Layer 1" viewBox="0 0 490.4 461.53">
  <defs>
    <style>.cls-1{fill:#fff;}</style>
  </defs>
  <path class="cls-1" d="M605.24,187.06c39.41-74.33-63.63-146.34-119.47-79.57-41.47-5.67-76.24,5.74-89.46,11.17-13.22-5.43-48-16.84-89.46-11.17-55.9-66.84-158.8,5.39-119.47,79.57-21.44,30.93-36.27,67.62-36.27,105,0,45,19.21,68.17,26.46,78.13l5.79-5.79c20.35,51.79,55.2,79.66,97.26,105.06l1.76-9.7c45.29,39.25,66.86,29.6,113.93,82.83,46.89-53,69-43.92,113.93-82.83l1.76,9.7c18.72-11.3,71.55-39.63,97.25-105.06l5.8,5.79c4.44-6.09,26.46-30.67,26.46-78.13C641.51,254.69,626.68,218,605.24,187.06Zm8.47,166.07-9.44-9.44S590.85,408.83,520,451.62l-2.56-14.05c-43.63,46.61-83.5,45.55-121.12,88.12-37.62-42.57-77.49-41.51-121.13-88.12l-2.55,14.05c-70.88-42.79-84.3-107.93-84.3-107.93l-9.44,9.44c-22.82-31.35-27.78-98,21.44-165.57C157.12,121.26,255.07,52.22,302.54,119c47.94-8.49,88.34,9,93.75,11.5,5.41-2.52,45.81-20,93.75-11.5,47.46-66.79,145.42,2.25,102.23,68.55C641.53,255.2,636.59,321.69,613.71,353.13Z" transform="translate(-151.11 -81.04)"></path>
  <path class="cls-1" d="M433.46,439.93s-14.46-4.46-36.73-4.46c0,0-34,.52-39.07,3.66,0,0-5.85,10.13,39.07,9.94C439.45,448.88,433.15,441.09,433.46,439.93Z" transform="translate(-151.11 -81.04)"></path>
  <path class="cls-1" d="M508.31,150.12s14.55-36.37,59.12-27.59c0,0-40.92-26.92-69.39,21.76,0,0-40.85-19.17-101.75,7.17,0,0-57.24-20.12-100.75-8.73,0,0-25.37-44-61.1-25.89s-17.09,60.06-10.87,70.94c0,0-59.2,60.31-36.94,134.89l11.91-14.86s17,81.23,60.89,106.82l2.63-20s45.81,55.28,99.68,78.75c5.13,2.41,33.67,16.59,34.55,23.59V458.32s-37.37,3.11-47.23-14.14c-6.7-11.73-49.67-88.38-28.43-168.65,0,0-20.68-3.09-24.57-38a73.33,73.33,0,0,0-34.57-5.95s34.26-10.76,66.37,1.68,40.71,44.07,62.46,30.09l6-89.15,6.56,89.15c21.75,14,30.36-17.66,62.46-30.09s66.39-1.68,66.39-1.68S518,222,496,217.56c-18.39-3.69-45.4,8.13-45.4,8.13s3.73-25.29,16-38.77C477.09,175.32,500.94,172.76,508.31,150.12Zm-277,30.71c-1.29-12.13,14-24.17,14-24.17-6.32-6.53-17.35-.87-17.35-.87,10-19.58,32.45-10,32.45-10-8.5-10.42-26.51-9.76-26.51-9.76,22.28-22.09,49.18,11.67,49.18,11.67C259.12,153.12,231.26,180.83,231.26,180.83Z" transform="translate(-151.11 -81.04)"></path>
  <path class="cls-1" d="M396.43,358.72c6.64.38,56.75.65,29.12,37.22C465.16,355.75,400.53,358.09,396.43,358.72Z" transform="translate(-151.11 -81.04)"></path>
  <path class="cls-1" d="M353.56,431.56c25.62-6.12,28.82-5.63,42.52-6.35v-18.3c0-1.47-10.23-15.17-18.1-21.92-5.66-4.86-11,10.52-11,10.52-33.17-42,29.07-37.21,29.07-37.21V281.59a21,21,0,0,1-4,.31c-19.41,0-33.95-14.28-41-19.77h0c-3.44-1.07-9.12,2.48-12.29,8.65-10.64-3.07-14.28-14.56-13.83-25.57h0c-5.26-2.52-10.13-4-13.48-3.35,0,0,5.07,37.65,36.44,30.85C339.46,293.87,321.91,353.18,353.56,431.56Z" transform="translate(-151.11 -81.04)"></path>
  <path class="cls-1" d="M469.82,244.84c.45,11-3.18,22.5-13.82,25.57-3.17-6.17-8.85-9.72-12.29-8.65h0c-.66.52-1.38,1.11-2.16,1.75l-1.09.89-.31.26c-.88.76-1.95,1.64-3.22,2.64a124.57,124.57,0,0,1-11.17,7.75,110.7,110.7,0,0,0,13.86-.26c12.29,22.69,30.32,83.79,2.25,157.26.26-.34,45.46-62.11,9.81-158.12a29.74,29.74,0,0,0,14.22-3.61h0a28.23,28.23,0,0,0,7.45-6c.21-.23.4-.46.6-.69A46.13,46.13,0,0,0,482.09,247c0-.06,0-.13.05-.2a45.18,45.18,0,0,0,1.16-5.31C480,240.8,475.08,242.32,469.82,244.84Z" transform="translate(-151.11 -81.04)"></path>
</svg>
