<?xml version="1.0" encoding="utf-8"?>
<!-- Generator: Adobe Illustrator 21.1.0, SVG Export Plug-In . SVG Version: 6.00 Build 0)  -->
<!DOCTYPE svg PUBLIC "-//W3C//DTD SVG 1.1//EN" "http://www.w3.org/Graphics/SVG/1.1/DTD/svg11.dtd">
<svg version="1.1" id="Layer_1" xmlns="http://www.w3.org/2000/svg" xmlns:xlink="http://www.w3.org/1999/xlink" x="0px" y="0px"
	 width="471.3px" height="621.6px" viewBox="0 0 471.3 621.6" style="enable-background:new 0 0 471.3 621.6;" xml:space="preserve"
	>
<style type="text/css">
	.st0{display:none;}
	.st1{display:inline;fill:#F0EBD2;}
	.st2{display:inline;fill:#00471B;}
	.st3{display:inline;fill:#FFFFFF;}
	.st4{display:inline;fill:#007DC5;}
	.st5{fill:#F0EBD2;}
	.st6{fill:#00471B;}
	.st7{fill:#FFFFFF;}
</style>
<g id="Layer_1_1_" class="st0">
	<path class="st1" d="M235.2,473.4c-101.3,0-183.7-79.7-183.7-177.7S133.9,118,235.2,118s183.7,79.7,183.7,177.7
		C418.9,393.6,336.5,473.4,235.2,473.4"/>
	<path class="st2" d="M411.4,295.7c0,94.1-78.9,170.5-176.2,170.5S59,389.9,59,295.7s78.9-170.5,176.2-170.5
		S411.4,201.5,411.4,295.7"/>
	<path class="st3" d="M147.4,182.4l-12.2-17.9l17.3-11l6.1,8.9l-5.3,3.4l-2.6-3.8l-6.7,4.2l5.3,7.7l12-7.6l13.1,19.2l-17.2,11
		l-6.1-9l5.3-3.4l2.6,3.9l6.7-4.2l-6.1-9L147.4,182.4z M143.7,208.2l-12.1-12.1l17,7.5l4.8-4.5l-23.3-10.5l-5.4-16.4l-4.8,4.5
		l3.8,11.4l-7.7-7.7l-4.6,4.3l27.7,27.8L143.7,208.2z M126.5,208.9l-3.7,5l4.7,3.2l-4.6,6.3l-22-15.1l4.6-6.3l4.7,3.2l3.7-5
		l-9.9-6.8l-12,16.3l32.4,22.2l12-16.3L126.5,208.9z M83.2,226.1l30.4,13.3l-3.3,7l-30.4-13.2l-2.6,5.6l36.1,16l8.6-18.5l-36.2-15.8
		L83.2,226.1z M107.6,258.5l3.3,5l-3.5,15.3l-38.9-8.6l3.4-15.3l5-3.2l12.5,2.8l2.5,3l3.6-1.7L107.6,258.5z M87.1,260.1l-9.4-2.1
		l-1.7,7.8l9.4,2.1L87.1,260.1z M104.2,263.9l-10.9-2.4l-1.7,7.8l11,2.4L104.2,263.9z M330.9,169.3l-20.2,25.9l5.6,4.1l20.2-25.9
		l5.1,3.7l3.8-4.9l-15.8-11.5l-3.8,4.9L330.9,169.3z M307,191.7l3-5.4l-11.8-6.2l5.4-9.5l11.8,6.2l3-5.3l-11.8-6.2l4.6-8.1l11.8,6.2
		l3.1-5.4l-17.3-9.2l-19.1,33.7L307,191.7z M321.3,203l28.7-26.9l11.4,11.1v5.8l-9.2,8.6l-4,0.4l-0.5,3.8l-8.9,8.4l-6.1-0.1
		L321.3,203z M342.7,191l5.9,5.6l6.9-6.5l-5.9-5.7L342.7,191z M338.2,195.3l-8.1,7.6l5.8,5.6l8.1-7.5L338.2,195.3z M267.4,151.1
		l-14.2-1.9l1.3-9.2l7.9,1.1l-0.7,4.5l6.3,0.8l1.5-10.6l-20.5-2.7l-3,21.3l14.2,2l-1.5,10.6l-7.9-1.1l0.7-4.6l-6.3-0.8l-1.5,10.7
		l20.5,2.7L267.4,151.1z M274.2,177.1l5.6-16l0.9,18l6.3,2.1l-1-24.8l12.6-12.1l-6.4-2.1l-8.7,8.4l3.5-10.1l-6-2l-12.8,36.6
		L274.2,177.1z M195,177.3L184.7,140l15.6-4.2l5.2,2.8l3.3,12l-1.6,3.6l3.2,2.3l3.2,11.6l-3,5.1L195,177.3z M204.2,157.2l-7.9,2.2
		l2.9,10.5l7.9-2.2L204.2,157.2z M194.7,153.5l7.9-2.2l-2.5-9l-8,2.2L194.7,153.5z M331.6,408.7l10.1,13.6l-16.9,11.4l-10-13.5
		l0.7-3.4l-3.5-0.5l-10.1-13.7l16.8-11.6l10.2,13.8l-1.1,3.6L331.6,408.7z M316.2,411.7l6.5-4.5l-5.6-7.5l-6.5,4.5L316.2,411.7z
		 M332.8,420.9l-6.5-8.8l-6.5,4.5l6.5,8.8L332.8,420.9z M303.8,419.2l9.7,21l-18.9,8.1l-16.1-35.1l18.9-8.1l3.9,8.4l-5.8,2.5
		l-1.3-2.8l-7.3,3.1l3.9,8.4L303.8,419.2z M305.1,437.1l-4.5-9.9l-7.3,3.1l4.5,9.9L305.1,437.1z M382.8,215.8l-33.4,21l-3.5-5.1
		l14.6-9.2l-4.3-6.5l-14.6,9.2l-3.5-5.1l33.3-20.9l0.1-0.1L382.8,215.8z M365.8,219.2l8.2-5.2l-4.4-6.4l-8.2,5.1L365.8,219.2z
		 M400.2,259.9l-1.3-6l-39,7.9l4.1,18.8l6.3-1.3l-2.8-12.8L400.2,259.9z M359.7,244l31-12.3l-2.4-5.7l-36.9,14.7l7.6,17.8l5.9-2.3
		L359.7,244z M274.3,414.6l8.7,37.5l-20.2,4.4l-2.1-9l6.2-1.3l0.7,3l7.8-1.7l-2.1-9l-14,3.1l-5.2-22.6L274.3,414.6z M272,432.6
		l-2.4-10.6l-7.8,1.7l2.4,10.5L272,432.6z M216.2,419.2l-19.2-4.3l-1.4,6l6.2,1.4l-7.6,31.6l6.8,1.5l7.6-31.6l6.2,1.4L216.2,419.2z
		 M211.3,457.2l6.3,0.7l0.7-6.1l-6.3-0.7L211.3,457.2z M164,424.8l13,5.8l-4.6,9.8l-7.3-3.2l2-4.2l-5.8-2.5l-4.6,9.8l18.8,8.3
		l9.8-20.9l-13-5.8l4-8.4l7.3,3.2l-2,4.2l5.8,2.5l4.6-9.8l-18.8-8.3L164,424.8z M155.7,420.2l3.7-4.9l-10.8-7.6l5.6-7.5l10.8,7.6
		l3.7-5l-16-11.2l-23.4,31.1l16,11.2l3.7-4.9l-10.8-7.6l6.6-8.7L155.7,420.2z M238,420.2l0.4,7.9l3.2-0.2l1.7,30.5l6.3-0.3
		l-2.1-38.4L238,420.2z M239.3,171l-6.3,0.3l-1-16.9l-8,0.4l1,16.9l-6.3,0.3l-2.2-38.3v-0.1l20.6-1.2v0.2L239.3,171z M231.7,148.4
		l-0.5-9.4l-8,0.5l0.5,9.4L231.7,148.4z"/>
	<path class="st1" d="M356.3,295.9c0.1-31.3-12.5-60.7-35.3-82.9s-53.2-34.4-85.5-34.4h-0.2c-66.6,0-120.9,52.4-121,116.9
		c-0.1,31.3,12.5,60.7,35.3,82.9c22.8,22.2,53.2,34.4,85.5,34.4h0.2C301.9,412.8,356.2,360.3,356.3,295.9"/>
	<path class="st2" d="M350.1,295.9C350,357.3,298.5,407,235,406.9s-114.8-50-114.7-111.4c0.1-61.4,51.6-111.1,115.1-111
		S350.3,234.5,350.1,295.9"/>
	<path class="st3" d="M260.4,229.8c-7.2-1.2-14.6-1.8-22.2-2l0.1-36.4c15.4,0.4,30,4.3,43,10.7C271.6,210.7,264.9,220,260.4,229.8
		 M204,230.9c-3.7-9.2-9.6-18.2-18.3-26.8c-24.4,13.4-42.5,36.3-48.8,63.6C151.5,250,175.5,236.6,204,230.9 M333.7,267.9
		c-6.2-27.2-24.2-50.3-48.6-63.7c-8.8,8.6-14.7,17.6-18.4,26.8C295.2,236.8,319.1,250.3,333.7,267.9 M210.3,229.8
		c7.2-1.1,14.6-1.8,22.2-1.9l0.1-36.4c-15.5,0.4-30,4.2-43,10.6C199.2,210.6,205.9,219.9,210.3,229.8 M205.7,235.6
		c-34.9,8.7-61.3,32.3-66.8,61.4c-1.3,9-0.6,18.4,2.4,27.6c4.2,10.4,10.2,19.9,17.6,28.1C160.3,351.5,223.6,292.2,205.7,235.6
		 M265,235.7c-18.1,56.5,45,116,46.3,117.3c6.7-7.5,12.3-15.9,16.4-25.1c4.7-12,5.3-24.3,2.6-35.9C322.9,265.4,297.7,244,265,235.7
		 M293.5,368.5L293.5,368.5c-16.5,11.4-36.7,18-58.4,18c-21.8,0-41.9-6.8-58.4-18.2c0,0,58.1-73.9,35.4-134.1
		c6.6-1.2,13.4-2,20.4-2.1l-0.1,80.9l2.9,4.8l2.9-4.8l0.1-80.9c7,0.2,13.8,0.9,20.3,2.2C235.7,294.5,293.5,368.5,293.5,368.5
		 M271.3,351.7c-6.5-13.3-13.6-30.6-17.7-49.3h-4l-14.3,25.2l-14.2-25.2h-4.2c-4.1,18.5-11.1,35.6-17.7,48.8l-0.1,0.3l31.1,29.3
		l-9.1-45.8l14,20.6l14.1-20.5l-9.2,45.8L271.3,351.7z"/>
</g>
<g id="Layer_4" class="st0">
	<path class="st1" d="M415.3,262.8c-0.3-0.9-1-1.6-1.9-1.9l-51.9-19l4.3-19.1c0.4-1.6-0.5-3.2-2-3.8l-127.3-46.5l-3.9-8.9
		c-0.3-0.7-0.8-1.2-1.4-1.6l-13.7-7.3l7.8-12.9c0.5-0.8,0.6-1.8,0.3-2.7s-0.9-1.6-1.8-2l-37.1-16c-0.4-0.2-0.8-0.3-1.3-0.3
		c-0.4,0-0.8,0.1-1.2,0.2l-47,19.4l-12.4-4.3c-0.3-0.1-0.7-0.2-1.1-0.2c-0.7,0-1.3,0.2-1.9,0.6l-25,18.2c-0.8,0.6-1.3,1.6-1.3,2.6
		l-0.1,38.9l-38.8,39c-0.6,0.6-1,1.4-0.9,2.3c0,0.9,0.4,1.7,1,2.3L72.9,256l-7.8,50.2c-0.2,1.1,0.3,2.3,1.2,3l71.2,57.1l7.2,38.3
		c0.1,0.4,0.2,0.7,0.4,1l-1.1,2.1c-0.3,0.7-0.4,1.4-0.3,2.2l10.1,44.3c0.3,1.1,1.1,2,2.2,2.4l16.8,5.4l5,12.9c0.5,1.2,1.7,2.1,3,2.1
		h109.3c8.5,19,27.5,32.3,49.6,32.3c30,0,54.3-24.4,54.3-54.3c0-22-13.2-41-32.1-49.6l2.1-33.7l19-17.8c1-1,1.3-2.5,0.7-3.7
		l-7.1-15.3l38.3-69.4C415.6,264.6,415.7,263.7,415.3,262.8"/>
	<path class="st2" d="M354.7,410.2l2.6-41.8l19-17.8l-7.5-16l37.9-68.6l-37.3-14l-8.4,10.9l0.7-13.4l-8.5-3.1l4.9-21.9l-126.9-46.3
		l-4.6-10.4l-19.2-10.2l9.4-15.5l-31.4-13.5l-48,19.8l-13-4.5l-21.7,15.8l-0.1,39.9l-38,38.2l16.2,15.4l-8,51.6l71.5,57.3l7.5,39.5
		l2.5,2.1l-2.9,5.8l9.3,40.7l17.9,5.8l5.3,13.6h111.5c6.2,18.7,23.8,32.2,44.7,32.3c26,0,47.2-21,47.2-47.1
		C387.1,434.1,373.5,416.4,354.7,410.2"/>
	<path class="st4" d="M359.9,334.6l35.4-64.4l-23.3-8.7l-19.9,25.3l1.3-31.8l-9.6-3.5l4.1-18.3l3.4,1.2l-3.3,14.8l9.1,3.3l-1.3,24.1
		l15-19.5l29.7,11.1L364,334.5l7.1,15l-17.9,16.8l-2.7,42.6c-1.2-0.2-2.4-0.4-3.6-0.6l2.7-42.2l0.1-0.3l0.9-1.9l0.2-0.2l16-15.1
		L359.9,334.6z M184.2,449.7l-17-5.5l-7.7-33.6l4.6-8.6l-5.3-4.5l-7.7-39.7l-70-56.1l7.9-51.4l-13.3-12.5l34.7-34.9l-3.6-1.6
		l-36.3,36.5l14.6,14l-8,51.4l70.8,56.7l7.5,39.6l3.9,3.3l-3.7,7.4L164,447l17.6,5.7l5,12.8l0,0l2.5-3.6L184.2,449.7z M264.1,194.9
		l-36.2-13.2l-4.7-10.7l-21.9-11.6l9.2-15.2l-25.2-10.9l-47.8,19.8l-12.4-4.3l-15,10.9l3.3,2l12.3-8.9l10.7,3.7h0.3l2-0.1h0.3
		l46.4-19.2l20,8.6l-8.9,14.9l3.3,1.8l20.8,11l4.9,11l37.6,13.7L264.1,194.9z"/>
	<path class="st3" d="M323.6,342v-6.2h-12.8v12.4h22.1v31.9h-31.4v-15.7h9.2v6.3h12.9v-12.9h-22.1v-31.6h31.4V342H323.6L323.6,342z
		 M290.2,298.7h-10l-14.1,22.2l0.1-22.2h-9.3v53.9h9.2V337l6-9.4l8.2,25h10l-12-34.6L290.2,298.7z M244.5,276.3v-15.8h-31.7v53.9
		h31.6v-15.7h-9.2v6.3h-13v-35h13v6.2L244.5,276.3z M190.7,231.9l0.1,44.5h-12.9v-44.5h-9.3v53.9H200v-53.9H190.7z M157.1,235.8
		v16.8l-5.8,5.9h-25.5l-0.2-54h25.5l5.8,5.6v17.3l-3.3,4.3L157.1,235.8z M148.7,234.6h-14.8v15.2h14.8V234.6L148.7,234.6z
		 M148.7,213.1h-14.8v13h14.8V213.1L148.7,213.1z M341.2,410.7c6.3,0.2,12.3,1.8,17.6,4.5c-4,3.6-6.7,7.6-8.5,11.7
		c-2.9-0.5-6-0.8-9.1-0.8V410.7z M319.6,416.1c3.6,3.7,6,7.5,7.5,11.4c-11.7,2.4-21.5,8.1-27.6,15.6
		C302.2,431.5,309.6,421.7,319.6,416.1 M301.4,467.2c-1.2-3.9-1.5-7.9-1-11.7c2.2-12.3,13.1-22.4,27.4-26
		c7.3,24-18.6,49.1-19.2,49.7C305.6,475.6,303.2,471.6,301.4,467.2 M338.8,493.4c-8.5-0.2-16.3-3.1-22.8-7.7
		c0.3-0.3,23.8-31.5,14.5-56.8c2.7-0.5,5.5-0.8,8.3-0.9V493.4z M338.8,426.2c-3.1,0-6.2,0.3-9.1,0.8c-1.8-4.2-4.6-8.1-8.5-11.8
		c5.3-2.7,11.3-4.3,17.6-4.5V426.2z M341.1,493.4l0.1-65.4c2.9,0.1,5.7,0.4,8.4,0.9c-9.3,25.4,14.1,56.5,14.3,56.9
		C357.4,490.4,349.6,493.2,341.1,493.4 M377.9,468.6c-1.7,3.9-4,7.5-6.7,10.6c-0.5-0.5-26.4-25.8-19-49.7
		c13.4,3.5,23.8,12.6,26.8,23.9C380.1,458.3,379.8,463.5,377.9,468.6 M352.8,427.5c1.5-3.9,4-7.7,7.6-11.4c10,5.7,17.4,15.5,19.9,27
		C374.4,435.7,364.5,430,352.8,427.5"/>
</g>
<path class="st5" d="M123.9,530.7c-5.8-4.8-8.2-12.5-6.1-19.6l30.9-109.9l-12-19.2c-1.9-3-2.9-6.5-2.9-10l-8.1-0.5
	c-19.7-1.5-27.8-4.1-33.9-7.6c-23-12.7-28.5-46.4-29.6-56.4l-1.2-9.8c-0.9-6.2,0.6-12.4,4.1-17.2C26.8,243.9-10.9,193.8,2.9,124
	C18,48.4,76,22.2,87.4,17.7l0.1,0c2-0.8,4.2-1.2,6.7-1.2c4.8,0,9.3,1.8,12.7,5c17.6-12.5,33.3-18.4,40-20.5c1.8-0.6,3.7-0.9,5.8-0.9
	c7.4,0,14.1,4.3,17,11c3.9,8.7,0.7,18.9-7.4,23.7c-9.8,5.9-19,13.1-27.1,21.3c1.5-0.1,2.8-0.1,3.6-0.1h2.1l0.3,0
	c9.3,0.6,16.6,7.8,17.5,16.9c0.8,9.1-5.1,17.5-13.9,19.8c-0.1,0-0.1,0-0.2,0.1c-5.3,1.5-23.8,7.4-44.5,21.6c-4,13.2-6,27-6,41.1
	c0,26,7.5,52.5,20.8,73.9c4.6-28.6,20.5-65.6,68.9-84.9l0.3-0.1c2.2-0.8,4.4-1.2,6.6-1.2c7,0,13.6,4.1,16.7,10.3
	c4.3,8.8,1.4,18.9-6.6,24l-0.3,0.2l-0.3,0.2c-0.9,0.6-1.7,1.1-2.6,1.7c4.5,2.1,8,5.9,9.7,10.7c1.4,3.9,1.4,8,0.2,11.8
	c1.5-0.4,3-0.6,4.6-0.6c0.5,0,1.6,0,2.8,0.3c9.1,1.4,15.9,9.2,15.9,18.4c0.1,19.8-2.7,47.8-15.7,73.7c9.5,3,17.4,3.2,19.3,3.2h2
	c1.9,0,9.9-0.2,19.4-3.2c-8.2-16.4-15.9-40.7-15.8-73.8c0-9.4,7.1-17.4,16.6-18.5l0.6-0.1h0c0.4-0.1,0.9-0.1,1.5-0.1
	c1.6,0,3.2,0.2,4.8,0.6c-1.2-3.8-1.2-8,0.2-11.9c1.8-4.9,5.3-8.6,9.7-10.6c-0.8-0.6-1.7-1.2-2.5-1.7l-0.3-0.2l-0.3-0.2
	c-8-5.1-10.9-15.5-6.6-24c3.1-6.3,9.7-10.3,16.7-10.3c2.4,0,4.7,0.4,6.9,1.3c48.4,19.4,64.3,56.4,68.9,84.9
	c13.3-21.5,20.8-48,20.8-73.9c0-14-2-27.8-6-41.1c-20.8-14.3-39.2-20.1-44.5-21.6c-0.1,0-0.1,0-0.2-0.1
	c-8.8-2.3-14.8-10.7-13.9-19.8c0.9-9.2,8.5-16.5,17.7-17l0.2,0h2c0.9,0,2,0,3.5,0.1c-8.2-8.2-17.3-15.4-27.1-21.3
	c-8.2-4.9-11.3-15.1-7.3-23.7c3-6.7,9.6-10.9,17-10.9c2.1,0,4,0.3,5.8,0.9c8.3,2.7,23.3,8.6,40,20.5c3.4-3.1,7.9-4.9,12.7-4.9
	c2,0,4,0.3,6.1,1l0.1,0c0.7,0.3,18.4,6.5,37.9,23.5c24.2,21.2,40.5,49.9,47.1,83.1c13.9,69.6-23.9,119.8-62.2,156.4
	c3.5,4.9,5,11,4.1,17.2l-1.2,9.9c-1.6,13-7.7,44.3-29.7,56.4c-5.5,3-13.4,6-33.7,7.5l-8.3,0.5c0,3.6-1,7.1-2.9,10.1l-11.9,19.1
	l30.9,109.9c1.9,7.1-0.4,14.7-6,19.4l-111.8,90.9L123.9,530.7z M194.1,215.9c-12.4,8.1-19.3,16.9-20.6,26.1
	c-0.8,5.9,0.8,11.9,3,17.2C186.2,242.9,192.4,223,194.1,215.9L194.1,215.9z M277,215.9c1.9,7.7,8.1,27.3,17.5,43.2
	c2.3-5.2,3.8-11.2,3-17.2C296.3,232.7,289.4,224,277,215.9z"/>
<path class="st5" d="M130.2,522.9c-2.7-2.2-3.8-5.8-2.8-9.1l31.5-112c0.2-0.7,0.4-1.3,0.8-1.9l-14.5-23.2c-1.3-2.1-1.7-4.7-1-7.1
	l2-6.8l-19.8-1.3c-18.6-1.4-25.3-3.8-29.7-6.3c-18.7-10.3-23.6-40-24.6-48.8l-1.2-10c-0.6-4,0.5-8,2.9-10.8c1.9-2.2,4.5-3.6,7.3-3.9
	c-43.1-39-82-87.4-68.4-155.7c15-75.4,76-98.1,78.5-99.1c1-0.4,2-0.5,3-0.5c3.1,0,6.1,1.7,7.7,4.6c1.1,2,1.3,4.3,0.7,6.4
	c20.1-16.9,39.3-24.4,47.4-27c0.9-0.3,1.8-0.4,2.7-0.4c3.3,0,6.5,1.9,7.9,5.1c1.8,4,0.4,8.8-3.4,11c-18.4,11.1-34.4,26.2-46.4,43.6
	c14.7-3.4,24.5-3.8,28-3.8c1.2,0,1.8,0,1.8,0c4.3,0.3,7.8,3.6,8.2,7.9s-2.4,8.2-6.6,9.2c-0.2,0.1-24.2,6.1-50.6,25.1
	c-5,15.2-7.5,31.1-7.5,47.3c0,30.6,9.8,62.1,26.9,86.2c4.1,5.8,8.1,10.8,12.3,15.4c-1.6-31.4,7.4-80.6,64.2-103.3
	c1.1-0.4,2.2-0.6,3.2-0.6c3.2,0,6.3,1.8,7.8,4.8c2,4.1,0.6,9-3.3,11.3l-0.4,0.3c-8.8,5.7-16.1,13.1-21.8,21.6
	c6.2-1.9,11.5-2.5,15.1-3l0.7-0.1c0.4,0,0.7-0.1,1-0.1c3.6,0,7,2.3,8.2,5.8c1.4,3.8-0.1,8.1-3.6,10.3l-0.3,0.2
	c-0.1,0.1-0.2,0.2-0.4,0.2c-18.2,10.5-28.3,22.7-30.1,36.3c-1.9,14.9,6.3,28.9,12.2,36.8c15.3-17.7,25.3-47.9,28-59.3
	c1-3.9,4.5-6.6,8.4-6.6c0.3,0,0.7,0,1,0.1c4.4,0.5,7.7,4.2,7.7,8.6c0.2,37.1-9.8,62.5-20,78.7c15.3,7.8,30.3,8.2,33.6,8.2
	c0.4,0,0.9,0,1,0s0.7,0,1,0c3.2,0,18.3-0.4,33.6-8.2c-10.2-16.2-20.2-41.6-20-78.7c0-4.4,3.3-8.1,7.7-8.6c0.4,0,0.7-0.1,1-0.1
	c4,0,7.5,2.7,8.4,6.6c2.8,11.4,12.8,41.6,28,59.3c5.9-7.9,14.1-21.9,12.2-36.8c-1.8-13.6-11.9-25.8-30.1-36.3
	c-0.1-0.1-0.5-0.3-0.5-0.3c-3.4-2.2-5-6.5-3.6-10.3c1.3-3.5,4.5-5.8,8.2-5.8c0.3,0,0.7,0,1,0.1l0.7,0.1c3.6,0.4,8.9,1.1,15.1,3
	c-5.6-8.5-13-15.9-21.7-21.6l-0.4-0.3c-3.9-2.3-5.3-7.3-3.3-11.3c1.5-3,4.6-4.8,7.8-4.8c1.1,0,2.2,0.2,3.2,0.6
	c56.8,22.8,65.8,71.9,64.2,103.3c4.2-4.6,8.2-9.6,12.3-15.4c17.1-24.2,26.9-55.6,26.9-86.2c0-16.2-2.5-32-7.5-47.3
	c-26.6-19.1-50.4-25-50.6-25.1c-4.2-1-7-4.9-6.6-9.2c0.4-4.3,3.9-7.7,8.2-7.9c0,0,0.6,0,1.8,0c3.4,0,13.3,0.4,28,3.8
	c-12.1-17.4-28.1-32.5-46.4-43.6c-3.8-2.3-5.3-7-3.4-11c1.4-3.2,4.6-5.1,7.9-5.1c0.9,0,1.8,0.1,2.7,0.4c8.1,2.6,27.3,10,47.4,27.1
	c-0.6-2.1-0.4-4.4,0.7-6.4c1.5-2.9,4.5-4.6,7.7-4.6c1,0,2,0.2,2.9,0.5c2.6,0.9,63.5,23.7,78.5,99.1c13.6,68.3-25.4,116.7-68.4,155.7
	c2.8,0.3,5.4,1.7,7.3,3.9c2.4,2.8,3.5,6.8,2.9,10.8l-1.2,10c-1.1,8.8-5.9,38.5-24.6,48.8c-4.4,2.4-11.1,4.9-29.6,6.3L325,363l2,6.8
	c0.7,2.4,0.4,5-1,7.1l-14.5,23.2c0.3,0.6,0.6,1.2,0.8,1.9l31.5,112c0.9,3.3-0.2,6.9-2.8,9.1l-105.3,85.6L130.2,522.9z"/>
<path class="st6" d="M21.2,127.8c14.2-71.5,72.9-92.6,72.9-92.6C72.7,51.1,50.7,81,41.6,122.9c8.8-11,17-19.2,26.6-25.7
	c23.8-51.3,64.4-72.1,84.4-78.5C126.7,34.3,105.1,57.6,92,84.4c29.9-10.7,47.9-9.7,47.9-9.7s-26.7,6.5-55.9,28.2
	c-5.7,16.5-8.9,34.2-8.9,52.7c0,32.5,10.5,65.8,28.5,91.3c10.1,14.4,19.9,24.3,32.1,33.3c-4-10.1-19.4-88.5,54.7-118.2l-0.5,0.3
	c-17.5,11.3-30.4,29-35.6,49.8c13.5-13,27.8-14.3,35.3-15.2c-0.1,0.1-0.2,0.2-0.4,0.2c-68.8,39.7-14.1,93.4-14.1,93.4
	c21.7-18.2,34.3-58.9,37.1-70c0.3,43-14,68.8-23.8,81.3c22.2,15.2,47,14.2,47,14.2l0,0l0,0c0,0,24.9,1,47.1-14.2
	c-9.7-12.6-24-38.3-23.8-81.3c2.7,11.1,15.4,51.8,37,70c0,0,54.7-53.7-14.1-93.4c-0.1-0.1-0.2-0.2-0.4-0.2
	c7.5,0.9,21.8,2.3,35.3,15.2c-5.2-20.8-18.1-38.4-35.6-49.8l-0.5-0.3c74.1,29.7,58.8,108.1,54.7,118.2c12.2-9,22-19,32.1-33.3
	c18-25.5,28.5-58.8,28.5-91.3c0-18.5-3.1-36.2-8.9-52.7c-29.2-21.7-55.9-28.2-55.9-28.2s18-1,47.9,9.7
	c-13.2-26.8-34.8-50.1-60.6-65.7c19.9,6.4,60.6,27.2,84.4,78.5c9.6,6.6,17.8,14.8,26.6,25.7c-9.1-41.9-31-71.8-52.5-87.7
	c0,0,58.7,21.1,73,92.6c16.6,83.2-49.8,135.1-103.4,179.6l40.9-16.7c2.8-1.2,4.7,1.5,4.2,4.7l-1.2,10.1c-0.6,5.6-4.7,33.7-20.2,42.2
	c-3.3,1.8-9.1,4-26.1,5.2l-30.7,2l5.1,17.3l-30.1,48.3l15.4-16.3l31.5,112l-86.2,71.1l27-122.3l-40.3,49l-40.4-49l27,122.3
	l-86.4-71.1l31.5-112l15.4,16.3l-30.1-48.3l5.1-17.3l-30.7-2c-17-1.3-22.7-3.4-26.1-5.2c-15.5-8.5-19.5-36.7-20.2-42.2l-1.2-10.1
	c-0.5-3.2,1.4-5.9,4.2-4.7l40.9,16.7C71.1,262.9,4.6,211,21.2,127.8 M408.7,217.2c0,0,33.9-53.5,10.8-83.4c-2.4-3.1-4.9-5.9-7.5-8.6
	C421.5,159.4,408.7,217.2,408.7,217.2 M62.4,217.2c0,0-12.8-57.8-3.3-92c-2.5,2.7-5.1,5.5-7.5,8.6C28.6,163.7,62.4,217.2,62.4,217.2
	"/>
<path class="st7" d="M323.8,340.9c15.2-1.2,32.5-0.8,39.6-4.7c10.5-5.8,13.5-30.9,13.5-30.9l0,0
	C365.3,316.6,340.6,334.4,323.8,340.9 M253.1,455.3h-17.5h-17.5l8.4,11.4h9.1h9.1L253.1,455.3z M262.8,357.4c4.2,4.1,11.9,8,21.1,1
	c4.9-3.8,5-9.3,4.4-12.9c-0.3-1.8-2.2-2.8-3.8-2.1c-8.2,3.8-16.5,7.6-20.9,9.6C261.9,353.8,261.5,356.1,262.8,357.4 M203.8,407
	l-4.9,21.8l12.2,16.4h12.8L212,427.6l1.9-10.9c5.4,5.8,13.1,9.4,21.7,9.4c8.6,0,16.3-3.6,21.7-9.4l1.9,10.9l-12,17.6h12.9l12.2-16.4
	l-4.9-21.8c-11.6-7.4-14.3-17.9-14.3-17.9l-8.1-26.5l-9.4,4.5l-9.4-4.5l-8.1,26.5C218.1,389.1,215.4,399.6,203.8,407 M187.1,358.3
	c9.2,7.1,17,3.1,21.1-1c1.4-1.3,0.9-3.6-0.8-4.4c-4.4-2-12.6-5.8-20.9-9.6c-1.6-0.8-3.5,0.3-3.8,2.1
	C182.2,349,182.3,354.6,187.1,358.3 M94.2,305.3L94.2,305.3c0,0,3,25.1,13.5,30.9c7.1,3.9,24.5,3.5,39.6,4.7
	C130.5,334.4,105.8,316.6,94.2,305.3"/>
<g id="Layer_6" class="st0">
	<path class="st1" d="M434.8,308.6c0.1-53.2-20.5-103.3-58.1-141s-87.6-58.5-140.8-58.6h-0.4c-109.6,0-199,89.2-199.2,198.9
		c-0.1,53.2,20.5,103.3,58.1,141s87.6,58.5,140.8,58.6h0.4C345.3,507.5,434.6,418.3,434.8,308.6"/>
	<path class="st2" d="M424.7,308.6c-0.2,104.5-85,189-189.5,188.9c-104.5-0.2-189-85-188.9-189.5c0.2-104.5,85-189,189.5-188.9
		C340.4,119.3,424.9,204.1,424.7,308.6"/>
	<path class="st3" d="M277.1,196.2c-11.8-2-24-3.1-36.6-3.4l0.1-61.9c25.4,0.8,49.4,7.3,70.8,18.2
		C295.5,163.6,284.4,179.6,277.1,196.2 M184.2,198c-6-15.6-15.8-30.9-30.2-45.7c-40.2,22.8-70,61.8-80.4,108.2
		C97.7,230.6,137.2,207.8,184.2,198 M397.7,261c-10.2-46.4-39.9-85.5-80-108.4c-14.5,14.7-24.3,30-30.4,45.6
		C334.3,208.1,373.7,231,397.7,261 M194.5,196.1c11.8-1.9,24-3,36.6-3.3l0.1-61.9c-25.4,0.7-49.5,7.1-70.8,18
		C176.2,163.4,187.2,179.4,194.5,196.1 M187,206.1c-57.5,14.7-101,55-109.9,104.4c-2.2,15.4-1,31.3,4,47
		c6.9,17.6,16.8,33.8,29.1,47.9C112.2,403.2,216.4,302.4,187,206.1 M284.5,206.3c-29.8,96.2,74.1,197.4,76.2,199.6
		c11.1-12.7,20.2-27.1,27.1-42.7c7.7-20.4,8.8-41.4,4.3-61.1C379.9,256.8,338.4,220.3,284.5,206.3 M331.5,432.2L331.5,432.2
		c-27.2,19.3-60.4,30.7-96.2,30.6s-69-11.6-96.1-31l0,0c0,0,95.6-125.7,58.3-228.1c10.8-2.1,22-3.3,33.5-3.6l-0.2,137.7l4.7,8.2
		l4.7-8.2l0.2-137.7c11.5,0.3,22.7,1.6,33.5,3.7C236.4,306.2,331.5,432.2,331.5,432.2 M294.9,403.6c-10.7-22.7-22.4-52.1-29.1-83.8
		h-6.6l-23.5,42.8l-23.3-42.9h-6.8c-6.8,31.4-18.3,60.5-29.1,83.1l-0.2,0.6l51.2,49.9l-14.9-77.9l23.1,35l23.2-35l-15.2,77.8
		L294.9,403.6z"/>
</g>
</svg>
