<?xml version="1.0" encoding="utf-8"?>
<!-- Generator: Adobe Illustrator 21.1.0, SVG Export Plug-In . SVG Version: 6.00 Build 0)  -->
<!DOCTYPE svg PUBLIC "-//W3C//DTD SVG 1.0//EN" "http://www.w3.org/TR/2001/REC-SVG-20010904/DTD/svg10.dtd">
<svg version="1.0" id="Layer_1" xmlns="http://www.w3.org/2000/svg" xmlns:xlink="http://www.w3.org/1999/xlink" x="0px" y="0px"
	 width="300px" height="321.3px" viewBox="0 0 300 321.3" style="enable-background:new 0 0 300 321.3;" xml:space="preserve">
<style type="text/css">
	.st0{fill:#FFFFFF;}
	.st1{fill:#A8A9AC;}
	.st2{fill:#221F1F;}
	.st3{fill:#FDD41E;}
	.st4{fill:#981B33;}
	.st5{fill:#005183;}
</style>
<g>
	<path class="st0" d="M128.8,184.6C128.7,184.6,128.7,184.5,128.8,184.6c-0.4,0-0.6,0.1-0.8,0.2c-3.1,1.1-5.5,5.9-5.1,15.1
		c0.5,11.4,8.2,18.6,15,20.3c0.4,0.1,0.6,0.2,0.9,0.2c1.6,0,0-1.8-1.6-3.4c-1.8-1.8-4.7-5.1-4.7-9.7c0-0.6,0.1-1.1,0.2-1.7
		c0.1-0.1,0.1-0.3,0.2-0.5c0.1-0.4,0.2-0.8,0.4-1.2c0.1-0.2,0.2-0.5,0.4-0.7c0.1-0.3,0.3-0.5,0.4-0.8c0.2-0.3,0.4-0.6,0.7-0.9
		c0.1-0.2,0.2-0.3,0.4-0.5c0.3-0.3,0.6-0.7,0.9-0.9c0.1-0.1,0.2-0.2,0.3-0.3c0.4-0.3,0.8-0.6,1.2-0.9c0,0,0.1,0,0.2-0.1
		c0.5-0.3,1-0.5,1.5-0.7c0.6-0.2,1.1-0.4,1.7-0.5h0C138.8,192.3,133.2,185.4,128.8,184.6"/>
	<path class="st0" d="M139.3,227.4c0,0-0.5-2.4-1.7-3.4c-1.2-0.9-1.9-1.7-3.4-1.2c0,0-3.6,1.7-3.6,10.1c0,6.5,3.6,8.7,3.6,8.7
		s-1.4-7.2,0.5-10.3C136.7,228.2,139.3,227.4,139.3,227.4"/>
	<path class="st0" d="M145.1,231c0,0,2.4,3.1,3.4,4.3l3.1-3.8l3.1,3.8c1-1.2,3.4-4.3,3.4-4.3c1.2,0.2,2.6,3.4,2.6,3.4
		c2.5-2.4,2.5-6.3,2.5-6.3c-0.8-1.7-4.9-0.7-5.8,1.2c-1.9-1.9-4.6-1-5.8,0.2c-1.2-1.2-3.9-2.1-5.8-0.2c-1-1.9-5.1-2.9-5.8-1.2
		c0,0,0,3.8,2.4,6.3C142.5,234.4,143.9,231.3,145.1,231"/>
	<path class="st0" d="M139.4,285.6c0.8,0,2.7-1.3,2.7-4.4c0-3.1-0.9-2.9-0.9-2.9c-5.5-0.5-3.6-9-3.6-9c-1.1,1.3-2.6,3.6-2.6,7.8
		C134.9,283.8,138.6,285.6,139.4,285.6"/>
	<path class="st0" d="M164.5,285.6c0.8,0,4.4-1.8,4.4-8.6c0-4.2-1.6-6.5-2.6-7.8c0,0,1.8,8.5-3.7,9c0,0-0.9-0.2-0.9,2.9
		C161.8,284.3,163.7,285.6,164.5,285.6"/>
	<path class="st0" d="M135.4,158.1c-0.4-0.2-3.6-2.2-7.1-3.7c-2.3-1-4.6-1.8-6.3-1.7c-4.5,0.2-7.3,5-18.5,1
		c-9.3-3.3-9.8-13-9.1-18.5c0.2-1.9-2.2-4.5-3.8-6.7c-2-3-3.4-8-3.6-8.5c0,0,0-0.1,0-0.1s-6.8,15.5-5.1,25.2
		c0.9,4.9,3.8,11.5,10.5,14.6c-7.3,2.4-17.4,8.8-22.7,20.9c-7.6,17.6-5.4,26.4-5.4,26.4s7-8.6,16.3-8.9c-1,5.3-1.7,14,1.6,27.7
		c0,0,4.9-10.7,14-10.7c0.4,7,2.1,19.1,3.6,24.6c3.9,13.6,9.2,21.5,9.5,22l0,0.1c0,0,2.9-3.2,5.2-5c0.4-0.3,0.7-0.5,1.1-0.7
		c0,0-1.2-6.6-2.4-9.7c-0.1-0.1-0.1-0.3-0.1-0.4c-2.6-6.9-2.3-12-2.2-15.8c0,0.1,2.6,4,5.6,9.9c1.2,2.4,2.5,5.1,3.7,8
		c0.1,0.3,0.3,0.7,0.4,1c0,0.1,0.1,0.2,0.1,0.3c1,2.4,1.9,5,2.7,7.6c0.6,1.9,1,4,1.2,6.3c1.2,10,0.9,23.1,7.1,31.5
		c5.7,7.7,15.7,7.9,15.7,7.9c1.4,0.1,2.6,0.1,3.9,0h0.2c0,0,2-2.4,2.1-4.8c0-1.9-1.9-4-1.9-4c-0.1,0-0.1,0-0.2,0c-0.4,0-0.8,0-1.2,0
		c-0.1,0-0.3,0-0.5,0c-0.4,0-0.8-0.1-1.2-0.1c-0.2,0-0.3-0.1-0.5-0.1c-0.4,0-0.8-0.1-1.2-0.1c-0.2,0-0.4-0.1-0.6-0.1
		c-0.4,0-0.8-0.1-1.2-0.2c-0.2,0-0.4-0.1-0.6-0.1c-0.6-0.1-1.3-0.3-1.9-0.5c-0.3-0.1-0.7-0.2-1.1-0.3c-0.3-0.1-0.5-0.2-0.7-0.3
		c-0.3-0.2-0.7-0.3-1.1-0.4c-0.2-0.1-0.5-0.2-0.7-0.3c-0.3-0.2-0.6-0.3-1-0.5c-0.2-0.1-0.5-0.2-0.7-0.4c-0.3-0.2-0.6-0.4-0.9-0.6
		c-0.2-0.1-0.4-0.3-0.6-0.5c-0.3-0.2-0.5-0.4-0.8-0.7c-0.1-0.2-0.3-0.3-0.5-0.5c-0.3-0.2-0.5-0.6-0.7-0.8c-0.1-0.2-0.3-0.4-0.5-0.6
		c-0.2-0.3-0.4-0.7-0.6-1c-0.1-0.2-0.3-0.4-0.3-0.7c-0.2-0.4-0.3-0.7-0.4-1.1c-0.1-0.3-0.2-0.6-0.3-0.8c-0.1-0.5-0.2-0.9-0.2-1.4
		c0-0.3-0.1-0.6-0.1-0.8c-0.1-0.6-0.1-1.3,0-1.9c0-0.2,0-0.3,0-0.5c0.1-2.7,0.2-5.5,0.1-8.5c-0.1-5.1-0.7-10.5-2.4-16.7
		c-1.6-5.9-4-12.6-7.8-20.3c-2.7-5.4-5.1-14.3-7.3-21.8c-2.5-8.3-1.3-15.5,0.9-20.4c3.2-7.4,8.5-11.9,15.2-10.5
		c2.9,0.6,5.1,1.9,6.8,3.2c2.8,2.2,4,4.6,4,4.6s0.9-15-13.2-17.9c0,0,1.8-2.8,5.9-3.9c0.6-0.2,1.2-0.3,1.9-0.3h0.1
		c0.3,0,0.6,0,0.9-0.1c0.3,0,0.5,0,0.8,0h0.3c0.7,0,1.4,0.1,2.2,0.1c0.1,0,0.1,0,0.2,0C139.8,164.1,138.1,161.2,135.4,158.1"/>
	<path class="st0" d="M155.8,286.3l-2.1-3.6l-1.8,3.9l-1.8-3.9l-2.1,3.6c-3.2-0.2-3.7-5.2-3.7-5.2s-1.7,4.6,0.8,7.6
		c1.3,1.6,3.1,0,3.1,0s1.6,1.3,3.7,0.2c2.1,1.1,3.6-0.2,3.6-0.2s1.9,1.6,3.2,0c2.5-3,0.8-7.6,0.8-7.6S159,286.1,155.8,286.3"/>
	<path class="st0" d="M172.7,233c0-8.4-3.6-10.1-3.6-10.1c-1.4-0.5-2.2,0.2-3.4,1.2c-1.2,1-1.7,3.4-1.7,3.4s2.7,0.7,4.6,3.9
		c1.9,3.1,0.5,10.3,0.5,10.3S172.7,239.5,172.7,233"/>
	<path class="st1" d="M279,145c7.1,1.2,12.8,3.9,12.9,3.9l8.1,3.9l-2-8.8c-2.6-12-11-22.5-18.4-29.9c2.8,0.5,5.3,1.2,6.5,1.6
		l9.5,3.1l-4.3-9c-6.8-14.4-15.2-21.6-20.1-24.8c12.1-29.2,18.2-51.7,18.2-66.7c0-12.6-4.3-16.4-6.2-17.5l-0.1,0l0.3,0.2L281.6,0
		c0,0-1.4,0.3-1.5,0.3c-3.5,0.8-11.4,6-29.8,18.5c-10.3,6.9-20.8,14.1-28.5,18.7c-11.6,6.9-19.7,9.3-23.4,10.2
		c-1.6-3.8-2.6-10.7-2.8-14.6l-0.4-7.5l-6.3,4c-4.4,2.8-9.2,9.3-12.9,14.9c-7.5-12.1-16.9-13.1-17.3-13.1l-6.1-0.5l1.5,5.9l0.1,1.3
		c0,0-0.1,0.9-0.1,1.9c-6.6-5.2-15.5-10.5-17.4-11.6l-7.4-4.3l0.9,8.6c0,0,0.1,1.9,0.1,2.8c-10.3-7.6-22.9-11.5-23.5-11.7l-8.7-2.6
		l3.4,8.4c1.4,3.5,2.2,8.2,2.7,12.2C89.2,35,58.8,16.3,46.9,7.8C40.5,3.1,35.4,1.8,31.4,4c-3.4,1.8-5.1,5.7-5.1,11.6l0.1,2.6
		c2.1,29.6,12.7,57.1,16.5,66.1C26.1,95.3,18.3,108.1,18,108.7l-4.2,7.1l8.2-0.5c1.6-0.1,3.7-0.1,6.4,0
		C14.3,126.1,6,139.9,5.6,140.5L0,150l10.6-3.1c4.3-1.3,8.8-1.9,13.3-2.3c-6,6.6-13,17.1-16.9,32.4c-1.7,6.8-2.5,14.2-2.5,22.1
		c0,14.4,2.9,25.7,4.5,29.6l3.1,7l1.2-2.3l2.8-5.6c0.1-0.2,6.1-12.3,16.4-18.2c-0.1,2.4-0.3,6-0.3,6c0,15.3,3.6,29.2,10.9,41.3
		l4.5,7.5l3.3-8.1c1.3-3.3,4.2-8.8,7.5-12.7c1.1,7.9,4.2,20.2,12.9,30.3l5.2,6.1l2.3-7.6c1-3.3,2.9-7.9,5-11.4
		c2.8,6.6,8.2,17,17.4,26.6l4.8,5l2.4-6.6c0,0,1-2.6,2.9-5.8c2.9,11.6,8.2,28.8,14.7,33.8c8.9,6.6,22.6,7.4,23.2,7.4h0.3h0.2
		c1.6-0.1,15.8-0.9,24.5-7.4c7.1-5.3,12.7-25.1,15.3-35.8c2.6,4,4,7.4,4.2,7.9l2.4,6.5l4.9-5c9.2-9.5,14.6-20,17.4-26.6
		c2.1,3.5,4.1,8,5,11.4l2.3,7.6l5.2-6.1c8.7-10.1,11.7-22.4,12.8-30.3c3.3,4,6.2,9.5,7.5,12.7l3.3,8.1l4.5-7.5
		c7.2-12.1,10.9-26,10.9-41.3c0,0-0.2-3.9-0.3-6.3c9.2,4.8,16,17.8,16.3,18.4l4.6,9.4l3.5-9.8c0.2-0.6,5.6-15.7,5.6-33.4
		c0-10.7-1.9-20.1-5.7-28.1C290,157.8,284,150.4,279,145 M289.9,225.8c0,0-10.4-21.4-25.2-22.7c1.8,12.9,1.8,33-9.4,51.6
		c0,0-6.7-16.5-15.3-19.7c0,0,0.6,21-12.4,36.1c0,0-4.3-14.5-10.8-18.3c0,0-4.9,17.2-18.9,31.7c0,0-3.1-8.5-9.9-15.5
		c-0.5,1.1-1.1,2.1-1.5,3.1c0,0-6.9,32.4-14.8,38.4c-7.9,5.9-22.1,6.6-22.1,6.6s-12.8-0.7-20.8-6.6c-7.9-5.9-14.8-38.4-14.8-38.4
		c-0.3-0.6-0.5-1.2-0.9-1.8c-6,6.7-8.7,14.2-8.7,14.2c-14-14.5-18.9-31.7-18.9-31.7C79,256.5,74.7,271,74.7,271
		c-13-15.1-12.4-36.1-12.4-36.1c-8.7,3.2-15.3,19.7-15.3,19.7c-11.3-18.8-11.1-39-9.4-51.9c-16.1,3.8-25.3,23.1-25.3,23.1
		s-6.9-24.2-1-47.8c6.7-26.7,23.9-37.8,23.9-37.8s-11.6-1.8-25.8,2.4c0,0,12.2-20.6,32-30.7c0,0-12.7-1.6-19.7-1.1
		c0,0,8.3-14.2,26.6-24.9c0,0-15.1-32.8-17.5-68.1c-0.6-7.8,1.3-15.5,13.6-6.6c12.3,8.9,53.3,34.2,64.7,37.1c0,0-0.4-12.6-3.5-20.4
		c0,0,19.4,5.8,28.8,16.9c0,0,0.7-8.4,0.2-12.6c0,0,19.4,11.3,22.7,17.1c0,0,2-10,1.1-13.5c0,0,10.7,0.9,17.4,17.5
		c0,0,9-15.8,15.5-19.9c0,0,0.7,14.5,4.8,19.2c0,0,10.1-0.6,27.9-11.3c17.9-10.6,51.7-35.5,57.1-36.7c0,0,15.7,8.9-15.3,82.3
		c0,0,12.3,5.2,21.6,24.8c0,0-12.3-3.9-19.8-2.2c0,0,21.9,16.2,26.2,35.6c0,0-13.2-6.4-25.7-4.6c0,0,14.8,12.9,21.7,27.3
		C301.7,192.5,289.9,225.8,289.9,225.8"/>
	<path class="st2" d="M268.1,140.4c12.5-1.8,25.7,4.6,25.7,4.6c-4.3-19.3-26.2-35.6-26.2-35.6c7.5-1.8,19.8,2.2,19.8,2.2
		c-9.2-19.6-21.6-24.8-21.6-24.8c30.9-73.4,15.3-82.3,15.3-82.3c-5.4,1.2-39.3,26-57.1,36.7c-17.8,10.7-27.9,11.3-27.9,11.3
		c-4.2-4.7-4.8-19.2-4.8-19.2c-6.6,4.1-15.5,19.9-15.5,19.9c-6.7-16.6-17.4-17.5-17.4-17.5c0.9,3.5-1.1,13.5-1.1,13.5
		c-3.3-5.8-22.7-17.1-22.7-17.1c0.5,4.2-0.2,12.6-0.2,12.6c-9.4-11.1-28.8-16.9-28.8-16.9c3.1,7.8,3.5,20.4,3.5,20.4
		c-11.4-2.9-52.4-28.2-64.7-37.1c-12.3-8.9-14.1-1.2-13.6,6.6C33.2,53.2,48.3,86,48.3,86c-18.3,10.7-26.6,24.9-26.6,24.9
		c6.9-0.5,19.7,1.1,19.7,1.1c-19.9,10-32,30.6-32,30.6c14.3-4.2,25.8-2.4,25.8-2.4S18,151.3,11.3,178.1c-5.9,23.6,1,47.8,1,47.8
		s9.1-19.3,25.3-23.1c-1.8,12.9-1.9,33.1,9.4,51.9c0,0,6.7-16.5,15.3-19.7c0,0-0.6,21,12.4,36.1c0,0,4.3-14.6,10.8-18.3
		c0,0,4.9,17.2,18.9,31.7c0,0,2.7-7.5,8.7-14.2c0.3,0.6,0.6,1.2,0.9,1.9c0,0,6.9,32.4,14.8,38.3c7.9,5.9,20.8,6.5,20.8,6.5
		s14.1-0.6,22.1-6.5c7.9-5.9,14.8-38.3,14.8-38.3c0.4-1,0.9-2,1.5-3.1c6.8,7,9.9,15.5,9.9,15.5c14.1-14.5,18.9-31.7,18.9-31.7
		c6.5,3.7,10.8,18.3,10.8,18.3c13-15.1,12.4-36.1,12.4-36.1c8.7,3.3,15.3,19.7,15.3,19.7c11.2-18.6,11.2-38.7,9.4-51.6
		c14.7,1.3,25.2,22.7,25.2,22.7s11.9-33.3,0-58.1C283,153.3,268.1,140.4,268.1,140.4 M168.6,231.3c-1.9-3.1-4.6-3.8-4.6-3.8
		s0.5-2.4,1.7-3.4c1.2-0.9,1.9-1.7,3.4-1.2c0,0,3.6,1.7,3.6,10.1c0,6.5-3.6,8.7-3.6,8.7S170.5,234.4,168.6,231.3 M151.4,271.6
		L151.4,271.6c-9.6-0.6-13.5-10.2-14-18.4c-0.5-8.2,1.2-11.3,5.8-11.5c4.6-0.2,6.8,5.5,7,7.9c0.2,2.4,1.2,4.6,1.2,4.6v0.1
		c0,0,1-2.2,1.2-4.6c0.2-2.4,2.4-8.2,7-7.9c4.6,0.2,6.3,3.4,5.8,11.5C165,261.5,161.1,271.1,151.4,271.6 M158.7,288.7
		c-1.3,1.6-3.2,0-3.2,0s-1.6,1.3-3.7,0.2c-2.1,1.1-3.7-0.2-3.7-0.2s-1.8,1.6-3.1,0c-2.5-3-0.8-7.6-0.8-7.6s0.5,5,3.7,5.2l2.1-3.6
		l1.8,3.9l1.8-3.9l2.1,3.6c3.2-0.2,3.7-5.2,3.7-5.2S161.2,285.7,158.7,288.7 M134.2,241.7c0,0-3.6-2.2-3.6-8.7
		c0-8.4,3.6-10.1,3.6-10.1c1.5-0.5,2.2,0.3,3.4,1.2c1.2,1,1.7,3.4,1.7,3.4s-2.6,0.7-4.6,3.8C132.8,234.4,134.2,241.7,134.2,241.7
		 M137.5,269.2c0,0-1.8,8.5,3.6,9.1c0,0,0.9-0.2,0.9,2.9s-1.9,4.4-2.7,4.4c-0.8,0-4.5-1.8-4.5-8.6
		C134.9,272.8,136.5,270.5,137.5,269.2 M140.1,228.1c0.7-1.7,4.8-0.7,5.8,1.2c1.9-1.9,4.6-1,5.8,0.2c1.2-1.2,3.9-2.1,5.8-0.2
		c1-1.9,5.1-2.9,5.8-1.2c0,0,0,3.8-2.4,6.2c0,0-1.4-3.1-2.6-3.4c0,0-2.4,3.1-3.4,4.3l-3.1-3.8l-3.1,3.8c-0.9-1.2-3.4-4.3-3.4-4.3
		c-1.2,0.2-2.6,3.4-2.6,3.4C140.1,232,140.1,228.1,140.1,228.1 M162.6,278.2c5.5-0.5,3.7-9.1,3.7-9.1c1,1.3,2.6,3.6,2.6,7.8
		c0,6.8-3.7,8.6-4.4,8.6c-0.8,0-2.7-1.3-2.7-4.4C161.8,278,162.6,278.2,162.6,278.2 M103.2,269.4c0,0-6.6-10.5-9.8-17.7
		c-3.9-8.7-5.7-15.1-5.7-15.1c-8.1,2.7-13,16.1-13,16.1c-6.9-17-4.3-35.5-4.3-35.5c-12.4,1.6-21.1,17.2-21.1,17.2
		c-9.7-24.2-0.9-40-0.9-40c-14.8-2.4-25.3,3.9-32.1,10.5c-0.1-3.6-0.1-16.4,2.2-23.7c2.7-8.7,6.9-27.9,32.3-47.4c0,0,4.6-2-22.6-2.5
		c0,0,11.8-15.4,31-24.1c0,0-12.1-2.1-22.7-1c0,0,8.5-16.3,38-20.8l2.4-0.4c-1.9-3.3-6.6-2-8.6-5.2c-1-1.8,26-8.3,25-10
		c-1.2-2.1-24-7.7-25.2-9.7c-0.7-1.2,8.2-4.9,7.5-6.1c-0.6-1.1-5.6-3.7-10.1-6.8c-4.4-3-8.4-6.4-8.9-6.3c-3.9,1,1.2,38.7,1.4,40.7
		c0,0.2-3.9,1-3.9,1C52.1,80.4,34.6,28,38.4,18.8c0.6-1.4,2.9-0.6,11.3,5.8c35.6,27.1,66.5,33.8,66.5,33.8c0.9-7.1,0-16.9,0-16.9
		c13.9,5.4,21.9,20.5,21.9,20.5l0.5-1.3c2.1-6.3,2.7-15.1,2.7-15.1c6.7,4,13.2,14.8,13.2,14.8s2.2,21.7-3.4,33.2
		c-3.2,6.6-13.7,10.7-23.2,10.1c0,0,2.6,3.4,6.5,6.2c2.4,1.7,6.9,3.5,6.9,3.5s-8.3,6-27.3,1.8c-1.7,0.2,9.4,11.1,25.5,17.9
		c7.7,3.3,11.5,15.7,1.5,15.8c0,0,8.2,9.4,9,16.1l1.3,6.8c-3.1-4.4-7.7-5.8-11.3-6.1c-0.8-0.1-1.5-0.1-2.2-0.2h-0.3
		c-0.3,0-0.6,0-0.8,0c-0.3,0-0.6,0-0.9,0.1h-0.1c-0.7,0-1.3,0.2-1.9,0.3c-4,1.1-5.9,3.8-5.9,3.8c2.8-0.4,4.4-0.8,9.3,0.9
		c15.5,5.2,13.4,26.2,14.4,29.6c0-0.1-4-2.8-9.4-2.8c-0.5,0-0.9,0.1-1.4,0.1h0c-0.6,0.1-1.2,0.3-1.7,0.5c-0.5,0.2-1,0.4-1.5,0.7
		c-0.1,0-0.1,0.1-0.2,0.1c-0.4,0.3-0.8,0.6-1.2,0.9c-0.1,0.1-0.2,0.2-0.3,0.3c-0.3,0.3-0.7,0.6-0.9,0.9c-0.1,0.1-0.2,0.3-0.4,0.5
		c-0.2,0.3-0.5,0.6-0.7,0.9c-0.2,0.3-0.3,0.5-0.4,0.8c-0.1,0.3-0.3,0.5-0.4,0.7c-0.2,0.4-0.3,0.8-0.4,1.1c0,0.2-0.1,0.3-0.2,0.5
		c-0.1,0.6-0.2,1.2-0.2,1.7c0,4.7,2.9,7.9,4.7,9.7c1.6,1.6,3.2,3.5,1.6,3.4c-0.2,0-0.5-0.1-0.9-0.2c-6.8-1.7-14.4-8.9-15-20.3
		c-0.4-9.2,2-14,5.1-15.1c0.2-0.1,0.5-0.1,0.8-0.2c0,0,0,0,0.1,0c5.4-1.3,12.4,3.2,12.4,3.2s-1.2-2.4-4-4.6
		c-1.7-1.3-3.9-2.6-6.8-3.2c-6.7-1.5-12,3.1-15.2,10.5c-2.2,4.9-3.4,12.1-0.9,20.4c2.3,7.5,4.6,16.4,7.3,21.8
		c3.8,7.7,6.3,14.3,7.8,20.2c1.6,6.2,2.3,11.7,2.4,16.7c0.1,2.9,0,5.7-0.1,8.5c0,0.2,0,0.3,0,0.5c0,0.7,0,1.3,0,1.9
		c0,0.3,0.1,0.5,0.1,0.8c0.1,0.4,0.1,0.9,0.2,1.4c0.1,0.2,0.2,0.5,0.3,0.8c0.1,0.4,0.2,0.8,0.4,1.1c0.1,0.3,0.2,0.5,0.3,0.7
		c0.2,0.4,0.3,0.7,0.5,1c0.2,0.2,0.3,0.4,0.5,0.6c0.2,0.3,0.4,0.6,0.7,0.9c0.2,0.2,0.3,0.4,0.5,0.5c0.3,0.3,0.5,0.5,0.8,0.7
		c0.2,0.2,0.4,0.3,0.6,0.5c0.3,0.2,0.6,0.4,0.9,0.6c0.2,0.1,0.4,0.3,0.7,0.4c0.3,0.2,0.6,0.3,1,0.5c0.3,0.1,0.5,0.2,0.7,0.3
		c0.4,0.2,0.7,0.3,1.1,0.4c0.2,0.1,0.5,0.2,0.7,0.3c0.3,0.1,0.7,0.2,1.1,0.3c0.6,0.2,1.3,0.4,1.9,0.5c0.2,0,0.4,0,0.6,0.1
		c0.4,0.1,0.9,0.2,1.2,0.2c0.2,0,0.4,0.1,0.6,0.1c0.4,0.1,0.8,0.1,1.2,0.2c0.2,0,0.4,0,0.5,0.1c0.4,0,0.8,0.1,1.2,0.1
		c0.2,0,0.3,0,0.5,0c0.4,0,0.8,0,1.1,0c0.9,0,1.7,0,2.5,0c12.5,0,16.8-7.2,17.6-16.9c0.8-11.2-1.1-24.7,10.1-44.4
		c4.3-7.4-3.5,5.8-4.1,27.1c-0.5,20.3-0.1,42.5-26,43h-0.2c-1.2,0-2.5,0.1-3.8,0c0,0-10-0.1-15.7-7.9c-6.2-8.4-5.8-21.5-7.1-31.5
		c-0.3-2.3-0.7-4.4-1.2-6.3c-0.8-2.6-1.7-5.2-2.7-7.6c0-0.1-0.1-0.2-0.1-0.3c-0.1-0.4-0.3-0.7-0.5-1c-1.2-2.9-2.5-5.7-3.7-8
		c-3-6-5.6-9.8-5.6-9.9c-0.2,3.8-0.4,9,2.2,15.8c0.1,0.1,0.1,0.3,0.1,0.4c1.2,3.1,2.4,9.7,2.4,9.7c-0.4,0.2-0.7,0.5-1.1,0.8
		c-2.3,1.8-5.2,5-5.2,5l0-0.1C105.9,265.4,103.2,269.4,103.2,269.4 M197.7,148.1c-7.2,5.4-11.8-2.4-11.8-2.4l3.1-2.2
		c0,0,2.7,2.4,6.3,0.7c3.6-1.7,2.4-5.3,2.4-5.3l3.9-2.6C201.6,136.2,204.6,142.9,197.7,148.1 M170,141.3
		c-0.6-4.7,12.9-32.4,13.5-28.9c0.6,3.5,1.8,7.1,2.5,6c1.8-3,13.2-8.6,13.2-8.6s-4.1,7.1-2.3,6c2.4-1.5,8.4,1.6,8.4,1.6
		C188.4,123.9,175.1,131.4,170,141.3 M288.4,205.7l-0.7,0l-1.4-8.4c-6.6-23.2-16.9-40.3-32.7-53.7l-6.3-5.1l-11.5-9.4l13.3-1.9
		c4.6-0.8,13.2-0.5,18.9-0.3c0,0,1.1,0,2,0.1c-9.7-10.2-31.4-24.8-31.6-24.9l-2.6-1.3l0.8-0.3c8.2-2.7,22.3-2.3,25.8-2.2
		c-1.8-1.7-7.7-7.1-16-11l-0.4-0.2l0.2-0.3c13.6-20.3,20.3-46.1,23.2-59.8c0.2-1.2,0.2-1.2,0.5-1.3c-0.2,0-1.4,0.3-7.5,5.9
		c-0.9,0.6-10.8,9.1-24.1,21.6c0.3,0.5,5.3,8.2,5.3,8.2l-0.5,0.1c-9,2.2-19,4.1-28.3,5.1c0.9,0.9,12.5,12.3,12.5,12.3l-0.4,0.6
		l-11.5-5.8c-7.8-4.2-15.2-8.2-23.8-9.2l-0.1-0.7l4.4-1.7l8.5-3.2c21.2-7.1,53.5-30.3,54.9-31.3c10.5-8.6,13.6-11,15.7-10
		c1.5,0.7,2,2.1,2,3.2v0c0,0.4-7.8,40-23.6,64.7c2,0.8,14.6,6,21.3,16.8l0.3,0.5h-0.7c-0.2,0-14-0.2-21.6,1.1
		c8.1,5.1,25.5,21.2,30.5,30l0.3,0.6l-0.7-0.1c-13.1-2.1-26.7-1.6-29.9-1.4c0.9,0.9,4,4.1,4,4.1l5.5,5.5
		c17.1,14.5,25.8,34.8,25.8,60.4C288.4,204.2,288.4,204.9,288.4,205.7"/>
	<path class="st1" d="M196.8,115.8c-1.8,1.1,2.3-6,2.3-6s-11.4,5.6-13.2,8.6c-0.7,1.1-1.8-2.5-2.4-6c-0.6-3.5-14.1,24.3-13.5,28.9
		c5.2-9.9,18.5-17.4,35.3-24C205.3,117.3,199.3,114.3,196.8,115.8"/>
	<path class="st1" d="M109.4,261.6c-0.3-0.4-5.6-8.4-9.5-22c-1.6-5.5-3.2-17.6-3.6-24.6c-9.2,0-14,10.7-14,10.7
		c-3.3-13.7-2.5-22.4-1.6-27.7c-9.3,0.3-16.3,8.9-16.3,8.9s-2.2-8.8,5.4-26.4c5.2-12.2,15.4-18.6,22.7-20.9
		c-6.8-3.1-9.6-9.7-10.5-14.6c-1.7-9.7,5.1-25.2,5.1-25.2c11.2,10.7,25.8,15.5,36.3,23.5c10,7.6,12.2,14.7,12.2,14.7l-0.1,0
		c2.6,3.1,4.3,6,4.8,7.6c-0.1,0-0.2,0-0.2,0c3.6,0.4,8.2,1.7,11.3,6.1L150,165c-0.8-6.8-9-16.1-9-16.1c10-0.1,6.3-12.6-1.5-15.8
		c-16.1-6.8-27.2-17.7-25.5-17.9c19,4.1,27.3-1.9,27.3-1.9s-4.6-1.7-6.9-3.4c-3.9-2.8-6.5-6.2-6.5-6.2c9.5,0.5,20-3.6,23.2-10.1
		c5.6-11.6,3.4-33.3,3.4-33.3s-6.5-10.8-13.2-14.8c0,0-0.6,8.8-2.7,15.1l-0.5,1.4c0,0-8-15.1-21.9-20.5c0,0,0.9,9.8,0,16.9
		c0,0-30.9-6.8-66.5-33.8c-8.4-6.4-10.8-7.2-11.3-5.8C34.6,28,52.1,80.4,54.3,82.5c0,0,3.9-0.8,3.9-1c-0.2-2-5.3-39.8-1.4-40.7
		c0.4-0.1,4.4,3.3,8.9,6.3c4.5,3.1,9.5,5.7,10.1,6.8c0.7,1.2-8.2,4.9-7.5,6.1c1.2,2,24,7.6,25.2,9.7c1,1.8-26,8.2-25,10
		c1.9,3.3,6.6,1.9,8.5,5.2l-2.4,0.4c-29.5,4.5-38,20.8-38,20.8c10.6-1.1,22.7,1,22.7,1c-19.3,8.7-31,24.1-31,24.1
		c27.3,0.5,22.7,2.5,22.7,2.5c-25.4,19.6-29.6,38.8-32.3,47.4c-2.3,7.3-2.2,20.1-2.2,23.7c6.7-6.6,17.3-12.9,32.1-10.5
		c0,0-8.8,15.8,0.9,40c0,0,8.7-15.6,21.1-17.2c0,0-2.5,18.5,4.3,35.5c0,0,4.9-13.4,13-16.1c0,0,1.8,6.4,5.7,15.1
		c3.2,7.2,9.8,17.7,9.8,17.7S105.9,265.4,109.4,261.6"/>
	<path class="st1" d="M153.7,297.7c-0.1,2.4-2.1,4.8-2.1,4.8c25.9-0.5,25.5-22.8,26-43c0.5-21.3,8.3-34.5,4.1-27.1
		c-11.1,19.7-9.2,33.2-10.1,44.4c-0.7,9.7-5.1,16.9-17.6,16.9c-0.8,0-1.6,0-2.5,0c0.1,0,0.1,0,0.2,0
		C151.8,293.8,153.7,295.8,153.7,297.7"/>
	<polygon class="st1" points="151.7,302.6 151.7,302.6 151.4,302.6 	"/>
	<path class="st1" d="M127.9,169.8c14.1,3,13.2,17.9,13.2,17.9s-7-4.5-12.4-3.2c4.4,0.8,10,7.8,12,13c0.5-0.1,0.9-0.1,1.4-0.1
		c5.5,0,9.5,2.8,9.4,2.9c-1-3.4,1-24.4-14.4-29.6C132.4,169.1,130.7,169.4,127.9,169.8c0,0,1.8-2.8,5.9-3.9
		C129.7,167.1,127.9,169.8,127.9,169.8"/>
	<path class="st3" d="M197.7,138.9c0,0,1.2,3.6-2.4,5.3c-3.6,1.7-6.3-0.7-6.3-0.7l-3.1,2.1c0,0,4.6,7.9,11.8,2.4
		c6.9-5.2,3.9-11.8,3.9-11.8L197.7,138.9z"/>
	<path class="st2" d="M90.6,128.5c1.5,2.2,4,4.7,3.8,6.7c-0.6,5.5-0.1,15.2,9.1,18.5c11.2,4,14-0.9,18.5-1c1.7-0.1,4.1,0.7,6.3,1.7
		c3.5,1.5,6.8,3.5,7.1,3.7l0.1,0c0,0-2.2-7-12.2-14.7c-10.4-7.9-25.1-12.8-36.3-23.5c0,0,0,0.1,0,0.1
		C87.2,120.6,88.6,125.5,90.6,128.5 M100.9,136.2l3.8,2.6c0,0-1.2,3.6,2.4,5.3c3.6,1.7,6.3-0.7,6.3-0.7l3.2,2.1
		c0,0-4.6,7.9-11.9,2.4C97.9,142.8,100.9,136.2,100.9,136.2"/>
	<path class="st3" d="M104.8,148c7.2,5.5,11.9-2.4,11.9-2.4l-3.2-2.1c0,0-2.7,2.4-6.3,0.7c-3.6-1.7-2.4-5.3-2.4-5.3l-3.8-2.6
		C100.9,136.2,97.9,142.8,104.8,148"/>
	<path class="st4" d="M159.7,241.8c-4.6-0.2-6.8,5.5-7,7.9c-0.3,2.4-1.2,4.6-1.2,4.6v-0.1c0,0-1-2.2-1.2-4.6c-0.3-2.4-2.4-8.2-7-7.9
		c-4.6,0.3-6.3,3.4-5.8,11.6c0.5,8.2,4.3,17.8,14,18.3v0.1c9.7-0.5,13.5-10.1,14-18.3C166,245.2,164.3,242,159.7,241.8"/>
	<path class="st5" d="M262.6,143l-5.5-5.5c0,0-3.2-3.2-4-4.1c3.2-0.2,16.8-0.7,29.9,1.4l0.7,0.1l-0.3-0.6c-5-8.8-22.4-24.9-30.5-30
		c7.6-1.3,21.4-1.1,21.6-1.1h0.7l-0.3-0.5c-6.7-10.9-19.3-16.1-21.3-16.8c15.9-24.8,23.6-64.3,23.6-64.7v0c0-1.1-0.5-2.5-2-3.2
		c-2.1-1-5.2,1.4-15.7,10c-1.4,1-33.7,24.2-54.9,31.2l-8.5,3.2l-4.4,1.7l0.1,0.7c8.6,1,16,5,23.8,9.2l11.5,5.8l0.4-0.6
		c0,0-11.6-11.4-12.5-12.3c9.2-1.1,19.2-2.9,28.3-5.1l0.5-0.1c0,0-4.9-7.7-5.3-8.2c13.3-12.5,23.3-20.9,24.1-21.6
		c6.1-5.6,7.3-5.9,7.5-5.9c-0.2,0.1-0.2,0.1-0.5,1.3c-2.8,13.6-9.6,39.4-23.2,59.8l-0.2,0.3l0.4,0.2c8.4,3.9,14.2,9.3,16,11
		c-3.6-0.2-17.7-0.5-25.8,2.2l-0.8,0.3l2.6,1.3c0.2,0.1,21.9,14.7,31.6,24.9c-0.8,0-2-0.1-2-0.1c-5.7-0.2-14.3-0.5-18.9,0.3
		l-13.3,1.9l11.5,9.4l6.3,5.1c15.8,13.3,26.1,30.4,32.7,53.7l1.4,8.3l0.7,0c0-0.8,0-1.5,0-2.3C288.4,177.9,279.7,157.5,262.6,143"/>
</g>
</svg>
