<?xml version="1.0" encoding="utf-8"?>
<!-- Generator: Adobe Illustrator 26.5.0, SVG Export Plug-In . SVG Version: 6.00 Build 0)  -->
<svg version="1.1" id="Layer_1" xmlns="http://www.w3.org/2000/svg" xmlns:xlink="http://www.w3.org/1999/xlink" x="0px" y="0px"
	 viewBox="0 0 373.1 373.1" style="enable-background:new 0 0 373.1 373.1;" xml:space="preserve">
<style type="text/css">
	.st0{fill:#C4CDD3;stroke:#FFFFFF;stroke-width:3.8462;}
	.st1{fill:#002A5B;}
	.st2{fill:#004F83;}
	.st3{fill:#7AC142;}
	.st4{fill:#FEFEFE;}
	.st5{fill:#C4CDD3;}
</style>
<g>
	<path class="st0" d="M186.5,371.2c-78.5,0-148.6-49.9-174.4-124.1C-21.2,150.9,29.8,45.6,126,12.2c19.6-6.8,40-10.3,60.5-10.3
		c78.5,0,148.6,49.9,174.4,124.1l0.9,2.5l0,0c31.6,95.4-19.4,199.3-114.7,232.4C227.5,367.7,207.1,371.2,186.5,371.2"/>
	<path class="st1" d="M339.6,231.1c-4,13.9-9.8,26.8-17,38.6c-8.4-30.6-27.9-62.1-53-91c2.3-3.8,4.9-7.7,7.8-11.9
		c6.8-7.4,10.1-0.5,10.1-0.5c5.5-14.9,2-22.4-0.7-25.6c-1-1.5-2.2-2-2.2-2c-2.3-10.5-11.8-16-11.8-16s3.3-14.7,1.7-30
		c51.4,21.4,66.5,60.2,70.9,80.6C347,192.3,345.2,211.8,339.6,231.1 M271.1,321.6c-1.1-18.6-4.2-33.6-4.2-33.6
		c1.7,0.7,5.9,3.7,5.9,3.7c-0.8-34.8-15.4-47-15-66c0.3-15.9,2.5-26.9,6.7-36.9c25.4,29.9,44.3,62.3,50.4,92.4
		C302.8,297.5,287.9,311.1,271.1,321.6 M30.4,154.7C41.2,140,69,107.3,99.7,110.6c-2.4,4.4-4.5,8.1-5.7,10.6
		c-8,12.4-15.6,27.4-21.2,45c-5.8,18.4-8.9,37.5-9.2,57.3c-6.5,5.4-13.3,10.4-20.2,14.8c0,0,12.3,11,24.5,15.3
		c0,0-8.4,13.2-13.8,21.8C31.1,240.9,21.6,197.7,30.4,154.7 M68.5,79.5C72,79.2,77,79,83,79.2c14.6,1.3,19.8,5.3,28.3,10.9
		c-2.1,3.7-4.2,7.4-6.3,11.1c-27.1-5.3-51.4,12.6-67.6,29.4C44.6,111.2,55.2,94,68.5,79.5 M140.4,34c-0.8,4.9-0.9,11.1,1.5,17.1
		c1.5,3.8,3.8,7.1,6.9,10c-7,3-13.3,5.7-18.5,8.1C118,68.7,96.6,68,81.5,68.9c-0.8,0-1.7,0-2.4,0C96.6,52.8,117.7,40.9,140.4,34
		 M151.5,31.1c18.7-4.2,38.3-5.1,58-2.2c7.2,1.1,14.4,2.6,21.5,4.7c0.3,0.1,0.5,0.2,0.8,0.2c-10.1,1.6-23,4.5-37.6,9.8
		c-11.5,3.9-23.5,8.4-34.5,12.9c-4-2.3-6.9-5.3-8.3-9.1C149,41.3,150.5,34.5,151.5,31.1 M191.9,110c-5.4-3.7-10.9-7.2-16.3-10.4
		c-4.1-4.6-12.3-13.2-16.6-17.7c2.1-3.4,4.9-7.4,8.4-11.2c16.8,5.8,30.8,6.9,39.6,7.5c1.7,0.1,3.2,0.2,4.5,0.4l1.3,0.1
		c2.3,0.2,4.5,0.4,6.8,0.7C211.1,88.2,202.2,97.6,191.9,110 M139.8,143.8c-14.1,14.2-37.5,44.8-65.5,70.3
		c2.4-37.7,15.2-69.5,32.7-94.1c1.8-1.8,4-3.6,6.5-5.4C124.5,120.1,133,130.7,139.8,143.8 M147.6,137c-6.5-11.9-14.5-21.9-24.5-28.5
		c4.6-2.7,9.4-5.1,13.7-7.2c6.2,0.9,24.5,3.5,32.1,6.2c5.4,3.3,10.9,6.8,16.3,10.5c-1.4,1.7-2.8,3.5-4.2,5.3
		C181.1,123.3,164.9,123.5,147.6,137 M253.8,42.2l0-0.2c36.3,16.8,63.9,46.3,79.1,81.4c-16.6-20.6-39.1-33.6-60.6-41.7
		c-2.6-8.5-7.5-16-16.4-19.8c-1.7-4-4.1-6.7-8.9-8.5c-5.2,1.2-13.7,7.2-19,16.8c-5.7-0.9-10.7-1.4-14.4-1.7l-1.1-0.1
		c-1.4-0.1-3-0.2-4.8-0.4c-7.7-0.5-18.4-1.3-31.4-5.1c0.7-0.5,1.4-0.9,2.2-1.4C219.8,41.4,253.3,42.2,253.8,42.2 M338.6,103.1
		C316.3,62.5,279.5,33,235,20c-7.7-2.2-15.5-3.9-23.4-5.1h0l0,0C126.5,2.4,44.1,55.3,20,138.1c-13,44.5-7.8,91.4,14.5,132
		c22.3,40.6,59.1,70.1,103.6,83.1c7.7,2.2,15.5,4,23.4,5.1c17.4,2.6,34.7,2.4,51.4-0.2c0.2,0.1,0.4,0.2,0.6,0.3l0.2-0.4
		c64.7-10.4,120.4-57.2,139.4-122.8C366,190.6,360.9,143.7,338.6,103.1"/>
	<path class="st2" d="M159.8,56.5c11-4.5,23-9.1,34.5-12.9c14.6-5.3,27.5-8.2,37.6-9.8c-0.3-0.1-0.5-0.2-0.8-0.2
		c-7.2-2.1-14.3-3.6-21.5-4.7c-19.7-2.9-39.4-2-58,2.2c-1.1,3.5-2.5,10.2-0.1,16.4C152.9,51.2,155.8,54.2,159.8,56.5 M72.8,166.2
		c5.6-17.7,13.2-32.6,21.2-45c1.2-2.4,3.3-6.2,5.7-10.6C69,107.3,41.2,140,30.4,154.7c-8.8,43.1,0.7,86.2,23.8,120.7
		c5.4-8.6,13.8-21.8,13.8-21.8c-12.2-4.3-24.5-15.3-24.5-15.3c6.9-4.4,13.7-9.4,20.2-14.8C63.9,203.7,67,184.6,72.8,166.2 M79,68.9
		c0.8,0,1.6,0,2.4,0c15.1-0.9,36.6-0.3,48.9,0.2c5.2-2.3,11.5-5.1,18.5-8.1c-3.1-2.8-5.4-6.1-6.9-10c-2.4-6.1-2.3-12.2-1.5-17.1
		C117.7,40.9,96.6,52.8,79,68.9 M271.1,321.6c16.8-10.5,31.7-24.1,43.7-40.4c-6.1-30.1-25-62.5-50.4-92.4c-4.2,9.9-6.4,21-6.7,36.8
		c-0.4,19,14.2,31.2,15,66c0,0-4.2-3-5.9-3.7C266.9,288,270,303,271.1,321.6 M136.9,101.3c-4.4,2.1-9.1,4.5-13.7,7.2
		c10,6.5,18,16.5,24.5,28.5c17.3-13.4,33.5-13.6,33.5-13.6c1.4-1.8,2.9-3.6,4.2-5.3c-5.4-3.7-10.9-7.2-16.3-10.5
		C161.3,104.8,143.1,102.2,136.9,101.3 M219.5,79.3c-2.2-0.2-4.5-0.5-6.8-0.7l-1.3-0.1c-1.3-0.1-2.8-0.2-4.5-0.3
		c-8.8-0.6-22.7-1.7-39.6-7.5c-3.4,3.8-6.3,7.8-8.4,11.2c4.3,4.5,12.5,13.1,16.6,17.7c5.4,3.3,10.9,6.8,16.3,10.4
		C202.2,97.6,211.1,88.2,219.5,79.3"/>
	<path class="st2" d="M37.3,130.5c16.2-16.8,40.6-34.7,67.6-29.4c2.1-3.8,4.3-7.6,6.3-11.1c-8.5-5.5-13.7-9.6-28.3-10.9
		c-6-0.2-11,0-14.5,0.3C55.2,94,44.6,111.2,37.3,130.5 M339.6,231.1c5.6-19.3,7.4-38.8,5.8-57.8c-4.4-20.4-19.6-59.2-70.9-80.6
		c1.6,15.2-1.7,30-1.7,30s9.5,5.5,11.8,16c0,0,1.2,0.5,2.2,2c2.7,3.2,6.2,10.7,0.7,25.6c0,0-3.2-6.9-10.1,0.5c-3,4.1-5.5,8-7.8,11.9
		c25.1,28.8,44.6,60.4,53,91C329.7,257.9,335.5,245,339.6,231.1"/>
	<path class="st2" d="M247.1,53.4c4.7,1.8,7.2,4.5,8.9,8.5c8.8,3.7,13.8,11.2,16.4,19.8c21.5,8.1,44,21.1,60.6,41.7
		c-15.2-35.1-42.8-64.6-79.1-81.4l0,0.2c-0.4,0-34-0.8-75.4,19.3c-0.7,0.4-1.4,0.9-2.2,1.4c13,3.8,23.7,4.6,31.4,5.1
		c1.8,0.1,3.4,0.2,4.8,0.4l1.2,0.1c3.8,0.3,8.7,0.9,14.4,1.7C233.3,60.6,241.8,54.6,247.1,53.4 M139.8,143.8
		c-6.8-13.1-15.4-23.7-26.3-29.2c-2.4,1.8-4.6,3.6-6.5,5.4c-17.5,24.6-30.3,56.4-32.7,94.1C102.4,188.6,125.7,158,139.8,143.8"/>
	<path class="st3" d="M155.5,67l-11,16c0,0,8.3,5.8,15.2,13.6c-12-2.4-25.1-4.7-25.1-4.7l-20.9,11.3l9.8-16.2c0,0-6.6-5.6-14.2-10.5
		c8.3,0.2,24.1,1.6,24.1,1.6L155.5,67L155.5,67z M176.1,137.7c0,0-2.3,6.5-2.6,12.5c0,0-14.6,2.2-21.7,6.9
		C151.8,157.1,166.4,142.6,176.1,137.7"/>
	<path class="st4" d="M274.7,137.1c1.6-0.4,2.8-0.5,3.8-0.4c-0.3-0.7-0.8-1.9-1.7-3c-1.3-1.6-3.2-2.7-3.2-2.7
		C274.8,132.8,274.8,135.4,274.7,137.1 M261.5,143.7c1.9-1.3,3.6-2.4,5.2-3.3c-0.3-0.7-0.7-1.7-1.4-2.8c-1.3-2.2-4.5-4.2-4.5-4.2
		C262.1,137.4,261.8,141.5,261.5,143.7"/>
	<path class="st5" d="M104.5,242.5c-12.4,5.1-41.9-1.8-41.9-1.8c29.7-1.7,58.8-23,58.8-23c0,0-0.1,0.1-0.1,0.1
		c-8.7,13.4-20.7,21.1-20.7,21.1C102,240.6,103.3,241.7,104.5,242.5"/>
	<path class="st3" d="M252.8,65.1c0,0-7.3-5.7-15.6,3.2C246.1,52,251.2,61.3,252.8,65.1"/>
	<path class="st5" d="M281.7,143.6c0,0-0.8-0.5-0.9-0.6c-4.6-2.5-13,4.7-18.4,7.7c-5.4,3-13.3,9.4-17.2,0.6
		c-3.9-8.8,5-22.5,8.1-31.1c6.8-19.1,7-30.3,5.6-36.4c6.3,7.1,8.2,20.7,8.2,20.7S269.4,79,257,72.3c0.3,0.9,0,4.1-0.3,6.6
		c0,0,0,0,0-0.1c-5.8,1.1-18.6-0.4-22.8-2.6c-15.7,16.9-32.9,40.4-45.8,62c-5.6,11.4-11.1,24.8-12.5,35.7c0,0-1.8-4.9-2.2-11.5
		c-7.1,2.8-31.4,14.7-36.6,51.3c0,0,15.4-15.9,32.5-22.1c0,0-10.8,28.3,9.8,78.5c0,0,8.4-30.8,25.8-38.5
		c10.6,52.6,41.6,53.4,50.6,89.2c0,0,9.5-18.5-1.9-50c0,0,3.9,1.1,7.3,5c0,0-0.5-9.2-9.1-29.1c-5.6-10.6-7.4-25-7.4-25
		c-5,4.6-6.3,20-6.3,20c-15.4-41.8,28.3-83.2,36.3-89.3c3.9-3,6.3-3,7.7-2.3C283.6,146.9,283.5,144.9,281.7,143.6"/>
</g>
</svg>
