<?xml version="1.0" encoding="utf-8"?>
<!-- Generator: Adobe Illustrator 21.1.0, SVG Export Plug-In . SVG Version: 6.00 Build 0)  -->
<!DOCTYPE svg PUBLIC "-//W3C//DTD SVG 1.1//EN" "http://www.w3.org/Graphics/SVG/1.1/DTD/svg11.dtd">
<svg version="1.1" id="Layer_1" xmlns="http://www.w3.org/2000/svg" xmlns:xlink="http://www.w3.org/1999/xlink" x="0px" y="0px"
	 width="317.9px" height="331.7px" viewBox="0 0 317.9 331.7" style="enable-background:new 0 0 317.9 331.7;" xml:space="preserve"
	>
<style type="text/css">
	.st0{fill:#FFFFFF;}
	.st1{fill:#A8A9AC;}
	.st2{fill:#221F1F;}
	.st3{fill:#FDD41E;}
	.st4{fill:#981B33;}
	.st5{fill:#005183;}
</style>
<g>
	<path class="st0" d="M139.5,189.9C139.4,189.9,139.4,189.8,139.5,189.9c-0.4,0-0.6,0.1-0.8,0.2c-3.1,1.1-5.5,5.9-5.1,15.1
		c0.5,11.4,8.2,18.6,15,20.3c0.4,0.1,0.6,0.2,0.9,0.2c1.6,0,0-1.8-1.6-3.4c-1.8-1.8-4.7-5.1-4.7-9.7c0-0.6,0.1-1.1,0.2-1.7
		c0.1-0.1,0.1-0.3,0.2-0.5c0.1-0.4,0.2-0.8,0.4-1.2c0.1-0.2,0.2-0.5,0.4-0.7c0.1-0.3,0.3-0.5,0.4-0.8c0.2-0.3,0.4-0.6,0.7-0.9
		c0.1-0.2,0.2-0.3,0.4-0.5c0.3-0.3,0.6-0.7,0.9-0.9c0.1-0.1,0.2-0.2,0.3-0.3c0.4-0.3,0.8-0.6,1.2-0.9c0,0,0.1,0,0.2-0.1
		c0.5-0.3,1-0.5,1.5-0.7c0.6-0.2,1.1-0.4,1.7-0.5l0,0C149.5,197.6,143.9,190.7,139.5,189.9"/>
	<path class="st0" d="M150,232.7c0,0-0.5-2.4-1.7-3.4c-1.2-0.9-1.9-1.7-3.4-1.2c0,0-3.6,1.7-3.6,10.1c0,6.5,3.6,8.7,3.6,8.7
		s-1.4-7.2,0.5-10.3C147.4,233.5,150,232.7,150,232.7"/>
	<path class="st0" d="M155.8,236.3c0,0,2.4,3.1,3.4,4.3l3.1-3.8l3.1,3.8c1-1.2,3.4-4.3,3.4-4.3c1.2,0.2,2.6,3.4,2.6,3.4
		c2.5-2.4,2.5-6.3,2.5-6.3c-0.8-1.7-4.9-0.7-5.8,1.2c-1.9-1.9-4.6-1-5.8,0.2c-1.2-1.2-3.9-2.1-5.8-0.2c-1-1.9-5.1-2.9-5.8-1.2
		c0,0,0,3.8,2.4,6.3C153.2,239.7,154.6,236.6,155.8,236.3"/>
	<path class="st0" d="M150.1,290.9c0.8,0,2.7-1.3,2.7-4.4s-0.9-2.9-0.9-2.9c-5.5-0.5-3.6-9-3.6-9c-1.1,1.3-2.6,3.6-2.6,7.8
		C145.6,289.1,149.3,290.9,150.1,290.9"/>
	<path class="st0" d="M175.2,290.9c0.8,0,4.4-1.8,4.4-8.6c0-4.2-1.6-6.5-2.6-7.8c0,0,1.8,8.5-3.7,9c0,0-0.9-0.2-0.9,2.9
		C172.5,289.6,174.4,290.9,175.2,290.9"/>
	<path class="st0" d="M146.1,163.4c-0.4-0.2-3.6-2.2-7.1-3.7c-2.3-1-4.6-1.8-6.3-1.7c-4.5,0.2-7.3,5-18.5,1
		c-9.3-3.3-9.8-13-9.1-18.5c0.2-1.9-2.2-4.5-3.8-6.7c-2-3-3.4-8-3.6-8.5v-0.1c0,0-6.8,15.5-5.1,25.2c0.9,4.9,3.8,11.5,10.5,14.6
		c-7.3,2.4-17.4,8.8-22.7,20.9c-7.6,17.6-5.4,26.4-5.4,26.4s7-8.6,16.3-8.9c-1,5.3-1.7,14,1.6,27.7c0,0,4.9-10.7,14-10.7
		c0.4,7,2.1,19.1,3.6,24.6c3.9,13.6,9.2,21.5,9.5,22v0.1c0,0,2.9-3.2,5.2-5c0.4-0.3,0.7-0.5,1.1-0.7c0,0-1.2-6.6-2.4-9.7
		c-0.1-0.1-0.1-0.3-0.1-0.4c-2.6-6.9-2.3-12-2.2-15.8c0,0.1,2.6,4,5.6,9.9c1.2,2.4,2.5,5.1,3.7,8c0.1,0.3,0.3,0.7,0.4,1
		c0,0.1,0.1,0.2,0.1,0.3c1,2.4,1.9,5,2.7,7.6c0.6,1.9,1,4,1.2,6.3c1.2,10,0.9,23.1,7.1,31.5c5.7,7.7,15.7,7.9,15.7,7.9
		c1.4,0.1,2.6,0.1,3.9,0h0.2c0,0,2-2.4,2.1-4.8c0-1.9-1.9-4-1.9-4c-0.1,0-0.1,0-0.2,0c-0.4,0-0.8,0-1.2,0c-0.1,0-0.3,0-0.5,0
		c-0.4,0-0.8-0.1-1.2-0.1c-0.2,0-0.3-0.1-0.5-0.1c-0.4,0-0.8-0.1-1.2-0.1c-0.2,0-0.4-0.1-0.6-0.1c-0.4,0-0.8-0.1-1.2-0.2
		c-0.2,0-0.4-0.1-0.6-0.1c-0.6-0.1-1.3-0.3-1.9-0.5c-0.3-0.1-0.7-0.2-1.1-0.3c-0.3-0.1-0.5-0.2-0.7-0.3c-0.3-0.2-0.7-0.3-1.1-0.4
		c-0.2-0.1-0.5-0.2-0.7-0.3c-0.3-0.2-0.6-0.3-1-0.5c-0.2-0.1-0.5-0.2-0.7-0.4c-0.3-0.2-0.6-0.4-0.9-0.6c-0.2-0.1-0.4-0.3-0.6-0.5
		c-0.3-0.2-0.5-0.4-0.8-0.7c-0.1-0.2-0.3-0.3-0.5-0.5c-0.3-0.2-0.5-0.6-0.7-0.8c-0.1-0.2-0.3-0.4-0.5-0.6c-0.2-0.3-0.4-0.7-0.6-1
		c-0.1-0.2-0.3-0.4-0.3-0.7c-0.2-0.4-0.3-0.7-0.4-1.1c-0.1-0.3-0.2-0.6-0.3-0.8c-0.1-0.5-0.2-0.9-0.2-1.4c0-0.3-0.1-0.6-0.1-0.8
		c-0.1-0.6-0.1-1.3,0-1.9c0-0.2,0-0.3,0-0.5c0.1-2.7,0.2-5.5,0.1-8.5c-0.1-5.1-0.7-10.5-2.4-16.7c-1.6-5.9-4-12.6-7.8-20.3
		c-2.7-5.4-5.1-14.3-7.3-21.8c-2.5-8.3-1.3-15.5,0.9-20.4c3.2-7.4,8.5-11.9,15.2-10.5c2.9,0.6,5.1,1.9,6.8,3.2c2.8,2.2,4,4.6,4,4.6
		s0.9-15-13.2-17.9c0,0,1.8-2.8,5.9-3.9c0.6-0.2,1.2-0.3,1.9-0.3h0.1c0.3,0,0.6,0,0.9-0.1c0.3,0,0.5,0,0.8,0h0.3
		c0.7,0,1.4,0.1,2.2,0.1c0.1,0,0.1,0,0.2,0C150.5,169.4,148.8,166.5,146.1,163.4"/>
	<path class="st0" d="M166.5,291.6l-2.1-3.6l-1.8,3.9l-1.8-3.9l-2.1,3.6c-3.2-0.2-3.7-5.2-3.7-5.2s-1.7,4.6,0.8,7.6
		c1.3,1.6,3.1,0,3.1,0s1.6,1.3,3.7,0.2c2.1,1.1,3.6-0.2,3.6-0.2s1.9,1.6,3.2,0c2.5-3,0.8-7.6,0.8-7.6S169.7,291.4,166.5,291.6"/>
	<path class="st0" d="M183.4,238.3c0-8.4-3.6-10.1-3.6-10.1c-1.4-0.5-2.2,0.2-3.4,1.2s-1.7,3.4-1.7,3.4s2.7,0.7,4.6,3.9
		c1.9,3.1,0.5,10.3,0.5,10.3S183.4,244.8,183.4,238.3"/>
	<path class="st1" d="M159.9,331.7c-0.1,0-15.7-0.6-26.2-8.4c-4.5-3.5-8.8-11.1-12.6-22.8l-2.4,6.7l-10.4-10.8
		c-5.9-6.2-10.4-12.7-13.6-18.4c-0.1,0.4-0.3,0.8-0.4,1.2l-5,16.4l-11.1-13.1c-5.6-6.5-9.1-13.8-11.3-20.6c-0.3,0.6-0.5,1.1-0.7,1.6
		l-7.1,17.4l-9.6-16.1c-6.9-11.5-10.8-24.7-11.5-39.1c-4.2,4.7-6.7,9.6-6.7,9.7l-2.8,5.6l-6,11.6l-7.4-16.6
		c-1.7-4.1-4.9-16-4.9-31.5c0-8.4,0.9-16.3,2.6-23.3c2.5-10,6.3-18,10.2-24.2c-0.1,0-23.1,6.8-23.1,6.8l12.1-20.5l0.1-0.2
		c2-3.2,6.6-9.9,13.3-16.9l-10.1,0.6l9-15.2l0,0c1.2-2,8.3-13.2,23-23.7C43,76.5,34.1,51,32.1,23.8L32,21v-0.1
		c0-9.8,4.2-14.1,7.8-16c1.9-1.1,4.1-1.6,6.5-1.6c4.3,0,9,1.9,14.3,5.8c9.8,7,31.9,20.7,47.5,29c-0.2-0.5-0.3-0.9-0.5-1.3l-7.3-18
		l18.8,5.6c2.4,0.8,9,3.1,16.1,6.9L134,20.1l15.9,9.2c0.2,0.1,3.5,2,7.7,4.7l-0.9-3.5l13.1,1.1l0,0c1.8,0.2,9.4,1.4,16.8,9.5
		c3.8-5.2,7.2-8.6,10.4-10.6l13.5-8.6l0.9,16c0.1,2.5,0.6,5.8,1.2,8.7c4.4-1.5,10.3-4,17.5-8.3c6.1-3.7,14.1-9,22.5-14.7
		c1.9-1.3,3.9-2.6,5.8-3.9c11.9-8.1,19.1-12.9,23.8-15.7l-4.8-3.2h11.1c0.5-0.2,0.9-0.3,1.3-0.4l0.5-0.1h0.1
		c0.4-0.1,2.7-0.6,2.7-0.6l1.9,1.1h0.2l1.2,0.7c3.2,1.9,8.7,7.2,8.7,21.8c0,15.1-5.7,37-17.1,65c5.2,4.2,12.5,11.7,18.5,24.4
		l9.3,19.5l-11-3.6c4.5,6.5,7.4,13,8.8,19.4l4.3,18.9l-13.6-6.6c1.9,2.8,3.5,5.6,4.8,8.4c4.1,8.7,6.2,18.9,6.2,30.3
		c0,16.7-4.5,31-5.8,34.9l-7.5,21.1l-9.8-20c-0.9-1.8-3.4-5.9-6.6-9.7c-0.7,14.4-4.5,27.6-11.5,39.3l-9.7,16.1l-7.1-17.4
		c-0.2-0.5-0.4-1-0.7-1.6c-2.2,6.8-5.6,14.1-11.2,20.5l-11.1,13l-5-16.5c-0.1-0.3-0.2-0.7-0.3-1.1c-3.3,5.8-7.7,12.4-13.7,18.5
		L204.9,307l-3.4-9.2c-4.2,13.3-8.7,21.8-13.6,25.5c-8.8,6.6-21.9,8.1-27.1,8.4l-0.2,0l-0.2,0H159.9z M128,272.8
		c0.5,0.8,0.8,1.4,1,1.9c0.1,0.1,0.1,0.3,0.2,0.4l0.3,0.6l0.1,0.6c3.1,14.7,9,32.5,12.9,35.4c5.4,4,14.4,5.4,17.8,5.6
		c3.8-0.2,13.8-1.6,19.1-5.6c3.9-3,9.8-20.7,12.9-35.4l0.1-0.4l0.2-0.4c0.3-0.8,0.7-1.5,1-2.2c0.2-0.4,0.4-0.8,0.6-1.2l3-6.7
		l5.1,5.3c3.2,3.3,5.7,7,7.5,10c9.3-11.9,12.9-24,12.9-24.1l1.8-6.2l5.5,3.2c4.1,2.4,7.3,7.4,9.5,12c6.5-12.1,6.2-25.2,6.2-25.3
		l-0.2-7.4l7,2.6c5.7,2.1,10.3,8.1,13.5,13.4c6.1-14.6,5.9-29.4,4.5-39.9l-0.9-6.2l6.3,0.6c9.8,0.9,17.8,8.6,22.9,15.3
		c2.3-11.2,4.2-29.1-2.7-43.5c-6.4-13.3-20.3-25.6-20.5-25.7l-8.2-7.2l10.8-1.6c1.7-0.2,3.5-0.4,5.3-0.4c4.5,0,8.9,0.7,12.6,1.7
		c-7.1-13.1-20.5-23.2-20.7-23.4l-8.8-6.5l10.6-2.4c1.6-0.4,3.5-0.6,5.5-0.6c1.8,0,3.7,0.1,5.5,0.4c-6.9-9.8-13.6-12.9-13.7-13
		l-4.5-2l1.9-4.5c21-49.7,19.8-68,18-73.9c-5.2,3-14.9,9.7-23.2,15.2c-10.6,7.2-21.5,14.6-29.5,19.3c-18.3,11-29,11.9-30.2,12
		l-2.5,0.1l-1.6-1.9c-2.4-2.7-3.8-7.2-4.7-11.5c-2.8,3.8-5.7,8.3-7.5,11.4l-5.1,9l-3.9-9.6c-2.4-6.1-5.4-9.6-7.9-11.6
		c-0.3,2.7-0.8,5.2-1.1,6.7l-2.6,13.1l-6.6-11.6c-1.1-2-6.9-6.4-13.3-10.6c-0.1,2.1-0.2,3.6-0.3,4l-1,12l-7.8-9.2
		c-4.3-5.1-11.7-9.3-17.7-12c1,6.2,1.2,11.8,1.3,12.1l0.2,6.6l-6.4-1.6c-12.9-3.3-55.2-29.8-66.4-37.9c-3-2.2-4.7-2.8-5.4-3
		c-0.2,0.8-0.5,2.4-0.3,5.1c2.3,34,16.9,66.1,17.1,66.4l1.9,4.1l-3.9,2.3c-8.8,5.2-15.1,11.1-19.2,15.7c5.4,0.4,10.1,0.9,10.4,1
		l16.1,2l-14.5,7.4c-9.7,4.9-17.5,12.7-22.7,18.9c3-0.3,5.6-0.4,7.7-0.4c4.3,0,7,0.4,7.3,0.4l13,2l-11,7.1
		c-0.1,0.1-15.7,10.5-21.8,34.8c-3.1,12.2-2.4,24.8-1.3,33.5c4.8-6,12.1-12.7,21.6-14.9l7.1-1.7l-0.9,7.2
		c-1.4,10.7-1.5,25.6,4.5,40.2c3.2-5.3,7.9-11.2,13.6-13.3l6.9-2.6l-0.2,7.4c0,0.1-0.2,13.2,6.2,25.3c2.2-4.6,5.4-9.6,9.5-11.9
		l5.5-3.2l1.7,6.1c0,0.1,3.6,12.2,12.9,24.1c1.5-2.6,3.6-5.7,6.2-8.6l4.3-4.8L128,272.8z"/>
	<path class="st1" d="M289.7,150.3c7.1,1.2,12.8,3.9,12.9,3.9l8.1,3.9l-2-8.8c-2.6-12-11-22.5-18.4-29.9c2.8,0.5,5.3,1.2,6.5,1.6
		l9.5,3.1l-4.3-9c-6.8-14.4-15.2-21.6-20.1-24.8c12.1-29.2,18.2-51.7,18.2-66.7c0-12.6-4.3-16.4-6.2-17.5h-0.1l0.3,0.2l-1.8-1
		c0,0-1.4,0.3-1.5,0.3c-3.5,0.8-11.4,6-29.8,18.5c-10.3,6.9-20.8,14.1-28.5,18.7c-11.6,6.9-19.7,9.3-23.4,10.2
		c-1.6-3.8-2.6-10.7-2.8-14.6l-0.4-7.5l-6.3,4c-4.4,2.8-9.2,9.3-12.9,14.9c-7.5-12.1-16.9-13.1-17.3-13.1l-6.1-0.5l1.5,5.9l0.1,1.3
		c0,0-0.1,0.9-0.1,1.9c-6.6-5.2-15.5-10.5-17.4-11.6l-7.4-4.3l0.9,8.6c0,0,0.1,1.9,0.1,2.8c-10.3-7.6-22.9-11.5-23.5-11.7l-8.7-2.6
		l3.4,8.4c1.4,3.5,2.2,8.2,2.7,12.2c-15-6.8-45.4-25.5-57.3-34c-6.4-4.7-11.5-6-15.5-3.8C38.7,11.1,37,15,37,20.9l0.1,2.6
		c2.1,29.6,12.7,57.1,16.5,66.1c-16.8,11-24.6,23.8-24.9,24.4l-4.2,7.1l8.2-0.5c1.6-0.1,3.7-0.1,6.4,0
		c-14.1,10.8-22.4,24.6-22.8,25.2l-5.6,9.5l10.6-3.1c4.3-1.3,8.8-1.9,13.3-2.3c-6,6.6-13,17.1-16.9,32.4c-1.7,6.8-2.5,14.2-2.5,22.1
		c0,14.4,2.9,25.7,4.5,29.6l3.1,7l1.2-2.3l2.8-5.6c0.1-0.2,6.1-12.3,16.4-18.2c-0.1,2.4-0.3,6-0.3,6c0,15.3,3.6,29.2,10.9,41.3
		l4.5,7.5l3.3-8.1c1.3-3.3,4.2-8.8,7.5-12.7c1.1,7.9,4.2,20.2,12.9,30.3l5.2,6.1l2.3-7.6c1-3.3,2.9-7.9,5-11.4
		c2.8,6.6,8.2,17,17.4,26.6l4.8,5l2.4-6.6c0,0,1-2.6,2.9-5.8c2.9,11.6,8.2,28.8,14.7,33.8c8.9,6.6,22.6,7.4,23.2,7.4h0.3h0.2
		c1.6-0.1,15.8-0.9,24.5-7.4c7.1-5.3,12.7-25.1,15.3-35.8c2.6,4,4,7.4,4.2,7.9l2.4,6.5l4.9-5c9.2-9.5,14.6-20,17.4-26.6
		c2.1,3.5,4.1,8,5,11.4l2.3,7.6l5.2-6.1c8.7-10.1,11.7-22.4,12.8-30.3c3.3,4,6.2,9.5,7.5,12.7l3.3,8.1l4.5-7.5
		c7.2-12.1,10.9-26,10.9-41.3c0,0-0.2-3.9-0.3-6.3c9.2,4.8,16,17.8,16.3,18.4l4.6,9.4l3.5-9.8c0.2-0.6,5.6-15.7,5.6-33.4
		c0-10.7-1.9-20.1-5.7-28.1C300.7,163.1,294.7,155.7,289.7,150.3 M300.6,231.1c0,0-10.4-21.4-25.2-22.7c1.8,12.9,1.8,33-9.4,51.6
		c0,0-6.7-16.5-15.3-19.7c0,0,0.6,21-12.4,36.1c0,0-4.3-14.5-10.8-18.3c0,0-4.9,17.2-18.9,31.7c0,0-3.1-8.5-9.9-15.5
		c-0.5,1.1-1.1,2.1-1.5,3.1c0,0-6.9,32.4-14.8,38.4c-7.9,5.9-22.1,6.6-22.1,6.6s-12.8-0.7-20.8-6.6c-7.9-5.9-14.8-38.4-14.8-38.4
		c-0.3-0.6-0.5-1.2-0.9-1.8c-6,6.7-8.7,14.2-8.7,14.2c-14-14.5-18.9-31.7-18.9-31.7c-6.5,3.7-10.8,18.2-10.8,18.2
		c-13-15.1-12.4-36.1-12.4-36.1c-8.7,3.2-15.3,19.7-15.3,19.7c-11.3-18.8-11.1-39-9.4-51.9C32.2,211.8,23,231.1,23,231.1
		s-6.9-24.2-1-47.8c6.7-26.7,23.9-37.8,23.9-37.8s-11.6-1.8-25.8,2.4c0,0,12.2-20.6,32-30.7c0,0-12.7-1.6-19.7-1.1
		c0,0,8.3-14.2,26.6-24.9c0,0-15.1-32.8-17.5-68.1c-0.6-7.8,1.3-15.5,13.6-6.6s53.3,34.2,64.7,37.1c0,0-0.4-12.6-3.5-20.4
		c0,0,19.4,5.8,28.8,16.9c0,0,0.7-8.4,0.2-12.6c0,0,19.4,11.3,22.7,17.1c0,0,2-10,1.1-13.5c0,0,10.7,0.9,17.4,17.5
		c0,0,9-15.8,15.5-19.9c0,0,0.7,14.5,4.8,19.2c0,0,10.1-0.6,27.9-11.3c17.9-10.6,51.7-35.5,57.1-36.7c0,0,15.7,8.9-15.3,82.3
		c0,0,12.3,5.2,21.6,24.8c0,0-12.3-3.9-19.8-2.2c0,0,21.9,16.2,26.2,35.6c0,0-13.2-6.4-25.7-4.6c0,0,14.8,12.9,21.7,27.3
		C312.4,197.8,300.6,231.1,300.6,231.1"/>
	<path class="st2" d="M278.8,145.7c12.5-1.8,25.7,4.6,25.7,4.6c-4.3-19.3-26.2-35.6-26.2-35.6c7.5-1.8,19.8,2.2,19.8,2.2
		c-9.2-19.6-21.6-24.8-21.6-24.8c30.9-73.4,15.3-82.3,15.3-82.3c-5.4,1.2-39.3,26-57.1,36.7s-27.9,11.3-27.9,11.3
		c-4.2-4.7-4.8-19.2-4.8-19.2c-6.6,4.1-15.5,19.9-15.5,19.9C179.8,41.9,169.1,41,169.1,41c0.9,3.5-1.1,13.5-1.1,13.5
		c-3.3-5.8-22.7-17.1-22.7-17.1c0.5,4.2-0.2,12.6-0.2,12.6c-9.4-11.1-28.8-16.9-28.8-16.9c3.1,7.8,3.5,20.4,3.5,20.4
		c-11.4-2.9-52.4-28.2-64.7-37.1S41,15.2,41.5,23C43.9,58.5,59,91.3,59,91.3c-18.3,10.7-26.6,24.9-26.6,24.9
		c6.9-0.5,19.7,1.1,19.7,1.1c-19.9,10-32,30.6-32,30.6c14.3-4.2,25.8-2.4,25.8-2.4S28.7,156.6,22,183.4c-5.9,23.6,1,47.8,1,47.8
		s9.1-19.3,25.3-23.1c-1.8,12.9-1.9,33.1,9.4,51.9c0,0,6.7-16.5,15.3-19.7c0,0-0.6,21,12.4,36.1c0,0,4.3-14.6,10.8-18.3
		c0,0,4.9,17.2,18.9,31.7c0,0,2.7-7.5,8.7-14.2c0.3,0.6,0.6,1.2,0.9,1.9c0,0,6.9,32.4,14.8,38.3c7.9,5.9,20.8,6.5,20.8,6.5
		s14.1-0.6,22.1-6.5c7.9-5.9,14.8-38.3,14.8-38.3c0.4-1,0.9-2,1.5-3.1c6.8,7,9.9,15.5,9.9,15.5c14.1-14.5,18.9-31.7,18.9-31.7
		c6.5,3.7,10.8,18.3,10.8,18.3c13-15.1,12.4-36.1,12.4-36.1c8.7,3.3,15.3,19.7,15.3,19.7c11.2-18.6,11.2-38.7,9.4-51.6
		c14.7,1.3,25.2,22.7,25.2,22.7s11.9-33.3,0-58.1C293.7,158.6,278.8,145.7,278.8,145.7 M179.3,236.6c-1.9-3.1-4.6-3.8-4.6-3.8
		s0.5-2.4,1.7-3.4c1.2-0.9,1.9-1.7,3.4-1.2c0,0,3.6,1.7,3.6,10.1c0,6.5-3.6,8.7-3.6,8.7S181.2,239.7,179.3,236.6 M162.1,276.9
		L162.1,276.9c-9.6-0.6-13.5-10.2-14-18.4c-0.5-8.2,1.2-11.3,5.8-11.5s6.8,5.5,7,7.9s1.2,4.6,1.2,4.6v0.1c0,0,1-2.2,1.2-4.6
		c0.2-2.4,2.4-8.2,7-7.9c4.6,0.2,6.3,3.4,5.8,11.5C175.7,266.8,171.8,276.4,162.1,276.9 M169.4,294c-1.3,1.6-3.2,0-3.2,0
		s-1.6,1.3-3.7,0.2c-2.1,1.1-3.7-0.2-3.7-0.2s-1.8,1.6-3.1,0c-2.5-3-0.8-7.6-0.8-7.6s0.5,5,3.7,5.2l2.1-3.6l1.8,3.9l1.8-3.9l2.1,3.6
		c3.2-0.2,3.7-5.2,3.7-5.2S171.9,291,169.4,294 M144.9,247c0,0-3.6-2.2-3.6-8.7c0-8.4,3.6-10.1,3.6-10.1c1.5-0.5,2.2,0.3,3.4,1.2
		c1.2,1,1.7,3.4,1.7,3.4s-2.6,0.7-4.6,3.8C143.5,239.7,144.9,247,144.9,247 M148.2,274.5c0,0-1.8,8.5,3.6,9.1c0,0,0.9-0.2,0.9,2.9
		s-1.9,4.4-2.7,4.4s-4.5-1.8-4.5-8.6C145.6,278.1,147.2,275.8,148.2,274.5 M150.8,233.4c0.7-1.7,4.8-0.7,5.8,1.2
		c1.9-1.9,4.6-1,5.8,0.2c1.2-1.2,3.9-2.1,5.8-0.2c1-1.9,5.1-2.9,5.8-1.2c0,0,0,3.8-2.4,6.2c0,0-1.4-3.1-2.6-3.4c0,0-2.4,3.1-3.4,4.3
		l-3.1-3.8l-3.1,3.8c-0.9-1.2-3.4-4.3-3.4-4.3c-1.2,0.2-2.6,3.4-2.6,3.4C150.8,237.3,150.8,233.4,150.8,233.4 M173.3,283.5
		c5.5-0.5,3.7-9.1,3.7-9.1c1,1.3,2.6,3.6,2.6,7.8c0,6.8-3.7,8.6-4.4,8.6c-0.8,0-2.7-1.3-2.7-4.4
		C172.5,283.3,173.3,283.5,173.3,283.5 M113.9,274.7c0,0-6.6-10.5-9.8-17.7c-3.9-8.7-5.7-15.1-5.7-15.1c-8.1,2.7-13,16.1-13,16.1
		c-6.9-17-4.3-35.5-4.3-35.5C68.7,224.1,60,239.7,60,239.7c-9.7-24.2-0.9-40-0.9-40c-14.8-2.4-25.3,3.9-32.1,10.5
		c-0.1-3.6-0.1-16.4,2.2-23.7c2.7-8.7,6.9-27.9,32.3-47.4c0,0,4.6-2-22.6-2.5c0,0,11.8-15.4,31-24.1c0,0-12.1-2.1-22.7-1
		c0,0,8.5-16.3,38-20.8l2.4-0.4c-1.9-3.3-6.6-2-8.6-5.2c-1-1.8,26-8.3,25-10c-1.2-2.1-24-7.7-25.2-9.7c-0.7-1.2,8.2-4.9,7.5-6.1
		c-0.6-1.1-5.6-3.7-10.1-6.8c-4.4-3-8.4-6.4-8.9-6.3c-3.9,1,1.2,38.7,1.4,40.7c0,0.2-3.9,1-3.9,1c-2-2.2-19.5-54.6-15.7-63.8
		c0.6-1.4,2.9-0.6,11.3,5.8C96,57,126.9,63.7,126.9,63.7c0.9-7.1,0-16.9,0-16.9c13.9,5.4,21.9,20.5,21.9,20.5l0.5-1.3
		c2.1-6.3,2.7-15.1,2.7-15.1c6.7,4,13.2,14.8,13.2,14.8s2.2,21.7-3.4,33.2c-3.2,6.6-13.7,10.7-23.2,10.1c0,0,2.6,3.4,6.5,6.2
		c2.4,1.7,6.9,3.5,6.9,3.5s-8.3,6-27.3,1.8c-1.7,0.2,9.4,11.1,25.5,17.9c7.7,3.3,11.5,15.7,1.5,15.8c0,0,8.2,9.4,9,16.1l1.3,6.8
		c-3.1-4.4-7.7-5.8-11.3-6.1c-0.8-0.1-1.5-0.1-2.2-0.2h-0.3c-0.3,0-0.6,0-0.8,0c-0.3,0-0.6,0-0.9,0.1h-0.1c-0.7,0-1.3,0.2-1.9,0.3
		c-4,1.1-5.9,3.8-5.9,3.8c2.8-0.4,4.4-0.8,9.3,0.9c15.5,5.2,13.4,26.2,14.4,29.6c0-0.1-4-2.8-9.4-2.8c-0.5,0-0.9,0.1-1.4,0.1l0,0
		c-0.6,0.1-1.2,0.3-1.7,0.5s-1,0.4-1.5,0.7c-0.1,0-0.1,0.1-0.2,0.1c-0.4,0.3-0.8,0.6-1.2,0.9c-0.1,0.1-0.2,0.2-0.3,0.3
		c-0.3,0.3-0.7,0.6-0.9,0.9c-0.1,0.1-0.2,0.3-0.4,0.5c-0.2,0.3-0.5,0.6-0.7,0.9c-0.2,0.3-0.3,0.5-0.4,0.8c-0.1,0.3-0.3,0.5-0.4,0.7
		c-0.2,0.4-0.3,0.8-0.4,1.1c0,0.2-0.1,0.3-0.2,0.5c-0.1,0.6-0.2,1.2-0.2,1.7c0,4.7,2.9,7.9,4.7,9.7c1.6,1.6,3.2,3.5,1.6,3.4
		c-0.2,0-0.5-0.1-0.9-0.2c-6.8-1.7-14.4-8.9-15-20.3c-0.4-9.2,2-14,5.1-15.1c0.2-0.1,0.5-0.1,0.8-0.2c0,0,0,0,0.1,0
		c5.4-1.3,12.4,3.2,12.4,3.2s-1.2-2.4-4-4.6c-1.7-1.3-3.9-2.6-6.8-3.2c-6.7-1.5-12,3.1-15.2,10.5c-2.2,4.9-3.4,12.1-0.9,20.4
		c2.3,7.5,4.6,16.4,7.3,21.8c3.8,7.7,6.3,14.3,7.8,20.2c1.6,6.2,2.3,11.7,2.4,16.7c0.1,2.9,0,5.7-0.1,8.5c0,0.2,0,0.3,0,0.5
		c0,0.7,0,1.3,0,1.9c0,0.3,0.1,0.5,0.1,0.8c0.1,0.4,0.1,0.9,0.2,1.4c0.1,0.2,0.2,0.5,0.3,0.8c0.1,0.4,0.2,0.8,0.4,1.1
		c0.1,0.3,0.2,0.5,0.3,0.7c0.2,0.4,0.3,0.7,0.5,1c0.2,0.2,0.3,0.4,0.5,0.6c0.2,0.3,0.4,0.6,0.7,0.9c0.2,0.2,0.3,0.4,0.5,0.5
		c0.3,0.3,0.5,0.5,0.8,0.7c0.2,0.2,0.4,0.3,0.6,0.5c0.3,0.2,0.6,0.4,0.9,0.6c0.2,0.1,0.4,0.3,0.7,0.4c0.3,0.2,0.6,0.3,1,0.5
		c0.3,0.1,0.5,0.2,0.7,0.3c0.4,0.2,0.7,0.3,1.1,0.4c0.2,0.1,0.5,0.2,0.7,0.3c0.3,0.1,0.7,0.2,1.1,0.3c0.6,0.2,1.3,0.4,1.9,0.5
		c0.2,0,0.4,0,0.6,0.1c0.4,0.1,0.9,0.2,1.2,0.2c0.2,0,0.4,0.1,0.6,0.1c0.4,0.1,0.8,0.1,1.2,0.2c0.2,0,0.4,0,0.5,0.1
		c0.4,0,0.8,0.1,1.2,0.1c0.2,0,0.3,0,0.5,0c0.4,0,0.8,0,1.1,0c0.9,0,1.7,0,2.5,0c12.5,0,16.8-7.2,17.6-16.9
		c0.8-11.2-1.1-24.7,10.1-44.4c4.3-7.4-3.5,5.8-4.1,27.1c-0.5,20.3-0.1,42.5-26,43h-0.2c-1.2,0-2.5,0.1-3.8,0c0,0-10-0.1-15.7-7.9
		c-6.2-8.4-5.8-21.5-7.1-31.5c-0.3-2.3-0.7-4.4-1.2-6.3c-0.8-2.6-1.7-5.2-2.7-7.6c0-0.1-0.1-0.2-0.1-0.3c-0.1-0.4-0.3-0.7-0.5-1
		c-1.2-2.9-2.5-5.7-3.7-8c-3-6-5.6-9.8-5.6-9.9c-0.2,3.8-0.4,9,2.2,15.8c0.1,0.1,0.1,0.3,0.1,0.4c1.2,3.1,2.4,9.7,2.4,9.7
		c-0.4,0.2-0.7,0.5-1.1,0.8c-2.3,1.8-5.2,5-5.2,5v-0.1C116.6,270.7,113.9,274.7,113.9,274.7 M208.4,153.4
		c-7.2,5.4-11.8-2.4-11.8-2.4l3.1-2.2c0,0,2.7,2.4,6.3,0.7s2.4-5.3,2.4-5.3l3.9-2.6C212.3,141.5,215.3,148.2,208.4,153.4
		 M180.7,146.6c-0.6-4.7,12.9-32.4,13.5-28.9s1.8,7.1,2.5,6c1.8-3,13.2-8.6,13.2-8.6s-4.1,7.1-2.3,6c2.4-1.5,8.4,1.6,8.4,1.6
		C199.1,129.2,185.8,136.7,180.7,146.6 M299.1,211h-0.7l-1.4-8.4c-6.6-23.2-16.9-40.3-32.7-53.7l-6.3-5.1l-11.5-9.4l13.3-1.9
		c4.6-0.8,13.2-0.5,18.9-0.3c0,0,1.1,0,2,0.1c-9.7-10.2-31.4-24.8-31.6-24.9l-2.6-1.3l0.8-0.3c8.2-2.7,22.3-2.3,25.8-2.2
		c-1.8-1.7-7.7-7.1-16-11l-0.4-0.2l0.2-0.3c13.6-20.3,20.3-46.1,23.2-59.8c0.2-1.2,0.2-1.2,0.5-1.3c-0.2,0-1.4,0.3-7.5,5.9
		c-0.9,0.6-10.8,9.1-24.1,21.6c0.3,0.5,5.3,8.2,5.3,8.2l-0.5,0.1c-9,2.2-19,4.1-28.3,5.1c0.9,0.9,12.5,12.3,12.5,12.3l-0.4,0.6
		L226.1,79c-7.8-4.2-15.2-8.2-23.8-9.2l-0.1-0.7l4.4-1.7l8.5-3.2c21.2-7.1,53.5-30.3,54.9-31.3c10.5-8.6,13.6-11,15.7-10
		c1.5,0.7,2,2.1,2,3.2l0,0c0,0.4-7.8,40-23.6,64.7c2,0.8,14.6,6,21.3,16.8l0.3,0.5H285c-0.2,0-14-0.2-21.6,1.1
		c8.1,5.1,25.5,21.2,30.5,30l0.3,0.6l-0.7-0.1c-13.1-2.1-26.7-1.6-29.9-1.4c0.9,0.9,4,4.1,4,4.1l5.5,5.5
		c17.1,14.5,25.8,34.8,25.8,60.4C299.1,209.5,299.1,210.2,299.1,211"/>
	<path class="st1" d="M207.5,121.1c-1.8,1.1,2.3-6,2.3-6s-11.4,5.6-13.2,8.6c-0.7,1.1-1.8-2.5-2.4-6c-0.6-3.5-14.1,24.3-13.5,28.9
		c5.2-9.9,18.5-17.4,35.3-24C216,122.6,210,119.6,207.5,121.1"/>
	<path class="st1" d="M120.1,266.9c-0.3-0.4-5.6-8.4-9.5-22c-1.6-5.5-3.2-17.6-3.6-24.6c-9.2,0-14,10.7-14,10.7
		c-3.3-13.7-2.5-22.4-1.6-27.7c-9.3,0.3-16.3,8.9-16.3,8.9s-2.2-8.8,5.4-26.4c5.2-12.2,15.4-18.6,22.7-20.9
		c-6.8-3.1-9.6-9.7-10.5-14.6c-1.7-9.7,5.1-25.2,5.1-25.2c11.2,10.7,25.8,15.5,36.3,23.5c10,7.6,12.2,14.7,12.2,14.7h-0.1
		c2.6,3.1,4.3,6,4.8,7.6c-0.1,0-0.2,0-0.2,0c3.6,0.4,8.2,1.7,11.3,6.1l-1.4-6.7c-0.8-6.8-9-16.1-9-16.1c10-0.1,6.3-12.6-1.5-15.8
		c-16.1-6.8-27.2-17.7-25.5-17.9c19,4.1,27.3-1.9,27.3-1.9s-4.6-1.7-6.9-3.4c-3.9-2.8-6.5-6.2-6.5-6.2c9.5,0.5,20-3.6,23.2-10.1
		c5.6-11.6,3.4-33.3,3.4-33.3s-6.5-10.8-13.2-14.8c0,0-0.6,8.8-2.7,15.1l-0.5,1.4c0,0-8-15.1-21.9-20.5c0,0,0.9,9.8,0,16.9
		c0,0-30.9-6.8-66.5-33.8c-8.4-6.4-10.8-7.2-11.3-5.8C45.3,33.3,62.8,85.7,65,87.8c0,0,3.9-0.8,3.9-1c-0.2-2-5.3-39.8-1.4-40.7
		c0.4-0.1,4.4,3.3,8.9,6.3c4.5,3.1,9.5,5.7,10.1,6.8c0.7,1.2-8.2,4.9-7.5,6.1c1.2,2,24,7.6,25.2,9.7c1,1.8-26,8.2-25,10
		c1.9,3.3,6.6,1.9,8.5,5.2l-2.4,0.4c-29.5,4.5-38,20.8-38,20.8c10.6-1.1,22.7,1,22.7,1c-19.3,8.7-31,24.1-31,24.1
		c27.3,0.5,22.7,2.5,22.7,2.5c-25.4,19.6-29.6,38.8-32.3,47.4c-2.3,7.3-2.2,20.1-2.2,23.7c6.7-6.6,17.3-12.9,32.1-10.5
		c0,0-8.8,15.8,0.9,40c0,0,8.7-15.6,21.1-17.2c0,0-2.5,18.5,4.3,35.5c0,0,4.9-13.4,13-16.1c0,0,1.8,6.4,5.7,15.1
		c3.2,7.2,9.8,17.7,9.8,17.7S116.6,270.7,120.1,266.9"/>
	<path class="st1" d="M164.4,303c-0.1,2.4-2.1,4.8-2.1,4.8c25.9-0.5,25.5-22.8,26-43c0.5-21.3,8.3-34.5,4.1-27.1
		c-11.1,19.7-9.2,33.2-10.1,44.4c-0.7,9.7-5.1,16.9-17.6,16.9c-0.8,0-1.6,0-2.5,0c0.1,0,0.1,0,0.2,0
		C162.5,299.1,164.4,301.1,164.4,303"/>
	<polygon class="st1" points="162.4,307.9 162.4,307.9 162.1,307.9 	"/>
	<path class="st1" d="M138.6,175.1c14.1,3,13.2,17.9,13.2,17.9s-7-4.5-12.4-3.2c4.4,0.8,10,7.8,12,13c0.5-0.1,0.9-0.1,1.4-0.1
		c5.5,0,9.5,2.8,9.4,2.9c-1-3.4,1-24.4-14.4-29.6C143.1,174.4,141.4,174.7,138.6,175.1c0,0,1.8-2.8,5.9-3.9
		C140.4,172.4,138.6,175.1,138.6,175.1"/>
	<path class="st3" d="M208.4,144.2c0,0,1.2,3.6-2.4,5.3c-3.6,1.7-6.3-0.7-6.3-0.7l-3.1,2.1c0,0,4.6,7.9,11.8,2.4
		c6.9-5.2,3.9-11.8,3.9-11.8L208.4,144.2z"/>
	<path class="st2" d="M101.3,133.8c1.5,2.2,4,4.7,3.8,6.7c-0.6,5.5-0.1,15.2,9.1,18.5c11.2,4,14-0.9,18.5-1c1.7-0.1,4.1,0.7,6.3,1.7
		c3.5,1.5,6.8,3.5,7.1,3.7h0.1c0,0-2.2-7-12.2-14.7c-10.4-7.9-25.1-12.8-36.3-23.5v0.1C97.9,125.9,99.3,130.8,101.3,133.8
		 M111.6,141.5l3.8,2.6c0,0-1.2,3.6,2.4,5.3s6.3-0.7,6.3-0.7l3.2,2.1c0,0-4.6,7.9-11.9,2.4C108.6,148.1,111.6,141.5,111.6,141.5"/>
	<path class="st3" d="M115.5,153.3c7.2,5.5,11.9-2.4,11.9-2.4l-3.2-2.1c0,0-2.7,2.4-6.3,0.7c-3.6-1.7-2.4-5.3-2.4-5.3l-3.8-2.6
		C111.6,141.5,108.6,148.1,115.5,153.3"/>
	<path class="st4" d="M170.4,247.1c-4.6-0.2-6.8,5.5-7,7.9c-0.3,2.4-1.2,4.6-1.2,4.6v-0.1c0,0-1-2.2-1.2-4.6c-0.3-2.4-2.4-8.2-7-7.9
		s-6.3,3.4-5.8,11.6c0.5,8.2,4.3,17.8,14,18.3v0.1c9.7-0.5,13.5-10.1,14-18.3C176.7,250.5,175,247.3,170.4,247.1"/>
	<path class="st5" d="M273.3,148.3l-5.5-5.5c0,0-3.2-3.2-4-4.1c3.2-0.2,16.8-0.7,29.9,1.4l0.7,0.1l-0.3-0.6
		c-5-8.8-22.4-24.9-30.5-30c7.6-1.3,21.4-1.1,21.6-1.1h0.7l-0.3-0.5c-6.7-10.9-19.3-16.1-21.3-16.8c15.9-24.8,23.6-64.3,23.6-64.7
		l0,0c0-1.1-0.5-2.5-2-3.2c-2.1-1-5.2,1.4-15.7,10c-1.4,1-33.7,24.2-54.9,31.2l-8.5,3.2l-4.4,1.7l0.1,0.7c8.6,1,16,5,23.8,9.2
		l11.5,5.8l0.4-0.6c0,0-11.6-11.4-12.5-12.3c9.2-1.1,19.2-2.9,28.3-5.1l0.5-0.1c0,0-4.9-7.7-5.3-8.2c13.3-12.5,23.3-20.9,24.1-21.6
		c6.1-5.6,7.3-5.9,7.5-5.9c-0.2,0.1-0.2,0.1-0.5,1.3c-2.8,13.6-9.6,39.4-23.2,59.8l-0.2,0.3l0.4,0.2c8.4,3.9,14.2,9.3,16,11
		c-3.6-0.2-17.7-0.5-25.8,2.2l-0.8,0.3l2.6,1.3c0.2,0.1,21.9,14.7,31.6,24.9c-0.8,0-2-0.1-2-0.1c-5.7-0.2-14.3-0.5-18.9,0.3
		l-13.3,1.9l11.5,9.4l6.3,5.1c15.8,13.3,26.1,30.4,32.7,53.7l1.4,8.3h0.7c0-0.8,0-1.5,0-2.3C299.1,183.2,290.4,162.8,273.3,148.3"/>
</g>
</svg>
