<?xml version="1.0" encoding="utf-8"?>
<!-- Generator: Adobe Illustrator 21.1.0, SVG Export Plug-In . SVG Version: 6.00 Build 0)  -->
<!DOCTYPE svg PUBLIC "-//W3C//DTD SVG 1.1//EN" "http://www.w3.org/Graphics/SVG/1.1/DTD/svg11.dtd">
<svg version="1.1" id="Layer_1" xmlns="http://www.w3.org/2000/svg" xmlns:xlink="http://www.w3.org/1999/xlink" x="0px" y="0px"
	 width="307.8px" height="358.4px" viewBox="0 0 307.8 358.4" style="enable-background:new 0 0 307.8 358.4;" xml:space="preserve"
	>
<style type="text/css">
	.st0{fill:#FFFFFF;}
	.st1{fill:#8D734A;}
	.st2{fill:#C19C67;}
	.st3{fill:#001641;}
	.st4{fill:#CF0A2C;}
	.st5{fill:#00103E;}
</style>
<g>
	<path class="st0" d="M167.8,323.2c-0.2,0.9-0.5,2-1.8,3.3c-1.1,1.1-3.1,2.4-6.8,2.6c-5.2,0.2-9-2.4-9.2-7.5c-0.2-5.6,4.1-8,8.8-8.2
		c1.7-0.1,6.6,0.1,8.6,4.2l-4,0.7c-0.4-0.6-1.6-2.3-4.5-2.2c-3.3,0.1-5.1,2.5-5,5.4c0.1,3.2,2.7,5,5.5,4.9c3.2-0.1,4.1-2.1,4.5-3
		L167.8,323.2z"/>
	<path class="st1" d="M154,284.8c-39.4,0-71.4-32-71.4-71.4s32-71.4,71.4-71.4s71.4,32,71.4,71.4C225.4,252.7,193.4,284.8,154,284.8
		"/>
	<path class="st2" d="M153.7,358.4l-2.7-2.5c-0.8-0.7-18.5-17.4-22.9-32.7c-18.8-6.5-28-27.2-28.4-28.1l-1.5-3.5l3.3-1.7
		c0.8-0.4,13.1-7.8,20.1-17.9H67.6V242l-3.5,0.2c-1.1,0.1-28.3,1.2-47.1-16.8C5.7,214.6,0,199.3,0,180c0.1-25.7,16.4-53.6,52.5-58
		c3-0.4,5.5-0.5,7.9-0.5c12.8,0,24.8,4.3,34.8,12.3c-3.8-26.3,3.4-55.8,21.3-86C132.2,21.1,150.3,3.4,151,2.7l2.8-2.7l2.8,2.7
		c0.8,0.8,19.9,19.3,36,46.4c17.9,30.1,24.6,58.8,19.9,83.9c9.8-7.4,21.8-11.3,34.9-11.3c2,0,4.9,0.1,8,0.5
		c36.1,4.4,52.3,32.3,52.4,57.9c0.1,31.7-17.2,47.1-31.7,54.5c-15.5,7.8-30.7,8.2-31.4,8.3l-4.6,0.1v29.3h-54.7
		c6.6,10.4,20.4,17.6,20.6,17.6l3.2,1.6l-1.2,3.3c-0.3,0.9-7.9,21.1-28.8,28.6c-4.5,15.6-22,31.7-22.7,32.4L153.7,358.4z
		 M108.5,294.9c3.2,5.7,11.3,17.9,23.9,21.3l2.4,0.7l0.5,2.4c1.9,9.5,12.2,21.7,18.4,28.1c5.2-5.2,16-17.3,18.2-27.8l0.5-2.3
		l2.3-0.7c14-4.2,21.5-15.8,24.4-21.4c-6.3-3.8-19.6-13.1-23.7-25.6l-1.7-5.2h58.5v-36.5h-8v-0.1h-13.5l1.1-4.9
		c5.3-23.8,17-26.2,23.4-25.5c6.1,0.6,10.6,3.2,13.6,7.6c5.7,8.5,3.3,21.8,1.3,29.5c14.1-1.9,49.9-10.9,49.8-54.2
		c-0.1-22.2-14.2-46.2-45.5-50l-0.2,0c-1.9-0.3-4.1-0.4-6.8-0.4c-16.1,0-30.2,6.9-39.8,19.3l-6.9-3.9
		c22.6-56.2-33.5-119.7-46.9-133.8c-5.6,6-18.9,21-30.5,40.7c-13.8,23.4-28,58.6-17.4,93.2l6.1,20L99,148.9
		c-7.1-8.8-19.5-19.4-38.6-19.4c-2,0-4.3,0.2-6.9,0.5C22.2,133.7,8.1,157.8,8,180c0,17,4.9,30.4,14.6,39.6
		c11.7,11.1,27.6,13.8,35.8,14.4c-2.3-8-5.2-22.2,0.7-30.6c2.1-3,6.3-6.5,14.2-6.4c7.9,0.1,18.2,4.7,22.9,25.5l1.1,4.9H84.2
		l-8.6,0.1v36.5h58.7l-2.3,5.5C127,281.4,114.6,290.8,108.5,294.9z M232.1,219.8h8v20.5l0.6-2.4c0.1-0.3,0.2-0.8,0.4-1.5
		c3.9-13.1,4.2-22.2,0.9-27.1c-1.6-2.4-4.1-3.7-7.8-4.1c-4.2-0.4-9.7,1.9-13.5,14.4h11.3V219.8z M72.8,205.1c-5.1,0-6.6,2.2-7.2,3
		c-4.7,6.7,0,23.2,2,28.6v-17l19.5-0.1c-2.3-7.3-6.5-14.3-14-14.4C73,205.1,72.9,205.1,72.8,205.1z"/>
	<path class="st2" d="M131.4,320.1c-18.7-5.1-28.1-26.6-28.1-26.6c0.4-0.2,19-11.1,25-25.4H71.6v-44.5l12.6-0.1h8.1
		c-2.4-10.7-7.7-22.2-19.1-22.4c-23.7-0.5-9.3,37.1-9.3,37.1S3.9,241.1,4,180c0.1-23.9,15.2-49.9,49-54c2.5-0.3,5-0.5,7.4-0.5
		c18,0,32.1,8.9,41.7,20.9C80.7,76.6,153.8,5.6,153.8,5.6s77.3,74.5,50.6,141c9.7-12.6,24.5-20.9,43-20.9c2.4,0,4.9,0.1,7.4,0.5
		c33.8,4.1,48.9,30,49,54c0.2,57.4-59.2,58.7-59.2,58.7c1-3.9,12.1-35.3-9.9-37.6c-11.4-1.2-16.7,11.7-19.1,22.4h12.5v0.1h8v44.5
		h-57c4.9,14.9,25.1,25.2,25.1,25.2s-7.5,20.6-28.4,26.9c-3.1,15.2-22.1,32.6-22.1,32.6S134.3,334.9,131.4,320.1"/>
	<path class="st3" d="M169.7,305.8c0,0,0,19.2-16.1,34c-16.1-14.8-16.1-34-16.1-34H169.7z"/>
	<path class="st3" d="M253.9,134.1c-54.7-6.6-63.7,71.2-65.2,97.6h-24.8c0.3-74.3,37.6-63.3,37.6-113c0-49.8-47.5-101.2-47.5-101.2
		s-47.3,52.6-47.3,102.4s37.2,37.5,37.4,111.8h-24.8c-1.4-26.3-10.5-104.2-65.2-97.6c-59.1,7.1-52.7,89,0,95.5
		c0,0-10-36.4,19.3-36.4c21.2,0,27,24.9,28.6,38.5H84.1h-4.5v28.5h4.5h56.1c-8,27.4-26.2,35.7-26.2,35.7s7.9,15.6,24.9,17.7
		c0,0,2.4,2.1,8.4,15.5c1.2,2.8,6.6,0.7,6.6,0.7s1.9,6.3,5.7-1.2c6.8-13.2,8.5-14.9,8.5-14.9c17.1-2.1,25.6-17.8,25.6-17.8
		s-18.3-8.3-26.3-35.7h56.2h4.4v-28.5h-4.4H206c1.5-13.6,7.3-38.5,28.6-38.5c29.1,0,19.2,36.4,19.2,36.4
		C306.6,223.1,313,141.3,253.9,134.1"/>
	<path class="st4" d="M127.1,298c2.9,2.9,7.3,5.8,13,6.5l2.7,0.3l2.1,1.8c0.9,0.8,3.4,2.9,8.6,13.9c6.3-11.6,8.9-13.6,9.8-14.3
		l2-1.5l2.4-0.3c5.7-0.7,10.1-3.6,13-6.5c-7.2-6-16.7-17-22-35.3l-3.4-11.7h12.2h51.4v-10.1h-20.3h-8.7h-8.7h-17.4h-9.2v-9.2
		c0.2-43.9,13.1-61.1,23.5-74.9c7.9-10.5,14.1-18.7,14.1-38.1c0-34.6-25.7-71.1-38.3-86.9c-12.6,16.1-38.3,53.4-38.3,88.1
		c0,19.3,5.8,26.9,14,37.5c10.4,13.5,23.3,30.3,23.4,74.3v9.2h-9.1h-17.4h-7.1h-10.3H88.8v10.1h51.4h12.2l-3.4,11.7
		C143.7,281,134.2,292,127.1,298"/>
	<path class="st4" d="M247.5,142.9c-34.8,0-45.3,48.3-48.5,76.1c5.3-22.4,18-35,35.7-35c12.9,0,19.9,5.7,23.6,10.5
		c5.2,6.8,6.5,15.3,6.4,22.6c15-7,22-22.9,22-37c0-15.9-8.9-33.9-33.9-36.9C251,143,249.2,142.9,247.5,142.9"/>
	<path class="st4" d="M73.1,184c17.7,0,30.3,12.5,35.7,34.9c-3.2-27.9-13.6-76-48.5-76c-1.7,0-3.5,0.1-5.3,0.3
		c-24.9,3-33.9,21-33.9,36.9c0,14.1,6.9,29.9,22,37c-0.1-7.3,1.3-15.8,6.4-22.6C53.1,189.8,60.2,184,73.1,184"/>
	<path class="st5" d="M270.4,204.8c-1.3-5.5-3.5-10.4-6.6-14.5c-4.6-6-13.4-13.2-29.1-13.2c-7.9,0-15.1,2.1-21.2,6.1
		c6.2-18,16.5-33.5,34-33.5c1.5,0,3,0.1,4.5,0.3c25.8,3.1,27.8,23.8,27.8,30.1C279.8,187.9,277.2,197.7,270.4,204.8"/>
	<path class="st5" d="M37.4,204.8c-6.8-7.1-9.5-17-9.4-24.6c0-6.3,2-27,27.8-30.1c1.6-0.2,3.1-0.3,4.5-0.3c17.5,0,27.9,15.5,34,33.5
		c-6.1-4-13.2-6.1-21.2-6.1c-15.8,0-24.5,7.2-29.2,13.2C40.9,194.5,38.7,199.3,37.4,204.8"/>
	<path class="st5" d="M153.9,187.1c-5.1-16.1-12.6-25.8-18.7-33.8c-7.8-10.2-12.5-16.3-12.5-33.3c0-28.4,19.1-59.5,31.5-76.7
		c12.4,16.8,31.3,47.2,31.3,75.4c0,17.1-5.1,23.8-12.7,34C166.5,160.8,159,170.8,153.9,187.1"/>
	<path class="st3" d="M44.2,219.3c0,0-16.2-9.9-16.2-37.6s31.3-43.5,54.8-22.6c29,25.8,23.6,49,27.1,64.6l-2.9-1.9
		c0,0-17.5-44.6-43.6-29.9C37.2,206.6,44.2,219.3,44.2,219.3"/>
	<path class="st3" d="M263.6,219.3c0,0,16.2-9.9,16.2-37.6s-31.3-43.5-54.8-22.6c-29,25.8-23.6,49-27.1,64.6l2.9-1.9
		c0,0,17.5-44.6,43.6-29.9C270.6,206.6,263.6,219.3,263.6,219.3"/>
	<polygon class="st3" points="125.8,77.5 154.1,43.2 181.8,75.8 178.8,83 138.1,78.8 	"/>
	<polygon class="st3" points="83.1,247 225,247 225.7,256.9 82.1,257.2 	"/>
	<path class="st5" d="M131,303c0,0,12.8-8.4,13-27.9l3.7-2.3c0,0,1.9,28.3-2.3,34.4C145.3,307.2,139.3,308.6,131,303"/>
	<path class="st5" d="M176.9,303c0,0-12.8-8.4-13-27.9l-3.7-2.3c0,0-1.8,28.3,2.3,34.4C162.6,307.2,168.6,308.6,176.9,303"/>
	<path class="st1" d="M137.9,216.6c-3.3,3.9-8.2,10.5-17.3,19.8c0,0,16.3,0.9,22.1-9.8c2.8-5.2,2.9-5.8,3.9-7.8
		C144.8,218.4,140.6,217.8,137.9,216.6"/>
	<path class="st1" d="M172.7,216.6c3.2,3.9,8.2,10.5,17.3,19.8c0,0-16.3,0.9-22.1-9.8c-2.8-5.2-3-5.8-3.9-7.8
		C165.8,218.4,170,217.8,172.7,216.6"/>
	<polygon class="st5" points="135.1,216.6 110.1,243.5 122.6,252.7 142.3,263.2 164.6,263.2 198,245.5 175.7,216 	"/>
	<path class="st5" d="M154,150c-35,0-63.4,28.4-63.4,63.4s28.4,63.4,63.4,63.4c34.9,0,63.4-28.4,63.4-63.4S188.9,150,154,150"/>
	<path class="st0" d="M212.8,213.3c0,32.5-26.3,58.8-58.8,58.8s-58.8-26.3-58.8-58.8s26.3-58.8,58.8-58.8S212.8,180.9,212.8,213.3"
		/>
	<path class="st2" d="M200.6,225.5c0,25.8-20.9,46.7-46.6,46.7c-25.8,0-46.6-20.9-46.6-46.7c0-25.7,20.9-46.6,46.6-46.6
		C179.8,178.9,200.6,199.8,200.6,225.5"/>
	<path class="st3" d="M154,150c-35,0-63.4,28.4-63.4,63.4s28.4,63.4,63.4,63.4c34.9,0,63.4-28.4,63.4-63.4S188.9,150,154,150
		 M207.2,203.1c-3.9,15.7-14.7,28.5-28.6,35.6c1.1-7.7,4.5-15.4,8-23.4c5.1-11.5,10.6-24.2,8.2-37.5
		C201.1,184.9,205.4,193.5,207.2,203.1 M126.2,166.8c7.1-4.2,15.2-6.9,23.9-7.5v85.3c-4.3-0.3-8.5-1.1-12.5-2.4
		c-0.5-10.5-4.8-20.4-9-30C121.5,196.2,115.4,182.4,126.2,166.8 M137,250.2c4.2,1.2,8.6,1.9,13,2.1v15.1c-7.1-0.5-13.8-2.4-19.9-5.4
		C133.1,259.3,136.2,255.3,137,250.2 M157.9,252.4c4.5-0.3,8.8-1,13-2.1c0.9,5.1,4,9.1,6.9,11.8c-6.1,3-12.8,4.9-19.9,5.4V252.4z
		 M170.5,242.1c-4,1.3-8.2,2.1-12.6,2.5v-85.3c8.7,0.6,16.8,3.3,23.9,7.5c10.8,15.6,4.7,29.4-2.3,45.4
		C175.3,221.7,171,231.6,170.5,242.1 M113.1,177.8c-2.4,13.4,3.1,26,8.2,37.5c3.5,8,6.9,15.8,8,23.6c-14-7-24.6-19.8-28.6-35.8
		C102.6,193.5,107,184.8,113.1,177.8 M100.6,222.8c6.8,11.1,16.9,19.7,28.9,24.8c0,0.4-0.1,0.7-0.1,1.1c-0.6,4.1-4,7.3-6.3,9.2
		C111.5,249.8,103.2,237.3,100.6,222.8 M184.9,257.8c-2.3-1.8-5.7-5.1-6.3-9.2c-0.1-0.4-0.1-0.7-0.1-1.1c12-5,22-13.6,28.9-24.7
		C204.8,237.3,196.5,249.8,184.9,257.8"/>
	<path class="st3" d="M173.7,68.2c0,0-0.5,2.1-1.8,2.1s-9.2-3.8-13-5.9c-1.6-0.9-3.9-2.2-4.7-2.7c0,0-3.4,1.8-5,2.7
		c-3.8,2.1-11.7,5.9-13,5.9s-1.8-2.1-1.8-2.1s-20.2,13.6-24.5,48.1c-3.2,25.5,13.1,50.4,13.1,50.4l5.8-6.3h22.9h4.6l22.9,2.4l4.9,1
		c0,0,14-22.1,14-48C198,81.1,173.7,68.2,173.7,68.2"/>
	<path class="st0" d="M191.5,118.7c0-13.6-5.5-24.7-11.5-31.2c0,0-0.2,3.9-6.7-0.5c-5.6-3.8-12.2-6.1-19.3-6.1s-13.7,2.3-19.3,6.1
		c-6.3,4.3-6.6,0.4-6.6,0.4c-5.9,6.6-11.5,17.7-11.5,31.2c0,11.3,2.8,16.8,3.7,18.4c5.6,14.4,18.5,24.5,33.6,24.5
		c14.9,0,27.7-9.9,33.4-24C187.8,137.1,191.5,131.7,191.5,118.7"/>
	<path class="st3" d="M168.1,149.4c-0.1-0.1-0.1-0.2-0.1-0.2s-3.7-7,2.4-11.8c0,0,13.8,2.9,14.1-15.4c0,0-0.3-1.9,1.6-5.8
		c0,0-3.5-3.2-11.2,2.6c-7.7,5.8-11.9,22.1-16,18.3s-2.6-25.1-4.7-25.9h-0.1c-2.1,0.8-0.6,22.1-4.7,25.9
		c-4.2,3.8-8.4-12.5-16.1-18.3s-11.2-2.6-11.2-2.6c1.9,3.8,1.6,5.8,1.6,5.8c0.3,18.3,14.1,15.4,14.1,15.4c6.1,4.8,2.4,11.8,2.4,11.8
		c0,0.1-0.1,0.1-0.1,0.2c-16.5-17.7-26-15.3-21.3,4.5c4.6,19.4,22.4,103,25.3,122.3c-0.4,17.4-2.4,23.6-3,25l-1.8,3.6l2,4
		c3.1,4.5,5.3,9.7,6.1,11.6l6.8,17.2l6.7-17.2c0.8-2,3-7.1,6.1-11.7l2.1-3.8l-1.9-3.8c-0.5-1.3-2.5-7.3-2.9-24.1
		c2.4-17.4,20.6-103.4,25.3-123.2C194.2,134.1,184.6,131.7,168.1,149.4"/>
	<path class="st4" d="M142.9,236.4c-5.9-31.1-10.6-54.1-14.3-70.8c-2.9-12.7,4.8-7.6,8.9,0.3L142.9,236.4z"/>
	<path class="st4" d="M165.2,236.4c5.9-31.1,10.6-54.1,14.3-70.8c2.9-12.7-4.8-7.6-8.9,0.3L165.2,236.4z"/>
	<path class="st4" d="M133.6,131.2c-1.2-0.3-1.9-1.5-1.5-2.7c0.1-0.5,0.4-0.8,0.8-1.1c-0.8-0.9-1.7-1.8-2.8-2.5c0,0-1.9,9,6.1,8
		c0,0-0.3-0.8-0.9-1.9C134.8,131.2,134.2,131.3,133.6,131.2"/>
	<path class="st4" d="M178.1,124.9c-1.1,0.8-2,1.7-2.8,2.5c0.4,0.3,0.6,0.6,0.8,1.1c0.3,1.2-0.4,2.4-1.5,2.7
		c-0.6,0.2-1.2,0.1-1.7-0.2c-0.6,1.1-0.9,1.9-0.9,1.9C180,133.8,178.1,124.9,178.1,124.9"/>
	<path class="st4" d="M157.8,248c2.5-48,6.4-82,6.4-86.3c0-1.5-0.2-3.5-0.8-5.6l-2.8,9.1l-0.8-16.1c-1.4-1.8-3.3-3.6-5.7-5.4h-0.2
		c-2.4,1.7-4.1,3.6-5.5,5.4l-0.8,16.1l-2.8-9.1c-0.6,2.1-0.8,4.1-0.8,5.6c0,4.3,3.8,38.2,6.4,86.3c2.5,48-3.4,56.9-3.4,56.9
		c3.4,5,7.2,13.9,7.2,13.9s3.7-8.9,7.2-13.9C161.2,304.9,155.3,296,157.8,248"/>
</g>
</svg>
