<?xml version="1.0" encoding="utf-8"?>
<!-- Generator: Adobe Illustrator 21.1.0, SVG Export Plug-In . SVG Version: 6.00 Build 0)  -->
<!DOCTYPE svg PUBLIC "-//W3C//DTD SVG 1.1//EN" "http://www.w3.org/Graphics/SVG/1.1/DTD/svg11.dtd">
<svg version="1.1" id="Layer_1" xmlns="http://www.w3.org/2000/svg" xmlns:xlink="http://www.w3.org/1999/xlink" x="0px" y="0px"
	 width="128.4px" height="102.1px" viewBox="0 0 128.4 102.1" style="enable-background:new 0 0 128.4 102.1;" xml:space="preserve"
	>
<style type="text/css">
	.st0{fill:#FFFFFF;}
	.st1{fill:#BEC0C2;}
	.st2{fill:#004D7C;}
	.st3{fill:#F58427;}
</style>
<title>Untitled-2</title>
<path class="st0" d="M54.5,89.7C44.2,86,37.1,76.8,36.1,65.9l-2.8-3.6c-2.3,1.1-4.4,2.4-6.5,3.8l-2.1,1.4L7.3,49.9l6.2-13.5L0,19
	h21.3l3-6.6l8.4-3.4l1.6-4.4l6.7,3l1.1-3.9L44.8,3c6.2-2,12.6-3,19.1-3c0,0,0.1,0,0.2,0c0.4,0,1.5,0,1.9,0l0.2,0
	c0.2,0,1.4,0.1,1.4,0.1c5.4,0.2,10.8,1.2,15.9,2.8l2.7,0.9L87,6.6l0.2-0.2l16.6,5.9l3.1,6.7h21.5l-13.6,17.5l6,13.3l-17.8,18.3
	l-2.1-1.5c-1.1-0.8-3.9-2.7-6.3-4l-2.3,3c-0.9,11.1-8.4,20.7-18.9,24.3L64,102.1L54.5,89.7z"/>
<path class="st0" d="M64,97.2l-7.7-10C46.5,84,39.7,75.1,39,64.8l-4.8-6.2c-3.2,1.4-6.2,3.1-9.1,5.1L10.9,49.3l6-13.2L6.1,22h17.2
	l3.3-7.2l8.5-3.4L36,8.8l6.9,3.1l1.6-5.7l1.1-0.4C51.6,4,57.7,3,63.9,3c0.2,0,2.2,0,2.3,0c0.2,0,1.2,0.1,1.2,0.1
	c5.2,0.2,10.3,1.1,15.2,2.7l1.1,0.4l1.5,5.5l2.5-1.9l13.9,5L105,22h17.3l-10.9,14.1l5.9,13l-14.5,15c0,0-5.3-3.9-9-5.3l-4.4,5.7
	C88.8,75,81.8,84.2,71.6,87.3L64,97.2z"/>
<polygon class="st1" points="64,90.3 113.6,26.3 14.7,26.3 "/>
<path class="st2" d="M10.6,24.3L64,93.5l53.7-69.3L10.6,24.3z M113.6,26.3L64,90.3l-49.3-64L113.6,26.3z"/>
<path class="st2" d="M106.5,30.7L106.5,30.7L106.5,30.7l-3.2-2.2l1.2-2.3l0-0.1l0-0.1l-4.4-9.6l0-0.1l-0.1,0l-11.8-4.2l-0.1,0
	L88,12.3l-3.1,2.4l0,0l0,0L84.3,16c-4-0.9-8-1.6-12.1-1.9c-0.7-0.1-2.7-0.2-5.8-0.5l-0.3,0l-0.3,0l-0.1,0l-0.1,0.1l-2.3,2.3l0-2.4
	c0,0-6.6,0.4-10.9,1c-4.3,0.6-8.6,1.7-8.6,1.7l-0.8-1.7l0-0.1l-0.1,0l-5.6-2.5l-0.2-0.1L37.3,12l-0.6,1.8l-0.1-0.4l-0.1-0.1
	l-0.1,0.1l-8,3.2l-0.1,0l0,0.1L13.5,48.8l12.1,12.1l0.6-0.3c0.4-0.2,0.9-0.5,1.5-0.9c1.5-0.9,3.5-2,4.4-2.5l0.2-0.1
	c1.2-0.6,1.9-0.9,7.7-3.4l0.5-0.2c0,0,0.7-0.3,1.9-0.7c3.2-1.1,11.6-3.6,19.7-3.6H62c0.3,0,0.6,0,1,0c5.5,0.3,11,1.1,16.4,2.3
	c4.3,0.9,7.5,1.8,8.4,2.1l0.6,0.2c4.7,1.9,9.2,4.3,13.5,7l0.6,0.4l12.2-12.6L106.5,30.7z"/>
<path class="st3" d="M105.2,31.8L93.4,24l-2-5.7l3.6,1.3l1.5,3.6l5.5,1.8l-3.2-7.1l-10.4-3.7l-1.9,1.5l3.5,11.3l11.1,7.9l2.9,7.1
	l-4.6-2.1l-1.6-4.4L92,33.6l3,10c0.9,0.3,1.9,0.7,2.8,1.1c2.5,1,5,2.2,7.4,3.4c1.7,0.9,3.3,1.8,5,2.7l2.4-2.5L105.2,31.8z"/>
<path class="st3" d="M26.1,37.1l3.9-3.5l0.9,1.1l-3.9,11.1c2.1-0.9,4.3-1.8,6.4-2.6l2.8-9.1l-2.4-4l5-4.7l2.9-9.7l-3.6-1.6L35,23.2
	l-5.2,4.4l4.7-11.9l-5.1,2l-14,30.6l2.2,2.2c1.3-0.8,2.6-1.5,3.9-2.2L26.1,37.1z"/>
<path class="st3" d="M61.5,15.3l-4.3,0.2l-2,23c1.8-0.2,3.7-0.3,5.5-0.4L61.5,15.3z"/>
<path class="st3" d="M74.2,33.7l-5-0.3l-0.8-14.1l4.2,0.2l-0.5-3.9l-5.7-0.4l-2.5,2.5l0,17.6l2.7,2.7c2.7,0.1,5.5,0.3,8.1,0.6
	L74.2,33.7z"/>
<path class="st3" d="M46,24.4l1.8,8.7l-1.2,6.6c1.7-0.3,3.5-0.6,5.3-0.9l0,0l2.8-23l-4,0.6L49.4,24l-1.5-7.1L43.2,18l-6.5,24.2
	c1.9-0.6,3.8-1.1,5.7-1.6L46,24.4z"/>
<path class="st3" d="M80.5,32.5l1.4-1.9l2,1.7l1.9,8.6c2,0.5,3.9,1.1,5.8,1.7l-3.5-12.6l-3.6-3l2.1-2.7l-1.7-6.4l-4.4-1l1.7,6.4
	l-2.7,3.6l-2-10.6l-4-0.5c0,0,2,15.5,3,23.1c1.8,0.3,3.6,0.6,5.4,0.9L80.5,32.5z"/>
<path class="st1" d="M55.8,42.9c1.6-0.8,3.3-1.2,5.1-1.4l-0.1-2.7c-1.8,0.1-3.7,0.2-5.5,0.3C55.4,40.2,55.6,41.8,55.8,42.9"/>
<path class="st1" d="M66.5,41.3c1.4,0.2,2.8,0.5,4.1,1c1.2,0.3,2.3,0.7,3.4,1.2l0.6-4.1c-2.7-0.3-5.3-0.5-8-0.6
	C66.6,39.6,66.6,40.8,66.5,41.3"/>
<path class="st1" d="M48.8,47.8c1.6-1.2,2.5-2.4,4.2-3.4c-0.3-1.5-0.7-3.4-1-4.9c-1.8,0.2-3.6,0.5-5.3,0.9
	C47.2,42.6,48.1,45.6,48.8,47.8"/>
<path class="st1" d="M75.4,44.4c1.5,0.9,2.9,2,4.1,3.2l0.3,0.2l2.2-7.1c-1.9-0.4-3.7-0.7-5.6-1L75.4,44.4z"/>
<path class="st1" d="M82.2,50.6l5.1,1.2l4.3-8.5c-2-0.7-3.9-1.2-6-1.7L82.2,50.6z"/>
<path class="st1" d="M40.9,51.8c1.3-0.5,3.2-1.2,5-1.6l-3.3-8.8c-2,0.5-3.8,1-5.7,1.6C38.1,45.9,39.4,48.9,40.9,51.8"/>
<path class="st1" d="M33.2,54.9c0.3-0.3,3.2-1.5,5.2-2.4c-1.5-2.7-3.3-5.8-4.9-8.6c-2.2,0.8-4.2,1.6-6.3,2.5L33.2,54.9z"/>
<path class="st1" d="M25.9,58.8c0.9-0.6,1.9-1.1,3-1.8l-6.8-8c-1.3,0.7-2.6,1.4-3.8,2.1L25.9,58.8z"/>
<path class="st1" d="M90.1,52.8c4.2,1.8,8.2,3.9,12.1,6.3c1-1,6.7-7,7.5-7.8c-4.7-2.8-9.7-5.1-14.9-7L90.1,52.8z"/>
<polygon class="st1" points="65.7,41.2 63.8,41.1 63.7,36.4 65.8,38.5 "/>
<path class="st2" d="M64.2,40.3c-12.7,0-23,10.3-23,23s10.3,23,23,23c12.7,0,23-10.3,23-23C87.2,50.6,76.9,40.3,64.2,40.3"/>
<path class="st3" d="M65.6,42c-1.8,0.6-3.5,1.5-5.1,2.3c-1.1-0.7-1.8-0.9-2.6-1.4C60.4,42.1,63,41.8,65.6,42"/>
<path class="st3" d="M82.1,51.7c-5.4-5.5-13.5-5.1-20.4-7c2-1,4-1.8,6.1-2.5C73.7,43.3,78.9,46.7,82.1,51.7"/>
<path class="st3" d="M51.6,52.6c-5.2,7.9-5.9,17.9-1.8,26.4c-5.4-4.5-8.5-13.2-6.1-21.7C45.7,54.6,48.2,52.2,51.6,52.6"/>
<path class="st3" d="M57.2,58.2c2.8,8.3,3.4,17.6,10.7,26c-5.7,1.1-11.3-0.5-15.7-3.4c-5.5-8.1-5-20.1,0.5-28
	C55.4,53.6,56.8,57.2,57.2,58.2"/>
<path class="st3" d="M53.3,52c0.9-1.2,1.8-2.3,2.9-3.4c11.8,3.3,23,15.5,24.9,27.5c-0.8,1.1-1.8,2.1-2.8,3.1c-2.6,2.3-5.8,4-9.2,4.7
	c-5.5-5.7-7.3-13.1-9.2-20.4C58.3,57.9,57.3,53.7,53.3,52L53.3,52z"/>
<path class="st3" d="M80.8,51.9c-5.7-5-13.6-4.4-20.3-6.7c-1.3,0.8-2.5,1.7-3.6,2.7C68.7,51.6,79.4,63.1,82,75c1.8-2.7,3-5.8,3.4-9
	C85.7,60.9,85.6,56.3,80.8,51.9"/>
<path class="st3" d="M55.2,48.2c-1.1,1-2,2.2-2.9,3.4l0,0c-3.1-0.7-5.6,0.9-7.6,2.9c1.1-2.7,2.9-5.1,5-7
	C51.6,47.5,53.4,47.7,55.2,48.2"/>
<path class="st3" d="M56,47.5c1.1-1,2.3-1.9,3.5-2.7l-3-1.5c-2,0.8-4,1.9-5.6,3.2C52.7,46.8,54.4,47.1,56,47.5"/>
<path class="st2" d="M61,12.1L60,13l-1.6,0.1l-0.6-0.5l-0.7,0.6l-1.7,0.2l-0.8-0.7l1-6.8l1.3-0.2l-0.7,6l0.9-0.1l0.7-6l1.3-0.1
	l-0.5,6l0.9-0.1L60,5.4c0.6-0.1,0.8-0.1,1.3-0.1L61,12.1z"/>
<path class="st2" d="M65.2,5.2l0,4.3l0.8,0L66,5.2c0,0,0.9,0,1.3,0.1l0.2,4.8l-0.8,0.8l-0.3,0l0,2.1l-1.4,0l0-2.1l-0.3,0L63.8,10
	l0.1-4.8C64.3,5.2,65.2,5.2,65.2,5.2"/>
<path class="st2" d="M54.6,6l-0.2,1.4l-1.6,0.3l-0.3,1.6c0.6-0.1,0.9-0.2,1.6-0.3c-0.1,0.6-0.1,0.8-0.2,1.4l-1.6,0.2L52,12.3
	l1.6-0.2c0,0-0.2,1.1-0.2,1.5c-1.1,0.1-2.3,0.3-3.4,0.5c0,0,1.2-5.7,1.5-7.5L54.6,6z"/>
<path class="st2" d="M48.7,14.3L47,14.7l0.8-3.1l-0.5-1.1l-1.3,4.5l-1.6,0.4c0.7-2.4,1.4-4.8,2-7.3c0.6-0.2,1-0.3,1.5-0.5
	C48,8,48.4,8.8,48.4,8.8l0.4-1.5c0,0,1-0.3,1.5-0.4L48.7,14.3z"/>
<path class="st2" d="M71.9,6.5c0.2,1.9,0.5,3.8,0.7,5.6l-0.7,1.1l-2.3-0.2l-0.8-0.9c-0.2-2-0.3-4-0.4-6c0.2-0.3,0.5-0.5,0.8-0.8
	l1.9,0.2L71.9,6.5z M69.7,6.9l0.4,4.6l0.8,0.1L70.5,7L69.7,6.9z"/>
<path class="st2" d="M79.5,7.2c0.3,1.1,0.9,3.4,0.9,3.4l0.6,0.1l0.3-0.4l-0.7-2.9c0,0,0.7,0.2,1.4,0.4l0.7,2.8l-0.3,0.5l0.6,0.7
	l1,3.4l-1.6-0.4l-0.6-2.4l-1-0.2l0.5,2.4l-1.6-0.3C79,11.8,78,6.9,78,6.9S78.8,7,79.5,7.2"/>
<path class="st2" d="M77,7.5l0.5,2.8l-0.3,0.4l0.5,0.7l0.5,2.8l-1.6-0.3l-0.4-2.3l-0.9-0.1l0.3,2.2l-1.6-0.2l-1-7.6l3,0.5L77,7.5z
	 M74.7,7.6L75,9.5l0.9,0.1l-0.4-1.9L74.7,7.6z"/>
</svg>
