<?xml version="1.0" encoding="utf-8"?>
<!-- Generator: Adobe Illustrator 21.1.0, SVG Export Plug-In . SVG Version: 6.00 Build 0)  -->
<!DOCTYPE svg PUBLIC "-//W3C//DTD SVG 1.1//EN" "http://www.w3.org/Graphics/SVG/1.1/DTD/svg11.dtd">
<svg version="1.1" id="Layer_1" xmlns="http://www.w3.org/2000/svg" xmlns:xlink="http://www.w3.org/1999/xlink" x="0px" y="0px"
	 width="250px" height="149.3px" viewBox="0 0 250 149.3" style="enable-background:new 0 0 250 149.3;" xml:space="preserve">
<style type="text/css">
	.st0{fill:#FFFFFF;}
	.st1{fill:#0A7EC2;}
	.st2{fill:#F05333;}
	.st3{fill:#FCBB30;}
	.st4{fill:#1E3160;}
</style>
<g>
	<path class="st0" d="M18.7,149.3c-2.1,0-4-0.8-5.3-2.5c-0.6-0.8-3.4-5.2,2.3-10.3c8.3-7.3,17-14.2,26-20.8
		c-0.7-0.9-1.2-1.9-1.5-2.7c-2.1-5.4,0.4-11.2,2.2-15.4l0.4-0.8c1.3-2.8,2.6-5.9,4.1-9.1c-12.6,4.1-24.5,8.2-36,12.4
		c-4.4,1.8-8.6,0.7-10.3-2.7c-1.3-2.6-1-6.7,4.1-9.7c14.5-9.3,30.3-17.7,47-25c-3.6-8.3-6.6-17.2-9-26.4l-3.1-12.3l3.5-1.8
		C68.7,8.8,92.5,0,125.4,0c32.7,0,56.5,8.8,82.1,22l3.5,1.8l-0.9,3.5c11-0.2,21.9,0.1,32.7,1c3.9,0.3,6.8,3.1,6.9,6.8
		c0,2.6-1.3,4.9-3.6,6.1c2.2,1,3.5,3.1,3.8,5c0.5,3.6-1.9,7-5.8,8c-15.9,4.9-32.6,10.5-49.4,16.5c-14.2,28.5-34.9,49.9-66.8,69.1
		l-2.6,1.6l-2.6-1.6c-13.1-7.9-24.2-16.2-33.9-25.2c-23.1,10.9-44.9,22-64.9,33.1C22.2,148.8,20.4,149.3,18.7,149.3z M90.8,102.6
		l2.5,2.4c9.2,8.9,19.4,16.8,32,24.6c29.4-18.1,48.3-38.3,61.3-65.1l0.9-1.8l1.9-0.7c7-2.5,13.9-4.9,20.8-7.3
		c-3.9,0.7-7.8,1.4-11.8,2.3l-8.9,1.9l3.1-8.5c1-2.6,1.9-5.3,2.7-7.9l0.9-2.8l2.9-0.6c3.2-0.6,6.5-1.2,9.9-1.7
		c-1.8,0-3.6,0.1-5.4,0.2l-7,0.3l2-6.7c0.2-0.7,0.4-1.3,0.6-2c-31.6-15.8-52.5-19.1-74-19.1C96,10,74.2,17.6,51.3,29.1l1.1,4.7
		C55.1,44.2,58.6,54,62.9,63l2.3,4.7l-4.8,2C52.9,73,45.6,76.4,38.4,80c5.3-1.8,10.7-3.5,16.3-5.3l11-3.5l-5,10.5
		c-3.3,7-6.3,13.7-8.8,19.3l-0.3,0.8c-0.9,2.2-2.7,6.2-2.1,7.7c0.1,0.3,0.5,0.6,0.9,0.8c0.3,0.1,0.7,0.1,1.2,0.2l13,1.6l-10.8,7.5
		c-1.9,1.3-3.9,2.7-5.8,4.1c12.7-6.5,25.9-13,39.6-19.4L90.8,102.6z M242,38.3C242,38.3,242.1,38.3,242,38.3
		C242.1,38.3,242,38.3,242,38.3z"/>
	<path class="st0" d="M51,115.3c-0.8-0.1-1.5-0.2-2.2-0.4c-7.5-3.2-3.6-11-1.4-16.1c2.9-6.5,5.8-12.9,8.9-19.4
		c-16.2,5.2-31.9,10.5-47.2,16C5.3,97,3,94.5,7.4,91.9C22.9,82,40,73,58.4,65.2c-4.5-9.4-8.1-19.5-10.8-30.2l-2.1-8.5
		C72.3,12.6,94.9,5,125.4,5c30.4,0,53,7.6,79.8,21.4c-0.5,2-1,4.1-1.6,6.1c13.3-0.5,26.3-0.2,38.8,0.8c3,0.2,3,3.6,0.1,3.9
		c-13.9,2-28,4.2-42.3,6.8c-0.9,2.7-1.8,5.4-2.8,8.1c15.3-3.2,30.2-5.4,44.7-6.6c3.7-0.3,3.8,3.2,0.7,3.9
		c-16.9,5.2-34.2,11-51.7,17.3c-14.9,30.8-36.7,51.3-65.8,68.8c-12.9-7.8-24.7-16.4-35.5-26.9c-23.9,11.2-46.8,22.8-68.4,34.8
		c-3.3,2.1-6.2,0.3-2.3-3.2C28.9,131.6,39.6,123.2,51,115.3"/>
	<path class="st1" d="M20.5,141.7c13.7-12.2,29.2-23.7,46.2-34.3c3.2-1.6,6.4-3.2,9.6-4.8c1.3-0.7,3.9-1.9,7.2-3.5
		c2.2,2.5,4.5,4.8,6.8,7.2C65.9,117.6,42.5,129.5,20.5,141.7 M194.2,54.9c16.4-3.6,32.5-6.1,48.1-7.3c-17.2,5.3-34.8,11.1-52.5,17.6
		C191.3,61.8,192.8,58.4,194.2,54.9"/>
	<path class="st2" d="M8.5,93.6c16-10.1,33.6-19.4,52.7-27.4c0.6,1.3,1.3,2.5,2,3.8c-1,2.1-2,4.2-3.1,6.3
		C42.3,81.7,25.1,87.5,8.5,93.6 M201,34.6c14.2-0.6,28-0.4,41.3,0.7c-14.3,2-28.8,4.4-43.6,7.1C199.5,39.8,200.2,37.2,201,34.6"/>
	<path class="st0" d="M125.4,11.9c26.9,0,48,6.3,71.8,18.2c-11.6,43.9-33,73.4-71.8,97.3c-14.6-9-27-19.1-37.3-30.5
		c4.6-2.2,9.8-4.7,14.4-6.8c1.8,0.2,3.6,0.3,5.3,0.3c-0.1,2.5-0.9,4.4-2.2,5.7c0.7,0.9,1.5,1.7,2.3,2.5c2-1.8,3.3-4.5,3.4-8.2
		c4.7-0.1,9.3-0.6,13.5-1.5c-0.2,6.9-1.2,12-3.2,14c-0.1,0.1-0.1,0.1-0.1,0.2c-0.5,0.5-0.9,1-1.3,1.3c1.9-0.4,3.8-0.8,5.6-1.3
		c2.4-4.9,2.4-13.5,2.4-15c4.4-1.1,8.3-2.2,11.9-3.4c0.1,4,1.8,7.9,4.8,9.3c1.4-1,2.7-2,4-3.1c-0.8,0.1-5.7,0.5-5.6-7.4
		c10.3-3.9,17.1-8.6,23-15.6c1.6-3.5,2.8-7.2,3.7-11.1c-7.1,11.2-13.6,17.7-26.3,22.8c0.4-2.2,1-4.9,2.1-8.2
		c3.7-1.6,7.6-3.4,9.9-4.4l5.6-5.8c1.4-5.4,2.8-10.8,4.2-16.2l-4.4,1.4l5.1-5.4c1.1-4.2,2.1-8.5,3.2-12.7c-2.6,0.4-5.1,0.8-7.7,1.2
		c0.4-2.1,0.7-4.2,0.9-6.3c-1.2-0.3-2.5-0.6-3.7-0.9c-0.3,2.4-0.7,5-1.4,7.9l-0.4,0.1c-2.4,0.4-4.9,1.2-7,3l0.7-2.1
		c-4.1,0.7-8.2,1.5-12.4,2.3l-4.1,4.3l0.1-0.3l1.3-3.4c-4.1,0.8-8.1,1.7-12.2,2.6C122.6,31,121.8,26,121,22
		c-1.1,0.1-2.3,0.3-3.4,0.5c0.7,4.1,1.6,9.1,2.5,14.8l-2.9,0.6l-3.7,3.9c-2.6-2.7-7.8-1-11-0.2c-3.6,0.9-7.1,1.8-10.6,2.8
		c-1.1,0.3-2.1,0.6-3.1,1c-2.7-3.8-5.2-7.8-7.2-12l-0.4-0.8C80.1,33,79.1,33.5,78,34l0.5,0.9c2,4.2,4.4,8,7,11.8
		c-3.9,1.6-7.5,4-10.5,7.3c0,0-5,5.2-5.6,5.8c-1.3,1.5-2.4,3.1-3.4,4.7C60.8,54,56.6,42.5,53.5,30C77.4,18.2,98.5,11.9,125.4,11.9
		 M128,78.4c2.5-1.1,4.9-2.2,7.4-3.2l1.2-1.2c0.5,0.1,1,0.1,1.7,0c1-0.2,2.1-0.5,3.4-0.9c-0.8,3-1.3,5.7-1.6,7.9
		c-3.5,1.2-7.5,2.4-12,3.6C128.1,82.5,128.1,80.5,128,78.4 M110.9,86.1l2.3-1.1l6-4.8l1.3-3.7c0.9,1.7,1.3,2.4,2.2,4.2l2-0.9
		c0.1,1.9,0.1,3.7,0.1,5.5c-4.3,1-8.9,1.5-13.7,1.6L110.9,86.1z"/>
	<path class="st2" d="M139.8,20.9c5.7,0,11.3,0.3,16.8,0.9c4.2,0.9,8.4,1.9,12.5,3.2c1.6,5.5,2.4,11.3,2.4,17.4
		c0,5-0.6,9.8-1.7,14.5c-7.1,11.2-13.6,17.7-26.3,22.8c0.4-2.2,1-4.9,2.1-8.2c3.7-1.6,7.6-3.4,9.9-4.4l5.6-5.8
		c1.4-5.4,2.8-10.8,4.2-16.2l-4.4,1.4l5.1-5.4c1.1-4.2,2.1-8.5,3.2-12.7c-2.6,0.4-5.1,0.8-7.7,1.2c0.4-2.1,0.7-4.2,0.9-6.3
		c-1.2-0.3-2.5-0.6-3.7-0.9c-0.3,2.4-0.7,5-1.4,7.9l-0.4,0.1c-2.4,0.4-4.9,1.2-7,3l0.7-2.1c-4.1,0.7-8.2,1.5-12.4,2.3l-4.1,4.3
		l0.1-0.3l1.3-3.4c-4.1,0.8-8.1,1.7-12.2,2.6C122.6,31,121.8,26,121,22C127.2,21.3,133.5,20.9,139.8,20.9 M166.2,67.9
		c-4,9-10,16.8-17.4,23c-0.8,0.1-5.7,0.5-5.6-7.4C153.6,79.6,160.3,74.9,166.2,67.9 M144.8,94c-5.8,4.1-12.2,7.2-19.1,9.1
		c2.4-4.9,2.4-13.5,2.4-15c4.4-1.1,8.3-2.2,11.9-3.4C140.1,88.7,141.7,92.6,144.8,94 M120,104.4c-1.9,0.4-3.9,0.6-5.9,0.8
		c-2.2-2.1-4.3-4.4-6.4-6.6c2-1.8,3.3-4.5,3.4-8.2c4.7-0.1,9.3-0.6,13.5-1.5c-0.2,6.9-1.2,12-3.2,14c-0.1,0.1-0.1,0.1-0.1,0.2
		C120.9,103.6,120.4,104.1,120,104.4 M105.5,96.1c-1.5-1.8-3-3.5-4.5-5.4l1.4-0.6c1.8,0.2,3.6,0.3,5.3,0.3
		C107.6,92.9,106.8,94.7,105.5,96.1 M78.2,51c-1.9-4.9-3.6-9.9-5.1-15c1.6-0.8,3.2-1.5,4.8-2.2l0.5,0.9c2,4.2,4.4,8,7,11.8
		C82.8,47.7,80.4,49.2,78.2,51 M81.1,32.5c11.9-4.9,24-8.2,36.5-10c0.7,4.1,1.6,9.1,2.5,14.8l-2.9,0.6l-3.7,3.9
		c-2.6-2.7-7.8-1-11-0.2c-3.6,0.9-7.1,1.8-10.6,2.8c-1.1,0.3-2.1,0.6-3.1,1c-2.7-3.8-5.2-7.8-7.2-12L81.1,32.5z M128,78.4
		c2.5-1.1,4.9-2.2,7.4-3.2l1.2-1.2c0.5,0.1,1,0.1,1.7,0c1-0.2,2.1-0.5,3.4-0.9c-0.8,3-1.3,5.7-1.6,7.9c-3.5,1.2-7.5,2.4-12,3.6
		C128.1,82.5,128.1,80.5,128,78.4 M110.9,86.1l2.3-1.1l6-4.8l1.3-3.7c0.9,1.7,1.3,2.4,2.2,4.2l2-0.9c0.1,1.9,0.1,3.7,0.1,5.5
		c-4.3,1-8.9,1.5-13.7,1.6L110.9,86.1z"/>
	<path class="st3" d="M126.5,120.1c-11.4-7.7-21.6-16.8-30.4-27.1l4.9-2.3c1.4,1.8,2.9,3.6,4.5,5.4c0.7,0.9,1.5,1.7,2.3,2.5
		c6.5,7.2,13.7,13.7,21.6,19.6C128.4,118.8,127.5,119.5,126.5,120.1 M72.7,56.4c-3.3-7.3-6.2-14.9-8.4-22.8
		c19.9-9.4,40.5-14.5,62.4-15.1c10.2,0.1,20.2,1.2,29.9,3.2c-5.5-0.6-11.1-0.9-16.8-0.9c-6.4,0-12.6,0.4-18.8,1.1
		c-1.2,0.1-2.3,0.3-3.4,0.5c-12.5,1.8-24.6,5.1-36.5,10c-1.1,0.4-2.1,0.9-3.2,1.4c-1.6,0.7-3.2,1.4-4.8,2.2c1.5,5.1,3.2,10.1,5.1,15
		C77,51.9,76,52.9,75,54L72.7,56.4z"/>
	<path class="st4" d="M47.8,27.5C73.6,14.2,96.2,7,125.4,7s51.8,7.2,77.5,20.5c-12,48.2-34.8,80.1-77.5,105.7
		c-16.1-9.7-30.2-21-41.9-34.1c-3.3,1.6-5.8,2.8-7.2,3.5c-4,2-8.1,4-12.1,6.1c-4.5,2.3-9.6,5.8-14.8,4.4c-5.7-2.5-1.9-9.4-0.2-13.4
		c4.4-10,9.1-19.9,13.9-29.7c-5.8-10.9-10.4-22.7-13.5-35.5L47.8,27.5z M125.4,11.9c-26.9,0-48,6.3-71.8,18.2
		c3.1,12.5,7.2,24,12.5,34.5c1-1.6,2.1-3.2,3.4-4.7C70,59.2,75,54,75,54c3.1-3.4,6.6-5.7,10.4-7.4c-2.6-3.8-5-7.7-7-11.8l-0.5-0.9
		c1.1-0.5,2.1-0.9,3.2-1.4l0.4,0.8c2.1,4.3,4.6,8.2,7.2,12c1-0.4,2.1-0.7,3.1-1c3.5-1,7.1-1.9,10.6-2.8c3.3-0.8,8.5-2.5,11,0.2
		l3.7-3.9l2.9-0.6c-0.9-5.6-1.7-10.7-2.5-14.8c1.1-0.2,2.3-0.3,3.4-0.5c0.7,4,1.6,9,2.4,14.5c4.1-0.9,8.1-1.7,12.2-2.6l-1.3,3.4
		l-0.1,0.3l4.1-4.3c4.1-0.8,8.2-1.6,12.4-2.3l-0.7,2.1c2.1-1.8,4.6-2.6,7-3l0.4-0.1c0.7-2.9,1.2-5.5,1.4-7.9
		c1.2,0.3,2.5,0.6,3.7,0.9c-0.2,2.1-0.5,4.2-0.9,6.3c2.6-0.4,5.1-0.8,7.7-1.2c-1.1,4.2-2.1,8.5-3.2,12.7l-5.1,5.4l4.4-1.4
		c-1.4,5.4-2.8,10.8-4.2,16.2l-5.6,5.8c-2.3,1-6.2,2.8-9.9,4.4c-1,3.2-1.7,5.9-2.1,8.2c12.7-5.1,19.3-11.6,26.3-22.8
		c-0.9,3.8-2.2,7.5-3.7,11.1c-5.9,7-12.6,11.7-23,15.6c-0.1,7.9,4.8,7.5,5.6,7.4c-1.3,1.1-2.7,2.1-4,3.1c-3.1-1.4-4.7-5.3-4.8-9.3
		c-3.5,1.2-7.4,2.3-11.9,3.4c0,1.5-0.1,10.1-2.4,15c-1.8,0.5-3.7,1-5.6,1.3c0.4-0.3,0.8-0.8,1.3-1.3c0-0.1,0.1-0.1,0.1-0.2
		c2-2,2.9-7.1,3.2-14c-4.2,0.9-8.8,1.4-13.5,1.5c-0.1,3.8-1.4,6.4-3.4,8.2c-0.8-0.8-1.5-1.7-2.3-2.5c1.3-1.3,2.1-3.2,2.2-5.7
		c-1.6,0-3.4-0.1-5.3-0.3c-4.6,2.2-9.8,4.6-14.4,6.8c10.4,11.5,22.8,21.5,37.3,30.5c38.8-24,60.1-53.4,71.8-97.3
		C173.3,18.2,152.2,11.9,125.4,11.9 M128,78.4c0.1,2.1,0.1,4.2,0.1,6.1c4.5-1.1,8.4-2.3,12-3.6c0.2-2.3,0.7-4.9,1.6-7.9
		c-1.3,0.4-2.5,0.8-3.4,0.9c-0.6,0.1-1.2,0-1.7,0l-1.2,1.2C132.9,76.2,130.5,77.3,128,78.4 M110.9,86.1L111,87
		c4.8-0.1,9.4-0.6,13.7-1.6c0-1.8,0-3.6-0.1-5.5l-2,0.9c-0.9-1.8-1.3-2.4-2.2-4.2l-1.3,3.7l-6,4.8L110.9,86.1z"/>
	<path class="st0" d="M92.3,46.4c-6.1,1.6-11.5,4.2-15.8,9c-2.5,2.8-4.3,6.1-5.9,9.4c-4.8,9.8-9.5,19.8-13.9,29.8
		c-1.2,2.6-4.7,9-0.9,10.6c4.2,1.1,9.4-2.4,13.1-4.3c4-2,8.1-4.1,12.1-6.1c6.9-3.4,13.1-7.6,17.2-14.2c1.7-2.8,2.9-5.8,4.1-8.8
		c2.6-6.5,5.3-12.9,8-19.4c1-2.4,2.8-5.5,2.2-8.1c-1.2-3.5-7.1-1.4-9.7-0.7C99.4,44.5,95.8,45.4,92.3,46.4 M84.6,83.3
		c-3.2,1.4-6.4,2.9-9.6,4.3c4.6-10.7,9.4-21.4,14.4-32c2.8-0.9,5.6-1.8,8.4-2.6C93.4,63.1,88.9,73.2,84.6,83.3 M139.4,35.3
		c-4.4,5.8-8.8,11.6-13.1,17.5c2-5.4,4.1-10.8,6.1-16.1c-4.6,0.9-9.2,1.9-13.8,3c-1.2,2.8-2.4,5.5-3.5,8.3c1-0.3,2-0.6,3-0.8
		c-3.6,8.7-7.1,17.5-10.6,26.2c-1.4,3.6-2.8,7.1-4.2,10.7c4.6-2.2,9.2-4.3,13.8-6.4c2.1-5.8,4.2-11.5,6.3-17.3
		c2,3.9,3.9,7.8,5.8,11.8c3-1.3,5.9-2.6,8.9-3.9c-1.8-4.1-3.7-8.3-5.5-12.4c3.3-5,6.6-10,10-15c0.9-0.2,1.9-0.4,2.8-0.7
		c0.7-2.2,1.4-4.3,2.1-6.5C144.9,34.2,142.2,34.7,139.4,35.3 M157.2,32.2c-2.5,0.4-4.7,1.2-6.5,3.1c-1.5,1.6-2.3,3.6-3,5.6
		c-2,6.2-3.9,12.4-5.9,18.5c-0.8,2.4-2,6.9,1.9,6.6c1.3-0.2,2.6-0.8,3.8-1.3c4-1.7,7.9-3.4,11.9-5c1-3.9,2-7.8,3-11.7
		c-2.1,0.7-4.2,1.3-6.3,2c-0.5,1.7-1,3.5-1.5,5.2c-1.5,0.5-2.9,1.1-4.4,1.6c1.8-6.3,3.7-12.5,5.5-18.8c1.3-0.3,2.6-0.6,3.9-0.8
		c-0.3,1.1-0.6,2.2-0.9,3.3c1.9-0.4,3.8-0.9,5.6-1.3c0.7-2.8,1.4-5.7,2.1-8.5C163.4,31.2,160.3,31.7,157.2,32.2"/>
	<path class="st1" d="M173.9,26.5c1.9,0.6,3.6,1.2,5.4,1.9c4.4,1.6,8.3,3.3,11.6,4.9c-10,34.2-30.4,62.9-59.2,83.3l-2.3,1.6
		c-8.4-6.3-13.4-11.3-13.4-11.3l4-0.7c12-2,23.7-7.5,33.3-16.4c16.4-15.3,23-37.1,19.6-57.6c-0.1-0.5-0.2-0.9-0.3-1.4v-0.2v-0.2
		l-0.1-0.2V30v-0.2v-0.2l-0.1-0.2l-0.1-0.2V29v-0.2l-0.1-0.3l-0.1-0.2l-0.1-0.2v-0.2v-0.2c-0.2-0.7-0.3-1.4-0.5-2
		C172.2,25.9,173.1,26.2,173.9,26.5 M174.2,26.9c1.8,0.6,3.6,1.2,5.3,1.9C177.8,28.1,176,27.5,174.2,26.9"/>
</g>
</svg>
