<?xml version="1.0" encoding="utf-8"?>
<!-- Generator: Adobe Illustrator 21.1.0, SVG Export Plug-In . SVG Version: 6.00 Build 0)  -->
<!DOCTYPE svg PUBLIC "-//W3C//DTD SVG 1.1//EN" "http://www.w3.org/Graphics/SVG/1.1/DTD/svg11.dtd">
<svg version="1.1" id="Layer_1" xmlns="http://www.w3.org/2000/svg" xmlns:xlink="http://www.w3.org/1999/xlink" x="0px" y="0px"
	 width="2262px" height="1206.2px" viewBox="0 0 2262 1206.2" style="enable-background:new 0 0 2262 1206.2;" xml:space="preserve"
	>
<style type="text/css">
	.st0{fill:none;stroke:#FFFFFF;stroke-width:1.074;stroke-miterlimit:2.613;}
	.st1{fill:#BDC8D0;}
	.st2{fill:#1F2528;}
	.st3{fill:#FFFFFF;}
	.st4{fill:#3383C4;}
</style>
<path class="st0" d="M1019,155.7l49.6-29.8l48,34.6l-13.9-58.1l46.5-34.5l-57.3-4.7l-18.6-55l-21.7,55h-58.9l44.9,37.7L1019,155.7
	 M383.7,402.2l27.9-14.1l23.2,22l-3.1-31.4L458,363l-29.4-4.7l-6.2-31.4l-15.5,26.7l-31-3.1l21.7,23.5L383.7,402.2 M1872.8,191.8
	c-18.6-6.3-37.2-12.6-57.3-18.8c26.3-14.1,55.8-31.4,55.8-31.4s-94.5-20.4-111.6-25.1c-4.7-17.4-27.9-116.3-27.9-116.3L1707,52
	c0,0-17,33-24.8,50.2c-18.6-3.1-116.2-17.3-116.2-17.3s20.1,20.4,40.3,42.4c-9.3-1.6-18.6-1.6-26.3-3.1
	c-254.1-15.7-560.9,31.4-832.1,153.9l10.8-55C447.2,348.8,190,634.5,89.3,959.5c164.2-174.3,326.9-342.3,584.2-441.2l-46.5,146
	c199.9-136.6,481.9-169.6,712.8-117.8l-12.4,39.2c-145.7-45.5-303.7-37.7-460.2,3.1c159.6,39.3,294.4,67.5,433.9,141.3
	c15.5,246.5,237.1,461.6,492.7,433.3C2300.5,1108.7,2395,358.2,1872.8,191.8"/>
<path class="st1" d="M1748.6,1206.2c-63,0-124.7-13.1-183.5-38.9c-55.8-24.5-106.8-59.4-151.4-103.7c-44-43.7-79.6-94.3-105.8-150.4
	c-23.7-50.6-38.6-103.4-44.6-157.4c-114.4-57.2-227.6-84.7-357.5-116.3c-15.7-3.8-31.9-7.7-48.2-11.8l-47-11.6
	c-59.2,21.3-113.2,48.5-161.1,81.2l-95.9,65.6l55.2-173.2c-82.3,39.3-160.4,89.5-236.9,151.9C283,814.2,204.5,895.6,118.4,987
	L0,1112.6l51.1-164.9c51.3-165.5,142.6-323.9,264.2-458c122.3-134.9,270.5-239.9,428.4-303.6l68.4-27.6L801.7,212
	c97.4-38.8,200.6-69.5,307.8-91.6c125.5-25.9,251.3-39,374.2-39c33.4,0,66.7,1,98.8,3c101.4,6.3,205.4,37.1,302.8,69.4
	c131.3,41.9,235.4,122,301.1,231.8c30,50.1,51.5,105.4,63.7,164.2c11.8,56.7,14.8,115.1,8.9,173.7
	c-11.9,118.5-60.1,230.4-135.7,315.2c-83.7,93.8-196.1,150.8-325.1,164.9C1781.8,1205.3,1765.1,1206.2,1748.6,1206.2z"/>
<path class="st1" d="M867.1,589c156.5-40.8,314.6-48.7,460.2-3.1l12.4-39.2c-230.9-51.8-512.9-18.8-712.8,117.8l46.5-146
	c-257.2,98.8-419.9,266.8-584.1,441c100.7-325,357.9-610.7,669.4-736.3l-10.8,55c271.2-122.5,578-169.6,832.1-153.9
	c100.7,6.3,207.6,39.2,292.9,67.5c522.2,166.4,427.7,916.9-79,971.9c-255.7,28.2-477.2-186.8-492.7-433.3
	C1161.6,656.5,1026.8,628.3,867.1,589L867.1,589z"/>
<path class="st1" d="M1019,155.7l49.6-29.8l48,34.6l-13.9-58.1l46.5-34.5l-57.4-4.9l-18.6-55l-21.7,55h-58.9l44.9,37.7L1019,155.7
	L1019,155.7z M383.7,402.2l27.9-14.1l23.2,22l-3.1-31.4L458,363l-29.4-4.7l-6.2-31.4l-15.5,26.7l-31-3.1l21.7,23.6L383.7,402.2
	L383.7,402.2z"/>
<path class="st2" d="M1787.6,190.2c26.3-15.7,83.7-48.7,83.7-48.7s-94.5-20.4-111.6-25.1c-4.7-17.2-27.9-116.2-27.9-116.2L1707,52
	c0,0-17,33-24.8,50.2c-18.6-3.1-116.2-17.3-116.2-17.3s44.9,48.7,69.7,75.4c-124-15.7-272.7-12.6-449.4,15.7
	c-164.2,26.7-325.4,73.8-475.7,147.6l12.4-56.5C487.5,369.2,242.7,628.3,148.2,868.5C300,691.1,513.9,541.9,713.8,476l-40.3,128.7
	c182.8-113,495.8-130.3,700.4-76.9l-31,91.1c-111.6-39.3-278.9-53.4-393.6-29.8c131.7,23.6,269.6,51.8,384.3,128.8
	c6.2,238.6,229.3,439.6,464.9,412.9C2227.6,1083.6,2398.1,366.1,1787.6,190.2L1787.6,190.2z"/>
<path class="st1" d="M1872.8,502.6c34.1-33,62-70.6,80.6-113c-71.3-59.7-204.5-127.2-525.3-117.8c137.9,18.8,268.1,48.7,344,92.6
	c-60.4-17.3-96.1-18.8-96.1-18.8c-17,3.1-41.9,7.8-58.9,14.1C1717.8,389.6,1793.8,428.9,1872.8,502.6L1872.8,502.6z M1851.1,519.9
	c-234-212-657-216.7-940.6-108.3c201.4-25.1,602.8-55,762.3,103.6c-48-22-145.6-55-201.4-47.1c-17.4,24.2-32.4,49.9-44.9,76.9
	C1570.6,584.3,1720.9,622,1851.1,519.9L1851.1,519.9z M1944.1,633c-21.7-31.4-48-61.2-74.4-89.5c-141,113-297.5,70.7-457.1,29.8
	c-29.4,84.8-31,172.7-1.5,257.5C1597,816.7,1792.2,746,1944.1,633L1944.1,633z M1992.1,727.2c-9.6-22.6-20.5-44.6-32.5-65.9
	c-154.9,114.6-344,183.7-536.1,201c69.7,142.9,209.2,227.7,367.2,213.5C1827.8,945.4,1871.2,804.1,1992.1,727.2z M2002.9,758.6
	c-110,65.9-145.7,194.7-179.7,312.4c75.9-15.7,144.1-50.2,198.3-106.8C2032.4,895.2,2023.1,824.5,2002.9,758.6z M2027.7,741.3
	c18.6,58.1,27.9,117.8,31,177.4c40.3-67.5,60.4-124,65.1-205.7C2091.3,719.3,2058.7,727.2,2027.7,741.3L2027.7,741.3z M1982.8,643.9
	c12.4,22,23.3,45.5,34.1,69.1c35.6-15.7,69.7-25.1,106.9-31.4c-4.7-54.9-15.5-94.2-38.8-144.4C2054.1,576.4,2021.5,611,1982.8,643.9
	L1982.8,643.9z M1892.9,524.6c24.8,26.7,51.1,59.7,72.8,91.1c38.8-33,72.8-67.5,102.3-109.9c-24.8-37.7-66.7-80.1-94.5-100.5
	C1954.9,450.8,1927,490.1,1892.9,524.6z M568.1,480.7l24.8-14.1l24.8,17.3l-7.8-29.8l24.8-17.3l-29.4-1.6l-9.3-29.8l-10.8,28.3
	h-29.4l21.7,18.8L568.1,480.7z M1648.1,235.7l63.5-29.8l54.2,53.4l-12.4-73.8l60.5-34.5l-71.3-15.7l-17-73.8l-31,64.4l-72.8-11
	l52.7,55L1648.1,235.7L1648.1,235.7z"/>
<path class="st3" d="M2046.3,508.9c-9.3,11-18.6,22-27.9,31.4c-12.4-23.6-27.9-45.5-43.4-65.9c6.2-11,14-20.4,20.2-31.4
	C2015.3,461.8,2033.9,486.9,2046.3,508.9z M2099,658.1c-12.4,1.6-23.3,4.7-34.1,7.8c-3.2-17.6-7.9-35-13.9-51.8
	c10.8-11,21.7-22,32.5-34.6C2091.3,604.7,2095.9,628.3,2099,658.1z M2072.7,824.5l-1.5-6.3c3.1-25.1,4.6-50.2,3.1-75.4
	c6.2-3.1,14-4.7,20.1-6.3C2089.7,768,2082,796.3,2072.7,824.5z M1750.4,323.7c-4.7-1.6-10.8-4.7-17-6.3c93,20.4,158,51.8,195.2,76.9
	c-4.6,7.8-10.8,15.7-15.5,23.5C1866.6,377,1812.4,344.1,1750.4,323.7z"/>
<path class="st4" d="M1863.5,1034.9c66.6-31.4,99.2-62.8,113.1-75.4c7.7-25.1,7.7-75.4,1.5-136.6l-37.2,78.5l7.8-73.8
	C1892.9,909.3,1875.9,965.8,1863.5,1034.9L1863.5,1034.9z M1483.9,901.4c108.5-14.1,260.3-59.7,373.4-142.9
	c-62,78.5-131.7,124-238.6,194.7c120.9-34.6,176.6-89.5,251-157c-55.8,76.9-79,153.9-119.3,237
	C1750.4,1033.3,1609.4,1064.7,1483.9,901.4L1483.9,901.4z M1437.4,628.3c103.8,37.7,184.4,31.4,286.7,25.1l-159.6,66
	c82.1-4.7,179.7-22,258.8-47.1C1654.4,780.6,1439,794.7,1439,794.7C1417.2,741.3,1417.2,672.2,1437.4,628.3L1437.4,628.3z"/>
<path class="st3" d="M1305.7,325.2l41.9-28.2l41.8,31.4l-12.4-50.2l41.9-29.8l-51.2-4.7l-15.5-48.7l-20.2,48.7h-49.6l38.7,33
	L1305.7,325.2L1305.7,325.2z M803.6,477.5l29.4-17.3l26.3,20.4l-7.7-33l26.3-20.4l-32.5-3.1l-10.8-31.4l-12.4,31.4h-32.5l24.8,22
	L803.6,477.5L803.6,477.5z"/>
</svg>
