<?xml version="1.0" encoding="utf-8"?>
<!-- Generator: Adobe Illustrator 21.1.0, SVG Export Plug-In . SVG Version: 6.00 Build 0)  -->
<!DOCTYPE svg PUBLIC "-//W3C//DTD SVG 1.1//EN" "http://www.w3.org/Graphics/SVG/1.1/DTD/svg11.dtd">
<svg version="1.1" id="Layer_1" xmlns="http://www.w3.org/2000/svg" xmlns:xlink="http://www.w3.org/1999/xlink" x="0px" y="0px"
	 width="262px" height="268.8px" viewBox="0 0 262 268.8" style="enable-background:new 0 0 262 268.8;" xml:space="preserve">
<style type="text/css">
	.st0{fill:#FFFFFF;}
	.st1{fill:#003DA6;}
	.st2{fill:#DD0031;}
</style>
<title>Untitled-34</title>
<g>
	<path class="st0" d="M131.1,268.8c-73.2-1-132-61.3-131-134.4C-0.9,61.2,57.8,0.9,131,0c35.5,0.4,68.6,14.7,93.4,40.1
		c24.7,25.4,38.1,58.9,37.7,94.3C262.9,207.5,204.2,267.8,131.1,268.8z M131,6C61.2,6.9,5.1,64.5,6,134.4
		c-0.9,69.9,55.2,127.5,125,128.4c69.7-1,125.8-58.6,125-128.4v-0.1c0.4-33.8-12.3-65.8-36-90.1C196.4,20,164.8,6.4,131,6z"/>
	<path class="st0" d="M259,134.4c0.9,71.6-56.4,130.4-128,131.4C59.4,264.8,2.1,206,3,134.4C2.1,62.7,59.4,3.9,131,3
		C202.6,3.9,259.9,62.8,259,134.4"/>
	<path class="st1" d="M10.6,160.2c6.4,32.6,25.5,61.3,53,79.8c27.1,18.4,60.5,24.9,92.5,17.9c32.3-6.8,60.3-26.4,77.8-54.4
		c17.7-28.3,23.9-62.2,17.5-94.9C245.1,76,226,47.3,198.3,28.8c-27.1-18.4-60.5-24.9-92.5-18C73.6,17.7,45.6,37.4,28,65.2
		C10.1,93.4,3.9,127.5,10.6,160.2"/>
	<path class="st0" d="M172.9,36c0.1,5.5-2.3,10.8-6.6,14.3c-23.1-17.4-45-25.9-66.6-26c-4.5,0-9,0.3-13.5,1.1c6.9-3,14-5.2,21.3-6.8
		c18.9-4.1,38.6-3.2,57.1,2.6C168.9,25,171.9,30.2,172.9,36"/>
	<path class="st0" d="M148.8,239.9c24.2-22.8,35.5-71.8,42.2-101.1l1-4.6c2.4-12.1,7.9-23.4,16.1-32.7c18.9,31.2,24.3,68.7,14.9,104
		c-21.4,29.5-55.6,47.1-92.1,47.1C137.5,249.3,143.5,245,148.8,239.9"/>
	<path class="st0" d="M192.9,73.8c9.8-8.5,17.7-14.9,23.3-19.1c12.3,13.8,21.1,30.2,25.9,48c-3.8-6.3-9.7-11-16.6-13.5
		c-5.8-1-11.7,0.6-16.2,4.2C204.3,86.4,198.9,79.8,192.9,73.8"/>
	<path class="st0" d="M18,129c11.2-30.9,52.2-43.4,67.7-48.2l0.7-0.2c6.8-1.8,13.8-3.2,20.8-4.3c19.9-3.5,44.4-7.8,59.2-19.1
		c6.5,5.1,12.6,10.5,18.5,16.2c-49.3,43.7-96.3,90-140.7,138.7c-13.1-15.4-22-33.9-26-53.7c-1.6-7.9-2.5-16-2.5-24.1
		C17,131.3,18,129.1,18,129"/>
	<path class="st0" d="M189,69.9c-6.2-6-12.4-11.5-18.4-16.3c5.2-4.6,8-11.2,7.6-18.1c-0.4-3.8-1.7-7.5-3.8-10.7
		c6.9,2.9,13.5,6.5,19.7,10.7c6.6,4.4,12.8,9.6,18.4,15.2C206.6,55.1,198.7,61.6,189,69.9"/>
	<path class="st0" d="M161.9,53.8C148,63.7,125,67.7,106.2,71c-7.2,1.1-14.4,2.6-21.4,4.4l-0.7,0.2c-14.8,4.5-52.1,16-67.5,43.6
		c2.2-17.7,8.3-34.6,17.9-49.6c8.1-12.9,18.6-24.1,30.9-33.2C92.7,24.6,123.4,25.4,161.9,53.8"/>
	<path class="st0" d="M224.3,94.5c8.1,1.7,16.7,15.6,20.8,23.6c3.6,25.8-1.3,52-14,74.8c0.6-4,1.1-8.2,1.5-12.7
		c2.3-28.9-4.8-57.7-20.3-82.2C215.6,95.2,220,93.9,224.3,94.5"/>
	<path class="st0" d="M188.8,77.3c6,6,11.5,12.6,16.3,19.6c-9.3,10.1-15.6,22.6-18.2,36.1l-1.1,4.6c-6.6,28.7-17.6,76.6-40.6,98.3
		c-7.6,7.4-16.9,13-27.2,16.1c-18-2.1-35.2-8.5-50.2-18.6c-7.3-4.9-14.1-10.7-20.1-17.1C92.3,167.4,139.3,121.1,188.8,77.3"/>
	<path class="st0" d="M162.8,169.5l3.1-0.9c1.9-0.2,3.3-1.9,3.2-3.8c0-0.1,0-0.1,0-0.2c0-2.3-0.6-6.6-3.4-6.6c-2.9,0-2.9,5-2.9,7.8
		L162.8,169.5L162.8,169.5z"/>
	<path class="st0" d="M125.3,167.7c0-10.1-0.4-18.8-7-18.8c-5.4,0-6.4,8.7-6.4,18.8s-0.3,18.9,6.4,18.9
		C123.9,186.6,125.3,177.8,125.3,167.7"/>
	<path class="st0" d="M162.8,169.5l3.1-0.9c1.9-0.2,3.3-1.9,3.2-3.8c0-0.1,0-0.1,0-0.2c0-2.3-0.6-6.6-3.4-6.6c-2.9,0-2.9,5-2.9,7.8
		L162.8,169.5L162.8,169.5z"/>
	<path class="st0" d="M111.1,144.6L111.1,144.6c3.6-5,9.3-7.8,15.4-7.6c13.5,0,21.9,12,21.9,28.1c1.3,15.4-10.1,29-25.5,30.3
		c-0.9,0.1-1.8,0.1-2.7,0.1c-24,0-32.7-19.8-32.7-42.8c0-26.5,11.2-48.3,39.1-48.3c10.2-0.7,19.1,7,19.8,17.2c0,0.3,0,0.7,0,1
		c0.2,5.6-4.1,10.4-9.7,10.6c-0.3,0-0.5,0-0.8,0c-7.5,0-9.9-6.5-11-12.1c-0.4-2.4,0.4-7.7-3.5-7.7c-8.1,0-9.4,16.3-9.8,22.3
		L111.1,144.6z"/>
	<path class="st0" d="M125.3,167.7c0-10.1-0.4-18.8-7-18.8c-5.4,0-6.4,8.7-6.4,18.8s-0.3,18.9,6.4,18.9
		C123.9,186.6,125.3,177.8,125.3,167.7"/>
	<path class="st0" d="M202.9,149.7c-2.4,0-4.6,1.1-6.1,2.9c-0.2-0.4-0.3-0.7-0.5-1.1L195,149l-18.4,5.5v10.3h3.4c0.3,0,0.5,0,0.6,0
		c0.4,1.4,0.6,2.9,0.5,4.4v12l-3.4,0.5v11.4h25.5v-11.4l-3.3-0.5v-3.5c0.1-2.7,0.4-5.5,0.9-8.1c1.1,0.3,2.2,0.5,3.3,0.5
		c4.6,0,7.8-4.2,7.8-10.3c0.6-5-2.9-9.5-7.9-10.1C203.6,149.8,203.2,149.7,202.9,149.7"/>
	<path class="st0" d="M234.9,161.8c-0.2-0.5-0.3-1.1-0.3-1.6c0-3.1-1.2-10.3-12.4-10.3c-6.2,0-18.3,4.9-18.3,16.1
		c-0.1,3.4,0.9,6.8,3,9.5c-2.6,1.7-4.1,4.7-3.9,7.8c0,4.1,2,10.9,15.4,10.9c8.6,1.2,16.6-4.8,17.9-13.4c0.2-1.1,0.2-2.2,0.1-3.2
		C236.6,172.2,236.1,166.9,234.9,161.8"/>
	<path class="st0" d="M100.2,101c-0.7-0.8-1.7-1.3-2.8-1.3c-1.7,0-3,1.1-4.6,2.8c-5.5,5.9-13.2,9.2-21.3,9
		c-12.1-0.5-23.6-5.6-32.1-14.4c-0.7-0.7-1.7-1.1-2.7-1.1c-4.5,0-5.7,7.5-5.7,7.6v37.5l2.9,0.4c9.7,1.7,19.6,1.4,29.2-1.1
		c-9.3,8.6-30.4,31.9-30.1,54.2c0.1,4.1,2.5,4.5,3.6,4.5c1,0,2-0.5,2.8-1.2c0.2-0.1,0.3-0.3,0.6-0.5c4-2.6,8.6-3.8,13.4-3.6
		c4.3-0.1,8.5,0.8,12.4,2.6c0.7,0.4,1.5,0.6,2.3,0.6c1,0,2-0.4,2.7-1.2c0.9-1.2,1.2-2.6,0.9-4.1c-1.8-15.2,1.3-30.6,8.6-44l1-1.5
		c5.7-8.7,17.6-26.7,19.8-41.6C101.4,103.4,101,102.1,100.2,101"/>
	<path class="st0" d="M170.6,179.1c-1.2-0.1-2.2-0.8-2.7-1.9l6.5-1.8C173.4,176.9,172.1,178.2,170.6,179.1 M184.9,172.6l-0.2-2.8
		c-0.1-1.8-0.4-3.6-0.8-5.3l-0.1-3.3l-0.6,0.9c-2.3-7.4-9.1-12.4-16.8-12.4c-11.8,0-20.1,9.6-20.1,23.3c-1,10.6,6.8,20.1,17.4,21.1
		c0.7,0.1,1.3,0.1,2,0.1c7.5,0.1,14.5-3.9,18.4-10.4l0.5-0.9l-0.4-10.2L184.9,172.6z"/>
	<path class="st0" d="M141,139.4c-0.7-1-1.4-2.1-2-3c6.6-1.2,11.2-7.1,10.9-13.8c-0.2-12.1-10.1-21.9-22.3-21.7c-0.3,0-0.6,0-0.9,0
		c-26.6,0-42.5,19.4-42.5,51.8c0,29.4,13.1,46.3,36.1,46.3c18.6,0,31.6-14,31.6-33.9C150.8,155.7,147,146.8,141,139.4"/>
	<path class="st1" d="M162.9,165.9c0-2.7,0-7.8,2.9-7.8c2.7,0,3.4,4.2,3.4,6.6c0.3,1.9-1,3.7-3,4c-0.1,0-0.1,0-0.2,0l-3.1,0.9
		L162.9,165.9z M170.7,182.7c-4-0.4-7-3.8-7-7.8l17.7-4.9c0.6-8.7-6-16.1-14.6-16.7c-0.1,0-0.2,0-0.3,0c-10,0-16.7,8-16.7,19.8
		c-0.9,8.8,5.4,16.6,14.2,17.6c0.6,0.1,1.2,0.1,1.8,0.1c6.3,0.1,12.2-3.2,15.4-8.6l-3.5-4.3C176.5,180.6,173.8,182.5,170.7,182.7"/>
	<path class="st1" d="M199.8,189.7h-18.7v-4.8l3.4-0.5v-15c0-5.4-0.7-7.9-4.4-7.9v-4.2l13.3-4c1.4,3.1,2.1,6.5,2.2,9.9h0.1
		c1.3-4.1,3-9.8,7.3-9.8c3.8,0,5.5,3,5.5,6.7s-1.6,6.8-4.4,6.8c-1.5-0.1-3.1-0.5-4.5-1.1c-2.4-0.8-3.2,10-3.2,12.2v6.6l3.3,0.5
		L199.8,189.7z"/>
	<path class="st1" d="M231.2,160.2c-0.1,2.6-2.2,4.6-4.8,4.5c-0.1,0-0.3,0-0.4,0c-3.2-0.2-5.8-2.7-6.1-5.9c-1.4,0-2.3,0.7-2.3,3.1
		c0,5.6,15.3,1.6,15.3,15.7c0,10.6-7.4,13.2-14.6,13.2c-4.3,0-12-0.6-12-7.4c-0.4-2.6,1.5-5,4.1-5.4c0.2,0,0.4,0,0.6,0
		c4.6,0,5.4,4.4,6.2,7.5c0.2,0.8,0.9,0.9,1.6,0.9c2.5,0,4.2-1,4.2-2.7c0-6.3-15.7-3.9-15.7-17.6c0-8.7,10-12.7,14.9-12.7
		C227.8,153.4,231.2,155.2,231.2,160.2"/>
	<path class="st1" d="M118.3,186.6c-6.7,0-6.4-8.8-6.4-18.9c0-10.1,0.9-18.8,6.4-18.8c6.7,0,7,8.7,7,18.8
		C125.4,177.8,124,186.6,118.3,186.6 M126.6,137c-6-0.2-11.8,2.6-15.3,7.6h-0.1l0.6-8.9c0.3-6,1.7-22.3,9.8-22.3
		c3.9,0,3,5.3,3.5,7.7c1.1,5.6,3.5,12.1,11,12.1c5.6,0.2,10.3-4.2,10.5-9.8c0-0.3,0-0.5,0-0.8c-0.2-10.2-8.6-18.4-18.8-18.2
		c-0.3,0-0.7,0-1,0c-27.9,0-39.1,21.9-39.1,48.3c0,23,8.7,42.8,32.7,42.8c15.5,0.1,28.1-12.3,28.3-27.8c0-0.9,0-1.8-0.1-2.7
		C148.5,149,140.1,137,126.6,137"/>
	<path class="st2" d="M34.5,104v34.1c18.6,2.8,40.8,0.9,56.5-22.6c0.7-1,1-0.3,0.6,0.6c-6.1,9.8-14.2,18.3-23.7,24.9
		c-8.6,6.9-31.7,31.8-31.4,53.7c0,1.7,0.1,1.2,1.5,0.1c8.9-5.2,19.8-5.7,29.2-1.4c1.2,0.6,1.3,0.4,1.1-1.2
		c-1.8-16,1.4-32.2,9.2-46.3c4.9-7.5,18-26.7,20.3-41.7c0.2-1.6-0.5-1.3-2.4,0.7c-16.3,16-42.5,15.7-58.5-0.7
		c-0.2-0.2-0.4-0.5-0.7-0.7C35.1,102.5,34.6,103,34.5,104"/>
	<path class="st0" d="M98.6,83.5c0.2,17.8-14,32.5-31.9,32.7c-17.8-0.2-32.1-14.9-31.9-32.7c-0.2-17.8,14-32.5,31.9-32.7
		C84.6,51,98.8,65.7,98.6,83.5"/>
	<polygon class="st1" points="66.7,52 67.8,55.4 71.4,55.4 68.5,57.6 69.5,61 66.7,58.9 63.9,61 64.9,57.6 62,55.4 65.6,55.4 	"/>
	<polygon class="st1" points="87.9,64.7 89,68.1 92.6,68.1 89.7,70.3 90.8,73.7 88,71.6 85.1,73.7 86.2,70.3 83.2,68.1 86.9,68.1 	
		"/>
	<polygon class="st1" points="78.8,54.9 79.9,58.3 83.5,58.3 80.6,60.5 81.7,63.9 78.8,61.8 76,63.9 77.1,60.5 74.2,58.3 77.8,58.3 
			"/>
	<polygon class="st1" points="91.4,76.6 92.5,80.1 96.1,80.1 93.2,82.3 94.2,85.7 91.4,83.6 88.6,85.7 89.7,82.3 86.7,80.1 
		90.3,80.1 	"/>
	<polygon class="st1" points="89.9,89.3 91,92.8 94.6,92.8 91.7,95 92.7,98.4 89.9,96.3 87.1,98.4 88.1,95 85.2,92.8 88.8,92.8 	"/>
	<polygon class="st1" points="83.1,99.4 84.1,102.9 87.8,102.9 84.8,105.1 85.9,108.5 83.1,106.4 80.2,108.5 81.3,105.1 78.4,102.9 
		82,102.9 	"/>
	<polygon class="st1" points="72.4,105.1 73.4,108.6 77,108.6 74.1,110.8 75.2,114.2 72.4,112.1 69.5,114.2 70.6,110.8 67.7,108.6 
		71.3,108.6 	"/>
	<polygon class="st1" points="45.1,63.5 44,67 40.4,67 43.4,69.2 42.3,72.6 45.1,70.5 48,72.6 46.9,69.2 49.8,67 46.2,67 	"/>
	<polygon class="st1" points="54,54.9 52.9,58.3 49.3,58.3 52.3,60.5 51.2,63.9 54,61.8 56.8,63.9 55.8,60.5 58.7,58.3 55.1,58.3 	
		"/>
	<polygon class="st1" points="41,75.1 39.9,78.6 36.3,78.6 39.3,80.7 38.2,84.2 41,82.1 43.8,84.2 42.8,80.7 45.7,78.6 42.1,78.6 	
		"/>
	<polygon class="st1" points="42.1,87.7 41,91.2 37.4,91.2 40.3,93.4 39.3,96.9 42.1,94.7 44.9,96.9 43.8,93.4 46.8,91.2 43.2,91.2 
			"/>
	<polygon class="st1" points="48.9,98.1 47.8,101.6 44.2,101.6 47.2,103.8 46.1,107.2 48.9,105.1 51.8,107.2 50.7,103.8 53.6,101.6 
		50,101.6 	"/>
	<polygon class="st1" points="59.6,104.7 58.6,108.1 55,108.1 57.9,110.3 56.8,113.7 59.6,111.7 62.5,113.7 61.4,110.3 64.3,108.1 
		60.7,108.1 	"/>
</g>
</svg>
