<?xml version="1.0" encoding="utf-8"?>
<!-- Generator: Adobe Illustrator 21.1.0, SVG Export Plug-In . SVG Version: 6.00 Build 0)  -->
<!DOCTYPE svg PUBLIC "-//W3C//DTD SVG 1.0//EN" "http://www.w3.org/TR/2001/REC-SVG-20010904/DTD/svg10.dtd">
<svg version="1.0" id="Layer_1" xmlns="http://www.w3.org/2000/svg" xmlns:xlink="http://www.w3.org/1999/xlink" x="0px" y="0px"
	 width="300px" height="333.1px" viewBox="0 0 300 333.1" style="enable-background:new 0 0 300 333.1;" xml:space="preserve">
<style type="text/css">
	.st0{fill:#141006;}
	.st1{fill:#A7A9AC;}
	.st2{fill:#E13A3E;}
</style>
<g>
	<path class="st0" d="M238.3,61.8L300,0h-28.5L221,43.4L264.8,0h-27.4l-48.8,43.6L232.4,0h-26.1l-50.5,43.5L199.6,0h-26l-50.7,43.6
		L166.8,0h-30.1L62.2,58.5c-7,5.6-13.5,12-19.2,18.8c-20.7,24.7-32.1,56-32.1,88.2c0,4.1,0.2,8.2,0.5,12.3
		c3.2,36.4,21.2,70.3,50.4,93.6L0,333.1h29.8l50.5-43.4l-43.7,43.4h25.8l50.6-43.6l-43.8,43.6h26l50.5-43.5l-43.8,43.5h26.4
		l50.7-43.6L135,333.1h27.4l74.6-58.5c7-5.6,13.5-11.9,19.2-18.8c20.7-24.7,32.1-56,32.1-88.2c0-4.1-0.2-8.2-0.5-12.2
		C284.5,119,266.5,85.1,238.3,61.8"/>
	<path class="st1" d="M137.5,199.4l10.8-10.8c-12.4-3.8-19.4-12.3-19.4-23.1c0-5.6,2.4-10.7,6.2-14.3l140.9-141h-7.8L135.6,129.7
		l-11.4,10.2c-6.7,6.4-11,15.5-11,25.5c0,2.3,0.2,4.6,0.7,6.8C116.4,184.9,126.9,195.6,137.5,199.4"/>
	<path class="st1" d="M121.1,215.8l10.7-10.7c-16.6-8.4-25.8-22.4-25.8-39.7c0-11.6,4.7-22.1,12.2-29.7L243.6,10.1h-7.3L118.9,113.9
		c-1.6,1.3-11.6,10.4-13,12c-9.7,10.4-15.6,24.3-15.6,39.6c0,2.7,0.2,5.4,0.6,8C93.6,191.9,105.2,207.6,121.1,215.8"/>
	<path class="st1" d="M104.3,232.5l10.8-10.9C95.1,209.3,83,189.1,83,165.4c0-17.5,6.9-33.4,18.1-45.2l110-110.1h-6.7L102.3,98
		c-3.3,2.6-11.9,10.6-14.6,13.8c-12.7,14.3-20.4,33-20.4,53.6c0,3.1,0.2,6.1,0.6,9.1C70.8,199,84.7,220,104.3,232.5"/>
	<path class="st1" d="M87.6,249.3l11-11c-23.7-16.4-38.5-42.7-38.5-72.8c0-23.4,9.2-44.7,24.1-60.6l94.6-94.7h-6.1l-87,72
		C80.8,86.1,73.5,93,69.5,97.8c-15.6,18.2-25.1,41.8-25.1,67.6c0,3.5,0.2,6.9,0.5,10.2C48,206,64.2,232.5,87.6,249.3"/>
	<path class="st1" d="M22,176.8c3.2,36.2,21.7,68.1,48.9,89.2l11.2-11.2c-27.3-20.3-44.9-52.8-44.9-89.4c0-29.3,11.4-56.1,30-76
		l79.1-79.3h-5.5L69,66.4c-6.5,5.2-12.5,11.1-17.8,17.4c-18.6,22.1-29.8,50.6-29.8,81.6C21.5,169.3,21.6,173,22,176.8"/>
	<path class="st2" d="M162.6,133.7l-10.8,10.8c12.4,3.8,19.4,12.3,19.4,23.1c0,5.6-2.4,10.7-6.2,14.3L24,322.9h7.9l132.7-119.6
		l11.3-10.2c6.7-6.4,11-15.5,11-25.5c0-2.3-0.2-4.6-0.7-6.8C183.7,148.1,173.2,137.4,162.6,133.7"/>
	<path class="st2" d="M179,117.2l-10.7,10.7c16.6,8.4,25.8,22.4,25.8,39.7c0,11.6-4.6,22.1-12.2,29.7L56.5,322.9h7.3l117.4-103.7
		c1.6-1.3,11.6-10.4,13-12c9.7-10.4,15.7-24.3,15.7-39.6c0-2.7-0.2-5.4-0.6-7.9C206.5,141.1,194.9,125.4,179,117.2"/>
	<path class="st2" d="M195.8,100.5l-10.8,10.8c20.1,12.4,32.1,32.6,32.1,56.3c0,17.5-6.9,33.4-18.1,45.2l-110,110.2h6.7L197.8,235
		c3.3-2.6,11.9-10.6,14.6-13.8c12.7-14.3,20.4-33,20.4-53.6c0-3.1-0.2-6.1-0.6-9.1C229.3,134.1,215.4,113,195.8,100.5"/>
	<path class="st2" d="M212.5,83.8l-11,11c23.7,16.4,38.5,42.7,38.5,72.8c0,23.4-9.1,44.8-24.1,60.6l-94.6,94.7h6.1l87-72.1
		c4.9-3.9,12.2-10.9,16.2-15.6c15.6-18.2,25.1-41.8,25.1-67.6c0-3.5-0.2-6.9-0.5-10.2C252.1,127.1,236,100.6,212.5,83.8"/>
	<path class="st2" d="M278.2,156.3c-3.2-36.2-21.7-68.1-48.9-89.2l-11.2,11.2c27.3,20.3,44.9,52.8,44.9,89.4c0,29.4-11.4,56.1-30,76
		l-79.1,79.3h5.5l71.7-56.2c6.5-5.2,12.5-11.1,17.8-17.4c18.6-22.1,29.8-50.6,29.8-81.6C278.7,163.8,278.5,160,278.2,156.3"/>
</g>
</svg>
