<?xml version="1.0" encoding="utf-8"?>
<!-- Generator: Adobe Illustrator 21.1.0, SVG Export Plug-In . SVG Version: 6.00 Build 0)  -->
<!DOCTYPE svg PUBLIC "-//W3C//DTD SVG 1.1//EN" "http://www.w3.org/Graphics/SVG/1.1/DTD/svg11.dtd">
<svg version="1.1" id="Layer_1" xmlns="http://www.w3.org/2000/svg" xmlns:xlink="http://www.w3.org/1999/xlink" x="0px" y="0px"
	 width="409px" height="490.7px" viewBox="0 0 409 490.7" style="enable-background:new 0 0 409 490.7;" xml:space="preserve">
<style type="text/css">
	.st0{fill:#FFFFFF;}
	.st1{fill:none;stroke:#FFFFFF;stroke-width:2.06;}
	.st2{fill:#C4CED4;}
	.st3{fill:none;stroke:#000000;stroke-width:0.151;}
</style>
<g>
	<polygon class="st0" points="346.6,17 320.3,63.6 315.7,100.8 268.9,184.2 207.5,184.2 253.3,103.3 253.3,17 205.8,17 180.6,63.2 
		176.3,100.8 109.5,219.8 120.8,247.9 162.3,247.9 143.4,295.8 107.9,257.5 112.1,313.7 50.7,316.3 99.6,350.7 64.8,402.5 
		120.9,384.2 144.1,439.7 161.7,379.2 224.3,395.3 183.9,348.6 233.7,307.5 182.3,310.6 237.9,247.9 311,247.9 392,104.3 392,17 	
		"/>
	<polygon class="st1" points="346.6,17 320.3,63.6 315.7,100.8 268.9,184.2 207.5,184.2 253.3,103.3 253.3,17 205.8,17 180.6,63.2 
		176.3,100.8 109.5,219.8 120.8,247.9 162.3,247.9 143.4,295.8 107.9,257.5 112.1,313.7 50.7,316.3 99.6,350.7 64.8,402.5 
		120.9,384.2 144.1,439.7 161.7,379.2 224.3,395.3 183.9,348.6 233.7,307.5 182.3,310.6 237.9,247.9 311,247.9 392,104.3 392,17 	
		"/>
	<polygon class="st0" points="111.3,405.2 23.1,434 76.2,355.1 0,301.4 93.8,297.4 87.3,210.3 92.3,215.6 159.7,95.4 164,58 
		195.7,0 270.3,0 270.3,107.8 236.7,167.2 258.9,167.2 299.3,95.4 303.9,58.2 336.7,0 409,0 409,108.8 320.9,264.9 245.5,264.9 
		222.3,291.2 284.7,287.4 208.1,350.6 272.7,425.3 173.3,399.8 146.9,490.7 	"/>
	<polygon class="st0" points="114.1,399 35.4,424.7 83.1,353.8 14.9,305.8 99.2,302.2 93.4,224.2 102.1,233.6 96.2,218.9 164.6,97 
		168.9,59.5 198.7,5 265.3,5 265.3,106.5 228.1,172.2 261.8,172.2 304.1,97 308.7,59.8 339.6,5 404,5 404,107.5 318,259.9 
		243.3,259.9 210.5,296.9 269.7,293.3 201,350 258.5,416.5 169.9,393.7 146.1,475.7 	"/>
	<polygon points="346.6,17 320.3,63.6 315.7,100.8 268.9,184.2 207.5,184.2 253.3,103.3 253.3,17 205.8,17 180.6,63.2 176.3,100.8 
		109.5,219.8 120.8,247.9 162.3,247.9 143.4,295.8 107.9,257.5 112.1,313.7 50.7,316.3 99.6,350.7 64.8,402.5 120.9,384.2 
		144.1,439.7 161.7,379.2 224.3,395.3 183.9,348.6 233.7,307.5 182.3,310.6 237.9,247.9 311,247.9 392,104.3 392,17 	"/>
	<polygon class="st2" points="336.7,58.6 358.9,58.6 374.3,29.5 353,29.5 	"/>
	<polygon class="st3" points="336.7,58.6 358.9,58.6 374.3,29.5 353,29.5 	"/>
	<polygon class="st2" points="197.2,58.6 221.1,58.5 236.3,29.5 213.3,29.5 	"/>
	<polygon class="st3" points="197.2,58.6 221.1,58.5 236.3,29.5 213.3,29.5 	"/>
	<polygon class="st2" points="191.6,95.1 213.1,95.2 215.1,70.3 194.2,70.3 	"/>
	<polygon class="st3" points="191.6,95.1 213.1,95.2 215.1,70.3 194.2,70.3 	"/>
	<polygon class="st2" points="330.6,95.1 352.1,95.2 354.1,70.3 333.3,70.3 	"/>
	<polygon class="st3" points="330.6,95.1 352.1,95.2 354.1,70.3 333.3,70.3 	"/>
	<path class="st2" d="M326,110l-48.6,85.5H160.8l48.6-85.5h-22.8L128,213.5h65l-49.3,110.2L123.3,301l1.1,26.7l-32.9,1.8l26.5,18.6
		l-18.9,28.1l30.4-9.9l12.5,30.1l9.6-32.8l33.9,8.7L163.6,347l27-22.3l-41.6,1.8l76.7-113.2h65.1l57.6-103.5H326V110z M135.3,354.7
		c-5.5,0-9.9-4.4-9.9-9.9s4.4-9.9,9.9-9.9s9.9,4.4,9.9,9.9S140.7,354.7,135.3,354.7"/>
	<path class="st3" d="M326,110l-48.6,85.5H160.8l48.6-85.5h-22.8L128,213.5h65l-49.3,110.2L123.3,301l1.1,26.7l-32.9,1.8l26.5,18.6
		l-18.9,28.1l30.4-9.9l12.5,30.1l9.6-32.8l33.9,8.7L163.6,347l27-22.3l-41.6,1.8l76.7-113.2h65.1l57.6-103.5H326V110z M135.3,354.7
		c-5.5,0-9.9-4.4-9.9-9.9s4.4-9.9,9.9-9.9s9.9,4.4,9.9,9.9S140.7,354.7,135.3,354.7z"/>
</g>
</svg>
