<?xml version="1.0" encoding="utf-8"?>
<!-- Generator: Adobe Illustrator 21.1.0, SVG Export Plug-In . SVG Version: 6.00 Build 0)  -->
<!DOCTYPE svg PUBLIC "-//W3C//DTD SVG 1.1//EN" "http://www.w3.org/Graphics/SVG/1.1/DTD/svg11.dtd">
<svg version="1.1" id="Layer_1" xmlns="http://www.w3.org/2000/svg" xmlns:xlink="http://www.w3.org/1999/xlink" x="0px" y="0px"
	 width="524.8px" height="351.5px" viewBox="0 0 524.8 351.5" style="enable-background:new 0 0 524.8 351.5;" xml:space="preserve"
	>
<style type="text/css">
	.st0{fill:#FFFFFF;}
	.st1{fill:#111B2B;}
	.st2{fill:#ED9B2D;}
	.st3{fill:#2A4832;}
</style>
<title>UTA</title>
<desc>Created with Sketch.</desc>
<g id="Clip-2">
</g>
<path class="st0" d="M107.5,351.5C47.2,351.5,0,304,0,243.4c0-29.2,11-56.2,30.8-76.1c19.9-19.9,47.1-30.9,76.4-31
	c29.5,0,58.4,12.8,78.7,34.3c1.7-3.8,3.7-8.3,5.8-13.2c6.6-14.9,15.9-35.7,27.5-61.8c20-44.9,40.1-89.7,40.1-89.7L262,0l262.8,0.3
	l-54.6,122.2L270.8,123c-21.5,47.6-51.3,114.1-55.6,124.5c-1.4,27.1-12.5,52.6-31.6,72.1C163.4,340.2,136.4,351.5,107.5,351.5z
	 M107.3,156.3C57.5,156.4,20,193.8,20,243.4c0,23.9,8.9,46.1,25.2,62.5c16.3,16.5,38.4,25.6,62.3,25.6c23.4,0,45.4-9.2,61.8-26
	c15.9-16.2,25.1-37.6,25.9-60.3c0-2.9,0.6-4.3,30.4-70.6c14.6-32.6,29.4-65.4,29.6-65.7l2.6-5.9l199.4-0.5L494,20.3L275,20
	c-30.8,68.9-74.9,167.8-77,173c0.8-2.1,1-5.8-1.1-9l-16.6,11.2C164,171.3,136,156.3,107.3,156.3z"/>
<path id="Fill-1" class="st0" d="M268.5,10c0,0-80.4,179.7-79.9,179.7c-17.9-26.4-49-43.4-81.3-43.4C52,146.4,10,188.6,10,243.4
	c0,54.7,42.3,98.1,97.5,98.1c55.3,0,95.9-45.2,97.7-96.1c0-1.4,59.1-132.4,59.1-132.4l199.4-0.5l45.7-102.2L268.5,10"/>
<path id="Fill-4" class="st0" d="M199.5,243.5c0,50.5-41,91.4-91.5,91.4C57.4,335,16.5,294,16.5,243.5s41-91.4,91.5-91.4
	S199.5,193.1,199.5,243.5"/>
<path id="Fill-5" class="st1" d="M16.2,248c1.1,24.1,11.6,45.7,27.8,61.4c17.3-15.2,28.5-37,29.7-61.4H16.2"/>
<path id="Fill-6" class="st2" d="M81.8,248c-1.2,26.5-13.2,50.2-31.7,66.8c14.8,12,33.3,19.5,53.7,20.4V248H81.8"/>
<path id="Fill-7" class="st1" d="M16.2,240h57.6c-1-24.7-12.3-46.7-29.7-62.1C27.7,193.7,17.2,215.6,16.2,240"/>
<path id="Fill-8" class="st2" d="M50.1,172.5c18.7,16.8,30.7,40.7,31.7,67.4h21.9v-87.8C83.4,153,64.9,160.5,50.1,172.5"/>
<path id="Fill-9" class="st1" d="M199.3,248h-57.5c1.2,24.4,12.5,46.2,29.7,61.4C187.7,293.7,198.1,272.1,199.3,248"/>
<path id="Fill-10" class="st3" d="M133.7,248h-21.9v87.2c20.3-0.9,38.9-8.4,53.7-20.4C147,298.2,134.9,274.5,133.7,248"/>
<path id="Fill-11" class="st3" d="M165.4,172.5c-14.8-12-33.3-19.5-53.7-20.4V240h21.9C134.8,213.2,146.8,189.3,165.4,172.5"/>
<path id="Fill-12" class="st1" d="M466.8,18.3H271.9l-81.4,186.2c-4.7-10-11.2-19-19-26.6c-17.4,15.3-28.7,37.4-29.7,62.1h57.6
	l58.8-134.7h171.9l38-86.9h-1.3"/>
<polyline id="Fill-13" class="st3" points="458.9,105.3 496.9,18.3 480.7,18.3 442.7,105.3 458.9,105.3 "/>
</svg>
