<?xml version="1.0" encoding="utf-8"?>
<!-- Generator: Adobe Illustrator 21.1.0, SVG Export Plug-In . SVG Version: 6.00 Build 0)  -->
<!DOCTYPE svg PUBLIC "-//W3C//DTD SVG 1.0//EN" "http://www.w3.org/TR/2001/REC-SVG-20010904/DTD/svg10.dtd">
<svg version="1.0" id="Layer_1" xmlns="http://www.w3.org/2000/svg" xmlns:xlink="http://www.w3.org/1999/xlink" x="0px" y="0px"
	 width="300px" height="300.2px" viewBox="0 0 300 300.2" style="enable-background:new 0 0 300 300.2;" xml:space="preserve">
<style type="text/css">
	.st0{fill:#FEFEFE;}
	.st1{fill:#C4CDD3;}
	.st2{fill:#002A5B;}
	.st3{fill:#E21836;}
</style>
<title>WAS</title>
<desc>Created with Sketch.</desc>
<g>
	<path id="Fill-1" class="st0" d="M150.3,3.3H150C69.1,3.4,3.5,68.9,3.3,149.9v0.3c0,81,65.6,146.7,146.5,146.8h0.1h0.1h0
		c80.9,0,146.5-65.6,146.6-146.6v-0.1v-0.1C296.6,69.2,231.2,3.5,150.3,3.3"/>
	<g id="Group-5" transform="translate(25.000000, 25.124018)">
		<path id="Fill-3" class="st1" d="M271.7,125.1L271.7,125.1C271.6,206.2,206,271.7,125,271.8h0h-0.1h-0.1
			C43.9,271.7-21.7,206-21.7,125v-0.3c0.1-81,65.8-146.5,146.7-146.5h0.3C206.2-21.6,271.6,44,271.7,125V125.1z M275,124.7
			c-0.2-82.8-67.3-149.8-150-149.8h-0.1h-0.3C42-24.9-25,42.2-25,124.9l0,0.2v0.1c0.1,82.8,67.2,149.9,150,149.9h0l0,0h0.1h0.1
			c82.8-0.1,149.8-67.2,149.8-150c0-0.1,0-0.1,0-0.2C275,124.9,275,124.8,275,124.7L275,124.7z"/>
	</g>
	<path id="Fill-6" class="st2" d="M101,116.8c15.2-15.2,21.6-33.1,21.6-33.1l3.4-12.4l0.8-2.9l-15.6-8.7c0,0-9.1-6.3-29.5,5.5
		c-23.8,14.1-43.2,32.3-53.3,51.6c-5.6,10.7-10,23-12.3,37c0.7,26.5,9.1,51.1,23,71.6C35.3,187.1,72.1,145.3,101,116.8"/>
	<path id="Fill-8" class="st2" d="M218.5,65.2c-20.4-11.8-29.5-5.5-29.5-5.5l-15.6,8.7l0.8,2.9l3.4,12.4c0,0,6.4,17.8,21.7,33.1
		C228,145.2,264.7,186.9,261,225c14-20.7,22.3-45.6,22.8-72.4c-2.3-13.5-6.7-25.4-12.1-35.8C261.7,97.5,242.3,79.3,218.5,65.2"/>
	<path id="Fill-10" class="st3" d="M169.5,42.3c53.5,6.1,88.7,36.4,106.8,63.4c-13.7-38.9-44.7-69.6-83.9-82.6
		C183.8,25.6,174.2,31,169.5,42.3"/>
	<path id="Fill-12" class="st3" d="M130.7,42.3C126,30.9,116.3,25.6,107.7,23c-39.4,13.1-70.6,44.1-84.2,83.3
		C41.5,79.2,76.8,48.4,130.7,42.3"/>
	<path id="Fill-14" class="st3" d="M139.5,40.8l10.6-15.6l10.6,15.6c4.3-11.7,11-18.1,17.7-21.6c-9.1-2-18.6-3-28.3-3.1
		c-9.8,0-19.3,1.1-28.5,3C128.4,22.7,135.2,29.1,139.5,40.8"/>
	<path id="Fill-16" class="st2" d="M222.8,158.1c-21.8-35.2-71.2-70.8-72.7-71.9c-1.5,1.1-50.9,36.7-72.7,71.9
		c-29.4,47.5-25.6,75-18,90.6c18.9,17.4,42.9,29.4,69.4,33.6L140.3,120l9.5-9.6l0.1-0.1v0l0,0l0.1,0.1l9.5,9.6l11.5,162.2l-0.2,0.1
		c26.8-4.2,50.9-16.4,69.9-34C248.4,232.7,252,205.3,222.8,158.1"/>
	<polygon id="Fill-18" class="st1" points="159.7,120 150.1,110.4 150.2,294.2 171,282.4 171.2,282.3 	"/>
	<path id="Fill-20" class="st1" d="M150,73.9l-4.2,3.1l-17.4,12.9l4.6-16.6l0.8-2.9l1.5-5.6l-5.1-2.7l-16.4-8.8
		c8.3-1.8,16.7-3,25.3-3.6l4.2-0.3l0.2-0.4l1.7-3.4l0.3-0.5l0,0l4.7-9.5l4.8,9.8l0,0l0.1,0.2l1.7,3.4l0.2,0.4l4.2,0.3
		c8.5,0.6,17,1.7,25.3,3.6L170,62.1l-5.1,2.7l1.5,5.6l0.8,2.9l4.6,16.6L154.3,77l-4.2-3.1v-0.1L150,73.9L150,73.9L150,73.9z"/>
	<path id="Fill-22" class="st1" d="M150.2,73.8L150.2,73.8l4.2,3.2l17.4,12.9l-4.6-16.6l-0.8-2.9l-1.5-5.6l5.1-2.7l16.4-8.9
		c-8.3-1.8-16.7-3-25.3-3.6l-4.2-0.3l-0.2-0.3l-1.7-3.4l-0.1-0.2l-4.8-9.8l-4.7,9.5h0l-0.3,0.5l-1.7,3.4l-0.2,0.3l-4.2,0.3
		c-8.5,0.6-17,1.7-25.3,3.6l16.4,8.9l5.1,2.7l-1.5,5.6l-0.8,2.9l-4.6,16.6L145.9,77l4.2-3.1v-0.1H150.2L150.2,73.8z"/>
</g>
</svg>
