<?xml version="1.0" encoding="UTF-8"?>
<!DOCTYPE svg PUBLIC "-//W3C//DTD SVG 1.1//EN" "http://www.w3.org/Graphics/SVG/1.1/DTD/svg11.dtd">
<svg xmlns="http://www.w3.org/2000/svg" version="1.1" width="90px" height="90px" style="shape-rendering:geometricPrecision; text-rendering:geometricPrecision; image-rendering:optimizeQuality; fill-rule:evenodd; clip-rule:evenodd" xmlns:xlink="http://www.w3.org/1999/xlink">
<g><path style="opacity:0.016" fill="#5b1e8e" d="M -0.5,20.5 C -0.5,20.1667 -0.5,19.8333 -0.5,19.5C 29.5,19.5 59.5,19.5 89.5,19.5C 89.5,19.8333 89.5,20.1667 89.5,20.5C 59.5,20.5 29.5,20.5 -0.5,20.5 Z"/></g>
<g><path style="opacity:0.984" fill="#f3ebf1" d="M 0.5,21.5 C 2.16667,21.5 3.83333,21.5 5.5,21.5C 9.10854,24.3113 13.1085,26.6446 17.5,28.5C 18.4742,26.2573 18.8076,23.924 18.5,21.5C 18.8333,21.5 19.1667,21.5 19.5,21.5C 19.5,24.5 19.5,27.5 19.5,30.5C 12.8333,30.5 6.16667,30.5 -0.5,30.5C -0.5,30.1667 -0.5,29.8333 -0.5,29.5C 2.1873,29.6641 4.85397,29.4974 7.5,29C 6.94404,28.6174 6.61071,28.1174 6.5,27.5C 8.74511,28.6352 11.0784,29.1352 13.5,29C 8.77676,26.9783 4.44343,24.4783 0.5,21.5 Z"/></g>
<g><path style="opacity:0.822" fill="#18108f" d="M 5.5,21.5 C 9.83333,21.5 14.1667,21.5 18.5,21.5C 18.8076,23.924 18.4742,26.2573 17.5,28.5C 13.1085,26.6446 9.10854,24.3113 5.5,21.5 Z"/></g>
<g><path style="opacity:0.975" fill="#06028b" d="M 44.5,21.5 C 59.5,21.5 74.5,21.5 89.5,21.5C 89.5,36.8333 89.5,52.1667 89.5,67.5C 59.5,67.5 29.5,67.5 -0.5,67.5C -0.5,59.8333 -0.5,52.1667 -0.5,44.5C -0.166667,44.5 0.166667,44.5 0.5,44.5C 1.5,44.5 2.5,44.5 3.5,44.5C 4.4959,44.4142 5.32924,44.7476 6,45.5C 6.31732,43.6992 6.98398,43.3659 8,44.5C 8.31732,42.6992 8.98398,42.3659 10,43.5C 10.3333,42.8333 10.6667,42.1667 11,41.5C 12,41.5 13,41.5 14,41.5C 14.5133,40.4734 15.0133,39.4734 15.5,38.5C 16.1667,38.1667 16.8333,37.8333 17.5,37.5C 18.1667,39.8333 18.8333,42.1667 19.5,44.5C 21.1667,44.5 22.8333,44.5 24.5,44.5C 25.4614,42.7354 25.7947,40.7354 25.5,38.5C 30.0319,39.7632 34.3653,41.5965 38.5,44C 40.1341,44.4935 41.8008,44.6602 43.5,44.5C 44.0431,44.44 44.3764,44.1067 44.5,43.5C 43.7573,42.8182 43.0906,42.1515 42.5,41.5C 42.1961,40.8501 41.8627,40.1835 41.5,39.5C 42.9935,38.8589 43.9935,37.8589 44.5,36.5C 44.5,36.1667 44.5,35.8333 44.5,35.5C 44.5,33.8333 44.5,32.1667 44.5,30.5C 41.6946,29.6805 38.6946,29.1805 35.5,29C 38.1667,27.6667 40.8333,26.3333 43.5,25C 44.3366,23.9887 44.67,22.8221 44.5,21.5 Z"/></g>
<g><path style="opacity:1" fill="#f5ebf0" d="M 24.5,21.5 C 24.8333,21.5 25.1667,21.5 25.5,21.5C 24.9898,24.3878 25.6565,26.7211 27.5,28.5C 28.2506,29.5735 29.2506,29.7401 30.5,29C 35.2232,26.9783 39.5566,24.4783 43.5,21.5C 43.8333,21.5 44.1667,21.5 44.5,21.5C 44.67,22.8221 44.3366,23.9887 43.5,25C 40.8333,26.3333 38.1667,27.6667 35.5,29C 38.6946,29.1805 41.6946,29.6805 44.5,30.5C 37.8333,30.5 31.1667,30.5 24.5,30.5C 24.5,27.5 24.5,24.5 24.5,21.5 Z"/></g>
<g><path style="opacity:0.845" fill="#1a1591" d="M 25.5,21.5 C 29.8333,21.5 34.1667,21.5 38.5,21.5C 35.0026,24.083 31.3359,26.4164 27.5,28.5C 25.6565,26.7211 24.9898,24.3878 25.5,21.5 Z"/></g>
<g><path style="opacity:1" fill="#fe5142" d="M -0.5,21.5 C -0.166667,21.5 0.166667,21.5 0.5,21.5C 4.44343,24.4783 8.77676,26.9783 13.5,29C 11.0784,29.1352 8.74511,28.6352 6.5,27.5C 4.04616,26.7729 1.71283,25.7729 -0.5,24.5C -0.5,23.5 -0.5,22.5 -0.5,21.5 Z"/></g>
<g><path style="opacity:1" fill="#ff2c1f" d="M 19.5,21.5 C 21.1667,21.5 22.8333,21.5 24.5,21.5C 24.5,24.5 24.5,27.5 24.5,30.5C 31.1667,30.5 37.8333,30.5 44.5,30.5C 44.5,32.1667 44.5,33.8333 44.5,35.5C 37.8333,35.5 31.1667,35.5 24.5,35.5C 24.5,38.5 24.5,41.5 24.5,44.5C 22.8333,44.5 21.1667,44.5 19.5,44.5C 19.5,41.5 19.5,38.5 19.5,35.5C 12.8333,35.5 6.16667,35.5 -0.5,35.5C -0.5,33.8333 -0.5,32.1667 -0.5,30.5C 6.16667,30.5 12.8333,30.5 19.5,30.5C 19.5,27.5 19.5,24.5 19.5,21.5 Z"/></g>
<g><path style="opacity:1" fill="#fe5848" d="M 38.5,21.5 C 40.1667,21.5 41.8333,21.5 43.5,21.5C 39.5566,24.4783 35.2232,26.9783 30.5,29C 29.2506,29.7401 28.2506,29.5735 27.5,28.5C 31.3359,26.4164 35.0026,24.083 38.5,21.5 Z"/></g>
<g><path style="opacity:1" fill="#151290" d="M -0.5,24.5 C 1.71283,25.7729 4.04616,26.7729 6.5,27.5C 6.61071,28.1174 6.94404,28.6174 7.5,29C 4.85397,29.4974 2.1873,29.6641 -0.5,29.5C -0.5,27.8333 -0.5,26.1667 -0.5,24.5 Z"/></g>
<g><path style="opacity:1" fill="#d4d3eb" d="M 66.5,27.5 C 68.1042,28.287 68.7709,29.6203 68.5,31.5C 64.421,31.4662 63.7543,30.1328 66.5,27.5 Z"/></g>
<g><path style="opacity:1" fill="#8183c7" d="M -0.5,37.5 C -0.5,37.1667 -0.5,36.8333 -0.5,36.5C 2.57186,36.1826 5.57186,36.5159 8.5,37.5C 8.37642,38.1067 8.04309,38.44 7.5,38.5C 5.0521,37.5269 2.38544,37.1936 -0.5,37.5 Z"/></g>
<g><path style="opacity:1" fill="#fbf1f2" d="M -0.5,36.5 C -0.5,36.1667 -0.5,35.8333 -0.5,35.5C 6.16667,35.5 12.8333,35.5 19.5,35.5C 19.5,38.5 19.5,41.5 19.5,44.5C 18.8333,42.1667 18.1667,39.8333 17.5,37.5C 16.7494,36.4265 15.7494,36.2599 14.5,37C 9.6126,39.2742 4.94593,41.7742 0.5,44.5C 0.166667,44.5 -0.166667,44.5 -0.5,44.5C -0.5,43.5 -0.5,42.5 -0.5,41.5C 2.16667,40.5 4.83333,39.5 7.5,38.5C 8.04309,38.44 8.37642,38.1067 8.5,37.5C 5.57186,36.5159 2.57186,36.1826 -0.5,36.5 Z"/></g>
<g><path style="opacity:1" fill="#140d8b" d="M -0.5,37.5 C 2.38544,37.1936 5.0521,37.5269 7.5,38.5C 4.83333,39.5 2.16667,40.5 -0.5,41.5C -0.5,40.1667 -0.5,38.8333 -0.5,37.5 Z"/></g>
<g><path style="opacity:1" fill="#6b52a9" d="M 44.5,36.5 C 43.9935,37.8589 42.9935,38.8589 41.5,39.5C 41.8627,40.1835 42.1961,40.8501 42.5,41.5C 40.0462,40.7729 37.7128,39.7729 35.5,38.5C 37.9878,36.6122 40.9878,35.9455 44.5,36.5 Z"/></g>
<g><path style="opacity:1" fill="#e1dff0" d="M 76.5,36.5 C 78.5053,37.254 79.172,38.4207 78.5,40C 74.4467,40.4684 73.78,39.3017 76.5,36.5 Z"/></g>
<g><path style="opacity:1" fill="#f6e7eb" d="M 44.5,35.5 C 44.5,35.8333 44.5,36.1667 44.5,36.5C 40.9878,35.9455 37.9878,36.6122 35.5,38.5C 34.2618,37.5876 32.9285,37.4209 31.5,38C 35.7216,39.9409 39.7216,42.1076 43.5,44.5C 41.8008,44.6602 40.1341,44.4935 38.5,44C 34.3653,41.5965 30.0319,39.7632 25.5,38.5C 25.7947,40.7354 25.4614,42.7354 24.5,44.5C 24.5,41.5 24.5,38.5 24.5,35.5C 31.1667,35.5 37.8333,35.5 44.5,35.5 Z"/></g>
<g><path style="opacity:1" fill="#fd231f" d="M 35.5,38.5 C 37.7128,39.7729 40.0462,40.7729 42.5,41.5C 43.0906,42.1515 43.7573,42.8182 44.5,43.5C 44.3764,44.1067 44.0431,44.44 43.5,44.5C 39.7216,42.1076 35.7216,39.9409 31.5,38C 32.9285,37.4209 34.2618,37.5876 35.5,38.5 Z"/></g>
<g><path style="opacity:1" fill="#e4e4f3" d="M 55.5,39.5 C 59.1806,41.1196 59.1806,42.4529 55.5,43.5C 53.2064,42.3746 53.2064,41.0412 55.5,39.5 Z"/></g>
<g><path style="opacity:1" fill="#fd2f26" d="M 17.5,37.5 C 16.8333,37.8333 16.1667,38.1667 15.5,38.5C 11.1822,39.9922 7.18217,41.9922 3.5,44.5C 2.5,44.5 1.5,44.5 0.5,44.5C 4.94593,41.7742 9.6126,39.2742 14.5,37C 15.7494,36.2599 16.7494,36.4265 17.5,37.5 Z"/></g>
<g><path style="opacity:1" fill="#6f4fa5" d="M 15.5,38.5 C 15.0133,39.4734 14.5133,40.4734 14,41.5C 13,41.5 12,41.5 11,41.5C 10.6667,42.1667 10.3333,42.8333 10,43.5C 8.98398,42.3659 8.31732,42.6992 8,44.5C 6.98398,43.3659 6.31732,43.6992 6,45.5C 5.32924,44.7476 4.4959,44.4142 3.5,44.5C 7.18217,41.9922 11.1822,39.9922 15.5,38.5 Z"/></g>
<g><path style="opacity:1" fill="#dad8ec" d="M 70.5,45.5 C 72.337,45.6395 72.6704,46.3061 71.5,47.5C 70.7025,47.0431 70.3691,46.3764 70.5,45.5 Z"/></g>
<g><path style="opacity:1" fill="#edecf6" d="M 21.5,49.5 C 22.4268,51.5762 24.0935,52.7428 26.5,53C 25.273,54.5874 25.6063,55.9207 27.5,57C 26.552,57.4828 25.552,57.6495 24.5,57.5C 24.6495,58.552 24.4828,59.552 24,60.5C 22.6667,59.1667 21.3333,59.1667 20,60.5C 19.5172,59.552 19.3505,58.552 19.5,57.5C 15.9007,57.7381 15.5673,56.7381 18.5,54.5C 17.45,52.8983 18.1167,52.065 20.5,52C 21.2524,51.3292 21.5858,50.4959 21.5,49.5 Z"/></g>
<g><path style="opacity:1" fill="#d4d3eb" d="M 66.5,57.5 C 68.1042,58.287 68.7709,59.6203 68.5,61.5C 64.421,61.4662 63.7543,60.1328 66.5,57.5 Z"/></g>
<g><path style="opacity:0.016" fill="#02018c" d="M -0.5,69.5 C -0.5,69.1667 -0.5,68.8333 -0.5,68.5C 29.5,68.5 59.5,68.5 89.5,68.5C 89.5,68.8333 89.5,69.1667 89.5,69.5C 59.5,69.5 29.5,69.5 -0.5,69.5 Z"/></g>
</svg>
