<?xml version="1.0" encoding="UTF-8"?>
<!DOCTYPE svg PUBLIC "-//W3C//DTD SVG 1.1//EN" "http://www.w3.org/Graphics/SVG/1.1/DTD/svg11.dtd">
<svg xmlns="http://www.w3.org/2000/svg" version="1.1" width="90px" height="90px" style="shape-rendering:geometricPrecision; text-rendering:geometricPrecision; image-rendering:optimizeQuality; fill-rule:evenodd; clip-rule:evenodd" xmlns:xlink="http://www.w3.org/1999/xlink">
<g><path style="opacity:0.016" fill="#ff7859" d="M -0.5,20.5 C -0.5,20.1667 -0.5,19.8333 -0.5,19.5C 29.5,19.5 59.5,19.5 89.5,19.5C 89.5,19.8333 89.5,20.1667 89.5,20.5C 59.5,20.5 29.5,20.5 -0.5,20.5 Z"/></g>
<g><path style="opacity:0.977" fill="#ff1309" d="M -0.5,21.5 C 7.16667,21.5 14.8333,21.5 22.5,21.5C 22.5,36.8333 22.5,52.1667 22.5,67.5C 14.8333,67.5 7.16667,67.5 -0.5,67.5C -0.5,52.1667 -0.5,36.8333 -0.5,21.5 Z"/></g>
<g><path style="opacity:0.967" fill="#fffbfb" d="M 22.5,21.5 C 37.1667,21.5 51.8333,21.5 66.5,21.5C 66.5,36.8333 66.5,52.1667 66.5,67.5C 51.8333,67.5 37.1667,67.5 22.5,67.5C 22.5,52.1667 22.5,36.8333 22.5,21.5 Z"/></g>
<g><path style="opacity:0.977" fill="#ff1309" d="M 66.5,21.5 C 74.1667,21.5 81.8333,21.5 89.5,21.5C 89.5,36.8333 89.5,52.1667 89.5,67.5C 81.8333,67.5 74.1667,67.5 66.5,67.5C 66.5,52.1667 66.5,36.8333 66.5,21.5 Z"/></g>
<g><path style="opacity:1" fill="#ff170e" d="M 45.5,54.5 C 44.8333,54.5 44.1667,54.5 43.5,54.5C 40.8728,55.0916 38.2062,55.4249 35.5,55.5C 35.762,54.0222 35.4287,52.6888 34.5,51.5C 32.1415,49.4707 29.8082,47.4707 27.5,45.5C 29.5256,43.5572 29.5256,41.3905 27.5,39C 29.8907,38.7132 32.2241,38.2132 34.5,37.5C 35.916,39.1392 37.5826,39.9725 39.5,40C 38.8333,37.3333 38.1667,34.6667 37.5,32C 38.549,31.5078 39.549,31.6744 40.5,32.5C 41.8333,30.5 43.1667,28.5 44.5,26.5C 45.8333,28.5 47.1667,30.5 48.5,32.5C 49.451,31.6744 50.451,31.5078 51.5,32C 50.8333,34.6667 50.1667,37.3333 49.5,40C 51.745,39.8047 53.5784,38.6381 55,36.5C 56.7863,38.0993 58.953,38.9326 61.5,39C 59.4744,41.3905 59.4744,43.5572 61.5,45.5C 59.1918,47.4707 56.8585,49.4707 54.5,51.5C 53.5713,52.6888 53.238,54.0222 53.5,55.5C 50.7628,55.5987 48.0961,55.2653 45.5,54.5 Z"/></g>
<g><path style="opacity:1" fill="#ff625f" d="M 43.5,54.5 C 44.1667,54.5 44.8333,54.5 45.5,54.5C 44.8333,67.8333 44.1667,67.8333 43.5,54.5 Z"/></g>
<g><path style="opacity:0.016" fill="#ff7859" d="M -0.5,69.5 C -0.5,69.1667 -0.5,68.8333 -0.5,68.5C 29.5,68.5 59.5,68.5 89.5,68.5C 89.5,68.8333 89.5,69.1667 89.5,69.5C 59.5,69.5 29.5,69.5 -0.5,69.5 Z"/></g>
</svg>
