<?xml version="1.0" encoding="UTF-8"?>
<!DOCTYPE svg PUBLIC "-//W3C//DTD SVG 1.1//EN" "http://www.w3.org/Graphics/SVG/1.1/DTD/svg11.dtd">
<svg xmlns="http://www.w3.org/2000/svg" version="1.1" width="90px" height="90px" style="shape-rendering:geometricPrecision; text-rendering:geometricPrecision; image-rendering:optimizeQuality; fill-rule:evenodd; clip-rule:evenodd" xmlns:xlink="http://www.w3.org/1999/xlink">
<g><path style="opacity:0.016" fill="#05298e" d="M -0.5,20.5 C -0.5,20.1667 -0.5,19.8333 -0.5,19.5C 29.5,19.5 59.5,19.5 89.5,19.5C 89.5,19.8333 89.5,20.1667 89.5,20.5C 59.5,20.5 29.5,20.5 -0.5,20.5 Z"/></g>
<g><path style="opacity:0.922" fill="#05288d" d="M -0.5,22.5 C -0.5,22.1667 -0.5,21.8333 -0.5,21.5C 29.5,21.5 59.5,21.5 89.5,21.5C 89.5,24.5 89.5,27.5 89.5,30.5C 64.5,30.5 39.5,30.5 14.5,30.5C 9.5,27.8333 4.5,25.1667 -0.5,22.5 Z"/></g>
<g><path style="opacity:1" fill="#ce162b" d="M -0.5,22.5 C 4.5,25.1667 9.5,27.8333 14.5,30.5C 20.1698,34.337 26.1698,37.6704 32.5,40.5C 33.9142,42.0542 35.5808,43.3875 37.5,44.5C 35.5808,45.6125 33.9142,46.9458 32.5,48.5C 26.1698,51.3296 20.1698,54.663 14.5,58.5C 9.5,61.1667 4.5,63.8333 -0.5,66.5C -0.5,51.8333 -0.5,37.1667 -0.5,22.5 Z"/></g>
<g><path style="opacity:1" fill="#ebeaf3" d="M 14.5,30.5 C 39.5,30.5 64.5,30.5 89.5,30.5C 89.5,33.8333 89.5,37.1667 89.5,40.5C 70.5,40.5 51.5,40.5 32.5,40.5C 26.1698,37.6704 20.1698,34.337 14.5,30.5 Z"/></g>
<g><path style="opacity:1" fill="#fae3e3" d="M 11.5,38.5 C 13.1765,39.1834 13.8432,40.5168 13.5,42.5C 15.1992,42.3398 16.8659,42.5065 18.5,43C 17.5838,43.3742 16.7504,43.8742 16,44.5C 16.0464,46.3126 15.8797,47.9793 15.5,49.5C 14.5,48.8333 13.5,48.1667 12.5,47.5C 11.5,48.1667 10.5,48.8333 9.5,49.5C 9.16667,49.1667 8.83333,48.8333 8.5,48.5C 10.1142,45.8429 9.44754,44.0095 6.5,43C 8.13414,42.5065 9.80081,42.3398 11.5,42.5C 11.5,41.1667 11.5,39.8333 11.5,38.5 Z"/></g>
<g><path style="opacity:1" fill="#07268c" d="M 32.5,40.5 C 51.5,40.5 70.5,40.5 89.5,40.5C 89.5,43.1667 89.5,45.8333 89.5,48.5C 70.5,48.5 51.5,48.5 32.5,48.5C 33.9142,46.9458 35.5808,45.6125 37.5,44.5C 35.5808,43.3875 33.9142,42.0542 32.5,40.5 Z"/></g>
<g><path style="opacity:1" fill="#ebeaf3" d="M 32.5,48.5 C 51.5,48.5 70.5,48.5 89.5,48.5C 89.5,51.8333 89.5,55.1667 89.5,58.5C 64.5,58.5 39.5,58.5 14.5,58.5C 20.1698,54.663 26.1698,51.3296 32.5,48.5 Z"/></g>
<g><path style="opacity:0.922" fill="#04288d" d="M 14.5,58.5 C 39.5,58.5 64.5,58.5 89.5,58.5C 89.5,61.5 89.5,64.5 89.5,67.5C 59.5,67.5 29.5,67.5 -0.5,67.5C -0.5,67.1667 -0.5,66.8333 -0.5,66.5C 4.5,63.8333 9.5,61.1667 14.5,58.5 Z"/></g>
<g><path style="opacity:0.016" fill="#05298e" d="M -0.5,69.5 C -0.5,69.1667 -0.5,68.8333 -0.5,68.5C 29.5,68.5 59.5,68.5 89.5,68.5C 89.5,68.8333 89.5,69.1667 89.5,69.5C 59.5,69.5 29.5,69.5 -0.5,69.5 Z"/></g>
</svg>
