<?xml version="1.0" encoding="UTF-8"?>
<!DOCTYPE svg PUBLIC "-//W3C//DTD SVG 1.1//EN" "http://www.w3.org/Graphics/SVG/1.1/DTD/svg11.dtd">
<svg xmlns="http://www.w3.org/2000/svg" version="1.1" width="90px" height="90px" style="shape-rendering:geometricPrecision; text-rendering:geometricPrecision; image-rendering:optimizeQuality; fill-rule:evenodd; clip-rule:evenodd" xmlns:xlink="http://www.w3.org/1999/xlink">
<g><path style="opacity:0.943" fill="#fefbfb" d="M -0.5,21.5 C -0.5,21.1667 -0.5,20.8333 -0.5,20.5C 29.5,20.5 59.5,20.5 89.5,20.5C 89.5,28.5 89.5,36.5 89.5,44.5C 70.5,44.5 51.5,44.5 32.5,44.5C 21.7994,36.4763 10.7994,28.8096 -0.5,21.5 Z"/></g>
<g><path style="opacity:1" fill="#13457d" d="M -0.5,21.5 C 10.7994,28.8096 21.7994,36.4763 32.5,44.5C 21.5,51.8333 10.5,59.1667 -0.5,66.5C -0.5,51.5 -0.5,36.5 -0.5,21.5 Z"/></g>
<g><path style="opacity:0.947" fill="#d61319" d="M 32.5,44.5 C 51.5,44.5 70.5,44.5 89.5,44.5C 89.5,52.1667 89.5,59.8333 89.5,67.5C 59.5,67.5 29.5,67.5 -0.5,67.5C -0.5,67.1667 -0.5,66.8333 -0.5,66.5C 10.5,59.1667 21.5,51.8333 32.5,44.5 Z"/></g>
</svg>
