<?xml version="1.0" encoding="UTF-8"?>
<!DOCTYPE svg PUBLIC "-//W3C//DTD SVG 1.1//EN" "http://www.w3.org/Graphics/SVG/1.1/DTD/svg11.dtd">
<svg xmlns="http://www.w3.org/2000/svg" version="1.1" width="90px" height="90px" style="shape-rendering:geometricPrecision; text-rendering:geometricPrecision; image-rendering:optimizeQuality; fill-rule:evenodd; clip-rule:evenodd" xmlns:xlink="http://www.w3.org/1999/xlink">
<g><path style="opacity:0.938" fill="#002c61" d="M -0.5,20.5 C 12.8333,20.5 26.1667,20.5 39.5,20.5C 39.5,26.8333 39.5,33.1667 39.5,39.5C 26.1667,39.5 12.8333,39.5 -0.5,39.5C -0.5,33.1667 -0.5,26.8333 -0.5,20.5 Z"/></g>
<g><path style="opacity:0.994" fill="#cd1025" d="M 49.5,20.5 C 62.8333,20.5 76.1667,20.5 89.5,20.5C 89.5,26.8333 89.5,33.1667 89.5,39.5C 76.1667,39.5 62.8333,39.5 49.5,39.5C 49.5,33.1667 49.5,26.8333 49.5,20.5 Z"/></g>
<g><path style="opacity:0.995" fill="#f5f2f4" d="M 39.5,20.5 C 42.8333,20.5 46.1667,20.5 49.5,20.5C 49.5,26.8333 49.5,33.1667 49.5,39.5C 62.8333,39.5 76.1667,39.5 89.5,39.5C 89.5,42.8333 89.5,46.1667 89.5,49.5C 76.1667,49.5 62.8333,49.5 49.5,49.5C 49.5,55.5 49.5,61.5 49.5,67.5C 46.1667,67.5 42.8333,67.5 39.5,67.5C 39.5,61.1667 39.5,54.8333 39.5,48.5C 26.1667,48.5 12.8333,48.5 -0.5,48.5C -0.5,45.5 -0.5,42.5 -0.5,39.5C 12.8333,39.5 26.1667,39.5 39.5,39.5C 39.5,33.1667 39.5,26.8333 39.5,20.5 Z"/></g>
<g><path style="opacity:1" fill="#959e97" d="M 46.5,41.5 C 45.9694,42.7954 44.6361,43.4621 42.5,43.5C 42.8693,45.9935 42.2027,46.6602 40.5,45.5C 41.4451,43.4348 42.1117,41.6014 42.5,40C 43.8333,39.3333 45.1667,39.3333 46.5,40C 47.7383,40.69 47.7383,41.19 46.5,41.5 Z"/></g>
<g><path style="opacity:1" fill="#5e9d60" d="M 46.5,42.5 C 48.8418,43.2107 49.1751,44.544 47.5,46.5C 46.7611,46.631 46.0944,46.4643 45.5,46C 46.3366,44.9887 46.67,43.8221 46.5,42.5 Z"/></g>
<g><path style="opacity:1" fill="#c0756d" d="M 46.5,41.5 C 46.5,41.8333 46.5,42.1667 46.5,42.5C 46.67,43.8221 46.3366,44.9887 45.5,46C 46.0944,46.4643 46.7611,46.631 47.5,46.5C 46.5514,47.1524 45.3847,47.4857 44,47.5C 42.3189,47.3917 41.1522,46.7251 40.5,45.5C 42.2027,46.6602 42.8693,45.9935 42.5,43.5C 44.6361,43.4621 45.9694,42.7954 46.5,41.5 Z"/></g>
<g><path style="opacity:0.99" fill="#001a54" d="M 89.5,49.5 C 89.5,49.8333 89.5,50.1667 89.5,50.5C 76.5,50.5 63.5,50.5 50.5,50.5C 50.5,56.1667 50.5,61.8333 50.5,67.5C 50.1667,67.5 49.8333,67.5 49.5,67.5C 49.5,61.5 49.5,55.5 49.5,49.5C 62.8333,49.5 76.1667,49.5 89.5,49.5 Z"/></g>
<g><path style="opacity:0.987" fill="#cf1c29" d="M -0.5,48.5 C 12.8333,48.5 26.1667,48.5 39.5,48.5C 39.5,54.8333 39.5,61.1667 39.5,67.5C 26.1667,67.5 12.8333,67.5 -0.5,67.5C -0.5,61.1667 -0.5,54.8333 -0.5,48.5 Z"/></g>
<g><path style="opacity:0.965" fill="#002d62" d="M 89.5,50.5 C 89.5,56.1667 89.5,61.8333 89.5,67.5C 76.5,67.5 63.5,67.5 50.5,67.5C 50.5,61.8333 50.5,56.1667 50.5,50.5C 63.5,50.5 76.5,50.5 89.5,50.5 Z"/></g>
<g><path style="opacity:0.012" fill="#684f72" d="M -0.5,69.5 C -0.5,69.1667 -0.5,68.8333 -0.5,68.5C 29.5,68.5 59.5,68.5 89.5,68.5C 89.5,68.8333 89.5,69.1667 89.5,69.5C 59.5,69.5 29.5,69.5 -0.5,69.5 Z"/></g>
</svg>
