<?xml version="1.0" encoding="UTF-8"?>
<!DOCTYPE svg PUBLIC "-//W3C//DTD SVG 1.1//EN" "http://www.w3.org/Graphics/SVG/1.1/DTD/svg11.dtd">
<svg xmlns="http://www.w3.org/2000/svg" version="1.1" width="90px" height="90px" style="shape-rendering:geometricPrecision; text-rendering:geometricPrecision; image-rendering:optimizeQuality; fill-rule:evenodd; clip-rule:evenodd" xmlns:xlink="http://www.w3.org/1999/xlink">
<g><path style="opacity:0.016" fill="#817798" d="M -0.5,20.5 C -0.5,20.1667 -0.5,19.8333 -0.5,19.5C 29.5,19.5 59.5,19.5 89.5,19.5C 89.5,19.8333 89.5,20.1667 89.5,20.5C 59.5,20.5 29.5,20.5 -0.5,20.5 Z"/></g>
<g><path style="opacity:1" fill="#f6f3f5" d="M -0.5,22.5 C -0.5,22.1667 -0.5,21.8333 -0.5,21.5C 3.16667,21.5 6.83333,21.5 10.5,21.5C 10.8333,22.5 11.5,23.1667 12.5,23.5C 20.0406,27.437 27.7072,31.1037 35.5,34.5C 35.56,35.0431 35.8933,35.3764 36.5,35.5C 37.4933,30.8804 37.8266,26.2137 37.5,21.5C 38.1667,21.5 38.8333,21.5 39.5,21.5C 39.5,27.5 39.5,33.5 39.5,39.5C 26.1667,39.5 12.8333,39.5 -0.5,39.5C -0.5,38.8333 -0.5,38.1667 -0.5,37.5C 5.84209,37.6662 12.1754,37.4995 18.5,37C 17.9558,36.2828 17.2891,35.7828 16.5,35.5C 10.9586,32.5626 5.29192,29.8959 -0.5,27.5C -0.5,26.8333 -0.5,26.1667 -0.5,25.5C 7.04057,29.437 14.7072,33.1037 22.5,36.5C 24.3635,37.7928 26.3635,37.7928 28.5,36.5C 28.0431,35.7025 27.3764,35.3691 26.5,35.5C 17.6264,30.8965 8.62644,26.5632 -0.5,22.5 Z"/></g>
<g><path style="opacity:0.447" fill="#4f6295" d="M 10.5,21.5 C 19.5,21.5 28.5,21.5 37.5,21.5C 37.8266,26.2137 37.4933,30.8804 36.5,35.5C 35.8933,35.3764 35.56,35.0431 35.5,34.5C 36.4834,30.7016 36.8168,26.7016 36.5,22.5C 28.3159,22.1743 20.3159,22.5076 12.5,23.5C 11.5,23.1667 10.8333,22.5 10.5,21.5 Z"/></g>
<g><path style="opacity:1" fill="#f8f4f6" d="M 49.5,21.5 C 50.1667,21.5 50.8333,21.5 51.5,21.5C 51.1734,26.2137 51.5067,30.8804 52.5,35.5C 53.1067,35.3764 53.44,35.0431 53.5,34.5C 61.2928,31.1037 68.9594,27.437 76.5,23.5C 77.5,23.1667 78.1667,22.5 78.5,21.5C 79.8333,21.5 81.1667,21.5 82.5,21.5C 73.6916,26.4052 64.6916,31.0719 55.5,35.5C 54.7109,35.7828 54.0442,36.2828 53.5,37C 56.0385,37.7958 58.3718,37.6291 60.5,36.5C 70.1861,31.9928 79.5194,26.9928 88.5,21.5C 88.8333,21.5 89.1667,21.5 89.5,21.5C 89.5,23.5 89.5,25.5 89.5,27.5C 83.7081,29.8959 78.0414,32.5626 72.5,35.5C 71.7109,35.7828 71.0442,36.2828 70.5,37C 76.8246,37.4995 83.1579,37.6662 89.5,37.5C 89.5,38.1667 89.5,38.8333 89.5,39.5C 76.1667,39.5 62.8333,39.5 49.5,39.5C 49.5,33.5 49.5,27.5 49.5,21.5 Z"/></g>
<g><path style="opacity:0.447" fill="#516496" d="M 51.5,21.5 C 60.5,21.5 69.5,21.5 78.5,21.5C 78.1667,22.5 77.5,23.1667 76.5,23.5C 68.6841,22.5076 60.6841,22.1743 52.5,22.5C 52.1832,26.7016 52.5166,30.7016 53.5,34.5C 53.44,35.0431 53.1067,35.3764 52.5,35.5C 51.5067,30.8804 51.1734,26.2137 51.5,21.5 Z"/></g>
<g><path style="opacity:1" fill="#0b267e" d="M 12.5,23.5 C 20.3159,22.5076 28.3159,22.1743 36.5,22.5C 36.8168,26.7016 36.4834,30.7016 35.5,34.5C 27.7072,31.1037 20.0406,27.437 12.5,23.5 Z"/></g>
<g><path style="opacity:1" fill="#08257d" d="M 76.5,23.5 C 68.9594,27.437 61.2928,31.1037 53.5,34.5C 52.5166,30.7016 52.1832,26.7016 52.5,22.5C 60.6841,22.1743 68.6841,22.5076 76.5,23.5 Z"/></g>
<g><path style="opacity:1" fill="#cd1228" d="M 89.5,40.5 C 89.5,43.1667 89.5,45.8333 89.5,48.5C 75.8333,48.5 62.1667,48.5 48.5,48.5C 48.5,54.5 48.5,60.5 48.5,66.5C 45.8333,66.5 43.1667,66.5 40.5,66.5C 40.5,60.5 40.5,54.5 40.5,48.5C 26.8333,48.5 13.1667,48.5 -0.5,48.5C -0.5,45.8333 -0.5,43.1667 -0.5,40.5C 13.1667,40.5 26.8333,40.5 40.5,40.5C 40.5,34.5 40.5,28.5 40.5,22.5C 43.1667,22.5 45.8333,22.5 48.5,22.5C 48.5,28.5 48.5,34.5 48.5,40.5C 62.1667,40.5 75.8333,40.5 89.5,40.5 Z"/></g>
<g><path style="opacity:1" fill="#d12a36" d="M 82.5,21.5 C 84.5,21.5 86.5,21.5 88.5,21.5C 79.5194,26.9928 70.1861,31.9928 60.5,36.5C 58.5853,36.7845 56.9187,36.4511 55.5,35.5C 64.6916,31.0719 73.6916,26.4052 82.5,21.5 Z"/></g>
<g><path style="opacity:1" fill="#d12935" d="M -0.5,22.5 C 8.62644,26.5632 17.6264,30.8965 26.5,35.5C 25.4324,36.4345 24.099,36.7678 22.5,36.5C 14.7072,33.1037 7.04057,29.437 -0.5,25.5C -0.5,24.5 -0.5,23.5 -0.5,22.5 Z"/></g>
<g><path style="opacity:1" fill="#0e267d" d="M -0.5,27.5 C 5.29192,29.8959 10.9586,32.5626 16.5,35.5C 11.0247,36.4889 5.358,36.8222 -0.5,36.5C -0.5,33.5 -0.5,30.5 -0.5,27.5 Z"/></g>
<g><path style="opacity:1" fill="#0f257c" d="M 89.5,27.5 C 89.5,30.5 89.5,33.5 89.5,36.5C 83.642,36.8222 77.9753,36.4889 72.5,35.5C 78.0414,32.5626 83.7081,29.8959 89.5,27.5 Z"/></g>
<g><path style="opacity:1" fill="#7386b7" d="M 16.5,35.5 C 17.2891,35.7828 17.9558,36.2828 18.5,37C 12.1754,37.4995 5.84209,37.6662 -0.5,37.5C -0.5,37.1667 -0.5,36.8333 -0.5,36.5C 5.358,36.8222 11.0247,36.4889 16.5,35.5 Z"/></g>
<g><path style="opacity:1" fill="#e57d89" d="M 26.5,35.5 C 27.3764,35.3691 28.0431,35.7025 28.5,36.5C 26.3635,37.7928 24.3635,37.7928 22.5,36.5C 24.099,36.7678 25.4324,36.4345 26.5,35.5 Z"/></g>
<g><path style="opacity:1" fill="#e78994" d="M 55.5,35.5 C 56.9187,36.4511 58.5853,36.7845 60.5,36.5C 58.3718,37.6291 56.0385,37.7958 53.5,37C 54.0442,36.2828 54.7109,35.7828 55.5,35.5 Z"/></g>
<g><path style="opacity:1" fill="#7386b7" d="M 72.5,35.5 C 77.9753,36.4889 83.642,36.8222 89.5,36.5C 89.5,36.8333 89.5,37.1667 89.5,37.5C 83.1579,37.6662 76.8246,37.4995 70.5,37C 71.0442,36.2828 71.7109,35.7828 72.5,35.5 Z"/></g>
<g><path style="opacity:1" fill="#e5909b" d="M 39.5,21.5 C 42.8333,21.5 46.1667,21.5 49.5,21.5C 49.5,27.5 49.5,33.5 49.5,39.5C 62.8333,39.5 76.1667,39.5 89.5,39.5C 89.5,39.8333 89.5,40.1667 89.5,40.5C 75.8333,40.5 62.1667,40.5 48.5,40.5C 48.5,34.5 48.5,28.5 48.5,22.5C 45.8333,22.5 43.1667,22.5 40.5,22.5C 40.5,28.5 40.5,34.5 40.5,40.5C 26.8333,40.5 13.1667,40.5 -0.5,40.5C -0.5,40.1667 -0.5,39.8333 -0.5,39.5C 12.8333,39.5 26.1667,39.5 39.5,39.5C 39.5,33.5 39.5,27.5 39.5,21.5 Z"/></g>
<g><path style="opacity:1" fill="#e58e98" d="M -0.5,49.5 C -0.5,49.1667 -0.5,48.8333 -0.5,48.5C 13.1667,48.5 26.8333,48.5 40.5,48.5C 40.5,54.5 40.5,60.5 40.5,66.5C 43.1667,66.5 45.8333,66.5 48.5,66.5C 48.5,60.5 48.5,54.5 48.5,48.5C 62.1667,48.5 75.8333,48.5 89.5,48.5C 89.5,48.8333 89.5,49.1667 89.5,49.5C 76.1667,49.5 62.8333,49.5 49.5,49.5C 49.5,55.5 49.5,61.5 49.5,67.5C 46.1667,67.5 42.8333,67.5 39.5,67.5C 39.5,61.5 39.5,55.5 39.5,49.5C 26.1667,49.5 12.8333,49.5 -0.5,49.5 Z"/></g>
<g><path style="opacity:1" fill="#f7f4f6" d="M -0.5,49.5 C 12.8333,49.5 26.1667,49.5 39.5,49.5C 39.5,55.5 39.5,61.5 39.5,67.5C 38.8333,67.5 38.1667,67.5 37.5,67.5C 37.8266,62.7863 37.4933,58.1196 36.5,53.5C 35.8933,53.6236 35.56,53.9569 35.5,54.5C 27.7072,57.8963 20.0406,61.563 12.5,65.5C 11.5,65.8333 10.8333,66.5 10.5,67.5C 9.16667,67.5 7.83333,67.5 6.5,67.5C 15.3084,62.5948 24.3084,57.9281 33.5,53.5C 34.2891,53.2172 34.9558,52.7172 35.5,52C 32.9615,51.2042 30.6282,51.3709 28.5,52.5C 18.8139,57.0072 9.48057,62.0072 0.5,67.5C 0.166667,67.5 -0.166667,67.5 -0.5,67.5C -0.5,65.5 -0.5,63.5 -0.5,61.5C 5.29192,59.1041 10.9586,56.4374 16.5,53.5C 17.2891,53.2172 17.9558,52.7172 18.5,52C 12.1754,51.5005 5.84209,51.3338 -0.5,51.5C -0.5,50.8333 -0.5,50.1667 -0.5,49.5 Z"/></g>
<g><path style="opacity:1" fill="#f6f3f5" d="M 89.5,49.5 C 89.5,50.1667 89.5,50.8333 89.5,51.5C 83.1579,51.3338 76.8246,51.5005 70.5,52C 71.0442,52.7172 71.7109,53.2172 72.5,53.5C 78.0414,56.4374 83.7081,59.1041 89.5,61.5C 89.5,62.1667 89.5,62.8333 89.5,63.5C 81.9813,59.5744 74.3146,55.9077 66.5,52.5C 64.6365,51.2072 62.6365,51.2072 60.5,52.5C 60.9569,53.2975 61.6236,53.6309 62.5,53.5C 71.3736,58.1035 80.3736,62.4368 89.5,66.5C 89.5,66.8333 89.5,67.1667 89.5,67.5C 85.8333,67.5 82.1667,67.5 78.5,67.5C 78.1667,66.5 77.5,65.8333 76.5,65.5C 68.9594,61.563 61.2928,57.8963 53.5,54.5C 53.44,53.9569 53.1067,53.6236 52.5,53.5C 51.5067,58.1196 51.1734,62.7863 51.5,67.5C 50.8333,67.5 50.1667,67.5 49.5,67.5C 49.5,61.5 49.5,55.5 49.5,49.5C 62.8333,49.5 76.1667,49.5 89.5,49.5 Z"/></g>
<g><path style="opacity:1" fill="#7c8ebb" d="M -0.5,52.5 C -0.5,52.1667 -0.5,51.8333 -0.5,51.5C 5.84209,51.3338 12.1754,51.5005 18.5,52C 17.9558,52.7172 17.2891,53.2172 16.5,53.5C 11.0247,52.5111 5.358,52.1778 -0.5,52.5 Z"/></g>
<g><path style="opacity:1" fill="#e78994" d="M 28.5,52.5 C 30.6282,51.3709 32.9615,51.2042 35.5,52C 34.9558,52.7172 34.2891,53.2172 33.5,53.5C 32.0813,52.5489 30.4147,52.2155 28.5,52.5 Z"/></g>
<g><path style="opacity:1" fill="#e6828e" d="M 66.5,52.5 C 64.901,52.2322 63.5676,52.5655 62.5,53.5C 61.6236,53.6309 60.9569,53.2975 60.5,52.5C 62.6365,51.2072 64.6365,51.2072 66.5,52.5 Z"/></g>
<g><path style="opacity:1" fill="#7c8ebb" d="M 89.5,51.5 C 89.5,51.8333 89.5,52.1667 89.5,52.5C 83.642,52.1778 77.9753,52.5111 72.5,53.5C 71.7109,53.2172 71.0442,52.7172 70.5,52C 76.8246,51.5005 83.1579,51.3338 89.5,51.5 Z"/></g>
<g><path style="opacity:1" fill="#0e267d" d="M 72.5,53.5 C 77.9753,52.5111 83.642,52.1778 89.5,52.5C 89.5,55.5 89.5,58.5 89.5,61.5C 83.7081,59.1041 78.0414,56.4374 72.5,53.5 Z"/></g>
<g><path style="opacity:1" fill="#d02c37" d="M 28.5,52.5 C 30.4147,52.2155 32.0813,52.5489 33.5,53.5C 24.3084,57.9281 15.3084,62.5948 6.5,67.5C 4.5,67.5 2.5,67.5 0.5,67.5C 9.48057,62.0072 18.8139,57.0072 28.5,52.5 Z"/></g>
<g><path style="opacity:1" fill="#08247d" d="M 35.5,54.5 C 36.4834,58.2984 36.8168,62.2984 36.5,66.5C 28.3159,66.8257 20.3159,66.4924 12.5,65.5C 20.0406,61.563 27.7072,57.8963 35.5,54.5 Z"/></g>
<g><path style="opacity:1" fill="#0a267e" d="M 53.5,54.5 C 61.2928,57.8963 68.9594,61.563 76.5,65.5C 68.6841,66.4924 60.6841,66.8257 52.5,66.5C 52.1832,62.2984 52.5166,58.2984 53.5,54.5 Z"/></g>
<g><path style="opacity:1" fill="#14287f" d="M -0.5,52.5 C 5.358,52.1778 11.0247,52.5111 16.5,53.5C 10.9586,56.4374 5.29192,59.1041 -0.5,61.5C -0.5,58.5 -0.5,55.5 -0.5,52.5 Z"/></g>
<g><path style="opacity:1" fill="#d12935" d="M 62.5,53.5 C 63.5676,52.5655 64.901,52.2322 66.5,52.5C 74.3146,55.9077 81.9813,59.5744 89.5,63.5C 89.5,64.5 89.5,65.5 89.5,66.5C 80.3736,62.4368 71.3736,58.1035 62.5,53.5 Z"/></g>
<g><path style="opacity:0.447" fill="#4f6295" d="M 35.5,54.5 C 35.56,53.9569 35.8933,53.6236 36.5,53.5C 37.4933,58.1196 37.8266,62.7863 37.5,67.5C 28.5,67.5 19.5,67.5 10.5,67.5C 10.8333,66.5 11.5,65.8333 12.5,65.5C 20.3159,66.4924 28.3159,66.8257 36.5,66.5C 36.8168,62.2984 36.4834,58.2984 35.5,54.5 Z"/></g>
<g><path style="opacity:0.447" fill="#526596" d="M 53.5,54.5 C 52.5166,58.2984 52.1832,62.2984 52.5,66.5C 60.6841,66.8257 68.6841,66.4924 76.5,65.5C 77.5,65.8333 78.1667,66.5 78.5,67.5C 69.5,67.5 60.5,67.5 51.5,67.5C 51.1734,62.7863 51.5067,58.1196 52.5,53.5C 53.1067,53.6236 53.44,53.9569 53.5,54.5 Z"/></g>
<g><path style="opacity:0.016" fill="#9e93aa" d="M -0.5,69.5 C -0.5,69.1667 -0.5,68.8333 -0.5,68.5C 29.5,68.5 59.5,68.5 89.5,68.5C 89.5,68.8333 89.5,69.1667 89.5,69.5C 59.5,69.5 29.5,69.5 -0.5,69.5 Z"/></g>
</svg>
