<?xml version="1.0" encoding="UTF-8"?>
<!DOCTYPE svg PUBLIC "-//W3C//DTD SVG 1.1//EN" "http://www.w3.org/Graphics/SVG/1.1/DTD/svg11.dtd">
<svg xmlns="http://www.w3.org/2000/svg" version="1.1" width="90px" height="90px" style="shape-rendering:geometricPrecision; text-rendering:geometricPrecision; image-rendering:optimizeQuality; fill-rule:evenodd; clip-rule:evenodd" xmlns:xlink="http://www.w3.org/1999/xlink">
<g><path style="opacity:0.646" fill="#eeecfb" d="M -0.5,20.5 C 29.5,20.5 59.5,20.5 89.5,20.5C 89.5,22.5 89.5,24.5 89.5,26.5C 59.5,26.5 29.5,26.5 -0.5,26.5C -0.5,24.5 -0.5,22.5 -0.5,20.5 Z"/></g>
<g><path style="opacity:1" fill="#0000c9" d="M -0.5,26.5 C 29.5,26.5 59.5,26.5 89.5,26.5C 89.5,28.8333 89.5,31.1667 89.5,33.5C 59.5,33.5 29.5,33.5 -0.5,33.5C -0.5,31.1667 -0.5,28.8333 -0.5,26.5 Z"/></g>
<g><path style="opacity:1" fill="#f8f7fd" d="M -0.5,33.5 C 29.5,33.5 59.5,33.5 89.5,33.5C 89.5,33.8333 89.5,34.1667 89.5,34.5C 74.6572,34.1707 59.9905,34.504 45.5,35.5C 43.8793,35.7869 42.8793,36.7869 42.5,38.5C 36.3226,38.3878 35.3226,40.2211 39.5,44C 36.73,47.3174 37.73,49.1507 42.5,49.5C 43.1272,50.4168 43.4606,51.4168 43.5,52.5C 29.0095,53.496 14.3428,53.8293 -0.5,53.5C -0.5,46.8333 -0.5,40.1667 -0.5,33.5 Z"/></g>
<g><path style="opacity:1" fill="#fcfcfe" d="M 89.5,34.5 C 89.5,40.8333 89.5,47.1667 89.5,53.5C 74.6572,53.8293 59.9905,53.496 45.5,52.5C 45.5394,51.4168 45.8728,50.4168 46.5,49.5C 51.27,49.1507 52.27,47.3174 49.5,44C 53.6774,40.2211 52.6774,38.3878 46.5,38.5C 45.8728,37.5832 45.5394,36.5832 45.5,35.5C 59.9905,34.504 74.6572,34.1707 89.5,34.5 Z"/></g>
<g><path style="opacity:1" fill="#3328cf" d="M 45.5,35.5 C 45.5394,36.5832 45.8728,37.5832 46.5,38.5C 52.6774,38.3878 53.6774,40.2211 49.5,44C 52.27,47.3174 51.27,49.1507 46.5,49.5C 45.8728,50.4168 45.5394,51.4168 45.5,52.5C 44.8333,52.5 44.1667,52.5 43.5,52.5C 43.4606,51.4168 43.1272,50.4168 42.5,49.5C 37.73,49.1507 36.73,47.3174 39.5,44C 35.3226,40.2211 36.3226,38.3878 42.5,38.5C 42.8793,36.7869 43.8793,35.7869 45.5,35.5 Z"/></g>
<g><path style="opacity:1" fill="#f5f4fc" d="M 42.5,41.5 C 46.1378,40.7366 47.6378,42.0699 47,45.5C 42.4155,47.4126 40.9155,46.0793 42.5,41.5 Z"/></g>
<g><path style="opacity:1" fill="#dedff8" d="M 43.5,52.5 C 44.1667,52.5 44.8333,52.5 45.5,52.5C 59.9905,53.496 74.6572,53.8293 89.5,53.5C 89.5,53.8333 89.5,54.1667 89.5,54.5C 59.5,54.5 29.5,54.5 -0.5,54.5C -0.5,54.1667 -0.5,53.8333 -0.5,53.5C 14.3428,53.8293 29.0095,53.496 43.5,52.5 Z"/></g>
<g><path style="opacity:1" fill="#2316cd" d="M -0.5,54.5 C 29.5,54.5 59.5,54.5 89.5,54.5C 89.5,57.1667 89.5,59.8333 89.5,62.5C 59.5,62.5 29.5,62.5 -0.5,62.5C -0.5,59.8333 -0.5,57.1667 -0.5,54.5 Z"/></g>
<g><path style="opacity:0.685" fill="#fdfdfe" d="M -0.5,62.5 C 29.5,62.5 59.5,62.5 89.5,62.5C 89.5,64.1667 89.5,65.8333 89.5,67.5C 59.5,67.5 29.5,67.5 -0.5,67.5C -0.5,65.8333 -0.5,64.1667 -0.5,62.5 Z"/></g>
</svg>
