<?xml version="1.0" encoding="UTF-8"?>
<!DOCTYPE svg PUBLIC "-//W3C//DTD SVG 1.1//EN" "http://www.w3.org/Graphics/SVG/1.1/DTD/svg11.dtd">
<svg xmlns="http://www.w3.org/2000/svg" version="1.1" width="90px" height="90px" style="shape-rendering:geometricPrecision; text-rendering:geometricPrecision; image-rendering:optimizeQuality; fill-rule:evenodd; clip-rule:evenodd" xmlns:xlink="http://www.w3.org/1999/xlink">
<g><path style="opacity:0.016" fill="#fefefe" d="M 29.5,20.5 C 39.3247,19.3417 49.3247,19.1751 59.5,20C 49.5056,20.4998 39.5056,20.6665 29.5,20.5 Z"/></g>
<g><path style="opacity:0.016" fill="#f7f3f1" d="M 61.5,19.5 C 62.8333,20.1667 62.8333,20.1667 61.5,19.5 Z"/></g>
<g><path style="opacity:0.016" fill="#f7f3f1" d="M 63.5,19.5 C 64.8333,20.1667 64.8333,20.1667 63.5,19.5 Z"/></g>
<g><path style="opacity:0.016" fill="#f7f3f1" d="M 65.5,19.5 C 66.8333,20.1667 66.8333,20.1667 65.5,19.5 Z"/></g>
<g><path style="opacity:0.016" fill="#f7f3f1" d="M 67.5,19.5 C 68.8333,20.1667 68.8333,20.1667 67.5,19.5 Z"/></g>
<g><path style="opacity:0.016" fill="#f7f3f1" d="M 69.5,19.5 C 70.8333,20.1667 70.8333,20.1667 69.5,19.5 Z"/></g>
<g><path style="opacity:0.016" fill="#f7f3f1" d="M 71.5,19.5 C 72.8333,20.1667 72.8333,20.1667 71.5,19.5 Z"/></g>
<g><path style="opacity:0.016" fill="#f7f3f1" d="M 73.5,19.5 C 74.8333,20.1667 74.8333,20.1667 73.5,19.5 Z"/></g>
<g><path style="opacity:0.016" fill="#f7f3f1" d="M 75.5,19.5 C 76.8333,20.1667 76.8333,20.1667 75.5,19.5 Z"/></g>
<g><path style="opacity:0.016" fill="#f7f3f1" d="M 77.5,19.5 C 78.8333,20.1667 78.8333,20.1667 77.5,19.5 Z"/></g>
<g><path style="opacity:0.016" fill="#f7f3f1" d="M 79.5,19.5 C 80.8333,20.1667 80.8333,20.1667 79.5,19.5 Z"/></g>
<g><path style="opacity:0.016" fill="#f7f3f1" d="M 81.5,19.5 C 82.8333,20.1667 82.8333,20.1667 81.5,19.5 Z"/></g>
<g><path style="opacity:0.016" fill="#f7f3f1" d="M 83.5,19.5 C 84.8333,20.1667 84.8333,20.1667 83.5,19.5 Z"/></g>
<g><path style="opacity:0.016" fill="#f7f3f1" d="M 85.5,19.5 C 86.8333,20.1667 86.8333,20.1667 85.5,19.5 Z"/></g>
<g><path style="opacity:0.016" fill="#f7f3f1" d="M 87.5,19.5 C 88.8333,20.1667 88.8333,20.1667 87.5,19.5 Z"/></g>
<g><path style="opacity:0.977" fill="#009246" d="M -0.5,21.5 C 9.5,21.5 19.5,21.5 29.5,21.5C 29.5,36.8333 29.5,52.1667 29.5,67.5C 19.5,67.5 9.5,67.5 -0.5,67.5C -0.5,52.1667 -0.5,36.8333 -0.5,21.5 Z"/></g>
<g><path style="opacity:0.975" fill="#fefefe" d="M 29.5,21.5 C 39.5,21.5 49.5,21.5 59.5,21.5C 59.5,36.8333 59.5,52.1667 59.5,67.5C 49.5,67.5 39.5,67.5 29.5,67.5C 29.5,52.1667 29.5,36.8333 29.5,21.5 Z"/></g>
<g><path style="opacity:0.976" fill="#ce2b37" d="M 59.5,21.5 C 69.5,21.5 79.5,21.5 89.5,21.5C 89.5,36.8333 89.5,52.1667 89.5,67.5C 79.5,67.5 69.5,67.5 59.5,67.5C 59.5,52.1667 59.5,36.8333 59.5,21.5 Z"/></g>
<g><path style="opacity:0.016" fill="#fefefe" d="M 29.5,69.5 C 39.3247,68.3417 49.3247,68.1751 59.5,69C 49.5056,69.4998 39.5056,69.6665 29.5,69.5 Z"/></g>
<g><path style="opacity:0.016" fill="#f7f3f1" d="M 61.5,68.5 C 62.8333,69.1667 62.8333,69.1667 61.5,68.5 Z"/></g>
<g><path style="opacity:0.016" fill="#f7f3f1" d="M 63.5,68.5 C 64.8333,69.1667 64.8333,69.1667 63.5,68.5 Z"/></g>
<g><path style="opacity:0.016" fill="#f7f3f1" d="M 65.5,68.5 C 66.8333,69.1667 66.8333,69.1667 65.5,68.5 Z"/></g>
<g><path style="opacity:0.016" fill="#f7f3f1" d="M 67.5,68.5 C 68.8333,69.1667 68.8333,69.1667 67.5,68.5 Z"/></g>
<g><path style="opacity:0.016" fill="#f7f3f1" d="M 69.5,68.5 C 70.8333,69.1667 70.8333,69.1667 69.5,68.5 Z"/></g>
<g><path style="opacity:0.016" fill="#f7f3f1" d="M 71.5,68.5 C 72.8333,69.1667 72.8333,69.1667 71.5,68.5 Z"/></g>
<g><path style="opacity:0.016" fill="#f7f3f1" d="M 73.5,68.5 C 74.8333,69.1667 74.8333,69.1667 73.5,68.5 Z"/></g>
<g><path style="opacity:0.016" fill="#f7f3f1" d="M 75.5,68.5 C 76.8333,69.1667 76.8333,69.1667 75.5,68.5 Z"/></g>
<g><path style="opacity:0.016" fill="#f7f3f1" d="M 77.5,68.5 C 78.8333,69.1667 78.8333,69.1667 77.5,68.5 Z"/></g>
<g><path style="opacity:0.016" fill="#f7f3f1" d="M 79.5,68.5 C 80.8333,69.1667 80.8333,69.1667 79.5,68.5 Z"/></g>
<g><path style="opacity:0.016" fill="#f7f3f1" d="M 81.5,68.5 C 82.8333,69.1667 82.8333,69.1667 81.5,68.5 Z"/></g>
<g><path style="opacity:0.016" fill="#f7f3f1" d="M 83.5,68.5 C 84.8333,69.1667 84.8333,69.1667 83.5,68.5 Z"/></g>
<g><path style="opacity:0.016" fill="#f7f3f1" d="M 85.5,68.5 C 86.8333,69.1667 86.8333,69.1667 85.5,68.5 Z"/></g>
<g><path style="opacity:0.016" fill="#f7f3f1" d="M 87.5,68.5 C 88.8333,69.1667 88.8333,69.1667 87.5,68.5 Z"/></g>
</svg>
