<?xml version="1.0" encoding="UTF-8"?>
<!DOCTYPE svg PUBLIC "-//W3C//DTD SVG 1.1//EN" "http://www.w3.org/Graphics/SVG/1.1/DTD/svg11.dtd">
<svg xmlns="http://www.w3.org/2000/svg" version="1.1" width="90px" height="90px" style="shape-rendering:geometricPrecision; text-rendering:geometricPrecision; image-rendering:optimizeQuality; fill-rule:evenodd; clip-rule:evenodd" xmlns:xlink="http://www.w3.org/1999/xlink">
<g><path style="opacity:0.96" fill="#fefefe" d="M -0.5,20.5 C 29.5,20.5 59.5,20.5 89.5,20.5C 89.5,36.1667 89.5,51.8333 89.5,67.5C 59.5,67.5 29.5,67.5 -0.5,67.5C -0.5,51.8333 -0.5,36.1667 -0.5,20.5 Z"/></g>
<g><path style="opacity:1" fill="#be1231" d="M 40.5,30.5 C 52.4162,29.9163 58.2495,35.5829 58,47.5C 54.601,55.9709 48.4343,59.1376 39.5,57C 30.0937,51.7064 28.2604,44.5397 34,35.5C 35.9651,33.4497 38.1318,31.783 40.5,30.5 Z"/></g>
<g><path style="opacity:0.02" fill="#fefffe" d="M -0.5,69.5 C -0.5,69.1667 -0.5,68.8333 -0.5,68.5C 29.5,68.5 59.5,68.5 89.5,68.5C 89.5,68.8333 89.5,69.1667 89.5,69.5C 59.5,69.5 29.5,69.5 -0.5,69.5 Z"/></g>
</svg>
