<?xml version="1.0" encoding="UTF-8"?>
<!DOCTYPE svg PUBLIC "-//W3C//DTD SVG 1.1//EN" "http://www.w3.org/Graphics/SVG/1.1/DTD/svg11.dtd">
<svg xmlns="http://www.w3.org/2000/svg" version="1.1" width="90px" height="90px" style="shape-rendering:geometricPrecision; text-rendering:geometricPrecision; image-rendering:optimizeQuality; fill-rule:evenodd; clip-rule:evenodd" xmlns:xlink="http://www.w3.org/1999/xlink">
<g><path style="opacity:0.946" fill="#f3f3f3" d="M -0.5,20.5 C 29.5,20.5 59.5,20.5 89.5,20.5C 89.5,36.1667 89.5,51.8333 89.5,67.5C 59.5,67.5 29.5,67.5 -0.5,67.5C -0.5,51.8333 -0.5,36.1667 -0.5,20.5 Z"/></g>
<g><path style="opacity:1" fill="#3f3f4f" d="M 27.5,26.5 C 27.4798,29.838 25.9798,32.838 23,35.5C 23.9127,32.3409 25.4127,29.3409 27.5,26.5 Z"/></g>
<g><path style="opacity:1" fill="#3e3e4e" d="M 60.5,26.5 C 61.9744,27.4363 62.9744,28.7697 63.5,30.5C 61.5544,29.9653 60.5544,28.632 60.5,26.5 Z"/></g>
<g><path style="opacity:1" fill="#383748" d="M 56.5,32.5 C 56.5,32.1667 56.5,31.8333 56.5,31.5C 57.2971,30.5218 57.9638,30.8551 58.5,32.5C 58.0302,33.463 57.3635,33.463 56.5,32.5 Z"/></g>
<g><path style="opacity:1" fill="#3f3f4f" d="M 31.5,29.5 C 29.1975,31.978 27.0308,34.6447 25,37.5C 25.7323,34.7012 27.0657,32.0345 29,29.5C 29.9772,28.2264 30.8106,28.2264 31.5,29.5 Z"/></g>
<g><path style="opacity:1" fill="#434252" d="M 31.5,29.5 C 33.0281,29.5173 33.5281,30.184 33,31.5C 31.6667,33.5 30.3333,35.5 29,37.5C 28.2825,38.4506 27.4491,38.6172 26.5,38C 28.8196,35.5222 30.4863,32.6889 31.5,29.5 Z"/></g>
<g><path style="opacity:1" fill="#b6b5bc" d="M 60.5,26.5 C 60.5544,28.632 61.5544,29.9653 63.5,30.5C 63.5,30.8333 63.5,31.1667 63.5,31.5C 63.6854,33.1958 64.5187,34.5291 66,35.5C 66.3988,35.2716 66.5654,34.9382 66.5,34.5C 67.3888,36.0252 66.7221,37.0252 64.5,37.5C 63.1911,34.2223 61.3578,31.2223 59,28.5C 59.7263,31.7714 61.2263,34.7714 63.5,37.5C 63.1667,37.5 62.8333,37.5 62.5,37.5C 61.5416,37.0472 60.7083,36.3805 60,35.5C 59.6012,35.7284 59.4346,36.0618 59.5,36.5C 58.1224,35.4549 57.1224,34.1216 56.5,32.5C 57.3635,33.463 58.0302,33.463 58.5,32.5C 57.9638,30.8551 57.2971,30.5218 56.5,31.5C 55.9569,31.44 55.6236,31.1067 55.5,30.5C 56.8974,28.7628 58.5641,27.4295 60.5,26.5 Z"/></g>
<g><path style="opacity:1" fill="#3d3d4d" d="M 64.5,37.5 C 64.1667,37.5 63.8333,37.5 63.5,37.5C 61.2263,34.7714 59.7263,31.7714 59,28.5C 61.3578,31.2223 63.1911,34.2223 64.5,37.5 Z"/></g>
<g><path style="opacity:1" fill="#454454" d="M 63.5,31.5 C 65.1436,31.8102 66.1436,32.8102 66.5,34.5C 66.5654,34.9382 66.3988,35.2716 66,35.5C 64.5187,34.5291 63.6854,33.1958 63.5,31.5 Z"/></g>
<g><path style="opacity:1" fill="#414151" d="M 62.5,37.5 C 61.221,38.7152 60.221,38.3818 59.5,36.5C 59.4346,36.0618 59.6012,35.7284 60,35.5C 60.7083,36.3805 61.5416,37.0472 62.5,37.5 Z"/></g>
<g><path style="opacity:1" fill="#fc4d57" d="M 55.5,47.5 C 54.707,42.2241 51.707,40.3908 46.5,42C 44.2318,46.0419 40.8985,47.3753 36.5,46C 34.84,44.5123 33.84,42.679 33.5,40.5C 35.9631,33.8676 40.6298,31.3676 47.5,33C 54.8394,35.5243 57.506,40.3576 55.5,47.5 Z"/></g>
<g><path style="opacity:1" fill="#48499b" d="M 33.5,40.5 C 33.84,42.679 34.84,44.5123 36.5,46C 40.8985,47.3753 44.2318,46.0419 46.5,42C 51.707,40.3908 54.707,42.2241 55.5,47.5C 52.4963,54.4986 47.163,56.9986 39.5,55C 34.2283,51.3163 32.2283,46.483 33.5,40.5 Z"/></g>
<g><path style="opacity:1" fill="#4b4b59" d="M 31.5,58.5 C 31.573,56.9731 30.9063,55.9731 29.5,55.5C 29.16,53.321 28.16,51.4877 26.5,50C 27.4491,49.3828 28.2825,49.5494 29,50.5C 30.5,52.8333 32,55.1667 33.5,57.5C 33.0431,58.2975 32.3764,58.6309 31.5,58.5 Z"/></g>
<g><path style="opacity:1" fill="#3e3e4d" d="M 24.5,50.5 C 26.4459,51.2544 27.2793,52.5878 27,54.5C 25.5187,53.5291 24.6854,52.1958 24.5,50.5 Z"/></g>
<g><path style="opacity:1" fill="#3e3e4d" d="M 63.5,50.5 C 64.5593,52.0699 64.0593,53.4032 62,54.5C 61.7003,52.9343 62.2003,51.601 63.5,50.5 Z"/></g>
<g><path style="opacity:1" fill="#71707d" d="M 61.5,57.5 C 59.5346,60.1402 57.5346,60.1402 55.5,57.5C 57.0252,54.437 59.0252,51.7703 61.5,49.5C 61.8333,49.6667 62.1667,49.8333 62.5,50C 59.3417,52.3692 59.0084,54.8692 61.5,57.5 Z"/></g>
<g><path style="opacity:1" fill="#4b4a59" d="M 65.5,52.5 C 66.522,53.8917 66.1887,55.225 64.5,56.5C 64.1667,56.1667 63.8333,55.8333 63.5,55.5C 64.1925,54.4822 64.8592,53.4822 65.5,52.5 Z"/></g>
<g><path style="opacity:1" fill="#484857" d="M 27.5,57.5 C 29.19,61.1873 28.69,61.854 26,59.5C 24.1256,57.431 23.1256,55.0977 23,52.5C 24.517,54.2395 26.017,55.9062 27.5,57.5 Z"/></g>
<g><path style="opacity:1" fill="#c3c3c8" d="M 29.5,55.5 C 30.9063,55.9731 31.573,56.9731 31.5,58.5C 30.0937,58.0269 29.427,57.0269 29.5,55.5 Z"/></g>
<g><path style="opacity:1" fill="#4e4e5c" d="M 29.5,55.5 C 29.427,57.0269 30.0937,58.0269 31.5,58.5C 31.44,59.0431 31.1067,59.3764 30.5,59.5C 29.4822,58.8075 28.4822,58.1408 27.5,57.5C 27.5,56.1667 28.1667,55.5 29.5,55.5 Z"/></g>
<g><path style="opacity:1" fill="#474756" d="M 61.5,57.5 C 62.3764,57.3691 63.0431,57.7025 63.5,58.5C 60.7087,62.5888 60.0421,62.2554 61.5,57.5 Z"/></g>
<g><path style="opacity:0.016" fill="#f4f5f4" d="M -0.5,69.5 C -0.5,69.1667 -0.5,68.8333 -0.5,68.5C 29.5,68.5 59.5,68.5 89.5,68.5C 89.5,68.8333 89.5,69.1667 89.5,69.5C 59.5,69.5 29.5,69.5 -0.5,69.5 Z"/></g>
</svg>
