<?xml version="1.0" encoding="UTF-8"?>
<!DOCTYPE svg PUBLIC "-//W3C//DTD SVG 1.1//EN" "http://www.w3.org/Graphics/SVG/1.1/DTD/svg11.dtd">
<svg xmlns="http://www.w3.org/2000/svg" version="1.1" width="90px" height="90px" style="shape-rendering:geometricPrecision; text-rendering:geometricPrecision; image-rendering:optimizeQuality; fill-rule:evenodd; clip-rule:evenodd" xmlns:xlink="http://www.w3.org/1999/xlink">
<g><path style="opacity:0.016" fill="#f07553" d="M -0.5,20.5 C -0.5,20.1667 -0.5,19.8333 -0.5,19.5C 29.5,19.5 59.5,19.5 89.5,19.5C 89.5,19.8333 89.5,20.1667 89.5,20.5C 59.5,20.5 29.5,20.5 -0.5,20.5 Z"/></g>
<g><path style="opacity:0.977" fill="#246055" d="M -0.5,21.5 C 9.5,21.5 19.5,21.5 29.5,21.5C 29.5,36.8333 29.5,52.1667 29.5,67.5C 19.5,67.5 9.5,67.5 -0.5,67.5C -0.5,52.1667 -0.5,36.8333 -0.5,21.5 Z"/></g>
<g><path style="opacity:0.97" fill="#f8faf9" d="M 29.5,21.5 C 39.5,21.5 49.5,21.5 59.5,21.5C 59.5,36.8333 59.5,52.1667 59.5,67.5C 49.5,67.5 39.5,67.5 29.5,67.5C 29.5,52.1667 29.5,36.8333 29.5,21.5 Z"/></g>
<g><path style="opacity:0.977" fill="#fe0000" d="M 59.5,21.5 C 69.5,21.5 79.5,21.5 89.5,21.5C 89.5,36.8333 89.5,52.1667 89.5,67.5C 79.5,67.5 69.5,67.5 59.5,67.5C 59.5,52.1667 59.5,36.8333 59.5,21.5 Z"/></g>
<g><path style="opacity:1" fill="#814413" d="M 47.5,37.5 C 45.5146,38.6405 43.8479,40.6405 42.5,43.5C 42.6567,42.1266 42.49,40.7932 42,39.5C 41.31,40.7383 40.81,40.7383 40.5,39.5C 42.3817,36.782 44.7151,36.1153 47.5,37.5 Z"/></g>
<g><path style="opacity:1" fill="#4d2412" d="M 47.5,37.5 C 52.0779,38.8432 53.5779,41.8432 52,46.5C 50.9805,45.3128 49.8139,44.3128 48.5,43.5C 47.4291,45.3255 48.0958,46.4921 50.5,47C 49.552,47.4828 48.552,47.6495 47.5,47.5C 46.8333,47.5 46.1667,47.5 45.5,47.5C 44.147,46.4739 43.147,45.1405 42.5,43.5C 43.8479,40.6405 45.5146,38.6405 47.5,37.5 Z"/></g>
<g><path style="opacity:1" fill="#cfb288" d="M 40.5,39.5 C 40.81,40.7383 41.31,40.7383 42,39.5C 42.49,40.7932 42.6567,42.1266 42.5,43.5C 43.147,45.1405 44.147,46.4739 45.5,47.5C 42.7835,48.767 40.1168,48.4337 37.5,46.5C 37.2048,45.1033 36.8714,43.6033 36.5,42C 37.5,41.6667 38.5,41.3333 39.5,41C 38.1602,38.8215 38.4935,38.3215 40.5,39.5 Z"/></g>
<g><path style="opacity:1" fill="#5d6730" d="M 37.5,46.5 C 40.1168,48.4337 42.7835,48.767 45.5,47.5C 46.1667,47.5 46.8333,47.5 47.5,47.5C 48.9002,48.1001 49.9002,49.1001 50.5,50.5C 49.1667,50.5 47.8333,50.5 46.5,50.5C 45.8826,50.6107 45.3826,50.944 45,51.5C 43.1739,49.8346 41.0072,48.8346 38.5,48.5C 37.6618,48.1583 37.3284,47.4916 37.5,46.5 Z"/></g>
<g><path style="opacity:1" fill="#968450" d="M 52.5,50.5 C 52.8567,48.4109 53.5233,46.4109 54.5,44.5C 55.5883,47.0077 54.9216,49.0077 52.5,50.5 Z"/></g>
<g><path style="opacity:1" fill="#bca97d" d="M 38.5,48.5 C 41.0072,48.8346 43.1739,49.8346 45,51.5C 45.3826,50.944 45.8826,50.6107 46.5,50.5C 46.2287,52.3117 45.562,53.9783 44.5,55.5C 38.833,54.6643 35.1664,51.4976 33.5,46C 33.8333,45.5 34.1667,45 34.5,44.5C 35.2811,45.7287 35.7811,47.062 36,48.5C 36.9772,49.7736 37.8106,49.7736 38.5,48.5 Z"/></g>
<g><path style="opacity:1" fill="#a89768" d="M 50.5,50.5 C 51.1667,50.5 51.8333,50.5 52.5,50.5C 51.601,53.4523 49.601,54.6189 46.5,54C 48.0931,53.0513 49.4264,51.8846 50.5,50.5 Z"/></g>
<g><path style="opacity:0.016" fill="#f07553" d="M -0.5,69.5 C -0.5,69.1667 -0.5,68.8333 -0.5,68.5C 29.5,68.5 59.5,68.5 89.5,68.5C 89.5,68.8333 89.5,69.1667 89.5,69.5C 59.5,69.5 29.5,69.5 -0.5,69.5 Z"/></g>
</svg>
