<?xml version="1.0" encoding="UTF-8"?>
<!DOCTYPE svg PUBLIC "-//W3C//DTD SVG 1.1//EN" "http://www.w3.org/Graphics/SVG/1.1/DTD/svg11.dtd">
<svg xmlns="http://www.w3.org/2000/svg" version="1.1" width="90px" height="90px" style="shape-rendering:geometricPrecision; text-rendering:geometricPrecision; image-rendering:optimizeQuality; fill-rule:evenodd; clip-rule:evenodd" xmlns:xlink="http://www.w3.org/1999/xlink">
<g><path style="opacity:0.928" fill="#42489b" d="M -0.5,20.5 C 29.5,20.5 59.5,20.5 89.5,20.5C 89.5,26.1667 89.5,31.8333 89.5,37.5C 59.5,37.5 29.5,37.5 -0.5,37.5C -0.5,31.8333 -0.5,26.1667 -0.5,20.5 Z"/></g>
<g><path style="opacity:1" fill="#f5f5f5" d="M -0.5,37.5 C 29.5,37.5 59.5,37.5 89.5,37.5C 89.5,42.1667 89.5,46.8333 89.5,51.5C 59.5,51.5 29.5,51.5 -0.5,51.5C -0.5,46.8333 -0.5,42.1667 -0.5,37.5 Z"/></g>
<g><path style="opacity:1" fill="#c4d686" d="M 48.5,46.5 C 45.8333,46.5 43.1667,46.5 40.5,46.5C 41.0464,44.6968 41.8797,43.0302 43,41.5C 43.6172,42.4491 43.4506,43.2825 42.5,44C 43.8333,44.6667 45.1667,44.6667 46.5,44C 45.5494,43.2825 45.3828,42.4491 46,41.5C 47.1203,43.0302 47.9536,44.6968 48.5,46.5 Z"/></g>
<g><path style="opacity:1" fill="#e6dfb0" d="M 39.5,47.5 C 42.8333,48.8333 46.1667,48.8333 49.5,47.5C 50.0431,47.56 50.3764,47.8933 50.5,48.5C 46.5,49.8333 42.5,49.8333 38.5,48.5C 38.6236,47.8933 38.9569,47.56 39.5,47.5 Z"/></g>
<g><path style="opacity:1" fill="#577dd2" d="M 40.5,46.5 C 43.1667,46.5 45.8333,46.5 48.5,46.5C 48.5,47.1667 48.8333,47.5 49.5,47.5C 46.1667,48.8333 42.8333,48.8333 39.5,47.5C 40.1667,47.5 40.5,47.1667 40.5,46.5 Z"/></g>
<g><path style="opacity:0.963" fill="#42489b" d="M -0.5,51.5 C 29.5,51.5 59.5,51.5 89.5,51.5C 89.5,56.8333 89.5,62.1667 89.5,67.5C 59.5,67.5 29.5,67.5 -0.5,67.5C -0.5,62.1667 -0.5,56.8333 -0.5,51.5 Z"/></g>
<g><path style="opacity:0.016" fill="#41479b" d="M -0.5,69.5 C -0.5,69.1667 -0.5,68.8333 -0.5,68.5C 29.5,68.5 59.5,68.5 89.5,68.5C 89.5,68.8333 89.5,69.1667 89.5,69.5C 59.5,69.5 29.5,69.5 -0.5,69.5 Z"/></g>
</svg>
