<?xml version="1.0" encoding="UTF-8"?>
<!DOCTYPE svg PUBLIC "-//W3C//DTD SVG 1.1//EN" "http://www.w3.org/Graphics/SVG/1.1/DTD/svg11.dtd">
<svg xmlns="http://www.w3.org/2000/svg" version="1.1" width="90px" height="90px" style="shape-rendering:geometricPrecision; text-rendering:geometricPrecision; image-rendering:optimizeQuality; fill-rule:evenodd; clip-rule:evenodd" xmlns:xlink="http://www.w3.org/1999/xlink">
<g><path style="opacity:0.993" fill="#fe0031" d="M -0.5,21.5 C 29.5,21.5 59.5,21.5 89.5,21.5C 89.5,26.5 89.5,31.5 89.5,36.5C 59.5,36.5 29.5,36.5 -0.5,36.5C -0.5,31.5 -0.5,26.5 -0.5,21.5 Z"/></g>
<g><path style="opacity:1" fill="#fdfafc" d="M -0.5,36.5 C 29.5,36.5 59.5,36.5 89.5,36.5C 89.5,41.5 89.5,46.5 89.5,51.5C 59.5,51.5 29.5,51.5 -0.5,51.5C -0.5,46.5 -0.5,41.5 -0.5,36.5 Z"/></g>
<g><path style="opacity:1" fill="#013298" d="M -0.5,51.5 C 29.5,51.5 59.5,51.5 89.5,51.5C 89.5,56.8333 89.5,62.1667 89.5,67.5C 59.5,67.5 29.5,67.5 -0.5,67.5C -0.5,62.1667 -0.5,56.8333 -0.5,51.5 Z"/></g>
</svg>
