<?xml version="1.0" encoding="UTF-8"?>
<!DOCTYPE svg PUBLIC "-//W3C//DTD SVG 1.1//EN" "http://www.w3.org/Graphics/SVG/1.1/DTD/svg11.dtd">
<svg xmlns="http://www.w3.org/2000/svg" version="1.1" width="90px" height="90px" style="shape-rendering:geometricPrecision; text-rendering:geometricPrecision; image-rendering:optimizeQuality; fill-rule:evenodd; clip-rule:evenodd" xmlns:xlink="http://www.w3.org/1999/xlink">
<g><path style="opacity:0.939" fill="#f1f1f3" d="M -0.5,20.5 C 14.5,20.5 29.5,20.5 44.5,20.5C 44.5,28.5 44.5,36.5 44.5,44.5C 29.5,44.5 14.5,44.5 -0.5,44.5C -0.5,36.5 -0.5,28.5 -0.5,20.5 Z"/></g>
<g><path style="opacity:1" fill="#ff5159" d="M 44.5,20.5 C 59.5,20.5 74.5,20.5 89.5,20.5C 89.5,28.5 89.5,36.5 89.5,44.5C 74.5,44.5 59.5,44.5 44.5,44.5C 44.5,36.5 44.5,28.5 44.5,20.5 Z"/></g>
<g><path style="opacity:1" fill="#4876ce" d="M 26.5,27.5 C 28.1765,28.1834 28.8432,29.5168 28.5,31.5C 29.8734,31.3433 31.2068,31.51 32.5,32C 31.1341,33.5998 30.1341,35.4332 29.5,37.5C 28.1667,36.1667 26.8333,36.1667 25.5,37.5C 24.8659,35.4332 23.8659,33.5998 22.5,32C 23.7932,31.51 25.1266,31.3433 26.5,31.5C 26.5,30.1667 26.5,28.8333 26.5,27.5 Z"/></g>
<g><path style="opacity:0.977" fill="#4072cc" d="M -0.5,44.5 C 14.5,44.5 29.5,44.5 44.5,44.5C 44.5,52.1667 44.5,59.8333 44.5,67.5C 29.5,67.5 14.5,67.5 -0.5,67.5C -0.5,59.8333 -0.5,52.1667 -0.5,44.5 Z"/></g>
<g><path style="opacity:0.971" fill="#f4f4f4" d="M 44.5,44.5 C 59.5,44.5 74.5,44.5 89.5,44.5C 89.5,52.1667 89.5,59.8333 89.5,67.5C 74.5,67.5 59.5,67.5 44.5,67.5C 44.5,59.8333 44.5,52.1667 44.5,44.5 Z"/></g>
<g><path style="opacity:0.998" fill="#fe565d" d="M 60.5,50.5 C 62.0481,50.8212 62.7148,51.8212 62.5,53.5C 66.5148,53.2759 67.1815,54.4425 64.5,57C 65.674,60.9729 64.674,61.4729 61.5,58.5C 58.4617,61.4755 57.4617,61.1422 58.5,57.5C 55.5379,54.6121 56.2046,53.2787 60.5,53.5C 60.5,52.5 60.5,51.5 60.5,50.5 Z"/></g>
<g><path style="opacity:0.02" fill="#fb8e92" d="M -0.5,68.5 C 0.833333,69.1667 0.833333,69.1667 -0.5,68.5 Z"/></g>
<g><path style="opacity:0.02" fill="#fb8e92" d="M 1.5,68.5 C 2.83333,69.1667 2.83333,69.1667 1.5,68.5 Z"/></g>
<g><path style="opacity:0.02" fill="#fb8e92" d="M 3.5,68.5 C 4.83333,69.1667 4.83333,69.1667 3.5,68.5 Z"/></g>
<g><path style="opacity:0.02" fill="#fb8e92" d="M 5.5,68.5 C 6.83333,69.1667 6.83333,69.1667 5.5,68.5 Z"/></g>
<g><path style="opacity:0.02" fill="#fb8e92" d="M 7.5,68.5 C 8.83333,69.1667 8.83333,69.1667 7.5,68.5 Z"/></g>
<g><path style="opacity:0.02" fill="#fb8e92" d="M 9.5,68.5 C 10.8333,69.1667 10.8333,69.1667 9.5,68.5 Z"/></g>
<g><path style="opacity:0.02" fill="#fb8e92" d="M 11.5,68.5 C 12.8333,69.1667 12.8333,69.1667 11.5,68.5 Z"/></g>
<g><path style="opacity:0.02" fill="#fb8e92" d="M 13.5,68.5 C 14.8333,69.1667 14.8333,69.1667 13.5,68.5 Z"/></g>
<g><path style="opacity:0.02" fill="#fb8e92" d="M 15.5,68.5 C 16.8333,69.1667 16.8333,69.1667 15.5,68.5 Z"/></g>
<g><path style="opacity:0.02" fill="#fb8e92" d="M 17.5,68.5 C 18.8333,69.1667 18.8333,69.1667 17.5,68.5 Z"/></g>
<g><path style="opacity:0.02" fill="#fb8e92" d="M 19.5,68.5 C 20.8333,69.1667 20.8333,69.1667 19.5,68.5 Z"/></g>
<g><path style="opacity:0.02" fill="#fb8e92" d="M 21.5,68.5 C 22.8333,69.1667 22.8333,69.1667 21.5,68.5 Z"/></g>
<g><path style="opacity:0.02" fill="#fb8e92" d="M 23.5,68.5 C 24.8333,69.1667 24.8333,69.1667 23.5,68.5 Z"/></g>
<g><path style="opacity:0.02" fill="#fb8e92" d="M 25.5,68.5 C 26.8333,69.1667 26.8333,69.1667 25.5,68.5 Z"/></g>
<g><path style="opacity:0.02" fill="#fb8e92" d="M 27.5,68.5 C 28.8333,69.1667 28.8333,69.1667 27.5,68.5 Z"/></g>
<g><path style="opacity:0.02" fill="#fb8e92" d="M 29.5,68.5 C 30.8333,69.1667 30.8333,69.1667 29.5,68.5 Z"/></g>
<g><path style="opacity:0.02" fill="#fb8e92" d="M 31.5,68.5 C 32.8333,69.1667 32.8333,69.1667 31.5,68.5 Z"/></g>
<g><path style="opacity:0.02" fill="#fb8e92" d="M 33.5,68.5 C 34.8333,69.1667 34.8333,69.1667 33.5,68.5 Z"/></g>
<g><path style="opacity:0.02" fill="#fb8e92" d="M 35.5,68.5 C 36.8333,69.1667 36.8333,69.1667 35.5,68.5 Z"/></g>
<g><path style="opacity:0.02" fill="#fb8e92" d="M 37.5,68.5 C 38.8333,69.1667 38.8333,69.1667 37.5,68.5 Z"/></g>
<g><path style="opacity:0.02" fill="#fb8e92" d="M 39.5,68.5 C 40.8333,69.1667 40.8333,69.1667 39.5,68.5 Z"/></g>
<g><path style="opacity:0.02" fill="#fb8e92" d="M 41.5,68.5 C 42.8333,69.1667 42.8333,69.1667 41.5,68.5 Z"/></g>
<g><path style="opacity:0.02" fill="#fb8e92" d="M 89.5,68.5 C 89.5,68.8333 89.5,69.1667 89.5,69.5C 28.1667,69.1667 28.1667,68.8333 89.5,68.5 Z"/></g>
</svg>
