<?xml version="1.0" encoding="UTF-8"?>
<!DOCTYPE svg PUBLIC "-//W3C//DTD SVG 1.1//EN" "http://www.w3.org/Graphics/SVG/1.1/DTD/svg11.dtd">
<svg xmlns="http://www.w3.org/2000/svg" version="1.1" width="90px" height="90px" style="shape-rendering:geometricPrecision; text-rendering:geometricPrecision; image-rendering:optimizeQuality; fill-rule:evenodd; clip-rule:evenodd" xmlns:xlink="http://www.w3.org/1999/xlink">
<g><path style="opacity:0.882" fill="#ec0001" d="M -0.5,21.5 C -0.5,21.1667 -0.5,20.8333 -0.5,20.5C 29.5,20.5 59.5,20.5 89.5,20.5C 89.5,23.8333 89.5,27.1667 89.5,30.5C 64.8333,30.5 40.1667,30.5 15.5,30.5C 9.87017,28.0186 4.53683,25.0186 -0.5,21.5 Z"/></g>
<g><path style="opacity:1" fill="#134fee" d="M -0.5,21.5 C 4.53683,25.0186 9.87017,28.0186 15.5,30.5C 20.5016,34.0031 25.835,37.0031 31.5,39.5C 31.8333,40.5 32.5,41.1667 33.5,41.5C 35.1401,42.3201 36.8068,43.1534 38.5,44C 36.2528,45.2775 34.2528,46.7775 32.5,48.5C 26.6768,50.6627 21.3435,53.6627 16.5,57.5C 10.7019,60.2326 5.03525,63.2326 -0.5,66.5C -0.5,51.5 -0.5,36.5 -0.5,21.5 Z"/></g>
<g><path style="opacity:1" fill="#fef5f5" d="M 15.5,30.5 C 40.1667,30.5 64.8333,30.5 89.5,30.5C 89.5,33.5 89.5,36.5 89.5,39.5C 70.1667,39.5 50.8333,39.5 31.5,39.5C 25.835,37.0031 20.5016,34.0031 15.5,30.5 Z"/></g>
<g><path style="opacity:1" fill="#d9e2fd" d="M 11.5,37.5 C 13.1765,38.1834 13.8432,39.5168 13.5,41.5C 15.5273,41.3379 17.5273,41.5045 19.5,42C 18.4214,42.956 17.2547,43.7894 16,44.5C 16.4087,46.2251 16.2421,47.8918 15.5,49.5C 14.5,48.8333 13.5,48.1667 12.5,47.5C 9.18193,50.3588 8.18193,49.6922 9.5,45.5C 8.39469,44.1076 7.06136,42.941 5.5,42C 7.16667,41.6667 8.83333,41.3333 10.5,41C 11.3366,39.9887 11.67,38.8221 11.5,37.5 Z"/></g>
<g><path style="opacity:1" fill="#f14849" d="M 31.5,39.5 C 50.8333,39.5 70.1667,39.5 89.5,39.5C 89.5,39.8333 89.5,40.1667 89.5,40.5C 70.6592,40.1698 51.9925,40.5031 33.5,41.5C 32.5,41.1667 31.8333,40.5 31.5,39.5 Z"/></g>
<g><path style="opacity:1" fill="#ec0001" d="M 33.5,41.5 C 51.9925,40.5031 70.6592,40.1698 89.5,40.5C 89.5,43.1667 89.5,45.8333 89.5,48.5C 70.5,48.5 51.5,48.5 32.5,48.5C 34.2528,46.7775 36.2528,45.2775 38.5,44C 36.8068,43.1534 35.1401,42.3201 33.5,41.5 Z"/></g>
<g><path style="opacity:1" fill="#fdf6f7" d="M 32.5,48.5 C 51.5,48.5 70.5,48.5 89.5,48.5C 89.5,51.5 89.5,54.5 89.5,57.5C 65.1667,57.5 40.8333,57.5 16.5,57.5C 21.3435,53.6627 26.6768,50.6627 32.5,48.5 Z"/></g>
<g><path style="opacity:0.935" fill="#ed0f0a" d="M 16.5,57.5 C 40.8333,57.5 65.1667,57.5 89.5,57.5C 89.5,60.8333 89.5,64.1667 89.5,67.5C 59.5,67.5 29.5,67.5 -0.5,67.5C -0.5,67.1667 -0.5,66.8333 -0.5,66.5C 5.03525,63.2326 10.7019,60.2326 16.5,57.5 Z"/></g>
<g><path style="opacity:0.012" fill="#ec0002" d="M -0.5,69.5 C -0.5,69.1667 -0.5,68.8333 -0.5,68.5C 29.5,68.5 59.5,68.5 89.5,68.5C 89.5,68.8333 89.5,69.1667 89.5,69.5C 59.5,69.5 29.5,69.5 -0.5,69.5 Z"/></g>
</svg>
