<?xml version="1.0" encoding="UTF-8"?>
<!DOCTYPE svg PUBLIC "-//W3C//DTD SVG 1.1//EN" "http://www.w3.org/Graphics/SVG/1.1/DTD/svg11.dtd">
<svg xmlns="http://www.w3.org/2000/svg" version="1.1" width="90px" height="90px" style="shape-rendering:geometricPrecision; text-rendering:geometricPrecision; image-rendering:optimizeQuality; fill-rule:evenodd; clip-rule:evenodd" xmlns:xlink="http://www.w3.org/1999/xlink">
<g><path style="opacity:0.016" fill="#d0e53b" d="M -0.5,20.5 C -0.5,20.1667 -0.5,19.8333 -0.5,19.5C 29.5,19.5 59.5,19.5 89.5,19.5C 89.5,19.8333 89.5,20.1667 89.5,20.5C 59.5,20.5 29.5,20.5 -0.5,20.5 Z"/></g>
<g><path style="opacity:0.964" fill="#0d0495" d="M -0.5,21.5 C 10.8333,21.5 22.1667,21.5 33.5,21.5C 33.5,29.1667 33.5,36.8333 33.5,44.5C 22.1667,44.5 10.8333,44.5 -0.5,44.5C -0.5,36.8333 -0.5,29.1667 -0.5,21.5 Z"/></g>
<g><path style="opacity:0.977" fill="#fe0000" d="M 33.5,21.5 C 52.1667,21.5 70.8333,21.5 89.5,21.5C 89.5,36.8333 89.5,52.1667 89.5,67.5C 59.5,67.5 29.5,67.5 -0.5,67.5C -0.5,59.8333 -0.5,52.1667 -0.5,44.5C 10.8333,44.5 22.1667,44.5 33.5,44.5C 33.5,36.8333 33.5,29.1667 33.5,21.5 Z"/></g>
<g><path style="opacity:1" fill="#9492d2" d="M 19.5,30.5 C 17.5,29.1667 15.5,29.1667 13.5,30.5C 11.81,26.8127 12.31,26.146 15,28.5C 16,24.5 17,24.5 18,28.5C 20.69,26.146 21.19,26.8127 19.5,30.5 Z"/></g>
<g><path style="opacity:1" fill="#dfdef1" d="M 13.5,30.5 C 15.5,29.1667 17.5,29.1667 19.5,30.5C 22.797,29.1453 23.1304,29.6453 20.5,32C 23.6677,32.5823 24.001,33.5823 21.5,35C 23.7073,37.9835 23.2073,38.1502 20,35.5C 19.6174,36.056 19.1174,36.3893 18.5,36.5C 16.8008,36.6602 15.1341,36.4935 13.5,36C 12.6921,34.2942 11.3588,33.4609 9.5,33.5C 9.49358,32.5826 10.4936,32.0826 12.5,32C 10.7295,31.4646 10.3961,30.6313 11.5,29.5C 12.1835,29.8627 12.8501,30.1961 13.5,30.5 Z"/></g>
<g><path style="opacity:1" fill="#9794d3" d="M 9.5,33.5 C 11.3588,33.4609 12.6921,34.2942 13.5,36C 15.1341,36.4935 16.8008,36.6602 18.5,36.5C 17.5772,40.8056 16.4105,41.1389 15,37.5C 13.5823,40.001 12.5823,39.6677 12,36.5C 8.88969,37.6734 8.72303,37.1734 11.5,35C 10.5842,34.7216 9.91753,34.2216 9.5,33.5 Z"/></g>
<g><path style="opacity:0.016" fill="#fe0000" d="M -0.5,69.5 C -0.5,69.1667 -0.5,68.8333 -0.5,68.5C 29.5,68.5 59.5,68.5 89.5,68.5C 89.5,68.8333 89.5,69.1667 89.5,69.5C 59.5,69.5 29.5,69.5 -0.5,69.5 Z"/></g>
</svg>
