<?xml version="1.0" encoding="UTF-8"?>
<!DOCTYPE svg PUBLIC "-//W3C//DTD SVG 1.1//EN" "http://www.w3.org/Graphics/SVG/1.1/DTD/svg11.dtd">
<svg xmlns="http://www.w3.org/2000/svg" version="1.1" width="90px" height="90px" style="shape-rendering:geometricPrecision; text-rendering:geometricPrecision; image-rendering:optimizeQuality; fill-rule:evenodd; clip-rule:evenodd" xmlns:xlink="http://www.w3.org/1999/xlink">
<g><path style="opacity:0.004" fill="#a60000" d="M -0.5,19.5 C -0.5,19.1667 -0.5,18.8333 -0.5,18.5C 29.5,18.5 59.5,18.5 89.5,18.5C 89.5,18.8333 89.5,19.1667 89.5,19.5C 59.5,19.5 29.5,19.5 -0.5,19.5 Z"/></g>
<g><path style="opacity:1" fill="#b72b3b" d="M 35.5,20.5 C 53.5,20.5 71.5,20.5 89.5,20.5C 89.5,21.8333 89.5,23.1667 89.5,24.5C 71.5,24.5 53.5,24.5 35.5,24.5C 35.5,23.1667 35.5,21.8333 35.5,20.5 Z"/></g>
<g><path style="opacity:1" fill="#423f71" d="M -0.5,20.5 C 11.5,20.5 23.5,20.5 35.5,20.5C 35.5,21.8333 35.5,23.1667 35.5,24.5C 35.5,25.5 35.5,26.5 35.5,27.5C 35.5,28.8333 35.5,30.1667 35.5,31.5C 35.5,32.8333 35.5,34.1667 35.5,35.5C 35.5,36.5 35.5,37.5 35.5,38.5C 35.5,39.8333 35.5,41.1667 35.5,42.5C 35.5,43.8333 35.5,45.1667 35.5,46.5C 23.5,46.5 11.5,46.5 -0.5,46.5C -0.5,37.8333 -0.5,29.1667 -0.5,20.5 Z"/></g>
<g><path style="opacity:1" fill="#a3a2bb" d="M 1.5,22.5 C 3.33702,22.6395 3.67036,23.3061 2.5,24.5C 1.70245,24.0431 1.36912,23.3764 1.5,22.5 Z"/></g>
<g><path style="opacity:1" fill="#a3a2bb" d="M 7.5,22.5 C 9.33702,22.6395 9.67036,23.3061 8.5,24.5C 7.70245,24.0431 7.36912,23.3764 7.5,22.5 Z"/></g>
<g><path style="opacity:1" fill="#a3a2bb" d="M 13.5,22.5 C 15.337,22.6395 15.6704,23.3061 14.5,24.5C 13.7025,24.0431 13.3691,23.3764 13.5,22.5 Z"/></g>
<g><path style="opacity:1" fill="#a3a2bb" d="M 19.5,22.5 C 21.337,22.6395 21.6704,23.3061 20.5,24.5C 19.7025,24.0431 19.3691,23.3764 19.5,22.5 Z"/></g>
<g><path style="opacity:1" fill="#fefdfd" d="M 35.5,24.5 C 53.5,24.5 71.5,24.5 89.5,24.5C 89.5,25.5 89.5,26.5 89.5,27.5C 71.5,27.5 53.5,27.5 35.5,27.5C 35.5,26.5 35.5,25.5 35.5,24.5 Z"/></g>
<g><path style="opacity:1" fill="#c6bdcd" d="M 4.5,24.5 C 6.33702,24.6395 6.67036,25.3061 5.5,26.5C 4.70245,26.0431 4.36912,25.3764 4.5,24.5 Z"/></g>
<g><path style="opacity:1" fill="#b9b8cb" d="M 10.5,24.5 C 12.337,24.6395 12.6704,25.3061 11.5,26.5C 10.7025,26.0431 10.3691,25.3764 10.5,24.5 Z"/></g>
<g><path style="opacity:1" fill="#b9b8cb" d="M 16.5,24.5 C 18.337,24.6395 18.6704,25.3061 17.5,26.5C 16.7025,26.0431 16.3691,25.3764 16.5,24.5 Z"/></g>
<g><path style="opacity:1" fill="#b9b8cb" d="M 22.5,24.5 C 24.337,24.6395 24.6704,25.3061 23.5,26.5C 22.7025,26.0431 22.3691,25.3764 22.5,24.5 Z"/></g>
<g><path style="opacity:1" fill="#bbbacc" d="M 28.5,24.5 C 30.337,24.6395 30.6704,25.3061 29.5,26.5C 28.7025,26.0431 28.3691,25.3764 28.5,24.5 Z"/></g>
<g><path style="opacity:1" fill="#b0afc4" d="M 1.5,27.5 C 3.33702,27.6395 3.67036,28.3061 2.5,29.5C 1.70245,29.0431 1.36912,28.3764 1.5,27.5 Z"/></g>
<g><path style="opacity:1" fill="#b0afc4" d="M 7.5,29.5 C 7.63945,27.663 8.30612,27.3296 9.5,28.5C 9.04311,29.2975 8.37644,29.6309 7.5,29.5 Z"/></g>
<g><path style="opacity:1" fill="#b2b1c6" d="M 13.5,27.5 C 15.337,27.6395 15.6704,28.3061 14.5,29.5C 13.7025,29.0431 13.3691,28.3764 13.5,27.5 Z"/></g>
<g><path style="opacity:1" fill="#a4a3bb" d="M 19.5,27.5 C 21.337,27.6395 21.6704,28.3061 20.5,29.5C 19.7025,29.0431 19.3691,28.3764 19.5,27.5 Z"/></g>
<g><path style="opacity:1" fill="#a4a3bb" d="M 31.5,27.5 C 33.337,27.6395 33.6704,28.3061 32.5,29.5C 31.7025,29.0431 31.3691,28.3764 31.5,27.5 Z"/></g>
<g><path style="opacity:1" fill="#ba3a44" d="M 35.5,27.5 C 53.5,27.5 71.5,27.5 89.5,27.5C 89.5,28.8333 89.5,30.1667 89.5,31.5C 71.5,31.5 53.5,31.5 35.5,31.5C 35.5,30.1667 35.5,28.8333 35.5,27.5 Z"/></g>
<g><path style="opacity:1" fill="#f8ecee" d="M 35.5,31.5 C 53.5,31.5 71.5,31.5 89.5,31.5C 89.5,32.8333 89.5,34.1667 89.5,35.5C 71.5,35.5 53.5,35.5 35.5,35.5C 35.5,34.1667 35.5,32.8333 35.5,31.5 Z"/></g>
<g><path style="opacity:1" fill="#abaac1" d="M 1.5,32.5 C 3.33702,32.6395 3.67036,33.3061 2.5,34.5C 1.70245,34.0431 1.36912,33.3764 1.5,32.5 Z"/></g>
<g><path style="opacity:1" fill="#645f89" d="M 7.5,29.5 C 9.26541,31.5002 10.9321,33.6669 12.5,36C 11.9777,36.9503 11.311,37.7836 10.5,38.5C 11.8532,39.5237 12.5198,40.857 12.5,42.5C 10.857,42.4802 9.5237,43.1468 8.5,44.5C 7.28882,43.7261 7.28882,42.8928 8.5,42C 7.45104,41.5078 6.45104,41.6744 5.5,42.5C 4.61432,41.675 4.28099,40.675 4.5,39.5C 5.55198,39.6495 6.55198,39.4828 7.5,39C 5.56138,38.0922 4.56138,36.5922 4.5,34.5C 5.55198,34.6495 6.55198,34.4828 7.5,34C 5.56138,33.0922 4.56138,31.5922 4.5,29.5C 5.5,29.5 6.5,29.5 7.5,29.5 Z"/></g>
<g><path style="opacity:1" fill="#abaac1" d="M 13.5,32.5 C 15.337,32.6395 15.6704,33.3061 14.5,34.5C 13.7025,34.0431 13.3691,33.3764 13.5,32.5 Z"/></g>
<g><path style="opacity:1" fill="#b3b2c6" d="M 19.5,32.5 C 21.337,32.6395 21.6704,33.3061 20.5,34.5C 19.7025,34.0431 19.3691,33.3764 19.5,32.5 Z"/></g>
<g><path style="opacity:1" fill="#b3b2c6" d="M 31.5,32.5 C 33.337,32.6395 33.6704,33.3061 32.5,34.5C 31.7025,34.0431 31.3691,33.3764 31.5,32.5 Z"/></g>
<g><path style="opacity:1" fill="#65618a" d="M 24.5,27.5 C 26.5,28.1667 28.5,28.8333 30.5,29.5C 30.4386,31.5922 29.4386,33.0922 27.5,34C 28.448,34.4828 29.448,34.6495 30.5,34.5C 27.8333,41.1667 25.1667,41.1667 22.5,34.5C 23.552,34.6495 24.552,34.4828 25.5,34C 24.2718,33.221 23.2718,32.221 22.5,31C 23.4295,29.9231 24.0962,28.7564 24.5,27.5 Z"/></g>
<g><path style="opacity:1" fill="#b01f31" d="M 35.5,35.5 C 53.5,35.5 71.5,35.5 89.5,35.5C 89.5,36.5 89.5,37.5 89.5,38.5C 71.5,38.5 53.5,38.5 35.5,38.5C 35.5,37.5 35.5,36.5 35.5,35.5 Z"/></g>
<g><path style="opacity:1" fill="#bab9cc" d="M 13.5,37.5 C 15.337,37.6395 15.6704,38.3061 14.5,39.5C 13.7025,39.0431 13.3691,38.3764 13.5,37.5 Z"/></g>
<g><path style="opacity:1" fill="#b0afc4" d="M 19.5,37.5 C 21.337,37.6395 21.6704,38.3061 20.5,39.5C 19.7025,39.0431 19.3691,38.3764 19.5,37.5 Z"/></g>
<g><path style="opacity:1" fill="#ababc0" d="M 31.5,37.5 C 33.337,37.6395 33.6704,38.3061 32.5,39.5C 31.7025,39.0431 31.3691,38.3764 31.5,37.5 Z"/></g>
<g><path style="opacity:1" fill="#aeadc3" d="M 1.5,37.5 C 3.33702,37.6395 3.67036,38.3061 2.5,39.5C 1.70245,39.0431 1.36912,38.3764 1.5,37.5 Z"/></g>
<g><path style="opacity:1" fill="#f8eaec" d="M 35.5,38.5 C 53.5,38.5 71.5,38.5 89.5,38.5C 89.5,39.8333 89.5,41.1667 89.5,42.5C 71.5,42.5 53.5,42.5 35.5,42.5C 35.5,41.1667 35.5,39.8333 35.5,38.5 Z"/></g>
<g><path style="opacity:1" fill="#afaec3" d="M 1.5,42.5 C 3.33702,42.6395 3.67036,43.3061 2.5,44.5C 1.70245,44.0431 1.36912,43.3764 1.5,42.5 Z"/></g>
<g><path style="opacity:1" fill="#c0bfd0" d="M 13.5,42.5 C 15.337,42.6395 15.6704,43.3061 14.5,44.5C 13.7025,44.0431 13.3691,43.3764 13.5,42.5 Z"/></g>
<g><path style="opacity:1" fill="#b3b2c6" d="M 19.5,42.5 C 21.337,42.6395 21.6704,43.3061 20.5,44.5C 19.7025,44.0431 19.3691,43.3764 19.5,42.5 Z"/></g>
<g><path style="opacity:1" fill="#b3b2c6" d="M 25.5,42.5 C 27.337,42.6395 27.6704,43.3061 26.5,44.5C 25.7025,44.0431 25.3691,43.3764 25.5,42.5 Z"/></g>
<g><path style="opacity:1" fill="#b3b2c6" d="M 31.5,42.5 C 33.337,42.6395 33.6704,43.3061 32.5,44.5C 31.7025,44.0431 31.3691,43.3764 31.5,42.5 Z"/></g>
<g><path style="opacity:1" fill="#b93641" d="M 35.5,42.5 C 53.5,42.5 71.5,42.5 89.5,42.5C 89.5,43.8333 89.5,45.1667 89.5,46.5C 71.5,46.5 53.5,46.5 35.5,46.5C 35.5,45.1667 35.5,43.8333 35.5,42.5 Z"/></g>
<g><path style="opacity:1" fill="#fefffe" d="M -0.5,46.5 C 11.5,46.5 23.5,46.5 35.5,46.5C 53.5,46.5 71.5,46.5 89.5,46.5C 89.5,47.5 89.5,48.5 89.5,49.5C 59.5,49.5 29.5,49.5 -0.5,49.5C -0.5,48.5 -0.5,47.5 -0.5,46.5 Z"/></g>
<g><path style="opacity:1" fill="#b73541" d="M -0.5,49.5 C 29.5,49.5 59.5,49.5 89.5,49.5C 89.5,50.8333 89.5,52.1667 89.5,53.5C 59.5,53.5 29.5,53.5 -0.5,53.5C -0.5,52.1667 -0.5,50.8333 -0.5,49.5 Z"/></g>
<g><path style="opacity:1" fill="#f8e8ea" d="M -0.5,53.5 C 29.5,53.5 59.5,53.5 89.5,53.5C 89.5,54.8333 89.5,56.1667 89.5,57.5C 59.5,57.5 29.5,57.5 -0.5,57.5C -0.5,56.1667 -0.5,54.8333 -0.5,53.5 Z"/></g>
<g><path style="opacity:1" fill="#b01c2f" d="M -0.5,57.5 C 29.5,57.5 59.5,57.5 89.5,57.5C 89.5,58.5 89.5,59.5 89.5,60.5C 59.5,60.5 29.5,60.5 -0.5,60.5C -0.5,59.5 -0.5,58.5 -0.5,57.5 Z"/></g>
<g><path style="opacity:1" fill="#f8ecee" d="M -0.5,60.5 C 29.5,60.5 59.5,60.5 89.5,60.5C 89.5,61.8333 89.5,63.1667 89.5,64.5C 59.5,64.5 29.5,64.5 -0.5,64.5C -0.5,63.1667 -0.5,61.8333 -0.5,60.5 Z"/></g>
<g><path style="opacity:0.447" fill="#b42234" d="M -0.5,64.5 C 29.5,64.5 59.5,64.5 89.5,64.5C 89.5,65.8333 89.5,67.1667 89.5,68.5C 59.5,68.5 29.5,68.5 -0.5,68.5C -0.5,67.1667 -0.5,65.8333 -0.5,64.5 Z"/></g>
<g><path style="opacity:0.016" fill="#be3f3e" d="M -0.5,70.5 C -0.5,70.1667 -0.5,69.8333 -0.5,69.5C 29.5,69.5 59.5,69.5 89.5,69.5C 89.5,69.8333 89.5,70.1667 89.5,70.5C 59.5,70.5 29.5,70.5 -0.5,70.5 Z"/></g>
</svg>
