<?xml version="1.0" encoding="UTF-8"?>
<!DOCTYPE svg PUBLIC "-//W3C//DTD SVG 1.1//EN" "http://www.w3.org/Graphics/SVG/1.1/DTD/svg11.dtd">
<svg xmlns="http://www.w3.org/2000/svg" version="1.1" width="90px" height="90px" style="shape-rendering:geometricPrecision; text-rendering:geometricPrecision; image-rendering:optimizeQuality; fill-rule:evenodd; clip-rule:evenodd" xmlns:xlink="http://www.w3.org/1999/xlink">
<g><path style="opacity:1" fill="#fddc5a" d="M -0.5,20.5 C 29.5,20.5 59.5,20.5 89.5,20.5C 89.5,25.8333 89.5,31.1667 89.5,36.5C 59.5,36.5 29.5,36.5 -0.5,36.5C -0.5,31.1667 -0.5,25.8333 -0.5,20.5 Z"/></g>
<g><path style="opacity:1" fill="#41479b" d="M -0.5,36.5 C 29.5,36.5 59.5,36.5 89.5,36.5C 89.5,41.5 89.5,46.5 89.5,51.5C 59.5,51.5 29.5,51.5 -0.5,51.5C -0.5,46.5 -0.5,41.5 -0.5,36.5 Z"/></g>
<g><path style="opacity:1" fill="#cfd1e2" d="M 38.5,41.5 C 38.6395,39.663 39.3061,39.3296 40.5,40.5C 40.0431,41.2975 39.3764,41.6309 38.5,41.5 Z"/></g>
<g><path style="opacity:1" fill="#d0d1e2" d="M 50.5,41.5 C 48.663,41.3605 48.3296,40.6939 49.5,39.5C 50.2975,39.9569 50.6309,40.6236 50.5,41.5 Z"/></g>
<g><path style="opacity:1" fill="#8687bd" d="M 38.5,41.5 C 37.7853,43.7547 36.452,45.5881 34.5,47C 35.7112,47.8928 35.7112,48.7261 34.5,49.5C 32.8054,45.2275 34.1388,42.5609 38.5,41.5 Z"/></g>
<g><path style="opacity:1" fill="#8c8dc0" d="M 50.5,41.5 C 54.7259,42.7003 56.3926,45.367 55.5,49.5C 53.3706,47.0553 51.704,44.3886 50.5,41.5 Z"/></g>
<g><path style="opacity:1" fill="#fc4a55" d="M -0.5,51.5 C 29.5,51.5 59.5,51.5 89.5,51.5C 89.5,56.8333 89.5,62.1667 89.5,67.5C 59.5,67.5 29.5,67.5 -0.5,67.5C -0.5,62.1667 -0.5,56.8333 -0.5,51.5 Z"/></g>
<g><path style="opacity:0.02" fill="#feae57" d="M -0.5,69.5 C -0.5,69.1667 -0.5,68.8333 -0.5,68.5C 29.5,68.5 59.5,68.5 89.5,68.5C 89.5,68.8333 89.5,69.1667 89.5,69.5C 59.5,69.5 29.5,69.5 -0.5,69.5 Z"/></g>
</svg>
