<?xml version="1.0" encoding="utf-8"?>
<!-- Generator: Adobe Illustrator 21.1.0, SVG Export Plug-In . SVG Version: 6.00 Build 0)  -->
<!DOCTYPE svg PUBLIC "-//W3C//DTD SVG 1.1//EN" "http://www.w3.org/Graphics/SVG/1.1/DTD/svg11.dtd">
<svg version="1.1" id="Layer_1" xmlns="http://www.w3.org/2000/svg" xmlns:xlink="http://www.w3.org/1999/xlink" x="0px" y="0px"
	 width="310.7px" height="309.1px" viewBox="0 0 310.7 309.1" style="enable-background:new 0 0 310.7 309.1;" xml:space="preserve"
	>
<style type="text/css">
	.st0{fill:#FFFFFF;}
	.st1{fill:#050505;}
	.st2{fill:#B0063A;}
	.st3{fill:none;stroke:#000000;}
	.st4{fill:#FDBD12;}
</style>
<g>
	<path class="st0" d="M202.2,295.6c-21.9-25.1-44.8-39.3-60.1-46.7c-14.9-7.2-25.6-9.6-27.3-9.9l-9.4-1.7l-0.2-9.1
		c-0.1-7.8-12.4-23.3-18.9-29.9l-0.7-0.7l-0.2-0.4c-18.3-21.1-22.6-40.3-23.6-49.5C34.7,126,24.6,96.4,24.2,95.1l-3.9-11.9
		C17,78.4,12.8,71.5,9.2,63.4l-0.1-0.3L9,63L0.2,39.9l5.4,2c-2.5-7.2-3.5-13.1-3.9-16.6l0-0.1l0-0.2L0,0l19.5,15.3
		c30.2,23.7,82.7,40.7,86.8,42L183.2,75l0.4,0.2c49.3,15.6,73.7,43.1,85.5,63.4c9.5,16.4,12.7,30.8,13.7,37.7
		c31.2,29.8,28.3,61.1,27.3,67.2l0,0.2l-1.8,10.3l-10.3-1.3c-4.3-0.5-8.1-0.8-11.7-0.8c-46,0-63.7,36.7-65.5,40.9l-6.9,16.2
		L202.2,295.6z"/>
	<path class="st0" d="M206,292.4c-22.6-25.9-46-40.3-61.7-47.9c-17-8.2-28.8-10.4-29-10.4l-5-0.9l-0.1-5
		c-0.1-10.6-15.1-28-20.4-33.3l-0.1-0.1l-0.1-0.2c-19.1-21.8-22.5-41.6-23-49.3c-27.3-21.1-37.3-50.5-37.7-51.7L25.1,82l0.5,0.2
		c-8-11.2-11.7-20.6-12-21.2L8.8,48.5l5.9,2.2c-7.1-14-8-25.6-8.1-26.2L5.7,10.9l10.7,8.4c31,24.3,84.8,41.7,88.6,42.9l76.5,17.6
		l0.2,0.1c48,15.1,71.7,41.7,83.1,61.3c9.9,17,12.6,31.7,13.3,37.6c32.9,30.5,27.3,62.7,27.1,64.1l-1,5.6l-5.6-0.7
		c-4.2-0.5-8.3-0.8-12.3-0.8c-50.9,0-69.3,42.1-70.1,43.9l-3.8,8.9L206,292.4z"/>
	<path class="st1" d="M13.9,24.6c0,0,1.3,19.7,17.1,38.5l-10.5-3.8c0,0,8,20.6,26.4,36.6l-11-3.8c0,0,10,30.2,37.9,50.5
		c0,0-1,22.6,21.6,48.4c0,0,22,22,22.1,37.5c0,0,48.8,8.4,94.2,60.3c0,0,23-54.9,88.7-46.8c0,0,5.8-31-26.9-60c0,0-3.1-67.8-92.4-96
		l-76.4-17.4C104.7,68.6,47.2,50.6,13.9,24.6z"/>
	<path class="st2" d="M32.8,46.4c0,0,11.4,26.6,53.4,48.5L47.1,81.6c0,0,11.9,19.5,53.9,42l-39.3-13.3c0,0,18,29.3,51.7,43.9
		L91.3,153c0,0-0.3,12.6,31.5,47.9c0,0,10,14.3,7,16.5c0,0,19.9,4.9,51.3,31.4c0,0,37-11.4,0.7-78.1c0,0-16.5-31.4-37.3-54.3
		c0,0,38.1-1.2,77.9,38.5c0,0,19.5,24.8,42.4,20c0,0,0.4-51.1-79.6-78L96.8,76.3C96.8,76.3,59.9,64.3,32.8,46.4z"/>
	<path class="st3" d="M32.8,46.4c0,0,11.4,26.6,53.4,48.5L47.1,81.6c0,0,11.9,19.5,53.9,42l-39.3-13.3c0,0,18,29.3,51.7,43.9
		L91.3,153c0,0-0.3,12.6,31.5,47.9c0,0,10,14.3,7,16.5c0,0,19.9,4.9,51.3,31.4c0,0,37-11.4,0.7-78.1c0,0-16.5-31.4-37.3-54.3
		c0,0,38.1-1.2,77.9,38.5c0,0,19.5,24.8,42.4,20c0,0,0.4-51.1-79.6-78L96.8,76.3C96.8,76.3,59.9,64.3,32.8,46.4z"/>
	<path class="st0" d="M194,145.4c0,0-3,43.5,34.4,50c0,0,13.6-0.5,19.1-15l-5-1.2c0,0-7.2,14.4-19.6,8.4c0,0-7.8-2-13-16.5l12.6,1
		C222.4,172.1,202.2,159.4,194,145.4z"/>
	<path class="st3" d="M194,145.4c0,0-3,43.5,34.4,50c0,0,13.6-0.5,19.1-15l-5-1.2c0,0-7.2,14.4-19.6,8.4c0,0-7.8-2-13-16.5l12.6,1
		C222.4,172.1,202.2,159.4,194,145.4z"/>
	<path class="st4" d="M232.6,216.3c0,0,39,1.1,61.8,20.9c0,0-32.4-6-57.7,9.3C236.7,246.5,241.5,231.6,232.6,216.3z"/>
	<path class="st3" d="M232.6,216.3c0,0,39,1.1,61.8,20.9c0,0-32.4-6-57.7,9.3C236.7,246.5,241.5,231.6,232.6,216.3z"/>
	<path class="st4" d="M235,206.2c0,0,41.5,7.6,60.2,27.8c-0.9-23.7-32.2-49.3-29.7-47.1C265.5,186.9,255.2,203.4,235,206.2z"/>
	<path class="st3" d="M235,206.2c0,0,41.5,7.6,60.2,27.8c-0.9-23.7-32.2-49.3-29.7-47.1C265.5,186.9,255.2,203.4,235,206.2z"/>
</g>
</svg>
