<?xml version="1.0" encoding="utf-8"?>
<!-- Generator: Adobe Illustrator 21.1.0, SVG Export Plug-In . SVG Version: 6.00 Build 0)  -->
<!DOCTYPE svg PUBLIC "-//W3C//DTD SVG 1.1//EN" "http://www.w3.org/Graphics/SVG/1.1/DTD/svg11.dtd">
<svg version="1.1" id="Layer_1" xmlns="http://www.w3.org/2000/svg" xmlns:xlink="http://www.w3.org/1999/xlink" x="0px" y="0px"
	 width="300px" height="288.8px" viewBox="0 0 300 288.8" style="enable-background:new 0 0 300 288.8;" xml:space="preserve">
<style type="text/css">
	.st0{fill:#FFFFFF;}
	.st1{fill:#050505;}
	.st2{fill:#B0063A;}
	.st3{fill:none;stroke:#000000;}
	.st4{fill:#FDBD12;}
</style>
<g>
	<path class="st0" d="M200.3,281.5c-22.6-25.9-46-40.3-61.7-47.9c-17-8.2-28.8-10.4-29-10.4l-5-0.9l-0.1-5
		c-0.1-10.6-15.1-28-20.4-33.3l-0.1-0.1l-0.1-0.2c-19.1-21.8-22.5-41.6-23-49.3c-27.3-21.1-37.3-50.5-37.7-51.7l-3.8-11.6l0.5,0.2
		c-8-11.2-11.7-20.6-12-21.2L3.1,37.6L9,39.8c-7.1-14-8-25.6-8.1-26.2L0,0l10.7,8.4c31,24.3,84.8,41.7,88.6,42.9l76.5,17.6L176,69
		c48,15.1,71.7,41.7,83.1,61.3c9.9,17,12.6,31.7,13.3,37.6c32.9,30.5,27.3,62.7,27.1,64.1l-1,5.6l-5.6-0.7
		c-4.2-0.5-8.3-0.8-12.3-0.8c-50.9,0-69.3,42.1-70.1,43.9l-3.8,8.9L200.3,281.5z"/>
	<path class="st1" d="M8.2,13.7c0,0,1.3,19.7,17.1,38.5l-10.5-3.8c0,0,8,20.6,26.4,36.6l-11-3.8c0,0,10,30.2,37.9,50.5
		c0,0-1,22.6,21.6,48.4c0,0,22,22,22.1,37.5c0,0,48.8,8.4,94.2,60.3c0,0,23-54.9,88.7-46.8c0,0,5.8-31-26.9-60c0,0-3.1-67.8-92.4-96
		L99,57.7C99,57.7,41.5,39.7,8.2,13.7z"/>
	<path class="st2" d="M27.1,35.5c0,0,11.4,26.6,53.4,48.5L41.4,70.7c0,0,11.9,19.5,53.9,42L56,99.4c0,0,18,29.3,51.7,43.9l-22.1-1.2
		c0,0-0.3,12.6,31.5,47.9c0,0,10,14.3,7,16.5c0,0,19.9,4.9,51.3,31.4c0,0,37-11.4,0.7-78.1c0,0-16.5-31.4-37.3-54.3
		c0,0,38.1-1.2,77.9,38.5c0,0,19.5,24.8,42.4,20c0,0,0.4-51.1-79.6-78L91.1,65.4C91.1,65.4,54.2,53.4,27.1,35.5z"/>
	<path class="st3" d="M27.1,35.5c0,0,11.4,26.6,53.4,48.5L41.4,70.7c0,0,11.9,19.5,53.9,42L56,99.4c0,0,18,29.3,51.7,43.9l-22.1-1.2
		c0,0-0.3,12.6,31.5,47.9c0,0,10,14.3,7,16.5c0,0,19.9,4.9,51.3,31.4c0,0,37-11.4,0.7-78.1c0,0-16.5-31.4-37.3-54.3
		c0,0,38.1-1.2,77.9,38.5c0,0,19.5,24.8,42.4,20c0,0,0.4-51.1-79.6-78L91.1,65.4C91.1,65.4,54.2,53.4,27.1,35.5z"/>
	<path class="st0" d="M188.3,134.5c0,0-3,43.5,34.4,50c0,0,13.6-0.5,19.1-15l-5-1.2c0,0-7.2,14.4-19.6,8.4c0,0-7.8-2-13-16.5l12.6,1
		C216.7,161.2,196.5,148.5,188.3,134.5z"/>
	<path class="st3" d="M188.3,134.5c0,0-3,43.5,34.4,50c0,0,13.6-0.5,19.1-15l-5-1.2c0,0-7.2,14.4-19.6,8.4c0,0-7.8-2-13-16.5l12.6,1
		C216.7,161.2,196.5,148.5,188.3,134.5z"/>
	<path class="st4" d="M226.9,205.4c0,0,39,1.1,61.8,20.9c0,0-32.4-6-57.7,9.3C231,235.6,235.8,220.7,226.9,205.4z"/>
	<path class="st3" d="M226.9,205.4c0,0,39,1.1,61.8,20.9c0,0-32.4-6-57.7,9.3C231,235.6,235.8,220.7,226.9,205.4z"/>
	<path class="st4" d="M229.3,195.3c0,0,41.5,7.6,60.2,27.8c-0.9-23.7-32.2-49.3-29.7-47.1C259.8,176,249.5,192.5,229.3,195.3z"/>
	<path class="st3" d="M229.3,195.3c0,0,41.5,7.6,60.2,27.8c-0.9-23.7-32.2-49.3-29.7-47.1C259.8,176,249.5,192.5,229.3,195.3z"/>
</g>
</svg>
