<?xml version="1.0" encoding="utf-8"?>
<!-- Generator: Adobe Illustrator 21.1.0, SVG Export Plug-In . SVG Version: 6.00 Build 0)  -->
<!DOCTYPE svg PUBLIC "-//W3C//DTD SVG 1.1//EN" "http://www.w3.org/Graphics/SVG/1.1/DTD/svg11.dtd">
<svg version="1.1"
	 id="Layer_1" xmlns:cc="http://creativecommons.org/ns#" xmlns:dc="http://purl.org/dc/elements/1.1/" xmlns:rdf="http://www.w3.org/1999/02/22-rdf-syntax-ns#"
	 xmlns="http://www.w3.org/2000/svg" xmlns:xlink="http://www.w3.org/1999/xlink" x="0px" y="0px" width="300px" height="284.7px"
	 viewBox="0 0 300 284.7" style="enable-background:new 0 0 300 284.7;" xml:space="preserve">
<style type="text/css">
	.st0{fill:#A5ACAF;}
	.st1{fill:#FFFFFF;}
	.st2{fill:#A71930;}
</style>
<g transform="matrix(1.25 0 0 -1.25 -285.01 584.93)">
	<g transform="translate(.79560 .79560)">
		<path class="st0" d="M452.3,418.3c-32.3,20.4-106.4,36-161.6,48.9l-63.5-68.3l54.5,1.2c-27.1-43.8-21.6-147,47-160.7
			c-3.5,6.8-9.7,19.2-1.7,34.6c5.7,11,37.2,71.2,37.2,71.2h7.5c10.2,0,13.6-3.8,9-9.2c27.2,0.3,43.9,10.6,51.4,21.6
			c-5.7,10.4-23.9,22.7-31.2,27.7H439c10.9,0,13.4-4.6,10.8-9.6C467.6,379.3,476.8,402.9,452.3,418.3"/>
		<path class="st1" d="M448,416.2c-44,24.7-153.1,41.2-153.1,41.2l-46.7-50h48.4c-35.8-47.2-27.8-142.6,24.7-162.4
			c-3.7,8.9-5.6,19.2,1.1,32.3c7.6,14.8,19.7,39.6,36.9,72.7h14.1c11.7,0,15.5-5,13.9-8.8c9.6,0,27.2,0.9,40,16.5
			c-10.6,14.9-45.8,32.2-45.8,32.2H442c8.9,0,13.3-3.2,12.1-8.5C469.5,388.8,465.5,406.4,448,416.2"/>
		<path d="M291.8,450.4l4.3-5.4l-27.2-29.3l95.6-7.3c-0.2-0.3-0.4-0.7-0.5-1.1h-64.2l5-4.7c-4.1-5.7-7.5-11.9-10.4-18.3l53.7,11
			c-0.3-0.4-0.6-0.9-0.9-1.3l-64-21.3l5.6-3.2c-2.6-8.8-4.4-17.9-5.2-27l54.4,33c-0.2-0.5-0.3-1-0.5-1.5l-59.9-47.3l5.5-1.4
			c0.3-10.3,1.7-20.3,4.2-29.5l48.8,57.5c0.1-0.5,0.2-0.9,0.3-1.4L288.1,281l4.5-0.3c5.6-12.6,13.6-22.9,23.7-29.4
			c-3.9,8.7-2.7,19.1,1.9,28.5c3.9,8.1,55.2,110.1,55.2,110.1l-8.6,4.6h79.6c8.2,0,12.7-3.4,12.6-8c5,4.3,6.2,17.1-10.9,26.5
			C409.1,433.2,291.8,450.4,291.8,450.4L291.8,450.4z M376.5,388.2l1.1-3.3c-2.6-5.1-12-23.8-15.3-30.3h24.4c0.3-4.3,4.6-8,9.1-9
			c-2.6,3.5-1.6,7,0.4,9h11.5c3.2,0,2.2-3.8-3-7.9c8.2,1.9,14.3,5.6,18.2,10.9C415.4,369.1,376.5,388.2,376.5,388.2L376.5,388.2z"/>
		<path class="st1" d="M450.4,405.6l1-4.5c-7-1.3-19.3-2.4-22.8-2.6c-0.2-0.3-0.3-0.7-0.5-1h18.4c7.3,0,10.3-3.5,11-5.4
			C458.4,394.6,457.5,401.9,450.4,405.6z M429.9,414.5c4.1-1.4,13.2-6.5,16.7-10.5h-6.6C437.5,408.3,429.9,414.5,429.9,414.5"/>
		<path class="st2" d="M301.6,435.4l-7.8-8.4l126.9-17.6c0.2,0.5,0.5,0.9,0.7,1.4C395.5,418.3,344.3,428.8,301.6,435.4L301.6,435.4z
			 M344.2,401.1l-34.5-0.8c-1.7-2.4-3.3-4.8-4.8-7.4l38.3,6.8C343.6,400.2,343.9,400.7,344.2,401.1L344.2,401.1z M332.1,380.9
			l-37.6-13.5c-0.8-3.1-1.5-6.3-2.1-9.4l39.1,21.4C331.6,379.9,331.8,380.4,332.1,380.9L332.1,380.9z M373.8,364l-2.8-5.4h29.9
			c0.2,0.4,0.4,0.9,0.7,1.3L373.8,364L373.8,364z M326.9,355.9l-36.4-30.9c0.2-3.4,0.6-6.8,1.1-10.1l35.3,39.4
			C326.9,354.7,326.9,355.3,326.9,355.9L326.9,355.9z M333.3,331.4l-31.8-47.9c1.7-3.2,3.5-6.1,5.5-8.8l27,55.3
			C333.8,330.4,333.5,330.9,333.3,331.4L333.3,331.4z"/>
	</g>
</g>
</svg>
