<?xml version="1.0" encoding="utf-8"?>
<!-- Generator: Adobe Illustrator 21.1.0, SVG Export Plug-In . SVG Version: 6.00 Build 0)  -->
<!DOCTYPE svg PUBLIC "-//W3C//DTD SVG 1.1//EN" "http://www.w3.org/Graphics/SVG/1.1/DTD/svg11.dtd">
<svg version="1.1"
	 id="Layer_1" xmlns:cc="http://creativecommons.org/ns#" xmlns:dc="http://purl.org/dc/elements/1.1/" xmlns:rdf="http://www.w3.org/1999/02/22-rdf-syntax-ns#"
	 xmlns="http://www.w3.org/2000/svg" xmlns:xlink="http://www.w3.org/1999/xlink" x="0px" y="0px" width="320.4px" height="160.4px"
	 viewBox="0 0 320.4 160.4" style="enable-background:new 0 0 320.4 160.4;" xml:space="preserve">
<style type="text/css">
	.st0{fill:#FFFFFF;}
	.st1{fill:#BB9334;}
	.st2{fill:#C60C30;}
	.st3{stroke:#000000;stroke-width:0.6;}
	.st4{fill:#241773;}
</style>
<g transform="matrix(1.25 0 0 -1.25 -284.54 542.08)">
	<g transform="matrix(.25 0 0 .25 228.99 297.14)">
		<path class="st0" d="M585.1,32.7l-49.3,50.6c-3.8,4-20.8,23.2-27.6,56.7c-13.5-2-30.1-4.6-30.1-4.6l-34.5-5.2l40.6,64.7
			c-24.2,1.4-72.8-6.7-118.4-23l-117-41.8l62,88.5c-13.7-2.7-30.9-7.1-49.1-13.5l-113.7-39.5l69.2,100.6c3.9,5.5,20.6,30.1,28,46.5
			c0.2,0.4,0.3,0.8,0.5,1.1c-1.4-0.2-3.1-0.4-5.1-0.7c-46.5-6.6-104.5-28.6-109.4-30.5L-5.4,228L85,343.3
			c96.1,122.6,212,170,292.3,188.1c96.3,21.8,197.4,14.6,277.4-19.8c8.6-3.7,17.1-7.8,25.4-12.3l-5.6,46.7l81.9-92.6
			c0.2-0.2,0.4-0.5,0.6-0.7c3.3,4.5,6,8.2,6,8.2l23.5,32.1l11.5-86.6c10.8-0.4,22.2-1.4,34-3.1l76.2-10.6l-12.9-12.9l91.3-35.6
			l-29.5-9.9c43.3-31.3,57.4-65,61.4-88.9c1-6,1.4-11.8,1.2-17.4c-0.1-22.4-7.2-37.8-9.4-42.1l-18.9-35.4l-34.5,18.8
			c-1.2,0.5-10.3,4.4-20.4,2c-13.2-3.2-62.1-12.9-134.3-5.8c-36.1,3.6-73.4,1.8-91.8,0.5c-14-11.1-32.4-20.8-54.7-29L610,120.7
			l-0.2,1.1c-3-6.1-5.5-12.9-7.4-20.6L585.1,32.7z M536.4,176.7l1.4-17.2c2.7-34,19.2-52.1,21.1-54l9.3-9.5l3.3,13
			c8.9,35.2,26.7,53.8,40,63.2l21.3,15l3.3-23.1l8.7,3.1c20.9,7.6,37.3,16.5,48.8,26.5l4,3.4l5.2,0.4c16.7,1.4,60.2,4.1,102.6-0.1
			c67.2-6.7,111.7,2.2,123.7,5c21.9,5.2,40.2-3.5,42.3-4.6l0.5-0.3l6.5-3.6l3.6,6.7c0.5,1,5.7,11.5,5.7,27.5l0,0.7
			c0.1,3.4-0.1,7.1-0.8,11.1l0,0.1c-3.3,20.3-17.2,50.4-64.2,78.6c-3.6,2.2-7,4-10.2,5.7l-33.7,17.3l14.1,4.7l-16.9,6.6
			c-4.3,1.6-9.1,3.3-14.6,5.1l-24.4,8l3.7,3.8l-13,1.8c-15.6,2.2-30.2,3.1-43.5,3l-15.4-0.3l-0.8,15.4c-0.1,1.4-0.2,2.7-0.4,3.8
			l-2.2,16.3l-9.6-13l-12.4,20.4c-3.4,5.6-6.9,10.4-10.9,14.9l-14.1,15.9l1.6-13.2l-29.2,20.3c-15.3,10.6-31.6,19.7-48.7,27
			c-74,31.8-167.9,38.3-257.8,18c-75.2-17-183.8-61.5-274.1-176.7l-17.1-21.9l25.8,10.3l0,0c9.6,3.9,69.2,25.9,117.3,32.7
			c11,1.6,29.4,4.2,39.2-8.8c9.8-13.1,2.1-30.1-0.9-36.6c-8-17.6-25.7-44.5-31.8-52.7l0,0l-12.9-18.8l21.5,7.5
			c36.5,12.7,66.6,17.8,81.2,18.3l0.4,0l0.4,0c7.6-0.1,14.1-3.5,17.8-9.3c3.7-5.7,4.2-13.1,1.3-20.1c-1.1-2.7-2.1-4.5-5.8-10.3
			l-0.4-0.5l-13.5-19.3l22.2,8c41.1,14.7,118.6,33.4,151.7,20.9c6.6-2.4,11.8-7.8,13.9-14.4c1.6-5,2.2-13-4.2-22.5l-8.6-13.7
			c5.5,0.8,9.9,1.5,11.5,1.8L536.4,176.7z M495.4,193C495.4,193,495.4,193,495.4,193C495.4,193,495.4,193,495.4,193z M490.1,204.3
			L490.1,204.3C490.1,204.3,490.1,204.3,490.1,204.3z M322.9,236.4c0,0,0-0.1,0-0.1L322.9,236.4z"/>
		<path class="st0" d="M1002.7,242.8c-3.9,23.7-19.5,58.4-71.8,89.7c-3.5,2.1-7.2,4.2-11.1,6.2c9.8,3.3,19.9,6.7,19.9,6.7l-58,22.6
			c-5,1.9-10.2,3.7-15.4,5.4c3.8,3.9,7.9,8,7.9,8l-44.4,6.2c-19.2,2.7-34.4,3.3-46,3.1c-0.1,1.9-0.3,3.6-0.5,5.1l-7.4,55.7
			c0,0-17.2-23.5-18.9-25.8c-3.7,6.1-7.8,11.8-12.6,17.2l-47.9,54.2c0,0,1.9-15.9,3.4-28.7c-15.5,10.8-32.6,20.5-51.5,28.6
			c-77.1,33.1-174.7,39.9-267.6,18.9c-77.7-17.6-190-63.6-283.2-182.4l-53.8-68.6l81,32.3c0.6,0.3,63.2,24.6,113.6,31.7
			c18.8,2.7,33.2,2.9,21.5-22.9c-9.2-20.3-30.1-50-30.4-50.3l-40.6-59l67.6,23.5c32.5,11.3,61.7,16.9,76.5,17.4
			c5.3-0.1,6.2-3.6,4.6-7.4c-0.5-1.3-0.8-2-4.4-7.6l-42.4-60.5l69.6,24.9c50.5,18.1,116.9,30,140.6,21c1.9-0.7,8.2-4.1,2-13.2
			l-27.3-43.5c0,0,40.3,6.1,46.1,7c3.2-39.7,23.1-61.3,25.5-63.8l29.3-30.1l10.3,40.7c7.4,29.3,21.3,45.3,33.7,54l2.4-16.7l27.2,9.8
			c22.8,8.3,40.9,18.2,53.9,29.5c17.2,1.4,59.3,3.9,99.7-0.1c69.6-6.9,116.4,2.4,129,5.4c16.9,4,31.2-3.2,31.4-3.3l20.7-11.3
			l11.2,21c1.3,2.5,7.6,15.6,7.6,35C1003.9,233.2,1003.5,238.1,1002.7,242.8"/>
		<path class="st1" d="M576,69.6l-24.5,25.3c-0.9,0.9-22.9,23.4-24.9,65.9l-41.9-6.4l22.9,36.4c0.1,0.1,7,12,2,15.9
			c-15.5,11.9-77.2,8.4-150-17.8l-58.2-20.7l35.5,50.6c3.7,5.3,8.4,15.6,7.5,20.1c-0.1,0.1-0.2,0.1-0.3,0.2
			c-6.4,3.4-45.2-1.6-88.9-16.8l-56.5-19.5l33.8,49.2c2.2,3.2,21.4,31.5,30.8,51c6.9,14.3,6.8,23.4,5,25.7c-1.6,2.2-10.1,5.7-30.8,3
			c-49.9-6.7-110.7-30.5-114.7-32l-0.4-0.2l-67.7-27l45,57.4c93.1,118.6,205,164.4,282.5,181.9c92.6,21,189.8,14.2,266.6-18.7
			c21.7-9.3,41.2-20.5,58.3-33.4l-3,24.9l39.8-45.2c6-6.8,11-14,15.2-22c1.6,2.1,2.7,3.7,2.7,3.7l14.1,19.3l6.2-46.2
			c0.3-2.2,0.5-5.1,0.6-8.7c14.8,0.5,31.7-0.6,49.5-3.1l36.5-5.1l-6.7-7c7.3-2.2,14.5-4.7,21.5-7.4l48.1-18.7l-18.5-6.2
			c6.8-3.3,13.2-6.7,19.3-10.4c51.3-30.6,66.5-64.4,70.3-87.4l0,0c0.8-5,1.1-9.8,0.9-14.1c-0.1-17.5-5.5-29.5-7.1-32.8l-9.5-17.8
			l-17.3,9.5c-2,1-16.6,7.8-34.3,3.6c-12.5-3-58.8-12.2-128.3-5.3c-39,3.9-79.6,1.8-102.2,0.1c-12.9-11.4-31.1-21.4-54-29.7
			l-22.7-8.2l-1.6,11.8c0,0-0.4,2.9-0.9,6.4c-14.3-8.1-32-25-40.8-59.9L576,69.6z M546.6,183.2l-0.7-11.8c-0.1-1.5-0.2-3-0.2-4.4
			c0-38.2,19.3-58.4,19.5-58.6l0.6-0.6l0.2,0.7c13.4,53.4,45.8,72,63.9,78.3l10.9,3.8l1.8-11.4c0.2-1.2,0.6-4.2,1.1-7.5l0.5,0.2
			c27.4,9.9,42.2,20.6,49.8,27.9l2.5,2.3l3.4,0.3c22.5,1.9,66.5,4.4,109,0.2c66.5-6.6,110.2,2.1,122,4.9c24.9,5.9,45.4-4.1,47.6-5.3
			l0.6-0.3l0.2,0.4c0.4,0.9,5,10.3,5,24.3l0,0.5c0.2,3-0.1,6.5-0.7,10.3v0c-3.1,18.9-16.2,47.2-61.1,74
			c-11.6,6.9-24.6,13.2-39.6,19.1l-24.5,9.7l16.8,5.6c-10.8,4.1-22.1,7.6-33.7,10.4l-16.7,4l3.6,3.6c-25.7,3.5-43.8,3.2-54.6,2.2
			l-10.9-1l0.5,10.9c0.1,2.3,0.2,4.7,0.2,7.2c0,3.2-0.1,5.7-0.3,7.5l-9-12.4l-6.1,17.1c-4.2,11.5-9.9,21.5-17.5,30.4l1.6-13.7
			L713,429.7c-19.5,18.2-43.7,33.5-71.8,45.6C568,506.7,475.2,513.2,386.4,493c-74.5-16.9-182.1-60.9-271.7-175.1l-1-1.2l1.5,0.6
			l0,0c7.4,3,68.5,26.6,119.7,33.4c24.9,3.3,41.4-0.3,49-10.8c7.1-9.8,5.8-26.3-3.3-45.3c-9.8-20.3-28.5-48.1-32.1-53.4l-0.9-1.3
			l1.3,0.5c0.8,0.3,84,29.1,105.7,14.8c4.8-3.1,7.7-7.4,8.7-12.7c2.8-14.6-9.3-32.7-10.6-34.7l-0.9-1.3l1.4,0.5
			c1.2,0.4,128.2,45.6,168.2,15c15.2-11.6,8.8-31.4,2.6-41.3l-0.5-0.9L546.6,183.2z M344.5,238.7L344.5,238.7L344.5,238.7z"/>
		<path class="st1" d="M993,238.8c-3.4,21-17.6,52-65.7,80.7c-12.9,7.7-26.8,14.2-41,19.8l17,5.7l-23.4,9.1
			c-11.6,4.5-23.8,8.3-36.3,11.3c2.4,2.4,5,5.1,5,5.1l-17.9,2.5c-27.6,3.9-46.7,3.4-57.9,2.4c0.1,2.4,0.2,5,0.2,7.6
			c0,3.6-0.1,7.2-0.5,10l-3,22.5c0,0-10.9-14.9-12.5-17.1c-3.6,10-9.5,22.4-20.3,34.7l-19.4,22l2.2-18.3
			C702.1,453,678,470,645,484.2c-74.9,32.1-170,38.8-260.7,18.2c-76-17.2-185.8-62.2-277.1-178.5l-23-29.3l34.6,13.8
			c0.6,0.3,65,25.8,117.4,32.8c20.5,2.7,34.7,0.3,39.9-6.9c4.8-6.7,3.3-20-4.2-35.5c-10.3-21.4-31.3-52-31.5-52.3l-17.3-25.2
			l28.9,10c38.1,13.3,86.2,23.1,97.3,15.8c2.6-1.7,4-3.7,4.5-6.4c1.8-9.3-6.2-23.3-9.1-27.5l-18.2-25.9l29.8,10.6
			c47.5,17.1,132.8,36.6,159.1,16.4c12.2-9.3,0.8-27.8,0.3-28.6L504,167.1l21.7,3.3c0,0,5.3,0.8,10.6,1.6c-0.1-1.7-0.2-3.4-0.2-5
			c0-42,21.3-64.4,22.3-65.4l12.5-12.9l4.4,17.4c12.3,48.9,41.5,65.9,57.8,71.6c0.5-3.2,2.7-19.1,2.7-19.1l11.6,4.2
			c28.5,10.3,44.4,21.6,53.2,30c13.1,1.1,61.1,4.8,107.2,0.2c67.9-6.7,113,2.2,125.2,5.1c22.5,5.3,40.8-4.4,41-4.5l8.9-4.9l4.8,9
			c0.3,0.6,6.1,11.8,6.1,28.8C994,230.3,993.7,234.5,993,238.8"/>
		<path d="M921.3,309.4c-20.1,14.2-47.1,24.5-73.4,31.9c10.9,3.5,21.9,3.3,21.9,3.3c-16.8,6.4-34.4,10.4-50.7,13l6.1,5.5
			c-29.9,5.1-50.8,4.7-63.2,3.4c1.6,6.1,2.8,15.5,1.2,28c0,0-3.6-10.8-12.4-17.5c-1.2,14-5.6,34.2-20.8,47.9l2.8-24.7
			c-13.4,20.1-38.8,45.9-86.9,68.4c-130.8,61.1-361.2,38-487.7-125.4c0,0,49.2,24.6,117.3,26.2c35.7,0.8,44.4-19.2,31.4-52.9
			c-13.1-33.9-36-63.6-36-63.6s154.2,54.7,105.5-21.3c0,0,116.4,34.9,151.4-6c16.2-19-2.7-45.5-2.7-45.5l33,7.1
			c-10.7-41.9,8-68.7,8-68.7c13.6,54.8,61.2,69.4,78,72.2l3.6-14.9c28.2,10.2,41.5,21,49,30c59.7,9.4,100.3,1.4,146.3-1.1
			c67-3.7,101.7,8,112.8,7.9c8.1-0.1,17.8-7.2,17.8-7.2S1001.5,252.6,921.3,309.4"/>
		<path class="st2" d="M688,367.8c4.2-9.9-1.6-20.8-12.8-24.5s-23.7,1.4-27.9,11.2c-4.2,9.9,1.6,20.8,12.8,24.5
			C671.4,382.7,683.9,377.7,688,367.8"/>
		<path class="st0" d="M659.1,353.3c-3.1,7.4,1.4,15.7,10.1,18.6c3.4,1.1,6.8,1.2,10,0.5c-4.3,2.7-10.2,3.6-15.7,1.8
			c-8.7-2.8-13.2-11.1-10.1-18.6c1.9-4.6,6.3-7.7,11.4-8.8C662.3,348.4,660.3,350.6,659.1,353.3 M450.9,295.1c0.8,0.5,4,2.5,4.7,3
			c0.9,0.5,1.8,1.1,2.7,1.7c0.7,0.5,1.5,0.9,2.2,1.3c1,0.6,1.9,1.1,2.9,1.7c0.7,0.4,1.4,0.8,2.2,1.3c20.8,11.7,46.1,22.5,74.6,29.3
			c1,1.6,2,3.4,2.8,5.1c9.6,20.6-5.6,41.2-32.3,44.7c25.8,5.5,53.3,22.5,58.9,35.1c6.9,15.6,11.5,42.8-55.7,49.7
			c-67.2,6.9-183.8-20.4-234.1-59.4c0,0,77.8,16.5,157.7,20.3c-11.9-4-26.8-11-35.2-21.2c-14.1-14-35.2-42.7-58.6-124.5
			c0,0,1.2,0.2,3.4,0.4c10,1.3,40.2,4.9,58,5.8l30.1,1.7c3.3,0,6.6,0.1,10,0.3c0.4,0.3,0.8,0.5,1.1,0.8c0.8,0.5,1.6,1.1,2.4,1.6
			C449.5,294.2,450.2,294.6,450.9,295.1 M866.2,220.2c33.4,0.2,58.4,3.2,78,7.8c-72.5,31.1-214.6,44.4-236.6,42.6
			c0,0-12-3.4,1.8-16.7c-19.4,7.6-38.7,22.1-40,29.5c-1.4,7.8,12.7,10,46.2,6.1C841,274.7,949.5,253.7,964.1,223
			c0,0,7.7,38.4-54.9,75.1c-53.5,35.7-135.7,41.5-135.7,41.5l20.8-16.7l-38.6,3.3l30.6-22.1c-32.8,10.7-121.2,39.7-194.4,21.4
			c0,0,80.4,0.9,117-21c-135.7,22.2-206.3-25-206.3-25c76.3,21.8,137.3,15.8,157.3,12.8c-32.1-7.7,5.7-31.2,28.8-43.5
			c2.6-6.4,9-19.6,2.8-30.7c0,0,7,8.9,12,21.9l18.8-15.1C778.5,231.7,819.8,219.9,866.2,220.2"/>
		<path d="M687,361.8c2.3-5.9-1-12.5-7.2-14.8c-6.3-2.2-13.2,0.7-15.4,6.6c-2.3,5.9,1,12.5,7.3,14.7
			C677.9,370.7,684.8,367.7,687,361.8"/>
		<path class="st1" d="M487.2,459c-10,0-22-0.6-35.1-2.3c-13.8-1.8-80.9-8.7-138.1-36.6c50,12.2,109.1,16.6,146.5,18
			c15.7,0.6,33,0.1,33,0.1c11.2,0,21.6-3.3,25.5-9.8c4.1-6.8,5.3-14.8-2.5-24.7c-4.3-5.5-9.3-11.2-23.8-17.1l16.8,3.6
			c25.1,5.4,47.8,19.4,53,30.3c3.8,8,4,14.4,1,19.4c-6.3,10.3-21.6,16.4-48.9,17.8C514.6,457.6,503.8,459,487.2,459L487.2,459z
			 M464.7,424.5c-7.6-0.1-33.2-3.9-53.1-22.9c-18.5-16.3-38.5-58.8-54.4-109.4c27.3,2.9,52.1,4.2,52.1,4.2l26,1.1
			c6.8,0,14,0.4,21.3,1.2c19.9,12.3,44.9,24,73.3,31.9c1.8,2.4,3.3,4.9,4.6,7.6c2.9,6.1,3.2,13.8,1.2,19.8
			c-3.1,9.2-9.2,15.3-28.5,19.8c-25.4,5.9-62.5,3.3-62.5,3.3c8.5,20.7,14.9,32.8,21.3,43.3C465.6,424.5,465.2,424.5,464.7,424.5
			L464.7,424.5z M442.2,375.9h27.6c14.2,0,20.8-5.8,23.8-10.8c4.7-7.7,3.9-18.1-2-31.1c-11.2-25.1-38.5-27.3-46.6-27.3l-31.3-1.2
			C427.3,348.6,442.2,375.9,442.2,375.9L442.2,375.9z"/>
		<path class="st3" d="M496.7,431.1h-13.5c0,0-2.3-1.9-6.6-8.4c15.7-0.1,22.1-8,13.8-25.8c-1-2.3-2.2-4.2-3.3-5.8
			c9.6,2.9,17.1,8.2,20.7,14.5C515.8,419.6,509.7,429.7,496.7,431.1L496.7,431.1z M449.7,368.9c-1.5-2.9-2.9-5.8-4.3-8.7h6.7
			c16,0,24.9-9,14.9-30.5c-2.5-5.5-6-9.7-9.8-13c10.2,2.5,21.2,8.6,27.2,21.6c10,21.5,1.1,30.5-14.9,30.5L449.7,368.9L449.7,368.9z"
			/>
		<path class="st4" d="M484.5,481.2c-105-0.7-202.4-39.5-264.2-98.6c0,0,86.5,27.2,112.5,0.5c30.2-31.1-15.6-104.3-15.6-104.3
			l29.9,4.7c-2.2-0.3-3.4-0.4-3.4-0.4c23.4,81.8,44.5,110.4,58.6,124.5c8.4,10.2,23.2,17.2,35.2,21.2c-80-3.8-157.8-20.3-157.8-20.3
			c50.3,39,166.9,66.3,234.1,59.4c67.2-6.9,62.6-34.1,55.7-49.7c-5.6-12.6-33.1-29.6-58.9-35.1c26.7-3.5,41.9-24.1,32.3-44.7
			c-0.8-1.8-1.8-3.5-2.8-5.1c-28.5-6.8-53.8-17.5-74.6-29.3c-0.7-0.4-1.4-0.8-2.2-1.3c-1-0.6-1.9-1.1-2.9-1.7
			c-0.7-0.4-1.5-0.9-2.2-1.3c-0.9-0.5-1.8-1.1-2.7-1.7c-0.7-0.5-1.5-0.9-2.2-1.4c-0.8-0.5-1.7-1.1-2.5-1.6c-0.7-0.5-1.4-0.9-2.2-1.4
			c-0.8-0.6-1.6-1.1-2.4-1.6c-17.1-11.7-29.5-23.5-35.9-32.6c0,0,174.8,35.4,144.5-52.6l45.2,12.4c-3.2-5.6-8.2-11.9-15.1-19.6
			c-21.3-23.7-19.9-46.2-19.9-46.2s6.3,24.7,46.7,41.6c36.8,15.4,45.3,41.6,45.3,41.6s12.3-18.1,2.2-43.5c0,0,17,4.2,32.1,25.1
			c6.2,11.1-0.1,24.2-2.8,30.7c-23.1,12.3-60.9,35.8-28.8,43.5c-20,3-80.9,9-157.3-12.8c0,0,70.6,47.1,206.3,25
			c-36.7,21.9-117,21-117,21c28,7,58.1,7.1,86.6,3.9c-11.4,3.2-27,6.9-45.2,9.7c-27.9,3.3-54.6,1.8-79.1-2.7
			c27.6,28.7,77.9,24.9,77.9,24.9c-33.6,22.6-77.3,15.4-77.3,15.4c49,25.4,103.6,16.8,103.6,16.8c-17.1,22.6-57.6,27.6-57.6,27.6
			c80.3,3.3,108.4-38.9,108.4-38.9c-20,8.7-34.3,7.4-34.3,7.4s19.3-3.1,32.4-27.5c13.8-25.9,25.6-25.1,25.6-25.1
			s22,83.3-123.2,126.7C567.8,475.9,525.5,481.5,484.5,481.2L484.5,481.2z M476.6,422.7c-4.1-6.2-10.1-16.7-17.6-33.9h12
			c5.7,0,11.1,0.8,16,2.3c1.1,1.7,2.3,3.6,3.3,5.8C498.7,414.7,492.3,422.5,476.6,422.7L476.6,422.7z M445.4,360.2
			c-11.1-23.5-18-45-18-45h17.2c3.7,0,8.1,0.4,12.6,1.6c3.9,3.3,7.3,7.5,9.8,13c10,21.5,1.1,30.5-14.9,30.5L445.4,360.2L445.4,360.2
			z"/>
	</g>
</g>
</svg>
