<?xml version="1.0" encoding="utf-8"?>
<!-- Generator: Adobe Illustrator 21.1.0, SVG Export Plug-In . SVG Version: 6.00 Build 0)  -->
<!DOCTYPE svg PUBLIC "-//W3C//DTD SVG 1.1//EN" "http://www.w3.org/Graphics/SVG/1.1/DTD/svg11.dtd">
<svg version="1.1"
	 id="Layer_1" xmlns:cc="http://creativecommons.org/ns#" xmlns:dc="http://purl.org/dc/elements/1.1/" xmlns:rdf="http://www.w3.org/1999/02/22-rdf-syntax-ns#"
	 xmlns="http://www.w3.org/2000/svg" xmlns:xlink="http://www.w3.org/1999/xlink" x="0px" y="0px" width="314.4px" height="216.1px"
	 viewBox="0 0 314.4 216.1" style="enable-background:new 0 0 314.4 216.1;" xml:space="preserve">
<style type="text/css">
	.st0{fill:#FFFFFF;}
	.st1{fill:#C60C3D;}
	.st2{fill:#00338D;}
</style>
<g transform="matrix(1.25 0 0 -1.25 -283.99 554.65)">
	<g transform="matrix(.25 0 0 .25 227.19 294.87)">
		<path class="st0" d="M110.9-96.2L39.6,4.3l14.2,31.7l-3.6,22.5l8.6,5.7C72,72.7,80.4,78.5,86.4,85.2c0.8,1.1,1.6,2,2.4,2.9
			c2.2,2.7,3.6,4.4,6.2,9.1c1.1,2.9,1.9,6.2,2.7,9.4c1.9,7.8,4.1,16.6,11.7,22.2l0.4,0.3c6.5,4.4,11.3,7.3,12.9,8.3
			c30.5,19.5,50.8,40.2,63.5,56.1L0,166.8l100.4,178.3L265.1,359c15.5,13.1,72.9,58.6,156.3,93.8c6.9,8.4,24.7,25.6,67.9,50.4
			c2,1.2,52.9,31,111.8,50.5c6.2,2.1,22.1,7.5,36,11.2l-4,14.6l82,7l2.4,9l13.1-0.9c1.4-0.1,30.5-2.1,54.2-9.3l5.1,6.7l11.7-5.4
			c2.2-1,52.2-24.4,92-80.8c14.2-0.3,42.5-2.8,69-15.4c5.9-2.5,45.1-21.4,43.3-70.1c0-4.8-0.8-56.6-16.6-108.8
			c-0.3-0.9-2.8-9.2-5.3-14.9l-0.3-0.6c-0.4-0.8-4.1-8.1-10.9-17.3l-1.4-1.7c-4.3-4.4-16.2-18-21-28.7c-0.9-2.4-4.4-12.5-10.7-29
			c-2.1-7.2-12.5-33.8-51.1-38.3c-10.8-13.4-37.1-45.8-50.7-57.5l-23-20l-1.3,11.8c-8.5-6.8-18.3-14.3-27.6-20.2l-28.2-17.9
			l2.7,23.4c-9-10.6-23.7-21.9-47.5-29.2c-1.3-0.4-37.2-11.7-78.7-15l-1.9-0.1l-6.1,1l-89.6-36.5l21.4,76.7
			c-1.2,0.1-2.4,0.2-3.4,0.4l-98.5-42.2l38.7,110.8l-4.3,0l-16.2-12.6l-7.6,2c-22.9,5.9-45.6,6.2-55.2,6L254.8,34.4L204.2-77.4
			L146.4-0.2L110.9-96.2z M76.3,7.9l25.6-36.1l23.8,64.3l35.5,27.8l28.4-21.6l-17.7-23.1l25.4-34l31.4,69.4L399.4,193l5,0.4
			c1.3,0.1,30.3,2.1,62.6-4.9l12.5,9.7l52.5,0.4l21.6-29.5l-29.5-16.3l-13.7-39.2l49.2,21.1l3.6-5.5c3.9,0,9.6,0.3,14.5,0.8
			l23.3,2.4l-16-57.5l37.6,15.3l11.1-1.8c36.9,3.1,69.4,13.3,69.7,13.4c32.9,10.1,38.8,28.4,39.4,30.8l0.2,2l0.7,1.2
			c4.1,10,2.6,35.5,0.3,50.4l-3,19l40-1.1c6-0.6,11.4-3.6,15-8.4c6.2-8.1,5.4-18.8,4.9-22.4l-3.4-30.1c10.2,8.4,17.6,15.3,17.8,15.4
			l23.2,21.5l1-8.5c11.2,13,22.8,27.4,28.4,34.6l4.6,5.8l7.4,0.3c25.3,0.9,29,15.1,29,15.2l0.3,1.2l0.4,1.2
			c7.1,18.7,10.8,29.3,10.8,29.4l0.4,1c7.1,16.6,22.7,33.7,26.8,38c4.2,5.8,6.7,10.4,7.4,11.6c1.4,3.3,3.2,8.9,3.7,10.6
			c14.9,49.3,15.2,99.5,15.2,100l0,0.6c1.1,29.4-23.6,39.6-23.8,39.7l-1,0.4c-29.1,13.9-62.7,12.4-63,12.4l-9.2-0.5l-5.1,7.7
			c-25,37.9-56.2,60.4-72.6,70.4l-3.7-4.8l-11.6,5.1c-11.4,5-29.4,8.1-42.5,9.8l-1.3-4.8l-66.2-5.6l3.5-13l-19.6-1.2
			c-5.8-0.4-28.8-7.2-46.7-13.4c-55.8-18.5-105.5-47.6-106-47.9c-45.7-26.2-58.4-41.8-60-44l-2.5-5.3l-5.1-1.3
			c-93.3-38.6-154.9-92.8-155.5-93.4l-4-3.5l-5.3-0.5l-153-12.9L59.8,207.7l185.3,26.6l-11.5-26.3c-0.9-2.1-23.8-53-93.7-97.7
			l-0.5-0.3c-0.7-0.4-4.1-2.5-9.2-5.8c-0.4-1.4-1-3.6-1.4-5.3c-1-4.2-2.3-9.3-4.4-14.5l-0.7-1.5c-4.3-8.1-7.3-11.7-10.1-15.1
			c-0.7-0.8-1.4-1.7-2.2-2.7l-0.6-0.8c-6.9-7.7-14.9-13.9-25.5-21.1l1.8-11.6L76.3,7.9z M445.5,431.7L445.5,431.7L445.5,431.7z"/>
		<path class="st0" d="M131.2,123.8c66.7,42.6,87.7,90.6,87.7,90.6l-189-27.1l80.3,142.6l161.4,13.6c0,0,62.8,56,160,96.2
			c0,0,10.1,17.7,65.7,49.6c0,0,50.9,30,108.9,49.2c0,0,39.3,13.5,50.9,14.2l-3.4,12.5l74.1,6.3l1.9,7.1c0,0,38.7-2.6,60.9-12.4
			l4.4,5.8c0,0,51.8-23.8,90.3-82.3c0,0,37.4,2.1,70.8-13.9c0,0,35.5-14.1,33.9-55.2c0,0-0.2-52.5-15.9-104.5c0,0-2.4-8.1-4.6-13
			c0,0-3.3-6.6-9.5-15c0,0-17.6-18.1-24.4-34c0,0-3.7-10.6-11-29.8c0,0-5.6-26.5-44.1-27.9c0,0-37.4-47.3-53-60.9l-1.3,11.5
			c0,0-26.1-24.2-48.7-38.5l7.6,67c0,0,1.9,12-5.7,12.8l-19.5,0.5c0,0,6.4-40.3-1.3-59c0,0-4.9-29.3-50.3-43.2
			c0,0-35.1-11.2-75.2-14.3l-8.6,1.4l-63.6-25.9l18.5,66.3c0,0-23.7-2.4-25.7,0.6l-70.4-30.2l27.7,79.3l19,10.5l-6,8.2l-38.9-0.3
			l-14.3-11.1c-33.1,8.6-65.2,6.3-65.2,6.3L241.8,44.5l-41-90.6l-48.9,65.4l15.3,20l-5.8,4.4l-22.2-17.4l-32.8-88.5L58,6.1
			l12.4,27.7l-2.7,17c14.4,9.5,23.7,15.9,31,24.1c4,5.1,6.2,6.9,10.8,15.5c4.3,10.5,4.5,21.9,9.4,25.5
			C124.9,120,129.5,122.8,131.2,123.8"/>
		<path class="st1" d="M119.4,315.7L56.9,205.5l806.9,120.3c0,0-28,21.3,12.6,55L119.4,315.7"/>
		<g>
			<path class="st2" d="M938.5,396.1c0,0-63-43.1-41.2-80.2c0,0-22.9-12.7,2.4-30.5c0,0-39.1-17.6-28.7,30.7l-634.4-96
				c0,0-13.6-57.4-103.5-111.8c0,0-6.6-3.9-7.2-11.1c0,0,0.6-9-7.5-19.9c0,0-10.1-17.7-33.7-32.7l1.7-11.8l-11-25.3l27-38.7
				l24.4,65.8l48.3,37.1c0,0,47.2,73.9,124.9,102.9c0,0,68.6,29.3,168.6,12.7l9.1,8.8l115.9,2.6c0,0,4.4-1,1.4-3.4
				c0,0-22.8-17.6-47.8-19.8l2.3-7.1c0,0,0.7-2.5-1.2-3.1l-24.3-9.6l-16.1-44.5l45.5,19.8l2.5-1.9c0,0,39.6-2.5,99.3,9.6
				c0,0,41.4,8.2,52.9,61.8l78.7,3.4c0,0,16.4-3.5,14.3-18.7l-5.6-44.6l36,32.1l2.5-8.4c0,0,27.3,29.5,34.3,46.4
				c0,0,30-0.6,37.3,11.5c0,0,3.4,3.4,13,29.8c0,0,4.5,18.5,23,36.7c0,0,14.3,13.4,22.3,48.6c0,0,9.6,51,9.5,60.8
				c0,0,10.3,50.5-24.3,65.4c0,0-25.7,14.2-73.9,10.2c0,0-9.6,33.5-76,79.4l-4.8-7.2c0,0-22.7,15.6-54.8,15.2l-1.6-4.5
				c0,0-19.5,0.1-62.1-4.3l4-11.8c0,0-87.7-4.1-212.2-87.4l-2.3-6.8l-15.8-7.4l8.4-4.6c0,0-95.1-34.3-164.3-91L938.5,396.1"/>
			<path class="st2" d="M716.2,190.4l27.2,0.3c0,0,5.4-35.9,2.2-52c0,0-5.4-23.8-29.7-33.1c0,0-35.8-15.2-89.6-18.6l-2.6,2.2L583,72
				l13.4,47.4c0,0,54.6,4.2,71.1,9.2C667.5,128.6,709.9,136.9,716.2,190.4"/>
			<path class="st2" d="M380.8,176.3c0,0-96.6,1.2-162.8-76.8c0,0-0.2-28.3-34.5-47.4l1.3-8.9l-16.3-22.4l28.9-38.7L230,54.3
				L380.8,176.3"/>
		</g>
	</g>
</g>
</svg>
