<?xml version="1.0" encoding="utf-8"?>
<!-- Generator: Adobe Illustrator 21.1.0, SVG Export Plug-In . SVG Version: 6.00 Build 0)  -->
<!DOCTYPE svg PUBLIC "-//W3C//DTD SVG 1.1//EN" "http://www.w3.org/Graphics/SVG/1.1/DTD/svg11.dtd">
<svg version="1.1"
	 id="Layer_1" xmlns:cc="http://creativecommons.org/ns#" xmlns:dc="http://purl.org/dc/elements/1.1/" xmlns:rdf="http://www.w3.org/1999/02/22-rdf-syntax-ns#"
	 xmlns="http://www.w3.org/2000/svg" xmlns:xlink="http://www.w3.org/1999/xlink" x="0px" y="0px" width="300px" height="200.2px"
	 viewBox="0 0 300 200.2" style="enable-background:new 0 0 300 200.2;" xml:space="preserve">
<style type="text/css">
	.st0{fill:#0B162A;}
	.st1{fill:#FFFFFF;}
	.st2{fill:#C83803;}
</style>
<g transform="matrix(1.25 0 0 -1.25 -286.91 559)">
	<g>
		<path class="st0" d="M303.1,436.1c-27.4-11.3-39.9-28.5-45.5-41c-3.6-8.1-7.2-14.1-11.2-19.1c-4.1-4.3-11.6-9-16-10.6l-0.8-0.3
			l-0.1-3l1.1-0.2c5.7-1.1,12.7-5.4,15-8.3c2.9-3,5-5,10.2-14.2c0.1-0.1,2.6-4.2,2.6-4.2c1.7-2.8,3.4-5.7,8-10.9
			c3.6-5,20.7-20.8,39.3-27.6c13.1-6.5,30.2-9.7,52.3-9.7c32.5-0.2,57,6.9,79.7,23c9.4,7.3,12.4,10.2,20.3,19.6
			c5.3,6.3,11.1,17.3,11.3,29.5v1.4l-45.9,0.1l-0.3-1c-3.7-15-18.8-24.3-27.5-28.6c-22.6-9.6-51.1-9.7-72.5-0.3
			c-20,10-30.6,23.6-29.9,38.2c0.8,14.9,13.4,29.1,32.2,36.2c36.4,13.3,71.3,1.9,84.5-10.5l0.4-0.4l53.5,0.1l-0.7,1.8
			c-11,27.9-50.8,43.6-68.4,46.9C355.7,451.9,321.8,445.3,303.1,436.1"/>
		<path class="st1" d="M359.1,288.8c-21.5,0-42.8,4-57.7,11.9l-1.7,0.9c-5.7,2.9-14.4,7.2-25.2,17.3c-7.3,6.7-12.5,13.5-19.1,24.8
			c-4.8,8.9-11.4,15.2-19.1,18.3l-5.1,2.1l5,2.3c2.4,1.1,10.9,5.6,16.6,15l0,0c2.6,4.2,3.7,6.5,5.2,10.1l1.6,3.6
			c5.1,10.9,13.7,20.8,24.8,28.8c10.8,7.2,22.7,13,32.6,15.9c43,12.5,87.1,1.7,106.3-8.6c4.2-1.9,11.1-5.8,17.9-11.1
			c8.8-6.7,15.1-13.7,18.8-20.7l1.9-3.5h-50.1l-0.6,0.5c-30.6,23.8-72.1,17.8-92.5,7.9c-8.1-4.5-12.9-8.2-18.9-14.6
			c-8.9-10.8-13.7-29.2,2-45.7c7.3-7.1,14.7-12,23.9-15.8c21.4-8.9,51.3-7.9,72.8,2.4c13.5,7.1,22.5,16.4,26.1,26.9l0.6,1.6h42.7
			l-0.4-2.7c-1.4-9.6-4-20.2-19.4-35.2l-0.1-0.1l-1.7-1.5c-7.1-6.4-16.9-15.2-36.1-22.3C395.3,291.6,377.1,288.8,359.1,288.8z
			 M242.3,364.3c6.9-3.9,12.8-10.1,17.2-18.3c6.3-10.9,11.3-17.3,18.2-23.7c10.3-9.6,18.3-13.6,24.2-16.5l1.7-0.9
			c26.3-13.9,73.3-15.3,104.8-3.1c18.3,6.7,27.7,15.2,34.5,21.3l1.7,1.5c12.8,12.5,16.1,21.6,17.5,29.6h-33.7
			c-4.3-11.1-13.9-20.7-27.9-28l-0.1,0c-22.7-10.9-54.2-11.9-76.8-2.6c-9.8,4-17.7,9.2-25.5,16.8l-0.1,0.1
			c-17.9,18.9-12.4,39.9-2.2,52.2l0.1,0.1c6.4,6.8,11.5,10.8,20.2,15.6l0.1,0.1c21.3,10.4,64.6,16.7,97-7.9h40.3
			c-8.9,13.3-26.1,23.3-32.5,26.2l-0.1,0.1c-18.5,9.9-61.1,20.3-102.8,8.2c-9.5-2.7-20.9-8.3-31.2-15.2
			c-10.4-7.4-18.4-16.7-23.2-26.8l-1.6-3.6c-1.6-3.7-2.7-6.2-5.6-10.7C252.3,371.6,246.4,366.9,242.3,364.3z"/>
		<path class="st1" d="M254.7,380.1c2.8,4.4,3.9,6.9,5.4,10.4l1.6,3.6c4.9,10.5,13.2,20.1,24,27.8c10.5,7,22.2,12.7,31.9,15.5
			c42.4,12.3,85.8,1.7,104.6-8.4c7.4-3.4,27.5-15.3,35.7-30.8h-45.3c-31.5,24.5-74.1,18.3-95.1,8.1c-8.5-4.7-13.4-8.5-19.6-15.1
			c-9.6-11.6-14.7-31.3,2.1-49c7.6-7.4,15.2-12.4,24.7-16.3c21.9-9.1,52.7-8.1,74.8,2.5c14.1,7.4,23.5,17.2,27.3,28.3H465
			c-1.4-9.7-4.2-19.7-18.7-33.8l-1.6-1.4c-7-6.3-16.6-15-35.4-21.9c-32-12.4-79.9-11-106.8,3.2l-1.7,0.9c-6,3-14.3,7.2-24.7,16.9
			c-7.3,6.7-12.3,13.3-18.7,24.3c-6.9,12.7-15.6,17.4-20.3,19.3C241.2,366.1,249.2,371,254.7,380.1"/>
		<path class="st2" d="M256.3,373.1c4.5,5,8.1,17.9,15.3,27.7c10.2,14.4,23.7,21.9,33.7,26.7c23,11.2,55.9,14.4,88.2,6.7
			c11.7-2.8,23.4-6.9,31.8-12.4c8.4-5,18.2-12.1,23.7-19.1h-34.5c-10.2,8.2-21.5,12.1-31.5,14.3c-11.2,2.9-28.9,4.4-50-0.6
			c-12.4-3.1-21-7.4-29.4-13.4c-16.5-11.7-34.7-42.5-2.4-69.3c10.5-8.9,19.4-11.8,29.2-15.2c18.2-5.3,40.9-4.3,54-0.7
			c19.8,5.3,27.3,12.2,33.7,17.7c6,5.7,11,12.7,12.4,16.3h28.3c-2-10.6-9.6-19.2-17-26.3c-8.5-8-14.8-12.2-27.4-18.5
			c-29.3-14.1-72.4-13.6-98.9-4c-13.6,5-17.5,7.2-27.7,14.3c-8.4,6.7-13.9,11.2-21.8,23.4c-3.6,6-5.3,9.3-9.3,14.8
			c-2.9,3.1-4.8,6-9.8,8.4C251.6,367.2,254.1,369.6,256.3,373.1"/>
	</g>
</g>
</svg>
