<?xml version="1.0" encoding="utf-8"?>
<!-- Generator: Adobe Illustrator 21.1.0, SVG Export Plug-In . SVG Version: 6.00 Build 0)  -->
<!DOCTYPE svg PUBLIC "-//W3C//DTD SVG 1.1//EN" "http://www.w3.org/Graphics/SVG/1.1/DTD/svg11.dtd">
<svg version="1.1"
	 id="Layer_1" xmlns:cc="http://creativecommons.org/ns#" xmlns:dc="http://purl.org/dc/elements/1.1/" xmlns:rdf="http://www.w3.org/1999/02/22-rdf-syntax-ns#"
	 xmlns="http://www.w3.org/2000/svg" xmlns:xlink="http://www.w3.org/1999/xlink" x="0px" y="0px" width="306.8px" height="237.9px"
	 viewBox="0 0 306.8 237.9" style="enable-background:new 0 0 306.8 237.9;" xml:space="preserve">
<style type="text/css">
	.st0{clip-path:url(#SVGID_2_);}
	.st1{fill:#FFFFFF;}
	.st2{fill:#FF3C00;}
	.st3{clip-path:url(#SVGID_4_);}
	.st4{fill:#2B1D14;}
	.st5{clip-path:url(#SVGID_6_);}
	.st6{fill:#311D00;}
</style>
<g>
	<g>
		<g>
			<g>
				<g>
					<defs>
						<rect id="SVGID_1_" x="3.2" y="3.1" width="300" height="231.6"/>
					</defs>
					<clipPath id="SVGID_2_">
						<use xlink:href="#SVGID_1_"  style="overflow:visible;"/>
					</clipPath>
					<g class="st0">
						<path class="st1" d="M121.8,237.9c-16.9,0-33.7-5.1-47.7-14.5c-4.7,2.4-12,5.2-22.1,6.7l0,0c-1.9,0.3-3.8,0.5-5.6,0.5
							c-7.2,0-13.5-2.6-17.8-7.2c-3.5-3.6-5.4-8.5-5.4-13.5c-2.9-6.5-4-9.8-5.3-14.4l-0.1-0.4v-0.3c-0.5-2.3-0.7-4.6-0.5-7.1
							c-4-8.1-7.3-16.2-9.8-24.2c-25.6-81.2,18.6-133,64.2-152.6C87.9,3.7,106,0,124,0c41.5,0,78,19.3,100.5,53.1l8.9-3.8l15.5,28
							l0,0c5.6,9,3.1,17.1-0.8,21.3c-2.3,2.4-5.2,4.1-8.6,4.9c-0.5,1.6-1.1,3-1.8,4.4c-1,1.8-2.4,3.4-4.3,5l9.3,22
							c1.7,0.1,3.6,0.2,5.6,0.2c6.3,0,12.8-0.6,17.6-1h0.3l2.8-0.2c0.8-0.1,1.9-0.2,2.9-0.3c1.2-0.2,2.5-0.2,3.6-0.2
							c8.6,0,14.6,4.1,17.6,11.9l0,0l0.7,1.6l0.2,0.5l0.1,0.2c7.2,20.2,11.4,39,12.7,57.4v0.1v2.6l-0.6,0.2
							c-0.3,5.7-2.5,12.4-8.1,16.4c-0.1,0.1-0.3,0.3-0.5,0.4c-2.7,2.3-6.8,3.9-22.3,7.5c-1.5,0.7-4.2,1.7-7.5,1.7l0,0
							c-0.3,0-0.7,0-1,0c-8,2.1-16.2,3.2-24.4,3.2c-7.5,0-14.7-0.9-21.4-2.7c-11.7-3.1-21.8-9.1-29.3-17.2
							c-4.7,1.8-9.9,2.8-15.5,3.2H176c-1.1,0.1-4,0.4-7.6,0.4c-0.9,0-1.8,0-2.6-0.1c-7.6,8.5-18.4,14.1-31.4,16.2
							C130.2,237.5,126,237.9,121.8,237.9z M76.9,207.7c0.2,0.2,0.4,0.3,0.6,0.4c0.3,0.2,0.6,0.4,0.9,0.7
							c11.8,9.3,28.1,14.9,43.6,14.9c16.2,0,29.3-5.9,36.1-16.3l1.1-1.7l0.3,0.1l0.7-1.4c1.7-3.3,2.8-6.8,3.4-10.8
							c-0.1,0-0.2,0-0.3-0.1c-1.1-0.2-2.4-0.4-3.7-0.6c-0.4,0-0.8-0.1-1.3-0.2c-0.3-0.1-0.7-0.1-1-0.2h-0.1
							c-17.5-2.9-41.1-6.8-47.2-7.8c-0.9,0.4-1.9,0.6-2.8,0.6c-0.2,0-0.4,0-0.6,0c-3-0.2-5.9-2.1-7-4.7c-0.9-2.3-0.7-4.5,0.7-6.5
							h0.1c0.7-1.3,2.1-3.3,4.4-6.7c1.9-2.8,3.7-5.5,4.3-6.4c-0.1-2.6,1-4.7,1.9-5.7c0.3-0.4,1.2-1.7,2.1-3.2l-2.9-1.8h4
							c0.9-1.5,1.8-3,2.1-3.7c0.5-1,1.9-2.8,4.3-3.5c0.7-1.1,1.7-2.7,3-4.9c0.9-1.4,1.8-3,3-4.8c0-2.4,1.1-4.6,3-6.1
							c0.1-0.1,0.3-0.2,0.4-0.3l-6.9-7.4l9,4.5c4.3-6.9,8.5-13.5,9.8-15.5l0.1-0.1c1.5-2.1,2.8-3.7,4.1-5.2l0.8-0.9l0.1-0.1
							c0.4-0.4,1.5-1.4,2.4-2.1c0.9-1.1,2-1.9,3.2-2.5l0.1-0.1c4-3.3,9.5-5.4,10.2-5.7c7-2.9,19.2-6.3,32.8-9.1l-3.2-8.9
							c-2.6-6.1,0.8-8.9,1.2-9.2l7.2-5.4c-18.6-26.6-48.9-41.8-84.3-41.8c-6.3,0-12.9,0.5-19.4,1.5l-0.3-1.5
							C71.5,23.6,48.7,38.1,34,58.1C19.7,77.4,6.1,110.5,21.4,159.2c2.6,8.3,6.1,16.8,10.4,25.1l0.5,1l-0.2,1.1
							c-0.4,1.8-0.4,3.6,0,5.5c1.1,4.2,2.1,6.8,5.7,14.8l0.4,1l-0.3,1c-0.4,1.5,0,3.2,1.1,4.6c1.5,2,4.3,3.1,7.6,3.1
							c1.2,0,2.4-0.1,3.7-0.4h0.1c14.2-2.2,21.4-7.4,22.7-8.4l1.9-1.5L76.9,207.7z M268.5,217.5c0.2,0.1,0.4,0.2,0.7,0.2
							c0.2,0,0.3,0,0.4,0c0,0,0-0.1,0-0.2c1.2-13.4-1.6-30.1-6-44.6c0.9,3.5,0.8,5-0.3,6.2c-0.2,0.2-0.6,0.6-1.8,1.1
							c1,0.1,1.9,0.4,2.2,0.5l0.5,0.2l0.4,0.4c0.7,0.7,1.3,1.9,1.6,3.3c2.9,10.5,3.4,25.7,3.4,25.8c0,1.1-0.1,3.8-0.7,5.4l-0.2,0.5
							l-0.4,0.4c-0.1,0.1-0.2,0.2-0.4,0.3L268.5,217.5z M162.6,178.6c0.8,0.1,1.5,0.2,2.3,0.3c0.6-0.4,1.1-0.9,1.6-1.3l-4.5,0.9
							C162.2,178.5,162.4,178.5,162.6,178.6z M143.4,175.4c4.7,0.7,9.5,1.5,14,2.2c0.3,0.1,0.6,0.1,0.9,0.2c0.3,0,0.5,0.1,0.8,0.1
							c0.5,0.1,1,0.2,1.5,0.2c-0.7-2.6-1.8-5.9-3.1-9.6c-0.6-1.6-1.2-3.4-1.8-5.2c-0.5-0.3-1-0.5-1.5-0.9c-3.9-2.3-7.4-5.2-10.6-8.6
							c-0.6-0.5-4.1-3.9-7.8-7.5c-0.6,1-1.1,1.8-1.6,2.5l8.4,5.5c2.3,1.5,6.2,4,6.4,9.1c0.1,3.9-2.4,8.1-4.5,10.8
							C144.1,174.6,143.8,175,143.4,175.4z M164.2,166.8c1,3.7,1.8,7.2,2.4,10.6c2.6-2.4,5-5.6,6.7-9.1
							C170,168.2,167,167.6,164.2,166.8z M263.2,171.8c0.1,0.3,0.2,0.6,0.2,0.8l0,0C263.4,172.3,263.3,172.1,263.2,171.8z
							 M116.2,160.9c0.1,0.2,0.6,0.6,0.8,0.7l0.1,0.1l11.4,7l1.3,0.8l3.6,2.3c0.4,0.2,0.7,0.3,1,0.3c0.8,0,1.9-0.6,2.5-1.5
							c0.7-0.9,1.1-2.1-0.7-3.9l-0.4-0.4c-0.3-0.2-0.9-0.7-2.1-1.4c-2.4-1.4-10.6-6.3-14.8-8.9c-0.7,1-1.4,2.1-2.3,3.3
							C116.3,160.2,116.2,160.7,116.2,160.9z M111.8,169.2c0.4-0.5,0.7-1,1-1.5l0,0L111.8,169.2z M282.3,166
							c-0.6-1.9-1.1-3.9-1.7-5.8c0.5,1.7,1.1,3.7,1.6,5.7C282.2,166,282.3,166,282.3,166z M160.1,149c2.4,1.6,5,2.9,8.2,3.8
							l-8.9-19.6C158.8,137.8,159.1,142.9,160.1,149z M188.9,135.1c5.3,0,9.8,2.7,12.8,7.5c-0.2-2.1-0.3-4.3-0.3-6.6v-8.8l0.6,0.7
							l-0.1-0.1l0.2-1.1c0.1-0.7,0.2-1.2,0.3-1.6c1.1-5.5,3-10.1,5.9-13.6l0.1-0.1l0.1-0.1c0.1-0.1,0.2-0.3,0.3-0.4
							c0.3-0.5,0.7-0.9,1.1-1.4l3.1-3.1c-0.7,0-1.4,0-2.2,0c-3.2,0-6.4,0.2-9.2,0.4c-2.1,0.1-3.9,0.3-5.3,0.3
							c-1.6,0-2.8-0.1-3.8-0.8l-0.3-0.2c-1,0.1-1.7,0.1-1.8,0.1l-18.1-0.6l2.6,4.9c-3.6,2.3-6.1,4.5-7.7,6.1l10.7,23.5
							C180.7,136.9,184.7,135.1,188.9,135.1z M129.1,142.3l0.8-1.3l0,0C129.6,141.5,129.4,141.9,129.1,142.3z M143.8,133.5
							c2.1,2.3,4.7,4.9,7.2,7.5c-0.3-7.1,0.8-13.2,3.4-18.7l-1.5-3.3c-0.2,0.3-1.4,2.2-1.4,2.2l0,0c-0.9,1.4-2.4,3.8-4,6.4
							C146.4,129.3,145.1,131.4,143.8,133.5z M138.3,127.6l6.1-10C142.8,120.1,140.7,123.4,138.3,127.6
							C138.3,127.5,138.3,127.5,138.3,127.6z M149,110.5c-0.5,0.6-0.9,1.3-1.2,1.8l-0.1,0.1c0,0-0.4,0.5-0.6,0.8
							c0.7-0.9,1.3-1.8,1.9-2.5C149,110.6,149,110.6,149,110.5z M164.5,110c0.2-0.2,0.5-0.4,0.8-0.6c0.5-0.5,3-2.6,6.1-4.1H171
							l15.8-5.3c0.9-0.3,2-0.4,3.3-0.6c1.1-0.1,2.3-0.3,3.6-0.6c1.6-0.3,2.7-0.7,3.3-1.3c-9,2-19,4.4-27.5,7.9h-0.1
							c-2.1,0.8-3.9,1.8-5.7,2.8C164,108.9,164.2,109.5,164.5,110z M213.5,107.1l1.9-0.6c-0.7-0.1-1.5-0.1-2.3-0.1L213.5,107.1z
							 M219.9,86c-0.2-0.6-0.4-1.2-0.7-2c-0.5-1.2-1.3-3.5-2.3-6.3s-2.4-6.8-3-8.2c-0.3-0.3-0.4-0.7-0.5-1.1l-0.4-0.6
							c-1.1-1.5-1.9-1.7-2.7-1.7c-0.1,0-0.2,0-0.3,0.1c0,0.1,0,0.2,0,0.3v0.1c0.1,0.6,0.4,1.6,0.7,2.2l2.8,5.8l0.7,1.5l2.7,5.3
							c0.2,0.5,1.2,2.4,1.8,4.4L219.9,86z M233.4,80.7l-1.1-1.9l0.8,1.9C233.2,80.7,233.3,80.7,233.4,80.7z M199.5,64
							c0.4,0,0.9,0,1.3,0c0.6-0.3,1.4-0.7,2.1-1.1c-0.7-1-1.4-2.1-2.1-3.1L199.5,64z"/>
						<path class="st1" d="M294.7,222.9l-0.1,0.1c0.1-0.1,0.2-0.2,0.4-0.3L294.7,222.9L294.7,222.9z M174.7,209.2
							c0,0-7.8,1.1-14.1-0.2c-15.7,24-58.5,22.4-84.1,2.1c-0.5-0.4-1-0.7-1.5-1.1c-1.8,1.4-9.4,6.7-24.1,9
							c-12.3,2.4-17.4-5.6-15.9-11.1c-3.6-8-4.7-10.8-5.9-15.3c-0.7-3.2-0.3-5.6,0-6.9c-3.6-7-7.5-15.7-10.6-25.6
							c-44.3-141.7,140.2-200.7,200.2-94c1.2,0.1,1.9,0.4,2.2,1.1l1.6-0.7l7.2,16.3c-0.9-0.2-3.4-0.4-4-0.4v0.1
							c-0.4,0-0.8-0.1-1.2-0.1h-0.6c-1.6-4.8-3.6-11-5-14.6c-0.8-0.2-2.2-0.2-2.6-0.2c0,0,0,0.1,0.1,0.1c1.1,2,4.4,12.3,5.6,15.2
							c1.5,3.9,1.4,6.1,1.4,6.1l-7.2-0.1c-0.1-2.1-2.1-6-2.1-6l-2.7-5.4l-0.7-1.5l-2.8-5.9l0,0c-0.3-0.7-0.8-2.1-0.9-3.2
							c-0.5-3.8,3.2-3.8,3.3-3.8c1.9,0,3.5,0.7,5.1,2.9c0.3,0,0.7,0,1,0c-2.2-4.5-3.5-5.8-5-8.3C183.7,18,137.3,6.1,96.5,16.2
							c51.6-7.6,91,14.7,110.7,47.9c-1.6,0.8-4.4,2.2-5.7,2.9c-0.6,0-2.7-0.1-3.4,0c-1.2,0.1-2.4,0.2-1.5,3.1c0.6,2.2,0.9,2.7,1.3,4
							c0.6,1.6,2.5,6.4,3.8,10.6c-0.5,0.1-1,0.2-1.4,0.3c-0.2-0.7-0.5-1.5-0.8-2.3c-1.6-4.1-3.5-9.4-4.1-11.2
							c-0.3-0.9-0.7-2.7-0.2-4.2c0,0-2,1.5-0.2,5.7l4.4,12.2c-0.6,0.1-1.2,0.2-1.8,0.4c-13.4,2.7-26.5,6.2-33.9,9.3
							c0,0-5.5,2-9.4,5.2c-0.1,0.1-0.2,0.2-0.2,0.3c-1.1,0.3-2.2,1.1-2.9,2.1c-0.6,0.4-1.8,1.5-2.4,2.1c-1.5,1.8-2.9,3.4-4.6,5.8
							c-1.5,2.3-6.9,10.9-11.8,18.7c-0.4,0.2-0.8,0.4-1.2,0.7c-1.3,1-2.1,2.7-1.8,4.5c-3.9,6.3-6.2,10.1-7.2,11.6
							c-2.2,0.2-3.3,1.9-3.4,2.1c-0.9,1.9-5.1,8.7-5.8,9.4c-0.4,0.4-1.4,2.2-1,4.3l-0.4,0.7c0,0-9.1,13.5-9,13.5
							c-0.8,1.1-0.9,2.3-0.4,3.5c0.7,1.6,2.6,2.8,4.5,2.9c1,0.1,2-0.2,2.7-0.7c3.7,0.6,29.1,4.8,48.2,8c0.8,0.1,1.6,0.3,2.4,0.4
							c1.3,0.2,2.6,0.4,3.8,0.6c1.1,0.2,2.1,0.3,3.1,0.5c-0.5,5.6-1.9,10.4-4,14.6l0.8,0.1c13.3,1.1,22.8-1.3,29.4-5.8
							c0.6,1.1,1.2,2.1,1.8,3.1c-5.1,3.4-11.7,5.6-19.8,6.1L174.7,209.2z M228.3,94.6c0.2,2.7,0,6-1.3,8.5c-1.6,2.9-3.8,4.8-8,5.6
							c-0.1,0-0.3,0-0.6,0.1l0,0c-0.2,0-0.3,0-0.4,0.1c-0.3,0-0.6,0-0.9,0.1c4.2,10,18.2,43.1,18.2,43.1c-2.7,0.5-5.6,0.7-5.6,0.7
							l-17.6-41.3c-0.4,0.4-0.7,0.8-0.9,1.1c-0.2,0.2-0.3,0.4-0.5,0.6c-2.7,3.4-4.4,7.8-5.3,12.5c-0.1,0.3-0.2,0.8-0.3,1.4
							c8.3,12.8,19.5,17.6,19.5,17.6l2.8,6.8c-11.1-3.2-20.4-13.3-23-16.3c0,0.3,0,0.6,0,0.8c0,5.6,0.6,10.9,1.6,14.7
							c0.5,1.7,1,3.3,1.4,5c-1.3,0.1-2.5,0.3-3.8,0.4c-0.9-3.3-1.9-6.5-3.1-9.3c-6.3-14.9-23.4-8.1-22.2,0.9l-14.5-32
							c1.5-1.7,4.6-4.8,9.6-8c-3.5,1.5-6.2,4-6.2,4c-1.4,1.1-2.6,2.1-3.7,3.3c-0.3-0.7-0.6-1.3-0.9-1.9c-1-2.2-1.9-4.2-2.7-5.9
							c2.6-1.6,5.2-3.3,8.5-4.5c9.5-3.9,20.5-6.5,31-8.7c0.6-0.1,1.2-0.2,1.8-0.4c0.3,5.3-2.3,7.2-6.9,8.2c-3,0.6-5.4,0.7-6.6,1.1
							l2.8,0.1c0.1,0,3.3,0,7.6-1.5c2.9-1.1,5-3,4.1-8.2c0.5-0.1,1-0.2,1.5-0.3c0.8,4.9,0.1,9.6-9.4,10.6c1.6,1.1,16.4-1.6,25.3,0.4
							c0.2,0.1,3.9,1.4-0.3,3.3c8.3-1.8,8.7-10.1,7.1-16.2h0.3c1.5,0.1,2.9,0.3,3.9,0.5l0,0c0.8,0.1,1.8,0.2,2.7,0.3
							c6.1,0.6,5.6-6.7,2.4-7.6c-2.5-0.7-3.1-0.7-3.7-0.8l-0.9-0.1l-7.7-17.1l4.3-2l11,19.8c5.1,8.1-3.4,11.5-8,9
							c-1.1,0.5-1.6,1.1-2.1,1.7L228.3,94.6z M248.9,149.7c-3.7,0.9-12.2,1.9-12.2,1.9l-1.8-4c9,1.2,15.6,0.5,15.6,0.5
							C249,148.2,248.9,149.7,248.9,149.7L248.9,149.7z M256.9,148.5c-1-0.8-1.9-0.9-2.2-0.9c0,0,0,0-0.1,0c0,0,0,0,0.1,0
							c2.7,0.2,10.9-0.6,10.9-0.6C264.1,147.6,256.9,148.5,256.9,148.5L256.9,148.5z M275.2,149.3c0.1,0.5-0.2,2.2-2,2.5l-0.7,0.1
							c-1.7,0.5-5.1,1.3-8.4,2c-2.1,0.4-4,0.8-3.8,0.7c-0.4-1-0.8-2-2-4.5c3.7-0.6,8.5-1.6,11.8-2.6c1-0.3,3-0.6,3-0.6
							C274.4,147.2,275,148.1,275.2,149.3L275.2,149.3z M292.4,210.3c0-1.2-1.9-3.5-5.2-4.2c0,0,0.1-1.3,0-2.8
							c-0.8-8.4-3.8-23.6-3.8-23.6c4.7-1.5,4.2-11-3.7-11c-1.9-8.6-4.7-15.5-4.7-15.5c4.3-2.4,2.3-6.3-0.1-7.1c0,0,4.3-0.9,6.3,6.5
							C288.4,172.9,294,200.7,292.4,210.3L292.4,210.3z M282.4,178.2c0,0-2.4,1.2-13.2,3.1c0,0-0.9-3.4-1.3-5.1
							c0,0,9.2-1.9,12.8-3.3c0,0-0.1-1.2-1.8-1.2c0,0-9.3,2.4-11.5,2.6l-0.5-1.4c0,0,8-1.5,10.7-2.2c0,0,5.7-1.9,6.9,2.4
							C284.4,173.1,285.6,176.9,282.4,178.2L282.4,178.2z M285,216.2c-2.9,0.8-12.3,3.3-12.3,3.3c0.5-2.3,0.4-5.9,0.4-5.9
							c18.2-3.9,0.9-5.6,0.9-5.6c4,1.2,3.9,2.7,3.9,2.7c-1.7,0.1-4.8-0.8-4.8-0.8c0.1-1.1-0.2-5.8-0.2-5.8c4.7,2.1,5.5,1.5,10.4,2.6
							c5,1.1,2.6,3.2,2.6,3.2c-2.6,3.2-12,4.5-12,4.5c15.8-2.1,14.4-6.3,14.4-6.3C294.6,212.3,288.3,215.3,285,216.2L285,216.2z
							 M158.6,124.2l14.8,32.6c-6.8-0.8-11.3-2.8-16-6C155.7,141.8,155.2,132.8,158.6,124.2L158.6,124.2z M156.7,120.1l1,2.2
							c-4.5,8.4-4.4,17.8-2.7,26.7c-0.1-0.1-0.3-0.2-0.4-0.3c-0.5-0.5-1.1-1.1-1.7-1.6c-4-3.9-9.3-9.3-13-13.1
							c5.1-8.2,9.9-16,9.9-15.9c1.3-2.1,2.7-4.2,3.5-5.4L156.7,120.1L156.7,120.1z M155.1,101.5c0.7,0,1.3,0.2,1.3,0.3l25,55.6
							c0,0-3.5,0.2-6.1-0.4c-10.7-23.3-23.2-50.7-23.2-50.7c-0.5-0.9-0.5-1.8,0-2.7c0.7-1.2,2.1-1.9,3-1.8V101.5z M213.6,93.8
							c0,0,1.9-1.3,2-2.6c0,0,4.3,0,6.5,0C222.1,91.2,220.4,94.3,213.6,93.8L213.6,93.8z M234.8,85.3L234.8,85.3h0.1
							c1.1,0.2,1.7,1.5,1.6,2.7c-0.1,0.6-0.4,2-2.6,2c-1.9-0.4-6.9-0.9-9.5-1.1c0-2.2-1.3-5.3-1.3-5.3
							C226,83.9,233.3,84.7,234.8,85.3L234.8,85.3z M203.7,66.7l1.8-1c0,0,0.2-0.1,0.1-0.1c-0.1,0.2-0.1,0.7-0.1,0.7
							c0,0.6,0,1,0.7,2.9c1.1,2.9,6.8,14.7,7.4,16.4c3.3,8.5-5.2,10.1-6.1,6.3c9-0.7,5.4-10.1,0.2-8.8c-2-4.8-3.5-9.6-3.5-9.6
							S202.3,68.3,203.7,66.7L203.7,66.7z M202.2,67.4c-0.8,2.5,0.7,6.2,0.7,6.2l3.5,9.8l-1.8,0.3c0,0-2.3-6.3-3.7-10.7
							c-1.1-3.3-0.3-4.9-0.3-4.9L202.2,67.4L202.2,67.4z M208.1,85c1.7-0.2,3.2,1,3.4,2.2c0.2,1.1-0.4,2.4-2.5,2.7l-1,0.2
							c-13.1,2.6-27.8,5.6-40.2,10.6c-3.9,1.4-6,2.6-8.2,4.2c0,0-1.2-2.6-1.6-3.4c-0.7-1.2-0.8-1.3-1.4-1.7c1.8-1.2,4.1-2.3,7.2-3.6
							C172.9,92.5,191.8,87.6,208.1,85L208.1,85z M150.1,104.2c0,0-0.1,1.4,0.6,2.8c0.6,1.2,1.8,4.1,1.8,4.1
							c0.2-0.2-2.6,3.3-4.2,5.8l-9.5,15.6l-2.6-2.8c0,0-1.1-1.3-2.1-1.3c5-8.1,9.5-15.3,11.1-17.6
							C146.7,108.1,150.6,103.5,150.1,104.2L150.1,104.2z M193.9,185.3c0,0-2.3,0.4-6.2,0.1c-1.8-3.5-3.9-8.3-9.1-19.7
							c3.5,0.4,6.2,0,6.2,0L193.9,185.3L193.9,185.3z M209.2,167.2c0,0.3,0,0.6,0,0.9l26.9,4.6c0.5,1.5,2.4,5.9,2.4,5.9l-29.3-5
							c0,0.3,0,0.6,0,0.9c-0.2,3.4-0.7,6.6-1.5,9.6c-1.3,0.1-2.6,0.3-3.9,0.4c1.9-6.3,2.1-13.4,1.3-20.2c1.2-0.1,2.5-0.3,3.7-0.4
							C209,165,209.1,166.1,209.2,167.2L209.2,167.2z M247.7,178.3l-2.1-4.7c6.9,0.1,11.9,0,11.9,0c0.8,3-2,3.2-2,3.2l-7.4,1.5
							H247.7z M246.4,178.7c-0.9,0.4-5.4,1.1-5.4,1.1c-1.1-2.1-7.9-18.8-7.9-18.8c0.8-0.1,5.4-0.9,5.4-0.9
							C241.9,169.8,246.4,178.7,246.4,178.7L246.4,178.7z M118.5,167.7c5.3,3.2,12.9,7.9,12.9,7.9c5.2,3.3,9.2-1.5,10.5-3.1
							c1-1.3,4-5.4,3.9-8.9c-0.1-3.4-2.7-5.2-5-6.7l-10.8-7.1c1-1.6,2.6-4.2,5.1-8.2c4.9,4.9,10.5,10.2,10.5,10.2
							c3.3,3.6,6.7,6.2,10.1,8.2c0.8,0.5,1.6,0.9,2.4,1.3c2.2,6.6,4.5,12.4,5.5,16.7c-0.8-5-2.3-10.4-3.8-15.9
							c5.8,2.5,11.4,3.3,16.6,3.5c0.2,0,0.5,0,0.7,0l0.3,0.8c-2,5.5-5.9,11.3-10.8,14.9c0,0.3,0,0.6,0,0.9c-1.4-0.2-2.9-0.5-4.5-0.7
							c-1.1-0.2-2.3-0.4-3.5-0.6c-0.6-0.1-1.1-0.2-1.7-0.3c-17.5-2.8-38.7-6.1-42.6-6.8L118.5,167.7L118.5,167.7z M120.5,153.4
							c4,2.5,12.5,7.6,14.9,9c2.6,1.5,3.1,2.2,3.1,2.2c3,2.9,2.5,5.8,1,7.8c-1.7,2.3-4.9,3.7-7.6,1.9l-3.6-2.3l0,0l-1.3-0.8
							l-11.3-6.9l0,0l0,0c0,0-1.9-0.9-2.4-2.6c-0.3-1.2,0.1-2.5,1.1-4c2.4-3.4,3.6-5.3,4.1-6.2C119,152.5,120.6,153.4,120.5,153.4
							L120.5,153.4z M127.3,152.9l12.1,8.1c1.8,1.3,3.6,3.5,2.5,6.5c-0.2-2.8-3.7-5.1-3.7-5.1s-13-7.7-17-10.1
							c-2.3-1.4-2-3.4-0.9-4.4C120.3,151,125,153.5,127.3,152.9L127.3,152.9z M140.1,159.9c-2.4-1.6-11.6-7.7-11.6-7.7l1-0.9
							c4.2,2.7,9.6,6.3,12,8.1c4.2,3.2,2,7.1,2,7.1C143.9,164.1,142.8,161.8,140.1,159.9L140.1,159.9z M129.5,135.9
							c1.6,2.3,4.3,4.6,4.3,4.6l-6.6,10.5c-0.9,0.7-2.8,0-3.9-1.1c-0.3-0.3-1.5-1.6-0.8-2.5l0,0v-0.1
							C122.7,147.1,124.1,144.8,129.5,135.9L129.5,135.9z M106.5,180.3c-1.3-0.1-2.7-0.9-3.2-2c-0.3-0.6-0.2-1.2,0.2-1.9l8.6-13.2
							c0.5,1,4.9,3.6,4.9,3.6c-1.8,2.7-8.3,12.3-8.3,12.3C108.1,180.2,107.1,180.4,106.5,180.3L106.5,180.3z M201.9,197.1
							c-0.4-0.7-0.8-1.4-1.2-2.2l-0.6-1.2c1-0.1,1.5-0.2,1.5-0.2c1-0.1,2.1-0.2,3.1-0.3C203.8,194.6,202.9,195.9,201.9,197.1
							L201.9,197.1z M245.6,187.9c1.1-0.2,5.8-1.2,5.8-1.2c4.9,7.4,12.8,12.7,12.8,12.7c0.2,1.9,0.4,6.6,0.4,6.6
							C252.1,199.9,245.6,187.9,245.6,187.9L245.6,187.9z M264.2,221.1c-13.3,3.4-27.5,3.6-39.5,0.4c-10.9-2.9-23.8-9.2-30.9-25
							c0,0-0.9-1.7-1.1-2.5c0,0,3.7,0.1,6-0.1c11.1,23.8,39.7,28.2,64.4,21.9c0,0,2.2-0.4,2.9-1.1c0.5-1.2,0.5-4.2,0.5-4.2
							c0-0.7-0.6-15.3-3.3-25.1c-0.2-1-0.6-1.7-0.8-1.9c0,0-0.7-0.3-1.3-0.3c-1.3,0-3,0.3-3,0.3c-15.1,3.6-38.5,6.6-57,8.5
							c0,0-1.5,0.2-3.9,0.3l-2,0.1c-3.5,0-8.5-0.2-14.7-1.2c0,0-68.9-11.2-68.4-11.2l3.7-5.1l66.4,10.9c10.1,1.5,14.8,0.8,15,0.8
							c17.9-1,50.7-5.9,59-8c0,0,4.3-1,4.9-1.6c0.4-0.4-0.5-3.6-0.5-3.6c0-0.1-3.3-10.7-4.9-14.8v0.1c0-0.2-0.7-2.4-1.5-2.8h-0.5
							c0,0-1,0.2-2.1,0.4c-15.6,2.8-44,6.8-60.5,7.8c1.4-0.1-6.8,0.3-13.1-0.2c-9.1-0.5-19.2-2.8-29.2-13.7
							c-0.1-0.1-11.2-10.7-15.7-15.6c-1.1-1.6-0.5-3.3,0.6-4.2c0.8-0.7,2.5-1,3.4,0.1c2,2.6,13.2,14.2,18.7,19.4
							c6.1,4.8,10.6,7.3,19.1,8.3c4.6,0.6,10.1,0.5,10.4,0.5c11.3,0.3,52.6-4.8,64.4-7.1c1.5-0.2,2.5-0.6,2.5-0.6v-0.2l0.1-0.5
							c0-0.2,0.7-0.7,1.3-1c1.1-0.5,2.6-0.5,3.8,0.5c8.7,15.9,17.2,45.5,15.2,67.9c-0.1,1.2-0.6,2.1-1.5,2.6c0,0-2,0.9-4-0.1
							c0,0,0.1,0.2-2.1,0.9L264.2,221.1z M303.7,205.5v-0.3c-1.3-18.2-5.4-36.7-12.5-56.6l-0.1-0.2l-0.1-0.2l-0.8-2l0.1,0.2
							c-2.9-7.6-9-10.9-18.1-9.8c0,0-4.2,0.5-4.1,0.4l-1.7,0.1c-6.9,0.6-17,1.5-25.8,0.7l-11-25.9c2.3-1.5,4.2-3.2,5.4-5.4
							c1-1.8,1.6-3.6,2-5.5c3.4-0.5,6.5-2,8.8-4.4c3.3-3.6,5.2-10.2,0.5-17.7l0.2,0.4L232,53.1l-8.7,3.7
							C187.9,1.2,121.5-7.6,72.8,13.5c-44.5,19.2-87.5,69.8-62.5,149c2.6,8.4,6,16.6,10,24.5c-0.2,2.5-0.1,4.9,0.5,7.4v0.1v0.1
							c1.3,4.8,2.4,8,5.4,14.6c-0.2,4.3,1.4,8.8,4.6,12.1c4.9,5.3,12.6,7.3,21.2,5.7l-0.4,0.1c11.4-1.6,18.8-5,22.7-7.2
							c17.1,12,39.4,17.3,59.5,14c12.9-2.1,23.4-7.7,30.6-16.3c5.5,0.4,10.5-0.2,11.5-0.3c6.1-0.4,11.7-1.7,16.6-3.8
							c7.3,8.6,17.3,14.7,29.2,17.9c13.9,3.7,29.7,3.4,44.7-0.6c2.9,0.3,5.8-0.5,7.8-1.5c15.7-3.6,19.3-5.1,21.6-7.1
							c0,0,0.1,0,0.1-0.1c5.6-3.8,7.4-11.1,7.2-16.4"/>
					</g>
				</g>
			</g>
		</g>
	</g>
	<g>
		<path class="st2" d="M146.2,219.5c4.9-2.6,9.1-6.1,12.3-10.9l0,0c1.5-2.1,2.5-4.2,3.3-6.3C158.6,210.1,153.1,215.8,146.2,219.5"/>
		<path class="st2" d="M139.8,133.9c3.6,3.8,9,9.3,13,13.1c-0.9-5.8-1.1-11.7,0.1-17.2c0.8-3.7,2.2-6.9,3.8-9.7l-3.4-7.5
			c-0.8,1.2-2.2,3.3-3.5,5.4C149.8,117.9,144.9,125.7,139.8,133.9"/>
		<path class="st2" d="M152.6,162.4c2.3,5.1,4.8,11.5,6.1,18.5c1.2,0.2,2.4,0.4,3.5,0.6c-0.4-1.8-0.8-3.4-1.1-4.8
			c-0.6-2.9-3.2-9.1-5.5-16.6c-3.4-2-6.8-4.6-10.1-8.2c-0.1-0.1-5.7-5.4-10.5-10.2c-2.5,4-4.1,6.6-5.1,8.2l10.8,7.1
			c2.3,1.5,4.9,3.4,5,6.7c0.1,3.5-2.9,7.6-3.9,8.9c-1.3,1.7-5.3,6.4-10.5,3.1c0,0-7.6-4.7-12.9-7.9l-4.1,6.1
			c3.9,0.6,25.2,4,42.6,6.8c-0.9-6.7-3.1-12.9-4.5-18.2"/>
	</g>
	<g>
		<g>
			<g>
				<g>
					<defs>
						<rect id="SVGID_3_" x="3.2" y="3.1" width="300" height="231.6"/>
					</defs>
					<clipPath id="SVGID_4_">
						<use xlink:href="#SVGID_3_"  style="overflow:visible;"/>
					</clipPath>
					<g class="st3">
						<path class="st2" d="M170.3,106.9c6.2-3.4,10-5.2,19.9-6.4l2.5-0.3c1.7-0.3,4.9-0.9,5.8-2.6c0.5-0.9,0.7-2.2,0.7-3.7
							c-10.5,2.2-21.5,4.8-31,8.7c-3.3,1.2-5.9,2.9-8.5,4.5c0.8,1.7,1.7,3.6,2.7,5.9c2.5-2.4,5-4.1,6.8-5.3
							C169.5,107.4,170.3,106.9,170.3,106.9"/>
						<path class="st2" d="M98.5,177.2c-1.1,0.4-2.4,0.6-3.6,0.6c-3.5,0-6.9-1.6-9.5-4.3c-5.1-5.3-5.4-13.4-0.7-18.1
							c2.1-2.1,4.9-3.3,8-3.3c3.5,0,6.9,1.6,9.5,4.3s3.9,6.2,4,9.6L98.5,177.2L98.5,177.2z M115.7,189.1c-9.5,10.1-28.4,10-39.1-3.7
							C94.8,202.2,111.7,191.1,115.7,189.1z M87.8,204.4c-0.8,0.7-1.9,0.9-3.1,0.8c-1.3,0.8-3.3,0.4-4.7-1.1
							c-1.3-1.4-1.7-3.2-1.1-4.5c-0.3-2,0.3-4,1.8-5c2.1-1.5,5.4-0.6,7.3,2.1C89.9,199.4,89.8,202.7,87.8,204.4L87.8,204.4z
							 M132.4,186.4c3.1,0,5.7,2.6,5.7,5.7c0,2.3-1.4,4.3-3.4,5.2c-0.7,0.7-1.6,1.2-2.7,1.2c-1.5,0-2.7-0.9-3.3-2.2
							c-1.2-1-1.9-2.5-1.9-4.2C126.8,189,129.3,186.5,132.4,186.4L132.4,186.4z M192.9,66.9c0.3-0.5,0.7-0.8,1.2-1.1
							C177.9,38.3,139,9.8,87.9,18.2C39,33.9,0.8,82.1,17.6,150c7.1,25.9,15.4,39.6,24.5,52.6c0,0-0.4,6.2,10.4,3
							c9.8-3,15.7-3.2,25.9,4.4c17.8,13.2,48.3,19.2,67.9,9c6.8-3.7,12.4-9.3,15.6-17.3c1.4-3.9,1.8-7.9,1.6-11.6
							c-1.2-0.2-2.5-0.4-3.8-0.6c-0.8,16.1-16.8,31.6-45.4,29.9c-11.9-0.4-24.6-6.2-32.2-10.4c-3.5-2.3-13.3-7.9-18-8.9
							c4.1,0.2,14.4,5.6,18.6,8.1c8.8,4.5,21.1,8.9,31.6,9.3c19.1,1.8,40.7-8,43-28.4c-19.1-3.2-44.5-7.4-48.2-8
							c-0.7,0.5-1.7,0.8-2.7,0.7c-1.9-0.1-3.8-1.3-4.5-2.9c-0.6-1.2-0.4-2.4,0.4-3.5l9-13.5l0.4-0.7c-0.4-2.1,0.6-3.9,1-4.3
							c0.7-0.7,4.9-7.5,5.8-9.4c0.1-0.2,1.2-1.9,3.4-2.1c1-1.5,3.3-5.2,7.2-11.6c-0.3-1.8,0.5-3.5,1.8-4.5c0.4-0.3,0.8-0.5,1.2-0.7
							c4.8-7.9,10.3-16.4,11.8-18.7c1.7-2.4,3.1-4,4.6-5.8c0.6-0.6,1.8-1.7,2.4-2.1c0.7-1,1.8-1.7,2.9-2.1c0-0.1,0.1-0.2,0.2-0.3
							c3.9-3.2,9.4-5.2,9.4-5.2c7.4-3.1,20.5-6.6,33.9-9.3c-0.9-2.7-3.9-11.3-3.9-11.3c-0.1-0.4-2.2-4.6-0.6-7.1"/>
					</g>
				</g>
			</g>
		</g>
	</g>
	<g>
		<g>
			<path class="st4" d="M157,180.6c0.6,0.1,1.1,0.2,1.7,0.3c-1.4-7-3.8-13.5-6.1-18.5C153.9,167.7,156.1,173.9,157,180.6"/>
			<path class="st4" d="M114.2,218c-10.5-0.4-22.8-4.8-31.6-9.3c-4.3-2.5-14.6-7.9-18.6-8.1c4.7,1,14.6,6.5,18,8.9
				c7.6,4.1,20.3,9.9,32.2,10.4c28.6,1.8,44.6-13.7,45.4-29.9c-0.8-0.1-1.6-0.3-2.4-0.4c-2.5,20.2-24.1,30-43.3,28.5"/>
			<path class="st4" d="M92.6,152.1c-3.1,0-5.9,1.1-8,3.3c-4.6,4.7-4.3,12.9,0.7,18.1c2.6,2.7,6,4.3,9.5,4.3c1.3,0,2.5-0.2,3.6-0.6
				l7.6-11.3c-0.1-3.4-1.4-6.9-4-9.6C99.6,153.7,96.1,152.1,92.6,152.1"/>
			<path class="st4" d="M76.9,185.1c10.7,13.7,29.6,13.8,39.1,3.7C111.9,190.8,95,201.9,76.9,185.1"/>
			<path class="st4" d="M132.4,187.5c3.7,0,6.2,4.7,3.2,7.9c1.3-2.9,0.2-6.5-3.3-6.7c-3.7-0.1-4.9,3.5-4.2,5.5
				C126.9,193,127.3,187.5,132.4,187.5L132.4,187.5z M134.3,191.6c-0.8-0.9-2.8-1.3-4-0.5c-0.5,0.3-1.1-0.1-0.4-0.8
				c1.3-1.1,3.7-1.1,4.8,0.6C135.3,191.7,134.7,192.3,134.3,191.6z M131.8,197.9c-1.7,0-3.1-1.4-3.1-3.1c0-1.7,1.4-3.1,3.1-3.1
				s3.1,1.4,3.1,3.1S133.5,197.9,131.8,197.9z M128.5,196.4c0.6,1.3,1.9,2.2,3.3,2.2c1.1,0,2-0.4,2.7-1.2c2-0.9,3.4-2.9,3.4-5.2
				c0-3.1-2.5-5.7-5.7-5.7c-3.1,0-5.7,2.5-5.7,5.7C126.6,193.8,127.3,195.3,128.5,196.4"/>
		</g>
		<g>
			<path class="st1" d="M130,190c-0.7,0.7-0.1,1.1,0.4,0.8c1.2-0.8,3.2-0.4,4,0.5c0.4,0.7,1,0.1,0.5-0.7
				C133.7,188.9,131.3,188.8,130,190"/>
			<path class="st1" d="M132.4,188.5c3.5,0.2,4.6,3.8,3.3,6.7c3.1-3.2,0.5-7.9-3.2-7.9c-5.2,0-5.6,5.5-4.3,6.7
				C127.6,192,128.8,188.4,132.4,188.5"/>
			<path class="st1" d="M132,196.9c-1.4,0-2.5-1.1-2.5-2.5s1.1-2.5,2.5-2.5s2.5,1.1,2.5,2.5C134.4,195.8,133.3,196.9,132,196.9z
				 M135.1,194.4c0-1.7-1.4-3.1-3.1-3.1c-1.7,0-3.1,1.4-3.1,3.1c0,1.7,1.4,3.1,3.1,3.1C133.7,197.6,135.1,196.2,135.1,194.4"/>
		</g>
		<path class="st4" d="M130,194.9c0.1-0.3,0.2-0.2,0.3,0.1c0.7,1.1,2.5,1.1,3.1,0.3c0.3-0.4,0.3,0.2,0.3,0.2
			C132.5,197.8,129.8,196.3,130,194.9L130,194.9z M131.8,192.4c-1.4,0-2.5,1.1-2.5,2.5s1.1,2.5,2.5,2.5s2.5-1.1,2.5-2.5
			S133.2,192.4,131.8,192.4"/>
		<path class="st1" d="M133.4,194.9c-0.6,0.8-2.4,0.7-3.1-0.3c-0.1-0.2-0.2-0.4-0.3-0.1c-0.2,1.4,2.5,2.9,3.7,0.6
			C133.7,195.1,133.7,194.5,133.4,194.9"/>
		<path class="st4" d="M86.7,204.2c3.8-4.9-3.6-10.7-6.5-6.1C82.6,190.7,92.4,200.1,86.7,204.2z M85.8,200.4c-0.4-0.8-1.6-1.8-2.3-2
			c-0.7-0.1-0.4-1.2,0.4-1c0.8,0.3,2,1.3,2.2,1.8C86.9,200.4,86.1,201.1,85.8,200.4L85.8,200.4z M80.7,203.7
			c-1.3-1.4-1.6-3.3-0.5-4.3c1-1,3-0.7,4.3,0.7s1.6,3.3,0.5,4.3C84,205.5,82,205.1,80.7,203.7L80.7,203.7z M81.1,194.7
			c-1.4,1-2,3-1.8,5c-0.6,1.2-0.3,3.1,1.1,4.5c1.4,1.5,3.4,1.9,4.7,1.1c1.1,0.1,2.2-0.2,3.1-0.8c2-1.7,2.1-5,0.3-7.7
			C86.5,194.2,83.2,193.3,81.1,194.7"/>
		<g>
			<path class="st1" d="M83.8,197.4c-0.8-0.3-1.1,0.8-0.4,1c0.7,0.1,1.9,1.2,2.3,2c0.3,0.7,1.1,0.1,0.4-1.2
				C85.7,198.6,84.5,197.6,83.8,197.4"/>
			<path class="st1" d="M79.8,197.9c2.9-4.6,10.3,1.2,6.5,6.1C92,199.7,82.3,190.4,79.8,197.9"/>
			<path class="st1" d="M84.2,203.8c-0.9,0.6-2.3,0.1-3.4-0.9c-1.2-1.1-1.3-2.7-0.5-3.5c0.9-0.9,2.5-0.3,3.4,0.8
				C84.6,201.1,85.2,203,84.2,203.8L84.2,203.8z M84.3,199.7c-1.3-1.4-3.2-1.7-4.3-0.7c-1,1-0.8,2.9,0.5,4.3
				c1.3,1.4,3.2,1.7,4.3,0.7C85.8,203.1,85.6,201.1,84.3,199.7"/>
		</g>
		<path class="st4" d="M83.8,203.8c-1.8,0.2-3.4-2-2.7-2.9c0,0,0.5-0.7,0.6,0c0.2,1.1,1.3,2.2,2.3,2.4
			C84.2,203.3,84.3,203.7,83.8,203.8L83.8,203.8z M80.6,199.8c-0.8,0.8-0.7,2.4,0.5,3.5c1.1,1,2.5,1.5,3.4,0.9
			c1-0.8,0.3-2.7-0.4-3.6C83.1,199.5,81.5,199,80.6,199.8"/>
		<path class="st1" d="M81.3,200.3c-0.1-0.6-0.6,0-0.6,0c-0.7,1,0.9,3.1,2.7,2.9c0.5-0.1,0.5-0.5,0.2-0.5
			C82.6,202.5,81.5,201.4,81.3,200.3"/>
		<path class="st1" d="M72.4,209.7c0.4-0.2,0.7-0.5,1-0.7c-4.9-3.1-10.9-5.1-20.7-1.9c-0.2,0.1-0.3,0.1-0.4,0.1
			c2.4-0.5,5.6-1,7.6-0.9c2.6,0.2,6.4,0.6,10,2.8l-1.8,1c-8.6,4.1-15.7,5.3-19.8,5.6c-4,0.3-3.2-2.1-0.6-3.4
			c1.5-0.7,2.7-2.1,3.2-4.7c-0.4,0.2-0.4,0.1-1.1,0.3c0,0,0,0-0.1,0c-0.9,6.3-13.2,5.7-11.9-2.9c0,0-1.8-3.6-2.8-5.8
			c0,0.1-0.3-1.3-0.1-1.4c0,0,3,4.9,4.2,6.4c-1.7,5.9,6.9,8.3,9.2,3.9c-7.5,1.4-7.8-2.4-7.7-3.7c-0.1-0.2-0.1-0.4-0.2-0.6
			c-1.3-1.3-5.6-7-10.4-15.9c-0.7,5.2,5.2,17.2,5.7,18.4l0.5,1.2c-1.8,4.9,3.3,11.4,12.5,9.9C57.9,216.6,68.1,212.8,72.4,209.7"/>
		<g>
			<path class="st4" d="M199.3,193.9l0.6,1.2c0.4,0.7,0.8,1.5,1.2,2.2c1-1.2,2-2.5,2.8-3.8c-1,0.1-2.1,0.2-3.1,0.3
				C200.8,193.7,200.3,193.8,199.3,193.9"/>
			<path class="st4" d="M203.8,184.6c1.3-0.1,2.6-0.3,3.9-0.4c0.8-3.1,1.3-6.3,1.5-9.6c0-0.3,0-0.6,0-0.9l29.3,5
				c0,0-1.9-4.4-2.4-5.9l-27-4.9c0-0.3,0-0.6,0-0.9c-0.1-1.1-0.2-2.2-0.3-3.3c-1.3,0.1-2.5,0.3-3.7,0.4c0.9,6.8,0.7,13.9-1.3,20.2"
				/>
			<path class="st4" d="M152.6,147.2c0.6,0.6,1.2,1.1,1.7,1.6c0.1,0.1,0.3,0.2,0.4,0.3c-1.7-8.9-1.8-18.3,2.7-26.7l-1-2.2
				c-1.6,2.8-3,6-3.8,9.7C151.5,135.5,151.7,141.4,152.6,147.2"/>
			<path class="st4" d="M162.4,181.6c1.5,0.2,3.1,0.5,4.5,0.7c0-0.3,0-0.6,0-0.9c4.9-3.6,8.8-9.4,10.8-14.9l-0.3-0.8
				c-0.2,0-0.5,0-0.7,0c-5.2-0.3-10.8-1.1-16.6-3.5c1.5,5.6,3,10.9,3.8,15.9c-1-4.3-3.4-10.1-5.5-16.7c-0.8-0.4-1.6-0.8-2.4-1.3
				c2.3,7.5,4.9,13.7,5.5,16.6C161.7,178.2,162.1,179.8,162.4,181.6"/>
		</g>
		<path class="st1" d="M202.3,140.3c-1.8-8.3,0.1-23.6,6.1-28C199.8,113.4,197.4,135,202.3,140.3"/>
		<path class="st4" d="M173.3,157l-14.8-32.6c-3.4,8.6-2.9,17.7-1.2,26.6C162,154.3,166.4,156.3,173.3,157"/>
		<path class="st4" d="M202.3,140.3c-4.9-5.4-2.5-27,6.1-28C202.4,116.7,200.5,132.1,202.3,140.3z M230.8,92.8c4.7,2.4,13.1-0.9,8-9
			l-11-19.8l-4.3,2l7.7,17.1l0.9,0.1c0.6,0.1,1.2,0.1,3.7,0.8c3.2,0.9,3.8,8.2-2.4,7.6c-1-0.1-2-0.2-2.7-0.3l0,0
			c-1.1-0.2-2.4-0.4-3.9-0.5h-0.3c1.6,6.1,1.1,14.4-7.1,16.2c4.3-1.9,0.5-3.2,0.3-3.3c-8.9-2-23.7,0.7-25.3-0.4
			c9.5-0.9,10.2-5.7,9.4-10.6c-0.5,0.1-1,0.2-1.5,0.3c0.9,5.2-1.2,7.1-4.1,8.2c-4.4,1.5-7.5,1.5-7.6,1.5l-2.8-0.1
			c1.2-0.4,3.7-0.5,6.6-1.1c4.6-1,7.2-3,6.9-8.2c-0.6,0.1-1.2,0.2-1.8,0.4c0.1,1.5-0.1,2.8-0.7,3.7c-0.9,1.7-4.1,2.3-5.8,2.6
			l-2.5,0.3c-9.9,1.3-13.7,3.1-19.9,6.4c0,0-0.8,0.5-1.1,0.8c-1.9,1.1-4.3,2.8-6.8,5.3c0.3,0.6,0.6,1.3,0.9,1.9
			c1.1-1.1,2.4-2.2,3.7-3.3c0,0,2.8-2.4,6.2-4c-5,3.2-8.1,6.3-9.6,8c4,8.8,9.3,20.5,14.5,32c-1.2-9,15.9-15.7,22.2-0.9
			c1.2,2.8,2.3,6,3.1,9.3c1.2-0.1,2.5-0.3,3.8-0.4c-0.4-1.7-0.9-3.3-1.4-5c-0.9-3.8-1.6-9.1-1.6-14.7c0-0.3,0-0.6,0-0.8
			c2.6,3,11.9,13.1,23,16.3l-2.8-6.8c0,0-11.2-4.8-19.5-17.6c0.1-0.6,0.2-1.1,0.3-1.4c0.9-4.7,2.6-9.1,5.3-12.5
			c0.2-0.2,0.4-0.4,0.5-0.6c0.2-0.2,0.4-0.6,0.9-1.1l17.6,41.3c0,0,2.9-0.2,5.6-0.7l-18.2-43.1c0.3,0,0.6-0.1,0.9-0.1
			c0.1,0,0.3,0,0.4-0.1l0,0c0.3,0,0.5,0,0.6-0.1c4.2-0.8,6.4-2.6,8-5.6c1.4-2.5,1.6-5.8,1.3-8.5C229,93.8,229.6,93.3,230.8,92.8"/>
		<path class="st1" d="M123.6,162.9c-0.4,5.1,4.3,5.9,6.9,4.9c0.6,4.2,4.2,4.3,6,4c-2.2,1.4-6.4,0.5-7.2-3.5
			C125.9,169.4,122.2,166.7,123.6,162.9L123.6,162.9z M124.5,161.8c0.8-0.7,1.4-1,2.6-0.9c-0.5,0.8-0.7,2-0.8,3.2
			c-0.2-0.2-0.4-0.2-0.7-0.5v0.9c0.2,0.3,0.4,0.4,0.7,0.6c0,0.8,0,1.3,0.2,1.8c-0.2-0.1-0.3-0.2-0.4-0.3
			C123.7,165.2,124.5,161.8,124.5,161.8L124.5,161.8z M128.6,161.1c1.8,0.6,3,2.1,3,3.7h0.2c-0.1,1.2-1.4,2.7-3.8,2.4
			c-0.1-0.5-0.1-1-0.2-1.6c0.4,0.1,0.9,0.2,1.3,0.2c0-0.2,0-0.7,0-0.7c-0.5,0-0.9-0.2-1.4-0.4C127.8,163.3,128.1,162.1,128.6,161.1
			L128.6,161.1z M132.8,164.9c3.6-0.1,6.3,3.5,4.5,6l-0.6,0.1c-3.1,0.4-4.8-0.8-5.4-3.6C131.8,167.1,132.6,166.1,132.8,164.9
			L132.8,164.9z M128.6,169.5c0,0,0.2,0.5,0.6,1.3l0,0c0.3,0.6,0.9,1.2,1.6,1.6c4.8,2.8,7.4-0.8,7.4-0.8s2.2-2.9-1-6
			c-0.1-0.1-2-1.8-4.6-1.5c-0.3-1.1-1.7-4.1-5.6-4l0,0l0,0c-3.2,0.2-3.9,1.9-4.3,2.9c0,0-0.8,2.2,0.4,4
			C123,167.1,124.6,170.1,128.6,169.5"/>
		<g>
			<path class="st4" d="M212.1,72c-1-0.7-2.6-3-2.4-4.8C212.2,67.2,212.9,70.7,212.1,72"/>
			<path class="st4" d="M214.6,78.3c-1.2-1.2-1.9-2.6-2-4.5C214.5,74.2,215.7,76.6,214.6,78.3"/>
			<path class="st4" d="M204.2,73.4c0,0,1.5,4.8,3.5,9.6c5.1-1.3,8.8,8.1-0.2,8.8c0.9,3.8,9.4,2.2,6.1-6.3
				c-0.7-1.7-6.3-13.5-7.4-16.4c-0.7-1.9-0.7-2.2-0.7-2.9c0,0,0-0.5,0.1-0.7l-0.1,0.1l-1.8,1C202.3,68.2,204.3,73.4,204.2,73.4"/>
			<path class="st4" d="M200.8,73.4c1.4,4.4,3.7,10.7,3.7,10.7l1.8-0.3l-3.5-9.8c0,0-1.4-3.8-0.7-6.2l-1.7,0.8
				C200.5,68.5,199.7,70.1,200.8,73.4"/>
			<path class="st4" d="M213.6,94.1c6.8,0.5,8.5-2.6,8.5-2.6c-2.2,0-6.5,0-6.5,0C215.5,92.8,213.6,94.1,213.6,94.1"/>
			<path class="st4" d="M133.9,128.5c1,0,2.1,1.3,2.1,1.3l2.6,2.8l9.5-15.6c1.6-2.5,4.4-6,4.2-5.8c0,0-1.2-2.9-1.8-4.1
				c-0.7-1.5-0.6-2.8-0.6-2.8c0.5-0.6-3.4,4-5,6.6C143.5,113.2,138.9,120.4,133.9,128.5"/>
			<path class="st4" d="M254.9,147.7c0.3,0,1.2,0.1,2.2,0.9c0,0,7.2-0.9,8.8-1.5C265.8,147.1,257.7,147.9,254.9,147.7"/>
			<path class="st4" d="M254.9,147.7C254.9,147.7,254.8,147.7,254.9,147.7L254.9,147.7"/>
			<path class="st4" d="M257.4,173.8c0,0-5,0.1-11.9,0l2.1,4.7l7.8-1.5C255.3,176.9,258.2,176.8,257.4,173.8"/>
			<path class="st4" d="M238.7,160c0,0-4.6,0.8-5.4,0.9c0,0,6.8,16.7,7.9,18.8c0,0,4.5-0.7,5.4-1.1
				C246.6,178.6,242.1,169.7,238.7,160"/>
			<path class="st4" d="M250.5,187c0,0-4.7,1-5.8,1.2c0,0,6.6,12,19,18.1c0,0-0.2-4.7-0.4-6.6C263.3,199.8,255.4,194.4,250.5,187"/>
			<path class="st4" d="M287.9,208.2c0,0,1.4,4.3-14.4,6.3c0,0,9.4-1.3,12-4.5c0,0,2.5-2.1-2.6-3.2c-4.9-1.1-5.7-0.5-10.4-2.6
				c0,0,0.3,4.6,0.2,5.8c0,0,3.1,0.9,4.8,0.8c0,0,0.1-1.4-3.9-2.7c0,0,17.3,1.6-0.9,5.6c0,0,0.1,3.6-0.4,5.9c0,0,9.4-2.5,12.3-3.3
				C288,215.3,294.3,212.4,287.9,208.2"/>
			<path class="st4" d="M178.7,165.9c5.2,11.4,7.2,16.2,9.1,19.7c3.9,0.3,6.2-0.1,6.2-0.1l-9-19.5
				C184.9,165.9,182.2,166.3,178.7,165.9"/>
			<path class="st4" d="M152.1,103.4c-0.5,0.9-0.5,1.8,0,2.7c0,0,12.5,27.4,23.2,50.7c2.7,0.6,6.1,0.4,6.1,0.4l-25.6-55.6
				c0-0.1-0.6-0.3-1.3-0.3c-0.9,0-2.3,0.7-3,1.8"/>
			<path class="st4" d="M269.7,220.5c0.9-0.5,1.4-1.4,1.5-2.6c2-22.3-6.5-52.1-15.2-67.9c-1.2-1-2.7-1-3.8-0.5
				c-0.6,0.3-1.3,0.8-1.3,1l-0.1,0.5v0.2c0,0-0.9,0.4-2.5,0.6c-12.1,2.4-53.1,7.4-64.4,7.1c-0.3,0-5.8,0.1-10.4-0.5
				c-8.6-1-13-3.5-19.1-8.3c-5.6-5.2-16.8-16.8-18.7-19.4c-0.9-1.1-2.6-0.8-3.4-0.1c-1.2,0.9-1.8,2.7-0.6,4.2
				c4.5,4.9,15.5,15.4,15.7,15.6c10,10.9,20.1,13.1,29.2,13.7c6.4,0.4,14.6,0.1,13.1,0.2c16.7-1,45.1-5,60.5-7.8
				c1.2-0.3,2.1-0.4,2.1-0.4h0.5c0.7,0.3,1.4,2.6,1.5,2.8v-0.1c1.6,4.1,4.9,14.7,4.9,14.8c0,0,0.9,3.2,0.5,3.6
				c-0.5,0.6-4.9,1.6-4.9,1.6c-8,2.1-41,7-59,8c-0.1,0-4.8,0.8-15-0.8l-66.4-10.9l-3.7,5.1c-0.3,0,68.4,11.2,68.4,11.2
				c6.2,1,11.2,1.2,14.7,1.2l2-0.1c2.5-0.1,3.9-0.3,3.9-0.3c18.4-1.9,41.9-4.9,57-8.5c0,0,1.7-0.4,3-0.3c0.5,0,1.3,0.3,1.3,0.3
				c0.3,0.2,0.6,0.9,0.8,1.9c2.7,9.7,3.3,24.4,3.3,25.1c0,0,0.1,3-0.5,4.2c-0.6,0.7-2.9,1.1-2.9,1.1c-24.5,6.3-53.1,1.8-64.4-21.9
				c-2.4,0.2-6,0.1-6,0.1c0.2,0.8,1.1,2.5,1.1,2.5c7.1,15.8,20,22.1,30.9,25c12,3.2,26.3,3,39.5-0.4c2.1-0.7,2.1-0.9,2.1-0.9
				c2,1,4,0.1,4,0.1"/>
			<path class="st4" d="M122.6,162.9c0.4-1,1.1-2.7,4.3-2.9l0,0l0,0c3.9-0.1,5.3,2.9,5.6,4c2.6-0.3,4.6,1.4,4.6,1.5c3.2,3.1,1,6,1,6
				s-2.6,3.6-7.4,0.8c-0.6-0.4-1.2-1-1.6-1.6l0,0c-0.4-0.7-0.6-1.3-0.6-1.3c-4,0.6-5.6-2.4-5.6-2.4
				C121.8,165.1,122.6,162.9,122.6,162.9L122.6,162.9z M118.5,151.5c-0.5,0.9-1.7,2.8-4.1,6.2c-1,1.5-1.4,2.8-1.1,4
				c0.5,1.7,2.3,2.6,2.4,2.6l0,0l0,0l11.3,6.9l1.3,0.8l0,0l3.6,2.3c2.7,1.8,5.9,0.3,7.6-1.9c1.5-2,2.1-4.9-1-7.8
				c0,0-0.5-0.7-3.1-2.2c-2.4-1.4-10.9-6.5-14.9-9C120.6,153.5,119,152.6,118.5,151.5"/>
			<path class="st4" d="M141.8,159.5c-2.4-1.8-7.8-5.4-12-8.1l-1,0.9l11.6,7.7c2.7,1.8,3.8,4.2,3.3,6.5
				C143.8,166.6,146,162.7,141.8,159.5"/>
			<path class="st4" d="M121.6,152.1c4,2.5,17,10.1,17,10.1s3.5,2.2,3.7,5.1c1.1-3-0.7-5.3-2.5-6.5l-12.1-8.1c-2.3,0.6-7-1.9-6.9-5
				C119.5,148.7,119.3,150.7,121.6,152.1"/>
			<path class="st4" d="M131.5,167.4c0.5,2.8,2.3,4,5.4,3.6l0.6-0.1c1.8-2.6-1-6.1-4.5-6C132.7,166.1,131.9,167,131.5,167.4"/>
			<path class="st4" d="M129.5,168.3c0.8,3.9,5,4.8,7.2,3.5c-1.8,0.3-5.4,0.2-6-4c-2.6,1-7.3,0.2-6.9-4.9
				C122.4,166.7,126.2,169.3,129.5,168.3"/>
			<path class="st4" d="M270.2,147.7c-3.3,1-8.1,1.9-11.8,2.6c1.3,2.5,1.6,3.5,2,4.5c-0.2,0.1,1.8-0.3,3.8-0.7
				c3.4-0.6,6.7-1.4,8.4-2l0.7-0.1c1.9-0.4,2.1-2.1,2-2.5c-0.2-1.2-0.8-2.1-2.3-2.3C273.1,147.1,271.2,147.4,270.2,147.7"/>
			<path class="st4" d="M277.5,170.8c-2.7,0.6-10.7,2.2-10.7,2.2l0.5,1.4c2.2-0.2,11.5-2.6,11.5-2.6c1.8,0,1.8,1.2,1.8,1.2
				c-3.6,1.3-12.8,3.3-12.8,3.3c0.4,1.7,1.3,5.1,1.3,5.1c10.9-1.9,13.2-3.1,13.2-3.1c3.2-1.3,2-5.1,2-5.1
				C283.2,168.8,277.5,170.8,277.5,170.8"/>
			<path class="st4" d="M281,152.6c-2-7.5-6.3-6.5-6.3-6.5c2.4,0.7,4.4,4.7,0.1,7.1c0,0,2.8,6.9,4.7,15.5c7.9-0.1,8.4,9.4,3.7,11
				c0,0,3,15.2,3.8,23.6c0.1,1.5,0,2.8,0,2.8c3.3,0.7,5.2,3,5.2,4.2C293.8,200.6,288.2,172.9,281,152.6"/>
			<path class="st4" d="M235.2,147.7l1.8,4c0,0,8.6-0.9,12.2-1.9c0,0,0.1-1.4,1.6-1.6C250.9,148.2,244.2,148.9,235.2,147.7"/>
			<path class="st4" d="M117.2,166.9c0,0-4.3-2.6-4.9-3.6l-8.6,13.2c-0.4,0.6-0.5,1.3-0.2,1.9c0.5,1,1.8,1.9,3.2,2
				c0.7,0,1.6-0.1,2.2-1C108.9,179.2,115.4,169.6,117.2,166.9"/>
			<path class="st4" d="M156.5,100c0.6,0.3,0.7,0.4,1.4,1.7c0.4,0.8,1.6,3.4,1.6,3.4c2.2-1.7,4.3-2.8,8.2-4.2
				c12.4-5,27.1-8,40.2-10.6l1-0.2c2.1-0.3,2.7-1.6,2.5-2.7c-0.2-1.3-1.6-2.4-3.4-2.2c-16.3,2.6-35.2,7.5-44.3,11.3
				C160.6,97.6,158.3,98.8,156.5,100"/>
			<path class="st4" d="M122.6,147.2L122.6,147.2c-0.8,1,0.5,2.3,0.7,2.6c1.2,1.1,3,1.8,3.9,1.1l6.6-10.5c0,0-2.6-2.4-4.3-4.6
				C124.1,144.6,122.7,147,122.6,147.2L122.6,147.2"/>
			<path class="st4" d="M222.9,83.8c0,0,1.3,3.1,1.3,5.3c2.6,0.2,7.6,0.7,9.5,1.1c2.1,0,2.5-1.4,2.6-2c0.1-1.2-0.5-2.5-1.6-2.7h-0.1
				h-0.1C233.1,84.9,225.8,84.1,222.9,83.8"/>
			<path class="st4" d="M129,165.4c-0.5,0-0.9-0.1-1.3-0.2c0,0.6,0,1.1,0.2,1.6c2.5,0.4,3.7-1.2,3.8-2.4h-0.2c0.1-1.6-1.2-3.1-3-3.7
				c-0.5,1-0.8,2.2-0.9,3.6c0.5,0.2,0.9,0.4,1.4,0.4C129.1,164.7,129,165.2,129,165.4"/>
		</g>
	</g>
	<g>
		<g>
			<g>
				<g>
					<defs>
						<rect id="SVGID_5_" x="3.2" y="3.1" width="300" height="231.6"/>
					</defs>
					<clipPath id="SVGID_6_">
						<use xlink:href="#SVGID_5_"  style="overflow:visible;"/>
					</clipPath>
					<g class="st5">
						<path class="st4" d="M126.1,166.4c0.2,0.1,0.3,0.2,0.4,0.3c-0.1-0.5-0.2-1.1-0.2-1.8c-0.3-0.2-0.6-0.3-0.7-0.6v-0.9
							c0.2,0.3,0.4,0.3,0.7,0.5c0.1-1.2,0.3-2.4,0.8-3.2c-1.2-0.1-1.8,0.2-2.6,0.9C124.4,161.6,123.6,165,126.1,166.4"/>
						<path class="st4" d="M217,76.9c0.7,2.8-1.4,4.4-3.5,2c-0.9-1-1.3-1.9-1.6-3.1l-0.1-0.2c-0.3-1.5-0.2-2.7-0.2-2.7
							c-1.3-1.1-1.8-2.2-2.2-3c-1.2-3.6,0-4.4,0.5-4.6c2-0.5,4.7,2.5,4.5,6.9C215.7,73.3,216.5,74.4,217,76.9L217,76.9z M30.2,188
							c4.9,8.9,9.1,14.6,10.4,15.9c0,0.2,0.1,0.4,0.1,0.6c-0.1,1.3,0.2,5.2,7.7,3.7c-2.3,4.4-10.9,2-9.2-3.9
							c-1.2-1.5-4.2-6.4-4.2-6.4c-0.1,0,0.1,1.5,0.1,1.4c1,2.1,2.8,5.8,2.8,5.8c-1.4,8.6,11,9.2,11.8,2.9c0,0,0,0,0.1,0
							c0.6-0.1,0.7,0,1.1-0.2c-0.5,2.6-1.8,4-3.2,4.7c-2.7,1.3-3.4,3.7,0.6,3.4c4.1-0.3,11.3-1.4,19.8-5.6l1.8-1
							c-3.6-2.3-7.4-2.7-10-2.8c-2-0.1-5.3,0.4-7.6,0.9c0.1,0,0.3-0.1,0.4-0.1c9.8-3.2,15.8-1.2,20.7,1.9c-0.3,0.2-0.7,0.5-1,0.7
							c-4.3,3.1-14.5,6.9-23.5,7.8c-9.2,1.5-14.3-5-12.5-9.9l-0.5-1.2C35.4,205.2,29.5,193.2,30.2,188L30.2,188z M229.3,82.8
							l-7.2-16.3l-1.6,0.7c-0.4-0.7-1.1-1-2.2-1.1C158.2-41.2-26.2,18.3,18.1,159.9c3.1,10,7,18.6,10.6,25.6c-0.3,1.3-0.8,3.7,0,6.9
							c1.2,4.5,2.2,7.3,5.9,15.3c-1.5,5.5,3.6,13.4,15.9,11.1c14.7-2.3,22.3-7.6,24.1-9c0.5,0.3,1,0.7,1.5,1.1
							c26,20.3,68.4,21.9,84.1-2.1c6.2,1.3,14.1,0.2,14.1,0.2c8.2-0.5,14.7-2.7,19.8-6.1c-0.6-1-1.2-2-1.8-3.1
							c-6.6,4.5-16,6.8-29.4,5.8l-0.9-0.1c2.1-4.2,3.5-9,4-14.6c-1-0.2-2-0.3-3-0.5c0.1,3.7-0.2,7.7-1.6,11.6
							c-0.8,2.1-1.8,4.3-3.3,6.3l0,0c-3.2,4.7-7.4,8.3-12.3,10.9c-19.7,10.3-50.2,4.3-67.9-9c-10.2-7.6-16.2-7.4-25.9-4.4
							c-10.8,3.3-10.4-3-10.4-3c-9-12.9-17.4-26.6-24.5-52.6C0,81.9,38.4,34.2,87.4,18.4c50.7-8.7,90,19.9,106.2,47.5
							c-0.5,0.3-0.9,0.6-1.2,1.1c-1.6,2.5,0.4,6.7,0.6,7.1l3.9,11.3c0.6-0.1,1.2-0.2,1.8-0.3l-4.4-12.2c-1.8-4.1,0.2-5.7,0.2-5.7
							c-0.5,1.5-0.1,3.3,0.2,4.2c0.6,1.8,2.5,7.1,4.1,11.2c0.3,0.8,0.6,1.6,0.9,2.3c0.5-0.1,0.9-0.2,1.4-0.3
							c-1.4-4.1-3.3-9-3.8-10.5c-0.5-1.3-0.7-1.8-1.3-4c-0.8-2.9,0.3-3,1.6-3.1c0.7-0.1,2.8,0,3.4,0c1.3-0.7,4-2,5.7-2.9
							C187,30.9,147.7,8.5,96,16.1c40.8-9.9,87,1.8,115.1,41.6c1.5,2.5,2.7,3.8,5,8.3h-1c-1.6-2.2-3.1-2.9-5-2.9
							c-0.1,0-3.8,0-3.3,3.8c0.1,1.2,0.6,2.6,0.9,3.2l0,0l2.8,5.8l0.7,1.6l2.7,5.4c0,0,2,3.9,2.1,6l7.2,0.1c0,0,0.1-2.2-1.4-6.1
							c-1.1-2.8-4.5-13.1-5.6-15.2v-0.1c0.4,0,1.8,0,2.6,0.2c1.4,3.6,3.5,9.7,5,14.6h0.6c0.4,0,0.8,0.1,1.2,0.1v-0.1
							C226,82.4,228.4,82.6,229.3,82.8"/>
					</g>
				</g>
			</g>
		</g>
	</g>
	<g>
		<path class="st1" d="M214.6,78.3c-1.2-1.2-1.9-2.6-2-4.5C214.5,74.2,215.7,76.6,214.6,78.3z M212,71.7c-1-0.7-2.6-3-2.4-4.8
			C212.1,66.9,212.8,70.5,212,71.7z M216.9,76.7c-0.6-2.5-1.4-3.6-2.5-4.6c0.2-4.4-2.6-7.4-4.5-6.9c-0.5,0.2-1.8,1-0.5,4.6
			c0.4,0.8,0.9,1.8,2.2,3c0,0-0.2,1.2,0.2,2.7l0.1,0.2c0.4,1.2,0.8,2.1,1.6,3.1C215.5,81,217.6,79.5,216.9,76.7"/>
	</g>
	<g>
		<path class="st6" d="M92.1,177c-6.2-1.7-10.3-7-10.4-13.4c0-2.6,0.2-3.5,1.1-5.4c2.7-5.5,9.1-7.6,14.9-4.9c4.2,2,7.4,6.1,8.1,10.5
			c0.3,1.6,0.1,1.9-3.6,7.4c-3.7,5.4-4,5.7-5.5,6C94.8,177.6,94.4,177.6,92.1,177L92.1,177z"/>
		<path class="st6" d="M112.2,225.8c-12.8-1.9-25.1-7-35.6-14.9c-1.3-1-1.4-1-2.5-0.3c-7.4,4.8-19.5,8.5-27.5,8.5
			c-3.3,0-3.9-0.1-6.2-1.3c-3.6-1.9-4.9-3.8-5.3-7.8c-0.2-2.3-0.7-4.1-2.2-7.5c-3-6.8-4.1-10.9-3.8-14.4c0.2-2.8,0.1-3-1.8-6.9
			c-2.2-5.1-5-11.8-6.9-17.3c-13.2-39-10.2-75.1,8.8-103.5c10.1-15.3,24-27.6,41.6-36.4c36.6-18.3,80.7-16.5,113.3,4.7
			c12.5,8.1,24,20,31.9,33c2.7,4.3,3.7,5.3,5.9,5.4c0.6,0,1.5,1.6,4.2,7.6c1.8,4.2,3.3,7.6,3.2,7.7s-1.2,0-2.6-0.2l-2.5-0.3
			l-2.3-6.8c-1.3-3.7-2.5-7-2.7-7.3s-1-0.5-1.7-0.5c-1,0-1.2,0.1-0.9,0.7c1.1,2.7,6.3,17.9,6.6,19.1l0.3,1.5H220h-3.5l-0.3-1.3
			c-0.1-0.7-2.1-5.2-4.4-9.9c-4.6-9.6-5.2-11.7-3.6-13.3c0.6-0.5,1.5-0.9,2.4-0.9c1.5,0,3.9,1.3,4.3,2.3c0.1,0.3,0.6,0.6,1.1,0.6
			c0.8,0,0.8-0.1-0.5-2.4c-5.2-9.2-15-20.6-23.7-27.7c-23.4-18.9-53.5-26.7-84.6-22.2c-2.4,0.3-5.7,1-7.4,1.4l-2.9,0.9l2.3-0.2
			c1.2-0.1,4.1-0.4,6.3-0.6c5.4-0.5,17.1-0.5,22.4,0c10,1,19.9,3.2,28.4,6.3c9.2,3.4,20.5,9.8,28.2,15.9c3.9,3.1,10.3,9.5,14,13.8
			c2.7,3.2,8.7,11.8,8.7,12.4s-5.1,2.7-6.6,2.7c-2.8,0.1-3.8,0.5-3.9,1.7c-0.1,0.6,1.1,4.4,2.6,8.5s2.7,7.6,2.7,7.6
			c0,0.1-0.2,0.2-0.5,0.2c-0.8,0-5.3-12.4-5.5-15.3c-0.2-2.2-0.3-2.3-0.8-1.7c-1,1.3-0.6,3.2,1.9,10.2c1.4,3.8,2.4,6.9,2.3,7
			c-0.7,0.7-1.6-0.9-3.6-7c-2.6-7.5-2.9-9.7-1.5-11.2l0.9-0.9l-2.9-4.2c-13.8-19.4-34.2-34.2-57-40.9c-11.4-3.1-24.4-4.6-35.4-3.7
			C90.5,17.4,87.7,18,81,20.6C55.2,30.9,35.6,48.5,24.2,71.9c-8.4,16.9-12,36.4-10.2,56.3c2,23.2,10.8,48.4,24,68.5
			c2.3,3.5,4.2,6.6,4.2,7c0,0.8,1.5,2.4,2.7,2.8c1.7,0.6,3.5,0.4,8.6-0.9c3.9-1.1,5.7-1.3,9.1-1.3c6.1,0,8.7,1,17.8,7.4
			c6.8,4.8,18,9.4,27,11.2c12.8,2.6,24.3,2.1,34.1-1.4c13.3-4.8,21.2-14.5,22.4-27.8l0.3-3.2l1.1,0.3c0.6,0.1,1.2,0.3,1.2,0.4
			c0.3,0.3-1,6.5-2.1,9.6c-0.7,1.9-1.3,3.8-1.4,4.1c-0.5,1.6,12.6,1.3,19.7-0.5c1.8-0.5,4.9-1.6,6.8-2.6l3.5-1.8l0.7,1.4
			c0.4,0.8,0.6,1.5,0.6,1.5c-0.7,0.6-6.5,3.2-8.6,3.8c-5.7,1.8-15.6,2.8-21.2,2.1l-3.5-0.4l-1.2,1.5c-8.7,10.9-21.3,16.1-38.2,16
			c-3.1,0-7.4-0.3-9.4-0.6L112.2,225.8z M54,217c7.1-1.4,16-4.7,19.1-7.2l1-0.8l-2.7-1.3c-3.4-1.6-5.4-2.1-9.2-2.1
			c-3,0-8.5,1-9.3,1.7c-0.2,0.2,0.2,0.2,1,0.1c2.8-0.6,9.9-0.4,12.4,0.5c3.6,1.2,3.7,1.6,0.5,3.1c-5.9,2.7-15.8,5.2-19.2,4.9
			c-2.1-0.2-1.9-1.3,0.5-3c1.4-1,2.3-2,2.7-3.1c0.4-0.9,0.6-1.8,0.5-1.8c-0.4-0.4-1.4,0.4-2,1.7c-1.1,2.4-4.6,3.4-7.4,2.1
			c-2.1-0.9-3.2-2.4-3.5-4.8c-0.2-1.2-0.6-2.9-1-3.8c-0.9-2.1-0.6-2.3,0.6-0.4c0.6,0.9,1.1,2.4,1.2,3.6c0.2,1.6,0.5,2.3,1.5,3.2
			c2.2,2,5.2,2,7.3,0.1l1.1-1h-2.6c-3.7,0-5.4-1.1-5.4-3.3c0-0.4-1.1-2.2-2.4-4c-1.3-1.8-3.7-5.5-5.4-8.2c-1.6-2.7-3.1-5-3.2-5
			c-0.5,0,0.3,4.6,1.3,7.7c0.6,1.8,1.8,5.1,2.9,7.4c1.4,3.3,1.8,4.7,1.8,6.5c0,2.5,0.6,3.9,2.3,5.5C41.6,217.9,46.1,218.5,54,217
			L54,217z M216.4,79.7c1.3-0.9,0.9-4.1-0.8-6.7c-0.5-0.8-1.1-2.2-1.2-3.2c-0.4-3-3.1-5.7-4.7-4.7c-1.2,0.7-0.9,4.2,0.4,6.2
			c0.6,0.9,1.2,2.4,1.4,3.2C212.2,78.2,214.7,80.8,216.4,79.7L216.4,79.7z"/>
		<path class="st6" d="M98,196.3c0.5-0.1,1.2-0.1,1.6,0s0,0.2-0.9,0.2S97.5,196.4,98,196.3z"/>
		<path class="st6" d="M81.5,189.6c-0.3,0.3,5.1,3.6,7.3,4.4c1.2,0.5,3.3,1.1,4.6,1.4c6.1,1.3,13.1,0.1,18.3-3.2
			c1.1-0.7,1.9-1.3,1.8-1.4c-0.1-0.1-1.7,0.5-3.6,1.3c-9,3.6-17.2,3.3-25.3-1.1C83,190.2,81.6,189.5,81.5,189.6L81.5,189.6z
			 M83.6,194.1c-0.3,0-0.6,0-0.9,0.1c-1.8,0.5-2.9,2-3.2,4.3c-0.2,1.8-0.2,1.8,0.5,0.9c0.4-0.6,1.1-0.9,1.8-0.9c0.8,0,1.2-0.3,1.6-1
			c0.4-0.9,0.4-1-0.3-1c-0.4,0-1.2,0.4-1.8,0.8c-1.3,1.1-1.4,0.4-0.1-1.1c2.3-2.6,6.9,0,7.5,4.2c0.2,1.4,0,1.8-0.9,2.8
			c-0.8,0.9-1,1-0.8,0.4c0.6-1.7,0.6-3.4,0-4.6c-0.4-0.7-0.9-1.3-1.1-1.3s-0.1,0.4,0.2,0.9c0.8,1.1,0.8,2,0,2
			c-0.4,0-0.5,0.4-0.4,1.4c0.2,1.1,0,1.7-0.5,2.3c-0.7,0.8-0.7,0.8,0.3,0.8c0.6,0,1.7-0.5,2.4-1.2c1.2-1,1.3-1.5,1.3-3.2
			C89.4,197.1,86.5,194.1,83.6,194.1L83.6,194.1z M81.6,199.3c-0.4,0-1.4,1.3-1.4,1.8c0,0.3,0.3,0.1,0.7-0.3
			c0.5-0.6,0.7-0.7,0.9-0.2c0.1,0.3,0.8,1.2,1.5,1.9c1.1,1.2,1.3,1.2,1.4,0.5c0.2-1.1-0.7-2.6-1.8-3.1
			C82.2,199.5,81.7,199.3,81.6,199.3L81.6,199.3z"/>
		<path class="st6" d="M124.4,169.1c-9.2-5.6-10.8-6.9-10.8-8.5c0-0.5,1.1-2.7,2.5-4.9l2.5-4l1.1,1c0.6,0.5,4.9,3.3,9.6,6.1
			s9.1,5.7,9.8,6.3c2.7,2.9,1.9,7-1.8,8.9C134.8,175.4,133.9,175,124.4,169.1L124.4,169.1z M137.8,171.9c2.4-2.4,1.3-6.2-2.2-7.6
			c-0.9-0.4-1.9-0.7-2.2-0.7s-0.9-0.5-1.3-1.2c-1-1.6-2.9-2.6-4.9-2.6c-2.2,0-3.7,1-4.5,2.9c-1.3,3,1.1,6.6,4.4,6.6
			c0.9,0,1.6,0.2,1.6,0.4s0.5,0.9,1.1,1.6C131.8,173.7,135.7,174,137.8,171.9L137.8,171.9z"/>
		<path class="st6" d="M104.7,179.4c-0.7-0.5-0.9-1-0.8-1.7c0.2-1.2,8.1-13.6,8.7-13.6c0.2,0,0.8,0.4,1.4,0.8
			c0.6,0.5,1.5,1.2,2.1,1.6l1,0.7l-4.4,6.4c-4.1,6.1-4.4,6.4-5.7,6.4C106.2,180,105.2,179.7,104.7,179.4L104.7,179.4z"/>
		<path class="st6" d="M127.9,166.4c-0.2-0.4,0-0.6,0.6-0.6c1.1,0,1-0.8,0-1.1c-0.6-0.2-0.8-0.4-0.6-1.3c0.5-2.2,0.8-2.3,2.1-1
			c0.7,0.7,1.3,1.7,1.3,2.1C131.3,166.3,128.5,167.9,127.9,166.4L127.9,166.4z"/>
		<path class="st6" d="M125.6,165.6c-0.8-1-1.1-3.6-0.4-4c1.5-0.9,2.2,0.2,0.9,1.5c-0.6,0.6-0.6,0.8-0.1,1.7
			C126.6,165.9,126.3,166.5,125.6,165.6L125.6,165.6z"/>
		<path class="st6" d="M132.6,169.5c-0.6-0.7-1-1.4-0.9-1.6c0.1-0.1,0.4-0.9,0.7-1.6c0.7-1.5,1.3-1.6,3.1-0.5c1.6,1,2.3,2.1,2.1,3.6
			c-0.1,1-0.3,1.1-2,1.2C133.9,170.8,133.6,170.7,132.6,169.5L132.6,169.5z"/>
		<path class="st6" d="M233.8,223.4c-6.9-0.8-15.3-3.1-20.3-5.6c-9.2-4.6-17.1-12.9-20.9-21.9l-0.6-1.5h2.9h2.9l1,2
			c1.6,3.2,5.8,8.5,8.6,10.9c6.9,5.8,15.1,9.4,25.4,10.9c4.6,0.7,15.1,0.6,20.2-0.2c5.3-0.8,11.1-2.2,11.8-2.8
			c1.6-1.4-0.6-25-2.9-30.5c-0.5-1.2-0.7-1.4-2.2-1.4c-0.9,0-4.2,0.6-7.5,1.2c-10.7,2.3-25.1,4.4-43.7,6.5
			c-12.1,1.4-18,1.5-25.2,0.6c-6.9-0.9-71.2-11.4-71.6-11.8c-0.4-0.4,2.8-4.4,3.4-4.4c0.3,0,15.8,2.5,34.4,5.6l33.8,5.6h8.6
			c4.7,0,10.8-0.2,13.5-0.5c22.3-2.4,44.9-5.9,52.3-8.1l2.2-0.7l-0.2-1.8c-0.3-2.5-5.5-18-6.3-19c-0.7-0.8-0.7-0.8-4.8,0
			c-10.2,2-35.1,5.4-49.6,6.8c-8,0.8-22.1,0.9-27,0.2c-6.9-1-14.2-4.1-19.2-8.1c-4-3.2-21.3-20.7-21.6-21.7
			c-0.3-1.4,0.9-3.1,2.4-3.3c0.9-0.1,1.6,0.4,3.8,2.9c6.4,7,16.9,17.3,19.6,19.2c7.9,5.4,14.3,6.8,29.8,6.4
			c11.7-0.3,28.9-2.1,49.2-5c13.5-2,15-2.2,15-2.9c0-0.3,0.6-0.9,1.3-1.2c2.8-1.4,4.2,0.3,8.3,10.4c6.7,16.6,10.5,34.7,10.6,50.4
			c0,6.7,0,7.7-0.7,8.7s-1,1.1-2.9,1.1c-1.2,0-3.9,0.4-6.1,1c-7.6,2-19.2,2.8-27.4,1.9L233.8,223.4z"/>
		<path class="st6" d="M268.8,179l-0.6-2.4l6.1-1.5c3.4-0.8,6.2-1.6,6.3-1.7c0.5-0.5-0.3-1.5-1.1-1.5c-0.5,0-3.3,0.6-6.2,1.3
			c-3.7,0.9-5.5,1.1-5.7,0.8c-0.2-0.2-0.3-0.5-0.3-0.6c0.6-0.5,13.1-2.7,14.2-2.5c2.6,0.5,3.9,4.1,2.4,6.3c-0.8,1.2-6,2.8-12.9,4
			l-1.5,0.3L268.8,179L268.8,179z"/>
		<path class="st6" d="M290.8,207.7c-0.7-0.5-1.7-1.1-2.4-1.2c-1.1-0.2-1.1-0.4-1.1-2.4c0-2.2-1.4-12-2.9-19.5l-0.8-4.3l1-1
			c3.5-3.3,1.8-9-3.1-10.4c-1.7-0.5-1.8-0.6-2.3-2.8c-0.3-1.2-1.3-4.6-2.2-7.5c-1.7-5.2-1.7-5.3-0.8-5.8c1.3-0.9,1.7-2.6,1.1-4.4
			c-0.6-1.8-0.3-1.9,1.1-0.4c1.5,1.6,2,2.8,4.4,10c3.8,11.8,7,24.9,8.6,35.9c1,6.5,1.6,14.8,1,14.7
			C292.2,208.7,291.5,208.2,290.8,207.7L290.8,207.7z"/>
		<path class="st6" d="M259.7,153c-0.4-1-0.8-2-0.8-2.2c0-0.3,0.9-0.6,1.9-0.7c1.1-0.1,4.2-0.8,7-1.5c5.4-1.3,6.1-1.2,7,0.4
			c0.6,1.1-0.4,2.6-1.7,2.9c-0.5,0.1-3.2,0.7-5.9,1.3c-2.7,0.6-5.4,1.2-5.9,1.3C260.7,154.7,260.4,154.5,259.7,153L259.7,153z"/>
		<path class="st6" d="M236.1,149.9c-0.4-0.9-0.6-1.6-0.5-1.6s3.2,0,7,0.2c5.5,0.2,6.8,0.4,6.5,0.8c-0.3,0.5-4.9,1.5-9.6,2l-2.7,0.3
			L236.1,149.9L236.1,149.9z"/>
		<path class="st6" d="M202.7,152.6c-2.1-7.1-5.1-11.8-8.9-13.7c-2.3-1.2-6.5-1.4-9.2-0.5c-3,1-5.9,3.9-6.4,6.3l-0.3,1.7l-7-15.5
			l-7-15.5l1.5-1.5c0.8-0.8,2.9-2.6,4.6-3.9c1.7-1.3,3.1-2.4,3-2.5c-0.3-0.3-3.7,1.7-6.6,4.1c-2.5,2-3.2,2.4-3.5,2
			c-1.2-1.9,10.8-9.3,18.5-11.4c1.7-0.5,5.4-1.2,8.2-1.6c6.5-1,8.5-1.8,9.2-3.6c0.3-0.7,0.6-1.8,0.6-2.4s0.2-1,0.6-1
			c0.9,0,0.8,2.8-0.2,4.4c-1.1,1.8-3.5,2.9-8.2,3.7c-2.3,0.4-4.1,0.8-4.1,1.1c0,0.5,5.3,0.1,8.4-0.7c4.7-1.2,6.4-3.1,6.4-6.9
			c0-1.4,0.1-1.9,0.7-1.9c0.6,0,0.6,0.4,0.5,2.5c-0.3,3.9-2.5,6.1-6.9,7c-4.3,0.9-2.6,1.2,4.2,0.9c15.7-0.8,22.4,0.2,19.1,2.8
			l-1,0.8l1-0.3c1.9-0.5,4.1-2,5.1-3.4c1.5-2.2,2-4.4,1.8-8.6l-0.1-3.8l2.7,0.3c4.7,0.6,6.4,0.5,7.6-0.6c0.8-0.8,1.1-1.4,1.1-2.9
			c0-2.6-1.1-3.8-4.4-4.4l-2.5-0.5l-2.7-6c-1.5-3.3-3.2-7-3.7-8.3l-1-2.3l1.6-0.8c0.9-0.5,1.8-0.8,2-0.8s3.1,4.9,6.5,10.9
			c5.4,9.6,6.1,11.2,6.1,12.9c0,1.6-0.2,2.2-1.2,3.2c-1.6,1.7-4,2.3-6.3,1.7c-1.6-0.4-1.9-0.4-2.9,0.3c-0.9,0.7-1.1,1.1-1.3,4.3
			c-0.2,2.8-0.5,3.9-1.3,5.4c-1.8,3.1-4.3,4.8-8,5.4c-0.9,0.2-1.7,0.4-1.7,0.6c0,0.1,4,9.8,8.9,21.4c7.4,17.4,8.8,21.1,8.3,21.3
			c-0.4,0.1-1.5,0.3-2.6,0.5L230,153l-7.9-18.5c-4.3-10.2-8.3-19.5-8.9-20.7l-1-2.3l-1.2,1.4c-1.8,2.1-3.9,6.4-4.8,9.6
			c-1.5,5.2-1.6,4.6,1.5,8.7c4.1,5.2,8.1,8.8,14.3,12.6c2.5,1.5,2.7,1.8,3.8,4.5c0.6,1.6,1.1,2.9,1,3s-2.1-0.8-4.4-2
			c-5.2-2.6-9.4-5.7-14.2-10.5c-1.9-1.9-3.6-3.5-3.8-3.5c-0.7,0,0.6,11.6,1.9,16.7c0.5,1.9,0.8,3.5,0.7,3.5
			c-0.1,0.1-0.8,0.2-1.6,0.4l-1.5,0.2L202.7,152.6L202.7,152.6z M202.1,139.5c-0.6-1.9-0.7-6.9-0.3-10.6c0.8-6.9,2.3-11.6,5-15
			c1.3-1.6,1-1.9-0.8-1c-3.7,1.9-6.6,9.6-6.6,17.5c0,4.5,1.3,9.7,2.5,9.7C202.1,140.2,202.2,139.9,202.1,139.5L202.1,139.5z"/>
		<path class="st6" d="M168.4,155.8c-3.9-1-4.8-1.4-8.3-3.4l-2.9-1.7l-0.5-3.1c-0.8-5.2-1-11.2-0.5-14.6c0.6-4.1,1.7-8.1,2.1-7.7
			c0.3,0.3,13.1,28.1,13.9,30.3C172.8,156.8,172.4,156.8,168.4,155.8L168.4,155.8z"/>
		<path class="st6" d="M175.5,156.5c-0.9-0.7-23.7-50.8-23.7-51.9c0-1.2,1.8-2.9,3.1-2.9c0.6,0,1.1,0.4,1.5,1.1
			c0.3,0.6,5.8,12.7,12.2,26.9s11.8,26.1,12,26.5c0.4,0.7,0.2,0.8-2,0.8C177.3,157,175.9,156.8,175.5,156.5L175.5,156.5z"/>
		<path class="st6" d="M164.9,181.7c-2.3-0.4-2.4-0.5-2.8-2.5c-0.1-1-1.5-5.4-3-9.8c-1.5-4.4-2.6-8.2-2.5-8.3c0.8-0.8,1.7,1.1,4,8.1
			c2.4,7.2,3.6,10.2,3.1,7.7c-0.6-2.6-3.1-13-3.3-13.6s0.1-0.6,2.9,0.3c3.6,1.1,9.4,2.2,11.9,2.2c1,0,1.9,0.2,2,0.4
			c0.7,1.2-4.6,9.8-8,12.9c-1.2,1.1-2.3,2.2-2.4,2.5C166.7,181.9,166,181.9,164.9,181.7L164.9,181.7z"/>
		<path class="st6" d="M112.6,219.5c-4.5-0.4-11.1-1.9-15.8-3.7c-6.3-2.3-16.3-7.2-15.9-7.6c0.1-0.1,1.9,0.7,4.1,1.7
			c20.5,9.7,39.7,11,54.7,3.7c6.5-3.2,11-7.2,14.3-12.7c1.5-2.5,3.5-8.1,3.5-9.8c0-0.8,0.2-1,1-1c0.9,0,1,0.2,1,1.3
			c0,3.2-2.2,8.9-4.9,12.9C147,215.2,130.8,221.1,112.6,219.5L112.6,219.5z"/>
		<path class="st6" d="M131.1,195.1c-0.6-0.4-1.1-0.7-1.2-0.8c-0.4-0.3,1.4-1.8,2.1-1.8c1.4,0,3.3,2.7,1.9,2.8
			c-0.3,0-0.8,0.1-1.1,0.3C132.4,195.7,131.6,195.5,131.1,195.1L131.1,195.1z"/>
		<path class="st6" d="M128.3,193.5c-0.4-0.6,0.4-3.2,1.1-3.6c0.3-0.2,0.4,0,0.2,0.4c-0.2,0.6-0.1,0.7,1.5,0.5
			c1.2-0.2,2-0.1,2.5,0.3c0.7,0.6,0.6,0.6-1.1,0.4c-2.1-0.2-3,0.2-3.6,1.7C128.7,193.8,128.5,193.9,128.3,193.5L128.3,193.5z"/>
		<path class="st6" d="M127.5,194.3c-0.7-1.4-0.8-2.8-0.2-4.4c0.6-1.6,0.9-1,0.3,0.8c-0.4,1.3-0.4,1.8,0.3,3
			c0.4,0.8,0.6,1.5,0.5,1.6C128.3,195.4,127.9,195,127.5,194.3L127.5,194.3z"/>
		<path class="st6" d="M135,195.5c0.1-0.9,0-2-0.3-2.5c-0.3-0.6-0.3-0.9,0-0.9c0.2,0,0.4-0.4,0.4-0.9c0-0.8,0-0.9,0.4-0.2
			c0.2,0.4,0.4,1.6,0.3,2.6c-0.2,1.9,0.2,2.3,0.9,1c0.6-1,0.5-3.5,0-4.6c-0.2-0.5-0.3-0.9-0.2-1.1c0.5-0.5,1.5,2.9,1.3,4.2
			s-2,3.8-2.7,3.8C134.9,197.1,134.9,196.4,135,195.5L135,195.5z"/>
		<path class="st6" d="M183.4,176.2l-4.4-9.6c-0.1-0.2,1.2-0.3,2.8-0.2l3,0.1l3.1,6.6c1.7,3.6,3.7,7.9,4.4,9.5l1.4,3h-3h-3
			L183.4,176.2L183.4,176.2z"/>
		<path class="st6" d="M204.2,184.1c0-0.2,0.3-1.8,0.6-3.7c0.5-2.4,0.6-5.2,0.5-9.5l-0.1-6.1l1.2-0.2c2.2-0.4,2.3-0.4,2.3,1.8
			c0,2,0,2,1.3,2.3c0.7,0.1,6.8,1.2,13.6,2.4l12.2,2.1l1,2.4c0.5,1.3,0.9,2.5,0.8,2.6c-0.1,0.1-6.4-0.8-14-2.1s-14-2.3-14.3-2.3
			s-0.5,1.3-0.7,3.2c-0.1,1.7-0.4,4.1-0.7,5.3c-0.5,2.1-0.5,2.1-2.1,2.1C205,184.3,204.3,184.2,204.2,184.1L204.2,184.1z"/>
		<path class="st6" d="M200.3,195.5l-0.7-1.4l1.8-0.1c1-0.1,1.8,0,1.8,0.1s-0.5,0.8-1.1,1.6l-1.1,1.4L200.3,195.5L200.3,195.5z"/>
		<path class="st6" d="M240.4,178.6c-0.2-0.6-2-4.7-3.8-9.1c-3.4-8.1-3.5-8.6-1.6-8.6c0.4,0,1.2-0.1,1.9-0.3c1.2-0.2,1.2-0.2,3,4.2
			c1,2.4,2.8,6.6,3.9,9.2l2.2,4.7l-2.3,0.5c-1.3,0.3-2.4,0.5-2.6,0.5C241,179.7,240.7,179.2,240.4,178.6L240.4,178.6z"/>
		<path class="st6" d="M247.1,176.2c-0.5-1-0.8-2-0.8-2c0-0.1,2.6-0.2,5.7-0.2c6,0,6.4,0.1,5.2,1.8c-0.4,0.6-7.2,2.3-8.9,2.3
			C248.2,178.1,247.6,177.3,247.1,176.2L247.1,176.2z"/>
		<path class="st6" d="M260.5,204.1c-3.8-2.3-9.4-7.6-12.7-12c-1.5-1.9-2.6-3.6-2.5-3.7c0.1-0.1,1.3-0.4,2.8-0.7
			c2.2-0.5,2.6-0.5,2.9,0c1.3,2.4,7.6,8.7,11.5,11.4c1.1,0.8,1.1,1,1,3.7l-0.1,2.9L260.5,204.1L260.5,204.1z"/>
		<path class="st6" d="M273.1,216.7c0.1-1.4,0.4-2.7,0.5-2.8s1.2-0.5,2.3-0.7c3.1-0.7,5.5-1.9,5.5-2.7c0-0.9-2.2-1.8-5.2-2.1
			l-2.4-0.2l1.7,0.9c2.1,1.1,2.3,1.8,0.4,1.4c-2.7-0.6-2.7-0.5-2.8-3.2c-0.1-1.4-0.1-2.6-0.1-2.7c0-0.1,0.5,0.1,1,0.3
			c0.5,0.3,3.1,0.9,5.8,1.5c2.7,0.5,5.2,1.2,5.5,1.4c2,1.6-1.1,3.9-7.8,5.7l-2.9,0.8l2.2-0.2c1.2-0.1,3.7-0.7,5.5-1.3
			c2.6-0.8,3.7-1.4,4.8-2.6l1.5-1.6l0.9,1c0.5,0.5,0.9,1.4,0.9,2c0,2.3-2.3,3.5-10.8,5.7c-3,0.8-5.8,1.6-6.2,1.7
			C272.9,219.3,272.9,219.1,273.1,216.7L273.1,216.7z"/>
		<path class="st6" d="M158.2,102.2l-1.3-2.4l2.9-1.4c8-3.9,22.5-8.2,39.3-11.5c9-1.8,10.3-1.9,11.3-0.6c1.9,2.3,0.6,3.1-8.5,5
			c-11.3,2.3-21.7,5-28.6,7.4c-6.3,2.2-12.6,4.8-13,5.7C159.8,105,159.5,104.7,158.2,102.2L158.2,102.2z"/>
		<path class="st6" d="M202.7,77.5c-2.4-6.9-2.6-8.6-1.3-9.3c0.8-0.4,0.8-0.3,0.8,1.6c0,1.4,0.6,3.8,2,7.7c1.9,5.4,2,6.3,0.8,6.3
			C204.9,83.7,203.9,80.9,202.7,77.5L202.7,77.5z"/>
		<path class="st6" d="M209,93.6c-1.3-0.5-1-1.2,1-1.8c2.2-0.7,3.1-1.9,3.1-4.1c0-2.4-1.5-4.2-3.7-4.5c-0.9-0.1-1.7-0.5-1.8-0.9
			c-1.2-3-3.8-11.3-4.1-12.6c-0.2-1.4-0.1-1.8,0.6-2.6l0.9-0.9l0.9,2.6c0.5,1.4,2.4,5.8,4.2,9.8c4.6,10.1,4.8,10.8,3.6,13.1
			c-0.5,1-2.8,2.5-3.5,2.4C210,94,209.5,93.8,209,93.6L209,93.6z"/>
		<path class="st6" d="M214.9,92.8c0.7-0.9,1-1,3.5-1c1.9,0,2.7,0.1,2.5,0.4c-0.5,0.8-3,1.6-4.9,1.6h-1.8L214.9,92.8L214.9,92.8z"/>
		<path class="st6" d="M229,89.3c-2.2-0.3-4.1-0.6-4.1-0.7c-0.3-0.4-1.1-4.2-0.9-4.4c0.1-0.1,2.7,0.1,5.7,0.5
			c4.5,0.6,5.5,0.8,6.1,1.6c0.9,1.1,0.9,2.1,0,3C234.9,89.9,234.7,89.9,229,89.3L229,89.3z"/>
		<path class="st6" d="M213.7,76.3c-0.4-0.8-0.6-1.6-0.4-1.7c0.4-0.4,1.4,0.7,1.7,2C215.4,78.2,214.5,78,213.7,76.3L213.7,76.3z"/>
		<path class="st6" d="M210.9,70.4c-1-1.6-1.2-2.8-0.5-2.8s1.7,2,1.6,3.1l-0.1,1.2L210.9,70.4L210.9,70.4z"/>
		<path class="st6" d="M136.6,130.2l-2-2l0.9-1.6c2.2-3.9,10.7-17,12.4-19.2l1.8-2.3l0.5,1.6c0.3,0.9,0.8,2.2,1.3,3.1l0.8,1.5
			l-1.5,2c-0.8,1.1-3.9,5.8-6.8,10.6c-2.9,4.8-5.3,8.6-5.4,8.6C138.6,132.2,137.7,131.3,136.6,130.2L136.6,130.2z"/>
		<path class="st6" d="M124.4,150.2c-2.1-1.5-2-1.8,1.8-8.1c2-3.2,3.6-5.9,3.6-5.9s0.9,0.9,2,2.1l2,2.2l-3.2,5.1
			c-2.7,4.3-3.4,5.1-4.2,5.1C125.7,150.9,124.9,150.6,124.4,150.2L124.4,150.2z"/>
		<path class="st6" d="M141.3,164.8c-1-1.5-1.9-2.1-11.4-7.8c-4.3-2.5-8.2-5-8.7-5.4c-0.6-0.5-0.9-1.3-0.9-2.1v-1.2l0.9,1.4
			c1.2,1.8,3.4,3.2,5,3.2c0.9,0,3,1.2,7.6,4.2c6.4,4.2,8.1,5.7,8.5,7.6C142.6,166.2,142.3,166.2,141.3,164.8L141.3,164.8z"/>
		<path class="st6" d="M143.7,163.6c-0.5-1.7-2.5-3.5-8.5-7.5c-3.3-2.2-6-4.2-5.9-4.4c0.3-0.6,10,5.7,12.8,8.3
			c1.2,1.2,2.5,3.8,2,4.2C144,164.4,143.8,164.1,143.7,163.6L143.7,163.6z"/>
		<path class="st6" d="M157,179c-0.1-0.8-0.7-3.3-1.2-5.5c-1.8-7.2-0.9-6.3,1.3,1.3c1.6,5.7,1.6,5.7,0.8,5.7
			C157.5,180.5,157.2,179.9,157,179L157,179z"/>
		<path class="st6" d="M153.5,147.5c-0.5-0.4-0.8-1.6-1.1-5.1c-0.4-5-0.1-9.9,1-14c0.8-3,2.6-7.5,3.1-7.5c0.8,0,0.8,1.7,0,3.3
			c-2.3,4.4-3.3,13.1-2.5,19.8c0.2,2,0.4,3.7,0.3,3.8C154.2,147.9,153.9,147.8,153.5,147.5L153.5,147.5z"/>
		<path class="st6" d="M127.9,189.6c-0.1-0.6,0-0.7,0.6-1.3c1.1-1.1,2.1-1.5,3.9-1.5c1.3,0,1.7,0.1,2.3,0.4c1,0.5,2.1,1.5,1.9,1.6
			c-0.1,0-0.2,0.2-0.2,0.4c0,0.3-0.1,0.2-0.6-0.3c-0.9-0.9-1.7-1.3-3.1-1.3c-1.9-0.1-3.5,0.7-4.4,2.2l-0.3,0.5L127.9,189.6
			L127.9,189.6z"/>
		<path class="st6" d="M135,190.8c0-0.4-1.4-1.2-2.1-1.3c-1-0.1-1.7,0-2.5,0.5c-0.5,0.3-0.6,0.3-0.6,0.2s-0.1-0.2-0.2-0.2
			c-0.5,0,1-0.8,1.7-1c1.1-0.3,2.2-0.1,3.1,0.4c0.7,0.4,1.3,1.1,0.9,1.1C135.2,190.4,135.1,190.5,135,190.8
			C135.1,190.8,135,190.9,135,190.8L135,190.8z"/>
		<path class="st6" d="M131.1,197.1c-0.2-0.1-0.6-0.4-0.9-0.8c-0.4-0.5-0.5-0.7-0.5-1.5s0-0.8,0.2-0.5c0.1,0.2,0.2,0.5,0.2,0.8
			c0,1,0.8,1.6,2,1.6c0.6,0,0.8-0.1,1.4-0.8c0.4-0.4,0.7-0.7,0.7-0.6c0,0.3-0.5,1.1-1,1.4C132.9,197.1,131.6,197.3,131.1,197.1
			L131.1,197.1z"/>
		<path class="st6" d="M130.7,198.2c-0.6-0.3-1-0.7-2-2c-0.3-0.4-0.3-0.5-0.1-0.5s0.2-0.1,0.2-0.3c-0.1-0.1-0.1-0.5-0.2-0.9
			c-0.1-0.5-0.1-0.6,0.2-0.6s0.3,0.1,0.2,0.6c-0.2,1.2,0.8,2.8,1.9,3.2c1.3,0.5,3,0,3.8-1.1l0.4-0.6v0.5c0,0.2,0.1,0.5,0.2,0.5
			c0.1,0-0.3,0.3-0.8,0.7c-0.9,0.6-1.2,0.7-2.1,0.8C131.6,198.5,131.2,198.5,130.7,198.2L130.7,198.2z"/>
		<path class="st6" d="M134.2,192.3c-0.3-0.3-0.3-0.3-0.1-0.3s0.3-0.1,0.2-0.2c-0.1-0.1,0-0.2,0.1-0.2c0.2,0,0.4,0.4,0.3,0.8
			C134.6,192.7,134.6,192.7,134.2,192.3L134.2,192.3z"/>
		<path class="st6" d="M84.6,200.6c-0.7-1-1.7-1.7-2.8-1.8c-0.6-0.1-0.7-0.1-0.4-0.2c0.3,0,0.7-0.1,0.9-0.3c0.3-0.2,0.4-0.2,1,0.1
			c0.7,0.4,1.8,1.3,2,1.8c0.1,0.1,0,0.4-0.1,0.7l-0.2,0.4L84.6,200.6L84.6,200.6z"/>
		<path class="st6" d="M84.6,197.9c-0.4-0.3-0.9-0.6-1-0.6c-0.2,0-0.3-0.1-0.3-0.4c0-0.3,0.1-0.3,0.5-0.2c0.7,0.1,2.1,0.9,1.8,1.1
			c-0.1,0.1-0.2,0.2-0.2,0.4S85.2,198.3,84.6,197.9L84.6,197.9z"/>
		<path class="st6" d="M132.6,171.9c-1.5-0.5-2.7-1.7-3.2-3.1l-0.2-0.6h-1.4c-1.6,0-2.3-0.2-3.3-1.2c-0.8-0.7-1.3-1.8-1.3-2.8
			c0-0.6,0-0.6,0.2,0.2c0.4,1.5,1.1,2.5,2.3,3.1c0.8,0.4,3.2,0.6,4.1,0.3c0.5-0.2,0.5-0.2,0.6,0.4c0.4,1.9,1.9,3.2,4.2,3.5
			c0.8,0.1,0.9,0.1,0.6,0.2C134.6,172.2,133.4,172.1,132.6,171.9L132.6,171.9z"/>
		<path class="st6" d="M154.3,167.6c-1.2-4.1-1.1-4.3,0.1-1.1c0.5,1.3,0.8,2.1,0.7,2.2c-0.1,0.1-0.1,0.4-0.1,0.8
			c0.1,0.4,0.1,0.7,0,0.7C155,170.1,154.7,169,154.3,167.6L154.3,167.6z"/>
		<path class="st6" d="M81.5,208.1c-0.4-0.2-0.6-0.2-0.7-0.1c-0.1,0.1-0.9-0.3-2.3-1.1c-2.6-1.5-7.1-3.9-9.2-4.8
			c-0.8-0.4-1.4-0.7-1.4-0.7c0.2-0.2,4.7,1.8,8,3.4c2.5,1.2,6.1,3.2,6.3,3.4C82.4,208.4,82.2,208.4,81.5,208.1L81.5,208.1z"/>
		<path class="st6" d="M79.5,188.4c-0.8-0.7-1.3-1.3-1.3-1.4c0,0,0.5,0.3,1,0.7s1.4,1,1.8,1.4c0.5,0.3,0.9,0.6,0.9,0.6s-0.2,0-0.5,0
			C81,189.7,80.6,189.4,79.5,188.4L79.5,188.4z"/>
		<path class="st6" d="M36,200.6c-1-2.3-1-2.7,0.2-0.9c0.5,0.8,0.8,1.4,0.7,1.5s-0.1,0.3-0.1,0.6c0.1,0.3,0.1,0.5,0.1,0.5
			C36.8,202.4,36.4,201.6,36,200.6L36,200.6z"/>
	</g>
</g>
</svg>
