<?xml version="1.0" encoding="utf-8"?>
<!-- Generator: Adobe Illustrator 21.1.0, SVG Export Plug-In . SVG Version: 6.00 Build 0)  -->
<!DOCTYPE svg PUBLIC "-//W3C//DTD SVG 1.1//EN" "http://www.w3.org/Graphics/SVG/1.1/DTD/svg11.dtd">
<svg version="1.1" id="Layer_1" xmlns="http://www.w3.org/2000/svg" xmlns:xlink="http://www.w3.org/1999/xlink" x="0px" y="0px"
	 width="300px" height="285.3px" viewBox="0 0 300 285.3" style="enable-background:new 0 0 300 285.3;" xml:space="preserve">
<style type="text/css">
	.st0{fill:#FFFFFF;}
	.st1{fill:#002244;}
</style>
<g>
	<polygon class="st0" points="150,218 57.3,285.3 92.7,176.3 0,109 114.6,109 150,0 185.4,109 300,109 207.3,176.3 242.7,285.3 	"/>
	<polygon class="st1" points="203.5,175.1 290,112.2 183,112.2 150,10.5 117,112.2 10,112.2 96.5,175.1 63.5,276.8 150,213.9 
		236.5,276.8 	"/>
	<polygon class="st0" points="194.5,172.2 266.6,119.8 177.5,119.8 150,35.1 122.5,119.8 33.4,119.8 105.5,172.2 77.9,256.9 
		150,204.5 222.1,256.9 	"/>
	<polygon class="st1" points="187.6,169.9 248.4,125.7 173.2,125.7 150,54.2 126.8,125.7 51.6,125.7 112.4,169.9 89.2,241.4 
		150,197.2 210.8,241.4 	"/>
</g>
</svg>
