<?xml version="1.0" encoding="utf-8"?>
<!-- Generator: Adobe Illustrator 21.1.0, SVG Export Plug-In . SVG Version: 6.00 Build 0)  -->
<!DOCTYPE svg PUBLIC "-//W3C//DTD SVG 1.1//EN" "http://www.w3.org/Graphics/SVG/1.1/DTD/svg11.dtd">
<svg version="1.1" id="Layer_1" xmlns="http://www.w3.org/2000/svg" xmlns:xlink="http://www.w3.org/1999/xlink" x="0px" y="0px"
	 width="324.6px" height="308.7px" viewBox="0 0 324.6 308.7" style="enable-background:new 0 0 324.6 308.7;" xml:space="preserve"
	>
<style type="text/css">
	.st0{fill:#FFFFFF;}
	.st1{fill:#002244;}
</style>
<g>
	<polygon class="st0" points="162.3,235.9 62,308.7 100.3,190.8 0,117.9 124,117.9 162.3,0 200.6,117.9 324.6,117.9 224.3,190.8 
		262.6,308.7 	"/>
	<polygon class="st0" points="162.3,230.9 69.6,298.2 105,189.2 12.3,121.9 126.9,121.9 162.3,12.9 197.7,121.9 312.3,121.9 
		219.6,189.2 255,298.2 	"/>
	<polygon class="st1" points="162.3,229.3 72,295 106.5,188.8 16.2,123.1 127.9,123.1 162.3,17 196.8,123.1 308.5,123.1 
		218.2,188.8 252.6,295 	"/>
	<polygon class="st1" points="215.8,188 302.3,125.1 195.3,125.1 162.3,23.4 129.3,125.1 22.3,125.1 108.8,188 75.8,289.7 
		162.3,226.8 248.8,289.7 	"/>
	<polygon class="st0" points="206.8,185.1 278.9,132.7 189.8,132.7 162.3,48 134.8,132.7 45.7,132.7 117.8,185.1 90.2,269.8 
		162.3,217.4 234.4,269.8 	"/>
	<polygon class="st1" points="199.9,182.8 260.7,138.6 185.5,138.6 162.3,67.1 139.1,138.6 63.9,138.6 124.7,182.8 101.5,254.3 
		162.3,210.1 223.1,254.3 	"/>
</g>
</svg>
