<?xml version="1.0" encoding="utf-8"?>
<!-- Generator: Adobe Illustrator 21.1.0, SVG Export Plug-In . SVG Version: 6.00 Build 0)  -->
<!DOCTYPE svg PUBLIC "-//W3C//DTD SVG 1.1//EN" "http://www.w3.org/Graphics/SVG/1.1/DTD/svg11.dtd">
<svg version="1.1"
	 id="Layer_1" xmlns:cc="http://creativecommons.org/ns#" xmlns:dc="http://purl.org/dc/elements/1.1/" xmlns:rdf="http://www.w3.org/1999/02/22-rdf-syntax-ns#"
	 xmlns="http://www.w3.org/2000/svg" xmlns:xlink="http://www.w3.org/1999/xlink" x="0px" y="0px" width="300px" height="228.5px"
	 viewBox="0 0 300 228.5" style="enable-background:new 0 0 300 228.5;" xml:space="preserve">
<style type="text/css">
	.st0{fill:#B0B7BC;}
	.st1{fill:#FFFFFF;}
	.st2{fill:#0076B6;}
</style>
<g transform="matrix(1.25 0 0 -1.25 -286.33 570.27)">
	<g transform="matrix(.25 0 0 .25 230.36 298.03)">
		<path class="st0" d="M846.4,401c0,0,12,10.3,24.6,10.1c12.6-0.2,21.3-4.4,26-9.4c0,0,10,1.4,20.9-1.6c10.9-3,26.2-12,32.2-22.4
			c6-10.4,6.7-22.5,0.5-33.8c0,0,2.1-7.7-3-17.3c-5.1-9.6-13.5-14.6-13.5-14.6s-5.7-14.2-20.6-20.8c-14.9-6.6-34.5,0.9-34.5,0.9
			s-11.1-2.2-19.5-2.2c-8.4,0-20.2,3.6-23.8,5.3c0,0-10-14.7-12.8-18.2c0,0,13.7-11.9,28.6-16.6c14.9-4.7,26.6-6.8,33.5-11.7
			c6.8-4.9,9.4-9.7,9.4-9.7s10.4,1.6,20.4-0.7c10-2.4,21.7-10.2,29.4-20.7c7.7-10.4,12.4-23.9,9.2-36.6
			c-3.2-12.8-10.5-17.5-10.5-17.5s-3.6-11.8-10.8-19c-7.2-7.3-17.6-7.8-17.6-7.8s-5.7-7.6-20.4-9.9c-14.7-2.4-25.2,5.8-25.2,5.8
			s-11.6-1.3-27.4,3.6c-15.8,4.9-26.6,21-26.6,21s-10.3,4.9-29.3,5.8c-19,0.9-61.4,9.4-80.2,20.4c0,0-11.1-5.4-44.7-7.1
			c0,0-5,15.2-14.7,22.8c0,0-28.9-16-38-20.3c-9.2-4.3-26.1-11.7-40.9-12.6c0,0-3.9-24.1-10.9-37.1c-7-13-20.5-22.7-32-26.5
			c0,0,16.7-5.9,25.4-18.9c8.7-13,11.7-27.3,5.7-38.8c-6-11.5-12.7-14.6-12.7-14.6s-3.4-11.6-16.9-17.7c-13.5-6-30.4-2.8-30.4-2.8
			s-9.4-4.9-22.2-4.8c-12.9,0.1-29,11-29,11s-42.1-3.9-54.7-2.8c-12.5,1-27.4,6.2-34.5,24.7c0,0-7.7-6.4-19.2-12
			c-11.5-5.5-33.3-16.2-49-27.4l0.5-8.3c0,0,22.9-8.6,24.4-32.1c1.5-23.4-11.3-32.1-14.9-34.6c0,0-4.9-10.6-15.3-15.9
			c-10.4-5.3-22-2.9-22-2.9s-25.7-11.4-45.4,7.3c-19.6,18.7-14.1,39-13.8,43.9C200.3-39,201.7,4,201.5,6c0,0-9.7,13-7.6,27.7
			c2.1,14.7,13.4,23.9,18.7,28.3c5.3,4.5,11.7,11.9,14.9,23.2c3.2,11.3,3.4,34.3,4.5,42.9c1.1,8.5,1.5,22.8,1.5,22.8
			s-38.6,10.6-58.6,33c-20,22.4-25.6,38.6-30.7,60.7c-5.1,22.2-8.7,44.6-29.1,57.1c0,0-13.3-3.8-28.7,2.4
			c-15.4,6.2-24.7,18.5-34.5,30.7C42.1,347,7.2,352.5-5.2,353.1c0,0,26.2,29,61.6,41.4c35.4,12.3,52.2,7.5,63.9,0.8
			c11.7-6.6,20.9-17.7,25.3-32.8c0,0,23.1-10,38.9-28.5c15.8-18.5,23.2-34.9,28.4-55.2c5.1-20.3,11.5-44.8,52.2-53.7
			c0,0,24.1,24.1,33.2,30.1c9.2,5.9,20.7,9.3,24,10.3c3.3,1,18.8,6,18.8,6s24.3,19.8,28.3,23.8c0,0,9.1,16.1,14.8,25.5
			c5.8,9.4,14.8,18.7,14.8,18.7s-11.8,22-11.2,46c0,0,5.8-2.6,11-3.4c0,0-0.4,17.8,11.2,34.2c11.5,16.4,23.1,26.7,23.1,26.7
			s-0.9,21.6,12.2,42.1c0,0-10,16-10.8,26.2c0,0,16.6,1.5,29.2,5.1c12.6,3.6,18.8,6.2,25.2,13.9c6.4,7.7,21.7,26.4,41.1,35.6
			c19.4,9.2,40.9,12.5,56.4,11.3c0,0-9.5,8.1-20,11.5c0,0,17.9,13.2,53.1,16.9c0,0,0.3,17.8,4.1,27.2c0,0,46.7-32,70.1-41.1
			c23.5-9.2,40.5-12.1,52.6-18.1c12.1-5.9,20.7-16.9,22.7-23.7c0,0,13.1-5,23.1-12.1c10-7,15.8-24,15.8-24s18.9-7.6,38.5-19.5
			c19.6-11.9,43.7-37.1,43.7-37.1s-15.2-6.7-28-25.3C862,431.8,856.1,411.2,846.4,401"/>
		<path class="st1" d="M819,392.4c0,0,8.8,0.2,16.6-2c7.8-2.2,12.7-4.7,12.7-4.7s5.7,3.6,8.6,6.1c2.9,2.6,11.5,7,19.3,5.8
			c7.8-1.3,13.2-6.8,14.7-9.1c0,0,6.6-0.4,12.7-0.1c6.1,0.4,17.5-1.8,26.5-9c9.1-7.2,17.3-17.9,6.3-32.1c0,0,2.4-9-0.9-15.5
			c-3.2-6.5-11.6-10.1-11.6-10.1s-5.2-15.4-17.2-19.3c-12.1-4-27.2,3.4-27.2,3.4s-14.2-3.4-24.5-2.7c-10.3,0.7-21.5,9.4-21.5,9.4
			s-2.5-1.5-4.8-4.9c-2.4-3.4-20.1-28.2-24.2-32.6c0,0,17.3-16.8,34.4-23.8c17.1-7,25.8-8.1,30.3-9.4c4.5-1.3,14.4-6.9,18-17.7
			c0,0,11,2.7,18.2,2.2c7.2-0.5,14.2-2,26.9-14.9c12.6-13,9.7-24.7,7.8-30.1c-2-5.4-9.5-10-9.5-10s-0.6-10.9-7.1-16.6
			c-6.5-5.7-15.3-4.8-15.3-4.8s-3.4-6.6-12.4-9.3c-9-2.7-18.8,2-23.3,5.6c0,0-18.6-1.6-30.6,4.3c-12.1,5.9-17.7,17.6-17.7,17.6
			s-20.5,8.4-41.7,8.5c-21.3,0.2-62.4,11.7-75.9,21.5c0,0-20.5-9.3-37-9.6c0,0-5.1,15.4-22.9,26.2c0,0-38.2-21.2-51.9-27.5
			c-13.7-6.3-37.8-8.6-41.3-9c0,0,1.5-5.8-0.3-15.2c-1.9-9.4-7.6-27.8-12.5-33.9c-4.9-6.1-18.4-13.7-26.3-16.6
			c-7.9-2.9-17.8-5.4-26.2-9.5c-8.3-4.2-18.4-12.6-22.8-16.6c0,0,12.8-3.2,16.6-3.1c3.8,0.1,10.7,4,15.8,5.9
			c5.1,2,19.3,4.7,30.6-3.8c11.4-8.5,17.3-19.4,16.9-27.8c-0.3-8.3-5.7-14.3-13.6-18.4c0,0-2.4-11.7-12.3-15.3
			c-10-3.6-26.4-0.3-26.4-0.3s-7.8-5.1-17.2-5.6c-9.4-0.6-22,7.6-24,8.6c-2,1.1-4,2.2-7.4,2.2c-3.4,0-40.5-3.1-52.1-3.1
			c-11.5,0-19.5,5.6-24.3,14.6c-4.9,9,2,23.4,6.3,29.2c4.3,5.8,11.2,13.7,12,15.4c0.9,1.6,1.1,4.3-1.2,5.9c-2.3,1.6-9.9,5.3-9.9,5.3
			s-11.4-22.8-15.7-30.6c-4.3-7.7-9.9-16.4-20.7-23.1c-10.8-6.7-33.7-16.8-45.8-24.2c-12.1-7.4-19.3-14.2-19.3-14.2
			s0.1-21.7,0.8-24.4c0,0,10.9-2.1,15.2-5.9c4.3-3.8,8.6-9.9,8.5-18.4c-0.2-8.5-1.3-18.4-11.8-22.4c0,0-2.9-11-11.2-14.2
			c-8.3-3.3-16.8-0.4-16.8-0.4s-11.3-5.7-23.2-3.2c-11.9,2.5-21.8,14.8-22,27.2c-0.2,12.5,2,57.5,2,60.4c0,2.9,0,5.9-2.1,9.9
			c-2.2,4-7.2,13.9-5.9,20.2c1.3,6.3,7.7,13.7,13.7,18.8c5.9,5,13.2,10.1,16.8,20.2c3.6,10.1,6.7,23.9,7,34.6
			c0.4,10.6,1.7,45.2,4,54.6c0,0-44.7,9.9-64.9,33c-20.2,23.1-23.6,41.5-29.4,66.2c-5.8,24.7-13.1,43.6-36.6,55.9
			c0,0-12.6-6.1-28.8,0.9c-16.2,7-25.1,25.4-33.7,31.9c-8.7,6.5-32.2,10.2-36.9,10.1c0,0,28.1,19.5,47.4,25.2
			c19.3,5.8,40.2,7.6,53.4-2.9c13.1-10.4,15.1-28.5,15.1-28.5s27.1-11.2,42.7-30.4c15.7-19.3,20.3-37.3,23.4-49.4
			c3.1-12.1,12.6-36.2,27.8-46.9c15.3-10.7,33.1-15.1,42.5-15.8c0,0,26.3,27.5,35.3,33.4c9,5.9,19.1,8.3,23.4,9.6
			c4.3,1.2,19.3,6.2,19.3,6.2s26.5,22.8,31.6,26.8c0,0,15.4,26.7,19.7,33c4.3,6.3,16,21.1,16,21.1s-10.6,12.1-10.5,27.8
			c0,0,6.3-1.2,10.2-0.9c0,0-5.2,8.8-2.7,21.3c2.5,12.4,16,32.6,34,48.1c0,0-0.7,13.1,3.1,25.5c3.8,12.5,11.5,22.4,11.5,22.4
			s-8.2,10.2-9.5,18.2c0,0,15.5,1.5,26.4,5c10.8,3.6,19.5,11.3,19.5,11.3s20.7,28.6,45.9,37.6c25.3,9,51,6.2,51,6.2
			s12.8,8.3,18,10.1c0,0-10,11.3-18.3,14.7c0,0,19.5,5.9,37.4,4.5c0,0,0.3,12.5,2.4,19.7c0,0,31.2-22.5,45.5-28.8
			c14.2-6.3,41.4-15.3,50.6-18.2c9.2-2.9,24.8-8.9,28.1-25.5c0,0,15.2-6.4,21.1-9.6c6-3.3,12.1-11,13.3-14.3c1.2-3.2,2.5-7.2,4-9.7
			c1.6-2.5,4.2-4.3,6.8-5.2c2.5-0.9,27.6-12.1,39.1-20.7c11.5-8.7,27.2-23.6,27.2-23.6s-15.6-12.5-19.5-18.2c0,0-4.7-15.7-12.2-26.8
			c-7.6-11.2-18.9-15.5-18.9-15.5L819,392.4"/>
		<path class="st2" d="M644.7,590.5c-1-8.2,5.3-15.3,5.3-15.3c-9.1,4.3-34,5.3-34,5.3c11.5-4.3,19.6-13.9,19.6-13.9
			c-9.6,0-24.9-9.1-24.9-9.1c12.5,0,17.7-6.7,17.7-6.7c-11.5-5.3-36.5,2.4-64.6-1.9c-28.1-4.3-46.4-26.3-46.4-26.3
			c12,4.3,19.6,0.5,19.6,0.5c-9.5-0.5-34.5-16.3-44-21.5c-9.6-5.3-23.5-4.8-23.5-4.8c3.3-7.2,12.4-9.1,12.4-9.1
			c-12.4-8.6-19.2-28.7-19.2-28.7c7.2,8.2,17.7,7.7,20.1,2.9c2.4-4.8-0.9-13.6-10.5-20.6c-7.8-5.6-26.8-21.5-36.9-35.9
			c-10.1-14.4-11.6-25.7-11.6-25.7c12,4.9,16.1,0.7,15.2-5.3c-1.6-10.1-19.3-17.9-19.3-17.9c4.3-7.2,20.5-7.7,20.5-7.7
			s-19.2-21-26.8-32.5c-7.7-11.5-20.6-34.5-23-37.8c-2.4-3.3-30.6-25.9-34-29.2c-3.4-3.3-32.1-10.5-39.3-13.9
			c-7.2-3.3-31.6-26.3-39.7-36.8c-0.5-0.6-1-1.3-1.4-1.9c-11.6,0.8-38.7,4.4-57,19.5c-23.9,19.8-29.4,43.3-33.5,59.3
			c-4.1,16-10.8,28.2-20.1,40.2c-9.3,11.9-38,26.2-42.9,29.2c0,0-3.5,20.2-13.4,26.9c-10.6,7.2-24.6,5.7-30.5,4.2
			c-1.8-0.5-4.2-1.3-6.9-2.3c5.5-0.5,10.6-1.7,14.7-2.8c13.5-3.5,14.4-13,14.4-13s-17.4,18.9-52.5,5.2c2.8-0.5,13-2.5,18.2-9.3
			c5.9-7.8,7.6-13.5,24.4-22.7c15-8.3,26.4,0.9,26.4,0.9s25.6-13.2,33.9-28c8-14.2,16-36.5,19.7-56.3c3.7-19.7,11.6-35,29.1-50.3
			c15.6-13.6,48.9-22.8,64.4-25.7c-0.4-1.4-0.9-2.9-1.4-4.5c-3.8-12.4-3.8-35-5.3-59.4c-1.4-24.4-6.7-38.3-12.4-48.8
			c-5.7-10.5-23.4-20.6-24.9-26.8c-1.4-6.2,6.7-12.9,7.7-22.5c1-9.6-1.4-49.8-1.4-55.5c0-5.8-1.5-12.9,1.9-18.2
			c3.4-5.3,8.6-8.1,15.8-7.2c7.2,0.9,10,5.2,10,5.2s10.5-4.3,15.3-1.4c4.8,2.9,4.3,12.4,4.3,12.4s7.2,0,9.1,2.4
			c2,2.4,2.4,11-0.9,15.3c-3.3,4.3-20.1,5.7-20.1,5.7c-0.9,1.9-3.8,34.5-1.4,41.7c2.4,7.2,21.5,18.2,36.4,26.8
			c14.8,8.6,34.9,15.8,42.1,23.4c5.9,6.2,21.3,37.2,26.8,48.5c0.3,0.7,18.8,46.1,62.9,66.2l0.3,0.2c-32.3-28.7-35.1-39.5-35.1-39.5
			s21.5,20.4,58.9,36.2c24.9,10.5,43.9,15.1,56.3,16.3c-30.8-9.8-57.1-24.7-83.6-40.7c-27.1-16.3-44.3-37.6-45.3-38.9
			c23.9-9.5,22.1-19.7,20-25.5c-2.4-6.7-17.2-21.6-19.6-28.2c-2.4-6.7-1.4-13.9,10.5-14.9c12-0.9,45,3.4,55.5,2.9
			c10.5-0.5,17.2-11,27.3-11c10.1,0,14.8,6.7,14.8,6.7c7.2-2.4,20.1-3.8,25.4-1.4c5.3,2.4,4.3,12.4,4.3,12.4
			c8.6,1.5,13.9,5.8,12.5,10.5c-1.4,4.8-4.8,11-12,15.3c-7.2,4.3-13.9,2.9-19.1,0.5c-5.3-2.4-12.5-6.7-20.1-5.7
			c-7.7,0.9-36.4,7.2-36.4,7.2c7.7,21.1,32.1,36.4,43.1,40.2c11,3.9,32.1,10.6,40.2,17.2c8.1,6.7,12.9,30.7,13.4,35.4
			c0.5,4.8-3.8,20.1-3.8,20.1c8.7,1.4,31.1,1,48.4,7.7c10.2,4,29.3,14.2,43.3,22c-30.7,17.7-92.1,13.2-92.1,13.2
			c64.5,13.4,109.1-3.6,109.1-3.6c21.1-6.2,31.6-26.3,31.6-26.3c13.4,1.9,30.6,10.1,30.6,10.1c37,19.9,78,61.3,78,61.3
			c14.9,13.4,29.7,40.7,36.8,46.9c7.2,6.2,16.3,4.8,16.3,4.8s6.7-9.1,18.7-9.6c11.9-0.4,22.5,3.4,22.5,3.4s17.8-7.2,23.9-3.8
			c6.2,3.3,9.6,16.3,9.6,16.3s10.1,1.9,10.5,6.7c0.5,4.8-3.4,12.4-3.4,12.4s6.7,4.3,7.7,7.2c1,2.9-2.4,6.7-5.2,9.1
			c-2.9,2.4-13.4,8.1-18.7,7.2c-5.3-1-21.6,0.5-21.6,0.5s-2.4,6.7-6.7,8.1c-4.3,1.4-9.1-0.5-12-3.4c-2.9-2.9-11.4-8.6-15.8-8.6
			c-4.3,0-7.7,4.3-21.1,6.7c-13.4,2.4-21.6-3.8-21.6-3.8s1.2,9.9,0.5,16.8c-0.1,0.6-2.8-0.1-2.9,0.5c-0.4,6.5,0,16.2,0,16.2
			c-1.5-3.8-14.1-21.1-25.1-15.4c-11,5.8-7.9,26.4-7.9,26.4c17.3,10.6,41.7,9.1,41.7,9.1c4.7-10.5-1.5-21.1-1.5-21.1
			c20.6,6.7,25.4,32.1,27.8,37.3c2.4,5.3,13.4,11.5,13.4,11.5s-11,10-22.5,17.2c-11.5,7.2-32.5,16.3-36.4,17.7
			c-3.8,1.4-8.6,9.6-9.6,12.4c-0.9,2.9-3.8,11.5-11,15.4c-7.2,3.8-27.8,12.4-27.8,12.4s2.9,4.3-1.9,12c-4.8,7.6-22,11-50.3,20.6
			C663.9,573.3,644.7,590.5,644.7,590.5L644.7,590.5z M757.5,492.8c4.3,0,13.1-5.8,19.3-6.2c0,0-5.4-7.4-6.2-9.3
			c-0.7-1.9,2.3-5.8,2.3-5.8s-12.4,9.3-16.2,12c-3.9,2.7-18.6,5.8-18.6,5.8S753.2,492.8,757.5,492.8L757.5,492.8z M598.2,448.9
			c4.8,0,10-0.4,15.3-1.4c42.6-7.8,61.5-39.7,61.5-39.7s-32,25.8-66.1,29.4c-34.2,3.6-66.2-9.2-66.2-9.2S564.2,448.9,598.2,448.9
			L598.2,448.9z M603,409.6c22.6,0,39.5-7.1,39.5-7.1c-30.3,4.5-53.4-3.3-70.7-11.8c-15.1-7.4-33-23.5-61.4-30.3
			c-30-7.1-53.5,3.7-53.5,3.7c41.2,1.5,60.7,13.1,101.6,34.8C573.8,407.1,589.4,409.6,603,409.6z M642.8,378.4
			c18.3-0.1,33.7-4.5,44.1-9.8c20-10.3,18.2-26.7,17.8-28.9c0-0.1,0-0.2,0-0.3c0,0,14.6,2.9,24.9,9.2c0.9,13.7,8.7,27.6,21.4,26.9
			c14.3-0.8,34-11.3,34-11.3c-27.3-22-77.3-40.3-95-44c0,0,12.2,16.7-4.8,35c-13.7,14.7-59.8,23.8-103.8,7.3
			C603.3,374.2,624.5,378.5,642.8,378.4L642.8,378.4z M795.2,265.3c-7.7-7.9-19.5-19.5-32.6-30.4c-13.6-11.2-31-22.2-42.8-29.2
			c28.5-13.6,62.1-15.3,77.7-17c18.2-1.9,36.9-10.5,36.9-10.5s2.4-10.5,13.9-15.8c11.5-5.3,28.2-2.4,28.2-2.4s8.6-8.6,15.8-6.2
			c7.2,2.4,7.7,12,7.7,12s9.1-4.8,13.9-1.5c4.8,3.4,3.4,16.8,3.4,16.8c5.7,0,12.4,3.8,11,10.1c-1.4,6.2-8.6,15.3-16.2,19.6
			c-7.6,4.3-16.3,0.5-23,0c-6.7-0.5-12.5,4.8-13.9,8.1c-1.4,3.3-5.7,9.6-11.5,10.5c-5.7,0.9-18.7,4.3-36.4,12.4
			C816.5,246.9,803.8,257.5,795.2,265.3L795.2,265.3z"/>
	</g>
</g>
</svg>
