<?xml version="1.0" encoding="utf-8"?>
<!-- Generator: Adobe Illustrator 21.1.0, SVG Export Plug-In . SVG Version: 6.00 Build 0)  -->
<!DOCTYPE svg PUBLIC "-//W3C//DTD SVG 1.1//EN" "http://www.w3.org/Graphics/SVG/1.1/DTD/svg11.dtd">
<svg version="1.1"
	 id="Layer_1" xmlns:cc="http://creativecommons.org/ns#" xmlns:dc="http://purl.org/dc/elements/1.1/" xmlns:rdf="http://www.w3.org/1999/02/22-rdf-syntax-ns#"
	 xmlns="http://www.w3.org/2000/svg" xmlns:xlink="http://www.w3.org/1999/xlink" x="0px" y="0px" width="312.7px" height="238.7px"
	 viewBox="0 0 312.7 238.7" style="enable-background:new 0 0 312.7 238.7;" xml:space="preserve">
<style type="text/css">
	.st0{fill:#B0B7BC;}
	.st1{fill:#FFFFFF;}
	.st2{fill:#0076B6;}
</style>
<path class="st0" d="M85.6,238.7c-3.4,0-7.6-1-11.3-4.5c-6.9-6.6-5.9-14-5.6-16.5c0-0.1,0-0.3,0-0.4c0-0.6,0.1-2.2,0.1-4.1
	c0.1-3,0.2-8,0.3-10.2c-1.1-1.9-3-5.9-2.3-10.4c0.9-6.1,5.3-9.7,7.2-11.3c1.7-1.4,2.8-3.2,3.4-5.3c0.6-2,0.8-5.9,1-8.8
	c0.1-1.6,0.2-3,0.3-4c0.1-1.1,0.2-2.5,0.3-3.8c-4.3-1.6-12.2-5-17.2-10.5c-6.5-7.3-8.7-12.7-10.5-20.7l-0.4-1.6
	c-1.2-5.4-2.3-10.1-5.8-12.9c-2.1,0.3-5.6,0.3-9.5-1.3c-5.5-2.2-8.9-6.5-11.9-10.2l-0.5-0.6c-1.6-1.9-9.6-4-14.9-4.2L0,97.1l5.7-6.3
	c0.4-0.4,9-9.9,20.9-14c12.8-4.4,19.2-2.3,23.3,0.1c4.2,2.4,7.4,6.1,9.2,10.9c2.7,1.4,7.9,4.5,11.9,9.2c4.9,5.8,7.8,11.3,9.7,18.9
	c1.4,5.6,2.7,10.8,11.2,13.3c2.5-2.4,7.1-6.8,9.4-8.3c3.3-2.1,7.2-3.3,8.5-3.7c0.8-0.3,3.8-1.2,5.2-1.6c3.1-2.5,6.4-5.3,7.6-6.4
	c0.8-1.4,2.9-5.1,4.4-7.5c1-1.7,2.3-3.3,3.3-4.5c-1.2-3-2.9-8.2-2.8-13.8l0.1-6l4,1.8c0.6-2.3,1.6-5,3.5-7.6
	c2.5-3.6,5.1-6.3,6.5-7.8c0.2-2.4,0.8-6.8,3.2-11.4c-1.1-2.1-2.5-5.2-2.8-7.9l-0.3-3.9l3.9-0.4c0,0,4.9-0.5,8.4-1.5
	c3.7-1,4.7-1.6,5.9-3.1l0.1-0.1c2.2-2.6,7.3-8.8,14.1-12c1.6-0.7,3.2-1.4,4.9-1.9l-0.5-0.2l6.3-4.6c0.2-0.2,5.4-3.9,15.2-5.6
	c0.2-2,0.6-4.6,1.4-6.5l1.9-4.6l4.1,2.8c0.1,0.1,14.3,9.8,21.1,12.4c3.4,1.3,6.4,2.2,9,3c2.9,0.9,5.5,1.7,7.7,2.8
	c4,2,6.9,5.2,8.3,7.9c1.6,0.7,4.3,2,6.5,3.6c2.9,2,4.8,5.6,5.7,7.7c2.2,1,6.6,3,11,5.7c6.5,3.9,14.1,11.9,14.5,12.2l3.9,4.1
	l-5.2,2.3c0,0-3.6,1.7-6.7,6.1c-0.1,0.2-0.2,0.5-0.2,0.7c3.5,0.1,6.6,1.1,8.9,2.8c1.5,0,3.8,0.1,6.2,0.7c4.3,1.2,10,4.6,12.5,8.9
	c2.4,4.2,2.7,8.9,0.8,13.2c0.1,1.5-0.1,3.9-1.5,6.6c-1.4,2.6-3.4,4.4-4.6,5.4c-1,1.9-3.4,5.5-8,7.5c-4.8,2.1-10.3,0.9-12.7,0.2
	c-1.4,0.2-3.7,0.6-5.8,0.6c-1.9,0-4-0.4-5.8-0.9c0,0,0,0,0,0.1c1.3,0.8,2.9,1.7,4.6,2.3c1.3,0.4,2.5,0.8,3.7,1.1
	c3.1,0.9,5.8,1.6,7.9,3.1c1,0.7,1.8,1.5,2.4,2.1c1.5,0,3.5,0,5.5,0.5c4.2,1,8.6,4.1,11.5,8c3.4,4.6,4.7,10,3.5,14.8
	c-0.9,3.5-2.6,5.7-3.8,6.8c-0.6,1.6-1.9,4.4-4,6.4c-2.1,2.2-4.8,3-6.4,3.4c-1.4,1.2-3.8,2.7-7.6,3.3c-4.3,0.7-7.7-0.7-9.6-1.7
	c-1.7,0-4.9-0.2-8.7-1.4c-4.7-1.5-8.1-5.2-9.6-7.1c-1.1-0.4-3.5-1-6.8-1.1c-5.3-0.2-17.9-2.5-25.2-6c-2.2,0.6-6.4,1.5-13.4,1.9
	l-3,0.2l-1-2.9c-0.2-0.6-0.8-2-1.6-3.3c-2.9,1.6-7.4,4-9.3,4.9c-4.2,2-7.9,3.3-11.1,3.9c-0.6,2.8-1.7,7-3.3,9.9
	c-1.3,2.4-3.2,4.6-5.5,6.5c1.2,1,2.3,2.2,3.3,3.6c3.7,5.6,4.5,11.5,2,16.2c-1.5,2.8-3.1,4.5-4.3,5.4c-0.9,1.8-2.9,4.7-6.8,6.5
	c-4,1.8-8.4,1.6-10.6,1.3c-1.5,0.6-4.2,1.4-7.5,1.4c-3.8,0-8-2.1-10-3.3c-3.6,0.3-12.9,1.1-16.5,0.8c-5-0.4-9-2.5-11.8-6
	c-0.9,0.5-1.9,1.1-2.9,1.6c-1.9,0.9-7,3.4-11.5,6.1c2.7,2.1,5.9,5.6,6.2,11.2c0.3,4.1-0.5,9.8-5.6,13.8c-0.9,1.5-2.8,4.2-6.1,5.8
	c-3.2,1.6-6.5,1.6-8.2,1.4C90.5,238.2,88.3,238.7,85.6,238.7z M46.8,105.3l1.5,0.9c7.3,4.5,9,12.1,10.6,18.8l0.3,1.5
	c1.4,6.1,2.8,10.6,8.7,17.2c5.4,6,16.3,9.1,16.4,9.1l3,0.8l-0.1,3.1c0,0.2-0.1,4.7-0.5,7.5c-0.1,0.7-0.2,2.1-0.3,3.5
	c-0.2,3.4-0.5,7.7-1.3,10.5c-1,3.6-3.1,6.8-5.9,9.2l-0.1,0.1c-1.5,1.2-3.9,3.3-4.4,6.3c-0.4,2.5,1.2,5.1,1.6,5.7l0.7,0.9l0.1,1.1
	c0,0.5,0.1,1.1-0.3,12c-0.1,2-0.1,3.6-0.1,4.1l0,0.2c0,0.2-0.1,0.6-0.1,1c-0.3,2-0.8,5.8,3.2,9.6c4.2,4,9.7,1.5,9.8,1.5l1.2-0.5
	l1.3,0.3c0.6,0.1,2.7,0.3,4.2-0.6c1.9-1,3-3.1,3-3.1l0.5-0.9l0.9-0.6c0.9-0.6,3.3-2.3,2.9-7.3c-0.3-4.6-5-6.5-5-6.5l-2.4-0.9
	l-0.4-7.4l1.8-1.3c5.6-4,13.3-7.7,15.9-8.9c3-1.5,5.2-3.2,5.2-3.2l4.3-3.5l2,5.2c1.2,3.2,3.6,4.9,7.4,5.2c2.6,0.2,11.5-0.4,16.4-0.9
	l1.4-0.1l1.2,0.8c1.3,0.9,4.7,2.7,6.9,2.8c2.9,0,5-1,5.1-1l1.2-0.6l1.4,0.3c1.1,0.2,4.7,0.5,7.1-0.6c2.3-1.1,3.1-3,3.1-3l0.6-2
	l1.5-0.5c0.3-0.2,1.2-1,2.2-2.8c1.1-2,0.5-5-1.6-8c-1.6-2.4-4.8-4-6-4.4l-10.8-3.9l10.9-3.6c2.5-0.8,6-3.2,7.7-6.4
	c1.5-2.8,2.7-8.4,3-10.3l0.5-3.2l3.2-0.2c4.2-0.3,9.6-2.8,11.3-3.6c2.7-1.3,11.5-6.2,11.6-6.2l2.3-1.3l2.1,1.6
	c2.2,1.7,3.7,4.2,4.7,6.1c7.1-0.6,9.7-1.7,9.7-1.7l1.9-0.9l1.8,1.1c5,2.9,17.6,5.6,23.2,5.8c6.6,0.3,10.3,2,10.7,2.2l1,0.5l0.6,0.9
	c0.7,1.1,3.3,4.1,6.2,5c4,1.2,6.9,1,7,1l1.6-0.2l1.3,1c0,0,2,1.5,4.8,1c2.5-0.4,3.6-1.4,3.9-1.6l1.1-1.7l1.9,0.2
	c0.4,0,1.9-0.3,2.8-1.3c1.3-1.3,2.2-3.7,2.4-4.3l0.5-1.6l1.1-0.6c0.2-0.2,1.1-1.1,1.6-3.1c0.6-2.4-0.2-5.4-2.2-8.1
	c-2-2.8-5-4.5-6.9-5c-2.3-0.5-4.8-0.2-4.8-0.2l-2.9,0.4l-1.2-2.5c0,0-0.5-0.8-1.8-1.7c-0.9-0.7-3-1.3-5.4-1.9
	c-1.2-0.3-2.5-0.7-3.9-1.1c-5.4-1.7-10.2-5.8-10.4-6l-2.9-2.5l2.4-3c0.6-0.7,2.6-3.7,3.8-5.4l1.9-2.8l3.1,1.5
	c0.7,0.3,3.8,1.3,5.7,1.3c1.8,0,4.5-0.4,5.3-0.6l1.1-0.2l1.1,0.4c1.2,0.4,5.2,1.5,7.7,0.4c3-1.3,4.3-4.3,4.3-4.3l0.5-1.3l1.2-0.7
	l0,0c0,0,1.7-1.1,2.7-3c0.7-1.3,0.6-2.3,0.6-2.5l-0.6-1.6l1-1.3c1.5-2.7,0.8-5.1-0.1-6.6c-1.2-2.1-5-4.4-7.7-5.1
	c-2.5-0.7-4.9-0.4-4.9-0.4l-2,0.3l-1.4-1.5c-0.7-0.8-2.5-1.6-5.3-1.7c0,0,0,0-0.1,0c-1.9,0-4.3,1.6-5,2.2l-5.5-5.8
	c1.3-1.4,2.8-4.4,3.9-7.9c0.1-0.3,0.2-0.8,0.6-1.3c1.9-2.7,3.9-4.7,5.7-6.2c-2.6-2.4-6.3-5.7-9.4-7.6c-5.8-3.5-11.4-5.8-11.4-5.8
	l-1.7-0.7l-0.6-1.7c-0.6-1.7-2-4.5-3.4-5.5c-2.7-1.9-6.3-3.3-6.4-3.3l-1.8-0.7l-0.6-1.9c-0.3-0.9-2.1-3.5-5-4.9
	c-1.7-0.8-3.8-1.5-6.5-2.3c-2.8-0.8-5.9-1.8-9.6-3.2c-4.9-1.9-12.6-6.6-17.6-9.9c-0.1,0.8-0.1,1.4-0.1,1.9l-0.1,3.5l-3.5,0.4
	c-3.3,0.4-6.1,1-8.3,1.7c0.1,0.1,0.1,0.1,0.2,0.1l9.4,8l-12.3-0.9c-3.7-0.3-9.8,0.4-15.6,3.2c-5.1,2.4-9.5,7.7-11.4,9.9l-0.1,0.1
	c-2.9,3.4-5.9,4.5-9.9,5.6c-1.6,0.5-3.4,0.8-4.9,1.1c0.5,1,1,2,1.5,2.7l1.3,2.1l-1.4,2.1c-3.3,5.2-3.2,10.8-3.2,10.8l0.1,1.9
	l-1.4,1.3c0,0-3.3,3-6.6,7.6c-2.8,3.9-2.8,8.3-2.8,8.3l0.1,4.8l-3-0.5c0.9,4.1,2.5,7.2,2.5,7.2l1.4,2.6l-2,2.1c0,0-2.5,2.6-4.1,5.2
	c-1.7,2.8-4.5,7.8-4.5,7.8l-0.3,0.5l-0.4,0.4c-1.3,1.3-7.9,6.7-9.1,7.7l-0.6,0.5l-0.7,0.2c0,0-4.9,1.6-5.9,1.9
	c-1.1,0.3-4.2,1.3-6.5,2.8c-1.8,1.2-6.9,6.1-9.7,8.9l-1.5,1.5l-2.1-0.5c-15.2-3.3-17.7-13.2-19.3-19.7c-1.4-5.3-3.3-10-8-15.6
	c-4.2-4.9-10.6-7.8-10.7-7.8l-1.7-0.7l-0.5-1.8c-1-3.5-3.1-6.2-6-7.9c-1.9-1.1-5.7-3.3-16.7,0.5c-4.5,1.6-8.5,4.1-11.6,6.5
	c4.5,1,9.5,2.8,12,5.9l0.5,0.6c2.7,3.4,5.1,6.4,8.7,7.8c3.4,1.4,6.4,0.6,6.4,0.6L46.8,105.3z M178.1,190.8L178.1,190.8L178.1,190.8z
	 M292.8,158.7L292.8,158.7L292.8,158.7z M303.5,97.4L303.5,97.4L303.5,97.4z"/>
<path class="st0" d="M274.8,78.5c0,0,3.8-3.2,7.7-3.2c3.9,0.1,6.7,1.4,8.1,2.9c0,0,3.1-0.4,6.5,0.5s8.2,3.8,10.1,7
	c1.9,3.2,2.1,7,0.2,10.6c0,0,0.7,2.4-0.9,5.4s-4.2,4.6-4.2,4.6s-1.8,4.4-6.4,6.5c-4.7,2.1-10.8-0.3-10.8-0.3s-3.5,0.7-6.1,0.7
	c-2.6,0-6.3-1.1-7.4-1.7c0,0-3.1,4.6-4,5.7c0,0,4.3,3.7,8.9,5.2c4.7,1.5,8.3,2.1,10.5,3.7c2.1,1.5,2.9,3,2.9,3s3.2-0.5,6.4,0.2
	c3.1,0.8,6.8,3.2,9.2,6.5c2.4,3.2,3.9,7.5,2.9,11.4c-1,4-3.3,5.5-3.3,5.5s-1.1,3.7-3.4,5.9c-2.2,2.3-5.5,2.4-5.5,2.4
	s-1.8,2.4-6.4,3.1c-4.6,0.8-7.9-1.8-7.9-1.8s-3.6,0.4-8.6-1.1s-8.3-6.6-8.3-6.6s-3.2-1.5-9.2-1.8c-5.9-0.3-19.2-2.9-25.1-6.4
	c0,0-3.5,1.7-14,2.2c0,0-1.6-4.8-4.6-7.1c0,0-9,5-11.9,6.3c-2.9,1.3-8.2,3.7-12.8,3.9c0,0-1.2,7.5-3.4,11.6s-6.4,7.1-10,8.3
	c0,0,5.2,1.8,7.9,5.9c2.7,4.1,3.7,8.5,1.8,12.1s-4,4.6-4,4.6s-1.1,3.6-5.3,5.5c-4.2,1.9-9.5,0.9-9.5,0.9s-2.9,1.5-6.9,1.5
	c-4,0-9.1-3.4-9.1-3.4s-13.2,1.2-17.1,0.9c-3.9-0.3-8.6-1.9-10.8-7.7c0,0-2.4,2-6,3.8c-3.6,1.7-10.4,5.1-15.3,8.6l0.2,2.6
	c0,0,7.2,2.7,7.6,10c0.5,7.3-3.5,10-4.7,10.8c0,0-1.5,3.3-4.8,5c-3.2,1.7-6.9,0.9-6.9,0.9s-8,3.6-14.2-2.3
	c-6.1-5.8-4.4-12.2-4.3-13.7c0-1.6,0.5-15,0.4-15.7c0,0-3-4.1-2.4-8.7c0.7-4.6,4.2-7.5,5.8-8.8c1.7-1.4,3.7-3.7,4.7-7.2
	c1-3.5,1.1-10.7,1.4-13.4c0.3-2.7,0.5-7.1,0.5-7.1s-12.1-3.3-18.3-10.3s-8-12.1-9.6-19c-1.6-6.9-2.7-13.9-9.1-17.8
	c0,0-4.2,1.2-9-0.7c-4.8-1.9-7.7-5.8-10.8-9.6c-3.1-3.8-14-5.5-17.8-5.7c0,0,8.2-9.1,19.2-12.9c11.1-3.8,16.3-2.3,20-0.2
	c3.7,2.1,6.5,5.5,7.9,10.2c0,0,7.2,3.1,12.2,8.9c4.9,5.8,7.2,10.9,8.9,17.3c1.6,6.3,3.6,14,16.3,16.8c0,0,7.5-7.5,10.4-9.4
	c2.9-1.8,6.5-2.9,7.5-3.2c1-0.3,5.9-1.9,5.9-1.9s7.6-6.2,8.8-7.4c0,0,2.8-5,4.6-8c1.8-2.9,4.6-5.8,4.6-5.8s-3.7-6.9-3.5-14.4
	c0,0,1.8,0.8,3.4,1.1c0,0-0.1-5.6,3.5-10.7c3.6-5.1,7.2-8.3,7.2-8.3s-0.3-6.8,3.8-13.2c0,0-3.1-5-3.4-8.2c0,0,5.2-0.5,9.1-1.6
	c3.9-1.1,5.9-1.9,7.9-4.3c2-2.4,6.8-8.3,12.8-11.1c6.1-2.9,12.8-3.9,17.6-3.5c0,0-3-2.5-6.2-3.6c0,0,5.6-4.1,16.6-5.3
	c0,0,0.1-5.6,1.3-8.5c0,0,14.6,10,21.9,12.8c7.3,2.9,12.7,3.8,16.4,5.7c3.8,1.8,6.5,5.3,7.1,7.4c0,0,4.1,1.6,7.2,3.8
	c3.1,2.2,4.9,7.5,4.9,7.5s5.9,2.4,12,6.1c6.1,3.7,13.7,11.6,13.7,11.6s-4.8,2.1-8.8,7.9C279.6,68.9,277.8,75.4,274.8,78.5"/>
<path class="st1" d="M85.7,232.6c-0.8,0-1.6-0.1-2.4-0.2c-4.6-1-8.4-5.6-8.5-10.4c0-2.8,0.3-10.7,0.5-15.4c0.1-1.7,0.1-3.2,0.1-3.5
	c0-0.8,0-1.4-0.4-2.2c-1.7-3.2-2.4-5.7-2-7.6c0.6-3.1,3.7-5.9,4.9-7c0.2-0.2,0.4-0.4,0.7-0.6c1.6-1.3,3.2-2.6,4-4.9
	c1.2-3.3,2-7.4,2.1-10.2c0.2-5.1,0.5-11.8,1-15.5c-4.1-1.1-14.2-4.4-19.5-10.5c-6.3-7.2-7.6-13-9.3-20.3l-0.3-1.3
	c-1.8-7.6-3.9-12.4-9.7-15.7c-1.7,0.5-5.3,1.2-9.6-0.6c-3.7-1.6-6.2-4.7-8.2-7.2c-1-1.2-1.9-2.4-2.7-3c-2.2-1.6-9-2.8-10.3-2.8
	l-6.6,0.1l5.5-3.8c0.4-0.3,9.1-6.3,15.4-8.1c8-2.4,14.4-2,18.5,1.3c3.5,2.8,4.8,7,5.3,9.1c2.5,1.2,8.9,4.5,13.1,9.6
	c5.2,6.4,6.7,12.3,7.7,16.2c0.9,3.4,3.6,10.5,7.9,13.5c4.1,2.9,8.7,4.1,11.4,4.5c2.1-2.2,8.2-8.4,10.7-10c2.7-1.8,5.7-2.6,7.3-3.1
	l0.6-0.2c1.1-0.3,4.5-1.4,5.6-1.8c1.4-1.2,7.4-6.4,9.3-7.9c0.9-1.6,4.8-8.3,6-10.1c0.9-1.4,2.9-4,4.1-5.5c-1.1-1.7-2.8-4.9-2.8-8.7
	l0-2.4l2.3,0.4c-0.2-1.3-0.3-3,0-4.8c0.9-4.4,5.2-10.7,10.6-15.5c0-1.5,0.1-4.6,1.1-7.7c0.8-2.7,2.2-5,3-6.4
	c-0.9-1.3-2.2-3.4-2.5-5.4l-0.3-2.1l2.1-0.2c0,0,4.7-0.5,7.8-1.5c2.5-0.8,4.7-2.5,5.2-3c1.1-1.4,7.4-9.5,15.1-12.3
	c6.9-2.5,13.9-2.3,16.1-2.1c0.7-0.4,1.7-1.1,2.8-1.7c-1-0.9-2.1-1.8-3.1-2.2l-5.2-2.1l5.4-1.6c0.2-0.1,5.2-1.5,10.4-1.6
	c0.1-1.4,0.3-3.3,0.7-4.6l0.8-2.7l2.3,1.7c0.1,0.1,9.6,6.9,13.9,8.8c4.4,1.9,13,4.8,15.6,5.6c2.1,0.6,8.1,2.6,9.9,8.4
	c1.5,0.6,4.4,1.9,5.9,2.7c2.4,1.3,4.6,4.1,5.1,5.5l0.2,0.6c0.3,0.7,0.6,1.6,0.9,2c0.2,0.3,0.6,0.6,1.1,0.8c0.9,0.3,8.9,3.9,12.8,6.8
	c3.6,2.8,8.5,7.3,8.7,7.5l1.7,1.6l-1.8,1.4c-1.7,1.4-4.6,3.8-5.5,5c-0.4,1.2-1.8,5.4-4,8.6c-0.9,1.3-2,2.4-3,3.2
	c0.3,0.1,0.7,0.2,1,0.2c1.4,0.4,2.5,0.8,3.2,1.1c0.5-0.4,1.2-0.8,1.6-1.1c1.3-1.2,4.6-2.7,7.6-2.3c2.4,0.4,4.2,1.8,5.3,2.9
	c0.7,0,1.9,0,2.9,0c2.5-0.2,6.5,0.8,9.6,3.2c6,4.7,4.6,9.3,2.8,12.1c0.2,1.2,0.3,3.4-0.6,5.3c-0.9,1.9-2.8,3.1-3.8,3.7
	c-0.7,1.6-2.7,5.3-6.3,6.5c-3.6,1.2-7.7-0.2-9.3-0.9c-1.4,0.3-4.9,0.9-7.6,0.7c-2.4-0.2-4.9-1.4-6.4-2.4c0,0,0,0.1-0.1,0.1
	c-0.1,0.1-4.1,5.8-6.5,8.9c1.9,1.6,5.4,4.4,8.8,5.8c4,1.6,6.4,2.2,8,2.5c0.5,0.1,0.9,0.2,1.3,0.3c1.5,0.4,4.5,2.1,6.2,5.2
	c1.3-0.2,3.2-0.5,4.7-0.4c3.1,0.2,5.6,1.1,9.7,5.2c2.3,2.4,4.7,6.3,2.9,11.5c-0.6,1.6-2,2.9-3,3.6c-0.2,1.4-0.9,3.9-2.8,5.6
	c-1.7,1.5-3.8,1.9-5.1,2c-0.8,0.9-2.1,2.2-4.3,2.8c-3.3,1-6.6-0.4-8.5-1.6c-1.8,0.1-6.5,0.1-9.9-1.6c-3.3-1.6-5.2-4.4-6-5.7
	c-1.7-0.6-6.7-2.2-11.6-2.3c-6.7-0.1-18.7-3.4-23.9-6.5c-2.1,0.9-7,2.7-11.3,2.7l-1.5,0l-0.5-1.4c0,0-1.3-3.6-5.3-6.5
	c-3,1.7-11.7,6.4-15.3,8.1c-2.6,1.2-6.5,2.1-11.6,2.8c0,0.9-0.1,2-0.3,3.4c-0.6,2.9-2.4,9.1-4.3,11.5c-1.8,2.3-6.5,4.8-9.1,5.8
	c-0.8,0.3-1.8,0.6-2.7,0.9c-1.8,0.6-3.7,1.2-5.3,2c-1.1,0.6-2.4,1.4-3.5,2.3c0.3,0,0.5,0.1,0.7,0.1c0.4,0,1.7-0.6,2.5-0.9
	c0.6-0.3,1.3-0.6,1.8-0.8c2.3-0.9,7.4-1.6,11.5,1.5c3.9,2.9,6.2,6.9,6.1,10.4c-0.1,2-0.9,4.8-4.6,7c-0.5,1.5-1.8,4.2-4.8,5.3
	c-2.9,1-6.9,0.6-8.6,0.3c-1.1,0.6-3.2,1.5-5.6,1.7c-2.8,0.2-5.8-1.4-8.2-2.7c-0.1-0.1-0.3-0.2-0.3-0.2c-0.6-0.3-0.9-0.5-1.4-0.5
	c-0.3,0-2.2,0.1-4.1,0.3c-4.1,0.3-9.8,0.7-12.2,0.7c-4.1,0-7.4-2-9.4-5.6c-0.9-1.7-0.9-3.8-0.5-5.7c-1.4,2.1-3.1,4.1-5.9,5.8
	c-1.7,1.1-4.3,2.4-7.1,3.8c-2.7,1.3-5.4,2.7-7.2,3.8c-2.4,1.5-4.2,2.9-5.1,3.6c0,1.9,0.1,3.9,0.1,5.1c1.3,0.4,3.1,1,4.2,2
	c2.2,1.9,3.4,4.5,3.3,7.3c0,2-0.1,6.4-4.1,8.4c-0.5,1.4-1.8,3.9-4.4,4.8c-2.3,0.9-4.6,0.6-5.8,0.4C90.1,231.9,88.1,232.6,85.7,232.6
	z M47.1,102.8l0.9,0.5c8.5,4.4,10.7,11.4,12.5,18.8l0.3,1.3c1.6,7,2.8,12.1,8.4,18.5c5.8,6.6,19.1,9.6,19.2,9.7l2,0.4l-0.5,2
	c-0.3,1.2-0.8,5.1-1.2,16.6c-0.1,3.3-1,7.8-2.3,11.4c-1.2,3.3-3.4,5.2-5.2,6.6c-0.2,0.2-0.4,0.4-0.6,0.5c-1.9,1.6-3.4,3.5-3.6,4.8
	c-0.1,0.7,0.3,2.5,1.6,4.9c0.9,1.7,0.9,3.1,0.9,4.1c0,0.3,0,1.3-0.1,3.6c-0.2,4.7-0.5,12.5-0.5,15.2c0,3,2.5,6,5.3,6.6
	c3,0.6,5.9-0.8,5.9-0.8l0.7-0.4l0.8,0.3c0,0,2,0.6,3.9-0.1c1.4-0.5,2.2-2.6,2.3-3.1l0.3-1l1-0.4c1.7-0.7,2.3-2,2.4-5.2
	c0-2-1.1-3.4-2-4.2c-0.6-0.5-2.6-1.1-3.8-1.4l-1.2-0.2l-0.3-1.2c-0.2-0.7-0.3-3.5-0.3-8.1l0-0.9l0.6-0.6c0.1-0.1,2.4-2.3,6.4-4.7
	c2-1.2,4.8-2.6,7.5-4c2.5-1.3,5.2-2.6,6.8-3.6c3-1.9,4.6-4.3,5.8-6.5c1.3-2.4,4.8-9.4,4.9-9.5l0.9-1.8l1.8,0.9
	c0.4,0.2,2.6,1.3,3.4,1.8c1.6,1.1,1.7,3.1,1,4.4c-0.2,0.5-0.7,1-1.9,2.5c-0.7,0.8-1.4,1.8-2,2.6c-1.4,1.8-2.7,5.4-1.8,7
	c1.3,2.4,3.2,3.5,5.8,3.5c2.3,0,8.1-0.4,11.9-0.7c2.6-0.2,3.9-0.3,4.4-0.3c1.6,0,2.6,0.5,3.3,0.9c0,0,0.2,0.1,0.5,0.3
	c1,0.6,4,2.3,5.9,2.2c2.4-0.1,4.4-1.4,4.4-1.4l0.7-0.4l0.8,0.2c1.3,0.3,5.1,0.7,7.2,0c2-0.7,2.6-3.3,2.6-3.3l0.2-0.9l0.8-0.4
	c3.1-1.6,3.2-3.4,3.2-4c0.1-1.8-1.3-4.6-4.5-7c-2.8-2.1-6.5-1.4-7.6-0.9c-0.5,0.2-1.1,0.4-1.6,0.7c-1.4,0.6-2.8,1.3-4,1.3
	c-1.3,0-4.7-0.8-5.7-1l-3.6-0.9l2.8-2.5c0.4-0.4,4.2-3.8,7.6-5.5c1.9-0.9,4-1.6,5.8-2.2c0.9-0.3,1.8-0.6,2.6-0.9
	c2.4-0.9,6.2-3.1,7.3-4.6c1.1-1.4,2.9-6.5,3.5-9.7c0.5-2.4,0.1-3.9,0.1-3.9l-0.5-2.2l2.5-0.3c6.9-0.7,10.3-1.8,12-2.6
	c4.2-1.9,16-8.5,16.1-8.5l1-0.6l1,0.6c4.2,2.6,6.4,5.9,7.4,7.8c4.4-0.5,9.4-2.7,9.5-2.7l1.1-0.5l0.9,0.7c3.8,2.8,16.3,6.3,22.6,6.3
	c6.9,0,13.5,2.7,13.8,2.8l0.7,0.3l0.3,0.7c0,0,1.5,3.1,4.6,4.6c3.2,1.6,8.5,1.2,8.5,1.1l0.8-0.1l0.6,0.5c1.1,0.9,3.5,2,5.5,1.4
	c1.9-0.6,2.7-1.9,2.7-1.9l0.6-1.1l1.3,0.1c0,0,1.9,0.1,3.3-1c1.1-1,1.5-3.1,1.5-3.8l0.1-1l0.9-0.6c0.7-0.4,1.9-1.4,2.1-2.1
	c0.6-1.6,1-4.2-2-7.3c-3.8-3.8-5.5-3.9-7.1-4.1c-1.6-0.1-4.2,0.4-5.1,0.6l-1.8,0.4l-0.6-1.7c-0.8-2.5-3.2-3.9-4.3-4.2
	c-0.3-0.1-0.6-0.2-1.1-0.3c-1.6-0.4-4.3-1-8.6-2.7c-5.6-2.3-11.2-7.6-11.4-7.9l-1.4-1.4l1.3-1.4c1-1.1,5.7-7.6,7.4-10
	c0.9-1.3,1.9-2,2.1-2.1l1.2-0.7l1.1,0.8c0.8,0.7,3.5,2.4,5.6,2.5c2.9,0.2,7-0.8,7.1-0.8l0.7-0.2l0.6,0.3c1.1,0.5,4.6,1.8,7,1
	c2.7-0.9,4.1-4.7,4.1-4.8l0.3-0.8l0.8-0.4c0.5-0.2,2.1-1.1,2.6-2.2c0.6-1.1,0.3-2.9,0.1-3.5l-0.2-0.9l0.6-0.8
	c1.5-1.9,2.3-4.1-1.6-7.2c-2.4-1.9-5.4-2.5-6.9-2.4c-2,0.1-4.1,0-4.2,0l-1-0.1l-0.5-0.8c-0.2-0.3-1.4-1.7-3.2-2
	c-1.7-0.3-3.8,0.8-4.4,1.3c-1,0.9-2.8,2-3,2.1l-1,0.6l-1-0.5c0,0-1.4-0.7-3.6-1.3c-2.1-0.6-4.6-0.6-4.6-0.6l-2.4,0l0.7-4.6l1.1-0.4
	c0,0,3-1.2,5-4.1c2.1-3.2,3.5-7.8,3.6-7.8l0.1-0.3l0.2-0.3c0.9-1.3,3.1-3.3,4.7-4.6c-1.7-1.6-4.5-4-6.7-5.7
	c-3.3-2.5-10.9-5.9-11.7-6.2c-1.3-0.4-2.4-1.3-3.1-2.4c-0.5-0.8-0.9-1.8-1.2-2.8l-0.2-0.6c-0.2-0.6-1.8-2.6-3.2-3.4
	c-1.7-0.9-6.4-2.9-6.4-2.9l-1-0.4l-0.2-1c-0.8-3.9-4.4-5.5-7.4-6.5c-2.9-0.9-11.4-3.7-16-5.8c-3.2-1.4-8.7-5.1-12-7.4
	c-0.1,1.1-0.2,2.2-0.2,2.7l-0.1,2.1l-2.1-0.2c-2.3-0.2-4.7,0.1-6.6,0.4c1.2,1.1,2.1,2.1,2.3,2.3l2,2.2l-2.8,1
	c-1,0.3-3.6,1.9-5.2,2.9l-0.6,0.4l-0.7-0.1c-0.1,0-7.7-0.8-15.1,1.8c-7.2,2.6-13.3,11-13.4,11l-0.3,0.3c-0.1,0.1-3.1,2.7-6.8,3.9
	c-2,0.6-4.4,1.1-6.2,1.3c0.6,1.1,1.3,2.1,1.8,2.8l1,1.2l-1,1.2c0,0-2.2,2.9-3.3,6.4c-1.1,3.5-0.9,7.2-0.9,7.3l0.1,1l-0.7,0.6
	c-5.6,4.8-9.3,10.8-10,13.9c-0.6,3,0.6,5.2,0.6,5.3l1.5,2.7l-3.1,0.3c-0.3,0-0.7,0-1.1,0c0.7,2.9,2.5,5.1,2.5,5.1l1.1,1.3l-1,1.3
	c0,0-3.6,4.6-4.9,6.5c-1.3,1.9-6,10.1-6.1,10.2l-0.2,0.3l-0.3,0.2c-1.5,1.2-9.7,8.2-9.8,8.3l-0.3,0.3l-0.4,0.1
	c-0.2,0.1-4.8,1.6-6.1,2l-0.6,0.2c-1.5,0.4-4,1.1-6.2,2.6c-2.2,1.4-8.4,7.8-10.7,10.1l-0.7,0.7l-0.9-0.1c-3.5-0.3-9.3-1.8-14.3-5.3
	c-5.2-3.7-8.4-11.7-9.5-15.8c-1-3.8-2.3-9-6.9-14.7c-4.5-5.5-12.5-8.9-12.6-8.9L50.4,95l-0.1-1.2c0,0-0.6-4.9-4-7.6
	c-3.8-3-10.2-2-14.9-0.6c-3,0.9-6.9,3-9.8,4.8c2.6,0.6,5.5,1.5,7.2,2.7c1.2,0.9,2.3,2.2,3.4,3.7c1.8,2.3,3.9,4.9,6.7,6.1
	c4.1,1.8,7.3,0.3,7.3,0.3L47.1,102.8z M128.4,176.5c-0.4,0.7-0.8,1.6-1.3,2.5c0.2-0.3,0.4-0.5,0.6-0.8c0.4-0.5,0.8-1,1.1-1.4
	C128.8,176.7,128.6,176.6,128.4,176.5z"/>
<path class="st1" d="M266.2,81.2c0,0,2.7-0.1,5.2,0.6c2.4,0.7,4,1.5,4,1.5s1.8-1.1,2.7-1.9c0.9-0.8,3.6-2.2,6-1.8
	c2.4,0.4,4.1,2.1,4.6,2.8c0,0,2.1,0.1,4,0c1.9-0.1,5.5,0.6,8.3,2.8c2.8,2.3,5.4,5.6,2,10c0,0,0.8,2.8-0.3,4.8c-1,2-3.6,3.2-3.6,3.2
	s-1.6,4.8-5.4,6c-3.8,1.2-8.5-1.1-8.5-1.1s-4.4,1.1-7.7,0.8c-3.2-0.2-6.7-2.9-6.7-2.9s-0.8,0.5-1.5,1.5c-0.8,1.1-6.3,8.8-7.6,10.2
	c0,0,5.4,5.2,10.8,7.4c5.3,2.2,8.1,2.5,9.5,2.9s4.5,2.2,5.6,5.5c0,0,3.4-0.8,5.7-0.7s4.4,0.6,8.4,4.7c3.9,4.1,3,7.7,2.4,9.4
	c-0.6,1.7-3,3.1-3,3.1s-0.2,3.4-2.2,5.2s-4.8,1.5-4.8,1.5s-1.1,2.1-3.9,2.9s-5.9-0.6-7.3-1.8c0,0-5.8,0.5-9.6-1.3
	c-3.8-1.8-5.5-5.5-5.5-5.5s-6.4-2.6-13-2.7c-6.7-0.1-19.5-3.7-23.7-6.7c0,0-6.4,2.9-11.6,3c0,0-1.6-4.8-7.2-8.2
	c0,0-11.9,6.6-16.2,8.6s-11.8,2.7-12.9,2.8c0,0,0.5,1.8-0.1,4.8c-0.6,2.9-2.4,8.7-3.9,10.6c-1.5,1.9-5.8,4.3-8.2,5.2
	c-2.5,0.9-5.6,1.7-8.2,3c-2.6,1.3-5.8,3.9-7.1,5.2c0,0,4,1,5.2,1c1.2,0,3.3-1.2,4.9-1.8c1.6-0.6,6-1.5,9.6,1.2
	c3.6,2.7,5.4,6.1,5.3,8.7c-0.1,2.6-1.8,4.5-4.2,5.8c0,0-0.8,3.7-3.8,4.8c-3.1,1.1-8.2,0.1-8.2,0.1s-2.4,1.6-5.4,1.8
	c-2.9,0.2-6.9-2.4-7.5-2.7c-0.6-0.3-1.2-0.7-2.3-0.7s-12.7,1-16.3,1c-3.6,0-6.1-1.8-7.6-4.6c-1.5-2.8,0.6-7.3,2-9.1
	c1.3-1.8,3.5-4.3,3.8-4.8c0.3-0.5,0.3-1.3-0.4-1.8c-0.7-0.5-3.1-1.7-3.1-1.7s-3.6,7.1-4.9,9.6c-1.3,2.4-3.1,5.1-6.5,7.2
	c-3.4,2.1-10.5,5.2-14.3,7.6s-6,4.4-6,4.4s0,6.8,0.2,7.6c0,0,3.4,0.7,4.8,1.8c1.3,1.2,2.7,3.1,2.7,5.8c-0.1,2.7-0.4,5.8-3.7,7
	c0,0-0.9,3.4-3.5,4.4c-2.6,1-5.2,0.1-5.2,0.1s-3.5,1.8-7.2,1c-3.7-0.8-6.8-4.6-6.9-8.5c-0.1-3.9,0.6-18,0.6-18.9s0-1.8-0.7-3.1
	c-0.7-1.2-2.2-4.3-1.8-6.3s2.4-4.3,4.3-5.9c1.8-1.6,4.1-3.2,5.2-6.3c1.1-3.2,2.1-7.5,2.2-10.8c0.1-3.3,0.5-14.1,1.2-17.1
	c0,0-14-3.1-20.3-10.3c-6.3-7.2-7.4-13-9.2-20.7c-1.8-7.7-4.1-13.6-11.4-17.5c0,0-3.9,1.9-9-0.3s-7.8-7.9-10.5-10
	c-2.7-2-10.1-3.2-11.5-3.2c0,0,8.8-6.1,14.8-7.9c6-1.8,12.6-2.4,16.7,0.9c4.1,3.2,4.7,8.9,4.7,8.9s8.5,3.5,13.3,9.5
	c4.9,6,6.3,11.7,7.3,15.4s3.9,11.3,8.7,14.7c4.8,3.3,10.3,4.7,13.3,4.9c0,0,8.2-8.6,11-10.4s6-2.6,7.3-3c1.3-0.4,6-1.9,6-1.9
	s8.3-7.1,9.9-8.4c0,0,4.8-8.3,6.2-10.3c1.3-2,5-6.6,5-6.6s-3.3-3.8-3.3-8.7c0,0,2,0.4,3.2,0.3c0,0-1.6-2.8-0.8-6.7
	c0.8-3.9,5-10.2,10.6-15c0,0-0.2-4.1,1-8c1.2-3.9,3.6-7,3.6-7s-2.6-3.2-3-5.7c0,0,4.8-0.5,8.2-1.6c3.4-1.1,6.1-3.5,6.1-3.5
	s6.5-8.9,14.3-11.7c7.9-2.8,15.9-1.9,15.9-1.9s4-2.6,5.6-3.2c0,0-3.1-3.5-5.7-4.6c0,0,6.1-1.8,11.7-1.4c0,0,0.1-3.9,0.8-6.2
	c0,0,9.8,7,14.2,9c4.4,2,12.9,4.8,15.8,5.7c2.9,0.9,7.8,2.8,8.8,8c0,0,4.8,2,6.6,3c1.9,1,3.8,3.4,4.2,4.5c0.4,1,0.8,2.3,1.2,3
	c0.5,0.8,1.3,1.3,2.1,1.6c0.8,0.3,8.6,3.8,12.2,6.5c3.6,2.7,8.5,7.4,8.5,7.4s-4.9,3.9-6.1,5.7c0,0-1.5,4.9-3.8,8.4
	c-2.4,3.5-5.9,4.8-5.9,4.8L266.2,81.2"/>
<path class="st2" d="M211.7,19.3c-0.3,2.6,1.7,4.8,1.7,4.8c-2.8-1.3-10.6-1.7-10.6-1.7c3.6,1.3,6.1,4.3,6.1,4.3
	c-3,0-7.8,2.8-7.8,2.8c3.9,0,5.5,2.1,5.5,2.1c-3.6,1.7-11.4-0.8-20.2,0.6c-8.8,1.3-14.5,8.2-14.5,8.2c3.8-1.3,6.1-0.2,6.1-0.2
	c-3,0.2-10.8,5.1-13.8,6.7c-3,1.7-7.3,1.5-7.3,1.5c1,2.3,3.9,2.8,3.9,2.8c-3.9,2.7-6,9-6,9c2.2-2.6,5.5-2.4,6.3-0.9
	c0.8,1.5-0.3,4.3-3.3,6.4c-2.4,1.8-8.4,6.7-11.5,11.2c-3.2,4.5-3.6,8-3.6,8c3.8-1.5,5-0.2,4.8,1.7c-0.5,3.2-6,5.6-6,5.6
	c1.3,2.3,6.4,2.4,6.4,2.4s-6,6.6-8.4,10.2c-2.4,3.6-6.4,10.8-7.2,11.8c-0.7,1-9.6,8.1-10.6,9.1s-10,3.3-12.3,4.3
	c-2.3,1-9.9,8.2-12.4,11.5c-0.2,0.2-0.3,0.4-0.4,0.6c-3.6-0.2-12.1-1.4-17.8-6.1c-7.5-6.2-9.2-13.5-10.5-18.5
	c-1.3-5-3.4-8.8-6.3-12.6c-2.9-3.7-11.9-8.2-13.4-9.1c0,0-1.1-6.3-4.2-8.4c-3.3-2.3-7.7-1.8-9.5-1.3c-0.6,0.2-1.3,0.4-2.2,0.7
	c1.7,0.2,3.3,0.5,4.6,0.9c4.2,1.1,4.5,4.1,4.5,4.1s-5.4-5.9-16.4-1.6c0.9,0.2,4.1,0.8,5.7,2.9c1.8,2.4,2.4,4.2,7.6,7.1
	c4.7,2.6,8.3-0.3,8.3-0.3s8,4.1,10.6,8.8c2.5,4.4,5,11.4,6.2,17.6c1.2,6.2,3.6,10.9,9.1,15.7c4.9,4.2,15.3,7.1,20.1,8
	c-0.1,0.4-0.3,0.9-0.4,1.4c-1.2,3.9-1.2,10.9-1.7,18.6c-0.4,7.6-2.1,12-3.9,15.2s-7.3,6.4-7.8,8.4c-0.4,1.9,2.1,4,2.4,7
	s-0.4,15.6-0.4,17.3c0,1.8-0.5,4,0.6,5.7s2.7,2.5,4.9,2.2s3.1-1.6,3.1-1.6s3.3,1.3,4.8,0.4c1.5-0.9,1.3-3.9,1.3-3.9s2.3,0,2.8-0.8
	c0.6-0.8,0.7-3.4-0.3-4.8c-1-1.3-6.3-1.8-6.3-1.8c-0.3-0.6-1.2-10.8-0.4-13s6.7-5.7,11.4-8.4c4.6-2.7,10.9-4.9,13.2-7.3
	c1.8-1.9,6.7-11.6,8.4-15.2c0.1-0.2,5.9-14.4,19.7-20.7l0.1-0.1c-10.1,9-11,12.3-11,12.3s6.7-6.4,18.4-11.3
	c7.8-3.3,13.7-4.7,17.6-5.1c-9.6,3.1-17.8,7.7-26.1,12.7c-8.5,5.1-13.8,11.8-14.2,12.2c7.5,3,6.9,6.2,6.2,8
	c-0.8,2.1-5.4,6.8-6.1,8.8c-0.8,2.1-0.4,4.3,3.3,4.7c3.8,0.3,14.1-1.1,17.3-0.9s5.4,3.4,8.5,3.4s4.6-2.1,4.6-2.1
	c2.3,0.8,6.3,1.2,7.9,0.4c1.7-0.8,1.3-3.9,1.3-3.9c2.7-0.5,4.3-1.8,3.9-3.3c-0.4-1.5-1.5-3.4-3.8-4.8c-2.3-1.3-4.3-0.9-6-0.2
	c-1.7,0.8-3.9,2.1-6.3,1.8c-2.4-0.3-11.4-2.2-11.4-2.2c2.4-6.6,10-11.4,13.5-12.6c3.4-1.2,10-3.3,12.6-5.4c2.5-2.1,4-9.6,4.2-11.1
	c0.2-1.5-1.2-6.3-1.2-6.3c2.7-0.4,9.7-0.3,15.1-2.4c3.2-1.2,9.2-4.4,13.5-6.9c-9.6-5.5-28.8-4.1-28.8-4.1
	c20.2-4.2,34.1,1.1,34.1,1.1c6.6,1.9,9.9,8.2,9.9,8.2c4.2-0.6,9.6-3.2,9.6-3.2c11.6-6.2,24.4-19.2,24.4-19.2
	c4.7-4.2,9.3-12.7,11.5-14.7c2.2-1.9,5.1-1.5,5.1-1.5s2.1,2.8,5.8,3c3.7,0.1,7-1.1,7-1.1s5.6,2.3,7.5,1.2c1.9-1,3-5.1,3-5.1
	s3.2-0.6,3.3-2.1c0.2-1.5-1.1-3.9-1.1-3.9s2.1-1.3,2.4-2.2c0.3-0.9-0.8-2.1-1.6-2.8c-0.9-0.8-4.2-2.5-5.8-2.3
	c-1.7,0.3-6.7-0.2-6.7-0.2s-0.8-2.1-2.1-2.5c-1.3-0.4-2.8,0.2-3.8,1.1c-0.9,0.9-3.6,2.7-4.9,2.7c-1.3,0-2.4-1.3-6.6-2.1
	c-4.2-0.8-6.8,1.2-6.8,1.2s0.4-3.1,0.2-5.2c0-0.2-0.9,0-0.9-0.2c-0.1-2,0-5.1,0-5.1c-0.5,1.2-4.4,6.6-7.8,4.8
	c-3.4-1.8-2.5-8.2-2.5-8.2c5.4-3.3,13-2.8,13-2.8c1.5,3.3-0.5,6.6-0.5,6.6c6.4-2.1,7.9-10,8.7-11.7c0.8-1.7,4.2-3.6,4.2-3.6
	s-3.4-3.1-7-5.4c-3.6-2.3-10.2-5.1-11.4-5.5c-1.2-0.4-2.7-3-3-3.9c-0.3-0.9-1.2-3.6-3.4-4.8c-2.2-1.2-8.7-3.9-8.7-3.9
	s0.9-1.3-0.6-3.8c-1.5-2.4-6.9-3.4-15.7-6.4C217.7,24.7,211.7,19.3,211.7,19.3L211.7,19.3z M247,49.9c1.3,0,4.1,1.8,6,1.9
	c0,0-1.7,2.3-1.9,2.9c-0.2,0.6,0.7,1.8,0.7,1.8s-3.9-2.9-5.1-3.8c-1.2-0.8-5.8-1.8-5.8-1.8S245.6,49.9,247,49.9L247,49.9z
	 M197.2,63.6c1.5,0,3.1,0.1,4.8,0.4c13.3,2.4,19.2,12.4,19.2,12.4s-10-8.1-20.7-9.2c-10.7-1.1-20.7,2.9-20.7,2.9
	S186.6,63.6,197.2,63.6L197.2,63.6z M198.7,75.9c7.1,0,12.3,2.2,12.3,2.2c-9.5-1.4-16.7,1-22.1,3.7c-4.7,2.3-10.3,7.3-19.2,9.5
	c-9.4,2.2-16.7-1.2-16.7-1.2c12.9-0.5,19-4.1,31.8-10.9C189.6,76.6,194.4,75.9,198.7,75.9z M211.1,85.6c5.7,0,10.5,1.4,13.8,3.1
	c6.2,3.2,5.7,8.3,5.6,9c0,0,0,0.1,0,0.1c0,0,4.6-0.9,7.8-2.9c0.3-4.3,2.7-8.6,6.7-8.4c4.5,0.2,10.6,3.5,10.6,3.5
	c-8.5,6.9-24.2,12.6-29.7,13.8c0,0,3.8-5.2-1.5-10.9c-4.3-4.6-18.7-7.4-32.4-2.3C198.8,86.9,205.4,85.6,211.1,85.6L211.1,85.6z
	 M258.8,121c-2.4,2.5-6.1,6.1-10.2,9.5c-4.2,3.5-9.7,6.9-13.4,9.1c8.9,4.2,19.4,4.8,24.3,5.3c5.7,0.6,11.5,3.3,11.5,3.3
	s0.8,3.3,4.3,4.9s8.8,0.7,8.8,0.7s2.7,2.7,4.9,1.9c2.2-0.7,2.4-3.8,2.4-3.8s2.8,1.5,4.3,0.5c1.5-1.1,1.1-5.2,1.1-5.2
	c1.8,0,3.9-1.2,3.4-3.2c-0.4-1.9-2.7-4.8-5.1-6.1c-2.4-1.3-5.1-0.2-7.2,0s-3.9-1.5-4.3-2.5s-1.8-3-3.6-3.3
	c-1.8-0.3-5.8-1.3-11.4-3.9C265.4,126.7,261.4,123.4,258.8,121L258.8,121z"/>
</svg>
