<?xml version="1.0" encoding="utf-8"?>
<!-- Generator: Adobe Illustrator 21.1.0, SVG Export Plug-In . SVG Version: 6.00 Build 0)  -->
<!DOCTYPE svg PUBLIC "-//W3C//DTD SVG 1.1//EN" "http://www.w3.org/Graphics/SVG/1.1/DTD/svg11.dtd">
<svg version="1.1" id="Layer_1" xmlns="http://www.w3.org/2000/svg" xmlns:xlink="http://www.w3.org/1999/xlink" x="0px" y="0px"
	 width="300px" height="197.7px" viewBox="0 0 300 197.7" style="enable-background:new 0 0 300 197.7;" xml:space="preserve">
<style type="text/css">
	.st0{fill:#203731;}
	.st1{fill:#FFB612;}
	.st2{fill:#FFFFFF;}
</style>
<g>
	<ellipse class="st0" cx="150" cy="98.8" rx="147.2" ry="96"/>
	<path class="st1" d="M150,197.7c-39.9,0-77.4-10.1-105.6-28.6C15.8,150.4,0,125.5,0,98.8s15.8-51.6,44.4-70.3
		C72.6,10.1,110.1,0,150,0s77.4,10.1,105.6,28.6C284.2,47.3,300,72.2,300,98.8s-15.8,51.6-44.4,70.3
		C227.4,187.5,189.9,197.7,150,197.7z M150,5.7C70.4,5.7,5.7,47.5,5.7,98.8S70.4,192,150,192s144.3-41.8,144.3-93.2
		S229.6,5.7,150,5.7z"/>
	<path class="st2" d="M214.9,117.5h-89.2V94.3H280c0,1.3,0.4,2,0.4,3.4c0.6,51.8-68.2,82.6-127.8,82.6c-76.7,0-135-35.5-134.7-81.3
		c0.3-44.1,64.5-81.4,133.6-81.2c55.9,0,104,25,122.2,55.7h-58.3c-11.9-15.7-34.8-29.9-66.6-29.9c-47.2,0-77.8,25.4-77.8,52.6
		c0,30.2,28.8,52.1,75.2,52.1C180.6,148.4,201.4,135,214.9,117.5z"/>
</g>
</svg>
