<?xml version="1.0" encoding="utf-8"?>
<!-- Generator: Adobe Illustrator 21.1.0, SVG Export Plug-In . SVG Version: 6.00 Build 0)  -->
<!DOCTYPE svg PUBLIC "-//W3C//DTD SVG 1.1//EN" "http://www.w3.org/Graphics/SVG/1.1/DTD/svg11.dtd">
<svg version="1.1"
	 id="Layer_1" xmlns:cc="http://creativecommons.org/ns#" xmlns:dc="http://purl.org/dc/elements/1.1/" xmlns:rdf="http://www.w3.org/1999/02/22-rdf-syntax-ns#"
	 xmlns="http://www.w3.org/2000/svg" xmlns:xlink="http://www.w3.org/1999/xlink" x="0px" y="0px" width="300px" height="273.7px"
	 viewBox="0 0 300 273.7" style="enable-background:new 0 0 300 273.7;" xml:space="preserve">
<style type="text/css">
	.st0{fill:#FFFFFF;}
	.st1{fill:#03202F;}
	.st2{fill:#A71930;}
</style>
<g transform="matrix(1.25 0 0 -1.25 -284.21 581.77)">
	<g transform="translate(.76317 .76317)">
		<path class="st0" d="M403.7,427.3c51.4-39.1,12.3-44.9-27.8-50.6c0,0-16.9,4.7-46.3,19.2c-66.5,33-45.6,48.6,6.7,58
			c-83.7,36.4-153.4-27-76.5-88.7l-21.1-15.1c17.3-10.6,53.3-32.9,48-67.1l-17.8-12.7l54.5-24.7l43,19.5
			c0.3,18.9,34.1,28.7,48.7,67.2C495.1,350.7,474.7,421.1,403.7,427.3"/>
		<path class="st1" d="M341.8,310.6l-15.4,17.6l-17.7-2.6l8.2,13.5l-15.4,17.6l20.5-9.2l8.2,13.5l4.5-19.2l20.5-9.2l-17.7-2.6
			L341.8,310.6L341.8,310.6z M367.1,373.1c-100.5,38.8-107.1,70.7-44.4,81.7c-78.4,21.3-124.2-35.5-46.6-89.8l-20.8-14.9
			c22.1-14.8,45.6-36.7,37.6-71.1l-10.5-7.5l40.3-18.3C360.2,294.3,379.8,334.2,367.1,373.1"/>
		<path class="st2" d="M418.1,421.2c34.5-27,10.5-44.3-31.5-48.9c10.6-44.8-22-85.9-56.5-117.7l31.7,14.3
			c2.3,18.2,34.5,27.7,49.7,68.1C482.9,353,471.3,404.3,418.1,421.2"/>
	</g>
</g>
</svg>
