<?xml version="1.0" encoding="utf-8"?>
<!-- Generator: Adobe Illustrator 21.1.0, SVG Export Plug-In . SVG Version: 6.00 Build 0)  -->
<!DOCTYPE svg PUBLIC "-//W3C//DTD SVG 1.1//EN" "http://www.w3.org/Graphics/SVG/1.1/DTD/svg11.dtd">
<svg version="1.1"
	 id="Layer_1" xmlns:cc="http://creativecommons.org/ns#" xmlns:dc="http://purl.org/dc/elements/1.1/" xmlns:rdf="http://www.w3.org/1999/02/22-rdf-syntax-ns#"
	 xmlns="http://www.w3.org/2000/svg" xmlns:xlink="http://www.w3.org/1999/xlink" x="0px" y="0px" width="303.6px" height="319.9px"
	 viewBox="0 0 303.6 319.9" style="enable-background:new 0 0 303.6 319.9;" xml:space="preserve">
<style type="text/css">
	.st0{fill:#FFFFFF;}
	.st1{fill:#002C5F;}
</style>
<g transform="matrix(1.25 0 0 -1.25 -284.55 598.03)">
	<g transform="translate(1.1786 1.1786)">
		<path class="st0" d="M347.4,221.3c-28.1,0-47,9-52.1,11.8c-18.3,9.6-32.5,21.9-44.8,38.7c-17.2,23.4-21.4,42.6-23,55
			c-0.8,5.5-1.8,19.1,0,31.1c1.7,14.3,4.7,22.5,7.3,29.8c0.5,1.5,1.1,3,1.6,4.5c2.3,6.4,9.5,20.9,13.5,27.2
			c2.9,4.4,7.9,11.6,11,15.9c-0.8,0-1.9,0.2-2.6,0.4c-4.2,0.9-9.6,5.4-9,12.9c0,2.2,1.6,14.7,2.8,18.6c1.8,6.1,5.7,9.3,12.3,9.8
			l0.1,0c0.4,0,0.9,0,1.6,0c4.8,0,14.8,0.1,19.8-0.6c9.4-0.9,20-3.5,25.9-15.4c4.1-9.1,3-23.3-2.8-34.5c-1.5-2.9-5.5-10.2-8.9-14.8
			c-2.7-3.9-3.9-6.1-6.2-10.3l-0.5-0.9c-2.7-5.4-11.2-24-14.2-36.1c-5.9-23.9-1.8-36.7,8.2-53.4c7.3-10.8,16.4-19.9,24.2-24.2
			l0.1-0.1c11.8-7.5,28.3-9.5,36.1-9.5c9.8,0,25.1,2.5,36.1,9.5l0.1,0.1c6.2,3.4,15.8,11.5,24.2,24.2c10,16.6,14,29.5,8.2,53.3
			c-2.9,12.1-11.4,30.7-14.2,36.2l-0.4,0.8c-2.3,4.3-3.5,6.4-6.2,10.4c-3.4,4.6-7.4,11.9-8.9,14.8c-5.8,11.2-7,25.3-2.8,34.5
			c5.9,11.9,16.4,14.5,26,15.4c5,0.8,14.7,0.7,19.4,0.6c0.8,0,1.5,0,2,0l0.1,0c6.7-0.6,10.5-3.6,12.3-9.9c1.2-3.8,2.9-16.1,2.8-18.6
			c0.6-7.5-4.9-12-9-12.9c-0.7-0.2-1.8-0.4-2.6-0.4c3.1-4.3,8.1-11.5,11-15.8c4.1-6.4,11.3-21,13.5-27.3c0.5-1.5,1-3,1.6-4.5
			c2.6-7.3,5.5-15.6,7.3-29.9c1.8-11.5,1-25,0-31.2c-1.6-12.4-5.8-31.6-23-55c-12.3-16.8-26.5-29.1-44.8-38.7
			c-10.3-5.6-29.5-11.6-52.4-11.8h0C347.8,221.3,347.6,221.3,347.4,221.3z M263.9,439c0.4,0,0.9-0.1,1.3-0.6
			c0.5-0.7,0.5-1.5-0.1-2.5l-0.1-0.1c-2.6-3.4-9.1-12.7-12.5-17.9c-4.2-6.7-11-20.9-13.1-26.6c-0.5-1.5-1-3-1.6-4.5
			c-2.5-7.1-5.4-15.2-7.1-29.2c-1.8-11.8-0.8-24.9,0-30.3c1.6-12.1,5.7-30.8,22.4-53.6c12-16.4,25.9-28.3,43.8-37.7
			c5-2.7,23.3-11.4,50.6-11.4c0.2,0,0.4,0,0.5,0c22.3,0.2,41,6,50.9,11.4c17.9,9.4,31.8,21.4,43.8,37.7
			c16.7,22.8,20.8,41.5,22.4,53.6c1,6,1.8,19,0,30.2c-1.7,14-4.6,22.1-7.1,29.3c-0.6,1.6-1.1,3.1-1.6,4.6c-2,5.6-8.8,19.8-13.1,26.5
			c-3.5,5.1-9.9,14.5-12.5,17.9c-0.7,1-0.8,1.8-0.3,2.5c0.5,0.7,1.2,0.9,2.2,0.6l0.3-0.1c1-0.2,1.2-0.2,1.7-0.2l0.2,0
			c0.4,0,1.3,0.2,1.8,0.3l0.2,0.1c2.4,0.5,7.1,3.4,6.5,9.6l0,0.2l0,0.2c0.1,1.4-1.5,13.6-2.6,17.5c-1.4,4.9-4.1,7.1-9.4,7.6
			c-0.5,0-1.1,0-1.9,0c-4.6,0-14.3,0.1-19-0.6l-0.1,0c-12.4-1.2-19.2-5.1-23.4-13.6c-3.7-8.1-2.5-21.5,2.8-31.6
			c1.5-2.8,5.3-9.9,8.7-14.4c2.9-4.1,4.2-6.5,6.5-10.7l0.5-0.9c2.8-5.5,11.4-24.5,14.4-36.9c6.1-24.8,1.7-38.7-8.6-55.8
			c-7.5-11.2-16.9-20.6-25.4-25.3c-11.6-7.3-27.6-9.9-37.8-9.9c-10.2,0-26.2,2.6-37.8,9.9c-8.3,4.6-17.7,14-25.3,25.2l0,0.1
			c-10.3,17.1-14.7,31-8.6,55.8c3,12.4,11.6,31.3,14.4,36.8l0.5,0.9c2.3,4.2,3.6,6.6,6.4,10.7c3.4,4.5,7.2,11.6,8.7,14.4
			c5.3,10.3,6.4,23.6,2.8,31.7c-4.2,8.4-11,12.4-23.4,13.6c-4.9,0.7-15.1,0.6-19.4,0.6c-0.6,0-1.2,0-1.5,0c-5.3-0.5-8-2.7-9.4-7.5
			c-1.1-3.7-2.7-16.3-2.6-17.7l0-0.1l0-0.1c-0.6-6.1,4.2-9.1,6.5-9.6l0.2-0.1c0.5-0.2,1.4-0.3,1.8-0.3l0.2,0c0.4-0.1,0.7,0,1.6,0.2
			l0.1,0C263.1,438.9,263.5,439,263.9,439z"/>
		<path class="st0" d="M348,222.9c-24.3-0.1-43,6.8-51.9,11.6c-17.5,9.2-31.9,21.3-44.3,38.2c-17.8,24.2-21.3,43.7-22.7,54.3
			c-0.8,5.5-1.8,18.8,0,30.7c2.1,17.2,6,25.7,8.8,34.1c2.2,6,9.2,20.3,13.3,26.9c3.5,5.2,10,14.6,12.6,18c0.7,1.1-0.2,0.6-0.6,0.5
			c-1-0.2-1.5-0.3-2.2-0.2c-0.6,0-1.7,0.2-2.3,0.4c-3.5,0.7-8.4,4.6-7.8,11.3c-0.1,1.5,1.5,14.3,2.7,18.2c1.6,5.6,5,8.2,10.9,8.7
			c3,0,15.5,0.2,21.2-0.6c11.4-1.1,19.7-4.5,24.7-14.5c4-8.8,2.6-22.6-2.8-33.1c-1.9-3.6-5.6-10.3-8.8-14.6c-3-4.3-4.2-6.6-6.8-11.4
			c-2.6-5.1-11.3-24.1-14.3-36.5c-5.7-23.2-2.5-36.5,8.4-54.6c8.1-12,17.5-20.7,24.8-24.7c12-7.6,28.5-9.7,37-9.7
			c8.6,0,25,2.1,37,9.7c7.3,4,16.8,12.7,24.8,24.7c10.9,18.1,14.1,31.4,8.4,54.6c-3,12.4-11.7,31.4-14.3,36.5
			c-2.6,4.8-3.8,7.1-6.8,11.4c-3.2,4.3-6.9,11-8.8,14.6c-5.5,10.5-6.8,24.3-2.8,33.1c5,10.1,13.3,13.4,24.7,14.5
			c5.7,0.9,18.2,0.6,21.2,0.6c6-0.5,9.3-3.1,10.9-8.7c1.2-4,2.9-16.8,2.7-18.2c0.6-6.7-4.3-10.6-7.8-11.3c-0.6-0.2-1.7-0.4-2.3-0.4
			c-0.7-0.1-1.2,0-2.2,0.2c-0.4,0-1.3,0.5-0.6-0.5c2.6-3.4,9.1-12.8,12.6-18c4.2-6.6,11.2-20.9,13.3-26.9c2.8-8.4,6.7-16.9,8.8-34.1
			c1.9-11.9,0.9-25.2,0-30.7c-1.4-10.6-4.9-30.1-22.7-54.3c-12.4-16.9-26.8-29-44.3-38.2C391,229.8,372.3,223.1,348,222.9"/>
		<path class="st1" d="M347.8,245.8c2.2,0,4,1.8,4,4c0,2.2-1.8,4-4,4s-4-1.8-4-4S345.6,245.8,347.8,245.8z M270.1,282.7
			c2.2,0,4,1.8,4,4s-1.8,4-4,4s-4-1.8-4-4S267.9,282.7,270.1,282.7L270.1,282.7z M252.7,350.2c2.2,0,4,1.8,4,4s-1.8,4-4,4
			c-2.2,0-4-1.8-4-4C248.7,352,250.5,350.2,252.7,350.2z M287,429.7c2.2,0,4,1.8,4,4s-1.8,4-4,4s-4-1.8-4-4
			C282.8,431.5,284.8,429.7,287,429.7z M429.9,286.8c0,2.2-1.8,4-4,4s-4-1.8-4-4s1.8-4,4-4C428.1,282.7,429.9,284.5,429.9,286.8z
			 M447.2,354.3c0,2.2-1.8,4-4,4s-4-1.8-4-4s1.8-4,4-4C445.4,350.2,447.2,352,447.2,354.3z M413,433.7c0,2.2-1.8,4-4,4s-4-1.8-4-4
			s1.8-4,4-4S413,431.5,413,433.7z M293.5,242.7c-15.9,9.4-30.3,21.3-44.2,44.3c-6.2,11.3-20.6,35.4-13.5,77.3
			c8.2,38.3,24.7,57.7,34.1,71c4.5,6.5-0.1,10.2-3.7,8.8c-3-1.1-5.1-1.2-5.1-1.2c-5.3,0.7-4.6,4.2-3.6,13.3l1.2,7.4
			c1.1,6.6,4.1,6.5,11.9,6.3c12.4-0.2,14.6-0.3,21.3-1.6c8.9-2,20.6-10.9,11.4-35.5c-5.7-13.2-11.7-17.6-18.1-31.3
			c-6.9-15.1-23.8-49.1-12.4-78.2c15.6-39,45.9-52.9,74.7-53.4c28.8,0.4,62,17.4,75.4,53.4c11.4,29-5.5,63-12.4,78.2
			c-6.5,13.7-12.4,18.1-18.1,31.3c-9.2,24.6,2.5,33.5,11.4,35.5c6.7,1.2,8.9,1.3,21.3,1.6c7.8,0.2,10.8,0.3,11.9-6.3l1.2-7.4
			c1-9.1,1.7-12.5-3.6-13.3c0,0-2.1,0.1-5.1,1.2c-3.6,1.4-8.2-2.4-3.7-8.8c9.4-13.3,25.9-32.6,34.1-71c7.1-41.9-7.3-66-13.5-77.3
			c-13.9-22.9-28.3-34.8-44.2-44.3c-21.7-15.1-62.4-14.3-54.6-13.8C356,228.3,317.9,227.3,293.5,242.7"/>
	</g>
</g>
</svg>
