<?xml version="1.0" encoding="utf-8"?>
<!-- Generator: Adobe Illustrator 21.1.0, SVG Export Plug-In . SVG Version: 6.00 Build 0)  -->
<!DOCTYPE svg PUBLIC "-//W3C//DTD SVG 1.1//EN" "http://www.w3.org/Graphics/SVG/1.1/DTD/svg11.dtd">
<svg version="1.1"
	 id="Layer_1" xmlns:cc="http://creativecommons.org/ns#" xmlns:dc="http://purl.org/dc/elements/1.1/" xmlns:rdf="http://www.w3.org/1999/02/22-rdf-syntax-ns#"
	 xmlns="http://www.w3.org/2000/svg" xmlns:xlink="http://www.w3.org/1999/xlink" x="0px" y="0px" width="300px" height="224.7px"
	 viewBox="0 0 300 224.7" style="enable-background:new 0 0 300 224.7;" xml:space="preserve">
<style type="text/css">
	.st0{fill:#FFFFFF;}
	.st1{fill:#D7A22A;}
	.st2{fill:#9F792C;stroke:#9F792C;}
	.st3{fill:#006778;}
</style>
<g transform="matrix(1.25 0 0 -1.25 -286.51 565.5)">
	<g transform="matrix(.25 0 0 .25 229.2 296.38)">
		<path d="M311.8,266.9c2.3-1.8,11-7.1,12.8-8.9c0,0,5.9,3.8,10.5,4.8c0,0-10-7.1-12.2-11c0,0,4.3,2.3,7.4,2.3c0,0,7.9-4.8,13-4.8
			c5.1,0,14.8,1.5,14.8,1.5s5.6,3.8,11.8,4.3c0,0-6.4-4.3-7.9-6.4c0,0,2.6,0.3,4.1-0.8c1.5-1,6.6-2,11.2-0.2
			c4.6,1.8,9.2,3.6,8.9,9.2c-0.3,5.6-3.6,12.2-3.6,12.2s6,5,9.3,6.6c-0.8-0.1-7.3-1.1-11.4-2.8c0,0-5.1,10.2-10.5,13.5
			c-5.4,3.3-10.7,3.8-16.6,1.3c-5.9-2.6-14.6-5-14.6-5s-8-3.9-9.1-5.4c0.2,0.4,1.6,3.4,3.8,5.1c0,0-7.4,0-12.8-0.3
			c-5.4-0.2-11.2-0.8-12-5.9C308,271.3,309.5,268.7,311.8,266.9L311.8,266.9z M388.1,204.4c-5.6,5.8-11.1,7.7-14.3,4.5
			c0,0-1.7,6.2-5.4,7.9c-3.8,1.7-6.4,1.4-6.4,1.4s-14.8-3-20.9-6.7c1.2,0.8,11,7.1,14.5,9.3l-8.2-1.9c0,0-8.7,0-16.7,0.6
			c-8,0.6-26.5,2.5-30,1.9c0,0,2.3,1.6,3.7,2.4c-0.4,0-6.4-0.1-10.5-3.3c0,0-12.3-1.3-14.7-9.6c-2.4-8.3,3.7-14.2,5.5-15.6
			c0,0,2.5,3.9,7.5,6.3c0,0-2.8-4.6-2.7-8.4c0,0,10.5-5.6,31.5-8.5c21-2.9,19.5-1.4,26.9-5.9c0,0,7.8,5.5,12.1,6.8
			c0,0-6.1-8.6-6.6-11.8c0,0,9.7-8.3,17.8-8.9c8.1-0.6,15,2.5,14.1,10.8l2.9,3.6l-5.1-0.4l1.5,2.8c0,0-0.2,4.2-2.6,7.5
			c0.4-0.2,4.4-2.4,8.2-1.4l-1.1-2.1c0,0,4.4,0.5,7.6,6.1l-2.7,0.7C393.9,192.5,393.7,198.6,388.1,204.4L388.1,204.4z M725.2,22
			c-5.8-10.9-12.9-21.1-21.1-30.2c-14.1-15.6-31.4-28-50.4-36.9c-19.7-9.3-42.2-16-64.2-16.9c3.9,4.2,7.8,8.3,11.7,12.5
			c-21.6-3.8-44-4.4-65.6-0.1c2.6,1.9,6.2,4.9,6.6,8.4c-1.5,0.1-3.1,0.9-4.5,1.3c-3.7,1.3-7.3,2.9-10.8,4.6
			C514-29,502-20.6,491.1-11.2C472,5.3,455.9,25.2,442.4,46.5c-8.2,12.9-14.8,26.7-23.8,39c-7.8,10.5-16.8,20.1-26.7,28.5
			c-15.5,13.3-33.3,23.9-51.9,32.1c-30.1,13.2-60,27.5-88.3,44.3c-8,4.7-15.8,9.7-23.4,15c-16.2,11.3-32,23.9-45.5,38.4
			c-0.2,0.2-0.5,0.5-0.9,1c0.4,0.3,3.2,2.8,4.7,4c2.5,2,5.2,3.9,7.9,5.7c2.5,1.7,8.4,4.8,8.4,4.8c0,0,0.1,0,0.1,0.1v-0.1
			c-0.1-0.8-0.1-1.7,0-2.7c0,0,2.9,3.2,5.6,4.7c0,0-4.4-6.9-4.9-12.1c0,0-1-8.6,7.1-13c8.1-4.4,20.2-7.9,23.6-10.6
			c0,0,6.2,4.4,9.6,5.9c0,0-8.1-7.9-10.3-15.2c0,0,4.9,4.7,7.6,5.6c0,0,7.6-5.6,12.3-5.1c4.7,0.5,11.3,0.2,14,6.4
			c2.7,6.1,2.2,7.1,3.5,9.1c0,0-4.4-2.7-7.6-5.6c0,0,1.5,6.1,7.6,10.8c6.1,4.7,9.1,5.4,9.1,5.4s14.5,19.2-2.4,28.5
			c0,0,8.3,4.2,13,7.1c0,0-13.6-3.4-18-4.9c0,0-10.1,2-15.5,2c-5.4,0-14.8,0.7-18.9,2c-4.2,1.2-8.4,2.7-8.4,2.7s2.4,1.5,4.4,2
			c0,0-9.5,0.7-15.2-8.2c0,0-0.1,0-0.1,0c0,0.7,0.3,4.2,3,7.5c0,0-5-2.3-7.8-5.5c0,0-0.1,0-0.1,0c-1.9,0.7-3.8,1.3-5.6,1.9
			c-3,0.9-6.1,1.7-9.1,2.4c-2,0.5-4.1,1-6.2,1.4c16,10.6,33.7,18.5,51.8,24.6c6.1,2.1,19,5.7,19,5.7c2.6-2.4,5.2-4.3,5.2-4.3
			s8.7,2.1,12.8,3.7c0,0-8.7-6.1-15.4-9c0,0,10.3,0.3,13.8,1l-1.6-3.6c0,0,4.5-3.5,15.1-1.9c10.6,1.6,17.4,3.9,17.4,9.3
			c0,5.5-1.3,8,0.3,13.5c0,0-3.9-0.6-6.8,0c0,0,6.1,3.5,8.4,7.4c0,0-0.6,3.5-2.2,6.9l0,0c8.5,0.9,17,1.7,25.5,2.2
			c-1.1,1.3-2.2,2.4-3.4,3.5c-8.5,7.9-20.5,12.9-31.2,16.4c21.4,2.8,42.9,3.7,64.4,4.4c12.3,0.5,24.6,0.7,36.9,0.9
			c-2.6,2.2-6.2,3.4-9.2,4.6c7.2,0.8,14.8,0.1,22-0.4c-6.2,3.1-13.1,4.8-19.7,6.8c-4.6,1.4-9.3,2.7-14,3.9c0.1,0,0.3,0,0.6,0
			c0.2,0,0.4-0.1,0.5-0.1c0,0,0.1,0,0.1,0c16.9-2.2,34.9-5.1,54.6-8.6C564,346.1,647.2,312.1,683.5,295c9.6-4.3,16.1-7.6,19.4-9.4
			c3-0.9,7.2-1.4,9.3,1.7c0.4,0.6,0.7,1.1,0.9,1.7l0,0.1c0.4-0.1,0.7-0.1,0.9-0.1c7.9,0.5,15.6,1.3,23.3,3.4c2.2,0.6,4.3,1.3,6.4,2
			c4.3,1.5,8.5,3.2,12.7,5.2c-0.2,0-7,8.8-7.8,9.7c-6.1,6.9-13,13.1-20.6,18.5c1,0.3,2.1,0.6,3.2,0.9c1.1,0.3,2.2,0.4,3.3,0.4
			c-6.1,6-13.6,10.8-20.7,15.3c-2.6,1.7-5.4,3.3-8,4.9c-0.8,0.5-1.5,0.9-2.3,1.4c-0.5,0.3-1.1,0.7-1.7,1c-3.1,1.8-6.2,3.5-9.3,5.2
			c19.3-6.6,38.4-14.1,57.1-22.1c1.4-0.6,2.8-1.2,4.3-1.8c15.7-6.8,31.5-14.1,45.6-23.7c3.1-2.1,6.1-4.4,8.8-7
			c0.1-0.1,0.2-0.2,0.3-0.3c5.5-4.2,9.4-10.5,11.8-16.9c1.2-3.1,2.1-6.4,2.5-9.7c0.2-1.1,0.6-12.2-0.2-12.1c-1,0.1-2,0.1-3,0.1
			c-8,0.1-16.1-0.7-24-2.3c-14.1-2.8-27.2-8.1-40.6-13.1c-9.7-3.6-18.9-8.4-28.8-11.7c-14-4.7-28.7-6.9-43.4-5.8
			c-15.2,1.1-30.1,5.5-42.9,13.8c-9.7,6.3-18.1,14.5-25.2,23.6c-5.1,6.5-9.5,13.5-13.3,20.8c19.4-7,34.6-13.3,45.6-18.1
			c9.7-4.1,16.3-7.3,19.7-8.9c3-0.8,7.2-1.2,9.3,1.9c4.3,6.4-3.5,11.6-3.5,11.6s-95.8,46.8-271.5,66.1c-20.6,2.3-39.8,3.9-57.4,5
			c17.3-1.9,36.1-4.3,56.3-7.4c30.9-4.8,59.2-10.4,84.9-16.2c-2.8-0.4-5.6-0.9-8.3-1.6c-5.3-1.4-10.4-3.6-15.1-6.4
			c-8.8-5.3-15.8-13-21.2-21.7c-10.9-17.5-16-39.1-16.7-59.5c-0.9-25.4,5.5-50.6,13.8-74.4c9.8-28.2,22.4-55.4,38.2-80.8
			c7.8-12.6,16.3-24.9,25.9-36.2c10.2-11.9,21.9-23.5,35.9-30.8c15-7.7,31.6-7.6,47.8-5.2c11.4,1.7,22.5,6.3,33.4,10
			c25.5,8.7,52.3,18.1,79.7,15.2c9.1-1,18.7-2.8,26.8-7.1C726.1,23.4,725.9,23.3,725.2,22L725.2,22z M925,368c0,0-15.6,34.2-60,63.4
			c11.1,14.3,15.4,31.4,10.3,45c-5.3,14.1-42.7,39.8-56.8,47.1c-14.1,7.3-33.5,18-33.5,18s-50,30.3-89.2,47.4
			c-47.3,20.6-132.6,48.1-225.2,28.5c0,0-55.6,18.2-156.2-12.8c-35.2-9.7-94.9-25.5-128.4-31.1c-49.6-8.3-100-9.1-139-13.3
			c-20.6-2.2-34.2,2.4-40.9-9.2c-29.4-50.9,58.2-137,89.9-150.6c-9.4-52.9,2.5-115.5,58.1-178.1c60.4-68.1,144-81,192.9-117.2
			c55-40.6,66.4-91.9,112.3-139.9c42.3-44.1,124.9-81.8,198.8-45.7c80.3,39.1,94.8,104.4,97.7,116.7c1,6.3-2.7,12.6-10.7,16.5
			c-1.4,0.6-4,2-7.6,3.8c3.2,12.8,11.3,51.2,3.3,84.8c0,0-22.7-33.2-39.8-51.6c-4.8,4.5-26.8,26.8-23.2,53.2
			c10.1,4,21.8,9.5,30.7,16.2c5.1,3.9,9.7,7.7,13.8,11.5c45.2,12.9,55.3,31.6,55.3,31.6c1.7-4.6,7.4-10.4,7.4-10.4
			c6.7,3.8,15.5,10.4,15.5,10.4c0.9-5.4,0.7-15,0.7-15c3.4,1.3,6.6,1.5,6.6,1.5c-3.4-16.7-22.9-45-22.9-45
			c68.5,19.6,97.3,70.2,97.3,70.2l0,0.3c2.6,0.5,4.4,1.2,4.4,1.2s46,13.1,67.1,58.2C974.9,318.6,936.7,362.3,925,368L925,368z
			 M333.5,282.5c0,0-7.4,0-12.8-0.3c-5.4-0.2-11.2-0.8-12-5.9c-0.7-5.1,0.8-7.7,3.1-9.5c2.3-1.8,11-7.1,12.8-8.9
			c0,0,5.9,3.8,10.5,4.8c0,0-10-7.1-12.2-11c0,0,4.3,2.3,7.4,2.3c0,0,7.9-4.8,13-4.8c5.1,0,14.8,1.5,14.8,1.5s5.6,3.8,11.8,4.3
			c0,0-6.4-4.3-7.9-6.4c0,0,2.6,0.3,4.1-0.8c1.5-1,6.6-2,11.2-0.2c4.6,1.8,9.2,3.6,8.9,9.2c-0.3,5.6-3.6,12.2-3.6,12.2s6,5,9.3,6.6
			c-0.8-0.1-7.3-1.1-11.4-2.8c0,0-5.1,10.2-10.5,13.5c-5.4,3.3-10.7,3.8-16.6,1.3c-5.9-2.6-14.6-5-14.6-5s-8-3.9-9.1-5.4
			C329.9,277.8,331.4,280.8,333.5,282.5L333.5,282.5z M388.1,204.4c-5.6,5.8-11.1,7.7-14.3,4.5c0,0-1.7,6.2-5.4,7.9
			c-3.8,1.7-6.4,1.4-6.4,1.4s-14.8-3-20.9-6.7c1.2,0.8,11,7.1,14.5,9.3l-8.2-1.9c0,0-8.7,0-16.7,0.6c-8,0.6-26.5,2.5-30,1.9
			c0,0,2.3,1.6,3.7,2.4c-0.4,0-6.4-0.1-10.5-3.3c0,0-12.3-1.3-14.7-9.6c-2.4-8.3,3.7-14.2,5.5-15.6c0,0,2.5,3.9,7.5,6.3
			c0,0-2.8-4.6-2.7-8.4c0,0,10.5-5.6,31.5-8.5c21-2.9,19.5-1.4,26.9-5.9c0,0,7.8,5.5,12.1,6.8c0,0-6.1-8.6-6.6-11.8
			c0,0,9.7-8.3,17.8-8.9c8.1-0.6,15,2.5,14.1,10.8l2.9,3.6l-5.1-0.4l1.5,2.8c0,0-0.2,4.2-2.6,7.5c0.4-0.2,4.4-2.4,8.2-1.4l-1.1-2.1
			c0,0,4.4,0.5,7.6,6.1l-2.7,0.7C394,192.5,393.7,198.6,388.1,204.4L388.1,204.4z M883.9,385.7c0,0-13.6-16.7-20.3-11.6
			c-6.7,5.1,3.5,12,1.4,25.4c-2.1,13.4-46,58.4-101.4,91.7c0,0,25.6-10.6,50.4-23.7c0.2-0.1,0.4-0.2,0.6-0.3
			c5.5-2.8,11.2-6.1,16.6-9.4c7.4-4.5,14.1-9.1,19.1-13.5c0,0,10.1,12.3,4,26.6c-0.3,0.8-0.7,1.6-1.2,2.4c-0.1,0.1-0.1,0.2-0.2,0.3
			c-0.9,1.6-2.1,3.3-3.3,5c-1.1,0.7-2.7,1.7-4.5,2.4c-3.5,1.3-6.8,1.9-9.1,3c0,0-5.3,5.4-7.1,8c0,0-0.6-2.4,0.9-5.2
			c0,0-4.1,3.6-7.9,4.4c-3.8,0.8-8.3,2.3-9.5,3.2c-1.1,0.9-3.5,2.9-3.5,2.9s0.1-1.8,0.7-3.2c0,0-3.9,0.3-4.5,4.3
			c-0.7,4,2.5,5.7,2.5,5.7s-0.3,1.1,0,2.6c0,0,3.5-3.8,5.1-4.8c0,0,0.7,2.4-0.7,6.7c-0.4,0.2-0.9,0.5-1.3,0.7
			c-1.3,0.7-2.5,1.3-3.7,1.9c-1,0.5-58,32.8-85.1,46.4c-2,0.2-4.7,0.6-7.6,1.6c0,0-4.5,2.1-5.3,4.3c0,0-0.3-1.1,0.3-2.3
			c1.1-2.1,3.6-4.3,4.3-7.2c0,0-4.5,2.7-8.2,4.6c-3.2,1.7-10.1,3.6-13.9,6.5c-0.8,0.6-1.4,1.2-1.8,1.8c-0.2,0.2-0.3,0.3-0.4,0.5
			c-0.4,0.6-0.6,1.2-0.8,1.7c-0.1,0.2-0.1,0.5-0.2,0.7c0,0.1-0.1,0.2-0.1,0.3c-0.1,0.3-0.1,0.5-0.1,0.7c0,0.3,0,0.5,0,0.5
			c0.1-0.1,0.1-0.1,0.2-0.2c0-0.1,0.1-0.1,0.2-0.2c0.1-0.1,0.2-0.1,0.3-0.2c1.6-1.4,3.4-2.9,5.4-3.5c0.1-0.1,0.3-0.1,0.5-0.1
			c-0.1,0.1-0.1,0.2-0.2,0.2c-0.1,0.1-0.1,0.2-0.2,0.2c-0.2,0.2-0.3,0.4-0.5,0.6c-1,1.1-2.5,3-3.7,5.3
			c-22.1,10.9-48.5,22.6-84.2,29.6c-51.4,10.1-85.9,1.6-85.9,1.6s10.1-0.6,31.3-8c1.3,0.4,3.1,1.1,4.7,2.3c3,2.2,5,2.6,6.3,2.6
			c1.3,0,6.9-6.7,6.9-6.7s-0.6,5.2-1.7,9.6c0,0,5.5,0.5,7.6,0c3.1-0.7,5.6-1.8,6.7-1.8c1.1,0,1.5,1.3,1.5,1.3s1.9-1.3,1.9-2.8
			c0,0,4.4-3,4.4-5.9c0-2.8-0.7-6.5,0-8.3c0,0-1.1-0.6-2.8,2.2c0,0-2.8-2.4-5.6-2.4c-1.3,0-2.5-0.3-3.5-0.7
			c9.7-4.4,20.8-9.7,33.2-16.3c0,0,1.4-1,2.4-1.8c0,0,1,4.1,1.7,4.8c0,0,1.3-1.1,1.5-1.8c0,0,0.2,1.8-0.1,3.9c0,0,3.5,2.8,6.2,3.1
			c2.7,0.3,3.8,0.3,4.6,0.8c0,0,0.6,2.2-0.3,4.5c0,0,4.5-2.6,5.4-6c0,0,0.4,2.1,0.3,4.1c0,0,4.7,0.8,8.2-0.1
			c3.5-0.9,5.8-2.1,6.6-3.4c0.8-1.3,2.9-5.6,1.7-6.5c-1.2-0.9-3.4-1.3-4.1-2.3c-0.6-1-0.9-1.9-1.8-2.6c-0.9-0.6-2.1-0.8-2.1-0.8
			s-0.2-3.6,0.7-5.4c0,0-1.8,0.2-2.7,2.4c0,0,0.4-2-0.9-3.5c-1.3-1.4-2.2-2.3-3.4-2.7c0,0-3.2,3-3.4,4.2c0,0,0.3-7.1-0.9-5.8
			c0,0-6.7,5.9-8,6.6c0,0-2.9-0.4-4-0.3c-1.2,0.1-5.1,1.7-5.9,3c0,0-0.1-1.5,2.1-3.1c0,0-2,0.3-2.7,0.7c0,0-1.1-1.3-3.2-1.8
			c0,0,2.1-2.3,3-3.2c0,0-4,0.7-5.9,2.7c0,0-2.3-0.1-4.9,0.7c-2.6,0.8-4.1,0.5-6.4,0.1c-2.3-0.4-2.7-0.1-4.4,0.3
			c-1.7,0.4-6.3,3-6.3,3s0.8-2.1,1.5-2.7c0,0-0.4-1.7-4.1-0.6c-3.7,1-3.9,2.2-5.8,3.4c-1.9,1.1-3.2,2.8-2.8,4.2
			c0.4,1.4,1.5,2.4,1.5,2.4s1.1-1,3.2-1.9c0,0-3.5,4.4-3.9,5.9c0,0,1.8-0.4,2.7-0.5c0,0,0.6,2.4,6,3.6c1.8,0.4,3.3,0.6,4.6,0.8
			c-14.9,4.7-35.7,10.5-59.7,15.3c-0.4-0.5-0.7-0.9-1-1.4c-0.3-0.6-0.6-1.1-0.9-1.8c-0.9-1.8-1.5-3.6-3-4.8c0,0-11.2,3.5-14.8,5.3
			c0,0,5.6-4.6,9.6-6.7c0,0-3.4-5.6-15.2-4.3c0,0-5.5-2.4-9.7-1.9c-4.3,0.5-10.8,3.3-12.1,5.5c-1.3,2.2-1.2,6.8,3.4,9.5
			c0,0,6.3-3.8,9.3-5.6c0,0-5.5,6.9-5.1,9.1c0,0,2,1.6,4.3,3c-2.7,0.4-5.5,0.7-8.3,1c-25.3,2.8-47.6,3.3-67.9,2.1
			c1.6-2.3,1.3-4.5,2.6-6.8c1.5-2.8-0.7-4.1-0.7-4.1c-1.7,1.4-8.7,4.4-8.7,4.4c2.7-2.5,5-6,5-6c-1.7-1-6.2-1.9-11-2.1
			c-4.8-0.2-11.7-4.2-11.7-4.2c-2.9,0.9-5.3,3.8-7.7,6c-0.5,0.4-0.9,0.7-1.2,1c-0.1,0.1-0.2,0.2-0.3,0.3c-0.1,0.1-0.1,0.1-0.2,0.2
			c-0.1,0-0.2,0.1-0.2,0.2c0.1-0.1,0.2-0.5,0.3-0.8c0,0,0-0.1,0-0.1c0,0,0-0.1,0-0.1c0.2-0.4,0.3-0.8,0.5-1.2
			c0.3-0.8,0.7-1.6,1.1-2.4c1.2-2.3,2.7-4.6,4.2-6.7c0,0,0.1-0.1,0.1-0.1c0.6-1,1.2-1.9,1.7-2.6c0.2-0.3,0.4-0.6,0.6-0.9
			c0.1-0.1,0.1-0.1,0.1-0.2c0.1-0.1,0.1-0.2,0.2-0.3c0.1-0.2,0.2-0.2,0.2-0.3c0-0.1,0.1-0.1,0.1-0.2c0.1-0.1,0.1-0.2,0.1-0.2
			c-0.6,0.8-2.5,1.1-3.5,1.5c-0.1,0-0.1,0-0.2,0.1c-1.6,0.6-3.1,1.5-4.6,2.4c0,0-0.1,0.1-0.1,0.1c-0.7,0.5-2.6,2.2-3.4,1.9
			c0,0-0.2,0-0.5-0.2c-0.1,0-0.2,0-0.3-0.1c-0.2-0.1-0.4-0.1-0.6-0.2c-0.2-0.1-0.5-0.1-0.8-0.2c-0.2-0.1-0.5-0.1-0.8-0.2
			c-0.3-0.1-0.7-0.1-1.1-0.2c-0.7-0.1-1.4-0.2-2.1-0.2h-0.1c-0.9,0-1.8-0.1-2.8,0c-5,0.3-11,4.5-15.2,8.8c-1.5,1.5-2,3.1-2,4.7
			c-4.4-1-8.7-2.1-12.9-3.3c-6.3-1.5-40.5-9.1-75.4-17c0.2-2.4-0.8-5-0.8-6.4c0-2.4,1.9-4.3,1.9-4.3c-4-0.3-11.1,2.3-11.1,2.3
			c2-2.8,7.7-6.1,7.7-6.1s-0.8-3.2-3.5-4.3c-2.6-1.1-4.6-0.7-7.9-0.4c-3.3,0.2-6.2-1.3-10.3-1.5c-4.2-0.2-9.3,2.4-9.3,2.4
			c4.6-0.4,8,2.7,8,2.7c-5.9,0.7-7.7,2.8-8.4,4.2c-0.5,1-1.9,2.3-3.3,3.2c-25.6-5.7-45.5-10.2-45.5-10.2
			c-16.3-2.2-29.4-3.8-29.4-3.8c-4.8-0.3-9.7-0.6-14.5-0.9c-26.5-1.4-53.1-0.8-79.6-2.4c-3.9-0.2-7.8-0.3-11.8-0.3h-0.2
			c2.2-0.5,4.3-1.1,6.4-1.7c2.9-0.8,5.8-1.6,8.7-2.5c9.7-2.9,19.3-6.2,28.8-9.9c4.7-1.8,9.3-3.7,14-5.7c4.9-2.2,9.7-4.4,14.5-6.8
			c1.3,2,7.2,2,7.2,2l-0.7,1.5c0,0,1.7-1,3.7-0.9c0.2,0,0.3,0,0.4,0.1c0.6,0.2,1.1,0.4,1.5,0.6c0.7,0.4,1.2,1,2.5,1.4
			c2.2,0.8,5.2,0.5,5.2,0.5c0.8,1.5,4.5,2.9,4.5,2.9c-0.7,0.7-1.6,1.4-1.6,1.4c1.5,0.2,4.8-0.5,6.2-0.6c1,0.1,1.7,0.2,2,0.3
			c0.1,0,0.1,0.1,0.1,0.1c0.4,0.3,0.7,1,0.3,1.6c-0.7,0.6-2.2,1.1-3.3,1.6c-1.2,0.6-1.4,1.4-1.4,1.6c0,0,0,0.1-0.1,0.1
			c-1.3-0.3-4.2,1-4.2,1s2.4,0.1,3.1,0.6c0.3,0.2,0.9,0.5,1.6,0.7c0.9,0.4,2.1,0.8,3.1,0.9c1.9,0.2,4.3-1.5,4.3-1.5s2.1-0.4,4.1,0.4
			c2.1,0.7,6.4,0.6,6.2,0.6c-1.3-0.2-2.7-1.1-3.9-1.1c1,0,2.4-0.7,3.3-1.3c3.8-2.6-1-5.9-3.5-7.1c-3.8,0.4-6.1-1.1-6.1-1.1
			s4.9,0,4.6-1.4c-0.3-1.4-2.4-2.3-4.8-2.8c-2.3-0.5-4.1-2.8-4.1-2.8c1-0.1,1.9-1.1,1.9-1.1s-2.4-0.3-2.8-0.5
			c-0.4-0.2-1.7-3.1-2.7-4.4c-1-1.3-4.6-2.2-4.6-2.2c1.7-0.9,6.9-1.5,6.9-1.5c-2.9-1-6.3-1.2-7.5-1.3c0.8-0.5,8.9-5.6,9.2-5.8
			c0,0,0,0,0.1,0c0.4-0.3,7-4.4,9.2-5.7c9.5-5.6,19.4-10.7,29.7-14.6c3.1-1,6.3-2.2,9.4-3.2c3.5-1.1,7.1-2,10.7-2.8
			c3.3-0.7,6.6-1.3,9.9-1.8c5.9-0.9,11.9-1.2,17.9-1.1c6,0.1,12,1,17.9,2.1c6.9,1.3,13.7,2.8,20.4,4.7c1.1,0.3,2.2,0.6,3.3,1
			c9.3,2.8,18.2,6.9,26.9,11.4c2.3,1.1,4.5,2.3,6.7,3.5c0.1,0,0.1,0.1,0.2,0.1c0.1,0,0.1,0,0.2,0.1c-0.1-0.2-16.1-13.4-23.9-18.2
			c-1.7-1-3.4-2.1-5.2-3.1c-2.8-1.6-5.8-3.2-8.7-4.7c-2.5-1.3-5-2.5-7.5-3.6c-1.3-0.6-2.7-1.1-4-1.7c-0.1,0-0.1-0.1-0.2-0.1
			c-16.6-6.6-33.6-8.9-51.4-10.1c-15.4-1.1-37.8-1.7-60.7,1.1c-37.7,4.7-57.6,17.4-57.6,17.4c34.4-6,52.6-5,60.9-3.6
			c-12.6,8-23.4,18.1-37.4,26.9c-33.6,21-65.4,34.1-99.7,31c0,0,11.3-2.8,19.2-13.4c-2.5-10.4,11.1-33.6,31.4-51.3
			c3.5-3.1,7.4-6.4,11.6-9.7c-3.7,0.1-15.4,0.3-15.4,0.3c10.8-7,39.5-16.4,39.5-16.4c-6.3-2.1-17.1-3.8-17.1-3.8
			c0.7-0.8,21.4-11.5,59.9-13.1c21.1-0.9,42.2,2.8,61.7,11.1c0.2,0.1,0.3,0.2,0.5,0.2c0.3,0.2,0.5,0.3,0.6,0.3c0.1,0,0.1,0,0.2,0.1
			c-0.1-0.1-0.5-0.6-1.5-1.5c-11.7-10.7-26.7-17.2-41.9-21.4c-8.2-2.2-16.6-3.9-25-4.9c-1.3-0.2-2.6-0.3-3.9-0.4
			c-0.5-0.2-0.9-0.4-1-0.7c-4.2-13-4.3-27-3.6-40.4c0.4-7.2,1.3-14.5,2.6-21.6c0,0,0-0.1,0-0.1c0.9,0.9,2.1,1.9,3.3,3
			c0,0,3.9,3.2,10.6,4.2c0,0-0.1,0.1-0.3,0.3c-0.1,0.1-0.2,0.2-0.3,0.3c-1.4,1.2-3.6,1.8-5.6,2.1c-0.5,0.1-1,0.2-1.5,0.2
			c0.1,0,0.6,0.1,1.3,0.2c4.2,0.9,9.2,1.7,13.3,0.8c0.1,0,0.2,0,0.3-0.1c2.5-0.6,4.7-2.2,6-4.3c0.1-0.2,0.2-0.5,0.3-0.7
			c0.2-0.3,0.3-0.6,0.4-0.9c0-0.1,0.1-0.2,0.1-0.2c0.1-0.3,0.2-0.6,0.3-0.9c0.1-0.3,0.1-0.6,0.2-0.9c0-0.1,0-0.1,0-0.2
			c0-0.3,0.1-0.6,0.1-0.9c0-1.1-0.2-2.2-0.7-3.2c-1.6-3.5-4.5-10.3-4.5-12.9c0-1.2-6-5.4-7.7-7c-0.1-0.1-0.2-0.2-0.3-0.3
			c0.2,0,0.3,0,0.5,0c0.1,0,0.3,0,0.4,0.1c1.8,0.2,3.5,0.5,5.3,0.7c1,0.1,1.9,0.2,2.6,0.2h0.1c0,0,4.2-7.7,7.4-10.3
			c3.2-2.6,6.1-8,7.1-12.2c0,0,0.1,0,0.1,0c0.4,0,0.9,0.1,1.3,0.3c0.1,0,0.1,0.1,0.2,0.1c0.2,0.1,0.3,0.1,0.6,0.2
			c0.6,0.2,1,0.5,1.2,0.6c0.6,0.2,1.2,0.5,1.8,0.8c0.5,0.2,1.1,0.6,1.7,0.9c0.1,0,0.1,0.1,0.2,0.1c0,0-6.1-8.9-13.2-13.2
			c0.5-0.1,6.1-0.9,8.9,0.3c0,0,0.1,0,0.1,0c0,0,0.5-10.7-9.9-22.2c-0.7-0.8,7.7-10.8,12.9-16.7c0.2-0.2,0.4-0.5,0.6-0.7
			c0.2-0.2,0.3-0.4,0.5-0.5c0.4-0.5,0.8-0.9,1.1-1.2c0.3-0.4,0.6-0.7,0.7-0.8c0.4,0.3,3.2,2.8,4.7,4c2.5,2,5.2,3.9,7.9,5.7
			c2.5,1.7,8.4,4.8,8.4,4.8c0,0,0.1,0,0.1,0.1v-0.1c-0.1-0.8-0.1-1.7,0-2.7c0,0,2.9,3.2,5.6,4.7c0,0-4.4-6.9-4.9-12.1
			c0,0-1-8.6,7.1-13c8.1-4.4,20.2-7.9,23.6-10.6c0,0,6.2,4.4,9.6,5.9c0,0-8.1-7.9-10.3-15.2c0,0,4.9,4.7,7.6,5.6
			c0,0,7.6-5.6,12.3-5.1c4.7,0.5,11.3,0.2,14,6.4c2.7,6.1,2.2,7.1,3.5,9.1c0,0-4.4-2.7-7.6-5.6c0,0,1.5,6.1,7.6,10.8
			c6.1,4.7,9.1,5.4,9.1,5.4s14.5,19.2-2.4,28.5c0,0,8.3,4.2,13,7.1c0,0-13.6-3.4-18-4.9c0,0-10.1,2-15.5,2c-5.4,0-14.8,0.7-18.9,2
			c-4.2,1.2-8.4,2.7-8.4,2.7s2.4,1.5,4.4,2c0,0-9.5,0.7-15.2-8.2c0,0-0.1,0-0.1,0c0,0.7,0.3,4.2,3,7.5c0,0-5-2.3-7.8-5.5
			c0,0-0.1,0-0.1,0c-1.9,0.7-3.8,1.3-5.6,1.9c-3,0.9-6.1,1.7-9.1,2.4c-2,0.5-4.1,1-6.2,1.4c16,10.6,33.7,18.5,51.8,24.6
			c6.1,2.1,19,5.7,19,5.7c2.6-2.4,5.2-4.3,5.2-4.3s8.7,2.1,12.8,3.7c0,0-8.7-6.1-15.4-9c0,0,10.3,0.3,13.8,1l-1.6-3.6
			c0,0,4.5-3.5,15.1-1.9c10.6,1.6,17.4,3.9,17.4,9.3c0,5.5-1.3,8,0.3,13.5c0,0-3.9-0.6-6.8,0c0,0,6.1,3.5,8.4,7.4
			c0,0-0.6,3.5-2.2,6.9l0,0c8.5,0.9,17,1.7,25.5,2.2c-1.1,1.3-2.2,2.4-3.4,3.5c-8.5,7.9-20.5,12.9-31.2,16.4
			c21.4,2.8,42.9,3.7,64.4,4.4c12.3,0.5,24.6,0.7,36.9,0.9c-2.6,2.2-6.2,3.4-9.2,4.6c7.2,0.8,14.8,0.1,22-0.4
			c-6.2,3.1-13.1,4.8-19.7,6.8c-4.6,1.4-9.3,2.7-14,3.9c0.1,0,0.3,0,0.6,0c0.2,0,0.4-0.1,0.5-0.1c0,0,0.1,0,0.1,0
			c16.9-2.2,34.9-5.1,54.6-8.6c126.2-22.5,209.4-56.6,245.7-73.6c9.6-4.3,16.1-7.6,19.4-9.4c3-0.9,7.2-1.4,9.3,1.7
			c0.4,0.6,0.7,1.1,0.9,1.7l0,0.1c0.4-0.1,0.7-0.1,0.9-0.1c7.9,0.5,15.6,1.3,23.3,3.4c2.2,0.6,4.3,1.3,6.4,2
			c4.3,1.5,8.5,3.2,12.7,5.2c-0.2,0-7,8.8-7.8,9.7c-6.1,6.9-13,13.1-20.6,18.5c1,0.3,2.1,0.6,3.2,0.9c1.1,0.3,2.2,0.4,3.3,0.4
			c-6.1,6-13.6,10.8-20.7,15.3c-2.6,1.7-5.4,3.3-8,4.9c-0.8,0.5-1.5,0.9-2.3,1.4c-0.5,0.3-1.1,0.7-1.7,1c-3.1,1.8-6.2,3.5-9.3,5.2
			c-0.1,0-0.1,0-0.1,0.1c0.1,0,0.1,0,0.1,0h0.4h0c11.3,0,22.8,0.5,34.2,0.2c1.3,0,12.5-0.5,13.2-0.6c3.3-0.2,6.6-0.5,9.9-0.7
			c7.1-0.6,14.2-1.4,21.3-2.4c1.8-0.2,3.5-0.5,5.3-0.8c9-1.4,17.9-3.1,26.8-5.1c0.1,0,0.2-0.1,0.3-0.1c4.9-1.6,10.3-2.3,15.2-3.6
			c2.8-0.7,5.6-1.5,8.4-2.2c6.2-1.7,12.2-3.5,18.3-5.4c3.9-1.3,7.7-2.5,11.6-3.9c1-0.3,5.8-2.8,6.5-2.3c1.9,1.4,12.7,8.8,21.1,10.5
			c9.3,1.8,17.9,5.3,17.9,15.7C901.8,366.8,893.2,378.1,883.9,385.7L883.9,385.7z M788.2,340.8c-10.8,1-19.3-3.9-19.3-3.9
			s31.7,0,43.2-10c11.6-10,8.5-17.8,8.5-17.8s11.6-18.5,14.7-26.2c0,0,21.6,20.1,23.1,33.9C858.4,316.9,816.5,338.2,788.2,340.8
			L788.2,340.8z M656.7,94.5l1.6-17.9l12.4-8.1C674.4,83,656.7,94.5,656.7,94.5L656.7,94.5z M596.4,222.4
			c-11.8,37.1-55.7,44.3-55.7,44.3s35.9-14.7,36.9-118.5c0.3-34.9,11-49.7,11-49.7c-18.1,9.7-22.9,45.3-24.5,72.9
			c-0.8,14-6.5,82.4-58.8,99.3c-31.8,10.3-47,1.5-47,1.5s24.5-5.9,38.3-31c20.9-37.9,6-104.9,21.6-140.7
			c19.3-44.3,54.5-56.2,54.5-56.2c46.2,24.8,56.1,63.4,56.1,63.4C589.2,128.3,608.2,185.2,596.4,222.4L596.4,222.4z M731.2,111.9
			c0,0-28-44.9-40.6-54.1c0,0-3,7.3-6.7,11c0,0-15.4-10.4-18.4-16.1c0.3,0.6-2.8,4.8-3.1,5.4c-1.7,2.8-3.5,5.6-5.6,8.2
			c-6.1-3.6-13.2-8.9-16.5-15.4c2.6,5.2,4.5,10.5,6,16.1c0.9,3.5,1.4,7,1.8,10.5c1.3,12.2-0.3,24.6-4.3,36.2
			c0,0-14.5-35.6-31.3-53.1c-16.8-17.4-25.9-21.9-27-24.3c-1.1-2.4-1.3-11.3,18.4-8.8c19.7,2.6,33.5,17.2,33.5,17.2s26.9,5,50.6,1.8
			c0,0,6.6-7.1,15.9-6.5C713.2,40.8,732.6,77.4,731.2,111.9L731.2,111.9z M688.5,211.8c3.1-31.6-25-60.2-25-60.2
			c45.5,12.8,69.4,49.4,76.7,62.5c0.8,1.9,1.4,3.5,1.7,4.6C725,214.7,706.2,211.6,688.5,211.8L688.5,211.8z M855.3,240
			c-6.6,1.5-14.7-2.8-19.2-5.7c-0.9,1.8-2.5,3.4-5.5,4.4c-9.2,3.1-20.6-5.7-20.6-5.7c1,6.7-8.2,4.8-8.6,4.7
			c-2.7-0.2-14.1-3.8-20.9-7.6c-10-3.5-23.2-7.7-37.7-11.2c2.7-15.6,1.9-26.5,1.9-26.5c15.5,8,28.3,24.5,36.1,36.4
			c1.7-8,8.4-18.8,8.4-18.8c10.8,6.7,20.5,16.5,20.5,16.5c3.3-6,2.8-18.7,2.8-18.7c7.6,2.5,14.4,7.4,18.8,11.1
			c-4.9-25.8-20.5-50.8-20.5-50.8c18.3,6.9,53.1,44,55.4,54.1C868.3,232.3,864.9,237.8,855.3,240L855.3,240z M921,288.2
			c-0.3-0.1-0.5-0.1-0.7-0.1c-2.7-0.4-8.1,0.4-7.4,4.3c0.4,2.4,3.7,4.4,5.8,5.3c5.9,2.4,11.7,4.7,17,8.2c1.9,1.3,3.7,2.7,5.4,4.3
			c0.5,0.4,2.9,2.4,2.8,3.1c-0.7,6-2.3,11.2-4.2,15.6c-0.6-1.5-1.7-3.5-3.1-5.7c-3.2-5.5-7.3-8.1-8.7-8.9c-2.1-1.2-6.3-2.4-8.2,1.2
			c-1.9,3.6,3.4,6.8,3.4,6.8c7.8,5.6,10.9,11.3,12.2,15c-4.2,6.5-8.2,9.9-8.2,9.9s-11.2-27.9-40.5-42.2
			c-21-10.2-40.3-22.1-52.7-36.2c-1.7-2-3.4-4.1-4.8-6.2l0.2,0c29.7-3.3,44.3-15.9,49.1-22c0.3-0.4,0.6-0.8,0.9-1.1l0.1,0
			c1.8,0.3,31.7,5.7,50.1,26c-0.7,0-1.3,0-2,0c-4.6,0.2-22-0.3-17.6,8.5c1.5,2.9,6.7,2.1,9.3,2c4.5-0.3,8.9-0.7,13.4-0.5
			c6.2,0.3,7.3,5.9,8.9,11.1c1.5,5,2.3,9.6,2.7,14C937.3,291.9,925,289,921,288.2"/>
		<path class="st0" d="M353.4,287.8c5.9,2.6,11.2,2,16.6-1.3c5.4-3.3,10.5-13.5,10.5-13.5c4.1,1.7,10.6,2.7,11.4,2.8
			c-3.3-1.6-9.3-6.6-9.3-6.6s3.3-6.6,3.6-12.2c0.2-5.6-4.3-7.4-8.9-9.2c-4.6-1.8-9.7-0.8-11.2,0.2c-1.5,1-4.1,0.8-4.1,0.8
			c1.5,2.1,7.9,6.4,7.9,6.4c-6.2-0.5-11.8-4.3-11.8-4.3s-9.7-1.5-14.8-1.5c-5.1,0-13,4.8-13,4.8c-3.1,0-7.4-2.3-7.4-2.3
			c2.3,3.9,12.2,11,12.2,11c-4.6-1-10.5-4.8-10.5-4.8c-1.8,1.8-10.5,7.1-12.8,8.9c-2.3,1.8-3.8,4.3-3.1,9.5c0.8,5.1,6.6,5.6,12,5.9
			c5.4,0.2,12.8,0.3,12.8,0.3c-2.2-1.7-3.6-4.7-3.8-5.1c1.1,1.5,9.1,5.4,9.1,5.4S347.6,285.3,353.4,287.8L353.4,287.8z M396.6,191.8
			c-3.2-5.6-7.6-6.1-7.6-6.1l1.1,2.1c-3.8-1-7.8,1.1-8.2,1.4c2.3-3.3,2.6-7.5,2.6-7.5l-1.5-2.8l5.1,0.4l-2.9-3.6
			c0.9-8.3-6-11.4-14.1-10.8c-8,0.6-17.8,8.9-17.8,8.9c0.6,3.2,6.6,11.8,6.6,11.8c-4.3-1.3-12.1-6.8-12.1-6.8
			c-7.4,4.6-5.9,3-26.9,5.9c-21,2.9-31.5,8.5-31.5,8.5c-0.1,3.8,2.7,8.4,2.7,8.4c-5-2.4-7.5-6.3-7.5-6.3c-1.8,1.3-7.9,7.2-5.5,15.6
			c2.4,8.3,14.7,9.6,14.7,9.6c4,3.2,10.1,3.3,10.5,3.3c-1.4-0.8-3.7-2.4-3.7-2.4c3.4,0.7,22-1.3,30-1.9c8-0.6,16.7-0.6,16.7-0.6
			l8.2,1.9c-3.5-2.2-13.3-8.6-14.5-9.3c6.1,3.8,20.9,6.7,20.9,6.7s2.6,0.3,6.4-1.4c3.8-1.7,5.4-7.9,5.4-7.9
			c3.3,3.2,8.7,1.3,14.3-4.5c5.6-5.8,5.8-11.9,5.8-11.9L396.6,191.8L396.6,191.8z M822.9,275.3c-0.4,3.3-1.3,6.6-2.5,9.7
			c-2.4,6.4-6.3,12.7-11.8,16.9c-0.1,0.1-0.2,0.2-0.3,0.3c-2.7,2.6-5.6,4.9-8.8,7c-14.1,9.6-30,16.9-45.6,23.7
			c-1.4,0.6-2.8,1.2-4.3,1.8c-18.7,8.1-37.9,15.6-57.1,22.1c3.1-1.7,6.3-3.4,9.3-5.2c0.6-0.3,1.1-0.7,1.7-1c0.8-0.5,1.5-0.9,2.3-1.4
			c2.7-1.6,5.4-3.2,8-4.9c7.1-4.5,14.6-9.3,20.7-15.3c-1.1,0-2.2-0.1-3.3-0.4c-1.1-0.3-2.2-0.6-3.2-0.9c7.6-5.3,14.4-11.6,20.6-18.5
			c0.8-0.9,7.6-9.7,7.8-9.7c-4.2-1.9-8.4-3.7-12.7-5.2c-2.1-0.7-4.3-1.4-6.4-2c-7.7-2.1-15.4-2.9-23.3-3.4c-0.2,0-0.5,0-0.9,0.1
			l0-0.1c-0.2-0.6-0.5-1.1-0.9-1.7c-2.1-3.1-6.3-2.6-9.3-1.7c-3.3,1.7-9.9,5-19.4,9.4c-36.3,17.1-119.5,51.1-245.7,73.6
			c-19.7,3.5-37.7,6.4-54.6,8.6c0,0-0.1,0-0.1,0c-0.1,0-0.3,0-0.5,0.1c-0.2,0-0.5,0-0.6,0c4.7-1.2,9.3-2.5,14-3.9
			c6.6-1.9,13.6-3.7,19.7-6.8c-7.2,0.5-14.8,1.2-22,0.4c3.1-1.2,6.7-2.5,9.2-4.6c-12.3-0.1-24.6-0.4-36.9-0.9
			c-21.5-0.7-43.1-1.6-64.4-4.4c10.7-3.4,22.7-8.5,31.2-16.4c1.2-1.1,2.4-2.3,3.4-3.5c-8.5-0.5-17-1.3-25.5-2.2l0,0
			c1.7-3.4,2.2-6.9,2.2-6.9c-2.2-3.8-8.4-7.4-8.4-7.4c2.9-0.6,6.8,0,6.8,0c-1.6-5.5-0.3-8-0.3-13.5c0-5.5-6.8-7.7-17.4-9.3
			c-10.6-1.6-15.1,1.9-15.1,1.9l1.6,3.6c-3.5-0.6-13.8-1-13.8-1c6.8,2.9,15.4,9,15.4,9c-4.2-1.6-12.8-3.7-12.8-3.7s-2.6,1.9-5.2,4.3
			c0,0-12.9-3.7-19-5.7c-18.2-6.2-35.9-14-51.8-24.6c2.1-0.4,4.1-0.9,6.2-1.4c3.1-0.7,6.1-1.5,9.1-2.4c1.9-0.6,3.8-1.2,5.6-1.9
			c0,0,0.1,0,0.1,0c2.8,3.2,7.8,5.5,7.8,5.5c-2.6-3.3-2.9-6.7-3-7.5c0,0,0.1,0,0.1,0c5.6,8.9,15.2,8.2,15.2,8.2c-2-0.5-4.4-2-4.4-2
			s4.2-1.5,8.4-2.7c4.2-1.3,13.5-2,18.9-2c5.4,0,15.5-2,15.5-2c4.4,1.5,18,4.9,18,4.9c-4.7-2.9-13-7.1-13-7.1
			c17-9.3,2.4-28.5,2.4-28.5s-3-0.7-9.1-5.4c-6.2-4.7-7.6-10.8-7.6-10.8c3.2,2.9,7.6,5.6,7.6,5.6c-1.3-2-0.7-3-3.5-9.1
			c-2.7-6.2-9.3-5.9-14-6.4c-4.7-0.5-12.3,5.1-12.3,5.1c-2.7-1-7.6-5.6-7.6-5.6c2.2,7.4,10.3,15.2,10.3,15.2
			c-3.4-1.5-9.6-5.9-9.6-5.9c-3.4,2.7-15.5,6.2-23.6,10.6c-8.1,4.4-7.1,13-7.1,13c0.5,5.2,4.9,12.1,4.9,12.1
			c-2.7-1.5-5.6-4.7-5.6-4.7c-0.1,1-0.1,1.9,0,2.7v0.1c0,0-0.1-0.1-0.1-0.1c0,0-5.9-3.1-8.4-4.8c-2.7-1.8-5.3-3.7-7.9-5.7
			c-1.5-1.2-4.3-3.6-4.7-4c0.4-0.5,0.7-0.8,0.9-1c13.4-14.5,29.3-27.1,45.5-38.4c7.6-5.3,15.4-10.3,23.4-15
			c28.3-16.9,58.2-31.1,88.3-44.3c18.7-8.2,36.4-18.8,51.9-32.1c9.9-8.5,19-18,26.7-28.5c9.1-12.3,15.7-26.1,23.8-39
			c13.5-21.3,29.6-41.2,48.8-57.7C502-20.6,514-29,526.9-35.4c3.5-1.7,7.1-3.3,10.8-4.6c1.4-0.5,3-1.2,4.5-1.3
			c-0.4-3.5-4-6.4-6.6-8.4c21.6-4.3,44-3.6,65.6,0.1c-3.9-4.2-7.8-8.3-11.7-12.5c21.9,0.9,44.4,7.6,64.2,16.9
			c19,8.9,36.3,21.3,50.4,36.9c8.3,9.2,15.3,19.4,21.1,30.2c0.7,1.3,0.9,1.4-0.4,2c-8.1,4.3-17.8,6.1-26.8,7.1
			c-27.4,3-54.2-6.4-79.7-15.2c-10.9-3.7-21.9-8.3-33.4-10c-16.2-2.4-32.8-2.5-47.8,5.2c-14.1,7.2-25.7,18.9-35.9,30.8
			c-9.6,11.3-18.1,23.5-25.9,36.2c-15.7,25.4-28.4,52.6-38.2,80.8c-8.3,23.8-14.7,49-13.8,74.4c0.7,20.4,5.9,42,16.7,59.5
			c5.4,8.7,12.5,16.4,21.2,21.7c4.7,2.8,9.8,5,15.1,6.4c2.7,0.7,5.5,1.3,8.3,1.6c-25.7,5.9-54.1,11.4-84.9,16.2
			c-20.2,3.1-38.9,5.6-56.3,7.4c17.6-1.1,36.7-2.7,57.4-5c175.7-19.3,271.5-66.1,271.5-66.1s7.8-5.1,3.5-11.6
			c-2.1-3.1-6.3-2.7-9.3-1.9c-3.4,1.7-10,4.8-19.7,8.9c-11,4.9-26.2,11.2-45.6,18.1c3.8-7.3,8.2-14.3,13.3-20.8
			c7.1-9.1,15.4-17.3,25.2-23.6c12.8-8.4,27.7-12.7,42.9-13.8c14.8-1.1,29.5,1.1,43.4,5.8c9.9,3.3,19.1,8.1,28.8,11.7
			c13.4,5,26.5,10.3,40.6,13.1c7.9,1.5,15.9,2.4,24,2.3c1,0,2-0.1,3-0.1C823.5,263.1,823,274.2,822.9,275.3"/>
		<path class="st1" d="M766.7,508.4c2.2,0.6,3.3,0.6,4.1,0.5c0,0,0.1,1.3-1,2.5c0,0,6.3-3.8,9.2-6.8l-0.8,2.7c0,0,5-1.3,7.3-3.5
			c2.3-2.2,3.5-4.7,4.2-5.9c0.7-1.2,2.5-5,1.7-6.2c-0.8-1.2-1.9-1.2-1.9-1.2s-7,4.2-8.8,5c0,0,3.5-5.4,4-6.7c0,0-6,0.9-7.5,3
			c0,0-6.7,1.7-9.2,3.3c-2.4,1.7-4.3,4.2-4.3,5.5c0,0,3.9-1.8,5.8-2.7c0,0-5.2,6.3-6.8,7.8C762.7,505.9,764.5,507.8,766.7,508.4
			L766.7,508.4z M760.8,517.1c0,0-5.6,4.9-7.5,6.6c0,0,2.7-6.4,3.1-7.8c0,0-5.2-0.2-8.1,2c-2.9,2.2-6.9,4.8-5.9,4.8
			c0,0,1.3-0.1,2.3-0.2c0,0-3.3,3.9-8.8,4.2c0,0-3.4-0.8-7.3,1.2c-3.9,2-5.5,4-5.5,4s-2.1,2.4-2.5,5.4c0,0,3.8-2.7,5.7-3.4
			c0,0-3.4,4.8-3.4,7.6c0,0,2.4,0.5,5.4-0.7c3-1.1,3.9-0.2,3.9-0.2s-1.3,1.7-1.8,3.4c0,0,3.8-3.2,5.5-3.9c0,0,4.7,1.5,8.3-0.1
			c3.6-1.5,7.7-5.5,8.3-6.3c0.6-0.7,3-2.5,3.3-2.7c-0.2,0.3-2.1,2.9-2.6,4.8c0.3-0.2,2.7-1.7,3.7-2.3c1.1-0.6,3.3-2.9,3.8-4.3
			c0.4-1.5-2-3.8-2-3.8s3.1-4,3.1-5.6C761.9,518.2,760.8,517.1,760.8,517.1L760.8,517.1z M733.1,493.9c0,0-4.1,1.7-7.7,1.7
			c0,0-1.6-2.4-5.4-1.6c-3.8,0.8-7.5,3.7-7.5,3.7s3.4-0.2,6.1-0.2c0,0-1.2,1.4-4.4,2c-3.2,0.7-5.2,1.2-7.5,3c0,0-0.6-1.8,1-3
			c0,0-5.1-1.4-6,3.8c-0.9,5.1-3.8,4.8-1.7,8.5c2,3.7,6.3,3.7,6.4,3.7c0,0-3.7,2.2-6,3.6c0,0,8.4-2.2,14.8-6.1c0,0-0.5,2.6-2,3.9
			c0,0,4.4,1.4,9.4-2.1c4.9-3.4,5.1-6.5,8.9-9c3.8-2.6,1.5-6.5-0.2-7.5C731.2,498.4,732.4,495.3,733.1,493.9z M697.8,536.8
			c-0.2-2.4-1.9-4.3-4.8-4.6c-2.9-0.3-4.6,0.8-5.6-0.5c-1-1.4-2.6-2.7-4.1-3.1c0,0-9.9,6.1-14.2,8.4c0,0,3.6-4.6,4.4-6.5
			c0,0-6-0.5-10.1,1.2c-4.1,1.7-6.8,3.1-9.7,4.4c-2.9,1.2-6,5.3-6,5.3s4.8-2.2,7.3-2.9c0,0-4.3,4.8-4.4,6.3c0,0,3.2,0.9,4.8,2.7
			c1.4,1.8,5.7,2.9,8.9,3.1h0.7c3.3,0,11.3-4.3,15.2-7.2c0,0-3.4,4.8-6,7.2c0,0,6.1,0,7.7,0.5c1.5,0.5,5.1,0.9,7.7-0.3
			c2.4-1.1,3.8-3.6,3.9-3.9c-0.3,0.1-2.9,1.2-4.8,1.7c0,0,0-2.1,4.1-5C696.9,540.7,697.9,539.1,697.8,536.8z M669.3,501.7
			c0,0,4.5-4.1,5.7-6.3c0,0-2.3-1.9-3.1-3.2c-0.7-1.3-2.7-4.4-5-5.3c0,0-2.4-3.1-4.9-3.3c-2.6-0.2-4.3,0.4-6,0.5
			c-1.7,0.1-8.5,0-13.6,5.1c0,0,7.3-1,9.2-1c0,0-6.5,4.8-7.9,6.8c0,0,1.9,1.2,1.7,2.9c-0.2,1.7-0.7,3.3,1,5.1c0,0,6-2.1,9.5-2.6
			c0,0-3.9,3.9-7.8,7.2c0,0,2.4,0.2,5.3-0.9c0,0,1.2,0.2,3.9,2.4c2.7,2.2,8,1.6,11.1-0.4c3.1-2,6-6.1,6-6.1s3.6-1.9,6-5.8
			C680.4,497,674.2,501.1,669.3,501.7L669.3,501.7z M631.9,532.6c0,0-3.5,0.9-4.9,1.4c0.3-0.4,2.4-3.4,2.9-5.1c0,0-3.2-2.1-5.7-2.7
			c-2.5-0.6-3.2-1.2-4.5-2.8c-1.4-1.5-4.8-3.4-8.2-2.9c-3.3,0.5-9.8,2.4-10.4,2.5c0.4-0.3,3.3-3.2,4.6-5.4c0,0-3.7-1.9-9.9-2.7
			c0,0-5.6,0-8,0.7c-2.4,0.7-4.6,1.9-4.8,3.4c-0.2,1.5,1.2,3.2,1.2,3.2s5-1.9,7.9-2.4c0,0-7.3,6.8-9.9,8.7c0,0,5.1-0.9,8.2-1.9
			c0,0-0.3,1.9-1.5,3.9c-1.2,2,1,4.1,2.1,4.6c1,0.5,5.8,2.4,7,3.2c0,0-3.1,2.6-6.5,4.4c0,0,6.7-0.7,10.1-1.7c0,0,2.7-0.2,5.6,1
			c2.9,1.2,3.9,1.2,6.3,0.9c2.4-0.3,2.7-1,4.2-1.2c1.6-0.2,3.1,0,3.1,0s-1,1.4-3.6,2.4c0,0,5.5-0.7,8-2.4c0,0,4.4-0.8,7-3.3
			C634.6,536.1,631.9,532.6,631.9,532.6L631.9,532.6z M558.9,550.2c-2.9-2.4-6.4-3.8-6.4-3.8s0.4-3,2.1-4.7c0,0-3.2,0.3-5.9,1.8
			c0,0-2.4-2.7-2.7-3.8c-0.3-1.1-3.8-5.6-5.9-7.2c-2.1-1.5-6.5-3.2-6.5-3.2s3.9-5.6,7.1-7.9c-0.8,0.3-11.7,5.1-16.1,9.7
			c0,0-0.4-3.4,0.7-5.1c0,0-5.3-2.4-11.4-1c-5.7,1.3-11.4,5.4-12,5.9c0.7-0.1,5.9-1.1,9.3-1.1c0,0-7.7,3.8-9.1,7.6
			c-1.4,3.8-1,8.2,3.2,10.1c4.2,2,7.9,1.7,7.9,1.7s10.1-4.8,16-6.2c0,0-7.7,5.1-9.7,8.3c0,0,5.5-0.2,7,0.8c1.5,1,2.7,3.5,5.6,4.5
			c3,1,6.1,1.3,6.1,1.3s-2.8,1.5-3.5,2.4c0,0,5.8-1.5,7.6-1.5c0,0,5.1-0.3,7.3-0.6c2.3-0.3,6.5,1.1,10,0
			C563.2,557.3,561.7,552.6,558.9,550.2L558.9,550.2z M462.8,558c-0.3-2.5-2.1-8.9-5.5-10.4c-3.4-1.4-4.3-1.7-4.3-1.7v-7.4
			c0,0-5.1,4.5-6.1,6c0,0-1.4-0.1-4.9,0.5c-3.6,0.5-7.9-5.5-14.5-5c0,0-10.9,2.3-12.7,6.8c-1.8,4.4-1.1,8.2-0.4,9.5
			c0,0,3.8-4.8,6.4-6.2c0,0-2.5,5.7-2.5,9.3c0,0,2.1,1.6,2.5,3.2c0.4,1.6,4.5,4.1,7,4.6c2.5,0.5,5-0.5,5-0.5s2.9-6.7,5.1-9.2
			c0,0-0.9,13.1,0.2,17.7c0,0,2.7-6,4.2-8c0,0,3,0.3,7.3,1c4.3,0.7,8,0.3,10.5-2.1C462.5,563.5,463.2,560.5,462.8,558L462.8,558z
			 M362.8,551.2c-0.5-4.6-6.4-8.7-8-9.7c-1.6-1.1-4.5-3.2-5.4-6.1c-0.9-3-4-4.9-6-5.1c-1.9-0.2-4.5-3-4.5-3c2.7-0.7,6.6,0.5,7.1,0.7
			c-0.4-0.3-3.7-3-5.2-4.2c-1.6-1.2-6.8-2.5-8.7-2.3c-1.9,0.2-3.9,0-9.8,0.2c-6,0.2-12.8,0.7-14.8,4.5c-1.9,3.6-2.8,3.7-2.9,3.7
			c-4.2-1.9-12.9-1.8-12.9-1.8c8.4,3.5,15.6,11.4,15.6,11.4c-4.5-1.9-9.7-2.7-9.7-2.7c-0.7,1.2-0.9,2.5-0.7,5.1c0.2,2.6,2.6,4,2.6,4
			s0.2,1.4,1.9,3.7c1.8,2.3,7.7,5.4,11,5.6c3.3,0.2,7.5,1.9,9.8,3.5c2.3,1.6,10.3,4.9,14.3,4.6c4-0.3,5.6-1,5.6-1
			c2.3,0.2,7.3,1,7.3,1c-6.6-5.3-10.8-7.2-10.8-7.2c7.7,0.9,14.4,4,14.4,4C360.8,559.5,363.3,555.8,362.8,551.2L362.8,551.2z
			 M236.3,530c0,0,3.2-1.8,3.4-6.2c0.2-4.4-0.9-6.3,0.2-9.3c1-3-0.7-5.1-4.9-7.5c0,0-4.2-0.9-8.4-0.5c0,0,3.2-1.6,4.6-1.8
			c0,0-4.6-3.8-11-2.3c0,0-7.9-4.7-13.8-3.9c-5.9,0.9-7.3,3.3-7.3,3.3s7.1,1.3,12.1,2c0,0-9.2,2.1-12.2,3.9c0,0,0.9,4.3,2.9,6.2
			c1.9,1.9,1.5,2.4,1.5,2.4s-7.6,1.8-10.4,2.8c0,0,8.9,1.4,11.7,2.4c0,0-1.1,2.2,2.4,5c3.5,2.8,6.5,5.6,7.9,7.2
			c1.4,1.6,8.2,1.7,12.1,0.7c3.9-1.1,3.8-1.1,5.9-1.1c2.1,0,11.1,0.9,11.1,0.9S242.2,531.5,236.3,530L236.3,530z M883.9,385.7
			c0,0-13.5-16.7-20.3-11.6c-6.7,5.1,3.5,12,1.4,25.4c-2.1,13.4-46,58.4-101.4,91.6c0,0,25.6-10.6,50.4-23.7c30.3-5,37.4,2.9,39,6.2
			c-0.9,1.6-2,3.3-3.3,5c-1.1,0.7-2.7,1.7-4.5,2.4c-3.5,1.3-6.8,1.9-9.1,3c0,0-5.3,5.4-7.1,8c0,0-0.6-2.3,0.9-5.1
			c0,0-4.1,3.6-7.9,4.4c-3.8,0.8-8.3,2.3-9.5,3.2c-1.1,0.9-3.5,2.9-3.5,2.9s0.1-1.8,0.7-3.2c0,0-3.9,0.3-4.5,4.3
			c-0.7,4.1,2.5,5.7,2.5,5.7s-0.3,1.1,0,2.6c0,0,3.5-3.8,5.1-4.8c0,0,0.7,2.5-0.7,6.7c-0.4,0.2-0.8,0.5-1.3,0.7
			c-1.3,0.7-2.5,1.3-3.7,1.9c-1,0.5-58.1,32.8-85.1,46.4c-2,0.2-4.7,0.6-7.6,1.6c0,0-4.5,2.1-5.3,4.3c0,0-0.3-1.1,0.3-2.3
			c1.1-2.1,3.6-4.3,4.3-7.2c0,0-4.5,2.7-8.2,4.6c-3.3,1.7-10.1,3.6-13.9,6.5c-0.8,0.6-1.4,1.2-1.8,1.8c-0.2,0.2-0.3,0.3-0.4,0.5
			c-0.4,0.6-0.6,1.2-0.8,1.7c-0.1,0.2-0.1,0.5-0.2,0.7c0,0.1-0.1,0.2-0.1,0.3c-0.1,0.3-0.1,0.5-0.1,0.7c0,0.3,0,0.5,0,0.5
			c0.1-0.1,0.1-0.1,0.2-0.2c0.1-0.1,0.1-0.1,0.2-0.2c0.1-0.1,0.2-0.1,0.3-0.2c1.6-1.4,3.3-2.9,5.4-3.5c0.2-0.1,0.3-0.1,0.5-0.1
			c-0.1,0.1-0.1,0.2-0.2,0.2c-0.1,0.1-0.1,0.2-0.2,0.2c-0.1,0.2-0.3,0.4-0.5,0.6c-1,1.1-2.5,3-3.7,5.3
			c-22.1,10.9-48.5,22.6-84.3,29.6c-51.4,10.2-85.9,1.6-85.9,1.6s10.2-0.6,31.3-8c1.3,0.4,3.1,1.1,4.7,2.3c3,2.2,5,2.6,6.3,2.6
			c1.3,0,6.9-6.7,6.9-6.7s-0.6,5.2-1.7,9.6c0,0,5.5,0.5,7.6,0c3.1-0.7,5.7-1.8,6.7-1.8c1.1,0,1.5,1.3,1.5,1.3s1.9-1.3,1.9-2.8
			c0,0,4.4-3,4.4-5.9c0-2.8-0.7-6.5,0-8.3c0,0-1.1-0.6-2.9,2.2c0,0-2.8-2.4-5.6-2.4c-1.3,0-2.5-0.3-3.5-0.7
			c9.8-4.3,20.8-9.7,33.2-16.3c0,0,1.4-1,2.4-1.8c0,0,1,4.1,1.7,4.8c0,0,1.3-1.1,1.5-1.8c0,0,0.2,1.8-0.1,3.9c0,0,3.5,2.8,6.2,3.1
			c2.7,0.3,3.8,0.2,4.6,0.8c0,0,0.6,2.2-0.3,4.4c0,0,4.5-2.6,5.4-6c0,0,0.4,2.1,0.3,4.1c0,0,4.7,0.8,8.2-0.1
			c3.5-0.9,5.8-2.1,6.6-3.4c0.8-1.3,2.9-5.6,1.7-6.5c-1.2-0.9-3.4-1.3-4.1-2.3c-0.6-1-0.9-1.9-1.8-2.6c-0.9-0.6-2.1-0.8-2.1-0.8
			s-0.2-3.6,0.7-5.4c0,0-1.8,0.2-2.7,2.4c0,0,0.4-2-0.9-3.5c-1.3-1.4-2.2-2.3-3.4-2.7c0,0-3.2,3-3.4,4.2c0,0,0.3-7.1-0.9-5.8
			c0,0-6.7,5.9-8,6.6c0,0-2.9-0.4-4-0.3c-1.2,0.1-5.1,1.7-5.9,3c0,0-0.1-1.5,2-3.1c0,0-2,0.3-2.7,0.7c0,0-1.1-1.3-3.2-1.8
			c0,0,2.1-2.3,3-3.2c0,0-4.1,0.7-5.9,2.7c0,0-2.3-0.1-4.9,0.7c-2.6,0.8-4.1,0.5-6.4,0.1c-2.3-0.4-2.7-0.1-4.4,0.3
			c-1.7,0.4-6.3,3-6.3,3s0.8-2.1,1.5-2.7c0,0-0.4-1.7-4.1-0.6c-3.7,1-3.9,2.2-5.8,3.4c-1.9,1.1-3.2,2.8-2.8,4.2
			c0.4,1.4,1.5,2.5,1.5,2.5s1.1-1,3.2-1.9c0,0-3.5,4.4-3.9,5.9c0,0,1.8-0.4,2.7-0.5c0,0,0.6,2.4,6,3.6c1.8,0.4,3.3,0.6,4.6,0.8
			c-14.9,4.6-35.7,10.4-59.7,15.3c-0.4-0.5-0.7-0.9-1-1.4c-0.3-0.6-0.6-1.1-0.9-1.8c-0.9-1.8-1.5-3.7-3-4.8c0,0-11.2,3.5-14.8,5.3
			c0,0,5.6-4.6,9.6-6.7c0,0-3.4-5.6-15.2-4.3c0,0-5.5-2.4-9.8-1.9c-4.3,0.5-10.8,3.2-12.1,5.5c-1.3,2.2-1.2,6.8,3.4,9.5
			c0,0,6.3-3.8,9.3-5.6c0,0-5.5,6.9-5.1,9.1c0,0,2,1.6,4.3,3c-2.7,0.4-5.5,0.7-8.3,1c-25.3,2.9-47.6,3.3-67.9,2.1
			c1.6-2.3,1.3-4.5,2.6-6.8c1.5-2.8-0.7-4.1-0.7-4.1c-1.7,1.4-8.7,4.4-8.7,4.4c2.7-2.5,4.9-6,4.9-6c-1.7-1-6.2-1.9-11-2.1
			c-4.8-0.2-11.7-4.2-11.7-4.2c-2.9,0.9-5.3,3.8-7.8,6c-0.4,0.4-0.9,0.7-1.2,1c-0.1,0.1-0.2,0.2-0.3,0.3c-0.1,0.1-0.1,0.1-0.2,0.2
			c-0.1,0-0.2,0.1-0.2,0.2c0.1-0.1,0.2-0.5,0.3-0.8c0,0,0-0.1,0-0.1c0,0,0-0.1,0-0.1c0.2-0.4,0.3-0.8,0.5-1.2
			c0.3-0.8,0.7-1.6,1.1-2.4c1.2-2.3,2.7-4.6,4.2-6.7c0,0,0.1-0.1,0.1-0.1c0.6-1,1.2-1.9,1.7-2.6c0.2-0.3,0.4-0.6,0.6-0.9
			c0.1-0.1,0.1-0.1,0.1-0.2c0.1-0.1,0.1-0.2,0.2-0.3c0.1-0.2,0.2-0.2,0.2-0.3c0-0.1,0.1-0.1,0.1-0.2c0.1-0.1,0.1-0.2,0.1-0.2
			c-0.6,0.8-2.5,1.1-3.5,1.5c-0.1,0-0.1,0-0.2,0.1c-1.6,0.6-3.1,1.5-4.6,2.4c0,0-0.1,0.1-0.1,0.1c-0.7,0.5-2.6,2.2-3.4,1.9
			c0,0-0.2-0.1-0.5-0.2c-0.1,0-0.2-0.1-0.3-0.1c-0.2-0.1-0.4-0.1-0.6-0.2c-0.2-0.1-0.5-0.1-0.8-0.2c-0.2-0.1-0.5-0.1-0.8-0.2
			c-0.3-0.1-0.7-0.1-1.1-0.2c-0.7-0.1-1.4-0.2-2-0.2h-0.1c-0.9-0.1-1.8-0.1-2.8,0c-4.9,0.3-11,4.5-15.2,8.7c-1.5,1.5-2,3.1-2,4.7
			c-4.4-1-8.7-2.1-12.9-3.3c-6.3-1.5-40.5-9.1-75.4-16.9c0.2-2.4-0.8-5-0.8-6.4c0-2.4,1.9-4.3,1.9-4.3c-4-0.3-11.1,2.3-11.1,2.3
			c2-2.9,7.8-6.1,7.8-6.1s-0.8-3.2-3.5-4.3c-2.6-1.1-4.6-0.7-7.9-0.4c-3.3,0.2-6.2-1.3-10.3-1.5c-4.2-0.2-9.3,2.4-9.3,2.4
			c4.6-0.4,8,2.7,8,2.7c-5.9,0.7-7.8,2.9-8.4,4.2c-0.5,1-1.9,2.3-3.3,3.2c-25.7-5.7-45.5-10.2-45.5-10.2
			c-16.2-2.2-29.4-3.8-29.4-3.8c-0.8-1-1.9-2.6-0.5-3.1c0,0,2.7-0.9,6-1.1c3.2-0.2,6.7,0,6.7,0s-13-6-14.5-6.5
			C149,539,147,537,147,537s-0.1,0-0.1-0.1c-0.1-0.1-0.2-0.1-0.2-0.2c0,0-0.1-0.1-0.1-0.1l-0.2-0.2c0.9,0.4,2.1,0.8,3.1,0.9
			c1.9,0.3,4.3-1.5,4.3-1.5s2.1-0.4,4.1,0.4c2.1,0.7,6.4,0.6,6.2,0.6c-1.3-0.2-2.7-1.1-3.9-1.1c1,0,2.5-0.7,3.3-1.3
			c3.8-2.6-1-5.9-3.5-7.1c-3.8,0.4-6.1-1.1-6.1-1.1s4.9,0,4.6-1.4c-0.3-1.4-2.4-2.3-4.8-2.8c-2.3-0.5-4.1-2.8-4.1-2.8
			c1-0.1,1.9-1.1,1.9-1.1s-2.5-0.3-2.8-0.5c-0.4-0.2-1.7-3.1-2.7-4.4c-1-1.3-4.6-2.2-4.6-2.2c1.7-0.9,6.9-1.5,6.9-1.5
			c-2.9-1-6.3-1.2-7.5-1.3c0.8-0.5,8.9-5.6,9.2-5.8c0,0,0,0,0.1,0c1.7-0.4,3.4-0.8,5.1-1.2c19.3-4.4,39.2-9,59-10.1
			c12-0.7,24.1,1.1,35.9,3.2c7.2,1.3,14.4,2.7,21.5,4.5c-3.2-3.5-6.7-7.1-10.8-9.6c0.2,0.1,0.4,0.1,0.6,0.2
			c23.9,5.9,47.9,11.9,71.9,17.5c15.1,3.5,30.3,5,45.6,5.3c1.7,1.1,3.8,2,6.8,2.1c5.5,0.2,10.8-1.1,14.5-2.4
			c6.2-0.3,12.3-0.6,18.5-1.1c-2.3,3.9-5.8,7.6-9.9,9.4c5.5,0,11-0.1,16.5-0.3c30.9-1.1,62-3.4,92.4-9.3c7.5-1.4,15-3.1,22.5-4.9
			c0.1,0,0.6,0.2,0.9,0.9c0.4,0.8,0.2,2.7,1.9,3.1c1.7,0.4,4.8-1.1,5.6-1.5c0.8-0.4,5.1-3.1,6.5-3.8c0.8-0.4,1.1-1.7,1.3-2.9
			c4.1-1.1,8.2-2.3,12.3-3.6c0,0,0,0-0.1,0.1c-0.1,0-0.2,0.1-0.2,0.2c-0.1,0.1-0.2,0.2-0.3,0.2c-0.1,0.1-0.2,0.1-0.3,0.2
			c-0.2,0.2-0.4,0.3-0.7,0.5c0,0-0.1,0-0.1,0c-0.3,0.2-0.6,0.4-0.9,0.6c-0.1,0.1-0.2,0.1-0.2,0.2c-0.2,0.2-0.5,0.3-0.7,0.5
			c-0.1,0.1-0.2,0.2-0.3,0.2c-0.2,0.2-0.5,0.3-0.7,0.5c-0.1,0.1-0.2,0.1-0.3,0.2l-1,0.6c12.6,9.1,30.3,7.1,30.3,7.1s4.1-0.5,7-1.5
			c0,0,4,2,7.1,1.7c3-0.3,8.4-3.1,9-4.9c0.5-1.7-1-7.1-2-9.2c-1-2.2-6.4-5.5-9.5-6.5c0,0-0.1,0.3-0.4,0.7c-0.1,0.1-0.2,0.3-0.3,0.4
			c-0.6,0.9-1.7,2.3-3.2,3.3c0-0.1,0.1-0.3,0.1-0.5c0.1-0.2,0.1-0.3,0.2-0.5c0-0.1,0.1-0.3,0.1-0.5c0.1-0.1,0.1-0.3,0.1-0.4
			c0.2-0.6,0.3-1.2,0.4-1.9c0.1-0.6,0.2-1.1,0.2-1.6c0,0-0.6-0.3-1.6-1c18.1-7.6,34.4-18.1,50-30.1c9.1-7,18.4-14.4,28.6-19.6
			c0.6-0.3,1.2-0.6,1.9-0.9c1.7-0.7,3.5-1.3,5.2-1.9c10.2-3.5,20.9-2.3,30.9,1.4h0c0.3,0.3,0.6,0.5,0.6,0.5c0.7,0.6,1.3,1.3,1.8,2
			c0.5,0.7,1,1.4,1.5,2.1v0c0.3,0.4,0.5,0.9,0.7,1.3c3.2,6.1,3.5,13.2,2.4,19.7c0,0.3-0.1,0.6-0.1,0.9c-0.1,0.8-0.3,1.6-0.5,2.4
			c-0.6,2.4-1.2,4.7-1.9,6.7c-0.7,2.1-1.5,3.9-2.1,5.5c-0.2,0.5-0.5,1-0.6,1.4c-0.1,0.2-0.2,0.5-0.3,0.7c-0.2,0.4-0.4,0.8-0.5,1.1
			c-0.1,0.2-0.2,0.4-0.3,0.5c-0.1,0.2-0.2,0.3-0.2,0.5c-0.1,0.2-0.2,0.3-0.3,0.5c-0.1,0.2-0.1,0.3-0.2,0.3c2.7-2.3,5-4.4,7.1-6.7
			c6.4-5.9,16.9-16.7,23.4-29.7c9.8-19.5,13.4-32.4,13.4-36c0-3.6-8.2-2.6-14.4-2.1c-6.2,0.5-37.5-2.6-48.4-7.7h0.1
			c7.2,1.7,14.4,2.8,21,2.9c19.2,0.2,46.1-5.3,54.1-12.5l0.3-0.1c0,0,5.8-4.3,4.5-9.5c-1.1-4.3-5.4-7.8-12.8-8.2
			c0,0-0.3-4.8,2.7-9.4c2.9-4.6,9.1-10.1,9.1-10.1c9-1.4,17.9-3.1,26.8-5.1c0.1,0,0.2-0.1,0.3-0.1c4.9-1.6,10.3-2.3,15.2-3.6
			c2.8-0.7,5.6-1.5,8.4-2.2c6.1-1.7,12.2-3.5,18.3-5.4c3.9-1.3,7.7-2.5,11.6-3.9c1-0.3,5.8-2.8,6.5-2.3c1.9,1.4,12.7,8.8,21.1,10.5
			c9.3,1.8,18,5.3,18,15.7C901.8,366.9,893.2,378.1,883.9,385.7"/>
		<path d="M774.8,383.9c-4.7-9.8-29.9,3.4-56.9,5.8c-27,2.4-63.3-8-63.3-8c0.3,0.2,0.6,0.5,0.9,0.7c2.6,1.9,5.4,3.5,8.3,4.9
			c2.4,1.2,4.8,2.3,7.2,3.4c8.6,3.7,17.6,6.7,26.7,8.8h0.1c7.2,1.7,14.4,2.8,21,2.9c19.2,0.2,46.1-5.3,54.1-12.5
			C775,387.9,775.8,385.9,774.8,383.9"/>
		<path class="st2" d="M764.9,372c0,0-0.3-4.8,2.7-9.4c2.9-4.6,9.1-10.1,9.1-10.1c-1.8,0.3-3.5,0.5-5.3,0.8
			c-7.1,1-14.2,1.8-21.3,2.5c-3.3,0.3-6.6,0.5-9.9,0.7c-0.6,0.1-11.9,0.6-13.1,0.6c-11.4,0.3-22.9-0.2-34.2-0.2h0h-0.4h-0.2
			c-3.8,5.1-18.1,25.5-37.7,24.8c0,0,36.3,10.5,63.3,8c27-2.4,52.2-15.6,56.9-5.8c1,2.1,0.2,4-2,5.9l0.3-0.1c0,0,5.8-4.3,4.5-9.5
			C776.6,375.9,772.3,372.5,764.9,372"/>
		<path class="st1" d="M756.4,299.5c-4.2-1.9-8.4-3.7-12.7-5.2c-2.1-0.7-4.3-1.4-6.4-2c-7.7-2.1-15.4-2.9-23.3-3.4
			c-0.2,0-0.5,0-0.9,0.1c0.1,0.2,0.1,0.4,0.2,0.6c0.1,0.4,0.2,0.7,0.2,1c0.5,4.7-4.6,8.3-4.6,8.3s-0.1,0-0.2,0.1
			c-0.2,0.1-0.3,0.1-0.5,0.2c-0.1,0.1-0.1,0.1-0.2,0.1c-3.3,1.5-6.6,3-9.9,4.5c-5.8,2.6-11.5,5.1-17.4,7.4c-1.1,0.5-2.2,0.9-3.4,1.4
			c-0.8,0.3-1.7,0.7-2.5,1c-13.4,5.3-27,10.1-40.7,14.5c-8.3,2.7-16.6,5.2-24.9,7.5c-1.3,0.4-2.7,0.8-4,1.1
			c-14,4-29.4,8.1-46.1,12.1c-11,10.3-21.8,20.6-33.4,30.1c77.1-20.5,129.9-43.2,156.8-56.2c9.6-4.4,16.1-7.8,19.4-9.6
			c3-0.9,7.2-1.4,9.3,1.6c4.4,6.3-3.2,11.7-3.2,11.7s-67.7,35.8-194.7,61.9c-12.5,8.9-25.8,16.3-38.8,24.4c-4.5,2.8-9.1,5.7-13,9.3
			c-2,1.8-4.1,4.2-4.3,7c-0.1,0.5-0.1,1.1,0,1.6c0,0,0,0.1,0,0.1c0,0.3,0.1,0.7,0.2,1c0,0.1,0.1,0.2,0.1,0.3c0,0.1,0.1,0.2,0.1,0.2
			c0.1,0.3,0.2,0.6,0.3,0.9c0.1,0.2,0.1,0.3,0.2,0.5c1.1,2.7,3.2,5.1,5.2,6.8c0.3,0.2,0.6,0.5,0.9,0.8c0.2,0.2,0.4,0.3,0.6,0.5
			c0.3,0.2,0.6,0.5,0.8,0.7c0.3,0.2,0.6,0.5,0.9,0.7c0,0,0,0,0.1,0c0.1,0.1,0.2,0.2,0.3,0.3c0.1,0.1,0.1,0.1,0.2,0.2
			c0,0,0.1,0.1,0.1,0.1c0.1,0.1,0.2,0.1,0.2,0.2c0.1,0.1,0.1,0.1,0.1,0.1s0.1,0,0.1,0h0c0,0,0,0,0,0c0.2,0.1,0.5,0.1,0.8,0.2
			c0.3,0.1,1.1,0.3,1.1,0.3c5.4,1.4,11.2,2.7,17,3.7c1.9,0.3,3.9,0.6,5.9,0.8c2.1-6.8,11.4-16.9,11.4-16.9
			c-4.4-0.3-10.1,1.3-10.1,1.3c8.2-11,30.9-24.9,48.6-28.4c17.7-3.5,33.7-2.8,33.7-2.8c-2.5-1.3-6.6-2.8-6.6-2.8s6.9,0.3,16.4-1.6
			c1.2-0.2,2.6-0.6,4-1c6.3-1.6,14-4.2,18.6-5.8c0.5-0.2,1-0.3,1.5-0.5c0,0,0.1,0,0.1,0c0,0,0.1,0,0.1,0c1.4-0.9,2.8-1.8,4.1-2.8
			c7.9-5.2,15.4-11.1,22.6-17.3c2.1-1.8,4.1-3.6,6.1-5.4c3.3-3,6.2-6.2,9.4-9.2c-0.3,0.2-0.3,1.5-0.4,1.8c-0.2,0.7-0.5,1.4-0.7,2.1
			c-0.6,1.4-1.1,2.9-1.7,4.3c-1.2,2.8-2.6,5.6-4,8.4c-3,5.5-6.3,10.7-10,15.7c-2.1,2.8-4.3,5.6-6.5,8.3c-1.7,1.9-3.4,3.8-5.1,5.7
			c-1.4,1.5-3.1,4.3-5.1,4.9c0,0,0,0-0.1,0c-0.1,0-0.1,0.1-0.1,0.1c1.7-0.1,3.2-0.2,4.8-0.4c0.5-0.1,1-0.1,1.5-0.2
			c0.7-0.1,1.3-0.2,1.9-0.3c1.7-0.3,3.2-0.7,4.7-1.1c0.6-0.2,1.1-0.3,1.6-0.5c0.5-0.2,1-0.4,1.5-0.6c1-0.4,2-0.9,2.9-1.3
			c0.5-0.2,0.9-0.5,1.3-0.7c0.4-0.2,0.9-0.5,1.3-0.7c0.4-0.3,0.8-0.5,1.2-0.8c0.4-0.3,0.7-0.5,1.1-0.8c0.2-0.2,0.4-0.3,0.6-0.5
			c0.4-0.3,0.9-0.7,1.3-1c0.5-0.4,0.9-0.8,1.3-1.2c0.3-0.2,0.5-0.5,0.7-0.7c1.9-1.9,3.4-4,4.6-5.9c0.2-0.4,0.4-0.7,0.6-1.1
			c1.4-2.6,2.2-4.8,2.7-6.2c0.1-0.2,0.1-0.4,0.2-0.6c0.2-0.7,0.3-1.1,0.3-1.1c19.7,0.7,33.9-19.7,37.8-24.8h0.2c0,0-0.1,0-0.1,0
			c0.1,0,0.1,0,0.1-0.1c3.1-1.7,6.3-3.4,9.3-5.2c0.6-0.3,1.1-0.7,1.7-1c0.8-0.5,1.5-0.9,2.3-1.4c2.7-1.6,5.4-3.2,8-4.9
			c7.1-4.5,14.6-9.3,20.7-15.3c-1.1,0-2.2-0.1-3.3-0.4c-1.1-0.3-2.2-0.6-3.2-0.9c7.6-5.3,14.4-11.6,20.6-18.5
			C749.4,308.4,756.2,299.5,756.4,299.5"/>
		<g>
			<path class="st3" d="M670.8,68.5l-12.4,8.1l-1.6,17.9C656.7,94.5,674.4,83,670.8,68.5"/>
			<path class="st3" d="M628.7,107.8c0,0-9.9-38.6-56.1-63.4c0,0-35.2,11.9-54.5,56.2c-15.6,35.8-0.7,102.8-21.6,140.7
				c-13.8,25.2-38.3,31-38.3,31s15.2,8.7,47-1.5c52.3-16.9,58-85.3,58.8-99.3c1.6-27.6,6.4-63.3,24.5-72.9c0,0-10.7,14.8-11,49.7
				c-1,103.9-36.9,118.5-36.9,118.5s43.9-7.2,55.7-44.3C608.2,185.2,589.2,128.3,628.7,107.8"/>
			<path class="st3" d="M858.4,316.9c-1.6-13.9-23.2-33.9-23.2-33.9c-3.1,7.7-14.7,26.2-14.7,26.2s3.1,7.7-8.5,17.8
				c-11.6,10-43.2,10-43.2,10s8.5,4.8,19.3,3.9C816.5,338.2,858.4,316.9,858.4,316.9"/>
		</g>
		<g>
			<path class="st0" d="M150.5,530.8c0.4-0.6,0.1-1.3-0.3-1.6c-0.1,0-0.1-0.1-0.1-0.1c-0.3-0.2-1.1-0.2-2-0.3
				c-1.4,0.2-4.8,0.9-6.2,0.6c0,0,0.9-0.7,1.6-1.4c0,0-3.7-1.4-4.5-2.9c0,0-3,0.3-5.2-0.5c-1.3-0.4-1.8-1-2.5-1.4
				c-0.4-0.2-0.9-0.3-1.5-0.6c-0.1,0-0.2-0.1-0.4-0.1c-2.1-0.1-3.7,0.9-3.7,0.9l0.7-1.5c0,0-5.9,0-7.2-2c-4.8,2.4-9.6,4.7-14.5,6.8
				c-4.6,2-9.3,3.9-14,5.7c-9.5,3.7-19.1,6.9-28.8,9.8c-2.9,0.9-5.8,1.7-8.7,2.5c-2.1,0.6-4.3,1.2-6.4,1.7H47
				c3.9,0,7.8,0.1,11.8,0.3c26.5,1.6,53.1,1,79.6,2.4c4.8,0.3,9.7,0.6,14.5,0.9c-0.8-1-1.9-2.6-0.5-3.1c0,0,2.7-0.9,6-1.1
				c3.2-0.2,6.7,0,6.7,0s-13-6-14.5-6.5C149,539,147,537,147,537s-0.1,0-0.1-0.1c-0.1-0.1-0.2-0.1-0.2-0.2c0,0-0.1-0.1-0.1-0.1
				l-0.2-0.2c-0.7-0.3-1.3-0.6-1.6-0.7c-0.6-0.4-3.1-0.5-3.1-0.5s2.9-1.3,4.2-1c0,0,0-0.1,0.1-0.1c0-0.2,0.2-1,1.4-1.6
				C148.3,531.9,149.8,531.4,150.5,530.8"/>
			<path class="st0" d="M262.7,464.2c-0.7-0.3-1.4-0.7-2.1-1.1c-4.6-2.9-9.3-5.5-14.2-7.8c-0.1,0-0.1-0.1-0.2-0.1
				c-1.6-0.8-3.3-1.5-4.9-2.2c0,0-0.1,0-0.1-0.1c-0.1,0-0.1,0-0.1-0.1c-4.4-1.9-9-3.7-13.5-5.3c-3.6-1.3-7.2-2.4-10.9-3.5
				c-26-7.6-41.9-7.4-41.9-7.4c1.8-0.8,4.1-1.5,6.3-2c7.8-1.8,26.6-3.4,27.5-3.7c-0.1-0.1-0.3-0.2-0.6-0.3c-0.1-0.1-0.3-0.1-0.5-0.2
				c-19.5-8.3-40.5-12-61.7-11.1c-38.5,1.6-59.2,12.3-59.9,13.1c0,0,10.8,1.7,17.1,3.8c0,0-28.6,9.4-39.5,16.4
				c0,0,11.7-0.3,15.4-0.3c-4.2,3.3-8,6.7-11.6,9.7c-20.4,17.7-33.9,40.9-31.4,51.3c-7.9,10.6-19.2,13.4-19.2,13.4
				c34.3,3.2,66.1-10,99.7-31c14.1-8.8,24.9-18.9,37.4-26.9c-8.3-1.4-26.5-2.4-60.9,3.6c0,0,19.9-12.7,57.6-17.4
				c22.9-2.8,45.3-2.2,60.7-1.1C229.2,455.3,246.1,457.6,262.7,464.2"/>
			<path class="st0" d="M944.1,300.6c-0.4-4.4-1.3-9.1-2.7-14c-1.5-5.1-2.7-10.7-8.9-11.1c-4.5-0.2-8.9,0.2-13.4,0.5
				c-2.6,0.2-7.8,1-9.3-2c-4.4-8.8,13-8.3,17.6-8.5c0.7,0,1.3,0,2,0c-18.4-20.3-48.3-25.7-50.1-26c-0.1,0-0.1,0-0.1,0
				c-0.2,0.3-0.5,0.7-0.8,1.1c-4.8,6.1-19.4,18.7-49.1,22l-0.2,0c1.5,2.1,3.1,4.2,4.8,6.2c12.3,14.1,31.6,26,52.7,36.2
				c29.3,14.2,40.5,42.2,40.5,42.2s4-3.4,8.2-9.9c-1.3-3.7-4.4-9.4-12.2-15.1c0,0-5.3-3.1-3.4-6.8c1.9-3.7,6-2.4,8.2-1.2
				c1.4,0.8,5.5,3.4,8.7,8.9c1.5,2.2,2.5,4.2,3.1,5.7c1.9-4.4,3.5-9.7,4.2-15.6c0.1-0.7-2.3-2.7-2.8-3.1c-1.7-1.6-3.5-3-5.4-4.3
				c-5.3-3.6-11.1-5.8-17-8.2c-2.1-0.9-5.4-2.9-5.8-5.3c-0.7-3.9,4.6-4.7,7.4-4.3c0.2,0,0.4,0.1,0.7,0.1
				C925,289,937.3,291.9,944.1,300.6"/>
			<path class="st0" d="M703.9,40.1c-9.3-0.7-15.9,6.5-15.9,6.5c-23.7,3.2-50.6-1.8-50.6-1.8s-13.9-14.7-33.5-17.2
				c-19.7-2.5-19.5,6.3-18.4,8.7c1.1,2.5,10.2,6.9,27,24.3c16.8,17.4,31.3,53.1,31.3,53.1c3.9-11.6,5.5-24,4.3-36.2
				c-0.3-3.5-1-7.1-1.8-10.5c-1.4-5.6-3.4-10.9-5.9-16.1c3.2,6.5,10.3,11.7,16.4,15.4c2.1-2.6,3.9-5.4,5.6-8.2
				c0.3-0.6,3.4-4.8,3.1-5.4c3.1,5.7,18.4,16.1,18.4,16.1c3.7-3.6,6.7-10.9,6.7-10.9c12.6,9.3,40.7,54.1,40.7,54.1
				C732.7,77.4,713.2,40.8,703.9,40.1"/>
			<path class="st0" d="M866.1,222.2c-2.3-10.1-37.1-47.2-55.4-54.1c0,0,15.6,25,20.5,50.8c-4.4-3.7-11.2-8.6-18.8-11.1
				c0,0,0.6,12.6-2.8,18.7c0,0-9.6-9.8-20.5-16.5c0,0-6.7,10.8-8.4,18.8c-7.8-11.9-20.6-28.4-36.1-36.4c0,0,0.9,10.9-1.9,26.5
				c14.6,3.5,27.8,7.8,37.7,11.2c6.7,3.8,18.1,7.4,20.9,7.6c0.4,0.1,9.6,2,8.6-4.7c0,0,11.4,8.8,20.6,5.7c3.1-1.1,4.7-2.6,5.5-4.4
				c4.5,2.9,12.6,7.2,19.2,5.7C865,237.8,868.3,232.3,866.1,222.2"/>
			<path class="st0" d="M741.9,218.7c-0.3-1-0.9-2.6-1.7-4.6c-7.3-13.1-31.2-49.7-76.7-62.5c0,0,28.1,28.5,25,60.2
				C706.2,211.6,725,214.7,741.9,218.7"/>
		</g>
		<g>
			<path d="M760.8,517.1c0,0-5.6,4.9-7.5,6.6c0,0,2.7-6.4,3.1-7.8c0,0-5.2-0.2-8.1,2c-2.9,2.2-6.9,4.8-5.9,4.8c0,0,1.3-0.1,2.3-0.2
				c0,0-3.3,3.9-8.8,4.2c0,0-3.4-0.8-7.3,1.2c-3.9,2-5.5,4-5.5,4s-2.1,2.4-2.5,5.4c0,0,3.8-2.7,5.7-3.4c0,0-3.4,4.8-3.4,7.6
				c0,0,2.4,0.5,5.4-0.7c3-1.1,3.9-0.2,3.9-0.2s-1.3,1.7-1.8,3.4c0,0,3.8-3.2,5.5-3.9c0,0,4.7,1.5,8.3-0.1c3.6-1.5,7.7-5.5,8.3-6.3
				c0.6-0.7,3-2.5,3.3-2.7c-0.2,0.3-2.1,2.9-2.6,4.8c0.3-0.2,2.7-1.7,3.7-2.3c1.1-0.6,3.3-2.9,3.8-4.3c0.4-1.5-2-3.8-2-3.8
				s3.1-4,3.1-5.6C761.8,518.2,760.8,517.1,760.8,517.1"/>
			<path d="M791.5,491.8c-0.8-1.2-1.9-1.2-1.9-1.2s-7,4.2-8.8,5c0,0,3.5-5.4,4-6.7c0,0-6,0.9-7.5,3c0,0-6.7,1.7-9.2,3.3
				c-2.4,1.7-4.3,4.2-4.3,5.5c0,0,3.9-1.8,5.8-2.7c0,0-5.2,6.3-6.8,7.8c0,0,1.8,1.9,4.1,2.5c2.2,0.6,3.3,0.6,4.1,0.5
				c0,0,0.1,1.3-1,2.5c0,0,6.3-3.8,9.2-6.8l-0.8,2.7c0,0,5-1.3,7.3-3.5c2.3-2.2,3.5-4.7,4.2-5.9
				C790.4,496.8,792.3,492.9,791.5,491.8"/>
			<path d="M711.3,315c-2.2-3-6.3-2.5-9.3-1.6c-3.3,1.8-9.8,5.1-19.3,9.6c-26.9,12.9-79.7,35.6-156.8,56.2
				c-26.5,7.1-55.9,13.9-88.1,20c-20.1,3.8-38.7,6.8-56,9.3c17.6-1.7,36.6-3.9,57.2-6.8c26.8-3.8,51.6-8.2,74.6-13
				c127-26.1,194.6-61.9,194.6-61.9S715.8,321.3,711.3,315"/>
			<path d="M562.9,468.2c0,0-3.7,2.4-5.8,3c0.4-0.4,4.7-4.8,2.3-5.4c0,0-2.1,2.5-6,4.2c-3.9,1.7-11,5.2-13.1,7.1
				c-2,1.8-3.3,5.7-3.4,6.1c0.2-0.3,1.4-1.9,2.5-2.1c1.1-0.2,4.2-2.2,4.6-2.5c-0.1,0.3-1.2,3-2.5,4c-1.3,1.2-4.6,2.7-6.3,4.8
				l1.9,0.6c0,0,0.5,3.8-0.3,7.5c0,0.1,0,0.3-0.1,0.4c-1,3.9-0.5,6.1,0.5,6.9c0,0,6.5-0.2,8.4-0.9c-0.7,0.3-3.6,1.8-5.5,3.3
				c0.1,0,0.6,0.2,0.9,0.9c0.4,0.8,0.2,2.7,1.9,3.1c1.7,0.4,4.8-1.1,5.6-1.5c0.8-0.4,5.1-3.1,6.5-3.8c0.8-0.4,1.1-1.7,1.3-2.9
				c4.1-1.1,8.2-2.3,12.3-3.6c0.1-0.1,0.2-0.1,0.2-0.2c0,0,0,0,0.1,0c0.1-0.1,0.1-0.1,0.1-0.1c-2.4,0.6-7.4,1.3-9.8,1.6
				c-0.7-0.7-2.2-2.2-2.9-3c0,0-1.4-1.8-2.2-6.6c-0.3-1.5,0.6-5,2.1-6.4c1.5-1.3,6.4-5.8,7.1-7.9C564,472.9,562.6,469.6,562.9,468.2
				"/>
			<path d="M558.9,550.2c-2.9-2.4-6.4-3.8-6.4-3.8s0.4-3,2.1-4.7c0,0-3.2,0.3-5.9,1.8c0,0-2.4-2.7-2.7-3.8c-0.3-1.1-3.8-5.6-5.9-7.2
				c-2.1-1.5-6.5-3.2-6.5-3.2s3.9-5.6,7.1-7.9c-0.8,0.3-11.7,5.1-16.1,9.7c0,0-0.4-3.4,0.7-5.1c0,0-5.3-2.4-11.4-1
				c-5.7,1.3-11.4,5.4-12,5.9c0.7-0.1,5.9-1.1,9.3-1.1c0,0-7.7,3.8-9.1,7.6c-1.4,3.8-1,8.2,3.2,10.1c4.2,2,7.9,1.7,7.9,1.7
				s10.1-4.8,16-6.2c0,0-7.7,5.1-9.7,8.3c0,0,5.5-0.2,7,0.8c1.5,1,2.7,3.5,5.6,4.5c3,1,6.1,1.3,6.1,1.3s-2.8,1.5-3.5,2.4
				c0,0,5.8-1.5,7.6-1.5c0,0,5.1-0.3,7.3-0.6c2.3-0.3,6.5,1.1,10,0C563.2,557.3,561.7,552.6,558.9,550.2"/>
			<path d="M613.7,494.8c-1-2.2-6.4-5.5-9.5-6.5c0,0-0.1,0.3-0.4,0.7c-0.1,0.1-0.2,0.3-0.3,0.4c-0.6,0.9-1.7,2.3-3.2,3.3
				c0-0.1,0.1-0.3,0.1-0.5c0.1-0.2,0.1-0.3,0.2-0.5c0-0.1,0.1-0.3,0.1-0.5c0.1-0.1,0.1-0.3,0.1-0.4c0.2-0.6,0.3-1.2,0.4-1.9
				c0.1-0.6,0.2-1.1,0.2-1.6c0,0-0.6-0.3-1.6-1c-1.3-0.9-3.1-2.3-4.8-3.9c-1.3-1.3-2.6-2.7-3.4-4.3c-2.7-5-2.5-8.7-2.5-8.7
				s-2.3,1-4.4,2.6c0,0,1.1-4.5,4.8-6.4c0,0,2.2-2.9,1.2-5c0,0-6.6,0.5-8.2,1.8c-1.5,1.3-6.5,3.1-6.5,3.1s1.7,0.3,3.4,0.2
				c0,0-1.8,4.3-3.5,5.8c-1.7,1.4-5.1,4.1-4.4,7.4c0,0,4-0.3,6-1.1c0,0-6.4,5.5-10.3,6.4l5.4,0.3c0,0-0.7,3.8,6.1,7.1
				c6.8,3.3,8.9,5.4,10.4,7.5c1.4,2.1,2,4.3,3.8,5.6c0,0,3.3-1.9,6-3.9c0,0-1.5,4.5-6.3,7.8c0,0,4.1-0.5,7-1.5c0,0,4,2,7.1,1.7
				c3-0.3,8.4-3.1,9-4.9C616.2,502.3,614.7,496.9,613.7,494.8"/>
			<path d="M631.9,532.6c0,0-3.5,0.9-4.9,1.4c0.3-0.4,2.4-3.4,2.9-5.1c0,0-3.2-2.1-5.7-2.7c-2.5-0.6-3.2-1.2-4.5-2.8
				c-1.4-1.5-4.8-3.4-8.2-2.9c-3.3,0.5-9.8,2.4-10.4,2.5c0.4-0.3,3.3-3.2,4.6-5.4c0,0-3.7-1.9-9.9-2.7c0,0-5.6,0-8,0.7
				c-2.4,0.7-4.6,1.9-4.8,3.4c-0.2,1.5,1.2,3.2,1.2,3.2s5-1.9,7.9-2.4c0,0-7.3,6.8-9.9,8.7c0,0,5.1-0.9,8.2-1.9c0,0-0.3,1.9-1.5,3.9
				c-1.2,2,1,4.1,2.1,4.6c1,0.5,5.8,2.4,7,3.2c0,0-3.1,2.6-6.5,4.4c0,0,6.7-0.7,10.1-1.7c0,0,2.7-0.2,5.6,1c2.9,1.2,3.9,1.2,6.3,0.9
				c2.4-0.3,2.7-1,4.2-1.2c1.6-0.2,3.1,0,3.1,0s-1,1.4-3.6,2.4c0,0,5.5-0.7,8-2.4c0,0,4.4-0.8,7-3.3
				C634.6,536.1,631.9,532.6,631.9,532.6"/>
			<path d="M731.2,498.3c0,0,1.2-3.1,1.9-4.4c0,0-4.1,1.7-7.7,1.7c0,0-1.6-2.4-5.4-1.6c-3.8,0.8-7.5,3.7-7.5,3.7s3.4-0.2,6.1-0.2
				c0,0-1.2,1.4-4.4,2c-3.2,0.7-5.2,1.2-7.5,3c0,0-0.6-1.8,1-3c0,0-5.1-1.4-6,3.8c-0.9,5.1-3.8,4.8-1.7,8.5c2,3.7,6.3,3.7,6.4,3.7
				c0,0-3.7,2.2-6,3.6c0,0,8.4-2.2,14.8-6.1c0,0-0.5,2.6-2,3.9c0,0,4.4,1.4,9.4-2.1c4.9-3.4,5.1-6.5,8.9-9
				C735.2,503.3,732.9,499.4,731.2,498.3"/>
			<path d="M674.9,495.4c0,0-2.3-1.9-3.1-3.2c-0.7-1.3-2.7-4.4-5-5.3c0,0-2.4-3.1-4.9-3.3c-2.6-0.2-4.3,0.4-6,0.5
				c-1.7,0.1-8.5,0-13.6,5.1c0,0,7.3-1,9.2-1c0,0-6.5,4.8-7.9,6.8c0,0,1.9,1.2,1.7,2.9c-0.2,1.7-0.7,3.3,1,5.1c0,0,6-2.1,9.5-2.6
				c0,0-3.9,3.9-7.8,7.2c0,0,2.4,0.2,5.3-0.9c0,0,1.2,0.2,3.9,2.4c2.7,2.2,8,1.6,11.1-0.4c3.1-2,6-6.1,6-6.1s3.6-1.9,6-5.8
				c0,0-6.2,4.1-11.1,4.7C669.2,501.7,673.7,497.7,674.9,495.4"/>
			<path d="M697.8,536.8c-0.2-2.4-1.9-4.3-4.8-4.6c-2.9-0.3-4.6,0.8-5.6-0.5c-1-1.4-2.6-2.7-4.1-3.1c0,0-9.9,6.1-14.2,8.4
				c0,0,3.6-4.6,4.4-6.5c0,0-6-0.5-10.1,1.2c-4.1,1.7-6.8,3.1-9.7,4.4c-2.9,1.2-6,5.3-6,5.3s4.8-2.2,7.3-2.9c0,0-4.3,4.8-4.4,6.3
				c0,0,3.2,0.9,4.8,2.7c1.4,1.8,5.7,2.9,8.9,3.1h0.7c3.3,0,11.3-4.3,15.2-7.2c0,0-3.4,4.8-6,7.2c0,0,6.1,0,7.7,0.5
				c1.5,0.5,5.1,0.9,7.7-0.3c2.4-1.1,3.8-3.6,3.9-3.9c-0.3,0.1-2.9,1.2-4.8,1.7c0,0,0-2.1,4.1-5
				C696.9,540.7,697.9,539.2,697.8,536.8"/>
			<path d="M382.5,269.2c0,0,3.3-6.6,3.6-12.2c0.2-5.6-4.3-7.4-8.9-9.2c-4.6-1.8-9.7-0.8-11.2,0.2c-1.5,1-4.1,0.8-4.1,0.8
				c1.5,2.1,7.9,6.4,7.9,6.4c-6.2-0.5-11.8-4.3-11.8-4.3s-9.7-1.5-14.8-1.5c-5.1,0-13,4.8-13,4.8c-3.1,0-7.4-2.3-7.4-2.3
				c2.3,3.9,12.2,11,12.2,11c-4.6-1-10.5-4.8-10.5-4.8c-1.8,1.8-10.5,7.1-12.8,8.9c-2.3,1.8-3.8,4.3-3.1,9.5c0.8,5.1,6.6,5.6,12,5.9
				c5.4,0.2,12.8,0.3,12.8,0.3c-2.2-1.7-3.6-4.7-3.8-5.1c1.1,1.5,9.1,5.4,9.1,5.4s8.7,2.5,14.6,5c5.9,2.6,11.2,2,16.6-1.3
				c5.4-3.3,10.5-13.5,10.5-13.5c4.1,1.7,10.6,2.7,11.4,2.8C388.6,274.2,382.5,269.2,382.5,269.2"/>
			<path d="M257.6,401.1c-2.1-1.4-2.3-2.8-3.9-4.8c-1.6-2.1-11.5-2.5-11.5-2.5c-6,2.1-13.7,2.1-13.7,2.1c3.9-1.1,9.2-2.8,9.2-2.8
				s-5.5-0.9-10.1-0.5c-4.6,0.5-7.1,5.5-9.6,9c-2.5,3.4,0.5,8.7,0.5,8.7c-1.4,0.9-3,1.4-3,1.4c5,0.4,14.4-0.2,14.4-0.2
				c-4.3,1.4-9.3,2.3-9.3,2.3s0.6,2.5,1.7,5c1.1,2.5,6.7,1.8,9,1.6c2.3-0.2,5.3,2.5,6.9,3.1c1.7,0.6,6.8-1.2,9.6-2.2
				c2.7-0.9,3-3,3-3c-2.5,0.2-6.2-0.5-6.2-0.5l9-2.5c0,0,6-3,6.9-6C261.3,406.4,259.7,402.5,257.6,401.1"/>
			<path d="M311.4,320.7c-1.6-5.5-0.3-8-0.3-13.5c0-5.5-6.8-7.7-17.4-9.3c-10.6-1.6-15.1,1.9-15.1,1.9l1.6,3.6
				c-3.5-0.6-13.8-1-13.8-1c6.8,2.9,15.4,9,15.4,9c-4.2-1.6-12.8-3.7-12.8-3.7s-2.6,1.9-5.2,4.3c-1.8,1.7-3.6,3.6-4.5,5.5
				c-2.3,4.5,1.6,11.3,3.2,13.8c1.6,2.6-1.3,4.2-1.3,4.2c2.6,1.9,4.5,5.1,4.5,5.1c-0.1,0-0.1,0-0.1,0c-5.7-1.3-11.1-1.6-11.1-1.6
				l0,0c-3.2,2.6-4.5,8-3.8,10.9c0.6,2.9,1.9,7.4,1.9,7.4h-0.1c-1.1-0.1-2.2,0-3.3,0.1c-1.9,0.2-3.5,0.7-3.9,0.8l0,0
				c12.2,1.6,18.3,6.1,18.3,6.1c-0.1,0-0.1,0-0.2,0c-3.2-0.6-8.8-0.9-8.8-0.9v0c0.1,0.3,0.5,3.6,2.9,5.2c0.9,0.6,2.8,0.6,5.1,0.3
				c1.3-0.2,2.7-0.5,4.1-0.8c0.7-0.2,1.3-0.3,2-0.5c2.4-0.7,4.8-1.4,6.5-1.9c0.1,0,0.1,0,0.1,0c4.8-1.6,7.1-8,7.1-8
				c1.3-4.2,3.4-7.2,5.8-9.4c0,0,0.1-0.1,0.1-0.1c1.1-1,2.3-1.8,3.6-2.6c0.5-0.3,1-0.6,1.5-0.8c0.5-0.2,1-0.5,1.5-0.7
				c1.5-0.6,3.1-1.1,4.6-1.5c1-0.3,2-0.5,2.9-0.7c0.5-0.1,1-0.2,1.4-0.3c0.9-0.2,1.6-0.5,2.3-0.9c2.2-1.2,3.7-3.5,4.8-5.7l0,0
				c1.7-3.4,2.2-6.9,2.2-6.9c-2.2-3.8-8.4-7.4-8.4-7.4C307.6,320.1,311.4,320.7,311.4,320.7"/>
			<path d="M236.3,530c0,0,3.2-1.8,3.4-6.2c0.2-4.4-0.9-6.3,0.2-9.3c1-3-0.7-5.1-4.9-7.5c0,0-4.2-0.9-8.4-0.5c0,0,3.2-1.6,4.6-1.8
				c0,0-4.6-3.8-11-2.3c0,0-7.9-4.7-13.8-3.9c-5.9,0.9-7.3,3.3-7.3,3.3s7.1,1.3,12.1,2c0,0-9.2,2.1-12.2,3.9c0,0,0.9,4.3,2.9,6.2
				c1.9,1.9,1.5,2.4,1.5,2.4s-7.6,1.8-10.4,2.8c0,0,8.9,1.4,11.7,2.4c0,0-1.1,2.2,2.4,5c3.5,2.8,6.5,5.6,7.9,7.2
				c1.4,1.6,8.2,1.7,12.1,0.7c3.9-1.1,3.8-1.1,5.9-1.1c2.1,0,11.1,0.9,11.1,0.9S242.2,531.5,236.3,530"/>
			<path d="M713.5,290.7c0-0.3-0.1-0.7-0.2-1c-0.1-0.2-0.1-0.4-0.2-0.6l0-0.1c-0.2-0.6-0.5-1.1-0.9-1.7c-2.1-3.1-6.3-2.6-9.3-1.7
				c-3.3,1.7-9.9,5-19.4,9.4c-36.3,17.1-119.5,51.1-245.7,73.6c-19.7,3.5-37.7,6.4-54.6,8.6c0,0-0.1,0-0.1,0c-0.1,0-0.3,0-0.5,0.1
				c-0.1,0-0.2,0-0.2,0.1c3.1-0.3,6.4-0.6,9.6-0.9c0.5,0,1-0.1,1.5-0.1c18.4-1.9,36.7-4,55-6.6c23.1-3.2,46-7.1,68.9-11.6
				c20.8-4.1,41.5-9.2,62.1-14.4c8.7-2.2,17.3-4.5,25.9-6.9c1.3-0.4,2.7-0.8,4-1.1c8.3-2.4,16.6-4.9,24.9-7.5
				c13.7-4.4,27.3-9.2,40.7-14.5c0.8-0.3,1.7-0.7,2.5-1c1.1-0.5,2.3-0.9,3.4-1.4c5.8-2.4,11.6-4.8,17.4-7.4c3.3-1.5,6.6-3,9.9-4.5
				c0.1,0,0.1,0,0.2-0.1c0.2-0.1,0.3-0.1,0.5-0.2c0.1-0.1,0.2-0.1,0.2-0.1S714,295.5,713.5,290.7"/>
			<path d="M367.7,374.9c-2.2-3.4-11.3-4.6-16.1-4c0,0-9.1-4.1-14.2-3.4c-5.1,0.7-14.5,4.2-14.5,4.2s2.9,1.5,5.7,1.9
				c0,0-1.7,3.5-5.9,7.4c-4.2,4-9.6,8.9-10.5,12.2c0,0,5.5,2.3,9.5,3.3c0,0-6.7-0.2-10.4,1.4c0,0-0.3,7,1.1,9.8
				c1.4,2.8,2.3,5.1,2.3,6.6c0,1.4-0.3,1.3,1.8,2c2.1,0.7,12.2,2.4,12.2,2.4s-0.9,2.3-7.3,3.3c0,0,5.6,2.1,12,1.2
				c6.3-0.9,10.5-8.4,12.6-12.4c2.1-4,6.1-8.4,8.7-10.3c2.6-1.9,12.3,0.5,12.3,0.5s-6.1-6.1-10-5.8c0,0,1.9-7.1,5.2-9.9
				C365.5,382.5,370,378.3,367.7,374.9"/>
			<path d="M221.1,330.9c-2.9-2.3-10.3-8.4-14.1-12.9c-3.9-4.5-8-9.3-16.7-7.1c-8.7,2.2-10,14.8-10,14.8c2.3,3.2,12.6,8,12.6,8
				c-5.5,0-12.4-1.2-12.4-1.2c0.1,2.6,0.5,10.2,0.5,16.4c0,6.1-3.2,11.9-3.2,11.9c2.2,2.3,7.7,5.1,7.7,5.1
				c-10.6-1.6-16.1-0.3-16.1-0.3c2.9,0,7.1,2.3,7.1,2.3c-0.6,3.2,0.6,7.7,2.2,9.3c1.6,1.6,6.4,7.7,8.7,9.3c2.2,1.6,8,0.6,13.8-0.3
				c5.8-1,6.7-4.5,6.7-4.5c2.9-0.6,5.8-0.3,5.8-0.3c-3.5-2.6-12.5-5.5-12.5-5.5c4.2-0.7,7.7-0.7,7.7-0.7s2.6-9.3,3.9-14.1
				c0.6-2.1,1.6-3.8,3-5.5c-2.5-1.5-6.8-3.9-10.4-5.1c0,0,6.2,0.2,12.8,2.5c1.3-1.3,2.7-2.6,4.2-4.1
				C226.9,344.4,224,333.1,221.1,330.9"/>
			<path d="M479.9,495.5c0,0,2.5-2.8,2.1-5.7c-0.4-2.9-1.4-3.4-2.3-5.3c-0.8-1.9-3.2-3.5-5.8-4.7c0,0,3.3-1.4,6.7-3.4
				c-0.8,0.1-7.2,0.9-9,1.1c0,0-3.6-2.2-5.2-4.6c-1.6-2.4-4.5-4.6-8.7-4.8c0,0-5.2,1.5-7.3,2c0,0,2.7-2.3,3.8-3.5c0,0-3-1.2-5.9-0.6
				c-2.9,0.6-9.5,3.4-11.5,4c0,0,4.8-0.3,6.2-0.5c0,0-9.6,7.7-11,9.4c0,0,4.1-0.7,6-1.1c-0.7,0.4-6.1,3.7-6.2,8
				c-0.1,2.6,1.7,4.6,3.9,5.8c2.2,1.2,4.6,1.3,5.5,2.9c0.9,1.6,1.1,3.6,1.1,3.6s7.1-1.4,10.3-2.1c0,0-2.8,4.2-4.6,4.9
				c0,0,0.6,1.6,2.9,2.7c2.3,1.1,6.4,2.2,8.8,4c2.4,1.9,5.1,1.4,7,1c1.8-0.3,5.3-2.5,9.5-3.8c0,0-2.2,1.8-2.9,3.3
				c0,0,4.5-0.3,6.8-1.3c2.2-1,3.4-3.3,2.3-5.1c-1.1-1.7-2.4-1.9-2.5-3.1c-0.1-1.2,3.1-3.3,4.4-4.4
				C484.2,494.3,482.2,494.9,479.9,495.5"/>
		</g>
		<path class="st2" d="M367.7,374.9c-2.2-3.4-11.3-4.6-16.1-4c0,0-9.1-4.1-14.2-3.4c-5.1,0.7-14.5,4.2-14.5,4.2s2.9,1.5,5.7,1.9
			c0,0-1.7,3.5-6,7.4c-4.2,4-9.6,8.9-10.5,12.2c0,0,5.5,2.3,9.5,3.3c0,0-6.7-0.2-10.4,1.4c0,0-0.3,7,1.1,9.8
			c1.4,2.8,2.3,5.1,2.3,6.6c0,1.4-0.3,1.3,1.8,2c2.1,0.7,12.2,2.4,12.2,2.4s-0.9,2.3-7.3,3.3c0,0,5.6,2.1,12,1.2
			c6.3-0.9,10.5-8.4,12.6-12.4c2.1-4,6.1-8.4,8.7-10.3c2.5-1.8,11.4,0.3,12.2,0.5c-0.6-0.6-6.3-6-10-5.8c0,0,1.9-7.1,5.2-9.9
			C365.5,382.5,370,378.3,367.7,374.9L367.7,374.9z M309.2,439.7c-3.1-3.6-10.3-2.4-10.3-2.4s-7.2-5.4-15.1-4.2s-14.2,4.2-14.2,4.2
			s-7.2,1.6-11.2,3.8c0,0,9.8-1,17.5-0.5c0,0-8.3,2.5-10.7,5.5c0,0,2.8,1.8,2.3,4.3c-0.5,2.6-1.3,6.2-0.1,8.2c0,0,7.2-3.5,10.8-4.4
			c0,0-4.6,3.9-6.3,7.3c0,0,3.1,0,5.9,2.3c2.8,2.3,5.8,6.5,11.1,6.4c0,0,2.4,2.5,4.9,3c2.4,0.5,4.5,0.5,4.5,0.5s2.8-1.3,7.7-2.2
			c0,0-6.6,4.4-8.1,6.3c0,0,3-1,5.4-0.9c0,0,2.7,0.8,7.1-0.4c4.4-1.1,7.3-4.5,7.3-7.3s-4-6.6-2.6-9c1.3-2.2,10.4-4.5,11.7-4.8
			c-1,0.1-6.9,0.6-10.4,0.1c0,0-2.2-2.2-4.6-2.3c-2.4-0.1-3-1.9-2.4-3.4C309.8,448.4,312.3,443.3,309.2,439.7L309.2,439.7z
			 M257.6,401.1c-2.1-1.4-2.3-2.8-3.9-4.9c-1.6-2.1-11.5-2.5-11.5-2.5c-6,2.1-13.7,2.1-13.7,2.1c3.9-1.2,9.2-2.8,9.2-2.8
			s-5.5-0.9-10.1-0.5c-4.6,0.5-7.1,5.5-9.6,9c-2.5,3.4,0.5,8.7,0.5,8.7c-1.4,0.9-3,1.4-3,1.4c5,0.5,14.5-0.2,14.5-0.2
			c-4.3,1.4-9.3,2.3-9.3,2.3s0.6,2.5,1.7,5c1.2,2.5,6.7,1.8,9,1.6c2.3-0.2,5.3,2.5,6.9,3.1c1.7,0.6,6.8-1.2,9.6-2.2c2.7-0.9,3-3,3-3
			c-2.5,0.2-6.2-0.5-6.2-0.5l8.9-2.5c0,0,6-3,6.9-6C261.3,406.4,259.7,402.5,257.6,401.1z M221.1,330.9c-2.9-2.3-10.3-8.4-14.1-12.9
			c-3.9-4.5-8-9.3-16.7-7.1c-8.7,2.2-10,14.8-10,14.8c2.3,3.2,12.6,8,12.6,8c-5.5,0-12.4-1.2-12.4-1.2c0.1,2.6,0.5,10.2,0.5,16.4
			c0,6.1-3.2,11.9-3.2,11.9c2.2,2.3,7.7,5.1,7.7,5.1c-10.7-1.6-16.1-0.3-16.1-0.3c2.9,0,7.1,2.3,7.1,2.3c-0.6,3.2,0.6,7.7,2.2,9.3
			c1.6,1.6,6.5,7.7,8.7,9.3c2.2,1.6,8,0.6,13.8-0.3s6.7-4.5,6.7-4.5c2.9-0.6,5.8-0.3,5.8-0.3c-3.5-2.6-12.5-5.5-12.5-5.5
			c4.2-0.7,7.7-0.7,7.7-0.7s2.6-9.3,3.9-14.1c0.6-2.1,1.6-3.8,3-5.5c-2.5-1.5-6.8-3.9-10.4-5.1c0,0,6.2,0.2,12.8,2.5
			c1.3-1.3,2.7-2.6,4.2-4.1C226.9,344.4,224,333.1,221.1,330.9L221.1,330.9z M390.5,436.2c0.5,1.2,1.2,2.1,2.8,2.1
			c1.7,0,5.1-0.5,6.3,0.4c1.2,0.9,1.4,3.2,3.5,4.5c2.1,1.3,5.8,0.3,9.1-0.6c3.4-0.9,7.5-2.4,7.5-2.4c-3.9-0.3-7.9-0.3-7.9-0.3
			c4.8-1.2,9.4-3.5,13.8-6.2c4.5-2.8,2.7-5.4,6.4-6.8c3.7-1.4,2.3-2.7,2.3-2.7c-4.4,0.9-11.9,1.5-11.9,1.5c5.6-2.2,9.9-3.8,9.9-3.8
			s-0.8-0.7-1.8-0.8c-1-0.1-2.8,1-4.4,0.8c-1.5-0.3-2.7-2.8-4.4-4.3c-1.7-1.4-3.8-1-3.8-1s-0.5-2.1-2.2-3.4
			c-1.7-1.3-4.4-0.6-7.9-0.1c-3.5,0.5-4.6,7.9-4.6,7.9c-3.6,3.2-9.1,6.2-9.1,6.2c2.3-0.1,5.3-0.6,5.3-0.6c-1.2,1.9-8,5.1-8,5.1
			c-1.1,0.5-4.6,2.4-4.6,2.4c3.5-0.3,14.1-2.7,14.1-2.7C397.5,433.5,390.5,436.2,390.5,436.2z M435.7,491.5c2.2,1.2,4.6,1.3,5.5,2.9
			c0.9,1.6,1.1,3.6,1.1,3.6s7.1-1.4,10.3-2.1c0,0-2.8,4.2-4.6,4.9c0,0,0.6,1.6,2.9,2.7c2.3,1.1,6.4,2.2,8.8,4c2.4,1.9,5.2,1.4,7,1
			c1.8-0.3,5.3-2.5,9.5-3.8c0,0-2.2,1.8-2.9,3.3c0,0,4.5-0.3,6.8-1.3c2.2-1,3.4-3.3,2.3-5.1c-1.1-1.7-2.4-1.9-2.5-3.1
			c-0.1-1.2,3.1-3.2,4.4-4.4c0,0-2,0.6-4.3,1.2c0,0,2.5-2.8,2.1-5.7c-0.5-2.9-1.4-3.4-2.3-5.3c-0.8-1.9-3.2-3.5-5.8-4.7
			c0,0,3.3-1.4,6.7-3.4c-0.8,0.1-7.2,0.9-9,1.1c0,0-3.6-2.2-5.2-4.6c-1.6-2.4-4.5-4.6-8.7-4.8c0,0-5.2,1.5-7.3,2
			c0,0,2.7-2.3,3.8-3.5c0,0-3-1.2-5.9-0.6c-2.9,0.6-9.5,3.4-11.4,4c0,0,4.8-0.3,6.2-0.5c0,0-9.6,7.7-11,9.4c0,0,4.1-0.7,6-1.1
			c-0.7,0.4-6.1,3.7-6.2,8C431.7,488.4,433.5,490.3,435.7,491.5L435.7,491.5z M559.3,349c-11,10.3-21.8,20.6-33.4,30.1
			c-26.5,7.1-55.9,13.9-88.1,20c-20.1,3.8-38.7,6.8-56,9.3c17.6-1.7,36.6-3.9,57.2-6.8c26.8-3.8,51.6-8.3,74.6-13
			c-12.5,8.9-25.8,16.3-38.8,24.4c-4.5,2.8-9.1,5.7-13,9.3c-2,1.8-4.1,4.2-4.3,7c-0.1,0.5-0.1,1.1,0,1.6c0,0,0,0.1,0,0.1
			c0,0.3,0.1,0.7,0.2,1c0,0.1,0.1,0.2,0.1,0.3c0,0.1,0.1,0.2,0.1,0.2c0.1,0.3,0.2,0.6,0.3,0.9c0.1,0.2,0.1,0.3,0.2,0.5
			c1.1,2.7,3.2,5.1,5.2,6.8c0.3,0.2,0.6,0.5,0.9,0.8c0.2,0.2,0.4,0.3,0.6,0.5c0.3,0.2,0.6,0.5,0.8,0.7c0.3,0.2,0.6,0.5,0.9,0.7
			c0,0,0,0,0.1,0c0.1,0.1,0.2,0.2,0.3,0.3c0.1,0.1,0.1,0.1,0.2,0.2c0,0,0.1,0.1,0.1,0.1c0.1,0.1,0.2,0.1,0.2,0.2l0.7,1.5
			c17.7,31.8,62,39.9,62,39.9c-4.6,6.4-10,9.9-10,9.9c6,2.1,13.4,0.8,16.3,0.2c0,0.1,0,0.3-0.1,0.4c-1,3.9-0.5,6.1,0.5,6.9
			c0,0,6.5-0.2,8.4-0.9c-0.7,0.3-3.6,1.8-5.5,3.3c-7.5,1.8-15,3.4-22.4,4.9c-30.4,5.9-61.5,8.2-92.4,9.3c-5.5,0.2-11,0.3-16.6,0.3
			c4.2-1.8,7.6-5.5,10-9.4c-6.2,0.5-12.3,0.8-18.5,1.1c2.8-1,4.8-1.9,5.3-2.2c0,0-5.1,0.8-8.6,0.9c0,0,1.7-1,2.7-2
			c0,0,0.2-2-0.1-3.2c-0.3-1.2-0.9-2.9-0.2-4.8c0.7-1.9,2.6-6.3,2.9-7.8c0,0-5.9,0.5-9.4,0.6c0,0,9.6-4.6,12.5-6.4
			c0,0-1.9,0.1-3.2,0c0,0-3.3-1.9-3.9-3.2c-0.7-1.3,0-6.9-3.2-9.5c-3.2-2.5-7.4-1.9-8.8-3.5c-1.4-1.5,0.8-3.7,0.8-3.7
			s-6.9,1.6-9.1,1.8c0,0,3.3-3.3,5.4-4.9c0,0-2.7,0.6-5.5,0.2c-2.8-0.4-11.5-1.1-16.1,2.6c-4.6,3.7-2.2,6.6-1.1,7.7s1.3,2.6-1.7,6.2
			c-3.1,3.6-2.6,3.6-2,5.5c0,0,10.8,0,14.6-1.1c0,0-10.5,5.9-14.6,6.8c0,0,0.2,1.3,2.5,3.1c2.3,1.7,5.4,3.1,6.4,7.5
			c0,0,7.8-1.5,12.2-2.2c-4.8,1.8-7.1,4.6-15,6.8c0,0,5.5,0.3,7.6,0.5c0,0,3.8,0.7,5.5,2.3c0.7,0.7,1.6,1.5,2.8,2.3
			c-15.3-0.3-30.6-1.7-45.6-5.3c-24-5.6-47.9-11.6-71.9-17.5c-0.2-0.1-0.4-0.1-0.6-0.2c4,2.5,7.6,6.1,10.8,9.6
			c-7.1-1.8-14.3-3.2-21.5-4.5c-11.8-2.1-23.9-3.9-35.9-3.2c-19.8,1.1-39.7,5.7-59,10.1l-5.1,1.2c0.4-0.3,7-4.4,9.2-5.7
			c9.5-5.6,19.4-10.7,29.7-14.6c3.1-1,6.3-2.2,9.4-3.2c3.5-1.1,7.1-2,10.7-2.8c3.3-0.7,6.6-1.3,9.9-1.8c5.9-0.9,11.9-1.2,17.9-1.1
			c6,0.1,12,1,17.9,2.1c6.9,1.3,13.7,2.8,20.4,4.7c1.1,0.3,2.2,0.6,3.3,1c9.3,2.8,18.2,6.9,26.9,11.4c2.3,1.1,4.5,2.3,6.7,3.5
			c0.1,0,0.1,0.1,0.2,0.1c0.1,0,0.1,0,0.2,0.1c-0.1-0.2-16.1-13.4-23.9-18.2c-1.7-1-3.4-2.1-5.2-3.1c-2.8-1.6-5.8-3.2-8.7-4.7
			c-2.5-1.3-5-2.5-7.5-3.6c-1.3-0.6-2.7-1.1-4-1.7c-0.1,0-0.1-0.1-0.2-0.1c-0.7-0.3-1.4-0.7-2.1-1.1c-4.6-2.8-9.3-5.5-14.2-7.8
			c-0.1,0-0.1-0.1-0.2-0.1c-1.6-0.8-3.2-1.5-4.9-2.2c0,0-0.1,0-0.1-0.1c-0.1,0-0.1,0-0.1-0.1c-4.4-1.9-9-3.7-13.5-5.3
			c-3.6-1.3-7.2-2.4-10.9-3.5c-26-7.6-41.9-7.4-41.9-7.4c1.8-0.8,4.1-1.5,6.3-2c7.8-1.8,26.6-3.4,27.5-3.7c0.1,0,0.1,0,0.2,0.1
			c-0.1-0.1-0.5-0.6-1.5-1.5c-11.7-10.7-26.7-17.2-41.9-21.4c-8.2-2.2-16.6-3.9-25-4.9c-1.3-0.2-2.6-0.3-3.9-0.4
			c-0.5-0.2-0.9-0.4-1-0.7c-4.2-13-4.3-27-3.6-40.4c0.4-7.2,1.3-14.5,2.6-21.6c0,0,0-0.1,0-0.1c0.9,0.9,2.1,1.9,3.3,3
			c0,0,3.9,3.2,10.6,4.2c0,0-0.1,0.1-0.3,0.3c-0.1,0.1-0.2,0.2-0.3,0.3c-1.4,1.2-3.6,1.8-5.6,2.1c-0.5,0.1-1,0.2-1.5,0.2
			c0.1,0,0.6,0.1,1.3,0.2c4.2,0.9,9.2,1.7,13.3,0.8c0.1,0,0.2,0,0.3-0.1c2.5-0.6,4.7-2.2,6-4.3c0.1-0.2,0.2-0.5,0.3-0.7
			c0.2-0.3,0.3-0.6,0.4-0.9c0-0.1,0.1-0.2,0.1-0.2c0.1-0.3,0.2-0.6,0.3-0.9c0.1-0.3,0.1-0.6,0.2-0.9c0-0.1,0-0.1,0-0.2
			c0-0.3,0.1-0.6,0.1-0.9c0-1.1-0.2-2.2-0.7-3.2c-1.6-3.5-4.5-10.3-4.5-12.9c0-1.2-6-5.4-7.7-7c-0.1-0.1-0.2-0.2-0.3-0.3
			c0.2,0,0.3,0,0.5,0c0.1,0,0.3,0,0.4,0.1c1.8,0.2,3.5,0.5,5.3,0.7c1,0.1,1.9,0.2,2.6,0.2h0.1c0,0,4.2-7.7,7.4-10.3
			c3.2-2.6,6.1-8,7.1-12.2c0,0,0.1,0,0.1,0c0.4,0,0.9,0.1,1.3,0.3c0.1,0,0.1,0.1,0.2,0.1c0.2,0.1,0.3,0.1,0.6,0.2
			c0.6,0.2,1,0.5,1.2,0.6c0.6,0.2,1.2,0.5,1.8,0.8c0.5,0.2,1.1,0.6,1.7,0.9c0.1,0,0.1,0.1,0.2,0.1c0,0-6.1-8.9-13.2-13.2
			c0.5-0.1,6.1-0.9,8.9,0.3c0,0,0.1,0,0.1,0c0,0,0.5-10.7-9.9-22.2c-0.7-0.8,7.7-10.8,12.9-16.7c0.2-0.2,0.4-0.5,0.6-0.7
			c0.2-0.2,0.3-0.4,0.5-0.5c0.4-0.5,0.8-0.9,1.1-1.2c0.3-0.4,0.6-0.7,0.7-0.8c0.4,0.3,3.2,2.8,4.7,4c2.5,2,5.2,3.9,7.9,5.7
			c2.5,1.7,8.4,4.8,8.4,4.8c0,0,0.1,0,0.1,0.1c0.3,2.6,1.2,4.2,1.9,5.1c1,1.2,2.5,1.5,3.7,2.2c0.5,0.3,1.1,0.6,1.6,1.2
			c0.2,0.2,0.4,0.4,0.6,0.7c0.1,0.2,0.2,0.3,0.3,0.5c0.1,0.2,0.3,0.5,0.4,0.7c0.1,0.2,0.2,0.4,0.3,0.6c0.3,0.7,0.6,1.5,0.8,2.4
			c0.4,1.6,1.8,3.1,1.8,3.1c0,0-0.1,0-0.1,0c-1.9,0.7-3.8,1.3-5.6,1.9c-3,0.9-6.1,1.7-9.1,2.4c-2,0.5-4.1,1-6.2,1.4
			c16,10.6,33.7,18.5,51.8,24.6c6.1,2.1,19,5.7,19,5.7c-1.8,1.7-3.6,3.6-4.5,5.5c-2.3,4.5,1.6,11.3,3.2,13.8
			c1.6,2.6-1.3,4.2-1.3,4.2c2.6,1.9,4.5,5.1,4.5,5.1c-0.1,0-0.1,0-0.1,0c-5.7-1.3-11.1-1.6-11.1-1.6l0,0c-3.2,2.6-4.5,8-3.8,10.9
			c0.6,2.9,1.9,7.4,1.9,7.4h-0.1c-1.1-0.1-2.2,0-3.3,0.1c-1.9,0.2-3.5,0.7-3.9,0.8l0,0c12.2,1.6,18.3,6.1,18.3,6.1
			c-0.1,0-0.1,0-0.2,0c-3.2-0.6-8.8-0.9-8.8-0.9v0c0.1,0.3,0.5,3.6,2.9,5.2c0.9,0.6,2.8,0.6,5.1,0.3c1.3-0.2,2.7-0.5,4.1-0.8
			c0.7-0.2,1.3-0.3,2-0.5c2.4-0.7,4.8-1.4,6.5-1.9c0.1,0,0.1,0,0.1,0c4.8-1.6,7.1-8,7.1-8c1.3-4.2,3.4-7.2,5.8-9.4
			c0,0,0.1-0.1,0.1-0.1c1.1-1,2.3-1.8,3.6-2.6c0.5-0.3,1-0.6,1.5-0.8c0.5-0.2,1-0.5,1.5-0.7c1.5-0.6,3.1-1.1,4.6-1.5
			c1-0.3,2-0.5,2.9-0.7c0.5-0.1,1-0.2,1.4-0.3c0.9-0.2,1.6-0.5,2.3-0.9c2.2-1.2,3.7-3.5,4.8-5.7c8.5,0.9,17,1.7,25.5,2.2
			c-1.1,1.3-2.2,2.4-3.4,3.5c-8.5,7.9-20.5,12.9-31.2,16.4c21.4,2.8,42.9,3.7,64.4,4.4c12.3,0.5,24.6,0.7,36.9,0.9
			c-2.6,2.2-6.2,3.4-9.2,4.6c7.2,0.8,14.8,0.1,22-0.4c-6.2,3.1-13.1,4.8-19.7,6.8c-4.6,1.4-9.3,2.7-14,3.9c0.1,0,0.3,0,0.6,0
			c-0.1,0-0.2,0-0.2,0.1c3.1-0.3,6.4-0.6,9.6-0.9c0.5,0,1-0.1,1.5-0.1c18.4-1.9,36.7-4,55-6.6c23.1-3.2,46-7.1,68.9-11.6
			c20.8-4.1,41.5-9.2,62.1-14.4c8.7-2.2,17.3-4.5,25.9-6.9C591.4,340.9,576,345,559.3,349"/>
		<g>
			<path d="M279.9,242.9c0,0-3-0.7-9.1-5.4c-6.2-4.7-7.6-10.8-7.6-10.8c3.2,2.9,7.6,5.6,7.6,5.6c-1.3-2-0.7-3-3.5-9.1
				c-2.7-6.2-9.3-5.9-14-6.4c-4.7-0.5-12.3,5.1-12.3,5.1c-2.7-1-7.6-5.6-7.6-5.6c2.2,7.4,10.3,15.2,10.3,15.2
				c-3.4-1.5-9.6-5.9-9.6-5.9c-3.4,2.7-15.5,6.2-23.6,10.6c-8.1,4.4-7.1,13-7.1,13c0.5,5.2,4.9,12.1,4.9,12.1
				c-2.7-1.5-5.6-4.7-5.6-4.7c-0.1,1-0.1,1.9,0,2.7v0.1c0.3,2.6,1.2,4.2,1.9,5.1c1,1.2,2.5,1.5,3.7,2.2c0.5,0.3,1.1,0.6,1.6,1.2
				c0.2,0.2,0.4,0.4,0.6,0.7c0.1,0.2,0.2,0.3,0.3,0.5c0.1,0.2,0.3,0.5,0.4,0.7c0.1,0.2,0.2,0.4,0.3,0.6c0.3,0.7,0.6,1.5,0.8,2.4
				c0.4,1.6,1.8,3.1,1.8,3.1c2.8,3.2,7.8,5.5,7.8,5.5c-2.6-3.3-2.9-6.7-3-7.5c0,0,0.1,0,0.1,0c5.6,8.9,15.2,8.2,15.2,8.2
				c-2-0.5-4.4-2-4.4-2s4.2-1.5,8.4-2.7c4.2-1.3,13.5-2,18.9-2c5.4,0,15.5-2,15.5-2c4.4,1.5,18,4.9,18,4.9c-4.7-2.9-13-7.1-13-7.1
				C294.4,262.1,279.9,242.9,279.9,242.9"/>
			<path d="M396.6,191.8c-3.2-5.6-7.6-6.1-7.6-6.1l1.1,2.1c-3.8-1-7.8,1.1-8.2,1.4c2.3-3.3,2.6-7.5,2.6-7.5l-1.5-2.8l5.1,0.4
				l-2.9-3.6c0.9-8.3-6-11.4-14.1-10.8c-8,0.6-17.8,8.9-17.8,8.9c0.6,3.2,6.6,11.8,6.6,11.8c-4.3-1.3-12.1-6.8-12.1-6.8
				c-7.4,4.6-5.9,3-26.9,5.9c-21,2.9-31.5,8.5-31.5,8.5c-0.1,3.8,2.7,8.4,2.7,8.4c-5-2.4-7.5-6.3-7.5-6.3c-1.8,1.3-7.9,7.2-5.5,15.6
				c2.4,8.3,14.7,9.6,14.7,9.6c4,3.2,10.1,3.3,10.5,3.3c-1.4-0.8-3.7-2.4-3.7-2.4c3.4,0.7,22-1.3,30-1.9c8-0.6,16.7-0.6,16.7-0.6
				l8.2,1.9c-3.5-2.2-13.3-8.6-14.5-9.3c6.1,3.8,20.9,6.7,20.9,6.7s2.6,0.3,6.4-1.4c3.8-1.7,5.4-7.9,5.4-7.9
				c3.3,3.2,8.7,1.3,14.3-4.5c5.6-5.8,5.8-11.9,5.8-11.9L396.6,191.8"/>
			<path d="M392.6,492.9c0,0,9.6-4.6,12.5-6.4c0,0-1.9,0.1-3.2,0c0,0-3.3-1.9-3.9-3.2c-0.7-1.3,0-7-3.2-9.5
				c-3.2-2.5-7.4-1.9-8.8-3.5c-1.4-1.5,0.8-3.7,0.8-3.7s-6.9,1.6-9.1,1.8c0,0,3.3-3.3,5.4-4.9c0,0-2.7,0.6-5.5,0.2
				c-2.8-0.4-11.5-1.1-16.1,2.6c-4.6,3.7-2.2,6.6-1.1,7.7c1.1,1.1,1.3,2.6-1.7,6.2c-3.1,3.6-2.6,3.6-2,5.5c0,0,10.8,0,14.6-1.1
				c0,0-10.5,5.9-14.6,6.8c0,0,0.2,1.3,2.5,3.1c2.3,1.7,5.4,3.1,6.4,7.5c0,0,7.8-1.5,12.2-2.2c-4.8,1.8-7.1,4.6-14.9,6.8
				c0,0,5.5,0.3,7.6,0.4c0,0,3.8,0.7,5.5,2.3c0.7,0.7,1.6,1.5,2.8,2.3c1.7,1.1,3.8,2,6.8,2.1c5.5,0.2,10.8-1.1,14.5-2.4
				c2.8-1,4.8-1.9,5.3-2.2c0,0-5.1,0.8-8.6,0.9c0,0,1.7-1,2.7-2c0,0,0.2-2-0.1-3.2c-0.3-1.2-0.9-2.9-0.2-4.8
				c0.7-1.9,2.6-6.3,2.9-7.8C402,492.4,396.1,492.9,392.6,492.9"/>
			<path d="M434.4,424.1c-4.4,0.9-11.9,1.5-11.9,1.5c5.6-2.2,9.9-3.8,9.9-3.8s-0.8-0.7-1.8-0.8c-1-0.1-2.9,1-4.4,0.8
				c-1.5-0.3-2.7-2.9-4.4-4.3c-1.7-1.4-3.8-1-3.8-1s-0.5-2.1-2.2-3.4c-1.7-1.3-4.4-0.6-7.9-0.1c-3.5,0.5-4.6,7.9-4.6,7.9
				c-3.6,3.2-9.1,6.2-9.1,6.2c2.3-0.1,5.3-0.6,5.3-0.6c-1.2,1.9-8,5.1-8,5.1c-1.1,0.5-4.6,2.5-4.6,2.5c3.5-0.3,14.2-2.7,14.2-2.7
				c-3.5,2.2-10.4,4.9-10.4,4.9c0.5,1.2,1.2,2.1,2.8,2.1c1.7,0,5.1-0.5,6.3,0.4c1.2,0.9,1.4,3.2,3.5,4.5c2.1,1.3,5.8,0.2,9.1-0.6
				c3.4-0.9,7.5-2.4,7.5-2.4c-3.9-0.3-7.8-0.3-7.8-0.3c4.7-1.1,9.4-3.5,13.7-6.2c4.5-2.8,2.7-5.4,6.4-6.8
				C435.8,425.4,434.4,424.1,434.4,424.1"/>
			<path d="M362.8,551.2c-0.5-4.6-6.4-8.7-8-9.7c-1.6-1.1-4.5-3.2-5.4-6.1c-0.9-3-4-4.9-6-5.1c-1.9-0.2-4.5-3-4.5-3
				c2.7-0.7,6.6,0.5,7.1,0.7c-0.4-0.3-3.7-3-5.2-4.2c-1.6-1.2-6.8-2.5-8.7-2.3c-1.9,0.2-3.9,0-9.8,0.2c-6,0.2-12.8,0.7-14.8,4.5
				c-1.9,3.6-2.8,3.7-2.9,3.7c-4.2-1.9-12.9-1.8-12.9-1.8c8.4,3.5,15.6,11.4,15.6,11.4c-4.5-1.9-9.7-2.7-9.7-2.7
				c-0.7,1.2-0.9,2.5-0.7,5.1c0.2,2.6,2.6,4,2.6,4s0.2,1.4,1.9,3.7c1.8,2.3,7.7,5.4,11,5.6c3.3,0.2,7.5,1.9,9.8,3.5
				c2.3,1.6,10.3,4.9,14.3,4.6c4-0.3,5.6-1,5.6-1c2.3,0.2,7.3,1,7.3,1c-6.6-5.3-10.8-7.2-10.8-7.2c7.7,0.9,14.4,4,14.4,4
				C360.8,559.5,363.3,555.8,362.8,551.2"/>
			<path d="M462.8,558c-0.3-2.5-2.1-8.9-5.5-10.4c-3.4-1.4-4.3-1.7-4.3-1.7v-7.4c0,0-5.1,4.5-6.1,6c0,0-1.4-0.1-4.9,0.5
				c-3.6,0.5-7.9-5.5-14.5-5c0,0-10.9,2.3-12.7,6.8c-1.8,4.4-1.1,8.2-0.4,9.5c0,0,3.8-4.8,6.4-6.2c0,0-2.5,5.7-2.5,9.3
				c0,0,2.1,1.6,2.5,3.2c0.4,1.6,4.5,4.1,7,4.6c2.5,0.5,5-0.5,5-0.5s2.9-6.7,5.1-9.2c0,0-0.9,13.1,0.2,17.7c0,0,2.7-6,4.2-8
				c0,0,3,0.3,7.3,1c4.3,0.7,8,0.3,10.5-2.1C462.5,563.5,463.2,560.5,462.8,558"/>
			<path d="M326.8,455.4c-1,0.1-6.9,0.6-10.4,0.1c0,0-2.2-2.2-4.6-2.3c-2.4-0.1-3-1.9-2.4-3.4c0.5-1.4,3-6.6-0.1-10.2
				c-3.1-3.6-10.3-2.4-10.3-2.4s-7.2-5.4-15.1-4.2c-7.9,1.2-14.2,4.2-14.2,4.2s-7.2,1.6-11.2,3.7c0,0,9.8-0.9,17.5-0.5
				c0,0-8.2,2.5-10.6,5.5c0,0,2.8,1.8,2.3,4.3c-0.5,2.6-1.3,6.2-0.1,8.2c0,0,7.2-3.5,10.8-4.4c0,0-4.6,3.9-6.3,7.3
				c0,0,3.1,0,5.9,2.3c2.8,2.3,5.8,6.5,11.1,6.4c0,0,2.4,2.5,4.9,3c2.4,0.5,4.5,0.5,4.5,0.5s2.8-1.3,7.7-2.2c0,0-6.6,4.4-8.1,6.3
				c0,0,3-1,5.4-0.9c0,0,2.7,0.8,7.1-0.4c4.4-1.1,7.3-4.5,7.3-7.3c0-2.8-4-6.6-2.6-9C316.4,458,325.4,455.7,326.8,455.4"/>
		</g>
		<path class="st2" d="M760.4,409.2c0-3.6-8.2-2.6-14.4-2.1c-6.2,0.5-37.5-2.6-48.4-7.7c-9.1-2.2-18.1-5.1-26.7-8.8
			c-2.4-1.1-4.9-2.2-7.2-3.4c-2.9-1.4-5.7-3-8.3-4.9c-0.3-0.2-0.6-0.5-0.9-0.7c0,0-1.4,7.8-8.3,14.8c-0.4,0.4-0.8,0.8-1.2,1.2
			c-0.8,0.8-1.7,1.5-2.7,2.2c-2.9,2.2-6.5,4.1-11,5.4c-1.5,0.5-3,0.8-4.7,1.1c-2.5,0.5-5.2,0.8-8.2,0.9h-0.1c-0.1,0-0.2,0-0.4,0.1
			c13.8,6.6,30.7,13.1,45.1,13.9c30.1,1.7,69.6-6.5,69.6-6.5s22.2,27.7-9.2,60.2c6.4-5.9,16.9-16.7,23.4-29.7
			C756.8,425.7,760.4,412.8,760.4,409.2"/>
		<path class="st2" d="M850.3,444.2c-5,4.4-11.7,9-19.1,13.5c-5.4,3.4-11.2,6.7-16.6,9.4c-0.2,0.1-0.4,0.2-0.6,0.3
			c30.3-5,37.4,2.9,39,6.2c0.1-0.1,0.1-0.2,0.2-0.3c0.5-0.8,0.9-1.7,1.2-2.5C860.3,456.5,850.3,444.2,850.3,444.2"/>
		<path class="st3" d="M636.7,427.1c0,0-27.4-17.2-47.2-12.1c-19.8,5.1-53.9,32-53.9,32s13,1.7,34.6-1.9c0.2,0,0.4-0.1,0.6-0.1
			c3.9-0.9,8.1-4.1,11.2-6.3c1.9-1.4,3.7-3,5.5-4.4c0.4-0.3,5.2-3.2,5.4-3.2c0-0.3-0.1-0.7-0.1-1.1c0-5,4.1-9.1,9.2-9.1
			c5,0,9.1,4.1,9.1,9.1c0,2-0.6,3.8-1.7,5.3C627.4,430.2,636.7,427.1,636.7,427.1"/>
		<path class="st0" d="M599.2,434.9c-0.2-2.6-1.9-4.2-4.3-4.2c-0.7,0-1.4,0.2-2.1,0.4c-0.2,0-5,2.9-5.4,3.2c-1.8,1.4-3.6,3-5.5,4.4
			c-3.1,2.2-7.3,5.4-11.2,6.3c2.4-0.5,11.8-2.3,17.3-3.8c2.8-0.7,5.4-1.4,7.9-2.1C595.9,439.1,599.3,437.6,599.2,434.9"/>
		<path class="st2" d="M699.9,426.9c5.8,1.4,12.1,4.3,16.6,8.3c0,0,0,0,0,0c0,0,0,0,0.1,0.1c-10-3.7-20.6-4.9-30.9-1.4
			c-1.7,0.6-3.5,1.2-5.2,1.9c-0.6,0.3-1.3,0.6-1.9,0.9c-10.3,5.1-19.6,12.6-28.6,19.6c-15.6,11.9-31.9,22.5-50,30.1
			c-1.3-0.9-3.1-2.3-4.8-3.9v-0.4c0-4.9,3.5-15.2,11.1-21.3c9.8-8,28-16,28-16c-0.9,3.1-0.4,7.1-0.4,7.1c2.7-4.4,8.4-11.1,17.3-16
			c0.6-0.3,1.2-0.6,1.8-0.9c2.7-1.3,6.3-2.8,9.9-4.3c2.6-1,5.6-2,7.9-2.6C680.2,426.1,690.3,424.6,699.9,426.9"/>
		<path class="st0" d="M586.6,404.9c-8.9,4.7-18.1,9.1-27.5,12.8c-5.9,3-11.6,6.1-17.3,9.4c-7.7,4.4-15.3,9.1-22.5,14.3
			c-3.4,2.4-7.4,4.5-10.4,7.4c-0.2,0.2-0.4,0.4-0.6,0.4c-1.9,0.3-3.7,0.4-5.5,0.5c-2.4,0.1-4.8,0-7.1-0.2c-0.2,0-2.9-0.3-2.9-0.3
			c2.1-6.8,11.4-16.9,11.4-16.9c-4.4-0.3-10.1,1.3-10.1,1.3c8.2-11,30.9-24.9,48.6-28.4c17.7-3.5,33.7-2.8,33.7-2.8
			c-2.5-1.3-6.6-2.9-6.6-2.9s6.9,0.3,16.4-1.6c1.2-0.2,2.6-0.6,4-1c6.3-1.6,14-4.2,18.6-5.8c0.5-0.2,1-0.4,1.5-0.5
			c-2.2,1.5-4.4,2.9-6.7,4.3C598.9,398,592.5,401.8,586.6,404.9"/>
		<path class="st0" d="M499.7,461c7,2.1,15.3,3.8,22.6,4.4c24.7,2.3,49.2-1.8,72.1-9.6c22.3-7.6,42.9-19.2,65.8-25.3
			c2.9-0.8,5.9-1.5,8.8-2.1c0.5-0.1,1.1-0.2,1.6-0.3c-2.3,0.6-5.2,1.6-7.8,2.6c-3.6,1.4-7.2,3-9.9,4.3c-0.6,0.3-1.2,0.6-1.8,0.9
			c-8.9,4.9-14.6,11.6-17.3,16c0,0-0.4-4,0.4-7.1c0,0-18.2,8-28,16c-7.5,6.2-11.1,16.4-11.1,21.3v0.4c-1.3-1.3-2.6-2.7-3.4-4.3
			c-2.7-5-2.5-8.7-2.5-8.7s-2.3,1-4.4,2.6c0,0,1.1-4.5,4.8-6.4c0,0,2.2-2.9,1.2-5c0,0-6.6,0.5-8.2,1.8c-1.5,1.3-6.5,3.1-6.5,3.1
			s1.7,0.3,3.4,0.2c0,0-1.8,4.3-3.5,5.8c-1.7,1.4-5.1,4.1-4.4,7.4c0,0,4-0.3,6-1.1c0,0-6.4,5.5-10.3,6.4l5.4,0.3
			c0,0-0.7,3.8,6.1,7.1c6.8,3.3,8.9,5.4,10.4,7.5c1.4,2.1,2,4.3,3.8,5.6c0,0,3.3-1.9,6-3.9c0,0-1.5,4.5-6.3,7.8c0,0-17.7,2-30.3-7.1
			l1-0.6c0.1-0.1,0.2-0.1,0.3-0.2c0.2-0.2,0.5-0.3,0.7-0.5c0.1-0.1,0.2-0.1,0.3-0.2c0.3-0.2,0.5-0.3,0.7-0.5
			c0.1-0.1,0.2-0.1,0.2-0.2c0.3-0.2,0.6-0.4,0.9-0.6c0,0,0,0,0.1,0c0.3-0.2,0.5-0.3,0.7-0.5c0.1-0.1,0.2-0.1,0.3-0.2
			c0.1-0.1,0.2-0.2,0.3-0.2c0.1-0.1,0.2-0.1,0.2-0.2c0,0,0-0.1,0.1-0.1c0.1-0.1,0.2-0.1,0.2-0.2c0,0,0,0,0.1,0
			c0.1-0.1,0.1-0.1,0.1-0.1c-2.4,0.6-7.4,1.3-9.8,1.6c-0.7-0.7-2.2-2.2-2.9-3c0,0-1.4-1.8-2.2-6.6c-0.3-1.5,0.6-5,2.1-6.4
			c1.5-1.3,6.4-5.8,7.1-7.9c0.8-2.1-0.6-5.4-0.3-6.9c0,0-3.7,2.4-5.8,3c0.4-0.4,4.7-4.8,2.3-5.4c0,0-2.1,2.5-6,4.2
			c-3.9,1.7-11,5.2-13.1,7.1c-2,1.8-3.3,5.7-3.4,6.1c0.2-0.3,1.4-1.9,2.5-2.1c1.1-0.2,4.2-2.2,4.6-2.5c-0.1,0.3-1.2,3-2.5,4
			c-1.3,1.2-4.6,2.7-6.3,4.8l1.9,0.6c0,0,0.5,3.8-0.3,7.5c-2.9,0.6-10.4,1.9-16.3-0.2c0,0,5.4-3.5,10-9.9c0,0-44.3-8.1-62-39.9
			l-0.7-1.5c0,0-0.1-0.1-0.2-0.2c0.2,0.2,0.4,0.3,0.4,0.3s0.1,0,0.1,0h0c0,0,0,0,0,0c0.7,0.6,7.7,6.6,11.9,8.9
			C486,456.8,493,458.9,499.7,461"/>
		<path d="M589.5,414.9c-19.8,5.1-53.9,32-53.9,32s13,1.7,34.6-1.9c0.2,0,11.6-2.2,17.9-3.9c2.8-0.7,5.4-1.4,7.9-2.1
			c0,0,3.4-1.5,3.2-4.2c-0.2-2.6-1.9-4.2-4.3-4.2c-0.7,0-1.4,0.2-2.1,0.4c0-0.3-0.1-0.7-0.1-1.1c0-5,4.1-9.1,9.2-9.1
			c5,0,9.1,4.1,9.1,9.1c0,2-0.6,3.8-1.7,5.3c18.1-5.1,27.4-8.3,27.4-8.3S609.3,409.8,589.5,414.9L589.5,414.9z M723.7,474.9
			c-2.1,2.2-4.5,4.4-7.1,6.7c0-0.1,0.1-0.2,0.2-0.3c0.1-0.1,0.2-0.3,0.3-0.5c0.1-0.1,0.1-0.3,0.2-0.5c0.1-0.2,0.2-0.3,0.3-0.5
			c0.2-0.3,0.3-0.7,0.5-1.1c0.1-0.2,0.2-0.4,0.3-0.7c0.2-0.5,0.4-0.9,0.6-1.4c0.7-1.5,1.4-3.4,2.1-5.5c0.7-2.1,1.4-4.3,1.9-6.7
			c0.2-0.8,0.3-1.6,0.5-2.4c0.1-0.3,0.1-0.6,0.1-0.9c0.6-6.4,0.9-12.4-1.8-18.5c-1.1-2.5-2.7-4.8-4.7-6.6c-0.2-0.2-0.4-0.4-0.7-0.6
			c-4.5-4-10.8-6.9-16.6-8.3c-9.6-2.4-19.7-0.8-29.3,1.2c0,0,0,0,0,0c-0.5,0.1-1.1,0.2-1.6,0.3c-3,0.6-5.9,1.3-8.8,2.1
			c-22.9,6.1-43.4,17.7-65.8,25.3c-22.9,7.8-47.4,11.9-72.1,9.6c-7.3-0.7-15.5-2.3-22.6-4.4c-6.8-2.1-13.7-4.2-19.9-7.6
			c-4.3-2.4-11.2-8.4-11.9-8.9c0.2,0.1,0.5,0.1,0.8,0.2c0.3,0.1,1.1,0.3,1.1,0.3c5.4,1.4,11.2,2.7,17,3.7c1.9,0.3,3.9,0.6,5.9,0.8
			c0,0,2.7,0.3,2.9,0.3c2.4,0.2,4.8,0.2,7.1,0.2c1.8-0.1,3.6-0.2,5.5-0.5c0.2,0,0.4-0.2,0.6-0.4c3-3,7-5,10.4-7.4
			c7.2-5.1,14.9-9.8,22.5-14.3c5.7-3.3,11.4-6.4,17.3-9.4c9.4-3.7,18.6-8.1,27.5-12.8c5.9-3.1,12.3-6.9,16.9-9.8
			c2.3-1.4,4.5-2.8,6.7-4.3c1.4-0.9,2.8-1.9,4.2-2.8c7.9-5.3,15.4-11.1,22.6-17.3c2.1-1.8,4.1-3.6,6.1-5.4c3.2-3,6.2-6.2,9.3-9.2
			c-0.3,0.2-0.3,1.5-0.4,1.8c-0.2,0.7-0.5,1.4-0.7,2.1c-0.6,1.4-1.1,2.9-1.7,4.3c-1.2,2.8-2.6,5.6-4,8.4c-3,5.5-6.3,10.7-10,15.7
			c-2.1,2.8-4.3,5.5-6.5,8.2c-1.7,1.9-3.4,3.8-5.1,5.7c-1.4,1.5-3.1,4.3-5.1,4.9c0,0-0.2,0.1-0.2,0.1c-0.1,0-0.2,0-0.4,0.1
			c13.8,6.6,30.7,13.1,45.1,13.9c30.1,1.7,69.6-6.5,69.6-6.5S755.1,442.4,723.7,474.9"/>
	</g>
</g>
</svg>
