<?xml version="1.0" encoding="utf-8"?>
<!-- Generator: Adobe Illustrator 21.1.0, SVG Export Plug-In . SVG Version: 6.00 Build 0)  -->
<!DOCTYPE svg PUBLIC "-//W3C//DTD SVG 1.1//EN" "http://www.w3.org/Graphics/SVG/1.1/DTD/svg11.dtd">
<svg version="1.1"
	 id="Layer_1" xmlns:cc="http://creativecommons.org/ns#" xmlns:dc="http://purl.org/dc/elements/1.1/" xmlns:rdf="http://www.w3.org/1999/02/22-rdf-syntax-ns#"
	 xmlns="http://www.w3.org/2000/svg" xmlns:xlink="http://www.w3.org/1999/xlink" x="0px" y="0px" width="300px" height="194px"
	 viewBox="0 0 300 194" style="enable-background:new 0 0 300 194;" xml:space="preserve">
<style type="text/css">
	.st0{fill:#FFFFFF;}
	.st1{fill:#100F0D;}
	.st2{stroke:#000000;}
	.st3{fill:#E31837;stroke:#E31837;stroke-width:0.5345;}
</style>
<g>
	<path class="st0" d="M57.1,194c-2.4,0-4.8-0.4-7.3-1.4c-12-4.7-8.4-16.4-7.2-20.3c0.2-0.6,0.3-1.1,0.5-1.6c0.6-2.7,1.7-6.1,2.8-9.6
		c0.5-1.4,0.9-2.9,1.4-4.4c0.1-0.4,0.2-1.1,0.4-2.1c0.1-0.6,0.3-1.2,0.3-1.6c0-0.3,0-0.6,0-0.8c-0.3,0-0.7,0-1.2,0
		c-0.4,0.1-1.3,0.5-1.9,0.7c-1.7,0.7-3.4,1.4-5.1,1.6c-2,0.2-3.6-0.2-5.2-0.6c-1.7-0.5-3.3-0.9-5.3-0.6c-0.9,0.1-2.3,0.8-3.9,1.7
		c-1.1,0.6-2.3,1.2-3.5,1.7c-5.8,2.5-12.8,0.1-15.9-3.6c-3.5-4.2-2.4-9-1.6-12.1c0.3-1.2,0.6-2.3,0.6-3.3c0.1-3.4-0.3-6.1-1.7-11.8
		l-0.4-1.6c-0.8-3.1-1.6-6-2.2-10.2c-0.3-1.7-0.8-8.6-0.7-10c0.1-0.9,0.1-1.9,0.2-2.9c0.1-2,0.2-4.2,0.5-6.3l0.1-0.5
		c0.8-4.7,0.8-4.9,2.1-9l0.6-2l0,0c0,0,2.2-7.1,4.7-10.3c1.3-1.6,1.8-4.5,1.7-8.5c0-0.5-0.3-1.3-0.6-2.3c-0.3-1-0.7-2.2-1.1-3.7
		c-0.7-3.1-0.4-5.7,0-8l0-0.2c0.6-2.8,1.5-7.1,5.7-9.4l0.1-0.1c1.5-0.9,5.4-3.2,9.8-1.2c1.4,0.7,2.4,1.4,3.2,2
		c0.1,0.1,0.3,0.2,0.4,0.3c0.1,0,0.2,0,0.4-0.1c1-0.3,2.4-1,3.8-1.7c3.2-1.6,7.3-3.7,11.6-2.8c3.6,0.7,5.9,3,7.5,4.7
		c0.6,0.6,1.1,1.1,1.6,1.6c0.2,0,0.6,0,0.8,0c0.2-0.6,0.3-2.4-0.5-4.7c-1.2-3.5-2.1-6.3-3.5-11l-0.5-1.8c-0.2-0.5-0.3-0.9-0.4-1.3
		c-0.6-1.9-1.1-3.2-1.3-6.8c-0.2-3.5-0.3-6.3,1.7-10.4c1.9-3.9,6.5-7.2,10.2-7.5c5.1-0.5,9.8,0.4,14.2,1.3c4.6,0.9,8.9,1.7,13.1,0.9
		c4.5-0.9,10.3-1.8,16.3-0.8l0.2,0c3.1,0.7,6.3,1.8,9.6,3.3c1.1,0.6,1.9,1.1,2.5,1.5c1.2,0.8,1.2,0.8,2.1,0.7l1.7-0.2
		c5-0.5,9.7-1,15.5,0.1c3.2,0.7,4.9,1.4,6.6,2.6c1,0.6,1.9,1.2,2.9,1.8c1.6,1,3.1,2,4.7,2.8c4.5,2.2,7.4,2.1,10.8,1.9
		c2.8-0.1,6-0.2,9.7,0.9c3.2,1,5.9,2.5,8.1,4.4c1.5,1.2,7.3,4.1,11.4,4.2c1.5,0,2.9,0.1,4.1,0.1c7.7,0,11.7,0.3,20.6,6.6l0.5,0.4
		c2.6,2.4,6,3.2,9.8,4.3c3.1,0.8,6.7,1.8,10.1,3.6l0.6,0.3c2.6,1.4,7.3,4,10.5,9.1c0.3,0.4,2.6,3.1,5.6,3.8l0.8,0.2
		c4.9,1.1,11.5,2.6,15.8,9.9l0.2,0.2c3.1,3.7,3.3,3.9,6.8,5.9c1.8,1,3,2,4,2.9c0.7,0.6,1.2,1,2,1.6c0.8,0.5,1.1,0.7,1.3,0.8
		c0.7,0.3,1.2,0.7,1.8,1.2l1.5,1.2c0.2,0.2,0.4,0.3,0.7,0.5c1,0.7,2.7,1.9,4.7,3.7l-7.4,8.3c-1.5-1.3-2.8-2.2-3.7-2.9
		c-0.6-0.4-1.1-0.8-1.3-1l-1.5-1.2c-0.5-0.2-1.1-0.6-2.1-1.3c-1.5-0.9-2.5-1.8-3.3-2.5c-0.8-0.7-1.3-1.1-2.2-1.6
		c-5.1-2.9-6.2-4.2-9.8-8.5l-0.9-1l-0.3-0.5c-1.8-3.2-4.1-3.9-8.8-4.9l-0.8-0.2c-6.5-1.5-11.1-6.3-12.6-8.7
		c-1.6-2.6-4.3-4.1-6.3-5.2l-0.7-0.4c-2.2-1.2-4.8-1.9-7.6-2.6c-4.5-1.2-9.6-2.5-14.1-6.5c-6.2-4.4-7.9-4.4-14-4.4
		c-1.3,0-2.7,0-4.3-0.1c-6.7-0.2-14.9-4.1-18.2-6.8c-1.1-1-2.6-1.7-4.3-2.3c-1.8-0.6-3.6-0.5-5.9-0.4c-4.1,0.2-9.1,0.3-16.1-3
		c-2.1-1-4-2.2-5.8-3.4c-0.9-0.6-1.8-1.2-2.8-1.7l-0.6-0.4c-0.2-0.1-0.5-0.4-2.4-0.8c-4-0.8-7.6-0.4-12.1,0l-1.9,0.2
		c-4.7,0.3-7.2-1.3-9-2.4c-0.4-0.3-0.9-0.6-1.5-0.9c-2.3-1.1-4.6-1.9-6.8-2.4c-3.2-0.5-6.9-0.3-12.1,0.7c-6.3,1.3-12.2,0.1-17.4-0.9
		c-3.8-0.7-7.4-1.4-10.8-1.2c-0.5,0.3-1.4,1-1.6,1.3c-0.7,1.6-0.8,2.3-0.6,4.8c0.2,2.3,0.3,2.7,0.7,3.9c0.2,0.5,0.4,1,0.6,1.7
		l0.5,1.8c1.3,4.5,2.1,7.2,3.3,10.4c3,8.2,0.9,15.6-5.1,18.4c-3.3,1.6-8.6,1.7-12.2-1.1c-1.2-1-2.2-1.9-3-2.8
		c-0.6-0.6-1.4-1.5-1.7-1.6c-0.7,0-3.1,1.1-4.5,1.8c-1.9,0.9-3.8,1.9-6,2.5c-5.5,1.4-8.5-0.8-10.2-2.1c-0.2-0.1-0.3-0.2-0.4-0.3
		c-0.1,0-0.2,0.1-0.2,0.1l0,0c-0.2,0.5-0.4,1.5-0.5,2.2c-0.3,1.5-0.4,2.5-0.1,3.6c0.2,1,0.5,1.9,0.8,2.8c0.5,1.6,1.1,3.3,1.1,5.3
		c0.2,6.7-1.1,11.9-4,15.7c-0.7,0.9-2.3,4.7-2.9,6.8l-0.7,2.1c-1.1,3.4-1.1,3.4-1.8,7.5l-0.1,0.6c-0.3,1.5-0.3,3.3-0.4,5
		c0,1.1-0.1,2.3-0.2,3.3c0,1.2,0.4,6.1,0.6,7.4c0.6,3.6,1.2,6.1,2,9.1l0.4,1.7c1.4,5.8,2.2,9.9,2,14.9c-0.1,2.1-0.5,3.9-0.9,5.5
		c-0.2,0.8-0.5,1.9-0.5,2.5c0.6,0.4,2,0.8,2.8,0.5c1.1-0.5,2-1,2.9-1.4c2.3-1.2,4.6-2.4,7.4-2.8c4.2-0.6,7.5,0.3,9.7,0.9
		c0.4,0.1,0.9,0.2,1.3,0.3c0.4-0.1,1.4-0.5,2.1-0.8c1.7-0.7,3.3-1.3,4.9-1.5c4.4-0.3,7,0.1,8.9,1.6c3.4,2.6,4.8,5.9,4.5,11.1
		c0,0.5-0.1,0.7-0.6,3.1c-0.1,0.6-0.3,1.3-0.4,1.7v0.3l-0.2,0.8c-0.5,1.6-1,3.2-1.5,4.7c-1.1,3.3-2.1,6.5-2.6,8.8
		c-0.2,0.7-0.4,1.4-0.6,2.3c-1.8,5.8-1,6,0.7,6.7c2.1,0.8,4.6,0.8,8.6-0.3c2-0.5,3.2-0.7,4.5-0.9l0.2,0v-0.3l8.1-0.4
		c5-0.6,7-0.3,10.9,0.2l1.4,0.2c0.8,0.1,1.7,0.2,2.5,0.3c3.2,0.4,6.1,0.9,8.9,0.5c2.1-0.2,3.7-0.6,5.3-1.1c2-0.6,3.6-1.3,5.2-2.1
		c3-1.4,6.5-2.9,11.8-3.7c4.1-0.6,6-0.4,7.9-0.2c1.1,0.1,2.1,0.2,4,0.1c3.3-0.1,5.3-1.3,7.2-2.5c0.4-0.3,0.8-0.5,1.2-0.7
		c1.9-1,2.9-1.5,3.8-1.9c0.5-0.2,1-0.5,1.7-0.8c5.2-2.8,10.8-3.6,16.1-4.3c2.7-0.4,5.3-0.7,7.7-1.3c2-0.5,3.5-1.2,5.3-2.2
		c2.1-1.1,4.6-2.3,8.2-3.3c2-0.5,4.1-0.7,5.8-0.8c0.8-0.1,1.7-0.1,2.5-0.2c0.7-0.1,3.1-1.2,4.3-2.4c0.9-0.9,1.6-1.5,2-2
		c1.4-1.4,2.2-2.1,4.6-3.5c3-1.7,6.1-2.4,8.8-3c1.9-0.4,3.7-0.9,5.2-1.5l1.7-0.8c3.2-1.5,6-2.7,8-4.7c4.6-4.6,10.6-6.5,16-8.2
		c1.4-0.4,2.8-0.9,4.1-1.3c3.1-1.1,6.3-2.8,9.3-7.9c4.9-8.5,10.1-10,17.2-12.1c3.9-1.2,5.1-1.7,7.9-4.4c2.3-2.1,3.2-3.6,4.4-5.2
		l1-1.4c0.4-0.5,1-1.4,1.3-2.1c-0.6-0.6-1.1-1.1-1.6-1.7c-1-1.2-2.1-2.4-3.7-3.7l6.8-8.8c2.5,1.9,4.1,3.8,5.3,5.2
		c0.5,0.6,0.9,1.1,1.2,1.3c4.5,4,4.4,9.5-0.3,16.1l-0.9,1.3c-1.3,1.9-2.8,4.1-5.9,7c-4.3,4-7.2,5.3-12.3,6.9
		c-6.4,1.9-8.1,2.4-10.9,7.1c-4.9,8.3-11,11.3-15.1,12.8c-1.5,0.5-3,1-4.5,1.5c-4.3,1.4-8.8,2.8-11.4,5.4c-3.4,3.5-7.6,5.4-11.3,7.1
		l-1.6,0.7c-2.5,1.2-5.1,1.8-7.3,2.3c-2.3,0.5-4.3,1-5.9,1.9c-1.1,0.6-1.1,0.6-2.2,1.6c-0.5,0.5-1.3,1.2-2.3,2.2
		c-2.7,2.5-7.1,4.8-10.3,5.2c-1.1,0.2-2.1,0.2-3.2,0.3c-1.4,0.1-2.8,0.2-3.8,0.5c-2.5,0.7-4.1,1.5-6,2.5c-2.1,1-4.4,2.2-7.7,3
		c-3,0.7-6,1.1-8.9,1.5c-4.6,0.6-8.9,1.2-12.4,3.1c-0.9,0.5-1.6,0.8-2.4,1.1c-0.8,0.4-1.6,0.7-3.1,1.5c-0.2,0.1-0.6,0.3-0.9,0.5
		c-2.4,1.4-6.3,3.8-12.4,4.1c-2.6,0.1-4.2,0-5.5-0.2c-1.5-0.1-2.5-0.2-5.3,0.2c-3.8,0.5-6,1.5-8.8,2.8c-1.8,0.8-3.8,1.7-6.4,2.5
		c-2.2,0.7-4.6,1.2-7.4,1.6c-4.2,0.5-8-0.1-11.7-0.6c-0.8-0.1-1.6-0.2-2.4-0.3l-1.5-0.2c-3.3-0.5-4.3-0.6-8.3-0.2l-0.3,0l-3,0.1l0,0
		c-0.5,0.1-1.1,0.1-1.8,0.2c-0.3,0-0.5,0-0.8,0l-1.7,0.3c-1.3,0.2-2.1,0.4-3.7,0.7C62.8,193.4,60,194,57.1,194z M48,151.8
		C48,151.8,48,151.8,48,151.8C48,151.8,48,151.8,48,151.8z M39,143.6L39,143.6L39,143.6z M19.6,50.4L19.6,50.4
		C19.5,50.4,19.5,50.4,19.6,50.4z"/>
	<path d="M285.8,86.1c-2.5-2.2-4.5-3.5-5.1-4c-3.7-2.9-0.6-0.6-4.1-2.9c-2.5-1.6-3.2-2.9-5.8-4.3c-4.6-2.6-5.1-3.4-8.8-7.8
		c-3.2-5.9-8.2-6.7-13.2-7.9c-4.8-1.1-8.3-4.9-9.1-6.3c-2.6-4.2-6.8-6.2-9-7.5c-6.9-3.8-14.8-3.1-21-8.6c-9.3-6.6-11.8-5.4-21.6-5.7
		c-5.4-0.1-12.5-3.6-14.8-5.5c-1.9-1.6-4.2-2.7-6.2-3.3c-6.9-2.1-11.6,1.5-21.3-3.2c-2.8-1.4-5.4-3.3-8.2-4.9
		c-0.9-0.7-1.8-1.2-4.6-1.8c-5.5-1.1-10.2-0.4-15.7,0.1c-3.7,0.2-4.6-1.3-7.4-2.7c-2.8-1.3-5.5-2.3-8.3-2.9
		C97,6.2,92.2,6.8,87.3,7.7c-9.7,1.9-18.5-3-27.9-2.1c-1.6,0.1-4.6,2.1-5.7,4.4c-1.4,3-1.4,4.7-1.2,7.7c0.3,4,0.7,4.3,1.5,6.9
		c1.7,5.6,2.6,8.7,3.9,12.5c1.6,4.4,1.5,9.8-2.2,11.6c-1.8,0.8-4.8,0.8-6.5-0.4c-2.6-2-4.1-4.8-7-5.4c-4-0.8-8.7,3.3-12.9,4.4
		c-4.2,1.1-4.7-1.2-7.7-2.5c-1.9-0.9-3.8,0.4-4.9,1c-2,1.1-2.4,3.4-2.9,5.8c-0.3,1.9-0.5,3.7,0,5.8c0.7,3.1,1.7,4.9,1.8,7
		c0.2,5.3-0.7,9.3-2.9,12.1c-1.4,1.8-3.3,6.8-3.8,8.6c-1.9,6.1-1.7,5.1-2.7,10.8c-0.5,2.9-0.4,6.2-0.6,8.9c0,0.5,0.3,6.7,0.6,8.6
		c0.7,4.6,1.6,7.5,2.6,11.4c1.4,5.6,2,9,1.8,13.3c-0.1,4.4-2.9,8.6-0.3,11.6c1.6,1.9,5.9,3.7,9.4,2.1c3.6-1.6,6.1-3.4,8.9-3.8
		c5.1-0.7,8.4,1.5,10.6,1.2c2-0.2,5.4-2.2,7-2.3c1.3-0.1,4.1-0.2,5.1,0.5c1.6,1.2,2.5,2.5,2.3,6.5c0,0-0.9,4.3-0.9,4.4
		c-1.6,5.3-3.4,10.3-4.2,13.9c-0.9,3.8-5,12.1,3.4,15.4c3.6,1.4,7.3,1.1,12,0c2.4-0.6,3.4-0.7,5.6-1.1c0-0.1,3.3-0.1,3.3-0.2l3-0.1
		c5.2-0.6,6.5-0.2,11.1,0.4c4.4,0.5,8.5,1.4,12.8,0.9c2.2-0.2,4.3-0.6,6.4-1.3c6-1.9,8.9-4.5,16.1-5.5c6-0.8,6,0.2,11.4,0
		c5.5-0.2,8.6-2.6,10.9-3.9c2.8-1.5,3.6-1.7,5.4-2.7c6.8-3.7,14.9-3.2,22.5-5.1c5.4-1.3,7.5-3.9,13.6-5.5c2.4-0.6,5-0.6,7.6-0.9
		c2-0.3,5.4-2,7.4-3.8c3.3-3.1,3-3.2,5.5-4.6c4.3-2.4,9.2-2.4,13.6-4.4c4.1-1.9,8.2-3.5,11.4-6.7c4.6-4.7,12-6,18-8.2
		c3.6-1.3,8.3-3.6,12.2-10.3c3.9-6.6,7.3-7.6,14-9.6c4.5-1.4,6.5-2.3,10.1-5.6c3.2-3,4.3-4.9,5.7-7c1.6-2.4,4.8-6.3,1.4-9.3
		c-1.5-1.3-3-3.8-6.2-6.2"/>
	<path class="st1" d="M210.6,135.1"/>
	<path class="st0" d="M281.2,91.8c-4-2.8-4.3-3.3-6.4-4.7c-5.3-3.6-6.4-4.4-9-7.4c-2.6-2.9-3.3-3.9-6.2-5.5
		c-1.1-0.6-8.5-3.2-7.1-2.9c-6.7-1.2-7-2.6-9.6-5.1c-2.2-3.2-4.8-7.1-7.1-8.6c0.9,0.5-4.1-2.7-4.1-2.6c-3.8-1.3-5.1-1-10-1.2
		c0.1,0-5.2-0.7-6.6-1.4c-2.5-1.1-3.8-2.4-5.5-3.7c-3.8-2.8-2.7-2.2-6.4-4.9c-5-3.7-5.7-2.8-12.1-3.4c-5.4-0.5-9.3-1.8-13.6-4.9
		c-7.6-5.5-15-3.6-19.6-4.3c-6.7-1-11.4-3.7-13.9-5.3c-5.4-3.4-4.1-1.8-9.9-4.5c-6.9-3.3-13.3,2.2-21.3-0.1
		c-4.3-1.2-5.8-3.4-8.6-4.4c-8.2-2.4-11-1.1-17.7-1c-7.9,0-15.1-2.1-22.6-2c-2.1,0-3.8,1.8-3.5,4.2c0,0,0.1,2.9,0.1,3
		c0.4,2.4,1.3,5,2,7.7c0.9,3.3,1.4,4.4,2.8,9.5c0.5,4.1,0,5.3-0.3,7.1c-0.2,1.4-1.2,4.3-1.9,5.3c-0.8,1.2-1.8,1.6-3.2,2.5
		c-2.4,1.4-4.8,2.1-7.4,2c-2.7-0.1-2-0.1-6.2-1.6c-1.5-0.6-4.7-2.4-7.9-1c-6.1,2.6-6.8,0.4-10.1,0.7c-1,0-2,0.5-2.9,1
		c-1.5,0.6-2.2,1.6-3.2,3.7c-0.6,1.2-1,3.3-0.8,5.1c-0.3,0,0.6,2.9,0.6,3c0.7,3.9,0.9,7-0.5,10.4c-1.4,3.3-1.8,4.4-3.7,7.1
		c-1.8,2.6-4.9,10-5.1,16.8c0.2-0.2,0,8.1,0.9,13c1.1,5.4,2.7,5.9,3,14.9c0.1,3.4-0.2,6.4-0.3,9.4c0,2,0.6,4.7,3.1,4.4
		c3.6-0.5,7.6-2.5,10.3-2.6c1.4,0,3.8,0.4,4.7,0.7c5.6,2,3.8,0.5,12.6-1c2.9-0.5,7,0.1,8.6,1c5.2,3,4.7,9.6,3.3,16.2
		c-0.2,1-1.5,7.9-1.8,8.9c-0.9,3.5-0.8,3.7-1.2,7.4c-0.2,1.8-0.1,3.2,0.9,4.8c0.8,1.3,1.8,2.3,3.1,2.3c5.7,0.1,8.9,0,14.8-1
		c7.6-1.4,11.5-1.4,16.7-0.9c5.4,0.5,13,0.3,16.2-0.8c2.9-1,6.7-3.3,9.7-3.9c10-2.1,10.3-1.1,18.5-2.2c6.5-0.8,9.8-4.1,13.1-5.8
		c4.5-2.4,8.6-3.3,13.8-3.3c3.1,0,7.5-1,9.6-2c8.6-3.9,5.4-3.7,17.4-5.9c6.1-1.1,10.4-6,14.2-8.1c2.4-1.4,4.5-2.5,7.3-3.3
		c3.7-1.1,7.8-1.7,11.3-2.9c5.6-2,7.4-3.9,10.4-6.7c2.6-2.3,3.4-2.3,6.3-4.1c2.9-1.8,7.2-3.2,8.8-3.7c3.7-1.1,9.1-7.4,14.2-12.5
		c6-6.1,11.6-5.1,18.2-8.6c4.1-2.1,6.7-3.6,4.8-7.4c-0.7-1.5-2.8-3.4-4.4-4.5"/>
	<path class="st2" d="M146.4,122.3c-12.6-9.8-9-18.6-3.7-22.6l1.6,1.7l-2.7,2.8l0.2,10.2H178l4.6-4.5V98.8h-2.8l-12.6-13.5
		c24.1-5.1,35.9,5.4,43.1,17h9.4l4.8-4.6V70.9h-10.1l-6,3.7c-21.3-10.3-37.9-9.2-54.5-3.8l-2.7-2.8l15.3-9.1l9.2,0l4.5-4.3v-9.1h-37
		l-3.9,4v6.2l-34.7,19.9V60.3l5.6-5.6v-9.2H74.2l-4.9,5.8v7.3h5.9v39.3h-1.8c0,0-4.8,5.5-4.6,5.6v10.2H107l3.8-3.6V97.8h-5.6v-3.1
		l21.1-12.1l1.8,1.8c-4.7,3.3-8.4,6.4-11.2,11.4c-4.1,6.9-5.6,16.4-3.2,24.1c1.6,5.1,3.6,8.3,7,11.8c3.3,3.4,6.1,5.4,11.6,8
		c4.5,2.2,14.9,5.4,23,6.2c7.9,0.6,17.7,0.5,24.2-0.3c7.1-0.7,14.5-3.3,18.9-5.1c3.6-1.7,7.5-3.3,10.5-5.7
		c7.6-5.5,15.7-13.8,15.8-24.1h-14.2c-4.5,15.9-47.5,23.1-64.8,10.8"/>
	<path class="st3" d="M179.3,48l-34.2,0v5.9h4l-45.2,25.8V54l5.6,0V48H76.3v5.9H82v47.4h-5.6v6.8h33.2v-6.8h-5.4v-8l25.7-14.7
		l21.3,22.7l-4.7-0.1v6.9h34.4v-6.9h-1.1l-31.2-33.7L171.7,54l7.6-0.1L179.3,48L179.3,48z M179.5,69.3c-10.7-0.1-18.4,2.5-22.1,3.7
		l8.9,9.7c19-4.5,39.4,0.2,48.4,13.7l8.6-0.1l0.1-23.8h-7.9l-5.6,3.7C198.1,71,187.9,69.4,179.5,69.3L179.5,69.3z M214.7,96.4
		l-0.2,0L214.7,96.4C214.7,96.4,214.7,96.4,214.7,96.4L214.7,96.4z M131.2,86.9c-7.9,5.4-10.6,10.4-12.3,15.3
		c-1.3,4.1-3.2,12.3,0.6,20c4.6,8,12.2,12.7,17.2,14.5c8.3,3.5,21.6,6.6,36.7,6c10.8-0.2,20.3-2.2,29.4-6.8
		c5.3-2.8,6.4-3.5,11.7-8.4c4-4.5,7.2-7.4,8.5-14.4h-9.1c-3.7,6-8.7,10.8-20.3,14.2l0.1,0.1c-22.3,6.6-43.9,3.3-53.4-8.5
		c-7.9-9.1-4.2-17.1,0.8-21.5L131.2,86.9L131.2,86.9z"/>
</g>
</svg>
