<?xml version="1.0" encoding="utf-8"?>
<!-- Generator: Adobe Illustrator 21.1.0, SVG Export Plug-In . SVG Version: 6.00 Build 0)  -->
<!DOCTYPE svg PUBLIC "-//W3C//DTD SVG 1.1//EN" "http://www.w3.org/Graphics/SVG/1.1/DTD/svg11.dtd">
<svg version="1.1"
	 id="SAN_DIEGO_RAMS" xmlns:cc="http://creativecommons.org/ns#" xmlns:dc="http://purl.org/dc/elements/1.1/" xmlns:rdf="http://www.w3.org/1999/02/22-rdf-syntax-ns#"
	 xmlns="http://www.w3.org/2000/svg" xmlns:xlink="http://www.w3.org/1999/xlink" x="0px" y="0px" width="300px" height="213.9px"
	 viewBox="0 0 300 213.9" style="enable-background:new 0 0 300 213.9;" xml:space="preserve">
<style type="text/css">
	.st0{fill:#002244;}
	.st1{fill:#FFFFFF;}
</style>
<g transform="translate(.73454 1.2635)">
	<path class="st0" d="M219.5,211.5c0.1,0,7.3-1.9,7.3-1.9c8.9-2.2,14.6-3.7,17.9-5.3c0,0,2.9-1.4,2.9-1.4l1.7-2.8
		c0.5-0.8,11.6-19.5,17.1-45.6c1.6-1.4,7.4-6.7,7.4-6.7l0.2-1.7l0.2-2.4c0.2-2.1,0.3-4.3,0.3-6.5c0-3.9-0.3-7.9-0.9-12.1
		c12.8-7.1,18.4-17.5,21.8-25.9c2.8-6.8,4.2-14.5,4.2-22.5c0-7.9-1.4-16-4.1-23.9c-4.4-12.8-14.3-30.8-36.8-44.1
		c-14-8.3-33.7-11.8-52.8-9.4c-22.1,2.8-41.2,13.2-53.7,29.5c-1,1.3-1.9,2.6-2.8,4c-0.1,0-0.4,0.1-0.4,0.1C78,44,21.9,90.1,19.6,92
		l-20.3,16.8l26.3,2.1c46.3,3.7,79.1,19.9,98.5,32.9c21.2,14.2,31.4,27.6,31.5,27.8l6.8,9.3l8.8-7.5c1.5-1.3,2.8-2.8,4.1-4.4
		c0,0,0.3,0.3,0.3,0.3l2,1.7c1.3,1.1,2.4,2,3.7,3.5c0.3,0.7,0.5,1.6,0.5,2.5c0,2.4-0.3,3-0.9,4.5l-0.3,0.7c-0.8,1.8-2.2,4.4-2.2,4.4
		l-2.2,3.9l39.1,22"/>
	<path class="st1" d="M256.1,12.8C231-2,181.6-2.2,155.5,31.7c-1.3,1.7-2.5,3.5-3.6,5.3c-1.1,0.2-2,0.4-2.5,0.5
		C80,48.3,24.8,93.6,22.5,95.5l-11.7,9.7l15.1,1.2c91.8,7.4,132.9,61.9,133.3,62.5l4,5.4l5.1-4.4c2.8-2.4,4.7-5.2,6-7.9
		c1.2,1.1,2.6,2.4,4.3,3.9c2.3,2,4.1,3,6.6,6.1c0.9,1.6,1.2,3.4,1.2,5c0,3.7-0.7,4.9-1.6,7c-0.9,2.1-2.4,4.9-2.4,4.9l33.6,18.9
		l2.3-0.6l7.3-1.9c8.4-2.1,14.1-3.6,17-5l1.7-0.8l1-1.6c0.5-0.8,11.6-19.7,16.8-45.7c1.8-1.7,7.2-6.5,7.2-6.5l0.2-2.4
		c0.2-2,0.3-4.1,0.3-6.1c0-5-0.6-10-1.4-14.6c13.3-6.3,19-16.1,22.6-25.1C300.6,73.8,292.9,34.5,256.1,12.8L256.1,12.8z"/>
	<path class="st0" d="M208.2,8.5c-2.3,0-4,0.1-4.7,0.2c-0.7,0.1-1.4,0.2-2.1,0.3c-23.6,3.3-38,20.2-38,20.2
		c21.4-16.7,53.4-18.7,74.7-10c20.5,8.4,35.6,25.2,40.2,50c0,0.9,0.1,1.8,0.1,2.7l0,1c-0.2,12.7-4,21.2-5.3,23.8
		c-1.7,3.6-6,8.9-8.9,11c-2.4,1.8-4.7,2.5-6.4,2.5c-0.3,0-0.6,0-0.9-0.1h0c-0.3,0-0.6-0.1-0.8-0.2c-1.6-0.7-2.2-2.7-5.8-7.8
		c-2.4-3.4-5.5-6.8-5.5-6.8c0.3-0.3,0.6-0.6,0.9-0.8c0.1-0.1,0.3-0.3,0.4-0.4c0.3-0.4,0.6-0.8,1-1.2c0.9-1.2,1.7-2.6,2.3-4.2
		c0-0.1,0-0.1,0.1-0.2c0.2-0.5,0.4-1,0.5-1.6c3-10.6-0.3-27.1-13.7-37.8c-14.2-11.4-29.6-12.3-42.1-7.3c-21,8.4-33.7,33.7-18.7,54.3
		c7.3,10,19.1,10.7,26.4,5c6.9-5.3,11.5-21.4-5.4-30c13.6-1.1,30.1,15.1,22,36c-0.6,1.5-1.3,3-2.1,4.3c-0.5,0.9-1.1,1.8-1.8,2.6
		c0.8-1.3,1.5-2.5,2.2-3.8c-11.8,19.8-43.9,17.6-59.3-0.8C142.7,92,139.8,69,146.1,49.4c0.1-0.3,0.2-0.7,0.3-1
		c0.5-1.5,1.1-2.9,1.7-4.3C86.2,57.5,46.1,95,46.1,95c86.7,18,118.1,70.3,118.1,70.3c3.2-2.8,5-6.5,5.9-9.5
		c-6-9.8-3.4-19.1-3.4-19.1c1.3,6.6,3.7,11.5,6.2,15c1,1.4,5.8,6.1,6.7,7c0.3,0.2,0.4,0.3,0.4,0.3l0,0.1c4.3,3.8,9.5,8.2,10.4,9.8
		c4.7,8.4-0.2,17.9-0.2,17.9l26.2,14.4c5.9-1.7,19.5-4.6,23.3-6.5c0,0,11.6-19.5,16.5-45.7l6.9-6.3c2.5-7.2-2-23-2-23
		c0.6-0.1,1.1-0.3,1.7-0.5c1.4-0.5,2.7-1.1,4.1-1.8c14.9-8.2,28.5-34,15.1-66.5c-13.8-33.3-43.1-40.7-62.1-41.8
		C215.3,8.6,211.2,8.5,208.2,8.5L208.2,8.5z"/>
	<g>
		<path class="st1" d="M235.6,98.1c0,0,15.3,19,13.5,41.4l-4.2,3.9c0.1,6.1-0.2,17.6-6.1,30.5c-6.1-11-19.5-18.3-25.1-19.6
			c-3.8,2.1-12.1,6.7-17,12.1c0.9,1.2,2,4.3,2.2,5.4c1.1,6.1,0.3,10.6-0.7,13.8c0,0,9.3,5.2,9.2,4.9c2.5-8.8-0.8-12.8-3.4-17.3
			c2.5-1.5,8.3-4.8,11.1-5.9c2.8,3.8,4.2,10.1,1.2,19c-0.9,2.7-2.2,5.4-3,7.3c0,0.1,3.6,2,3.6,1.9c4.7-0.9,9-4.2,10.7-8.7
			c0.5-1.3,0.3-2.4,0.1-3.4c-0.5,0.6-1.1,1.5-1.9,2c-1.2-2.8-1.2-5,0.3-6.7c0.8-0.9,1.7-1.2,2.7-1.2c1.6-0.1,2.8,1,3.3,2.1
			c2.3,5.7-3.1,11.8-3.1,11.8s5.2-0.2,6.7-1c3.1-6.2,12.5-26.3,15.2-46.5l4.8-4.3C256.4,114.7,235.6,98.1,235.6,98.1L235.6,98.1z
			 M236,126.9c0,0,0.2,2.9-0.4,5.4c-2.5,1.3-4.2,3.9-4.2,7c0,4.3,3.5,7.9,7.9,7.9c0,0,0.3-0.7,0.6-1.8h0c-2.7,0-4.9-2.2-4.9-4.9
			c0-2.7,2.2-4.9,4.9-4.9c0.1,0,0.2,0,0.3,0C239.5,132.8,238.3,129.8,236,126.9L236,126.9z M240.6,140.9c0,0,0,0-0.1,0.1
			c-0.3,0.3-1.4,1.2-2.8,0.8c0,0-0.1,0-0.1,0c0,0,0,0,0,0c-0.1,0-0.2-0.1-0.3-0.1c-0.1-0.1-0.2-0.1-0.4-0.2c0.2,0.4,0.4,0.7,0.7,1
			c0,0,0,0,0,0c0.1,0.1,0.3,0.2,0.4,0.3c0.1,0,0.2,0.1,0.2,0.1c0.1,0,0.1,0.1,0.2,0.1c0,0,0,0,0,0c0.2,0.1,0.3,0.1,0.5,0.1
			c0.2,0,0.3,0,0.5,0c0.3,0,0.6-0.1,0.8-0.2c0,0,0,0,0,0c0.1-0.1,0.1-0.2,0.2-0.4c0.2-0.5,0.2-0.9,0.2-1.2
			C240.6,141.1,240.6,140.9,240.6,140.9L240.6,140.9L240.6,140.9L240.6,140.9z M212.7,173.7c0,0-3,0.2-3.3,1.3
			c2.3,2.1,1.7,8.5,1.9,12C211.5,186.3,214.8,181.3,212.7,173.7L212.7,173.7z"/>
		<path class="st1" d="M179.7,158.6c0.1,0.1,0.3,0.3,0.5,0.4l0-0.1C180.1,158.9,180,158.8,179.7,158.6L179.7,158.6z"/>
		<path class="st1" d="M246,94.1c-0.2,0.2-0.4,0.4-0.7,0.7l0.4-0.4C245.8,94.3,245.9,94.2,246,94.1z"/>
	</g>
</g>
</svg>
