<?xml version="1.0" encoding="utf-8"?>
<!-- Generator: Adobe Illustrator 21.1.0, SVG Export Plug-In . SVG Version: 6.00 Build 0)  -->
<!DOCTYPE svg PUBLIC "-//W3C//DTD SVG 1.1//EN" "http://www.w3.org/Graphics/SVG/1.1/DTD/svg11.dtd">
<svg version="1.1"
	 id="Layer_1" xmlns:cc="http://creativecommons.org/ns#" xmlns:dc="http://purl.org/dc/elements/1.1/" xmlns:rdf="http://www.w3.org/1999/02/22-rdf-syntax-ns#"
	 xmlns="http://www.w3.org/2000/svg" xmlns:xlink="http://www.w3.org/1999/xlink" x="0px" y="0px" width="315.9px" height="202.2px"
	 viewBox="0 0 315.9 202.2" style="enable-background:new 0 0 315.9 202.2;" xml:space="preserve">
<style type="text/css">
	.st0{fill:#FFFFFF;}
	.st1{fill:#001532;}
	.st2{fill:#0080C5;}
	.st3{fill:#EEAD1E;}
</style>
<g>
	<path class="st0" d="M1.9,172.4c-7.6-36.8,9-71.2,20.4-89.5l-11.2-0.6l11.6-16.3C54,22.2,105.9,12.5,133,10.5l-7.7-9.6l21.8-0.7
		c2.9-0.1,5.8-0.2,8.7-0.2c36.4,0,57.4,9.9,66.4,14.1c1,0.5,2.4,1.1,3.2,1.4l0.4,0.2l0.6,0.3c26.5,13,47.6,30.8,62.8,52.8
		c26.9,34.7,27.9,78.8,26.1,102l-0.5,6.3l-18.2,2.9l-2.4-5.8c-5-12.1-13.8-28.6-25.3-44.5l-23.3-14.2
		c-37.8-23.2-77.2-35.4-117.3-36.3l3.1,5.8l-14.4,6c-26.9,11.2-63.6,26.6-95.1,84.2l-14.1,27L1.9,172.4z M67.8,62.7L51.5,80
		c-7.8,8.3-21,28.4-26.8,51.5c25.5-32.7,52.1-46.8,74.1-56.3L84.1,59.4l22.9-1.5c5.5-0.4,11-0.6,16.5-0.6
		c37.9,0,75.2,9.1,111.1,27.1l11.9-9.5l5,4c13.3,10.6,26.8,25.6,38.6,42.6c-3.2-13.3-8.8-27-18.1-39.1l-0.3-0.3l-0.4-0.6
		c-13-18.9-31.3-34.3-54.3-45.6c-1.3-0.5-2.7-1.2-4.1-1.8c-6.9-3.2-20-9.4-42.1-11.4l9.5,11.7l-25.2-1.9c-3.1-0.2-6.3-0.4-9.5-0.4
		c-15.7,0-33.4,2.8-48.5,7.7C81.2,45,67.3,52.6,56.1,62.1L67.8,62.7z"/>
	<path class="st0" d="M11.4,178.6l-1.6-7.8c-8.2-39.6,14.6-78.9,27.5-95.3c-1.5,0-3.1,0-5.7-0.1l-5.5-0.3l3.2-4.5
		c31-43.4,87.2-53.4,120.1-52.5l-7.8-9.7l5.8-0.2c39.4-1.6,61,8.3,71.4,13.2c1.5,0.7,2.8,1.3,3.9,1.7l0.2,0.1
		c25.4,12.5,45.5,29.4,59.9,50.4c25.3,32.5,26.3,74.6,24.6,96.7l-5.7,0.9c-9.3-22.5-27.7-52.5-49.8-73.6c0.8,2.3,1.5,4.9,2.4,7.8
		l2,7.2l-6.4-3.9c-43.7-26.8-89.4-39.3-136-37.3c1.9,2.2,3.9,4.9,5,6.9l1.5,2.8l-6,2.5c-28,11.7-66.4,27.6-99.3,87.9L11.4,178.6z
		 M39.8,69.5c1.1,0,2.3,0,3.9,0.1l6.4,0.3l-4.4,4.7c-9.9,10.5-35.2,47.7-31.4,86.7c32.8-55.8,70.1-71.5,97.7-83
		c-2.1-2.8-5-6.1-6.3-7.5l-4.2-4.5l6.1-0.4c47.5-3.3,94.2,8.1,138.9,34c-1.4-4.4-2.8-7.8-4.4-11.1l4.5-3.6
		c23.2,18.5,43.4,47.8,55.5,72.4c0.1-22.4-3.9-54.7-24-80.4l-0.1-0.1c-13.8-20.1-33.2-36.4-57.6-48.4c-1.2-0.5-2.5-1.1-4-1.8
		c-9.4-4.4-28.6-13.2-62.8-12.8l8.9,11l-6.8-0.5c-18.8-1.5-41.6,1.4-61.1,7.7c-23.8,7.7-43.4,20.6-57,37.4c0.1,0,0.1,0,0.2,0
		C38.4,69.5,39,69.5,39.8,69.5z"/>
	<path class="st1" d="M280.5,75.3c21.4,27.5,26.3,64.3,24.1,94.8c-11.1-26.9-33.9-62-59.8-82.7c2.6,5.4,4.6,11.1,6.7,18.8
		c-41.8-25.6-90.2-41.1-143.7-37.4c0,0,6.5,7,8.5,10.9c-29.1,12.2-69.1,27.1-103.7,90.4c-9.1-44,21.3-87.3,30.9-97.6
		c-5.2-0.2-6.2,0.1-11.8-0.1C63.4,28,123.8,18.9,155.9,21.5l-8.3-10.3c44.4-1.8,65.4,11.2,74,14.7C256.1,42.8,273.1,64.7,280.5,75.3
		"/>
	<path class="st2" d="M161.5,16.4l-3.4,0.1c0,0,4.8,6.8,6.9,9.8C148.8,25,86.6,23,44.8,64.6l-3,2.9c0,0,10.8,0.4,12,0.4
		c-1,1.3-2.1,2.6-2.1,2.6C39.1,85.7,22,106.5,16,146.8l-1.1,7.8l4.4-6.5c22.6-33.1,51.8-56.5,87-69.3l2.3-0.8l-1.4-1.9
		c-3.7-5.1-7.3-8.4-10.5-11.2c61.5-6.2,106.1,10.5,141.5,27.8l4.3,2.1l-1.9-4.4c-3.4-8.3-6.6-13.9-9.8-19.1
		c26.6,15.8,45.3,39,64.5,68.7l3.9,6.1l-0.6-7.3C291.6,58.4,213.1,15.4,161.5,16.4"/>
	<path class="st3" d="M170.2,27.5c0,0-3.1-4.4-5.2-7.4c25,0.5,54.6,11.4,78.3,29c20.2,15.1,44.8,41.4,50.8,82.5
		c-19.6-29.4-39.3-52.3-68.1-67.3l-6.2-3.2l3.9,5.9c4.1,6.2,7.7,11.8,11.6,20.3C201.1,71,154.4,54.3,92,61.6l-4.3,0.5l5,4.2
		c3.1,2.6,6.5,5.6,10,10c-32.5,12.4-60,33.8-81.8,63.5c6.7-34.4,22.1-53.1,33.6-67l6.7-8.3l-3.7-0.1c0,0-6.8-0.2-7-0.2
		c46.9-43.2,117.2-34,117.9-33.9l4.2,0.6L170.2,27.5"/>
</g>
</svg>
