<?xml version="1.0" encoding="utf-8"?>
<!-- Generator: Adobe Illustrator 21.1.0, SVG Export Plug-In . SVG Version: 6.00 Build 0)  -->
<!DOCTYPE svg PUBLIC "-//W3C//DTD SVG 1.1//EN" "http://www.w3.org/Graphics/SVG/1.1/DTD/svg11.dtd">
<svg version="1.1"
	 id="Layer_1" xmlns:cc="http://creativecommons.org/ns#" xmlns:dc="http://purl.org/dc/elements/1.1/" xmlns:rdf="http://www.w3.org/1999/02/22-rdf-syntax-ns#"
	 xmlns="http://www.w3.org/2000/svg" xmlns:xlink="http://www.w3.org/1999/xlink" x="0px" y="0px" width="300px" height="231.8px"
	 viewBox="0 0 300 231.8" style="enable-background:new 0 0 300 231.8;" xml:space="preserve">
<style type="text/css">
	.st0{fill:#005778;stroke:#005778;}
	.st1{fill:#FFFFFF;}
	.st2{fill:#F58220;}
	.st3{fill:#008E97;}
	.st4{clip-path:url(#SVGID_2_);}
</style>
<g transform="matrix(1.25 0 0 -1.25 -261.2 590.71)">
	<g transform="matrix(.25 0 0 .25 229.24 297.11)">
		<path class="st0" d="M737.1,516.1c-7.1-1.7-24.5-2.2-31.9-2.2c-7.4,0-17.9,1.1-34.1-5.9c-11.6-5.1-19.4-15.2-22.8-20.5
			c1.1,1.6,2.1,2.8,3,3.5c0,0,11.8,13.6,35.8,11.8c-0.8-1.2-1.5-2.9-0.7-4.6c0,0,0,0,0-0.1c0.1-0.2,0.2-0.5,0.4-0.7l0,0
			c0-0.1,0.1-0.1,0.1-0.2c0,0,8.6,2.8,14.7,4.6c13.2,3.3,21.4,5.5,30.3,9.2c12.2,5,16.1,7.2,15.7,8.1
			C747.1,519.9,744.1,517.8,737.1,516.1"/>
		<path class="st1" d="M651.2,490.8c-0.9-0.7-1.9-1.9-3-3.5c-4.3-6.1-9.7-17.1-9.7-17.1c8,11.9,33.3,21.9,48.2,27
			c-0.2,0.2-0.3,0.4-0.4,0.7c0,0,0,0,0,0.1c-0.8,1.7-0.1,3.4,0.7,4.6C663,504.4,651.2,490.8,651.2,490.8"/>
		<path class="st2" d="M675.3,210.6c-5.1-10.4,8.2-42.4,20.3-51.9c-8.9,2.7-55.3,15.9-62.7-1.3c-8.2-18.9,37.2-88.1,42.3-101.1
			c-20.9,20.7-78.2,67.3-86.3,61.9c-8.1-5.3-6.1-31.2-4-44.4c-7.9,9.6-21.4,24.9-33,20.3c-11.7-4.6-10.2-49.1-11-68.1
			c-9.6,22.3-25.3,67.2-39.9,65.6c-14.5-1.6-30.9-32.2-34-43.9c-2.2,11.7-11.7,37.4-26.1,37.4s-47.9-68-58-90.1
			c0,17.1,4.1,100.6-5,104.7c-9.1,4.1-39.7-14.9-46.3-23.5c2.4,11,4.5,48-3.7,52.5c-8.2,4.5-31.4,5.9-73.5-33
			c7,14.9,18.5,31.2,21.3,46.9c17.4,0.9,34.7,2.9,52.1,6.3c38-27.5,84.7-43.7,135.1-43.7c127.5,0,230.8,103.3,230.8,230.8
			c0,10-0.6,19.8-1.9,29.5c8.5,8,16.7,15.8,24.4,23.1c-1.7-4.2-2.7-9.2-2.6-15.4c0.5-19.5,50.9-23.6,77.7-25.8
			c-29.9-4.1-82.2-25.7-72.3-37.3c9.9-11.6,38.9-27.6,43-29.6c-13.8,0-59.2-4.7-64.2-17.6c-5.1-12.9,65.6-56,91.5-66.1
			C757.3,205.9,680.4,221,675.3,210.6"/>
		<path class="st2" d="M636.3,542.3c-15.1-3-30.7-7.3-46.8-13.3c-36.3,23.9-79.8,37.7-126.5,37.7c-127.4,0-230.8-103.3-230.8-230.8
			c0-30.7,6-60,16.9-86.7c-13.1-9.7-25.7-17.4-38.6-23.4c9.4,11.2,17.6,32.8,7,38.5c-7.3,3.9-41.1,5.5-41.1,5.5s38.1,25.6,37.2,44.1
			c-0.9,18.5-61.6,28-85.6,33.3c21.2,4.5,89.8,20,92.7,33.8c3,13.8-21.4,23.6-31.7,28.4c11.5-0.1,40.6-5,44.5,9.2
			c4.5,16.3-67.2,58.8-83.6,64.6c3.7-0.9,72-16.8,96.9-11.4c18.6,4-3.1,29-6.7,32c5.5-2.7,36.8-9.1,45.8,5.7
			c9,14.9-21.4,74.1-38.5,99.2c15.1-15.1,84.2-64.2,94.5-55.8c10.3,8.4,2.4,35.4-3.1,44.3c11.1-10.4,22.1-24.3,36.2-24
			c7.1,0.1,16,23.6,17.5,76.5c9.6-29.6,32.5-69.9,49.3-67.5c16.8,2.4,22.6,27.4,24.9,38c1.9-11.4,10.8-40.7,22-41.8
			c13.8-2.2,40.1,59.1,49.7,86.8c1.5-13.7-8.6-83.9,6.3-89.7c14.8-5.8,39.3,23.7,53.2,40.3c-8.4-16-24.9-54.8-15.1-64
			c9.8-9.3,43.8,0.4,57,11.4C636.1,554.9,635.3,548.4,636.3,542.3"/>
		<path class="st3" d="M731.9,510.8c-8.9-3.7-17.1-5.9-30.3-9.2c-6.1-1.8-14.7-4.6-14.7-4.6c0,0.1-0.1,0.1-0.1,0.2
			c-14.9-5.1-40.1-15.1-48.2-26.9c0.3,0.7,5.4,11.2,9.6,17.1c3.5,5.3,11.3,15.5,22.8,20.5c16.1,7,26.6,5.9,34.1,5.9
			c7.4,0,24.8,0.5,31.9,2.2c7.1,1.7,10.1,3.9,10.5,2.9C748,518,744.1,515.8,731.9,510.8L731.9,510.8z M817.4,543.4
			c-17.6-1.7-52.9-14.4-52.9-14.4c-64.4,16.7-140.8,18.6-234.6-38.4c-17.5-10.7-33.5-21.7-48.3-32.9c-14.8-11.2-28.4-22.7-41-34.1
			c-5.5-4.9-12.5-11.3-18.5-17.4c-30.4-10.1-43.9-0.7-85.7-6.2c-33.1-4.4-45.9-15.6-53.2-24.5c-0.9-2.6-0.8-4.8,0.9-6.2
			c4-3.2,10.1-1.6,21.6-0.7c11.6,0.8,29.1,0.6,40.7-6.7c7.5-4.6,10.8-15.8,12.1-22c-8.7-9.2-17.2-18.1-25.8-26.6
			c-52.8-52.2-88.4-83.4-128.1-99c-86.3-33.8-134.9,5.9-154.4,17.6l0,0C26.5,247-4.8,252-21.6,255.1c-16.8,3.2-26,11.3-29.6,14.3
			c-3.6,3.1-6.3,8.2-10.4,7c-1-0.3-2-0.6-2.6-1.2c0.7,0.6,1.6,0.9,2.6,1.2c0.6-7.3,25.1-68.2,102.9-79.2c22.2-3.2,29.3-2.2,33.4-1.9
			c-13.1,11.5-23.9,27.5-24.8,28.5c3-2.6,5.9-5,8.9-7.4c23.2-24.8,49.6-35,71.7-38.7c1.5-0.5,23.3-1.4,23.3-1.4
			c25.5,0.5,59.7,8,91.5,17.3c93.3,27.1,183.3,107.9,183.3,107.9s-5-21.8-6.9-29.5c-1.3-6.1-5.9-26.5-14.5-47.9
			c0,0-2.6-6.5-6.3-14.3c-5.5-11.7-13.3-26.4-13.3-32.5c0-0.3,0-0.6,0.1-0.8c0,0,0.1-0.7,0.3-1.5c7,3.7,16.6,10.2,27.4,19.3
			c17,14.2,38.5,35.7,63.4,66.5c56,69.1,64.9,116.3,104.2,153.1c16.7,15.6,60.5,39.7,82.9,47.5c0.3,0.1,0.4,0.2,0.5,0.2c0,0,0,0,0,0
			l0,0c37.9,21.6,75,38.4,81,40.8c22.2,8.9,100.2,34.8,108.4,21.9h0C852.5,539.2,834.8,545.1,817.4,543.4"/>
		<path class="st1" d="M421.8,272.1c-1.3-6.1-5.9-26.5-14.5-47.9c-30.5-16.2-79.2-36.9-123.3-47.3c-86.8-20.4-142.4-2.7-152,0.4
			l-1.4,0.4c2.1-0.5,23.2-1.4,23.2-1.4c4.6-0.1,63.8-2.4,128.9,22C336,217.8,388.3,249.5,421.8,272.1"/>
		<path class="st0" d="M428.7,301.6c0,0-5-21.8-6.9-29.5c-33.5-22.5-85.8-54.3-139-73.7c-65.1-24.4-124.4-22.1-128.9-22
			c25.5,0.5,59.8,8,91.5,17.3C338.7,220.7,428.7,301.6,428.7,301.6"/>
		<path class="st3" d="M650.1,339.7c-6.6-20.4-16.8-48.4-29.3-72c-14.8-28.1-34.3-47.5-44.6-54.9c-1.7,1-2.4,3.2-2.4,5.5
			c-0.1,4,8.7,24.6,12.2,68.1c11.1,8.3,21.1,16.3,29.9,23.6C627.1,319.3,638.6,329.4,650.1,339.7"/>
		<path class="st0" d="M137,242.4c0-2.8-0.4-5.6-1.1-8.4c-1.3-4.9-3.9-10.8-8.1-16.9c-2.5-3.7-6.7-8.4-6.7-8.5
			c-0.7,0-3.9-0.2-6.6,0.1c-2.7,0.3-5.6,0.8-6.8,1v0c-0.7,1,35,25.3,25.3,37.1C133.6,246.8,136.9,247.5,137,242.4"/>
		<path class="st0" d="M851.4,508.9C851.4,508.9,851.4,508.9,851.4,508.9c0,0-1.5-2.1-6.3-6.3c-4.8-4.2-13-10.5-26.4-18.7
			c-12.9-7.9-48.8-32.2-76.3-57.7c-1-0.9-74.7-70.5-76.5-72.2c-0.2-0.6-9.8-36.2-32.6-82.5c-16-32.4-39.9-52.7-48.3-57.3
			c-0.5-0.3-5.5-3.4-8.7-1.3c10.3,7.4,29.8,26.8,44.6,54.9c12.5,23.6,22.6,51.6,29.3,72c-11.5-10.3-23-20.4-34.2-29.7
			c-8.8-7.3-18.8-15.3-29.9-23.6c0,0-23.9-17.6-37.4-26.5c0,0,0,0,0,0c-7.6-5-42.2-26.6-63.2-38c-17.8-9.7-55.1-27.4-55.2-27.5h0
			c-19.4-16.4-34.7-24.1-38.7-23c-2.5,0.6-3.4,3.6-3.4,3.7c7,3.7,16.6,10.2,27.4,19.3c17,14.2,38.5,35.7,63.4,66.5
			c56,69.1,64.9,116.3,104.2,153.1c16.7,15.6,60.5,39.7,82.9,47.5c0.3,0.1,0.4,0.2,0.5,0.2c-25.7-14.6-51.7-31.5-68.7-47.7
			c-32.9-30.7-44.1-66.6-76.7-115.7l-0.8-1.3c109.8,83.2,194.6,179.6,282.3,210.4c2.8,1,5.4,1.9,8,2.8c0.1,0,0.2,0.1,0.3,0.1
			c29.8,10.1,41.9,11.7,42.8,6C854.1,513.8,852.1,510.2,851.4,508.9"/>
		<path class="st3" d="M107.7,209.7L107.7,209.7c-22.1,4.2-48,19.3-56.1,23.9c2.8,2.7,9.5,7.5,22.4,6.7c17.7-1.1,37.2-2.5,46.3,0.2
			c7.8,2.4,9.3,5.8,12.7,6.2h0C142.7,234.9,107,210.7,107.7,209.7"/>
		<path class="st0" d="M336.4,399.9c41.8,5.5,55.3-4,85.7,6.2c6,6.1,13,12.4,18.5,17.4c-8.6-2.8-15.3-4.4-21.5-5.5
			c-14.2-2.8-24.6-2.1-54.1-6c-46.4-6.1-68.1-20.7-74.2-26.3c-1.8-1.7-3.2-3.2-5.2-5.9c-1.3-1.8-2.3-4-2.4-4.4
			C290.4,384.2,303.3,395.5,336.4,399.9"/>
		<g>
			<defs>
				<rect id="SVGID_1_" x="248.9" y="215" width="300" height="231.8"/>
			</defs>
			<clipPath id="SVGID_2_">
				<use xlink:href="#SVGID_1_"  style="overflow:visible;"/>
			</clipPath>
			<g transform="matrix(0 1 -1 0 701.81 90.498)" class="st4">
				<path class="st0" d="M116.9,297.6c-11.7,5.5-26.4,13.3-32.5,13.3c-0.3,0-0.6,0-0.8-0.1c-27.7,70.8-26.4,128.5-26.4,128.7
					c-4.6,97.4,35,174,35,174s0,0,0,0c0,0.2,0,0.7,0,1.6c0,9.1,0.7,54.3,14.5,84c15.1,32.5,38.7,51.1,56.4,59.3
					c13.2,6,17.4,6.3,19.2,4.4c0.1-0.2,0.3-0.3,0.4-0.5c0,0,0,0,0,0c0.3-0.6,0.6-1.3,0.8-2.1c-7.3-0.6-68.2-25.1-79.2-102.9
					c-3.2-22.2-2.2-29.3-1.9-33.4c11.5,13.1,27.5,23.9,28.5,24.8c-2.6-3-5-5.9-7.4-8.9c-24.8-23.2-35-49.6-38.7-71.7
					c0,0,0-0.1,0-0.1v0l0-0.1l-0.4-1.2c-3.1-9.5-20.8-65.1-0.4-152c10.3-44.1,31.1-92.8,47.3-123.3
					C131.2,291.3,124.8,293.8,116.9,297.6"/>
				<path class="st1" d="M431.4-157.4c12.9,8.2-13,86.2-21.9,108.4C407-43,390.3-5.9,368.7,32c-14.6,25.7-31.5,51.7-47.7,68.7
					c-30.7,32.9-66.6,44.1-115.7,76.7l-1.3,0.8C287.2,68.5,383.6-16.4,414.4-104c1-2.8,1.9-5.4,2.8-8c0-0.1,0.1-0.2,0.1-0.3
					c10.1-29.8,11.7-41.9,6-42.8c-2.4-0.4-6.1,1.6-7.4,2.3c0,0-2.1,1.4-6.3,6.3c-4.2,4.8-10.5,13-18.7,26.4
					c-7.9,12.9-32.2,48.8-57.7,76.3c-0.9,1-70.5,74.7-72.2,76.5c-0.6,0.2-36.2,9.8-82.5,32.6c-32.4,16-52.7,39.9-57.3,48.3
					c-0.3,0.5-3.4,5.5-1.3,8.7c1,1.7,3.2,2.4,5.5,2.4c4,0.1,24.6-8.7,68.1-12.2c0,0-17.6,23.9-26.5,37.4c-5,7.6-26.6,42.2-38,63.2
					c-9.7,17.8-27.4,55.1-27.5,55.3c-16.4,19.4-24.1,34.7-23,38.7c0.6,2.5,3.6,3.4,3.7,3.4c0.9,0.3,1.5,0.3,1.5,0.3
					c-27.7,70.8-26.4,128.5-26.4,128.7c-4.6,97.4,35,174,35,174c0,0.2,0,0.7,0,1.6c0,9.1,0.7,54.3,14.5,84
					c15.1,32.5,38.7,51.1,56.4,59.3c13.2,6,17.4,6.3,19.2,4.4c0.6-0.7,0.9-1.6,1.2-2.6c1.2-4.1-4-6.8-7-10.4
					c-3.1-3.6-11.2-12.8-14.3-29.6c-3.2-16.8-8.2-48.2-23.3-71.8c-11.7-19.5-51.4-68.1-17.6-154.4c15.6-39.8,46.7-75.3,99-128.1
					c8.5-8.6,17.4-17.1,26.6-25.8c6.2,1.2,17.4,4.6,22,12.1c7.2,11.6,7.5,29.1,6.7,40.7c-0.9,11.6-2.4,17.7,0.7,21.6
					c1.1,1.4,2.9,1.7,4.6,1.3c1.7-0.4,3.3-1.1,4.8-2.1c0.4-0.2,0.8-0.5,1.2-0.8c2.7-1.9,4.2-3.3,5.9-5.2
					c5.6-6.1,20.2-27.8,26.3-74.2c3.9-29.6,3.1-39.9,6-54.1c1.1-6.3,2.8-12.9,5.5-21.5c11.5-12.7,22.9-26.3,34.1-41
					c11.2-14.8,22.3-30.8,32.9-48.3C454.6,74.8,452.7-1.6,436-66c0,0,12.7-35.3,14.4-52.9C452.2-136.2,446.3-154,431.4-157.4
					L431.4-157.4z M254.4-92.9c-4.1,29.9-25.7,82.2-37.3,72.3c-11.6-9.9-27.6-38.9-29.6-43c0,13.8-4.7,59.2-17.6,64.2
					c-12.9,5.1-56-65.6-66.1-91.5c9.1,32.2,24.2,109,13.8,114.2c-10.4,5.1-42.4-8.2-51.9-20.3c2.7,8.9,15.9,55.3-1.3,62.7
					C45.6,73.8-23.7,28.5-36.6,23.3c20.7,20.9,67.3,78.2,61.9,86.3c-5.3,8.1-31.2,6.1-44.4,4c9.6,7.9,24.9,21.4,20.3,33
					c-4.6,11.7-49.1,10.2-68.1,11c22.3,9.6,67.2,25.3,65.6,39.9c-1.6,14.5-32.2,30.9-43.9,34c11.7,2.2,37.4,11.7,37.4,26.1
					c0,14.4-68,47.9-90.1,58c17.1,0,100.6-4.1,104.7,5c4.1,9.1-14.9,39.7-23.5,46.3c11-2.4,48-4.5,52.5,3.7
					c4.5,8.2,5.9,31.4-33,73.5c14.9-7,31.2-18.5,46.9-21.3c0.9-17.4,2.9-34.7,6.3-52.1c-27.5-38-43.7-84.7-43.7-135.1
					C12.3,108.1,115.6,4.8,243.1,4.8c10,0,19.8,0.6,29.5,1.9c8-8.5,15.8-16.7,23.1-24.4c-4.2,1.7-9.2,2.7-15.4,2.6
					C260.7-15.7,256.6-66.1,254.4-92.9L254.4-92.9z M147.3,624.5c-1.1-17.7-2.5-37.2,0.2-46.3c2.4-7.8,5.8-9.3,6.2-12.7v0
					c0.1-0.5,0.8-3.8-4.3-4c-2.8,0-5.6,0.4-8.4,1.1c-4.9,1.3-10.8,3.9-16.9,8.1c-3.7,2.5-8.4,6.7-8.5,6.7c0,0.7-0.2,3.9,0.1,6.6
					c0.3,2.7,0.8,5.6,1,6.8c4.3,22.1,19.3,48,23.9,56.1C143.3,644.2,148.1,637.4,147.3,624.5L147.3,624.5z M171.5,481.1
					c3.9,7.3,5.5,41.1,5.5,41.1s25.6-38.1,44.1-37.2c18.5,0.9,28,61.6,33.3,85.6c4.5-21.2,20-89.8,33.8-92.7
					c13.8-3,23.6,21.4,28.4,31.7c-0.1-11.5-5-40.6,9.2-44.5c16.3-4.5,58.8,67.2,64.6,83.6c-0.9-3.7-16.8-72-11.4-96.9
					c4-18.6,29,3.1,32,6.7c-2.7-5.5-9.1-36.8,5.7-45.8s74.1,21.4,99.2,38.5c-15.1-15.1-64.2-84.2-55.8-94.5
					c8.4-10.3,35.4-2.4,44.3,3.1c-10.4-11.1-24.3-22.1-24-36.2c0.1-7.1,23.6-16,76.5-17.5c-29.6-9.6-69.9-32.5-67.5-49.3
					c2.4-16.8,27.4-22.6,38-24.9c-11.4-1.9-40.7-10.8-41.8-22c-2.2-13.8,59.1-40.1,86.8-49.7c-13.7-1.5-83.9,8.6-89.7-6.3
					c-5.8-14.8,23.7-39.3,40.3-53.2c-16,8.4-54.8,24.9-64,15.1c-9.3-9.8,0.4-43.8,11.4-57c-8.1,3.7-14.6,4.5-20.7,3.5
					c-3,15.1-7.3,30.7-13.3,46.8c23.9,36.3,37.7,79.8,37.7,126.5c0,127.4-103.3,230.8-230.8,230.8c-30.7,0-60-6-86.7-16.9
					c-9.7,13.1-17.4,25.7-23.4,38.6C144.2,478.6,165.7,470.4,171.5,481.1L171.5,481.1z M429.1-165.7c3.5,0.2,5.6,0.8,5.6,0.8l0,0
					c14.9,4.3,24.1,19.5,24.1,40.2c0,2.2-0.1,4.4-0.3,6.7c-1.6,15.9-11.1,44.1-14,52.4c6.6,26.3,9.9,50.9,9.9,75.2
					c0,12.6-0.9,25.1-2.6,37.5l0,0l-0.7,5.1c0,0,6.5,2,21.7-3.2c7.9-2.7,15.1-6.4,15.1-6.4S458,99.9,467.5,107
					c9.5,7.1,85-24.9,85-24.9s-61.3,55.2-58.6,66c1.1,4.2,23.3,4.7,47.2,4.9c32.4,0.3,69.4-0.8,69.4-0.8s-113,45.4-112.4,56.5
					c0.5,9.6,60.8,23.6,60.8,23.6s-52,8.8-58.3,24.5c-6.4,15.8,90.8,56.3,90.8,56.3s-97.3,1.9-99.4,13.2
					c-2.2,11.3,34.2,47.2,34.2,47.2s-48.4-16.8-54.8-11.1c-3.8,3.4,17.6,38,43.3,73.9c14.9,20.8,27.4,38.1,27.4,38.1
					s-33.7-20.3-68.8-36.4c-24.2-11.1-47.5-17.8-52-14.9c-11.1,7.1,4.7,60.5,4.7,60.5s-29.2-30.3-36.7-28.4
					c-3.7,0.9-1,31.1,3.2,61.8c4.4,32.5,10.6,65.6,10.6,65.6s-63-108.3-74.3-104.9c-9,2.7-1.6,70.1-1.6,70.1s-26.8-58.6-35.6-58.3
					c-8.8,0.2-37.8,114.7-37.8,114.7S232,500.5,220.4,498.5c-11.6-2-48.6,40.9-48.6,40.9s-4.5-49.9-11-52.4
					c-6.5-2.5-32.3,12.1-36.4,24.8c-5.1,15.7-8.3,29.9-8.3,47.3c0,2.5,0.1,4.9,0.2,7.3c1.1-0.9,2.3-1.7,3.3-2.4
					c6.3-4.3,12.9-7.5,19.3-9.2l0.1,0l0.1,0c3.5-0.9,7-1.3,10.4-1.4l0.1,0l0.1,0c3.8,0.1,7.1,1.4,9.3,3.6c3.7,4.2,3.3,8.2,2,11
					l-4.8,9.8c-0.3,0.7-0.6,1.6-0.9,2.6c-0.6,1.9-1.2,5.9-1.2,14.1c0,7.8,0.6,17.1,1.1,26.1c0,0,0.3,5.5,0.3,6.6
					c0,10.7-3.4,17.9-6.5,22.2l1.2,2.3c11.6,21.9,16.4,47.4,19.3,63.4c0.2,1.2,0.4,2.4,0.7,3.5c3.5,17.6,13.9,27.2,14.7,28
					c1.6,1.5,3.7,3.4,5.2,6c0,0,2.9,4.6,0.8,11.4c-1.6,4.4-5,6.3-5,6.3c-6.3,3.8-15.6,0.2-26-4.6c-11.9-5.4-41.5-22.5-60.4-63.2
					c-6.2-13.3-10.6-30.9-13.1-52.2c-1.9-16-2.1-29.5-2.1-34.9c-2.5-5.2-9.9-21.2-17.3-44.9C58.7,544.5,49,503.7,48.8,457
					c0,0-0.2-16.6,0.4-25.5c-3.7-0.9-17.1,5.6-32.7,13.3c-18.5,9.2-40.4,21-40.4,21s18.9-21.4,32.9-41.3
					c14.1-20,25.4-42.5,18.9-47.8c-12.3-10-63.2,0.7-63.2,0.7s35.8-40.5,31-49.9c-2.2-4.3-29-4.7-57.2-4.7
					c-33.4,0-68.8,0.9-68.8,0.9s112.8-55.7,109.6-67.3c-3.2-11.6-54.6-24.3-54.6-24.3s62.7-21.2,61.1-34.1
					c0.6-5.2-19.7-16.3-40.5-26.2c-22.8-10.8-45-20.1-45-20.1s23.3-0.2,47-1.8c21.5-1.5,42.4-4.2,43.6-8.9
					c2.4-9.9-36.2-38.8-36.2-38.8s53.9,10.2,58.5,2.2c4.6-8-78.4-104-78.4-104s116.7,63,125.7,55.3c8.9-7.7-9.3-75-9.3-75
					s11.8,10,25.2,18.6c14,9,29.6,16.4,33.4,12.9c3.4-3.2-0.1-38.3-7.2-74.5c-8.1-41.8-13.9-69-13.9-69s13.3,24.6,35.2,60.9
					c18.9,31.4,40.2,59.1,43.7,57.9c7.4-2.5,14.6-77.6,14.6-77.6s7.4,12.6,15.7,26.1c9,14.7,20.2,30.4,24.3,30.4
					c3.6,0,12.5-18.8,20.1-43.7c9.2-29.8,15.3-57.3,15.3-57.3S265.4-32,280-25.6c10,4.4,23-3.7,31.4-9.5c8.4-5.9,16-14.3,16-14.3
					c25.8-28,49.6-63.5,56.6-74.9c0.5-0.8,1-1.6,1.5-2.4c0,0,19.4-26.3,21.6-29c2-2.4,8.3-8.4,16.3-9.7
					C423.4-165.3,425.6-165.8,429.1-165.7"/>
			</g>
		</g>
	</g>
</g>
</svg>
