<?xml version="1.0" encoding="utf-8"?>
<!-- Generator: Adobe Illustrator 21.1.0, SVG Export Plug-In . SVG Version: 6.00 Build 0)  -->
<!DOCTYPE svg PUBLIC "-//W3C//DTD SVG 1.1//EN" "http://www.w3.org/Graphics/SVG/1.1/DTD/svg11.dtd">
<svg version="1.1"
	 id="Layer_1" xmlns:cc="http://creativecommons.org/ns#" xmlns:dc="http://purl.org/dc/elements/1.1/" xmlns:rdf="http://www.w3.org/1999/02/22-rdf-syntax-ns#"
	 xmlns="http://www.w3.org/2000/svg" xmlns:xlink="http://www.w3.org/1999/xlink" x="0px" y="0px" width="306px" height="244.6px"
	 viewBox="0 0 306 244.6" style="enable-background:new 0 0 306 244.6;" xml:space="preserve">
<style type="text/css">
	.st0{fill:#FFFFFF;}
	.st1{fill:#005778;stroke:#005778;}
	.st2{fill:#F58220;}
	.st3{fill:#008E97;}
	.st4{fill:#005778;}
</style>
<g>
	<path class="st0" d="M146.5,244.6c-0.5,0-1.1-0.1-1.6-0.2c-3-0.7-5.1-3.5-5-6.6c0-1.2,0.3-11.7,0.3-21.3c0-1.8,0-5-0.1-8
		c-1.9,1.4-4,3.1-5.9,4.8c-1.2,1.1-2.8,1.7-4.4,1.7c-1.2,0-2.3-0.3-3.3-0.9c-2.5-1.4-3.7-4.3-3.2-7.1c0.8-3.8,1.3-7.7,1.4-10.6
		c-1.6,0.9-3.5,2-5.8,3.6c-5.9,4.1-12.2,9.7-12.3,9.8c-1.2,1.1-2.8,1.7-4.4,1.7c-1.5,0-3-0.5-4.1-1.4c-2.5-2-3.2-5.5-1.7-8.3
		c0.4-0.7,3.8-7.1,6.5-12.4c0.1-0.2,0.2-0.3,0.3-0.5c-14.6-0.3-27.3-3.4-35.5-5.9c-6.3-2-11-4-13.6-5.1c-2.2,0-5.9-0.2-10.2-0.7
		c-7.3-0.9-13.5-2.4-18.3-4.7c-14.7-6.8-21-17.7-23-22.1c-1.7-3.6-4.2-9.1-1.1-14.3c0.6-0.9,2.2-3.3,5.5-4.4c0.1,0,0.2-0.1,0.3-0.1
		c1.1-0.3,2.3-0.5,3.5-0.5c2.7,0,4.7,1,5.4,1.4c1.6,0.9,2.8,2.2,3.4,2.8c0.1,0.1,1.8,2,5.2,2.6l1,0.2c4.6,0.9,12.2,2.2,19.3,5.5
		c2.1-0.8,4.5-1.2,7-1.2c0.4,0,2.4,0.1,2.4,0.1c2.7,0.2,5.5,0.3,7.8,0.3c1.6,0,2.3-0.1,2.5-0.1c0.7-0.3,3-1.5,3-1.5
		c1.3-0.6,2.6-0.9,4-0.9c0.7,0,1.3,0.1,2,0.2c0.4-0.6,0.8-1.2,1.4-1.7c3.1-2.7,5.9-5.5,7.9-7.6c-5.7-1.9-15.5-4.4-25.1-6.4
		c-3-0.6-5.2-3.2-5.3-6.4c-0.1-3.1,2-5.8,5-6.6c8.7-2.2,17.6-4.7,24-6.7c-2.4-1.3-5.1-2.6-7.6-3.7c-3-1.4-4.5-4.6-3.6-7.8
		c0.8-2.9,3.4-4.9,6.4-4.9c0.2,0,0.5,0,0.7,0c0,0,1.7,0.2,4.1,0.4c-5.5-3.6-12.3-7.9-19-11.7c-2.8-1.6-4-5-2.9-8
		c1-2.6,3.5-4.3,6.2-4.3c0.4,0,0.8,0,1.2,0.1c0.1,0,10.3,1.9,20.2,3.3c1.6,0.2,3.2,0.4,4.7,0.6c-2-2.1-2.3-5.3-0.9-7.8
		c1.2-2,3.4-3.3,5.7-3.3c0.6,0,1.3,0.1,1.9,0.3c2.3,0.7,6.1,1.6,9.4,2.1c-0.7-2.1-1.7-4.8-3.1-7.7c-4.8-10.5-10.9-20.7-11-20.8
		c-1.6-2.7-1.1-6.2,1.2-8.3c1.2-1.1,2.8-1.8,4.5-1.8c1.4,0,2.7,0.4,3.9,1.2l0,0c0.1,0.1,0.3,0.2,0.4,0.3c1.4,1,6.1,4.4,11.5,8.3
		c3.7,2.7,7.3,5.1,10.5,7.2c-0.3-1.1-0.7-2.2-1.1-3.2c-1-2.9,0.1-6.2,2.8-7.8c1.1-0.7,2.3-1,3.5-1c1.8,0,3.5,0.7,4.7,2
		c2.1,2.1,4.3,4.1,6.1,5.6c0.7-5.5,1.2-13.6,1.4-21.5c0.1-3.1,2.3-5.8,5.4-6.4C149,6,149.4,6,149.9,6c2.7,0,5.1,1.6,6.1,4.1
		c3.3,7.9,7.3,16,10.2,20.8c0.9-2.6,1.8-5.9,2.3-9.2c0.5-3.1,3.2-5.4,6.3-5.5l0.2,0c3.1,0,5.8,2.1,6.5,5.1c0.5,2.3,1.2,4.7,1.8,7
		c3.1-6.3,7-15.3,10.6-24.1c1-2.5,3.4-4.2,6.2-4.2c0.5,0,0.9,0,1.4,0.1c3.2,0.7,5.4,3.5,5.3,6.7c-0.1,2-0.3,12.3-0.3,21.4
		c0,0.8,0,1.9,0,3c3.2-3.1,7.1-7,10.5-10.9c1.3-1.4,3.1-2.2,4.9-2.2c1.3,0,2.5,0.4,3.6,1c2.7,1.7,3.8,5.2,2.5,8.2
		c-2.3,5.5-4.5,11.5-6,16c3-1.2,6.4-2.8,9.2-4.2c0.9-0.5,2-0.7,3.1-0.7c1.8,0,3.4,0.7,4.7,1.9c2.1,2,2.5,5.1,1.2,7.7
		c0,0-0.2,0.4-0.5,0.9c1.6-0.1,3.2-0.1,4.8-0.1c7.6,0,15.2,0.9,23.2,2.8c4.3-1.4,11.3-3.6,16-4.1c0.9-0.1,1.8-0.1,2.7-0.1
		c9.4,0,16.6,4.6,18.9,12.1c0,0,0,0,0,0.1c0.1,0.4,0.5,1.7,0.6,3.4c0,0.2,0,0.4,0,0.5c0,1.3-0.1,2.3-0.2,2.8
		c-0.8,4.9-4.3,8.1-5.3,8.9c-0.9,0.7-6.2,4.7-9.4,7c-0.1,0.1-0.3,0.2-0.4,0.3L290,83c-3.4,2.1-14,9.2-22.4,16.9c0,0-2.2,2-3.5,3.9
		c-0.7,1-1.2,1.8-1.5,2.4c4.7,1.4,15.8,3.1,27.6,4.1c3.3,0.3,5.9,2.9,6.1,6.2c0.2,3.3-1.9,6.2-5.2,6.9c-0.4,0.1-8.7,2-17.4,4.6
		c-1.4,0.4-2.6,0.8-3.7,1.2c0.3,0.2,0.7,0.4,1,0.6c4.1,2.5,8,4.8,8.1,4.8c2.5,1.5,3.7,4.3,3.1,7.2c-0.6,2.8-3,4.9-5.8,5.2
		c-3.6,0.3-7.3,0.8-10.6,1.2c2,1.4,4.5,3,7.3,4.7c11,6.6,18.7,10.8,18.7,10.8c2.9,1.6,4.2,5.1,3.1,8.1c-1,2.6-3.5,4.3-6.2,4.3
		c-0.5,0-0.9,0-1.4-0.1c-0.1,0-8.6-1.8-21.4-4.3c-4.3-0.8-8.7-1.5-12.4-2c0,0,0,0,0,0.1c2.3,3.6,5.2,7,5.3,7.2
		c1.9,2.2,2.1,5.4,0.5,7.8c-1.2,1.9-3.3,3.1-5.6,3.1c-0.6,0-1.2-0.1-1.7-0.2c-3.3-0.9-8.7-2.2-13.2-2.9c3,7,8.6,18.5,14.6,29.7
		c1.5,2.8,0.8,6.3-1.7,8.3c-1.2,0.9-2.6,1.5-4.2,1.5c-1.6,0-3.1-0.6-4.3-1.6c-7.9-6.8-16-13.4-21.8-17.9c0.2,1.8,0.5,3.6,0.9,5.4
		c0.6,3-1,6.1-3.8,7.3c-0.8,0.4-1.7,0.6-2.7,0.6c-2.1,0-4.1-1-5.3-2.7c-0.9-1.2-1.8-2.4-2.8-3.5c-0.1,0.7-0.1,1.5-0.2,2.3
		c-0.5,7.2-0.6,14.2-0.6,14.3c0,3.1-2.3,5.9-5.4,6.5c-0.4,0.1-0.8,0.1-1.3,0.1c-2.7,0-5.1-1.6-6.1-4.1c-0.3-0.7-3-7.2-6.1-13.8
		c-0.9-1.9-1.7-3.5-2.4-4.7c-1.3,2.8-2.9,6.5-4.2,10.5c-0.9,2.7-3.4,4.5-6.3,4.5c-0.1,0-0.2,0-0.3,0c-2.9-0.1-5.5-2.2-6.2-5
		c-0.6-2.5-1.4-5.1-2.2-7.4c-3.8,6.1-9.2,16-14,25.9C151.4,243.2,149.1,244.6,146.5,244.6z M155.4,197.8c0.2,1.1,0.3,2.4,0.4,3.8
		c0.8-1.2,1.7-2.3,2.5-3.2C157.3,198.2,156.3,198,155.4,197.8z M221.3,185.1c-0.1-0.2-0.1-0.5-0.2-0.7c-0.2,0.1-0.3,0.2-0.5,0.3
		C220.9,184.9,221.1,185,221.3,185.1z M79.9,169.7c7.3,1.8,16,3.1,25.6,3.1c1.5,0,3.1,0,4.6-0.1c0.1,0,0.7,0,0.7,0
		c2.9,0,18.5-0.4,37.4-7.8c0.9-0.3,1.8-0.5,2.7-0.5c0.9,0,1.8,0.2,2.6,0.6c1.4-0.9,3.4-2.3,6.1-4.5c0.5-0.4,1-0.7,1.6-1l0,0
		c1.9-0.9,11.9-5.7,16.7-8.3c6.3-3.4,17-10.1,19.2-11.6c3.9-2.6,10.9-7.8,11.3-8c0.5-0.4,1.2-0.6,1.8-0.6c0.9,0,1.8,0.4,2.4,1.2
		l1.4,1.8l2.3,0.2c0.8,0.1,1.5,0.4,2,1c0.5,0.6,0.8,1.4,0.7,2.2c-0.2,2.1-0.4,4.2-0.6,6.2c1-1.5,2-3.1,2.9-5
		c6.2-12.6,9.2-22.6,9.7-24.5c0,0,0.1-0.3,0.1-0.3c0.3-1.1,1-2.1,1.8-2.9c0.2-0.2,21.1-19.9,22.7-21.4c-8.5,6.4-17.4,14.1-26.9,22.3
		c-10.3,8.9-21,18.1-32.7,27.1c-1.2,0.9-2.5,1.3-4,1.3c-1.7,0-3.3-0.6-4.5-1.8c-2.4-2.2-2.8-5.7-1.1-8.5l0.3-0.4
		c3.6-5.4,6.3-10.2,8.8-14.8c4.8-8.5,8.9-15.8,16.1-22.6c5-4.7,12.6-10.1,22.7-15.8c8.1-4.6,16.3-8.7,21.4-11
		c-3.8-0.5-7.5-0.8-11.1-0.8c-15.3,0-30.4,4.7-46.2,14.2c-5,3.1-9.8,6.3-14.5,9.9c-4.2,3.2-8.3,6.6-12.4,10.3
		c-0.7,0.6-1.5,1.1-2.4,1.4c-2.9,0.9-5.2,1.5-7.6,1.9c-2.5,0.5-4.8,0.7-7.5,0.9c-2.4,0.2-5.4,0.4-9.7,1c-2.9,0.4-5.5,0.9-7.7,1.4
		c1.7,0.5,3.2,1.2,4.5,2c4.5,2.8,6.2,8.2,6.8,11.2c0.4,2.1-0.2,4.3-1.7,5.8c-2.6,2.7-5.4,5.7-8.2,8.5
		c-17.5,17.4-28.9,27.1-42.2,32.4C90.4,167.7,85.1,169.1,79.9,169.7z M25.5,153.8c1.9,1.4,4.1,2.8,6.7,4.1c3.4,1.6,7.8,2.5,11.9,3.1
		c-0.2-0.1-0.8-0.5-0.8-0.5c-0.6-0.4-1-0.7-1.5-0.9C36.9,156.4,30.3,154.8,25.5,153.8z M81.5,150.7c0,0.9-0.1,1.8-0.2,2.8
		c1.4-0.3,2.8-0.7,4.4-1.2c0.2-0.2,0.6-0.5,1-1c-1.6-0.2-3.4-0.5-5.1-0.7C81.5,150.6,81.5,150.6,81.5,150.7z M94.6,117.7
		c0.3,0.1,0.6,0.3,0.9,0.4c0-0.3,0-0.6,0-0.8C95.2,117.5,94.9,117.6,94.6,117.7z M124.4,56.7c0.3,1,0.6,2,0.8,3c0.7-0.5,1.3-1,2-1.5
		C126.4,57.7,125.4,57.3,124.4,56.7z"/>
	<path class="st0" d="M146.5,241.6c-0.3,0-0.6,0-0.9-0.1c-1.7-0.4-2.8-1.9-2.8-3.6c0-0.1,0.3-11.2,0.3-21.4c0-3,0-9.7-0.4-13.5
		c-2.6,1.5-6.9,4.7-10.6,8c-0.7,0.6-1.5,0.9-2.4,0.9c-0.6,0-1.3-0.2-1.8-0.5c-1.4-0.8-2.1-2.4-1.7-3.9c1.3-6.2,1.8-13,1.3-15.8
		c-1.8,0.5-5.4,2.2-10.3,5.7c-6,4.2-12.5,10-12.6,10c-0.7,0.6-1.5,0.9-2.4,0.9c-0.8,0-1.6-0.3-2.3-0.8c-1.4-1.1-1.8-3-0.9-4.6
		c0-0.1,3.7-6.9,6.5-12.5c0.6-1.2,1.5-3.1,2.3-4.8c-0.2,0-0.5,0-0.7,0c-1.3,0-2.3,0-2.3,0c-15-0.1-28.1-3.2-36.5-5.8
		c-6.7-2.1-11.5-4.2-13.8-5.3c-2.1,0-6-0.2-10.5-0.7c-7-0.8-12.9-2.3-17.4-4.4C13,163.1,7.1,152.9,5.3,148.9
		c-1.5-3.3-3.5-7.7-1.3-11.5c0.3-0.6,1.5-2.3,3.9-3.1c0,0,0.1,0,0.1,0c0.9-0.3,1.7-0.4,2.6-0.4c2,0,3.4,0.7,3.9,1
		c1.3,0.7,2.2,1.7,2.7,2.3c0.3,0.3,2.6,2.7,6.8,3.5l1.1,0.2c4.8,0.9,12.7,2.3,19.7,5.8c1.7-0.8,4.1-1.5,7-1.5c0.4,0,2.3,0.1,2.3,0.1
		c2.8,0.2,5.6,0.4,7.9,0.4c2.5,0,3.3-0.2,3.4-0.2c0.1,0,0.2-0.1,0.3-0.1c0,0,3.1-1.5,3.1-1.5c0.9-0.4,1.8-0.6,2.7-0.6
		c1.5,0,2.9,0.5,4.2,1.5c-0.3-1.3,0.1-2.8,1.1-3.7c4.7-4.1,9.2-8.7,10.9-11.2c-4.6-2.1-18-5.6-29.5-8c-1.7-0.3-2.9-1.8-2.9-3.5
		c0-1.7,1.1-3.2,2.7-3.6c11.4-2.9,24.5-6.6,30.6-9c-3.3-2.1-8.8-4.9-13.7-7.1c-1.6-0.7-2.5-2.5-2-4.3c0.4-1.6,1.9-2.7,3.5-2.7
		c0.1,0,0.3,0,0.4,0c0.1,0,8,0.9,14.1,0.9c0.2,0,0.4,0,0.6,0C85.9,88,74.3,80.6,63.9,74.6c-1.5-0.9-2.2-2.7-1.6-4.4
		c0.5-1.4,1.9-2.4,3.4-2.4c0.2,0,0.4,0,0.7,0.1c0.1,0,10.4,1.9,20.3,3.3c5.1,0.7,9.5,1.2,12.7,1.4c-1.5-1.7-3.4-3.8-5.3-5.6
		c-1.2-1.2-1.5-3-0.6-4.4c0.7-1.1,1.9-1.8,3.1-1.8c0.3,0,0.7,0,1,0.1c2.4,0.7,9.6,2.6,13.7,2.6c0.2,0,0.4,0,0.5,0
		c-0.4-2.2-1.8-6.6-4.4-12.3c-4.9-10.7-11.1-21-11.2-21.1c-0.9-1.5-0.6-3.4,0.7-4.5c0.7-0.6,1.6-1,2.5-1c0.7,0,1.5,0.2,2.1,0.7
		c0,0,5.4,3.9,11.9,8.5c7.7,5.5,13.6,9.2,17.2,11.3c-0.6-2.9-1.8-6.9-3.1-10.7c-0.6-1.6,0.1-3.4,1.5-4.3c0.6-0.4,1.3-0.5,1.9-0.5
		c0.9,0,1.9,0.4,2.6,1.1c3.7,3.8,8,7.3,10.4,8.9c1.1-4.7,2-16.6,2.2-26.8c0-1.7,1.3-3.2,3-3.5c0.2,0,0.5-0.1,0.7-0.1
		c1.4,0,2.8,0.9,3.4,2.2c4.4,10.5,10.5,22.4,13.6,25.6c1.6-2.3,3.7-8.7,4.7-14.7c0.3-1.7,1.7-3,3.5-3c0,0,0.1,0,0.1,0
		c1.7,0,3.2,1.2,3.5,2.8c1.1,4.9,2.8,10.6,4.1,14c3.4-5.7,9.3-19,14-30.6c0.6-1.4,1.9-2.3,3.4-2.3c0.2,0,0.5,0,0.7,0.1
		c1.7,0.4,2.9,1.9,2.9,3.7c0,0.1-0.3,11.6-0.3,21.5c0,2.4,0.1,6.5,0.2,9.5c3.8-3.1,10.3-9.6,15.6-15.4c0.7-0.8,1.7-1.2,2.7-1.2
		c0.7,0,1.3,0.2,2,0.6c1.5,1,2.1,2.8,1.4,4.5c-3.3,7.9-6.7,17.4-7.6,21.8c3.8-0.9,10.6-4,14.9-6.2c0.5-0.3,1.1-0.4,1.7-0.4
		c0.9,0,1.9,0.4,2.6,1.1c1.1,1.1,1.4,2.8,0.7,4.2c0,0-1.1,2.1-1.8,4.2c-0.2,0.5-0.3,1-0.4,1.4c3.1-0.3,6.2-0.5,9.3-0.5
		c7.6,0,15.2,1,23.3,2.9c3.9-1.3,11.4-3.7,16.2-4.2c0.8-0.1,1.6-0.1,2.4-0.1c8,0,14.2,3.8,16,10c0,0,0,0,0,0
		c0.1,0.3,0.4,1.2,0.4,2.7c0,0.1,0,0.2,0,0.4c0,1.1-0.1,1.9-0.2,2.2c-0.7,4-3.7,6.7-4.3,7.2c-0.9,0.7-7.8,5.9-9.2,6.9
		c-0.1,0.1-0.2,0.1-0.2,0.2l-0.8,0.5c-3.5,2.1-14.3,9.4-22.8,17.2c0,0-2.4,2.2-3.9,4.4c-2.5,3.5-2.8,5.2-2.7,5.9
		c3.2,2,18.3,4.3,31,5.3c1.8,0.1,3.2,1.6,3.3,3.4c0.1,1.8-1.1,3.4-2.8,3.8c-0.1,0-8.6,1.9-17.6,4.7c-4.1,1.3-7.2,2.5-9.1,3.4
		c1.3,1,3.3,2.3,5.8,3.9c4.2,2.5,8.1,4.8,8.1,4.9c1.4,0.8,2,2.4,1.7,3.9c-0.3,1.5-1.6,2.7-3.2,2.8c-6.3,0.6-13.4,1.6-18,2.4
		c3,2.3,7.6,5.6,13.3,9c11.1,6.7,18.8,10.9,18.9,10.9c1.6,0.9,2.3,2.8,1.7,4.5c-0.5,1.5-1.9,2.4-3.4,2.4c-0.3,0-0.5,0-0.8-0.1
		c-0.1,0-8.6-1.8-21.5-4.3c-7-1.4-14.1-2.3-18.4-2.5c0.6,1.3,1.5,3,2.9,5.2c2.5,3.9,5.5,7.5,5.5,7.5c1,1.2,1.1,3,0.3,4.3
		c-0.7,1.1-1.8,1.7-3.1,1.7c-0.3,0-0.6,0-0.9-0.1c-3.5-0.9-13.3-3.3-18.5-3.5c2,6.1,9.5,21.6,16.6,34.6c0.8,1.5,0.4,3.5-0.9,4.6
		c-0.7,0.5-1.5,0.8-2.3,0.8c-0.8,0-1.7-0.3-2.4-0.9c-9.9-8.6-21.7-18.1-27.4-22c0.1,3.1,0.7,7.8,1.6,12.3c0.3,1.7-0.6,3.3-2.1,4
		c-0.5,0.2-1,0.3-1.5,0.3c-1.1,0-2.2-0.5-2.9-1.5c-2.5-3.3-5.4-6.6-7.4-8.5c-0.3,1.7-0.7,4.5-1,8.8c-0.5,7.2-0.6,14.4-0.6,14.5
		c0,1.7-1.2,3.2-2.9,3.5c-0.2,0-0.5,0.1-0.7,0.1c-1.4,0-2.8-0.9-3.4-2.2c0-0.1-2.9-7-6.2-13.9c-2.6-5.4-4.2-8.1-5.1-9.6
		c-1.9,2.7-4.8,9.2-7,15.6c-0.5,1.5-1.9,2.5-3.4,2.5c-0.1,0-0.1,0-0.2,0c-1.6-0.1-3-1.2-3.4-2.8c-1.3-5.1-3.1-10.3-4.5-13
		c-3.7,4.9-11.4,18.7-17.4,30.9C149.2,240.8,147.9,241.6,146.5,241.6z M151,193.4c1.5,2.3,2.1,7.1,2,18.4c6-10.9,9.8-14.3,12-15.3
		C160.2,195.9,155.5,194.9,151,193.4z M190.1,195.3c2,1.4,3.7,4,5.5,7.3c0.7-4.7,2.1-8,4.9-9.1c0.9-0.3,1.8-0.5,2.7-0.5
		c1.7,0,3.2,0.5,4.7,1.4c0.2-2.4,0.7-4.6,1.7-6.2C203.6,191.4,197,193.8,190.1,195.3z M170.9,197c2.1,1.1,3.6,3.1,4.8,5.2
		c1.2-1.9,2.7-3.9,4.3-5.3c-2,0.2-4,0.2-6,0.2C173.1,197,172,197,170.9,197z M136.7,187.1c0.7,2.2,0.8,4.9,0.8,7.4
		c2.6-1.6,5.5-2.8,7.9-3.2C142.4,190.2,139.5,188.7,136.7,187.1z M214.1,185.6c3.1,0.1,8.5,3.7,13.9,7.8c-3.1-6.3-4.8-11-4.8-14.5
		C220.4,181.3,217.3,183.6,214.1,185.6z M57.8,165.2c0.3,0.1,20.9,10.6,47.7,10.6c1.6,0,3.2,0,4.8-0.1c0.1,0,0.5,0,0.5,0
		c3,0,19.1-0.4,38.5-8c0.5-0.2,1.1-0.3,1.6-0.3c0.6,0,1.2,0.2,1.8,0.5c0.3,0.2,0.5,0.4,0.7,0.6c1.6-0.8,4.4-2.5,8.2-5.7
		c0.3-0.2,0.6-0.4,0.9-0.6c0,0,11.5-5.5,17-8.4c6.4-3.5,17.2-10.2,19.4-11.7c4-2.7,11.1-7.9,11.5-8.1l2.2,2.9l3.7,0.3
		c-0.6,7.6-1.7,13.2-2.6,16.7c2.9-2.6,7.2-7.3,10.5-14c6.3-12.8,9.4-23.1,9.9-25c0,0,0-0.2,0.1-0.2c0.2-0.6,0.5-1.1,1-1.6
		c0.3-0.3,23.7-22.4,23.9-22.5c9.1-8.4,20.7-16.1,24.4-18.4c1.8-1.1,3.3-2.1,4.5-3c-1.1,0.3-2.4,0.8-3.9,1.3c0,0-0.1,0-0.1,0v0
		c-0.8,0.3-1.6,0.6-2.4,0.8c-17.5,6.1-34.7,21-54.5,38.2c-10.3,8.9-20.9,18.1-32.6,26.9c-0.7,0.5-1.4,0.7-2.2,0.7
		c-0.9,0-1.8-0.3-2.5-1c-1.3-1.2-1.5-3.2-0.6-4.6l0.3-0.4c3.6-5.5,6.3-10.3,9-15c4.6-8.2,8.6-15.3,15.6-21.8
		c4.8-4.6,12.3-9.8,22.1-15.4c11.6-6.6,23.4-12,25.7-13c1.1-0.4,2.7-1,4.5-1.7c-7.5-1.9-14.6-2.8-21.5-2.8
		c-15.9,0-31.5,4.8-47.7,14.7c-5.1,3.1-10,6.4-14.8,10.1c-4.3,3.2-8.4,6.7-12.6,10.5c-0.4,0.3-0.8,0.6-1.3,0.8
		c-2.7,0.9-4.9,1.4-7.2,1.8c-2.4,0.5-4.5,0.6-7.2,0.9c-2.4,0.2-5.5,0.4-9.9,1c-11.7,1.5-17.7,4.8-20,6.4c0.3,0,0.5,0,0.8-0.1
		c1-0.1,2.1-0.1,3.1-0.1c4.9,0,8.9,0.9,11.8,2.7c3.5,2.2,4.9,6.7,5.4,9.3c0.2,1.2-0.1,2.3-0.9,3.2c-2.6,2.7-5.3,5.6-8.1,8.4
		c-17.3,17.1-28.4,26.7-41.2,31.7c-7.5,2.9-14.8,4.4-21.7,4.4c-13.9,0-23.1-5.9-28-9.1c-0.6-0.4-1.2-0.8-1.7-1.1
		c-6.4-4.1-15-5.7-20.1-6.6l-1.1-0.2c-2.4-0.5-4.4-1.2-6.1-2c2.4,3.6,6.9,8.8,14.8,12.5c8.6,4,22.1,4.2,24.7,4.2c0,0,0.5,0,0.5,0
		C56.7,164.8,57.3,164.9,57.8,165.2z M233.8,170.8c1.6,0,3.3,0.2,4.9,0.4c-1-2.4-1.8-4.8-2.1-7.1c-1.6,2.4-3.4,4.7-5.3,6.9
		C232,170.8,232.8,170.8,233.8,170.8z M57.3,155.2c2.2,0.9,4.4,1.7,6.5,2.1c0.3,0.1,1.1,0.2,1.8,0.3c0,0,0,0,0,0
		c0.3-0.4,0.6-0.7,0.8-1c0.4-0.5,0.7-1.1,1-1.6c-1.4,0.3-3.1,0.5-5.4,0.5C60.5,155.3,59,155.2,57.3,155.2z M77.6,146.9
		c0.5,1,0.8,2.2,0.9,3.5c0,0.1,0,0.2,0,0.2c0,1.4-0.2,2.7-0.5,4.1c0,0,0,0.1,0,0.1c-0.2,0.8-0.5,1.5-0.8,2.3c2.9-0.3,6-1,9.6-2.2
		c1.5-0.5,3.8-3.7,4.8-5.9c-2.8-0.7-8.1-1.5-12.6-1.9C78.5,147.2,78,147.1,77.6,146.9z M244.9,155.8c2.6,0,5.9,0.3,9.4,0.8
		c-4.2-2.9-7.7-5.9-9.4-8.5c-1,2.7-2.2,5.4-3.5,7.9C242.5,155.8,243.7,155.8,244.9,155.8z M102.6,146.3c0,0.3,0,0.7,0,1.1
		c0.1-0.1,0.2-0.1,0.3-0.2C102.8,146.8,102.7,146.5,102.6,146.3z M99.2,140.5c0.9,0.5,1.7,1.2,2.3,2.1c-1-3.5-1.8-7.1-2.3-10.7
		c-1,2.6-3.1,5.1-5.3,7.3c2.1,0.3,3.9,0.7,5.1,1.2C99,140.4,99.1,140.5,99.2,140.5z M249.4,113.5c0.3,2.6,0.4,5.2,0.4,7.8
		c0,6.1-0.7,12.1-2.1,17.7c2.4-1.4,5.6-2.3,8.7-2.9c-2-1.4-3.9-2.9-5.1-4.4c-1.3-1.5-1.6-3.4-0.9-5.3c1.1-2.8,4.9-5.3,9.4-7.4
		c-4.6-1.2-8.4-3-10.1-5.9C249.6,113.3,249.5,113.4,249.4,113.5z M85.5,117.7c6.1,1.7,10.8,3.7,13,6.6c0-1-0.1-1.9-0.1-2.9
		c0-3.1,0.2-6.2,0.6-9.2C96.8,113.7,92.7,115.5,85.5,117.7z M100.4,101.7c0.2,0.2,0.3,0.4,0.5,0.7c0.1-0.3,0.2-0.6,0.2-0.9
		C100.9,101.5,100.6,101.6,100.4,101.7z M95.7,82.5c4.6,3.3,7.5,6,9.1,8.5c1.4-3.3,3.1-6.4,5-9.4c-0.7,0.4-1.5,0.7-2.4,0.9
		c-1.3,0.3-2.9,0.4-4.9,0.4C100.4,82.9,98.1,82.7,95.7,82.5z M112.1,73.7c0.4,1.2,0.6,2.5,0.4,3.7c1-1.4,2.1-2.8,3.2-4.2
		C114.7,73.5,113.5,73.7,112.1,73.7z M118.4,49.5c2.6,5.7,4.8,11.8,4.5,16.2c3.3-3.1,7-5.9,10.8-8.3
		C129.9,56.6,123.9,53.2,118.4,49.5z M141.5,49.7c0,1.3-0.3,2.6-0.7,3.7c1.8-0.9,3.7-1.7,5.6-2.5C144.6,50.9,143,50.4,141.5,49.7z
		 M200.7,50.5c2.2,0.8,4.4,1.8,6.5,2.8c-0.3-1.5-0.3-3.2,0-5c-2.1,1.4-4.2,2.2-6.3,2.2C200.8,50.5,200.7,50.5,200.7,50.5z
		 M154.6,37.6c-1,6.1-2.6,10.1-4.7,12.1c4-1.4,8.2-2.4,12.4-3.1C159.4,44.7,156.8,41.3,154.6,37.6z M187.4,46.8
		c3.2,0.6,6.3,1.3,9.4,2.3c-2.4-1.9-3.2-5.9-3.4-11.5C191.2,42,189.2,45,187.4,46.8z M174.1,45.7c0.8,0,1.5,0,2.3,0
		c-0.5-0.7-1-1.5-1.4-2.3c-0.6,0.8-1.2,1.6-1.9,2.2C173.4,45.7,173.8,45.7,174.1,45.7z"/>
	<path class="st1" d="M258.7,64.4c-2.2,0.5-7.6,0.7-10,0.7c-2.3,0-5.6-0.3-10.6,1.9c-3.6,1.6-6,4.7-7.1,6.4c0.3-0.5,0.7-0.9,0.9-1.1
		c0,0,3.7-4.2,11.2-3.7c-0.2,0.4-0.5,0.9-0.2,1.4c0,0,0,0,0,0c0,0.1,0.1,0.1,0.1,0.2l0,0c0,0,0,0,0,0.1c0,0,2.7-0.9,4.6-1.4
		c4.1-1,6.7-1.7,9.5-2.9c3.8-1.6,5-2.2,4.9-2.5C261.8,63.2,260.9,63.8,258.7,64.4"/>
	<path class="st0" d="M231.9,72.3c-0.3,0.2-0.6,0.6-0.9,1.1c-1.4,1.9-3,5.3-3,5.3c2.5-3.7,10.4-6.8,15-8.4c-0.1-0.1-0.1-0.1-0.1-0.2
		c0,0,0,0,0,0c-0.2-0.5,0-1.1,0.2-1.4C235.5,68,231.9,72.3,231.9,72.3"/>
	<path class="st2" d="M239.4,159.7c-1.6,3.2,2.6,13.2,6.3,16.2c-2.8-0.8-17.3-5-19.6,0.4c-2.6,5.9,11.6,27.5,13.2,31.6
		c-6.5-6.5-24.4-21-26.9-19.3c-2.5,1.7-1.9,9.8-1.3,13.9c-2.5-3-6.7-7.8-10.3-6.4c-3.6,1.4-3.2,15.3-3.4,21.3c-3-7-7.9-21-12.4-20.5
		c-4.5,0.5-9.6,10.1-10.6,13.7c-0.7-3.7-3.7-11.7-8.2-11.7c-4.5,0-14.9,21.2-18.1,28.1c0-5.3,1.3-31.4-1.6-32.7
		c-2.8-1.3-12.4,4.6-14.4,7.4c0.8-3.4,1.4-15-1.1-16.4c-2.6-1.4-9.8-1.8-23,10.3c2.2-4.7,5.8-9.7,6.6-14.7c5.4-0.3,10.8-0.9,16.3-2
		c11.9,8.6,26.4,13.6,42.2,13.6c39.8,0,72-32.3,72-72c0-3.1-0.2-6.2-0.6-9.2c2.7-2.5,5.2-4.9,7.6-7.2c-0.5,1.3-0.8,2.9-0.8,4.8
		c0.2,6.1,15.9,7.4,24.3,8c-9.3,1.3-25.7,8-22.6,11.7c3.1,3.6,12.1,8.6,13.4,9.2c-4.3,0-18.5,1.5-20.1,5.5
		c-1.6,4,20.5,17.5,28.6,20.6C265,161.2,241,156.5,239.4,159.7"/>
	<path class="st2" d="M227.2,56.2c-4.7,0.9-9.6,2.3-14.6,4.1c-11.3-7.4-24.9-11.8-39.5-11.8c-39.8,0-72,32.3-72,72
		c0,9.6,1.9,18.7,5.3,27.1c-4.1,3-8,5.4-12,7.3c2.9-3.5,5.5-10.2,2.2-12c-2.3-1.2-12.8-1.7-12.8-1.7s11.9-8,11.6-13.8
		c-0.3-5.8-19.2-8.7-26.7-10.4c6.6-1.4,28-6.2,28.9-10.5c0.9-4.3-6.7-7.4-9.9-8.9c3.6,0,12.7,1.6,13.9-2.9
		c1.4-5.1-21-18.3-26.1-20.2c1.1,0.3,22.5,5.2,30.3,3.6c5.8-1.3-1-9.1-2.1-10c1.7,0.8,11.5,2.8,14.3-1.8c2.8-4.6-6.7-23.1-12-31
		c4.7,4.7,26.3,20,29.5,17.4c3.2-2.6,0.8-11-1-13.8c3.5,3.3,6.9,7.6,11.3,7.5c2.2,0,5-7.4,5.4-23.9c3,9.3,10.1,21.8,15.4,21.1
		c5.2-0.8,7-8.6,7.8-11.9c0.6,3.6,3.4,12.7,6.9,13.1c4.3,0.7,12.5-18.4,15.5-27.1c0.5,4.3-2.7,26.2,2,28c4.6,1.8,12.3-7.4,16.6-12.6
		c-2.6,5-7.8,17.1-4.7,20c3.1,2.9,13.7-0.1,17.8-3.5C227.1,52.2,226.9,54.3,227.2,56.2"/>
	<path class="st3" d="M257,66c-2.8,1.1-5.3,1.8-9.5,2.9c-1.9,0.6-4.6,1.4-4.6,1.4c0,0,0,0,0-0.1c-4.7,1.6-12.5,4.7-15,8.4
		c0.1-0.2,1.7-3.5,3-5.3c1.1-1.7,3.5-4.8,7.1-6.4c5-2.2,8.3-1.9,10.6-1.9c2.3,0,7.8-0.2,10-0.7c2.2-0.5,3.2-1.2,3.3-0.9
		C262.1,63.8,260.8,64.4,257,66L257,66z M283.7,55.8c-5.5,0.5-16.5,4.5-16.5,4.5c-20.1-5.2-44-5.8-73.2,12
		c-5.5,3.3-10.5,6.8-15.1,10.3c-4.6,3.5-8.9,7.1-12.8,10.7c-1.7,1.5-3.9,3.5-5.8,5.4c-9.5,3.2-13.7,0.2-26.8,1.9
		c-10.3,1.4-14.3,4.9-16.6,7.7c-0.3,0.8-0.3,1.5,0.3,1.9c1.2,1,3.1,0.5,6.8,0.2c3.6-0.3,9.1-0.2,12.7,2.1c2.3,1.4,3.4,4.9,3.8,6.9
		c-2.7,2.9-5.4,5.7-8,8.3c-16.5,16.3-27.6,26-40,30.9c-26.9,10.5-42.1-1.8-48.2-5.5l0,0c-7.4-4.7-17.2-6.3-22.4-7.3
		c-5.2-1-8.1-3.5-9.2-4.5c-1.1-1-2-2.6-3.3-2.2c-0.3,0.1-0.6,0.2-0.8,0.4c0.2-0.2,0.5-0.3,0.8-0.4c0.2,2.3,7.8,21.3,32.1,24.7
		c6.9,1,9.1,0.7,10.4,0.6c-4.1-3.6-7.4-8.6-7.7-8.9c0.9,0.8,1.9,1.6,2.8,2.3c7.2,7.7,15.5,10.9,22.4,12.1c0.5,0.1,7.3,0.4,7.3,0.4
		c8-0.2,18.7-2.5,28.6-5.4c29.1-8.5,57.2-33.7,57.2-33.7s-1.6,6.8-2.2,9.2c-0.4,1.9-1.8,8.3-4.5,15c0,0-0.8,2-2,4.5
		c-1.7,3.6-4.2,8.2-4.2,10.1c0,0.1,0,0.2,0,0.3c0,0,0,0.2,0.1,0.5c2.2-1.2,5.2-3.2,8.6-6c5.3-4.4,12-11.2,19.8-20.7
		c17.5-21.6,20.3-36.3,32.5-47.8c5.2-4.9,18.9-12.4,25.9-14.8c0.1,0,0.1-0.1,0.2-0.1c0,0,0,0,0,0l0,0c11.8-6.8,23.4-12,25.3-12.7
		c6.9-2.8,31.3-10.9,33.8-6.9h0C294.7,57.1,289.2,55.3,283.7,55.8"/>
	<path class="st0" d="M160.2,140.5c-0.4,1.9-1.8,8.3-4.5,15c-9.5,5.1-24.7,11.5-38.5,14.8c-27.1,6.4-44.5,0.8-47.4-0.1l-0.4-0.1
		c0.7,0.1,7.2,0.4,7.2,0.4c1.4,0,19.9,0.8,40.2-6.9C133.4,157.5,149.8,147.6,160.2,140.5"/>
	<path class="st4" d="M162.4,131.3c0,0-1.6,6.8-2.2,9.2c-10.4,7-26.8,16.9-43.4,23c-20.3,7.6-38.8,6.9-40.2,6.9
		c8-0.2,18.7-2.5,28.6-5.4C134.3,156.6,162.4,131.3,162.4,131.3"/>
	<path class="st3" d="M231.5,119.4c-2.1,6.4-5.2,15.1-9.1,22.5c-4.6,8.8-10.7,14.8-13.9,17.1c-0.5-0.3-0.7-1-0.8-1.7
		c0-1.3,2.7-7.7,3.8-21.3c3.5-2.6,6.6-5.1,9.3-7.4C224.3,125.8,227.9,122.7,231.5,119.4"/>
	<path class="st1" d="M71.3,149.8c0,0.9-0.1,1.7-0.3,2.6c-0.4,1.5-1.2,3.4-2.5,5.3c-0.8,1.2-2.1,2.6-2.1,2.6c-0.2,0-1.2,0.1-2.1,0
		c-0.8-0.1-1.7-0.2-2.1-0.3v0c-0.2-0.3,10.9-7.9,7.9-11.6C70.3,148.4,71.3,148.2,71.3,149.8"/>
	<path class="st4" d="M294.3,66.6C294.3,66.6,294.3,66.6,294.3,66.6c0,0-0.5,0.7-2,2c-1.5,1.3-4,3.3-8.2,5.9c-4,2.5-15.2,10-23.8,18
		c-0.3,0.3-23.3,22-23.9,22.5c-0.1,0.2-3,11.3-10.2,25.8c-5,10.1-12.4,16.5-15.1,17.9c-0.2,0.1-1.7,1.1-2.7,0.4
		c3.2-2.3,9.3-8.4,13.9-17.1c3.9-7.4,7.1-16.1,9.1-22.5c-3.6,3.2-7.2,6.4-10.7,9.3c-2.8,2.3-5.9,4.8-9.3,7.4c0,0-7.5,5.5-11.7,8.3
		c0,0,0,0,0,0c-2.4,1.6-13.2,8.3-19.7,11.9c-5.6,3-17.2,8.6-17.2,8.6h0c-6.1,5.1-10.8,7.5-12.1,7.2c-0.8-0.2-1-1.1-1.1-1.2
		c2.2-1.2,5.2-3.2,8.6-6c5.3-4.4,12-11.2,19.8-20.7c17.5-21.6,20.3-36.3,32.5-47.8c5.2-4.9,18.9-12.4,25.9-14.8
		c0.1,0,0.1-0.1,0.2-0.1c-8,4.6-16.1,9.8-21.4,14.9c-10.3,9.6-13.8,20.8-23.9,36.1l-0.3,0.4c34.3-26,60.7-56.1,88.1-65.7
		c0.9-0.3,1.7-0.6,2.5-0.9c0,0,0.1,0,0.1,0c9.3-3.2,13.1-3.6,13.4-1.9C295.2,65.1,294.6,66.2,294.3,66.6"/>
	<path class="st3" d="M62.2,160L62.2,160c-6.9-1.3-15-6-17.5-7.5c0.9-0.8,3-2.3,7-2.1c5.5,0.3,11.6,0.8,14.5-0.1
		c2.5-0.7,2.9-1.8,4-1.9h0C73.1,152.1,61.9,159.7,62.2,160"/>
	<path class="st1" d="M133.6,100.6c13-1.7,17.3,1.2,26.8-1.9c1.9-1.9,4.1-3.9,5.8-5.4c-2.7,0.9-4.8,1.4-6.7,1.7
		c-4.4,0.9-7.7,0.6-16.9,1.9c-14.5,1.9-21.3,6.5-23.2,8.2c-0.6,0.5-1,1-1.6,1.8c-0.4,0.6-0.7,1.3-0.8,1.4
		C119.2,105.5,123.2,102,133.6,100.6"/>
	<g>
		<g transform="matrix(0 1 -1 0 701.81 90.498)">
			<path class="st1" d="M70.2,547.1c3.6,1.7,8.2,4.2,10.1,4.2c0.1,0,0.2,0,0.3,0c8.6,22.1,8.2,40.1,8.2,40.2
				c1.4,30.4-10.9,54.3-10.9,54.3s0,0,0,0c0,0.1,0,0.2,0,0.5c0,2.9-0.2,17-4.5,26.2c-4.7,10.1-12.1,16-17.6,18.5
				c-4.1,1.9-5.4,2-6,1.4c0,0-0.1-0.1-0.1-0.2c0,0,0,0,0,0c-0.1-0.2-0.2-0.4-0.3-0.6c2.3-0.2,21.3-7.8,24.7-32.1
				c1-6.9,0.7-9.1,0.6-10.4c-3.6,4.1-8.6,7.4-8.9,7.7c0.8-0.9,1.6-1.9,2.3-2.8c7.7-7.2,10.9-15.5,12.1-22.4c0,0,0,0,0,0v0l0,0
				l0.1-0.4c1-3,6.5-20.3,0.1-47.4c-3.2-13.8-9.7-29-14.8-38.5C65.8,545.1,67.8,545.9,70.2,547.1"/>
			<path class="st0" d="M-28,405c-4,2.6,4.1,26.9,6.9,33.8c0.8,1.9,6,13.5,12.7,25.3c4.6,8,9.8,16.1,14.9,21.4
				c9.6,10.3,20.8,13.8,36.1,23.9l0.4,0.3c-26-34.3-56.1-60.7-65.7-88.1c-0.3-0.9-0.6-1.7-0.9-2.5c0,0,0-0.1,0-0.1
				c-3.2-9.3-3.6-13.1-1.9-13.4c0.8-0.1,1.9,0.5,2.3,0.7c0,0,0.7,0.4,2,2c1.3,1.5,3.3,4,5.9,8.2c2.5,4,10,15.2,18,23.8
				c0.3,0.3,22,23.3,22.5,23.9c0.2,0.1,11.3,3,25.8,10.2c10.1,5,16.5,12.4,17.9,15.1c0.1,0.2,1.1,1.7,0.4,2.7
				c-0.3,0.5-1,0.7-1.7,0.8c-1.3,0-7.7-2.7-21.3-3.8c0,0,5.5,7.5,8.3,11.7c1.6,2.4,8.3,13.2,11.9,19.7c3,5.6,8.6,17.2,8.6,17.3
				c5.1,6.1,7.5,10.8,7.2,12.1c-0.2,0.8-1.1,1-1.2,1.1c-0.3,0.1-0.5,0.1-0.5,0.1c8.6,22.1,8.2,40.1,8.2,40.2
				c1.4,30.4-10.9,54.3-10.9,54.3c0,0.1,0,0.2,0,0.5c0,2.9-0.2,17-4.5,26.2c-4.7,10.1-12.1,16-17.6,18.5c-4.1,1.9-5.4,2-6,1.4
				c-0.2-0.2-0.3-0.5-0.4-0.8c-0.4-1.3,1.2-2.1,2.2-3.3c1-1.1,3.5-4,4.5-9.2c1-5.2,2.6-15,7.3-22.4c3.7-6.1,16-21.3,5.5-48.2
				C64,596,54.3,584.9,38,568.4c-2.6-2.7-5.4-5.3-8.3-8c-1.9,0.4-5.4,1.4-6.9,3.8c-2.3,3.6-2.3,9.1-2.1,12.7
				c0.3,3.6,0.8,5.5-0.2,6.8c-0.4,0.4-0.9,0.5-1.4,0.4c-0.5-0.1-1-0.4-1.5-0.6c-0.1-0.1-0.2-0.2-0.4-0.2c-0.8-0.6-1.3-1-1.8-1.6
				c-1.8-1.9-6.3-8.7-8.2-23.2c-1.2-9.2-1-12.5-1.9-16.9c-0.3-2-0.9-4-1.7-6.7c-3.6-4-7.2-8.2-10.7-12.8c-3.5-4.6-6.9-9.6-10.3-15.1
				c-17.8-29.3-17.2-53.1-12-73.2c0,0-4-11-4.5-16.5C-34.4,411.6-32.6,406.1-28,405L-28,405z M27.3,425.2c1.3,9.3,8,25.7,11.7,22.6
				c3.6-3.1,8.6-12.1,9.2-13.4c0,4.3,1.5,18.5,5.5,20.1c4,1.6,17.5-20.5,20.6-28.6c-2.8,10.1-7.6,34-4.3,35.6
				c3.2,1.6,13.2-2.6,16.2-6.3c-0.8,2.8-5,17.3,0.4,19.6c5.9,2.6,27.5-11.6,31.6-13.2c-6.5,6.5-21,24.4-19.3,26.9
				c1.7,2.5,9.8,1.9,13.9,1.3c-3,2.5-7.8,6.7-6.4,10.3c1.4,3.6,15.3,3.2,21.3,3.4c-7,3-21,7.9-20.5,12.4c0.5,4.5,10.1,9.6,13.7,10.6
				c-3.7,0.7-11.7,3.7-11.7,8.2c0,4.5,21.2,14.9,28.1,18.1c-5.3,0-31.4-1.3-32.7,1.6c-1.3,2.8,4.6,12.4,7.4,14.4
				c-3.4-0.8-15-1.4-16.4,1.1c-1.4,2.6-1.8,9.8,10.3,23c-4.7-2.2-9.7-5.8-14.7-6.6c-0.3-5.4-0.9-10.8-2-16.3
				c8.6-11.9,13.6-26.4,13.6-42.2c0-39.8-32.3-72-72-72c-3.1,0-6.2,0.2-9.2,0.6c-2.5-2.7-4.9-5.2-7.2-7.6c1.3,0.5,2.9,0.8,4.8,0.8
				C25.3,449.3,26.6,433.5,27.3,425.2L27.3,425.2z M60.7,649.1c0.3-5.5,0.8-11.6-0.1-14.5c-0.7-2.5-1.8-2.9-1.9-4v0
				c0-0.2-0.3-1.2,1.4-1.2c0.9,0,1.7,0.1,2.6,0.3c1.5,0.4,3.4,1.2,5.3,2.5c1.2,0.8,2.6,2.1,2.6,2.1c0,0.2,0.1,1.2,0,2.1
				c-0.1,0.8-0.2,1.7-0.3,2.1c-1.3,6.9-6,15-7.5,17.5C62,655.3,60.5,653.1,60.7,649.1L60.7,649.1z M53.2,604.3
				c-1.2,2.3-1.7,12.8-1.7,12.8s-8-11.9-13.8-11.6c-5.8,0.3-8.7,19.2-10.4,26.7c-1.4-6.6-6.2-28-10.5-28.9c-4.3-0.9-7.4,6.7-8.9,9.9
				c0-3.6,1.6-12.7-2.9-13.9c-5.1-1.4-18.3,21-20.2,26.1c0.3-1.1,5.2-22.5,3.6-30.3c-1.3-5.8-9.1,1-10,2.1
				c0.8-1.7,2.8-11.5-1.8-14.3s-23.1,6.7-31,12c4.7-4.7,20-26.3,17.4-29.5c-2.6-3.2-11-0.8-13.8,1c3.3-3.5,7.6-6.9,7.5-11.3
				c0-2.2-7.4-5-23.9-5.4c9.3-3,21.8-10.1,21.1-15.4c-0.8-5.2-8.6-7-11.9-7.8c3.6-0.6,12.7-3.4,13.1-6.9
				c0.7-4.3-18.4-12.5-27.1-15.5c4.3-0.5,26.2,2.7,28-2c1.8-4.6-7.4-12.3-12.6-16.6c5,2.6,17.1,7.8,20,4.7
				c2.9-3.1-0.1-13.7-3.5-17.8c2.5,1.2,4.6,1.4,6.5,1.1c0.9,4.7,2.3,9.6,4.1,14.6c-7.4,11.3-11.8,24.9-11.8,39.5
				c0,39.8,32.3,72,72,72c9.6,0,18.7-1.9,27.1-5.3c3,4.1,5.4,8,7.3,12C61.7,603.6,55,601,53.2,604.3L53.2,604.3z M-27.2,402.4
				c-1.1,0-1.7,0.3-1.7,0.3l0,0c-4.6,1.3-7.5,6.1-7.5,12.5c0,0.7,0,1.4,0.1,2.1c0.5,5,3.5,13.8,4.4,16.4c-2.1,8.2-3.1,15.9-3.1,23.5
				c0,3.9,0.3,7.8,0.8,11.7l0,0l0.2,1.6c0,0-2,0.6-6.8-1c-2.5-0.8-4.7-2-4.7-2s9.3,17.9,6.3,20.1c-3,2.2-26.5-7.8-26.5-7.8
				s19.1,17.2,18.3,20.6c-0.3,1.3-7.3,1.5-14.7,1.5c-10.1,0.1-21.7-0.3-21.7-0.3s35.3,14.2,35.1,17.6c-0.2,3-19,7.4-19,7.4
				s16.2,2.7,18.2,7.7c2,4.9-28.4,17.6-28.4,17.6s30.4,0.6,31,4.1c0.7,3.5-10.7,14.7-10.7,14.7s15.1-5.3,17.1-3.5
				c1.2,1.1-5.5,11.9-13.5,23.1c-4.7,6.5-8.5,11.9-8.5,11.9S-52,596-41,590.9c7.6-3.5,14.8-5.6,16.2-4.7c3.5,2.2-1.5,18.9-1.5,18.9
				s9.1-9.5,11.5-8.9c1.1,0.3,0.3,9.7-1,19.3c-1.4,10.2-3.3,20.5-3.3,20.5s19.7-33.8,23.2-32.7c2.8,0.8,0.5,21.9,0.5,21.9
				S13,606.9,15.7,607c2.8,0.1,11.8,35.8,11.8,35.8s6.8-32.4,10.4-33c3.6-0.6,15.2,12.8,15.2,12.8s1.4-15.6,3.4-16.4
				c2-0.8,10.1,3.8,11.4,7.7c1.6,4.9,2.6,9.3,2.6,14.8c0,0.8,0,1.5-0.1,2.3c-0.3-0.3-0.7-0.5-1-0.8c-2-1.3-4-2.3-6-2.9l0,0l0,0
				c-1.1-0.3-2.2-0.4-3.2-0.4l0,0l0,0c-1.2,0-2.2,0.4-2.9,1.1c-1.2,1.3-1,2.6-0.6,3.4l1.5,3.1c0.1,0.2,0.2,0.5,0.3,0.8
				c0.2,0.6,0.4,1.8,0.4,4.4c0,2.4-0.2,5.3-0.4,8.1c0,0-0.1,1.7-0.1,2.1c0,3.3,1.1,5.6,2,6.9l-0.4,0.7c-3.6,6.8-5.1,14.8-6,19.8
				c-0.1,0.4-0.1,0.8-0.2,1.1c-1.1,5.5-4.3,8.5-4.6,8.7c-0.5,0.5-1.2,1.1-1.6,1.9c0,0-0.9,1.4-0.2,3.5c0.5,1.4,1.6,2,1.6,2
				c2,1.2,4.9,0.1,8.1-1.4c3.7-1.7,13-7,18.9-19.7c1.9-4.2,3.3-9.6,4.1-16.3c0.6-5,0.7-9.2,0.7-10.9c0.8-1.6,3.1-6.6,5.4-14
				c2.5-8.1,5.6-20.9,5.6-35.4c0,0,0.1-5.2-0.1-8c1.2-0.3,5.3,1.7,10.2,4.2c5.8,2.9,12.6,6.6,12.6,6.6s-5.9-6.7-10.3-12.9
				c-4.4-6.3-7.9-13.3-5.9-14.9c3.8-3.1,19.7,0.2,19.7,0.2s-11.2-12.6-9.7-15.6c0.7-1.3,9-1.5,17.8-1.5c10.4,0,21.5,0.3,21.5,0.3
				s-35.2-17.4-34.2-21c1-3.6,17.1-7.6,17.1-7.6s-19.6-6.6-19.1-10.7c-0.2-1.6,6.1-5.1,12.6-8.2c7.1-3.4,14.1-6.3,14.1-6.3
				s-7.3-0.1-14.7-0.6c-6.7-0.5-13.3-1.3-13.6-2.8c-0.8-3.1,11.3-12.1,11.3-12.1s-16.8,3.2-18.2,0.7c-1.4-2.5,24.5-32.5,24.5-32.5
				S90.7,474,87.9,471.6c-2.8-2.4,2.9-23.4,2.9-23.4s-3.7,3.1-7.9,5.8c-4.4,2.8-9.2,5.1-10.4,4c-1.1-1,0-11.9,2.2-23.3
				c2.5-13,4.3-21.5,4.3-21.5s-4.2,7.7-11,19c-5.9,9.8-12.6,18.4-13.6,18.1c-2.3-0.8-4.6-24.2-4.6-24.2s-2.3,3.9-4.9,8.2
				c-2.8,4.6-6.3,9.5-7.6,9.5c-1.1,0-3.9-5.9-6.3-13.6c-2.9-9.3-4.8-17.9-4.8-17.9s-2.6,32-7.1,33.9c-3.1,1.4-7.2-1.1-9.8-3
				c-2.6-1.8-5-4.5-5-4.5c-8.1-8.7-15.5-19.8-17.7-23.4c-0.2-0.3-0.3-0.5-0.5-0.7c0,0-6.1-8.2-6.8-9c-0.6-0.7-2.6-2.6-5.1-3
				C-25.4,402.5-26.1,402.4-27.2,402.4"/>
		</g>
	</g>
</g>
</svg>
