<?xml version="1.0" encoding="utf-8"?>
<!-- Generator: Adobe Illustrator 21.1.0, SVG Export Plug-In . SVG Version: 6.00 Build 0)  -->
<!DOCTYPE svg PUBLIC "-//W3C//DTD SVG 1.1//EN" "http://www.w3.org/Graphics/SVG/1.1/DTD/svg11.dtd">
<svg version="1.1"
	 id="Layer_1" xmlns:cc="http://creativecommons.org/ns#" xmlns:dc="http://purl.org/dc/elements/1.1/" xmlns:rdf="http://www.w3.org/1999/02/22-rdf-syntax-ns#"
	 xmlns="http://www.w3.org/2000/svg" xmlns:xlink="http://www.w3.org/1999/xlink" x="0px" y="0px" width="320.9px" height="389.7px"
	 viewBox="0 0 320.9 389.7" style="enable-background:new 0 0 320.9 389.7;" xml:space="preserve">
<style type="text/css">
	.st0{fill:#FFFFFF;}
	.st1{fill:#E9BF9B;}
	.st2{fill:#FFC62F;}
	.st3{fill:#4F2683;stroke:#000000;stroke-width:0.1562;}
</style>
<g transform="matrix(1.3124 0 0 1.3124 1.1348 .85630)">
	<path class="st0" d="M129.5,296.3c-3.3,0-6.4-1.1-9-3.3c-4.9-4.2-6.6-11.1-4.6-18.7c-0.2-1.4-0.2-3.1,0.2-5
		c0.1-0.5,0.3-1.1,0.4-1.6c-0.2-1.5-0.3-3.3,0-5.2c0.1-0.7,0.3-1.4,0.5-2.1c-0.3-1.5-0.5-3.1-0.4-4.8c0.1-1,0.2-1.9,0.4-2.8
		c-0.9-1.5-1.8-3.2-2.5-5.1c-0.8-2.4-1.3-4.9-1.5-7.1c-2.4-2.1-5.3-5.2-7.6-9c-3.7-6.1-4.6-14-4.8-18.5c-2.2-2.5-4.6-5.6-6.5-9.5
		c-1.6-0.1-3.2-0.3-4.8-0.6c-2.7-0.6-5.2-1.4-7.1-2.2c-3.7,0.6-9.9,1.4-16.1,1.7c-9.4,0.5-37.2,6.1-48.3,14.6l-0.4,0.3
		c-0.7,0.4-1.4,0.9-2.1,1.3c-0.4,0.2-1,0.5-1.7,0.7c-6.8,2.5-10.8-1.1-12-2.5c-2.8-3.1-3.3-7.7-1.3-12.2c0.3-0.7,0.6-1.2,0.9-1.8
		l0.1-0.3l0.3-0.4c4-5.8,8.8-11.8,14.9-18.4l0.1-0.1c0.6-0.7,1.1-1.2,1.6-1.7c1.5-1.5,2.9-3,4.3-4.3c0.7-0.7,1.4-1.3,2.1-2l0.1-0.1
		c10.9-10.5,23.2-19.6,36.7-27c7-4,14.2-7.5,21.4-10.6c0.1-3.3,0.4-7.4,1-12.4c-15.6-7.1-27.2-19.1-33.8-35
		c-5.3-12.9-5.9-24.6-5.9-29l0-1.5c0.2-7.5,1.2-14.3,2.2-20.1c0.1-0.4,0.1-0.9,0.2-1.3c0.2-1,0.3-2,0.4-3.2l0.1-0.5l0.1-0.8
		c1.9-9.8,1.6-14.8,1.3-16.7c0-0.1,0-0.1,0-0.2c0-0.1-0.1-0.3-0.1-0.5C45.5,11.3,46.9,5,51.6,1.5l0.5-0.4l1-0.5
		c1.8-0.9,3.5-1.3,5.3-1.3c3.8,0,6.3,1.6,7.3,2.3L66.2,2c1.2,0.9,2.3,1.9,3.4,3.2l0.2,0.2c1.1,1.3,2.5,3.1,4,5.4
		c1.1,1.8,2,3.8,2.7,5.9l0.3,0.8c-1.2-4.8,0.7-9.2,3.8-11.9l0.2-0.2c2.2-1.7,4.7-2.7,7.4-2.7c4.7,0,7.6,2.6,8.9,3.7
		c6.7,5.9,11.9,13.1,15.4,21.5c1.4,3.4,2.2,6.7,2.9,10.3c0.4,2.2,0.8,4.1,1.3,5.9l10.3,0.9c10.2,1.2,45.2,6.6,68,27.2
		c17.5,15.8,25.7,32.5,29.5,43.4c0.4-0.3,0.7-0.6,0.9-0.7l11-8.9l1.8,18.7c0,1,0.1,2.8,0,4c-0.2,2.8-0.9,6.3-2.1,9.7
		c-0.9,2.7-2.3,5.1-4.3,7.2c0,0,0,0.1,0,0.1c3.9,3.2,5.9,6.9,5.9,11c0,1-0.1,2-0.3,2.9c1.8,3,3.9,7.3,4.9,12.4l0,0.1l1.7,8.9
		l-5.4,2.1c1.9,2.4,3.4,5.2,3.8,8.1l0,0.1c0.6,4.4,1,7.8,0.9,10.5l0,0.2c-0.4,5.2-3.2,9.3-7.9,11.7c-3,1.6-6.3,2-8.2,2.3
		c-1.4,0.2-3.3,0.4-6,0.7c-4.8,0.5-10.3,1-16.3,1.9c-1.9,6.7-3.7,12-5.4,16.2c-5.2,12.6-17.1,26.8-35,28.8c-1.2,0.1-2.8,0.2-4.5,0
		c-1.9,4.5-4.3,8-5.9,10.2c-0.3,1.1-0.8,2.4-1.6,3.8c-0.7,1.4-1.6,2.6-2.5,3.8c-0.5,1.4-1.1,2.8-2,4.1l-0.1,0.1
		c-1.6,2.4-4.1,4.7-6.9,6.2C136.4,295.5,132.3,296.3,129.5,296.3z M129.3,281.1L129.3,281.1L129.3,281.1z M131,272.4
		c0,0.2,0.1,0.5,0.1,0.8l0.4,2.1l-0.6,1.9c-0.4,1.3-0.6,2.4-0.6,3.2c0.1-0.1,0.2-0.2,0.4-0.4l0.9-0.9l1.2-0.6
		c0.7-0.3,1.6-1.1,1.9-1.5c0.3-0.4,0.3-0.8,0.4-1l0.5-2.3l1.6-1.6c0.5-0.5,1-1.1,1.4-1.9l0.1-0.2c0.2-0.4,0.3-0.8,0.5-1.5l0.4-1.8
		l1.2-1.4c0.7-0.8,4.1-5,5.5-10.2l0.3-1.2c0-0.1,0.1-0.3,0.1-0.4l0,0c0.8-4.8,0-9.3-0.2-10.6l-0.5-2.7l1.3-2.4
		c2.5-4.6,3.2-8.4,3.3-10.7l0.2-3.9l3.3-2.1c5-3.3,10-6.1,14.9-8.3l10.1-4.6l0.6,11.1c0.2,4.1,0.3,8.6-0.9,15.2
		c-0.5,2.5-1.3,4.9-2.4,7.1c4-3.7,6.9-8.4,8.6-12.6c1.8-4.4,3.9-10.8,6.1-19.1l1.3-4.7l4.8-0.8c8.3-1.5,16-2.3,22.3-2.9l0.1,0
		c2.9-0.2,4.2-0.4,4.9-0.5l0.1,0c0.8-0.1,2.3-0.4,3.2-0.7c0-1.7-0.4-4.3-0.7-6.7c-0.1-0.4-0.6-1.1-1.1-1.4c-0.5-0.1-0.9-0.3-1.1-0.3
		l-6.9-2.3l1.9-7c0.6-2.1,0.8-3.6,1-4.8l0.6-4.1l3.7-1.7c0.3-0.1,0.6-0.3,0.9-0.4c-1.2-3-2.8-5.4-3.4-6.2l-2.3-3.1l1.2-3.7
		c0.1-0.3,0.2-0.7,0.3-1.1c-0.3-0.2-0.7-0.6-1.3-0.9l-0.2-0.1c-4-2.7-4-7.3-4-9.3c0-0.3-0.1-1.5-0.4-2.6l-1.4-5.2l4.4-3
		c0.9-0.6,1.5-1.2,1.9-1.8l-7.3,2.4l-1.6-8.5c-2.3-11.7-10.7-29.7-27.4-44.8c-17.2-15.5-44.1-21.1-55.4-22.8
		c-0.2,1.4-0.5,2.5-0.8,3.2l-3.1,9.3l-8.2-5.2c-5.6-3.6-9.4-7.1-11.5-10.8c-3.5-6.2-4.6-11.9-5.4-16.1c-0.5-2.8-1-5.1-1.9-7.2
		c-0.2-0.5-0.4-1-0.6-1.4c0.1,0.4,0.1,0.8,0.2,1.1c0.6,3.8,0.7,8.3,0.8,12.6c0.2,7.5,0.4,16.9,3.2,23.1c1.1,2.4,2.6,4.8,4.5,7.2
		l0.1,0.1c0.2,0.2,0.4,0.4,0.4,0.5c0.3,0.3,0.6,0.6,0.9,1c0.1,0.1,0.1,0.2,0.2,0.2l14.6,14.6L102,91.3c-4.9-0.4-9.1-1.7-13.3-4.1
		l-0.9-0.5c-11.6-6.4-20.1-19.5-21.8-34l-0.4-2c-0.4-2.7-0.4-5.3-0.4-7.8c0-1.2,0-2.4-0.1-3.6l0-0.1c-0.2-2.9-0.4-6.2-1.1-9.4
		c-0.1-0.7-0.3-1.5-0.4-2.2c0-0.1,0-0.2-0.1-0.2c-0.3,3-0.8,6.2-1.4,9.7l0,0.3c-0.2,1.6-0.4,2.9-0.5,3.9c-0.1,0.4-0.1,0.8-0.2,1.2
		l0,0.2c-0.9,5.3-1.8,11.5-2,18.1v1.2c0,6.6,1.7,40.1,35.5,52l41.9,14.8H98.8c-0.8,6.8-0.9,11.5-0.8,14.5l0.2,5.4l-5,2
		c-8.2,3.2-16.3,7.1-24.3,11.6l-0.1,0c-12.3,6.8-23.5,15-33.4,24.6c-0.7,0.7-1.4,1.4-2.1,2.1c-1.4,1.4-2.7,2.7-4,4.1l-0.1,0.1
		c-0.3,0.3-0.7,0.7-0.8,0.9l-0.3,0.3l-0.3,0.3c-0.6,0.6-1.1,1.2-1.7,1.9c15.7-5.8,33.7-8.5,39.3-8.8c6.6-0.4,13.6-1.3,16.5-1.9
		l2.4-0.4l2.2,1c0.9,0.4,3.3,1.5,6.1,2.1c2.1,0.5,4,0.4,5.3,0.2l6.6-1.2l2,6.4c1.7,5.4,5.2,9.3,7.1,11.1l2.4,2.3l-0.1,3.4
		c-0.1,4.4,0.8,10.4,2.7,13.6c2.1,3.4,5.3,6.1,6.6,7.1l3,2.3v3.8c0,2.2,0.3,4.3,0.8,5.6c0.6,1.7,2,3.6,2.6,4.4l2.3,3.2l-1.2,3.7
		c-0.3,0.8-0.6,1.8-0.6,2.6c0,0.7,0.1,1,0.1,1l1.7,3.6l-1.9,3.5c-0.2,0.3-0.3,0.6-0.3,0.7c0,0.4,0.2,1,0.3,1.3l0.7,2.7l-1.3,2.5
		C131.2,271.8,131.1,272,131,272.4z M131,272.7C131,272.7,131,272.7,131,272.7C131,272.7,131,272.7,131,272.7z M131.5,265.4
		C131.5,265.4,131.5,265.4,131.5,265.4L131.5,265.4C131.5,265.4,131.5,265.4,131.5,265.4z M131.5,265.1L131.5,265.1L131.5,265.1z
		 M225.8,192L225.8,192L225.8,192z M222.2,156.2L222.2,156.2L222.2,156.2z M231.7,147.7C231.7,147.7,231.7,147.7,231.7,147.7
		C231.7,147.7,231.7,147.7,231.7,147.7z M106.8,77L106.8,77C106.8,77,106.8,77,106.8,77z M80.5,48.3l0.4,1.8l0.1,0.4
		c0.4,3.8,1.6,7.5,3.3,10.9c-0.6-5.1-0.8-10.3-0.9-14.8c-0.1-3.9-0.2-7.9-0.6-10.7l0-0.1c-0.7-5-2.3-10.1-4.4-14.5
		c-0.5-0.8-0.8-1.5-1.1-2.3l0,0.1c0,0.2,0.1,0.4,0.2,0.6c0.2,0.8,0.5,1.7,0.7,2.8l0.1,0.7c0.1,0.5,0.2,0.9,0.3,1.4
		c0.2,0.7,0.3,1.5,0.5,2.3c0.8,4.1,1.1,8.1,1.3,11.5c0.1,1.7,0.1,3.2,0.1,4.6C80.4,44.9,80.4,46.7,80.5,48.3z"/>
	<path class="st0" d="M234.5,192.4c-0.6-3.7-4-7-6.6-7.6c-0.2,0-0.4-0.1-0.7-0.2c0.7-2.5,1-4.4,1.2-5.8c1.5-0.7,3.3-1.4,4-1.7l2.6-1
		l-0.5-2.7c-1.1-5.6-4-10.3-5.7-12.6c0.6-1.9,1-3.2,1-4.2c0-2.2-1.7-4.4-5.2-6.6c-0.3-0.2-0.6-0.7-0.6-3c0,0,0-2.2-0.6-4.5
		c1.9-1.3,4.2-3.3,5.3-6.6c1.1-3.2,1.6-6.1,1.7-7.8c0.1-0.9,0-3.1,0-3.1l-0.4-4.2c0,0-2.1,1.7-3.3,2.6c-0.3,0.2-0.5,0.4-0.7,0.5
		s-0.4,0.2-0.5,0.4c-0.9,0.5-1.8,0.9-2.2,1.1c-0.9,0.5-2.3,1-3.8,1.5c-2.2-11.4-10.3-31.4-29.8-49c-23.5-21.2-62.4-25.1-64-25.3
		l-3.6-0.3c0,0-0.1,5.5-0.4,7v0.2c-0.1,0.8-0.3,1.5-0.5,2.1c-4.4-2.8-7.5-5.6-9-8.2c-2.8-4.9-3.7-9.4-4.5-13.7
		c-0.6-3.1-1.2-6-2.4-8.8c-3.1-7.4-7.7-13.7-13.4-18.7c-1-0.9-2.1-1.8-3.8-1.8c-0.7,0-1.6,0.2-2.6,1c-0.7,0.6-2.8,2.7-0.5,6.2
		c0,0.1,3.9,7.1,5.3,17.1c0.5,3.3,0.6,7.4,0.7,11.7c0.2,8.7,0.5,18.6,3.9,26.1c1.5,3.3,3.5,6.3,5.5,8.8c0.2,0.3,1,1.1,1.1,1.2
		c0.4,0.4,0.7,0.8,1.1,1.2c-3.8-0.3-7-1.3-10.2-3.1l-0.1-0.1c-9.9-5-17.5-16.7-18.9-29.1L73,49.7c-0.3-2.2-0.3-4.4-0.3-6.8
		c0-1.3,0-2.7-0.1-4.1c-0.2-3.5-0.5-7-1.2-10.5c-0.3-1.5-0.6-2.9-0.9-4.4v-0.1c-0.2-1.1-0.5-2.1-0.7-2.9c-0.2-0.6-0.4-1.2-0.6-1.8
		c-0.5-1.5-1.2-3-2-4.3c-1.1-1.8-2.2-3.2-3.3-4.5c-0.9-1-1.8-1.8-2.7-2.4l-0.1-0.1C60.7,7.5,59.7,7,58.4,7c-0.7,0-1.3,0.2-1.9,0.5
		l-0.4,0.2c-1.5,1.1-2.4,3.4-1,6.1l0.1,0.2c0,0,0.1,0.2,0.2,0.4c0,0.3,0.1,0.5,0.2,0.8c0.1,0.2,0.1,0.5,0.2,0.8
		c0.4,2.4,0.9,8.2-1.3,19.7l-0.1,0.6c-0.2,2.1-0.5,3.6-0.7,5c-0.9,5.5-1.9,12.1-2.1,19.2c0,0.2,0,0.7,0,1v0.3
		c0,4.7,0.7,45.1,40.6,59.2l0,0h-0.1c-1.8,11.6-1.9,18.8-1.8,22.3c-8.7,3.4-17.2,7.5-25.3,12.1c-12.7,7-24.6,15.7-35.1,25.8
		c-2.1,2.1-4.2,4.1-6.3,6.3c-0.5,0.5-1,1-1.4,1.5l-0.1,0.1c-5.3,5.8-10.1,11.6-14.2,17.6c-0.1,0.2-0.5,0.8-0.6,1.1
		c-0.5,1.1-1,3.1,0,4.2c0.6,0.7,1.7,1.2,3.9,0.3c0.1,0,0.5-0.2,0.7-0.3c0.4-0.2,1-0.6,1.3-0.8c13.2-10.1,43.6-15.7,52.5-16.2
		c7.4-0.4,14.8-1.5,17.5-2c1.5,0.7,4.4,1.9,7.7,2.6c1.4,0.3,2.9,0.5,4.5,0.5c1.4,0,2.6-0.1,3.7-0.3c2.3,7.2,6.8,12.1,9.1,14.3
		c-0.1,4.3,0.6,12.4,3.8,17.7c2.6,4.3,6.4,7.6,8.5,9.2c0,2.1,0.2,5.4,1.2,8.2c0.9,2.5,2.5,4.8,3.6,6.3c-0.4,1.2-0.9,2.8-1,4.6
		c-0.1,2,0.3,3.6,0.9,4.8c-0.5,0.9-1,2-1.2,3.1c-0.3,1.5,0.1,3.2,0.4,4.4c-0.4,0.8-0.7,1.8-0.9,2.7c-0.3,1.3,0,2.7,0.2,3.7
		c-1,3-2.2,9.1,1.7,12.4c1.2,1,2.6,1.5,4.1,1.5c3,0,5.4-2.1,6.6-3.3c1.7-0.8,3.8-2.4,5-4.2c0.9-1.4,1.3-2.7,1.5-3.7
		c0.8-0.8,1.8-2,2.7-3.7c0.8-1.4,1.1-2.7,1.3-3.6c1.7-2,5.4-7,7.1-13.2l0.4-1.7c0-0.2,0.1-0.4,0.1-0.6c0.9-5.6,0.2-10.8-0.3-13.3
		c1.3-2.4,3.9-7.7,4.2-14c2.9-1.9,7.9-5,13.9-7.7c0.2,3.7,0.3,7.6-0.8,13.4c-1.4,7.1-6.6,13-9.2,15.6c-0.9,0.9-3.1,3.4-3.1,3.4
		s-0.9,0.7-0.7,2.2c0,0.1,0.1,0.3,0.1,0.5c0,0.1,0.2,0.3,0.3,0.4c1.2,1.2,4.6,0.8,4.6,0.8c14.7-1.6,24.6-13.9,28.8-24.1
		c2.6-6.3,5-14.8,6.4-20c8.5-1.5,16.4-2.3,21.7-2.8c2.4-0.2,4.3-0.4,5.5-0.6c3.3-0.5,9.3-1.4,9.7-7.1
		C235.4,199.4,235.1,196.6,234.5,192.4"/>
	<path d="M231.1,192.9c-0.4-2.4-2.8-4.5-4-4.8s-4.3-1.1-4.3-1.1c2.3-6.4,2.3-10.4,2.3-10.4c2-1.1,6-2.7,6-2.7
		c-1.3-7.1-6.1-12.5-6.1-12.5c0.4-1.5,1.3-4,1.3-4.9s-1.7-2.5-3.6-3.7c-1.9-1.2-2.1-3.3-2.1-5.9c0-2.5-1.1-5.7-1.5-5.9
		c-0.4-0.1,4.8-1.8,6.4-6.3c1.6-4.5,1.6-8.2,1.6-8.2c-2.1,3.1-10.5,4.4-10.5,4.4c-0.7-7.1-6.3-29.9-29.3-50.5
		c-22.9-20.7-62-24.4-62-24.4c0.1,1.2-0.1,2.5-0.4,4c-0.3,1.9-0.9,4.2-1.9,6.1c-0.1,0.1-0.1,0.2-0.2,0.4
		c-5.4-2.9-11.1-6.8-13.7-11.4c-5-8.9-4.4-16.5-7.1-22.8c-4.2-10.4-10.5-16-12.4-17.6c-1.1-0.9-1.4-1.3-2-0.8
		c-0.5,0.4-0.2,1.1,0.3,1.7c0.4,0.6,4.3,8.2,5.8,18.5S93.2,60.6,98,71c3,6.5,7.9,11.6,11.2,14.6c0.1,0.1,0.2,0.2,0.3,0.3l1.1,1.1
		c-6.9,0.6-13.2,0.4-20-3.4C79.7,78,71.4,65.2,69.9,51.7l-0.2-1.6c-0.4-3.7-0.3-7.4-0.4-11.1c-0.1-3.4-0.5-6.7-1.1-10
		c-0.3-1.5-0.6-2.9-0.9-4.4l0,0c-0.1-0.9-0.4-1.7-0.7-2.6c-0.2-0.6-0.4-1.1-0.5-1.7c-0.4-1.3-1-2.5-1.7-3.6
		c-0.9-1.4-1.8-2.7-2.9-3.9c-0.7-0.7-1.4-1.4-2.1-1.9c0,0-0.7-0.5-1.2-0.2c0,0-0.7,0.5,0,1.9c0,0,0.2,0.3,0.4,0.8
		c0.1,0.3,0.2,0.6,0.4,1c0.1,0.4,0.2,0.7,0.3,1.1c0.5,2.9,0.9,9.2-1.4,21.3l0,0c-0.2,1.7-0.4,3.5-0.7,5.2c-1,5.6-1.9,12-2,18.7
		c0,0.3,0,1.2,0,1.3c-0.1,5.9,1.1,44.6,41.1,56.8c-0.2,0.8-0.4,1.6-0.5,2.4c-2.7,17.1-1.7,24.3-1.7,24.3s0,0.1,0,0.2
		c-8.2,3.1-17.5,7.2-27.2,12.8c-10.9,6-22.8,14.1-34.4,25.2c-2.2,2.1-4.2,4.2-6.2,6.2c-0.5,0.5-0.9,1-1.4,1.5l-0.1,0.1
		c-6.1,6.6-10.7,12.7-14.1,17.6c18.1-13.1,46.4-17,55-17.5c9.1-0.5,18.2-2.1,18.2-2.1s3.6,1.9,7.9,2.9c4.9,1.1,9.9-0.5,9.9-0.5
		c1.8,9.4,8.4,15.4,10.2,16.8c-0.4,2.8,0,12.1,3.2,17.3c3.4,5.6,9.1,9.3,9.1,9.3s-0.4,5,0.9,8.7c1.3,3.6,4.4,6.9,4.4,6.9
		s-1.4,2.4-1.6,5.3c-0.2,3,1.6,4.6,1.6,4.6s-1.6,2.1-1.9,3.7s0.7,4.1,0.7,4.1s-1,1.8-1.3,3.1c-0.3,1.4,0.5,3.1,0.5,3.1
		c-0.7,1.3-2.6,7.3,0.3,9.7c2.9,2.4,6.4-2.1,6.4-2.1c1.1-0.3,3.2-1.7,4.1-3.2c1.2-1.9,1.2-3.6,1.2-3.6s1.5-1,2.9-3.5
		c1.1-2.1,0.9-3.4,0.9-3.4s6.2-6.5,7.5-14.6c1.1-6.9-0.5-13.3-0.5-13.3s4.7-7.1,4.4-15.2c3.2-2.2,10.8-7.2,20.4-10.9
		c0.3,5.5,1.1,10.2-0.6,19c-2.1,10.9-11.9,18.9-11.9,18.9c13.6-1.5,22.7-13.5,26.3-22.1c2.9-7.1,5.6-17.1,6.9-21.6
		c13.3-2.6,25.4-3.3,29.4-3.9c5.3-0.8,6.7-2,6.8-4C232,198.9,231.5,195.3,231.1,192.9L231.1,192.9z"/>
	<path class="st0" d="M97.8,33.8c1,4.6,1.3,12.1,1.3,12.1c-0.3-2.6-1.4-6.8-2.3-9.6c0.3,2.1,0.6,4,0.8,5.6
		c0.7,5.6-0.6,15.5,3.3,25.9c2.6,6.7,8.1,11.7,11.4,14.2c2.8-3.9,6.3-8.9,8.7-12.5c-13.4-8.3-16.8-16.2-18.8-27.5
		c-0.3-1.8-0.8-3.5-1.3-5.2c0.4,4.3,0,8.3,0,8.3C100.4,41.1,97.8,33.8,97.8,33.8L97.8,33.8z M62.8,34.6c0,0.9,0,1.8-0.1,2.7
		c-0.1,2.3-0.6,5-0.8,7.3c-0.2,2.3-0.6,4.6-1,6.9c-0.1,0.6-0.2,1.9-0.3,1.7v-0.1c-0.1-1.4-0.5-5.9-0.5-11.1v-1.1
		c0,0.2-0.1,0.4-0.1,0.6c-0.8,4.9-1.8,11.8-1.9,19.2c0,0.2,0,0.8,0,1.2c0,2.3,0,11.9,4.2,22.5c6.3,16.1,18.4,26.8,36.1,31.7
		c8.8,2.5,18.6,4.3,25.5,6.4l0,0c0,0,7.6,2.2,12.2,5.8c0,0-5-1-10.1-1.6c3.7,5.4,9.9,9,16.9,9c5.3,0,10.2-2.1,13.8-5.4
		c-0.9,0.6-1.7,1.1-2.3,1.4c-1.7,0.8-3.5,1.1-4.7,1.2c-2.9,0.9-5.8,0.5-6.6,0.4c0.1,0,0.1,0,0.2,0c8.8-1.5,16.9-8.2,16-18.4
		c-0.4-4.4-1.7-9-4.5-12c3.4,2.9,5.8,7.1,6.2,11.9c0.2,2.4-0.1,4.7-0.7,6.8c1.1-2.4,1.8-5,1.8-7.9c0.6,3,0.4,5.6-0.3,7.8
		c0.9-2.2,1.4-4.5,1.4-7c0.1,0.3,0.1,0.6,0.1,0.8c0,0,0,0,0-0.1c0-1.5-0.2-2.9-0.5-4.3v-0.2c-1.2-7.6-6.7-14.9-13.9-18.1
		c-2.1-1.1-8.6-3.5-15.6-4.1c-3.2-0.4-6.6-0.3-10.8,0.1c-1.9,0.2-3.7,0.4-5.4,0.7c-9.5,1.2-18.5,2.4-28.1-3
		c-11.9-6-20.8-19.4-22.4-34.2l-0.2-1.6c-0.2-2-0.3-4.2-0.4-6.3c-0.2-1.8-0.5-2.8-0.5-2.6c0,0.1,0,0.3,0,0.4c0,1.6-0.4,3.1-0.6,4.7
		c-0.3,1.8-0.7,5.3-0.7,5.2s-0.1-0.3-0.1-0.4C64,51,64,50.5,64,50c0-1,0-2.1-0.1-3.1c-0.1-2.6-0.6-10.1-0.8-11.1
		C63.2,35.6,63.1,34.7,62.8,34.6L62.8,34.6z"/>
	<path class="st1" d="M187.3,132.3c-1.3,0-5.8,0.6-7,0.6c0,0.1-0.5,0.1-1.2,0.2c0,0.1,0,0.3,0,0.4c0,0-1.9,14.5-8.8,24
		c1.8,1,6.3,2.4,8,3.8c3,2.7,3.1,6.6,3,8.2c-0.1,1.6-0.4,4.3-1.8,9.8c0,0-0.3-7.9-1.1-10.2c-0.7-2.3-3.3-4.5-5.9-5.3
		c-1.2-0.4-3.3-0.9-5.6-1.4c-4.5,5.2-9.1,8.8-13.4,12.6c0.5,0.7,1.1,1.3,2,1.5c2.6,0.7,5.9-0.9,5.9-0.9s-2.1,9.6,3.4,17.8
		c4.1,6.1,12.1,4.5,12.1,4.5s1.7-12.1,9.2-21.7c6.9-8.9,15.4-13.5,21.3-15.3c-0.2-1.1-0.6-3.4-0.2-4.5c0.6-1.5,2.2-2.8,4.2-2.8
		s4.2,1.1,4.2,1.1c-1.1-0.2-3.8-0.4-5.2,1.1c-1.1,1.1-0.6,3.4-0.3,4.4c5.4-1,10.4-0.3,11.4-0.1c1,0.3,2,0.1,2.3-1.2s0.3-2.8-0.3-3.3
		c-0.7-0.5-1.8-0.7-2.9-1.5c-1.1-0.9-2-2.9-2-5.9c0.1-3-1.7-7.1-1.7-7.1c-4.1,1.6-13.7-1.3-19.7-1.7s-10.2,2.4-10.2,2.4
		C185.4,137.9,187.3,132.3,187.3,132.3L187.3,132.3z M203.2,141.6c2.7,0.1,4.6,0.8,4.6,0.8c-2.9,0.1-4.9,1.3-4.9,1.3
		c0.7,0.8,2,2.7,2,3.3c0,0.1,0,0.3,0,0.5c0,0,0,0.1,0,0.2l0,0c-0.1,1-0.6,5.5-1.6,6.8c-0.2,0.3-0.3,0.5-0.5,0.7
		c-1.2,1.1-3.3,2.2-7.3,4.9c-4.4,3-7.8,9.2-7.8,9.2s1.2-5.9,3.9-9.2c3.3-4.1,7.7-6.9,10.4-8.3l1.2-5.4c-0.9-0.6-2.1-1.3-3.2-1.5
		c-2.3-0.4-6.3-0.4-8.7-1.1l0,0c2.9-0.4,4.6-1.2,8.9-1.9C201.3,141.6,202.3,141.6,203.2,141.6L203.2,141.6z M221.3,178.6
		c0,0-16,6.9-20.5,19.5c0,0,9.6,0.2,14.9,0.9c5.4,0.6,8.8,0.7,10,0.7c1.2,0.1,3.7,0.2,2.9-4.2s-2-5.1-4.1-6
		c-2.1-0.8-5.7-0.6-5.7-0.6S221.6,182.3,221.3,178.6L221.3,178.6z M149.7,178.8c-0.4,0.4-0.7,0.7-1.1,1.1c0,0,3.2,4.4,5.2,12.8
		c1.5,6.4-2.5,16.7-2.5,16.7s2.1,5.2,3,11.5c0.1-0.1,0.3-0.2,0.4-0.2c0,0,11.1-5.9,17-8.4c0.9-0.4,2.1-0.8,3.5-1.3
		c0.1-2.5,0.4-5.9,0.9-9.1c-1.1,0-2.2,0-3.1,0c-6.1,0-10-3.6-12.8-7.7l0,0c-2.8-4.2-4.8-12.5-4.8-12.5S151.8,181.6,149.7,178.8
		L149.7,178.8z M198.7,201.4L198.7,201.4c-0.8,1.2-1.4,2.4-2.1,4.1c2.1-0.4,4-0.8,5.9-1c10-1.5,18.3-1.8,19.6-2s3.7-0.1,4.6-0.8
		c0,0-2.8,0.2-5.8,0.1C218,201.7,206.1,201.4,198.7,201.4L198.7,201.4z"/>
	<path class="st2" d="M128.2,59.9c0,0-0.3,3.5-2.4,8c-0.8,1.6-1.7,3.3-3,5c-1.8,2.5-5.5,7.6-8.9,12.7c-0.1,0.2-0.7,1-0.7,1
		c1.3-0.1,2.5-0.3,3.8-0.5c1.8-0.2,3.6-0.5,5.5-0.7c4.4-0.5,8-0.5,11.4-0.1c6.7,0.6,13.1,2.7,16.1,4.1c8.5,3.6,15.1,12.2,16.3,21.2
		l0,0c0,0.2,0.1,0.5,0.1,0.8c0,0.1,0,0.2,0,0.3c0,0.3,0.1,0.6,0.1,1l0,0c2.1-0.2,13.1-1.5,22.3-1.4c8.2,0.1,15.5,0.9,19,1.5
		c-3.6-8-9.2-17.4-17.6-25.4C171.3,69.4,147.8,60.8,128.2,59.9L128.2,59.9z M99.3,119.5c-0.1,0.4-0.2,0.8-0.2,1.2
		c-0.2,1.4-0.4,2.9-0.6,4.3c3.6-0.9,7.9-1.9,12-2.7c0.1,0,0.2,0,0.3,0c-0.1,0-0.1,0-0.2-0.1c-0.7-0.2-1.4-0.4-2.1-0.5
		c-1.4-0.4-2.9-0.7-4.3-1C102.5,120.3,100.9,119.9,99.3,119.5L99.3,119.5z M224.2,130.8c0,0-1.8,0.8-5.9,1.8
		c-4.1,0.9-12.3-0.4-14.8-0.6c-2.5-0.3-9.9-0.8-12,0.6c-2.1,1.4-1.6,5.6-1.6,5.6s1.7-1.8,5.9-2.8c4.2-1.1,9.7-0.3,9.7-0.3
		c-3.2,0.6-4.9,1.7-4.9,1.7c5.9,0.8,7,2.7,14.9,2.1C223.2,138.3,224.2,130.8,224.2,130.8L224.2,130.8z M175.2,133.9
		c-2.2,0.2-4.2,0.5-6.3,0.7c0,0.1,0,0.2,0,0.2c-2.1,7-6.1,12-12.5,14.9c-8.4,8.5-20.8,14.5-27.8,18.9c-12.3,7.9-14.3,23.4-14.3,23.4
		c1.4-23.8,16-26.9,31.9-38.6c0.3-0.2,1.1-0.7,1.5-0.9l-0.5,0.2c-2,0-6.1-0.4-8-0.8c-1.7,1.2-3.4,2.3-5,3.1
		c-8.4,4.6-14.1,12-14.1,12c2.3-7.5,7.5-10.7,15.5-16.3c-3-1.2-6.3-3.3-8.6-5.5c-4.7,2.4-15,8.7-21.8,15.2
		c-5.5,5.2-15.7,12.6-27.7,18.2c9.5-6.3,25.4-20.3,31-25.7c0,0-21,12.1-27,16.2c0,0,7.8-8.6,17.5-13.9c0,0-21.4,8.8-33.6,17.1
		c-6.4,4.3-16.1,13.2-21.7,19.2c2.3-0.5,11.1-2.3,13.4-2.5c15.8-1.6,33.1-0.4,48.2-18.6c0.2-0.3,0.5-0.6,0.7-0.9
		c-1.3,4.5-1.9,10.8-1.6,17.9c0.5,15.2,12.4,21.2,16.9,24.4c-0.1-1.9-0.4-3.7,1.3-10.3c1.8-7.2,6.8-13.1,8-14c0,0-7.7,10.3-5.5,26.6
		c0,0,2.1-13.3,12.2-26.4c10-13.1,19.7-19.2,27.7-28.9c4.4-5.4,7-10.6,8.5-15.3C174.5,139.8,175,136.4,175.2,133.9L175.2,133.9z
		 M123.5,140.5c-2.2,0.4-31.3,4.3-66.6,28c-11.7,7.9-26,21.8-33.1,29.6c3-1.3,9.6-4.1,14.7-5.7c5.3-5.4,13.9-14.2,21.9-19.8
		c18.4-12.9,49.9-26.2,64.6-30.2c-0.3-0.4-0.6-0.9-0.9-1.3L123.5,140.5L123.5,140.5z M217.4,162.4c-3.1,0-7.3,0.6-12,2.7
		c-9.4,4.3-18.5,12.9-22.3,21.8c-3.9,8.9-4.2,18.3-4.6,25.2c-0.4,6.9,0.7,17.2-2,26.5c0,0,4.5-6.6,6.1-25.2
		c1.5-16.9,5.6-28.5,13.4-33.9c0,0-6.2,8.6-8.3,22.7c-2.1,14.1-1.7,19.6-4.3,31.3l-0.8,2.2c0,0,6.2-8.3,9.6-30
		c2.9-18.9,8.5-27.4,16.1-31.9c0,0-10.2,11.1-12.5,26.9c0,0,5.8-14.3,14.9-20.3c9.1-6,17-8,17-8s-0.3-4.9-5.3-9.6
		C222.3,163,220.4,162.4,217.4,162.4L217.4,162.4z M102.1,177.4c0,0-7.1,8.4-14.9,10.4h-0.3c0,0,4.5,2.3,8.2,2.3s6.8-1.2,6.8-1.2
		S101.2,180.2,102.1,177.4L102.1,177.4z M145.3,182.2c0,0-9.1,9.9-12.7,18c-3.2,7.2-4.3,13.1-4.5,16.1c3.8,2.4,8.4,5.2,10.9,7.2
		c0.6-1.5,1.3-2.9,2-4.3c4.1-8,8-10.9,9.6-19.2C152.3,191.8,148.3,185.4,145.3,182.2L145.3,182.2z M114.4,211.2c0,0,0,8.1,3.9,14.2
		c2.9,4.6,11,8.8,16.2,11.9c0.5-1.7,1.7-6.1,3.4-10.8c-2.1-1.6-8.2-6.2-12-8.3C121.4,215.8,116.4,213,114.4,211.2L114.4,211.2z
		 M148.7,213.7c-0.7,1.1-1.7,2.8-2.4,3.6c-2,2.7-6.9,13.4-9,21.7c0.6,0.4,1.2,0.8,1.7,1.1c2.3,1.6,3.7,2.9,4.4,3.8
		c1-1.8,3-3.6,3.8-5c2.9-5.2,5.1-11.4,4.4-17C151.1,218,149.3,215,148.7,213.7L148.7,213.7z M127.7,237.4c0,1.7,0.2,6,2.6,9.6
		c3.1,4.5,7.6,6.8,7.6,6.8s2-3.5,4.2-7.4c-1.4-1.2-3.3-2.6-5.6-4C134.4,241,130.8,239.2,127.7,237.4L127.7,237.4z M147,243.6
		c0,0-3.6,4.9-6.2,9.5c-1.8,3.2-3.4,7.4-4.2,9.7c0.2,0.1,0.3,0.2,0.5,0.3c1.7,1.1,3.8,4.1,3.8,4.1s4.6-5.1,6.4-10.9
		C149.2,250.5,147,243.6,147,243.6L147,243.6z M132.5,252.8c-0.8,1-2.2,2.2-1.3,5.4c0.6,1.9,2,2.9,3.4,3.7c0.9-2.9,2.1-6.1,2.1-6.1
		C134.6,254.6,132.5,252.8,132.5,252.8L132.5,252.8z M131.4,261.8c0,0-1.4,1.8-0.9,4c0.5,2.2,2.5,3.1,4.7,4.2c2.2,1.1,3,3.3,3,3.3
		c1.5-1.1,2.3-2.7,1.4-4.5c-0.9-1.8-2.5-3.3-4.8-4.4C132.6,263.4,131.4,261.8,131.4,261.8L131.4,261.8z M130.6,269.1
		c-2.2,3.8-1.1,4.7,1.9,7c2.1,1.6,1.7,3.6,1.7,3.6s2.9-1.5,2.7-3.3c-0.1-1.2-1.9-3.8-3.6-4.9C131.6,270.3,130.6,269.1,130.6,269.1
		L130.6,269.1z M130,276.3c-1.3,1.6-1.8,4.7-1,5.6s1.9,0.8,2.6,0s0.9-2-0.1-3.3C130.7,277.6,130,276.3,130,276.3L130,276.3z"/>
	<path class="st3" d="M209.4,115.9c-2.5-0.5-10.6-1.7-20.6-1.8c-9.1-0.1-20,1.1-22.2,1.3l0,0c0,13.5-11.6,23.2-22.5,23.3
		c-16.4,0.2-22.4-12.9-22.5-13.7c-1.2-0.3-2.4-0.7-3.7-1c-2.2,0.3-4.5,0.6-6.9,1c-4.5,0.8-9.2,1.9-13,2.9c-0.2,2-0.5,5.2-0.5,5.5
		C97,144.8,97.7,144,97.7,144c3.3-1.3,15.5-4.4,15.5-4.4c3.6-0.8,7.8-1.7,12.7-2.6c3.5,7,10.7,11.8,19.1,11.8
		c10.4,0,19.1-7.5,21-17.4c22.8-2.5,33.6-2.6,47.7-0.7C212.3,122.9,209.4,115.9,209.4,115.9"/>
</g>
</svg>
