<?xml version="1.0" encoding="utf-8"?>
<!-- Generator: Adobe Illustrator 21.1.0, SVG Export Plug-In . SVG Version: 6.00 Build 0)  -->
<!DOCTYPE svg PUBLIC "-//W3C//DTD SVG 1.1//EN" "http://www.w3.org/Graphics/SVG/1.1/DTD/svg11.dtd">
<svg version="1.1"
	 id="Layer_1" xmlns:cc="http://creativecommons.org/ns#" xmlns:dc="http://purl.org/dc/elements/1.1/" xmlns:rdf="http://www.w3.org/1999/02/22-rdf-syntax-ns#"
	 xmlns="http://www.w3.org/2000/svg" xmlns:xlink="http://www.w3.org/1999/xlink" x="0px" y="0px" width="300px" height="369.7px"
	 viewBox="0 0 300 369.7" style="enable-background:new 0 0 300 369.7;" xml:space="preserve">
<style type="text/css">
	.st0{fill:#FFFFFF;}
	.st1{fill:#E9BF9B;}
	.st2{fill:#FFC62F;}
	.st3{fill:#4F2683;stroke:#000000;stroke-width:0.1562;}
</style>
<g transform="matrix(1.3124 0 0 1.3124 1.1348 .85630)">
	<path class="st0" d="M226.9,184.7c-0.6-3.7-4-7-6.6-7.6c-0.2,0-0.4-0.1-0.7-0.2c0.7-2.5,1-4.4,1.2-5.8c1.5-0.7,3.3-1.4,4-1.7l2.6-1
		l-0.5-2.7c-1.1-5.6-4-10.3-5.7-12.6c0.6-1.9,1-3.2,1-4.2c0-2.2-1.7-4.4-5.2-6.6c-0.3-0.2-0.6-0.7-0.6-3c0,0,0-2.2-0.6-4.5
		c1.9-1.3,4.2-3.3,5.3-6.6c1.1-3.2,1.6-6.1,1.7-7.8c0.1-0.9,0-3.1,0-3.1l-0.4-4.2c0,0-2.1,1.7-3.3,2.6c-0.3,0.2-0.5,0.4-0.7,0.5
		c-0.2,0.1-0.4,0.2-0.5,0.4c-0.9,0.5-1.8,0.9-2.2,1.1c-0.9,0.5-2.3,1-3.8,1.5c-2.2-11.4-10.3-31.4-29.8-49
		c-23.5-21.2-62.4-25.1-64-25.3l-3.6-0.3c0,0-0.1,5.5-0.4,7l0,0.2c-0.1,0.8-0.3,1.5-0.5,2.1c-4.4-2.8-7.5-5.6-9-8.2
		c-2.8-4.9-3.7-9.4-4.5-13.7c-0.6-3.1-1.2-6-2.4-8.8c-3.1-7.4-7.7-13.7-13.4-18.7c-1-0.9-2.1-1.8-3.8-1.8c-0.7,0-1.6,0.2-2.6,1
		c-0.7,0.6-2.8,2.7-0.5,6.2c0,0.1,3.9,7.1,5.3,17.1c0.5,3.3,0.6,7.4,0.7,11.7c0.2,8.7,0.5,18.6,3.9,26.1c1.5,3.3,3.5,6.3,5.5,8.8
		c0.2,0.3,1,1.1,1.1,1.2c0.4,0.4,0.7,0.8,1.1,1.2c-3.8-0.3-7-1.3-10.2-3.1l-0.1-0.1c-9.9-5-17.5-16.7-18.9-29.1L65.4,42
		c-0.3-2.2-0.3-4.4-0.3-6.8c0-1.3,0-2.7-0.1-4.1c-0.2-3.5-0.5-7-1.2-10.5c-0.3-1.5-0.6-2.9-0.9-4.4l0-0.1c-0.2-1.1-0.5-2.1-0.7-2.9
		c-0.2-0.6-0.4-1.2-0.6-1.8c-0.5-1.5-1.2-3-2-4.3c-1.1-1.8-2.2-3.2-3.3-4.5c-0.9-1-1.8-1.8-2.7-2.4l-0.1-0.1
		c-0.4-0.3-1.4-0.8-2.7-0.8c-0.7,0-1.3,0.2-1.9,0.5l-0.4,0.2c-1.5,1.1-2.4,3.4-1,6.1l0.1,0.2c0,0,0.1,0.2,0.2,0.4
		C47.8,7,47.9,7.2,48,7.5c0.1,0.2,0.1,0.5,0.2,0.8c0.4,2.4,0.9,8.2-1.3,19.7l-0.1,0.6c-0.2,2.1-0.5,3.6-0.7,5
		c-0.9,5.5-1.9,12.1-2.1,19.2c0,0.2,0,0.7,0,1l0,0.3c0,4.7,0.7,45.1,40.6,59.2l0,0l-0.1,0c-1.8,11.6-1.9,18.8-1.8,22.3
		c-8.7,3.4-17.2,7.5-25.3,12.1c-12.7,7-24.6,15.7-35.1,25.8c-2.1,2.1-4.2,4.1-6.3,6.3c-0.5,0.5-1,1-1.4,1.5l-0.1,0.1
		C9.2,187.2,4.4,193,0.3,199c-0.1,0.2-0.5,0.8-0.6,1.1c-0.5,1.1-1,3.1,0,4.2c0.6,0.7,1.7,1.2,3.9,0.3c0.1,0,0.5-0.2,0.7-0.3
		c0.4-0.2,1-0.6,1.3-0.8c13.2-10.1,43.6-15.7,52.5-16.2c7.4-0.4,14.8-1.5,17.5-2c1.5,0.7,4.4,1.9,7.7,2.6c1.4,0.3,2.9,0.5,4.5,0.5
		c1.4,0,2.6-0.1,3.7-0.3c2.3,7.2,6.8,12.1,9.1,14.3c-0.1,4.3,0.6,12.4,3.8,17.7c2.6,4.3,6.4,7.6,8.5,9.2c0,2.1,0.2,5.4,1.2,8.2
		c0.9,2.5,2.5,4.8,3.6,6.3c-0.4,1.2-0.9,2.8-1,4.6c-0.1,2,0.3,3.6,0.9,4.8c-0.5,0.9-1,2-1.2,3.1c-0.3,1.5,0.1,3.2,0.4,4.4
		c-0.4,0.8-0.7,1.8-0.9,2.7c-0.3,1.3,0,2.7,0.2,3.7c-1,3-2.2,9.1,1.7,12.4c1.2,1,2.6,1.5,4.1,1.5c3,0,5.4-2.1,6.6-3.3
		c1.7-0.8,3.8-2.4,5-4.2c0.9-1.4,1.3-2.7,1.5-3.7c0.8-0.8,1.8-2,2.7-3.7c0.8-1.4,1.1-2.7,1.3-3.6c1.7-2,5.4-7,7.1-13.2l0.4-1.7
		c0-0.2,0.1-0.4,0.1-0.6c0.9-5.6,0.2-10.8-0.3-13.3c1.3-2.4,3.9-7.7,4.2-14c2.9-1.9,7.9-5,13.9-7.7c0.2,3.7,0.3,7.6-0.8,13.4
		c-1.4,7.1-6.6,13-9.2,15.6c-0.9,0.9-3.1,3.4-3.1,3.4s-0.9,0.7-0.7,2.2c0,0.1,0.1,0.3,0.1,0.5c0,0.1,0.2,0.3,0.3,0.4
		c1.2,1.2,4.6,0.8,4.6,0.8c14.7-1.6,24.6-13.9,28.8-24.1c2.6-6.3,5-14.8,6.4-20c8.5-1.5,16.4-2.3,21.7-2.8c2.4-0.2,4.3-0.4,5.5-0.6
		c3.3-0.5,9.3-1.4,9.7-7.1C227.8,191.7,227.5,188.9,226.9,184.7"/>
	<path d="M223.5,185.2c-0.4-2.4-2.8-4.5-4-4.8c-1.2-0.3-4.3-1.1-4.3-1.1c2.3-6.4,2.3-10.4,2.3-10.4c2-1.1,6-2.7,6-2.7
		c-1.3-7.1-6.1-12.5-6.1-12.5c0.4-1.5,1.3-4,1.3-4.9c0-0.9-1.7-2.5-3.6-3.7c-1.9-1.2-2.1-3.3-2.1-5.9c0-2.5-1.1-5.7-1.5-5.9
		c-0.4-0.1,4.8-1.8,6.4-6.3c1.6-4.5,1.6-8.2,1.6-8.2c-2.1,3.1-10.5,4.4-10.5,4.4c-0.7-7.1-6.3-29.9-29.3-50.5
		c-22.9-20.7-62-24.4-62-24.4c0.1,1.2-0.1,2.5-0.4,4c-0.3,1.9-0.9,4.2-1.9,6.1c-0.1,0.1-0.1,0.2-0.2,0.4
		c-5.4-2.9-11.1-6.8-13.7-11.4c-5-8.9-4.4-16.5-7.1-22.8C90.2,14.2,83.9,8.6,82,7c-1.1-0.9-1.4-1.3-2-0.8c-0.5,0.4-0.2,1.1,0.3,1.7
		c0.4,0.6,4.3,8.2,5.8,18.5c1.5,10.3-0.5,26.5,4.3,36.9c3,6.5,7.9,11.6,11.2,14.6c0.1,0.1,0.2,0.2,0.3,0.3l1.1,1.1
		c-6.9,0.6-13.2,0.4-20-3.4C72.1,70.3,63.8,57.5,62.3,44l-0.2-1.6c-0.4-3.7-0.3-7.4-0.4-11.1c-0.1-3.4-0.5-6.7-1.1-10
		c-0.3-1.5-0.6-2.9-0.9-4.4c0,0,0,0,0,0c-0.1-0.9-0.4-1.7-0.7-2.6c-0.2-0.6-0.4-1.1-0.5-1.7c-0.4-1.3-1-2.5-1.7-3.6
		c-0.9-1.4-1.8-2.7-2.9-3.9c-0.7-0.7-1.4-1.4-2.1-1.9c0,0-0.7-0.5-1.2-0.2c0,0-0.7,0.5,0,1.9c0,0,0.2,0.3,0.4,0.8
		c0.1,0.3,0.2,0.6,0.4,1c0.1,0.4,0.2,0.7,0.3,1.1c0.5,2.9,0.9,9.2-1.4,21.3l0,0c-0.2,1.7-0.4,3.5-0.7,5.2c-1,5.6-1.9,12-2,18.7
		c0,0.3,0,1.2,0,1.3c-0.1,5.9,1.1,44.6,41.1,56.8c-0.2,0.8-0.4,1.6-0.5,2.4c-2.7,17.1-1.7,24.3-1.7,24.3s0,0.1,0,0.2
		c-8.2,3.1-17.5,7.2-27.2,12.8c-10.9,6-22.8,14.1-34.4,25.2c-2.2,2.1-4.2,4.2-6.2,6.2c-0.5,0.5-0.9,1-1.4,1.5c0,0-0.1,0.1-0.1,0.1
		c-6.1,6.6-10.7,12.7-14.1,17.6c18.1-13.1,46.4-17,55-17.5c9.1-0.5,18.2-2.1,18.2-2.1s3.6,1.9,7.9,2.9c4.9,1.1,9.9-0.5,9.9-0.5
		c1.8,9.4,8.4,15.4,10.2,16.8c-0.4,2.8,0,12.1,3.2,17.3c3.4,5.6,9.1,9.3,9.1,9.3s-0.4,5,0.9,8.7c1.3,3.6,4.4,6.9,4.4,6.9
		s-1.4,2.4-1.6,5.3c-0.2,3,1.6,4.6,1.6,4.6s-1.6,2.1-1.9,3.7c-0.3,1.6,0.7,4.1,0.7,4.1s-1,1.8-1.3,3.1c-0.3,1.4,0.5,3.1,0.5,3.1
		c-0.7,1.3-2.6,7.3,0.3,9.7c2.9,2.4,6.4-2.1,6.4-2.1c1.1-0.3,3.2-1.7,4.1-3.2c1.2-1.9,1.2-3.6,1.2-3.6s1.5-1,2.9-3.5
		c1.1-2.1,0.9-3.4,0.9-3.4s6.2-6.5,7.5-14.6c1.1-6.9-0.5-13.3-0.5-13.3s4.7-7.1,4.4-15.2c3.2-2.2,10.8-7.2,20.4-10.9
		c0.3,5.5,1.1,10.2-0.6,19c-2.1,10.9-11.9,18.9-11.9,18.9c13.6-1.5,22.7-13.5,26.3-22.1c2.9-7.1,5.6-17.1,6.9-21.6
		c13.3-2.6,25.4-3.3,29.4-3.9c5.3-0.8,6.7-2,6.8-4C224.4,191.2,223.9,187.6,223.5,185.2L223.5,185.2z"/>
	<path class="st0" d="M90.2,26.1c1,4.6,1.3,12.1,1.3,12.1c-0.3-2.6-1.4-6.8-2.3-9.6c0.3,2.1,0.6,4,0.8,5.6
		c0.7,5.6-0.6,15.5,3.3,25.9c2.6,6.7,8.1,11.7,11.4,14.2c2.8-3.9,6.3-8.9,8.7-12.5c-13.4-8.3-16.8-16.2-18.8-27.5
		c-0.3-1.8-0.8-3.5-1.3-5.2c0.4,4.3,0,8.3,0,8.3C92.8,33.4,90.2,26.1,90.2,26.1L90.2,26.1z M55.2,26.9c0,0.9,0,1.8-0.1,2.7
		c-0.1,2.3-0.6,5-0.8,7.3c-0.2,2.3-0.6,4.6-1,6.9c-0.1,0.6-0.2,1.9-0.3,1.7c0,0,0-0.1,0-0.1c-0.1-1.4-0.5-5.9-0.5-11.1l0-1.1
		c0,0.2-0.1,0.4-0.1,0.6c-0.8,4.9-1.8,11.8-1.9,19.2c0,0.2,0,0.8,0,1.2c0,2.3,0,11.9,4.2,22.5c6.3,16.1,18.4,26.8,36.1,31.7
		c8.8,2.5,18.6,4.3,25.5,6.4c0,0,0,0,0,0s7.6,2.2,12.2,5.8c0,0-5-1-10.1-1.6c3.7,5.4,9.9,9,16.9,9c5.3,0,10.2-2.1,13.8-5.4
		c-0.9,0.6-1.7,1.1-2.3,1.4c-1.7,0.8-3.5,1.1-4.7,1.2c-2.9,0.9-5.8,0.5-6.6,0.4c0.1,0,0.1,0,0.2,0c8.8-1.5,16.9-8.2,16-18.4
		c-0.4-4.4-1.7-9-4.5-12c3.4,2.9,5.8,7.1,6.2,11.9c0.2,2.4-0.1,4.7-0.7,6.8c1.1-2.4,1.8-5,1.8-7.9c0.6,3,0.4,5.6-0.3,7.8
		c0.9-2.2,1.4-4.5,1.4-7c0.1,0.3,0.1,0.6,0.1,0.8c0,0,0,0,0-0.1c0-1.5-0.2-2.9-0.5-4.3l0-0.2c-1.2-7.6-6.7-14.9-13.9-18.1
		c-2.1-1.1-8.6-3.5-15.6-4.1c-3.2-0.4-6.6-0.3-10.8,0.1c-1.9,0.2-3.7,0.4-5.4,0.7c-9.5,1.2-18.5,2.4-28.1-3
		c-11.9-6-20.8-19.4-22.4-34.2l-0.2-1.6c-0.2-2-0.3-4.2-0.4-6.3c-0.2-1.8-0.5-2.8-0.5-2.6c0,0.1,0,0.3,0,0.4c0,1.6-0.4,3.1-0.6,4.7
		c-0.3,1.8-0.7,5.3-0.7,5.2c0-0.1-0.1-0.3-0.1-0.4c-0.1-0.5-0.1-1-0.1-1.5c0-1,0-2.1-0.1-3.1c-0.1-2.6-0.6-10.1-0.8-11.1
		C55.6,27.9,55.5,27,55.2,26.9L55.2,26.9z"/>
	<path class="st1" d="M179.7,124.6c-1.3,0-5.8,0.6-7,0.6c0,0.1-0.5,0.1-1.2,0.2c0,0.1,0,0.3,0,0.4c0,0-1.9,14.5-8.8,24
		c1.8,1,6.3,2.4,8,3.8c3,2.7,3.1,6.6,3,8.2c-0.1,1.6-0.4,4.3-1.8,9.8c0,0-0.3-7.9-1.1-10.2c-0.7-2.3-3.3-4.5-5.9-5.3
		c-1.2-0.4-3.3-0.9-5.6-1.4c-4.5,5.2-9.1,8.8-13.4,12.6c0.5,0.7,1.1,1.3,2,1.5c2.6,0.7,5.9-0.9,5.9-0.9s-2.1,9.6,3.4,17.8
		c4.1,6.1,12.1,4.5,12.1,4.5s1.7-12.1,9.2-21.7c6.9-8.9,15.4-13.5,21.3-15.3c-0.2-1.1-0.6-3.4-0.2-4.5c0.6-1.5,2.2-2.8,4.2-2.8
		c2,0,4.2,1.1,4.2,1.1c-1.1-0.2-3.8-0.4-5.2,1.1c-1.1,1.1-0.6,3.4-0.3,4.4c5.4-1,10.4-0.3,11.4-0.1c1,0.3,2,0.1,2.3-1.2
		c0.3-1.3,0.3-2.8-0.3-3.3c-0.7-0.5-1.8-0.7-2.9-1.5c-1.1-0.9-2-2.9-2-5.9c0.1-3-1.7-7.1-1.7-7.1c-4.1,1.6-13.7-1.3-19.7-1.7
		c-6-0.4-10.2,2.4-10.2,2.4C177.8,130.2,179.7,124.6,179.7,124.6L179.7,124.6z M195.6,133.9c2.7,0.1,4.6,0.8,4.6,0.8
		c-2.9,0.1-4.9,1.3-4.9,1.3c0.7,0.8,2,2.7,2,3.3c0,0.1,0,0.3,0,0.5c0,0,0,0.1,0,0.2v0c-0.1,1-0.6,5.5-1.6,6.8
		c-0.2,0.3-0.3,0.5-0.5,0.7c-1.2,1.1-3.3,2.2-7.3,4.9c-4.4,3-7.8,9.2-7.8,9.2s1.2-5.9,3.9-9.2c3.3-4.1,7.7-6.9,10.4-8.3l1.2-5.4
		c-0.9-0.6-2.1-1.3-3.2-1.5c-2.3-0.4-6.3-0.4-8.7-1.1c0,0,0,0,0,0c2.9-0.4,4.6-1.2,8.9-1.9C193.7,133.9,194.7,133.9,195.6,133.9
		L195.6,133.9z M213.7,170.9c0,0-16,6.9-20.5,19.5c0,0,9.6,0.2,14.9,0.9c5.4,0.6,8.8,0.7,10,0.7c1.2,0.1,3.7,0.2,2.9-4.2
		c-0.8-4.4-2-5.1-4.1-6c-2.1-0.8-5.7-0.6-5.7-0.6S214,174.6,213.7,170.9L213.7,170.9z M142.1,171.1c-0.4,0.4-0.7,0.7-1.1,1.1
		c0,0,3.2,4.4,5.2,12.8c1.5,6.4-2.5,16.7-2.5,16.7s2.1,5.2,3,11.5c0.1-0.1,0.3-0.2,0.4-0.2c0,0,11.1-5.9,17-8.4
		c0.9-0.4,2.1-0.8,3.5-1.3c0.1-2.5,0.4-5.9,0.9-9.1c-1.1,0-2.2,0-3.1,0c-6.1,0-10-3.6-12.8-7.7h0c-2.8-4.2-4.8-12.5-4.8-12.5
		S144.2,173.9,142.1,171.1L142.1,171.1z M191.1,193.7C191.1,193.7,191.1,193.7,191.1,193.7c-0.8,1.2-1.4,2.4-2.1,4.1
		c2.1-0.4,4-0.8,5.9-1c10-1.5,18.3-1.8,19.6-2c1.3-0.2,3.7-0.1,4.6-0.8c0,0-2.8,0.2-5.8,0.1C210.4,194,198.5,193.7,191.1,193.7
		L191.1,193.7z"/>
	<path class="st2" d="M120.6,52.2c0,0-0.3,3.5-2.4,8c-0.8,1.6-1.7,3.3-3,5c-1.8,2.5-5.5,7.6-8.9,12.7c-0.1,0.2-0.7,1-0.7,1
		c1.3-0.1,2.5-0.3,3.8-0.5c1.8-0.2,3.6-0.5,5.5-0.7c4.4-0.5,8-0.5,11.4-0.1c6.7,0.6,13.1,2.7,16.1,4.1c8.5,3.6,15.1,12.2,16.3,21.2
		h0c0,0.2,0.1,0.5,0.1,0.8c0,0.1,0,0.2,0,0.3c0,0.3,0.1,0.6,0.1,1c0,0,0,0,0,0c2.1-0.2,13.1-1.5,22.3-1.4c8.2,0.1,15.5,0.9,19,1.5
		c-3.6-8-9.2-17.4-17.6-25.4C163.7,61.7,140.2,53.1,120.6,52.2L120.6,52.2z M91.7,111.8c-0.1,0.4-0.2,0.8-0.2,1.2
		c-0.2,1.4-0.4,2.9-0.6,4.3c3.6-0.9,7.9-1.9,12-2.7c0.1,0,0.2,0,0.3,0c-0.1,0-0.1,0-0.2-0.1c-0.7-0.2-1.4-0.4-2.1-0.5
		c-1.4-0.4-2.9-0.7-4.3-1C94.9,112.6,93.3,112.2,91.7,111.8L91.7,111.8z M216.6,123.1c0,0-1.8,0.8-5.9,1.8
		c-4.1,0.9-12.3-0.4-14.8-0.6c-2.5-0.3-9.9-0.8-12,0.6c-2.1,1.4-1.6,5.6-1.6,5.6s1.7-1.8,5.9-2.8c4.2-1.1,9.7-0.3,9.7-0.3
		c-3.2,0.6-4.9,1.7-4.9,1.7c5.9,0.8,7,2.7,14.9,2.1C215.6,130.6,216.6,123.1,216.6,123.1L216.6,123.1z M167.6,126.2
		c-2.2,0.2-4.2,0.5-6.3,0.7c0,0.1,0,0.2,0,0.2c-2.1,7-6.1,12-12.5,14.9c-8.4,8.5-20.8,14.5-27.8,18.9c-12.3,7.9-14.3,23.4-14.3,23.4
		c1.4-23.8,16-26.9,31.9-38.6c0.3-0.2,1.1-0.7,1.5-0.9l-0.5,0.2c-2,0-6.1-0.4-8-0.8c-1.7,1.2-3.4,2.3-5,3.1
		c-8.4,4.6-14.1,12-14.1,12c2.3-7.5,7.5-10.7,15.5-16.3c-3-1.2-6.3-3.3-8.6-5.5c-4.7,2.4-15,8.7-21.8,15.2
		c-5.5,5.2-15.7,12.6-27.7,18.2c9.5-6.3,25.4-20.3,31-25.7c0,0-21,12.1-27,16.2c0,0,7.8-8.6,17.5-13.9c0,0-21.4,8.8-33.6,17.1
		c-6.4,4.3-16.1,13.2-21.7,19.2c2.3-0.5,11.1-2.3,13.4-2.5c15.8-1.6,33.1-0.4,48.2-18.6c0.2-0.3,0.5-0.6,0.7-0.9
		c-1.3,4.5-1.9,10.8-1.6,17.9c0.5,15.2,12.4,21.2,16.9,24.4c-0.1-1.9-0.4-3.7,1.3-10.3c1.8-7.2,6.8-13.1,8-14c0,0-7.7,10.3-5.5,26.6
		c0,0,2.1-13.3,12.2-26.4c10-13.1,19.7-19.2,27.7-28.9c4.4-5.4,7-10.6,8.5-15.3C166.9,132.1,167.4,128.7,167.6,126.2L167.6,126.2z
		 M115.9,132.8c-2.2,0.4-31.3,4.3-66.6,28c-11.7,7.9-26,21.8-33.1,29.6c3-1.3,9.6-4.1,14.7-5.7c5.3-5.4,13.9-14.2,21.9-19.8
		c18.4-12.9,49.9-26.2,64.6-30.2c-0.3-0.4-0.6-0.9-0.9-1.3L115.9,132.8L115.9,132.8z M209.8,154.7c-3.1,0-7.3,0.6-12,2.7
		c-9.4,4.3-18.5,12.9-22.3,21.8c-3.9,8.9-4.2,18.3-4.6,25.2c-0.4,6.9,0.7,17.2-2,26.5c0,0,4.5-6.6,6.1-25.2
		c1.5-16.9,5.6-28.5,13.4-33.9c0,0-6.2,8.6-8.3,22.7c-2.1,14.1-1.7,19.6-4.3,31.3L175,228c0,0,6.2-8.3,9.6-30
		c2.9-18.9,8.5-27.4,16.1-31.9c0,0-10.2,11.1-12.5,26.9c0,0,5.8-14.3,14.9-20.3c9.1-6,17-8,17-8s-0.3-4.9-5.3-9.6
		C214.7,155.3,212.8,154.7,209.8,154.7L209.8,154.7z M94.5,169.7c0,0-7.1,8.4-14.9,10.4l-0.3,0c0,0,4.5,2.3,8.2,2.3
		c3.7,0,6.8-1.2,6.8-1.2S93.6,172.5,94.5,169.7L94.5,169.7z M137.7,174.5c0,0-9.1,9.9-12.7,18c-3.2,7.2-4.3,13.1-4.5,16.1
		c3.8,2.4,8.4,5.2,10.9,7.2c0.6-1.5,1.3-2.9,2-4.3c4.1-8,8-10.9,9.6-19.2C144.7,184.1,140.7,177.7,137.7,174.5L137.7,174.5z
		 M106.8,203.5c0,0,0,8.1,3.9,14.2c2.9,4.6,11,8.8,16.2,11.9c0.5-1.7,1.7-6.1,3.4-10.8c-2.1-1.6-8.2-6.2-12-8.3
		C113.8,208.1,108.8,205.3,106.8,203.5L106.8,203.5z M141.1,206c-0.7,1.1-1.7,2.8-2.4,3.6c-2,2.7-6.9,13.4-9,21.7
		c0.6,0.4,1.2,0.8,1.7,1.1c2.3,1.6,3.7,2.9,4.4,3.8c1-1.8,3-3.6,3.8-5c2.9-5.2,5.1-11.4,4.4-17C143.5,210.3,141.7,207.3,141.1,206
		L141.1,206z M120.1,229.7c0,1.7,0.2,6,2.6,9.6c3.1,4.5,7.6,6.8,7.6,6.8s2-3.5,4.2-7.4c-1.4-1.2-3.3-2.6-5.6-4
		C126.8,233.3,123.2,231.5,120.1,229.7L120.1,229.7z M139.4,235.9c0,0-3.6,4.9-6.2,9.5c-1.8,3.2-3.4,7.4-4.2,9.7
		c0.2,0.1,0.3,0.2,0.5,0.3c1.7,1.1,3.8,4.1,3.8,4.1s4.6-5.1,6.4-10.9C141.6,242.8,139.4,235.9,139.4,235.9L139.4,235.9z
		 M124.9,245.1c-0.8,1-2.2,2.2-1.3,5.4c0.6,1.9,2,2.9,3.4,3.7c0.9-2.9,2.1-6.1,2.1-6.1C127,246.9,124.9,245.1,124.9,245.1
		L124.9,245.1z M123.8,254.1c0,0-1.4,1.8-0.9,4c0.5,2.2,2.5,3.1,4.7,4.2c2.2,1.1,3,3.3,3,3.3c1.5-1.1,2.3-2.7,1.4-4.5
		c-0.9-1.8-2.5-3.3-4.8-4.4C125,255.7,123.8,254.1,123.8,254.1L123.8,254.1z M123,261.4c-2.2,3.8-1.1,4.7,1.9,7
		c2.1,1.6,1.7,3.6,1.7,3.6s2.9-1.5,2.7-3.3c-0.1-1.2-1.9-3.8-3.6-4.9C124,262.6,123,261.4,123,261.4L123,261.4z M122.4,268.6
		c-1.3,1.6-1.8,4.7-1,5.6c0.8,0.9,1.9,0.8,2.6,0c0.7-0.8,0.9-2-0.1-3.3C123.1,269.9,122.4,268.6,122.4,268.6L122.4,268.6z"/>
	<path class="st3" d="M201.8,108.2c-2.5-0.5-10.6-1.7-20.6-1.8c-9.1-0.1-20,1.1-22.2,1.3c0,0,0,0,0,0c0,13.5-11.6,23.2-22.5,23.3
		c-16.4,0.2-22.4-12.9-22.5-13.7c-1.2-0.3-2.4-0.7-3.7-1c-2.2,0.3-4.5,0.6-6.9,1c-4.5,0.8-9.2,1.9-13,2.9c-0.2,2-0.5,5.2-0.5,5.5
		c-0.5,11.4,0.2,10.6,0.2,10.6c3.3-1.3,15.5-4.4,15.5-4.4c3.6-0.8,7.8-1.7,12.7-2.6c3.5,7,10.7,11.8,19.1,11.8
		c10.4,0,19.1-7.5,21-17.4c22.8-2.5,33.6-2.6,47.7-0.7C204.7,115.2,201.8,108.2,201.8,108.2"/>
</g>
</svg>
