<?xml version="1.0" encoding="utf-8"?>
<!-- Generator: Adobe Illustrator 21.1.0, SVG Export Plug-In . SVG Version: 6.00 Build 0)  -->
<!DOCTYPE svg PUBLIC "-//W3C//DTD SVG 1.1//EN" "http://www.w3.org/Graphics/SVG/1.1/DTD/svg11.dtd">
<svg version="1.1" id="NEW_ENGLAND_PATRIOTS" xmlns="http://www.w3.org/2000/svg" xmlns:xlink="http://www.w3.org/1999/xlink"
	 x="0px" y="0px" width="256.3px" height="123px" viewBox="0 0 256.3 123" style="enable-background:new 0 0 256.3 123;"
	 xml:space="preserve">
<style type="text/css">
	.st0{fill:#FFFFFF;}
	.st1{fill:#002244;}
	.st2{fill:#B0B7BC;}
	.st3{fill:#C60C30;}
	.st4{fill:#C0001D;}
</style>
<g>
	<g>
		<path class="st0" d="M208.1,122c-2.4-2.3-4.7-4.8-7.2-7.3c-18.2-18.7-38.9-39.9-85.4-48.1l-0.1,0c-2.8-0.6-5.2-2.7-6.1-5.3
			c-0.2-0.6-0.4-1.6-0.4-2.6c-7.4,1.4-16.4,2.6-26.5,2.6c-5.4,0-10.7-0.3-16.3-1v0c-0.9-0.1-4.4-0.7-6.4-3.6c-0.5-0.7-1-1.7-1.2-3
			C45.8,55.8,34,56.8,20,56.8c-3.8,0-7.8-0.1-12-0.2c-5.3-0.4-7.8-4.1-8-7.6c-0.2-3.7,2.2-7.9,7-8.6l0.1,0
			c21.3-2.6,43.6-10.6,74.4-21.7c4.7-1.7,9.6-3.4,14.6-5.3C129.3,1,163.3,0,172.9,0c1.5,0,2.3,0,2.3,0c0.4,0,0.8,0,1.3,0
			c12.7,0,23.8,3.1,33.6,5.9c8.5,2.4,16.6,4.6,24.6,4.6c3.8,0,7.4-0.5,11-1.5c0.7-0.2,1.4-0.3,2.1-0.3c2.2,0,5.1,0.9,7,3.3
			c1.4,1.9,1.9,4.3,1.2,6.8c-1.5,5.5-13.3,47.1-13.8,48.9l-0.4,1.3l-1.2,0.6c-0.1,0-4.8,2.4-8.5,4.3c0.9,4.4,2.7,13.3,2.8,13.8
			l0.4,2.1l-7.3,4.4c-0.3,1.6-0.8,3.1-1.2,4.1c1.3,5.8,0.4,11.2-2.6,15.7c-3.6,5.4-9.6,8.4-13.7,9l-1.5,0.2L208.1,122z M130.7,58.1
			c45.7,11.2,74.4,43.4,81.6,52.3c1.4-1,2.4-2.1,3.1-3.3c1.2-2,1.8-5.2,0.3-7.1l-1-1.3l2.4-6.1l0-5l5.8-3.4c-0.4-1.7-0.7-3.5-1-5.2
			c-0.6-2.9-1.1-5.9-1.9-8.8l-0.6-2.3l2-1.1c3.6-2,7.3-3.9,11-5.7c1.7-5.8,8.5-29.4,11.4-40.2c-3.3,0.6-6.7,0.9-10.2,0.9
			c-4.9,0-9.7-0.6-14.3-1.9l-0.2,0c-0.3-0.1-25.6-8.6-44.2-8.7c-0.5,0-1,0-1.5,0c-15,0-30.1,1.5-43.9,4.4c0.5,1.9,0.9,3.7,1.3,5.6
			c0.2,0.9,0.4,1.7,0.6,2.6c1.9-0.1,3.7-0.2,5.5-0.2c7.2,0,13.3,1,18.8,3.1l12.7,4.8l-13.6,1c-6.2,0.4-13.5,1.1-20.6,2.9
			c0.4,1.8,1,4.1,1.5,6c4-0.7,7.9-1.1,11.8-1.1c8.6,0,16.5,1.9,22.9,5.4l10.3,5.7l-12.2,0c-17.9,0-26.7,3-35.2,5.9
			C132.5,57.5,131.6,57.8,130.7,58.1z M126.5,37.4c-5.2,1.3-10.7,3.4-16.8,5.7c-5.6,2.1-11.6,4.3-18.3,6.4
			c9.4-0.8,21.7-2.6,36.6-6.5c-0.2-0.6-0.3-1.1-0.5-1.7C127.2,40,126.9,38.7,126.5,37.4z M121.2,17.5C107,20.9,93,26.1,78.3,31.6
			c-12.9,4.8-26,9.6-39.8,13.5c19.4-1.4,31.4-5.1,46.6-9.8C95.4,32,107,28.5,123,25C122.5,22.8,121.8,20,121.2,17.5z"/>
		<path class="st0" d="M246.6,11.9c-23.3,6.7-42.5-9.3-71.4-8.8l0,0c0,0-39.7-1.2-77.9,13.2C58.8,29.9,32.4,40.3,7.5,43.3
			c-5.9,0.9-6.4,9.8,0.6,10.3c23,0.9,38.6-0.8,53.8-3.8c-2.2,6.7,4.6,7.4,4.7,7.4c18.1,2.3,32.7,0.4,47-2.6c-3.6,4.4-0.7,8.3,2.4,9
			c53.9,9.5,74.4,36.8,94.2,56.2c5.5-0.7,17.4-7.8,13.5-22c0,0,1.5-3.2,1.5-5.6l6.8-4.1c0,0-2.9-14.4-3.2-16
			c3.7-1.9,10.5-5.3,10.5-5.3s12.3-43.3,13.8-48.8C254.4,13,249.2,11.1,246.6,11.9z M8.2,48.4c43.1-5.9,78.6-26.3,115.2-34.6
			c1.2,4.5,3.2,13.4,3.2,13.4C74.3,38.3,68.8,50.4,8.2,48.4z M66.6,52c28.6-4.2,45.9-14.8,62.1-18.2c1,4,2.2,8.1,3,11.3
			C89.2,56.7,66.6,52,66.6,52z M235,63.2c-4.1,2-8.1,4-12.1,6.2c1.4,5.3,2.1,11,3.4,16.2l-6.2,3.6l0,3.8l-2,5.1
			c2.3,3,1.7,7.4-0.2,10.5c-1.5,2.5-4,4.3-6.4,5.7c0,0-35-47.6-94.6-55.9c16.8-2.7,23.1-10.3,52.1-10.2c-10.3-5.7-23.5-6.1-35.5-3.4
			c-0.6-2.5-2.9-11.7-2.9-11.7c7.8-2.2,15.8-3.1,24-3.7c-7.8-3-16.5-3.3-25.6-2.5c-1.1-4.5-2-8.9-3.2-13.6
			c15.4-3.5,32.6-5.3,49.1-5.2c19.3,0.1,45.2,8.9,45.2,8.9c8.7,2.4,18.9,2.4,27.8-0.3C246.8,22.4,235,63.2,235,63.2z"/>
		<path class="st0" d="M223.4,34.9c-0.6-2.4-1.7-9.1-2.1-9.7l-5.9,7.6c0,0-7.9-2.1-12.4-3c2.8,2.9,5.5,5.6,8,8.5
			c-2.3,3.5-5.3,6.9-7.8,10.3c4.5-1.5,9.1-2.9,13.6-4.5c3.3,3.3,6.8,6.9,10,10.1c-0.6-4.3-1.8-8.6-2.2-12.7l10.3-3.5
			C231.2,36.8,227.2,36,223.4,34.9z"/>
	</g>
	<g>
		<path class="st1" d="M220.2,17.1c0,0-25.9-8.7-45.2-8.9c-16.5-0.1-33.7,1.6-49.1,5.2c1.2,4.7,2.1,9.1,3.2,13.6
			c9-0.8,17.7-0.5,25.6,2.5c-8.2,0.6-16.2,1.5-24,3.7c0,0,2.2,9.2,2.9,11.7c12-2.7,25.2-2.2,35.5,3.4c-29-0.1-35.3,7.6-52.1,10.2
			c59.6,8.3,94.6,55.9,94.6,55.9c2.4-1.4,4.9-3.2,6.4-5.7c1.8-3.1,2.4-7.5,0.2-10.5l2-5.1l0-3.8l6.2-3.6c-1.3-5.3-2-10.9-3.4-16.2
			c4-2.2,8-4.3,12.1-6.2c0,0,11.8-40.8,13.1-46.4C239.1,19.5,229,19.5,220.2,17.1z M213.1,83.5l-1.5,1.9c1.7,0.6,3.6,1.7,5.2,2.4
			l-0.1,2.1l-4.5,0.1c-2.1,1.5-3.7,3-5.8,4.5c0,0,4.4-0.8,6.8-1.4l4.3,0c-0.5,1.3-1,2.3-1.5,3.5l-4.2,0.2c0,0,2.6,3.1,4.3,5
			c2,3.4-3.5,7.5-3.5,7.5c-9.8-10.9-20.4-22.4-33.4-29.8c1.3-2,3.3-3.1,5.6-2.9c4.8,0.9,9,4.2,10.1,5.4c1.5,1.6,4.2,5.7,5.1,6.3
			c-0.4-3.3-1.6-6.6-2.4-9.9l-14.6-10c1.5-4.1,6.8-7,11.5-7.1c4.5-0.1,8.8-0.1,12.2,2.5c-7.6-0.1-10.4,3.7-11.5,7.3
			c-0.1,0.3,15.6-0.1,15.6-0.1c0.6-1.6,0.8-3.3,2-4.7c1.2-1.7,3.4-2.3,5.3-2.4c0.4,1.3,3.8,19.4,3.8,19.4
			C218.7,83.4,216.2,83.3,213.1,83.5z M226.9,54.2c-3.2-3.2-6.7-6.8-10-10.1c-4.5,1.6-9.1,2.9-13.6,4.5c2.4-3.4,5.4-6.8,7.8-10.3
			c-2.5-2.9-5.2-5.5-8-8.5c4.4,0.9,12.4,3,12.4,3l5.9-7.6c0.3,0.6,1.5,7.3,2.1,9.7c3.8,1.2,7.8,1.9,11.5,3.1l-10.3,3.5
			C225,45.6,226.3,49.9,226.9,54.2z"/>
	</g>
	<path class="st2" d="M212.6,66.3c-1.1,1.4-1.4,3.1-2,4.7c0,0-15.7,0.3-15.6,0.1c1.1-3.5,3.9-7.4,11.5-7.3
		c-3.3-2.6-7.7-2.7-12.2-2.5c-4.6,0.1-9.9,3-11.5,7.1l14.6,10c0.8,3.3,2,6.6,2.4,9.9c-0.8-0.6-3.6-4.7-5.1-6.3
		c-1.2-1.2-5.3-4.5-10.1-5.4c-2.3-0.2-4.3,0.8-5.6,2.9c13,7.4,23.6,18.9,33.4,29.8c0,0,5.5-4.1,3.5-7.5c-1.8-2-4.3-5-4.3-5l4.2-0.2
		c0.5-1.1,1-2.2,1.5-3.5l-4.3,0c-2.3,0.6-6.8,1.4-6.8,1.4c2.1-1.5,3.7-3,5.8-4.5l4.5-0.1l0.1-2.1c-1.6-0.7-3.5-1.8-5.2-2.4l1.5-1.9
		c3-0.2,5.6-0.1,8.6-0.2c0,0-3.4-18.1-3.8-19.4C216,64,213.8,64.6,212.6,66.3z"/>
	<g>
		<path class="st3" d="M128.7,33.8C112.5,37.2,95.2,47.8,66.6,52c0,0,22.6,4.7,65.1-6.9C130.9,41.8,129.7,37.8,128.7,33.8z"/>
		<path class="st4" d="M123.4,13.9C86.8,22.1,51.3,42.6,8.2,48.4c60.6,1.9,66.1-10.2,118.4-21.2C126.6,27.2,124.5,18.3,123.4,13.9z"
			/>
	</g>
</g>
</svg>
