<?xml version="1.0" encoding="utf-8"?>
<!-- Generator: Adobe Illustrator 21.1.0, SVG Export Plug-In . SVG Version: 6.00 Build 0)  -->
<!DOCTYPE svg PUBLIC "-//W3C//DTD SVG 1.1//EN" "http://www.w3.org/Graphics/SVG/1.1/DTD/svg11.dtd">
<svg version="1.1"
	 id="Layer_1" xmlns:cc="http://creativecommons.org/ns#" xmlns:dc="http://purl.org/dc/elements/1.1/" xmlns:rdf="http://www.w3.org/1999/02/22-rdf-syntax-ns#"
	 xmlns="http://www.w3.org/2000/svg" xmlns:xlink="http://www.w3.org/1999/xlink" x="0px" y="0px" width="306.1px" height="380.9px"
	 viewBox="0 0 306.1 380.9" style="enable-background:new 0 0 306.1 380.9;" xml:space="preserve">
<style type="text/css">
	.st0{fill:#FFFFFF;}
	.st1{fill:#231F20;}
	.st2{fill:#D3BC8D;}
</style>
<g transform="matrix(1.25 0 0 -1.25 -285.69 611.52)">
	<g transform="matrix(.25 0 0 .25 229.57 296.66)">
		<path class="st0" d="M486.4-448.8L444-404.5c-27.6,28.9-48.4,63.4-61.8,102.6c-25.6-4.6-51.4-4.7-73.4-0.2
			c-43.2,8.6-75.3,33.4-90.4,69.7c-33.9,81.9,20.4,150.9,57.8,178.8l46.8,34.8l9.7-13c0.8,7.6,2.3,15.3,4.5,22.8
			c-13,17-41.4,48-75.5,48.7c-0.4,0-0.8,0-1.2,0c-46.9,0-62.1-53.5-63.7-59.6l-14.2-58.3l-58.1,15.9C55.6-43.3,6.9,12.7-2.5,83.9
			c-10.2,77.9,29.2,153,103,196.1c89.6,52.3,174.1,38.8,232.6,15.6c3.3,18.9,8.5,39.1,15.9,61.1c14.1,42,30,83.4,41.6,113.6
			c15.4,40.1,29,79.5,37.2,108.1L486,770.2L542,578.5c7.5-26.4,20.8-64.7,37.5-108l1.1-2.7c12.9-33.4,27.6-71.2,40.9-110.7
			c7.5-22.1,12.8-42.2,16.1-60.9c58.4,23.4,142.9,37,232.6-15.1l0,0C943.9,238,983.7,163,974,85.2c-9.2-71.2-57.8-127.3-126.8-146.5
			c-21.1-5.8-44.8-12.5-47.5-13.4c3.8,1.3,7,6,5.7,11.2l-18.6-4.6c0,0,0,0,0,0h0l-12,48.9c-1.1,4.1-5.7,19.2-15.8,33.3
			c-12.9,18-29.7,26.9-49.3,26.4c-34.1-0.8-62.4-31.9-75.4-48.9c2.2-7.5,3.7-15.3,4.6-23l9.7,13l46.9-34.7
			c37.5-27.8,91.9-96.7,58.3-178.7c-15-36.5-47-61.3-90.2-70c-22.3-4.5-48.1-4.4-73.4,0.1c-13.4-39.3-34.1-73.8-61.5-102.7
			L486.4-448.8z M395.3-279.6l2.6-8.4c12.3-39.7,32.5-74.5,60-103.2l28.4-29.7l28.4,29.8c27.3,28.6,47.4,63.4,59.8,103.3l2.6,8.4
			l8.6-1.9c25.5-5.5,51.8-6.1,74.1-1.7c36.7,7.3,63.8,28.1,76.2,58.4C765.1-153.4,717-93.1,684-68.6l-31.5,23.3l-37.7-50.5l4.7,36.4
			c2.1,16.4,0.4,33.6-5,49.7L613-5l2.9,4c12.9,17.9,47.8,59.6,93.4,60.7c0.6,0,1.3,0,1.9,0c59.2,0,78.9-61.6,82.3-74.1l9.6-39.3
			c4.3,1.2,9.5,2.7,14.7,4.2c12.2,3.4,24.3,6.8,24.3,6.8c61.4,17,104.6,67,112.8,130.4c8.7,70-27.5,137.8-94.4,176.8l0,0
			c-88.8,51.6-172.3,33.6-226.7,9.3l-11.7-5.2l-1.7,12.7c-2.8,21-8.4,43.8-17.2,69.7c-13.2,39.1-27.7,76.8-40.6,110l-1.1,2.8
			c-16.9,43.8-30.4,82.8-38.1,109.6l-37.8,129.6L446.3,573c-8.4-29-22.1-69-37.7-109.6c-11.5-30-27.4-71.2-41.4-112.8
			c-8.6-25.7-14.2-48.6-17-69.9l-1.7-12.7l-11.7,5.2c-54.5,24.1-138,42-226.7-9.8c-67-39-102.8-106.9-93.6-177
			C24.9,23,68.3-26.8,129.7-43.7l39.1-10.7l9.6,39.2c2,7.8,20.9,74.1,82.2,74.1c0.6,0,1.1,0,1.7,0c45.4-0.9,80.5-42.6,93.5-60.5
			l2.9-4l-1.5-4.7c-5.4-16.4-7.1-33.2-4.9-49.8l4.7-36.5l-37.7,50.7l-31.4-23.4c-33-24.5-80.9-85-51.6-156
			c12.5-30.2,39.7-50.9,76.4-58.3c21.9-4.4,48.2-3.7,74.1,1.9L395.3-279.6z"/>
		<path class="st0" d="M865.3,272.6c-86.2,50.1-171,38.5-235.4,9.8c-2.8,21.2-8.4,44.4-17.6,71.5c-13.6,40.4-28.6,79-41.8,113.1
			c-17.3,44.8-30.5,83.1-37.8,108.8l-46.9,160.7l-48.7-160.8c-7.4-25.6-20.3-64.1-37.5-108.9c-13.1-34.1-27.9-72.8-41.5-113.2
			c-9.1-27.2-14.6-50.5-17.4-71.7c-64.4,28.5-149.3,40-235.4-10.3C35,230.6-2.7,159,7,85.1C15.9,17.8,61.9-35.1,127.1-53l48.6-13.3
			l11.9,48.8c1.7,6.6,19.2,67.9,74.4,66.8c38.3-0.8,70-34.6,85.9-56.5c-5.1-15.5-7.9-34-5.3-54l-21.5,28.9L282-61.4
			c-35.2-26.2-86.3-91-54.7-167.4c13.8-33.3,43.4-56,83.4-64c24.4-4.9,52.2-3.7,78,1.9c10.1-32.5,28.6-71.8,62.2-107l35.4-37
			l35.3,37.1c33.5,35.2,51.9,74.6,62,107.1c25.8-5.6,53.5-6.6,78-1.7c40,8,69.5,30.8,83.2,64.2c31.4,76.5-19.9,141.2-55.1,167.3
			l-39.2,29L629-60.7c2.6,20-0.2,38.5-5.4,54c15.8,21.9,47.5,55.8,85.8,56.7c55.2,1.2,72.8-60,74.7-67l12-48.9
			c-0.1,0.4,48.5,13.8,48.5,13.8C909.8-34,955.7,19,964.4,86.3C973.6,160.2,935.7,231.6,865.3,272.6"/>
		<path class="st1" d="M469.7,568.9c-5.9-28-21.3-67.8-39-114c-13-33.8-27.7-72.1-41-111.8c-12.8-38.2-18-66.6-18-93.1
			c0-8.5,1-16.8,2-25.1c-49.1,33.7-145.9,79.8-251.5,18.1C63.6,208.7,32.1,149.9,40,89.4C47.1,35.6,83.8-6.7,135.9-21l15.5-4.2
			l3.8,15.6c1,3.8,24.2,93.9,107.4,92.2c67-1.3,110.7-66.5,122.6-86.5c-5.6-10.4-10.3-24.7-10.3-41.2c0-17.6,6-37.7,21.3-57.9
			c-6.1-8.3-16.1-18.4-27.8-19.4c-16.7-1.4-33.5,16.2-44.7,31.2l-9.4,12.5L301.8-88c-25.6-19.1-67.7-70.4-43.9-128.1
			c9.5-23.1,30-38.3,59.1-44.1c30.1-6,68.2-0.5,95.2,11.8c5.2-30.5,20.1-82.1,62.5-126.4l11.3-11.9l11.3,11.9
			c42.4,44.5,57.1,96.1,62.2,126.6c27.1-12.2,65.1-17.6,95.3-11.5c29.1,5.9,49.5,21.2,59,44.2c23.7,57.8-18.5,109-44.2,128
			l-12.5,9.3l-9.3-12.5c-11.2-15-28-32.6-44.7-31.2c-11.7,1-21.7,11.1-27.8,19.3c15.2,20.1,21.2,40.1,21.2,57.7
			c0,16.6-4.7,31-10.4,41.4c11.8,20,55.4,85.3,122.4,86.8c83.2,1.9,106.7-88.1,107.6-92l3.9-15.6l15.5,4.2
			c52.1,14.4,88.7,56.8,95.7,110.6c7.8,60.5-23.8,119.3-82.5,153.4c-105.8,61.5-202.5,15.1-251.5-18.8c0.9,8.1,1.9,16.2,1.9,24.4
			c0,26.8-5.2,55.7-18.1,93.8c-13.4,39.7-28.2,77.9-41.3,111.6c-17.9,46.1-33.3,86-39.3,113.9L485,640.6L469.7,568.9"/>
		<path d="M486.2-364.2c59.9,62.9,60.6,142.3,60.6,142.3c26.5-26.4,129.5-44.1,152.6,12.2c25.3,61.8-39,109.5-39,109.5
			C598-183.8,556.2-102,556.2-102c47.5,51.3,11.9,97.6,11.9,97.6c3.1,9.3,55.8,101.2,140.1,103.1C805.4,100.9,831.3-5.1,831.3-5.1
			c101.9,28.2,121.6,170.3,9.4,235.5c-142.3,82.7-266.3-43.3-266.3-43.3c11.5,47.2,14.8,82.4-8.4,151.3
			c-31.5,93.4-70.2,176.9-81,227.3c-10.7-50.4-49.2-134-80.5-227.5c-23.1-69-19.7-104.2-8.1-151.3c0,0-124.3,125.7-266.3,42.7
			c-112-65.5-92-207.4,10-235.5c0,0,25.7,106.1,122.9,104.1C347.3,96.5,400.2,4.7,403.3-4.5c0,0-35.5-46.4,12.1-97.6
			c0,0-41.7-81.9-104.2,1.5c0,0-64.3-47.9-38.8-109.6c23.2-56.2,126.2-38.3,152.6-11.8c0,0,0.9-79.4,60.9-142.1"/>
		<path class="st2" d="M485.2,499.5l-0.2-1.3v1.3c0,0-9.1-46.6-53.6-162.4s5.2-212.5,9.4-234c0,0-95.3,131.3-211,131.1
			C113.9,234,17.5,102.3,124.5,24.5c0,0,31.3,97.2,139.2,97.4c79.4,0.2,158.9-85,162.2-127.2c0,0-36.3-51.3,14.2-94.2
			c0,0-54.6-114.8-130.2-32.1c0,0-58.2-72.8,17.9-90.4c60.4-14,119.8,47.3,119.8,47.3s-6.5-96.7,38.2-149.6v0.5l0.2-0.5
			c44.6,53,37.9,149.7,37.9,149.7s59.6-61.1,120-47c76,17.8,17.7,90.5,17.7,90.5C586.1-214,531.3-99.3,531.3-99.3
			C581.7-56.2,545.2-5,545.2-5c3.4,42.1,82.7,127.4,162.1,127.4c107.9,0,139.5-97.1,139.5-97.1c106.8,78.1,10.1,209.7-105.7,209.5
			c-115.8-0.1-210.7-131.6-210.7-131.6c4.1,21.5,53.6,118.3,8.8,234C494.3,452.9,485.2,499.6,485.2,499.5L485.2,499.5z"/>
	</g>
</g>
</svg>
