<?xml version="1.0" encoding="utf-8"?>
<!-- Generator: Adobe Illustrator 21.1.0, SVG Export Plug-In . SVG Version: 6.00 Build 0)  -->
<!DOCTYPE svg PUBLIC "-//W3C//DTD SVG 1.1//EN" "http://www.w3.org/Graphics/SVG/1.1/DTD/svg11.dtd">
<svg version="1.1"
	 id="Layer_1" xmlns:cc="http://creativecommons.org/ns#" xmlns:dc="http://purl.org/dc/elements/1.1/" xmlns:rdf="http://www.w3.org/1999/02/22-rdf-syntax-ns#"
	 xmlns="http://www.w3.org/2000/svg" xmlns:xlink="http://www.w3.org/1999/xlink" x="0px" y="0px" width="300px" height="232.6px"
	 viewBox="0 0 300 232.6" style="enable-background:new 0 0 300 232.6;" xml:space="preserve">
<style type="text/css">
	.st0{fill:#FFFFFF;}
</style>
<g>
	<path class="st0" d="M300,183L299.9,2h-50.2v105.4c0,1.3,0,2.5-0.1,3.8c0,0.5,0,1-0.1,1.5c-0.5,3.8-2.8,7.1-6.1,9
		c-1.9,1.1-4.2,1.7-6.6,1.7c-6.9,0-12.8-5.3-12.7-11.8L224.1,2h-69.4v41h12.8c3.4,0,6.2,2.8,6.2,6.2v80.3c0.8,13.2,8.7,25.3,18.6,31
		c10,7.9,34.4,11.6,47.6,6.9c0,0,6.1-1.9,9.5-4.2v10.2c0,2.4-0.2,3.9-0.8,5.8c-1.7,3.6-5.3,5.5-11.2,5.6l-214.5,0v47.7h232.5
		c7.1-0.4,13.7-1.2,19.3-2.7c7.7-2.3,25.2-10.6,25.2-36.5C300,193,300,183.4,300,183"/>
	<path class="st0" d="M152.3,126.4c-3.4,0-6.2-2.8-6.2-6.2v-0.9c0-0.1,0-0.2,0-0.3c0-1.4,0-2.9,0-4.4V84.6c0-3.6,0-5.9,0-5.9l0-9.4
		V33.8c-0.1-1-0.2-2.6-0.7-4.5c-0.7-3.2-2.1-7.4-5-11.6c-5.9-8.6-13.4-13.3-23.5-16c-16-4-33.2-0.9-44.9,8.1V2H0l0,41.2h16.7
		c3.4,0,6.2,2.8,6.2,6.2v116.8h49V57.1l0-1.1h0c0-6.5,5.5-11.8,12.4-11.8c6.7,0,12.2,5.2,12.3,11.6v89c0,2.6,0.5,5.1,1.3,7.4
		c3,8.1,10.7,13.8,19.8,13.8h46v-39.5l-1,0L152.3,126.4"/>
</g>
</svg>
