<?xml version="1.0" encoding="utf-8"?>
<!-- Generator: Adobe Illustrator 21.1.0, SVG Export Plug-In . SVG Version: 6.00 Build 0)  -->
<!DOCTYPE svg PUBLIC "-//W3C//DTD SVG 1.1//EN" "http://www.w3.org/Graphics/SVG/1.1/DTD/svg11.dtd">
<svg version="1.1"
	 id="Layer_1" xmlns:cc="http://creativecommons.org/ns#" xmlns:dc="http://purl.org/dc/elements/1.1/" xmlns:rdf="http://www.w3.org/1999/02/22-rdf-syntax-ns#"
	 xmlns="http://www.w3.org/2000/svg" xmlns:xlink="http://www.w3.org/1999/xlink" x="0px" y="0px" width="313.4px" height="220.3px"
	 viewBox="0 0 313.4 220.3" style="enable-background:new 0 0 313.4 220.3;" xml:space="preserve">
<style type="text/css">
	.st0{fill:#FFFFFF;}
	.st1{fill:#004C54;}
	.st2{fill:#FFFFFF;stroke:#FFFFFF;}
	.st3{fill:#A5ACAF;}
</style>
<g transform="matrix(1.25 0 0 -1.25 -285.85 559.43)">
	<g transform="matrix(.25 0 0 .25 228.68 296.3)">
		<path class="st0" d="M252.2-99.9l-7.7,6.6c-1.4,1.2-28.3,24.5-38.2,65.2C194-36,177.2-44.2,157-48.5c-23-4.9-69.2-6.9-119.6,35.2
			C6.8,12.3,0.9,85.8,0.3,94.1L0,98.6l2.1,4c1,1.9,22.6,42.7,64.2,82.6c-6.2,8.2-10,16.3-11.8,22.3l-3.8,13.4l12.8,5.6
			c71.2,31.1,101.2,61.5,132.9,93.7c24.4,24.7,49.6,50.3,93.6,78.3c101.9,64.9,168.5,95.8,278.8,146.9l76.7,35.6l-55.9-58.6
			c78.6,28.7,172.8,59.5,178,61.2l65.2,21.3l-57.5-56.3c114.7,31.4,197.1,46.7,198.1,46.9l29.4,5.4L991,573.5
			c-1.2-2.7-25.7-59.4-64.1-123.9c18.1,2.1,36.9,4.3,37.2,4.3l32.4,3.8l-16.9-28c-2-3.4-46.2-76.1-101.4-138.6l31.6-7.9l-13.2-19
			c-2.3-3.3-57-81.7-130.2-146.9c-88.8-79.2-144.4-85-164.8-83.6C519.8-22.3,453.8,6.8,451,8.1l-13.8,6.3l5.6,14.1
			c8.4,21.3,13,47.4,9.5,53.7c-15.7,3.7-41.6-8-49.2-13.8c-7.2-21.5-27.8-62.8-49-88.7c-43.1-52.7-90.7-74.6-92.7-75.5L252.2-99.9z
			 M234.5,42l0.2-40.1c0.1-30.5,14.4-52.4,23.4-63.3c14.8,8.6,44.2,28.2,71.3,61.3c20.9,25.5,40.1,67,44.2,81.2l0.6,2l1.1,1.8
			c8.6,14.3,53.7,36.4,85.5,28.1c8.8-2.3,15.7-7.9,19.9-16.1c8.9-17.6,3.3-45.1-2.4-63.8c20.4-3.9,61.3-5,109.8,30.1l6.6,4.8
			l6.7-2.2c3.7-0.6,52.5-6.1,143.7,75.3c49.3,43.9,90.8,95.3,111.3,122.4l-39,9.7l19.3,19.9c39.8,41.2,76.7,93.4,97.6,125
			c-15.8-1.8-32.1-3.7-36.6-4.2l-33.2-3.6l18,28.1c29.1,45.4,52.5,91.1,66,119.3c-42.7-9-126.1-27.9-225-57.2l-61.9-18.3l50,48.8
			c-55.2-18.7-131.9-45.4-176.7-64l-70.3-29.2l40.5,42.4c-69.4-33-123-61.2-197.9-108.8c-40.9-26.1-64.8-50.3-88-73.8
			c-31.6-32-61.5-62.4-127.3-93.4c2-2.6,4.5-5.4,7.5-7.9l14.1-12.1l-14-12.1c-37.3-32.3-60.1-68.8-66.9-80.6
			c2.6-28.1,11.6-68.9,25.3-80.4c39.9-33.3,75-32.1,92.4-28.4c34.5,7.3,56.5,29.8,56.7,30L234.5,42z"/>
		<path class="st0" d="M575.6,531l-46.8-49c76.7,31.9,243.8,86.5,243.8,86.5L719,516.1c146.2,43.3,257.3,63.8,257.3,63.8
			S944.1,505,896,430c9.3,1,70,8.1,70,8.1s-54.7-90.6-117.8-155.9l35.3-8.8c0,0-55.1-79.4-127.7-144.1
			C651.3,36.1,597.5,50.4,597.5,50.4C519.9-5.8,457.7,22.7,457.7,22.7s26.9,67.8-0.9,75c-25,6.5-63.1-13.1-67.8-20.9
			c-4.9-17.1-25.7-60.6-47.2-86.9c-41.2-50.4-86.9-71-86.9-71s-36,30.7-36.2,83c0,0-24.7-26.2-65-34.7c-28.2-6-66.6-1.1-106,31.8
			C21.4,21,16.3,95.2,16.3,95.2s24.8,47.5,72.8,89.1C78.5,193.4,72,204.8,70,211.9c127.3,55.6,127.4,108.6,228.7,173.2
			C398.4,448.6,461.1,477.9,575.6,531"/>
		<path class="st1" d="M513.5,486l-40-41.9c79,35,245.9,91.8,245.9,91.8L671,488.5c171.1,53,279.7,70.9,279.7,70.9
			s-35.5-79.1-82.7-146.2c22.9,2.2,70.5,7.7,70.5,7.7S890.8,341,820.4,273.4c7.8-1.1,39.8-8.4,39.8-8.4s-42.5-63-116.3-127.7
			c-94.3-82.5-136.1-72.8-136.1-72.8s0.9,3.2,0.8,8.2c-0.1,2.8-0.7,5.3-0.7,5.5c-72.5-68.3-133-45.3-133-45.3s26.8,65-14.3,78.1
			c-31.9,10.2-80.7-15.9-84.6-29.9c-4.2-15.2-24.5-57.4-44.6-82.1C296.6-43.9,258-63.5,258-63.5s-35.1,27-22.9,105.9
			c2.7,17.2-0.8,23.9-2.6,26.8c-5.8,8.8-50.6-0.8-61.6-25.8c-7.7-17.7,36.9-32.6,36.9-32.6s-20.6-22.7-56.5-30
			c-22.6-4.6-57.6-3.2-94.4,28.7C35.1,28.3,30.6,92.1,30.6,92.1s26.9,49.2,79.2,91.7c-10.3,6.8-18.2,18.2-20.2,22.7
			c105.4,45.4,119.9,109.6,239,181.4C384.1,421.3,442.5,454.3,513.5,486"/>
		<g>
			<path d="M793.8,264.3c4.2-0.9,21.6-4,31.2-8C788.8,197.5,680.5,82.2,620,77.4c-0.7,10.1-4.6,18.8-9.4,24.7
				c-22.7-41.5-92.1-67-120.8-60.3c35,128.1-113.4,79.3-124.7,44.1C335.5-5.4,260.5-48.3,260.5-48.3s-24,27.3-13.7,88.8
				c7.6,45.3-21.1,43.9-21.1,43.9c-11.4,0.5-54.8-4.7-68.5-35c-11-24.4,27.6-41.5,27.6-41.5S129.1-36.7,64.6,18.5
				C48.8,32,42.9,89.2,42.9,89.2c31,51.4,71.9,84.2,88.9,96.3c-18,6.9-23.6,16.2-23.6,16.2c86.6,39.7,120.6,105.8,194.4,154.8
				c81.3,54.1,143.5,80.6,143.5,80.6l-23.5-29.6c0,0,19.7,8.4,28.2,12.6c77.4,38,208.5,79.4,208.5,79.4l-40.9-39.6
				c0,0,67.8,23.2,153.2,41.5c45.5,9.7,140.5,29.7,140.5,29.7s-22.3-65.6-69.8-132.3c28.7,2,59.5,3.7,59.5,3.7
				S868.8,335.9,793.8,264.3"/>
			<path d="M441.5,353.3c-1-0.3-1.9-0.7-2.9-1c0.8,0.3,1.7,0.6,2.6,0.9C441.3,353.2,441.4,353.3,441.5,353.3"/>
			<path d="M438.1,352.1c0.2,0.1,0.3,0.1,0.5,0.2C438.4,352.2,438.3,352.2,438.1,352.1"/>
		</g>
		<path class="st2" d="M540.2,198.7c0,0-41.4,20.1-106.8-1.2c0,0,90.1,53.4,204.2,30.7c-74,24.9-140.7,13.1-180-0.2
			c-23.1-8.9-36.8-16.3-36.8-16.3s5.8,4.2,16.6,10.6c26.7,19.7,63.4,40.9,99.7,55.9c25.2,10.4,75.4,23.8,95.8,25
			c0,0-52.5,8.9-100.4-3.2c0,0,75.8,29.6,149.4,31.2c24.6,0.6,81-2.4,81-2.4c-81.3,24.1-165.6,28.9-223.1,20.1
			c-32.7-8.1-58.5-16.2-58.5-16.2s4.5,2.3,13.2,6c20.8,12.3,105.9,58.1,264.2,82.8c0,0-20.2,2.4-45,2.4c-25.3,0-75.1-8.5-75.1-8.5
			c36,16.5,104,32.4,188,40.5c0,0-128.4,15.2-283.7-33.5c-1.3-0.6-2.1-0.9-2.1-0.9s16.4,11.9,34.9,24.2
			c13.6,9.1,33.4,23.2,33.4,23.2s-79.7-19.1-187.6-70.3c-30.4-14.4-46.5-23-46.5-23c4.7,5.4,26.3,24.4,31.6,31.1
			c-80.1-39.3-109.3-65.3-156.9-115.7c-42.5-45-40.5-52.9-105-87.7c0,0,47.5-19.5,95.6,11.8c8.3,5.4,16.2,13,23.6,21
			c17,19.7,11.4,40,34,54.5c-3.2-7.5-8.5-17-9-26.8c10.8,14.9,32.3,34.6,56.1,48.9c60.7,36.2,100.9,42.4,100.9,42.4
			c-1.6-0.5-3.1-1.1-4.6-1.6c-82.9-34.5-96.5-79.5-96.9-84.3c-0.9-10.2,30,12.6,55.2,15.7c-26.6-9.4-49.3-32-60.4-58
			c-4.7-11-6.1-23.6-19.2-33.5c-3.7-3.4-8.5-6.7-15-9.6c-17.4-7.9-29.5-3.9-33.6-1.2c-2.5,1.6-4,4.4-4,4.4
			c8.4-2.4,19.9-0.3,30.4,6.3c7.7,4.9,13.5,11.3,16.6,17.9l0,0c1.7,3.5,4.8,10.3,0.2,19c-2.4,4.4-7.2,6.8-12.8,7.7
			c0.3,0.9,3.3,8.3,12.4,19.2c-12.4-8.9-20.4-19.6-24.5-24.4c5.8-0.7,10.9-3.4,13.7-8.1c5.6-9.3,0.4-22.6-11.6-29.8
			s-26.2-5.4-31.8,3.9c-0.7,1.2-1.2,2.4-1.6,3.7c-0.6-0.4-1.3-0.7-1.9-1.1c-3.8-1.9-11.3-5.2-11.3-5.2c3.6-0.8,8.4-1.2,11.4-0.6
			c1-13.1,9.2-34.3,55.5-22.3c-13.2-13-45-12.1-64.3-2c2.6-2,5.7-4,9.3-6.3c58-36,124.8-2.1,141.1,7.3c4,2.6,8,4.9,12.1,6.9
			c0,0-16.9-14.9-28.4-38C402,166.6,461,208.3,540.2,198.7"/>
		<path class="st3" d="M328.1,255.9c2.2-8.6,17.1,0.3,17.1,0.3s-20.1-17-28.2-35.4c0-1,0-4.7-2.6-9.9c2-0.5,4-0.7,5.7-0.6
			c5.2,0.6,11.3,4.2,11.3,4.2s0.1-10.9-11.5-21.5c13.1,9.8,14.5,22.4,19.2,33.5c11,26.1,33.8,48.7,60.4,58
			c-25.2-3.1-56.1-25.8-55.2-15.7c0.4,4.7,14,49.8,96.9,84.3c-0.9-0.3-2.9-1-3-1.1C362.1,323.7,322.2,278.7,328.1,255.9"/>
		<path class="st1" d="M296.4,221.1c3.9-6.6,0-16.1-8.8-21.4c-8.8-5.2-19.1-4.2-23.1,2.4c-0.6,1-1,2.1-1.2,3.2
			c-1.7-1.2-3.4-2.3-5.2-3.3c0.4-1.3,0.9-2.5,1.6-3.7c5.6-9.3,19.8-11,31.8-3.9s17.2,20.5,11.6,29.8c-2.8,4.7-7.9,7.4-13.7,8.1
			c-1.3-1.7-2.8-3.6-4.5-5.6C289.9,226.7,294.2,224.8,296.4,221.1"/>
		<path d="M287.7,199.7c8.8,5.2,12.7,14.8,8.8,21.4c-2.2,3.7-6.5,5.6-11.4,5.7c-3.4-4.2-7.4-8.8-12-13.3c-0.2-3.7,0.6-8.4,5.2-11.9
			c0,0-5.2-0.4-8.6,2.1c-1.9,1.4-2.8,3.1-3.1,4.1c-1-0.8-2.1-1.6-3.1-2.4c0.2-1.1,0.6-2.2,1.2-3.2
			C268.6,195.5,278.9,194.5,287.7,199.7"/>
		<path class="st0" d="M269.7,203.6c3.4-2.5,8.6-2.1,8.6-2.1c-4.6,3.5-5.4,8.2-5.2,11.9c-2.1-2-4.2-3.9-6.5-5.7
			C266.9,206.7,267.7,205.1,269.7,203.6"/>
		<g>
			<path class="st3" d="M762.9,328.8c0,0-56.4,3-81,2.4c-73.6-1.6-149.4-31.2-149.4-31.2c47.9,12.1,100.4,3.2,100.4,3.2
				c-20.4-1.2-70.6-14.6-95.8-25c-36.3-14.9-73-36.2-99.7-55.9c42.8,25.4,164.4,85,318.8,52.1c0,0,10.1,7.8,37,37.2
				c28.5,31.2,34.6,50.5,34.6,50.5s-131.1,14.1-226-0.5c-20.5-3.1-42.5-8-62.1-12.8C597.3,357.7,681.6,352.9,762.9,328.8"/>
			<path class="st3" d="M460.5,173.2c107.1,26.6,181.6-5.6,190.5-39.5c0,0,0.4,0.2,1.1,0.6c4.3,2.4,21,9.5,46,34.1
				c26.3,25.9,42.8,46.7,49.3,60.7c-109.6,54.9-230.5,21.9-289.8-1c39.3,13.2,106,25.1,180,0.2c-114.1,22.7-204.2-30.7-204.2-30.7
				c65.3,21.4,106.8,1.2,106.8,1.2c-79.2,9.6-138.3-32.1-158.6-58.1c-1.6-3.2-3-6.5-4.3-10C395.6,148,415.2,162,460.5,173.2"/>
			<path class="st3" d="M826.5,455.8c-84-8.1-151.9-24.1-188-40.5c0,0,49.8,8.5,75.1,8.5c24.8,0,45-2.4,45-2.4
				c-158.3-24.7-243.5-70.5-264.2-82.8c21,8.9,66.6,26.1,131.8,39c61.5,12.2,133,15.2,161.8,18.1c41,39.6,57.1,89.7,57.1,89.7
				s-71.5-5.8-152.6-20.8c-84.3-15.7-138.8-37.7-149.7-42.3C698.2,471,826.5,455.8,826.5,455.8"/>
			<path class="st3" d="M400.2,130.2c0,0,27,20.3,72.8,12.9c67.8-10.9,65.8-53.6,65.8-53.6s30.5,13.1,45.9,40
				c0,0-19.1,18.3-53.8,24.4C440.8,169.9,400.2,130.2,400.2,130.2"/>
			<path class="st3" d="M186.8,147.5c-6.7-2-21.2-4-14.3,6.3c0,0,8.7,4.7,20.4,10.7c5-4.1,10.2-7,23.8-8.3
				C216.7,156.3,192.2,149.2,186.8,147.5L186.8,147.5z M214.9,179.5c-17.4-5.3-39.5-3.8-51.7-0.5c-14-9.7-64.6-31.3-96.8-85.8
				c1.7-18.5,3.6-42.1,11.2-55c30.9-48.9,85-30.8,85-30.8s-82.1,36.4,5.7,89.5c28,17,105.5,29.7,151.8,14.8c3.9-1.4,8.8-4.9,8.5-5.8
				c-4.8-23.5-24.2-89.4-56.4-108.2c-17.8,26,29.2,85.6-18.7,87.9c0,0,11.9-18.5,6.8-43.3c-2.3-10.9-9.7-40,3.6-70.1
				c0,0,72.8,43.5,94.4,144c2.8,9.9,4.7,18.3,9,25.9C273.6,105.4,214.9,179.5,214.9,179.5"/>
		</g>
		<path d="M172.5,153.8c-6.9-10.3,7.6-8.3,14.3-6.3c5.4,1.6,29.9,8.7,29.9,8.7c-13.6,1.3-18.8,4.2-23.8,8.3
			C181.2,158.5,172.5,153.8,172.5,153.8"/>
	</g>
</g>
</svg>
