<?xml version="1.0" encoding="utf-8"?>
<!-- Generator: Adobe Illustrator 21.1.0, SVG Export Plug-In . SVG Version: 6.00 Build 0)  -->
<!DOCTYPE svg PUBLIC "-//W3C//DTD SVG 1.1//EN" "http://www.w3.org/Graphics/SVG/1.1/DTD/svg11.dtd">
<svg version="1.1"
	 id="Layer_1" xmlns:cc="http://creativecommons.org/ns#" xmlns:dc="http://purl.org/dc/elements/1.1/" xmlns:rdf="http://www.w3.org/1999/02/22-rdf-syntax-ns#"
	 xmlns="http://www.w3.org/2000/svg" xmlns:xlink="http://www.w3.org/1999/xlink" x="0px" y="0px" width="300px" height="300px"
	 viewBox="0 0 300 300" style="enable-background:new 0 0 300 300;" xml:space="preserve">
<style type="text/css">
	.st0{fill:#A5ACAF;}
	.st1{fill:#FFFFFF;}
	.st2{fill:#EEAD1E;}
	.st3{fill:#C60C30;}
	.st4{fill:#00539B;}
</style>
<g>
	<path d="M0,150c0,82.7,67.3,150,150,150s150-67.3,150-150S232.7,0,150,0S0,67.3,0,150"/>
	<path class="st0" d="M150,296.7c81,0,146.7-65.7,146.7-146.7C296.7,69,231,3.3,150,3.3C69,3.3,3.3,69,3.3,150
		C3.3,231,69,296.7,150,296.7"/>
	<path class="st1" d="M150,272.7c67.6,0,122.4-54.8,122.4-122.4S217.6,28,150,28C82.4,28,27.6,82.8,27.6,150.4S82.4,272.7,150,272.7
		"/>
	<path class="st2" d="M150.6,150.5c1.4-50.1,48.8-61.9,60.7-60.8c-29.3-1.6-58.3-14-60.5-60.4c-3.5,43.1-20.8,55.4-60.7,60.5
		C118.6,91.3,147.4,102.6,150.6,150.5"/>
	<path class="st3" d="M211.5,212.6c1.4-50.1,47.9-62.5,59.8-61.4c-29.4-1.1-57.8-15.1-60-61.4c-3.5,43.1-20.8,55.7-60.7,60.8
		C179.1,152,208.2,164.6,211.5,212.6"/>
	<path class="st4" d="M151.4,272.2c1.4-50.1,48.2-60.7,60.1-59.7c-29.3-1.6-58.6-15.7-60.8-62c-3.5,43.1-20.3,56.1-60.2,61.2
		C118.9,213.2,148.1,224.3,151.4,272.2"/>
	<path d="M51.7,132c-1.2,0-2.3,0.3-3.4,0.7c-1.3,0.6-2.2,1.6-2.9,2.8c-0.6,1.2-1,2.1-1.1,3.4c-0.2,2.8,1.2,5.8,3.9,7.4
		c1.9,1.2,3.2,1.3,4.8,2.8c0.8,0.8,0.8,2.9,0.5,3.3c-0.8,1.4-2.8,0.9-3.2,0.3c-0.5-0.5-0.7-2.4-0.6-3.1l-5.3,0
		c-0.2,2.3,0,3.7,0.7,5.3c0.7,1.6,1.7,2.2,3,2.8c2.8,1.3,6.6,1.2,9.3-1.3c0.7-0.6,0.9-1.4,0.9-1.4c0.6-1.5,1.4-3.3,0.9-6.1
		c-0.2-1.3-0.8-2.4-1.1-2.8c-1-1.4-1.7-2-4.3-3.3c0.1,0-0.8-0.4-0.8-0.4c-2.8-0.9-3.9-2.6-3-4.4c0.5-1,2.3-1.4,3-0.7
		c0.5,0.5,0.7,1.5,0.7,2.3l1.8,0H59c0.1-2.3-0.4-3.6-0.9-4.5C56.7,133.1,54.3,132,51.7,132L51.7,132z M96.4,132.5v25.9h5v-25.9
		L96.4,132.5L96.4,132.5z M66.6,135.4l-4.9,2.7v1.7l-1.9,0.1l0,4.2l1.8-0.1l0,9.7c0,5.2,4.5,4.4,6.8,4.4l0-5.5c-2,0-1.8-0.4-1.8-1.4
		v-7.2l1.9,0l0-4.3l-1.9,0L66.6,135.4L66.6,135.4z M132,139.6c-0.8,0-1.7,0.2-2.5,0.6c-0.7,0.4-1.3,0.3-2.5,1.8
		c-0.6,0.7-0.8,1.8-0.8,2.8c-0.1,2,0.5,4.6,3.2,5.3c1.5,0.4,3.2,0.6,4,1.8c0.4,0.7,0.3,0.9,0.1,1.5c-0.3,0.7-1.9,0.7-2.5,0.5
		c-0.6-0.2-1-1-1-1.6l-4.1,0c0.1,1.6,0.1,2.6,0.7,3.7c0.6,1.1,1.8,2,2.9,2.3c2.2,0.7,4.6,0.6,6.5-0.6c0.3-0.2,1.3-1,1.6-1.7
		c0.6-1.1,1-2.6,0.4-4.5c-0.3-0.9-0.3-1-0.5-1.3c-1-1.9-2.2-2.2-3.5-2.7c0,0-1.2-0.3-1.2-0.3c-2.3-0.3-2.4-1.6-2.1-2.4
		c0.3-0.7,0.8-1,1.6-1c0.6,0,1.3,0.5,1.4,0.9c0.1,0.3,0.1,0.7,0.1,1.2l4.3,0c0-1.7-0.3-3.4-1.3-4.3
		C135.7,140.3,133.8,139.6,132,139.6L132,139.6z M124.1,139.7c-1.6,0.4-2.1,1.1-2.8,2.4l0-2.3l-4.8,0.1v18.4h4.9v-10.6
		c0.1-1.1-0.2-2.5,3.9-2.3v-5.6L124.1,139.7L124.1,139.7z M75.7,139.8c-1,0-2.1,0.2-3.4,0.8c-1.6,1.1-2.6,2.5-2.5,4.2v9
		c0.1,2.2,1.1,3.8,3,4.5c1.5,0.3,3.1,0.8,5.7,0c2.4-0.8,3-2.4,3-3.8l0-2.2l-4,0v0.5c-0.1,2.1-3.7,1.7-3.7,0.1l0-2.5h7.7v-5.7
		c0-1.9-0.9-3.2-2.9-4.3C77.6,140.1,76.7,139.9,75.7,139.8L75.7,139.8z M89.1,139.8c-1,0-2.1,0.2-3.4,0.8c-1.6,1.1-2.6,2.5-2.5,4.2
		v9c0.1,2.2,1.1,3.8,3,4.5c1.5,0.3,3.1,0.8,5.7,0c2.4-0.8,3-2.4,3-3.8l0-2.2l-4,0v0.5c-0.1,2.1-3.7,1.7-3.7,0.1l0-2.5h7.7v-5.7
		c0-1.9-0.9-3.2-2.9-4.3C91,140.1,90.1,139.9,89.1,139.8L89.1,139.8z M108.8,139.8c-1,0-2.1,0.2-3.4,0.8c-1.6,1.1-2.6,2.5-2.5,4.2v9
		c0.1,2.2,1.1,3.8,3,4.5c1.5,0.3,3.1,0.8,5.7,0c2.4-0.8,3-2.4,3-3.8l0-2.2l-4,0v0.5c-0.1,2.1-3.7,1.7-3.7,0.1l0-2.5h7.8v-5.7
		c0-1.9-0.9-3.2-2.9-4.3C110.7,140.1,109.8,139.9,108.8,139.8L108.8,139.8z M75.6,144.1c1.2-0.1,2.4,0.9,2,2.6l-3.7,0
		C73.6,144.9,74.6,144.1,75.6,144.1L75.6,144.1z M89,144.1c1.2-0.1,2.4,0.9,2,2.6l-3.7,0C87.1,144.9,88,144.1,89,144.1L89,144.1z
		 M108.8,144.1c1.2-0.1,2.4,0.9,2,2.6l-3.7,0C106.8,144.9,107.7,144.1,108.8,144.1L108.8,144.1z"/>
</g>
</svg>
