<?xml version="1.0" encoding="utf-8"?>
<!-- Generator: Adobe Illustrator 21.1.0, SVG Export Plug-In . SVG Version: 6.00 Build 0)  -->
<!DOCTYPE svg PUBLIC "-//W3C//DTD SVG 1.1//EN" "http://www.w3.org/Graphics/SVG/1.1/DTD/svg11.dtd">
<svg version="1.1"
	 id="Layer_1" xmlns:cc="http://creativecommons.org/ns#" xmlns:dc="http://purl.org/dc/elements/1.1/" xmlns:rdf="http://www.w3.org/1999/02/22-rdf-syntax-ns#"
	 xmlns="http://www.w3.org/2000/svg" xmlns:xlink="http://www.w3.org/1999/xlink" x="0px" y="0px" width="310px" height="147.3px"
	 viewBox="0 0 310 147.3" style="enable-background:new 0 0 310 147.3;" xml:space="preserve">
<style type="text/css">
	.st0{fill:#FFFFFF;}
	.st1{fill:#002244;}
	.st2{fill:#69BE28;}
	.st3{fill:#A5ACAF;}
</style>
<g transform="translate(-293.62 -494.36)">
	<g>
		<path class="st0" d="M543.3,633c0.1-0.1,6-7,8-13.5c0.3-0.9,0.2-1.3,0.2-1.3c-0.3-0.4-1.5-0.8-1.9-0.8l-0.2,0l-0.2,0
			c-12.7-2.5-29.8-3.4-38.2-3.4H330.5c-12,0-25.5,0-33-11.5c-8.1-12.5-2.4-24.7,7.2-42c0.9-1.6,23.1-43.4,31.7-59.4l3.5-6.6l4.8,5.8
			c0,0,2.9,3.5,5.6,5.7c1.9,1.5,4,2.7,11.9,2.7c12.2,0,76.3-0.1,103.7-0.2c6.8,0,11,0,11.2,0c20.4,0,41.2,2.1,55.7,16.6
			c8.3,1,29.1,4.1,46.7,12.6c12,5.8,19.9,14.4,22.8,25.1c0.9,3.3,1.4,6.6,1.4,10.1c0,9.8-3.5,20.3-10.5,31.3
			c-12.7,19.9-24.7,28.5-28.1,30.7c-8.7,6.1-17.4,6.5-17.8,6.6l-11.6,0.5L543.3,633z"/>
		<path class="st0" d="M550.1,612.3c-13.7-2.7-31.6-3.5-39.2-3.5H330.5c-11.2,0-22.8,0-28.8-9.2c-6-9.3-2.8-18.5,7.4-36.8
			c0.8-1.4,31.7-59.5,31.7-59.5s3.2,3.9,6.3,6.4c3.1,2.5,6.4,3.8,15,3.8c15.3,0,113.9-0.2,114.9-0.2c20,0,40.2,2.1,53.4,16.4
			c6.8,0.7,28.8,3.6,46.9,12.3c10.6,5.1,17.6,12.6,20.2,21.9c0.8,2.8,1.2,5.7,1.2,8.8c0,8.8-3.3,18.5-9.7,28.6
			c-13.6,21.3-26.1,28.8-26.7,29.2c-7.7,5.4-15.2,5.7-15.2,5.7s6.7-7.7,9-15.3C558.4,613.2,550.1,612.3,550.1,612.3L550.1,612.3z"/>
		<path class="st1" d="M342.3,511.7l-24.1,45.2h62.7c19.7,0,20.7-2,33.8-11.6c13.9-10.2,25-13.9,38.1-13.9s21.8,3,36.4,9.4
			c14.6,6.5,22.4,9.6,31.1,5.9c0,0-6.9,9.2-27.6,0.5c-20.7-8.7-26.3-10.5-38.8-10.5c-12.4,0-26.6,6-44.4,23.7l21.2,17.1
			c0,0-4.9,7.6-8.1,12.4c-3.2,4.8-2.9,8.1-1.2,10.4c1.7,2.4,3.9,3.4,11.7,3.4c7.9,0,70.8-0.1,77.8-0.1c6.1,0,25.3,0.6,40.2,3.6
			c19.9,4,7,20.7,7,20.7s13.3-8.7,26.5-29.4c14.7-23,11.1-41.9-9.6-51.7c-20.6-9.9-47.1-12-47.1-12c-11.6-14.1-31.1-16.2-50.9-16.2
			c0,0-99.5,0.2-114.9,0.2C344.1,518.8,342.3,511.7,342.3,511.7L342.3,511.7z"/>
		<path class="st0" d="M537.3,542.9c-13.5,2.7-18.5,13.7-19.7,16.8c-0.2,0.4-0.4,0.8-0.7,1.3c-7.5,15-14.2,14.2-26.9,14.2h-21.9
			c-17.7,0-25.9,8.8-34.4,23.7h10c9.1-13.6,16-17.3,34.1-18.3c41.3,0,74.2,11.9,91.6,20.9c24.7-41.5-12-48.4-30.7-51
			C529.2,548.3,537.3,542.9,537.3,542.9z M459.1,545.2c-14.7,0.5-25.1,11.5-25.1,11.5c12.1,12,20.1,13.2,31.1,13.2h20.4
			c19,0,23.6-8.6,25.3-12.4c-3.3,0.4-6.2,0.4-9,0l0,0c-4.9,6.8-11.3,9.1-29.5,7.9c-21.2-1.4-15.7-10.4-13.2-14.7H459
			c0.7-1.2,1.8-3.4,3-5.5C461.1,545.1,460.1,545.1,459.1,545.2z M483.7,585.3c-12.5,0-23.3,2.2-29.7,13.5h7.8c4.6-7,14-9.3,29.1-8.5
			c37.3,2.2,58.8,9.4,75.5,15.7C545.8,593.9,509.2,585.2,483.7,585.3z"/>
		<path class="st2" d="M472.4,547.5c-4.2,6.8-6.7,11.3,7.9,12.6c9.1,0.8,11.6-0.8,13.5-4c-0.4-0.1-0.8-0.3-1.2-0.4
			c-0.4-0.2-0.8-0.3-1.2-0.5c-1.9,2-5.1,3.1-8.2,2.7c-4.1-0.5-6.5-3.5-5.3-6.6c0.2-0.5,0.4-0.9,0.7-1.3
			C476.6,549,474.4,548.2,472.4,547.5z"/>
		<path class="st3" d="M313.7,565.4c-10.8,19.4-11.6,25.3-7.6,31.5c4.1,6.4,12.1,6.8,24.4,6.8H414c-5.3-6.2-2.3-9.2,5.2-22.3
			c0,0-5.9-5-12.6-10.1c-6.6-5.1-9.8-5.8-22-5.8h-70.9V565.4z"/>
	</g>
</g>
</svg>
