<?xml version="1.0" encoding="utf-8"?>
<!-- Generator: Adobe Illustrator 21.1.0, SVG Export Plug-In . SVG Version: 6.00 Build 0)  -->
<!DOCTYPE svg PUBLIC "-//W3C//DTD SVG 1.1//EN" "http://www.w3.org/Graphics/SVG/1.1/DTD/svg11.dtd">
<svg version="1.1" id="Layer_1" xmlns="http://www.w3.org/2000/svg" xmlns:xlink="http://www.w3.org/1999/xlink" x="0px" y="0px"
	 width="502px" height="282px" viewBox="0 0 502 282" style="enable-background:new 0 0 502 282;" xml:space="preserve">
<style type="text/css">
	.st0{fill:#FFFFFF;}
	.st1{fill:#B3995D;}
	.st2{fill:#AA0000;}
</style>
<path class="st0" d="M251,282c-66.1,0-128.4-14.1-175.4-39.8C26.8,215.6,0,179.6,0,141c0-38.6,26.8-74.6,75.6-101.2
	C122.6,14.1,184.9,0,251,0s128.4,14.1,175.4,39.8C475.2,66.4,502,102.4,502,141c0,38.6-26.8,74.6-75.6,101.2
	C379.4,267.9,317.1,282,251,282z"/>
<ellipse class="st0" cx="251" cy="141" rx="230" ry="136"/>
<ellipse cx="250.5" cy="142" rx="223" ry="130"/>
<ellipse class="st1" cx="251.5" cy="143.5" rx="194.5" ry="120"/>
<ellipse class="st2" cx="252" cy="141.5" rx="179" ry="112"/>
<path d="M391.8,126.9h-0.5v-4.1h-3.6h-67.4c-1.5-8-6.1-15.4-12.7-21.2c-6.5-7.4-15.8-13-26.5-15.1l-4.4-0.9
	c-10.2-2.2-18.3-3.9-50.9-3.7c0,0-6.3-0.2-12.3-1c-1.5-0.4-2.9-0.9-4.1-1.4c0.4-2.7,5.4-6.4,11-7.2c0.6-0.1,35.8-6.6,72.1,16.9
	l0.9,0.6h23.8V53.3h-4.1v-4.1h-32.7c0,0-3.9,3-5.5,4.2c-9.4-2.4-55.6-12.5-95.4,5c-16.7,6.9-27.1,20-26.4,33.2
	c0.4,6.7,3.6,12.5,9.1,17c4.1,5.1,10.5,9,18.8,11.4c11.8,3.4,21.8,4.8,31.5,5.4v1.2v15.5h4.1v4.1h12.4c5.2,0,6.5,2.9,6.8,3.9
	c-15.9-1-40-5.6-57.8-22l-0.7-0.7h-0.1c-1-0.9-1.9-1.9-2.9-2.9l-1.1-1.2h-17.9v51.9h4.1v4.1h14.6c2.1,0.1,8.9-0.6,13.6-14.3
	c7.6,2.6,26.3,8.3,49.3,8.9v32.3c-0.8,10.8-24.7,14.2-33,14.6l-3.4,0.1v16.1h4.1v4.1h104.9v-15.4l-2.7-0.7c-0.5-0.1-0.9-0.2-1.4-0.4
	v-3.5l-3.3-0.3c-5.9-0.5-10.4-1.5-14-2.8c-6.6-3.7-7.7-6.7-7.9-7.2v-17.2h30.8c3.2,0.5,6,1.9,8.4,3.8c4.4,5.5,6.4,11.7,6.5,11.8
	l0.8,2.5l2.6,0h0.1c0.4,0.9,0.6,1.5,0.6,1.5l0.8,2.5h2.6h13.9v-62.5h-3.6h-0.5v-4.1h-3.6h-12.9l-0.6,2.9
	c-4.3,20.8-28.3,20.5-49.7,17.3c4.2-1.1,8.4-2.5,12.6-4.2c11.4-4.5,20-10.7,25.4-18h46.1c3.2,0.1,5.9,0.9,8.2,2.4
	c4.8,7.1,4.3,17.5,4.3,17.6l-0.2,3.8h3.8h0.5c0,0.2,0,0.3,0,0.3l-0.2,3.8l3.8,0h14.6v-48.4L391.8,126.9L391.8,126.9z"/>
<path class="st0" d="M318.3,139.7h38.2c21.8,0.7,20.2,27.9,20.2,27.9h11v-41.2h-65.9C321.9,126.4,321.7,135.6,318.3,139.7"/>
<path class="st0" d="M240.6,174.9v31.6c-1.1,16.6-36.5,18-36.5,18v9h97.8v-9c-29.1-2.5-29.2-17.3-29.2-17.3V186h34.7
	c15.9,2.3,22,22.2,22,22.2h10.3v-55.3h-9.9c-6.9,33.3-58,18.3-61.8,19.2C268,172,255.4,175.2,240.6,174.9"/>
<path class="st0" d="M271.1,120.4c13.3,3.9,14.5,14,6.7,23.5c-9.9,9.4-25.1,9.8-25.1,9.8s-51.1,5.5-81-26.8H159v44.8h11.2
	c0,0,6.8,1,11.2-15.4c0,0,52.5,21.4,102.4,1.5c48.4-19.2,30-61.3-3.3-67.9c-12.8-2.5-17.9-4.7-54.6-4.5c0,0-6.6-0.2-13.1-1.1
	c-20.2-5.1-8.7-18.1,3.1-19.7c0,0,36.5-7.2,74.5,17.5h19.2V52.8h-27.9l-5.9,4.5c0,0-51.8-14.5-94.8,4.4c-28.9,11.9-34.6,41.8-3,50.9
	c27.8,8,45.5,4.7,73.7,5.7C259.5,118.7,266.4,119,271.1,120.4"/>
<path class="st0" d="M229.4,138.6h-13.3v-11.9c10.3,0,31.2,0.1,46.1,0c14.9,0,16.9,8.6,10.6,14.5c-5.9,5.5-18.4,9.4-33.1,6.7
	C239.8,147.9,238.6,138.6,229.4,138.6"/>
</svg>
