<?xml version="1.0" encoding="utf-8"?>
<!-- Generator: Adobe Illustrator 21.1.0, SVG Export Plug-In . SVG Version: 6.00 Build 0)  -->
<!DOCTYPE svg PUBLIC "-//W3C//DTD SVG 1.1//EN" "http://www.w3.org/Graphics/SVG/1.1/DTD/svg11.dtd">
<svg version="1.1"
	 id="Layer_1" xmlns:cc="http://creativecommons.org/ns#" xmlns:dc="http://purl.org/dc/elements/1.1/" xmlns:rdf="http://www.w3.org/1999/02/22-rdf-syntax-ns#"
	 xmlns="http://www.w3.org/2000/svg" xmlns:xlink="http://www.w3.org/1999/xlink" x="0px" y="0px" width="317.2px" height="317.6px"
	 viewBox="0 0 317.2 317.6" style="enable-background:new 0 0 317.2 317.6;" xml:space="preserve">
<style type="text/css">
	.st0{fill:#FFFFFF;}
	.st1{fill:#B1BABF;}
	.st2{fill:#D50A0A;stroke:#D50A0A;}
	.st3{fill:#D71E25;}
	.st4{fill:#FF7900;stroke:#FF7900;}
</style>
<g transform="matrix(1.25 0 0 -1.25 -286.73 580)">
	<g transform="matrix(.25 0 0 .25 229.39 297)">
		<g>
			<path class="st0" d="M763.9-32.8c-9-13.7-80.1-115.4-85-122c-0.4,0.3-12.6,10.8-13,11.1C684-118.5,735.3-42,736.3-40.5
				c9.1,2.2,18.1,4.6,26.9,7.4C763.4-33,763.7-32.9,763.9-32.8"/>
			<path class="st1" d="M797.7-20.5c-12.8-20.4-83.1-126.3-99.8-150.3c-0.1,0.1-0.3,0.2-0.4,0.3c-2.4,2.2-5.6,4.9-9.1,7.8
				c5.7,8.1,70.7,104.7,89.7,134.7C784.9-25.7,791.3-23.2,797.7-20.5"/>
			<path class="st0" d="M615.1-209.9c-2.4-5.9-4.6-16-3.7-23.4c0.2-1.6,0.5-3.1,0.9-4.5l0,0c-5.6-25.5-16.3-25.9-19.2-25.6
				c-0.5,0.1-0.7,0.1-0.7,0.1c10.6,9.4,10.3,26.4,21.1,50.1C614-212.1,614.5-211,615.1-209.9C615.1-209.8,615.1-209.8,615.1-209.9"
				/>
			<path class="st1" d="M677.9-228c0.3-4.8-5.3-11.8-10.3-13.6c-3.6-1.5-8.4-2.2-13-2.2c-1.5,0-2.9,0.1-4.3,0.2
				c1.3,2.2,2.9,4.9,4.6,7.7c4,6.5,8.9,14,13.1,19.5c2.9-1.4,7.1-4.3,9-8.4C677.7-225.8,677.9-226.8,677.9-228"/>
			<path class="st1" d="M648.8-193.9c-3.6,3.3-5.9,6.9-7.4,10.4c0,0-13.7-17.9-25.9-44.7c0.3-1.3,0.7-2.6,1.3-3.7
				c3.8-8,7.1-10.2,13.7-9.8c0,0,15.5,26.5,26.5,40.6C654.8-199.3,652.1-196.9,648.8-193.9"/>
			<path class="st0" d="M641.5-183.5c-2.5,7.4-2,14.8-1.8,16.1c-0.2-0.3-0.4-0.6-0.6-0.9c-4.2-6.5-8.3-13-12.2-19.6
				c-3.8-6.4-11.1-20.6-11.4-21.2c0-0.3-1.8-10.9,0.1-19.1c0,0,0,0,0,0.1c0.1,0.2,0.2,0.4,0-0.1
				C627.8-201.4,641.5-183.5,641.5-183.5"/>
			<path class="st1" d="M709.9-214.3c-3.3,14.4-21.6,28.5-25.8,31.5c-9.1,8-32.5,26.3-34.7,30.2c-2.4,4.3-13.2,19-28,22
				c0,0-2.5,0.4-2.8-1.6c-0.2-1.2,0.3-2.3,2.1-2.7c1.7-0.5,7.2-1,13.3-6.8s8.3-13.3,8.2-19.7c-0.2-6.4,2.1-15.4,9.9-21.3
				c7.8-5.8,17-15.7,25.1-17.9c0.5-0.1,1-0.2,1.5-0.3c5.4-0.5,10.4,4.3,9.6,7.1c1.8-5.9,0.2-10.1-2.5-13.1c9-8.8,13.3-18.9,10.5-28
				c-3.6-11.7-16.6-27.3-40.4-27c-17,0.2-26.9,4.9-31.3,7.6c0,0,1.5,3.3,1.6,3.5c-9.9-2.4-13.6,12.3-13.7,13
				c-5.6-25.5-16.3-25.9-19.2-25.6c-0.5,0.1-0.7,0.1-0.7,0.1s2.1-8.3,10.4-12.3c-3.8,1.1-8-0.2-10.3-3.7c-2.8-4.2-1.6-9.9,2.6-12.7
				c4.2-2.8,9.9-1.6,12.8,2.6c2.8,4.2,1.6,9.9-2.6,12.7c-0.2,0.1-0.4,0.2-0.6,0.3c1.1-0.4,2.3-0.8,3.6-1c11.1-1.8,14.7,3.5,14.7,3.5
				s-0.7,1.5-1.3,3.7c0,0-10.9-7.7-23,4.5c0.4-0.1,4.4-1.5,11.3-0.4c10.3,1.5,11.7,4.7,12.4,5.3c0,0.1,0,0.2,0.1,0.3
				c8.9-4.8,18.7-7.1,32.6-7.4c15.7-0.3,30.6,4.6,39.4,12.3C703.3-247.8,713.8-231.5,709.9-214.3"/>
			<path class="st1" d="M600.8-348.2c-10.5,0-20.5,2.3-29.7,6.9c-21.6,10.7-40.3,36.7-33.5,70l-6.8,27.5l18.2,16.1
				c3.3,12.6,10.8,36.4,25.2,61.2c-3.5,4.7-6.2,10-8,15.6c-1.8,5.8-4.5,17.3-2.1,29c2.1,10.6,6.8,20.3,13.9,28
				c1,1.1,2.5,2.7,4.6,4.5c-9.5,0.9-18.6,2-27.5,3.5c-70.6,11.6-126.7,42.6-167.6,65.2c-11,6.1-20.5,11.3-28.6,15.2
				c-24.4,11.9-66.9,24.6-113.3,24.6c-20.6,0-40.8-2.5-59.9-7.3C119.4-4.8,74.9-66.5,74.4-67.1c-7.8-11.1-24.2-34-24.2-34L0-171.5
				l3.9,86.4C4-81.9,5.3-53.2,6.2-43l0.2,2c1.2,10.7,3,26.9,7.8,45.5c4,15.5,10.9,38.2,20.8,58.8c22.6,46.9,53.3,82.6,91.3,105.9
				c7.6,4.6,15.6,8.6,24.5,12.4c3.9,2.7,5.4,4,5.9,4.6c0.1,0.4,0.3,1.2,0.4,2.8c0.1,0.6,0,1,0,1.1c0,0-0.2,0.4-0.7,1
				c-6.4,6.6-15.8,8.1-22.6,8.1c-3.8,0-6.4-0.5-6.4-0.5l-82.7-19.1l57,59.5c-13.4,16.3-15,29-14.4,36.3l2.4,26.6l26.4-3.5
				c4.2-0.6,8.5-0.8,13-0.8c0.5,0,1,0,1.5,0l-46.6,36.1l71.4-1.3l-69.1,27.2l72.4,20.8c19.5,5.6,24,8.8,45.7,24
				c3.4,2.4,7.2,5.1,11.5,8c37.9,26.4,100.9,59.9,186.2,69.7c12.3,1.4,25.2,2.1,38.4,2.1c84.1,0,166.7-28.7,221.6-50.2
				c47.6-18.7,98.8-36,150.4-36c12.9,0,25.8,1.1,38.4,3.2c27.4,4.5,47.4,12.1,61,18.9c1.9,7.6,4.8,19.9,8.5,38
				c6.9,33.6,5,71.5,5,71.9L918.4,668l55-123.7c20.2-27.2,90.6-147.4-14.5-391.7C917.1,55.7,853-38.9,756.5-180.5
				c6.5-12.1,9.7-25.9,9.6-41.1l0-1c-0.7-38-22.3-62.9-35-74.3l-0.5-0.4c-19.3-16.5-44.8-25.4-73.8-25.6l-1,0
				c-0.9,0-2.4,0.1-4.3,0.2c-8.4-11.2-20.3-19.4-33.8-23.2C615.5-346.7,609.3-348.2,600.8-348.2z M599.4-285.2
				c0.4-0.1,0.9-0.2,1.3-0.3c0.2,0.1,0.5,0.3,0.8,0.7l3.8,10.8l11,4.6c0.5,0.2,0.8,0.4,1,0.5l9.5,13.7l16.8-4
				c2.4-0.4,9.9-0.8,13.2-0.9c13.3,0.1,25,3.8,32.8,10.3c5.1,4.7,13.4,14.5,13.7,28.4l0,0.5c0.1,5.6-0.9,12.9-9,19.6l-18.1,15
				l13.4,19.3c13.7,19.8,35.1,51,59,87.2c40.3,61.1,73.2,114.1,97.8,157.6l0.2,0.3c2,3.5,4.3,7.4,6.9,11.7
				c29.4,49.1,87.9,147.1,97.1,279.3c-28.5-16.2-57.6-26.6-86.3-30.9c-19.3-2.9-36.5-4.2-52.6-4.2c-45,0-78.9,10.8-125.8,25.8
				c-13.8,4.4-28.8,9.9-44.7,15.6c-58.2,21-130.6,47.1-203.2,47.1l-2.1,0c-62.7-0.4-113.3-19.6-157.5-46l0.8-8.1
				c12.6-3.8,18-12.7,20-17c2.5-5.6,4.6-14.7,0.3-26.3c-5.5-14.5-20.1-28.6-38.1-36.7c-4.1-1.8-8.5-3.6-13.2-5.2l23.8-22.7
				l-52.5-7.4c0,0-8.3-1.2-18.2-4.5c16.8-16.2,22.1-33.8,23.4-47c2.7-27.3-10.8-53.2-25.3-66.7l-4.5-4.2l-6.3-1.8
				c-17.3-5-64.9-24.5-95.9-92.8c21.7,15.2,47.8,29.1,77.5,36.7c24.1,6.1,49.5,9.3,75.5,9.3c69.8,0,121.7-21.6,140.8-31
				c9.6-4.7,20.2-10.5,31.5-16.7C457,12.7,505.7-14.2,565.3-24c17.8-3,37.2-4.5,57.7-4.5c27.8,0,57.4,2.8,85.4,8.2l57.1,11L735-58.8
				c-1.6-2.7-42.3-63.1-59.2-86.6l-20.2-28.2l-6,8l-4.5-7c-10.8-16.6-19.1-31.3-24.7-43.6c-4-8.8-6.4-16.7-8.5-23.7
				c-0.6-2.1-1.2-4-1.8-5.8c-2.5-8.6-5.3-14.7-8.8-19.2l3.4-8.3l-5.6-10.6l-0.1-0.5C598.9-284.7,599.2-285,599.4-285.2z"/>
			<path class="st1" d="M769.7-94c-21.8-32.9-42.5-63.3-59.3-87.6c19.5-16.1,18.3-36.4,18.3-40.3c-0.4-21.6-11.9-37.7-22.4-47.2
				c-13.1-11.2-31-16.6-49.9-16.7c-0.6,0-14.1,0.4-18.7,1.5c-2-2.9-5.8-6.5-12.1-9c-0.7-2-1.6-4-2.9-5.8
				c-5.2-7.7-13.7-12.1-22.4-12.1c0,0-8.8,0.3-14.9,4.5c-7.8,5.2-12.1,13.7-12.1,22.5v0.2c0,4.2,1,8.4,3,12.2
				c-0.9,2.2-4.1,15-4.1,15l8.3,7.3c0.7,0.4,2.7,3.5,5,11.4c2.5,7.7,5.4,19.2,11.5,32.6c7.8,17,18.6,34.6,26.5,46.8
				c-0.8,3.9-4.9,5.7-7.8,6.4c-3.3,0.9-7.4,2.8-10.6,6.6c-3.4,4-6,9.5-4.5,16.7c1.4,7.1,5.9,12.2,11.1,14.6l0,0
				c5.9,3.1,13.2,1.6,13.2,1.6c17.3-1.6,30.1-17.7,30.1-17.7c17.3,24.1,57.4,83.8,58.2,85.1c-52.6-10.1-107-11.4-152.1-3.9
				C479-35.7,415.9,8,375.1,27.9c-40.8,19.9-118.5,40.3-198.7,19.9c-80.1-20.4-133-94.2-133-94.2c23.9,168.6,128.4,197,138.4,199.9
				c15.2,14.2,35.2,57.7-12.1,87.1c-16.1,10-29.7,22.7-29.7,22.7c9.9-1.2,33.1,1.9,46,7c15.5,6.1,29.7,8.1,29.7,8.1
				c-12.2,11.6-30.9,17.5-30.9,17.5c18.6,1.2,47.8,7.6,65.8,15.7s27.9,22.7,25,29.1s-19.2,2.9-19.2,2.9c5.8,8.7,19.8,12.2,19.8,12.2
				c-40.2,2.3-69.4-19.5-69.4-19.5c4.5,9.6,19.1,26.8,19.1,26.8c-5.6-1.8-21-6.7-22-7c62.9,48.6,133.1,91.3,231.5,91.9
				c98.4,0.7,194.2-43.4,258-63.9c63.9-20.4,97.8-30.8,166.8-20.6c33,4.9,61.9,18.4,83.1,31.1c0,0,14.8,37.7,16,91.8
				c0,0,17.8-31.9,17.8-81.5c0.2-170.2-82.3-294.5-108.7-339.8C843.3,20.7,810.2-32.6,769.7-94L769.7-94z M951.1,531.2
				c0,0,2.2-40.9-5.5-78.4c-7.5-36.2-11.6-50-11.6-50c-15.8-9.3-41.4-20.7-78.8-26.9c-69.8-11.6-133.2,7.1-202.4,34.3
				S491,466.6,405.1,456.7c-83.3-9.6-142.9-43.3-174.5-65.3c-31.7-22-37.5-27.8-64.7-35.6c0,0,21.3-8.4,32.3-8.4
				c0,0-5.2-21.4-3.2-28.5c0,0,45.3,20.7,50.4,11c5.2-9.7-16.2-16.2-31-20c-14.9-3.9-53.7-3.2-53.7-3.2s18.2-14.1,24.6-23.9
				c0,0-34.3-14.9-72.5-9.8c0,0-1.3-14.1,30.1-37.3c-6.7-2.4-15.1-6.3-20.4-11.9c0,0,32.9,6.8,53.5-16.2c5.4-6.8,7.2-12.9,6.6-20.6
				c-1.1-14-6.5-19.3-19.6-28c-7.5-3.1-15.5-6.9-23.3-11.6c-36.3-22.3-62.9-56.3-81.6-95.2C50,35.4,43.6,15.8,39-1.9
				c-4.6-17.8-6.2-33.6-7.3-43.5c-0.9-9.8-2.3-40.9-2.3-40.9s16.3,22.8,24,33.8C61-41.6,109.2,19,179.5,36.6
				c22.5,5.7,44.8,8.1,66.2,8.1c51.4,0,97.3-13.9,124.5-27.2c39.4-19.1,104.2-64.2,189.2-78.2c20-3.3,41.6-4.9,63.9-4.9
				c21.4,0,43.6,1.6,65.8,4.6c-12.5-18.7-24.5-36.2-36-52.4c-11.6,11-27.3,12.2-27.3,12.2c-19.1,1.8-28.6-9.8-28.6-9.8
				c-3.9-4.2-6.7-9.6-7.9-16c-1.3-5.9,0.3-12.8,1.4-16.3c3.6-11.5,13.5-16.8,17.3-18.5c-27.8-37.1-35.9-79.8-35.9-79.8l-12.7-11.2
				l4.6-18.6c-7.1-22.8,4-39.9,18.4-47c14.6-7.2,28.3-3,28.3-3c8.6,2.4,16.4,7.8,21.7,15.8c0.8,1.2,1.5,2.4,2.2,3.7
				c3,1.6,5.5,3.4,7.7,5.3c4-0.5,14.3-0.8,14.3-0.8c21.1,0.2,41.7,6.1,57.4,19.5c12.4,11.1,26,29.9,26.5,55.7
				c0,4.8,0.9,24.4-15.2,41.4c101.8,149.4,167.8,245.6,210,343.5C1046.8,422.1,951.5,530.3,951.1,531.2"/>
			<path d="M615.7-228c0,0,0-0.1-0.1-0.1c0,0,0,0,0-0.1L615.7-228L615.7-228z M818.9,5.9c-44.8-20.9-148.1-55.5-251-36.3
				c-35.8,6.7-82.9,17.9-145.3,55.7c-40.9,24.8-85,48.4-188,48c-85.3-0.4-140-39.1-157.5-53.4c46.3,150.9,183,128.9,183,128.9
				c-25,12-54.9,7.4-54.9,7.4c42.8,67.4-26.2,99-26.2,99c5.8,0,32,7.6,45.4,12.2c13.4,4.6,38,7.9,38,7.9
				c-8.6,7.9-35.1,14.2-35.1,14.2c25,0,47.7,12.1,63.5,28.6c5.5,5.7,20.5,34.3,3.5,45.4c-15.7,10.2-46.8-1.1-46.8-1.1
				s93.2,100.4,285.4,57.5c91.2-20.4,194-73.8,288.9-74.3c31.9-0.2,102.3,10.2,144.3,52.4C963.9,317.5,948.9,205,818.9,5.9
				L818.9,5.9z M697.9-170.8c-0.1,0.1-0.3,0.2-0.4,0.3c-2.4,2.2-5.6,4.9-9.1,7.8c5.7,8.1,70.7,104.7,89.7,134.7
				c6.7,2.4,13.1,4.9,19.5,7.6C784.8-40.9,714.5-146.8,697.9-170.8L697.9-170.8z M694.5-255.4c-8.8-7.7-23.8-12.6-39.4-12.3
				c-14,0.3-23.8,2.5-32.6,7.4c0-0.1-0.1-0.2-0.1-0.3c-0.7-0.6-2.1-3.8-12.4-5.3c-6.9-1.1-10.9,0.3-11.3,0.4
				c12.1-12.2,23-4.5,23-4.5c0.5-2.1,1.3-3.7,1.3-3.7s-3.6-5.3-14.7-3.5c-1.3,0.2-2.5,0.6-3.6,1c0.2-0.1,0.4-0.2,0.6-0.3
				c4.2-2.8,5.4-8.5,2.6-12.7c-2.8-4.2-8.5-5.4-12.8-2.6c-4.2,2.8-5.4,8.5-2.6,12.7c2.3,3.5,6.5,4.8,10.3,3.7
				c-8.3,4-10.4,12.3-10.4,12.3c10.6,9.4,10.3,26.4,21.1,50.1c0.5,1.1,1,2.2,1.6,3.3v-0.1c-2.4-5.9-4.6-16-3.7-23.4
				c0.2-1.6,0.5-3.1,0.9-4.5l0,0c0.2-0.7,3.8-15.4,13.7-13c-0.1-0.2-1.5-3.5-1.6-3.5c4.3-2.7,14.3-7.4,31.3-7.6
				c23.8-0.3,36.8,15.4,40.4,27c2.8,9.1-1.5,19.1-10.5,28c2.6,3,4.2,7.3,2.5,13.1c0.8-2.7-4.3-7.5-9.6-7.1c-0.5,0-1,0.1-1.5,0.3
				c-8.1,2.3-17.3,12.1-25.1,17.9c-7.8,5.8-10,14.9-9.9,21.3c0.1,6.4-2.1,14-8.2,19.7c-6,5.8-11.5,6.3-13.2,6.8
				c-1.8,0.5-2.3,1.6-2.1,2.7c0.4,1.9,2.8,1.6,2.8,1.6c14.8-3,25.7-17.6,28-22c2.2-4,25.6-22.2,34.7-30.2
				c4.2-3.1,22.5-17.1,25.8-31.5C713.7-231.5,703.3-247.8,694.5-255.4L694.5-255.4z M668.1-216.3c2.9-1.4,7.1-4.3,9-8.4
				c0.5-1.1,0.8-2.1,0.8-3.3c0.3-4.8-5.3-11.8-10.3-13.6c-3.6-1.5-8.4-2.2-13-2.2c-1.5,0-2.9,0.1-4.3,0.2c1.3,2.2,2.9,4.9,4.6,7.7
				C659-229.4,663.9-221.9,668.1-216.3L668.1-216.3z M626.9-187.9c3.9,6.6,8,13.2,12.2,19.6c0.2,0.3,0.4,0.6,0.6,0.9
				c-0.2-1.4-0.7-8.8,1.8-16.1c1.4-3.5,3.7-7.1,7.4-10.4c3.2-3,5.9-5.4,8.2-7.3c-10.9-14.2-26.5-40.6-26.5-40.6
				c-6.6-0.4-10,1.8-13.7,9.8c-0.5,1.1-1,2.4-1.3,3.7l0,0c-2,8.2-0.2,18.9-0.1,19.1C615.7-208.5,623.1-194.3,626.9-187.9
				L626.9-187.9z M736.2-40.4c9.1,2.2,18.1,4.6,26.9,7.4c0.3,0.1,0.5,0.2,0.8,0.3c-9-13.7-80.1-115.4-85-122
				c-0.4,0.3-12.6,10.8-13,11.1C684-118.5,735.2-42,736.2-40.4L736.2-40.4z M959.3,486.5c-1.1-54.1-16-91.8-16-91.8
				c-21.2-12.7-50.1-26.2-83.1-31.1c-69-10.2-102.9,0.1-166.8,20.6c-63.9,20.4-159.7,64.5-258,63.9c-98.4-0.6-168.6-43.3-231.5-91.9
				c1,0.3,16.4,5.1,22,7c0,0-14.7-17.2-19.1-26.8c0,0,29.3,21.9,69.4,19.5c0,0-14-3.5-19.8-12.2c0,0,16.3,3.5,19.2-2.9
				s-7-21-25-29.1c-18-8.2-47.2-14.6-65.8-15.7c0,0,18.7-5.8,30.9-17.5c0,0-14.2-2-29.7-8.1c-12.9-5.1-36.1-8.2-46-7
				c0,0,13.6-12.7,29.7-22.7c47.3-29.3,27.3-72.8,12.1-87.1c-10-2.8-114.5-31.3-138.4-199.9c0,0,52.9,73.8,133.1,94.2
				s157.9,0,198.7-19.9s103.9-63.6,186-77.2c45.1-7.5,99.5-6.1,152.1,3.9c-0.8-1.3-41-61-58.2-85.1c0,0-12.8,16.1-30.1,17.7
				c0,0-7.3,1.5-13.2-1.6l0,0c-5.2-2.4-9.6-7.5-11.1-14.6c-1.5-7.2,1.1-12.8,4.5-16.7c3.2-3.8,7.3-5.7,10.6-6.6
				c2.9-0.7,7-2.5,7.8-6.4c-7.9-12.2-18.7-29.8-26.5-46.8c-6.1-13.4-9.1-24.9-11.5-32.6c-2.3-7.9-4.4-11-5-11.4l-8.3-7.3
				c0,0,3.2-12.9,4.1-15c-2-3.8-3-8.1-3-12.2v-0.2c0-8.7,4.3-17.3,12.1-22.5c6.1-4.2,14.9-4.5,14.9-4.5c8.7,0,17.3,4.3,22.4,12.1
				c1.2,1.9,2.2,3.9,2.9,5.8c6.3,2.5,10.1,6.1,12.1,9c4.6-1.1,18.2-1.5,18.7-1.5c18.9,0.1,36.8,5.6,49.9,16.7
				c10.5,9.4,22,25.6,22.4,47.2c0,3.9,1.2,24.2-18.3,40.3c16.9,24.4,37.6,54.7,59.3,87.7c40.5,61.4,73.6,114.7,98.8,159.2
				C895,110.7,977.5,235,977.3,405.2C977.1,454.7,959.3,486.5,959.3,486.5L959.3,486.5z M615.6-228.1
				C615.6-228.2,615.6-228.2,615.6-228.1L615.6-228.1C615.6-228,615.7-228,615.6-228.1C615.7-228,615.6-228.1,615.6-228.1"/>
			<path class="st2" d="M751.3,115.4c-46-32.5-118-42.5-118-42.5c-0.8-3.1-5.6-6.4-5.6-6.4s7.4-2.7,25.5-16.3s13.2-12.9,19-16.8
				c5.8-3.9,9.1-2.8,9.1-2.8c1.7-3.5,2-8.7,2-8.7c2.4-2.3,14.2-13.5,3.2-25.2s-23.7-0.8-23.7-0.8c-4.5-0.9-8.9,0.5-8.9,0.5
				s-23.5-14.8-46.8,1.3c-19,13.1-17.8,28.6-16.7,34c-6.4-3.7-13.3-6.5-20.3-8.8c-19-6-43.3-8.4-67.5-0.4
				c-15.8,5.3-29,14.6-39.3,24.8c-10.4,10.3-18,21.6-23,31.8c-0.8,1.6-1.5,3.1-2.1,4.6c-1.7-4-9.6-19-34.2-17.9
				C375.7,67,365.9,93,365.9,93s-4.4,1.5-7.4,4.9c0,0-16.6-1-18.4,14.9c-1.7,15.9,14.5,17.8,17.8,18.1c0,0,3.3,4,6.8,5.8
				c0,0,2-2.9,8.9-3.2c6.9-0.4,2.6,2.1,25.3,2c22.6,0,30.2-2.3,30.2-2.3s-1.8,5.5-0.6,8.5c0,0-51.4,51.4-68.5,105.1
				s-11.8,73.6,8.9,130.3c0,0,15.4-96.5,62.5-157.1c26.9-34.6,57.2-61.6,78.2-78.4c0.5,0,1,0,1.4,0c-4.5,5-7.9,10.9-9.6,17.6
				c-4.2,16.6-11.1,32-14.3,44.3c-3.2,12.3,3.9,36.9,3.9,36.9c-9.4,15.1-4.8,40.1-4.8,40.1s5.1,2.4,9,7.2c3.9,4.7,2.5,18.7,5.7,39.3
				c3.2,20.6,16.6,41.9,46.2,54c29.5,12.1,73.9-3.8,74.3-3.9c0.4-0.1,45.3-14.2,61.6-41.7c16.4-27.6,14.2-52.7,4.3-71
				s-19.4-28.7-19.2-34.8c0.2-6.1,2.9-11.1,2.9-11.1s-11.3-22.7-28-29.1c0,0-9.2-23.9-19.2-31.8c-9.9-7.9-24.7-16-38.1-26.8
				c-5.3-4.2-11.3-6.8-17.8-8.2c0.4-0.3,0.8-0.6,1.3-0.9c26.9,0.7,67.1,4,109.2,15.3c74.2,20,144.6,87.7,144.6,87.7
				C805.1,167,797.2,147.9,751.3,115.4L751.3,115.4z M821.8,345.4c-94.9,0.6-197.7,54-288.9,74.3c-192.2,42.9-285.3-57.5-285.4-57.5
				c0,0,31.1,11.3,46.8,1.1c17.1-11.1,2-39.7-3.5-45.4c-15.8-16.4-38.4-28.6-63.5-28.6c0,0,26.5-6.4,35.1-14.2c0,0-24.6-3.2-38-7.9
				C211,262.5,184.8,255,179,255c0,0,69-31.6,26.2-99c0,0,30,4.6,54.9-7.4c0,0-136.8,22.1-183-128.9c17.4,14.4,72.2,53,157.5,53.4
				c102.9,0.5,147.1-23.2,188-48c62.3-37.8,109.5-49,145.3-55.7c102.9-19.2,206.3,15.4,251,36.3c130,199.2,144.9,311.6,147.2,392
				C924.1,355.6,853.7,345.2,821.8,345.4"/>
		</g>
		<g>
			<path d="M582.1,219.8l1.1,3.3c1.1,3.3-1.4,4.8-1.5,10.2c-0.2,2.8-0.4,5.5,0.7,8.7c0.9,2.6-0.6,5.5-3.3,6.7
				c-0.2,0.1-0.4,0.2-0.6,0.2c-0.2,0.1-0.3,0.1-0.5,0.1c-2.9,0.7-5.9-0.7-6.7-3.3c-1.1-3.2-2.9-5.3-4.7-7.4
				c-3.4-4.2-6.3-3.9-7.4-7.3l-1.1-3.3c-0.6-1.9,0-3.9,1.4-5.3c0.7-0.7,1.5-1.3,2.5-1.6c3.1-1,6.3,0.4,7.3,3.2
				c0.2,0.5,0.7,0.7,1.2,0.6c0.5-0.2,0.8-0.7,0.6-1.2c-0.9-2.8,0.8-5.9,3.8-6.9c1-0.3,2-0.3,2.9-0.2
				C579.7,216.7,581.4,217.9,582.1,219.8"/>
			<path d="M595.8,252.8c0-3.7,1.3-17.8,7.5-21.5l0,0c0,0,0.1,0,0.1-0.1c6.2-4.2,19.1-6.2,25.2-5.5c0.8,0.1,2.3,0.6,2.4,0.6l0,0
				c2.7,1.5,5.1,2.7,7.4,5c2.9,3.1,5.3,6.8,7,10.7c0.7,1.7,1.3,3.5,1.8,5.3c0,0,1.3,6,3.8,6.9c0.3,0,0.5,0.1,0.8,0.1h0.2v0.1
				c0,0-7.9,2-16.8,1c-0.9-0.1-1.7-0.2-2.6-0.4c-10-1.8-19.3-3.3-25.7-1.2c-2.1,0.7-3.9,1.9-5.5,3.2l-0.1,0.1
				c-0.4,0.4-0.8,0.7-1.2,1.1l0,0c-2.1,2-3.5,4-3.8,4.4c0,0.1-0.1,0.2-0.1,0.2C596.2,262.5,595.8,256.4,595.8,252.8"/>
			<path d="M523.7,296.9c1.5-2.2-1.1-7.8-1.1-7.8c-0.7-1.6-1.2-3.3-1.6-5c-1.5-5.8-2-12.9,0.3-18.6c0.1-0.2,1.6-2.8,1.5-2.9
				c-0.1-0.1-0.3-0.2-0.4-0.3c0.2,0.1,0.3,0.2,0.4,0.3c0,0,0.9-1.3,1.5-1.9c4.4-4.3,15.9-10.5,23.4-10.9c0.1,0,0.1,0,0.2,0
				c7.2-0.8,16.6,9.7,18.9,12.7c2.2,2.9,5.6,8.1,5.6,8.1s-2.6-0.9-5.9-1.3l0,0c-0.5-0.1-1-0.1-1.6-0.1h-0.1c-2-0.1-4.2,0.1-6.3,0.8
				c-6.4,2.1-12.9,9-19.8,16.4c-0.6,0.6-1.2,1.2-1.8,1.8c-6.3,6-13.5,9.2-14,9.3l0.1-0.1l0,0C523.3,297.3,523.5,297.1,523.7,296.9"
				/>
		</g>
		<g>
			<path class="st1" d="M540.9,137C540.9,137,541,137,540.9,137c0.1,0,0.1,0,0.1,0c3.9-1.3,7.5-2.3,11.4-2.7
				c3.9-0.4,7.9-0.3,12.6,0.5c9.5,1.7,20.3,11.4,24.4,14.3c4.1,2.9,19.5,13.1,23,15.5c3.5,2.5,6.4,4.5,10,10.6s9.7,20.2,9.7,20.2
				s-5.8,1.2-7.8,1.4c0,0,0-0.1-0.1-0.2c-0.9-1.5-7.8-13.8-10.3-16.4c0,0-0.1,0-0.2,0c1.5-0.9,5.9-3.6,6.7-6.9
				c0,0-7.4-6.8-16.5-10.8s-22.9-12.7-28.4-16.4c-2.1-1.4-4.9-2.6-8.4-3.2c-2.2,3.9-9.9,8.8-19.7,12.1c-10.3,3.5-19.7,4.1-23.6,2
				c-2.8,2.9-4.5,5.8-5.4,8.3c-2.1,6.2-7.9,21.5-12.8,30.2s-6.7,18.6-6.7,18.6c3.1,2.6,10.1,1.4,10.1,1.4c-0.1,0.5-0.1,1.1-0.1,1.9
				c0.1,5.2,1.5,15.9,1.7,17.4c0,0.1,0,0.2,0,0.2c-1.7,1-7,3.6-7,3.6s0-0.1,0-0.2c-0.4-1.7-3.7-15.2-4.4-21.8
				c-0.8-7,0.3-10.4,1.6-14.5c1.3-4.1,7.5-21.5,9-26.3c0.2-0.6,0.4-1.3,0.6-2.2c1.6-6,4.5-17.7,10.2-23.9
				C526.9,142.8,533.2,139.6,540.9,137"/>
			<path class="st1" d="M561.9,292.2c6.9-8,17.8-18,24.4-20.1c6.5-2.3,21.2-0.9,31.6,1.3c10.4,1.7,25.9-0.1,25.9,0.2
				c-6.4,7.9-28.1,5.7-40.4,5.1c-10.6-0.8-13.8,0.7-14.5,1c-0.7,0.2-4.2,0.9-12.2,7.9c-9.4,7.8-25.4,22.7-35.2,20.3
				C541.4,307.7,554.7,299.8,561.9,292.2"/>
			<path class="st1" d="M521.3,254.6c-0.3,0.4-3.5,5,0.6,7.4c0.2,0.1,0.3,0.2,0.5,0.3c0.2,0.1,0.3,0.2,0.4,0.3
				c0.1,0.1-1.4,2.7-1.5,2.9c-2.4,5.7-1.8,12.9-0.3,18.6c0.4,1.7,1,3.3,1.6,5c0,0,2.6,5.6,1.1,7.8c-0.2,0.2-0.4,0.4-0.6,0.6l0,0
				l-0.1,0.1c0,0-8.1-14.8-8.8-22.5C513.5,267.4,513,260.2,521.3,254.6"/>
			<path class="st1" d="M548,249.9c0,0,0.1-2.4-5-5.8c0,0,8.2-2.6,14.4,0.8s14.4,18.9,24.8,15.5c10.4-3.6,7.5-20.9,10.4-27.4
				c2.8-6.3,10.5-9.1,11-9.3c-2,5.8-0.4,7.6-0.4,7.6l0,0c-6.2,3.7-7.4,17.8-7.5,21.5c0,3.6,0.4,9.7,0.4,9.8
				c-4.6-2.4-21.6,3.3-23.8,8c0,0-3.4-5.2-5.6-8.1C564.6,259.6,555.1,249.1,548,249.9"/>
			<path class="st1" d="M651,254.2c-2.5-0.9-3.8-6.9-3.8-6.9c-0.5-1.8-1.1-3.6-1.8-5.3c-1.7-3.9-4-7.6-7-10.7
				c-2.2-2.3-4.6-3.5-7.4-5c0.1-0.4,0.2-0.7,0.3-1c1.9-4.6-4-6.3-4-6.3c10.1-0.6,14,5.5,18.1,12.1c4.1,6.5,6.5,23.2,6.5,23.2h-0.2
				C651.5,254.3,651.3,254.2,651,254.2"/>
			<path class="st1" d="M511.5,240.9c4-1.7,7.9-3.6,11.7-5.7c5.7-3.2,11.7-7,14.1-13.4c0-0.1,0-0.1,0.1-0.2c0.6-1.6,0.7-3.6,0.3-5.3
				c0,0.2-0.1,0.5-0.2,0.8c-0.5,1-1.4,1.7-2,2.7c0,0,0,0-0.1,0.1c-1.3,1.4-2.6,2.8-4.2,3.9v-0.1v0.1c0,0-1.2-4.3-3.1-7.4
				c-1.1-1.8-2.3-3.8-3.5-6.6v-0.1c-2.4-6.2,0.4-12.8,1-12.8c0.8-0.1,2.4,0.7,5.5,9.4c0.1,0.2,0.2,0.6,0.3,1.1
				c0.1,0.4-0.1,1.2-0.2,1.8c0,0,0,0,0,0.1c0.4,1.4,2.2,1.3,3.3,1.2c0.4,0,0.8-0.1,1.2-0.2c0.7,1.7,1.6,4.1,2,6.1
				c1.3,4.8,1.1,11.7-4.5,18.1c-5.6,6.4-20.1,11.2-25.5,13.9c-5.4,2.7-10.3,15.8-9.7,24.9c0,0-0.5-5-0.5-10.1c0-2,0.1-4.1,0.3-5.8
				c0.1-0.9,0.3-1.7,0.5-2.3C499.7,249.4,499.9,246,511.5,240.9"/>
			<path class="st1" d="M591.9,189.4c0.4-0.2,1.1-0.5,1.3-0.9c0.6-0.8,0.8-1.2,0.8-1.2c-0.6-0.1-1.1-0.2-1.7-0.3
				c-0.3,0-1.7-0.5-1.7-0.9c-2.8-8.9-1.9-10.4-1.3-10.8c0.6-0.4,6.7,3.2,8.6,9.6c0,0,1,5.4,1.2,7.5c0.4,3.4,1.8,7.3,2,7.8l0,0v0.1
				c-6.3,0.3-9.8-2.2-9.8-2.2s-1.8-3.1-2.3-7.3C589,190.7,591.4,189.7,591.9,189.4"/>
			<path class="st1" d="M634.9,205.4c-6,1.1-20.4,6-28.8,4.3c-6.9-1.4-11-5.3-13.3-9.2c0,0,0,0.1,0.1,0.1c0,0,0.1,0,0.1,0.1
				c4.6,5.3,13,5.1,19.4,4.3c5-0.6,9.9-1.7,14.7-2.8c12.4-2.9,14.6-0.3,19,3c3.8,2.9,7,7.3,9.3,11.5c0.1,0.1,0.1,0.1,0.1,0.2
				C650,210.2,640.2,204.4,634.9,205.4"/>
			<path class="st1" d="M584.2,231L584.2,231v0.1c-0.2,2.7-0.4,4.8,0.5,7.4c1.3,4-1.1,8.5-5.6,10.3c2.7-1.2,4.2-4.1,3.3-6.7
				c-1.1-3.2-0.9-5.9-0.7-8.7c0.1-5.4,2.6-6.9,1.5-10.2l-1.1-3.3c-0.6-1.9-2.4-3.1-4.4-3.4v-0.1c-1.1-3.1-4.3-3.9-4.3-3.9l0,0
				c4.8-1.6,9.9,0.5,11.3,4.7l1,3.1c0.8,2.3,0.2,4.5-0.4,5.9C584.8,227.6,584.3,228.8,584.2,231"/>
			<path class="st1" d="M558,227.9l1.1,3.3c1.1,3.3,4,3,7.4,7.3c1.8,2.1,3.7,4.1,4.7,7.4c0.9,2.6,3.8,4.1,6.7,3.3
				c-4.7,1.3-9.4-0.8-10.8-4.8c-0.8-2.6-2.3-4.1-4.1-6.1l0,0l-0.1-0.1c-1.4-1.7-2.5-2.3-3.8-3.2c-1.3-0.8-3.1-2.2-3.9-4.5l-1.1-3.1
				c-1.4-4.2,1.4-8.9,6.2-10.5c0,0-2.1,2.6-1,5.7v0.1C558.1,224,557.4,226,558,227.9"/>
		</g>
		<g>
			<path class="st0" d="M498.9,214.1c0,0,1.8-9.9,6.7-18.6c4.8-8.7,10.6-24,12.8-30.2c0.9-2.5,2.6-5.4,5.4-8.3
				c3.9,2.1,13.3,1.5,23.6-2c9.8-3.3,17.5-8.2,19.7-12.1c3.5,0.7,6.3,1.8,8.4,3.2c5.4,3.6,19.3,12.3,28.4,16.4
				c9.1,4,16.5,10.8,16.5,10.8c-0.7,3.3-5.2,6-6.7,6.9c-0.9-0.2-4.5-0.9-6.3-2.2c-2.1-1.5-9.6-12.7-19.4-16.9
				c0.9,5.5-2.6,8.4-3.6,8.3c-0.9-0.1-1.6-2.3-1.8-2.8c-0.2-0.6-2.1-4.3-2.7-6c-0.6-1.8-0.5-1.9-0.5-1.9c-1.6,0-3.2,0.1-4.7,0.3
				c1.5,2.8,2.8,5.7,4.1,8.5c0.9,2.3-1.6,2.9-1.6,2.9l0,0c-1.4,0.2-2.8,0.5-4.2,0.7c-0.1,0-0.1,0-0.2,0c-1.8,0.3-2.8-0.8-3-1.5
				c-0.2-0.4-0.3-0.9-0.5-1.3c-0.6-1.6-1.3-3.1-2-4.6c0-0.1-0.1-0.2-0.1-0.3c-0.8-2-0.1-3.6-0.1-3.6c-0.5,0-1.9,0-4,0.4
				c-1,0.2-2.4,0.8-2.4,0.8c0.8,0.6,1.2,1.8,1.2,1.8l0,0c1.4,3.4,3.6,8.7,3.6,8.7s0.9,2.3-0.6,2.7c-2,0.5-4,1.1-6,1.7
				c-1.5,0.3-2.2-0.9-2.3-1.3c-0.3-0.8-0.8-2-1-2.6c-0.8-2.2-1.5-4.4-2.3-6.5v-0.1c-0.5-1.4-0.1-2.7-0.1-2.7s-1.9,0.4-3,0.7
				c-1,0.3-2.6,1.3-2.6,1.3c0.2,0.3,0.5,0.9,0.8,1.4c0.9,3.2,1.8,7.3,2.6,10.7c0.1,0.5,0.1,1.9-1.4,2.5c-1.7,0.6-3.4,1.3-5.1,2
				c-1.5,0.5-2.1-0.8-2.4-1.5c-0.7-3.1-1.5-6.7-2-9.4c-0.2-1.9,0.6-3.2,0.6-3.2c-0.8,0.2-2.4,0.9-3.6,1.4c-0.8,0.4-2.7,1.6-2.7,1.6
				c0.9,0.1,1.5,2.1,1.5,2.1c1.1,2.2,1.8,4.1,2.6,6.2c0,0.1,0.1,0.2,0.1,0.3c0,0.1,0,0.1,0.1,0.2c0.8,2.2-0.7,3.4-1,3.6
				c-2.2,1.1-4.7,2.4-4.7,2.4c-1.3,0.7-2.1-0.2-2.4-1.1c-0.9-2.5-2.2-4.7-2.7-7.4c-0.2-1.5-0.1-2.6-0.1-2.6c-3,1.4-4.1,3.7-4.1,3.7
				c0.7,0.9,1.7,3.9,1.7,6.7c0,2.8,0.2,5.5-1.1,6.4s-3.5-1.4-4.7-3.1c-1.1-1.7-1.4-2.7-1.4-2.7v-0.2c-5.3,9.3-4.6,22.8-5.3,25.2
				c-0.7,2.5-3.9,5.7-3.9,5.7S502,216.7,498.9,214.1"/>
			<path class="st0" d="M578.5,249c0.2-0.1,0.4-0.1,0.6-0.2C578.9,248.8,578.7,248.9,578.5,249"/>
			<path class="st1" d="M724,129l-0.4-0.3c0,0-50.7-30.2-127.6-35.7c2.5-3.7,4.6-7.3,6.5-10.8c23.9,1.3,48.2,4.7,71.1,11
				c14.6,4.1,29.1,9.2,42.8,15.7c13.8,6.5,27.4,14.3,39.3,24c7.8,6.3,15.1,13.1,21.8,20.5c9.2,10.2,17.6,22.4,22.2,35.5l0.4,1.1
				C799.6,189.1,784.9,155.5,724,129"/>
			<path class="st0" d="M582.7,109.4c3.1-3.2,5.9-6.4,8.5-9.7c0,0,8.2,0.6,9.3,0.7c14.1,1.2,28.2,2.9,42.2,5.4
				c34.5,6.2,60.6,15,73,19.7c2.9,1.1,5.7,2.3,8.4,3.5c60.9,26.4,75.6,60.1,76,61c-0.1-0.1-2.5-2.2-6.4-5.3
				c-1.7-1.4-3.5-2.9-5.6-4.5c-22.9-18.1-70.7-50.6-148.4-64.6C620.6,112.1,601.4,110.3,582.7,109.4"/>
			<path class="st3" d="M594.1,51.2c-15.7-9.9-50.9-19.1-84.7-7.8c-33.2,11.2-55.3,39.5-62.3,56.8c-0.8,1.8-1,6.6,3.8,8.9
				c0,0-3.1-0.4-5.8-2.7c0,0-0.2-0.4-0.5-1.1c-3.7-11.1,18.8-58.3,61.3-72.6s88.5,8.5,92.7,20.9c0.3,0.9,0.3,1.6,0.3,1.6
				c-1,3-2.8,4.9-2.8,4.9C598.4,55.7,596,52.5,594.1,51.2"/>
			<path class="st4" d="M561.9,81.5c0-0.5-0.1-1.1-0.1-1.6c-1.4,0.7-2.8,1.4-4.3,2.1c-0.5-3.2-1.3-6.4-2.4-9.5
				c-2.1,1.2-4.3,2.4-6.5,3.6c1,3,1.7,6,2.3,9c-2.3,1.1-4.7,2.1-7.2,3.1c-0.6-2.9-1.4-5.8-2.3-8.6c-2.2,1-4.5,2-6.8,3
				c0.9,2.8,1.7,5.6,2.4,8.4c-2.4,0.9-4.8,1.8-7.3,2.7c-0.8-2.7-1.7-5.4-2.6-8.2c-2.3,0.8-4.6,1.6-7,2.3c0.9,2.7,1.9,5.4,2.8,8.1
				c-2.5,0.8-5,1.5-7.4,2.2c-1.1-2.7-2.1-5.4-3.1-8.1c-2.4,0.6-4.8,1.2-7.2,1.7c1,2.8,2.1,5.6,3.3,8.3c-2.6,0.7-5.1,1.3-7.6,1.8
				c-1.4-2.8-2.6-5.6-3.6-8.5c-2.4,0.4-4.9,0.8-7.3,1.1c1,3.1,2.3,6.1,3.8,8.9c-1.6,0.3-3.1,0.6-4.7,0.9c0.3,0.5,0.7,1,1,1.5
				c-14.4,2.6-27.5,3.6-38.1,3.7c8.8,1.9,23.8,2.9,41.5,0.8c0.1,0.2,0.3,0.3,0.4,0.5c1.3-0.2,2.7-0.3,4.1-0.5
				c1.2,1.8,2.5,3.5,3.9,5.1c2.3-0.3,4.5-0.6,6.7-1c-1.2-1.7-2.4-3.5-3.6-5.3c2.4-0.4,4.9-0.9,7.4-1.5c1,1.9,2.1,3.7,3.2,5.4
				c2.1-0.4,4.1-0.9,6.2-1.4c-0.9-1.8-1.8-3.7-2.7-5.6c2.3-0.6,4.6-1.3,7-2c0.7,2,1.5,3.9,2.2,5.8c2-0.6,3.9-1.3,5.8-2
				c-0.6-2-1.1-3.9-1.7-5.9c2.3-0.8,4.6-1.7,6.8-2.6c0.4,2,0.8,4.1,1.2,6.1c1.9-0.8,3.9-1.7,5.8-2.6c-0.2-2-0.5-4.1-0.8-6.2
				c2.3-1,4.6-2.1,6.8-3.2c0.2,2.1,0.3,4.2,0.3,6.2c2-1,4-2.1,6-3.2c0.1-2.1,0.1-4.2,0-6.3c1.2-0.7,2.4-1.3,3.6-2c0-0.3,0-0.7,0-1
				c14.9-8.7,26-18.2,31.7-24.9C585.4,68.2,574.6,75,561.9,81.5L561.9,81.5z M537.2,126.2c-39.2,13.1-81.7-6.3-91-18.1
				c-0.4-0.5-0.7-1-1-1.5c0-0.1-0.1-0.2-0.1-0.2c2.8,2.3,5.8,2.7,5.8,2.7c-4.9-2.2-4.6-7.1-3.8-8.9c7.1-17.3,29.1-45.7,62.3-56.8
				c33.8-11.3,69-2.2,84.7,7.8c1.8,1.3,4.3,4.6,1.9,9c0,0,1.8-1.9,2.8-4.9c0.4,2.9-0.2,7.1-1.9,12C590.7,86,569.6,115.3,537.2,126.2
				"/>
			<path d="M452.2,109.3c10.6-0.1,23.7-1.2,38.1-3.7c1.1,1.5,2.2,3,3.3,4.5C475.9,112.2,460.9,111.3,452.2,109.3"/>
			<path d="M562,87c0-1.8,0-3.7-0.1-5.5c12.7-6.5,23.5-13.3,31.8-19.4C588.1,68.9,576.9,78.3,562,87"/>
			<path class="st0" d="M562,87c0,0.3,0,0.7,0,1c-1.2,0.7-2.3,1.3-3.6,2c0.1,2.1,0.1,4.2,0,6.3c-2,1.1-4,2.2-6,3.2
				c0-2.1-0.1-4.2-0.3-6.2c-2.2,1.1-4.5,2.2-6.8,3.2c0.3,2.1,0.6,4.1,0.8,6.2c-1.9,0.9-3.9,1.8-5.8,2.6c-0.4-2-0.8-4-1.2-6.1
				c-2.2,0.9-4.5,1.8-6.8,2.6c0.6,2,1.2,4,1.7,5.9c-1.9,0.7-3.9,1.3-5.8,2c-0.7-1.9-1.5-3.8-2.2-5.8c-2.3,0.7-4.7,1.4-7,2
				c0.9,1.9,1.8,3.8,2.7,5.6c-2,0.5-4.1,1-6.2,1.4c-1.1-1.8-2.1-3.6-3.2-5.4c-2.5,0.6-4.9,1.1-7.4,1.5c1.1,1.8,2.3,3.6,3.6,5.3
				c-2.2,0.4-4.4,0.7-6.7,1c-1.4-1.7-2.7-3.4-3.9-5.1c-1.4,0.2-2.7,0.4-4.1,0.5c-0.1-0.2-0.3-0.3-0.4-0.5c-1.2-1.4-2.3-2.9-3.3-4.5
				c-0.3-0.5-0.7-1-1-1.5c1.5-0.3,3.1-0.6,4.7-0.9c-1.5-2.9-2.8-5.8-3.8-8.9c2.4-0.3,4.9-0.7,7.3-1.1c1,2.9,2.2,5.8,3.6,8.5
				c2.5-0.6,5.1-1.2,7.6-1.8c-1.2-2.7-2.3-5.4-3.3-8.3c2.4-0.5,4.8-1.1,7.2-1.7c1,2.8,2,5.5,3.1,8.1c2.5-0.7,4.9-1.4,7.4-2.2
				c-1-2.7-1.9-5.4-2.8-8.1c2.4-0.7,4.7-1.5,7-2.3c0.9,2.7,1.8,5.5,2.6,8.2c2.5-0.9,4.9-1.8,7.3-2.7c-0.7-2.8-1.5-5.6-2.4-8.4
				c2.3-0.9,4.5-1.9,6.8-3c0.9,2.9,1.7,5.8,2.3,8.6c2.4-1,4.8-2.1,7.2-3.1c-0.6-3-1.3-6.1-2.3-9c2.2-1.1,4.4-2.3,6.5-3.6
				c1.1,3.1,1.9,6.3,2.4,9.5c1.4-0.7,2.9-1.4,4.3-2.1c0,0.5,0.1,1.1,0.1,1.6C562,83.3,562.1,85.2,562,87"/>
			<path class="st0" d="M390.4,240.3l2.2-3.9c1.4-2.3,3.2-5.4,5.5-9.2c11.1-17.7,25.8-36.8,45.4-56.6c0.1-0.1,24.5-24.2,35-33.4
				c4,1.1,8.3,2,12.7,2.7c-14.5,12-28.9,25.2-41.9,39.4c-66.2,71.7-78.8,138.4-83.1,156.3C366.2,335.6,359.9,296.2,390.4,240.3"/>
		</g>
		<g>
			<path class="st1" d="M452.1,136.1c0.7-0.6,6.5-6.4,7-6.1c3.6,1.7,7.5,3.3,11.7,4.7c-58.4,50.9-80.6,105.8-80.6,105.8l0.2-0.3
				c-30.5,55.9-24.2,95.2-24.2,95.2l-0.4-1.1c-2.6-7.5-3.5-15.8-3.9-23.7c-0.7-13.4,0.5-26.8,3.4-39.9c3-13.9,7.8-27.3,13.7-40.2
				c6-13.2,13.5-25.8,21.8-37.7c10.2-14.7,21.9-28.4,34.5-41C440.7,146.5,446.3,141.2,452.1,136.1"/>
			<path class="st1" d="M392.6,236.4l-2.2,3.9C391.1,239,391.9,237.7,392.6,236.4"/>
			<path class="st1" d="M384.1,114.2c-0.5-1.1-0.9-2-0.8-2.8c0-1.1,0.6-2.2,1.1-2.9c0,0,18.1-1,29.5-4.1c0.5,1.6,1,3.6,1.8,6
				c0.5,1.5,1.1,2.8,1.9,4l-0.1-0.1C412.6,115.1,393.9,115.4,384.1,114.2"/>
		</g>
		<g>
			<path class="st0" d="M384.1,114.2c9.9,1.2,28.6,0.9,33.3,0.1l0.1,0.1c2.7,4.3,6.8,6.2,9.7,7.2c-4.9,0.8-10.6,1.4-15.6,1.9
				c-2.4,0.2-4.9,0.4-7.4,0.5c-1.6,0.1-3.1,0.1-4.7,0.2c-3.2-0.6-6.9-1.8-9.5-3.5C387,118.7,385.1,116.3,384.1,114.2"/>
			<path class="st0" d="M379.9,113.9c0.1,0.1,0.5,0.9,0.6,1c1.1,2.1,3.4,4.2,5.5,5.4c0,0,0,0,0.1,0c3.7,2.2,9.4,3.5,13,3.7
				c0.1,0-1.3,0-2,0c-4.5,0-9-0.5-13.5-1.1c-3.9-0.5-7.7-1.2-11.4-1.2c-1.2,0-2.3,0.1-3.4,0.3c0,0,0,0-0.1,0c0,0,0,0,0.1,0
				c-1,0.2-2,0.5-3,0.9C365.9,122.9,368,113.9,379.9,113.9"/>
			<path class="st1" d="M440.4,141.2c-0.6-0.2-1.1-0.7-0.9-1.7s1.2-4-0.3-8.6c-1.5-4.6-5-7.5-8.3-9c-3.4-1.5-7.5-4.8-8.7-10.3
				s-4.1-12.7-3.3-17.4c0.3-1.8,2.1-4.3,6.2-4.1c-2.8-2.3-5.5-2.2-7.6-1.2c-3.4-6.3-8.6-8.9-17.9-7.1c-9.6,1.9-21.7,11-24.2,26.5
				c0,0.3,4.6,0.3,5,0.3h0.1c-0.6,0.7-1.2,1.8-1.2,3c0,0.6,0.3,1.5,0.7,2.4c-11.9,0-14,9-14.1,9.2c0,0-3.8-3-3.9-8.2
				c-0.4,2.1-2.1,3.9-4.4,4.2c-2.9,0.4-5.6-1.5-6-4.4s1.6-5.6,4.4-6c2.9-0.4,5.6,1.5,6,4.4c0,0.1,0,0.1,0,0.2
				c0.1-0.6,0.2-1.3,0.4-1.9c0.5-1.8,1.2-3.1,1.9-4.1c1.7-2.4,3.5-2.7,3.5-2.7s0.3,0.3,0.3,0.4c0.1,0.1,1.2,1.3,1.3,1.2
				c-1.2,0.8-6.3,4.7-3.2,13.2c0,0-0.2-7.7,6.2-11.7c0.7-3.2,5.7-22.1,24.3-28c20.3-6.4,28.1,3.2,29.9,6.9c0.8,1.7,2.9,6.8,2.9,6.8
				c1.8,5,6.2,24.7,7.9,26.9c1.7,2.3,6.7,11.5,4.7,19.9C441.9,140.1,441.5,141.4,440.4,141.2"/>
			<path class="st0" d="M622.3,56.1c1.7-2.5,3.8-6.7,3.4-11.8c4.2-2.2,19.3-13.3,26.5-20.2c0.4,2.3,0.4,5.4-0.9,8.8
				c-1,2.9-3.3,6.1-5.5,8.5c-0.3,0.2-0.6,0.4-0.9,0.6c-2.3,1.6-4.6,3.2-6.9,4.7c-3.3,2.1-6.6,4.1-10,6.1c-1.6,0.9-3.2,1.8-4.8,2.7
				C622.9,55.8,622.6,56,622.3,56.1"/>
			<path class="st0" d="M654.4,30.4c0.9-2.1,1.3-4.8,1.2-7.1c0-0.6-0.1-1.2-0.2-1.7c0,0,0,0,0-0.1c0.4-0.3,0.8-0.6,1.2-0.9
				c0.7-0.4,1.3-0.8,2-1.2c1.1-0.6,2.3-1,3.5-1.3c0.9-0.2,1.8-0.3,2.7-0.3c2.6,0,5,1,7.1,2.6c0,0,0.1,0,0.1,0.1c-1,0.2-2,0.6-2.9,1
				c-1,0.5-2,1.1-2.9,1.8c-1.3,0.9-5,4.4-5.9,5.3c-1.2,1.2-2.4,2.4-3.7,3.7c-1.5,1.5-4.7,4.5-6.3,5.6c-0.3,0.3-4.3,3.4-4.3,3.4
				C646.3,41.2,652.9,34.2,654.4,30.4"/>
		</g>
		<g>
			<path class="st1" d="M662.1,18.1c-1.2,0.3-2.4,0.7-3.5,1.3c-0.7,0.4-1.4,0.8-2,1.2c-0.4,0.3-0.8,0.6-1.2,0.9l0,0
				c-0.2-1-0.5-1.8-0.9-2.3c-0.7-0.9-1.9-1.4-2.7-1.6c0,0,0,0,0.1,0c1.3-1.1,2.7-2,3.8-3.3c-11.4-10.8-26.6-10.9-35.3-6.6
				c-8.6,4.2-11.1,9.4-10,16.5c-2.3,0.5-4.6,1.9-5.4,5.5c0.1-0.1,0.2-0.1,0.3-0.2c2-1.6,5.2-2.2,7.2-0.3c1.8,1.7,3.2,4.5,4.5,7.5
				c1.2,2.8,2.1,5.6,3.4,8.3c0.5,1.1,0.9,2.3,1.1,3.5c0.6,3.4-0.1,7-1.8,10c-1.8,3.2-2.8,7.6-1.2,12.2c1.6,4.6,4.2,6.3,4.9,7
				c0.8,0.7,0.7,1.4,0.3,1.9c-0.7,0.9-1.8,0-1.8,0c-6.7-5.5-8.2-15.9-8.3-18.7c0-2.8-8.3-21.2-10-26.2c-0.1-0.2-1.5-4.6-1.8-7.2
				c-0.5-4-0.3-16.4,19.7-23.5c18.4-6.5,33.7,5.7,36.2,7.8c5.2-0.4,8.9,2.3,10.7,4.1c0.8,0.8,1.3,1.5,1.3,1.5
				c-2-6.5-6.1-8.1-8.7-8.5c-0.8-0.1-1.5-0.1-1.8-0.1c0.1-0.2,0.1-0.3,0.1-0.4c0.3-1.1,0.2-1.7,0.2-1.7s0.6-0.3,1.6-0.4
				c1.5-0.1,3.8,0.3,6.8,2.6c0.5,0.4,0.9,0.8,1.3,1.2c-1.2-2.5-0.3-5.4,2.2-6.8c2.5-1.4,5.7-0.4,7,2.1c1.4,2.5,0.4,5.7-2.1,7
				c-1.9,1-4.1,0.8-5.6-0.4c1.5,2.5,1.7,5.1,1.6,6.7c0,0.3-0.2,1.5-0.2,1.5s0,0-0.1,0c-2.1-1.5-4.5-2.6-7.1-2.6
				C664,17.7,663,17.9,662.1,18.1"/>
			<path class="st1" d="M624.8,40.2c-0.9-2.4-1.6-4.3-2.2-5.9c10.1-4.5,19.7-10.2,26-14.5c0.9,0.3,1.9,0.8,2.6,1.7
				c0.5,0.6,0.8,1.6,1,2.7c-7.2,6.9-22.2,18-26.5,20.2C625.7,44.4,625.3,41.8,624.8,40.2"/>
			<path class="st1" d="M596,370.4c-56.3,9.6-67.1-32.6-67.3-42.9c-0.1-7.5,0.4-12.5,0.1-15.6c-8.2-3.4-16.9-4.7-16.9-4.7
				c0.5,4.7,0.5,15.2,2.5,23.5c1.9,7.8,14.9,41.7,60.5,41.9c4.7,0,9.8-0.3,15.2-1.1c2-0.3,3.9-0.7,5.7-1.1
				C595.8,370.4,595.9,370.4,596,370.4"/>
		</g>
		<g>
			<path d="M799.6,188.9c-4.5-13.1-12.9-25.3-22.2-35.5c-6.7-7.5-14-14.2-21.8-20.5c-11.9-9.6-25.5-17.5-39.3-24
				s-28.2-11.6-42.8-15.7c-22.9-6.3-47.1-9.7-71.1-11c-1.8,3.6-4,7.2-6.5,10.8c76.9,5.5,127.6,35.7,127.6,35.7l0.4,0.3
				c-2.7-1.2-5.5-2.4-8.4-3.5c-12.4-4.7-38.5-13.5-73-19.7c-14-2.5-28.1-4.2-42.2-5.4c-1.1-0.1-9.3-0.7-9.3-0.7
				c-2.6,3.3-5.4,6.5-8.5,9.7c18.7,0.8,37.9,2.7,56.8,6.1c77.8,14,125.5,46.5,148.4,64.6c2.1,1.7,4,3.2,5.6,4.5
				c3.9,3.2,6.4,5.2,6.4,5.4v-0.1L799.6,188.9L799.6,188.9z M628.1,52.9c3.4-1.9,6.7-4,10-6c2.4-1.5,4.7-3,6.9-4.7
				c0.3-0.2,0.6-0.4,0.8-0.6c2.2-2.4,4.5-5.6,5.5-8.5c1.2-3.4,1.3-6.5,0.9-8.8c-0.2-1.1-0.5-2.1-1-2.7c-0.7-0.9-1.7-1.4-2.6-1.7
				c-6.3,4.3-15.9,10-26,14.5c0.6,1.6,1.3,3.5,2.2,5.9c0.5,1.5,0.9,4.2,0.9,4.2c0.4,5.1-1.7,9.2-3.4,11.8c0.3-0.2,0.6-0.3,1-0.5
				C624.9,54.7,626.5,53.8,628.1,52.9L628.1,52.9z M650.5,37.8c1.5-1.1,4.8-4.2,6.2-5.6c1.2-1.2,2.5-2.4,3.7-3.7
				c0.9-0.9,4.6-4.4,5.9-5.3c0.9-0.7,1.9-1.3,2.9-1.8c0.9-0.4,1.9-0.8,2.9-1l0,0c0,0,0.2-1.2,0.2-1.5c0.1-1.6-0.1-4.2-1.6-6.7
				c1.6,1.2,3.8,1.4,5.6,0.4c2.5-1.4,3.5-4.5,2.1-7.1C677,3,673.9,2,671.3,3.4c-2.4,1.3-3.3,4.3-2.2,6.8c-0.4-0.4-0.8-0.8-1.3-1.2
				c-3-2.3-5.3-2.6-6.8-2.6c-1,0.1-1.6,0.4-1.6,0.4s0.1,0.7-0.2,1.7c0,0.2-0.1,0.3-0.1,0.5c0.4,0,1,0,1.8,0.1c2.5,0.4,6.7,2,8.6,8.5
				c-0.1-0.1-0.6-0.7-1.3-1.4c-1.8-1.8-5.6-4.5-10.7-4.1C655,10,639.7-2.2,621.3,4.3c-20.1,7.1-20.2,19.5-19.7,23.6
				c0.3,2.6,1.7,7,1.8,7.2c1.6,5.1,9.9,23.4,9.9,26.2c0.1,2.8,1.6,13.2,8.3,18.7c0,0,1.1,0.8,1.8,0c0.4-0.5,0.5-1.2-0.3-1.9
				s-3.4-2.5-4.9-7c-1.5-4.6-0.6-9,1.2-12.2c1.7-3,2.4-6.6,1.8-10c-0.2-1.2-0.6-2.4-1.1-3.5c-1.3-2.7-2.3-5.6-3.4-8.3
				c-1.3-3-2.7-5.8-4.5-7.5c-2-1.9-5.2-1.3-7.2,0.3c-0.1,0.1-0.2,0.1-0.3,0.2c0.8-3.6,3.1-5,5.4-5.5c-1.1-7.1,1.4-12.3,10-16.5
				c8.8-4.3,24-4.3,35.3,6.5c-1.1,1.3-2.5,2.2-3.8,3.3c0,0,0,0-0.1,0c0.9,0.3,2,0.7,2.7,1.6c0.4,0.5,0.7,1.3,0.9,2.3c0,0,0,0,0.1,0
				l0,0c0.1,0.5,0.2,1.1,0.3,1.8c0.1,2.3-0.4,5-1.2,7.1c-1.3,3.6-7.2,9.9-8.1,10.8C646.9,40.7,650.2,38.1,650.5,37.8L650.5,37.8z
				 M598.8,55.3c0,0-0.1-0.7-0.4-1.6c-4.2-12.4-50.1-35.2-92.6-20.9s-65,61.5-61.3,72.6c0.3,0.7,0.5,1.1,0.5,1.1
				c0.1,0,0.1,0.2,0.1,0.2c0.3,0.5,0.7,1,1,1.5c9.3,11.8,51.8,31.2,91,18.1c32.4-10.9,53.5-40.2,59.8-59
				C598.6,62.4,599.3,58.2,598.8,55.3L598.8,55.3z M437.3,120.1c-1.7-2.3-6.1-21.9-7.9-26.9c0,0-2.1-5.2-2.9-6.8
				c-1.8-3.7-9.6-13.3-29.9-6.9c-18.6,5.9-23.6,24.9-24.3,28c-6.3,4.1-6.2,11.7-6.2,11.7c-3.1-8.4,2-12.3,3.2-13.1
				c-0.2,0-1.2-1-1.3-1.2l-0.3-0.4c0,0-1.8,0.4-3.5,2.7c-0.7,1-1.4,2.3-1.9,4.1c-0.2,0.7-0.3,1.3-0.4,1.9c0-0.1,0-0.1,0-0.2
				c-0.4-2.9-3.1-4.8-6-4.4c-2.9,0.4-4.9,3.1-4.4,6c0.4,2.9,3.1,4.8,6,4.4c2.3-0.3,4-2.1,4.4-4.2c0.2,5.2,3.9,8.2,3.9,8.2
				c1-0.4,2-0.7,3-0.9c1.1-0.2,2.2-0.3,3.4-0.3c3.6,0,7.4,0.7,11.4,1.2c4.5,0.6,9,1.1,13.5,1.1c0.7,0,2.1,0,2,0
				c-3.6-0.2-9.4-1.5-13-3.7c0,0,0,0-0.1,0c-2.1-1.2-4.3-3.3-5.5-5.4c-0.1-0.1-0.5-0.9-0.6-1c-0.4-0.9-0.7-1.7-0.7-2.4
				c0-1.1,0.7-2.2,1.2-3h0c-0.4,0-5,0-5-0.3c2.5-15.5,14.6-24.7,24.2-26.5c9.4-1.8,14.5,0.8,17.9,7.1c2.2-1,4.8-1.2,7.6,1.2
				c-4.1-0.2-5.9,2.3-6.2,4.2c-0.8,4.7,2.1,11.9,3.3,17.4c1.2,5.5,5.3,8.8,8.7,10.3c3.4,1.5,6.8,4.4,8.3,9c1.5,4.6,0.5,7.5,0.3,8.6
				c-0.2,1,0.3,1.6,0.9,1.7c1.1,0.3,1.5-1.1,1.5-1.1C444,131.6,438.9,122.4,437.3,120.1L437.3,120.1z M404.2,124
				c2.5-0.1,4.9-0.3,7.4-0.5c4.9-0.4,10.7-1.1,15.6-1.9c-2.9-1-7-2.9-9.7-7.2c-0.7-1.2-1.4-2.5-1.9-4c-0.8-2.4-1.4-4.4-1.8-6
				c-11.4,3.1-29.5,4.1-29.5,4.1c-0.5,0.8-1,1.8-1.1,2.9c0,0.7,0.3,1.7,0.8,2.8c1,2.1,3,4.5,6,6.5c2.6,1.7,6.3,2.9,9.5,3.5
				C401.1,124.1,402.7,124.1,404.2,124L404.2,124z M400.8,192.9c-8.3,11.9-15.8,24.5-21.8,37.7c-5.9,12.9-10.7,26.3-13.7,40.2
				c-2.8,13.1-4.1,26.5-3.4,39.9c0.4,7.9,1.4,16.1,3.9,23.7l0.4,1.1c4.2-17.9,16.9-84.6,83.1-156.3c13.1-14.2,27.4-27.3,42-39.3
				c-4.4-0.7-8.6-1.6-12.7-2.7c-10.4,9.2-34.9,33.3-35,33.4c-19.7,19.8-34.4,38.9-45.5,56.6c-2.3,3.8-4.1,6.9-5.5,9.2
				c-0.8,1.3-1.5,2.6-2.2,3.9l-0.2,0.3c0.7-1.7,23.1-55.7,80.5-105.8c-4.2-1.5-8.1-3-11.7-4.8c-0.6-0.3-6.3,5.5-7,6.1
				c-5.8,5.1-11.4,10.4-16.8,15.8C422.7,164.6,411,178.3,400.8,192.9L400.8,192.9z M510.3,173.7c-0.2,0.8-0.5,1.6-0.7,2.2
				c-1.5,4.7-7.6,22.2-9,26.2c-1.2,3.6-2.1,6.6-1.8,12c0,0.8,0.1,1.6,0.2,2.5c0.8,6.6,4,20.1,4.4,21.8c0,0.1,0,0.2,0,0.2
				s5.4-2.6,7-3.6c0,0,0-0.1,0-0.2c-0.2-1.5-1.6-12.2-1.7-17.4c0-0.8,0-1.4,0.1-1.9c0,0,3.1-3.3,3.9-5.8c0.7-2.5,0-15.9,5.3-25.2
				v0.2c0,0,0.3,1,1.4,2.7c1.1,1.7,3.4,4.1,4.7,3.1c1.3-0.9,1.1-3.6,1.1-6.4s-1-5.9-1.7-6.7c0,0,1.1-2.3,4.1-3.7
				c0,0-0.1,1.1,0.1,2.6c0.5,2.7,1.8,5,2.7,7.5c0.3,0.9,1.1,1.8,2.4,1.1c0,0,2.5-1.3,4.7-2.4c0.3-0.2,1.8-1.3,1-3.5
				c0-0.1-0.1-0.1-0.1-0.2s-0.1-0.2-0.1-0.3c-0.8-2.1-1.5-4-2.6-6.2c0,0-0.5-2-1.5-2.1c0,0,1.8-1.2,2.7-1.6c1.3-0.5,2.8-1.2,3.6-1.4
				c0,0-0.8,1.3-0.6,3.2c0.5,2.7,1.3,6.3,2,9.4c0.2,0.7,0.9,1.9,2.4,1.5c1.7-0.7,3.4-1.3,5.1-2c1.4-0.6,1.4-2,1.4-2.5
				c-0.8-3.4-1.7-7.5-2.6-10.7c-0.2-0.5-0.5-1.2-0.8-1.4c0,0,1.5-1.1,2.6-1.3c1-0.3,2.9-0.7,2.9-0.7s-0.4,1.3,0.1,2.7v0.1
				c0.8,2.2,1.5,4.3,2.3,6.5c0.2,0.6,0.7,1.8,1,2.6c0.2,0.4,0.8,1.7,2.3,1.3c2-0.6,4-1.1,6-1.6c1.5-0.4,0.6-2.7,0.6-2.7
				s-2.2-5.3-3.6-8.7c0,0-0.5-1.2-1.2-1.8c0,0,1.4-0.6,2.4-0.8c2.2-0.4,3.5-0.4,4.1-0.4c0,0-0.7,1.6,0.1,3.6
				c0.1,0.1,0.1,0.2,0.1,0.3c0.7,1.5,1.4,3.1,2,4.6c0.2,0.4,0.4,0.9,0.5,1.3c0.2,0.7,1.3,1.8,3,1.5h0.1c1.4-0.3,2.8-0.5,4.2-0.7l0,0
				c0,0,2.5-0.5,1.6-2.9c-1.3-2.8-2.6-5.6-4.1-8.5c1.6-0.1,3.1-0.2,4.7-0.3c0,0-0.2,0.1,0.5,1.9c0.6,1.8,2.5,5.5,2.7,6
				c0.2,0.6,0.9,2.7,1.8,2.8c0.9,0.1,4.5-2.8,3.6-8.3c9.8,4.2,17.3,15.4,19.4,16.9c1.8,1.3,5.4,2.1,6.3,2.2c0.1,0,0.2,0,0.2,0
				c2.5,2.6,9.5,14.8,10.4,16.4c0.1,0.1,0.1,0.2,0.1,0.2c1.9-0.2,7.8-1.4,7.8-1.4s-6.1-14.1-9.7-20.2c-3.6-6.1-6.5-8.1-10-10.6
				s-18.9-12.6-23-15.5s-14.9-12.6-24.4-14.3c-4.7-0.8-8.8-0.9-12.6-0.5c-3.9,0.4-7.5,1.4-11.4,2.7c0,0,0,0-0.1,0h-0.1
				c-7.7,2.6-14,5.8-20.5,12.7C514.8,155.9,511.9,167.6,510.3,173.7L510.3,173.7z M497.7,257.1c-0.2,1.7-0.3,3.8-0.3,5.8
				c0,5.1,0.5,10.1,0.5,10.1s6.8,4.4,10.3,10.8s6.4,19.1,6.4,19.1c13.1,1.5,25.4,15.5,26.2,16.3c-3.3-3.1-7.5-5.5-12-7.3
				c-8.2-3.4-16.9-4.7-16.9-4.7c0.5,4.7,0.5,15.2,2.5,23.5c1.9,7.8,14.9,41.7,60.5,41.9c4.7,0,9.8-0.3,15.2-1.1
				c2-0.3,3.9-0.7,5.7-1.1c0.1,0,0.2,0,0.3-0.1c10.4-2.2,18.7-4.7,20.9-5.4c0.2-0.1,0.4-0.1,0.6-0.2c1.1-0.3,2.5-0.8,4.3-1.5
				c0.5-0.2,1-0.4,1.6-0.6c0.7-0.3,1.5-0.6,2.3-0.9c1.1-0.4,2.2-0.9,3.4-1.4s2.4-1.1,3.7-1.7l2.3-1c58.9-28.3,45.9-73.1,42.5-81.7
				c-3.1-7.7-9.2-15.3-11.8-19.6c-3.1,3.4-7.3,8.5-10.5,14.2c-2.1,3.7-3.7,7.7-4.3,11.6c0,0,1.1-19.5,11-28.9c0,0-5.3-11.9-6.4-19.1
				c-1.1-7.2,1.7-14.8,1.7-14.8s-0.7-1.1-1.7-2.7c0-0.1-0.1-0.1-0.1-0.2c-2.3-4.2-5.5-8.6-9.3-11.5c-4.5-3.4-6.6-5.9-19.1-3
				c-4.9,1.2-9.8,2.2-14.7,2.8c-6.3,0.8-14.7,1-19.4-4.3c0,0,0,0-0.1-0.1c-0.6-0.7-1.2-1.5-1.6-2.5c0,0,3.5,2.5,9.8,2.2
				c0,0,0,0,0-0.1l0,0c-0.2-0.5-1.6-4.4-2-7.8c-0.2-2.1-1.2-7.5-1.2-7.5c-1.8-6.4-8-9.9-8.6-9.6c-0.7,0.4-1.5,2,1.3,10.8
				c0,0.4,1.4,0.9,1.7,0.9c0.6,0.1,1.1,0.2,1.7,0.3c0,0-0.2,0.3-0.8,1.2c-0.3,0.4-0.9,0.7-1.3,0.9c-0.5,0.3-2.9,1.3-2.9,1.3
				c-1.2,0.5-2.3,0.9-2.3,0.9c0-0.2,0-0.5,0-0.8c-0.1-0.6-0.4-1.6-0.4-1.7c0-0.2,0-0.4-0.1-0.4c-0.1-0.6-0.3-1.1-0.4-1.7
				c-0.6-2-1-3.7-1.7-5.6l-0.1-0.1c-0.6-1.9-2.5-1.3-2.5-1.3l-0.2,0.1c-1.4,0.7-2.9,1.4-4.5,2.2c0,0-1.8,0.9-1.5,2.8v0.1
				c0,0.1,0,0.1,0,0.2c0.1,0.2,0.1,0.4,0.2,0.5c0.5,1.8,1.5,5.6,1.7,6.5c0.2,1,0.9,3,1.3,3.7c-0.3,0.3-1,1.1-1.7,1.4
				c-0.6,0.3-1.1,0.4-2,0.3c-0.3-0.3-0.8-1-0.8-1.4c0-0.2-0.7-2.2-1.3-4.4c-0.7-2.2-1.5-4.6-1.9-5.7c-0.4-1.2-1.2-1.4-1.9-1.4
				c-0.6,0-1,0.2-1,0.2c-1.4,0.6-3.3,1.2-4.7,1.8c-0.1,0-0.2,0.1-0.3,0.1c-1.8,0.7-1.7,2.2-1.5,2.8c0.8,2.3,1.8,5.2,2.5,7.5
				c0.2,0.5,0.4,1.1,0.5,1.6c0,0,0,0,0,0.1c0.1,0.2,0.7,1.9,1.8,2.5c-0.7,0.5-2,1-3,1.4c-1.2,0.4-3.4,0.8-3.5,0.8
				c0.4-0.8,0.4-2.1,0.3-2.8c-0.3-0.9-2.6-9.2-2.7-9.5c-0.1-0.3-0.5-1.3-1.2-1.5c-0.6-0.2-2.4,0.3-2.4,0.3c-0.1,0-0.2,0-0.3,0.1
				c-1.5,0.5-3.6,0.8-5.1,1.2c0,0-2.3,0.7-1.6,2.8c0,0,1.5,5.6,2.3,8.2c0,0.1,0,0.2,0,0.2c0.1,0.2,0.4,1.3,0.5,3s-1,2.1-1.8,2.1
				s-1.7-1.4-1.9-2.3s-0.7-2.4-0.7-2.4l-0.1-0.1l0,0c-0.1-0.1-0.1-0.3-0.2-0.4c-0.8-2.2-1.4-3.9-2.2-6.1c-0.8-2-3-1.6-3-1.6
				c-1.7,0.4-3.3,0.7-4.9,1l-0.2,0.1c0,0-1.9,0.7-1.3,2.5c0,0.1,0,0.1,0,0.2c0.7,2,1.2,3.5,2,5.5c0.2,0.5,1,2.4,1.5,3.1
				s1.1,1.1,1.1,1.1c0,0.4-0.6,1.2-1.8,1.7c-0.1,0-0.3,0.1-0.5,0.1c-0.4,0.1-0.8,0.2-1.2,0.2c-1.1,0.1-3,0.3-3.3-1.2
				c0-0.1,0-0.1,0-0.1c0.2-0.6,0.3-1.4,0.2-1.8c-0.1-0.5-0.3-0.9-0.3-1.1c-3.1-8.7-4.7-9.5-5.5-9.4c-0.7,0-3.4,6.6-1,12.8v0.1
				c1.2,2.8,2.4,4.8,3.5,6.6c1.9,3.2,3.1,7.5,3.1,7.5v-0.1v0.1c1.6-1.1,3-2.4,4.2-3.9l0.1-0.1c0.6-0.9,1.5-1.7,2-2.7
				c0.1-0.3,0.2-0.6,0.2-0.8c0.4,1.7,0.4,3.7-0.3,5.3c0,0.1,0,0.1-0.1,0.2c-2.4,6.4-8.4,10.2-14.1,13.4c-3.8,2.1-7.7,4-11.7,5.7
				c-11.6,5.1-11.8,8.5-13.4,13.9C497.9,255.4,497.8,256.2,497.7,257.1L497.7,257.1z M678.1,137c-42.1-11.3-82.4-14.6-109.2-15.3
				c-0.4,0.3-0.8,0.6-1.3,0.9c6.5,1.3,12.5,3.9,17.8,8.2c13.4,10.7,28.2,18.9,38.1,26.8c10,7.9,19.2,31.8,19.2,31.8
				c16.7,6.4,28,29.1,28,29.1s-2.6,5-2.9,11.1c-0.3,6.1,9.3,16.5,19.2,34.8s12.1,43.4-4.3,71c-16.3,27.4-61.2,41.6-61.6,41.7
				c-0.4,0.1-44.7,15.9-74.3,3.9c-29.7-12.1-43.1-33.4-46.2-54c-3.2-20.6-1.8-34.6-5.7-39.3c-3.9-4.7-9-7.2-9-7.2
				s-4.6-24.9,4.8-40.1c0,0-7-24.6-3.9-36.9c3.2-12.3,10.1-27.7,14.3-44.3c1.7-6.7,5.1-12.6,9.6-17.6c-0.5,0-1,0-1.4,0
				c-21,16.8-51.3,43.8-78.2,78.4c-47.1,60.6-62.5,157.1-62.5,157.1c-20.7-56.6-25.9-76.6-8.9-130.3
				c17.1-53.7,68.5-105.1,68.5-105.1c-1.2-3,0.6-8.5,0.6-8.5s-7.5,2.3-30.2,2.3c-22.6,0.1-18.3-2.4-25.3-2c-6.9,0.4-8.9,3.2-8.9,3.2
				c-3.5-1.7-6.8-5.8-6.8-5.8c-3.3-0.4-19.5-2.2-17.8-18.1s18.4-14.9,18.4-14.9c3-3.4,7.4-4.9,7.4-4.9s9.8-25.9,38.1-27.2
				c24.6-1.1,32.5,13.9,34.2,17.9c0.6-1.5,1.3-3,2.1-4.6c5-10.2,12.7-21.6,23-31.8c10.4-10.3,23.5-19.5,39.3-24.8
				c24.1-8,48.4-5.6,67.5,0.4c7.1,2.2,13.9,5.1,20.3,8.8c-1.1-5.4-2.3-20.9,16.7-34c23.3-16.1,46.8-1.3,46.8-1.3s4.4-1.5,8.9-0.5
				c0,0,12.7-10.8,23.7,0.8c11,11.7-0.8,22.9-3.2,25.2c0,0-0.2,5.2-2,8.7c0,0-3.3-1.1-9.1,2.8c-5.8,3.9-0.9,3.2-19,16.8
				s-25.5,16.3-25.5,16.3s4.8,3.3,5.6,6.4c0,0,72,9.9,118,42.5s53.9,51.6,71.5,109.3C822.7,224.6,752.3,156.9,678.1,137"/>
			<path class="st1" d="M677.6,276.1c-3.1-7.7-9.2-15.3-11.8-19.6c-3.1,3.4-7.3,8.5-10.5,14.2c1.7,2.6,5.1,6.2,8.9,11.4
				c2.7,3.7,7.5,13.9,7.5,26.2c0,14.1-6.3,31.1-29.2,45c-0.1,0.1-0.2,0.1-0.3,0.2c-0.3,0.2-0.6,0.4-0.9,0.5
				c-2.9,1.8-5.9,3.3-8.6,4.7l2.3-1C694,329.4,681,284.6,677.6,276.1"/>
			<path class="st0" d="M651.9,254.4L651.9,254.4c0-0.1-2.5-16.7-6.5-23.3c-4.1-6.6-7.9-12.6-18.1-12.1c0,0,5.9,1.7,4,6.3
				c-0.1,0.3-0.2,0.7-0.3,1l0,0c0,0-1.6-0.5-2.4-0.6c-6.1-0.8-19,1.2-25.2,5.5c-0.1,0-0.1,0-0.1,0.1c0,0-1.5-1.8,0.4-7.6
				c-0.5,0.2-8.2,3-11,9.3c-2.9,6.4-0.1,23.8-10.4,27.4c-10.4,3.4-18.6-12.1-24.8-15.5s-14.4-0.8-14.4-0.8c5.1,3.4,5,5.8,5,5.8
				c-0.1,0-0.1,0-0.2,0c-7.5,0.4-19,6.6-23.4,10.8c-0.6,0.6-1.5,1.9-1.5,1.9c-0.1-0.1-0.3-0.2-0.4-0.3c-0.2-0.1-0.3-0.2-0.5-0.3
				c-4.1-2.4-0.9-7-0.6-7.4c-8.4,5.6-7.9,12.8-7.1,20.5c0.7,7.7,8.8,22.5,8.8,22.5l0.1-0.1c0,0,0,0-0.1,0.1c0.5-0.2,7.6-3.3,14-9.3
				c0.6-0.6,1.2-1.2,1.8-1.8c6.9-7.5,13.4-14.3,19.8-16.4c2.1-0.7,4.3-0.8,6.3-0.8h0.1c0.6,0,1.1,0.1,1.6,0.1l0,0
				c3.3,0.4,5.9,1.3,5.9,1.3c2.2-4.7,19.1-10.4,23.8-8c0,0,0.1-0.1,0.1-0.2c0.3-0.4,1.7-2.4,3.8-4.4l0,0c0.4-0.4,0.8-0.7,1.2-1.1
				c0,0,0.1,0,0.1-0.1c1.5-1.3,3.4-2.5,5.5-3.2c6.4-2.2,15.7-0.6,25.7,1.2c0.9,0.1,1.7,0.3,2.6,0.4
				C644.1,256.3,651.9,254.4,651.9,254.4L651.9,254.4z M585.7,220.2l-1-3.1c-1.4-4.2-6.5-6.3-11.3-4.7l0,0c0,0,3.2,0.8,4.3,3.9v0.1
				c-0.9-0.1-1.9-0.1-2.9,0.2c-3.1,1-4.8,4.2-3.8,6.9c0.2,0.5-0.1,1-0.6,1.2s-1-0.1-1.2-0.6c-0.9-2.8-4.2-4.2-7.3-3.2
				c-1,0.3-1.8,0.9-2.5,1.6v-0.1c-1-3.1,1-5.7,1-5.7c-4.8,1.6-7.6,6.3-6.2,10.5l1,3.1c0.7,2.3,2.6,3.7,3.9,4.5
				c1.3,0.9,2.4,1.5,3.8,3.2l0.1,0.1l0,0c1.8,2,3.3,3.6,4.1,6.1c1.4,4,6,6.1,10.8,4.8c0.2,0,0.4-0.1,0.5-0.1
				c0.2-0.1,0.4-0.1,0.6-0.2c4.5-1.8,6.9-6.3,5.6-10.3c-0.8-2.6-0.7-4.6-0.5-7.4v-0.1l0,0c0.1-2.2,0.6-3.4,1.1-4.9
				C585.9,224.7,586.5,222.5,585.7,220.2z M576.6,287.7c8-7.1,11.5-7.7,12.2-7.9c0.7-0.3,3.9-1.9,14.5-1c12.3,0.6,34,2.8,40.4-5.1
				c0-0.2-15.5,1.5-25.9-0.2c-10.4-2.2-25.1-3.6-31.6-1.3c-6.6,2.1-17.5,12.1-24.4,20.1c-7.3,7.6-20.5,15.5-20.5,15.7
				C551.2,310.4,567.2,295.5,576.6,287.7L576.6,287.7z M664.2,282.1c2.7,3.7,7.5,13.9,7.5,26.2c0,14.1-6.3,31.1-29.2,45
				c-0.1,0.1-0.2,0.1-0.3,0.2c-0.3,0.2-0.6,0.4-0.9,0.5c-2.9,1.8-5.9,3.3-8.6,4.7c-1.3,0.6-2.5,1.2-3.7,1.7s-2.3,1-3.4,1.4
				c-0.8,0.3-1.6,0.6-2.3,0.9c-0.6,0.2-1.1,0.4-1.6,0.6c-1.8,0.7-3.2,1.1-4.3,1.5c-0.2,0.1-0.4,0.1-0.6,0.2
				c-2.2,0.7-10.5,3.2-20.9,5.4c-56.3,9.6-67.1-32.6-67.3-42.9c-0.1-7.5,0.4-12.5,0.1-15.6c4.4,1.8,8.7,4.2,12,7.3
				c-0.8-0.9-13-14.9-26.2-16.3c0,0-2.9-12.7-6.4-19.1S497.8,273,497.8,273c-0.7-9.1,4.2-22.2,9.7-24.9c5.4-2.7,19.9-7.5,25.5-13.9
				c5.6-6.4,5.8-13.2,4.5-18.1c-0.4-2-1.3-4.4-2-6.1c0.2,0,0.3-0.1,0.5-0.1c1.2-0.4,1.8-1.2,1.8-1.7c0,0-0.6-0.4-1.1-1.1
				s-1.2-2.6-1.5-3.1c-0.8-2-1.4-3.5-2-5.5c0-0.1,0-0.1,0-0.2c-0.6-1.9,1.3-2.5,1.3-2.5l0.2-0.1c1.5-0.3,3.2-0.6,4.9-1
				c0,0,2.3-0.4,3,1.6c0.7,2.2,1.4,3.9,2.2,6.1c0,0.1,0.1,0.3,0.2,0.4l0,0l0.1,0.1c0,0,0.5,1.5,0.7,2.4c0.2,0.8,1.1,2.3,1.9,2.3
				c0.8,0,2-0.4,1.8-2.1c-0.1-1.7-0.5-2.8-0.5-3c0-0.1,0-0.2,0-0.2c-0.8-2.6-2.3-8.2-2.3-8.2c-0.7-2.1,1.6-2.8,1.6-2.8
				c1.4-0.4,3.6-0.7,5.1-1.2c0.1,0,0.2,0,0.3-0.1c0,0,1.8-0.6,2.4-0.3c0.7,0.2,1.1,1.2,1.2,1.5c0.1,0.3,2.5,8.6,2.7,9.5
				c0.2,0.7,0.1,2-0.3,2.8c0.1,0,2.3-0.4,3.5-0.8c1-0.4,2.3-0.9,3-1.4c-1-0.5-1.7-2.2-1.8-2.5v-0.1c-0.2-0.6-0.4-1.1-0.5-1.6
				c-0.8-2.3-1.7-5.2-2.5-7.5c-0.1-0.6-0.2-2.1,1.5-2.8c0.1,0,0.2-0.1,0.3-0.1c1.5-0.6,3.4-1.2,4.7-1.8c0,0,0.5-0.2,1-0.2
				c0.7,0,1.5,0.3,1.9,1.4s1.2,3.5,1.9,5.7s1.3,4.2,1.3,4.4c0,0.4,0.5,1.2,0.8,1.4c0.8,0.1,1.4-0.1,2-0.3c0.7-0.3,1.4-1.1,1.7-1.4
				c-0.4-0.8-1.1-2.7-1.3-3.7c-0.1-0.9-1.2-4.7-1.7-6.5c-0.1-0.1-0.1-0.3-0.2-0.5c0-0.1,0-0.1,0-0.2s0-0.1,0-0.1
				c-0.3-1.8,1.5-2.8,1.5-2.8c1.6-0.8,3.1-1.5,4.5-2.2l0.2-0.1c0,0,1.9-0.6,2.5,1.3c0,0.1,0.1,0.1,0.1,0.1c0.6,2,1.1,3.6,1.7,5.6
				c0.1,0.6,0.3,1.1,0.4,1.7c0,0.1,0.1,0.2,0.1,0.4c0,0.1,0.3,1.1,0.4,1.7c0.1,0.3,0.1,0.6,0,0.8c0,0,1-0.4,2.3-0.9
				c0.5,4.2,2.3,7.3,2.3,7.3c0.4,0.9,1,1.8,1.6,2.5l0,0c2.3,3.9,6.4,7.8,13.3,9.2c8.4,1.7,22.8-3.2,28.8-4.3
				c5.3-1,15.1,4.8,20.7,11.4c1,1.6,1.7,2.7,1.7,2.7s-2.8,7.6-1.7,14.8c1.1,7.2,6.4,19.1,6.4,19.1c-9.9,9.4-11,28.9-11,28.9
				c0.6-4,2.2-7.9,4.3-11.6C657,273.3,660.4,276.9,664.2,282.1"/>
		</g>
		<path class="st2" d="M518.5,29.9c-24.1,4.4-45.9,19.2-61.4,42c-9.5,14-15.1,31.1-11.4,34.6c1.7,1.5,2.4,1.4,1.5-0.2
			c-1.4-2.7-0.8-6.3,2.1-11.6c15.2-27.9,42.4-48.7,71.3-54.6c22.8-4.6,49.6-1.4,69.1,8.4c5.4,2.7,7.5,4.9,7.5,8
			c0,1.1,0.1,1.1,0.7,0.1c1.6-2.7-3.3-8.8-11.2-13.8c-9-5.7-22-10.4-34.9-12.6C542.8,28.6,526.5,28.4,518.5,29.9L518.5,29.9z"/>
	</g>
</g>
</svg>
