<svg width="500" height="500" viewBox="0 0 500 500" fill="none" xmlns="http://www.w3.org/2000/svg">
<g clip-path="url(#clip0_1_185)">
<path d="M334.104 124L348.808 169.082L337.868 202.583L312.329 124H197.846L177.311 186.99L156.858 124H20L62.9932 193.815L121.889 374.721H232.712L254.984 306.333L277.194 374.721H398.439L480 124H334.104ZM78.2962 186.722L49.9649 140.73H144.699L168.501 214.04L127.845 338.924L78.2962 186.722ZM220.49 358.363H139.136L205.58 154.254L246.195 279.284L220.49 358.363ZM218.774 140.73H300.169L329.121 229.653L288.382 354.827L218.774 140.73ZM386.135 358.26H304.801L366.344 169.185L357.08 140.73H456.901L386.135 358.26Z" fill="#FFB612"/>
<path d="M329.058 229.674L288.319 354.849L218.773 140.731H300.169L329.058 229.674ZM357.079 140.731L366.302 169.186L304.76 358.261H386.093L456.942 140.731H357.079ZM144.698 140.731H49.9646L78.2958 186.722L127.927 338.925L168.501 214.04L144.698 140.731ZM139.136 358.261H220.593L246.298 279.285L205.58 154.255L139.136 358.261Z" fill="#5A1414"/>
</g>
<defs>
<clipPath id="clip0_1_185">
<rect width="460" height="250.721" fill="white" transform="translate(20 124)"/>
</clipPath>
</defs>
</svg>
